solid plate
  facet normal 0 0 1.0
    outer loop
      vertex -1.000000000000e-03 -1.000000000000e-03 -1.506000000000e-03
      vertex -7.500000000000e-04 -1.000000000000e-03 -1.506000000000e-03
      vertex -7.500000000000e-04 -7.500000000000e-04 -1.506000000000e-03
    endloop
  endfacet
  facet normal 0 0 1.0
    outer loop
      vertex -1.000000000000e-03 -1.000000000000e-03 -1.506000000000e-03
      vertex -7.500000000000e-04 -7.500000000000e-04 -1.506000000000e-03
      vertex -1.000000000000e-03 -7.500000000000e-04 -1.506000000000e-03
    endloop
  endfacet
  facet normal 0 0 1.0
    outer loop
      vertex -1.000000000000e-03 -7.500000000000e-04 -1.506000000000e-03
      vertex -7.500000000000e-04 -7.500000000000e-04 -1.506000000000e-03
      vertex -7.500000000000e-04 -5.000000000000e-04 -1.506000000000e-03
    endloop
  endfacet
  facet normal 0 0 1.0
    outer loop
      vertex -1.000000000000e-03 -7.500000000000e-04 -1.506000000000e-03
      vertex -7.500000000000e-04 -5.000000000000e-04 -1.506000000000e-03
      vertex -1.000000000000e-03 -5.000000000000e-04 -1.506000000000e-03
    endloop
  endfacet
  facet normal 0 0 1.0
    outer loop
      vertex -1.000000000000e-03 -5.000000000000e-04 -1.506000000000e-03
      vertex -7.500000000000e-04 -5.000000000000e-04 -1.506000000000e-03
      vertex -7.500000000000e-04 -2.500000000000e-04 -1.506000000000e-03
    endloop
  endfacet
  facet normal 0 0 1.0
    outer loop
      vertex -1.000000000000e-03 -5.000000000000e-04 -1.506000000000e-03
      vertex -7.500000000000e-04 -2.500000000000e-04 -1.506000000000e-03
      vertex -1.000000000000e-03 -2.500000000000e-04 -1.506000000000e-03
    endloop
  endfacet
  facet normal 0 0 1.0
    outer loop
      vertex -1.000000000000e-03 -2.500000000000e-04 -1.506000000000e-03
      vertex -7.500000000000e-04 -2.500000000000e-04 -1.506000000000e-03
      vertex -7.500000000000e-04 0.000000000000e+00 -1.506000000000e-03
    endloop
  endfacet
  facet normal 0 0 1.0
    outer loop
      vertex -1.000000000000e-03 -2.500000000000e-04 -1.506000000000e-03
      vertex -7.500000000000e-04 0.000000000000e+00 -1.506000000000e-03
      vertex -1.000000000000e-03 0.000000000000e+00 -1.506000000000e-03
    endloop
  endfacet
  facet normal 0 0 1.0
    outer loop
      vertex -1.000000000000e-03 0.000000000000e+00 -1.506000000000e-03
      vertex -7.500000000000e-04 0.000000000000e+00 -1.506000000000e-03
      vertex -7.500000000000e-04 2.500000000000e-04 -1.506000000000e-03
    endloop
  endfacet
  facet normal 0 0 1.0
    outer loop
      vertex -1.000000000000e-03 0.000000000000e+00 -1.506000000000e-03
      vertex -7.500000000000e-04 2.500000000000e-04 -1.506000000000e-03
      vertex -1.000000000000e-03 2.500000000000e-04 -1.506000000000e-03
    endloop
  endfacet
  facet normal 0 0 1.0
    outer loop
      vertex -1.000000000000e-03 2.500000000000e-04 -1.506000000000e-03
      vertex -7.500000000000e-04 2.500000000000e-04 -1.506000000000e-03
      vertex -7.500000000000e-04 5.000000000000e-04 -1.506000000000e-03
    endloop
  endfacet
  facet normal 0 0 1.0
    outer loop
      vertex -1.000000000000e-03 2.500000000000e-04 -1.506000000000e-03
      vertex -7.500000000000e-04 5.000000000000e-04 -1.506000000000e-03
      vertex -1.000000000000e-03 5.000000000000e-04 -1.506000000000e-03
    endloop
  endfacet
  facet normal 0 0 1.0
    outer loop
      vertex -1.000000000000e-03 5.000000000000e-04 -1.506000000000e-03
      vertex -7.500000000000e-04 5.000000000000e-04 -1.506000000000e-03
      vertex -7.500000000000e-04 7.500000000000e-04 -1.506000000000e-03
    endloop
  endfacet
  facet normal 0 0 1.0
    outer loop
      vertex -1.000000000000e-03 5.000000000000e-04 -1.506000000000e-03
      vertex -7.500000000000e-04 7.500000000000e-04 -1.506000000000e-03
      vertex -1.000000000000e-03 7.500000000000e-04 -1.506000000000e-03
    endloop
  endfacet
  facet normal 0 0 1.0
    outer loop
      vertex -1.000000000000e-03 7.500000000000e-04 -1.506000000000e-03
      vertex -7.500000000000e-04 7.500000000000e-04 -1.506000000000e-03
      vertex -7.500000000000e-04 1.000000000000e-03 -1.506000000000e-03
    endloop
  endfacet
  facet normal 0 0 1.0
    outer loop
      vertex -1.000000000000e-03 7.500000000000e-04 -1.506000000000e-03
      vertex -7.500000000000e-04 1.000000000000e-03 -1.506000000000e-03
      vertex -1.000000000000e-03 1.000000000000e-03 -1.506000000000e-03
    endloop
  endfacet
  facet normal 0 0 1.0
    outer loop
      vertex -7.500000000000e-04 -1.000000000000e-03 -1.506000000000e-03
      vertex -5.000000000000e-04 -1.000000000000e-03 -1.506000000000e-03
      vertex -5.000000000000e-04 -7.500000000000e-04 -1.506000000000e-03
    endloop
  endfacet
  facet normal 0 0 1.0
    outer loop
      vertex -7.500000000000e-04 -1.000000000000e-03 -1.506000000000e-03
      vertex -5.000000000000e-04 -7.500000000000e-04 -1.506000000000e-03
      vertex -7.500000000000e-04 -7.500000000000e-04 -1.506000000000e-03
    endloop
  endfacet
  facet normal 0 0 1.0
    outer loop
      vertex -7.500000000000e-04 -7.500000000000e-04 -1.506000000000e-03
      vertex -5.000000000000e-04 -7.500000000000e-04 -1.506000000000e-03
      vertex -5.000000000000e-04 -5.000000000000e-04 -1.506000000000e-03
    endloop
  endfacet
  facet normal 0 0 1.0
    outer loop
      vertex -7.500000000000e-04 -7.500000000000e-04 -1.506000000000e-03
      vertex -5.000000000000e-04 -5.000000000000e-04 -1.506000000000e-03
      vertex -7.500000000000e-04 -5.000000000000e-04 -1.506000000000e-03
    endloop
  endfacet
  facet normal 0 0 1.0
    outer loop
      vertex -7.500000000000e-04 -5.000000000000e-04 -1.506000000000e-03
      vertex -5.000000000000e-04 -5.000000000000e-04 -1.506000000000e-03
      vertex -5.000000000000e-04 -2.500000000000e-04 -1.506000000000e-03
    endloop
  endfacet
  facet normal 0 0 1.0
    outer loop
      vertex -7.500000000000e-04 -5.000000000000e-04 -1.506000000000e-03
      vertex -5.000000000000e-04 -2.500000000000e-04 -1.506000000000e-03
      vertex -7.500000000000e-04 -2.500000000000e-04 -1.506000000000e-03
    endloop
  endfacet
  facet normal 0 0 1.0
    outer loop
      vertex -7.500000000000e-04 -2.500000000000e-04 -1.506000000000e-03
      vertex -5.000000000000e-04 -2.500000000000e-04 -1.506000000000e-03
      vertex -5.000000000000e-04 0.000000000000e+00 -1.506000000000e-03
    endloop
  endfacet
  facet normal 0 0 1.0
    outer loop
      vertex -7.500000000000e-04 -2.500000000000e-04 -1.506000000000e-03
      vertex -5.000000000000e-04 0.000000000000e+00 -1.506000000000e-03
      vertex -7.500000000000e-04 0.000000000000e+00 -1.506000000000e-03
    endloop
  endfacet
  facet normal 0 0 1.0
    outer loop
      vertex -7.500000000000e-04 0.000000000000e+00 -1.506000000000e-03
      vertex -5.000000000000e-04 0.000000000000e+00 -1.506000000000e-03
      vertex -5.000000000000e-04 2.500000000000e-04 -1.506000000000e-03
    endloop
  endfacet
  facet normal 0 0 1.0
    outer loop
      vertex -7.500000000000e-04 0.000000000000e+00 -1.506000000000e-03
      vertex -5.000000000000e-04 2.500000000000e-04 -1.506000000000e-03
      vertex -7.500000000000e-04 2.500000000000e-04 -1.506000000000e-03
    endloop
  endfacet
  facet normal 0 0 1.0
    outer loop
      vertex -7.500000000000e-04 2.500000000000e-04 -1.506000000000e-03
      vertex -5.000000000000e-04 2.500000000000e-04 -1.506000000000e-03
      vertex -5.000000000000e-04 5.000000000000e-04 -1.506000000000e-03
    endloop
  endfacet
  facet normal 0 0 1.0
    outer loop
      vertex -7.500000000000e-04 2.500000000000e-04 -1.506000000000e-03
      vertex -5.000000000000e-04 5.000000000000e-04 -1.506000000000e-03
      vertex -7.500000000000e-04 5.000000000000e-04 -1.506000000000e-03
    endloop
  endfacet
  facet normal 0 0 1.0
    outer loop
      vertex -7.500000000000e-04 5.000000000000e-04 -1.506000000000e-03
      vertex -5.000000000000e-04 5.000000000000e-04 -1.506000000000e-03
      vertex -5.000000000000e-04 7.500000000000e-04 -1.506000000000e-03
    endloop
  endfacet
  facet normal 0 0 1.0
    outer loop
      vertex -7.500000000000e-04 5.000000000000e-04 -1.506000000000e-03
      vertex -5.000000000000e-04 7.500000000000e-04 -1.506000000000e-03
      vertex -7.500000000000e-04 7.500000000000e-04 -1.506000000000e-03
    endloop
  endfacet
  facet normal 0 0 1.0
    outer loop
      vertex -7.500000000000e-04 7.500000000000e-04 -1.506000000000e-03
      vertex -5.000000000000e-04 7.500000000000e-04 -1.506000000000e-03
      vertex -5.000000000000e-04 1.000000000000e-03 -1.506000000000e-03
    endloop
  endfacet
  facet normal 0 0 1.0
    outer loop
      vertex -7.500000000000e-04 7.500000000000e-04 -1.506000000000e-03
      vertex -5.000000000000e-04 1.000000000000e-03 -1.506000000000e-03
      vertex -7.500000000000e-04 1.000000000000e-03 -1.506000000000e-03
    endloop
  endfacet
  facet normal 0 0 1.0
    outer loop
      vertex -5.000000000000e-04 -1.000000000000e-03 -1.506000000000e-03
      vertex -2.500000000000e-04 -1.000000000000e-03 -1.506000000000e-03
      vertex -2.500000000000e-04 -7.500000000000e-04 -1.506000000000e-03
    endloop
  endfacet
  facet normal 0 0 1.0
    outer loop
      vertex -5.000000000000e-04 -1.000000000000e-03 -1.506000000000e-03
      vertex -2.500000000000e-04 -7.500000000000e-04 -1.506000000000e-03
      vertex -5.000000000000e-04 -7.500000000000e-04 -1.506000000000e-03
    endloop
  endfacet
  facet normal 0 0 1.0
    outer loop
      vertex -5.000000000000e-04 -7.500000000000e-04 -1.506000000000e-03
      vertex -2.500000000000e-04 -7.500000000000e-04 -1.506000000000e-03
      vertex -2.500000000000e-04 -5.000000000000e-04 -1.506000000000e-03
    endloop
  endfacet
  facet normal 0 0 1.0
    outer loop
      vertex -5.000000000000e-04 -7.500000000000e-04 -1.506000000000e-03
      vertex -2.500000000000e-04 -5.000000000000e-04 -1.506000000000e-03
      vertex -5.000000000000e-04 -5.000000000000e-04 -1.506000000000e-03
    endloop
  endfacet
  facet normal 0 0 1.0
    outer loop
      vertex -5.000000000000e-04 -5.000000000000e-04 -1.506000000000e-03
      vertex -2.500000000000e-04 -5.000000000000e-04 -1.506000000000e-03
      vertex -2.500000000000e-04 -2.500000000000e-04 -1.506000000000e-03
    endloop
  endfacet
  facet normal 0 0 1.0
    outer loop
      vertex -5.000000000000e-04 -5.000000000000e-04 -1.506000000000e-03
      vertex -2.500000000000e-04 -2.500000000000e-04 -1.506000000000e-03
      vertex -5.000000000000e-04 -2.500000000000e-04 -1.506000000000e-03
    endloop
  endfacet
  facet normal 0 0 1.0
    outer loop
      vertex -5.000000000000e-04 -2.500000000000e-04 -1.506000000000e-03
      vertex -2.500000000000e-04 -2.500000000000e-04 -1.506000000000e-03
      vertex -2.500000000000e-04 0.000000000000e+00 -1.506000000000e-03
    endloop
  endfacet
  facet normal 0 0 1.0
    outer loop
      vertex -5.000000000000e-04 -2.500000000000e-04 -1.506000000000e-03
      vertex -2.500000000000e-04 0.000000000000e+00 -1.506000000000e-03
      vertex -5.000000000000e-04 0.000000000000e+00 -1.506000000000e-03
    endloop
  endfacet
  facet normal 0 0 1.0
    outer loop
      vertex -5.000000000000e-04 0.000000000000e+00 -1.506000000000e-03
      vertex -2.500000000000e-04 0.000000000000e+00 -1.506000000000e-03
      vertex -2.500000000000e-04 2.500000000000e-04 -1.506000000000e-03
    endloop
  endfacet
  facet normal 0 0 1.0
    outer loop
      vertex -5.000000000000e-04 0.000000000000e+00 -1.506000000000e-03
      vertex -2.500000000000e-04 2.500000000000e-04 -1.506000000000e-03
      vertex -5.000000000000e-04 2.500000000000e-04 -1.506000000000e-03
    endloop
  endfacet
  facet normal 0 0 1.0
    outer loop
      vertex -5.000000000000e-04 2.500000000000e-04 -1.506000000000e-03
      vertex -2.500000000000e-04 2.500000000000e-04 -1.506000000000e-03
      vertex -2.500000000000e-04 5.000000000000e-04 -1.506000000000e-03
    endloop
  endfacet
  facet normal 0 0 1.0
    outer loop
      vertex -5.000000000000e-04 2.500000000000e-04 -1.506000000000e-03
      vertex -2.500000000000e-04 5.000000000000e-04 -1.506000000000e-03
      vertex -5.000000000000e-04 5.000000000000e-04 -1.506000000000e-03
    endloop
  endfacet
  facet normal 0 0 1.0
    outer loop
      vertex -5.000000000000e-04 5.000000000000e-04 -1.506000000000e-03
      vertex -2.500000000000e-04 5.000000000000e-04 -1.506000000000e-03
      vertex -2.500000000000e-04 7.500000000000e-04 -1.506000000000e-03
    endloop
  endfacet
  facet normal 0 0 1.0
    outer loop
      vertex -5.000000000000e-04 5.000000000000e-04 -1.506000000000e-03
      vertex -2.500000000000e-04 7.500000000000e-04 -1.506000000000e-03
      vertex -5.000000000000e-04 7.500000000000e-04 -1.506000000000e-03
    endloop
  endfacet
  facet normal 0 0 1.0
    outer loop
      vertex -5.000000000000e-04 7.500000000000e-04 -1.506000000000e-03
      vertex -2.500000000000e-04 7.500000000000e-04 -1.506000000000e-03
      vertex -2.500000000000e-04 1.000000000000e-03 -1.506000000000e-03
    endloop
  endfacet
  facet normal 0 0 1.0
    outer loop
      vertex -5.000000000000e-04 7.500000000000e-04 -1.506000000000e-03
      vertex -2.500000000000e-04 1.000000000000e-03 -1.506000000000e-03
      vertex -5.000000000000e-04 1.000000000000e-03 -1.506000000000e-03
    endloop
  endfacet
  facet normal 0 0 1.0
    outer loop
      vertex -2.500000000000e-04 -1.000000000000e-03 -1.506000000000e-03
      vertex 0.000000000000e+00 -1.000000000000e-03 -1.506000000000e-03
      vertex 0.000000000000e+00 -7.500000000000e-04 -1.506000000000e-03
    endloop
  endfacet
  facet normal 0 0 1.0
    outer loop
      vertex -2.500000000000e-04 -1.000000000000e-03 -1.506000000000e-03
      vertex 0.000000000000e+00 -7.500000000000e-04 -1.506000000000e-03
      vertex -2.500000000000e-04 -7.500000000000e-04 -1.506000000000e-03
    endloop
  endfacet
  facet normal 0 0 1.0
    outer loop
      vertex -2.500000000000e-04 -7.500000000000e-04 -1.506000000000e-03
      vertex 0.000000000000e+00 -7.500000000000e-04 -1.506000000000e-03
      vertex 0.000000000000e+00 -5.000000000000e-04 -1.506000000000e-03
    endloop
  endfacet
  facet normal 0 0 1.0
    outer loop
      vertex -2.500000000000e-04 -7.500000000000e-04 -1.506000000000e-03
      vertex 0.000000000000e+00 -5.000000000000e-04 -1.506000000000e-03
      vertex -2.500000000000e-04 -5.000000000000e-04 -1.506000000000e-03
    endloop
  endfacet
  facet normal 0 0 1.0
    outer loop
      vertex -2.500000000000e-04 -5.000000000000e-04 -1.506000000000e-03
      vertex 0.000000000000e+00 -5.000000000000e-04 -1.506000000000e-03
      vertex 0.000000000000e+00 -2.500000000000e-04 -1.506000000000e-03
    endloop
  endfacet
  facet normal 0 0 1.0
    outer loop
      vertex -2.500000000000e-04 -5.000000000000e-04 -1.506000000000e-03
      vertex 0.000000000000e+00 -2.500000000000e-04 -1.506000000000e-03
      vertex -2.500000000000e-04 -2.500000000000e-04 -1.506000000000e-03
    endloop
  endfacet
  facet normal 0 0 1.0
    outer loop
      vertex -2.500000000000e-04 -2.500000000000e-04 -1.506000000000e-03
      vertex 0.000000000000e+00 -2.500000000000e-04 -1.506000000000e-03
      vertex 0.000000000000e+00 0.000000000000e+00 -1.506000000000e-03
    endloop
  endfacet
  facet normal 0 0 1.0
    outer loop
      vertex -2.500000000000e-04 -2.500000000000e-04 -1.506000000000e-03
      vertex 0.000000000000e+00 0.000000000000e+00 -1.506000000000e-03
      vertex -2.500000000000e-04 0.000000000000e+00 -1.506000000000e-03
    endloop
  endfacet
  facet normal 0 0 1.0
    outer loop
      vertex -2.500000000000e-04 0.000000000000e+00 -1.506000000000e-03
      vertex 0.000000000000e+00 0.000000000000e+00 -1.506000000000e-03
      vertex 0.000000000000e+00 2.500000000000e-04 -1.506000000000e-03
    endloop
  endfacet
  facet normal 0 0 1.0
    outer loop
      vertex -2.500000000000e-04 0.000000000000e+00 -1.506000000000e-03
      vertex 0.000000000000e+00 2.500000000000e-04 -1.506000000000e-03
      vertex -2.500000000000e-04 2.500000000000e-04 -1.506000000000e-03
    endloop
  endfacet
  facet normal 0 0 1.0
    outer loop
      vertex -2.500000000000e-04 2.500000000000e-04 -1.506000000000e-03
      vertex 0.000000000000e+00 2.500000000000e-04 -1.506000000000e-03
      vertex 0.000000000000e+00 5.000000000000e-04 -1.506000000000e-03
    endloop
  endfacet
  facet normal 0 0 1.0
    outer loop
      vertex -2.500000000000e-04 2.500000000000e-04 -1.506000000000e-03
      vertex 0.000000000000e+00 5.000000000000e-04 -1.506000000000e-03
      vertex -2.500000000000e-04 5.000000000000e-04 -1.506000000000e-03
    endloop
  endfacet
  facet normal 0 0 1.0
    outer loop
      vertex -2.500000000000e-04 5.000000000000e-04 -1.506000000000e-03
      vertex 0.000000000000e+00 5.000000000000e-04 -1.506000000000e-03
      vertex 0.000000000000e+00 7.500000000000e-04 -1.506000000000e-03
    endloop
  endfacet
  facet normal 0 0 1.0
    outer loop
      vertex -2.500000000000e-04 5.000000000000e-04 -1.506000000000e-03
      vertex 0.000000000000e+00 7.500000000000e-04 -1.506000000000e-03
      vertex -2.500000000000e-04 7.500000000000e-04 -1.506000000000e-03
    endloop
  endfacet
  facet normal 0 0 1.0
    outer loop
      vertex -2.500000000000e-04 7.500000000000e-04 -1.506000000000e-03
      vertex 0.000000000000e+00 7.500000000000e-04 -1.506000000000e-03
      vertex 0.000000000000e+00 1.000000000000e-03 -1.506000000000e-03
    endloop
  endfacet
  facet normal 0 0 1.0
    outer loop
      vertex -2.500000000000e-04 7.500000000000e-04 -1.506000000000e-03
      vertex 0.000000000000e+00 1.000000000000e-03 -1.506000000000e-03
      vertex -2.500000000000e-04 1.000000000000e-03 -1.506000000000e-03
    endloop
  endfacet
  facet normal 0 0 1.0
    outer loop
      vertex 0.000000000000e+00 -1.000000000000e-03 -1.506000000000e-03
      vertex 2.500000000000e-04 -1.000000000000e-03 -1.506000000000e-03
      vertex 2.500000000000e-04 -7.500000000000e-04 -1.506000000000e-03
    endloop
  endfacet
  facet normal 0 0 1.0
    outer loop
      vertex 0.000000000000e+00 -1.000000000000e-03 -1.506000000000e-03
      vertex 2.500000000000e-04 -7.500000000000e-04 -1.506000000000e-03
      vertex 0.000000000000e+00 -7.500000000000e-04 -1.506000000000e-03
    endloop
  endfacet
  facet normal 0 0 1.0
    outer loop
      vertex 0.000000000000e+00 -7.500000000000e-04 -1.506000000000e-03
      vertex 2.500000000000e-04 -7.500000000000e-04 -1.506000000000e-03
      vertex 2.500000000000e-04 -5.000000000000e-04 -1.506000000000e-03
    endloop
  endfacet
  facet normal 0 0 1.0
    outer loop
      vertex 0.000000000000e+00 -7.500000000000e-04 -1.506000000000e-03
      vertex 2.500000000000e-04 -5.000000000000e-04 -1.506000000000e-03
      vertex 0.000000000000e+00 -5.000000000000e-04 -1.506000000000e-03
    endloop
  endfacet
  facet normal 0 0 1.0
    outer loop
      vertex 0.000000000000e+00 -5.000000000000e-04 -1.506000000000e-03
      vertex 2.500000000000e-04 -5.000000000000e-04 -1.506000000000e-03
      vertex 2.500000000000e-04 -2.500000000000e-04 -1.506000000000e-03
    endloop
  endfacet
  facet normal 0 0 1.0
    outer loop
      vertex 0.000000000000e+00 -5.000000000000e-04 -1.506000000000e-03
      vertex 2.500000000000e-04 -2.500000000000e-04 -1.506000000000e-03
      vertex 0.000000000000e+00 -2.500000000000e-04 -1.506000000000e-03
    endloop
  endfacet
  facet normal 0 0 1.0
    outer loop
      vertex 0.000000000000e+00 -2.500000000000e-04 -1.506000000000e-03
      vertex 2.500000000000e-04 -2.500000000000e-04 -1.506000000000e-03
      vertex 2.500000000000e-04 0.000000000000e+00 -1.506000000000e-03
    endloop
  endfacet
  facet normal 0 0 1.0
    outer loop
      vertex 0.000000000000e+00 -2.500000000000e-04 -1.506000000000e-03
      vertex 2.500000000000e-04 0.000000000000e+00 -1.506000000000e-03
      vertex 0.000000000000e+00 0.000000000000e+00 -1.506000000000e-03
    endloop
  endfacet
  facet normal 0 0 1.0
    outer loop
      vertex 0.000000000000e+00 0.000000000000e+00 -1.506000000000e-03
      vertex 2.500000000000e-04 0.000000000000e+00 -1.506000000000e-03
      vertex 2.500000000000e-04 2.500000000000e-04 -1.506000000000e-03
    endloop
  endfacet
  facet normal 0 0 1.0
    outer loop
      vertex 0.000000000000e+00 0.000000000000e+00 -1.506000000000e-03
      vertex 2.500000000000e-04 2.500000000000e-04 -1.506000000000e-03
      vertex 0.000000000000e+00 2.500000000000e-04 -1.506000000000e-03
    endloop
  endfacet
  facet normal 0 0 1.0
    outer loop
      vertex 0.000000000000e+00 2.500000000000e-04 -1.506000000000e-03
      vertex 2.500000000000e-04 2.500000000000e-04 -1.506000000000e-03
      vertex 2.500000000000e-04 5.000000000000e-04 -1.506000000000e-03
    endloop
  endfacet
  facet normal 0 0 1.0
    outer loop
      vertex 0.000000000000e+00 2.500000000000e-04 -1.506000000000e-03
      vertex 2.500000000000e-04 5.000000000000e-04 -1.506000000000e-03
      vertex 0.000000000000e+00 5.000000000000e-04 -1.506000000000e-03
    endloop
  endfacet
  facet normal 0 0 1.0
    outer loop
      vertex 0.000000000000e+00 5.000000000000e-04 -1.506000000000e-03
      vertex 2.500000000000e-04 5.000000000000e-04 -1.506000000000e-03
      vertex 2.500000000000e-04 7.500000000000e-04 -1.506000000000e-03
    endloop
  endfacet
  facet normal 0 0 1.0
    outer loop
      vertex 0.000000000000e+00 5.000000000000e-04 -1.506000000000e-03
      vertex 2.500000000000e-04 7.500000000000e-04 -1.506000000000e-03
      vertex 0.000000000000e+00 7.500000000000e-04 -1.506000000000e-03
    endloop
  endfacet
  facet normal 0 0 1.0
    outer loop
      vertex 0.000000000000e+00 7.500000000000e-04 -1.506000000000e-03
      vertex 2.500000000000e-04 7.500000000000e-04 -1.506000000000e-03
      vertex 2.500000000000e-04 1.000000000000e-03 -1.506000000000e-03
    endloop
  endfacet
  facet normal 0 0 1.0
    outer loop
      vertex 0.000000000000e+00 7.500000000000e-04 -1.506000000000e-03
      vertex 2.500000000000e-04 1.000000000000e-03 -1.506000000000e-03
      vertex 0.000000000000e+00 1.000000000000e-03 -1.506000000000e-03
    endloop
  endfacet
  facet normal 0 0 1.0
    outer loop
      vertex 2.500000000000e-04 -1.000000000000e-03 -1.506000000000e-03
      vertex 5.000000000000e-04 -1.000000000000e-03 -1.506000000000e-03
      vertex 5.000000000000e-04 -7.500000000000e-04 -1.506000000000e-03
    endloop
  endfacet
  facet normal 0 0 1.0
    outer loop
      vertex 2.500000000000e-04 -1.000000000000e-03 -1.506000000000e-03
      vertex 5.000000000000e-04 -7.500000000000e-04 -1.506000000000e-03
      vertex 2.500000000000e-04 -7.500000000000e-04 -1.506000000000e-03
    endloop
  endfacet
  facet normal 0 0 1.0
    outer loop
      vertex 2.500000000000e-04 -7.500000000000e-04 -1.506000000000e-03
      vertex 5.000000000000e-04 -7.500000000000e-04 -1.506000000000e-03
      vertex 5.000000000000e-04 -5.000000000000e-04 -1.506000000000e-03
    endloop
  endfacet
  facet normal 0 0 1.0
    outer loop
      vertex 2.500000000000e-04 -7.500000000000e-04 -1.506000000000e-03
      vertex 5.000000000000e-04 -5.000000000000e-04 -1.506000000000e-03
      vertex 2.500000000000e-04 -5.000000000000e-04 -1.506000000000e-03
    endloop
  endfacet
  facet normal 0 0 1.0
    outer loop
      vertex 2.500000000000e-04 -5.000000000000e-04 -1.506000000000e-03
      vertex 5.000000000000e-04 -5.000000000000e-04 -1.506000000000e-03
      vertex 5.000000000000e-04 -2.500000000000e-04 -1.506000000000e-03
    endloop
  endfacet
  facet normal 0 0 1.0
    outer loop
      vertex 2.500000000000e-04 -5.000000000000e-04 -1.506000000000e-03
      vertex 5.000000000000e-04 -2.500000000000e-04 -1.506000000000e-03
      vertex 2.500000000000e-04 -2.500000000000e-04 -1.506000000000e-03
    endloop
  endfacet
  facet normal 0 0 1.0
    outer loop
      vertex 2.500000000000e-04 -2.500000000000e-04 -1.506000000000e-03
      vertex 5.000000000000e-04 -2.500000000000e-04 -1.506000000000e-03
      vertex 5.000000000000e-04 0.000000000000e+00 -1.506000000000e-03
    endloop
  endfacet
  facet normal 0 0 1.0
    outer loop
      vertex 2.500000000000e-04 -2.500000000000e-04 -1.506000000000e-03
      vertex 5.000000000000e-04 0.000000000000e+00 -1.506000000000e-03
      vertex 2.500000000000e-04 0.000000000000e+00 -1.506000000000e-03
    endloop
  endfacet
  facet normal 0 0 1.0
    outer loop
      vertex 2.500000000000e-04 0.000000000000e+00 -1.506000000000e-03
      vertex 5.000000000000e-04 0.000000000000e+00 -1.506000000000e-03
      vertex 5.000000000000e-04 2.500000000000e-04 -1.506000000000e-03
    endloop
  endfacet
  facet normal 0 0 1.0
    outer loop
      vertex 2.500000000000e-04 0.000000000000e+00 -1.506000000000e-03
      vertex 5.000000000000e-04 2.500000000000e-04 -1.506000000000e-03
      vertex 2.500000000000e-04 2.500000000000e-04 -1.506000000000e-03
    endloop
  endfacet
  facet normal 0 0 1.0
    outer loop
      vertex 2.500000000000e-04 2.500000000000e-04 -1.506000000000e-03
      vertex 5.000000000000e-04 2.500000000000e-04 -1.506000000000e-03
      vertex 5.000000000000e-04 5.000000000000e-04 -1.506000000000e-03
    endloop
  endfacet
  facet normal 0 0 1.0
    outer loop
      vertex 2.500000000000e-04 2.500000000000e-04 -1.506000000000e-03
      vertex 5.000000000000e-04 5.000000000000e-04 -1.506000000000e-03
      vertex 2.500000000000e-04 5.000000000000e-04 -1.506000000000e-03
    endloop
  endfacet
  facet normal 0 0 1.0
    outer loop
      vertex 2.500000000000e-04 5.000000000000e-04 -1.506000000000e-03
      vertex 5.000000000000e-04 5.000000000000e-04 -1.506000000000e-03
      vertex 5.000000000000e-04 7.500000000000e-04 -1.506000000000e-03
    endloop
  endfacet
  facet normal 0 0 1.0
    outer loop
      vertex 2.500000000000e-04 5.000000000000e-04 -1.506000000000e-03
      vertex 5.000000000000e-04 7.500000000000e-04 -1.506000000000e-03
      vertex 2.500000000000e-04 7.500000000000e-04 -1.506000000000e-03
    endloop
  endfacet
  facet normal 0 0 1.0
    outer loop
      vertex 2.500000000000e-04 7.500000000000e-04 -1.506000000000e-03
      vertex 5.000000000000e-04 7.500000000000e-04 -1.506000000000e-03
      vertex 5.000000000000e-04 1.000000000000e-03 -1.506000000000e-03
    endloop
  endfacet
  facet normal 0 0 1.0
    outer loop
      vertex 2.500000000000e-04 7.500000000000e-04 -1.506000000000e-03
      vertex 5.000000000000e-04 1.000000000000e-03 -1.506000000000e-03
      vertex 2.500000000000e-04 1.000000000000e-03 -1.506000000000e-03
    endloop
  endfacet
  facet normal 0 0 1.0
    outer loop
      vertex 5.000000000000e-04 -1.000000000000e-03 -1.506000000000e-03
      vertex 7.500000000000e-04 -1.000000000000e-03 -1.506000000000e-03
      vertex 7.500000000000e-04 -7.500000000000e-04 -1.506000000000e-03
    endloop
  endfacet
  facet normal 0 0 1.0
    outer loop
      vertex 5.000000000000e-04 -1.000000000000e-03 -1.506000000000e-03
      vertex 7.500000000000e-04 -7.500000000000e-04 -1.506000000000e-03
      vertex 5.000000000000e-04 -7.500000000000e-04 -1.506000000000e-03
    endloop
  endfacet
  facet normal 0 0 1.0
    outer loop
      vertex 5.000000000000e-04 -7.500000000000e-04 -1.506000000000e-03
      vertex 7.500000000000e-04 -7.500000000000e-04 -1.506000000000e-03
      vertex 7.500000000000e-04 -5.000000000000e-04 -1.506000000000e-03
    endloop
  endfacet
  facet normal 0 0 1.0
    outer loop
      vertex 5.000000000000e-04 -7.500000000000e-04 -1.506000000000e-03
      vertex 7.500000000000e-04 -5.000000000000e-04 -1.506000000000e-03
      vertex 5.000000000000e-04 -5.000000000000e-04 -1.506000000000e-03
    endloop
  endfacet
  facet normal 0 0 1.0
    outer loop
      vertex 5.000000000000e-04 -5.000000000000e-04 -1.506000000000e-03
      vertex 7.500000000000e-04 -5.000000000000e-04 -1.506000000000e-03
      vertex 7.500000000000e-04 -2.500000000000e-04 -1.506000000000e-03
    endloop
  endfacet
  facet normal 0 0 1.0
    outer loop
      vertex 5.000000000000e-04 -5.000000000000e-04 -1.506000000000e-03
      vertex 7.500000000000e-04 -2.500000000000e-04 -1.506000000000e-03
      vertex 5.000000000000e-04 -2.500000000000e-04 -1.506000000000e-03
    endloop
  endfacet
  facet normal 0 0 1.0
    outer loop
      vertex 5.000000000000e-04 -2.500000000000e-04 -1.506000000000e-03
      vertex 7.500000000000e-04 -2.500000000000e-04 -1.506000000000e-03
      vertex 7.500000000000e-04 0.000000000000e+00 -1.506000000000e-03
    endloop
  endfacet
  facet normal 0 0 1.0
    outer loop
      vertex 5.000000000000e-04 -2.500000000000e-04 -1.506000000000e-03
      vertex 7.500000000000e-04 0.000000000000e+00 -1.506000000000e-03
      vertex 5.000000000000e-04 0.000000000000e+00 -1.506000000000e-03
    endloop
  endfacet
  facet normal 0 0 1.0
    outer loop
      vertex 5.000000000000e-04 0.000000000000e+00 -1.506000000000e-03
      vertex 7.500000000000e-04 0.000000000000e+00 -1.506000000000e-03
      vertex 7.500000000000e-04 2.500000000000e-04 -1.506000000000e-03
    endloop
  endfacet
  facet normal 0 0 1.0
    outer loop
      vertex 5.000000000000e-04 0.000000000000e+00 -1.506000000000e-03
      vertex 7.500000000000e-04 2.500000000000e-04 -1.506000000000e-03
      vertex 5.000000000000e-04 2.500000000000e-04 -1.506000000000e-03
    endloop
  endfacet
  facet normal 0 0 1.0
    outer loop
      vertex 5.000000000000e-04 2.500000000000e-04 -1.506000000000e-03
      vertex 7.500000000000e-04 2.500000000000e-04 -1.506000000000e-03
      vertex 7.500000000000e-04 5.000000000000e-04 -1.506000000000e-03
    endloop
  endfacet
  facet normal 0 0 1.0
    outer loop
      vertex 5.000000000000e-04 2.500000000000e-04 -1.506000000000e-03
      vertex 7.500000000000e-04 5.000000000000e-04 -1.506000000000e-03
      vertex 5.000000000000e-04 5.000000000000e-04 -1.506000000000e-03
    endloop
  endfacet
  facet normal 0 0 1.0
    outer loop
      vertex 5.000000000000e-04 5.000000000000e-04 -1.506000000000e-03
      vertex 7.500000000000e-04 5.000000000000e-04 -1.506000000000e-03
      vertex 7.500000000000e-04 7.500000000000e-04 -1.506000000000e-03
    endloop
  endfacet
  facet normal 0 0 1.0
    outer loop
      vertex 5.000000000000e-04 5.000000000000e-04 -1.506000000000e-03
      vertex 7.500000000000e-04 7.500000000000e-04 -1.506000000000e-03
      vertex 5.000000000000e-04 7.500000000000e-04 -1.506000000000e-03
    endloop
  endfacet
  facet normal 0 0 1.0
    outer loop
      vertex 5.000000000000e-04 7.500000000000e-04 -1.506000000000e-03
      vertex 7.500000000000e-04 7.500000000000e-04 -1.506000000000e-03
      vertex 7.500000000000e-04 1.000000000000e-03 -1.506000000000e-03
    endloop
  endfacet
  facet normal 0 0 1.0
    outer loop
      vertex 5.000000000000e-04 7.500000000000e-04 -1.506000000000e-03
      vertex 7.500000000000e-04 1.000000000000e-03 -1.506000000000e-03
      vertex 5.000000000000e-04 1.000000000000e-03 -1.506000000000e-03
    endloop
  endfacet
  facet normal 0 0 1.0
    outer loop
      vertex 7.500000000000e-04 -1.000000000000e-03 -1.506000000000e-03
      vertex 1.000000000000e-03 -1.000000000000e-03 -1.506000000000e-03
      vertex 1.000000000000e-03 -7.500000000000e-04 -1.506000000000e-03
    endloop
  endfacet
  facet normal 0 0 1.0
    outer loop
      vertex 7.500000000000e-04 -1.000000000000e-03 -1.506000000000e-03
      vertex 1.000000000000e-03 -7.500000000000e-04 -1.506000000000e-03
      vertex 7.500000000000e-04 -7.500000000000e-04 -1.506000000000e-03
    endloop
  endfacet
  facet normal 0 0 1.0
    outer loop
      vertex 7.500000000000e-04 -7.500000000000e-04 -1.506000000000e-03
      vertex 1.000000000000e-03 -7.500000000000e-04 -1.506000000000e-03
      vertex 1.000000000000e-03 -5.000000000000e-04 -1.506000000000e-03
    endloop
  endfacet
  facet normal 0 0 1.0
    outer loop
      vertex 7.500000000000e-04 -7.500000000000e-04 -1.506000000000e-03
      vertex 1.000000000000e-03 -5.000000000000e-04 -1.506000000000e-03
      vertex 7.500000000000e-04 -5.000000000000e-04 -1.506000000000e-03
    endloop
  endfacet
  facet normal 0 0 1.0
    outer loop
      vertex 7.500000000000e-04 -5.000000000000e-04 -1.506000000000e-03
      vertex 1.000000000000e-03 -5.000000000000e-04 -1.506000000000e-03
      vertex 1.000000000000e-03 -2.500000000000e-04 -1.506000000000e-03
    endloop
  endfacet
  facet normal 0 0 1.0
    outer loop
      vertex 7.500000000000e-04 -5.000000000000e-04 -1.506000000000e-03
      vertex 1.000000000000e-03 -2.500000000000e-04 -1.506000000000e-03
      vertex 7.500000000000e-04 -2.500000000000e-04 -1.506000000000e-03
    endloop
  endfacet
  facet normal 0 0 1.0
    outer loop
      vertex 7.500000000000e-04 -2.500000000000e-04 -1.506000000000e-03
      vertex 1.000000000000e-03 -2.500000000000e-04 -1.506000000000e-03
      vertex 1.000000000000e-03 0.000000000000e+00 -1.506000000000e-03
    endloop
  endfacet
  facet normal 0 0 1.0
    outer loop
      vertex 7.500000000000e-04 -2.500000000000e-04 -1.506000000000e-03
      vertex 1.000000000000e-03 0.000000000000e+00 -1.506000000000e-03
      vertex 7.500000000000e-04 0.000000000000e+00 -1.506000000000e-03
    endloop
  endfacet
  facet normal 0 0 1.0
    outer loop
      vertex 7.500000000000e-04 0.000000000000e+00 -1.506000000000e-03
      vertex 1.000000000000e-03 0.000000000000e+00 -1.506000000000e-03
      vertex 1.000000000000e-03 2.500000000000e-04 -1.506000000000e-03
    endloop
  endfacet
  facet normal 0 0 1.0
    outer loop
      vertex 7.500000000000e-04 0.000000000000e+00 -1.506000000000e-03
      vertex 1.000000000000e-03 2.500000000000e-04 -1.506000000000e-03
      vertex 7.500000000000e-04 2.500000000000e-04 -1.506000000000e-03
    endloop
  endfacet
  facet normal 0 0 1.0
    outer loop
      vertex 7.500000000000e-04 2.500000000000e-04 -1.506000000000e-03
      vertex 1.000000000000e-03 2.500000000000e-04 -1.506000000000e-03
      vertex 1.000000000000e-03 5.000000000000e-04 -1.506000000000e-03
    endloop
  endfacet
  facet normal 0 0 1.0
    outer loop
      vertex 7.500000000000e-04 2.500000000000e-04 -1.506000000000e-03
      vertex 1.000000000000e-03 5.000000000000e-04 -1.506000000000e-03
      vertex 7.500000000000e-04 5.000000000000e-04 -1.506000000000e-03
    endloop
  endfacet
  facet normal 0 0 1.0
    outer loop
      vertex 7.500000000000e-04 5.000000000000e-04 -1.506000000000e-03
      vertex 1.000000000000e-03 5.000000000000e-04 -1.506000000000e-03
      vertex 1.000000000000e-03 7.500000000000e-04 -1.506000000000e-03
    endloop
  endfacet
  facet normal 0 0 1.0
    outer loop
      vertex 7.500000000000e-04 5.000000000000e-04 -1.506000000000e-03
      vertex 1.000000000000e-03 7.500000000000e-04 -1.506000000000e-03
      vertex 7.500000000000e-04 7.500000000000e-04 -1.506000000000e-03
    endloop
  endfacet
  facet normal 0 0 1.0
    outer loop
      vertex 7.500000000000e-04 7.500000000000e-04 -1.506000000000e-03
      vertex 1.000000000000e-03 7.500000000000e-04 -1.506000000000e-03
      vertex 1.000000000000e-03 1.000000000000e-03 -1.506000000000e-03
    endloop
  endfacet
  facet normal 0 0 1.0
    outer loop
      vertex 7.500000000000e-04 7.500000000000e-04 -1.506000000000e-03
      vertex 1.000000000000e-03 1.000000000000e-03 -1.506000000000e-03
      vertex 7.500000000000e-04 1.000000000000e-03 -1.506000000000e-03
    endloop
  endfacet
endsolid plate
