<?xml version="1.0" encoding="utf-8" standalone="no"?>
<!DOCTYPE svg PUBLIC "-//W3C//DTD SVG 1.1//EN"
  "http://www.w3.org/Graphics/SVG/1.1/DTD/svg11.dtd">
<svg xmlns:xlink="http://www.w3.org/1999/xlink" width="511.2pt" height="374.4pt" viewBox="0 0 511.2 374.4" xmlns="http://www.w3.org/2000/svg" version="1.1">
 <metadata>
  <rdf:RDF xmlns:dc="http://purl.org/dc/elements/1.1/" xmlns:cc="http://creativecommons.org/ns#" xmlns:rdf="http://www.w3.org/1999/02/22-rdf-syntax-ns#">
   <cc:Work>
    <dc:type rdf:resource="http://purl.org/dc/dcmitype/StillImage"/>
    <dc:date>2026-05-26T12:38:57.208538</dc:date>
    <dc:format>image/svg+xml</dc:format>
    <dc:creator>
     <cc:Agent>
      <dc:title>Matplotlib v3.10.9, https://matplotlib.org/</dc:title>
     </cc:Agent>
    </dc:creator>
   </cc:Work>
  </rdf:RDF>
 </metadata>
 <defs>
  <style type="text/css">*{stroke-linejoin: round; stroke-linecap: butt}</style>
 </defs>
 <g id="figure_1">
  <g id="patch_1">
   <path d="M 0 374.4 
L 511.2 374.4 
L 511.2 0 
L 0 0 
z
" style="fill: #ffffff"/>
  </g>
  <g id="axes_1">
   <g id="patch_2">
    <path d="M 38.61149 166.099219 
L 256.978737 166.099219 
L 256.978737 30.318157 
L 38.61149 30.318157 
z
" style="fill: #ffffff"/>
   </g>
   <g id="matplotlib.axis_1">
    <g id="xtick_1">
     <g id="line2d_1">
      <defs>
       <path id="m102af063c2" d="M 0 0 
L 0 3 
" style="stroke: #000000; stroke-width: 0.8"/>
      </defs>
      <g>
       <use xlink:href="#m102af063c2" x="66.602201" y="166.099219" style="stroke: #000000; stroke-width: 0.8"/>
      </g>
     </g>
     <g id="text_1">
      <text style="font-size: 8px; font-family: 'Arial'; text-anchor: middle" x="66.602201" y="178.325469" transform="rotate(-0 66.602201 178.325469)">0.070</text>
     </g>
    </g>
    <g id="xtick_2">
     <g id="line2d_2">
      <g>
       <use xlink:href="#m102af063c2" x="102.695961" y="166.099219" style="stroke: #000000; stroke-width: 0.8"/>
      </g>
     </g>
     <g id="text_2">
      <text style="font-size: 8px; font-family: 'Arial'; text-anchor: middle" x="102.695961" y="178.325469" transform="rotate(-0 102.695961 178.325469)">0.075</text>
     </g>
    </g>
    <g id="xtick_3">
     <g id="line2d_3">
      <g>
       <use xlink:href="#m102af063c2" x="138.78972" y="166.099219" style="stroke: #000000; stroke-width: 0.8"/>
      </g>
     </g>
     <g id="text_3">
      <text style="font-size: 8px; font-family: 'Arial'; text-anchor: middle" x="138.78972" y="178.325469" transform="rotate(-0 138.78972 178.325469)">0.080</text>
     </g>
    </g>
    <g id="xtick_4">
     <g id="line2d_4">
      <g>
       <use xlink:href="#m102af063c2" x="174.88348" y="166.099219" style="stroke: #000000; stroke-width: 0.8"/>
      </g>
     </g>
     <g id="text_4">
      <text style="font-size: 8px; font-family: 'Arial'; text-anchor: middle" x="174.88348" y="178.325469" transform="rotate(-0 174.88348 178.325469)">0.085</text>
     </g>
    </g>
    <g id="xtick_5">
     <g id="line2d_5">
      <g>
       <use xlink:href="#m102af063c2" x="210.97724" y="166.099219" style="stroke: #000000; stroke-width: 0.8"/>
      </g>
     </g>
     <g id="text_5">
      <text style="font-size: 8px; font-family: 'Arial'; text-anchor: middle" x="210.97724" y="178.325469" transform="rotate(-0 210.97724 178.325469)">0.090</text>
     </g>
    </g>
    <g id="xtick_6">
     <g id="line2d_6">
      <g>
       <use xlink:href="#m102af063c2" x="247.071" y="166.099219" style="stroke: #000000; stroke-width: 0.8"/>
      </g>
     </g>
     <g id="text_6">
      <text style="font-size: 8px; font-family: 'Arial'; text-anchor: middle" x="247.071" y="178.325469" transform="rotate(-0 247.071 178.325469)">0.095</text>
     </g>
    </g>
    <g id="text_7">
     <text style="font-size: 8px; font-family: 'Arial'; text-anchor: middle" x="147.795113" y="189.739219" transform="rotate(-0 147.795113 189.739219)">Top displacement (mm)</text>
    </g>
   </g>
   <g id="matplotlib.axis_2">
    <g id="ytick_1">
     <g id="line2d_7">
      <defs>
       <path id="m0c0bc8f0cd" d="M 0 0 
L -3 0 
" style="stroke: #000000; stroke-width: 0.8"/>
      </defs>
      <g>
       <use xlink:href="#m0c0bc8f0cd" x="38.61149" y="143.685599" style="stroke: #000000; stroke-width: 0.8"/>
      </g>
     </g>
     <g id="text_8">
      <text style="font-size: 8px; font-family: 'Arial'; text-anchor: end" x="32.11149" y="146.548724" transform="rotate(-0 32.11149 146.548724)">20</text>
     </g>
    </g>
    <g id="ytick_2">
     <g id="line2d_8">
      <g>
       <use xlink:href="#m0c0bc8f0cd" x="38.61149" y="111.202091" style="stroke: #000000; stroke-width: 0.8"/>
      </g>
     </g>
     <g id="text_9">
      <text style="font-size: 8px; font-family: 'Arial'; text-anchor: end" x="32.11149" y="114.065216" transform="rotate(-0 32.11149 114.065216)">30</text>
     </g>
    </g>
    <g id="ytick_3">
     <g id="line2d_9">
      <g>
       <use xlink:href="#m0c0bc8f0cd" x="38.61149" y="78.718584" style="stroke: #000000; stroke-width: 0.8"/>
      </g>
     </g>
     <g id="text_10">
      <text style="font-size: 8px; font-family: 'Arial'; text-anchor: end" x="32.11149" y="81.581709" transform="rotate(-0 32.11149 81.581709)">40</text>
     </g>
    </g>
    <g id="ytick_4">
     <g id="line2d_10">
      <g>
       <use xlink:href="#m0c0bc8f0cd" x="38.61149" y="46.235076" style="stroke: #000000; stroke-width: 0.8"/>
      </g>
     </g>
     <g id="text_11">
      <text style="font-size: 8px; font-family: 'Arial'; text-anchor: end" x="32.11149" y="49.098201" transform="rotate(-0 32.11149 49.098201)">50</text>
     </g>
    </g>
    <g id="text_12">
     <text style="font-size: 8px; font-family: 'Arial'; text-anchor: middle" x="17.62399" y="98.208688" transform="rotate(-90 17.62399 98.208688)">Cumulative broken bonds</text>
    </g>
   </g>
   <g id="line2d_11">
    <path d="M 48.537274 159.927352 
L 66.584154 159.927352 
L 66.584154 133.940546 
L 120.724794 133.940546 
L 120.724794 68.973531 
L 210.959193 68.973531 
L 210.959193 49.483427 
L 229.006073 49.483427 
L 229.006073 42.986725 
L 247.052953 42.986725 
L 247.052953 36.490024 
" clip-path="url(#p32d77b4967)" style="fill: none; stroke: #2f6f73; stroke-width: 1.6; stroke-linecap: square"/>
   </g>
   <g id="patch_3">
    <path d="M 38.61149 166.099219 
L 38.61149 30.318157 
" style="fill: none; stroke: #000000; stroke-width: 0.8; stroke-linejoin: miter; stroke-linecap: square"/>
   </g>
   <g id="patch_4">
    <path d="M 38.61149 166.099219 
L 256.978737 166.099219 
" style="fill: none; stroke: #000000; stroke-width: 0.8; stroke-linejoin: miter; stroke-linecap: square"/>
   </g>
   <g id="PathCollection_1">
    <defs>
     <path id="mf35dbd4059" d="M 0 2.345208 
C 0.621956 2.345208 1.218523 2.098102 1.658312 1.658312 
C 2.098102 1.218523 2.345208 0.621956 2.345208 0 
C 2.345208 -0.621956 2.098102 -1.218523 1.658312 -1.658312 
C 1.218523 -2.098102 0.621956 -2.345208 0 -2.345208 
C -0.621956 -2.345208 -1.218523 -2.098102 -1.658312 -1.658312 
C -2.098102 -1.218523 -2.345208 -0.621956 -2.345208 0 
C -2.345208 0.621956 -2.098102 1.218523 -1.658312 1.658312 
C -1.218523 2.098102 -0.621956 2.345208 0 2.345208 
z
" style="stroke: #ffffff; stroke-width: 0.5"/>
    </defs>
    <g clip-path="url(#p32d77b4967)">
     <use xlink:href="#mf35dbd4059" x="48.537274" y="159.927352" style="fill: #2f6f73; stroke: #ffffff; stroke-width: 0.5"/>
     <use xlink:href="#mf35dbd4059" x="66.584154" y="133.940546" style="fill: #2f6f73; stroke: #ffffff; stroke-width: 0.5"/>
     <use xlink:href="#mf35dbd4059" x="120.724794" y="68.973531" style="fill: #2f6f73; stroke: #ffffff; stroke-width: 0.5"/>
     <use xlink:href="#mf35dbd4059" x="210.959193" y="49.483427" style="fill: #2f6f73; stroke: #ffffff; stroke-width: 0.5"/>
     <use xlink:href="#mf35dbd4059" x="229.006073" y="42.986725" style="fill: #2f6f73; stroke: #ffffff; stroke-width: 0.5"/>
     <use xlink:href="#mf35dbd4059" x="247.052953" y="36.490024" style="fill: #2f6f73; stroke: #ffffff; stroke-width: 0.5"/>
    </g>
   </g>
   <g id="text_13">
    <text style="font-weight: 700; font-size: 9.6px; font-family: 'Arial'; text-anchor: start" x="38.61149" y="24.318157" transform="rotate(-0 38.61149 24.318157)">a  Event accumulation</text>
   </g>
  </g>
  <g id="axes_2">
   <g id="patch_5">
    <path d="M 289.832513 166.099219 
L 508.19976 166.099219 
L 508.19976 30.318157 
L 289.832513 30.318157 
z
" style="fill: #ffffff"/>
   </g>
   <g id="patch_6">
    <path d="M 299.758297 166.099219 
L 308.058604 166.099219 
L 308.058604 69.112746 
L 299.758297 69.112746 
z
" clip-path="url(#p3b36eeb2b8)" style="fill: #c46a30"/>
   </g>
   <g id="patch_7">
    <path d="M 317.050604 166.099219 
L 325.350911 166.099219 
L 325.350911 114.3731 
L 317.050604 114.3731 
z
" clip-path="url(#p3b36eeb2b8)" style="fill: #c46a30"/>
   </g>
   <g id="patch_8">
    <path d="M 368.927523 166.099219 
L 377.22783 166.099219 
L 377.22783 36.783922 
L 368.927523 36.783922 
z
" clip-path="url(#p3b36eeb2b8)" style="fill: #c46a30"/>
   </g>
   <g id="patch_9">
    <path d="M 455.389056 166.099219 
L 463.689363 166.099219 
L 463.689363 127.30463 
L 455.389056 127.30463 
z
" clip-path="url(#p3b36eeb2b8)" style="fill: #c46a30"/>
   </g>
   <g id="patch_10">
    <path d="M 472.681362 166.099219 
L 480.98167 166.099219 
L 480.98167 153.167689 
L 472.681362 153.167689 
z
" clip-path="url(#p3b36eeb2b8)" style="fill: #c46a30"/>
   </g>
   <g id="patch_11">
    <path d="M 489.973669 166.099219 
L 498.273976 166.099219 
L 498.273976 153.167689 
L 489.973669 153.167689 
z
" clip-path="url(#p3b36eeb2b8)" style="fill: #c46a30"/>
   </g>
   <g id="matplotlib.axis_3">
    <g id="xtick_7">
     <g id="line2d_12">
      <g>
       <use xlink:href="#m102af063c2" x="321.218049" y="166.099219" style="stroke: #000000; stroke-width: 0.8"/>
      </g>
     </g>
     <g id="text_14">
      <text style="font-size: 8px; font-family: 'Arial'; text-anchor: middle" x="321.218049" y="178.325469" transform="rotate(-0 321.218049 178.325469)">0.070</text>
     </g>
    </g>
    <g id="xtick_8">
     <g id="line2d_13">
      <g>
       <use xlink:href="#m102af063c2" x="355.802663" y="166.099219" style="stroke: #000000; stroke-width: 0.8"/>
      </g>
     </g>
     <g id="text_15">
      <text style="font-size: 8px; font-family: 'Arial'; text-anchor: middle" x="355.802663" y="178.325469" transform="rotate(-0 355.802663 178.325469)">0.075</text>
     </g>
    </g>
    <g id="xtick_9">
     <g id="line2d_14">
      <g>
       <use xlink:href="#m102af063c2" x="390.387276" y="166.099219" style="stroke: #000000; stroke-width: 0.8"/>
      </g>
     </g>
     <g id="text_16">
      <text style="font-size: 8px; font-family: 'Arial'; text-anchor: middle" x="390.387276" y="178.325469" transform="rotate(-0 390.387276 178.325469)">0.080</text>
     </g>
    </g>
    <g id="xtick_10">
     <g id="line2d_15">
      <g>
       <use xlink:href="#m102af063c2" x="424.971889" y="166.099219" style="stroke: #000000; stroke-width: 0.8"/>
      </g>
     </g>
     <g id="text_17">
      <text style="font-size: 8px; font-family: 'Arial'; text-anchor: middle" x="424.971889" y="178.325469" transform="rotate(-0 424.971889 178.325469)">0.085</text>
     </g>
    </g>
    <g id="xtick_11">
     <g id="line2d_16">
      <g>
       <use xlink:href="#m102af063c2" x="459.556502" y="166.099219" style="stroke: #000000; stroke-width: 0.8"/>
      </g>
     </g>
     <g id="text_18">
      <text style="font-size: 8px; font-family: 'Arial'; text-anchor: middle" x="459.556502" y="178.325469" transform="rotate(-0 459.556502 178.325469)">0.090</text>
     </g>
    </g>
    <g id="xtick_12">
     <g id="line2d_17">
      <g>
       <use xlink:href="#m102af063c2" x="494.141115" y="166.099219" style="stroke: #000000; stroke-width: 0.8"/>
      </g>
     </g>
     <g id="text_19">
      <text style="font-size: 8px; font-family: 'Arial'; text-anchor: middle" x="494.141115" y="178.325469" transform="rotate(-0 494.141115 178.325469)">0.095</text>
     </g>
    </g>
    <g id="text_20">
     <text style="font-size: 8px; font-family: 'Arial'; text-anchor: middle" x="399.016137" y="189.739219" transform="rotate(-0 399.016137 189.739219)">Top displacement (mm)</text>
    </g>
   </g>
   <g id="matplotlib.axis_4">
    <g id="ytick_5">
     <g id="line2d_18">
      <g>
       <use xlink:href="#m0c0bc8f0cd" x="289.832513" y="166.099219" style="stroke: #000000; stroke-width: 0.8"/>
      </g>
     </g>
     <g id="text_21">
      <text style="font-size: 8px; font-family: 'Arial'; text-anchor: end" x="283.332513" y="168.962344" transform="rotate(-0 283.332513 168.962344)">0</text>
     </g>
    </g>
    <g id="ytick_6">
     <g id="line2d_19">
      <g>
       <use xlink:href="#m0c0bc8f0cd" x="289.832513" y="133.770395" style="stroke: #000000; stroke-width: 0.8"/>
      </g>
     </g>
     <g id="text_22">
      <text style="font-size: 8px; font-family: 'Arial'; text-anchor: end" x="283.332513" y="136.63352" transform="rotate(-0 283.332513 136.63352)">5</text>
     </g>
    </g>
    <g id="ytick_7">
     <g id="line2d_20">
      <g>
       <use xlink:href="#m0c0bc8f0cd" x="289.832513" y="101.441571" style="stroke: #000000; stroke-width: 0.8"/>
      </g>
     </g>
     <g id="text_23">
      <text style="font-size: 8px; font-family: 'Arial'; text-anchor: end" x="283.332513" y="104.304696" transform="rotate(-0 283.332513 104.304696)">10</text>
     </g>
    </g>
    <g id="ytick_8">
     <g id="line2d_21">
      <g>
       <use xlink:href="#m0c0bc8f0cd" x="289.832513" y="69.112746" style="stroke: #000000; stroke-width: 0.8"/>
      </g>
     </g>
     <g id="text_24">
      <text style="font-size: 8px; font-family: 'Arial'; text-anchor: end" x="283.332513" y="71.975871" transform="rotate(-0 283.332513 71.975871)">15</text>
     </g>
    </g>
    <g id="ytick_9">
     <g id="line2d_22">
      <g>
       <use xlink:href="#m0c0bc8f0cd" x="289.832513" y="36.783922" style="stroke: #000000; stroke-width: 0.8"/>
      </g>
     </g>
     <g id="text_25">
      <text style="font-size: 8px; font-family: 'Arial'; text-anchor: end" x="283.332513" y="39.647047" transform="rotate(-0 283.332513 39.647047)">20</text>
     </g>
    </g>
    <g id="text_26">
     <text style="font-size: 8px; font-family: 'Arial'; text-anchor: middle" x="268.845013" y="98.208688" transform="rotate(-90 268.845013 98.208688)">New broken bonds</text>
    </g>
   </g>
   <g id="patch_12">
    <path d="M 289.832513 166.099219 
L 289.832513 30.318157 
" style="fill: none; stroke: #000000; stroke-width: 0.8; stroke-linejoin: miter; stroke-linecap: square"/>
   </g>
   <g id="patch_13">
    <path d="M 289.832513 166.099219 
L 508.19976 166.099219 
" style="fill: none; stroke: #000000; stroke-width: 0.8; stroke-linejoin: miter; stroke-linecap: square"/>
   </g>
   <g id="text_27">
    <text style="font-weight: 700; font-size: 9.6px; font-family: 'Arial'; text-anchor: start" x="289.832513" y="24.318157" transform="rotate(-0 289.832513 24.318157)">b  Event size</text>
   </g>
  </g>
  <g id="axes_3">
   <g id="patch_14">
    <path d="M 38.61149 346.07601 
L 256.978737 346.07601 
L 256.978737 210.294949 
L 38.61149 210.294949 
z
" style="fill: #ffffff"/>
   </g>
   <g id="PathCollection_2">
    <path d="M 48.537274 281.649581 
C 49.455964 281.649581 50.337151 281.284581 50.986764 280.634969 
C 51.636376 279.985357 52.001376 279.10417 52.001376 278.185479 
C 52.001376 277.266789 51.636376 276.385602 50.986764 275.73599 
C 50.337151 275.086377 49.455964 274.721378 48.537274 274.721378 
C 47.618583 274.721378 46.737396 275.086377 46.087784 275.73599 
C 45.438172 276.385602 45.073172 277.266789 45.073172 278.185479 
C 45.073172 279.10417 45.438172 279.985357 46.087784 280.634969 
C 46.737396 281.284581 47.618583 281.649581 48.537274 281.649581 
z
" clip-path="url(#pcc4a9981fe)" style="fill: #6b5ea8; fill-opacity: 0.88; stroke: #6b5ea8; stroke-opacity: 0.88"/>
    <path d="M 66.584154 281.100955 
C 67.357347 281.100955 68.098976 280.793762 68.645707 280.247032 
C 69.192437 279.700302 69.49963 278.958673 69.49963 278.185479 
C 69.49963 277.412286 69.192437 276.670657 68.645707 276.123927 
C 68.098976 275.577196 67.357347 275.270003 66.584154 275.270003 
C 65.810961 275.270003 65.069331 275.577196 64.522601 276.123927 
C 63.975871 276.670657 63.668678 277.412286 63.668678 278.185479 
C 63.668678 278.958673 63.975871 279.700302 64.522601 280.247032 
C 65.069331 280.793762 65.810961 281.100955 66.584154 281.100955 
z
" clip-path="url(#pcc4a9981fe)" style="fill: #6b5ea8; fill-opacity: 0.88; stroke: #6b5ea8; stroke-opacity: 0.88"/>
    <path d="M 120.724794 281.993366 
C 121.734657 281.993366 122.703295 281.592143 123.417376 280.878062 
C 124.131457 280.163981 124.53268 279.195343 124.53268 278.185479 
C 124.53268 277.175616 124.131457 276.206978 123.417376 275.492897 
C 122.703295 274.778816 121.734657 274.377593 120.724794 274.377593 
C 119.71493 274.377593 118.746292 274.778816 118.032211 275.492897 
C 117.31813 276.206978 116.916907 277.175616 116.916907 278.185479 
C 116.916907 279.195343 117.31813 280.163981 118.032211 280.878062 
C 118.746292 281.592143 119.71493 281.993366 120.724794 281.993366 
z
" clip-path="url(#pcc4a9981fe)" style="fill: #6b5ea8; fill-opacity: 0.88; stroke: #6b5ea8; stroke-opacity: 0.88"/>
    <path d="M 210.959193 280.924092 
C 211.685482 280.924092 212.382121 280.635535 212.895685 280.121971 
C 213.409248 279.608407 213.697806 278.911768 213.697806 278.185479 
C 213.697806 277.459191 213.409248 276.762551 212.895685 276.248988 
C 212.382121 275.735424 211.685482 275.446867 210.959193 275.446867 
C 210.232905 275.446867 209.536265 275.735424 209.022701 276.248988 
C 208.509138 276.762551 208.22058 277.459191 208.22058 278.185479 
C 208.22058 278.911768 208.509138 279.608407 209.022701 280.121971 
C 209.536265 280.635535 210.232905 280.924092 210.959193 280.924092 
z
" clip-path="url(#pcc4a9981fe)" style="fill: #6b5ea8; fill-opacity: 0.88; stroke: #6b5ea8; stroke-opacity: 0.88"/>
    <path d="M 229.006073 280.530687 
C 229.628029 280.530687 230.224596 280.283581 230.664385 279.843792 
C 231.104175 279.404002 231.351281 278.807436 231.351281 278.185479 
C 231.351281 277.563523 231.104175 276.966957 230.664385 276.527167 
C 230.224596 276.087377 229.628029 275.840271 229.006073 275.840271 
C 228.384117 275.840271 227.78755 276.087377 227.347761 276.527167 
C 226.907971 276.966957 226.660865 277.563523 226.660865 278.185479 
C 226.660865 278.807436 226.907971 279.404002 227.347761 279.843792 
C 227.78755 280.283581 228.384117 280.530687 229.006073 280.530687 
z
" clip-path="url(#pcc4a9981fe)" style="fill: #6b5ea8; fill-opacity: 0.88; stroke: #6b5ea8; stroke-opacity: 0.88"/>
    <path d="M 247.052953 280.530687 
C 247.674909 280.530687 248.271476 280.283581 248.711265 279.843792 
C 249.151055 279.404002 249.398161 278.807436 249.398161 278.185479 
C 249.398161 277.563523 249.151055 276.966957 248.711265 276.527167 
C 248.271476 276.087377 247.674909 275.840271 247.052953 275.840271 
C 246.430997 275.840271 245.83443 276.087377 245.394641 276.527167 
C 244.954851 276.966957 244.707745 277.563523 244.707745 278.185479 
C 244.707745 278.807436 244.954851 279.404002 245.394641 279.843792 
C 245.83443 280.283581 246.430997 280.530687 247.052953 280.530687 
z
" clip-path="url(#pcc4a9981fe)" style="fill: #6b5ea8; fill-opacity: 0.88; stroke: #6b5ea8; stroke-opacity: 0.88"/>
   </g>
   <g id="matplotlib.axis_5">
    <g id="xtick_13">
     <g id="line2d_23">
      <g>
       <use xlink:href="#m102af063c2" x="66.602201" y="346.07601" style="stroke: #000000; stroke-width: 0.8"/>
      </g>
     </g>
     <g id="text_28">
      <text style="font-size: 8px; font-family: 'Arial'; text-anchor: middle" x="66.602201" y="358.30226" transform="rotate(-0 66.602201 358.30226)">0.070</text>
     </g>
    </g>
    <g id="xtick_14">
     <g id="line2d_24">
      <g>
       <use xlink:href="#m102af063c2" x="102.695961" y="346.07601" style="stroke: #000000; stroke-width: 0.8"/>
      </g>
     </g>
     <g id="text_29">
      <text style="font-size: 8px; font-family: 'Arial'; text-anchor: middle" x="102.695961" y="358.30226" transform="rotate(-0 102.695961 358.30226)">0.075</text>
     </g>
    </g>
    <g id="xtick_15">
     <g id="line2d_25">
      <g>
       <use xlink:href="#m102af063c2" x="138.78972" y="346.07601" style="stroke: #000000; stroke-width: 0.8"/>
      </g>
     </g>
     <g id="text_30">
      <text style="font-size: 8px; font-family: 'Arial'; text-anchor: middle" x="138.78972" y="358.30226" transform="rotate(-0 138.78972 358.30226)">0.080</text>
     </g>
    </g>
    <g id="xtick_16">
     <g id="line2d_26">
      <g>
       <use xlink:href="#m102af063c2" x="174.88348" y="346.07601" style="stroke: #000000; stroke-width: 0.8"/>
      </g>
     </g>
     <g id="text_31">
      <text style="font-size: 8px; font-family: 'Arial'; text-anchor: middle" x="174.88348" y="358.30226" transform="rotate(-0 174.88348 358.30226)">0.085</text>
     </g>
    </g>
    <g id="xtick_17">
     <g id="line2d_27">
      <g>
       <use xlink:href="#m102af063c2" x="210.97724" y="346.07601" style="stroke: #000000; stroke-width: 0.8"/>
      </g>
     </g>
     <g id="text_32">
      <text style="font-size: 8px; font-family: 'Arial'; text-anchor: middle" x="210.97724" y="358.30226" transform="rotate(-0 210.97724 358.30226)">0.090</text>
     </g>
    </g>
    <g id="xtick_18">
     <g id="line2d_28">
      <g>
       <use xlink:href="#m102af063c2" x="247.071" y="346.07601" style="stroke: #000000; stroke-width: 0.8"/>
      </g>
     </g>
     <g id="text_33">
      <text style="font-size: 8px; font-family: 'Arial'; text-anchor: middle" x="247.071" y="358.30226" transform="rotate(-0 247.071 358.30226)">0.095</text>
     </g>
    </g>
    <g id="text_34">
     <text style="font-size: 8px; font-family: 'Arial'; text-anchor: middle" x="147.795113" y="369.71601" transform="rotate(-0 147.795113 369.71601)">Top displacement (mm)</text>
    </g>
   </g>
   <g id="matplotlib.axis_6">
    <g id="ytick_10">
     <g id="line2d_29">
      <g>
       <use xlink:href="#m0c0bc8f0cd" x="38.61149" y="327.560411" style="stroke: #000000; stroke-width: 0.8"/>
      </g>
     </g>
     <g id="text_35">
      <text style="font-size: 8px; font-family: 'Arial'; text-anchor: end" x="32.11149" y="330.423536" transform="rotate(-0 32.11149 330.423536)">960</text>
     </g>
    </g>
    <g id="ytick_11">
     <g id="line2d_30">
      <g>
       <use xlink:href="#m0c0bc8f0cd" x="38.61149" y="302.872945" style="stroke: #000000; stroke-width: 0.8"/>
      </g>
     </g>
     <g id="text_36">
      <text style="font-size: 8px; font-family: 'Arial'; text-anchor: end" x="32.11149" y="305.73607" transform="rotate(-0 32.11149 305.73607)">980</text>
     </g>
    </g>
    <g id="ytick_12">
     <g id="line2d_31">
      <g>
       <use xlink:href="#m0c0bc8f0cd" x="38.61149" y="278.185479" style="stroke: #000000; stroke-width: 0.8"/>
      </g>
     </g>
     <g id="text_37">
      <text style="font-size: 8px; font-family: 'Arial'; text-anchor: end" x="32.11149" y="281.048604" transform="rotate(-0 32.11149 281.048604)">1000</text>
     </g>
    </g>
    <g id="ytick_13">
     <g id="line2d_32">
      <g>
       <use xlink:href="#m0c0bc8f0cd" x="38.61149" y="253.498014" style="stroke: #000000; stroke-width: 0.8"/>
      </g>
     </g>
     <g id="text_38">
      <text style="font-size: 8px; font-family: 'Arial'; text-anchor: end" x="32.11149" y="256.361139" transform="rotate(-0 32.11149 256.361139)">1020</text>
     </g>
    </g>
    <g id="ytick_14">
     <g id="line2d_33">
      <g>
       <use xlink:href="#m0c0bc8f0cd" x="38.61149" y="228.810548" style="stroke: #000000; stroke-width: 0.8"/>
      </g>
     </g>
     <g id="text_39">
      <text style="font-size: 8px; font-family: 'Arial'; text-anchor: end" x="32.11149" y="231.673673" transform="rotate(-0 32.11149 231.673673)">1040</text>
     </g>
    </g>
    <g id="text_40">
     <text style="font-size: 8px; font-family: 'Arial'; text-anchor: middle" x="8.72649" y="278.185479" transform="rotate(-90 8.72649 278.185479)">Mother pebble id</text>
    </g>
   </g>
   <g id="patch_15">
    <path d="M 38.61149 346.07601 
L 38.61149 210.294949 
" style="fill: none; stroke: #000000; stroke-width: 0.8; stroke-linejoin: miter; stroke-linecap: square"/>
   </g>
   <g id="patch_16">
    <path d="M 38.61149 346.07601 
L 256.978737 346.07601 
" style="fill: none; stroke: #000000; stroke-width: 0.8; stroke-linejoin: miter; stroke-linecap: square"/>
   </g>
   <g id="text_41">
    <text style="font-weight: 700; font-size: 9.6px; font-family: 'Arial'; text-anchor: start" x="38.61149" y="204.294949" transform="rotate(-0 38.61149 204.294949)">c  Damaged pebble sequence</text>
   </g>
  </g>
  <g id="axes_4">
   <g id="patch_17">
    <path d="M 289.832513 346.07601 
L 508.19976 346.07601 
L 508.19976 210.294949 
L 289.832513 210.294949 
z
" style="fill: #ffffff"/>
   </g>
   <g id="patch_18">
    <path d="M 289.832513 229.127054 
L 497.80132 229.127054 
L 497.80132 216.466815 
L 289.832513 216.466815 
z
" clip-path="url(#p159860216a)" style="fill: #5b8e7d"/>
   </g>
   <g id="patch_19">
    <path d="M 289.832513 244.952352 
L 289.832513 244.952352 
L 289.832513 232.292114 
L 289.832513 232.292114 
z
" clip-path="url(#p159860216a)" style="fill: #5b8e7d"/>
   </g>
   <g id="patch_20">
    <path d="M 289.832513 260.777651 
L 289.832513 260.777651 
L 289.832513 248.117412 
L 289.832513 248.117412 
z
" clip-path="url(#p159860216a)" style="fill: #5b8e7d"/>
   </g>
   <g id="patch_21">
    <path d="M 289.832513 276.60295 
L 289.832513 276.60295 
L 289.832513 263.942711 
L 289.832513 263.942711 
z
" clip-path="url(#p159860216a)" style="fill: #5b8e7d"/>
   </g>
   <g id="patch_22">
    <path d="M 289.832513 292.428248 
L 289.832513 292.428248 
L 289.832513 279.768009 
L 289.832513 279.768009 
z
" clip-path="url(#p159860216a)" style="fill: #5b8e7d"/>
   </g>
   <g id="patch_23">
    <path d="M 289.832513 308.253547 
L 289.832513 308.253547 
L 289.832513 295.593308 
L 289.832513 295.593308 
z
" clip-path="url(#p159860216a)" style="fill: #5b8e7d"/>
   </g>
   <g id="patch_24">
    <path d="M 289.832513 324.078845 
L 289.832513 324.078845 
L 289.832513 311.418606 
L 289.832513 311.418606 
z
" clip-path="url(#p159860216a)" style="fill: #5b8e7d"/>
   </g>
   <g id="patch_25">
    <path d="M 289.832513 339.904144 
L 289.832513 339.904144 
L 289.832513 327.243905 
L 289.832513 327.243905 
z
" clip-path="url(#p159860216a)" style="fill: #5b8e7d"/>
   </g>
   <g id="matplotlib.axis_7">
    <g id="xtick_19">
     <g id="line2d_34">
      <g>
       <use xlink:href="#m102af063c2" x="289.832513" y="346.07601" style="stroke: #000000; stroke-width: 0.8"/>
      </g>
     </g>
     <g id="text_42">
      <text style="font-size: 8px; font-family: 'Arial'; text-anchor: middle" x="289.832513" y="358.30226" transform="rotate(-0 289.832513 358.30226)">0</text>
     </g>
    </g>
    <g id="xtick_20">
     <g id="line2d_35">
      <g>
       <use xlink:href="#m102af063c2" x="329.071911" y="346.07601" style="stroke: #000000; stroke-width: 0.8"/>
      </g>
     </g>
     <g id="text_43">
      <text style="font-size: 8px; font-family: 'Arial'; text-anchor: middle" x="329.071911" y="358.30226" transform="rotate(-0 329.071911 358.30226)">10</text>
     </g>
    </g>
    <g id="xtick_21">
     <g id="line2d_36">
      <g>
       <use xlink:href="#m102af063c2" x="368.311308" y="346.07601" style="stroke: #000000; stroke-width: 0.8"/>
      </g>
     </g>
     <g id="text_44">
      <text style="font-size: 8px; font-family: 'Arial'; text-anchor: middle" x="368.311308" y="358.30226" transform="rotate(-0 368.311308 358.30226)">20</text>
     </g>
    </g>
    <g id="xtick_22">
     <g id="line2d_37">
      <g>
       <use xlink:href="#m102af063c2" x="407.550705" y="346.07601" style="stroke: #000000; stroke-width: 0.8"/>
      </g>
     </g>
     <g id="text_45">
      <text style="font-size: 8px; font-family: 'Arial'; text-anchor: middle" x="407.550705" y="358.30226" transform="rotate(-0 407.550705 358.30226)">30</text>
     </g>
    </g>
    <g id="xtick_23">
     <g id="line2d_38">
      <g>
       <use xlink:href="#m102af063c2" x="446.790103" y="346.07601" style="stroke: #000000; stroke-width: 0.8"/>
      </g>
     </g>
     <g id="text_46">
      <text style="font-size: 8px; font-family: 'Arial'; text-anchor: middle" x="446.790103" y="358.30226" transform="rotate(-0 446.790103 358.30226)">40</text>
     </g>
    </g>
    <g id="xtick_24">
     <g id="line2d_39">
      <g>
       <use xlink:href="#m102af063c2" x="486.0295" y="346.07601" style="stroke: #000000; stroke-width: 0.8"/>
      </g>
     </g>
     <g id="text_47">
      <text style="font-size: 8px; font-family: 'Arial'; text-anchor: middle" x="486.0295" y="358.30226" transform="rotate(-0 486.0295 358.30226)">50</text>
     </g>
    </g>
    <g id="text_48">
     <text style="font-size: 8px; font-family: 'Arial'; text-anchor: middle" x="399.016137" y="369.61851" transform="rotate(-0 399.016137 369.61851)">Broken bonds</text>
    </g>
   </g>
   <g id="matplotlib.axis_8">
    <g id="ytick_15">
     <g id="line2d_40">
      <g>
       <use xlink:href="#m0c0bc8f0cd" x="289.832513" y="333.574024" style="stroke: #000000; stroke-width: 0.8"/>
      </g>
     </g>
     <g id="text_49">
      <text style="font-size: 8px; font-family: 'Arial'; text-anchor: end" x="283.332513" y="336.437149" transform="rotate(-0 283.332513 336.437149)">1</text>
     </g>
    </g>
    <g id="ytick_16">
     <g id="line2d_41">
      <g>
       <use xlink:href="#m0c0bc8f0cd" x="289.832513" y="317.748726" style="stroke: #000000; stroke-width: 0.8"/>
      </g>
     </g>
     <g id="text_50">
      <text style="font-size: 8px; font-family: 'Arial'; text-anchor: end" x="283.332513" y="320.611851" transform="rotate(-0 283.332513 320.611851)">2</text>
     </g>
    </g>
    <g id="ytick_17">
     <g id="line2d_42">
      <g>
       <use xlink:href="#m0c0bc8f0cd" x="289.832513" y="301.923427" style="stroke: #000000; stroke-width: 0.8"/>
      </g>
     </g>
     <g id="text_51">
      <text style="font-size: 8px; font-family: 'Arial'; text-anchor: end" x="283.332513" y="304.786552" transform="rotate(-0 283.332513 304.786552)">3</text>
     </g>
    </g>
    <g id="ytick_18">
     <g id="line2d_43">
      <g>
       <use xlink:href="#m0c0bc8f0cd" x="289.832513" y="286.098129" style="stroke: #000000; stroke-width: 0.8"/>
      </g>
     </g>
     <g id="text_52">
      <text style="font-size: 8px; font-family: 'Arial'; text-anchor: end" x="283.332513" y="288.961254" transform="rotate(-0 283.332513 288.961254)">4</text>
     </g>
    </g>
    <g id="ytick_19">
     <g id="line2d_44">
      <g>
       <use xlink:href="#m0c0bc8f0cd" x="289.832513" y="270.27283" style="stroke: #000000; stroke-width: 0.8"/>
      </g>
     </g>
     <g id="text_53">
      <text style="font-size: 8px; font-family: 'Arial'; text-anchor: end" x="283.332513" y="273.135955" transform="rotate(-0 283.332513 273.135955)">5</text>
     </g>
    </g>
    <g id="ytick_20">
     <g id="line2d_45">
      <g>
       <use xlink:href="#m0c0bc8f0cd" x="289.832513" y="254.447532" style="stroke: #000000; stroke-width: 0.8"/>
      </g>
     </g>
     <g id="text_54">
      <text style="font-size: 8px; font-family: 'Arial'; text-anchor: end" x="283.332513" y="257.310657" transform="rotate(-0 283.332513 257.310657)">6</text>
     </g>
    </g>
    <g id="ytick_21">
     <g id="line2d_46">
      <g>
       <use xlink:href="#m0c0bc8f0cd" x="289.832513" y="238.622233" style="stroke: #000000; stroke-width: 0.8"/>
      </g>
     </g>
     <g id="text_55">
      <text style="font-size: 8px; font-family: 'Arial'; text-anchor: end" x="283.332513" y="241.485358" transform="rotate(-0 283.332513 241.485358)">7</text>
     </g>
    </g>
    <g id="ytick_22">
     <g id="line2d_47">
      <g>
       <use xlink:href="#m0c0bc8f0cd" x="289.832513" y="222.796935" style="stroke: #000000; stroke-width: 0.8"/>
      </g>
     </g>
     <g id="text_56">
      <text style="font-size: 8px; font-family: 'Arial'; text-anchor: end" x="283.332513" y="225.66006" transform="rotate(-0 283.332513 225.66006)">8</text>
     </g>
    </g>
    <g id="text_57">
     <text style="font-size: 8px; font-family: 'Arial'; text-anchor: middle" x="273.200013" y="278.185479" transform="rotate(-90 273.200013 278.185479)">Initial height bin</text>
    </g>
   </g>
   <g id="patch_26">
    <path d="M 289.832513 346.07601 
L 289.832513 210.294949 
" style="fill: none; stroke: #000000; stroke-width: 0.8; stroke-linejoin: miter; stroke-linecap: square"/>
   </g>
   <g id="patch_27">
    <path d="M 289.832513 346.07601 
L 508.19976 346.07601 
" style="fill: none; stroke: #000000; stroke-width: 0.8; stroke-linejoin: miter; stroke-linecap: square"/>
   </g>
   <g id="text_58">
    <text style="font-weight: 700; font-size: 9.6px; font-family: 'Arial'; text-anchor: start" x="289.832513" y="204.294949" transform="rotate(-0 289.832513 204.294949)">d  Height localization</text>
   </g>
  </g>
  <g id="text_59">
   <text style="font-size: 9px; font-family: 'Arial'; text-anchor: middle" x="255.6" y="9.551959" transform="rotate(-0 255.6 9.551959)">PB-006 1000-pebble targeted window: first break 0.0675 mm, 53 broken bonds</text>
  </g>
 </g>
 <defs>
  <clipPath id="p32d77b4967">
   <rect x="38.61149" y="30.318157" width="218.367247" height="135.781061"/>
  </clipPath>
  <clipPath id="p3b36eeb2b8">
   <rect x="289.832513" y="30.318157" width="218.367247" height="135.781061"/>
  </clipPath>
  <clipPath id="pcc4a9981fe">
   <rect x="38.61149" y="210.294949" width="218.367247" height="135.781061"/>
  </clipPath>
  <clipPath id="p159860216a">
   <rect x="289.832513" y="210.294949" width="218.367247" height="135.781061"/>
  </clipPath>
 </defs>
</svg>
