<svg xmlns="http://www.w3.org/2000/svg" width="900" height="560" viewBox="0 0 900 560">
<rect width="100%" height="100%" fill="white"/>
<text x="450.0" y="26" text-anchor="middle" font-size="22" font-family="Arial, sans-serif" fill="#111827">SP-002 force-displacement and bond breakage</text>
<line x1="82" y1="40.00" x2="818" y2="40.00" stroke="#d9dee2" stroke-width="1"/><line x1="82" y1="129.60" x2="818" y2="129.60" stroke="#d9dee2" stroke-width="1"/><line x1="82" y1="219.20" x2="818" y2="219.20" stroke="#d9dee2" stroke-width="1"/><line x1="82" y1="308.80" x2="818" y2="308.80" stroke="#d9dee2" stroke-width="1"/><line x1="82" y1="398.40" x2="818" y2="398.40" stroke="#d9dee2" stroke-width="1"/><line x1="82" y1="488.00" x2="818" y2="488.00" stroke="#d9dee2" stroke-width="1"/><line x1="82.00" y1="40" x2="82.00" y2="488" stroke="#edf0f2" stroke-width="1"/><text x="82.00" y="526" text-anchor="middle" font-size="18" fill="#30363d">0.000</text><line x1="229.20" y1="40" x2="229.20" y2="488" stroke="#edf0f2" stroke-width="1"/><text x="229.20" y="526" text-anchor="middle" font-size="18" fill="#30363d">0.024</text><line x1="376.40" y1="40" x2="376.40" y2="488" stroke="#edf0f2" stroke-width="1"/><text x="376.40" y="526" text-anchor="middle" font-size="18" fill="#30363d">0.048</text><line x1="523.60" y1="40" x2="523.60" y2="488" stroke="#edf0f2" stroke-width="1"/><text x="523.60" y="526" text-anchor="middle" font-size="18" fill="#30363d">0.072</text><line x1="670.80" y1="40" x2="670.80" y2="488" stroke="#edf0f2" stroke-width="1"/><text x="670.80" y="526" text-anchor="middle" font-size="18" fill="#30363d">0.096</text><line x1="818.00" y1="40" x2="818.00" y2="488" stroke="#edf0f2" stroke-width="1"/><text x="818.00" y="526" text-anchor="middle" font-size="18" fill="#30363d">0.120</text>
<line x1="82" y1="40" x2="82" y2="488" stroke="#111827" stroke-width="1.5"/>
<line x1="82" y1="488" x2="818" y2="488" stroke="#111827" stroke-width="1.5"/>
<line x1="818" y1="40" x2="818" y2="488" stroke="#111827" stroke-width="1.5"/>
<polyline points="82.00,488.00 85.07,488.00 88.13,488.00 91.20,488.00 94.27,488.00 97.33,488.00 100.40,488.00 103.47,488.00 106.53,488.00 109.60,488.00 112.67,488.00 115.73,488.00 118.80,488.00 121.87,488.00 124.93,488.00 128.00,488.00 131.07,488.00 134.13,488.00 137.20,488.00 140.27,488.00 143.33,488.00 146.40,488.00 149.47,488.00 152.53,488.00 155.60,488.00 158.67,488.00 161.73,488.00 164.80,488.00 167.87,488.00 170.93,488.00 174.00,488.00 177.07,488.00 180.13,488.00 183.20,488.00 186.27,488.00 189.33,488.00 192.40,488.00 195.47,488.00 198.53,488.00 201.60,488.00 204.67,488.00 207.73,488.00 210.80,488.00 213.87,488.00 216.93,488.00 220.00,488.00 223.07,488.00 226.13,488.00 229.20,488.00 232.27,488.00 235.33,488.00 238.40,488.00 241.47,488.00 244.53,488.00 247.60,488.00 250.67,488.00 253.73,488.00 256.80,488.00 259.87,488.00 262.93,488.00 266.00,488.00 269.07,488.00 272.13,488.00 275.20,488.00 278.27,488.00 281.33,488.00 284.40,488.00 287.47,488.00 290.53,488.00 293.60,488.00 296.67,488.00 299.73,488.00 302.80,488.00 305.87,488.00 308.93,488.00 312.00,488.00 315.07,488.00 318.13,488.00 321.20,488.00 324.27,488.00 327.33,488.00 330.40,488.00 333.47,488.00 336.53,488.00 339.60,488.00 342.67,488.00 345.73,488.00 348.80,488.00 351.87,488.00 354.93,488.00 358.00,488.00 361.07,488.00 364.13,488.00 367.20,488.00 370.27,488.00 373.33,488.00 376.40,488.00 379.47,488.00 382.53,488.00 385.60,488.00 388.67,488.00 391.73,488.00 394.80,488.00 397.87,488.00 400.93,488.00 404.00,488.00 407.07,488.00 410.13,488.00 413.20,488.00 416.27,488.00 419.33,488.00 422.40,488.00 425.47,488.00 428.53,488.00 431.60,488.00 434.67,488.00 437.73,488.00 440.80,488.00 443.87,488.00 446.93,488.00 450.00,488.00 453.07,488.00 456.13,488.00 459.20,488.00 462.27,488.00 465.33,488.00 468.40,488.00 471.47,488.00 474.53,488.00 477.60,488.00 480.67,488.00 483.73,488.00 486.80,488.00 489.87,488.00 492.93,488.00 496.00,488.00 499.07,488.00 502.13,488.00 505.20,488.00 508.27,488.00 511.33,488.00 514.40,488.00 517.47,488.00 520.53,488.00 523.60,488.00 526.67,488.00 529.73,488.00 532.80,488.00 535.87,488.00 538.93,488.00 542.00,488.00 545.07,488.00 548.13,488.00 551.20,488.00 554.27,488.00 557.33,488.00 560.40,488.00 563.47,488.00 566.53,488.00 569.60,488.00 572.67,488.00 575.73,488.00 578.80,488.00 581.87,488.00 584.93,488.00 588.00,488.00 591.07,488.00 594.13,488.00 597.20,488.00 600.27,488.00 603.33,488.00 606.40,488.00 609.47,488.00 612.53,488.00 615.60,488.00 618.67,488.00 621.73,488.00 624.80,488.00 627.87,488.00 630.93,488.00 634.00,488.00 637.07,488.00 640.13,488.00 643.20,488.00 646.27,488.00 649.33,488.00 652.40,488.00 655.47,488.00 658.53,488.00 661.60,488.00 664.67,488.00 667.73,488.00 670.80,488.00 673.87,488.00 676.93,488.00 680.00,488.00 683.07,488.00 686.13,488.00 689.20,488.00 692.27,488.00 695.33,487.99 698.40,477.15 701.47,460.58 704.53,441.41 707.60,420.45 710.67,398.07 713.73,374.55 716.80,350.05 719.87,324.72 722.93,298.66 726.00,271.94 729.07,244.64 732.13,216.80 735.20,204.42 738.27,233.79 741.33,261.42 744.40,261.11 747.47,248.72 750.53,231.08 753.60,211.04 756.67,487.82 759.73,462.85 762.80,425.24 765.87,395.73 768.93,366.12 772.00,337.63 775.07,310.61 778.13,283.67 781.20,256.10 784.27,227.67 787.33,198.36 790.40,168.19 793.47,137.22 796.53,105.50 799.60,73.08 802.67,40.00 805.73,45.07 808.80,224.52 811.87,487.27 814.93,471.25 818.00,454.74" fill="none" stroke="#1b6ca8" stroke-width="3"/>
<polyline points="82.00,488.00 85.07,488.00 88.13,488.00 91.20,488.00 94.27,488.00 97.33,488.00 100.40,488.00 103.47,488.00 106.53,488.00 109.60,488.00 112.67,488.00 115.73,488.00 118.80,488.00 121.87,488.00 124.93,488.00 128.00,488.00 131.07,488.00 134.13,488.00 137.20,488.00 140.27,488.00 143.33,488.00 146.40,488.00 149.47,488.00 152.53,488.00 155.60,488.00 158.67,488.00 161.73,488.00 164.80,488.00 167.87,488.00 170.93,488.00 174.00,488.00 177.07,488.00 180.13,488.00 183.20,488.00 186.27,488.00 189.33,488.00 192.40,488.00 195.47,488.00 198.53,488.00 201.60,488.00 204.67,488.00 207.73,488.00 210.80,488.00 213.87,488.00 216.93,488.00 220.00,488.00 223.07,488.00 226.13,488.00 229.20,488.00 232.27,488.00 235.33,488.00 238.40,488.00 241.47,488.00 244.53,488.00 247.60,488.00 250.67,488.00 253.73,488.00 256.80,488.00 259.87,488.00 262.93,488.00 266.00,488.00 269.07,488.00 272.13,488.00 275.20,488.00 278.27,488.00 281.33,488.00 284.40,488.00 287.47,488.00 290.53,488.00 293.60,488.00 296.67,488.00 299.73,488.00 302.80,488.00 305.87,488.00 308.93,488.00 312.00,488.00 315.07,488.00 318.13,488.00 321.20,488.00 324.27,488.00 327.33,488.00 330.40,488.00 333.47,488.00 336.53,488.00 339.60,488.00 342.67,488.00 345.73,488.00 348.80,488.00 351.87,488.00 354.93,488.00 358.00,488.00 361.07,488.00 364.13,488.00 367.20,488.00 370.27,488.00 373.33,488.00 376.40,488.00 379.47,488.00 382.53,488.00 385.60,488.00 388.67,488.00 391.73,488.00 394.80,488.00 397.87,488.00 400.93,488.00 404.00,488.00 407.07,488.00 410.13,488.00 413.20,488.00 416.27,488.00 419.33,488.00 422.40,488.00 425.47,488.00 428.53,488.00 431.60,488.00 434.67,488.00 437.73,488.00 440.80,488.00 443.87,488.00 446.93,488.00 450.00,488.00 453.07,488.00 456.13,488.00 459.20,488.00 462.27,488.00 465.33,488.00 468.40,488.00 471.47,488.00 474.53,488.00 477.60,488.00 480.67,488.00 483.73,488.00 486.80,488.00 489.87,488.00 492.93,488.00 496.00,488.00 499.07,488.00 502.13,488.00 505.20,488.00 508.27,488.00 511.33,488.00 514.40,488.00 517.47,488.00 520.53,488.00 523.60,488.00 526.67,488.00 529.73,488.00 532.80,488.00 535.87,488.00 538.93,488.00 542.00,488.00 545.07,488.00 548.13,488.00 551.20,488.00 554.27,488.00 557.33,488.00 560.40,488.00 563.47,488.00 566.53,488.00 569.60,488.00 572.67,488.00 575.73,488.00 578.80,488.00 581.87,488.00 584.93,488.00 588.00,488.00 591.07,488.00 594.13,488.00 597.20,488.00 600.27,488.00 603.33,488.00 606.40,488.00 609.47,488.00 612.53,488.00 615.60,488.00 618.67,488.00 621.73,488.00 624.80,488.00 627.87,488.00 630.93,488.00 634.00,488.00 637.07,488.00 640.13,488.00 643.20,488.00 646.27,488.00 649.33,488.00 652.40,488.00 655.47,488.00 658.53,488.00 661.60,488.00 664.67,488.00 667.73,488.00 670.80,488.00 673.87,488.00 676.93,488.00 680.00,488.00 683.07,488.00 686.13,488.00 689.20,488.00 692.27,488.00 695.33,488.00 698.40,483.76 701.47,471.52 704.53,454.75 707.60,435.32 710.67,414.07 713.73,391.44 716.80,367.69 719.87,342.99 722.93,317.48 726.00,291.25 729.07,264.38 732.13,236.94 735.20,215.29 738.27,453.41 741.33,379.93 744.40,330.72 747.47,297.27 750.53,270.82 753.60,247.14 756.67,286.90 759.73,374.18 762.80,401.99 765.87,404.87 768.93,395.43 772.00,377.56 775.07,354.92 778.13,329.59 781.20,302.57 784.27,274.31 787.33,245.04 790.40,214.87 793.47,183.89 796.53,152.16 799.60,119.72 802.67,86.63 805.73,73.97 808.80,166.81 811.87,263.31 814.93,362.93 818.00,404.89" fill="none" stroke="#d1495b" stroke-width="3"/>
<polyline points="82.00,488.00 85.07,488.00 85.07,488.00 88.13,488.00 88.13,488.00 91.20,488.00 91.20,488.00 94.27,488.00 94.27,488.00 97.33,488.00 97.33,488.00 100.40,488.00 100.40,488.00 103.47,488.00 103.47,488.00 106.53,488.00 106.53,488.00 109.60,488.00 109.60,488.00 112.67,488.00 112.67,488.00 115.73,488.00 115.73,488.00 118.80,488.00 118.80,488.00 121.87,488.00 121.87,488.00 124.93,488.00 124.93,488.00 128.00,488.00 128.00,488.00 131.07,488.00 131.07,488.00 134.13,488.00 134.13,488.00 137.20,488.00 137.20,488.00 140.27,488.00 140.27,488.00 143.33,488.00 143.33,488.00 146.40,488.00 146.40,488.00 149.47,488.00 149.47,488.00 152.53,488.00 152.53,488.00 155.60,488.00 155.60,488.00 158.67,488.00 158.67,488.00 161.73,488.00 161.73,488.00 164.80,488.00 164.80,488.00 167.87,488.00 167.87,488.00 170.93,488.00 170.93,488.00 174.00,488.00 174.00,488.00 177.07,488.00 177.07,488.00 180.13,488.00 180.13,488.00 183.20,488.00 183.20,488.00 186.27,488.00 186.27,488.00 189.33,488.00 189.33,488.00 192.40,488.00 192.40,488.00 195.47,488.00 195.47,488.00 198.53,488.00 198.53,488.00 201.60,488.00 201.60,488.00 204.67,488.00 204.67,488.00 207.73,488.00 207.73,488.00 210.80,488.00 210.80,488.00 213.87,488.00 213.87,488.00 216.93,488.00 216.93,488.00 220.00,488.00 220.00,488.00 223.07,488.00 223.07,488.00 226.13,488.00 226.13,488.00 229.20,488.00 229.20,488.00 232.27,488.00 232.27,488.00 235.33,488.00 235.33,488.00 238.40,488.00 238.40,488.00 241.47,488.00 241.47,488.00 244.53,488.00 244.53,488.00 247.60,488.00 247.60,488.00 250.67,488.00 250.67,488.00 253.73,488.00 253.73,488.00 256.80,488.00 256.80,488.00 259.87,488.00 259.87,488.00 262.93,488.00 262.93,488.00 266.00,488.00 266.00,488.00 269.07,488.00 269.07,488.00 272.13,488.00 272.13,488.00 275.20,488.00 275.20,488.00 278.27,488.00 278.27,488.00 281.33,488.00 281.33,488.00 284.40,488.00 284.40,488.00 287.47,488.00 287.47,488.00 290.53,488.00 290.53,488.00 293.60,488.00 293.60,488.00 296.67,488.00 296.67,488.00 299.73,488.00 299.73,488.00 302.80,488.00 302.80,488.00 305.87,488.00 305.87,488.00 308.93,488.00 308.93,488.00 312.00,488.00 312.00,488.00 315.07,488.00 315.07,488.00 318.13,488.00 318.13,488.00 321.20,488.00 321.20,488.00 324.27,488.00 324.27,488.00 327.33,488.00 327.33,488.00 330.40,488.00 330.40,488.00 333.47,488.00 333.47,488.00 336.53,488.00 336.53,488.00 339.60,488.00 339.60,488.00 342.67,488.00 342.67,488.00 345.73,488.00 345.73,488.00 348.80,488.00 348.80,488.00 351.87,488.00 351.87,488.00 354.93,488.00 354.93,488.00 358.00,488.00 358.00,488.00 361.07,488.00 361.07,488.00 364.13,488.00 364.13,488.00 367.20,488.00 367.20,488.00 370.27,488.00 370.27,488.00 373.33,488.00 373.33,488.00 376.40,488.00 376.40,488.00 379.47,488.00 379.47,488.00 382.53,488.00 382.53,488.00 385.60,488.00 385.60,488.00 388.67,488.00 388.67,488.00 391.73,488.00 391.73,488.00 394.80,488.00 394.80,488.00 397.87,488.00 397.87,488.00 400.93,488.00 400.93,488.00 404.00,488.00 404.00,488.00 407.07,488.00 407.07,488.00 410.13,488.00 410.13,488.00 413.20,488.00 413.20,488.00 416.27,488.00 416.27,488.00 419.33,488.00 419.33,488.00 422.40,488.00 422.40,488.00 425.47,488.00 425.47,488.00 428.53,488.00 428.53,488.00 431.60,488.00 431.60,488.00 434.67,488.00 434.67,488.00 437.73,488.00 437.73,488.00 440.80,488.00 440.80,488.00 443.87,488.00 443.87,488.00 446.93,488.00 446.93,488.00 450.00,488.00 450.00,488.00 453.07,488.00 453.07,488.00 456.13,488.00 456.13,488.00 459.20,488.00 459.20,488.00 462.27,488.00 462.27,488.00 465.33,488.00 465.33,488.00 468.40,488.00 468.40,488.00 471.47,488.00 471.47,488.00 474.53,488.00 474.53,488.00 477.60,488.00 477.60,488.00 480.67,488.00 480.67,488.00 483.73,488.00 483.73,488.00 486.80,488.00 486.80,488.00 489.87,488.00 489.87,488.00 492.93,488.00 492.93,488.00 496.00,488.00 496.00,488.00 499.07,488.00 499.07,488.00 502.13,488.00 502.13,488.00 505.20,488.00 505.20,488.00 508.27,488.00 508.27,488.00 511.33,488.00 511.33,488.00 514.40,488.00 514.40,488.00 517.47,488.00 517.47,488.00 520.53,488.00 520.53,488.00 523.60,488.00 523.60,488.00 526.67,488.00 526.67,488.00 529.73,488.00 529.73,488.00 532.80,488.00 532.80,488.00 535.87,488.00 535.87,488.00 538.93,488.00 538.93,488.00 542.00,488.00 542.00,488.00 545.07,488.00 545.07,488.00 548.13,488.00 548.13,488.00 551.20,488.00 551.20,488.00 554.27,488.00 554.27,488.00 557.33,488.00 557.33,488.00 560.40,488.00 560.40,488.00 563.47,488.00 563.47,488.00 566.53,488.00 566.53,488.00 569.60,488.00 569.60,488.00 572.67,488.00 572.67,488.00 575.73,488.00 575.73,488.00 578.80,488.00 578.80,488.00 581.87,488.00 581.87,488.00 584.93,488.00 584.93,488.00 588.00,488.00 588.00,488.00 591.07,488.00 591.07,488.00 594.13,488.00 594.13,488.00 597.20,488.00 597.20,488.00 600.27,488.00 600.27,488.00 603.33,488.00 603.33,488.00 606.40,488.00 606.40,488.00 609.47,488.00 609.47,488.00 612.53,488.00 612.53,488.00 615.60,488.00 615.60,488.00 618.67,488.00 618.67,488.00 621.73,488.00 621.73,488.00 624.80,488.00 624.80,488.00 627.87,488.00 627.87,488.00 630.93,488.00 630.93,488.00 634.00,488.00 634.00,488.00 637.07,488.00 637.07,488.00 640.13,488.00 640.13,488.00 643.20,488.00 643.20,488.00 646.27,488.00 646.27,488.00 649.33,488.00 649.33,488.00 652.40,488.00 652.40,488.00 655.47,488.00 655.47,488.00 658.53,488.00 658.53,488.00 661.60,488.00 661.60,488.00 664.67,488.00 664.67,488.00 667.73,488.00 667.73,488.00 670.80,488.00 670.80,488.00 673.87,488.00 673.87,488.00 676.93,488.00 676.93,488.00 680.00,488.00 680.00,488.00 683.07,488.00 683.07,488.00 686.13,488.00 686.13,488.00 689.20,488.00 689.20,488.00 692.27,488.00 692.27,488.00 695.33,488.00 695.33,488.00 698.40,488.00 698.40,488.00 701.47,488.00 701.47,488.00 704.53,488.00 704.53,488.00 707.60,488.00 707.60,488.00 710.67,488.00 710.67,488.00 713.73,488.00 713.73,488.00 716.80,488.00 716.80,488.00 719.87,488.00 719.87,488.00 722.93,488.00 722.93,488.00 726.00,488.00 726.00,488.00 729.07,488.00 729.07,488.00 732.13,488.00 732.13,488.00 735.20,488.00 735.20,471.09 738.27,471.09 738.27,471.09 741.33,471.09 741.33,471.09 744.40,471.09 744.40,471.09 747.47,471.09 747.47,471.09 750.53,471.09 750.53,471.09 753.60,471.09 753.60,471.09 756.67,471.09 756.67,344.30 759.73,344.30 759.73,344.30 762.80,344.30 762.80,344.30 765.87,344.30 765.87,344.30 768.93,344.30 768.93,344.30 772.00,344.30 772.00,344.30 775.07,344.30 775.07,344.30 778.13,344.30 778.13,344.30 781.20,344.30 781.20,344.30 784.27,344.30 784.27,344.30 787.33,344.30 787.33,344.30 790.40,344.30 790.40,344.30 793.47,344.30 793.47,344.30 796.53,344.30 796.53,344.30 799.60,344.30 799.60,344.30 802.67,344.30 802.67,344.30 805.73,344.30 805.73,293.58 808.80,293.58 808.80,183.70 811.87,183.70 811.87,40.00 814.93,40.00 814.93,40.00 818.00,40.00 818.00,40.00" fill="none" stroke="#4b8f29" stroke-width="3"/>
<text x="450.0" y="552" text-anchor="middle" font-size="20" font-family="Arial, sans-serif" fill="#111827">Top displacement (mm)</text>
<text x="24" y="280.0" text-anchor="middle" transform="rotate(-90 24 280.0)" font-size="20" font-family="Arial, sans-serif" fill="#111827">Force magnitude (N)</text>
<text x="880" y="280.0" text-anchor="middle" transform="rotate(90 880 280.0)" font-size="20" font-family="Arial, sans-serif" fill="#111827">Broken bonds</text>
<text x="102" y="64" font-size="18" font-family="Arial, sans-serif" fill="#1b6ca8">Top plate</text>
<text x="212" y="64" font-size="18" font-family="Arial, sans-serif" fill="#d1495b">Bottom plate</text>
<text x="352" y="64" font-size="18" font-family="Arial, sans-serif" fill="#4b8f29">Broken bonds</text>
<text x="72" y="45" text-anchor="end" font-size="17" fill="#30363d">4.91</text>
<text x="72" y="488" text-anchor="end" font-size="17" fill="#30363d">0</text>
<text x="828" y="45" text-anchor="start" font-size="17" fill="#30363d">53</text>
<text x="828" y="488" text-anchor="start" font-size="17" fill="#30363d">0</text>
</svg>
