<svg xmlns="http://www.w3.org/2000/svg" width="900" height="560" viewBox="0 0 900 560">
<rect width="100%" height="100%" fill="white"/>
<text x="450.0" y="26" text-anchor="middle" font-size="22" font-family="Arial, sans-serif" fill="#111827">SP-002 force-displacement and bond breakage</text>
<line x1="82" y1="40.00" x2="818" y2="40.00" stroke="#d9dee2" stroke-width="1"/><line x1="82" y1="129.60" x2="818" y2="129.60" stroke="#d9dee2" stroke-width="1"/><line x1="82" y1="219.20" x2="818" y2="219.20" stroke="#d9dee2" stroke-width="1"/><line x1="82" y1="308.80" x2="818" y2="308.80" stroke="#d9dee2" stroke-width="1"/><line x1="82" y1="398.40" x2="818" y2="398.40" stroke="#d9dee2" stroke-width="1"/><line x1="82" y1="488.00" x2="818" y2="488.00" stroke="#d9dee2" stroke-width="1"/><line x1="82.00" y1="40" x2="82.00" y2="488" stroke="#edf0f2" stroke-width="1"/><text x="82.00" y="526" text-anchor="middle" font-size="18" fill="#30363d">0.000</text><line x1="229.20" y1="40" x2="229.20" y2="488" stroke="#edf0f2" stroke-width="1"/><text x="229.20" y="526" text-anchor="middle" font-size="18" fill="#30363d">0.030</text><line x1="376.40" y1="40" x2="376.40" y2="488" stroke="#edf0f2" stroke-width="1"/><text x="376.40" y="526" text-anchor="middle" font-size="18" fill="#30363d">0.060</text><line x1="523.60" y1="40" x2="523.60" y2="488" stroke="#edf0f2" stroke-width="1"/><text x="523.60" y="526" text-anchor="middle" font-size="18" fill="#30363d">0.090</text><line x1="670.80" y1="40" x2="670.80" y2="488" stroke="#edf0f2" stroke-width="1"/><text x="670.80" y="526" text-anchor="middle" font-size="18" fill="#30363d">0.120</text><line x1="818.00" y1="40" x2="818.00" y2="488" stroke="#edf0f2" stroke-width="1"/><text x="818.00" y="526" text-anchor="middle" font-size="18" fill="#30363d">0.150</text>
<line x1="82" y1="40" x2="82" y2="488" stroke="#111827" stroke-width="1.5"/>
<line x1="82" y1="488" x2="818" y2="488" stroke="#111827" stroke-width="1.5"/>
<line x1="818" y1="40" x2="818" y2="488" stroke="#111827" stroke-width="1.5"/>
<polyline points="82.00,488.00 88.13,488.00 94.27,488.00 100.40,488.00 106.53,488.00 112.67,488.00 118.80,488.00 124.93,488.00 131.07,488.00 137.20,488.00 143.33,488.00 149.47,488.00 155.60,488.00 161.73,488.00 167.87,488.00 174.00,488.00 180.13,488.00 186.27,488.00 192.40,488.00 198.53,488.00 204.67,488.00 210.80,488.00 216.93,488.00 223.07,488.00 229.20,488.00 235.33,488.00 241.47,488.00 247.60,488.00 253.73,488.00 259.87,488.00 266.00,488.00 272.13,488.00 278.27,488.00 284.40,488.00 290.53,488.00 296.67,488.00 302.80,488.00 308.93,488.00 315.07,488.00 321.20,488.00 327.33,488.00 333.47,488.00 339.60,488.00 345.73,488.00 351.87,488.00 358.00,488.00 364.13,488.00 370.27,488.00 376.40,488.00 382.53,488.00 388.67,488.00 394.80,488.00 400.93,488.00 407.07,488.00 413.20,488.00 419.33,488.00 425.47,488.00 431.60,488.00 437.73,488.00 443.87,488.00 450.00,488.00 456.13,488.00 462.27,488.00 468.40,488.00 474.53,488.00 480.67,488.00 486.80,488.00 492.93,488.00 499.07,488.00 505.20,488.00 511.33,488.00 517.47,488.00 523.60,488.00 529.73,488.00 535.87,488.00 542.00,488.00 548.13,488.00 554.27,488.00 560.40,488.00 566.53,488.00 572.67,487.97 578.80,457.31 584.93,409.13 591.07,352.09 597.20,288.77 603.33,487.68 609.47,467.35 615.60,421.18 621.73,348.62 627.87,253.49 634.00,284.39 640.13,268.04 646.27,218.93 652.40,353.49 658.53,486.90 664.67,480.82 670.80,459.47 676.93,430.55 683.07,395.77 689.20,361.70 695.33,318.83 701.47,269.07 707.60,216.84 713.73,161.49 719.87,102.49 726.00,40.00 732.13,135.75 738.27,168.03 744.40,214.98 750.53,266.93 756.67,280.66 762.80,277.40 768.93,265.86 775.07,250.04 781.20,232.01 787.33,212.82 793.47,193.26 799.60,174.20 805.73,155.85 811.87,138.42 818.00,122.00" fill="none" stroke="#1b6ca8" stroke-width="3"/>
<polyline points="82.00,488.00 88.13,488.00 94.27,488.00 100.40,488.00 106.53,488.00 112.67,488.00 118.80,488.00 124.93,488.00 131.07,488.00 137.20,488.00 143.33,488.00 149.47,488.00 155.60,488.00 161.73,488.00 167.87,488.00 174.00,488.00 180.13,488.00 186.27,488.00 192.40,488.00 198.53,488.00 204.67,488.00 210.80,488.00 216.93,488.00 223.07,488.00 229.20,488.00 235.33,488.00 241.47,488.00 247.60,488.00 253.73,488.00 259.87,488.00 266.00,488.00 272.13,488.00 278.27,488.00 284.40,488.00 290.53,488.00 296.67,488.00 302.80,488.00 308.93,488.00 315.07,488.00 321.20,488.00 327.33,488.00 333.47,488.00 339.60,488.00 345.73,488.00 351.87,488.00 358.00,488.00 364.13,488.00 370.27,488.00 376.40,488.00 382.53,488.00 388.67,488.00 394.80,488.00 400.93,488.00 407.07,488.00 413.20,488.00 419.33,488.00 425.47,488.00 431.60,488.00 437.73,488.00 443.87,488.00 450.00,488.00 456.13,488.00 462.27,488.00 468.40,488.00 474.53,488.00 480.67,488.00 486.80,488.00 492.93,488.00 499.07,488.00 505.20,488.00 511.33,488.00 517.47,488.00 523.60,488.00 529.73,488.00 535.87,488.00 542.00,488.00 548.13,488.00 554.27,488.00 560.40,488.00 566.53,488.00 572.67,488.00 578.80,469.83 584.93,427.13 591.07,373.18 597.20,312.06 603.33,474.19 609.47,477.15 615.60,438.73 621.73,377.45 627.87,305.71 634.00,457.07 640.13,381.05 646.27,310.51 652.40,302.46 658.53,316.36 664.67,403.16 670.80,433.67 676.93,440.27 683.07,431.06 689.20,410.70 695.33,381.27 701.47,340.39 707.60,291.46 713.73,237.18 719.87,178.75 726.00,114.92 732.13,401.04 738.27,315.56 744.40,481.78 750.53,459.00 756.67,436.96 762.80,416.43 768.93,397.51 775.07,379.22 781.20,361.22 787.33,343.41 793.47,325.79 799.60,308.57 805.73,291.91 811.87,275.98 818.00,260.03" fill="none" stroke="#d1495b" stroke-width="3"/>
<polyline points="82.00,488.00 88.13,488.00 88.13,488.00 94.27,488.00 94.27,488.00 100.40,488.00 100.40,488.00 106.53,488.00 106.53,488.00 112.67,488.00 112.67,488.00 118.80,488.00 118.80,488.00 124.93,488.00 124.93,488.00 131.07,488.00 131.07,488.00 137.20,488.00 137.20,488.00 143.33,488.00 143.33,488.00 149.47,488.00 149.47,488.00 155.60,488.00 155.60,488.00 161.73,488.00 161.73,488.00 167.87,488.00 167.87,488.00 174.00,488.00 174.00,488.00 180.13,488.00 180.13,488.00 186.27,488.00 186.27,488.00 192.40,488.00 192.40,488.00 198.53,488.00 198.53,488.00 204.67,488.00 204.67,488.00 210.80,488.00 210.80,488.00 216.93,488.00 216.93,488.00 223.07,488.00 223.07,488.00 229.20,488.00 229.20,488.00 235.33,488.00 235.33,488.00 241.47,488.00 241.47,488.00 247.60,488.00 247.60,488.00 253.73,488.00 253.73,488.00 259.87,488.00 259.87,488.00 266.00,488.00 266.00,488.00 272.13,488.00 272.13,488.00 278.27,488.00 278.27,488.00 284.40,488.00 284.40,488.00 290.53,488.00 290.53,488.00 296.67,488.00 296.67,488.00 302.80,488.00 302.80,488.00 308.93,488.00 308.93,488.00 315.07,488.00 315.07,488.00 321.20,488.00 321.20,488.00 327.33,488.00 327.33,488.00 333.47,488.00 333.47,488.00 339.60,488.00 339.60,488.00 345.73,488.00 345.73,488.00 351.87,488.00 351.87,488.00 358.00,488.00 358.00,488.00 364.13,488.00 364.13,488.00 370.27,488.00 370.27,488.00 376.40,488.00 376.40,488.00 382.53,488.00 382.53,488.00 388.67,488.00 388.67,488.00 394.80,488.00 394.80,488.00 400.93,488.00 400.93,488.00 407.07,488.00 407.07,488.00 413.20,488.00 413.20,488.00 419.33,488.00 419.33,488.00 425.47,488.00 425.47,488.00 431.60,488.00 431.60,488.00 437.73,488.00 437.73,488.00 443.87,488.00 443.87,488.00 450.00,488.00 450.00,488.00 456.13,488.00 456.13,488.00 462.27,488.00 462.27,488.00 468.40,488.00 468.40,488.00 474.53,488.00 474.53,488.00 480.67,488.00 480.67,488.00 486.80,488.00 486.80,488.00 492.93,488.00 492.93,488.00 499.07,488.00 499.07,488.00 505.20,488.00 505.20,488.00 511.33,488.00 511.33,488.00 517.47,488.00 517.47,488.00 523.60,488.00 523.60,488.00 529.73,488.00 529.73,488.00 535.87,488.00 535.87,488.00 542.00,488.00 542.00,488.00 548.13,488.00 548.13,488.00 554.27,488.00 554.27,488.00 560.40,488.00 560.40,488.00 566.53,488.00 566.53,488.00 572.67,488.00 572.67,488.00 578.80,488.00 578.80,488.00 584.93,488.00 584.93,488.00 591.07,488.00 591.07,488.00 597.20,488.00 597.20,488.00 603.33,488.00 603.33,415.47 609.47,415.47 609.47,415.47 615.60,415.47 615.60,415.47 621.73,415.47 621.73,415.47 627.87,415.47 627.87,415.47 634.00,415.47 634.00,415.47 640.13,415.47 640.13,415.47 646.27,415.47 646.27,415.47 652.40,415.47 652.40,334.40 658.53,334.40 658.53,261.87 664.67,261.87 664.67,261.87 670.80,261.87 670.80,261.87 676.93,261.87 676.93,261.87 683.07,261.87 683.07,261.87 689.20,261.87 689.20,261.87 695.33,261.87 695.33,261.87 701.47,261.87 701.47,261.87 707.60,261.87 707.60,261.87 713.73,261.87 713.73,261.87 719.87,261.87 719.87,261.87 726.00,261.87 726.00,261.87 732.13,261.87 732.13,112.53 738.27,112.53 738.27,112.53 744.40,112.53 744.40,40.00 750.53,40.00 750.53,40.00 756.67,40.00 756.67,40.00 762.80,40.00 762.80,40.00 768.93,40.00 768.93,40.00 775.07,40.00 775.07,40.00 781.20,40.00 781.20,40.00 787.33,40.00 787.33,40.00 793.47,40.00 793.47,40.00 799.60,40.00 799.60,40.00 805.73,40.00 805.73,40.00 811.87,40.00 811.87,40.00 818.00,40.00 818.00,40.00" fill="none" stroke="#4b8f29" stroke-width="3"/>
<text x="450.0" y="552" text-anchor="middle" font-size="20" font-family="Arial, sans-serif" fill="#111827">Top displacement (mm)</text>
<text x="24" y="280.0" text-anchor="middle" transform="rotate(-90 24 280.0)" font-size="20" font-family="Arial, sans-serif" fill="#111827">Force magnitude (N)</text>
<text x="880" y="280.0" text-anchor="middle" transform="rotate(90 880 280.0)" font-size="20" font-family="Arial, sans-serif" fill="#111827">Broken bonds</text>
<text x="102" y="64" font-size="18" font-family="Arial, sans-serif" fill="#1b6ca8">Top plate</text>
<text x="212" y="64" font-size="18" font-family="Arial, sans-serif" fill="#d1495b">Bottom plate</text>
<text x="352" y="64" font-size="18" font-family="Arial, sans-serif" fill="#4b8f29">Broken bonds</text>
<text x="72" y="45" text-anchor="end" font-size="17" fill="#30363d">6.99</text>
<text x="72" y="488" text-anchor="end" font-size="17" fill="#30363d">0</text>
<text x="828" y="45" text-anchor="start" font-size="17" fill="#30363d">105</text>
<text x="828" y="488" text-anchor="start" font-size="17" fill="#30363d">0</text>
</svg>
