<svg xmlns="http://www.w3.org/2000/svg" width="900" height="560" viewBox="0 0 900 560">
<rect width="100%" height="100%" fill="white"/>
<text x="450.0" y="26" text-anchor="middle" font-size="22" font-family="Arial, sans-serif" fill="#111827">SP-002 force-displacement and bond breakage</text>
<line x1="82" y1="40.00" x2="818" y2="40.00" stroke="#d9dee2" stroke-width="1"/><line x1="82" y1="129.60" x2="818" y2="129.60" stroke="#d9dee2" stroke-width="1"/><line x1="82" y1="219.20" x2="818" y2="219.20" stroke="#d9dee2" stroke-width="1"/><line x1="82" y1="308.80" x2="818" y2="308.80" stroke="#d9dee2" stroke-width="1"/><line x1="82" y1="398.40" x2="818" y2="398.40" stroke="#d9dee2" stroke-width="1"/><line x1="82" y1="488.00" x2="818" y2="488.00" stroke="#d9dee2" stroke-width="1"/><line x1="82.00" y1="40" x2="82.00" y2="488" stroke="#edf0f2" stroke-width="1"/><text x="82.00" y="526" text-anchor="middle" font-size="18" fill="#30363d">0.000</text><line x1="229.20" y1="40" x2="229.20" y2="488" stroke="#edf0f2" stroke-width="1"/><text x="229.20" y="526" text-anchor="middle" font-size="18" fill="#30363d">0.024</text><line x1="376.40" y1="40" x2="376.40" y2="488" stroke="#edf0f2" stroke-width="1"/><text x="376.40" y="526" text-anchor="middle" font-size="18" fill="#30363d">0.048</text><line x1="523.60" y1="40" x2="523.60" y2="488" stroke="#edf0f2" stroke-width="1"/><text x="523.60" y="526" text-anchor="middle" font-size="18" fill="#30363d">0.072</text><line x1="670.80" y1="40" x2="670.80" y2="488" stroke="#edf0f2" stroke-width="1"/><text x="670.80" y="526" text-anchor="middle" font-size="18" fill="#30363d">0.096</text><line x1="818.00" y1="40" x2="818.00" y2="488" stroke="#edf0f2" stroke-width="1"/><text x="818.00" y="526" text-anchor="middle" font-size="18" fill="#30363d">0.120</text>
<line x1="82" y1="40" x2="82" y2="488" stroke="#111827" stroke-width="1.5"/>
<line x1="82" y1="488" x2="818" y2="488" stroke="#111827" stroke-width="1.5"/>
<line x1="818" y1="40" x2="818" y2="488" stroke="#111827" stroke-width="1.5"/>
<polyline points="82.00,488.00 85.07,488.00 88.13,488.00 91.20,488.00 94.27,488.00 97.33,488.00 100.40,488.00 103.47,488.00 106.53,488.00 109.60,488.00 112.67,488.00 115.73,488.00 118.80,488.00 121.87,488.00 124.93,488.00 128.00,488.00 131.07,488.00 134.13,488.00 137.20,488.00 140.27,488.00 143.33,488.00 146.40,488.00 149.47,488.00 152.53,488.00 155.60,488.00 158.67,488.00 161.73,488.00 164.80,488.00 167.87,488.00 170.93,488.00 174.00,488.00 177.07,488.00 180.13,488.00 183.20,488.00 186.27,488.00 189.33,488.00 192.40,488.00 195.47,488.00 198.53,488.00 201.60,488.00 204.67,488.00 207.73,488.00 210.80,488.00 213.87,488.00 216.93,488.00 220.00,488.00 223.07,488.00 226.13,488.00 229.20,488.00 232.27,488.00 235.33,488.00 238.40,488.00 241.47,488.00 244.53,488.00 247.60,488.00 250.67,488.00 253.73,488.00 256.80,488.00 259.87,488.00 262.93,488.00 266.00,488.00 269.07,488.00 272.13,488.00 275.20,488.00 278.27,488.00 281.33,488.00 284.40,488.00 287.47,488.00 290.53,488.00 293.60,488.00 296.67,488.00 299.73,488.00 302.80,488.00 305.87,488.00 308.93,488.00 312.00,488.00 315.07,488.00 318.13,488.00 321.20,488.00 324.27,488.00 327.33,488.00 330.40,488.00 333.47,488.00 336.53,488.00 339.60,488.00 342.67,488.00 345.73,488.00 348.80,488.00 351.87,488.00 354.93,488.00 358.00,488.00 361.07,488.00 364.13,488.00 367.20,488.00 370.27,488.00 373.33,488.00 376.40,488.00 379.47,488.00 382.53,488.00 385.60,488.00 388.67,488.00 391.73,488.00 394.80,488.00 397.87,488.00 400.93,488.00 404.00,488.00 407.07,488.00 410.13,488.00 413.20,488.00 416.27,488.00 419.33,488.00 422.40,488.00 425.47,488.00 428.53,488.00 431.60,488.00 434.67,488.00 437.73,488.00 440.80,488.00 443.87,488.00 446.93,488.00 450.00,488.00 453.07,488.00 456.13,488.00 459.20,488.00 462.27,488.00 465.33,488.00 468.40,488.00 471.47,488.00 474.53,488.00 477.60,488.00 480.67,488.00 483.73,488.00 486.80,488.00 489.87,488.00 492.93,488.00 496.00,488.00 499.07,488.00 502.13,488.00 505.20,488.00 508.27,488.00 511.33,488.00 514.40,488.00 517.47,488.00 520.53,488.00 523.60,488.00 526.67,488.00 529.73,488.00 532.80,488.00 535.87,488.00 538.93,488.00 542.00,488.00 545.07,488.00 548.13,488.00 551.20,488.00 554.27,488.00 557.33,488.00 560.40,488.00 563.47,488.00 566.53,488.00 569.60,488.00 572.67,488.00 575.73,488.00 578.80,488.00 581.87,488.00 584.93,488.00 588.00,488.00 591.07,488.00 594.13,488.00 597.20,488.00 600.27,488.00 603.33,488.00 606.40,488.00 609.47,488.00 612.53,488.00 615.60,488.00 618.67,488.00 621.73,488.00 624.80,488.00 627.87,488.00 630.93,488.00 634.00,488.00 637.07,488.00 640.13,488.00 643.20,488.00 646.27,488.00 649.33,488.00 652.40,488.00 655.47,488.00 658.53,488.00 661.60,488.00 664.67,488.00 667.73,488.00 670.80,488.00 673.87,488.00 676.93,488.00 680.00,488.00 683.07,488.00 686.13,488.00 689.20,488.00 692.27,488.00 695.33,487.98 698.40,475.16 701.47,454.12 704.53,428.62 707.60,399.86 710.67,368.48 713.73,334.92 716.80,299.49 719.87,262.40 722.93,223.85 726.00,185.32 729.07,250.90 732.13,279.41 735.20,275.13 738.27,256.91 741.33,232.75 744.40,205.81 747.47,177.33 750.53,487.80 753.60,477.55 756.67,444.55 759.73,414.38 762.80,388.11 765.87,362.28 768.93,332.00 772.00,300.68 775.07,268.07 778.13,233.87 781.20,198.05 784.27,160.65 787.33,121.78 790.40,81.54 793.47,40.00 796.53,291.04 799.60,215.71 802.67,486.79 805.73,487.36 808.80,476.32 811.87,463.20 814.93,451.11 818.00,440.03" fill="none" stroke="#1b6ca8" stroke-width="3"/>
<polyline points="82.00,488.00 85.07,488.00 88.13,488.00 91.20,488.00 94.27,488.00 97.33,488.00 100.40,488.00 103.47,488.00 106.53,488.00 109.60,488.00 112.67,488.00 115.73,488.00 118.80,488.00 121.87,488.00 124.93,488.00 128.00,488.00 131.07,488.00 134.13,488.00 137.20,488.00 140.27,488.00 143.33,488.00 146.40,488.00 149.47,488.00 152.53,488.00 155.60,488.00 158.67,488.00 161.73,488.00 164.80,488.00 167.87,488.00 170.93,488.00 174.00,488.00 177.07,488.00 180.13,488.00 183.20,488.00 186.27,488.00 189.33,488.00 192.40,488.00 195.47,488.00 198.53,488.00 201.60,488.00 204.67,488.00 207.73,488.00 210.80,488.00 213.87,488.00 216.93,488.00 220.00,488.00 223.07,488.00 226.13,488.00 229.20,488.00 232.27,488.00 235.33,488.00 238.40,488.00 241.47,488.00 244.53,488.00 247.60,488.00 250.67,488.00 253.73,488.00 256.80,488.00 259.87,488.00 262.93,488.00 266.00,488.00 269.07,488.00 272.13,488.00 275.20,488.00 278.27,488.00 281.33,488.00 284.40,488.00 287.47,488.00 290.53,488.00 293.60,488.00 296.67,488.00 299.73,488.00 302.80,488.00 305.87,488.00 308.93,488.00 312.00,488.00 315.07,488.00 318.13,488.00 321.20,488.00 324.27,488.00 327.33,488.00 330.40,488.00 333.47,488.00 336.53,488.00 339.60,488.00 342.67,488.00 345.73,488.00 348.80,488.00 351.87,488.00 354.93,488.00 358.00,488.00 361.07,488.00 364.13,488.00 367.20,488.00 370.27,488.00 373.33,488.00 376.40,488.00 379.47,488.00 382.53,488.00 385.60,488.00 388.67,488.00 391.73,488.00 394.80,488.00 397.87,488.00 400.93,488.00 404.00,488.00 407.07,488.00 410.13,488.00 413.20,488.00 416.27,488.00 419.33,488.00 422.40,488.00 425.47,488.00 428.53,488.00 431.60,488.00 434.67,488.00 437.73,488.00 440.80,488.00 443.87,488.00 446.93,488.00 450.00,488.00 453.07,488.00 456.13,488.00 459.20,488.00 462.27,488.00 465.33,488.00 468.40,488.00 471.47,488.00 474.53,488.00 477.60,488.00 480.67,488.00 483.73,488.00 486.80,488.00 489.87,488.00 492.93,488.00 496.00,488.00 499.07,488.00 502.13,488.00 505.20,488.00 508.27,488.00 511.33,488.00 514.40,488.00 517.47,488.00 520.53,488.00 523.60,488.00 526.67,488.00 529.73,488.00 532.80,488.00 535.87,488.00 538.93,488.00 542.00,488.00 545.07,488.00 548.13,488.00 551.20,488.00 554.27,488.00 557.33,488.00 560.40,488.00 563.47,488.00 566.53,488.00 569.60,488.00 572.67,488.00 575.73,488.00 578.80,488.00 581.87,488.00 584.93,488.00 588.00,488.00 591.07,488.00 594.13,488.00 597.20,488.00 600.27,488.00 603.33,488.00 606.40,488.00 609.47,488.00 612.53,488.00 615.60,488.00 618.67,488.00 621.73,488.00 624.80,488.00 627.87,488.00 630.93,488.00 634.00,488.00 637.07,488.00 640.13,488.00 643.20,488.00 646.27,488.00 649.33,488.00 652.40,488.00 655.47,488.00 658.53,488.00 661.60,488.00 664.67,488.00 667.73,488.00 670.80,488.00 673.87,488.00 676.93,488.00 680.00,488.00 683.07,488.00 686.13,488.00 689.20,488.00 692.27,488.00 695.33,488.00 698.40,480.45 701.47,462.02 704.53,438.08 707.60,410.46 710.67,380.01 713.73,347.22 716.80,312.46 719.87,275.96 722.93,237.93 726.00,219.28 729.07,463.37 732.13,396.98 735.20,344.92 738.27,307.32 741.33,275.73 744.40,246.01 747.47,216.47 750.53,349.61 753.60,409.87 756.67,429.60 759.73,429.22 762.80,418.28 765.87,400.88 768.93,377.53 772.00,349.37 775.07,317.94 778.13,284.15 781.20,248.44 784.27,211.08 787.33,172.21 790.40,131.96 793.47,90.41 796.53,141.01 799.60,198.20 802.67,203.23 805.73,350.50 808.80,409.16 811.87,433.54 814.93,443.20 818.00,445.60" fill="none" stroke="#d1495b" stroke-width="3"/>
<polyline points="82.00,488.00 85.07,488.00 85.07,488.00 88.13,488.00 88.13,488.00 91.20,488.00 91.20,488.00 94.27,488.00 94.27,488.00 97.33,488.00 97.33,488.00 100.40,488.00 100.40,488.00 103.47,488.00 103.47,488.00 106.53,488.00 106.53,488.00 109.60,488.00 109.60,488.00 112.67,488.00 112.67,488.00 115.73,488.00 115.73,488.00 118.80,488.00 118.80,488.00 121.87,488.00 121.87,488.00 124.93,488.00 124.93,488.00 128.00,488.00 128.00,488.00 131.07,488.00 131.07,488.00 134.13,488.00 134.13,488.00 137.20,488.00 137.20,488.00 140.27,488.00 140.27,488.00 143.33,488.00 143.33,488.00 146.40,488.00 146.40,488.00 149.47,488.00 149.47,488.00 152.53,488.00 152.53,488.00 155.60,488.00 155.60,488.00 158.67,488.00 158.67,488.00 161.73,488.00 161.73,488.00 164.80,488.00 164.80,488.00 167.87,488.00 167.87,488.00 170.93,488.00 170.93,488.00 174.00,488.00 174.00,488.00 177.07,488.00 177.07,488.00 180.13,488.00 180.13,488.00 183.20,488.00 183.20,488.00 186.27,488.00 186.27,488.00 189.33,488.00 189.33,488.00 192.40,488.00 192.40,488.00 195.47,488.00 195.47,488.00 198.53,488.00 198.53,488.00 201.60,488.00 201.60,488.00 204.67,488.00 204.67,488.00 207.73,488.00 207.73,488.00 210.80,488.00 210.80,488.00 213.87,488.00 213.87,488.00 216.93,488.00 216.93,488.00 220.00,488.00 220.00,488.00 223.07,488.00 223.07,488.00 226.13,488.00 226.13,488.00 229.20,488.00 229.20,488.00 232.27,488.00 232.27,488.00 235.33,488.00 235.33,488.00 238.40,488.00 238.40,488.00 241.47,488.00 241.47,488.00 244.53,488.00 244.53,488.00 247.60,488.00 247.60,488.00 250.67,488.00 250.67,488.00 253.73,488.00 253.73,488.00 256.80,488.00 256.80,488.00 259.87,488.00 259.87,488.00 262.93,488.00 262.93,488.00 266.00,488.00 266.00,488.00 269.07,488.00 269.07,488.00 272.13,488.00 272.13,488.00 275.20,488.00 275.20,488.00 278.27,488.00 278.27,488.00 281.33,488.00 281.33,488.00 284.40,488.00 284.40,488.00 287.47,488.00 287.47,488.00 290.53,488.00 290.53,488.00 293.60,488.00 293.60,488.00 296.67,488.00 296.67,488.00 299.73,488.00 299.73,488.00 302.80,488.00 302.80,488.00 305.87,488.00 305.87,488.00 308.93,488.00 308.93,488.00 312.00,488.00 312.00,488.00 315.07,488.00 315.07,488.00 318.13,488.00 318.13,488.00 321.20,488.00 321.20,488.00 324.27,488.00 324.27,488.00 327.33,488.00 327.33,488.00 330.40,488.00 330.40,488.00 333.47,488.00 333.47,488.00 336.53,488.00 336.53,488.00 339.60,488.00 339.60,488.00 342.67,488.00 342.67,488.00 345.73,488.00 345.73,488.00 348.80,488.00 348.80,488.00 351.87,488.00 351.87,488.00 354.93,488.00 354.93,488.00 358.00,488.00 358.00,488.00 361.07,488.00 361.07,488.00 364.13,488.00 364.13,488.00 367.20,488.00 367.20,488.00 370.27,488.00 370.27,488.00 373.33,488.00 373.33,488.00 376.40,488.00 376.40,488.00 379.47,488.00 379.47,488.00 382.53,488.00 382.53,488.00 385.60,488.00 385.60,488.00 388.67,488.00 388.67,488.00 391.73,488.00 391.73,488.00 394.80,488.00 394.80,488.00 397.87,488.00 397.87,488.00 400.93,488.00 400.93,488.00 404.00,488.00 404.00,488.00 407.07,488.00 407.07,488.00 410.13,488.00 410.13,488.00 413.20,488.00 413.20,488.00 416.27,488.00 416.27,488.00 419.33,488.00 419.33,488.00 422.40,488.00 422.40,488.00 425.47,488.00 425.47,488.00 428.53,488.00 428.53,488.00 431.60,488.00 431.60,488.00 434.67,488.00 434.67,488.00 437.73,488.00 437.73,488.00 440.80,488.00 440.80,488.00 443.87,488.00 443.87,488.00 446.93,488.00 446.93,488.00 450.00,488.00 450.00,488.00 453.07,488.00 453.07,488.00 456.13,488.00 456.13,488.00 459.20,488.00 459.20,488.00 462.27,488.00 462.27,488.00 465.33,488.00 465.33,488.00 468.40,488.00 468.40,488.00 471.47,488.00 471.47,488.00 474.53,488.00 474.53,488.00 477.60,488.00 477.60,488.00 480.67,488.00 480.67,488.00 483.73,488.00 483.73,488.00 486.80,488.00 486.80,488.00 489.87,488.00 489.87,488.00 492.93,488.00 492.93,488.00 496.00,488.00 496.00,488.00 499.07,488.00 499.07,488.00 502.13,488.00 502.13,488.00 505.20,488.00 505.20,488.00 508.27,488.00 508.27,488.00 511.33,488.00 511.33,488.00 514.40,488.00 514.40,488.00 517.47,488.00 517.47,488.00 520.53,488.00 520.53,488.00 523.60,488.00 523.60,488.00 526.67,488.00 526.67,488.00 529.73,488.00 529.73,488.00 532.80,488.00 532.80,488.00 535.87,488.00 535.87,488.00 538.93,488.00 538.93,488.00 542.00,488.00 542.00,488.00 545.07,488.00 545.07,488.00 548.13,488.00 548.13,488.00 551.20,488.00 551.20,488.00 554.27,488.00 554.27,488.00 557.33,488.00 557.33,488.00 560.40,488.00 560.40,488.00 563.47,488.00 563.47,488.00 566.53,488.00 566.53,488.00 569.60,488.00 569.60,488.00 572.67,488.00 572.67,488.00 575.73,488.00 575.73,488.00 578.80,488.00 578.80,488.00 581.87,488.00 581.87,488.00 584.93,488.00 584.93,488.00 588.00,488.00 588.00,488.00 591.07,488.00 591.07,488.00 594.13,488.00 594.13,488.00 597.20,488.00 597.20,488.00 600.27,488.00 600.27,488.00 603.33,488.00 603.33,488.00 606.40,488.00 606.40,488.00 609.47,488.00 609.47,488.00 612.53,488.00 612.53,488.00 615.60,488.00 615.60,488.00 618.67,488.00 618.67,488.00 621.73,488.00 621.73,488.00 624.80,488.00 624.80,488.00 627.87,488.00 627.87,488.00 630.93,488.00 630.93,488.00 634.00,488.00 634.00,488.00 637.07,488.00 637.07,488.00 640.13,488.00 640.13,488.00 643.20,488.00 643.20,488.00 646.27,488.00 646.27,488.00 649.33,488.00 649.33,488.00 652.40,488.00 652.40,488.00 655.47,488.00 655.47,488.00 658.53,488.00 658.53,488.00 661.60,488.00 661.60,488.00 664.67,488.00 664.67,488.00 667.73,488.00 667.73,488.00 670.80,488.00 670.80,488.00 673.87,488.00 673.87,488.00 676.93,488.00 676.93,488.00 680.00,488.00 680.00,488.00 683.07,488.00 683.07,488.00 686.13,488.00 686.13,488.00 689.20,488.00 689.20,488.00 692.27,488.00 692.27,488.00 695.33,488.00 695.33,488.00 698.40,488.00 698.40,488.00 701.47,488.00 701.47,488.00 704.53,488.00 704.53,488.00 707.60,488.00 707.60,488.00 710.67,488.00 710.67,488.00 713.73,488.00 713.73,488.00 716.80,488.00 716.80,488.00 719.87,488.00 719.87,488.00 722.93,488.00 722.93,488.00 726.00,488.00 726.00,488.00 729.07,488.00 729.07,488.00 732.13,488.00 732.13,488.00 735.20,488.00 735.20,488.00 738.27,488.00 738.27,488.00 741.33,488.00 741.33,488.00 744.40,488.00 744.40,488.00 747.47,488.00 747.47,488.00 750.53,488.00 750.53,344.30 753.60,344.30 753.60,344.30 756.67,344.30 756.67,344.30 759.73,344.30 759.73,344.30 762.80,344.30 762.80,344.30 765.87,344.30 765.87,344.30 768.93,344.30 768.93,344.30 772.00,344.30 772.00,344.30 775.07,344.30 775.07,344.30 778.13,344.30 778.13,344.30 781.20,344.30 781.20,344.30 784.27,344.30 784.27,344.30 787.33,344.30 787.33,344.30 790.40,344.30 790.40,344.30 793.47,344.30 793.47,344.30 796.53,344.30 796.53,183.70 799.60,183.70 799.60,183.70 802.67,183.70 802.67,40.00 805.73,40.00 805.73,40.00 808.80,40.00 808.80,40.00 811.87,40.00 811.87,40.00 814.93,40.00 814.93,40.00 818.00,40.00 818.00,40.00" fill="none" stroke="#4b8f29" stroke-width="3"/>
<text x="450.0" y="552" text-anchor="middle" font-size="20" font-family="Arial, sans-serif" fill="#111827">Top displacement (mm)</text>
<text x="24" y="280.0" text-anchor="middle" transform="rotate(-90 24 280.0)" font-size="20" font-family="Arial, sans-serif" fill="#111827">Force magnitude (N)</text>
<text x="880" y="280.0" text-anchor="middle" transform="rotate(90 880 280.0)" font-size="20" font-family="Arial, sans-serif" fill="#111827">Broken bonds</text>
<text x="102" y="64" font-size="18" font-family="Arial, sans-serif" fill="#1b6ca8">Top plate</text>
<text x="212" y="64" font-size="18" font-family="Arial, sans-serif" fill="#d1495b">Bottom plate</text>
<text x="352" y="64" font-size="18" font-family="Arial, sans-serif" fill="#4b8f29">Broken bonds</text>
<text x="72" y="45" text-anchor="end" font-size="17" fill="#30363d">4.53</text>
<text x="72" y="488" text-anchor="end" font-size="17" fill="#30363d">0</text>
<text x="828" y="45" text-anchor="start" font-size="17" fill="#30363d">53</text>
<text x="828" y="488" text-anchor="start" font-size="17" fill="#30363d">0</text>
</svg>
