<svg xmlns="http://www.w3.org/2000/svg" width="900" height="560" viewBox="0 0 900 560">
<rect width="100%" height="100%" fill="white"/>
<text x="450.0" y="26" text-anchor="middle" font-size="22" font-family="Arial, sans-serif" fill="#111827">SP-002 force-displacement and bond breakage</text>
<line x1="82" y1="40.00" x2="818" y2="40.00" stroke="#d9dee2" stroke-width="1"/><line x1="82" y1="129.60" x2="818" y2="129.60" stroke="#d9dee2" stroke-width="1"/><line x1="82" y1="219.20" x2="818" y2="219.20" stroke="#d9dee2" stroke-width="1"/><line x1="82" y1="308.80" x2="818" y2="308.80" stroke="#d9dee2" stroke-width="1"/><line x1="82" y1="398.40" x2="818" y2="398.40" stroke="#d9dee2" stroke-width="1"/><line x1="82" y1="488.00" x2="818" y2="488.00" stroke="#d9dee2" stroke-width="1"/><line x1="82.00" y1="40" x2="82.00" y2="488" stroke="#edf0f2" stroke-width="1"/><text x="82.00" y="526" text-anchor="middle" font-size="18" fill="#30363d">0.000</text><line x1="229.20" y1="40" x2="229.20" y2="488" stroke="#edf0f2" stroke-width="1"/><text x="229.20" y="526" text-anchor="middle" font-size="18" fill="#30363d">0.030</text><line x1="376.40" y1="40" x2="376.40" y2="488" stroke="#edf0f2" stroke-width="1"/><text x="376.40" y="526" text-anchor="middle" font-size="18" fill="#30363d">0.060</text><line x1="523.60" y1="40" x2="523.60" y2="488" stroke="#edf0f2" stroke-width="1"/><text x="523.60" y="526" text-anchor="middle" font-size="18" fill="#30363d">0.090</text><line x1="670.80" y1="40" x2="670.80" y2="488" stroke="#edf0f2" stroke-width="1"/><text x="670.80" y="526" text-anchor="middle" font-size="18" fill="#30363d">0.120</text><line x1="818.00" y1="40" x2="818.00" y2="488" stroke="#edf0f2" stroke-width="1"/><text x="818.00" y="526" text-anchor="middle" font-size="18" fill="#30363d">0.150</text>
<line x1="82" y1="40" x2="82" y2="488" stroke="#111827" stroke-width="1.5"/>
<line x1="82" y1="488" x2="818" y2="488" stroke="#111827" stroke-width="1.5"/>
<line x1="818" y1="40" x2="818" y2="488" stroke="#111827" stroke-width="1.5"/>
<polyline points="82.00,488.00 84.45,488.00 86.91,488.00 89.36,488.00 91.81,488.00 94.27,488.00 96.72,488.00 99.17,488.00 101.63,488.00 104.08,488.00 106.53,488.00 108.99,488.00 111.44,488.00 113.89,488.00 116.35,488.00 118.80,488.00 121.25,488.00 123.71,488.00 126.16,488.00 128.61,488.00 131.07,488.00 133.52,488.00 135.97,488.00 138.43,488.00 140.88,488.00 143.33,488.00 145.79,488.00 148.24,488.00 150.69,488.00 153.15,488.00 155.60,488.00 158.05,488.00 160.51,488.00 162.96,488.00 165.41,488.00 167.87,488.00 170.32,488.00 172.77,488.00 175.23,488.00 177.68,488.00 180.13,488.00 182.59,488.00 185.04,488.00 187.49,488.00 189.95,488.00 192.40,488.00 194.85,488.00 197.31,488.00 199.76,488.00 202.21,488.00 204.67,488.00 207.12,488.00 209.57,488.00 212.03,488.00 214.48,488.00 216.93,488.00 219.39,488.00 221.84,488.00 224.29,488.00 226.75,488.00 229.20,488.00 231.65,488.00 234.11,488.00 236.56,488.00 239.01,488.00 241.47,488.00 243.92,488.00 246.37,488.00 248.83,488.00 251.28,488.00 253.73,488.00 256.19,488.00 258.64,488.00 261.09,488.00 263.55,488.00 266.00,488.00 268.45,488.00 270.91,488.00 273.36,488.00 275.81,488.00 278.27,488.00 280.72,488.00 283.17,488.00 285.63,488.00 288.08,488.00 290.53,488.00 292.99,488.00 295.44,488.00 297.89,488.00 300.35,488.00 302.80,488.00 305.25,488.00 307.71,488.00 310.16,488.00 312.61,488.00 315.07,488.00 317.52,488.00 319.97,488.00 322.43,488.00 324.88,488.00 327.33,488.00 329.79,488.00 332.24,488.00 334.69,488.00 337.15,488.00 339.60,488.00 342.05,488.00 344.51,488.00 346.96,488.00 349.41,488.00 351.87,488.00 354.32,488.00 356.77,488.00 359.23,488.00 361.68,488.00 364.13,488.00 366.59,488.00 369.04,488.00 371.49,488.00 373.95,488.00 376.40,488.00 378.85,488.00 381.31,488.00 383.76,488.00 386.21,488.00 388.67,488.00 391.12,488.00 393.57,488.00 396.03,488.00 398.48,488.00 400.93,488.00 403.39,488.00 405.84,488.00 408.29,488.00 410.75,488.00 413.20,488.00 415.65,488.00 418.11,488.00 420.56,488.00 423.01,488.00 425.47,488.00 427.92,488.00 430.37,488.00 432.83,488.00 435.28,488.00 437.73,488.00 440.19,488.00 442.64,488.00 445.09,488.00 447.55,488.00 450.00,488.00 452.45,488.00 454.91,488.00 457.36,488.00 459.81,488.00 462.27,488.00 464.72,488.00 467.17,488.00 469.63,488.00 472.08,488.00 474.53,488.00 476.99,488.00 479.44,488.00 481.89,488.00 484.35,488.00 486.80,488.00 489.25,488.00 491.71,488.00 494.16,488.00 496.61,488.00 499.07,488.00 501.52,488.00 503.97,488.00 506.43,488.00 508.88,488.00 511.33,488.00 513.79,488.00 516.24,488.00 518.69,488.00 521.15,488.00 523.60,488.00 526.05,488.00 528.51,488.00 530.96,488.00 533.41,488.00 535.87,488.00 538.32,488.00 540.77,488.00 543.23,488.00 545.68,488.00 548.13,488.00 550.59,488.00 553.04,488.00 555.49,488.00 557.95,488.00 560.40,488.00 562.85,488.00 565.31,488.00 567.76,488.00 570.21,488.00 572.67,487.99 575.12,478.98 577.57,464.21 580.03,446.30 582.48,426.10 584.93,404.06 587.39,380.50 589.84,355.61 592.29,329.57 594.75,302.49 597.20,275.43 599.65,321.49 602.11,341.51 604.56,338.50 607.01,325.71 609.47,308.74 611.92,289.82 614.37,269.82 616.83,487.86 619.28,480.66 621.73,457.49 624.19,436.30 626.64,417.85 629.09,399.71 631.55,378.45 634.00,356.45 636.45,333.54 638.91,309.53 641.36,284.37 643.81,258.11 646.27,230.81 648.72,202.55 651.17,173.38 653.63,349.68 656.08,296.77 658.53,487.15 660.99,487.55 663.44,479.80 665.89,470.59 668.35,462.09 670.80,454.31 673.25,444.20 675.71,433.58 678.16,422.95 680.61,412.28 683.07,401.34 685.52,390.34 687.97,379.17 690.43,367.86 692.88,356.47 695.33,345.08 697.79,333.69 700.24,321.74 702.69,307.42 705.15,292.64 707.60,277.54 710.05,262.17 712.51,246.52 714.96,230.63 717.41,214.53 719.87,198.23 722.32,181.74 724.77,164.26 727.23,145.60 729.68,126.11 732.13,105.96 734.59,84.91 737.04,62.94 739.49,40.00 741.95,69.83 744.40,184.83 746.85,205.45 749.31,306.37 751.76,342.51 754.21,358.94 756.67,367.51 759.12,371.40 761.57,372.45 764.03,371.77 766.48,370.06 768.93,366.35 771.39,361.08 773.84,355.53 776.29,349.93 778.75,344.34 781.20,338.81 783.65,333.43 786.11,328.22 788.56,323.19 791.01,318.35 793.47,313.51 795.92,308.36 798.37,303.00 800.83,297.62 803.28,292.35 805.73,287.32 808.19,282.60 810.64,277.65 813.09,271.10 815.55,264.85 818.00,258.80" fill="none" stroke="#1b6ca8" stroke-width="3"/>
<polyline points="82.00,488.00 84.45,488.00 86.91,488.00 89.36,488.00 91.81,488.00 94.27,488.00 96.72,488.00 99.17,488.00 101.63,488.00 104.08,488.00 106.53,488.00 108.99,488.00 111.44,488.00 113.89,488.00 116.35,488.00 118.80,488.00 121.25,488.00 123.71,488.00 126.16,488.00 128.61,488.00 131.07,488.00 133.52,488.00 135.97,488.00 138.43,488.00 140.88,488.00 143.33,488.00 145.79,488.00 148.24,488.00 150.69,488.00 153.15,488.00 155.60,488.00 158.05,488.00 160.51,488.00 162.96,488.00 165.41,488.00 167.87,488.00 170.32,488.00 172.77,488.00 175.23,488.00 177.68,488.00 180.13,488.00 182.59,488.00 185.04,488.00 187.49,488.00 189.95,488.00 192.40,488.00 194.85,488.00 197.31,488.00 199.76,488.00 202.21,488.00 204.67,488.00 207.12,488.00 209.57,488.00 212.03,488.00 214.48,488.00 216.93,488.00 219.39,488.00 221.84,488.00 224.29,488.00 226.75,488.00 229.20,488.00 231.65,488.00 234.11,488.00 236.56,488.00 239.01,488.00 241.47,488.00 243.92,488.00 246.37,488.00 248.83,488.00 251.28,488.00 253.73,488.00 256.19,488.00 258.64,488.00 261.09,488.00 263.55,488.00 266.00,488.00 268.45,488.00 270.91,488.00 273.36,488.00 275.81,488.00 278.27,488.00 280.72,488.00 283.17,488.00 285.63,488.00 288.08,488.00 290.53,488.00 292.99,488.00 295.44,488.00 297.89,488.00 300.35,488.00 302.80,488.00 305.25,488.00 307.71,488.00 310.16,488.00 312.61,488.00 315.07,488.00 317.52,488.00 319.97,488.00 322.43,488.00 324.88,488.00 327.33,488.00 329.79,488.00 332.24,488.00 334.69,488.00 337.15,488.00 339.60,488.00 342.05,488.00 344.51,488.00 346.96,488.00 349.41,488.00 351.87,488.00 354.32,488.00 356.77,488.00 359.23,488.00 361.68,488.00 364.13,488.00 366.59,488.00 369.04,488.00 371.49,488.00 373.95,488.00 376.40,488.00 378.85,488.00 381.31,488.00 383.76,488.00 386.21,488.00 388.67,488.00 391.12,488.00 393.57,488.00 396.03,488.00 398.48,488.00 400.93,488.00 403.39,488.00 405.84,488.00 408.29,488.00 410.75,488.00 413.20,488.00 415.65,488.00 418.11,488.00 420.56,488.00 423.01,488.00 425.47,488.00 427.92,488.00 430.37,488.00 432.83,488.00 435.28,488.00 437.73,488.00 440.19,488.00 442.64,488.00 445.09,488.00 447.55,488.00 450.00,488.00 452.45,488.00 454.91,488.00 457.36,488.00 459.81,488.00 462.27,488.00 464.72,488.00 467.17,488.00 469.63,488.00 472.08,488.00 474.53,488.00 476.99,488.00 479.44,488.00 481.89,488.00 484.35,488.00 486.80,488.00 489.25,488.00 491.71,488.00 494.16,488.00 496.61,488.00 499.07,488.00 501.52,488.00 503.97,488.00 506.43,488.00 508.88,488.00 511.33,488.00 513.79,488.00 516.24,488.00 518.69,488.00 521.15,488.00 523.60,488.00 526.05,488.00 528.51,488.00 530.96,488.00 533.41,488.00 535.87,488.00 538.32,488.00 540.77,488.00 543.23,488.00 545.68,488.00 548.13,488.00 550.59,488.00 553.04,488.00 555.49,488.00 557.95,488.00 560.40,488.00 562.85,488.00 565.31,488.00 567.76,488.00 570.21,488.00 572.67,488.00 575.12,482.70 577.57,469.75 580.03,452.94 582.48,433.54 584.93,412.16 587.39,389.13 589.84,364.72 592.29,339.09 594.75,312.38 597.20,299.28 599.65,470.70 602.11,424.08 604.56,387.52 607.01,361.11 609.47,338.93 611.92,318.05 614.37,297.31 616.83,390.81 619.28,433.13 621.73,446.98 624.19,446.72 626.64,439.04 629.09,426.82 631.55,410.42 634.00,390.64 636.45,368.57 638.91,344.84 641.36,319.76 643.81,293.52 646.27,266.23 648.72,237.96 651.17,208.78 653.63,244.31 656.08,284.47 658.53,288.01 660.99,391.44 663.44,432.63 665.89,449.75 668.35,456.54 670.80,458.22 673.25,456.40 675.71,451.51 678.16,444.31 680.61,435.51 683.07,425.61 685.52,415.04 687.97,404.09 690.43,392.92 692.88,381.64 695.33,370.33 697.79,359.03 700.24,347.76 702.69,335.34 705.15,321.70 707.60,307.26 710.05,292.27 712.51,276.87 714.96,261.14 717.41,245.15 719.87,228.94 722.32,212.17 724.77,193.23 727.23,173.74 729.68,153.76 732.13,133.28 734.59,112.06 737.04,89.99 739.49,66.99 741.95,402.20 744.40,312.07 746.85,486.93 749.31,478.22 751.76,465.19 754.21,454.25 756.67,445.49 759.12,438.44 761.57,432.64 764.03,427.72 766.48,423.42 768.93,419.48 771.39,415.43 773.84,411.18 776.29,406.74 778.75,402.17 781.20,397.54 783.65,392.92 786.11,388.36 788.56,383.90 791.01,379.47 793.47,374.25 795.92,368.40 798.37,362.61 800.83,357.04 803.28,351.78 805.73,346.87 808.19,342.37 810.64,338.27 813.09,334.00 815.55,329.47 818.00,323.33" fill="none" stroke="#d1495b" stroke-width="3"/>
<polyline points="82.00,488.00 84.45,488.00 84.45,488.00 86.91,488.00 86.91,488.00 89.36,488.00 89.36,488.00 91.81,488.00 91.81,488.00 94.27,488.00 94.27,488.00 96.72,488.00 96.72,488.00 99.17,488.00 99.17,488.00 101.63,488.00 101.63,488.00 104.08,488.00 104.08,488.00 106.53,488.00 106.53,488.00 108.99,488.00 108.99,488.00 111.44,488.00 111.44,488.00 113.89,488.00 113.89,488.00 116.35,488.00 116.35,488.00 118.80,488.00 118.80,488.00 121.25,488.00 121.25,488.00 123.71,488.00 123.71,488.00 126.16,488.00 126.16,488.00 128.61,488.00 128.61,488.00 131.07,488.00 131.07,488.00 133.52,488.00 133.52,488.00 135.97,488.00 135.97,488.00 138.43,488.00 138.43,488.00 140.88,488.00 140.88,488.00 143.33,488.00 143.33,488.00 145.79,488.00 145.79,488.00 148.24,488.00 148.24,488.00 150.69,488.00 150.69,488.00 153.15,488.00 153.15,488.00 155.60,488.00 155.60,488.00 158.05,488.00 158.05,488.00 160.51,488.00 160.51,488.00 162.96,488.00 162.96,488.00 165.41,488.00 165.41,488.00 167.87,488.00 167.87,488.00 170.32,488.00 170.32,488.00 172.77,488.00 172.77,488.00 175.23,488.00 175.23,488.00 177.68,488.00 177.68,488.00 180.13,488.00 180.13,488.00 182.59,488.00 182.59,488.00 185.04,488.00 185.04,488.00 187.49,488.00 187.49,488.00 189.95,488.00 189.95,488.00 192.40,488.00 192.40,488.00 194.85,488.00 194.85,488.00 197.31,488.00 197.31,488.00 199.76,488.00 199.76,488.00 202.21,488.00 202.21,488.00 204.67,488.00 204.67,488.00 207.12,488.00 207.12,488.00 209.57,488.00 209.57,488.00 212.03,488.00 212.03,488.00 214.48,488.00 214.48,488.00 216.93,488.00 216.93,488.00 219.39,488.00 219.39,488.00 221.84,488.00 221.84,488.00 224.29,488.00 224.29,488.00 226.75,488.00 226.75,488.00 229.20,488.00 229.20,488.00 231.65,488.00 231.65,488.00 234.11,488.00 234.11,488.00 236.56,488.00 236.56,488.00 239.01,488.00 239.01,488.00 241.47,488.00 241.47,488.00 243.92,488.00 243.92,488.00 246.37,488.00 246.37,488.00 248.83,488.00 248.83,488.00 251.28,488.00 251.28,488.00 253.73,488.00 253.73,488.00 256.19,488.00 256.19,488.00 258.64,488.00 258.64,488.00 261.09,488.00 261.09,488.00 263.55,488.00 263.55,488.00 266.00,488.00 266.00,488.00 268.45,488.00 268.45,488.00 270.91,488.00 270.91,488.00 273.36,488.00 273.36,488.00 275.81,488.00 275.81,488.00 278.27,488.00 278.27,488.00 280.72,488.00 280.72,488.00 283.17,488.00 283.17,488.00 285.63,488.00 285.63,488.00 288.08,488.00 288.08,488.00 290.53,488.00 290.53,488.00 292.99,488.00 292.99,488.00 295.44,488.00 295.44,488.00 297.89,488.00 297.89,488.00 300.35,488.00 300.35,488.00 302.80,488.00 302.80,488.00 305.25,488.00 305.25,488.00 307.71,488.00 307.71,488.00 310.16,488.00 310.16,488.00 312.61,488.00 312.61,488.00 315.07,488.00 315.07,488.00 317.52,488.00 317.52,488.00 319.97,488.00 319.97,488.00 322.43,488.00 322.43,488.00 324.88,488.00 324.88,488.00 327.33,488.00 327.33,488.00 329.79,488.00 329.79,488.00 332.24,488.00 332.24,488.00 334.69,488.00 334.69,488.00 337.15,488.00 337.15,488.00 339.60,488.00 339.60,488.00 342.05,488.00 342.05,488.00 344.51,488.00 344.51,488.00 346.96,488.00 346.96,488.00 349.41,488.00 349.41,488.00 351.87,488.00 351.87,488.00 354.32,488.00 354.32,488.00 356.77,488.00 356.77,488.00 359.23,488.00 359.23,488.00 361.68,488.00 361.68,488.00 364.13,488.00 364.13,488.00 366.59,488.00 366.59,488.00 369.04,488.00 369.04,488.00 371.49,488.00 371.49,488.00 373.95,488.00 373.95,488.00 376.40,488.00 376.40,488.00 378.85,488.00 378.85,488.00 381.31,488.00 381.31,488.00 383.76,488.00 383.76,488.00 386.21,488.00 386.21,488.00 388.67,488.00 388.67,488.00 391.12,488.00 391.12,488.00 393.57,488.00 393.57,488.00 396.03,488.00 396.03,488.00 398.48,488.00 398.48,488.00 400.93,488.00 400.93,488.00 403.39,488.00 403.39,488.00 405.84,488.00 405.84,488.00 408.29,488.00 408.29,488.00 410.75,488.00 410.75,488.00 413.20,488.00 413.20,488.00 415.65,488.00 415.65,488.00 418.11,488.00 418.11,488.00 420.56,488.00 420.56,488.00 423.01,488.00 423.01,488.00 425.47,488.00 425.47,488.00 427.92,488.00 427.92,488.00 430.37,488.00 430.37,488.00 432.83,488.00 432.83,488.00 435.28,488.00 435.28,488.00 437.73,488.00 437.73,488.00 440.19,488.00 440.19,488.00 442.64,488.00 442.64,488.00 445.09,488.00 445.09,488.00 447.55,488.00 447.55,488.00 450.00,488.00 450.00,488.00 452.45,488.00 452.45,488.00 454.91,488.00 454.91,488.00 457.36,488.00 457.36,488.00 459.81,488.00 459.81,488.00 462.27,488.00 462.27,488.00 464.72,488.00 464.72,488.00 467.17,488.00 467.17,488.00 469.63,488.00 469.63,488.00 472.08,488.00 472.08,488.00 474.53,488.00 474.53,488.00 476.99,488.00 476.99,488.00 479.44,488.00 479.44,488.00 481.89,488.00 481.89,488.00 484.35,488.00 484.35,488.00 486.80,488.00 486.80,488.00 489.25,488.00 489.25,488.00 491.71,488.00 491.71,488.00 494.16,488.00 494.16,488.00 496.61,488.00 496.61,488.00 499.07,488.00 499.07,488.00 501.52,488.00 501.52,488.00 503.97,488.00 503.97,488.00 506.43,488.00 506.43,488.00 508.88,488.00 508.88,488.00 511.33,488.00 511.33,488.00 513.79,488.00 513.79,488.00 516.24,488.00 516.24,488.00 518.69,488.00 518.69,488.00 521.15,488.00 521.15,488.00 523.60,488.00 523.60,488.00 526.05,488.00 526.05,488.00 528.51,488.00 528.51,488.00 530.96,488.00 530.96,488.00 533.41,488.00 533.41,488.00 535.87,488.00 535.87,488.00 538.32,488.00 538.32,488.00 540.77,488.00 540.77,488.00 543.23,488.00 543.23,488.00 545.68,488.00 545.68,488.00 548.13,488.00 548.13,488.00 550.59,488.00 550.59,488.00 553.04,488.00 553.04,488.00 555.49,488.00 555.49,488.00 557.95,488.00 557.95,488.00 560.40,488.00 560.40,488.00 562.85,488.00 562.85,488.00 565.31,488.00 565.31,488.00 567.76,488.00 567.76,488.00 570.21,488.00 570.21,488.00 572.67,488.00 572.67,488.00 575.12,488.00 575.12,488.00 577.57,488.00 577.57,488.00 580.03,488.00 580.03,488.00 582.48,488.00 582.48,488.00 584.93,488.00 584.93,488.00 587.39,488.00 587.39,488.00 589.84,488.00 589.84,488.00 592.29,488.00 592.29,488.00 594.75,488.00 594.75,488.00 597.20,488.00 597.20,488.00 599.65,488.00 599.65,488.00 602.11,488.00 602.11,488.00 604.56,488.00 604.56,488.00 607.01,488.00 607.01,488.00 609.47,488.00 609.47,488.00 611.92,488.00 611.92,488.00 614.37,488.00 614.37,488.00 616.83,488.00 616.83,416.15 619.28,416.15 619.28,416.15 621.73,416.15 621.73,416.15 624.19,416.15 624.19,416.15 626.64,416.15 626.64,416.15 629.09,416.15 629.09,416.15 631.55,416.15 631.55,416.15 634.00,416.15 634.00,416.15 636.45,416.15 636.45,416.15 638.91,416.15 638.91,416.15 641.36,416.15 641.36,416.15 643.81,416.15 643.81,416.15 646.27,416.15 646.27,416.15 648.72,416.15 648.72,416.15 651.17,416.15 651.17,416.15 653.63,416.15 653.63,335.85 656.08,335.85 656.08,335.85 658.53,335.85 658.53,264.00 660.99,264.00 660.99,264.00 663.44,264.00 663.44,264.00 665.89,264.00 665.89,264.00 668.35,264.00 668.35,264.00 670.80,264.00 670.80,264.00 673.25,264.00 673.25,264.00 675.71,264.00 675.71,264.00 678.16,264.00 678.16,264.00 680.61,264.00 680.61,264.00 683.07,264.00 683.07,264.00 685.52,264.00 685.52,264.00 687.97,264.00 687.97,264.00 690.43,264.00 690.43,264.00 692.88,264.00 692.88,264.00 695.33,264.00 695.33,264.00 697.79,264.00 697.79,264.00 700.24,264.00 700.24,264.00 702.69,264.00 702.69,264.00 705.15,264.00 705.15,264.00 707.60,264.00 707.60,264.00 710.05,264.00 710.05,264.00 712.51,264.00 712.51,264.00 714.96,264.00 714.96,264.00 717.41,264.00 717.41,264.00 719.87,264.00 719.87,264.00 722.32,264.00 722.32,264.00 724.77,264.00 724.77,264.00 727.23,264.00 727.23,264.00 729.68,264.00 729.68,264.00 732.13,264.00 732.13,264.00 734.59,264.00 734.59,264.00 737.04,264.00 737.04,264.00 739.49,264.00 739.49,264.00 741.95,264.00 741.95,111.85 744.40,111.85 744.40,111.85 746.85,111.85 746.85,40.00 749.31,40.00 749.31,40.00 751.76,40.00 751.76,40.00 754.21,40.00 754.21,40.00 756.67,40.00 756.67,40.00 759.12,40.00 759.12,40.00 761.57,40.00 761.57,40.00 764.03,40.00 764.03,40.00 766.48,40.00 766.48,40.00 768.93,40.00 768.93,40.00 771.39,40.00 771.39,40.00 773.84,40.00 773.84,40.00 776.29,40.00 776.29,40.00 778.75,40.00 778.75,40.00 781.20,40.00 781.20,40.00 783.65,40.00 783.65,40.00 786.11,40.00 786.11,40.00 788.56,40.00 788.56,40.00 791.01,40.00 791.01,40.00 793.47,40.00 793.47,40.00 795.92,40.00 795.92,40.00 798.37,40.00 798.37,40.00 800.83,40.00 800.83,40.00 803.28,40.00 803.28,40.00 805.73,40.00 805.73,40.00 808.19,40.00 808.19,40.00 810.64,40.00 810.64,40.00 813.09,40.00 813.09,40.00 815.55,40.00 815.55,40.00 818.00,40.00 818.00,40.00" fill="none" stroke="#4b8f29" stroke-width="3"/>
<text x="450.0" y="552" text-anchor="middle" font-size="20" font-family="Arial, sans-serif" fill="#111827">Top displacement (mm)</text>
<text x="24" y="280.0" text-anchor="middle" transform="rotate(-90 24 280.0)" font-size="20" font-family="Arial, sans-serif" fill="#111827">Force magnitude (N)</text>
<text x="880" y="280.0" text-anchor="middle" transform="rotate(90 880 280.0)" font-size="20" font-family="Arial, sans-serif" fill="#111827">Broken bonds</text>
<text x="102" y="64" font-size="18" font-family="Arial, sans-serif" fill="#1b6ca8">Top plate</text>
<text x="212" y="64" font-size="18" font-family="Arial, sans-serif" fill="#d1495b">Bottom plate</text>
<text x="352" y="64" font-size="18" font-family="Arial, sans-serif" fill="#4b8f29">Broken bonds</text>
<text x="72" y="45" text-anchor="end" font-size="17" fill="#30363d">6.45</text>
<text x="72" y="488" text-anchor="end" font-size="17" fill="#30363d">0</text>
<text x="828" y="45" text-anchor="start" font-size="17" fill="#30363d">106</text>
<text x="828" y="488" text-anchor="start" font-size="17" fill="#30363d">0</text>
</svg>
