<svg xmlns="http://www.w3.org/2000/svg" width="900" height="560" viewBox="0 0 900 560">
<rect width="100%" height="100%" fill="white"/>
<text x="450.0" y="26" text-anchor="middle" font-size="22" font-family="Arial, sans-serif" fill="#111827">SP-002 force-displacement and bond breakage</text>
<line x1="82" y1="40.00" x2="818" y2="40.00" stroke="#d9dee2" stroke-width="1"/><line x1="82" y1="129.60" x2="818" y2="129.60" stroke="#d9dee2" stroke-width="1"/><line x1="82" y1="219.20" x2="818" y2="219.20" stroke="#d9dee2" stroke-width="1"/><line x1="82" y1="308.80" x2="818" y2="308.80" stroke="#d9dee2" stroke-width="1"/><line x1="82" y1="398.40" x2="818" y2="398.40" stroke="#d9dee2" stroke-width="1"/><line x1="82" y1="488.00" x2="818" y2="488.00" stroke="#d9dee2" stroke-width="1"/><line x1="82.00" y1="40" x2="82.00" y2="488" stroke="#edf0f2" stroke-width="1"/><text x="82.00" y="526" text-anchor="middle" font-size="18" fill="#30363d">0.000</text><line x1="229.20" y1="40" x2="229.20" y2="488" stroke="#edf0f2" stroke-width="1"/><text x="229.20" y="526" text-anchor="middle" font-size="18" fill="#30363d">0.030</text><line x1="376.40" y1="40" x2="376.40" y2="488" stroke="#edf0f2" stroke-width="1"/><text x="376.40" y="526" text-anchor="middle" font-size="18" fill="#30363d">0.060</text><line x1="523.60" y1="40" x2="523.60" y2="488" stroke="#edf0f2" stroke-width="1"/><text x="523.60" y="526" text-anchor="middle" font-size="18" fill="#30363d">0.090</text><line x1="670.80" y1="40" x2="670.80" y2="488" stroke="#edf0f2" stroke-width="1"/><text x="670.80" y="526" text-anchor="middle" font-size="18" fill="#30363d">0.120</text><line x1="818.00" y1="40" x2="818.00" y2="488" stroke="#edf0f2" stroke-width="1"/><text x="818.00" y="526" text-anchor="middle" font-size="18" fill="#30363d">0.150</text>
<line x1="82" y1="40" x2="82" y2="488" stroke="#111827" stroke-width="1.5"/>
<line x1="82" y1="488" x2="818" y2="488" stroke="#111827" stroke-width="1.5"/>
<line x1="818" y1="40" x2="818" y2="488" stroke="#111827" stroke-width="1.5"/>
<polyline points="82.00,488.00 94.27,488.00 106.53,488.00 118.80,488.00 131.07,488.00 143.33,488.00 155.60,488.00 167.87,488.00 180.13,488.00 192.40,488.00 204.67,488.00 216.93,488.00 229.20,488.00 241.47,488.00 253.73,488.00 266.00,488.00 278.27,488.00 290.53,488.00 302.80,488.00 315.07,488.00 327.33,488.00 339.60,488.00 351.87,488.00 364.13,488.00 376.40,488.00 388.67,488.00 400.93,488.00 413.20,488.00 425.47,488.00 437.73,488.00 450.00,488.00 462.27,488.00 474.53,488.00 486.80,488.00 499.07,488.00 511.33,488.00 523.60,488.00 535.87,488.00 548.13,488.00 560.40,488.00 572.67,487.95 584.93,409.38 597.20,290.83 609.47,467.85 621.73,347.61 634.00,206.24 646.27,330.65 658.53,485.62 670.80,452.79 683.07,386.46 695.33,285.97 707.60,165.29 719.87,40.00 732.13,76.70 744.40,52.72 756.67,59.88 768.93,108.43 781.20,126.55 793.47,122.23 805.73,102.31 818.00,43.38" fill="none" stroke="#1b6ca8" stroke-width="3"/>
<polyline points="82.00,488.00 94.27,488.00 106.53,488.00 118.80,488.00 131.07,488.00 143.33,488.00 155.60,488.00 167.87,488.00 180.13,488.00 192.40,488.00 204.67,488.00 216.93,488.00 229.20,488.00 241.47,488.00 253.73,488.00 266.00,488.00 278.27,488.00 290.53,488.00 302.80,488.00 315.07,488.00 327.33,488.00 339.60,488.00 351.87,488.00 364.13,488.00 376.40,488.00 388.67,488.00 400.93,488.00 413.20,488.00 425.47,488.00 437.73,488.00 450.00,488.00 462.27,488.00 474.53,488.00 486.80,488.00 499.07,488.00 511.33,488.00 523.60,488.00 535.87,488.00 548.13,488.00 560.40,488.00 572.67,488.00 584.93,441.10 597.20,334.94 609.47,472.88 621.73,398.00 634.00,483.52 646.27,445.49 658.53,431.17 670.80,448.70 683.07,440.40 695.33,398.95 707.60,311.94 719.87,193.77 732.13,148.97 744.40,429.54 756.67,299.84 768.93,460.70 781.20,417.29 793.47,375.80 805.73,336.80 818.00,286.11" fill="none" stroke="#d1495b" stroke-width="3"/>
<polyline points="82.00,488.00 94.27,488.00 94.27,488.00 106.53,488.00 106.53,488.00 118.80,488.00 118.80,488.00 131.07,488.00 131.07,488.00 143.33,488.00 143.33,488.00 155.60,488.00 155.60,488.00 167.87,488.00 167.87,488.00 180.13,488.00 180.13,488.00 192.40,488.00 192.40,488.00 204.67,488.00 204.67,488.00 216.93,488.00 216.93,488.00 229.20,488.00 229.20,488.00 241.47,488.00 241.47,488.00 253.73,488.00 253.73,488.00 266.00,488.00 266.00,488.00 278.27,488.00 278.27,488.00 290.53,488.00 290.53,488.00 302.80,488.00 302.80,488.00 315.07,488.00 315.07,488.00 327.33,488.00 327.33,488.00 339.60,488.00 339.60,488.00 351.87,488.00 351.87,488.00 364.13,488.00 364.13,488.00 376.40,488.00 376.40,488.00 388.67,488.00 388.67,488.00 400.93,488.00 400.93,488.00 413.20,488.00 413.20,488.00 425.47,488.00 425.47,488.00 437.73,488.00 437.73,488.00 450.00,488.00 450.00,488.00 462.27,488.00 462.27,488.00 474.53,488.00 474.53,488.00 486.80,488.00 486.80,488.00 499.07,488.00 499.07,488.00 511.33,488.00 511.33,488.00 523.60,488.00 523.60,488.00 535.87,488.00 535.87,488.00 548.13,488.00 548.13,488.00 560.40,488.00 560.40,488.00 572.67,488.00 572.67,488.00 584.93,488.00 584.93,488.00 597.20,488.00 597.20,488.00 609.47,488.00 609.47,426.08 621.73,426.08 621.73,426.08 634.00,426.08 634.00,426.08 646.27,426.08 646.27,356.88 658.53,356.88 658.53,294.96 670.80,294.96 670.80,294.96 683.07,294.96 683.07,294.96 695.33,294.96 695.33,294.96 707.60,294.96 707.60,294.96 719.87,294.96 719.87,294.96 732.13,294.96 732.13,233.04 744.40,233.04 744.40,101.92 756.67,101.92 756.67,101.92 768.93,101.92 768.93,40.00 781.20,40.00 781.20,40.00 793.47,40.00 793.47,40.00 805.73,40.00 805.73,40.00 818.00,40.00 818.00,40.00" fill="none" stroke="#4b8f29" stroke-width="3"/>
<text x="450.0" y="552" text-anchor="middle" font-size="20" font-family="Arial, sans-serif" fill="#111827">Top displacement (mm)</text>
<text x="24" y="280.0" text-anchor="middle" transform="rotate(-90 24 280.0)" font-size="20" font-family="Arial, sans-serif" fill="#111827">Force magnitude (N)</text>
<text x="880" y="280.0" text-anchor="middle" transform="rotate(90 880 280.0)" font-size="20" font-family="Arial, sans-serif" fill="#111827">Broken bonds</text>
<text x="102" y="64" font-size="18" font-family="Arial, sans-serif" fill="#1b6ca8">Top plate</text>
<text x="212" y="64" font-size="18" font-family="Arial, sans-serif" fill="#d1495b">Bottom plate</text>
<text x="352" y="64" font-size="18" font-family="Arial, sans-serif" fill="#4b8f29">Broken bonds</text>
<text x="72" y="45" text-anchor="end" font-size="17" fill="#30363d">7.19</text>
<text x="72" y="488" text-anchor="end" font-size="17" fill="#30363d">0</text>
<text x="828" y="45" text-anchor="start" font-size="17" fill="#30363d">123</text>
<text x="828" y="488" text-anchor="start" font-size="17" fill="#30363d">0</text>
</svg>
