<svg xmlns="http://www.w3.org/2000/svg" width="900" height="560" viewBox="0 0 900 560">
<rect width="100%" height="100%" fill="white"/>
<text x="450.0" y="26" text-anchor="middle" font-size="22" font-family="Arial, sans-serif" fill="#111827">SP-002 force-displacement and bond breakage</text>
<line x1="82" y1="40.00" x2="818" y2="40.00" stroke="#d9dee2" stroke-width="1"/><line x1="82" y1="129.60" x2="818" y2="129.60" stroke="#d9dee2" stroke-width="1"/><line x1="82" y1="219.20" x2="818" y2="219.20" stroke="#d9dee2" stroke-width="1"/><line x1="82" y1="308.80" x2="818" y2="308.80" stroke="#d9dee2" stroke-width="1"/><line x1="82" y1="398.40" x2="818" y2="398.40" stroke="#d9dee2" stroke-width="1"/><line x1="82" y1="488.00" x2="818" y2="488.00" stroke="#d9dee2" stroke-width="1"/><line x1="82.00" y1="40" x2="82.00" y2="488" stroke="#edf0f2" stroke-width="1"/><text x="82.00" y="526" text-anchor="middle" font-size="18" fill="#30363d">0.000</text><line x1="229.20" y1="40" x2="229.20" y2="488" stroke="#edf0f2" stroke-width="1"/><text x="229.20" y="526" text-anchor="middle" font-size="18" fill="#30363d">0.024</text><line x1="376.40" y1="40" x2="376.40" y2="488" stroke="#edf0f2" stroke-width="1"/><text x="376.40" y="526" text-anchor="middle" font-size="18" fill="#30363d">0.048</text><line x1="523.60" y1="40" x2="523.60" y2="488" stroke="#edf0f2" stroke-width="1"/><text x="523.60" y="526" text-anchor="middle" font-size="18" fill="#30363d">0.072</text><line x1="670.80" y1="40" x2="670.80" y2="488" stroke="#edf0f2" stroke-width="1"/><text x="670.80" y="526" text-anchor="middle" font-size="18" fill="#30363d">0.096</text><line x1="818.00" y1="40" x2="818.00" y2="488" stroke="#edf0f2" stroke-width="1"/><text x="818.00" y="526" text-anchor="middle" font-size="18" fill="#30363d">0.120</text>
<line x1="82" y1="40" x2="82" y2="488" stroke="#111827" stroke-width="1.5"/>
<line x1="82" y1="488" x2="818" y2="488" stroke="#111827" stroke-width="1.5"/>
<line x1="818" y1="40" x2="818" y2="488" stroke="#111827" stroke-width="1.5"/>
<polyline points="82.00,488.00 85.07,488.00 88.13,488.00 91.20,488.00 94.27,488.00 97.33,488.00 100.40,488.00 103.47,488.00 106.53,488.00 109.60,488.00 112.67,488.00 115.73,488.00 118.80,488.00 121.87,488.00 124.93,488.00 128.00,488.00 131.07,488.00 134.13,488.00 137.20,488.00 140.27,488.00 143.33,488.00 146.40,488.00 149.47,488.00 152.53,488.00 155.60,488.00 158.67,488.00 161.73,488.00 164.80,488.00 167.87,488.00 170.93,488.00 174.00,488.00 177.07,488.00 180.13,488.00 183.20,488.00 186.27,488.00 189.33,488.00 192.40,488.00 195.47,488.00 198.53,488.00 201.60,488.00 204.67,488.00 207.73,488.00 210.80,488.00 213.87,488.00 216.93,488.00 220.00,488.00 223.07,488.00 226.13,488.00 229.20,488.00 232.27,488.00 235.33,488.00 238.40,488.00 241.47,488.00 244.53,488.00 247.60,488.00 250.67,488.00 253.73,488.00 256.80,488.00 259.87,488.00 262.93,488.00 266.00,488.00 269.07,488.00 272.13,488.00 275.20,488.00 278.27,488.00 281.33,488.00 284.40,488.00 287.47,488.00 290.53,488.00 293.60,488.00 296.67,488.00 299.73,488.00 302.80,488.00 305.87,488.00 308.93,488.00 312.00,488.00 315.07,488.00 318.13,488.00 321.20,488.00 324.27,488.00 327.33,488.00 330.40,488.00 333.47,488.00 336.53,488.00 339.60,488.00 342.67,488.00 345.73,488.00 348.80,488.00 351.87,488.00 354.93,488.00 358.00,488.00 361.07,488.00 364.13,488.00 367.20,488.00 370.27,488.00 373.33,488.00 376.40,488.00 379.47,488.00 382.53,488.00 385.60,488.00 388.67,488.00 391.73,488.00 394.80,488.00 397.87,488.00 400.93,488.00 404.00,488.00 407.07,488.00 410.13,488.00 413.20,488.00 416.27,488.00 419.33,488.00 422.40,488.00 425.47,488.00 428.53,488.00 431.60,488.00 434.67,488.00 437.73,488.00 440.80,488.00 443.87,488.00 446.93,488.00 450.00,488.00 453.07,488.00 456.13,488.00 459.20,488.00 462.27,488.00 465.33,488.00 468.40,488.00 471.47,488.00 474.53,488.00 477.60,488.00 480.67,488.00 483.73,488.00 486.80,488.00 489.87,488.00 492.93,488.00 496.00,488.00 499.07,488.00 502.13,488.00 505.20,488.00 508.27,488.00 511.33,488.00 514.40,488.00 517.47,488.00 520.53,488.00 523.60,488.00 526.67,488.00 529.73,488.00 532.80,488.00 535.87,488.00 538.93,488.00 542.00,488.00 545.07,488.00 548.13,488.00 551.20,488.00 554.27,488.00 557.33,488.00 560.40,488.00 563.47,488.00 566.53,488.00 569.60,488.00 572.67,488.00 575.73,488.00 578.80,488.00 581.87,488.00 584.93,488.00 588.00,488.00 591.07,488.00 594.13,488.00 597.20,488.00 600.27,488.00 603.33,488.00 606.40,488.00 609.47,488.00 612.53,488.00 615.60,488.00 618.67,488.00 621.73,488.00 624.80,488.00 627.87,488.00 630.93,488.00 634.00,488.00 637.07,488.00 640.13,488.00 643.20,488.00 646.27,488.00 649.33,488.00 652.40,488.00 655.47,488.00 658.53,488.00 661.60,488.00 664.67,488.00 667.73,488.00 670.80,488.00 673.87,488.00 676.93,488.00 680.00,488.00 683.07,488.00 686.13,488.00 689.20,488.00 692.27,488.00 695.33,487.96 698.40,456.71 701.47,408.04 704.53,350.68 707.60,287.28 710.67,219.19 713.73,147.32 716.80,72.26 719.87,487.33 722.93,487.47 726.00,487.47 729.07,487.47 732.13,487.47 735.20,487.47 738.27,464.07 741.33,420.72 744.40,369.36 747.47,312.69 750.53,252.04 753.60,185.48 756.67,99.28 759.73,381.15 762.80,308.33 765.87,486.40 768.93,486.40 772.00,486.40 775.07,486.40 778.13,486.40 781.20,486.40 784.27,486.40 787.33,486.29 790.40,485.91 793.47,485.90 796.53,485.88 799.60,486.04 802.67,486.08 805.73,486.08 808.80,485.75 811.87,485.76 814.93,485.65 818.00,485.63" fill="none" stroke="#1b6ca8" stroke-width="3"/>
<polyline points="82.00,488.00 85.07,488.00 88.13,488.00 91.20,488.00 94.27,488.00 97.33,488.00 100.40,488.00 103.47,488.00 106.53,488.00 109.60,488.00 112.67,488.00 115.73,488.00 118.80,488.00 121.87,488.00 124.93,488.00 128.00,488.00 131.07,488.00 134.13,488.00 137.20,488.00 140.27,488.00 143.33,488.00 146.40,488.00 149.47,488.00 152.53,488.00 155.60,488.00 158.67,488.00 161.73,488.00 164.80,488.00 167.87,488.00 170.93,488.00 174.00,488.00 177.07,488.00 180.13,488.00 183.20,488.00 186.27,488.00 189.33,488.00 192.40,488.00 195.47,488.00 198.53,488.00 201.60,488.00 204.67,488.00 207.73,488.00 210.80,488.00 213.87,488.00 216.93,488.00 220.00,488.00 223.07,488.00 226.13,488.00 229.20,488.00 232.27,488.00 235.33,488.00 238.40,488.00 241.47,488.00 244.53,488.00 247.60,488.00 250.67,488.00 253.73,488.00 256.80,488.00 259.87,488.00 262.93,488.00 266.00,488.00 269.07,488.00 272.13,488.00 275.20,488.00 278.27,488.00 281.33,488.00 284.40,488.00 287.47,488.00 290.53,488.00 293.60,488.00 296.67,488.00 299.73,488.00 302.80,488.00 305.87,488.00 308.93,488.00 312.00,488.00 315.07,488.00 318.13,488.00 321.20,488.00 324.27,488.00 327.33,488.00 330.40,488.00 333.47,488.00 336.53,488.00 339.60,488.00 342.67,488.00 345.73,488.00 348.80,488.00 351.87,488.00 354.93,488.00 358.00,488.00 361.07,488.00 364.13,488.00 367.20,488.00 370.27,488.00 373.33,488.00 376.40,488.00 379.47,488.00 382.53,488.00 385.60,488.00 388.67,488.00 391.73,488.00 394.80,488.00 397.87,488.00 400.93,488.00 404.00,488.00 407.07,488.00 410.13,488.00 413.20,488.00 416.27,488.00 419.33,488.00 422.40,488.00 425.47,488.00 428.53,488.00 431.60,488.00 434.67,488.00 437.73,488.00 440.80,488.00 443.87,488.00 446.93,488.00 450.00,488.00 453.07,488.00 456.13,488.00 459.20,488.00 462.27,488.00 465.33,488.00 468.40,488.00 471.47,488.00 474.53,488.00 477.60,488.00 480.67,488.00 483.73,488.00 486.80,488.00 489.87,488.00 492.93,488.00 496.00,488.00 499.07,488.00 502.13,488.00 505.20,488.00 508.27,488.00 511.33,488.00 514.40,488.00 517.47,488.00 520.53,488.00 523.60,488.00 526.67,488.00 529.73,488.00 532.80,488.00 535.87,488.00 538.93,488.00 542.00,488.00 545.07,488.00 548.13,488.00 551.20,488.00 554.27,488.00 557.33,488.00 560.40,488.00 563.47,488.00 566.53,488.00 569.60,488.00 572.67,488.00 575.73,488.00 578.80,488.00 581.87,488.00 584.93,488.00 588.00,488.00 591.07,488.00 594.13,488.00 597.20,488.00 600.27,488.00 603.33,488.00 606.40,488.00 609.47,488.00 612.53,488.00 615.60,488.00 618.67,488.00 621.73,488.00 624.80,488.00 627.87,488.00 630.93,488.00 634.00,488.00 637.07,488.00 640.13,488.00 643.20,488.00 646.27,488.00 649.33,488.00 652.40,488.00 655.47,488.00 658.53,488.00 661.60,488.00 664.67,488.00 667.73,488.00 670.80,488.00 673.87,488.00 676.93,488.00 680.00,488.00 683.07,488.00 686.13,488.00 689.20,488.00 692.27,488.00 695.33,488.00 698.40,467.40 701.47,422.23 704.53,366.99 707.60,305.10 710.67,238.20 713.73,167.32 716.80,93.09 719.87,187.11 722.93,483.60 726.00,487.91 729.07,487.87 732.13,487.89 735.20,487.91 738.27,473.70 741.33,434.09 744.40,384.71 747.47,329.41 750.53,269.81 753.60,206.11 756.67,124.60 759.73,40.00 762.80,319.71 765.87,479.23 768.93,487.75 772.00,487.90 775.07,487.92 778.13,487.93 781.20,487.94 784.27,487.95 787.33,487.96 790.40,487.97 793.47,487.97 796.53,487.98 799.60,487.98 802.67,487.98 805.73,487.99 808.80,487.99 811.87,487.99 814.93,487.99 818.00,487.99" fill="none" stroke="#d1495b" stroke-width="3"/>
<polyline points="82.00,488.00 85.07,488.00 85.07,488.00 88.13,488.00 88.13,488.00 91.20,488.00 91.20,488.00 94.27,488.00 94.27,488.00 97.33,488.00 97.33,488.00 100.40,488.00 100.40,488.00 103.47,488.00 103.47,488.00 106.53,488.00 106.53,488.00 109.60,488.00 109.60,488.00 112.67,488.00 112.67,488.00 115.73,488.00 115.73,488.00 118.80,488.00 118.80,488.00 121.87,488.00 121.87,488.00 124.93,488.00 124.93,488.00 128.00,488.00 128.00,488.00 131.07,488.00 131.07,488.00 134.13,488.00 134.13,488.00 137.20,488.00 137.20,488.00 140.27,488.00 140.27,488.00 143.33,488.00 143.33,488.00 146.40,488.00 146.40,488.00 149.47,488.00 149.47,488.00 152.53,488.00 152.53,488.00 155.60,488.00 155.60,488.00 158.67,488.00 158.67,488.00 161.73,488.00 161.73,488.00 164.80,488.00 164.80,488.00 167.87,488.00 167.87,488.00 170.93,488.00 170.93,488.00 174.00,488.00 174.00,488.00 177.07,488.00 177.07,488.00 180.13,488.00 180.13,488.00 183.20,488.00 183.20,488.00 186.27,488.00 186.27,488.00 189.33,488.00 189.33,488.00 192.40,488.00 192.40,488.00 195.47,488.00 195.47,488.00 198.53,488.00 198.53,488.00 201.60,488.00 201.60,488.00 204.67,488.00 204.67,488.00 207.73,488.00 207.73,488.00 210.80,488.00 210.80,488.00 213.87,488.00 213.87,488.00 216.93,488.00 216.93,488.00 220.00,488.00 220.00,488.00 223.07,488.00 223.07,488.00 226.13,488.00 226.13,488.00 229.20,488.00 229.20,488.00 232.27,488.00 232.27,488.00 235.33,488.00 235.33,488.00 238.40,488.00 238.40,488.00 241.47,488.00 241.47,488.00 244.53,488.00 244.53,488.00 247.60,488.00 247.60,488.00 250.67,488.00 250.67,488.00 253.73,488.00 253.73,488.00 256.80,488.00 256.80,488.00 259.87,488.00 259.87,488.00 262.93,488.00 262.93,488.00 266.00,488.00 266.00,488.00 269.07,488.00 269.07,488.00 272.13,488.00 272.13,488.00 275.20,488.00 275.20,488.00 278.27,488.00 278.27,488.00 281.33,488.00 281.33,488.00 284.40,488.00 284.40,488.00 287.47,488.00 287.47,488.00 290.53,488.00 290.53,488.00 293.60,488.00 293.60,488.00 296.67,488.00 296.67,488.00 299.73,488.00 299.73,488.00 302.80,488.00 302.80,488.00 305.87,488.00 305.87,488.00 308.93,488.00 308.93,488.00 312.00,488.00 312.00,488.00 315.07,488.00 315.07,488.00 318.13,488.00 318.13,488.00 321.20,488.00 321.20,488.00 324.27,488.00 324.27,488.00 327.33,488.00 327.33,488.00 330.40,488.00 330.40,488.00 333.47,488.00 333.47,488.00 336.53,488.00 336.53,488.00 339.60,488.00 339.60,488.00 342.67,488.00 342.67,488.00 345.73,488.00 345.73,488.00 348.80,488.00 348.80,488.00 351.87,488.00 351.87,488.00 354.93,488.00 354.93,488.00 358.00,488.00 358.00,488.00 361.07,488.00 361.07,488.00 364.13,488.00 364.13,488.00 367.20,488.00 367.20,488.00 370.27,488.00 370.27,488.00 373.33,488.00 373.33,488.00 376.40,488.00 376.40,488.00 379.47,488.00 379.47,488.00 382.53,488.00 382.53,488.00 385.60,488.00 385.60,488.00 388.67,488.00 388.67,488.00 391.73,488.00 391.73,488.00 394.80,488.00 394.80,488.00 397.87,488.00 397.87,488.00 400.93,488.00 400.93,488.00 404.00,488.00 404.00,488.00 407.07,488.00 407.07,488.00 410.13,488.00 410.13,488.00 413.20,488.00 413.20,488.00 416.27,488.00 416.27,488.00 419.33,488.00 419.33,488.00 422.40,488.00 422.40,488.00 425.47,488.00 425.47,488.00 428.53,488.00 428.53,488.00 431.60,488.00 431.60,488.00 434.67,488.00 434.67,488.00 437.73,488.00 437.73,488.00 440.80,488.00 440.80,488.00 443.87,488.00 443.87,488.00 446.93,488.00 446.93,488.00 450.00,488.00 450.00,488.00 453.07,488.00 453.07,488.00 456.13,488.00 456.13,488.00 459.20,488.00 459.20,488.00 462.27,488.00 462.27,488.00 465.33,488.00 465.33,488.00 468.40,488.00 468.40,488.00 471.47,488.00 471.47,488.00 474.53,488.00 474.53,488.00 477.60,488.00 477.60,488.00 480.67,488.00 480.67,488.00 483.73,488.00 483.73,488.00 486.80,488.00 486.80,488.00 489.87,488.00 489.87,488.00 492.93,488.00 492.93,488.00 496.00,488.00 496.00,488.00 499.07,488.00 499.07,488.00 502.13,488.00 502.13,488.00 505.20,488.00 505.20,488.00 508.27,488.00 508.27,488.00 511.33,488.00 511.33,488.00 514.40,488.00 514.40,488.00 517.47,488.00 517.47,488.00 520.53,488.00 520.53,488.00 523.60,488.00 523.60,488.00 526.67,488.00 526.67,488.00 529.73,488.00 529.73,488.00 532.80,488.00 532.80,488.00 535.87,488.00 535.87,488.00 538.93,488.00 538.93,488.00 542.00,488.00 542.00,488.00 545.07,488.00 545.07,488.00 548.13,488.00 548.13,488.00 551.20,488.00 551.20,488.00 554.27,488.00 554.27,488.00 557.33,488.00 557.33,488.00 560.40,488.00 560.40,488.00 563.47,488.00 563.47,488.00 566.53,488.00 566.53,488.00 569.60,488.00 569.60,488.00 572.67,488.00 572.67,488.00 575.73,488.00 575.73,488.00 578.80,488.00 578.80,488.00 581.87,488.00 581.87,488.00 584.93,488.00 584.93,488.00 588.00,488.00 588.00,488.00 591.07,488.00 591.07,488.00 594.13,488.00 594.13,488.00 597.20,488.00 597.20,488.00 600.27,488.00 600.27,488.00 603.33,488.00 603.33,488.00 606.40,488.00 606.40,488.00 609.47,488.00 609.47,488.00 612.53,488.00 612.53,488.00 615.60,488.00 615.60,488.00 618.67,488.00 618.67,488.00 621.73,488.00 621.73,488.00 624.80,488.00 624.80,488.00 627.87,488.00 627.87,488.00 630.93,488.00 630.93,488.00 634.00,488.00 634.00,488.00 637.07,488.00 637.07,488.00 640.13,488.00 640.13,488.00 643.20,488.00 643.20,488.00 646.27,488.00 646.27,488.00 649.33,488.00 649.33,488.00 652.40,488.00 652.40,488.00 655.47,488.00 655.47,488.00 658.53,488.00 658.53,488.00 661.60,488.00 661.60,488.00 664.67,488.00 664.67,488.00 667.73,488.00 667.73,488.00 670.80,488.00 670.80,488.00 673.87,488.00 673.87,488.00 676.93,488.00 676.93,488.00 680.00,488.00 680.00,488.00 683.07,488.00 683.07,488.00 686.13,488.00 686.13,488.00 689.20,488.00 689.20,488.00 692.27,488.00 692.27,488.00 695.33,488.00 695.33,488.00 698.40,488.00 698.40,42.46 701.47,42.46 701.47,42.46 704.53,42.46 704.53,42.46 707.60,42.46 707.60,42.46 710.67,42.46 710.67,42.46 713.73,42.46 713.73,42.46 716.80,42.46 716.80,42.46 719.87,42.46 719.87,41.52 722.93,41.52 722.93,41.52 726.00,41.52 726.00,41.52 729.07,41.52 729.07,41.52 732.13,41.52 732.13,41.52 735.20,41.52 735.20,41.52 738.27,41.52 738.27,41.52 741.33,41.52 741.33,41.52 744.40,41.52 744.40,41.52 747.47,41.52 747.47,41.52 750.53,41.52 750.53,41.52 753.60,41.52 753.60,41.52 756.67,41.52 756.67,41.52 759.73,41.52 759.73,40.57 762.80,40.57 762.80,40.57 765.87,40.57 765.87,40.00 768.93,40.00 768.93,40.00 772.00,40.00 772.00,40.00 775.07,40.00 775.07,40.00 778.13,40.00 778.13,40.00 781.20,40.00 781.20,40.00 784.27,40.00 784.27,40.00 787.33,40.00 787.33,40.00 790.40,40.00 790.40,40.00 793.47,40.00 793.47,40.00 796.53,40.00 796.53,40.00 799.60,40.00 799.60,40.00 802.67,40.00 802.67,40.00 805.73,40.00 805.73,40.00 808.80,40.00 808.80,40.00 811.87,40.00 811.87,40.00 814.93,40.00 814.93,40.00 818.00,40.00 818.00,40.00" fill="none" stroke="#4b8f29" stroke-width="3"/>
<text x="450.0" y="552" text-anchor="middle" font-size="20" font-family="Arial, sans-serif" fill="#111827">Top displacement (mm)</text>
<text x="24" y="280.0" text-anchor="middle" transform="rotate(-90 24 280.0)" font-size="20" font-family="Arial, sans-serif" fill="#111827">Force magnitude (N)</text>
<text x="880" y="280.0" text-anchor="middle" transform="rotate(90 880 280.0)" font-size="20" font-family="Arial, sans-serif" fill="#111827">Broken bonds</text>
<text x="102" y="64" font-size="18" font-family="Arial, sans-serif" fill="#1b6ca8">Top plate</text>
<text x="212" y="64" font-size="18" font-family="Arial, sans-serif" fill="#d1495b">Bottom plate</text>
<text x="352" y="64" font-size="18" font-family="Arial, sans-serif" fill="#4b8f29">Broken bonds</text>
<text x="72" y="45" text-anchor="end" font-size="17" fill="#30363d">1.68</text>
<text x="72" y="488" text-anchor="end" font-size="17" fill="#30363d">0</text>
<text x="828" y="45" text-anchor="start" font-size="17" fill="#30363d">4727</text>
<text x="828" y="488" text-anchor="start" font-size="17" fill="#30363d">0</text>
</svg>
