<?xml version="1.0" encoding="utf-8" standalone="no"?>
<!DOCTYPE svg PUBLIC "-//W3C//DTD SVG 1.1//EN"
  "http://www.w3.org/Graphics/SVG/1.1/DTD/svg11.dtd">
<svg xmlns:xlink="http://www.w3.org/1999/xlink" width="516.341406pt" height="370.194687pt" viewBox="0 0 516.341406 370.194687" xmlns="http://www.w3.org/2000/svg" version="1.1">
 <metadata>
  <rdf:RDF xmlns:dc="http://purl.org/dc/elements/1.1/" xmlns:cc="http://creativecommons.org/ns#" xmlns:rdf="http://www.w3.org/1999/02/22-rdf-syntax-ns#">
   <cc:Work>
    <dc:type rdf:resource="http://purl.org/dc/dcmitype/StillImage"/>
    <dc:date>2026-06-12T00:23:51.820505</dc:date>
    <dc:format>image/svg+xml</dc:format>
    <dc:creator>
     <cc:Agent>
      <dc:title>Matplotlib v3.10.9, https://matplotlib.org/</dc:title>
     </cc:Agent>
    </dc:creator>
   </cc:Work>
  </rdf:RDF>
 </metadata>
 <defs>
  <style type="text/css">*{stroke-linejoin: round; stroke-linecap: butt}</style>
 </defs>
 <g id="figure_1">
  <g id="patch_1">
   <path d="M 0 370.194687 
L 516.341406 370.194687 
L 516.341406 0 
L 0 0 
z
" style="fill: #ffffff"/>
  </g>
  <g id="axes_1">
   <g id="patch_2">
    <path d="M 38.028438 151.826087 
L 239.471916 151.826087 
L 239.471916 7.2 
L 38.028438 7.2 
z
" style="fill: #ffffff"/>
   </g>
   <g id="matplotlib.axis_1">
    <g id="xtick_1">
     <g id="line2d_1">
      <defs>
       <path id="m1f7ffcbc4f" d="M 0 0 
L 0 -3.5 
" style="stroke: #000000; stroke-width: 0.8"/>
      </defs>
      <g>
       <use xlink:href="#m1f7ffcbc4f" x="47.184959" y="151.826087" style="stroke: #000000; stroke-width: 0.8"/>
      </g>
     </g>
     <g id="line2d_2">
      <defs>
       <path id="mca75214ef8" d="M 0 0 
L 0 3.5 
" style="stroke: #000000; stroke-width: 0.8"/>
      </defs>
      <g>
       <use xlink:href="#mca75214ef8" x="47.184959" y="7.2" style="stroke: #000000; stroke-width: 0.8"/>
      </g>
     </g>
     <g id="text_1">
      <text style="font-size: 7px; font-family: 'DejaVu Sans'; text-anchor: middle" x="47.184959" y="160.644993" transform="rotate(-0 47.184959 160.644993)">0.00</text>
     </g>
    </g>
    <g id="xtick_2">
     <g id="line2d_3">
      <g>
       <use xlink:href="#m1f7ffcbc4f" x="77.706698" y="151.826087" style="stroke: #000000; stroke-width: 0.8"/>
      </g>
     </g>
     <g id="line2d_4">
      <g>
       <use xlink:href="#mca75214ef8" x="77.706698" y="7.2" style="stroke: #000000; stroke-width: 0.8"/>
      </g>
     </g>
     <g id="text_2">
      <text style="font-size: 7px; font-family: 'DejaVu Sans'; text-anchor: middle" x="77.706698" y="160.644993" transform="rotate(-0 77.706698 160.644993)">0.05</text>
     </g>
    </g>
    <g id="xtick_3">
     <g id="line2d_5">
      <g>
       <use xlink:href="#m1f7ffcbc4f" x="108.228438" y="151.826087" style="stroke: #000000; stroke-width: 0.8"/>
      </g>
     </g>
     <g id="line2d_6">
      <g>
       <use xlink:href="#mca75214ef8" x="108.228438" y="7.2" style="stroke: #000000; stroke-width: 0.8"/>
      </g>
     </g>
     <g id="text_3">
      <text style="font-size: 7px; font-family: 'DejaVu Sans'; text-anchor: middle" x="108.228438" y="160.644993" transform="rotate(-0 108.228438 160.644993)">0.10</text>
     </g>
    </g>
    <g id="xtick_4">
     <g id="line2d_7">
      <g>
       <use xlink:href="#m1f7ffcbc4f" x="138.750177" y="151.826087" style="stroke: #000000; stroke-width: 0.8"/>
      </g>
     </g>
     <g id="line2d_8">
      <g>
       <use xlink:href="#mca75214ef8" x="138.750177" y="7.2" style="stroke: #000000; stroke-width: 0.8"/>
      </g>
     </g>
     <g id="text_4">
      <text style="font-size: 7px; font-family: 'DejaVu Sans'; text-anchor: middle" x="138.750177" y="160.644993" transform="rotate(-0 138.750177 160.644993)">0.15</text>
     </g>
    </g>
    <g id="xtick_5">
     <g id="line2d_9">
      <g>
       <use xlink:href="#m1f7ffcbc4f" x="169.271916" y="151.826087" style="stroke: #000000; stroke-width: 0.8"/>
      </g>
     </g>
     <g id="line2d_10">
      <g>
       <use xlink:href="#mca75214ef8" x="169.271916" y="7.2" style="stroke: #000000; stroke-width: 0.8"/>
      </g>
     </g>
     <g id="text_5">
      <text style="font-size: 7px; font-family: 'DejaVu Sans'; text-anchor: middle" x="169.271916" y="160.644993" transform="rotate(-0 169.271916 160.644993)">0.20</text>
     </g>
    </g>
    <g id="xtick_6">
     <g id="line2d_11">
      <g>
       <use xlink:href="#m1f7ffcbc4f" x="199.793655" y="151.826087" style="stroke: #000000; stroke-width: 0.8"/>
      </g>
     </g>
     <g id="line2d_12">
      <g>
       <use xlink:href="#mca75214ef8" x="199.793655" y="7.2" style="stroke: #000000; stroke-width: 0.8"/>
      </g>
     </g>
     <g id="text_6">
      <text style="font-size: 7px; font-family: 'DejaVu Sans'; text-anchor: middle" x="199.793655" y="160.644993" transform="rotate(-0 199.793655 160.644993)">0.25</text>
     </g>
    </g>
    <g id="xtick_7">
     <g id="line2d_13">
      <g>
       <use xlink:href="#m1f7ffcbc4f" x="230.315394" y="151.826087" style="stroke: #000000; stroke-width: 0.8"/>
      </g>
     </g>
     <g id="line2d_14">
      <g>
       <use xlink:href="#mca75214ef8" x="230.315394" y="7.2" style="stroke: #000000; stroke-width: 0.8"/>
      </g>
     </g>
     <g id="text_7">
      <text style="font-size: 7px; font-family: 'DejaVu Sans'; text-anchor: middle" x="230.315394" y="160.644993" transform="rotate(-0 230.315394 160.644993)">0.30</text>
     </g>
    </g>
    <g id="text_8">
     <text style="font-size: 8px; font-family: 'DejaVu Sans'; text-anchor: middle" x="138.750177" y="172.179524" transform="rotate(-0 138.750177 172.179524)">Top-plate displacement (mm)</text>
    </g>
   </g>
   <g id="matplotlib.axis_2">
    <g id="ytick_1">
     <g id="line2d_15">
      <defs>
       <path id="mc355024541" d="M 0 0 
L 3.5 0 
" style="stroke: #000000; stroke-width: 0.8"/>
      </defs>
      <g>
       <use xlink:href="#mc355024541" x="38.028438" y="145.252174" style="stroke: #000000; stroke-width: 0.8"/>
      </g>
     </g>
     <g id="line2d_16">
      <defs>
       <path id="mc1fa75ea7b" d="M 0 0 
L -3.5 0 
" style="stroke: #000000; stroke-width: 0.8"/>
      </defs>
      <g>
       <use xlink:href="#mc1fa75ea7b" x="239.471916" y="145.252174" style="stroke: #000000; stroke-width: 0.8"/>
      </g>
     </g>
     <g id="text_9">
      <text style="font-size: 7px; font-family: 'DejaVu Sans'; text-anchor: end" x="34.528438" y="147.911627" transform="rotate(-0 34.528438 147.911627)">0</text>
     </g>
    </g>
    <g id="ytick_2">
     <g id="line2d_17">
      <g>
       <use xlink:href="#mc355024541" x="38.028438" y="116.215631" style="stroke: #000000; stroke-width: 0.8"/>
      </g>
     </g>
     <g id="line2d_18">
      <g>
       <use xlink:href="#mc1fa75ea7b" x="239.471916" y="116.215631" style="stroke: #000000; stroke-width: 0.8"/>
      </g>
     </g>
     <g id="text_10">
      <text style="font-size: 7px; font-family: 'DejaVu Sans'; text-anchor: end" x="34.528438" y="118.875084" transform="rotate(-0 34.528438 118.875084)">5</text>
     </g>
    </g>
    <g id="ytick_3">
     <g id="line2d_19">
      <g>
       <use xlink:href="#mc355024541" x="38.028438" y="87.179089" style="stroke: #000000; stroke-width: 0.8"/>
      </g>
     </g>
     <g id="line2d_20">
      <g>
       <use xlink:href="#mc1fa75ea7b" x="239.471916" y="87.179089" style="stroke: #000000; stroke-width: 0.8"/>
      </g>
     </g>
     <g id="text_11">
      <text style="font-size: 7px; font-family: 'DejaVu Sans'; text-anchor: end" x="34.528438" y="89.838542" transform="rotate(-0 34.528438 89.838542)">10</text>
     </g>
    </g>
    <g id="ytick_4">
     <g id="line2d_21">
      <g>
       <use xlink:href="#mc355024541" x="38.028438" y="58.142546" style="stroke: #000000; stroke-width: 0.8"/>
      </g>
     </g>
     <g id="line2d_22">
      <g>
       <use xlink:href="#mc1fa75ea7b" x="239.471916" y="58.142546" style="stroke: #000000; stroke-width: 0.8"/>
      </g>
     </g>
     <g id="text_12">
      <text style="font-size: 7px; font-family: 'DejaVu Sans'; text-anchor: end" x="34.528438" y="60.801999" transform="rotate(-0 34.528438 60.801999)">15</text>
     </g>
    </g>
    <g id="ytick_5">
     <g id="line2d_23">
      <g>
       <use xlink:href="#mc355024541" x="38.028438" y="29.106003" style="stroke: #000000; stroke-width: 0.8"/>
      </g>
     </g>
     <g id="line2d_24">
      <g>
       <use xlink:href="#mc1fa75ea7b" x="239.471916" y="29.106003" style="stroke: #000000; stroke-width: 0.8"/>
      </g>
     </g>
     <g id="text_13">
      <text style="font-size: 7px; font-family: 'DejaVu Sans'; text-anchor: end" x="34.528438" y="31.765456" transform="rotate(-0 34.528438 31.765456)">20</text>
     </g>
    </g>
    <g id="text_14">
     <text style="font-size: 8px; font-family: 'DejaVu Sans'; text-anchor: middle" x="19.957188" y="79.513043" transform="rotate(-90 19.957188 79.513043)">Top-plate force (N)</text>
    </g>
   </g>
   <g id="line2d_25">
    <path d="M 47.184959 145.252174 
L 104.260611 145.252174 
L 104.565829 144.587122 
L 105.481481 140.724903 
L 105.786698 139.072352 
L 106.397133 133.623675 
L 107.007568 127.038114 
L 107.312785 135.550959 
L 108.533655 126.971329 
L 108.838872 124.933005 
L 109.14409 125.117873 
L 109.449307 145.22901 
L 116.774524 145.228945 
L 117.079742 144.857526 
L 117.384959 143.929227 
L 117.690177 142.348994 
L 118.300611 137.173629 
L 119.216264 126.956146 
L 120.437133 108.516076 
L 120.742351 114.875656 
L 121.352785 106.218995 
L 121.658003 123.1797 
L 121.96322 123.528837 
L 122.268438 137.622334 
L 122.573655 141.272348 
L 122.878872 142.113747 
L 123.18409 142.366675 
L 123.489307 142.450571 
L 123.794524 142.398337 
L 124.099742 141.93502 
L 124.710177 140.43605 
L 125.625829 137.5353 
L 127.151916 131.627063 
L 128.678003 124.988292 
L 129.288437 121.434848 
L 129.593655 130.601564 
L 129.898872 129.921327 
L 131.119742 120.890372 
L 132.951046 105.394148 
L 133.256264 102.638534 
L 133.561481 136.167243 
L 133.866698 140.889004 
L 134.171916 142.018977 
L 134.477133 142.362256 
L 135.087568 142.515712 
L 137.22409 142.507443 
L 139.665829 142.495072 
L 139.971046 142.380916 
L 140.276264 142.105283 
L 140.886698 140.993383 
L 141.191916 140.279262 
L 141.802351 138.013357 
L 143.02322 131.937727 
L 144.24409 124.74344 
L 144.854524 120.340258 
L 146.075394 108.802289 
L 147.296264 95.965807 
L 147.601481 124.219641 
L 148.211916 121.499302 
L 148.517133 122.111094 
L 148.822351 128.762425 
L 149.738003 133.73401 
L 150.348437 135.126211 
L 150.653655 135.46249 
L 150.958872 135.577089 
L 151.26409 135.511713 
L 151.569307 135.245012 
L 152.179742 134.186407 
L 152.790177 132.666399 
L 153.095394 131.60584 
L 153.705829 128.427668 
L 154.926698 120.138765 
L 156.452785 108.477844 
L 157.368438 98.470255 
L 157.978872 90.64301 
L 158.28409 116.467746 
L 158.589307 127.813782 
L 158.894524 124.41299 
L 159.810177 118.250839 
L 160.420611 112.948819 
L 160.725829 121.552816 
L 161.336264 115.719281 
L 162.251916 107.31813 
L 162.862351 99.943146 
L 163.167568 123.27244 
L 166.830177 86.491236 
L 167.745829 74.043828 
L 168.356264 109.060255 
L 168.661481 108.409895 
L 169.271916 103.669596 
L 169.577133 106.870775 
L 169.882351 112.475863 
L 170.798003 103.902883 
L 171.408438 97.976473 
L 171.713655 99.161205 
L 172.018872 118.619144 
L 172.32409 118.881354 
L 172.934524 116.794301 
L 173.239742 115.761986 
L 174.155394 111.062105 
L 174.765829 106.879437 
L 175.681481 98.105886 
L 177.207568 80.543687 
L 179.038872 56.633505 
L 179.34409 72.197278 
L 179.649307 77.534281 
L 179.954524 91.638007 
L 180.259742 113.678849 
L 180.564959 117.769715 
L 180.870177 118.857959 
L 181.175394 117.799628 
L 181.785829 112.818414 
L 183.006698 98.620196 
L 184.838003 73.915469 
L 185.448438 65.218624 
L 185.753655 80.538739 
L 186.058872 81.414655 
L 186.36409 81.185929 
L 186.669307 80.012179 
L 186.974524 99.57323 
L 187.279742 103.153543 
L 187.584959 103.475591 
L 187.890177 102.422067 
L 189.111046 95.782344 
L 190.026698 89.499128 
L 190.331916 110.999207 
L 190.942351 110.096777 
L 191.858003 108.322308 
L 193.38409 103.494101 
L 194.299742 99.611338 
L 195.215394 94.74584 
L 195.825829 90.637354 
L 199.488438 63.230642 
L 199.793655 92.297492 
L 200.098872 94.871014 
L 200.40409 96.106393 
L 201.014524 97.224985 
L 201.319742 97.318331 
L 201.624959 97.027171 
L 201.930177 113.457835 
L 202.540611 121.865484 
L 202.845829 122.437431 
L 203.456264 122.667922 
L 203.761481 122.513025 
L 204.371916 121.799743 
L 205.287568 120.348913 
L 207.729307 116.125986 
L 208.339742 115.436021 
L 208.644959 115.196684 
L 208.950177 115.2986 
L 209.560611 113.79366 
L 210.781481 110.099628 
L 211.697133 106.759851 
L 212.918003 101.314627 
L 214.749307 91.862683 
L 215.970177 83.229248 
L 216.885829 75.553664 
L 218.411916 59.247026 
L 219.022351 51.642716 
L 219.327568 65.527108 
L 219.632785 61.001948 
L 219.938003 64.892195 
L 220.24322 62.672967 
L 220.548438 58.771814 
L 220.853655 71.856395 
L 221.158872 64.339066 
L 221.769307 55.099284 
L 222.074524 80.816572 
L 223.295394 62.257942 
L 224.211046 46.373838 
L 224.516264 59.571748 
L 224.821481 62.158346 
L 225.126698 61.483421 
L 225.737133 56.291664 
L 226.958003 41.270677 
L 227.26322 109.792874 
L 227.568438 103.269416 
L 227.873655 102.381073 
L 229.399742 87.015462 
L 230.315394 77.869079 
L 230.315394 77.869079 
" clip-path="url(#p7f911b8826)" style="fill: none; stroke: #0072b2; stroke-width: 1.1; stroke-linecap: square"/>
   </g>
   <g id="line2d_26">
    <path d="M 47.184959 145.252174 
L 103.344959 145.252174 
L 103.650177 144.644807 
L 104.260611 142.237424 
L 105.786698 134.422754 
L 106.702351 128.958673 
L 107.007568 145.2347 
L 107.312785 145.240559 
L 107.618003 144.816641 
L 108.228438 142.747791 
L 108.838872 140.152689 
L 109.449307 135.826593 
L 110.364959 127.515382 
L 110.670177 137.757074 
L 111.280611 134.053799 
L 111.891046 130.739893 
L 112.196264 145.15543 
L 114.027568 142.006291 
L 114.332785 141.380014 
L 114.94322 139.41117 
L 116.16409 134.298733 
L 116.774524 130.8176 
L 117.079742 128.698861 
L 117.384959 127.507429 
L 117.690177 127.216094 
L 117.995394 130.586197 
L 118.300611 131.996603 
L 118.605829 132.840882 
L 118.911046 133.030445 
L 119.521481 132.512503 
L 119.826698 133.972877 
L 120.131916 136.231587 
L 120.742351 138.484265 
L 121.352785 139.450806 
L 121.96322 139.925525 
L 122.878872 140.250552 
L 123.18409 140.297493 
L 123.489307 140.161904 
L 123.794524 139.832423 
L 124.404959 138.630087 
L 125.320611 135.995624 
L 126.541481 131.943424 
L 127.457133 127.829597 
L 128.067568 123.736267 
L 128.678003 118.330137 
L 128.98322 118.570085 
L 129.288437 119.8015 
L 129.593655 118.443915 
L 130.509307 111.748022 
L 131.730177 100.887862 
L 132.035394 102.470303 
L 132.340611 126.860963 
L 132.645829 130.452685 
L 132.951046 131.356641 
L 133.256264 131.733076 
L 133.561481 131.782393 
L 134.171916 131.46554 
L 137.22409 129.227774 
L 137.834524 128.958162 
L 138.139742 128.666267 
L 138.750177 127.552421 
L 139.055394 126.716938 
L 139.665829 123.774483 
L 140.581481 117.433016 
L 141.802351 106.185632 
L 142.412785 99.737321 
L 142.718003 100.894545 
L 143.02322 119.065042 
L 143.328438 114.207806 
L 143.938872 110.148914 
L 144.24409 112.599738 
L 144.549307 113.227373 
L 144.854524 112.465913 
L 146.685829 105.647621 
L 147.601481 103.260193 
L 149.127568 99.530329 
L 150.653655 96.653721 
L 150.958872 120.314546 
L 151.26409 118.86683 
L 152.484959 108.377265 
L 152.790177 126.011386 
L 153.095394 125.703929 
L 153.400611 125.821323 
L 153.705829 125.760049 
L 154.011046 125.391711 
L 155.231916 122.294131 
L 156.147568 118.536853 
L 156.452785 132.018127 
L 156.758003 129.713507 
L 157.06322 128.886691 
L 157.673655 128.347201 
L 158.28409 128.183599 
L 158.894524 128.196549 
L 159.810177 128.308003 
L 160.420611 127.384635 
L 161.031046 126.957227 
L 161.641481 126.850536 
L 161.946698 126.332055 
L 162.251916 125.495911 
L 162.862351 122.969571 
L 163.472785 119.578493 
L 164.08322 115.072906 
L 165.30409 103.782743 
L 165.914524 97.261101 
L 166.219742 96.515791 
L 166.830177 89.219935 
L 167.135394 100.251947 
L 167.745829 92.94517 
L 169.271916 70.4512 
L 169.577133 93.258475 
L 169.882351 86.960368 
L 170.187568 111.237673 
L 170.798003 114.14681 
L 171.10322 114.385599 
L 171.408438 113.627526 
L 172.018872 109.069696 
L 172.934524 99.285497 
L 173.239742 95.489014 
L 173.544959 102.409133 
L 173.850177 99.509465 
L 174.155394 112.251336 
L 174.460611 110.846973 
L 175.071046 106.092707 
L 176.291916 93.339678 
L 177.818003 74.498935 
L 178.12322 76.864629 
L 178.428438 83.538487 
L 178.733655 98.85339 
L 179.038872 98.046653 
L 179.649307 93.269021 
L 180.564959 83.240729 
L 181.785829 66.905321 
L 182.396264 89.997022 
L 182.701481 108.49842 
L 183.006698 112.912273 
L 183.311916 115.433058 
L 183.922351 117.727157 
L 184.227568 117.922772 
L 184.532785 117.14312 
L 185.14322 114.099874 
L 186.058872 107.389205 
L 186.669307 102.486591 
L 186.974524 99.760069 
L 187.584959 118.207042 
L 187.890177 118.513266 
L 188.500611 115.262604 
L 190.331916 103.064522 
L 190.637133 100.615575 
L 190.942351 99.307154 
L 191.247568 96.895312 
L 191.552785 98.070494 
L 191.858003 100.524299 
L 192.468438 95.522179 
L 193.994524 80.137088 
L 194.910177 70.001256 
L 195.215394 78.004726 
L 195.520611 74.17329 
L 195.825829 80.931592 
L 196.436264 77.723611 
L 197.657133 71.201992 
L 198.878003 63.68586 
L 199.18322 85.770218 
L 199.488438 75.299449 
L 200.098872 70.224268 
L 201.319742 61.89319 
L 201.624959 62.56599 
L 202.540611 57.383159 
L 203.761481 48.967149 
L 204.371916 47.974994 
L 204.982351 43.430194 
L 206.20322 32.615981 
L 206.508438 55.234089 
L 206.813655 64.04866 
L 207.42409 75.072784 
L 207.729307 76.40505 
L 208.034524 76.718099 
L 208.339742 101.991972 
L 208.644959 108.334868 
L 208.950177 110.577993 
L 209.255394 111.036828 
L 209.560611 110.568788 
L 210.171046 108.661544 
L 210.781481 105.956838 
L 211.697133 100.816497 
L 212.002351 98.940876 
L 212.307568 97.978089 
L 212.612785 103.050369 
L 212.918003 104.875195 
L 213.22322 105.692742 
L 213.528438 105.986209 
L 214.138872 105.206065 
L 214.749307 104.135339 
L 215.359742 112.106604 
L 215.664959 112.947532 
L 216.275394 113.745686 
L 216.580611 113.93084 
L 217.191046 114.004385 
L 218.106698 114.011865 
L 219.327568 113.702651 
L 220.548438 113.199905 
L 221.769307 112.56142 
L 222.379742 112.466814 
L 222.990177 112.595084 
L 224.211046 113.219689 
L 224.821481 114.156473 
L 225.431916 115.757202 
L 226.652785 120.001505 
L 228.789307 128.185651 
L 229.094524 128.328109 
L 229.399742 128.226055 
L 229.704959 127.882184 
L 230.010177 127.299535 
L 230.315394 126.411909 
L 230.315394 126.411909 
" clip-path="url(#p7f911b8826)" style="fill: none; stroke-dasharray: 4.07,1.76; stroke-dashoffset: 0; stroke: #d55e00; stroke-width: 1.1"/>
   </g>
   <g id="line2d_27">
    <path d="M 47.184959 145.252174 
L 106.091916 145.220446 
L 106.397133 144.579917 
L 107.007568 142.48335 
L 108.228438 137.198202 
L 109.754524 130.259088 
L 110.364959 134.830707 
L 110.975394 137.121258 
L 111.280611 137.415251 
L 111.585829 137.150138 
L 112.196264 134.530551 
L 113.111916 129.092616 
L 114.332785 121.322412 
L 114.638003 134.50845 
L 114.94322 133.636642 
L 115.248438 133.702278 
L 115.858872 136.342778 
L 116.16409 137.105936 
L 116.469307 136.741964 
L 117.690177 133.779535 
L 120.437133 126.166834 
L 120.742351 126.253547 
L 121.047568 129.331808 
L 121.352785 131.149065 
L 121.658003 132.067625 
L 121.96322 132.338367 
L 122.268438 132.149311 
L 122.878872 130.977647 
L 123.794524 128.290545 
L 124.099742 127.274521 
L 124.404959 127.487962 
L 124.710177 139.901522 
L 125.320611 136.657492 
L 126.236264 130.699572 
L 126.541481 130.266379 
L 126.846698 130.720132 
L 127.151916 128.377431 
L 127.457133 128.971645 
L 128.067568 124.05174 
L 128.372785 123.833471 
L 128.678003 123.458694 
L 128.98322 122.706751 
L 129.288437 122.353024 
L 129.593655 135.576809 
L 131.424959 127.753182 
L 132.645829 122.486505 
L 132.951046 128.865111 
L 133.256264 126.064935 
L 133.561481 132.663714 
L 134.171916 130.193563 
L 135.392785 122.291336 
L 136.308438 115.554501 
L 137.22409 107.987308 
L 137.529307 106.85959 
L 137.834524 116.201168 
L 138.444959 122.025016 
L 138.750177 123.137554 
L 139.055394 123.103999 
L 139.360611 122.43586 
L 139.971046 120.20575 
L 140.276264 118.861152 
L 140.581481 119.361382 
L 140.886698 121.337185 
L 141.802351 129.691891 
L 142.107568 130.520803 
L 142.412785 130.492127 
L 142.718003 129.916482 
L 143.328438 127.91591 
L 144.24409 124.110164 
L 144.854524 120.943509 
L 146.075394 112.523694 
L 146.380611 110.197551 
L 146.685829 112.404252 
L 146.991046 112.122512 
L 147.601481 108.678644 
L 150.348437 88.8473 
L 151.874524 76.470121 
L 152.179742 72.975835 
L 152.484959 89.077231 
L 152.790177 81.826597 
L 153.095394 90.848066 
L 153.400611 83.944151 
L 153.705829 80.29809 
L 154.011046 88.767626 
L 154.316264 83.147492 
L 154.926698 101.166637 
L 155.537133 88.623645 
L 156.758003 73.376556 
L 157.06322 76.742072 
L 157.368438 77.382194 
L 157.673655 74.430711 
L 157.978872 77.127863 
L 158.28409 76.708958 
L 158.589307 79.750937 
L 158.894524 77.254317 
L 159.810177 65.907295 
L 160.115394 75.351053 
L 160.420611 90.795826 
L 160.725829 81.326982 
L 161.031046 75.771955 
L 161.336264 72.428746 
L 161.641481 73.552669 
L 161.946698 69.518093 
L 162.251916 69.974176 
L 162.557133 71.322395 
L 162.862351 72.165599 
L 163.167568 71.41839 
L 163.472785 75.335687 
L 163.778003 81.33261 
L 164.08322 82.84316 
L 164.693655 79.647788 
L 164.998872 77.849531 
L 165.30409 77.56272 
L 165.609307 74.920238 
L 165.914524 76.353307 
L 166.524959 73.211913 
L 166.830177 72.796226 
L 167.135394 95.524177 
L 167.440611 88.175832 
L 167.745829 94.069178 
L 168.051046 102.861244 
L 168.356264 99.186342 
L 169.577133 89.887435 
L 169.882351 95.722321 
L 170.492785 90.161261 
L 170.798003 87.651317 
L 171.10322 89.654741 
L 171.408438 85.46552 
L 172.32409 78.114803 
L 172.934524 76.987111 
L 174.460611 68.068717 
L 174.765829 70.558693 
L 175.071046 69.741338 
L 175.376264 69.832913 
L 175.681481 70.11365 
L 176.291916 62.751865 
L 178.12322 36.376707 
L 178.428438 53.448522 
L 178.733655 59.295366 
L 179.34409 54.276545 
L 180.259742 43.704555 
L 180.564959 45.26193 
L 180.870177 67.490599 
L 181.175394 63.595132 
L 181.480611 61.719964 
L 181.785829 62.542151 
L 182.091046 75.672586 
L 182.396264 79.265568 
L 182.701481 79.341475 
L 183.311916 74.701964 
L 183.617133 59.513349 
L 183.922351 75.695229 
L 184.227568 71.330583 
L 184.532785 71.50381 
L 184.838003 81.451903 
L 185.14322 84.953652 
L 185.448438 103.792364 
L 185.753655 104.383971 
L 186.058872 106.035731 
L 186.36409 105.536889 
L 186.974524 103.248015 
L 187.584959 99.075073 
L 189.111046 85.20199 
L 189.416264 82.487451 
L 190.026698 79.686807 
L 190.637133 72.646311 
L 191.552785 60.671083 
L 191.858003 59.196439 
L 192.16322 69.335343 
L 192.468438 62.821297 
L 192.773655 68.549446 
L 193.689307 52.114118 
L 193.994524 81.148013 
L 194.604959 72.189659 
L 195.215394 97.523545 
L 195.825829 86.781143 
L 196.131046 82.348906 
L 196.436264 87.775438 
L 199.18322 42.450821 
L 199.488438 44.77375 
L 199.793655 38.248513 
L 200.098872 43.828187 
L 200.40409 34.353801 
L 200.709307 59.39635 
L 201.014524 70.719161 
L 201.319742 63.465031 
L 201.624959 60.934578 
L 201.930177 62.403589 
L 202.235394 65.16321 
L 202.845829 60.113488 
L 203.151046 56.420429 
L 203.456264 58.232873 
L 204.066698 84.564359 
L 204.677133 77.492852 
L 204.982351 81.900024 
L 205.287568 84.079107 
L 205.592785 82.229229 
L 206.20322 76.918753 
L 206.508438 75.74768 
L 206.813655 76.028156 
L 207.118872 75.76059 
L 207.42409 73.346811 
L 207.729307 74.592555 
L 208.034524 74.51505 
L 208.339742 73.000446 
L 209.255394 66.680433 
L 209.560611 65.427414 
L 209.865829 66.249647 
L 210.171046 64.308787 
L 211.086698 54.458337 
L 212.307568 38.208007 
L 212.612785 50.846615 
L 212.918003 45.840018 
L 213.528438 41.21617 
L 213.833655 53.565173 
L 214.138872 57.979331 
L 214.44409 59.490196 
L 214.749307 60.228159 
L 215.054524 60.530482 
L 215.359742 58.808267 
L 216.580611 46.417514 
L 217.496264 37.235689 
L 217.801481 43.923136 
L 218.106698 44.877939 
L 218.411916 41.916014 
L 218.717133 37.477639 
L 219.022351 50.817764 
L 219.327568 52.776035 
L 219.632785 52.663252 
L 219.938003 55.641106 
L 220.24322 55.721398 
L 220.548438 54.822118 
L 221.769307 41.322124 
L 222.074524 50.436846 
L 222.379742 54.357778 
L 222.684959 55.760156 
L 222.990177 54.537229 
L 223.295394 52.271096 
L 223.600611 52.154409 
L 223.905829 58.198435 
L 224.211046 51.372537 
L 224.821481 43.067307 
L 225.126698 40.504031 
L 225.737133 32.008786 
L 226.042351 26.920806 
L 226.347568 27.042318 
L 226.652785 25.566362 
L 226.958003 22.483331 
L 227.26322 23.945931 
L 227.873655 13.773913 
L 228.178872 28.373533 
L 228.48409 29.762879 
L 228.789307 30.11669 
L 229.094524 36.328274 
L 229.399742 35.740493 
L 230.010177 30.421678 
L 230.315394 35.695788 
L 230.315394 35.695788 
" clip-path="url(#p7f911b8826)" style="fill: none; stroke-dasharray: 7.04,1.76,1.1,1.76; stroke-dashoffset: 0; stroke: #009e73; stroke-width: 1.1"/>
   </g>
   <g id="patch_3">
    <path d="M 38.028438 151.826087 
L 38.028438 7.2 
" style="fill: none; stroke: #000000; stroke-width: 0.8; stroke-linejoin: miter; stroke-linecap: square"/>
   </g>
   <g id="patch_4">
    <path d="M 239.471916 151.826087 
L 239.471916 7.2 
" style="fill: none; stroke: #000000; stroke-width: 0.8; stroke-linejoin: miter; stroke-linecap: square"/>
   </g>
   <g id="patch_5">
    <path d="M 38.028437 151.826087 
L 239.471916 151.826087 
" style="fill: none; stroke: #000000; stroke-width: 0.8; stroke-linejoin: miter; stroke-linecap: square"/>
   </g>
   <g id="patch_6">
    <path d="M 38.028437 7.2 
L 239.471916 7.2 
" style="fill: none; stroke: #000000; stroke-width: 0.8; stroke-linejoin: miter; stroke-linecap: square"/>
   </g>
   <g id="text_15">
    <text style="font-weight: 700; font-size: 8px; font-family: 'DejaVu Sans'; text-anchor: start" x="42.057307" y="19.063793" transform="rotate(-0 42.057307 19.063793)">a</text>
   </g>
   <g id="legend_1">
    <g id="line2d_28">
     <path d="M 44.328437 68.719918 
L 51.328437 68.719918 
L 58.328437 68.719918 
" style="fill: none; stroke: #0072b2; stroke-width: 1.1; stroke-linecap: square"/>
    </g>
    <g id="text_16">
     <text style="font-size: 7px; font-family: 'DejaVu Sans'; text-anchor: start" x="63.928438" y="71.169918" transform="rotate(-0 63.928438 71.169918)">250 subparticles</text>
    </g>
    <g id="line2d_29">
     <path d="M 44.328437 78.994606 
L 51.328437 78.994606 
L 58.328437 78.994606 
" style="fill: none; stroke-dasharray: 4.07,1.76; stroke-dashoffset: 0; stroke: #d55e00; stroke-width: 1.1"/>
    </g>
    <g id="text_17">
     <text style="font-size: 7px; font-family: 'DejaVu Sans'; text-anchor: start" x="63.928438" y="81.444606" transform="rotate(-0 63.928438 81.444606)">500 subparticles</text>
    </g>
    <g id="line2d_30">
     <path d="M 44.328437 89.269293 
L 51.328437 89.269293 
L 58.328437 89.269293 
" style="fill: none; stroke-dasharray: 7.04,1.76,1.1,1.76; stroke-dashoffset: 0; stroke: #009e73; stroke-width: 1.1"/>
    </g>
    <g id="text_18">
     <text style="font-size: 7px; font-family: 'DejaVu Sans'; text-anchor: start" x="63.928438" y="91.719293" transform="rotate(-0 63.928438 91.719293)">1000 subparticles</text>
    </g>
   </g>
  </g>
  <g id="axes_2">
   <g id="patch_7">
    <path d="M 299.904959 151.826087 
L 501.348438 151.826087 
L 501.348438 7.2 
L 299.904959 7.2 
z
" style="fill: #ffffff"/>
   </g>
   <g id="matplotlib.axis_3">
    <g id="xtick_8">
     <g id="line2d_31">
      <g>
       <use xlink:href="#m1f7ffcbc4f" x="321.270177" y="151.826087" style="stroke: #000000; stroke-width: 0.8"/>
      </g>
     </g>
     <g id="line2d_32">
      <g>
       <use xlink:href="#mca75214ef8" x="321.270177" y="7.2" style="stroke: #000000; stroke-width: 0.8"/>
      </g>
     </g>
     <g id="text_19">
      <text style="font-size: 7px; font-family: 'DejaVu Sans'; text-anchor: middle" x="321.270177" y="160.644993" transform="rotate(-0 321.270177 160.644993)">300</text>
     </g>
    </g>
    <g id="xtick_9">
     <g id="line2d_33">
      <g>
       <use xlink:href="#m1f7ffcbc4f" x="345.687568" y="151.826087" style="stroke: #000000; stroke-width: 0.8"/>
      </g>
     </g>
     <g id="line2d_34">
      <g>
       <use xlink:href="#mca75214ef8" x="345.687568" y="7.2" style="stroke: #000000; stroke-width: 0.8"/>
      </g>
     </g>
     <g id="text_20">
      <text style="font-size: 7px; font-family: 'DejaVu Sans'; text-anchor: middle" x="345.687568" y="160.644993" transform="rotate(-0 345.687568 160.644993)">400</text>
     </g>
    </g>
    <g id="xtick_10">
     <g id="line2d_35">
      <g>
       <use xlink:href="#m1f7ffcbc4f" x="370.104959" y="151.826087" style="stroke: #000000; stroke-width: 0.8"/>
      </g>
     </g>
     <g id="line2d_36">
      <g>
       <use xlink:href="#mca75214ef8" x="370.104959" y="7.2" style="stroke: #000000; stroke-width: 0.8"/>
      </g>
     </g>
     <g id="text_21">
      <text style="font-size: 7px; font-family: 'DejaVu Sans'; text-anchor: middle" x="370.104959" y="160.644993" transform="rotate(-0 370.104959 160.644993)">500</text>
     </g>
    </g>
    <g id="xtick_11">
     <g id="line2d_37">
      <g>
       <use xlink:href="#m1f7ffcbc4f" x="394.522351" y="151.826087" style="stroke: #000000; stroke-width: 0.8"/>
      </g>
     </g>
     <g id="line2d_38">
      <g>
       <use xlink:href="#mca75214ef8" x="394.522351" y="7.2" style="stroke: #000000; stroke-width: 0.8"/>
      </g>
     </g>
     <g id="text_22">
      <text style="font-size: 7px; font-family: 'DejaVu Sans'; text-anchor: middle" x="394.522351" y="160.644993" transform="rotate(-0 394.522351 160.644993)">600</text>
     </g>
    </g>
    <g id="xtick_12">
     <g id="line2d_39">
      <g>
       <use xlink:href="#m1f7ffcbc4f" x="418.939742" y="151.826087" style="stroke: #000000; stroke-width: 0.8"/>
      </g>
     </g>
     <g id="line2d_40">
      <g>
       <use xlink:href="#mca75214ef8" x="418.939742" y="7.2" style="stroke: #000000; stroke-width: 0.8"/>
      </g>
     </g>
     <g id="text_23">
      <text style="font-size: 7px; font-family: 'DejaVu Sans'; text-anchor: middle" x="418.939742" y="160.644993" transform="rotate(-0 418.939742 160.644993)">700</text>
     </g>
    </g>
    <g id="xtick_13">
     <g id="line2d_41">
      <g>
       <use xlink:href="#m1f7ffcbc4f" x="443.357133" y="151.826087" style="stroke: #000000; stroke-width: 0.8"/>
      </g>
     </g>
     <g id="line2d_42">
      <g>
       <use xlink:href="#mca75214ef8" x="443.357133" y="7.2" style="stroke: #000000; stroke-width: 0.8"/>
      </g>
     </g>
     <g id="text_24">
      <text style="font-size: 7px; font-family: 'DejaVu Sans'; text-anchor: middle" x="443.357133" y="160.644993" transform="rotate(-0 443.357133 160.644993)">800</text>
     </g>
    </g>
    <g id="xtick_14">
     <g id="line2d_43">
      <g>
       <use xlink:href="#m1f7ffcbc4f" x="467.774524" y="151.826087" style="stroke: #000000; stroke-width: 0.8"/>
      </g>
     </g>
     <g id="line2d_44">
      <g>
       <use xlink:href="#mca75214ef8" x="467.774524" y="7.2" style="stroke: #000000; stroke-width: 0.8"/>
      </g>
     </g>
     <g id="text_25">
      <text style="font-size: 7px; font-family: 'DejaVu Sans'; text-anchor: middle" x="467.774524" y="160.644993" transform="rotate(-0 467.774524 160.644993)">900</text>
     </g>
    </g>
    <g id="xtick_15">
     <g id="line2d_45">
      <g>
       <use xlink:href="#m1f7ffcbc4f" x="492.191916" y="151.826087" style="stroke: #000000; stroke-width: 0.8"/>
      </g>
     </g>
     <g id="line2d_46">
      <g>
       <use xlink:href="#mca75214ef8" x="492.191916" y="7.2" style="stroke: #000000; stroke-width: 0.8"/>
      </g>
     </g>
     <g id="text_26">
      <text style="font-size: 7px; font-family: 'DejaVu Sans'; text-anchor: middle" x="492.191916" y="160.644993" transform="rotate(-0 492.191916 160.644993)">1000</text>
     </g>
    </g>
    <g id="text_27">
     <text style="font-size: 8px; font-family: 'DejaVu Sans'; text-anchor: middle" x="400.626698" y="172.179524" transform="rotate(-0 400.626698 172.179524)">Subparticles per mother pebble</text>
    </g>
   </g>
   <g id="matplotlib.axis_4">
    <g id="ytick_6">
     <g id="line2d_47">
      <g>
       <use xlink:href="#mc355024541" x="299.904959" y="130.797971" style="stroke: #000000; stroke-width: 0.8"/>
      </g>
     </g>
     <g id="line2d_48">
      <g>
       <use xlink:href="#mc1fa75ea7b" x="501.348438" y="130.797971" style="stroke: #000000; stroke-width: 0.8"/>
      </g>
     </g>
     <g id="text_28">
      <text style="font-size: 7px; font-family: 'DejaVu Sans'; text-anchor: end" x="296.404959" y="133.457424" transform="rotate(-0 296.404959 133.457424)">0.95</text>
     </g>
    </g>
    <g id="ytick_7">
     <g id="line2d_49">
      <g>
       <use xlink:href="#mc355024541" x="299.904959" y="103.868964" style="stroke: #000000; stroke-width: 0.8"/>
      </g>
     </g>
     <g id="line2d_50">
      <g>
       <use xlink:href="#mc1fa75ea7b" x="501.348438" y="103.868964" style="stroke: #000000; stroke-width: 0.8"/>
      </g>
     </g>
     <g id="text_29">
      <text style="font-size: 7px; font-family: 'DejaVu Sans'; text-anchor: end" x="296.404959" y="106.528417" transform="rotate(-0 296.404959 106.528417)">1.00</text>
     </g>
    </g>
    <g id="ytick_8">
     <g id="line2d_51">
      <g>
       <use xlink:href="#mc355024541" x="299.904959" y="76.939957" style="stroke: #000000; stroke-width: 0.8"/>
      </g>
     </g>
     <g id="line2d_52">
      <g>
       <use xlink:href="#mc1fa75ea7b" x="501.348438" y="76.939957" style="stroke: #000000; stroke-width: 0.8"/>
      </g>
     </g>
     <g id="text_30">
      <text style="font-size: 7px; font-family: 'DejaVu Sans'; text-anchor: end" x="296.404959" y="79.59941" transform="rotate(-0 296.404959 79.59941)">1.05</text>
     </g>
    </g>
    <g id="ytick_9">
     <g id="line2d_53">
      <g>
       <use xlink:href="#mc355024541" x="299.904959" y="50.010951" style="stroke: #000000; stroke-width: 0.8"/>
      </g>
     </g>
     <g id="line2d_54">
      <g>
       <use xlink:href="#mc1fa75ea7b" x="501.348438" y="50.010951" style="stroke: #000000; stroke-width: 0.8"/>
      </g>
     </g>
     <g id="text_31">
      <text style="font-size: 7px; font-family: 'DejaVu Sans'; text-anchor: end" x="296.404959" y="52.670404" transform="rotate(-0 296.404959 52.670404)">1.10</text>
     </g>
    </g>
    <g id="ytick_10">
     <g id="line2d_55">
      <g>
       <use xlink:href="#mc355024541" x="299.904959" y="23.081944" style="stroke: #000000; stroke-width: 0.8"/>
      </g>
     </g>
     <g id="line2d_56">
      <g>
       <use xlink:href="#mc1fa75ea7b" x="501.348438" y="23.081944" style="stroke: #000000; stroke-width: 0.8"/>
      </g>
     </g>
     <g id="text_32">
      <text style="font-size: 7px; font-family: 'DejaVu Sans'; text-anchor: end" x="296.404959" y="25.741397" transform="rotate(-0 296.404959 25.741397)">1.15</text>
     </g>
    </g>
    <g id="text_33">
     <text style="font-size: 8px; font-family: 'DejaVu Sans'; text-anchor: middle" x="275.155272" y="79.513043" transform="rotate(-90 275.155272 79.513043)">Metric normalized by 500-case value</text>
    </g>
   </g>
   <g id="line2d_57">
    <path d="M 309.061481 145.252174 
L 370.104959 103.868964 
L 492.191916 13.773913 
" clip-path="url(#p074ddb2f84)" style="fill: none; stroke: #0072b2; stroke-width: 1.1; stroke-linecap: square"/>
    <defs>
     <path id="m94b9cf419d" d="M 0 3 
C 0.795609 3 1.55874 2.683901 2.12132 2.12132 
C 2.683901 1.55874 3 0.795609 3 0 
C 3 -0.795609 2.683901 -1.55874 2.12132 -2.12132 
C 1.55874 -2.683901 0.795609 -3 0 -3 
C -0.795609 -3 -1.55874 -2.683901 -2.12132 -2.12132 
C -2.683901 -1.55874 -3 -0.795609 -3 0 
C -3 0.795609 -2.683901 1.55874 -2.12132 2.12132 
C -1.55874 2.683901 -0.795609 3 0 3 
z
" style="stroke: #0072b2"/>
    </defs>
    <g clip-path="url(#p074ddb2f84)">
     <use xlink:href="#m94b9cf419d" x="309.061481" y="145.252174" style="fill: #0072b2; stroke: #0072b2"/>
     <use xlink:href="#m94b9cf419d" x="370.104959" y="103.868964" style="fill: #0072b2; stroke: #0072b2"/>
     <use xlink:href="#m94b9cf419d" x="492.191916" y="13.773913" style="fill: #0072b2; stroke: #0072b2"/>
    </g>
   </g>
   <g id="line2d_58">
    <path d="M 309.061481 101.034332 
L 370.104959 103.868964 
L 492.191916 95.365067 
" clip-path="url(#p074ddb2f84)" style="fill: none; stroke-dasharray: 4.07,1.76; stroke-dashoffset: 0; stroke: #d55e00; stroke-width: 1.1"/>
    <defs>
     <path id="mcd2a104926" d="M -3 3 
L 3 3 
L 3 -3 
L -3 -3 
z
" style="stroke: #d55e00; stroke-linejoin: miter"/>
    </defs>
    <g clip-path="url(#p074ddb2f84)">
     <use xlink:href="#mcd2a104926" x="309.061481" y="101.034332" style="fill: #d55e00; stroke: #d55e00; stroke-linejoin: miter"/>
     <use xlink:href="#mcd2a104926" x="370.104959" y="103.868964" style="fill: #d55e00; stroke: #d55e00; stroke-linejoin: miter"/>
     <use xlink:href="#mcd2a104926" x="492.191916" y="95.365067" style="fill: #d55e00; stroke: #d55e00; stroke-linejoin: miter"/>
    </g>
   </g>
   <g id="line2d_59">
    <path d="M 299.904959 103.868964 
L 501.348438 103.868964 
" clip-path="url(#p074ddb2f84)" style="fill: none; stroke-dasharray: 0.7,1.155; stroke-dashoffset: 0; stroke: #777777; stroke-width: 0.7"/>
   </g>
   <g id="patch_8">
    <path d="M 299.904959 151.826087 
L 299.904959 7.2 
" style="fill: none; stroke: #000000; stroke-width: 0.8; stroke-linejoin: miter; stroke-linecap: square"/>
   </g>
   <g id="patch_9">
    <path d="M 501.348438 151.826087 
L 501.348438 7.2 
" style="fill: none; stroke: #000000; stroke-width: 0.8; stroke-linejoin: miter; stroke-linecap: square"/>
   </g>
   <g id="patch_10">
    <path d="M 299.904959 151.826087 
L 501.348438 151.826087 
" style="fill: none; stroke: #000000; stroke-width: 0.8; stroke-linejoin: miter; stroke-linecap: square"/>
   </g>
   <g id="patch_11">
    <path d="M 299.904959 7.2 
L 501.348438 7.2 
" style="fill: none; stroke: #000000; stroke-width: 0.8; stroke-linejoin: miter; stroke-linecap: square"/>
   </g>
   <g id="text_34">
    <text style="font-weight: 700; font-size: 8px; font-family: 'DejaVu Sans'; text-anchor: start" x="303.933829" y="19.063793" transform="rotate(-0 303.933829 19.063793)">b</text>
   </g>
   <g id="legend_2">
    <g id="line2d_60">
     <path d="M 328.844375 131.345618 
L 335.844375 131.345618 
L 342.844375 131.345618 
" style="fill: none; stroke: #0072b2; stroke-width: 1.1; stroke-linecap: square"/>
     <g>
      <use xlink:href="#m94b9cf419d" x="335.844375" y="131.345618" style="fill: #0072b2; stroke: #0072b2"/>
     </g>
    </g>
    <g id="text_35">
     <text style="font-size: 7px; font-family: 'DejaVu Sans'; text-anchor: start" x="348.444375" y="133.795618" transform="rotate(-0 348.444375 133.795618)">Peak load / 500-case value</text>
    </g>
    <g id="line2d_61">
     <path d="M 328.844375 141.620306 
L 335.844375 141.620306 
L 342.844375 141.620306 
" style="fill: none; stroke-dasharray: 4.07,1.76; stroke-dashoffset: 0; stroke: #d55e00; stroke-width: 1.1"/>
     <g>
      <use xlink:href="#mcd2a104926" x="335.844375" y="141.620306" style="fill: #d55e00; stroke: #d55e00; stroke-linejoin: miter"/>
     </g>
    </g>
    <g id="text_36">
     <text style="font-size: 7px; font-family: 'DejaVu Sans'; text-anchor: start" x="348.444375" y="144.070306" transform="rotate(-0 348.444375 144.070306)">First-break displacement / 500-case value</text>
    </g>
   </g>
  </g>
  <g id="axes_3">
   <g id="patch_12">
    <path d="M 38.028438 339.84 
L 239.471916 339.84 
L 239.471916 195.213913 
L 38.028438 195.213913 
z
" style="fill: #ffffff"/>
   </g>
   <g id="matplotlib.axis_5">
    <g id="xtick_16">
     <g id="line2d_62">
      <g>
       <use xlink:href="#m1f7ffcbc4f" x="47.184959" y="339.84" style="stroke: #000000; stroke-width: 0.8"/>
      </g>
     </g>
     <g id="line2d_63">
      <g>
       <use xlink:href="#mca75214ef8" x="47.184959" y="195.213913" style="stroke: #000000; stroke-width: 0.8"/>
      </g>
     </g>
     <g id="text_37">
      <text style="font-size: 7px; font-family: 'DejaVu Sans'; text-anchor: middle" x="47.184959" y="348.658906" transform="rotate(-0 47.184959 348.658906)">0.00</text>
     </g>
    </g>
    <g id="xtick_17">
     <g id="line2d_64">
      <g>
       <use xlink:href="#m1f7ffcbc4f" x="77.706698" y="339.84" style="stroke: #000000; stroke-width: 0.8"/>
      </g>
     </g>
     <g id="line2d_65">
      <g>
       <use xlink:href="#mca75214ef8" x="77.706698" y="195.213913" style="stroke: #000000; stroke-width: 0.8"/>
      </g>
     </g>
     <g id="text_38">
      <text style="font-size: 7px; font-family: 'DejaVu Sans'; text-anchor: middle" x="77.706698" y="348.658906" transform="rotate(-0 77.706698 348.658906)">0.05</text>
     </g>
    </g>
    <g id="xtick_18">
     <g id="line2d_66">
      <g>
       <use xlink:href="#m1f7ffcbc4f" x="108.228438" y="339.84" style="stroke: #000000; stroke-width: 0.8"/>
      </g>
     </g>
     <g id="line2d_67">
      <g>
       <use xlink:href="#mca75214ef8" x="108.228438" y="195.213913" style="stroke: #000000; stroke-width: 0.8"/>
      </g>
     </g>
     <g id="text_39">
      <text style="font-size: 7px; font-family: 'DejaVu Sans'; text-anchor: middle" x="108.228438" y="348.658906" transform="rotate(-0 108.228438 348.658906)">0.10</text>
     </g>
    </g>
    <g id="xtick_19">
     <g id="line2d_68">
      <g>
       <use xlink:href="#m1f7ffcbc4f" x="138.750177" y="339.84" style="stroke: #000000; stroke-width: 0.8"/>
      </g>
     </g>
     <g id="line2d_69">
      <g>
       <use xlink:href="#mca75214ef8" x="138.750177" y="195.213913" style="stroke: #000000; stroke-width: 0.8"/>
      </g>
     </g>
     <g id="text_40">
      <text style="font-size: 7px; font-family: 'DejaVu Sans'; text-anchor: middle" x="138.750177" y="348.658906" transform="rotate(-0 138.750177 348.658906)">0.15</text>
     </g>
    </g>
    <g id="xtick_20">
     <g id="line2d_70">
      <g>
       <use xlink:href="#m1f7ffcbc4f" x="169.271916" y="339.84" style="stroke: #000000; stroke-width: 0.8"/>
      </g>
     </g>
     <g id="line2d_71">
      <g>
       <use xlink:href="#mca75214ef8" x="169.271916" y="195.213913" style="stroke: #000000; stroke-width: 0.8"/>
      </g>
     </g>
     <g id="text_41">
      <text style="font-size: 7px; font-family: 'DejaVu Sans'; text-anchor: middle" x="169.271916" y="348.658906" transform="rotate(-0 169.271916 348.658906)">0.20</text>
     </g>
    </g>
    <g id="xtick_21">
     <g id="line2d_72">
      <g>
       <use xlink:href="#m1f7ffcbc4f" x="199.793655" y="339.84" style="stroke: #000000; stroke-width: 0.8"/>
      </g>
     </g>
     <g id="line2d_73">
      <g>
       <use xlink:href="#mca75214ef8" x="199.793655" y="195.213913" style="stroke: #000000; stroke-width: 0.8"/>
      </g>
     </g>
     <g id="text_42">
      <text style="font-size: 7px; font-family: 'DejaVu Sans'; text-anchor: middle" x="199.793655" y="348.658906" transform="rotate(-0 199.793655 348.658906)">0.25</text>
     </g>
    </g>
    <g id="xtick_22">
     <g id="line2d_74">
      <g>
       <use xlink:href="#m1f7ffcbc4f" x="230.315394" y="339.84" style="stroke: #000000; stroke-width: 0.8"/>
      </g>
     </g>
     <g id="line2d_75">
      <g>
       <use xlink:href="#mca75214ef8" x="230.315394" y="195.213913" style="stroke: #000000; stroke-width: 0.8"/>
      </g>
     </g>
     <g id="text_43">
      <text style="font-size: 7px; font-family: 'DejaVu Sans'; text-anchor: middle" x="230.315394" y="348.658906" transform="rotate(-0 230.315394 348.658906)">0.30</text>
     </g>
    </g>
    <g id="text_44">
     <text style="font-size: 8px; font-family: 'DejaVu Sans'; text-anchor: middle" x="138.750177" y="360.193437" transform="rotate(-0 138.750177 360.193437)">Top-plate displacement (mm)</text>
    </g>
   </g>
   <g id="matplotlib.axis_6">
    <g id="ytick_11">
     <g id="line2d_76">
      <g>
       <use xlink:href="#mc355024541" x="38.028438" y="333.266087" style="stroke: #000000; stroke-width: 0.8"/>
      </g>
     </g>
     <g id="line2d_77">
      <g>
       <use xlink:href="#mc1fa75ea7b" x="239.471916" y="333.266087" style="stroke: #000000; stroke-width: 0.8"/>
      </g>
     </g>
     <g id="text_45">
      <text style="font-size: 7px; font-family: 'DejaVu Sans'; text-anchor: end" x="34.528438" y="335.92554" transform="rotate(-0 34.528438 335.92554)">0.0</text>
     </g>
    </g>
    <g id="ytick_12">
     <g id="line2d_78">
      <g>
       <use xlink:href="#mc355024541" x="38.028438" y="316.319162" style="stroke: #000000; stroke-width: 0.8"/>
      </g>
     </g>
     <g id="line2d_79">
      <g>
       <use xlink:href="#mc1fa75ea7b" x="239.471916" y="316.319162" style="stroke: #000000; stroke-width: 0.8"/>
      </g>
     </g>
     <g id="text_46">
      <text style="font-size: 7px; font-family: 'DejaVu Sans'; text-anchor: end" x="34.528438" y="318.978615" transform="rotate(-0 34.528438 318.978615)">2.5</text>
     </g>
    </g>
    <g id="ytick_13">
     <g id="line2d_80">
      <g>
       <use xlink:href="#mc355024541" x="38.028438" y="299.372238" style="stroke: #000000; stroke-width: 0.8"/>
      </g>
     </g>
     <g id="line2d_81">
      <g>
       <use xlink:href="#mc1fa75ea7b" x="239.471916" y="299.372238" style="stroke: #000000; stroke-width: 0.8"/>
      </g>
     </g>
     <g id="text_47">
      <text style="font-size: 7px; font-family: 'DejaVu Sans'; text-anchor: end" x="34.528438" y="302.031691" transform="rotate(-0 34.528438 302.031691)">5.0</text>
     </g>
    </g>
    <g id="ytick_14">
     <g id="line2d_82">
      <g>
       <use xlink:href="#mc355024541" x="38.028438" y="282.425313" style="stroke: #000000; stroke-width: 0.8"/>
      </g>
     </g>
     <g id="line2d_83">
      <g>
       <use xlink:href="#mc1fa75ea7b" x="239.471916" y="282.425313" style="stroke: #000000; stroke-width: 0.8"/>
      </g>
     </g>
     <g id="text_48">
      <text style="font-size: 7px; font-family: 'DejaVu Sans'; text-anchor: end" x="34.528438" y="285.084766" transform="rotate(-0 34.528438 285.084766)">7.5</text>
     </g>
    </g>
    <g id="ytick_15">
     <g id="line2d_84">
      <g>
       <use xlink:href="#mc355024541" x="38.028438" y="265.478389" style="stroke: #000000; stroke-width: 0.8"/>
      </g>
     </g>
     <g id="line2d_85">
      <g>
       <use xlink:href="#mc1fa75ea7b" x="239.471916" y="265.478389" style="stroke: #000000; stroke-width: 0.8"/>
      </g>
     </g>
     <g id="text_49">
      <text style="font-size: 7px; font-family: 'DejaVu Sans'; text-anchor: end" x="34.528438" y="268.137842" transform="rotate(-0 34.528438 268.137842)">10.0</text>
     </g>
    </g>
    <g id="ytick_16">
     <g id="line2d_86">
      <g>
       <use xlink:href="#mc355024541" x="38.028438" y="248.531464" style="stroke: #000000; stroke-width: 0.8"/>
      </g>
     </g>
     <g id="line2d_87">
      <g>
       <use xlink:href="#mc1fa75ea7b" x="239.471916" y="248.531464" style="stroke: #000000; stroke-width: 0.8"/>
      </g>
     </g>
     <g id="text_50">
      <text style="font-size: 7px; font-family: 'DejaVu Sans'; text-anchor: end" x="34.528438" y="251.190917" transform="rotate(-0 34.528438 251.190917)">12.5</text>
     </g>
    </g>
    <g id="ytick_17">
     <g id="line2d_88">
      <g>
       <use xlink:href="#mc355024541" x="38.028438" y="231.584539" style="stroke: #000000; stroke-width: 0.8"/>
      </g>
     </g>
     <g id="line2d_89">
      <g>
       <use xlink:href="#mc1fa75ea7b" x="239.471916" y="231.584539" style="stroke: #000000; stroke-width: 0.8"/>
      </g>
     </g>
     <g id="text_51">
      <text style="font-size: 7px; font-family: 'DejaVu Sans'; text-anchor: end" x="34.528438" y="234.243992" transform="rotate(-0 34.528438 234.243992)">15.0</text>
     </g>
    </g>
    <g id="ytick_18">
     <g id="line2d_90">
      <g>
       <use xlink:href="#mc355024541" x="38.028438" y="214.637615" style="stroke: #000000; stroke-width: 0.8"/>
      </g>
     </g>
     <g id="line2d_91">
      <g>
       <use xlink:href="#mc1fa75ea7b" x="239.471916" y="214.637615" style="stroke: #000000; stroke-width: 0.8"/>
      </g>
     </g>
     <g id="text_52">
      <text style="font-size: 7px; font-family: 'DejaVu Sans'; text-anchor: end" x="34.528438" y="217.297068" transform="rotate(-0 34.528438 217.297068)">17.5</text>
     </g>
    </g>
    <g id="ytick_19">
     <g id="line2d_92">
      <g>
       <use xlink:href="#mc355024541" x="38.028438" y="197.69069" style="stroke: #000000; stroke-width: 0.8"/>
      </g>
     </g>
     <g id="line2d_93">
      <g>
       <use xlink:href="#mc1fa75ea7b" x="239.471916" y="197.69069" style="stroke: #000000; stroke-width: 0.8"/>
      </g>
     </g>
     <g id="text_53">
      <text style="font-size: 7px; font-family: 'DejaVu Sans'; text-anchor: end" x="34.528438" y="200.350143" transform="rotate(-0 34.528438 200.350143)">20.0</text>
     </g>
    </g>
    <g id="text_54">
     <text style="font-size: 8px; font-family: 'DejaVu Sans'; text-anchor: middle" x="13.27875" y="267.526957" transform="rotate(-90 13.27875 267.526957)">Top-plate force (N)</text>
    </g>
   </g>
   <g id="line2d_94">
    <path d="M 47.184959 333.266087 
L 103.344959 333.266087 
L 103.650177 332.557118 
L 104.260611 329.747022 
L 105.786698 320.625094 
L 106.702351 314.246968 
L 107.007568 333.24569 
L 107.312785 333.252529 
L 107.618003 332.757697 
L 108.228438 330.342764 
L 108.838872 327.313547 
L 109.449307 322.263771 
L 110.364959 312.562239 
L 110.670177 324.517188 
L 111.280611 320.194419 
L 111.891046 316.326155 
L 112.196264 333.15316 
L 114.027568 329.477224 
L 114.332785 328.746183 
L 114.94322 326.447985 
L 116.16409 320.480327 
L 116.774524 316.416861 
L 117.079742 313.943694 
L 117.384959 312.552956 
L 117.690177 312.212886 
L 117.995394 316.146748 
L 118.300611 317.79309 
L 118.605829 318.778603 
L 118.911046 318.999876 
L 119.521481 318.395291 
L 119.826698 320.09996 
L 120.131916 322.736514 
L 120.437133 324.350881 
L 121.047568 326.035911 
L 121.658003 326.817184 
L 122.268438 327.215689 
L 123.18409 327.482574 
L 123.489307 327.324304 
L 123.794524 326.939706 
L 124.404959 325.53624 
L 125.320611 322.461078 
L 126.541481 317.731015 
L 127.457133 312.929017 
L 128.067568 308.150945 
L 128.678003 301.840464 
L 128.98322 302.120551 
L 129.288437 303.557959 
L 129.593655 301.973275 
L 130.509307 294.157276 
L 131.730177 281.4804 
L 132.035394 283.327557 
L 132.340611 311.798348 
L 132.645829 315.990902 
L 132.951046 317.046074 
L 133.256264 317.48548 
L 133.561481 317.543047 
L 134.171916 317.17319 
L 137.22409 314.561084 
L 137.834524 314.246372 
L 138.139742 313.905647 
L 138.750177 312.605474 
L 139.055394 311.63023 
L 139.665829 308.195553 
L 140.581481 300.79327 
L 141.802351 287.664395 
L 142.412785 280.137394 
L 142.718003 281.488202 
L 143.02322 302.698306 
L 143.328438 297.028538 
L 143.938872 292.290664 
L 144.24409 295.151469 
L 144.549307 295.884096 
L 144.854524 294.995257 
L 146.685829 287.036384 
L 147.601481 284.24958 
L 149.127568 279.895776 
L 150.653655 276.537961 
L 150.958872 304.15683 
L 151.26409 302.466936 
L 152.484959 290.22265 
L 152.790177 310.806651 
L 153.095394 310.447762 
L 153.400611 310.584794 
L 153.705829 310.51327 
L 154.011046 310.083315 
L 155.231916 306.467564 
L 156.147568 302.081759 
L 156.452785 317.818215 
L 156.758003 315.128073 
L 157.06322 314.162944 
L 157.368438 313.750021 
L 157.978872 313.407915 
L 158.589307 313.326438 
L 159.199742 313.432926 
L 159.504959 313.552184 
L 159.810177 313.487452 
L 160.420611 312.409621 
L 161.031046 311.910715 
L 161.641481 311.786177 
L 161.946698 311.180963 
L 162.251916 310.204946 
L 162.862351 307.255993 
L 163.472785 303.297647 
L 164.08322 298.038355 
L 165.30409 284.859545 
L 165.914524 277.246946 
L 166.219742 276.376958 
L 166.830177 267.860633 
L 167.135394 280.738108 
L 167.745829 272.209035 
L 169.271916 245.952217 
L 169.577133 272.57475 
L 169.882351 265.22308 
L 170.187568 293.561554 
L 170.798003 296.957338 
L 171.10322 297.236073 
L 171.408438 296.351187 
L 172.018872 291.030913 
L 172.934524 279.609988 
L 173.239742 275.178419 
L 173.544959 283.256154 
L 173.850177 279.871422 
L 174.155394 294.744785 
L 174.460611 293.105496 
L 175.071046 287.555925 
L 176.291916 272.669537 
L 177.818003 250.677067 
L 178.12322 253.4385 
L 178.428438 261.228778 
L 178.733655 279.105597 
L 179.038872 278.163907 
L 179.649307 272.587061 
L 180.564959 260.88121 
L 181.785829 241.813174 
L 182.396264 268.767713 
L 182.701481 290.364072 
L 183.006698 295.516286 
L 183.311916 298.458754 
L 183.922351 301.136616 
L 184.227568 301.364953 
L 184.532785 300.454879 
L 185.14322 296.902551 
L 186.058872 289.069304 
L 186.669307 283.346569 
L 186.974524 280.163947 
L 187.584959 301.696776 
L 187.890177 302.054227 
L 188.500611 298.259785 
L 190.331916 284.021178 
L 190.637133 281.162565 
L 190.942351 279.635268 
L 191.247568 276.819967 
L 191.552785 278.191735 
L 191.858003 281.056019 
L 192.468438 275.217132 
L 193.994524 257.258384 
L 194.910177 245.427004 
L 195.215394 254.769315 
L 195.520611 250.296947 
L 195.825829 258.185795 
L 196.436264 254.441175 
L 197.657133 246.828603 
L 198.878003 238.055153 
L 199.18322 263.833839 
L 199.488438 251.611493 
L 200.098872 245.687323 
L 201.319742 235.962601 
L 201.624959 236.747949 
L 202.540611 230.69812 
L 203.761481 220.874259 
L 204.371916 219.716134 
L 204.982351 214.411068 
L 206.20322 201.787826 
L 206.508438 228.189548 
L 206.813655 238.478643 
L 207.42409 251.346911 
L 207.729307 252.902042 
L 208.034524 253.267458 
L 208.339742 282.769209 
L 208.644959 290.173161 
L 208.950177 292.791521 
L 209.255394 293.327111 
L 209.560611 292.780776 
L 210.171046 290.554484 
L 210.781481 287.397328 
L 211.697133 281.397097 
L 212.002351 279.207717 
L 212.307568 278.083874 
L 212.612785 284.004657 
L 212.918003 286.134745 
L 213.22322 287.089053 
L 213.528438 287.431612 
L 214.138872 286.520963 
L 214.749307 285.271124 
L 215.359742 294.575843 
L 215.664959 295.557443 
L 216.275394 296.489114 
L 216.580611 296.705241 
L 217.191046 296.791089 
L 217.801481 296.838186 
L 218.717133 296.662119 
L 220.24322 296.019195 
L 222.074524 295.02093 
L 222.684959 295.03946 
L 223.600611 295.359944 
L 224.211046 295.875127 
L 224.821481 296.968619 
L 225.431916 298.837122 
L 226.652785 303.791422 
L 227.873655 309.857435 
L 228.48409 312.484824 
L 228.789307 313.344633 
L 229.094524 313.510922 
L 229.399742 313.391796 
L 229.704959 312.990401 
L 230.010177 312.310285 
L 230.315394 311.274175 
L 230.315394 311.274175 
" clip-path="url(#p5f18efbc83)" style="fill: none; stroke: #0072b2; stroke-width: 1.1; stroke-linecap: square"/>
   </g>
   <g id="line2d_95">
    <path d="M 47.184959 333.266087 
L 103.344959 333.266087 
L 103.497568 333.046457 
L 103.955394 331.31186 
L 104.871046 326.491141 
L 106.091916 318.695181 
L 106.702351 314.400366 
L 106.854959 314.263075 
L 107.007568 333.259302 
L 107.465394 333.157915 
L 107.770611 332.286995 
L 108.381046 329.722735 
L 108.991481 326.444625 
L 109.754524 319.422349 
L 110.517568 311.063502 
L 110.670177 324.242962 
L 111.280611 320.531914 
L 112.043655 315.865259 
L 112.196264 332.984859 
L 113.264524 331.269992 
L 114.332785 329.010958 
L 114.94322 326.738914 
L 116.011481 321.705837 
L 116.621916 318.924648 
L 116.774524 318.700108 
L 117.079742 317.321516 
L 117.384959 318.176388 
L 118.300611 327.256838 
L 118.758438 328.736653 
L 119.216264 329.41427 
L 119.826698 329.813792 
L 120.589742 329.998997 
L 121.505394 330.037459 
L 121.810611 329.760684 
L 122.268438 328.856836 
L 125.47322 321.486935 
L 126.541481 319.448917 
L 127.457133 317.157193 
L 128.067568 314.956899 
L 128.372785 313.263294 
L 129.135829 308.093277 
L 129.441046 306.75395 
L 130.051481 302.837199 
L 130.814524 295.830017 
L 131.730177 285.260328 
L 131.882785 292.164863 
L 132.035394 292.34886 
L 132.188003 294.700745 
L 132.340611 317.554811 
L 132.645829 325.122341 
L 132.951046 326.647554 
L 133.256264 327.056886 
L 133.561481 326.992532 
L 134.019307 326.495508 
L 135.240177 324.579652 
L 136.155829 323.255831 
L 136.461046 323.208686 
L 138.139742 322.30797 
L 138.597568 322.116174 
L 138.902785 321.529119 
L 139.360611 319.800572 
L 139.818438 316.968859 
L 140.73409 309.257754 
L 141.954959 297.236942 
L 143.175829 284.126527 
L 143.481046 288.176093 
L 143.633655 287.7219 
L 144.091481 283.672635 
L 144.549307 279.344987 
L 144.701916 312.326744 
L 144.854524 305.569897 
L 145.007133 304.516037 
L 145.159742 304.307917 
L 145.617568 304.332858 
L 146.075394 304.646683 
L 146.53322 305.295646 
L 147.143655 306.583911 
L 148.059307 309.107754 
L 150.04322 314.655799 
L 150.653655 315.409494 
L 151.111481 315.586926 
L 151.569307 315.532541 
L 152.332351 318.901268 
L 152.484959 318.984134 
L 152.790177 318.763944 
L 154.011046 317.001338 
L 154.316264 316.241323 
L 154.77409 314.139976 
L 155.537133 309.41259 
L 156.605394 300.91773 
L 157.673655 290.384082 
L 159.199742 272.596887 
L 159.962785 263.27095 
L 160.115394 275.308923 
L 160.268003 277.411161 
L 160.878438 268.760619 
L 161.031046 289.550086 
L 161.183655 287.481276 
L 161.336264 287.390376 
L 161.488872 287.496919 
L 161.641481 287.412609 
L 161.946698 286.655474 
L 162.404524 284.322864 
L 163.014959 279.643107 
L 163.930611 271.38096 
L 164.08322 295.275439 
L 164.388438 291.386408 
L 165.151481 286.027927 
L 165.914524 280.033075 
L 166.067133 292.917549 
L 166.219742 293.153008 
L 166.677568 297.303232 
L 166.982785 298.530686 
L 167.135394 298.690876 
L 167.288003 298.687408 
L 167.59322 298.292405 
L 167.898438 297.451365 
L 168.203655 296.147147 
L 168.81409 292.004364 
L 169.424524 286.474144 
L 169.882351 280.98117 
L 170.034959 290.487739 
L 170.340177 289.139774 
L 170.798003 287.319584 
L 171.408438 283.482999 
L 172.171481 276.701658 
L 172.629307 271.900836 
L 172.781916 273.520697 
L 172.934524 290.901054 
L 173.087133 294.0864 
L 173.239742 294.743586 
L 173.392351 294.426085 
L 173.697568 292.406371 
L 174.308003 286.145035 
L 174.918438 278.562689 
L 175.071046 301.349589 
L 176.291916 289.964066 
L 177.512785 272.45242 
L 177.665394 270.110956 
L 177.818003 292.905958 
L 178.12322 298.519764 
L 178.428438 300.004106 
L 178.581046 299.852223 
L 178.886264 297.928436 
L 179.801916 290.807896 
L 179.954524 309.304428 
L 180.107133 307.541422 
L 180.412351 310.284859 
L 180.564959 310.327992 
L 180.870177 309.467073 
L 181.328003 306.729542 
L 181.938438 300.983929 
L 182.85409 289.857512 
L 184.074959 270.362466 
L 184.380177 266.049364 
L 184.532785 265.881661 
L 185.601046 246.187514 
L 186.36409 231.186748 
L 186.669307 260.185945 
L 187.432351 249.224261 
L 188.958438 218.860761 
L 189.568872 205.551677 
L 189.721481 230.745978 
L 189.87409 231.216215 
L 190.026698 231.056914 
L 190.789742 226.037892 
L 191.094959 221.914753 
L 191.247568 238.153967 
L 191.400177 280.438784 
L 191.552785 291.104074 
L 191.705394 293.653842 
L 191.858003 293.604608 
L 192.16322 291.39298 
L 192.926264 283.412101 
L 193.231481 306.478095 
L 193.536698 303.973891 
L 194.299742 299.771865 
L 195.67322 290.283802 
L 197.657133 275.300498 
L 197.962351 289.8195 
L 198.267568 288.240355 
L 198.878003 282.986351 
L 199.793655 272.864809 
L 202.540611 239.622764 
L 202.69322 237.57965 
L 202.845829 237.412038 
L 203.151046 232.916622 
L 203.303655 282.151445 
L 203.608872 286.366581 
L 203.91409 287.259495 
L 204.219307 287.36558 
L 204.524524 287.178791 
L 204.829742 286.849559 
L 204.982351 286.270913 
L 205.134959 286.359062 
L 205.440177 285.878172 
L 206.050611 284.345513 
L 206.508438 282.844596 
L 206.661046 289.976469 
L 206.813655 304.52858 
L 207.118872 306.706958 
L 207.42409 307.282447 
L 208.034524 307.889187 
L 208.644959 308.212278 
L 209.408003 308.291366 
L 210.781481 308.136433 
L 211.239307 308.443257 
L 211.697133 308.949331 
L 212.307568 310.048862 
L 213.22322 311.870356 
L 213.375829 311.724175 
L 213.681046 310.972902 
L 214.596698 307.218721 
L 218.106698 291.595981 
L 219.022351 286.541144 
L 219.327568 284.766027 
L 219.480177 294.637671 
L 219.785394 297.27246 
L 219.938003 297.55763 
L 220.24322 297.576881 
L 220.548438 297.546716 
L 221.006264 297.797078 
L 221.46409 298.226958 
L 221.921916 298.456585 
L 222.990177 298.593048 
L 223.448003 298.883934 
L 224.211046 300.152809 
L 224.516264 300.383002 
L 224.668872 300.182208 
L 224.821481 300.276052 
L 225.126698 300.04721 
L 225.889742 298.880669 
L 226.347568 296.125494 
L 226.652785 294.052322 
L 226.805394 305.205545 
L 226.958003 304.871556 
L 228.026264 311.020656 
L 228.48409 312.454841 
L 228.941916 313.197552 
L 229.552351 313.532855 
L 229.857568 313.488921 
L 230.315394 313.144732 
L 230.315394 313.144732 
" clip-path="url(#p5f18efbc83)" style="fill: none; stroke-dasharray: 4.07,1.76; stroke-dashoffset: 0; stroke: #d55e00; stroke-width: 1.1"/>
   </g>
   <g id="line2d_96">
    <path d="M 47.184959 333.266087 
L 103.406003 333.238376 
L 103.680698 332.469429 
L 104.23009 329.977914 
L 105.512003 322.614205 
L 106.885481 314.136099 
L 107.068611 333.26202 
L 107.434872 333.215645 
L 107.709568 332.514717 
L 108.258959 330.322761 
L 108.991481 326.503666 
L 109.632438 320.743375 
L 110.54809 310.814993 
L 110.639655 324.469715 
L 110.73122 323.778523 
L 111.280611 320.695182 
L 112.013133 316.214456 
L 112.104698 333.093449 
L 112.196264 332.959683 
L 112.83722 332.121543 
L 113.752872 330.502356 
L 114.393829 329.029062 
L 115.034785 326.558435 
L 116.316698 320.890647 
L 116.408264 320.945198 
L 116.774524 319.775675 
L 116.86609 319.928048 
L 117.140785 321.072608 
L 117.415481 324.463166 
L 117.690177 325.162599 
L 117.873307 325.289256 
L 118.056438 327.22016 
L 118.331133 329.355287 
L 118.697394 330.51229 
L 119.063655 330.979352 
L 119.521481 331.216784 
L 120.345568 331.341528 
L 121.719046 331.35233 
L 121.993742 331.117645 
L 122.451568 330.270486 
L 124.282872 326.62341 
L 125.198524 325.340223 
L 125.931046 324.358675 
L 126.663568 322.909457 
L 127.670785 320.441231 
L 128.128611 317.923962 
L 128.678003 314.891581 
L 129.044264 313.323496 
L 129.868351 308.171516 
L 130.600872 301.275033 
L 131.79122 287.404106 
L 131.974351 295.593743 
L 132.157481 294.058516 
L 132.615307 327.619115 
L 132.798438 328.910808 
L 132.981568 329.240849 
L 133.256264 329.242105 
L 133.622524 328.909235 
L 134.629742 327.475549 
L 136.00322 325.628461 
L 136.735742 325.005366 
L 137.285133 324.836988 
L 137.834524 324.953838 
L 138.292351 325.122917 
L 138.475481 324.787093 
L 138.841742 323.367406 
L 139.299568 320.861295 
L 140.123655 314.501121 
L 141.680264 300.363631 
L 143.236872 283.254889 
L 143.511568 288.988422 
L 143.877829 285.899511 
L 144.42722 280.545227 
L 144.518785 309.540545 
L 144.610351 307.082576 
L 144.793481 306.593297 
L 144.976611 306.917106 
L 145.342872 308.270017 
L 146.807916 314.940574 
L 147.448872 316.897187 
L 148.181394 318.508142 
L 149.097046 320.430677 
L 149.646438 322.699372 
L 149.921133 323.125804 
L 150.195829 323.239398 
L 150.836785 323.092168 
L 151.477742 322.74044 
L 152.118698 322.137042 
L 152.576524 321.765086 
L 152.942785 321.846781 
L 153.217481 321.407735 
L 153.583742 320.2562 
L 154.316264 317.169431 
L 155.506611 310.854293 
L 157.429481 299.211219 
L 158.98609 289.953565 
L 159.16922 310.424463 
L 159.535481 307.955292 
L 160.725829 298.073899 
L 163.19809 274.977857 
L 163.289655 301.29518 
L 163.38122 296.951314 
L 163.839046 292.376974 
L 165.212524 278.404596 
L 165.395655 276.38629 
L 165.48722 276.629643 
L 166.128177 269.396835 
L 166.311307 282.554202 
L 166.586003 284.503515 
L 166.677568 284.482437 
L 166.860698 283.820693 
L 167.226959 280.987277 
L 167.776351 275.070721 
L 167.959481 297.047336 
L 168.234177 299.931855 
L 168.417307 300.003816 
L 168.692003 299.448054 
L 169.058264 298.160806 
L 169.149829 310.876424 
L 169.241394 310.292919 
L 170.157046 315.100772 
L 170.340177 315.364958 
L 170.614872 314.904122 
L 170.981133 313.758737 
L 171.347394 311.596168 
L 172.354611 303.163245 
L 173.270264 293.477279 
L 173.72809 287.696552 
L 173.91122 312.16691 
L 174.094351 312.902006 
L 174.277481 312.619835 
L 174.552177 311.532199 
L 175.010003 308.588939 
L 175.559394 303.670989 
L 176.291916 294.713754 
L 177.482264 276.837972 
L 178.672611 256.81668 
L 178.855742 276.980292 
L 179.496698 268.644955 
L 179.679829 273.601523 
L 180.320785 262.699452 
L 180.503916 274.930008 
L 181.144872 263.738651 
L 181.236438 268.067003 
L 181.785829 257.419333 
L 181.877394 261.577498 
L 181.968959 261.500044 
L 182.701481 246.444769 
L 182.976177 273.056123 
L 183.250872 269.00966 
L 183.525568 264.047383 
L 183.800264 314.858752 
L 183.983394 316.964581 
L 184.074959 317.119077 
L 184.166524 317.029123 
L 184.349655 316.423761 
L 184.807481 312.632045 
L 185.265307 309.603561 
L 185.631568 307.394403 
L 186.272524 301.248824 
L 187.279742 289.49636 
L 188.195394 277.6503 
L 188.378524 297.720997 
L 188.47009 297.71866 
L 188.836351 295.500383 
L 189.660438 289.221943 
L 189.752003 292.486021 
L 189.935133 306.251849 
L 190.026698 306.020663 
L 190.392959 303.182996 
L 191.308611 294.049917 
L 192.224264 282.390672 
L 193.231481 266.345387 
L 193.414611 263.071458 
L 193.597742 281.718005 
L 193.780872 280.210854 
L 194.330264 272.428723 
L 195.337481 254.559729 
L 196.985655 219.922933 
L 197.168785 215.653203 
L 197.260351 225.779506 
L 197.443481 259.339962 
L 197.535046 258.220888 
L 197.626611 271.838356 
L 197.718177 270.202797 
L 198.450698 257.880709 
L 199.824177 231.036774 
L 200.007307 267.107559 
L 200.190438 271.988168 
L 200.282003 272.075874 
L 200.465133 271.099346 
L 200.831394 266.096372 
L 201.655481 251.324039 
L 202.662698 230.805794 
L 202.754264 238.893789 
L 203.028959 234.685955 
L 203.853046 222.034114 
L 203.944611 220.736698 
L 204.127742 261.689436 
L 204.219307 262.217875 
L 204.310872 262.097423 
L 204.585568 259.954213 
L 205.50122 249.645717 
L 207.057829 229.90718 
L 207.149394 233.969677 
L 207.332524 250.921719 
L 207.60722 259.562366 
L 207.881916 262.808326 
L 207.973481 263.034656 
L 208.065046 262.98957 
L 208.248177 294.902152 
L 208.614438 303.29845 
L 209.255394 311.285722 
L 209.896351 315.601355 
L 210.262611 316.966054 
L 210.354177 317.208466 
L 210.537307 318.669836 
L 210.812003 319.065768 
L 210.995133 319.077299 
L 211.361394 318.618377 
L 213.009568 316.287468 
L 214.016785 313.852419 
L 215.207133 308.436374 
L 216.03122 302.662091 
L 216.122785 303.23394 
L 216.305916 302.082409 
L 216.489046 317.312917 
L 216.580611 317.60715 
L 216.763742 317.304332 
L 217.404698 314.98352 
L 218.228785 312.320062 
L 218.686611 311.404665 
L 219.052872 311.071392 
L 219.327568 311.09932 
L 219.602264 311.370502 
L 219.876959 311.913289 
L 220.24322 313.26745 
L 222.34922 322.203965 
L 223.081742 323.834404 
L 223.356438 324.210467 
L 223.539568 324.200176 
L 223.814264 323.956369 
L 224.088959 323.461927 
L 225.004611 320.267216 
L 225.187742 319.661875 
L 225.279307 320.094038 
L 225.645568 318.422283 
L 226.56122 314.609162 
L 227.385307 311.959004 
L 228.209394 309.678357 
L 229.033481 306.387582 
L 229.857568 302.95185 
L 230.223829 302.386246 
L 230.315394 316.213326 
L 230.315394 316.213326 
" clip-path="url(#p5f18efbc83)" style="fill: none; stroke-dasharray: 7.04,1.76,1.1,1.76; stroke-dashoffset: 0; stroke: #009e73; stroke-width: 1.1"/>
   </g>
   <g id="patch_13">
    <path d="M 38.028438 339.84 
L 38.028438 195.213913 
" style="fill: none; stroke: #000000; stroke-width: 0.8; stroke-linejoin: miter; stroke-linecap: square"/>
   </g>
   <g id="patch_14">
    <path d="M 239.471916 339.84 
L 239.471916 195.213913 
" style="fill: none; stroke: #000000; stroke-width: 0.8; stroke-linejoin: miter; stroke-linecap: square"/>
   </g>
   <g id="patch_15">
    <path d="M 38.028437 339.84 
L 239.471916 339.84 
" style="fill: none; stroke: #000000; stroke-width: 0.8; stroke-linejoin: miter; stroke-linecap: square"/>
   </g>
   <g id="patch_16">
    <path d="M 38.028437 195.213913 
L 239.471916 195.213913 
" style="fill: none; stroke: #000000; stroke-width: 0.8; stroke-linejoin: miter; stroke-linecap: square"/>
   </g>
   <g id="text_55">
    <text style="font-weight: 700; font-size: 8px; font-family: 'DejaVu Sans'; text-anchor: start" x="42.057307" y="207.077707" transform="rotate(-0 42.057307 207.077707)">c</text>
   </g>
   <g id="legend_3">
    <g id="line2d_97">
     <path d="M 44.328437 256.733832 
L 51.328437 256.733832 
L 58.328437 256.733832 
" style="fill: none; stroke: #0072b2; stroke-width: 1.1; stroke-linecap: square"/>
    </g>
    <g id="text_56">
     <!-- 0.10 m s$^{-1}$ -->
     <g transform="translate(63.928438 259.183832)">
      <text>
       <tspan x="0" y="-0.74375" style="font-size: 7px; font-family: 'DejaVu Sans'">0</tspan>
       <tspan x="4.453613" y="-0.74375" style="font-size: 7px; font-family: 'DejaVu Sans'">.</tspan>
       <tspan x="6.678711" y="-0.74375" style="font-size: 7px; font-family: 'DejaVu Sans'">1</tspan>
       <tspan x="11.132324" y="-0.74375" style="font-size: 7px; font-family: 'DejaVu Sans'">0</tspan>
       <tspan x="15.585938" y="-0.74375" style="font-size: 7px; font-family: 'DejaVu Sans'"> </tspan>
       <tspan x="17.811035" y="-0.74375" style="font-size: 7px; font-family: 'DejaVu Sans'">m</tspan>
       <tspan x="24.629883" y="-0.74375" style="font-size: 7px; font-family: 'DejaVu Sans'"> </tspan>
       <tspan x="26.85498" y="-0.74375" style="font-size: 7px; font-family: 'DejaVu Sans'">s</tspan>
       <tspan x="30.568945" y="-3.423438" style="font-size: 4.9px; font-family: 'DejaVu Sans'">−</tspan>
       <tspan x="34.674609" y="-3.423438" style="font-size: 4.9px; font-family: 'DejaVu Sans'">1</tspan>
      </text>
     </g>
    </g>
    <g id="line2d_98">
     <path d="M 44.328437 267.008519 
L 51.328437 267.008519 
L 58.328437 267.008519 
" style="fill: none; stroke-dasharray: 4.07,1.76; stroke-dashoffset: 0; stroke: #d55e00; stroke-width: 1.1"/>
    </g>
    <g id="text_57">
     <!-- 0.05 m s$^{-1}$ -->
     <g transform="translate(63.928438 269.458519)">
      <text>
       <tspan x="0" y="-0.74375" style="font-size: 7px; font-family: 'DejaVu Sans'">0</tspan>
       <tspan x="4.453613" y="-0.74375" style="font-size: 7px; font-family: 'DejaVu Sans'">.</tspan>
       <tspan x="6.678711" y="-0.74375" style="font-size: 7px; font-family: 'DejaVu Sans'">0</tspan>
       <tspan x="11.132324" y="-0.74375" style="font-size: 7px; font-family: 'DejaVu Sans'">5</tspan>
       <tspan x="15.585938" y="-0.74375" style="font-size: 7px; font-family: 'DejaVu Sans'"> </tspan>
       <tspan x="17.811035" y="-0.74375" style="font-size: 7px; font-family: 'DejaVu Sans'">m</tspan>
       <tspan x="24.629883" y="-0.74375" style="font-size: 7px; font-family: 'DejaVu Sans'"> </tspan>
       <tspan x="26.85498" y="-0.74375" style="font-size: 7px; font-family: 'DejaVu Sans'">s</tspan>
       <tspan x="30.568945" y="-3.423438" style="font-size: 4.9px; font-family: 'DejaVu Sans'">−</tspan>
       <tspan x="34.674609" y="-3.423438" style="font-size: 4.9px; font-family: 'DejaVu Sans'">1</tspan>
      </text>
     </g>
    </g>
    <g id="line2d_99">
     <path d="M 44.328437 277.283207 
L 51.328437 277.283207 
L 58.328437 277.283207 
" style="fill: none; stroke-dasharray: 7.04,1.76,1.1,1.76; stroke-dashoffset: 0; stroke: #009e73; stroke-width: 1.1"/>
    </g>
    <g id="text_58">
     <!-- 0.03 m s$^{-1}$ -->
     <g transform="translate(63.928438 279.733207)">
      <text>
       <tspan x="0" y="-0.74375" style="font-size: 7px; font-family: 'DejaVu Sans'">0</tspan>
       <tspan x="4.453613" y="-0.74375" style="font-size: 7px; font-family: 'DejaVu Sans'">.</tspan>
       <tspan x="6.678711" y="-0.74375" style="font-size: 7px; font-family: 'DejaVu Sans'">0</tspan>
       <tspan x="11.132324" y="-0.74375" style="font-size: 7px; font-family: 'DejaVu Sans'">3</tspan>
       <tspan x="15.585938" y="-0.74375" style="font-size: 7px; font-family: 'DejaVu Sans'"> </tspan>
       <tspan x="17.811035" y="-0.74375" style="font-size: 7px; font-family: 'DejaVu Sans'">m</tspan>
       <tspan x="24.629883" y="-0.74375" style="font-size: 7px; font-family: 'DejaVu Sans'"> </tspan>
       <tspan x="26.85498" y="-0.74375" style="font-size: 7px; font-family: 'DejaVu Sans'">s</tspan>
       <tspan x="30.568945" y="-3.423438" style="font-size: 4.9px; font-family: 'DejaVu Sans'">−</tspan>
       <tspan x="34.674609" y="-3.423438" style="font-size: 4.9px; font-family: 'DejaVu Sans'">1</tspan>
      </text>
     </g>
    </g>
   </g>
  </g>
  <g id="axes_4">
   <g id="patch_17">
    <path d="M 299.904959 339.84 
L 501.348438 339.84 
L 501.348438 195.213913 
L 299.904959 195.213913 
z
" style="fill: #ffffff"/>
   </g>
   <g id="matplotlib.axis_7">
    <g id="xtick_23">
     <g id="line2d_100">
      <g>
       <use xlink:href="#m1f7ffcbc4f" x="299.904959" y="339.84" style="stroke: #000000; stroke-width: 0.8"/>
      </g>
     </g>
     <g id="line2d_101">
      <g>
       <use xlink:href="#mca75214ef8" x="299.904959" y="195.213913" style="stroke: #000000; stroke-width: 0.8"/>
      </g>
     </g>
     <g id="text_59">
      <text style="font-size: 7px; font-family: 'DejaVu Sans'; text-anchor: middle" x="299.904959" y="348.658906" transform="rotate(-0 299.904959 348.658906)">0.02</text>
     </g>
    </g>
    <g id="xtick_24">
     <g id="line2d_102">
      <g>
       <use xlink:href="#m1f7ffcbc4f" x="322.287568" y="339.84" style="stroke: #000000; stroke-width: 0.8"/>
      </g>
     </g>
     <g id="line2d_103">
      <g>
       <use xlink:href="#mca75214ef8" x="322.287568" y="195.213913" style="stroke: #000000; stroke-width: 0.8"/>
      </g>
     </g>
     <g id="text_60">
      <text style="font-size: 7px; font-family: 'DejaVu Sans'; text-anchor: middle" x="322.287568" y="348.658906" transform="rotate(-0 322.287568 348.658906)">0.03</text>
     </g>
    </g>
    <g id="xtick_25">
     <g id="line2d_104">
      <g>
       <use xlink:href="#m1f7ffcbc4f" x="344.670177" y="339.84" style="stroke: #000000; stroke-width: 0.8"/>
      </g>
     </g>
     <g id="line2d_105">
      <g>
       <use xlink:href="#mca75214ef8" x="344.670177" y="195.213913" style="stroke: #000000; stroke-width: 0.8"/>
      </g>
     </g>
     <g id="text_61">
      <text style="font-size: 7px; font-family: 'DejaVu Sans'; text-anchor: middle" x="344.670177" y="348.658906" transform="rotate(-0 344.670177 348.658906)">0.04</text>
     </g>
    </g>
    <g id="xtick_26">
     <g id="line2d_106">
      <g>
       <use xlink:href="#m1f7ffcbc4f" x="367.052785" y="339.84" style="stroke: #000000; stroke-width: 0.8"/>
      </g>
     </g>
     <g id="line2d_107">
      <g>
       <use xlink:href="#mca75214ef8" x="367.052785" y="195.213913" style="stroke: #000000; stroke-width: 0.8"/>
      </g>
     </g>
     <g id="text_62">
      <text style="font-size: 7px; font-family: 'DejaVu Sans'; text-anchor: middle" x="367.052785" y="348.658906" transform="rotate(-0 367.052785 348.658906)">0.05</text>
     </g>
    </g>
    <g id="xtick_27">
     <g id="line2d_108">
      <g>
       <use xlink:href="#m1f7ffcbc4f" x="389.435394" y="339.84" style="stroke: #000000; stroke-width: 0.8"/>
      </g>
     </g>
     <g id="line2d_109">
      <g>
       <use xlink:href="#mca75214ef8" x="389.435394" y="195.213913" style="stroke: #000000; stroke-width: 0.8"/>
      </g>
     </g>
     <g id="text_63">
      <text style="font-size: 7px; font-family: 'DejaVu Sans'; text-anchor: middle" x="389.435394" y="348.658906" transform="rotate(-0 389.435394 348.658906)">0.06</text>
     </g>
    </g>
    <g id="xtick_28">
     <g id="line2d_110">
      <g>
       <use xlink:href="#m1f7ffcbc4f" x="411.818003" y="339.84" style="stroke: #000000; stroke-width: 0.8"/>
      </g>
     </g>
     <g id="line2d_111">
      <g>
       <use xlink:href="#mca75214ef8" x="411.818003" y="195.213913" style="stroke: #000000; stroke-width: 0.8"/>
      </g>
     </g>
     <g id="text_64">
      <text style="font-size: 7px; font-family: 'DejaVu Sans'; text-anchor: middle" x="411.818003" y="348.658906" transform="rotate(-0 411.818003 348.658906)">0.07</text>
     </g>
    </g>
    <g id="xtick_29">
     <g id="line2d_112">
      <g>
       <use xlink:href="#m1f7ffcbc4f" x="434.200611" y="339.84" style="stroke: #000000; stroke-width: 0.8"/>
      </g>
     </g>
     <g id="line2d_113">
      <g>
       <use xlink:href="#mca75214ef8" x="434.200611" y="195.213913" style="stroke: #000000; stroke-width: 0.8"/>
      </g>
     </g>
     <g id="text_65">
      <text style="font-size: 7px; font-family: 'DejaVu Sans'; text-anchor: middle" x="434.200611" y="348.658906" transform="rotate(-0 434.200611 348.658906)">0.08</text>
     </g>
    </g>
    <g id="xtick_30">
     <g id="line2d_114">
      <g>
       <use xlink:href="#m1f7ffcbc4f" x="456.58322" y="339.84" style="stroke: #000000; stroke-width: 0.8"/>
      </g>
     </g>
     <g id="line2d_115">
      <g>
       <use xlink:href="#mca75214ef8" x="456.58322" y="195.213913" style="stroke: #000000; stroke-width: 0.8"/>
      </g>
     </g>
     <g id="text_66">
      <text style="font-size: 7px; font-family: 'DejaVu Sans'; text-anchor: middle" x="456.58322" y="348.658906" transform="rotate(-0 456.58322 348.658906)">0.09</text>
     </g>
    </g>
    <g id="xtick_31">
     <g id="line2d_116">
      <g>
       <use xlink:href="#m1f7ffcbc4f" x="478.965829" y="339.84" style="stroke: #000000; stroke-width: 0.8"/>
      </g>
     </g>
     <g id="line2d_117">
      <g>
       <use xlink:href="#mca75214ef8" x="478.965829" y="195.213913" style="stroke: #000000; stroke-width: 0.8"/>
      </g>
     </g>
     <g id="text_67">
      <text style="font-size: 7px; font-family: 'DejaVu Sans'; text-anchor: middle" x="478.965829" y="348.658906" transform="rotate(-0 478.965829 348.658906)">0.10</text>
     </g>
    </g>
    <g id="xtick_32">
     <g id="line2d_118">
      <g>
       <use xlink:href="#m1f7ffcbc4f" x="501.348438" y="339.84" style="stroke: #000000; stroke-width: 0.8"/>
      </g>
     </g>
     <g id="line2d_119">
      <g>
       <use xlink:href="#mca75214ef8" x="501.348438" y="195.213913" style="stroke: #000000; stroke-width: 0.8"/>
      </g>
     </g>
     <g id="text_68">
      <text style="font-size: 7px; font-family: 'DejaVu Sans'; text-anchor: middle" x="501.348438" y="348.658906" transform="rotate(-0 501.348438 348.658906)">0.11</text>
     </g>
    </g>
    <g id="text_69">
     <!-- Loading velocity (m s$^{-1}$) -->
     <g transform="translate(351.946698 361.314687)">
      <text>
       <tspan x="0" y="-0.857813" style="font-size: 8px; font-family: 'DejaVu Sans'">L</tspan>
       <tspan x="4.457031" y="-0.857813" style="font-size: 8px; font-family: 'DejaVu Sans'">o</tspan>
       <tspan x="9.351562" y="-0.857813" style="font-size: 8px; font-family: 'DejaVu Sans'">a</tspan>
       <tspan x="14.253906" y="-0.857813" style="font-size: 8px; font-family: 'DejaVu Sans'">d</tspan>
       <tspan x="19.332031" y="-0.857813" style="font-size: 8px; font-family: 'DejaVu Sans'">i</tspan>
       <tspan x="21.554688" y="-0.857813" style="font-size: 8px; font-family: 'DejaVu Sans'">n</tspan>
       <tspan x="26.625" y="-0.857813" style="font-size: 8px; font-family: 'DejaVu Sans'">g</tspan>
       <tspan x="31.703125" y="-0.857813" style="font-size: 8px; font-family: 'DejaVu Sans'"> </tspan>
       <tspan x="34.246094" y="-0.857813" style="font-size: 8px; font-family: 'DejaVu Sans'">v</tspan>
       <tspan x="38.980469" y="-0.857813" style="font-size: 8px; font-family: 'DejaVu Sans'">e</tspan>
       <tspan x="43.902344" y="-0.857813" style="font-size: 8px; font-family: 'DejaVu Sans'">l</tspan>
       <tspan x="46.125" y="-0.857813" style="font-size: 8px; font-family: 'DejaVu Sans'">o</tspan>
       <tspan x="51.019531" y="-0.857813" style="font-size: 8px; font-family: 'DejaVu Sans'">c</tspan>
       <tspan x="55.417969" y="-0.857813" style="font-size: 8px; font-family: 'DejaVu Sans'">i</tspan>
       <tspan x="57.640625" y="-0.857813" style="font-size: 8px; font-family: 'DejaVu Sans'">t</tspan>
       <tspan x="60.777344" y="-0.857813" style="font-size: 8px; font-family: 'DejaVu Sans'">y</tspan>
       <tspan x="65.511719" y="-0.857813" style="font-size: 8px; font-family: 'DejaVu Sans'"> </tspan>
       <tspan x="68.054688" y="-0.857813" style="font-size: 8px; font-family: 'DejaVu Sans'">(</tspan>
       <tspan x="71.175781" y="-0.857813" style="font-size: 8px; font-family: 'DejaVu Sans'">m</tspan>
       <tspan x="78.96875" y="-0.857813" style="font-size: 8px; font-family: 'DejaVu Sans'"> </tspan>
       <tspan x="81.511719" y="-0.857813" style="font-size: 8px; font-family: 'DejaVu Sans'">s</tspan>
       <tspan x="94.230078" y="-0.857813" style="font-size: 8px; font-family: 'DejaVu Sans'">)</tspan>
       <tspan x="85.75625" y="-3.920313" style="font-size: 5.6px; font-family: 'DejaVu Sans'">−</tspan>
       <tspan x="90.448437" y="-3.920313" style="font-size: 5.6px; font-family: 'DejaVu Sans'">1</tspan>
      </text>
     </g>
    </g>
   </g>
   <g id="matplotlib.axis_8">
    <g id="ytick_20">
     <g id="line2d_120">
      <g>
       <use xlink:href="#mc355024541" x="299.904959" y="339.84" style="stroke: #000000; stroke-width: 0.8"/>
      </g>
     </g>
     <g id="line2d_121">
      <g>
       <use xlink:href="#mc1fa75ea7b" x="501.348438" y="339.84" style="stroke: #000000; stroke-width: 0.8"/>
      </g>
     </g>
     <g id="text_70">
      <text style="font-size: 7px; font-family: 'DejaVu Sans'; text-anchor: end" x="296.404959" y="342.499453" transform="rotate(-0 296.404959 342.499453)">0.0</text>
     </g>
    </g>
    <g id="ytick_21">
     <g id="line2d_122">
      <g>
       <use xlink:href="#mc355024541" x="299.904959" y="313.544348" style="stroke: #000000; stroke-width: 0.8"/>
      </g>
     </g>
     <g id="line2d_123">
      <g>
       <use xlink:href="#mc1fa75ea7b" x="501.348438" y="313.544348" style="stroke: #000000; stroke-width: 0.8"/>
      </g>
     </g>
     <g id="text_71">
      <text style="font-size: 7px; font-family: 'DejaVu Sans'; text-anchor: end" x="296.404959" y="316.203801" transform="rotate(-0 296.404959 316.203801)">0.1</text>
     </g>
    </g>
    <g id="ytick_22">
     <g id="line2d_124">
      <g>
       <use xlink:href="#mc355024541" x="299.904959" y="287.248696" style="stroke: #000000; stroke-width: 0.8"/>
      </g>
     </g>
     <g id="line2d_125">
      <g>
       <use xlink:href="#mc1fa75ea7b" x="501.348438" y="287.248696" style="stroke: #000000; stroke-width: 0.8"/>
      </g>
     </g>
     <g id="text_72">
      <text style="font-size: 7px; font-family: 'DejaVu Sans'; text-anchor: end" x="296.404959" y="289.908149" transform="rotate(-0 296.404959 289.908149)">0.2</text>
     </g>
    </g>
    <g id="ytick_23">
     <g id="line2d_126">
      <g>
       <use xlink:href="#mc355024541" x="299.904959" y="260.953043" style="stroke: #000000; stroke-width: 0.8"/>
      </g>
     </g>
     <g id="line2d_127">
      <g>
       <use xlink:href="#mc1fa75ea7b" x="501.348438" y="260.953043" style="stroke: #000000; stroke-width: 0.8"/>
      </g>
     </g>
     <g id="text_73">
      <text style="font-size: 7px; font-family: 'DejaVu Sans'; text-anchor: end" x="296.404959" y="263.612497" transform="rotate(-0 296.404959 263.612497)">0.3</text>
     </g>
    </g>
    <g id="ytick_24">
     <g id="line2d_128">
      <g>
       <use xlink:href="#mc355024541" x="299.904959" y="234.657391" style="stroke: #000000; stroke-width: 0.8"/>
      </g>
     </g>
     <g id="line2d_129">
      <g>
       <use xlink:href="#mc1fa75ea7b" x="501.348438" y="234.657391" style="stroke: #000000; stroke-width: 0.8"/>
      </g>
     </g>
     <g id="text_74">
      <text style="font-size: 7px; font-family: 'DejaVu Sans'; text-anchor: end" x="296.404959" y="237.316844" transform="rotate(-0 296.404959 237.316844)">0.4</text>
     </g>
    </g>
    <g id="ytick_25">
     <g id="line2d_130">
      <g>
       <use xlink:href="#mc355024541" x="299.904959" y="208.361739" style="stroke: #000000; stroke-width: 0.8"/>
      </g>
     </g>
     <g id="line2d_131">
      <g>
       <use xlink:href="#mc1fa75ea7b" x="501.348438" y="208.361739" style="stroke: #000000; stroke-width: 0.8"/>
      </g>
     </g>
     <g id="text_75">
      <text style="font-size: 7px; font-family: 'DejaVu Sans'; text-anchor: end" x="296.404959" y="211.021192" transform="rotate(-0 296.404959 211.021192)">0.5</text>
     </g>
    </g>
    <g id="text_76">
     <text style="font-size: 8px; font-family: 'DejaVu Sans'; text-anchor: middle" x="279.609022" y="267.526957" transform="rotate(-90 279.609022 267.526957)">Final fragment fraction</text>
    </g>
   </g>
   <g id="line2d_132">
    <path d="M 322.287568 215.198609 
L 367.052785 215.724522 
L 478.965829 215.198609 
" clip-path="url(#pdae94a0465)" style="fill: none; stroke: #0072b2; stroke-width: 1.1; stroke-linecap: square"/>
    <g clip-path="url(#pdae94a0465)">
     <use xlink:href="#m94b9cf419d" x="322.287568" y="215.198609" style="fill: #0072b2; stroke: #0072b2"/>
     <use xlink:href="#m94b9cf419d" x="367.052785" y="215.724522" style="fill: #0072b2; stroke: #0072b2"/>
     <use xlink:href="#m94b9cf419d" x="478.965829" y="215.198609" style="fill: #0072b2; stroke: #0072b2"/>
    </g>
   </g>
   <g id="line2d_133">
    <path d="M 322.287568 220.983652 
L 367.052785 217.302261 
L 478.965829 218.88 
" clip-path="url(#pdae94a0465)" style="fill: none; stroke-dasharray: 4.07,1.76; stroke-dashoffset: 0; stroke: #d55e00; stroke-width: 1.1"/>
    <g clip-path="url(#pdae94a0465)">
     <use xlink:href="#mcd2a104926" x="322.287568" y="220.983652" style="fill: #d55e00; stroke: #d55e00; stroke-linejoin: miter"/>
     <use xlink:href="#mcd2a104926" x="367.052785" y="217.302261" style="fill: #d55e00; stroke: #d55e00; stroke-linejoin: miter"/>
     <use xlink:href="#mcd2a104926" x="478.965829" y="218.88" style="fill: #d55e00; stroke: #d55e00; stroke-linejoin: miter"/>
    </g>
   </g>
   <g id="patch_18">
    <path d="M 299.904959 339.84 
L 299.904959 195.213913 
" style="fill: none; stroke: #000000; stroke-width: 0.8; stroke-linejoin: miter; stroke-linecap: square"/>
   </g>
   <g id="patch_19">
    <path d="M 501.348438 339.84 
L 501.348438 195.213913 
" style="fill: none; stroke: #000000; stroke-width: 0.8; stroke-linejoin: miter; stroke-linecap: square"/>
   </g>
   <g id="patch_20">
    <path d="M 299.904959 339.84 
L 501.348438 339.84 
" style="fill: none; stroke: #000000; stroke-width: 0.8; stroke-linejoin: miter; stroke-linecap: square"/>
   </g>
   <g id="patch_21">
    <path d="M 299.904959 195.213913 
L 501.348438 195.213913 
" style="fill: none; stroke: #000000; stroke-width: 0.8; stroke-linejoin: miter; stroke-linecap: square"/>
   </g>
   <g id="text_77">
    <text style="font-weight: 700; font-size: 8px; font-family: 'DejaVu Sans'; text-anchor: start" x="303.933829" y="207.077707" transform="rotate(-0 303.933829 207.077707)">d</text>
   </g>
   <g id="legend_4">
    <g id="line2d_134">
     <path d="M 306.204959 319.359531 
L 313.204959 319.359531 
L 320.204959 319.359531 
" style="fill: none; stroke: #0072b2; stroke-width: 1.1; stroke-linecap: square"/>
     <g>
      <use xlink:href="#m94b9cf419d" x="313.204959" y="319.359531" style="fill: #0072b2; stroke: #0072b2"/>
     </g>
    </g>
    <g id="text_78">
     <text style="font-size: 7px; font-family: 'DejaVu Sans'; text-anchor: start" x="325.804959" y="321.809531" transform="rotate(-0 325.804959 321.809531)">Largest fragment</text>
    </g>
    <g id="line2d_135">
     <path d="M 306.204959 329.634219 
L 313.204959 329.634219 
L 320.204959 329.634219 
" style="fill: none; stroke-dasharray: 4.07,1.76; stroke-dashoffset: 0; stroke: #d55e00; stroke-width: 1.1"/>
     <g>
      <use xlink:href="#mcd2a104926" x="313.204959" y="329.634219" style="fill: #d55e00; stroke: #d55e00; stroke-linejoin: miter"/>
     </g>
    </g>
    <g id="text_79">
     <text style="font-size: 7px; font-family: 'DejaVu Sans'; text-anchor: start" x="325.804959" y="332.084219" transform="rotate(-0 325.804959 332.084219)">Second-largest fragment</text>
    </g>
   </g>
  </g>
 </g>
 <defs>
  <clipPath id="p7f911b8826">
   <rect x="38.028438" y="7.2" width="201.443478" height="144.626087"/>
  </clipPath>
  <clipPath id="p074ddb2f84">
   <rect x="299.904959" y="7.2" width="201.443478" height="144.626087"/>
  </clipPath>
  <clipPath id="p5f18efbc83">
   <rect x="38.028438" y="195.213913" width="201.443478" height="144.626087"/>
  </clipPath>
  <clipPath id="pdae94a0465">
   <rect x="299.904959" y="195.213913" width="201.443478" height="144.626087"/>
  </clipPath>
 </defs>
</svg>
