<svg xmlns="http://www.w3.org/2000/svg" width="900" height="560" viewBox="0 0 900 560">
<rect width="100%" height="100%" fill="white"/>
<text x="450.0" y="26" text-anchor="middle" font-size="22" font-family="Arial, sans-serif" fill="#111827">SP-002 force-displacement and bond breakage</text>
<line x1="82" y1="40.00" x2="818" y2="40.00" stroke="#d9dee2" stroke-width="1"/><line x1="82" y1="129.60" x2="818" y2="129.60" stroke="#d9dee2" stroke-width="1"/><line x1="82" y1="219.20" x2="818" y2="219.20" stroke="#d9dee2" stroke-width="1"/><line x1="82" y1="308.80" x2="818" y2="308.80" stroke="#d9dee2" stroke-width="1"/><line x1="82" y1="398.40" x2="818" y2="398.40" stroke="#d9dee2" stroke-width="1"/><line x1="82" y1="488.00" x2="818" y2="488.00" stroke="#d9dee2" stroke-width="1"/><line x1="82.00" y1="40" x2="82.00" y2="488" stroke="#edf0f2" stroke-width="1"/><text x="82.00" y="526" text-anchor="middle" font-size="18" fill="#30363d">0.000</text><line x1="229.20" y1="40" x2="229.20" y2="488" stroke="#edf0f2" stroke-width="1"/><text x="229.20" y="526" text-anchor="middle" font-size="18" fill="#30363d">0.020</text><line x1="376.40" y1="40" x2="376.40" y2="488" stroke="#edf0f2" stroke-width="1"/><text x="376.40" y="526" text-anchor="middle" font-size="18" fill="#30363d">0.040</text><line x1="523.60" y1="40" x2="523.60" y2="488" stroke="#edf0f2" stroke-width="1"/><text x="523.60" y="526" text-anchor="middle" font-size="18" fill="#30363d">0.060</text><line x1="670.80" y1="40" x2="670.80" y2="488" stroke="#edf0f2" stroke-width="1"/><text x="670.80" y="526" text-anchor="middle" font-size="18" fill="#30363d">0.080</text><line x1="818.00" y1="40" x2="818.00" y2="488" stroke="#edf0f2" stroke-width="1"/><text x="818.00" y="526" text-anchor="middle" font-size="18" fill="#30363d">0.100</text>
<line x1="82" y1="40" x2="82" y2="488" stroke="#111827" stroke-width="1.5"/>
<line x1="82" y1="488" x2="818" y2="488" stroke="#111827" stroke-width="1.5"/>
<line x1="818" y1="40" x2="818" y2="488" stroke="#111827" stroke-width="1.5"/>
<polyline points="82.00,488.00 82.00,488.00 82.00,488.00 118.76,488.00 155.56,488.00 192.36,488.00 229.16,488.00 265.96,488.00 302.76,488.00 339.56,488.00 376.36,488.00 413.16,488.00 449.96,488.00 486.76,488.00 523.56,488.00 560.36,488.00 597.16,488.00 633.96,476.39 670.76,483.45 707.56,292.14 744.36,477.69 781.16,389.25 817.96,40.42 818.00,40.00" fill="none" stroke="#1b6ca8" stroke-width="3"/>
<polyline points="82.00,488.00 82.00,446.96 82.00,446.97 118.76,451.69 155.56,455.73 192.36,459.20 229.16,462.20 265.96,464.81 302.76,467.09 339.56,469.08 376.36,470.84 413.16,472.38 449.96,473.75 486.76,474.97 523.56,476.06 560.36,477.03 597.16,477.90 633.96,478.68 670.76,479.38 707.56,480.02 744.36,480.59 781.16,481.12 817.96,481.59 818.00,481.59" fill="none" stroke="#d1495b" stroke-width="3"/>
<polyline points="82.00,488.00 82.00,488.00 82.00,488.00 82.00,488.00 82.00,488.00 118.76,488.00 118.76,488.00 155.56,488.00 155.56,488.00 192.36,488.00 192.36,488.00 229.16,488.00 229.16,488.00 265.96,488.00 265.96,488.00 302.76,488.00 302.76,488.00 339.56,488.00 339.56,488.00 376.36,488.00 376.36,488.00 413.16,488.00 413.16,488.00 449.96,488.00 449.96,488.00 486.76,488.00 486.76,488.00 523.56,488.00 523.56,488.00 560.36,488.00 560.36,488.00 597.16,488.00 597.16,488.00 633.96,488.00 633.96,488.00 670.76,488.00 670.76,344.30 707.56,344.30 707.56,344.30 744.36,344.30 744.36,40.00 781.16,40.00 781.16,40.00 817.96,40.00 817.96,40.00 818.00,40.00 818.00,40.00" fill="none" stroke="#4b8f29" stroke-width="3"/>
<text x="450.0" y="552" text-anchor="middle" font-size="20" font-family="Arial, sans-serif" fill="#111827">Top displacement (mm)</text>
<text x="24" y="280.0" text-anchor="middle" transform="rotate(-90 24 280.0)" font-size="20" font-family="Arial, sans-serif" fill="#111827">Force magnitude (N)</text>
<text x="880" y="280.0" text-anchor="middle" transform="rotate(90 880 280.0)" font-size="20" font-family="Arial, sans-serif" fill="#111827">Broken bonds</text>
<text x="102" y="64" font-size="18" font-family="Arial, sans-serif" fill="#1b6ca8">Top plate</text>
<text x="212" y="64" font-size="18" font-family="Arial, sans-serif" fill="#d1495b">Bottom plate</text>
<text x="352" y="64" font-size="18" font-family="Arial, sans-serif" fill="#4b8f29">Broken bonds</text>
<text x="72" y="45" text-anchor="end" font-size="17" fill="#30363d">26.16</text>
<text x="72" y="488" text-anchor="end" font-size="17" fill="#30363d">0</text>
<text x="828" y="45" text-anchor="start" font-size="17" fill="#30363d">212</text>
<text x="828" y="488" text-anchor="start" font-size="17" fill="#30363d">0</text>
</svg>
