<svg xmlns="http://www.w3.org/2000/svg" width="900" height="560" viewBox="0 0 900 560">
<rect width="100%" height="100%" fill="white"/>
<text x="450.0" y="26" text-anchor="middle" font-size="22" font-family="Arial, sans-serif" fill="#111827">SP-002 force-displacement and bond breakage</text>
<line x1="82" y1="40.00" x2="818" y2="40.00" stroke="#d9dee2" stroke-width="1"/><line x1="82" y1="129.60" x2="818" y2="129.60" stroke="#d9dee2" stroke-width="1"/><line x1="82" y1="219.20" x2="818" y2="219.20" stroke="#d9dee2" stroke-width="1"/><line x1="82" y1="308.80" x2="818" y2="308.80" stroke="#d9dee2" stroke-width="1"/><line x1="82" y1="398.40" x2="818" y2="398.40" stroke="#d9dee2" stroke-width="1"/><line x1="82" y1="488.00" x2="818" y2="488.00" stroke="#d9dee2" stroke-width="1"/><line x1="82.00" y1="40" x2="82.00" y2="488" stroke="#edf0f2" stroke-width="1"/><text x="82.00" y="526" text-anchor="middle" font-size="18" fill="#30363d">0.000</text><line x1="229.20" y1="40" x2="229.20" y2="488" stroke="#edf0f2" stroke-width="1"/><text x="229.20" y="526" text-anchor="middle" font-size="18" fill="#30363d">0.160</text><line x1="376.40" y1="40" x2="376.40" y2="488" stroke="#edf0f2" stroke-width="1"/><text x="376.40" y="526" text-anchor="middle" font-size="18" fill="#30363d">0.320</text><line x1="523.60" y1="40" x2="523.60" y2="488" stroke="#edf0f2" stroke-width="1"/><text x="523.60" y="526" text-anchor="middle" font-size="18" fill="#30363d">0.480</text><line x1="670.80" y1="40" x2="670.80" y2="488" stroke="#edf0f2" stroke-width="1"/><text x="670.80" y="526" text-anchor="middle" font-size="18" fill="#30363d">0.640</text><line x1="818.00" y1="40" x2="818.00" y2="488" stroke="#edf0f2" stroke-width="1"/><text x="818.00" y="526" text-anchor="middle" font-size="18" fill="#30363d">0.800</text>
<line x1="82" y1="40" x2="82" y2="488" stroke="#111827" stroke-width="1.5"/>
<line x1="82" y1="488" x2="818" y2="488" stroke="#111827" stroke-width="1.5"/>
<line x1="818" y1="40" x2="818" y2="488" stroke="#111827" stroke-width="1.5"/>
<polyline points="82.00,488.00 91.20,488.00 100.40,488.00 109.60,488.00 118.80,488.00 128.00,488.00 137.20,487.44 146.40,486.33 155.60,403.97 164.80,407.51 174.00,435.92 183.20,393.08 192.40,422.42 201.60,431.38 210.80,362.70 220.00,331.09 229.20,258.62 238.40,231.37 247.60,216.90 256.80,213.97 266.00,213.11 275.20,212.12 284.40,212.02 293.60,211.95 302.80,211.91 312.00,211.87 321.20,211.83 330.40,211.80 339.60,211.60 348.80,211.53 358.00,235.26 367.20,225.62 376.40,215.90 385.60,213.41 394.80,212.66 404.00,212.43 413.20,211.96 422.40,204.06 431.60,207.19 440.80,199.99 450.00,272.98 459.20,301.22 468.40,288.29 477.60,271.31 486.80,302.34 496.00,315.32 505.20,239.85 514.40,246.31 523.60,281.31 532.80,267.83 542.00,212.48 551.20,213.69 560.40,243.04 569.60,247.13 578.80,228.70 588.00,195.77 597.20,128.25 606.40,151.66 615.60,171.08 624.80,139.06 634.00,84.45 643.20,77.86 652.40,109.66 661.60,128.96 670.80,128.16 680.00,116.26 689.20,102.74 698.40,77.83 707.60,52.08 716.80,59.07 726.00,105.65 735.20,98.84 744.40,85.90 753.60,89.04 762.80,68.37 772.00,76.73 781.20,82.62 790.40,128.95 799.60,119.67 808.80,67.32 818.00,40.00" fill="none" stroke="#1b6ca8" stroke-width="3"/>
<polyline points="82.00,488.00 91.20,487.79 100.40,488.00 109.60,488.00 118.80,488.00 128.00,488.00 137.20,488.00 146.40,488.00 155.60,488.00 164.80,488.00 174.00,488.00 183.20,488.00 192.40,488.00 201.60,488.00 210.80,488.00 220.00,488.00 229.20,488.00 238.40,488.00 247.60,488.00 256.80,488.00 266.00,488.00 275.20,488.00 284.40,488.00 293.60,488.00 302.80,488.00 312.00,488.00 321.20,488.00 330.40,488.00 339.60,488.00 348.80,488.00 358.00,488.00 367.20,488.00 376.40,488.00 385.60,488.00 394.80,488.00 404.00,488.00 413.20,488.00 422.40,488.00 431.60,488.00 440.80,488.00 450.00,488.00 459.20,488.00 468.40,488.00 477.60,488.00 486.80,488.00 496.00,488.00 505.20,488.00 514.40,488.00 523.60,488.00 532.80,488.00 542.00,488.00 551.20,488.00 560.40,488.00 569.60,488.00 578.80,488.00 588.00,488.00 597.20,488.00 606.40,488.00 615.60,488.00 624.80,488.00 634.00,488.00 643.20,488.00 652.40,488.00 661.60,488.00 670.80,488.00 680.00,488.00 689.20,488.00 698.40,488.00 707.60,488.00 716.80,488.00 726.00,488.00 735.20,488.00 744.40,488.00 753.60,488.00 762.80,488.00 772.00,488.00 781.20,488.00 790.40,488.00 799.60,488.00 808.80,488.00 818.00,488.00" fill="none" stroke="#d1495b" stroke-width="3"/>
<polyline points="82.00,488.00 91.20,488.00 91.20,488.00 100.40,488.00 100.40,488.00 109.60,488.00 109.60,488.00 118.80,488.00 118.80,488.00 128.00,488.00 128.00,488.00 137.20,488.00 137.20,484.81 146.40,484.81 146.40,478.04 155.60,478.04 155.60,478.04 164.80,478.04 164.80,468.46 174.00,468.46 174.00,458.87 183.20,458.87 183.20,451.73 192.40,451.73 192.40,439.89 201.60,439.89 201.60,425.23 210.80,425.23 210.80,419.97 220.00,419.97 220.00,410.58 229.20,410.58 229.20,405.50 238.40,405.50 238.40,402.87 247.60,402.87 247.60,402.87 256.80,402.87 256.80,402.31 266.00,402.31 266.00,402.31 275.20,402.31 275.20,402.31 284.40,402.31 284.40,402.31 293.60,402.31 293.60,402.31 302.80,402.31 302.80,402.31 312.00,402.31 312.00,402.31 321.20,402.31 321.20,402.31 330.40,402.31 330.40,402.31 339.60,402.31 339.60,402.31 348.80,402.31 348.80,402.31 358.00,402.31 358.00,399.87 367.20,399.87 367.20,397.42 376.40,397.42 376.40,397.42 385.60,397.42 385.60,397.42 394.80,397.42 394.80,397.42 404.00,397.42 404.00,397.42 413.20,397.42 413.20,397.42 422.40,397.42 422.40,397.42 431.60,397.42 431.60,392.49 440.80,392.49 440.80,392.16 450.00,392.16 450.00,375.48 459.20,375.48 459.20,366.84 468.40,366.84 468.40,361.58 477.60,361.58 477.60,358.10 486.80,358.10 486.80,346.97 496.00,346.97 496.00,338.28 505.20,338.28 505.20,335.13 514.40,335.13 514.40,322.11 523.60,322.11 523.60,311.73 532.80,311.73 532.80,302.85 542.00,302.85 542.00,296.28 551.20,296.28 551.20,288.76 560.40,288.76 560.40,269.87 569.60,269.87 569.60,255.36 578.80,255.36 578.80,246.85 588.00,246.85 588.00,240.13 597.20,240.13 597.20,235.34 606.40,235.34 606.40,223.55 615.60,223.55 615.60,210.40 624.80,210.40 624.80,204.48 634.00,204.48 634.00,198.51 643.20,198.51 643.20,185.31 652.40,185.31 652.40,178.07 661.60,178.07 661.60,165.25 670.80,165.25 670.80,156.37 680.00,156.37 680.00,151.44 689.20,151.44 689.20,146.64 698.40,146.64 698.40,141.76 707.60,141.76 707.60,135.65 716.80,135.65 716.80,130.53 726.00,130.53 726.00,118.60 735.20,118.60 735.20,108.97 744.40,108.97 744.40,104.03 753.60,104.03 753.60,96.94 762.80,96.94 762.80,90.93 772.00,90.93 772.00,82.09 781.20,82.09 781.20,72.93 790.40,72.93 790.40,58.28 799.60,58.28 799.60,50.15 808.80,50.15 808.80,45.97 818.00,45.97 818.00,40.00" fill="none" stroke="#4b8f29" stroke-width="3"/>
<text x="450.0" y="552" text-anchor="middle" font-size="20" font-family="Arial, sans-serif" fill="#111827">Top displacement (mm)</text>
<text x="24" y="280.0" text-anchor="middle" transform="rotate(-90 24 280.0)" font-size="20" font-family="Arial, sans-serif" fill="#111827">Force magnitude (N)</text>
<text x="880" y="280.0" text-anchor="middle" transform="rotate(90 880 280.0)" font-size="20" font-family="Arial, sans-serif" fill="#111827">Broken bonds</text>
<text x="102" y="64" font-size="18" font-family="Arial, sans-serif" fill="#1b6ca8">Top plate</text>
<text x="212" y="64" font-size="18" font-family="Arial, sans-serif" fill="#d1495b">Bottom plate</text>
<text x="352" y="64" font-size="18" font-family="Arial, sans-serif" fill="#4b8f29">Broken bonds</text>
<text x="72" y="45" text-anchor="end" font-size="17" fill="#30363d">128.92</text>
<text x="72" y="488" text-anchor="end" font-size="17" fill="#30363d">0</text>
<text x="828" y="45" text-anchor="start" font-size="17" fill="#30363d">9536</text>
<text x="828" y="488" text-anchor="start" font-size="17" fill="#30363d">0</text>
</svg>
