<svg xmlns="http://www.w3.org/2000/svg" width="900" height="560" viewBox="0 0 900 560">
<rect width="100%" height="100%" fill="white"/>
<text x="450.0" y="26" text-anchor="middle" font-size="22" font-family="Arial, sans-serif" fill="#111827">SP-002 force-displacement and bond breakage</text>
<line x1="82" y1="40.00" x2="818" y2="40.00" stroke="#d9dee2" stroke-width="1"/><line x1="82" y1="129.60" x2="818" y2="129.60" stroke="#d9dee2" stroke-width="1"/><line x1="82" y1="219.20" x2="818" y2="219.20" stroke="#d9dee2" stroke-width="1"/><line x1="82" y1="308.80" x2="818" y2="308.80" stroke="#d9dee2" stroke-width="1"/><line x1="82" y1="398.40" x2="818" y2="398.40" stroke="#d9dee2" stroke-width="1"/><line x1="82" y1="488.00" x2="818" y2="488.00" stroke="#d9dee2" stroke-width="1"/><line x1="82.00" y1="40" x2="82.00" y2="488" stroke="#edf0f2" stroke-width="1"/><text x="82.00" y="526" text-anchor="middle" font-size="18" fill="#30363d">0.000</text><line x1="229.20" y1="40" x2="229.20" y2="488" stroke="#edf0f2" stroke-width="1"/><text x="229.20" y="526" text-anchor="middle" font-size="18" fill="#30363d">0.160</text><line x1="376.40" y1="40" x2="376.40" y2="488" stroke="#edf0f2" stroke-width="1"/><text x="376.40" y="526" text-anchor="middle" font-size="18" fill="#30363d">0.320</text><line x1="523.60" y1="40" x2="523.60" y2="488" stroke="#edf0f2" stroke-width="1"/><text x="523.60" y="526" text-anchor="middle" font-size="18" fill="#30363d">0.480</text><line x1="670.80" y1="40" x2="670.80" y2="488" stroke="#edf0f2" stroke-width="1"/><text x="670.80" y="526" text-anchor="middle" font-size="18" fill="#30363d">0.640</text><line x1="818.00" y1="40" x2="818.00" y2="488" stroke="#edf0f2" stroke-width="1"/><text x="818.00" y="526" text-anchor="middle" font-size="18" fill="#30363d">0.800</text>
<line x1="82" y1="40" x2="82" y2="488" stroke="#111827" stroke-width="1.5"/>
<line x1="82" y1="488" x2="818" y2="488" stroke="#111827" stroke-width="1.5"/>
<line x1="818" y1="40" x2="818" y2="488" stroke="#111827" stroke-width="1.5"/>
<polyline points="82.00,488.00 91.20,275.14 100.40,296.03 109.60,232.28 118.80,213.95 128.00,207.71 137.20,203.51 146.40,201.92 155.60,201.61 164.80,200.41 174.00,200.02 183.20,199.50 192.40,199.18 201.60,224.11 210.80,212.72 220.00,210.16 229.20,254.40 238.40,262.23 247.60,238.77 256.80,210.98 266.00,210.24 275.20,204.04 284.40,201.44 293.60,200.09 302.80,199.39 312.00,199.10 321.20,198.86 330.40,198.88 339.60,198.76 348.80,198.66 358.00,204.14 367.20,201.04 376.40,200.03 385.60,199.40 394.80,199.09 404.00,198.89 413.20,182.26 422.40,180.07 431.60,185.60 440.80,186.02 450.00,180.34 459.20,172.85 468.40,119.80 477.60,130.76 486.80,227.78 496.00,227.19 505.20,181.38 514.40,132.27 523.60,126.08 532.80,171.40 542.00,123.21 551.20,148.46 560.40,183.91 569.60,150.72 578.80,156.56 588.00,165.41 597.20,131.47 606.40,144.24 615.60,168.08 624.80,112.08 634.00,144.86 643.20,163.78 652.40,97.35 661.60,80.03 670.80,180.88 680.00,204.02 689.20,202.55 698.40,136.10 707.60,146.89 716.80,130.50 726.00,106.62 735.20,49.48 744.40,94.55 753.60,141.12 762.80,117.39 772.00,77.11 781.20,97.57 790.40,72.12 799.60,80.62 808.80,67.14 818.00,40.00" fill="none" stroke="#1b6ca8" stroke-width="3"/>
<polyline points="82.00,488.00 91.20,488.00 100.40,488.00 109.60,488.00 118.80,488.00 128.00,488.00 137.20,488.00 146.40,488.00 155.60,488.00 164.80,488.00 174.00,488.00 183.20,488.00 192.40,488.00 201.60,488.00 210.80,488.00 220.00,488.00 229.20,488.00 238.40,488.00 247.60,488.00 256.80,488.00 266.00,488.00 275.20,488.00 284.40,488.00 293.60,488.00 302.80,488.00 312.00,488.00 321.20,488.00 330.40,488.00 339.60,488.00 348.80,488.00 358.00,488.00 367.20,488.00 376.40,488.00 385.60,488.00 394.80,488.00 404.00,488.00 413.20,488.00 422.40,488.00 431.60,488.00 440.80,488.00 450.00,488.00 459.20,488.00 468.40,488.00 477.60,488.00 486.80,488.00 496.00,488.00 505.20,488.00 514.40,488.00 523.60,488.00 532.80,488.00 542.00,488.00 551.20,488.00 560.40,488.00 569.60,488.00 578.80,488.00 588.00,488.00 597.20,488.00 606.40,488.00 615.60,488.00 624.80,488.00 634.00,488.00 643.20,488.00 652.40,488.00 661.60,488.00 670.80,488.00 680.00,488.00 689.20,488.00 698.40,488.00 707.60,488.00 716.80,488.00 726.00,488.00 735.20,488.00 744.40,488.00 753.60,488.00 762.80,488.00 772.00,488.00 781.20,488.00 790.40,488.00 799.60,488.00 808.80,488.00 818.00,488.00" fill="none" stroke="#d1495b" stroke-width="3"/>
<polyline points="82.00,488.00 91.20,488.00 91.20,488.00 100.40,488.00 100.40,472.89 109.60,472.89 109.60,472.67 118.80,472.67 118.80,472.67 128.00,472.67 128.00,472.67 137.20,472.67 137.20,472.67 146.40,472.67 146.40,472.67 155.60,472.67 155.60,472.67 164.80,472.67 164.80,472.67 174.00,472.67 174.00,472.46 183.20,472.46 183.20,472.46 192.40,472.46 192.40,472.46 201.60,472.46 201.60,467.35 210.80,467.35 210.80,467.35 220.00,467.35 220.00,467.35 229.20,467.35 229.20,462.51 238.40,462.51 238.40,458.63 247.60,458.63 247.60,455.70 256.80,455.70 256.80,455.70 266.00,455.70 266.00,453.94 275.20,453.94 275.20,453.84 284.40,453.84 284.40,453.73 293.60,453.73 293.60,453.73 302.80,453.73 302.80,453.73 312.00,453.73 312.00,453.73 321.20,453.73 321.20,453.73 330.40,453.73 330.40,453.73 339.60,453.73 339.60,453.73 348.80,453.73 348.80,453.73 358.00,453.73 358.00,452.19 367.20,452.19 367.20,452.19 376.40,452.19 376.40,452.19 385.60,452.19 385.60,452.19 394.80,452.19 394.80,452.19 404.00,452.19 404.00,452.19 413.20,452.19 413.20,449.31 422.40,449.31 422.40,445.22 431.60,445.22 431.60,445.22 440.80,445.22 440.80,442.02 450.00,442.02 450.00,435.80 459.20,435.80 459.20,428.56 468.40,428.56 468.40,424.30 477.60,424.30 477.60,414.78 486.80,414.78 486.80,400.04 496.00,400.04 496.00,389.13 505.20,389.13 505.20,383.33 514.40,383.33 514.40,378.01 523.60,378.01 523.60,367.10 532.80,367.10 532.80,355.07 542.00,355.07 542.00,355.07 551.20,355.07 551.20,338.31 560.40,338.31 560.40,327.40 569.60,327.40 569.60,320.59 578.80,320.59 578.80,302.45 588.00,302.45 588.00,295.58 597.20,295.58 597.20,292.66 606.40,292.66 606.40,278.13 615.60,278.13 615.60,261.58 624.80,261.58 624.80,248.86 634.00,248.86 634.00,234.07 643.20,234.07 643.20,220.60 652.40,220.60 652.40,214.01 661.60,214.01 661.60,202.67 670.80,202.67 670.80,177.82 680.00,177.82 680.00,161.96 689.20,161.96 689.20,150.79 698.40,150.79 698.40,144.35 707.60,144.35 707.60,131.37 716.80,131.37 716.80,122.64 726.00,122.64 726.00,113.86 735.20,113.86 735.20,110.13 744.40,110.13 744.40,96.73 753.60,96.73 753.60,82.94 762.80,82.94 762.80,76.03 772.00,76.03 772.00,71.45 781.20,71.45 781.20,61.87 790.40,61.87 790.40,53.62 799.60,53.62 799.60,47.45 808.80,47.45 808.80,44.10 818.00,44.10 818.00,40.00" fill="none" stroke="#4b8f29" stroke-width="3"/>
<text x="450.0" y="552" text-anchor="middle" font-size="20" font-family="Arial, sans-serif" fill="#111827">Top displacement (mm)</text>
<text x="24" y="280.0" text-anchor="middle" transform="rotate(-90 24 280.0)" font-size="20" font-family="Arial, sans-serif" fill="#111827">Force magnitude (N)</text>
<text x="880" y="280.0" text-anchor="middle" transform="rotate(90 880 280.0)" font-size="20" font-family="Arial, sans-serif" fill="#111827">Broken bonds</text>
<text x="102" y="64" font-size="18" font-family="Arial, sans-serif" fill="#1b6ca8">Top plate</text>
<text x="212" y="64" font-size="18" font-family="Arial, sans-serif" fill="#d1495b">Bottom plate</text>
<text x="352" y="64" font-size="18" font-family="Arial, sans-serif" fill="#4b8f29">Broken bonds</text>
<text x="72" y="45" text-anchor="end" font-size="17" fill="#30363d">121.97</text>
<text x="72" y="488" text-anchor="end" font-size="17" fill="#30363d">0</text>
<text x="828" y="45" text-anchor="start" font-size="17" fill="#30363d">8419</text>
<text x="828" y="488" text-anchor="start" font-size="17" fill="#30363d">0</text>
</svg>
