<svg xmlns="http://www.w3.org/2000/svg" width="900" height="560" viewBox="0 0 900 560">
<rect width="100%" height="100%" fill="white"/>
<text x="450.0" y="26" text-anchor="middle" font-size="22" font-family="Arial, sans-serif" fill="#111827">SP-002 force-displacement and bond breakage</text>
<line x1="82" y1="40.00" x2="818" y2="40.00" stroke="#d9dee2" stroke-width="1"/><line x1="82" y1="129.60" x2="818" y2="129.60" stroke="#d9dee2" stroke-width="1"/><line x1="82" y1="219.20" x2="818" y2="219.20" stroke="#d9dee2" stroke-width="1"/><line x1="82" y1="308.80" x2="818" y2="308.80" stroke="#d9dee2" stroke-width="1"/><line x1="82" y1="398.40" x2="818" y2="398.40" stroke="#d9dee2" stroke-width="1"/><line x1="82" y1="488.00" x2="818" y2="488.00" stroke="#d9dee2" stroke-width="1"/><line x1="82.00" y1="40" x2="82.00" y2="488" stroke="#edf0f2" stroke-width="1"/><text x="82.00" y="526" text-anchor="middle" font-size="18" fill="#30363d">0.000</text><line x1="229.20" y1="40" x2="229.20" y2="488" stroke="#edf0f2" stroke-width="1"/><text x="229.20" y="526" text-anchor="middle" font-size="18" fill="#30363d">0.060</text><line x1="376.40" y1="40" x2="376.40" y2="488" stroke="#edf0f2" stroke-width="1"/><text x="376.40" y="526" text-anchor="middle" font-size="18" fill="#30363d">0.120</text><line x1="523.60" y1="40" x2="523.60" y2="488" stroke="#edf0f2" stroke-width="1"/><text x="523.60" y="526" text-anchor="middle" font-size="18" fill="#30363d">0.180</text><line x1="670.80" y1="40" x2="670.80" y2="488" stroke="#edf0f2" stroke-width="1"/><text x="670.80" y="526" text-anchor="middle" font-size="18" fill="#30363d">0.240</text><line x1="818.00" y1="40" x2="818.00" y2="488" stroke="#edf0f2" stroke-width="1"/><text x="818.00" y="526" text-anchor="middle" font-size="18" fill="#30363d">0.300</text>
<line x1="82" y1="40" x2="82" y2="488" stroke="#111827" stroke-width="1.5"/>
<line x1="82" y1="488" x2="818" y2="488" stroke="#111827" stroke-width="1.5"/>
<line x1="818" y1="40" x2="818" y2="488" stroke="#111827" stroke-width="1.5"/>
<polyline points="82.00,488.00 82.61,488.00 83.23,488.00 83.84,488.00 84.45,488.00 85.07,488.00 85.68,488.00 86.29,488.00 86.91,488.00 87.52,488.00 88.13,488.00 88.75,488.00 89.36,488.00 89.97,488.00 90.59,488.00 91.20,488.00 91.81,488.00 92.43,488.00 93.04,488.00 93.65,488.00 94.27,488.00 94.88,488.00 95.49,488.00 96.11,488.00 96.72,488.00 97.33,488.00 97.95,488.00 98.56,488.00 99.17,488.00 99.79,488.00 100.40,488.00 101.01,488.00 101.63,488.00 102.24,488.00 102.85,488.00 103.47,488.00 104.08,488.00 104.69,488.00 105.31,488.00 105.92,488.00 106.53,488.00 107.15,488.00 107.76,488.00 108.37,488.00 108.99,488.00 109.60,488.00 110.21,488.00 110.83,488.00 111.44,488.00 112.05,488.00 112.67,488.00 113.28,488.00 113.89,488.00 114.51,488.00 115.12,488.00 115.73,488.00 116.35,488.00 116.96,488.00 117.57,488.00 118.19,488.00 118.80,488.00 119.41,488.00 120.03,488.00 120.64,488.00 121.25,488.00 121.87,488.00 122.48,488.00 123.09,488.00 123.71,488.00 124.32,488.00 124.93,488.00 125.55,488.00 126.16,488.00 126.77,488.00 127.39,488.00 128.00,488.00 128.61,488.00 129.23,488.00 129.84,488.00 130.45,488.00 131.07,488.00 131.68,488.00 132.29,488.00 132.91,488.00 133.52,488.00 134.13,488.00 134.75,488.00 135.36,488.00 135.97,488.00 136.59,488.00 137.20,488.00 137.81,488.00 138.43,488.00 139.04,488.00 139.65,488.00 140.27,488.00 140.88,488.00 141.49,488.00 142.11,488.00 142.72,488.00 143.33,488.00 143.95,488.00 144.56,488.00 145.17,488.00 145.79,488.00 146.40,488.00 147.01,488.00 147.63,488.00 148.24,488.00 148.85,488.00 149.47,488.00 150.08,488.00 150.69,488.00 151.31,488.00 151.92,488.00 152.53,488.00 153.15,488.00 153.76,488.00 154.37,488.00 154.99,488.00 155.60,488.00 156.21,488.00 156.83,488.00 157.44,488.00 158.05,488.00 158.67,488.00 159.28,488.00 159.89,488.00 160.51,488.00 161.12,488.00 161.73,488.00 162.35,488.00 162.96,488.00 163.57,488.00 164.19,488.00 164.80,488.00 165.41,488.00 166.03,488.00 166.64,488.00 167.25,488.00 167.87,488.00 168.48,488.00 169.09,488.00 169.71,488.00 170.32,488.00 170.93,488.00 171.55,488.00 172.16,488.00 172.77,488.00 173.39,488.00 174.00,488.00 174.61,488.00 175.23,488.00 175.84,488.00 176.45,488.00 177.07,488.00 177.68,488.00 178.29,488.00 178.91,488.00 179.52,488.00 180.13,488.00 180.75,488.00 181.36,488.00 181.97,488.00 182.59,488.00 183.20,488.00 183.81,488.00 184.43,488.00 185.04,488.00 185.65,488.00 186.27,488.00 186.88,488.00 187.49,488.00 188.11,488.00 188.72,488.00 189.33,488.00 189.95,488.00 190.56,488.00 191.17,488.00 191.79,488.00 192.40,488.00 193.01,488.00 193.63,488.00 194.24,488.00 194.85,488.00 195.47,488.00 196.08,488.00 196.69,488.00 197.31,488.00 197.92,488.00 198.53,488.00 199.15,488.00 199.76,488.00 200.37,488.00 200.99,488.00 201.60,488.00 202.21,488.00 202.83,488.00 203.44,488.00 204.05,488.00 204.67,488.00 205.28,488.00 205.89,488.00 206.51,488.00 207.12,488.00 207.73,488.00 208.35,488.00 208.96,488.00 209.57,488.00 210.19,488.00 210.80,488.00 211.41,488.00 212.03,488.00 212.64,488.00 213.25,488.00 213.87,488.00 214.48,488.00 215.09,488.00 215.71,488.00 216.32,488.00 216.93,488.00 217.55,488.00 218.16,488.00 218.77,488.00 219.39,488.00 220.00,488.00 220.61,488.00 221.23,488.00 221.84,488.00 222.45,488.00 223.07,488.00 223.68,488.00 224.29,488.00 224.91,488.00 225.52,488.00 226.13,488.00 226.75,488.00 227.36,488.00 227.97,488.00 228.59,488.00 229.20,488.00 229.81,488.00 230.43,488.00 231.04,488.00 231.65,488.00 232.27,488.00 232.88,488.00 233.49,488.00 234.11,488.00 234.72,488.00 235.33,488.00 235.95,488.00 236.56,488.00 237.17,488.00 237.79,488.00 238.40,488.00 239.01,488.00 239.63,488.00 240.24,488.00 240.85,488.00 241.47,488.00 242.08,488.00 242.69,488.00 243.31,488.00 243.92,488.00 244.53,488.00 245.15,488.00 245.76,488.00 246.37,488.00 246.99,488.00 247.60,488.00 248.21,488.00 248.83,488.00 249.44,488.00 250.05,488.00 250.67,488.00 251.28,488.00 251.89,488.00 252.51,488.00 253.12,488.00 253.73,488.00 254.35,488.00 254.96,488.00 255.57,488.00 256.19,488.00 256.80,488.00 257.41,488.00 258.03,488.00 258.64,488.00 259.25,488.00 259.87,488.00 260.48,488.00 261.09,488.00 261.71,488.00 262.32,488.00 262.93,488.00 263.55,488.00 264.16,488.00 264.77,488.00 265.39,488.00 266.00,488.00 266.61,488.00 267.23,488.00 267.84,488.00 268.45,488.00 269.07,488.00 269.68,488.00 270.29,488.00 270.91,488.00 271.52,488.00 272.13,488.00 272.75,488.00 273.36,488.00 273.97,488.00 274.59,488.00 275.20,488.00 275.81,488.00 276.43,488.00 277.04,488.00 277.65,488.00 278.27,488.00 278.88,488.00 279.49,488.00 280.11,488.00 280.72,488.00 281.33,488.00 281.95,488.00 282.56,488.00 283.17,488.00 283.79,488.00 284.40,488.00 285.01,488.00 285.63,488.00 286.24,488.00 286.85,488.00 287.47,488.00 288.08,488.00 288.69,488.00 289.31,488.00 289.92,488.00 290.53,488.00 291.15,488.00 291.76,488.00 292.37,488.00 292.99,488.00 293.60,488.00 294.21,488.00 294.83,488.00 295.44,488.00 296.05,488.00 296.67,488.00 297.28,488.00 297.89,488.00 298.51,488.00 299.12,488.00 299.73,488.00 300.35,488.00 300.96,488.00 301.57,488.00 302.19,488.00 302.80,488.00 303.41,488.00 304.03,488.00 304.64,488.00 305.25,488.00 305.87,488.00 306.48,488.00 307.09,488.00 307.71,488.00 308.32,488.00 308.93,488.00 309.55,488.00 310.16,488.00 310.77,488.00 311.39,488.00 312.00,488.00 312.61,488.00 313.23,488.00 313.84,488.00 314.45,488.00 315.07,488.00 315.68,488.00 316.29,488.00 316.91,488.00 317.52,488.00 318.13,488.00 318.75,488.00 319.36,488.00 319.97,488.00 320.59,488.00 321.20,488.00 321.81,488.00 322.43,488.00 323.04,488.00 323.65,488.00 324.27,488.00 324.88,488.00 325.49,488.00 326.11,488.00 326.72,488.00 327.33,488.00 327.95,487.29 328.56,486.13 329.17,484.74 329.79,483.18 330.40,481.49 331.01,479.69 331.63,477.81 332.24,475.84 332.85,473.80 333.47,471.70 334.08,469.54 334.69,467.33 335.31,465.06 335.92,462.75 336.53,460.40 337.15,458.01 337.76,455.58 338.37,453.12 338.99,450.62 339.60,448.09 340.21,445.86 340.83,443.31 341.44,443.22 342.05,440.90 342.67,487.97 343.28,487.98 343.89,487.56 344.51,486.48 345.12,485.16 345.73,483.69 346.35,482.11 346.96,480.45 347.57,478.72 348.19,476.93 348.80,475.09 349.41,472.68 350.03,469.68 350.64,466.36 351.25,462.82 351.87,459.10 352.48,455.22 353.09,451.21 353.71,447.07 354.32,442.83 354.93,438.49 355.55,434.06 356.16,429.55 356.77,424.95 357.39,423.55 358.00,433.33 358.61,452.37 359.23,456.28 359.84,455.82 360.45,453.98 361.07,451.68 361.68,449.20 362.29,446.63 362.91,444.00 363.52,441.32 364.13,438.60 364.75,435.83 365.36,433.02 365.97,430.17 366.59,427.28 367.20,424.36 367.81,456.04 368.43,450.62 369.04,447.35 369.65,444.91 370.27,442.77 370.88,440.72 371.49,440.47 372.11,444.77 372.72,443.53 373.33,441.37 373.95,445.71 374.56,460.78 375.17,462.98 375.79,462.16 376.40,460.61 377.01,458.84 377.63,457.01 378.24,455.12 378.85,453.20 379.47,451.26 380.08,449.28 380.69,447.27 381.31,445.24 381.92,443.18 382.53,441.10 383.15,438.98 383.76,436.82 384.37,434.64 384.99,444.21 385.60,452.18 386.21,454.50 386.83,454.78 387.44,454.22 388.05,453.27 388.67,452.12 389.28,450.88 389.89,449.59 390.51,448.28 391.12,446.95 391.73,445.62 392.35,444.28 392.96,455.12 393.57,465.44 394.19,471.17 394.80,474.55 395.41,476.66 396.03,478.02 396.64,478.92 397.25,479.53 397.87,479.95 398.48,480.24 399.09,480.44 399.71,480.59 400.32,480.69 400.93,480.77 401.55,480.83 402.16,480.87 402.77,480.91 403.39,480.93 404.00,480.95 404.61,480.97 405.23,480.98 405.84,480.99 406.45,481.00 407.07,481.00 407.68,481.00 408.29,481.00 408.91,480.99 409.52,480.98 410.13,480.96 410.75,480.90 411.36,480.79 411.97,480.61 412.59,480.31 413.20,479.89 413.81,479.35 414.43,478.74 415.04,478.09 415.65,477.41 416.27,476.69 416.88,475.94 417.49,475.18 418.11,474.41 418.72,473.63 419.33,472.86 419.95,472.08 420.56,471.31 421.17,470.54 421.79,469.78 422.40,469.03 423.01,468.28 423.63,467.54 424.24,466.81 424.85,466.09 425.47,465.38 426.08,464.68 426.69,463.99 427.31,463.31 427.92,462.65 428.53,462.00 429.15,461.37 429.76,460.75 430.37,460.13 430.99,459.53 431.60,458.95 432.21,458.39 432.83,457.86 433.44,457.24 434.05,456.27 434.67,455.14 435.28,453.90 435.89,452.61 436.51,451.31 437.12,450.02 437.73,448.73 438.35,447.18 438.96,445.25 439.57,443.08 440.19,440.73 440.80,438.24 441.41,435.64 442.03,432.94 442.64,430.15 443.25,427.27 443.87,424.32 444.48,421.33 445.09,418.29 445.71,415.21 446.32,412.10 446.93,408.94 447.55,405.74 448.16,402.36 448.77,398.52 449.39,394.43 450.00,390.15 450.61,385.71 451.23,381.14 451.84,376.45 452.45,446.30 453.07,443.76 453.68,439.79 454.29,436.04 454.91,432.64 455.52,429.44 456.13,426.31 456.75,423.22 457.36,420.12 457.97,417.00 458.59,413.85 459.20,410.65 459.81,407.35 460.43,403.96 461.04,400.49 461.65,396.91 462.27,392.70 462.88,388.22 463.49,418.52 464.11,406.63 464.72,401.82 465.33,426.93 465.95,422.36 466.56,418.36 467.17,414.30 467.79,410.18 468.40,405.99 469.01,401.75 469.63,397.47 470.24,393.13 470.85,388.75 471.47,384.33 472.08,379.87 472.69,375.38 473.31,370.86 473.92,368.18 474.53,363.36 475.15,358.84 475.76,462.70 476.37,458.14 476.99,455.31 477.60,453.84 478.21,452.78 478.83,451.76 479.44,450.89 480.05,450.10 480.67,449.38 481.28,448.68 481.89,448.02 482.51,447.38 483.12,446.78 483.73,446.20 484.35,445.58 484.96,444.98 485.57,444.40 486.19,443.84 486.80,443.30 487.41,442.72 488.03,441.94 488.64,441.09 489.25,440.19 489.87,438.76 490.48,436.53 491.09,434.06 491.71,431.41 492.32,428.66 492.93,426.41 493.55,423.33 494.16,420.29 494.77,417.24 495.39,414.15 496.00,411.06 496.61,407.94 497.23,404.82 497.84,401.68 498.45,398.58 499.07,395.51 499.68,392.45 500.29,389.40 500.91,386.37 501.52,383.37 502.13,380.40 502.75,377.49 503.36,374.61 503.97,371.80 504.59,369.06 505.20,366.39 505.81,363.81 506.43,361.31 507.04,358.92 507.65,356.62 508.27,354.43 508.88,352.41 509.49,350.48 510.11,348.67 510.72,347.04 511.33,345.54 511.95,344.23 512.56,343.05 513.17,346.32 513.79,343.97 514.40,340.28 515.01,359.14 515.63,362.67 516.24,360.00 516.85,356.41 517.47,352.31 518.08,347.81 518.69,343.00 519.31,337.93 519.92,332.65 520.53,327.14 521.15,321.45 521.76,315.64 522.37,309.74 522.99,310.42 523.60,319.92 524.21,319.83 524.83,319.98 525.44,321.07 526.05,319.69 526.67,320.08 527.28,336.90 527.89,336.35 528.51,338.64 529.12,340.93 529.73,340.12 530.35,338.04 530.96,334.94 531.57,331.35 532.19,363.34 532.80,364.97 533.41,362.22 534.03,358.53 534.64,354.52 535.25,350.34 535.87,346.06 536.48,341.68 537.09,337.25 537.71,332.72 538.32,397.82 538.93,402.55 539.55,401.89 540.16,399.90 540.77,397.36 541.39,394.49 542.00,390.94 542.61,387.13 543.23,383.13 543.84,379.06 544.45,374.90 545.07,370.66 545.68,366.37 546.29,387.70 546.91,398.10 547.52,399.93 548.13,399.10 548.75,396.95 549.36,423.71 549.97,441.32 550.59,447.60 551.20,450.24 551.81,450.01 552.43,448.28 553.04,445.88 553.65,442.87 554.27,439.50 554.88,435.99 555.49,432.27 556.11,428.20 556.72,423.84 557.33,419.31 557.95,414.64 558.56,409.86 559.17,404.97 559.79,399.97 560.40,394.87 561.01,389.67 561.63,391.31 562.24,395.17 562.85,395.38 563.47,393.87 564.08,391.17 564.69,387.97 565.31,384.39 565.92,380.53 566.53,376.24 567.15,371.93 567.76,367.37 568.37,362.47 568.99,357.28 569.60,351.88 570.21,346.34 570.83,340.73 571.44,335.00 572.05,329.18 572.67,325.20 573.28,345.13 573.89,345.50 574.51,340.48 575.12,373.32 575.73,382.13 576.35,379.76 576.96,377.04 577.57,374.35 578.19,371.65 578.80,368.79 579.41,365.75 580.03,362.57 580.64,359.26 581.25,355.89 581.87,352.41 582.48,348.76 583.09,344.99 583.71,341.15 584.32,337.24 584.93,333.25 585.55,329.16 586.16,357.60 586.77,348.01 587.39,344.79 588.00,349.50 588.61,363.04 589.23,385.86 589.84,388.93 590.45,388.49 591.07,387.39 591.68,385.93 592.29,384.16 592.91,381.80 593.52,378.89 594.13,375.58 594.75,372.04 595.36,368.29 595.97,364.40 596.59,360.38 597.20,356.28 597.81,351.96 598.43,347.37 599.04,342.60 599.65,337.70 600.27,332.62 600.88,327.40 601.49,322.08 602.11,316.66 602.72,311.17 603.33,305.61 603.95,299.98 604.56,294.29 605.17,288.56 605.79,283.45 606.40,281.58 607.01,278.99 607.63,274.07 608.24,268.48 608.85,262.67 609.47,256.75 610.08,250.76 610.69,244.69 611.31,238.56 611.92,232.37 612.53,227.52 613.15,220.94 613.76,214.37 614.37,235.67 614.99,241.44 615.60,302.62 616.21,298.40 616.83,303.29 617.44,308.92 618.05,314.15 618.67,317.37 619.28,317.70 619.89,316.53 620.51,313.92 621.12,310.34 621.73,306.06 622.35,301.24 622.96,296.27 623.57,291.18 624.19,285.96 624.80,280.60 625.41,275.14 626.03,269.61 626.64,264.02 627.25,258.40 627.87,291.40 628.48,339.44 629.09,343.26 629.71,348.02 630.32,368.12 630.93,373.26 631.55,399.48 632.16,399.32 632.77,398.27 633.39,397.29 634.00,396.28 634.61,395.19 635.23,394.04 635.84,392.81 636.45,391.50 637.07,390.09 637.68,388.58 638.29,386.98 638.91,385.29 639.52,383.50 640.13,381.61 640.75,379.64 641.36,377.58 641.97,375.43 642.59,373.11 643.20,370.45 643.81,367.51 644.43,364.32 645.04,360.91 645.65,357.36 646.27,353.69 646.88,349.91 647.49,346.08 648.11,342.19 648.72,337.81 649.33,332.96 649.95,328.14 650.56,325.19 651.17,320.38 651.79,315.70 652.40,310.99 653.01,358.27 653.63,341.67 654.24,338.13 654.85,334.56 655.47,330.72 656.08,330.29 656.69,328.97 657.31,334.65 657.92,333.84 658.53,330.30 659.15,326.40 659.76,390.98 660.37,383.45 660.99,393.87 661.60,402.32 662.21,404.92 662.83,405.16 663.44,404.07 664.05,402.57 664.67,400.54 665.28,398.09 665.89,395.27 666.51,392.19 667.12,389.03 667.73,385.92 668.35,382.78 668.96,379.63 669.57,376.53 670.19,373.41 670.80,370.26 671.41,367.02 672.03,363.88 672.64,360.72 673.25,357.62 673.87,354.52 674.48,351.53 675.09,348.53 675.71,345.53 676.32,342.58 676.93,339.55 677.55,336.66 678.16,333.87 678.77,331.15 679.39,352.36 680.00,371.08 680.61,373.19 681.23,372.64 681.84,372.17 682.45,370.26 683.07,367.71 683.68,366.04 684.29,364.32 684.91,403.82 685.52,392.46 686.13,389.60 686.75,386.87 687.36,384.12 687.97,381.33 688.59,378.43 689.20,375.51 689.81,372.54 690.43,369.55 691.04,366.49 691.65,363.41 692.27,360.28 692.88,357.20 693.49,354.21 694.11,351.19 694.72,348.08 695.33,344.87 695.95,341.61 696.56,338.30 697.17,337.05 697.79,333.39 698.40,329.89 699.01,326.44 699.63,322.97 700.24,319.50 700.85,315.99 701.47,312.44 702.08,308.86 702.69,305.26 703.31,301.64 703.92,297.98 704.53,294.29 705.15,290.57 705.76,286.82 706.37,283.02 706.99,279.18 707.60,275.29 708.21,274.90 708.83,268.95 709.44,264.83 710.05,260.52 710.67,255.91 711.28,250.99 711.89,245.82 712.51,245.53 713.12,276.44 713.73,270.49 714.35,267.39 714.96,262.57 715.57,257.60 716.19,338.71 716.80,319.04 717.41,315.10 718.03,311.27 718.64,307.60 719.25,303.92 719.87,299.74 720.48,295.35 721.09,290.82 721.71,290.44 722.32,285.99 722.93,292.52 723.55,293.99 724.16,294.76 724.77,294.96 725.39,294.68 726.00,294.39 726.61,294.93 727.23,323.19 727.84,329.99 728.45,333.35 729.07,334.98 729.68,334.46 730.29,331.88 730.91,328.73 731.52,325.15 732.13,321.20 732.75,316.99 733.36,312.56 733.97,307.97 734.59,303.23 735.20,298.38 735.81,293.43 736.43,288.39 737.04,283.27 737.65,278.08 738.27,272.83 738.88,267.53 739.49,262.17 740.11,256.77 740.72,251.30 741.33,245.78 741.95,240.22 742.56,234.63 743.17,290.50 743.79,278.81 744.40,275.34 745.01,272.34 745.63,267.04 746.24,260.22 746.85,253.79 747.47,247.87 748.08,242.02 748.69,235.99 749.31,229.81 749.92,223.44 750.53,264.15 751.15,276.84 751.76,271.35 752.37,264.87 752.99,258.30 753.60,251.77 754.21,245.21 754.83,241.88 755.44,234.04 756.05,227.29 756.67,220.46 757.28,213.56 757.89,208.66 758.51,203.57 759.12,221.56 759.73,215.62 760.35,209.21 760.96,202.70 761.57,196.13 762.19,189.52 762.80,182.86 763.41,176.15 764.03,225.97 764.64,217.73 765.25,211.30 765.87,250.85 766.48,306.54 767.09,315.06 767.71,316.60 768.32,314.56 768.93,311.86 769.55,308.56 770.16,304.81 770.77,300.68 771.39,296.26 772.00,340.82 772.61,335.32 773.23,331.15 773.84,326.98 774.45,322.37 775.07,317.50 775.68,312.45 776.29,307.25 776.91,301.89 777.52,296.44 778.13,290.83 778.75,285.10 779.36,279.29 779.97,273.34 780.59,308.16 781.20,299.35 781.81,294.54 782.43,290.09 783.04,288.66 783.65,280.43 784.27,273.27 784.88,267.50 785.49,261.82 786.11,256.16 786.72,250.57 787.33,244.85 787.95,238.81 788.56,232.52 789.17,225.93 789.79,219.14 790.40,212.20 791.01,206.15 791.63,198.59 792.24,191.25 792.85,183.88 793.47,176.53 794.08,169.08 794.69,223.11 795.31,223.10 795.92,226.91 796.53,247.50 797.15,242.88 797.76,234.91 798.37,227.33 798.99,219.69 799.60,211.70 800.21,203.52 800.83,195.16 801.44,186.62 802.05,224.44 802.67,206.70 803.28,198.03 803.89,189.14 804.51,180.10 805.12,170.93 805.73,161.70 806.35,152.54 806.96,143.29 807.57,133.93 808.19,124.52 808.80,115.02 809.41,105.43 810.03,95.75 810.64,86.00 811.25,107.56 811.87,94.74 812.48,85.44 813.09,76.09 813.71,66.67 814.32,57.15 814.93,49.44 815.55,40.00 816.16,59.11 816.77,94.24 817.39,137.54 818.00,186.52" fill="none" stroke="#1b6ca8" stroke-width="3"/>
<polyline points="82.00,488.00 82.61,488.00 83.23,488.00 83.84,488.00 84.45,488.00 85.07,488.00 85.68,488.00 86.29,488.00 86.91,488.00 87.52,488.00 88.13,488.00 88.75,488.00 89.36,488.00 89.97,488.00 90.59,488.00 91.20,488.00 91.81,488.00 92.43,488.00 93.04,488.00 93.65,488.00 94.27,488.00 94.88,488.00 95.49,488.00 96.11,488.00 96.72,488.00 97.33,488.00 97.95,488.00 98.56,488.00 99.17,488.00 99.79,488.00 100.40,488.00 101.01,488.00 101.63,488.00 102.24,488.00 102.85,488.00 103.47,488.00 104.08,488.00 104.69,488.00 105.31,488.00 105.92,488.00 106.53,488.00 107.15,488.00 107.76,488.00 108.37,488.00 108.99,488.00 109.60,488.00 110.21,488.00 110.83,488.00 111.44,488.00 112.05,488.00 112.67,488.00 113.28,488.00 113.89,488.00 114.51,488.00 115.12,488.00 115.73,488.00 116.35,488.00 116.96,488.00 117.57,488.00 118.19,488.00 118.80,488.00 119.41,488.00 120.03,488.00 120.64,488.00 121.25,488.00 121.87,488.00 122.48,488.00 123.09,488.00 123.71,488.00 124.32,488.00 124.93,488.00 125.55,488.00 126.16,488.00 126.77,488.00 127.39,488.00 128.00,488.00 128.61,488.00 129.23,488.00 129.84,488.00 130.45,488.00 131.07,488.00 131.68,488.00 132.29,488.00 132.91,488.00 133.52,488.00 134.13,488.00 134.75,488.00 135.36,488.00 135.97,488.00 136.59,488.00 137.20,488.00 137.81,488.00 138.43,488.00 139.04,488.00 139.65,488.00 140.27,488.00 140.88,488.00 141.49,488.00 142.11,488.00 142.72,488.00 143.33,488.00 143.95,488.00 144.56,488.00 145.17,488.00 145.79,488.00 146.40,488.00 147.01,488.00 147.63,488.00 148.24,488.00 148.85,488.00 149.47,488.00 150.08,488.00 150.69,488.00 151.31,488.00 151.92,488.00 152.53,488.00 153.15,488.00 153.76,488.00 154.37,488.00 154.99,488.00 155.60,488.00 156.21,488.00 156.83,488.00 157.44,488.00 158.05,488.00 158.67,488.00 159.28,488.00 159.89,488.00 160.51,488.00 161.12,488.00 161.73,488.00 162.35,488.00 162.96,488.00 163.57,488.00 164.19,488.00 164.80,488.00 165.41,488.00 166.03,488.00 166.64,488.00 167.25,488.00 167.87,488.00 168.48,488.00 169.09,488.00 169.71,488.00 170.32,488.00 170.93,488.00 171.55,488.00 172.16,488.00 172.77,488.00 173.39,488.00 174.00,488.00 174.61,488.00 175.23,488.00 175.84,488.00 176.45,488.00 177.07,488.00 177.68,488.00 178.29,488.00 178.91,488.00 179.52,488.00 180.13,488.00 180.75,488.00 181.36,488.00 181.97,488.00 182.59,488.00 183.20,488.00 183.81,488.00 184.43,488.00 185.04,488.00 185.65,488.00 186.27,488.00 186.88,488.00 187.49,488.00 188.11,488.00 188.72,488.00 189.33,488.00 189.95,488.00 190.56,488.00 191.17,488.00 191.79,488.00 192.40,488.00 193.01,488.00 193.63,488.00 194.24,488.00 194.85,488.00 195.47,488.00 196.08,488.00 196.69,488.00 197.31,488.00 197.92,488.00 198.53,488.00 199.15,488.00 199.76,488.00 200.37,488.00 200.99,488.00 201.60,488.00 202.21,488.00 202.83,488.00 203.44,488.00 204.05,488.00 204.67,488.00 205.28,488.00 205.89,488.00 206.51,488.00 207.12,488.00 207.73,488.00 208.35,488.00 208.96,488.00 209.57,488.00 210.19,488.00 210.80,488.00 211.41,488.00 212.03,488.00 212.64,488.00 213.25,488.00 213.87,488.00 214.48,488.00 215.09,488.00 215.71,488.00 216.32,488.00 216.93,488.00 217.55,488.00 218.16,488.00 218.77,488.00 219.39,488.00 220.00,488.00 220.61,488.00 221.23,488.00 221.84,488.00 222.45,488.00 223.07,488.00 223.68,488.00 224.29,488.00 224.91,488.00 225.52,488.00 226.13,488.00 226.75,488.00 227.36,488.00 227.97,488.00 228.59,488.00 229.20,488.00 229.81,488.00 230.43,488.00 231.04,488.00 231.65,488.00 232.27,488.00 232.88,488.00 233.49,488.00 234.11,488.00 234.72,488.00 235.33,488.00 235.95,488.00 236.56,488.00 237.17,488.00 237.79,488.00 238.40,488.00 239.01,488.00 239.63,488.00 240.24,488.00 240.85,488.00 241.47,488.00 242.08,488.00 242.69,488.00 243.31,488.00 243.92,488.00 244.53,488.00 245.15,488.00 245.76,488.00 246.37,488.00 246.99,488.00 247.60,488.00 248.21,488.00 248.83,488.00 249.44,488.00 250.05,488.00 250.67,488.00 251.28,488.00 251.89,488.00 252.51,488.00 253.12,488.00 253.73,488.00 254.35,488.00 254.96,488.00 255.57,488.00 256.19,488.00 256.80,488.00 257.41,488.00 258.03,488.00 258.64,488.00 259.25,488.00 259.87,488.00 260.48,488.00 261.09,488.00 261.71,488.00 262.32,488.00 262.93,488.00 263.55,488.00 264.16,488.00 264.77,488.00 265.39,488.00 266.00,488.00 266.61,488.00 267.23,488.00 267.84,488.00 268.45,488.00 269.07,488.00 269.68,488.00 270.29,488.00 270.91,488.00 271.52,488.00 272.13,488.00 272.75,488.00 273.36,488.00 273.97,488.00 274.59,488.00 275.20,488.00 275.81,488.00 276.43,488.00 277.04,488.00 277.65,488.00 278.27,488.00 278.88,488.00 279.49,488.00 280.11,488.00 280.72,488.00 281.33,488.00 281.95,488.00 282.56,488.00 283.17,488.00 283.79,488.00 284.40,488.00 285.01,488.00 285.63,488.00 286.24,488.00 286.85,488.00 287.47,488.00 288.08,488.00 288.69,488.00 289.31,488.00 289.92,488.00 290.53,488.00 291.15,488.00 291.76,488.00 292.37,488.00 292.99,488.00 293.60,488.00 294.21,488.00 294.83,488.00 295.44,488.00 296.05,488.00 296.67,488.00 297.28,488.00 297.89,488.00 298.51,488.00 299.12,488.00 299.73,488.00 300.35,488.00 300.96,488.00 301.57,488.00 302.19,488.00 302.80,488.00 303.41,488.00 304.03,488.00 304.64,488.00 305.25,488.00 305.87,488.00 306.48,488.00 307.09,488.00 307.71,488.00 308.32,488.00 308.93,488.00 309.55,488.00 310.16,488.00 310.77,488.00 311.39,488.00 312.00,488.00 312.61,488.00 313.23,488.00 313.84,488.00 314.45,488.00 315.07,488.00 315.68,488.00 316.29,488.00 316.91,488.00 317.52,488.00 318.13,488.00 318.75,488.00 319.36,488.00 319.97,488.00 320.59,488.00 321.20,488.00 321.81,488.00 322.43,488.00 323.04,488.00 323.65,488.00 324.27,488.00 324.88,488.00 325.49,488.00 326.11,488.00 326.72,488.00 327.33,488.00 327.95,487.59 328.56,486.59 329.17,485.29 329.79,483.79 330.40,482.15 331.01,480.39 331.63,478.54 332.24,476.60 332.85,474.59 333.47,472.52 334.08,470.38 334.69,468.18 335.31,465.94 335.92,463.65 336.53,461.31 337.15,458.94 337.76,456.52 338.37,454.07 338.99,451.59 339.60,449.07 340.21,446.47 340.83,444.25 341.44,443.93 342.05,441.77 342.67,451.16 343.28,485.50 343.89,487.64 344.51,486.92 345.12,485.70 345.73,484.28 346.35,482.75 346.96,481.12 347.57,479.41 348.19,477.64 348.80,475.82 349.41,473.69 350.03,470.89 350.64,467.69 351.25,464.24 351.87,460.59 352.48,456.77 353.09,452.81 353.71,448.72 354.32,444.52 354.93,440.22 355.55,435.83 356.16,431.35 356.77,434.73 357.39,443.87 358.00,487.00 358.61,473.12 359.23,465.64 359.84,461.53 360.45,458.54 361.07,455.88 361.68,453.29 362.29,450.69 362.91,448.05 363.52,445.37 364.13,442.65 364.75,439.88 365.36,437.07 365.97,434.22 366.59,431.34 367.20,428.41 367.81,439.75 368.43,446.06 369.04,447.21 369.65,446.55 370.27,445.14 370.88,443.41 371.49,441.47 372.11,442.15 372.72,442.79 373.33,442.33 373.95,482.73 374.56,472.81 375.17,468.63 375.79,466.30 376.40,464.42 377.01,462.60 377.63,460.77 378.24,458.90 378.85,456.99 379.47,455.05 380.08,453.08 380.69,451.08 381.31,449.05 381.92,447.00 382.53,444.93 383.15,442.82 383.76,440.68 384.37,438.50 384.99,470.13 385.60,465.93 386.21,463.49 386.83,461.76 387.44,460.30 388.05,458.94 388.67,457.57 389.28,456.22 389.89,454.89 390.51,453.56 391.12,452.24 391.73,450.91 392.35,449.57 392.96,488.00 393.57,487.99 394.19,488.00 394.80,488.00 395.41,488.00 396.03,488.00 396.64,488.00 397.25,488.00 397.87,488.00 398.48,488.00 399.09,488.00 399.71,488.00 400.32,488.00 400.93,488.00 401.55,488.00 402.16,488.00 402.77,488.00 403.39,488.00 404.00,488.00 404.61,488.00 405.23,488.00 405.84,488.00 406.45,488.00 407.07,488.00 407.68,488.00 408.29,488.00 408.91,488.00 409.52,488.00 410.13,487.92 410.75,487.67 411.36,487.37 411.97,486.98 412.59,486.37 413.20,485.68 413.81,484.97 414.43,484.24 415.04,483.51 415.65,482.78 416.27,482.06 416.88,481.32 417.49,480.59 418.11,479.85 418.72,479.11 419.33,478.37 419.95,477.64 420.56,476.91 421.17,476.18 421.79,475.46 422.40,474.75 423.01,474.04 423.63,473.34 424.24,472.65 424.85,471.96 425.47,471.29 426.08,470.63 426.69,469.98 427.31,469.35 427.92,468.72 428.53,468.11 429.15,467.52 429.76,466.94 430.37,466.38 430.99,465.85 431.60,465.34 432.21,464.85 432.83,464.39 433.44,463.03 434.05,461.38 434.67,459.98 435.28,458.71 435.89,457.47 436.51,456.22 437.12,454.97 437.73,453.65 438.35,451.54 438.96,449.19 439.57,446.72 440.19,444.15 440.80,441.49 441.41,438.73 442.03,435.89 442.64,432.98 443.25,430.03 443.87,427.04 444.48,424.03 445.09,420.97 445.71,417.88 446.32,414.76 446.93,411.59 447.55,408.39 448.16,405.10 448.77,401.31 449.39,397.22 450.00,392.94 450.61,388.50 451.23,383.93 451.84,379.24 452.45,412.98 453.07,431.62 453.68,434.63 454.29,434.92 454.91,433.83 455.52,431.95 456.13,429.49 456.75,426.69 457.36,423.70 457.97,420.61 458.59,417.45 459.20,414.18 459.81,410.58 460.43,407.04 461.04,403.47 461.65,399.86 462.27,395.80 462.88,391.36 463.49,406.38 464.11,409.64 464.72,404.99 465.33,428.67 465.95,425.40 466.56,421.37 467.17,417.29 467.79,413.15 468.40,408.96 469.01,404.72 469.63,400.42 470.24,396.08 470.85,391.69 471.47,387.27 472.08,382.80 472.69,378.30 473.31,373.77 473.92,370.04 474.53,366.20 475.15,361.68 475.76,401.67 476.37,449.41 476.99,454.74 477.60,455.19 478.21,454.69 478.83,453.88 479.44,453.02 480.05,452.22 480.67,451.47 481.28,450.78 481.89,450.12 482.51,449.49 483.12,448.89 483.73,448.32 484.35,447.75 484.96,447.16 485.57,446.57 486.19,446.00 486.80,445.44 487.41,444.88 488.03,444.16 488.64,443.26 489.25,442.29 489.87,441.18 490.48,439.40 491.09,437.11 491.71,434.48 492.32,431.66 492.93,428.91 493.55,426.05 494.16,422.97 494.77,419.83 495.39,416.66 496.00,413.48 496.61,410.30 497.23,407.10 497.84,403.91 498.45,400.73 499.07,397.59 499.68,394.47 500.29,391.37 500.91,388.29 501.52,385.24 502.13,382.22 502.75,379.24 503.36,376.31 503.97,373.44 504.59,370.62 505.20,367.89 505.81,365.23 506.43,362.66 507.04,360.18 507.65,357.80 508.27,355.54 508.88,353.40 509.49,351.37 510.11,349.49 510.72,347.74 511.33,346.14 511.95,344.70 512.56,343.40 513.17,347.44 513.79,345.45 514.40,342.66 515.01,375.65 515.63,366.80 516.24,363.71 516.85,360.20 517.47,356.15 518.08,351.68 518.69,346.89 519.31,341.84 519.92,336.57 520.53,331.13 521.15,325.51 521.76,319.73 522.37,313.85 522.99,312.33 523.60,321.85 524.21,322.66 524.83,322.79 525.44,323.78 526.05,323.13 526.67,323.27 527.28,335.75 527.89,337.85 528.51,339.16 529.12,341.21 529.73,341.89 530.35,340.69 530.96,338.36 531.57,335.13 532.19,379.64 532.80,371.36 533.41,367.20 534.03,363.39 534.64,359.41 535.25,355.27 535.87,351.00 536.48,346.61 537.09,342.16 537.71,337.62 538.32,417.74 538.93,410.58 539.55,407.14 540.16,404.28 540.77,401.43 541.39,398.46 542.00,395.23 542.61,391.69 543.23,387.89 543.84,383.90 544.45,379.77 545.07,375.54 545.68,371.26 546.29,418.17 546.91,415.68 547.52,410.88 548.13,405.61 548.75,401.78 549.36,457.58 549.97,455.80 550.59,458.27 551.20,457.50 551.81,454.71 552.43,452.02 553.04,449.29 553.65,446.38 554.27,443.16 554.88,439.71 555.49,436.03 556.11,432.10 556.72,427.85 557.33,423.39 557.95,418.76 558.56,414.00 559.17,409.12 559.79,404.13 560.40,399.04 561.01,393.85 561.63,404.35 562.24,403.02 562.85,401.36 563.47,398.17 564.08,394.88 564.69,391.39 565.31,387.69 565.92,383.78 566.53,379.65 567.15,375.32 567.76,370.73 568.37,365.77 568.99,360.68 569.60,355.43 570.21,350.05 570.83,344.55 571.44,338.85 572.05,333.04 572.67,329.46 573.28,358.66 573.89,349.86 574.51,344.42 575.12,397.02 575.73,388.27 576.35,385.29 576.96,382.65 577.57,380.07 578.19,377.38 578.80,374.50 579.41,371.45 580.03,368.24 580.64,364.92 581.25,361.58 581.87,358.07 582.48,354.37 583.09,350.54 583.71,346.65 584.32,342.68 584.93,338.63 585.55,334.40 586.16,338.46 586.77,350.32 587.39,348.30 588.00,384.83 588.61,367.65 589.23,398.20 589.84,395.52 590.45,394.44 591.07,393.15 591.68,391.56 592.29,389.67 592.91,386.81 593.52,383.53 594.13,380.04 594.75,376.32 595.36,372.43 595.97,368.43 596.59,364.35 597.20,360.20 597.81,355.94 598.43,351.40 599.04,346.64 599.65,341.78 600.27,336.75 600.88,331.59 601.49,326.31 602.11,320.95 602.72,315.50 603.33,309.97 603.95,304.38 604.56,298.72 605.17,293.01 605.79,288.91 606.40,288.42 607.01,284.37 607.63,278.86 608.24,273.13 608.85,267.28 609.47,261.34 610.08,255.32 610.69,249.24 611.31,243.09 611.92,236.89 612.53,231.91 613.15,225.50 613.76,218.96 614.37,246.82 614.99,244.80 615.60,259.61 616.21,299.20 616.83,306.38 617.44,312.70 618.05,317.76 618.67,320.93 619.28,321.81 619.89,320.85 620.51,318.29 621.12,314.77 621.73,310.55 622.35,305.77 622.96,300.86 623.57,295.79 624.19,290.57 624.80,285.20 625.41,279.76 626.03,274.25 626.64,268.69 627.25,263.08 627.87,264.69 628.48,320.41 629.09,342.48 629.71,349.47 630.32,356.32 630.93,397.79 631.55,395.27 632.16,396.44 632.77,396.82 633.39,396.72 634.00,396.31 634.61,395.68 635.23,394.87 635.84,393.91 636.45,392.82 637.07,391.60 637.68,390.25 638.29,388.79 638.91,387.21 639.52,385.52 640.13,383.73 640.75,381.84 641.36,379.85 641.97,377.77 642.59,375.44 643.20,372.77 643.81,369.85 644.43,366.69 645.04,363.32 645.65,359.76 646.27,356.08 646.88,352.30 647.49,348.45 648.11,344.55 648.72,340.58 649.33,336.48 649.95,332.22 650.56,329.42 651.17,324.97 651.79,320.34 652.40,315.64 653.01,332.05 653.63,344.96 654.24,342.24 654.85,338.77 655.47,335.00 656.08,335.62 656.69,335.76 657.31,343.06 657.92,338.25 658.53,334.19 659.15,330.17 659.76,343.75 660.37,377.01 660.99,387.38 661.60,396.88 662.21,402.38 662.83,404.90 663.44,405.16 664.05,404.34 664.67,402.84 665.28,400.80 665.89,398.30 666.51,395.43 667.12,392.35 667.73,389.23 668.35,386.09 668.96,382.94 669.57,379.82 670.19,376.67 670.80,373.44 671.41,370.22 672.03,367.04 672.64,363.88 673.25,360.73 673.87,357.63 674.48,354.54 675.09,351.58 675.71,348.59 676.32,345.63 676.93,342.66 677.55,339.72 678.16,336.90 678.77,334.17 679.39,386.66 680.00,380.64 680.61,379.52 681.23,378.55 681.84,377.60 682.45,376.08 683.07,374.11 683.68,372.11 684.29,370.27 684.91,394.89 685.52,398.17 686.13,396.22 686.75,393.59 687.36,390.69 687.97,387.80 688.59,384.83 689.20,381.81 689.81,378.77 690.43,375.74 691.04,372.58 691.65,369.51 692.27,366.43 692.88,363.43 693.49,360.44 694.11,357.42 694.72,354.21 695.33,350.95 695.95,347.65 696.56,344.32 697.17,341.66 697.79,338.95 698.40,335.74 699.01,332.35 699.63,328.90 700.24,325.42 700.85,321.87 701.47,318.31 702.08,314.75 702.69,311.15 703.31,307.52 703.92,303.87 704.53,300.18 705.15,296.45 705.76,292.69 706.37,288.88 706.99,285.04 707.60,281.13 708.21,277.80 708.83,274.66 709.44,270.46 710.05,265.88 710.67,260.78 711.28,255.49 711.89,250.11 712.51,244.64 713.12,270.39 713.73,272.26 714.35,271.51 714.96,267.24 715.57,262.14 716.19,303.76 716.80,319.51 717.41,316.73 718.03,313.60 718.64,310.28 719.25,306.82 719.87,303.02 720.48,298.88 721.09,294.55 721.71,292.81 722.32,290.85 722.93,296.64 723.55,300.52 724.16,301.18 724.77,301.09 725.39,301.10 726.00,301.03 726.61,301.50 727.23,318.06 727.84,331.13 728.45,334.97 729.07,336.85 729.68,337.24 730.29,335.59 730.91,332.81 731.52,329.33 732.13,325.39 732.75,321.16 733.36,316.72 733.97,312.10 734.59,307.34 735.20,302.47 735.81,297.51 736.43,292.46 737.04,287.32 737.65,282.13 738.27,276.87 738.88,271.56 739.49,266.20 740.11,260.79 740.72,255.31 741.33,249.80 741.95,244.25 742.56,238.65 743.17,244.38 743.79,276.25 744.40,275.18 745.01,272.38 745.63,268.75 746.24,263.20 746.85,257.41 747.47,251.90 748.08,246.02 748.69,239.95 749.31,233.75 749.92,227.37 750.53,305.90 751.15,282.32 751.76,275.18 752.37,268.67 752.99,262.14 753.60,255.74 754.21,249.20 754.83,243.16 755.44,238.05 756.05,231.31 756.67,224.49 757.28,217.60 757.89,212.46 758.51,257.44 759.12,225.84 759.73,219.65 760.35,213.26 760.96,206.77 761.57,200.21 762.19,193.61 762.80,186.96 763.41,180.25 764.03,224.00 764.64,221.44 765.25,221.18 765.87,262.84 766.48,308.15 767.09,325.35 767.71,322.41 768.32,319.87 768.93,316.94 769.55,313.45 770.16,309.57 770.77,305.33 771.39,300.82 772.00,332.39 772.61,338.46 773.23,335.48 773.84,331.43 774.45,326.93 775.07,322.07 775.68,317.02 776.29,311.80 776.91,306.42 777.52,300.92 778.13,295.23 778.75,289.51 779.36,283.66 779.97,277.66 780.59,294.84 781.20,301.04 781.81,297.00 782.43,292.01 783.04,285.50 783.65,280.57 784.27,276.58 784.88,271.19 785.49,265.70 786.11,260.11 786.72,254.54 787.33,248.88 787.95,242.96 788.56,236.80 789.17,230.31 789.79,223.56 790.40,216.65 791.01,209.87 791.63,203.03 792.24,195.71 792.85,188.39 793.47,181.04 794.08,173.58 794.69,194.10 795.31,215.54 795.92,222.87 796.53,245.35 797.15,243.54 797.76,238.76 798.37,231.76 798.99,223.87 799.60,215.80 800.21,207.57 800.83,199.20 801.44,190.67 802.05,216.61 802.67,210.64 803.28,202.03 803.89,193.15 804.51,184.12 805.12,174.97 805.73,165.80 806.35,156.66 806.96,147.43 807.57,138.10 808.19,128.69 808.80,119.19 809.41,109.61 810.03,99.94 810.64,90.20 811.25,102.99 811.87,98.81 812.48,89.71 813.09,80.42 813.71,70.99 814.32,61.45 814.93,53.81 815.55,44.30 816.16,43.88 816.77,81.92 817.39,155.44 818.00,193.32" fill="none" stroke="#d1495b" stroke-width="3"/>
<polyline points="82.00,488.00 82.61,488.00 82.61,488.00 83.23,488.00 83.23,488.00 83.84,488.00 83.84,488.00 84.45,488.00 84.45,488.00 85.07,488.00 85.07,488.00 85.68,488.00 85.68,488.00 86.29,488.00 86.29,488.00 86.91,488.00 86.91,488.00 87.52,488.00 87.52,488.00 88.13,488.00 88.13,488.00 88.75,488.00 88.75,488.00 89.36,488.00 89.36,488.00 89.97,488.00 89.97,488.00 90.59,488.00 90.59,488.00 91.20,488.00 91.20,488.00 91.81,488.00 91.81,488.00 92.43,488.00 92.43,488.00 93.04,488.00 93.04,488.00 93.65,488.00 93.65,488.00 94.27,488.00 94.27,488.00 94.88,488.00 94.88,488.00 95.49,488.00 95.49,488.00 96.11,488.00 96.11,488.00 96.72,488.00 96.72,488.00 97.33,488.00 97.33,488.00 97.95,488.00 97.95,488.00 98.56,488.00 98.56,488.00 99.17,488.00 99.17,488.00 99.79,488.00 99.79,488.00 100.40,488.00 100.40,488.00 101.01,488.00 101.01,488.00 101.63,488.00 101.63,488.00 102.24,488.00 102.24,488.00 102.85,488.00 102.85,488.00 103.47,488.00 103.47,488.00 104.08,488.00 104.08,488.00 104.69,488.00 104.69,488.00 105.31,488.00 105.31,488.00 105.92,488.00 105.92,488.00 106.53,488.00 106.53,488.00 107.15,488.00 107.15,488.00 107.76,488.00 107.76,488.00 108.37,488.00 108.37,488.00 108.99,488.00 108.99,488.00 109.60,488.00 109.60,488.00 110.21,488.00 110.21,488.00 110.83,488.00 110.83,488.00 111.44,488.00 111.44,488.00 112.05,488.00 112.05,488.00 112.67,488.00 112.67,488.00 113.28,488.00 113.28,488.00 113.89,488.00 113.89,488.00 114.51,488.00 114.51,488.00 115.12,488.00 115.12,488.00 115.73,488.00 115.73,488.00 116.35,488.00 116.35,488.00 116.96,488.00 116.96,488.00 117.57,488.00 117.57,488.00 118.19,488.00 118.19,488.00 118.80,488.00 118.80,488.00 119.41,488.00 119.41,488.00 120.03,488.00 120.03,488.00 120.64,488.00 120.64,488.00 121.25,488.00 121.25,488.00 121.87,488.00 121.87,488.00 122.48,488.00 122.48,488.00 123.09,488.00 123.09,488.00 123.71,488.00 123.71,488.00 124.32,488.00 124.32,488.00 124.93,488.00 124.93,488.00 125.55,488.00 125.55,488.00 126.16,488.00 126.16,488.00 126.77,488.00 126.77,488.00 127.39,488.00 127.39,488.00 128.00,488.00 128.00,488.00 128.61,488.00 128.61,488.00 129.23,488.00 129.23,488.00 129.84,488.00 129.84,488.00 130.45,488.00 130.45,488.00 131.07,488.00 131.07,488.00 131.68,488.00 131.68,488.00 132.29,488.00 132.29,488.00 132.91,488.00 132.91,488.00 133.52,488.00 133.52,488.00 134.13,488.00 134.13,488.00 134.75,488.00 134.75,488.00 135.36,488.00 135.36,488.00 135.97,488.00 135.97,488.00 136.59,488.00 136.59,488.00 137.20,488.00 137.20,488.00 137.81,488.00 137.81,488.00 138.43,488.00 138.43,488.00 139.04,488.00 139.04,488.00 139.65,488.00 139.65,488.00 140.27,488.00 140.27,488.00 140.88,488.00 140.88,488.00 141.49,488.00 141.49,488.00 142.11,488.00 142.11,488.00 142.72,488.00 142.72,488.00 143.33,488.00 143.33,488.00 143.95,488.00 143.95,488.00 144.56,488.00 144.56,488.00 145.17,488.00 145.17,488.00 145.79,488.00 145.79,488.00 146.40,488.00 146.40,488.00 147.01,488.00 147.01,488.00 147.63,488.00 147.63,488.00 148.24,488.00 148.24,488.00 148.85,488.00 148.85,488.00 149.47,488.00 149.47,488.00 150.08,488.00 150.08,488.00 150.69,488.00 150.69,488.00 151.31,488.00 151.31,488.00 151.92,488.00 151.92,488.00 152.53,488.00 152.53,488.00 153.15,488.00 153.15,488.00 153.76,488.00 153.76,488.00 154.37,488.00 154.37,488.00 154.99,488.00 154.99,488.00 155.60,488.00 155.60,488.00 156.21,488.00 156.21,488.00 156.83,488.00 156.83,488.00 157.44,488.00 157.44,488.00 158.05,488.00 158.05,488.00 158.67,488.00 158.67,488.00 159.28,488.00 159.28,488.00 159.89,488.00 159.89,488.00 160.51,488.00 160.51,488.00 161.12,488.00 161.12,488.00 161.73,488.00 161.73,488.00 162.35,488.00 162.35,488.00 162.96,488.00 162.96,488.00 163.57,488.00 163.57,488.00 164.19,488.00 164.19,488.00 164.80,488.00 164.80,488.00 165.41,488.00 165.41,488.00 166.03,488.00 166.03,488.00 166.64,488.00 166.64,488.00 167.25,488.00 167.25,488.00 167.87,488.00 167.87,488.00 168.48,488.00 168.48,488.00 169.09,488.00 169.09,488.00 169.71,488.00 169.71,488.00 170.32,488.00 170.32,488.00 170.93,488.00 170.93,488.00 171.55,488.00 171.55,488.00 172.16,488.00 172.16,488.00 172.77,488.00 172.77,488.00 173.39,488.00 173.39,488.00 174.00,488.00 174.00,488.00 174.61,488.00 174.61,488.00 175.23,488.00 175.23,488.00 175.84,488.00 175.84,488.00 176.45,488.00 176.45,488.00 177.07,488.00 177.07,488.00 177.68,488.00 177.68,488.00 178.29,488.00 178.29,488.00 178.91,488.00 178.91,488.00 179.52,488.00 179.52,488.00 180.13,488.00 180.13,488.00 180.75,488.00 180.75,488.00 181.36,488.00 181.36,488.00 181.97,488.00 181.97,488.00 182.59,488.00 182.59,488.00 183.20,488.00 183.20,488.00 183.81,488.00 183.81,488.00 184.43,488.00 184.43,488.00 185.04,488.00 185.04,488.00 185.65,488.00 185.65,488.00 186.27,488.00 186.27,488.00 186.88,488.00 186.88,488.00 187.49,488.00 187.49,488.00 188.11,488.00 188.11,488.00 188.72,488.00 188.72,488.00 189.33,488.00 189.33,488.00 189.95,488.00 189.95,488.00 190.56,488.00 190.56,488.00 191.17,488.00 191.17,488.00 191.79,488.00 191.79,488.00 192.40,488.00 192.40,488.00 193.01,488.00 193.01,488.00 193.63,488.00 193.63,488.00 194.24,488.00 194.24,488.00 194.85,488.00 194.85,488.00 195.47,488.00 195.47,488.00 196.08,488.00 196.08,488.00 196.69,488.00 196.69,488.00 197.31,488.00 197.31,488.00 197.92,488.00 197.92,488.00 198.53,488.00 198.53,488.00 199.15,488.00 199.15,488.00 199.76,488.00 199.76,488.00 200.37,488.00 200.37,488.00 200.99,488.00 200.99,488.00 201.60,488.00 201.60,488.00 202.21,488.00 202.21,488.00 202.83,488.00 202.83,488.00 203.44,488.00 203.44,488.00 204.05,488.00 204.05,488.00 204.67,488.00 204.67,488.00 205.28,488.00 205.28,488.00 205.89,488.00 205.89,488.00 206.51,488.00 206.51,488.00 207.12,488.00 207.12,488.00 207.73,488.00 207.73,488.00 208.35,488.00 208.35,488.00 208.96,488.00 208.96,488.00 209.57,488.00 209.57,488.00 210.19,488.00 210.19,488.00 210.80,488.00 210.80,488.00 211.41,488.00 211.41,488.00 212.03,488.00 212.03,488.00 212.64,488.00 212.64,488.00 213.25,488.00 213.25,488.00 213.87,488.00 213.87,488.00 214.48,488.00 214.48,488.00 215.09,488.00 215.09,488.00 215.71,488.00 215.71,488.00 216.32,488.00 216.32,488.00 216.93,488.00 216.93,488.00 217.55,488.00 217.55,488.00 218.16,488.00 218.16,488.00 218.77,488.00 218.77,488.00 219.39,488.00 219.39,488.00 220.00,488.00 220.00,488.00 220.61,488.00 220.61,488.00 221.23,488.00 221.23,488.00 221.84,488.00 221.84,488.00 222.45,488.00 222.45,488.00 223.07,488.00 223.07,488.00 223.68,488.00 223.68,488.00 224.29,488.00 224.29,488.00 224.91,488.00 224.91,488.00 225.52,488.00 225.52,488.00 226.13,488.00 226.13,488.00 226.75,488.00 226.75,488.00 227.36,488.00 227.36,488.00 227.97,488.00 227.97,488.00 228.59,488.00 228.59,488.00 229.20,488.00 229.20,488.00 229.81,488.00 229.81,488.00 230.43,488.00 230.43,488.00 231.04,488.00 231.04,488.00 231.65,488.00 231.65,488.00 232.27,488.00 232.27,488.00 232.88,488.00 232.88,488.00 233.49,488.00 233.49,488.00 234.11,488.00 234.11,488.00 234.72,488.00 234.72,488.00 235.33,488.00 235.33,488.00 235.95,488.00 235.95,488.00 236.56,488.00 236.56,488.00 237.17,488.00 237.17,488.00 237.79,488.00 237.79,488.00 238.40,488.00 238.40,488.00 239.01,488.00 239.01,488.00 239.63,488.00 239.63,488.00 240.24,488.00 240.24,488.00 240.85,488.00 240.85,488.00 241.47,488.00 241.47,488.00 242.08,488.00 242.08,488.00 242.69,488.00 242.69,488.00 243.31,488.00 243.31,488.00 243.92,488.00 243.92,488.00 244.53,488.00 244.53,488.00 245.15,488.00 245.15,488.00 245.76,488.00 245.76,488.00 246.37,488.00 246.37,488.00 246.99,488.00 246.99,488.00 247.60,488.00 247.60,488.00 248.21,488.00 248.21,488.00 248.83,488.00 248.83,488.00 249.44,488.00 249.44,488.00 250.05,488.00 250.05,488.00 250.67,488.00 250.67,488.00 251.28,488.00 251.28,488.00 251.89,488.00 251.89,488.00 252.51,488.00 252.51,488.00 253.12,488.00 253.12,488.00 253.73,488.00 253.73,488.00 254.35,488.00 254.35,488.00 254.96,488.00 254.96,488.00 255.57,488.00 255.57,488.00 256.19,488.00 256.19,488.00 256.80,488.00 256.80,488.00 257.41,488.00 257.41,488.00 258.03,488.00 258.03,488.00 258.64,488.00 258.64,488.00 259.25,488.00 259.25,488.00 259.87,488.00 259.87,488.00 260.48,488.00 260.48,488.00 261.09,488.00 261.09,488.00 261.71,488.00 261.71,488.00 262.32,488.00 262.32,488.00 262.93,488.00 262.93,488.00 263.55,488.00 263.55,488.00 264.16,488.00 264.16,488.00 264.77,488.00 264.77,488.00 265.39,488.00 265.39,488.00 266.00,488.00 266.00,488.00 266.61,488.00 266.61,488.00 267.23,488.00 267.23,488.00 267.84,488.00 267.84,488.00 268.45,488.00 268.45,488.00 269.07,488.00 269.07,488.00 269.68,488.00 269.68,488.00 270.29,488.00 270.29,488.00 270.91,488.00 270.91,488.00 271.52,488.00 271.52,488.00 272.13,488.00 272.13,488.00 272.75,488.00 272.75,488.00 273.36,488.00 273.36,488.00 273.97,488.00 273.97,488.00 274.59,488.00 274.59,488.00 275.20,488.00 275.20,488.00 275.81,488.00 275.81,488.00 276.43,488.00 276.43,488.00 277.04,488.00 277.04,488.00 277.65,488.00 277.65,488.00 278.27,488.00 278.27,488.00 278.88,488.00 278.88,488.00 279.49,488.00 279.49,488.00 280.11,488.00 280.11,488.00 280.72,488.00 280.72,488.00 281.33,488.00 281.33,488.00 281.95,488.00 281.95,488.00 282.56,488.00 282.56,488.00 283.17,488.00 283.17,488.00 283.79,488.00 283.79,488.00 284.40,488.00 284.40,488.00 285.01,488.00 285.01,488.00 285.63,488.00 285.63,488.00 286.24,488.00 286.24,488.00 286.85,488.00 286.85,488.00 287.47,488.00 287.47,488.00 288.08,488.00 288.08,488.00 288.69,488.00 288.69,488.00 289.31,488.00 289.31,488.00 289.92,488.00 289.92,488.00 290.53,488.00 290.53,488.00 291.15,488.00 291.15,488.00 291.76,488.00 291.76,488.00 292.37,488.00 292.37,488.00 292.99,488.00 292.99,488.00 293.60,488.00 293.60,488.00 294.21,488.00 294.21,488.00 294.83,488.00 294.83,488.00 295.44,488.00 295.44,488.00 296.05,488.00 296.05,488.00 296.67,488.00 296.67,488.00 297.28,488.00 297.28,488.00 297.89,488.00 297.89,488.00 298.51,488.00 298.51,488.00 299.12,488.00 299.12,488.00 299.73,488.00 299.73,488.00 300.35,488.00 300.35,488.00 300.96,488.00 300.96,488.00 301.57,488.00 301.57,488.00 302.19,488.00 302.19,488.00 302.80,488.00 302.80,488.00 303.41,488.00 303.41,488.00 304.03,488.00 304.03,488.00 304.64,488.00 304.64,488.00 305.25,488.00 305.25,488.00 305.87,488.00 305.87,488.00 306.48,488.00 306.48,488.00 307.09,488.00 307.09,488.00 307.71,488.00 307.71,488.00 308.32,488.00 308.32,488.00 308.93,488.00 308.93,488.00 309.55,488.00 309.55,488.00 310.16,488.00 310.16,488.00 310.77,488.00 310.77,488.00 311.39,488.00 311.39,488.00 312.00,488.00 312.00,488.00 312.61,488.00 312.61,488.00 313.23,488.00 313.23,488.00 313.84,488.00 313.84,488.00 314.45,488.00 314.45,488.00 315.07,488.00 315.07,488.00 315.68,488.00 315.68,488.00 316.29,488.00 316.29,488.00 316.91,488.00 316.91,488.00 317.52,488.00 317.52,488.00 318.13,488.00 318.13,488.00 318.75,488.00 318.75,488.00 319.36,488.00 319.36,488.00 319.97,488.00 319.97,488.00 320.59,488.00 320.59,488.00 321.20,488.00 321.20,488.00 321.81,488.00 321.81,488.00 322.43,488.00 322.43,488.00 323.04,488.00 323.04,488.00 323.65,488.00 323.65,488.00 324.27,488.00 324.27,488.00 324.88,488.00 324.88,488.00 325.49,488.00 325.49,488.00 326.11,488.00 326.11,488.00 326.72,488.00 326.72,488.00 327.33,488.00 327.33,488.00 327.95,488.00 327.95,488.00 328.56,488.00 328.56,488.00 329.17,488.00 329.17,488.00 329.79,488.00 329.79,488.00 330.40,488.00 330.40,488.00 331.01,488.00 331.01,488.00 331.63,488.00 331.63,488.00 332.24,488.00 332.24,488.00 332.85,488.00 332.85,488.00 333.47,488.00 333.47,488.00 334.08,488.00 334.08,488.00 334.69,488.00 334.69,488.00 335.31,488.00 335.31,488.00 335.92,488.00 335.92,488.00 336.53,488.00 336.53,488.00 337.15,488.00 337.15,488.00 337.76,488.00 337.76,488.00 338.37,488.00 338.37,488.00 338.99,488.00 338.99,488.00 339.60,488.00 339.60,488.00 340.21,488.00 340.21,487.42 340.83,487.42 340.83,487.42 341.44,487.42 341.44,486.85 342.05,486.85 342.05,486.85 342.67,486.85 342.67,481.09 343.28,481.09 343.28,481.09 343.89,481.09 343.89,481.09 344.51,481.09 344.51,481.09 345.12,481.09 345.12,481.09 345.73,481.09 345.73,481.09 346.35,481.09 346.35,481.09 346.96,481.09 346.96,481.09 347.57,481.09 347.57,481.09 348.19,481.09 348.19,481.09 348.80,481.09 348.80,481.09 349.41,481.09 349.41,481.09 350.03,481.09 350.03,481.09 350.64,481.09 350.64,481.09 351.25,481.09 351.25,481.09 351.87,481.09 351.87,481.09 352.48,481.09 352.48,481.09 353.09,481.09 353.09,481.09 353.71,481.09 353.71,481.09 354.32,481.09 354.32,481.09 354.93,481.09 354.93,481.09 355.55,481.09 355.55,481.09 356.16,481.09 356.16,481.09 356.77,481.09 356.77,481.09 357.39,481.09 357.39,481.09 358.00,481.09 358.00,478.21 358.61,478.21 358.61,478.21 359.23,478.21 359.23,478.21 359.84,478.21 359.84,478.21 360.45,478.21 360.45,478.21 361.07,478.21 361.07,478.21 361.68,478.21 361.68,478.21 362.29,478.21 362.29,478.21 362.91,478.21 362.91,478.21 363.52,478.21 363.52,478.21 364.13,478.21 364.13,478.21 364.75,478.21 364.75,478.21 365.36,478.21 365.36,478.21 365.97,478.21 365.97,478.21 366.59,478.21 366.59,478.21 367.20,478.21 367.20,478.21 367.81,478.21 367.81,470.72 368.43,470.72 368.43,470.72 369.04,470.72 369.04,470.72 369.65,470.72 369.65,470.72 370.27,470.72 370.27,470.72 370.88,470.72 370.88,470.72 371.49,470.72 371.49,466.69 372.11,466.69 372.11,463.24 372.72,463.24 372.72,463.24 373.33,463.24 373.33,463.24 373.95,463.24 373.95,456.90 374.56,456.90 374.56,456.90 375.17,456.90 375.17,456.90 375.79,456.90 375.79,456.90 376.40,456.90 376.40,456.90 377.01,456.90 377.01,456.90 377.63,456.90 377.63,456.90 378.24,456.90 378.24,456.90 378.85,456.90 378.85,456.90 379.47,456.90 379.47,456.90 380.08,456.90 380.08,456.90 380.69,456.90 380.69,456.90 381.31,456.90 381.31,456.90 381.92,456.90 381.92,456.90 382.53,456.90 382.53,456.90 383.15,456.90 383.15,456.90 383.76,456.90 383.76,456.90 384.37,456.90 384.37,456.90 384.99,456.90 384.99,451.72 385.60,451.72 385.60,451.72 386.21,451.72 386.21,451.72 386.83,451.72 386.83,451.72 387.44,451.72 387.44,451.72 388.05,451.72 388.05,451.72 388.67,451.72 388.67,451.72 389.28,451.72 389.28,451.72 389.89,451.72 389.89,451.72 390.51,451.72 390.51,451.72 391.12,451.72 391.12,451.72 391.73,451.72 391.73,451.72 392.35,451.72 392.35,451.72 392.96,451.72 392.96,444.81 393.57,444.81 393.57,444.81 394.19,444.81 394.19,444.81 394.80,444.81 394.80,444.81 395.41,444.81 395.41,444.81 396.03,444.81 396.03,444.81 396.64,444.81 396.64,444.81 397.25,444.81 397.25,444.81 397.87,444.81 397.87,444.81 398.48,444.81 398.48,444.81 399.09,444.81 399.09,444.81 399.71,444.81 399.71,444.81 400.32,444.81 400.32,444.81 400.93,444.81 400.93,444.81 401.55,444.81 401.55,444.81 402.16,444.81 402.16,444.81 402.77,444.81 402.77,444.81 403.39,444.81 403.39,444.81 404.00,444.81 404.00,444.81 404.61,444.81 404.61,444.81 405.23,444.81 405.23,444.81 405.84,444.81 405.84,444.81 406.45,444.81 406.45,444.81 407.07,444.81 407.07,444.81 407.68,444.81 407.68,444.81 408.29,444.81 408.29,444.81 408.91,444.81 408.91,444.81 409.52,444.81 409.52,444.81 410.13,444.81 410.13,444.81 410.75,444.81 410.75,444.81 411.36,444.81 411.36,444.81 411.97,444.81 411.97,444.81 412.59,444.81 412.59,444.81 413.20,444.81 413.20,444.81 413.81,444.81 413.81,444.81 414.43,444.81 414.43,444.81 415.04,444.81 415.04,444.81 415.65,444.81 415.65,444.81 416.27,444.81 416.27,444.81 416.88,444.81 416.88,444.81 417.49,444.81 417.49,444.81 418.11,444.81 418.11,444.81 418.72,444.81 418.72,444.81 419.33,444.81 419.33,444.81 419.95,444.81 419.95,444.81 420.56,444.81 420.56,444.81 421.17,444.81 421.17,444.81 421.79,444.81 421.79,444.81 422.40,444.81 422.40,444.81 423.01,444.81 423.01,444.81 423.63,444.81 423.63,444.81 424.24,444.81 424.24,444.81 424.85,444.81 424.85,444.81 425.47,444.81 425.47,444.81 426.08,444.81 426.08,444.81 426.69,444.81 426.69,444.81 427.31,444.81 427.31,444.81 427.92,444.81 427.92,444.81 428.53,444.81 428.53,444.81 429.15,444.81 429.15,444.81 429.76,444.81 429.76,444.81 430.37,444.81 430.37,444.81 430.99,444.81 430.99,444.81 431.60,444.81 431.60,444.81 432.21,444.81 432.21,444.81 432.83,444.81 432.83,444.81 433.44,444.81 433.44,444.81 434.05,444.81 434.05,444.81 434.67,444.81 434.67,444.81 435.28,444.81 435.28,444.81 435.89,444.81 435.89,444.81 436.51,444.81 436.51,444.81 437.12,444.81 437.12,444.81 437.73,444.81 437.73,444.81 438.35,444.81 438.35,444.81 438.96,444.81 438.96,444.81 439.57,444.81 439.57,444.81 440.19,444.81 440.19,444.81 440.80,444.81 440.80,444.81 441.41,444.81 441.41,444.81 442.03,444.81 442.03,444.81 442.64,444.81 442.64,444.81 443.25,444.81 443.25,444.81 443.87,444.81 443.87,444.81 444.48,444.81 444.48,444.81 445.09,444.81 445.09,444.81 445.71,444.81 445.71,444.81 446.32,444.81 446.32,444.81 446.93,444.81 446.93,444.81 447.55,444.81 447.55,444.81 448.16,444.81 448.16,444.81 448.77,444.81 448.77,444.81 449.39,444.81 449.39,444.81 450.00,444.81 450.00,444.81 450.61,444.81 450.61,444.81 451.23,444.81 451.23,444.81 451.84,444.81 451.84,444.81 452.45,444.81 452.45,436.17 453.07,436.17 453.07,436.17 453.68,436.17 453.68,436.17 454.29,436.17 454.29,436.17 454.91,436.17 454.91,436.17 455.52,436.17 455.52,436.17 456.13,436.17 456.13,436.17 456.75,436.17 456.75,436.17 457.36,436.17 457.36,436.17 457.97,436.17 457.97,436.17 458.59,436.17 458.59,436.17 459.20,436.17 459.20,436.17 459.81,436.17 459.81,436.17 460.43,436.17 460.43,436.17 461.04,436.17 461.04,436.17 461.65,436.17 461.65,436.17 462.27,436.17 462.27,436.17 462.88,436.17 462.88,436.17 463.49,436.17 463.49,424.08 464.11,424.08 464.11,424.08 464.72,424.08 464.72,424.08 465.33,424.08 465.33,418.32 465.95,418.32 465.95,418.32 466.56,418.32 466.56,418.32 467.17,418.32 467.17,418.32 467.79,418.32 467.79,418.32 468.40,418.32 468.40,418.32 469.01,418.32 469.01,418.32 469.63,418.32 469.63,418.32 470.24,418.32 470.24,418.32 470.85,418.32 470.85,418.32 471.47,418.32 471.47,418.32 472.08,418.32 472.08,418.32 472.69,418.32 472.69,418.32 473.31,418.32 473.31,418.32 473.92,418.32 473.92,417.75 474.53,417.75 474.53,417.75 475.15,417.75 475.15,417.75 475.76,417.75 475.76,403.93 476.37,403.93 476.37,403.93 476.99,403.93 476.99,403.93 477.60,403.93 477.60,403.93 478.21,403.93 478.21,403.93 478.83,403.93 478.83,403.93 479.44,403.93 479.44,403.93 480.05,403.93 480.05,403.93 480.67,403.93 480.67,403.93 481.28,403.93 481.28,403.93 481.89,403.93 481.89,403.93 482.51,403.93 482.51,403.93 483.12,403.93 483.12,403.93 483.73,403.93 483.73,403.93 484.35,403.93 484.35,403.93 484.96,403.93 484.96,403.93 485.57,403.93 485.57,403.93 486.19,403.93 486.19,403.93 486.80,403.93 486.80,403.93 487.41,403.93 487.41,403.93 488.03,403.93 488.03,403.93 488.64,403.93 488.64,403.93 489.25,403.93 489.25,403.93 489.87,403.93 489.87,403.93 490.48,403.93 490.48,403.93 491.09,403.93 491.09,403.93 491.71,403.93 491.71,403.93 492.32,403.93 492.32,403.93 492.93,403.93 492.93,403.93 493.55,403.93 493.55,403.93 494.16,403.93 494.16,403.93 494.77,403.93 494.77,403.93 495.39,403.93 495.39,403.93 496.00,403.93 496.00,403.93 496.61,403.93 496.61,403.93 497.23,403.93 497.23,403.93 497.84,403.93 497.84,403.93 498.45,403.93 498.45,403.93 499.07,403.93 499.07,403.93 499.68,403.93 499.68,403.93 500.29,403.93 500.29,403.93 500.91,403.93 500.91,403.93 501.52,403.93 501.52,403.93 502.13,403.93 502.13,403.93 502.75,403.93 502.75,403.93 503.36,403.93 503.36,403.93 503.97,403.93 503.97,403.93 504.59,403.93 504.59,403.93 505.20,403.93 505.20,403.93 505.81,403.93 505.81,403.93 506.43,403.93 506.43,403.93 507.04,403.93 507.04,403.93 507.65,403.93 507.65,403.93 508.27,403.93 508.27,403.93 508.88,403.93 508.88,403.93 509.49,403.93 509.49,403.93 510.11,403.93 510.11,403.93 510.72,403.93 510.72,403.93 511.33,403.93 511.33,403.93 511.95,403.93 511.95,403.93 512.56,403.93 512.56,403.93 513.17,403.93 513.17,401.05 513.79,401.05 513.79,401.05 514.40,401.05 514.40,401.05 515.01,401.05 515.01,395.87 515.63,395.87 515.63,395.87 516.24,395.87 516.24,395.87 516.85,395.87 516.85,395.87 517.47,395.87 517.47,395.87 518.08,395.87 518.08,395.87 518.69,395.87 518.69,395.87 519.31,395.87 519.31,395.87 519.92,395.87 519.92,395.87 520.53,395.87 520.53,395.87 521.15,395.87 521.15,395.87 521.76,395.87 521.76,395.87 522.37,395.87 522.37,395.87 522.99,395.87 522.99,394.14 523.60,394.14 523.60,391.84 524.21,391.84 524.21,391.84 524.83,391.84 524.83,391.84 525.44,391.84 525.44,391.26 526.05,391.26 526.05,391.26 526.67,391.26 526.67,390.11 527.28,390.11 527.28,385.50 527.89,385.50 527.89,385.50 528.51,385.50 528.51,385.50 529.12,385.50 529.12,385.50 529.73,385.50 529.73,385.50 530.35,385.50 530.35,385.50 530.96,385.50 530.96,385.50 531.57,385.50 531.57,385.50 532.19,385.50 532.19,377.44 532.80,377.44 532.80,377.44 533.41,377.44 533.41,377.44 534.03,377.44 534.03,377.44 534.64,377.44 534.64,377.44 535.25,377.44 535.25,377.44 535.87,377.44 535.87,377.44 536.48,377.44 536.48,377.44 537.09,377.44 537.09,377.44 537.71,377.44 537.71,377.44 538.32,377.44 538.32,367.07 538.93,367.07 538.93,367.07 539.55,367.07 539.55,367.07 540.16,367.07 540.16,367.07 540.77,367.07 540.77,367.07 541.39,367.07 541.39,367.07 542.00,367.07 542.00,367.07 542.61,367.07 542.61,367.07 543.23,367.07 543.23,367.07 543.84,367.07 543.84,367.07 544.45,367.07 544.45,367.07 545.07,367.07 545.07,367.07 545.68,367.07 545.68,367.07 546.29,367.07 546.29,360.16 546.91,360.16 546.91,360.16 547.52,360.16 547.52,360.16 548.13,360.16 548.13,360.16 548.75,360.16 548.75,360.16 549.36,360.16 549.36,351.53 549.97,351.53 549.97,351.53 550.59,351.53 550.59,351.53 551.20,351.53 551.20,351.53 551.81,351.53 551.81,351.53 552.43,351.53 552.43,351.53 553.04,351.53 553.04,351.53 553.65,351.53 553.65,351.53 554.27,351.53 554.27,351.53 554.88,351.53 554.88,351.53 555.49,351.53 555.49,351.53 556.11,351.53 556.11,351.53 556.72,351.53 556.72,351.53 557.33,351.53 557.33,351.53 557.95,351.53 557.95,351.53 558.56,351.53 558.56,351.53 559.17,351.53 559.17,351.53 559.79,351.53 559.79,351.53 560.40,351.53 560.40,351.53 561.01,351.53 561.01,351.53 561.63,351.53 561.63,348.65 562.24,348.65 562.24,348.65 562.85,348.65 562.85,348.07 563.47,348.07 563.47,348.07 564.08,348.07 564.08,348.07 564.69,348.07 564.69,348.07 565.31,348.07 565.31,348.07 565.92,348.07 565.92,348.07 566.53,348.07 566.53,348.07 567.15,348.07 567.15,348.07 567.76,348.07 567.76,348.07 568.37,348.07 568.37,348.07 568.99,348.07 568.99,348.07 569.60,348.07 569.60,348.07 570.21,348.07 570.21,348.07 570.83,348.07 570.83,348.07 571.44,348.07 571.44,348.07 572.05,348.07 572.05,348.07 572.67,348.07 572.67,346.92 573.28,346.92 573.28,340.59 573.89,340.59 573.89,340.59 574.51,340.59 574.51,340.59 575.12,340.59 575.12,333.10 575.73,333.10 575.73,333.10 576.35,333.10 576.35,333.10 576.96,333.10 576.96,333.10 577.57,333.10 577.57,333.10 578.19,333.10 578.19,333.10 578.80,333.10 578.80,333.10 579.41,333.10 579.41,333.10 580.03,333.10 580.03,333.10 580.64,333.10 580.64,333.10 581.25,333.10 581.25,333.10 581.87,333.10 581.87,333.10 582.48,333.10 582.48,333.10 583.09,333.10 583.09,333.10 583.71,333.10 583.71,333.10 584.32,333.10 584.32,333.10 584.93,333.10 584.93,333.10 585.55,333.10 585.55,333.10 586.16,333.10 586.16,325.61 586.77,325.61 586.77,325.61 587.39,325.61 587.39,325.61 588.00,325.61 588.00,315.25 588.61,315.25 588.61,315.25 589.23,315.25 589.23,308.34 589.84,308.34 589.84,308.34 590.45,308.34 590.45,308.34 591.07,308.34 591.07,308.34 591.68,308.34 591.68,308.34 592.29,308.34 592.29,308.34 592.91,308.34 592.91,308.34 593.52,308.34 593.52,308.34 594.13,308.34 594.13,308.34 594.75,308.34 594.75,308.34 595.36,308.34 595.36,308.34 595.97,308.34 595.97,308.34 596.59,308.34 596.59,308.34 597.20,308.34 597.20,308.34 597.81,308.34 597.81,308.34 598.43,308.34 598.43,308.34 599.04,308.34 599.04,308.34 599.65,308.34 599.65,308.34 600.27,308.34 600.27,308.34 600.88,308.34 600.88,308.34 601.49,308.34 601.49,308.34 602.11,308.34 602.11,308.34 602.72,308.34 602.72,308.34 603.33,308.34 603.33,308.34 603.95,308.34 603.95,308.34 604.56,308.34 604.56,308.34 605.17,308.34 605.17,308.34 605.79,308.34 605.79,308.34 606.40,308.34 606.40,308.34 607.01,308.34 607.01,308.34 607.63,308.34 607.63,308.34 608.24,308.34 608.24,308.34 608.85,308.34 608.85,308.34 609.47,308.34 609.47,308.34 610.08,308.34 610.08,308.34 610.69,308.34 610.69,308.34 611.31,308.34 611.31,308.34 611.92,308.34 611.92,308.34 612.53,308.34 612.53,307.19 613.15,307.19 613.15,307.19 613.76,307.19 613.76,307.19 614.37,307.19 614.37,298.55 614.99,298.55 614.99,298.55 615.60,298.55 615.60,288.76 616.21,288.76 616.21,285.88 616.83,285.88 616.83,285.88 617.44,285.88 617.44,285.88 618.05,285.88 618.05,285.88 618.67,285.88 618.67,285.31 619.28,285.31 619.28,285.31 619.89,285.31 619.89,285.31 620.51,285.31 620.51,285.31 621.12,285.31 621.12,285.31 621.73,285.31 621.73,285.31 622.35,285.31 622.35,285.31 622.96,285.31 622.96,285.31 623.57,285.31 623.57,285.31 624.19,285.31 624.19,285.31 624.80,285.31 624.80,285.31 625.41,285.31 625.41,285.31 626.03,285.31 626.03,285.31 626.64,285.31 626.64,285.31 627.25,285.31 627.25,285.31 627.87,285.31 627.87,269.76 628.48,269.76 628.48,255.94 629.09,255.94 629.09,255.36 629.71,255.36 629.71,255.36 630.32,255.36 630.32,255.36 630.93,255.36 630.93,248.45 631.55,248.45 631.55,248.45 632.16,248.45 632.16,248.45 632.77,248.45 632.77,248.45 633.39,248.45 633.39,248.45 634.00,248.45 634.00,248.45 634.61,248.45 634.61,248.45 635.23,248.45 635.23,248.45 635.84,248.45 635.84,248.45 636.45,248.45 636.45,248.45 637.07,248.45 637.07,248.45 637.68,248.45 637.68,248.45 638.29,248.45 638.29,248.45 638.91,248.45 638.91,248.45 639.52,248.45 639.52,248.45 640.13,248.45 640.13,248.45 640.75,248.45 640.75,248.45 641.36,248.45 641.36,248.45 641.97,248.45 641.97,248.45 642.59,248.45 642.59,248.45 643.20,248.45 643.20,248.45 643.81,248.45 643.81,248.45 644.43,248.45 644.43,248.45 645.04,248.45 645.04,248.45 645.65,248.45 645.65,248.45 646.27,248.45 646.27,248.45 646.88,248.45 646.88,248.45 647.49,248.45 647.49,248.45 648.11,248.45 648.11,248.45 648.72,248.45 648.72,248.45 649.33,248.45 649.33,248.45 649.95,248.45 649.95,248.45 650.56,248.45 650.56,247.30 651.17,247.30 651.17,247.30 651.79,247.30 651.79,247.30 652.40,247.30 652.40,247.30 653.01,247.30 653.01,240.39 653.63,240.39 653.63,240.39 654.24,240.39 654.24,240.39 654.85,240.39 654.85,240.39 655.47,240.39 655.47,240.39 656.08,240.39 656.08,239.81 656.69,239.81 656.69,239.81 657.31,239.81 657.31,239.81 657.92,239.81 657.92,239.81 658.53,239.81 658.53,239.81 659.15,239.81 659.15,239.81 659.76,239.81 659.76,231.18 660.37,231.18 660.37,231.18 660.99,231.18 660.99,231.18 661.60,231.18 661.60,231.18 662.21,231.18 662.21,231.18 662.83,231.18 662.83,231.18 663.44,231.18 663.44,231.18 664.05,231.18 664.05,231.18 664.67,231.18 664.67,231.18 665.28,231.18 665.28,231.18 665.89,231.18 665.89,231.18 666.51,231.18 666.51,231.18 667.12,231.18 667.12,231.18 667.73,231.18 667.73,231.18 668.35,231.18 668.35,231.18 668.96,231.18 668.96,231.18 669.57,231.18 669.57,231.18 670.19,231.18 670.19,231.18 670.80,231.18 670.80,231.18 671.41,231.18 671.41,231.18 672.03,231.18 672.03,231.18 672.64,231.18 672.64,231.18 673.25,231.18 673.25,231.18 673.87,231.18 673.87,231.18 674.48,231.18 674.48,231.18 675.09,231.18 675.09,231.18 675.71,231.18 675.71,231.18 676.32,231.18 676.32,231.18 676.93,231.18 676.93,231.18 677.55,231.18 677.55,231.18 678.16,231.18 678.16,231.18 678.77,231.18 678.77,231.18 679.39,231.18 679.39,222.54 680.00,222.54 680.00,222.54 680.61,222.54 680.61,222.54 681.23,222.54 681.23,222.54 681.84,222.54 681.84,222.54 682.45,222.54 682.45,222.54 683.07,222.54 683.07,222.54 683.68,222.54 683.68,222.54 684.29,222.54 684.29,222.54 684.91,222.54 684.91,214.48 685.52,214.48 685.52,214.48 686.13,214.48 686.13,214.48 686.75,214.48 686.75,214.48 687.36,214.48 687.36,214.48 687.97,214.48 687.97,214.48 688.59,214.48 688.59,214.48 689.20,214.48 689.20,214.48 689.81,214.48 689.81,214.48 690.43,214.48 690.43,214.48 691.04,214.48 691.04,214.48 691.65,214.48 691.65,214.48 692.27,214.48 692.27,214.48 692.88,214.48 692.88,214.48 693.49,214.48 693.49,214.48 694.11,214.48 694.11,214.48 694.72,214.48 694.72,214.48 695.33,214.48 695.33,214.48 695.95,214.48 695.95,214.48 696.56,214.48 696.56,214.48 697.17,214.48 697.17,213.90 697.79,213.90 697.79,213.90 698.40,213.90 698.40,213.90 699.01,213.90 699.01,213.90 699.63,213.90 699.63,213.90 700.24,213.90 700.24,213.90 700.85,213.90 700.85,213.90 701.47,213.90 701.47,213.90 702.08,213.90 702.08,213.90 702.69,213.90 702.69,213.90 703.31,213.90 703.31,213.90 703.92,213.90 703.92,213.90 704.53,213.90 704.53,213.90 705.15,213.90 705.15,213.90 705.76,213.90 705.76,213.90 706.37,213.90 706.37,213.90 706.99,213.90 706.99,213.90 707.60,213.90 707.60,213.90 708.21,213.90 708.21,213.33 708.83,213.33 708.83,213.33 709.44,213.33 709.44,213.33 710.05,213.33 710.05,213.33 710.67,213.33 710.67,213.33 711.28,213.33 711.28,213.33 711.89,213.33 711.89,213.33 712.51,213.33 712.51,209.30 713.12,209.30 713.12,206.99 713.73,206.99 713.73,206.99 714.35,206.99 714.35,205.84 714.96,205.84 714.96,205.84 715.57,205.84 715.57,205.84 716.19,205.84 716.19,190.87 716.80,190.87 716.80,190.87 717.41,190.87 717.41,190.87 718.03,190.87 718.03,190.87 718.64,190.87 718.64,190.87 719.25,190.87 719.25,190.87 719.87,190.87 719.87,190.87 720.48,190.87 720.48,190.87 721.09,190.87 721.09,190.87 721.71,190.87 721.71,189.72 722.32,189.72 722.32,189.72 722.93,189.72 722.93,186.84 723.55,186.84 723.55,186.26 724.16,186.26 724.16,186.26 724.77,186.26 724.77,186.26 725.39,186.26 725.39,186.26 726.00,186.26 726.00,186.26 726.61,186.26 726.61,186.26 727.23,186.26 727.23,178.78 727.84,178.78 727.84,178.78 728.45,178.78 728.45,178.78 729.07,178.78 729.07,178.78 729.68,178.78 729.68,178.78 730.29,178.78 730.29,178.78 730.91,178.78 730.91,178.78 731.52,178.78 731.52,178.78 732.13,178.78 732.13,178.78 732.75,178.78 732.75,178.78 733.36,178.78 733.36,178.78 733.97,178.78 733.97,178.78 734.59,178.78 734.59,178.78 735.20,178.78 735.20,178.78 735.81,178.78 735.81,178.78 736.43,178.78 736.43,178.78 737.04,178.78 737.04,178.78 737.65,178.78 737.65,178.78 738.27,178.78 738.27,178.78 738.88,178.78 738.88,178.78 739.49,178.78 739.49,178.78 740.11,178.78 740.11,178.78 740.72,178.78 740.72,178.78 741.33,178.78 741.33,178.78 741.95,178.78 741.95,178.78 742.56,178.78 742.56,178.78 743.17,178.78 743.17,171.29 743.79,171.29 743.79,171.29 744.40,171.29 744.40,171.29 745.01,171.29 745.01,171.29 745.63,171.29 745.63,171.29 746.24,171.29 746.24,171.29 746.85,171.29 746.85,171.29 747.47,171.29 747.47,171.29 748.08,171.29 748.08,171.29 748.69,171.29 748.69,171.29 749.31,171.29 749.31,171.29 749.92,171.29 749.92,171.29 750.53,171.29 750.53,159.77 751.15,159.77 751.15,159.77 751.76,159.77 751.76,159.77 752.37,159.77 752.37,159.77 752.99,159.77 752.99,159.77 753.60,159.77 753.60,159.77 754.21,159.77 754.21,159.77 754.83,159.77 754.83,157.47 755.44,157.47 755.44,157.47 756.05,157.47 756.05,157.47 756.67,157.47 756.67,157.47 757.28,157.47 757.28,157.47 757.89,157.47 757.89,155.74 758.51,155.74 758.51,147.11 759.12,147.11 759.12,147.11 759.73,147.11 759.73,147.11 760.35,147.11 760.35,147.11 760.96,147.11 760.96,147.11 761.57,147.11 761.57,147.11 762.19,147.11 762.19,147.11 762.80,147.11 762.80,147.11 763.41,147.11 763.41,147.11 764.03,147.11 764.03,136.16 764.64,136.16 764.64,136.16 765.25,136.16 765.25,134.44 765.87,134.44 765.87,126.38 766.48,126.38 766.48,118.31 767.09,118.31 767.09,118.31 767.71,118.31 767.71,118.31 768.32,118.31 768.32,118.31 768.93,118.31 768.93,118.31 769.55,118.31 769.55,118.31 770.16,118.31 770.16,118.31 770.77,118.31 770.77,118.31 771.39,118.31 771.39,118.31 772.00,118.31 772.00,111.40 772.61,111.40 772.61,111.40 773.23,111.40 773.23,111.40 773.84,111.40 773.84,111.40 774.45,111.40 774.45,111.40 775.07,111.40 775.07,111.40 775.68,111.40 775.68,111.40 776.29,111.40 776.29,111.40 776.91,111.40 776.91,111.40 777.52,111.40 777.52,111.40 778.13,111.40 778.13,111.40 778.75,111.40 778.75,111.40 779.36,111.40 779.36,111.40 779.97,111.40 779.97,111.40 780.59,111.40 780.59,105.07 781.20,105.07 781.20,105.07 781.81,105.07 781.81,105.07 782.43,105.07 782.43,105.07 783.04,105.07 783.04,105.07 783.65,105.07 783.65,105.07 784.27,105.07 784.27,105.07 784.88,105.07 784.88,105.07 785.49,105.07 785.49,105.07 786.11,105.07 786.11,105.07 786.72,105.07 786.72,105.07 787.33,105.07 787.33,105.07 787.95,105.07 787.95,105.07 788.56,105.07 788.56,105.07 789.17,105.07 789.17,105.07 789.79,105.07 789.79,105.07 790.40,105.07 790.40,105.07 791.01,105.07 791.01,104.49 791.63,104.49 791.63,104.49 792.24,104.49 792.24,104.49 792.85,104.49 792.85,104.49 793.47,104.49 793.47,104.49 794.08,104.49 794.08,104.49 794.69,104.49 794.69,92.98 795.31,92.98 795.31,92.98 795.92,92.98 795.92,92.98 796.53,92.98 796.53,87.22 797.15,87.22 797.15,87.22 797.76,87.22 797.76,87.22 798.37,87.22 798.37,87.22 798.99,87.22 798.99,87.22 799.60,87.22 799.60,87.22 800.21,87.22 800.21,87.22 800.83,87.22 800.83,87.22 801.44,87.22 801.44,87.22 802.05,87.22 802.05,77.43 802.67,77.43 802.67,77.43 803.28,77.43 803.28,77.43 803.89,77.43 803.89,77.43 804.51,77.43 804.51,77.43 805.12,77.43 805.12,77.43 805.73,77.43 805.73,77.43 806.35,77.43 806.35,77.43 806.96,77.43 806.96,77.43 807.57,77.43 807.57,77.43 808.19,77.43 808.19,77.43 808.80,77.43 808.80,77.43 809.41,77.43 809.41,77.43 810.03,77.43 810.03,77.43 810.64,77.43 810.64,77.43 811.25,77.43 811.25,70.52 811.87,70.52 811.87,70.52 812.48,70.52 812.48,70.52 813.09,70.52 813.09,70.52 813.71,70.52 813.71,70.52 814.32,70.52 814.32,70.52 814.93,70.52 814.93,69.94 815.55,69.94 815.55,69.94 816.16,69.94 816.16,64.76 816.77,64.76 816.77,55.55 817.39,55.55 817.39,40.00 818.00,40.00 818.00,40.00" fill="none" stroke="#4b8f29" stroke-width="3"/>
<text x="450.0" y="552" text-anchor="middle" font-size="20" font-family="Arial, sans-serif" fill="#111827">Top displacement (mm)</text>
<text x="24" y="280.0" text-anchor="middle" transform="rotate(-90 24 280.0)" font-size="20" font-family="Arial, sans-serif" fill="#111827">Force magnitude (N)</text>
<text x="880" y="280.0" text-anchor="middle" transform="rotate(90 880 280.0)" font-size="20" font-family="Arial, sans-serif" fill="#111827">Broken bonds</text>
<text x="102" y="64" font-size="18" font-family="Arial, sans-serif" fill="#1b6ca8">Top plate</text>
<text x="212" y="64" font-size="18" font-family="Arial, sans-serif" fill="#d1495b">Bottom plate</text>
<text x="352" y="64" font-size="18" font-family="Arial, sans-serif" fill="#4b8f29">Broken bonds</text>
<text x="72" y="45" text-anchor="end" font-size="17" fill="#30363d">28.32</text>
<text x="72" y="488" text-anchor="end" font-size="17" fill="#30363d">0</text>
<text x="828" y="45" text-anchor="start" font-size="17" fill="#30363d">778</text>
<text x="828" y="488" text-anchor="start" font-size="17" fill="#30363d">0</text>
</svg>
