<svg xmlns="http://www.w3.org/2000/svg" width="900" height="560" viewBox="0 0 900 560">
<rect width="100%" height="100%" fill="white"/>
<text x="450.0" y="26" text-anchor="middle" font-size="22" font-family="Arial, sans-serif" fill="#111827">SP-002 force-displacement and bond breakage</text>
<line x1="82" y1="40.00" x2="818" y2="40.00" stroke="#d9dee2" stroke-width="1"/><line x1="82" y1="129.60" x2="818" y2="129.60" stroke="#d9dee2" stroke-width="1"/><line x1="82" y1="219.20" x2="818" y2="219.20" stroke="#d9dee2" stroke-width="1"/><line x1="82" y1="308.80" x2="818" y2="308.80" stroke="#d9dee2" stroke-width="1"/><line x1="82" y1="398.40" x2="818" y2="398.40" stroke="#d9dee2" stroke-width="1"/><line x1="82" y1="488.00" x2="818" y2="488.00" stroke="#d9dee2" stroke-width="1"/><line x1="82.00" y1="40" x2="82.00" y2="488" stroke="#edf0f2" stroke-width="1"/><text x="82.00" y="526" text-anchor="middle" font-size="18" fill="#30363d">0.000</text><line x1="229.20" y1="40" x2="229.20" y2="488" stroke="#edf0f2" stroke-width="1"/><text x="229.20" y="526" text-anchor="middle" font-size="18" fill="#30363d">0.060</text><line x1="376.40" y1="40" x2="376.40" y2="488" stroke="#edf0f2" stroke-width="1"/><text x="376.40" y="526" text-anchor="middle" font-size="18" fill="#30363d">0.120</text><line x1="523.60" y1="40" x2="523.60" y2="488" stroke="#edf0f2" stroke-width="1"/><text x="523.60" y="526" text-anchor="middle" font-size="18" fill="#30363d">0.180</text><line x1="670.80" y1="40" x2="670.80" y2="488" stroke="#edf0f2" stroke-width="1"/><text x="670.80" y="526" text-anchor="middle" font-size="18" fill="#30363d">0.240</text><line x1="818.00" y1="40" x2="818.00" y2="488" stroke="#edf0f2" stroke-width="1"/><text x="818.00" y="526" text-anchor="middle" font-size="18" fill="#30363d">0.300</text>
<line x1="82" y1="40" x2="82" y2="488" stroke="#111827" stroke-width="1.5"/>
<line x1="82" y1="488" x2="818" y2="488" stroke="#111827" stroke-width="1.5"/>
<line x1="818" y1="40" x2="818" y2="488" stroke="#111827" stroke-width="1.5"/>
<polyline points="82.00,488.00 83.23,488.00 84.45,488.00 85.68,488.00 86.91,488.00 88.13,488.00 89.36,488.00 90.59,488.00 91.81,488.00 93.04,488.00 94.27,488.00 95.49,488.00 96.72,488.00 97.95,488.00 99.17,488.00 100.40,488.00 101.63,488.00 102.85,488.00 104.08,488.00 105.31,488.00 106.53,488.00 107.76,488.00 108.99,488.00 110.21,488.00 111.44,488.00 112.67,488.00 113.89,488.00 115.12,488.00 116.35,488.00 117.57,488.00 118.80,488.00 120.03,488.00 121.25,488.00 122.48,488.00 123.71,488.00 124.93,488.00 126.16,488.00 127.39,488.00 128.61,488.00 129.84,488.00 131.07,488.00 132.29,488.00 133.52,488.00 134.75,488.00 135.97,488.00 137.20,488.00 138.43,488.00 139.65,488.00 140.88,488.00 142.11,488.00 143.33,488.00 144.56,488.00 145.79,488.00 147.01,488.00 148.24,488.00 149.47,488.00 150.69,488.00 151.92,488.00 153.15,488.00 154.37,488.00 155.60,488.00 156.83,488.00 158.05,488.00 159.28,488.00 160.51,488.00 161.73,488.00 162.96,488.00 164.19,488.00 165.41,488.00 166.64,488.00 167.87,488.00 169.09,488.00 170.32,488.00 171.55,488.00 172.77,488.00 174.00,488.00 175.23,488.00 176.45,488.00 177.68,488.00 178.91,488.00 180.13,488.00 181.36,488.00 182.59,488.00 183.81,488.00 185.04,488.00 186.27,488.00 187.49,488.00 188.72,488.00 189.95,488.00 191.17,488.00 192.40,488.00 193.63,488.00 194.85,488.00 196.08,488.00 197.31,488.00 198.53,488.00 199.76,488.00 200.99,488.00 202.21,488.00 203.44,488.00 204.67,488.00 205.89,488.00 207.12,488.00 208.35,488.00 209.57,488.00 210.80,488.00 212.03,488.00 213.25,488.00 214.48,488.00 215.71,488.00 216.93,488.00 218.16,488.00 219.39,488.00 220.61,488.00 221.84,488.00 223.07,488.00 224.29,488.00 225.52,488.00 226.75,488.00 227.97,488.00 229.20,488.00 230.43,488.00 231.65,488.00 232.88,488.00 234.11,488.00 235.33,488.00 236.56,488.00 237.79,488.00 239.01,488.00 240.24,488.00 241.47,488.00 242.69,488.00 243.92,488.00 245.15,488.00 246.37,488.00 247.60,488.00 248.83,488.00 250.05,488.00 251.28,488.00 252.51,488.00 253.73,488.00 254.96,488.00 256.19,488.00 257.41,488.00 258.64,488.00 259.87,488.00 261.09,488.00 262.32,488.00 263.55,488.00 264.77,488.00 266.00,488.00 267.23,488.00 268.45,488.00 269.68,488.00 270.91,488.00 272.13,488.00 273.36,488.00 274.59,488.00 275.81,488.00 277.04,488.00 278.27,488.00 279.49,488.00 280.72,488.00 281.95,488.00 283.17,488.00 284.40,488.00 285.63,488.00 286.85,488.00 288.08,488.00 289.31,488.00 290.53,488.00 291.76,488.00 292.99,488.00 294.21,488.00 295.44,488.00 296.67,488.00 297.89,488.00 299.12,488.00 300.35,488.00 301.57,488.00 302.80,488.00 304.03,488.00 305.25,488.00 306.48,488.00 307.71,488.00 308.93,488.00 310.16,488.00 311.39,488.00 312.61,488.00 313.84,488.00 315.07,488.00 316.29,488.00 317.52,488.00 318.75,488.00 319.97,488.00 321.20,488.00 322.43,488.00 323.65,488.00 324.88,488.00 326.11,488.00 327.33,488.00 328.56,485.48 329.79,481.49 331.01,476.75 332.24,471.50 333.47,465.85 334.69,460.87 335.92,454.97 337.15,448.85 338.37,442.53 339.60,436.03 340.83,429.38 342.05,427.04 343.28,487.96 344.51,486.31 345.73,482.85 346.96,478.79 348.19,474.27 349.41,469.40 350.64,462.06 351.87,453.34 353.09,443.83 354.32,433.73 355.55,423.15 356.77,412.18 358.00,453.43 359.23,446.86 360.45,441.14 361.68,435.17 362.91,429.87 364.13,486.00 365.36,483.98 366.59,482.18 367.81,480.27 369.04,478.23 370.27,476.09 371.49,473.81 372.72,470.51 373.95,466.63 375.17,462.38 376.40,457.84 377.63,453.04 378.85,448.05 380.08,442.16 381.31,434.43 382.53,425.72 383.76,416.28 384.99,407.24 386.21,409.43 387.44,430.56 388.67,437.53 389.89,440.16 391.12,440.25 392.35,438.76 393.57,437.30 394.80,440.33 396.03,438.76 397.25,436.06 398.48,433.03 399.71,429.94 400.93,426.41 402.16,421.64 403.39,416.06 404.61,415.71 405.84,410.04 407.07,402.90 408.29,395.04 409.52,385.82 410.75,376.15 411.97,386.76 413.20,385.94 414.43,379.74 415.65,372.04 416.88,363.71 418.11,354.85 419.33,345.60 420.56,336.02 421.79,326.16 423.01,316.05 424.24,395.51 425.47,371.31 426.69,361.75 427.92,355.37 429.15,441.91 430.37,433.37 431.60,428.90 432.83,425.49 434.05,422.01 435.28,418.16 436.51,414.26 437.73,410.36 438.96,406.42 440.19,402.41 441.41,398.32 442.64,394.15 443.87,389.91 445.09,385.55 446.32,381.16 447.55,376.73 448.77,372.28 450.00,367.43 451.23,362.07 452.45,356.52 453.68,351.71 454.91,345.95 456.13,340.06 457.36,335.29 458.59,328.68 459.81,410.85 461.04,385.39 462.27,379.48 463.49,377.78 464.72,376.57 465.95,374.87 467.17,372.98 468.40,371.77 469.63,370.74 470.85,369.96 472.08,366.72 473.31,362.04 474.53,356.00 475.76,347.80 476.99,339.16 478.21,330.73 479.44,322.20 480.67,313.55 481.89,304.82 483.12,296.06 484.35,287.28 485.57,278.47 486.80,269.61 488.03,259.64 489.25,367.31 490.48,406.91 491.71,414.65 492.93,418.92 494.16,421.23 495.39,422.35 496.61,422.91 497.84,422.74 499.07,422.33 500.29,421.55 501.52,419.87 502.75,417.95 503.97,424.91 505.20,434.18 506.43,436.62 507.65,432.33 508.88,427.92 510.11,423.49 511.33,418.91 512.56,414.17 513.79,409.30 515.01,404.28 516.24,399.13 517.47,392.84 518.69,385.26 519.92,376.90 521.15,368.05 522.37,358.77 523.60,348.85 524.83,338.63 526.05,328.16 527.28,317.36 528.51,306.07 529.73,294.40 530.96,285.25 532.19,274.48 533.41,321.48 534.64,328.48 535.87,345.41 537.09,338.98 538.32,329.99 539.55,320.46 540.77,311.61 542.00,301.53 543.23,291.11 544.45,280.52 545.68,270.86 546.91,261.45 548.13,273.76 549.36,263.63 550.59,252.66 551.81,241.66 553.04,229.73 554.27,399.00 555.49,380.70 556.72,366.98 557.95,360.59 559.17,351.69 560.40,339.83 561.63,326.92 562.85,313.29 564.08,299.13 565.31,284.51 566.53,269.50 567.76,253.19 568.99,236.06 570.21,218.24 571.44,199.11 572.67,191.10 573.89,208.13 575.12,257.05 576.35,230.75 577.57,216.68 578.80,201.73 580.03,185.10 581.25,167.43 582.48,214.67 583.71,207.46 584.93,198.09 586.16,188.06 587.39,240.42 588.61,249.16 589.84,250.35 591.07,256.29 592.29,281.68 593.52,287.44 594.75,287.02 595.97,281.99 597.20,273.31 598.43,262.99 599.65,251.18 600.88,306.82 602.11,300.27 603.33,300.29 604.56,321.82 605.79,318.06 607.01,309.59 608.24,298.91 609.47,286.62 610.69,274.63 611.92,259.22 613.15,321.08 614.37,319.08 615.60,317.55 616.83,314.72 618.05,305.76 619.28,293.81 620.51,279.84 621.73,318.22 622.96,377.56 624.19,381.86 625.41,377.31 626.64,368.72 627.87,357.38 629.09,344.75 630.32,331.37 631.55,317.37 632.77,302.56 634.00,286.94 635.23,270.75 636.45,253.85 637.68,309.84 638.91,305.36 640.13,294.64 641.36,278.52 642.59,260.62 643.81,242.11 645.04,222.50 646.27,201.76 647.49,179.97 648.72,157.41 649.95,134.28 651.17,112.40 652.40,234.05 653.63,230.90 654.85,221.10 656.08,209.26 657.31,195.62 658.53,180.45 659.76,164.15 660.99,147.04 662.21,129.28 663.44,110.98 664.67,94.51 665.89,76.44 667.12,92.37 668.35,229.01 669.57,227.42 670.80,213.94 672.03,198.72 673.25,182.56 674.48,165.65 675.71,148.21 676.93,130.19 678.16,111.71 679.39,92.82 680.61,73.60 681.84,139.29 683.07,92.27 684.29,74.69 685.52,57.32 686.75,40.00 687.97,172.68 689.20,240.17 690.43,251.26 691.65,252.78 692.88,250.15 694.11,244.85 695.33,237.81 696.56,229.42 697.79,219.88 699.01,213.39 700.24,221.49 701.47,215.79 702.69,207.51 703.92,196.13 705.15,183.68 706.37,170.31 707.60,156.06 708.83,209.25 710.05,243.59 711.28,258.79 712.51,253.51 713.73,292.11 714.96,289.72 716.19,282.57 717.41,273.00 718.64,307.14 719.87,330.96 721.09,337.03 722.32,339.91 723.55,340.17 724.77,336.84 726.00,331.79 727.23,325.64 728.45,319.06 729.68,312.08 730.91,303.48 732.13,294.55 733.36,285.41 734.59,275.83 735.81,266.15 737.04,257.81 738.27,252.50 739.49,243.52 740.72,233.06 741.95,219.71 743.17,203.98 744.40,229.37 745.63,205.37 746.85,247.06 748.08,238.27 749.31,226.51 750.53,212.32 751.76,196.28 752.99,196.70 754.21,202.18 755.44,220.34 756.67,221.31 757.89,211.54 759.12,199.71 760.35,230.88 761.57,230.52 762.80,227.09 764.03,267.09 765.25,262.94 766.48,254.17 767.71,244.56 768.93,234.73 770.16,224.89 771.39,215.01 772.61,205.14 773.84,195.61 775.07,186.38 776.29,177.27 777.52,168.38 778.75,159.76 779.97,151.49 781.20,199.22 782.43,182.95 783.65,180.52 784.88,175.83 786.11,171.57 787.33,168.78 788.56,167.25 789.79,178.36 791.01,186.84 792.24,187.82 793.47,189.21 794.69,189.73 795.92,190.21 797.15,190.97 798.37,191.68 799.60,192.68 800.83,194.10 802.05,195.88 803.28,197.97 804.51,200.29 805.73,202.70 806.96,204.33 808.19,204.55 809.41,203.70 810.64,201.85 811.87,199.16 813.09,195.83 814.32,192.21 815.55,188.52 816.77,183.55 818.00,175.18" fill="none" stroke="#1b6ca8" stroke-width="3"/>
<polyline points="82.00,488.00 83.23,488.00 84.45,488.00 85.68,488.00 86.91,488.00 88.13,488.00 89.36,488.00 90.59,488.00 91.81,488.00 93.04,488.00 94.27,488.00 95.49,488.00 96.72,488.00 97.95,488.00 99.17,488.00 100.40,488.00 101.63,488.00 102.85,488.00 104.08,488.00 105.31,488.00 106.53,488.00 107.76,488.00 108.99,488.00 110.21,488.00 111.44,488.00 112.67,488.00 113.89,488.00 115.12,488.00 116.35,488.00 117.57,488.00 118.80,488.00 120.03,488.00 121.25,488.00 122.48,488.00 123.71,488.00 124.93,488.00 126.16,488.00 127.39,488.00 128.61,488.00 129.84,488.00 131.07,488.00 132.29,488.00 133.52,488.00 134.75,488.00 135.97,488.00 137.20,488.00 138.43,488.00 139.65,488.00 140.88,488.00 142.11,488.00 143.33,488.00 144.56,488.00 145.79,488.00 147.01,488.00 148.24,488.00 149.47,488.00 150.69,488.00 151.92,488.00 153.15,488.00 154.37,488.00 155.60,488.00 156.83,488.00 158.05,488.00 159.28,488.00 160.51,488.00 161.73,488.00 162.96,488.00 164.19,488.00 165.41,488.00 166.64,488.00 167.87,488.00 169.09,488.00 170.32,488.00 171.55,488.00 172.77,488.00 174.00,488.00 175.23,488.00 176.45,488.00 177.68,488.00 178.91,488.00 180.13,488.00 181.36,488.00 182.59,488.00 183.81,488.00 185.04,488.00 186.27,488.00 187.49,488.00 188.72,488.00 189.95,488.00 191.17,488.00 192.40,488.00 193.63,488.00 194.85,488.00 196.08,488.00 197.31,488.00 198.53,488.00 199.76,488.00 200.99,488.00 202.21,488.00 203.44,488.00 204.67,488.00 205.89,488.00 207.12,488.00 208.35,488.00 209.57,488.00 210.80,488.00 212.03,488.00 213.25,488.00 214.48,488.00 215.71,488.00 216.93,488.00 218.16,488.00 219.39,488.00 220.61,488.00 221.84,488.00 223.07,488.00 224.29,488.00 225.52,488.00 226.75,488.00 227.97,488.00 229.20,488.00 230.43,488.00 231.65,488.00 232.88,488.00 234.11,488.00 235.33,488.00 236.56,488.00 237.79,488.00 239.01,488.00 240.24,488.00 241.47,488.00 242.69,488.00 243.92,488.00 245.15,488.00 246.37,488.00 247.60,488.00 248.83,488.00 250.05,488.00 251.28,488.00 252.51,488.00 253.73,488.00 254.96,488.00 256.19,488.00 257.41,488.00 258.64,488.00 259.87,488.00 261.09,488.00 262.32,488.00 263.55,488.00 264.77,488.00 266.00,488.00 267.23,488.00 268.45,488.00 269.68,488.00 270.91,488.00 272.13,488.00 273.36,488.00 274.59,488.00 275.81,488.00 277.04,488.00 278.27,488.00 279.49,488.00 280.72,488.00 281.95,488.00 283.17,488.00 284.40,488.00 285.63,488.00 286.85,488.00 288.08,488.00 289.31,488.00 290.53,488.00 291.76,488.00 292.99,488.00 294.21,488.00 295.44,488.00 296.67,488.00 297.89,488.00 299.12,488.00 300.35,488.00 301.57,488.00 302.80,488.00 304.03,488.00 305.25,488.00 306.48,488.00 307.71,488.00 308.93,488.00 310.16,488.00 311.39,488.00 312.61,488.00 313.84,488.00 315.07,488.00 316.29,488.00 317.52,488.00 318.75,488.00 319.97,488.00 321.20,488.00 322.43,488.00 323.65,488.00 324.88,488.00 326.11,488.00 327.33,488.00 328.56,486.59 329.79,483.13 331.01,478.69 332.24,473.64 333.47,468.15 334.69,463.07 335.92,457.35 337.15,451.33 338.37,445.09 339.60,438.66 340.83,432.07 342.05,425.34 343.28,464.60 344.51,485.55 345.73,484.13 346.96,480.42 348.19,476.09 349.41,471.37 350.64,465.09 351.87,456.88 353.09,447.67 354.32,437.80 355.55,427.41 356.77,416.59 358.00,443.85 359.23,448.51 360.45,443.47 361.68,437.65 362.91,431.97 364.13,468.47 365.36,483.49 366.59,482.90 367.81,481.11 369.04,479.13 370.27,477.02 371.49,474.82 372.72,471.90 373.95,468.25 375.17,464.15 376.40,459.72 377.63,455.03 378.85,450.12 380.08,444.73 381.31,437.56 382.53,429.21 383.76,420.04 384.99,418.49 386.21,431.85 387.44,457.29 388.67,459.74 389.89,456.89 391.12,453.24 392.35,448.72 393.57,462.87 394.80,454.46 396.03,447.58 397.25,443.48 398.48,439.99 399.71,436.79 400.93,433.64 402.16,429.81 403.39,433.07 404.61,428.47 405.84,420.10 407.07,412.67 408.29,404.96 409.52,396.43 410.75,391.52 411.97,415.28 413.20,404.62 414.43,395.45 415.65,386.40 416.88,377.17 418.11,367.81 419.33,358.30 420.56,348.62 421.79,338.74 423.01,328.65 424.24,356.60 425.47,378.31 426.69,372.63 427.92,366.35 429.15,421.26 430.37,436.17 431.60,437.18 432.83,435.32 434.05,432.08 435.28,427.98 436.51,423.93 437.73,419.97 438.96,416.06 440.19,412.09 441.41,408.04 442.64,403.90 443.87,399.71 445.09,395.45 446.32,391.16 447.55,386.83 448.77,382.48 450.00,377.99 451.23,373.03 452.45,367.75 453.68,362.57 454.91,357.48 456.13,351.78 457.36,345.82 458.59,338.73 459.81,342.10 461.04,381.15 462.27,389.47 463.49,390.71 464.72,388.05 465.95,384.98 467.17,381.88 468.40,379.60 469.63,378.02 470.85,376.89 472.08,375.03 473.31,371.42 474.53,366.60 475.76,359.82 476.99,351.67 478.21,343.23 479.44,334.69 480.67,326.01 481.89,317.23 483.12,308.42 484.35,299.58 485.57,290.69 486.80,281.75 488.03,272.31 489.25,436.79 490.48,437.30 491.71,437.59 492.93,437.67 494.16,437.55 495.39,437.27 496.61,436.67 497.84,436.21 499.07,435.48 500.29,434.61 501.52,433.61 502.75,432.50 503.97,433.60 505.20,439.51 506.43,444.12 507.65,444.26 508.88,441.66 510.11,437.98 511.33,433.75 512.56,429.19 513.79,424.42 515.01,419.49 516.24,414.01 517.47,405.81 518.69,397.26 519.92,388.53 521.15,379.56 522.37,370.31 523.60,360.63 524.83,350.56 526.05,340.17 527.28,329.26 528.51,317.88 529.73,306.16 530.96,298.18 532.19,286.72 533.41,363.79 534.64,381.07 535.87,362.68 537.09,352.19 538.32,342.69 539.55,332.91 540.77,324.08 542.00,313.93 543.23,303.62 544.45,293.14 545.68,283.54 546.91,273.82 548.13,287.81 549.36,276.43 550.59,265.13 551.81,253.35 553.04,241.20 554.27,313.25 555.49,376.98 556.72,377.34 557.95,374.21 559.17,363.70 560.40,351.27 561.63,338.14 562.85,324.31 564.08,310.08 565.31,295.46 566.53,280.44 567.76,264.59 568.99,247.62 570.21,229.83 571.44,210.33 572.67,189.84 573.89,216.39 575.12,243.21 576.35,240.61 577.57,227.10 578.80,212.03 580.03,195.78 581.25,178.76 582.48,228.54 583.71,218.26 584.93,208.64 586.16,198.63 587.39,263.82 588.61,262.96 589.84,263.28 591.07,307.38 592.29,300.20 593.52,300.94 594.75,299.93 595.97,295.43 597.20,287.53 598.43,277.37 599.65,265.57 600.88,310.44 602.11,314.80 603.33,353.26 604.56,338.60 605.79,329.72 607.01,320.20 608.24,309.39 609.47,297.11 610.69,284.10 611.92,269.97 613.15,318.39 614.37,322.59 615.60,322.48 616.83,320.54 618.05,314.28 619.28,303.64 620.51,290.32 621.73,402.10 622.96,406.92 624.19,401.04 625.41,391.53 626.64,379.59 627.87,367.80 629.09,355.27 630.32,341.96 631.55,328.00 632.77,313.39 634.00,297.93 635.23,281.80 636.45,265.08 637.68,330.83 638.91,318.92 640.13,305.18 641.36,288.74 642.59,271.05 643.81,252.70 645.04,233.34 646.27,212.93 647.49,191.35 648.72,168.84 649.95,145.60 651.17,123.80 652.40,258.75 653.63,247.93 654.85,237.11 656.08,224.43 657.31,210.12 658.53,194.39 659.76,177.75 660.99,160.41 662.21,142.50 663.44,124.11 664.67,107.57 665.89,90.14 667.12,120.99 668.35,256.25 669.57,240.71 670.80,226.36 672.03,211.01 673.25,194.80 674.48,177.89 675.71,160.43 676.93,142.48 678.16,124.06 679.39,105.22 680.61,86.03 681.84,68.68 683.07,104.10 684.29,86.68 685.52,69.39 686.75,51.90 687.97,73.35 689.20,252.30 690.43,262.44 691.65,262.42 692.88,259.18 694.11,253.68 695.33,246.55 696.56,238.10 697.79,228.52 699.01,220.75 700.24,225.09 701.47,223.84 702.69,215.79 703.92,204.67 705.15,192.14 706.37,178.66 707.60,164.44 708.83,217.76 710.05,242.12 711.28,251.80 712.51,256.48 713.73,298.25 714.96,295.45 716.19,288.82 717.41,279.70 718.64,335.80 719.87,341.03 721.09,346.07 722.32,348.10 723.55,348.38 724.77,345.64 726.00,340.90 727.23,334.98 728.45,328.91 729.68,321.61 730.91,313.58 732.13,304.96 733.36,295.80 734.59,285.91 735.81,276.15 737.04,270.74 738.27,262.18 739.49,253.33 740.72,241.71 741.95,227.90 743.17,212.23 744.40,226.06 745.63,213.87 746.85,254.52 748.08,246.73 749.31,235.43 750.53,221.52 751.76,205.73 752.99,208.17 754.21,217.06 755.44,246.10 756.67,234.75 757.89,223.79 759.12,212.18 760.35,246.22 761.57,246.35 762.80,240.62 764.03,287.91 765.25,277.26 766.48,267.49 767.71,257.46 768.93,247.37 770.16,237.27 771.39,227.15 772.61,217.07 773.84,207.19 775.07,197.73 776.29,188.46 777.52,179.40 778.75,170.61 779.97,163.96 781.20,172.53 782.43,189.02 783.65,188.97 784.88,185.76 786.11,182.20 787.33,179.79 788.56,178.90 789.79,182.64 791.01,196.22 792.24,199.51 793.47,201.70 794.69,203.21 795.92,204.31 797.15,205.53 798.37,206.49 799.60,207.84 800.83,209.66 802.05,211.83 803.28,214.31 804.51,217.05 805.73,219.90 806.96,222.38 808.19,222.17 809.41,220.94 810.64,218.59 811.87,215.68 813.09,212.30 814.32,209.84 815.55,205.22 816.77,198.29 818.00,188.19" fill="none" stroke="#d1495b" stroke-width="3"/>
<polyline points="82.00,488.00 83.23,488.00 83.23,488.00 84.45,488.00 84.45,488.00 85.68,488.00 85.68,488.00 86.91,488.00 86.91,488.00 88.13,488.00 88.13,488.00 89.36,488.00 89.36,488.00 90.59,488.00 90.59,488.00 91.81,488.00 91.81,488.00 93.04,488.00 93.04,488.00 94.27,488.00 94.27,488.00 95.49,488.00 95.49,488.00 96.72,488.00 96.72,488.00 97.95,488.00 97.95,488.00 99.17,488.00 99.17,488.00 100.40,488.00 100.40,488.00 101.63,488.00 101.63,488.00 102.85,488.00 102.85,488.00 104.08,488.00 104.08,488.00 105.31,488.00 105.31,488.00 106.53,488.00 106.53,488.00 107.76,488.00 107.76,488.00 108.99,488.00 108.99,488.00 110.21,488.00 110.21,488.00 111.44,488.00 111.44,488.00 112.67,488.00 112.67,488.00 113.89,488.00 113.89,488.00 115.12,488.00 115.12,488.00 116.35,488.00 116.35,488.00 117.57,488.00 117.57,488.00 118.80,488.00 118.80,488.00 120.03,488.00 120.03,488.00 121.25,488.00 121.25,488.00 122.48,488.00 122.48,488.00 123.71,488.00 123.71,488.00 124.93,488.00 124.93,488.00 126.16,488.00 126.16,488.00 127.39,488.00 127.39,488.00 128.61,488.00 128.61,488.00 129.84,488.00 129.84,488.00 131.07,488.00 131.07,488.00 132.29,488.00 132.29,488.00 133.52,488.00 133.52,488.00 134.75,488.00 134.75,488.00 135.97,488.00 135.97,488.00 137.20,488.00 137.20,488.00 138.43,488.00 138.43,488.00 139.65,488.00 139.65,488.00 140.88,488.00 140.88,488.00 142.11,488.00 142.11,488.00 143.33,488.00 143.33,488.00 144.56,488.00 144.56,488.00 145.79,488.00 145.79,488.00 147.01,488.00 147.01,488.00 148.24,488.00 148.24,488.00 149.47,488.00 149.47,488.00 150.69,488.00 150.69,488.00 151.92,488.00 151.92,488.00 153.15,488.00 153.15,488.00 154.37,488.00 154.37,488.00 155.60,488.00 155.60,488.00 156.83,488.00 156.83,488.00 158.05,488.00 158.05,488.00 159.28,488.00 159.28,488.00 160.51,488.00 160.51,488.00 161.73,488.00 161.73,488.00 162.96,488.00 162.96,488.00 164.19,488.00 164.19,488.00 165.41,488.00 165.41,488.00 166.64,488.00 166.64,488.00 167.87,488.00 167.87,488.00 169.09,488.00 169.09,488.00 170.32,488.00 170.32,488.00 171.55,488.00 171.55,488.00 172.77,488.00 172.77,488.00 174.00,488.00 174.00,488.00 175.23,488.00 175.23,488.00 176.45,488.00 176.45,488.00 177.68,488.00 177.68,488.00 178.91,488.00 178.91,488.00 180.13,488.00 180.13,488.00 181.36,488.00 181.36,488.00 182.59,488.00 182.59,488.00 183.81,488.00 183.81,488.00 185.04,488.00 185.04,488.00 186.27,488.00 186.27,488.00 187.49,488.00 187.49,488.00 188.72,488.00 188.72,488.00 189.95,488.00 189.95,488.00 191.17,488.00 191.17,488.00 192.40,488.00 192.40,488.00 193.63,488.00 193.63,488.00 194.85,488.00 194.85,488.00 196.08,488.00 196.08,488.00 197.31,488.00 197.31,488.00 198.53,488.00 198.53,488.00 199.76,488.00 199.76,488.00 200.99,488.00 200.99,488.00 202.21,488.00 202.21,488.00 203.44,488.00 203.44,488.00 204.67,488.00 204.67,488.00 205.89,488.00 205.89,488.00 207.12,488.00 207.12,488.00 208.35,488.00 208.35,488.00 209.57,488.00 209.57,488.00 210.80,488.00 210.80,488.00 212.03,488.00 212.03,488.00 213.25,488.00 213.25,488.00 214.48,488.00 214.48,488.00 215.71,488.00 215.71,488.00 216.93,488.00 216.93,488.00 218.16,488.00 218.16,488.00 219.39,488.00 219.39,488.00 220.61,488.00 220.61,488.00 221.84,488.00 221.84,488.00 223.07,488.00 223.07,488.00 224.29,488.00 224.29,488.00 225.52,488.00 225.52,488.00 226.75,488.00 226.75,488.00 227.97,488.00 227.97,488.00 229.20,488.00 229.20,488.00 230.43,488.00 230.43,488.00 231.65,488.00 231.65,488.00 232.88,488.00 232.88,488.00 234.11,488.00 234.11,488.00 235.33,488.00 235.33,488.00 236.56,488.00 236.56,488.00 237.79,488.00 237.79,488.00 239.01,488.00 239.01,488.00 240.24,488.00 240.24,488.00 241.47,488.00 241.47,488.00 242.69,488.00 242.69,488.00 243.92,488.00 243.92,488.00 245.15,488.00 245.15,488.00 246.37,488.00 246.37,488.00 247.60,488.00 247.60,488.00 248.83,488.00 248.83,488.00 250.05,488.00 250.05,488.00 251.28,488.00 251.28,488.00 252.51,488.00 252.51,488.00 253.73,488.00 253.73,488.00 254.96,488.00 254.96,488.00 256.19,488.00 256.19,488.00 257.41,488.00 257.41,488.00 258.64,488.00 258.64,488.00 259.87,488.00 259.87,488.00 261.09,488.00 261.09,488.00 262.32,488.00 262.32,488.00 263.55,488.00 263.55,488.00 264.77,488.00 264.77,488.00 266.00,488.00 266.00,488.00 267.23,488.00 267.23,488.00 268.45,488.00 268.45,488.00 269.68,488.00 269.68,488.00 270.91,488.00 270.91,488.00 272.13,488.00 272.13,488.00 273.36,488.00 273.36,488.00 274.59,488.00 274.59,488.00 275.81,488.00 275.81,488.00 277.04,488.00 277.04,488.00 278.27,488.00 278.27,488.00 279.49,488.00 279.49,488.00 280.72,488.00 280.72,488.00 281.95,488.00 281.95,488.00 283.17,488.00 283.17,488.00 284.40,488.00 284.40,488.00 285.63,488.00 285.63,488.00 286.85,488.00 286.85,488.00 288.08,488.00 288.08,488.00 289.31,488.00 289.31,488.00 290.53,488.00 290.53,488.00 291.76,488.00 291.76,488.00 292.99,488.00 292.99,488.00 294.21,488.00 294.21,488.00 295.44,488.00 295.44,488.00 296.67,488.00 296.67,488.00 297.89,488.00 297.89,488.00 299.12,488.00 299.12,488.00 300.35,488.00 300.35,488.00 301.57,488.00 301.57,488.00 302.80,488.00 302.80,488.00 304.03,488.00 304.03,488.00 305.25,488.00 305.25,488.00 306.48,488.00 306.48,488.00 307.71,488.00 307.71,488.00 308.93,488.00 308.93,488.00 310.16,488.00 310.16,488.00 311.39,488.00 311.39,488.00 312.61,488.00 312.61,488.00 313.84,488.00 313.84,488.00 315.07,488.00 315.07,488.00 316.29,488.00 316.29,488.00 317.52,488.00 317.52,488.00 318.75,488.00 318.75,488.00 319.97,488.00 319.97,488.00 321.20,488.00 321.20,488.00 322.43,488.00 322.43,488.00 323.65,488.00 323.65,488.00 324.88,488.00 324.88,488.00 326.11,488.00 326.11,488.00 327.33,488.00 327.33,488.00 328.56,488.00 328.56,488.00 329.79,488.00 329.79,488.00 331.01,488.00 331.01,488.00 332.24,488.00 332.24,488.00 333.47,488.00 333.47,488.00 334.69,488.00 334.69,487.32 335.92,487.32 335.92,487.32 337.15,487.32 337.15,487.32 338.37,487.32 338.37,487.32 339.60,487.32 339.60,487.32 340.83,487.32 340.83,487.32 342.05,487.32 342.05,486.63 343.28,486.63 343.28,479.80 344.51,479.80 344.51,479.80 345.73,479.80 345.73,479.80 346.96,479.80 346.96,479.80 348.19,479.80 348.19,479.80 349.41,479.80 349.41,479.80 350.64,479.80 350.64,479.80 351.87,479.80 351.87,479.80 353.09,479.80 353.09,479.80 354.32,479.80 354.32,479.80 355.55,479.80 355.55,479.80 356.77,479.80 356.77,479.80 358.00,479.80 358.00,472.98 359.23,472.98 359.23,472.98 360.45,472.98 360.45,472.98 361.68,472.98 361.68,472.98 362.91,472.98 362.91,471.61 364.13,471.61 364.13,464.10 365.36,464.10 365.36,464.10 366.59,464.10 366.59,464.10 367.81,464.10 367.81,464.10 369.04,464.10 369.04,464.10 370.27,464.10 370.27,464.10 371.49,464.10 371.49,464.10 372.72,464.10 372.72,464.10 373.95,464.10 373.95,464.10 375.17,464.10 375.17,464.10 376.40,464.10 376.40,464.10 377.63,464.10 377.63,464.10 378.85,464.10 378.85,464.10 380.08,464.10 380.08,464.10 381.31,464.10 381.31,464.10 382.53,464.10 382.53,464.10 383.76,464.10 383.76,464.10 384.99,464.10 384.99,464.10 386.21,464.10 386.21,462.73 387.44,462.73 387.44,451.12 388.67,451.12 388.67,451.12 389.89,451.12 389.89,451.12 391.12,451.12 391.12,451.12 392.35,451.12 392.35,451.12 393.57,451.12 393.57,451.12 394.80,451.12 394.80,451.12 396.03,451.12 396.03,451.12 397.25,451.12 397.25,451.12 398.48,451.12 398.48,451.12 399.71,451.12 399.71,451.12 400.93,451.12 400.93,451.12 402.16,451.12 402.16,451.12 403.39,451.12 403.39,451.12 404.61,451.12 404.61,451.12 405.84,451.12 405.84,451.12 407.07,451.12 407.07,451.12 408.29,451.12 408.29,451.12 409.52,451.12 409.52,451.12 410.75,451.12 410.75,450.44 411.97,450.44 411.97,445.66 413.20,445.66 413.20,445.66 414.43,445.66 414.43,445.66 415.65,445.66 415.65,445.66 416.88,445.66 416.88,445.66 418.11,445.66 418.11,445.66 419.33,445.66 419.33,445.66 420.56,445.66 420.56,445.66 421.79,445.66 421.79,445.66 423.01,445.66 423.01,445.66 424.24,445.66 424.24,430.63 425.47,430.63 425.47,430.63 426.69,430.63 426.69,430.63 427.92,430.63 427.92,429.95 429.15,429.95 429.15,422.44 430.37,422.44 430.37,421.76 431.60,421.76 431.60,421.76 432.83,421.76 432.83,421.76 434.05,421.76 434.05,421.76 435.28,421.76 435.28,421.76 436.51,421.76 436.51,421.76 437.73,421.76 437.73,421.76 438.96,421.76 438.96,421.76 440.19,421.76 440.19,421.76 441.41,421.76 441.41,421.76 442.64,421.76 442.64,421.76 443.87,421.76 443.87,421.76 445.09,421.76 445.09,421.76 446.32,421.76 446.32,421.76 447.55,421.76 447.55,421.76 448.77,421.76 448.77,421.76 450.00,421.76 450.00,421.76 451.23,421.76 451.23,421.76 452.45,421.76 452.45,421.76 453.68,421.76 453.68,421.07 454.91,421.07 454.91,421.07 456.13,421.07 456.13,421.07 457.36,421.07 457.36,420.39 458.59,420.39 458.59,419.71 459.81,419.71 459.81,409.46 461.04,409.46 461.04,409.46 462.27,409.46 462.27,409.46 463.49,409.46 463.49,409.46 464.72,409.46 464.72,409.46 465.95,409.46 465.95,409.46 467.17,409.46 467.17,409.46 468.40,409.46 468.40,409.46 469.63,409.46 469.63,409.46 470.85,409.46 470.85,409.46 472.08,409.46 472.08,409.46 473.31,409.46 473.31,409.46 474.53,409.46 474.53,409.46 475.76,409.46 475.76,409.46 476.99,409.46 476.99,409.46 478.21,409.46 478.21,409.46 479.44,409.46 479.44,409.46 480.67,409.46 480.67,409.46 481.89,409.46 481.89,409.46 483.12,409.46 483.12,409.46 484.35,409.46 484.35,409.46 485.57,409.46 485.57,409.46 486.80,409.46 486.80,409.46 488.03,409.46 488.03,409.46 489.25,409.46 489.25,391.02 490.48,391.02 490.48,391.02 491.71,391.02 491.71,391.02 492.93,391.02 492.93,391.02 494.16,391.02 494.16,391.02 495.39,391.02 495.39,391.02 496.61,391.02 496.61,391.02 497.84,391.02 497.84,391.02 499.07,391.02 499.07,391.02 500.29,391.02 500.29,391.02 501.52,391.02 501.52,391.02 502.75,391.02 502.75,391.02 503.97,391.02 503.97,391.02 505.20,391.02 505.20,391.02 506.43,391.02 506.43,391.02 507.65,391.02 507.65,391.02 508.88,391.02 508.88,391.02 510.11,391.02 510.11,391.02 511.33,391.02 511.33,391.02 512.56,391.02 512.56,391.02 513.79,391.02 513.79,391.02 515.01,391.02 515.01,391.02 516.24,391.02 516.24,391.02 517.47,391.02 517.47,391.02 518.69,391.02 518.69,391.02 519.92,391.02 519.92,391.02 521.15,391.02 521.15,391.02 522.37,391.02 522.37,391.02 523.60,391.02 523.60,391.02 524.83,391.02 524.83,391.02 526.05,391.02 526.05,391.02 527.28,391.02 527.28,391.02 528.51,391.02 528.51,391.02 529.73,391.02 529.73,391.02 530.96,391.02 530.96,390.34 532.19,390.34 532.19,390.34 533.41,390.34 533.41,379.41 534.64,379.41 534.64,373.95 535.87,373.95 535.87,373.95 537.09,373.95 537.09,373.95 538.32,373.95 538.32,373.95 539.55,373.95 539.55,373.95 540.77,373.95 540.77,373.27 542.00,373.27 542.00,373.27 543.23,373.27 543.23,373.27 544.45,373.27 544.45,373.27 545.68,373.27 545.68,372.59 546.91,372.59 546.91,372.59 548.13,372.59 548.13,363.71 549.36,363.71 549.36,363.71 550.59,363.71 550.59,363.71 551.81,363.71 551.81,363.71 553.04,363.71 553.04,363.71 554.27,363.71 554.27,343.90 555.49,343.90 555.49,343.90 556.72,343.90 556.72,343.90 557.95,343.90 557.95,343.90 559.17,343.90 559.17,343.90 560.40,343.90 560.40,343.90 561.63,343.90 561.63,343.90 562.85,343.90 562.85,343.90 564.08,343.90 564.08,343.90 565.31,343.90 565.31,343.90 566.53,343.90 566.53,343.90 567.76,343.90 567.76,343.90 568.99,343.90 568.99,343.90 570.21,343.90 570.21,343.90 571.44,343.90 571.44,343.90 572.67,343.90 572.67,341.17 573.89,341.17 573.89,335.71 575.12,335.71 575.12,325.46 576.35,325.46 576.35,325.46 577.57,325.46 577.57,325.46 578.80,325.46 578.80,325.46 580.03,325.46 580.03,325.46 581.25,325.46 581.25,324.78 582.48,324.78 582.48,315.22 583.71,315.22 583.71,315.22 584.93,315.22 584.93,315.22 586.16,315.22 586.16,315.22 587.39,315.22 587.39,304.29 588.61,304.29 588.61,303.61 589.84,303.61 589.84,303.61 591.07,303.61 591.07,297.46 592.29,297.46 592.29,297.46 593.52,297.46 593.52,297.46 594.75,297.46 594.75,297.46 595.97,297.46 595.97,297.46 597.20,297.46 597.20,297.46 598.43,297.46 598.43,297.46 599.65,297.46 599.65,297.46 600.88,297.46 600.88,287.22 602.11,287.22 602.11,286.54 603.33,286.54 603.33,281.07 604.56,281.07 604.56,281.07 605.79,281.07 605.79,281.07 607.01,281.07 607.01,281.07 608.24,281.07 608.24,281.07 609.47,281.07 609.47,281.07 610.69,281.07 610.69,280.39 611.92,280.39 611.92,280.39 613.15,280.39 613.15,270.83 614.37,270.83 614.37,270.83 615.60,270.83 615.60,270.83 616.83,270.83 616.83,270.83 618.05,270.83 618.05,270.83 619.28,270.83 619.28,270.83 620.51,270.83 620.51,270.83 621.73,270.83 621.73,255.12 622.96,255.12 622.96,255.12 624.19,255.12 624.19,255.12 625.41,255.12 625.41,255.12 626.64,255.12 626.64,255.12 627.87,255.12 627.87,255.12 629.09,255.12 629.09,255.12 630.32,255.12 630.32,255.12 631.55,255.12 631.55,255.12 632.77,255.12 632.77,255.12 634.00,255.12 634.00,255.12 635.23,255.12 635.23,255.12 636.45,255.12 636.45,255.12 637.68,255.12 637.68,244.20 638.91,244.20 638.91,244.20 640.13,244.20 640.13,244.20 641.36,244.20 641.36,244.20 642.59,244.20 642.59,244.20 643.81,244.20 643.81,244.20 645.04,244.20 645.04,244.20 646.27,244.20 646.27,244.20 647.49,244.20 647.49,244.20 648.72,244.20 648.72,244.20 649.95,244.20 649.95,244.20 651.17,244.20 651.17,243.51 652.40,243.51 652.40,227.12 653.63,227.12 653.63,227.12 654.85,227.12 654.85,227.12 656.08,227.12 656.08,227.12 657.31,227.12 657.31,227.12 658.53,227.12 658.53,227.12 659.76,227.12 659.76,227.12 660.99,227.12 660.99,227.12 662.21,227.12 662.21,227.12 663.44,227.12 663.44,227.12 664.67,227.12 664.67,226.44 665.89,226.44 665.89,225.76 667.12,225.76 667.12,215.51 668.35,215.51 668.35,191.61 669.57,191.61 669.57,191.61 670.80,191.61 670.80,191.61 672.03,191.61 672.03,191.61 673.25,191.61 673.25,191.61 674.48,191.61 674.48,191.61 675.71,191.61 675.71,191.61 676.93,191.61 676.93,191.61 678.16,191.61 678.16,191.61 679.39,191.61 679.39,191.61 680.61,191.61 680.61,191.61 681.84,191.61 681.84,181.37 683.07,181.37 683.07,181.37 684.29,181.37 684.29,181.37 685.52,181.37 685.52,181.37 686.75,181.37 686.75,181.37 687.97,181.37 687.97,159.51 689.20,159.51 689.20,144.49 690.43,144.49 690.43,144.49 691.65,144.49 691.65,144.49 692.88,144.49 692.88,144.49 694.11,144.49 694.11,144.49 695.33,144.49 695.33,144.49 696.56,144.49 696.56,144.49 697.79,144.49 697.79,144.49 699.01,144.49 699.01,143.80 700.24,143.80 700.24,141.07 701.47,141.07 701.47,140.39 702.69,140.39 702.69,139.71 703.92,139.71 703.92,139.71 705.15,139.71 705.15,139.71 706.37,139.71 706.37,139.71 707.60,139.71 707.60,139.71 708.83,139.71 708.83,124.00 710.05,124.00 710.05,123.32 711.28,123.32 711.28,121.27 712.51,121.27 712.51,121.27 713.73,121.27 713.73,112.39 714.96,112.39 714.96,112.39 716.19,112.39 716.19,112.39 717.41,112.39 717.41,112.39 718.64,112.39 718.64,101.46 719.87,101.46 719.87,100.78 721.09,100.78 721.09,100.78 722.32,100.78 722.32,100.78 723.55,100.78 723.55,100.78 724.77,100.78 724.77,100.78 726.00,100.78 726.00,100.78 727.23,100.78 727.23,100.78 728.45,100.78 728.45,100.78 729.68,100.78 729.68,100.78 730.91,100.78 730.91,100.78 732.13,100.78 732.13,100.78 733.36,100.78 733.36,100.78 734.59,100.78 734.59,100.78 735.81,100.78 735.81,100.78 737.04,100.78 737.04,100.78 738.27,100.78 738.27,100.78 739.49,100.78 739.49,100.78 740.72,100.78 740.72,100.78 741.95,100.78 741.95,100.78 743.17,100.78 743.17,100.78 744.40,100.78 744.40,91.90 745.63,91.90 745.63,91.90 746.85,91.90 746.85,84.39 748.08,84.39 748.08,84.39 749.31,84.39 749.31,84.39 750.53,84.39 750.53,84.39 751.76,84.39 751.76,84.39 752.99,84.39 752.99,74.83 754.21,74.83 754.21,74.83 755.44,74.83 755.44,65.95 756.67,65.95 756.67,65.27 757.89,65.27 757.89,65.27 759.12,65.27 759.12,65.27 760.35,65.27 760.35,59.12 761.57,59.12 761.57,59.12 762.80,59.12 762.80,59.12 764.03,59.12 764.03,48.88 765.25,48.88 765.25,48.88 766.48,48.88 766.48,48.88 767.71,48.88 767.71,48.88 768.93,48.88 768.93,48.88 770.16,48.88 770.16,48.88 771.39,48.88 771.39,48.88 772.61,48.88 772.61,48.88 773.84,48.88 773.84,48.88 775.07,48.88 775.07,48.88 776.29,48.88 776.29,48.88 777.52,48.88 777.52,48.88 778.75,48.88 778.75,48.88 779.97,48.88 779.97,48.20 781.20,48.20 781.20,40.68 782.43,40.68 782.43,40.68 783.65,40.68 783.65,40.00 784.88,40.00 784.88,40.00 786.11,40.00 786.11,40.00 787.33,40.00 787.33,40.00 788.56,40.00 788.56,40.00 789.79,40.00 789.79,40.00 791.01,40.00 791.01,40.00 792.24,40.00 792.24,40.00 793.47,40.00 793.47,40.00 794.69,40.00 794.69,40.00 795.92,40.00 795.92,40.00 797.15,40.00 797.15,40.00 798.37,40.00 798.37,40.00 799.60,40.00 799.60,40.00 800.83,40.00 800.83,40.00 802.05,40.00 802.05,40.00 803.28,40.00 803.28,40.00 804.51,40.00 804.51,40.00 805.73,40.00 805.73,40.00 806.96,40.00 806.96,40.00 808.19,40.00 808.19,40.00 809.41,40.00 809.41,40.00 810.64,40.00 810.64,40.00 811.87,40.00 811.87,40.00 813.09,40.00 813.09,40.00 814.32,40.00 814.32,40.00 815.55,40.00 815.55,40.00 816.77,40.00 816.77,40.00 818.00,40.00 818.00,40.00" fill="none" stroke="#4b8f29" stroke-width="3"/>
<text x="450.0" y="552" text-anchor="middle" font-size="20" font-family="Arial, sans-serif" fill="#111827">Top displacement (mm)</text>
<text x="24" y="280.0" text-anchor="middle" transform="rotate(-90 24 280.0)" font-size="20" font-family="Arial, sans-serif" fill="#111827">Force magnitude (N)</text>
<text x="880" y="280.0" text-anchor="middle" transform="rotate(90 880 280.0)" font-size="20" font-family="Arial, sans-serif" fill="#111827">Broken bonds</text>
<text x="102" y="64" font-size="18" font-family="Arial, sans-serif" fill="#1b6ca8">Top plate</text>
<text x="212" y="64" font-size="18" font-family="Arial, sans-serif" fill="#d1495b">Bottom plate</text>
<text x="352" y="64" font-size="18" font-family="Arial, sans-serif" fill="#4b8f29">Broken bonds</text>
<text x="72" y="45" text-anchor="end" font-size="17" fill="#30363d">21.78</text>
<text x="72" y="488" text-anchor="end" font-size="17" fill="#30363d">0</text>
<text x="828" y="45" text-anchor="start" font-size="17" fill="#30363d">656</text>
<text x="828" y="488" text-anchor="start" font-size="17" fill="#30363d">0</text>
</svg>
