<svg xmlns="http://www.w3.org/2000/svg" width="900" height="560" viewBox="0 0 900 560">
<rect width="100%" height="100%" fill="white"/>
<text x="450.0" y="26" text-anchor="middle" font-size="22" font-family="Arial, sans-serif" fill="#111827">SP-002 force-displacement and bond breakage</text>
<line x1="82" y1="40.00" x2="818" y2="40.00" stroke="#d9dee2" stroke-width="1"/><line x1="82" y1="129.60" x2="818" y2="129.60" stroke="#d9dee2" stroke-width="1"/><line x1="82" y1="219.20" x2="818" y2="219.20" stroke="#d9dee2" stroke-width="1"/><line x1="82" y1="308.80" x2="818" y2="308.80" stroke="#d9dee2" stroke-width="1"/><line x1="82" y1="398.40" x2="818" y2="398.40" stroke="#d9dee2" stroke-width="1"/><line x1="82" y1="488.00" x2="818" y2="488.00" stroke="#d9dee2" stroke-width="1"/><line x1="82.00" y1="40" x2="82.00" y2="488" stroke="#edf0f2" stroke-width="1"/><text x="82.00" y="526" text-anchor="middle" font-size="18" fill="#30363d">0.000</text><line x1="229.20" y1="40" x2="229.20" y2="488" stroke="#edf0f2" stroke-width="1"/><text x="229.20" y="526" text-anchor="middle" font-size="18" fill="#30363d">0.060</text><line x1="376.40" y1="40" x2="376.40" y2="488" stroke="#edf0f2" stroke-width="1"/><text x="376.40" y="526" text-anchor="middle" font-size="18" fill="#30363d">0.120</text><line x1="523.60" y1="40" x2="523.60" y2="488" stroke="#edf0f2" stroke-width="1"/><text x="523.60" y="526" text-anchor="middle" font-size="18" fill="#30363d">0.180</text><line x1="670.80" y1="40" x2="670.80" y2="488" stroke="#edf0f2" stroke-width="1"/><text x="670.80" y="526" text-anchor="middle" font-size="18" fill="#30363d">0.240</text><line x1="818.00" y1="40" x2="818.00" y2="488" stroke="#edf0f2" stroke-width="1"/><text x="818.00" y="526" text-anchor="middle" font-size="18" fill="#30363d">0.300</text>
<line x1="82" y1="40" x2="82" y2="488" stroke="#111827" stroke-width="1.5"/>
<line x1="82" y1="488" x2="818" y2="488" stroke="#111827" stroke-width="1.5"/>
<line x1="818" y1="40" x2="818" y2="488" stroke="#111827" stroke-width="1.5"/>
<polyline points="82.00,488.00 83.23,488.00 84.45,488.00 85.68,488.00 86.91,488.00 88.13,488.00 89.36,488.00 90.59,488.00 91.81,488.00 93.04,488.00 94.27,488.00 95.49,488.00 96.72,488.00 97.95,488.00 99.17,488.00 100.40,488.00 101.63,488.00 102.85,488.00 104.08,488.00 105.31,488.00 106.53,488.00 107.76,488.00 108.99,488.00 110.21,488.00 111.44,488.00 112.67,488.00 113.89,488.00 115.12,488.00 116.35,488.00 117.57,488.00 118.80,488.00 120.03,488.00 121.25,488.00 122.48,488.00 123.71,488.00 124.93,488.00 126.16,488.00 127.39,488.00 128.61,488.00 129.84,488.00 131.07,488.00 132.29,488.00 133.52,488.00 134.75,488.00 135.97,488.00 137.20,488.00 138.43,488.00 139.65,488.00 140.88,488.00 142.11,488.00 143.33,488.00 144.56,488.00 145.79,488.00 147.01,488.00 148.24,488.00 149.47,488.00 150.69,488.00 151.92,488.00 153.15,488.00 154.37,488.00 155.60,488.00 156.83,488.00 158.05,488.00 159.28,488.00 160.51,488.00 161.73,488.00 162.96,488.00 164.19,488.00 165.41,488.00 166.64,488.00 167.87,488.00 169.09,488.00 170.32,488.00 171.55,488.00 172.77,488.00 174.00,488.00 175.23,488.00 176.45,488.00 177.68,488.00 178.91,488.00 180.13,488.00 181.36,488.00 182.59,488.00 183.81,488.00 185.04,488.00 186.27,488.00 187.49,488.00 188.72,488.00 189.95,488.00 191.17,488.00 192.40,488.00 193.63,488.00 194.85,488.00 196.08,488.00 197.31,488.00 198.53,488.00 199.76,488.00 200.99,488.00 202.21,488.00 203.44,488.00 204.67,488.00 205.89,488.00 207.12,488.00 208.35,488.00 209.57,488.00 210.80,488.00 212.03,488.00 213.25,488.00 214.48,488.00 215.71,488.00 216.93,488.00 218.16,488.00 219.39,488.00 220.61,488.00 221.84,488.00 223.07,488.00 224.29,488.00 225.52,488.00 226.75,488.00 227.97,488.00 229.20,488.00 230.43,488.00 231.65,488.00 232.88,488.00 234.11,488.00 235.33,488.00 236.56,488.00 237.79,488.00 239.01,488.00 240.24,488.00 241.47,488.00 242.69,488.00 243.92,488.00 245.15,488.00 246.37,488.00 247.60,488.00 248.83,488.00 250.05,488.00 251.28,488.00 252.51,488.00 253.73,488.00 254.96,488.00 256.19,488.00 257.41,488.00 258.64,488.00 259.87,488.00 261.09,488.00 262.32,488.00 263.55,488.00 264.77,488.00 266.00,488.00 267.23,488.00 268.45,488.00 269.68,488.00 270.91,488.00 272.13,488.00 273.36,488.00 274.59,488.00 275.81,488.00 277.04,488.00 278.27,488.00 279.49,488.00 280.72,488.00 281.95,488.00 283.17,488.00 284.40,488.00 285.63,488.00 286.85,488.00 288.08,488.00 289.31,488.00 290.53,488.00 291.76,488.00 292.99,488.00 294.21,488.00 295.44,488.00 296.67,488.00 297.89,488.00 299.12,488.00 300.35,488.00 301.57,488.00 302.80,488.00 304.03,488.00 305.25,488.00 306.48,488.00 307.71,488.00 308.93,488.00 310.16,488.00 311.39,488.00 312.61,488.00 313.84,488.00 315.07,488.00 316.29,488.00 317.52,488.00 318.75,488.00 319.97,488.00 321.20,488.00 322.43,488.00 323.65,488.00 324.88,488.00 326.11,488.00 327.33,488.00 328.56,485.75 329.79,482.18 331.01,477.95 332.24,473.25 333.47,468.20 334.69,462.85 335.92,458.42 337.15,452.97 338.37,447.33 339.60,441.53 340.83,435.59 342.05,429.53 343.28,423.34 344.51,420.76 345.73,484.94 346.96,479.97 348.19,475.88 349.41,471.57 350.64,465.03 351.87,457.25 353.09,448.75 354.32,439.73 355.55,430.29 356.77,420.49 358.00,410.38 359.23,400.00 360.45,445.57 361.68,439.74 362.91,434.53 364.13,428.44 365.36,422.55 366.59,482.64 367.81,480.50 369.04,478.67 370.27,476.78 371.49,474.81 372.72,471.96 373.95,468.56 375.17,464.81 376.40,460.78 377.63,456.53 378.85,452.09 380.08,446.63 381.31,439.62 382.53,432.53 383.76,424.07 384.99,415.16 386.21,405.84 387.44,396.55 388.67,404.50 389.89,432.00 391.12,438.28 392.35,439.77 393.57,439.24 394.80,437.57 396.03,435.27 397.25,435.55 398.48,437.37 399.71,435.56 400.93,432.56 402.16,428.39 403.39,422.65 404.61,416.27 405.84,409.32 407.07,408.34 408.29,404.13 409.52,396.32 410.75,387.65 411.97,378.50 413.20,368.98 414.43,380.92 415.65,380.50 416.88,374.49 418.11,367.04 419.33,359.02 420.56,350.56 421.79,341.78 423.01,332.76 424.24,323.52 425.47,314.09 426.69,304.52 427.92,297.69 429.15,366.14 430.37,425.03 431.60,432.38 432.83,435.69 434.05,437.13 435.28,437.62 436.51,437.65 437.73,437.49 438.96,437.18 440.19,436.81 441.41,436.47 442.64,436.15 443.87,435.85 445.09,435.53 446.32,435.12 447.55,434.04 448.77,432.30 450.00,430.08 451.23,427.24 452.45,423.22 453.68,418.04 454.91,412.01 456.13,405.39 457.36,398.37 458.59,391.01 459.81,382.79 461.04,373.51 462.27,363.85 463.49,353.88 464.72,343.46 465.95,332.49 467.17,321.26 468.40,310.78 469.63,298.82 470.85,287.17 472.08,277.68 473.31,285.06 474.53,267.85 475.76,346.90 476.99,361.01 478.21,364.01 479.44,362.03 480.67,358.76 481.89,354.26 483.12,349.41 484.35,344.63 485.57,339.98 486.80,335.46 488.03,331.05 489.25,326.74 490.48,322.50 491.71,318.29 492.93,314.08 494.16,309.84 495.39,305.72 496.61,301.72 497.84,297.76 499.07,293.69 500.29,288.10 501.52,282.70 502.75,277.73 503.97,271.63 505.20,265.36 506.43,258.82 507.65,339.55 508.88,305.96 510.11,299.02 511.33,343.43 512.56,347.15 513.79,357.30 515.01,378.39 516.24,392.25 517.47,396.63 518.69,397.00 519.92,396.56 521.15,395.01 522.37,392.81 523.60,390.16 524.83,386.78 526.05,382.77 527.28,378.59 528.51,374.24 529.73,370.12 530.96,365.15 532.19,356.84 533.41,348.02 534.64,339.32 535.87,330.54 537.09,321.47 538.32,312.21 539.55,302.88 540.77,293.61 542.00,284.24 543.23,274.82 544.45,265.34 545.68,255.82 546.91,346.93 548.13,325.01 549.36,315.84 550.59,307.02 551.81,297.59 553.04,287.59 554.27,277.08 555.49,313.83 556.72,310.00 557.95,303.58 559.17,293.75 560.40,281.82 561.63,268.12 562.85,253.36 564.08,238.11 565.31,222.49 566.53,206.53 567.76,190.30 568.99,235.77 570.21,225.21 571.44,216.85 572.67,243.13 573.89,241.28 575.12,238.41 576.35,232.57 577.57,224.23 578.80,310.13 580.03,302.05 581.25,296.81 582.48,289.39 583.71,280.38 584.93,269.17 586.16,256.28 587.39,241.78 588.61,226.00 589.84,209.48 591.07,191.98 592.29,187.62 593.52,172.28 594.75,154.05 595.97,198.61 597.20,183.44 598.43,229.80 599.65,247.98 600.88,246.17 602.11,241.24 603.33,234.24 604.56,225.37 605.79,214.86 607.01,202.84 608.24,189.27 609.47,233.04 610.69,257.62 611.92,304.59 613.15,302.72 614.37,294.33 615.60,283.20 616.83,270.31 618.05,256.22 619.28,241.24 620.51,252.07 621.73,244.00 622.96,237.33 624.19,239.62 625.41,222.03 626.64,203.59 627.87,184.71 629.09,165.44 630.32,244.58 631.55,230.36 632.77,262.08 634.00,251.03 635.23,288.95 636.45,294.59 637.68,286.25 638.91,275.05 640.13,262.23 641.36,248.70 642.59,234.47 643.81,219.10 645.04,203.01 646.27,185.92 647.49,229.37 648.72,218.55 649.95,202.79 651.17,185.97 652.40,168.50 653.63,150.18 654.85,135.30 656.08,116.59 657.31,142.12 658.53,171.44 659.76,164.84 660.99,153.42 662.21,209.51 663.44,263.90 664.67,290.11 665.89,293.70 667.12,293.01 668.35,293.27 669.57,295.50 670.80,290.10 672.03,282.69 673.25,273.49 674.48,262.79 675.71,251.37 676.93,239.38 678.16,226.73 679.39,213.61 680.61,200.11 681.84,186.25 683.07,171.51 684.29,156.49 685.52,141.19 686.75,125.30 687.97,108.70 689.20,91.64 690.43,74.07 691.65,108.21 692.88,91.24 694.11,74.31 695.33,57.16 696.56,40.00 697.79,78.74 699.01,69.72 700.24,86.61 701.47,75.03 702.69,62.15 703.92,49.01 705.15,62.40 706.37,84.88 707.60,114.09 708.83,158.77 710.05,158.04 711.28,153.36 712.51,147.54 713.73,140.58 714.96,132.39 716.19,123.30 717.41,115.88 718.64,105.42 719.87,97.29 721.09,257.60 722.32,271.33 723.55,289.75 724.77,300.10 726.00,310.23 727.23,318.69 728.45,322.79 729.68,321.44 730.91,317.10 732.13,310.68 733.36,302.25 734.59,291.90 735.81,279.82 737.04,266.30 738.27,251.60 739.49,235.95 740.72,332.85 741.95,324.70 743.17,327.19 744.40,325.78 745.63,364.93 746.85,373.33 748.08,375.03 749.31,373.01 750.53,369.07 751.76,364.26 752.99,359.47 754.21,354.55 755.44,349.54 756.67,344.47 757.89,340.24 759.12,337.62 760.35,334.57 761.57,330.49 762.80,325.73 764.03,320.82 765.25,315.92 766.48,310.96 767.71,306.06 768.93,301.30 770.16,296.30 771.39,291.23 772.61,286.24 773.84,281.36 775.07,276.63 776.29,272.09 777.52,267.91 778.75,264.36 779.97,261.40 781.20,259.18 782.43,258.57 783.65,258.15 784.88,258.67 786.11,260.34 787.33,262.97 788.56,265.49 789.79,269.47 791.01,274.51 792.24,278.12 793.47,281.13 794.69,283.87 795.92,287.90 797.15,291.46 798.37,294.18 799.60,295.99 800.83,363.18 802.05,386.09 803.28,392.12 804.51,395.21 805.73,397.48 806.96,399.03 808.19,399.16 809.41,398.70 810.64,398.06 811.87,397.30 813.09,395.88 814.32,393.40 815.55,390.13 816.77,386.14 818.00,386.93" fill="none" stroke="#1b6ca8" stroke-width="3"/>
<polyline points="82.00,488.00 83.23,488.00 84.45,488.00 85.68,488.00 86.91,488.00 88.13,488.00 89.36,488.00 90.59,488.00 91.81,488.00 93.04,488.00 94.27,488.00 95.49,488.00 96.72,488.00 97.95,488.00 99.17,488.00 100.40,488.00 101.63,488.00 102.85,488.00 104.08,488.00 105.31,488.00 106.53,488.00 107.76,488.00 108.99,488.00 110.21,488.00 111.44,488.00 112.67,488.00 113.89,488.00 115.12,488.00 116.35,488.00 117.57,488.00 118.80,488.00 120.03,488.00 121.25,488.00 122.48,488.00 123.71,488.00 124.93,488.00 126.16,488.00 127.39,488.00 128.61,488.00 129.84,488.00 131.07,488.00 132.29,488.00 133.52,488.00 134.75,488.00 135.97,488.00 137.20,488.00 138.43,488.00 139.65,488.00 140.88,488.00 142.11,488.00 143.33,488.00 144.56,488.00 145.79,488.00 147.01,488.00 148.24,488.00 149.47,488.00 150.69,488.00 151.92,488.00 153.15,488.00 154.37,488.00 155.60,488.00 156.83,488.00 158.05,488.00 159.28,488.00 160.51,488.00 161.73,488.00 162.96,488.00 164.19,488.00 165.41,488.00 166.64,488.00 167.87,488.00 169.09,488.00 170.32,488.00 171.55,488.00 172.77,488.00 174.00,488.00 175.23,488.00 176.45,488.00 177.68,488.00 178.91,488.00 180.13,488.00 181.36,488.00 182.59,488.00 183.81,488.00 185.04,488.00 186.27,488.00 187.49,488.00 188.72,488.00 189.95,488.00 191.17,488.00 192.40,488.00 193.63,488.00 194.85,488.00 196.08,488.00 197.31,488.00 198.53,488.00 199.76,488.00 200.99,488.00 202.21,488.00 203.44,488.00 204.67,488.00 205.89,488.00 207.12,488.00 208.35,488.00 209.57,488.00 210.80,488.00 212.03,488.00 213.25,488.00 214.48,488.00 215.71,488.00 216.93,488.00 218.16,488.00 219.39,488.00 220.61,488.00 221.84,488.00 223.07,488.00 224.29,488.00 225.52,488.00 226.75,488.00 227.97,488.00 229.20,488.00 230.43,488.00 231.65,488.00 232.88,488.00 234.11,488.00 235.33,488.00 236.56,488.00 237.79,488.00 239.01,488.00 240.24,488.00 241.47,488.00 242.69,488.00 243.92,488.00 245.15,488.00 246.37,488.00 247.60,488.00 248.83,488.00 250.05,488.00 251.28,488.00 252.51,488.00 253.73,488.00 254.96,488.00 256.19,488.00 257.41,488.00 258.64,488.00 259.87,488.00 261.09,488.00 262.32,488.00 263.55,488.00 264.77,488.00 266.00,488.00 267.23,488.00 268.45,488.00 269.68,488.00 270.91,488.00 272.13,488.00 273.36,488.00 274.59,488.00 275.81,488.00 277.04,488.00 278.27,488.00 279.49,488.00 280.72,488.00 281.95,488.00 283.17,488.00 284.40,488.00 285.63,488.00 286.85,488.00 288.08,488.00 289.31,488.00 290.53,488.00 291.76,488.00 292.99,488.00 294.21,488.00 295.44,488.00 296.67,488.00 297.89,488.00 299.12,488.00 300.35,488.00 301.57,488.00 302.80,488.00 304.03,488.00 305.25,488.00 306.48,488.00 307.71,488.00 308.93,488.00 310.16,488.00 311.39,488.00 312.61,488.00 313.84,488.00 315.07,488.00 316.29,488.00 317.52,488.00 318.75,488.00 319.97,488.00 321.20,488.00 322.43,488.00 323.65,488.00 324.88,488.00 326.11,488.00 327.33,488.00 328.56,486.74 329.79,483.65 331.01,479.68 332.24,475.17 333.47,470.25 334.69,465.02 335.92,460.50 337.15,455.17 338.37,449.61 339.60,443.88 340.83,438.00 342.05,431.98 343.28,425.84 344.51,421.03 345.73,463.84 346.96,480.10 348.19,477.41 349.41,473.30 350.64,467.72 351.87,460.40 353.09,452.19 354.32,443.37 355.55,434.09 356.77,424.43 358.00,414.44 359.23,404.17 360.45,437.91 361.68,441.27 362.91,436.66 364.13,430.98 365.36,424.97 366.59,471.02 367.81,480.47 369.04,479.42 370.27,477.60 371.49,475.67 372.72,473.18 373.95,469.99 375.17,466.38 376.40,462.46 377.63,458.30 378.85,453.94 380.08,449.02 381.31,442.48 382.53,435.15 383.76,427.40 384.99,418.70 386.21,409.53 387.44,410.52 388.67,437.53 389.89,457.57 391.12,457.00 392.35,453.15 393.57,448.96 394.80,445.36 396.03,442.03 397.25,452.07 398.48,448.08 399.71,442.69 400.93,439.28 402.16,435.71 403.39,430.68 404.61,424.59 405.84,417.80 407.07,425.17 408.29,414.14 409.52,405.90 410.75,397.32 411.97,388.24 413.20,383.73 414.43,407.78 415.65,397.06 416.88,388.23 418.11,379.69 419.33,371.02 420.56,362.22 421.79,353.28 423.01,344.20 424.24,334.95 425.47,325.56 426.69,316.05 427.92,309.04 429.15,461.36 430.37,459.72 431.60,460.98 432.83,460.02 434.05,459.14 435.28,458.37 436.51,457.73 437.73,457.18 438.96,456.79 440.19,456.47 441.41,456.13 442.64,455.78 443.87,455.42 445.09,455.07 446.32,454.21 447.55,452.02 448.77,449.26 450.00,446.06 451.23,441.69 452.45,435.34 453.68,428.43 454.91,421.22 456.13,414.00 457.36,406.45 458.59,398.73 459.81,390.75 461.04,381.97 462.27,372.56 463.49,362.70 464.72,352.49 465.95,341.76 467.17,330.52 468.40,320.04 469.63,307.86 470.85,299.45 472.08,287.12 473.31,276.87 474.53,276.46 475.76,343.90 476.99,380.47 478.21,377.48 479.44,374.44 480.67,370.57 481.89,365.71 483.12,360.85 484.35,356.22 485.57,351.73 486.80,347.41 488.03,343.16 489.25,339.01 490.48,334.92 491.71,330.83 492.93,326.70 494.16,322.49 495.39,318.24 496.61,313.99 497.84,309.36 499.07,305.05 500.29,300.10 501.52,294.65 502.75,289.29 503.97,283.35 505.20,277.01 506.43,270.35 507.65,264.13 508.88,307.13 510.11,306.68 511.33,332.24 512.56,342.21 513.79,349.47 515.01,364.48 516.24,379.44 517.47,389.16 518.69,393.34 519.92,394.23 521.15,393.43 522.37,391.98 523.60,389.92 524.83,387.46 526.05,384.33 527.28,380.67 528.51,376.64 529.73,372.18 530.96,367.52 532.19,362.09 533.41,355.63 534.64,348.34 535.87,340.19 537.09,331.50 538.32,322.47 539.55,313.26 540.77,304.06 542.00,294.73 543.23,285.32 544.45,275.86 545.68,266.36 546.91,279.20 548.13,331.02 549.36,324.93 550.59,316.02 551.81,306.46 553.04,296.37 554.27,285.77 555.49,319.58 556.72,319.90 557.95,313.49 559.17,303.43 560.40,291.01 561.63,276.96 562.85,262.11 564.08,246.83 565.31,231.21 566.53,215.26 567.76,199.01 568.99,238.02 570.21,235.65 571.44,227.39 572.67,247.31 573.89,253.06 575.12,250.06 576.35,243.61 577.57,234.78 578.80,296.31 580.03,304.77 581.25,302.41 582.48,296.53 583.71,288.39 584.93,278.04 586.16,265.57 587.39,251.37 588.61,235.70 589.84,219.13 591.07,201.74 592.29,197.86 593.52,181.85 594.75,164.01 595.97,210.46 597.20,193.81 598.43,272.88 599.65,263.18 600.88,259.78 602.11,254.25 603.33,246.83 604.56,237.57 605.79,226.71 607.01,214.42 608.24,200.67 609.47,274.11 610.69,273.47 611.92,321.13 613.15,314.41 614.37,305.38 615.60,294.02 616.83,281.07 618.05,266.93 619.28,251.74 620.51,276.95 621.73,254.15 622.96,280.54 624.19,249.80 625.41,231.53 626.64,213.09 627.87,194.23 629.09,175.05 630.32,220.12 631.55,240.49 632.77,274.22 634.00,260.05 635.23,322.35 636.45,307.07 637.68,296.11 638.91,283.70 640.13,270.58 641.36,257.02 642.59,242.89 643.81,227.69 645.04,211.67 646.27,194.81 647.49,246.45 648.72,227.94 649.95,211.82 651.17,195.06 652.40,177.66 653.63,159.46 654.85,146.04 656.08,126.10 657.31,203.23 658.53,185.11 659.76,176.71 660.99,166.72 662.21,242.82 663.44,315.90 664.67,307.78 665.89,306.84 667.12,306.12 668.35,316.25 669.57,314.39 670.80,306.04 672.03,295.79 673.25,284.87 674.48,273.43 675.71,261.72 676.93,249.67 678.16,237.03 679.39,223.89 680.61,210.39 681.84,196.47 683.07,181.83 684.29,166.86 685.52,151.35 686.75,135.31 687.97,118.48 689.20,101.35 690.43,83.79 691.65,116.14 692.88,100.28 694.11,83.41 695.33,66.39 696.56,108.80 697.79,92.97 699.01,81.26 700.24,92.20 701.47,85.20 702.69,72.38 703.92,58.91 705.15,54.57 706.37,97.76 707.60,128.31 708.83,164.16 710.05,168.92 711.28,163.81 712.51,157.35 713.73,150.03 714.96,141.63 716.19,132.46 717.41,124.98 718.64,114.52 719.87,103.82 721.09,181.09 722.32,265.79 723.55,288.23 724.77,304.28 726.00,317.56 727.23,327.34 728.45,331.66 729.68,331.23 730.91,327.44 732.13,320.94 733.36,312.36 734.59,301.79 735.81,289.61 737.04,276.06 738.27,261.29 739.49,245.69 740.72,251.90 741.95,330.99 743.17,335.51 744.40,370.14 745.63,373.12 746.85,381.69 748.08,382.81 749.31,380.72 750.53,376.75 751.76,372.19 752.99,367.55 754.21,362.66 755.44,357.64 756.67,352.54 757.89,345.83 759.12,344.69 760.35,341.92 761.57,337.88 762.80,332.83 764.03,327.66 765.25,322.47 766.48,317.19 767.71,311.97 768.93,306.90 770.16,301.84 771.39,296.65 772.61,291.56 773.84,286.58 775.07,281.74 776.29,277.10 777.52,272.80 778.75,269.09 779.97,265.97 781.20,265.69 782.43,262.76 783.65,262.35 784.88,262.98 786.11,264.50 787.33,266.48 788.56,268.78 789.79,272.61 791.01,277.08 792.24,279.51 793.47,282.42 794.69,285.40 795.92,288.80 797.15,292.75 798.37,296.20 799.60,299.05 800.83,381.81 802.05,391.98 803.28,398.53 804.51,402.39 805.73,405.20 806.96,406.75 808.19,407.10 809.41,407.04 810.64,406.71 811.87,406.16 813.09,405.18 814.32,403.11 815.55,400.05 816.77,396.35 818.00,392.47" fill="none" stroke="#d1495b" stroke-width="3"/>
<polyline points="82.00,488.00 83.23,488.00 83.23,488.00 84.45,488.00 84.45,488.00 85.68,488.00 85.68,488.00 86.91,488.00 86.91,488.00 88.13,488.00 88.13,488.00 89.36,488.00 89.36,488.00 90.59,488.00 90.59,488.00 91.81,488.00 91.81,488.00 93.04,488.00 93.04,488.00 94.27,488.00 94.27,488.00 95.49,488.00 95.49,488.00 96.72,488.00 96.72,488.00 97.95,488.00 97.95,488.00 99.17,488.00 99.17,488.00 100.40,488.00 100.40,488.00 101.63,488.00 101.63,488.00 102.85,488.00 102.85,488.00 104.08,488.00 104.08,488.00 105.31,488.00 105.31,488.00 106.53,488.00 106.53,488.00 107.76,488.00 107.76,488.00 108.99,488.00 108.99,488.00 110.21,488.00 110.21,488.00 111.44,488.00 111.44,488.00 112.67,488.00 112.67,488.00 113.89,488.00 113.89,488.00 115.12,488.00 115.12,488.00 116.35,488.00 116.35,488.00 117.57,488.00 117.57,488.00 118.80,488.00 118.80,488.00 120.03,488.00 120.03,488.00 121.25,488.00 121.25,488.00 122.48,488.00 122.48,488.00 123.71,488.00 123.71,488.00 124.93,488.00 124.93,488.00 126.16,488.00 126.16,488.00 127.39,488.00 127.39,488.00 128.61,488.00 128.61,488.00 129.84,488.00 129.84,488.00 131.07,488.00 131.07,488.00 132.29,488.00 132.29,488.00 133.52,488.00 133.52,488.00 134.75,488.00 134.75,488.00 135.97,488.00 135.97,488.00 137.20,488.00 137.20,488.00 138.43,488.00 138.43,488.00 139.65,488.00 139.65,488.00 140.88,488.00 140.88,488.00 142.11,488.00 142.11,488.00 143.33,488.00 143.33,488.00 144.56,488.00 144.56,488.00 145.79,488.00 145.79,488.00 147.01,488.00 147.01,488.00 148.24,488.00 148.24,488.00 149.47,488.00 149.47,488.00 150.69,488.00 150.69,488.00 151.92,488.00 151.92,488.00 153.15,488.00 153.15,488.00 154.37,488.00 154.37,488.00 155.60,488.00 155.60,488.00 156.83,488.00 156.83,488.00 158.05,488.00 158.05,488.00 159.28,488.00 159.28,488.00 160.51,488.00 160.51,488.00 161.73,488.00 161.73,488.00 162.96,488.00 162.96,488.00 164.19,488.00 164.19,488.00 165.41,488.00 165.41,488.00 166.64,488.00 166.64,488.00 167.87,488.00 167.87,488.00 169.09,488.00 169.09,488.00 170.32,488.00 170.32,488.00 171.55,488.00 171.55,488.00 172.77,488.00 172.77,488.00 174.00,488.00 174.00,488.00 175.23,488.00 175.23,488.00 176.45,488.00 176.45,488.00 177.68,488.00 177.68,488.00 178.91,488.00 178.91,488.00 180.13,488.00 180.13,488.00 181.36,488.00 181.36,488.00 182.59,488.00 182.59,488.00 183.81,488.00 183.81,488.00 185.04,488.00 185.04,488.00 186.27,488.00 186.27,488.00 187.49,488.00 187.49,488.00 188.72,488.00 188.72,488.00 189.95,488.00 189.95,488.00 191.17,488.00 191.17,488.00 192.40,488.00 192.40,488.00 193.63,488.00 193.63,488.00 194.85,488.00 194.85,488.00 196.08,488.00 196.08,488.00 197.31,488.00 197.31,488.00 198.53,488.00 198.53,488.00 199.76,488.00 199.76,488.00 200.99,488.00 200.99,488.00 202.21,488.00 202.21,488.00 203.44,488.00 203.44,488.00 204.67,488.00 204.67,488.00 205.89,488.00 205.89,488.00 207.12,488.00 207.12,488.00 208.35,488.00 208.35,488.00 209.57,488.00 209.57,488.00 210.80,488.00 210.80,488.00 212.03,488.00 212.03,488.00 213.25,488.00 213.25,488.00 214.48,488.00 214.48,488.00 215.71,488.00 215.71,488.00 216.93,488.00 216.93,488.00 218.16,488.00 218.16,488.00 219.39,488.00 219.39,488.00 220.61,488.00 220.61,488.00 221.84,488.00 221.84,488.00 223.07,488.00 223.07,488.00 224.29,488.00 224.29,488.00 225.52,488.00 225.52,488.00 226.75,488.00 226.75,488.00 227.97,488.00 227.97,488.00 229.20,488.00 229.20,488.00 230.43,488.00 230.43,488.00 231.65,488.00 231.65,488.00 232.88,488.00 232.88,488.00 234.11,488.00 234.11,488.00 235.33,488.00 235.33,488.00 236.56,488.00 236.56,488.00 237.79,488.00 237.79,488.00 239.01,488.00 239.01,488.00 240.24,488.00 240.24,488.00 241.47,488.00 241.47,488.00 242.69,488.00 242.69,488.00 243.92,488.00 243.92,488.00 245.15,488.00 245.15,488.00 246.37,488.00 246.37,488.00 247.60,488.00 247.60,488.00 248.83,488.00 248.83,488.00 250.05,488.00 250.05,488.00 251.28,488.00 251.28,488.00 252.51,488.00 252.51,488.00 253.73,488.00 253.73,488.00 254.96,488.00 254.96,488.00 256.19,488.00 256.19,488.00 257.41,488.00 257.41,488.00 258.64,488.00 258.64,488.00 259.87,488.00 259.87,488.00 261.09,488.00 261.09,488.00 262.32,488.00 262.32,488.00 263.55,488.00 263.55,488.00 264.77,488.00 264.77,488.00 266.00,488.00 266.00,488.00 267.23,488.00 267.23,488.00 268.45,488.00 268.45,488.00 269.68,488.00 269.68,488.00 270.91,488.00 270.91,488.00 272.13,488.00 272.13,488.00 273.36,488.00 273.36,488.00 274.59,488.00 274.59,488.00 275.81,488.00 275.81,488.00 277.04,488.00 277.04,488.00 278.27,488.00 278.27,488.00 279.49,488.00 279.49,488.00 280.72,488.00 280.72,488.00 281.95,488.00 281.95,488.00 283.17,488.00 283.17,488.00 284.40,488.00 284.40,488.00 285.63,488.00 285.63,488.00 286.85,488.00 286.85,488.00 288.08,488.00 288.08,488.00 289.31,488.00 289.31,488.00 290.53,488.00 290.53,488.00 291.76,488.00 291.76,488.00 292.99,488.00 292.99,488.00 294.21,488.00 294.21,488.00 295.44,488.00 295.44,488.00 296.67,488.00 296.67,488.00 297.89,488.00 297.89,488.00 299.12,488.00 299.12,488.00 300.35,488.00 300.35,488.00 301.57,488.00 301.57,488.00 302.80,488.00 302.80,488.00 304.03,488.00 304.03,488.00 305.25,488.00 305.25,488.00 306.48,488.00 306.48,488.00 307.71,488.00 307.71,488.00 308.93,488.00 308.93,488.00 310.16,488.00 310.16,488.00 311.39,488.00 311.39,488.00 312.61,488.00 312.61,488.00 313.84,488.00 313.84,488.00 315.07,488.00 315.07,488.00 316.29,488.00 316.29,488.00 317.52,488.00 317.52,488.00 318.75,488.00 318.75,488.00 319.97,488.00 319.97,488.00 321.20,488.00 321.20,488.00 322.43,488.00 322.43,488.00 323.65,488.00 323.65,488.00 324.88,488.00 324.88,488.00 326.11,488.00 326.11,488.00 327.33,488.00 327.33,488.00 328.56,488.00 328.56,488.00 329.79,488.00 329.79,488.00 331.01,488.00 331.01,488.00 332.24,488.00 332.24,488.00 333.47,488.00 333.47,488.00 334.69,488.00 334.69,488.00 335.92,488.00 335.92,487.12 337.15,487.12 337.15,487.12 338.37,487.12 338.37,487.12 339.60,487.12 339.60,487.12 340.83,487.12 340.83,487.12 342.05,487.12 342.05,487.12 343.28,487.12 343.28,487.12 344.51,487.12 344.51,486.25 345.73,486.25 345.73,477.48 346.96,477.48 346.96,477.48 348.19,477.48 348.19,477.48 349.41,477.48 349.41,477.48 350.64,477.48 350.64,477.48 351.87,477.48 351.87,477.48 353.09,477.48 353.09,477.48 354.32,477.48 354.32,477.48 355.55,477.48 355.55,477.48 356.77,477.48 356.77,477.48 358.00,477.48 358.00,477.48 359.23,477.48 359.23,477.48 360.45,477.48 360.45,468.71 361.68,468.71 361.68,468.71 362.91,468.71 362.91,468.71 364.13,468.71 364.13,468.71 365.36,468.71 365.36,466.96 366.59,466.96 366.59,458.19 367.81,458.19 367.81,458.19 369.04,458.19 369.04,458.19 370.27,458.19 370.27,458.19 371.49,458.19 371.49,458.19 372.72,458.19 372.72,458.19 373.95,458.19 373.95,458.19 375.17,458.19 375.17,458.19 376.40,458.19 376.40,458.19 377.63,458.19 377.63,458.19 378.85,458.19 378.85,458.19 380.08,458.19 380.08,458.19 381.31,458.19 381.31,458.19 382.53,458.19 382.53,457.32 383.76,457.32 383.76,457.32 384.99,457.32 384.99,457.32 386.21,457.32 386.21,457.32 387.44,457.32 387.44,457.32 388.67,457.32 388.67,451.18 389.89,451.18 389.89,440.66 391.12,440.66 391.12,440.66 392.35,440.66 392.35,440.66 393.57,440.66 393.57,440.66 394.80,440.66 394.80,440.66 396.03,440.66 396.03,440.66 397.25,440.66 397.25,440.66 398.48,440.66 398.48,440.66 399.71,440.66 399.71,440.66 400.93,440.66 400.93,440.66 402.16,440.66 402.16,440.66 403.39,440.66 403.39,440.66 404.61,440.66 404.61,440.66 405.84,440.66 405.84,440.66 407.07,440.66 407.07,440.66 408.29,440.66 408.29,440.66 409.52,440.66 409.52,440.66 410.75,440.66 410.75,440.66 411.97,440.66 411.97,440.66 413.20,440.66 413.20,439.78 414.43,439.78 414.43,433.64 415.65,433.64 415.65,433.64 416.88,433.64 416.88,433.64 418.11,433.64 418.11,433.64 419.33,433.64 419.33,433.64 420.56,433.64 420.56,433.64 421.79,433.64 421.79,433.64 423.01,433.64 423.01,433.64 424.24,433.64 424.24,433.64 425.47,433.64 425.47,433.64 426.69,433.64 426.69,433.64 427.92,433.64 427.92,432.77 429.15,432.77 429.15,409.97 430.37,409.97 430.37,409.97 431.60,409.97 431.60,409.10 432.83,409.10 432.83,409.10 434.05,409.10 434.05,409.10 435.28,409.10 435.28,409.10 436.51,409.10 436.51,409.10 437.73,409.10 437.73,409.10 438.96,409.10 438.96,409.10 440.19,409.10 440.19,409.10 441.41,409.10 441.41,409.10 442.64,409.10 442.64,409.10 443.87,409.10 443.87,409.10 445.09,409.10 445.09,409.10 446.32,409.10 446.32,409.10 447.55,409.10 447.55,409.10 448.77,409.10 448.77,409.10 450.00,409.10 450.00,409.10 451.23,409.10 451.23,409.10 452.45,409.10 452.45,409.10 453.68,409.10 453.68,409.10 454.91,409.10 454.91,409.10 456.13,409.10 456.13,409.10 457.36,409.10 457.36,409.10 458.59,409.10 458.59,409.10 459.81,409.10 459.81,409.10 461.04,409.10 461.04,409.10 462.27,409.10 462.27,409.10 463.49,409.10 463.49,409.10 464.72,409.10 464.72,409.10 465.95,409.10 465.95,409.10 467.17,409.10 467.17,409.10 468.40,409.10 468.40,408.22 469.63,408.22 469.63,408.22 470.85,408.22 470.85,407.34 472.08,407.34 472.08,407.34 473.31,407.34 473.31,402.08 474.53,402.08 474.53,402.08 475.76,402.08 475.76,393.32 476.99,393.32 476.99,387.18 478.21,387.18 478.21,387.18 479.44,387.18 479.44,387.18 480.67,387.18 480.67,387.18 481.89,387.18 481.89,387.18 483.12,387.18 483.12,387.18 484.35,387.18 484.35,387.18 485.57,387.18 485.57,387.18 486.80,387.18 486.80,387.18 488.03,387.18 488.03,387.18 489.25,387.18 489.25,387.18 490.48,387.18 490.48,387.18 491.71,387.18 491.71,387.18 492.93,387.18 492.93,387.18 494.16,387.18 494.16,387.18 495.39,387.18 495.39,387.18 496.61,387.18 496.61,387.18 497.84,387.18 497.84,387.18 499.07,387.18 499.07,387.18 500.29,387.18 500.29,387.18 501.52,387.18 501.52,387.18 502.75,387.18 502.75,387.18 503.97,387.18 503.97,387.18 505.20,387.18 505.20,387.18 506.43,387.18 506.43,387.18 507.65,387.18 507.65,375.78 508.88,375.78 508.88,375.78 510.11,375.78 510.11,375.78 511.33,375.78 511.33,370.52 512.56,370.52 512.56,370.52 513.79,370.52 513.79,370.52 515.01,370.52 515.01,370.52 516.24,370.52 516.24,370.52 517.47,370.52 517.47,370.52 518.69,370.52 518.69,370.52 519.92,370.52 519.92,370.52 521.15,370.52 521.15,370.52 522.37,370.52 522.37,370.52 523.60,370.52 523.60,370.52 524.83,370.52 524.83,370.52 526.05,370.52 526.05,370.52 527.28,370.52 527.28,370.52 528.51,370.52 528.51,370.52 529.73,370.52 529.73,370.52 530.96,370.52 530.96,370.52 532.19,370.52 532.19,370.52 533.41,370.52 533.41,370.52 534.64,370.52 534.64,370.52 535.87,370.52 535.87,370.52 537.09,370.52 537.09,370.52 538.32,370.52 538.32,370.52 539.55,370.52 539.55,370.52 540.77,370.52 540.77,370.52 542.00,370.52 542.00,370.52 543.23,370.52 543.23,370.52 544.45,370.52 544.45,370.52 545.68,370.52 545.68,370.52 546.91,370.52 546.91,356.49 548.13,356.49 548.13,356.49 549.36,356.49 549.36,356.49 550.59,356.49 550.59,356.49 551.81,356.49 551.81,356.49 553.04,356.49 553.04,356.49 554.27,356.49 554.27,356.49 555.49,356.49 555.49,344.22 556.72,344.22 556.72,344.22 557.95,344.22 557.95,344.22 559.17,344.22 559.17,344.22 560.40,344.22 560.40,344.22 561.63,344.22 561.63,344.22 562.85,344.22 562.85,344.22 564.08,344.22 564.08,344.22 565.31,344.22 565.31,344.22 566.53,344.22 566.53,344.22 567.76,344.22 567.76,344.22 568.99,344.22 568.99,331.07 570.21,331.07 570.21,331.07 571.44,331.07 571.44,331.07 572.67,331.07 572.67,322.30 573.89,322.30 573.89,322.30 575.12,322.30 575.12,322.30 576.35,322.30 576.35,322.30 577.57,322.30 577.57,322.30 578.80,322.30 578.80,308.27 580.03,308.27 580.03,308.27 581.25,308.27 581.25,308.27 582.48,308.27 582.48,308.27 583.71,308.27 583.71,308.27 584.93,308.27 584.93,308.27 586.16,308.27 586.16,308.27 587.39,308.27 587.39,308.27 588.61,308.27 588.61,308.27 589.84,308.27 589.84,308.27 591.07,308.27 591.07,308.27 592.29,308.27 592.29,302.14 593.52,302.14 593.52,301.26 594.75,301.26 594.75,301.26 595.97,301.26 595.97,293.37 597.20,293.37 597.20,293.37 598.43,293.37 598.43,278.47 599.65,278.47 599.65,277.59 600.88,277.59 600.88,277.59 602.11,277.59 602.11,277.59 603.33,277.59 603.33,277.59 604.56,277.59 604.56,277.59 605.79,277.59 605.79,277.59 607.01,277.59 607.01,277.59 608.24,277.59 608.24,277.59 609.47,277.59 609.47,263.56 610.69,263.56 610.69,263.56 611.92,263.56 611.92,256.55 613.15,256.55 613.15,256.55 614.37,256.55 614.37,256.55 615.60,256.55 615.60,256.55 616.83,256.55 616.83,256.55 618.05,256.55 618.05,256.55 619.28,256.55 619.28,256.55 620.51,256.55 620.51,246.90 621.73,246.90 621.73,246.90 622.96,246.90 622.96,237.26 624.19,237.26 624.19,237.26 625.41,237.26 625.41,237.26 626.64,237.26 626.64,237.26 627.87,237.26 627.87,237.26 629.09,237.26 629.09,237.26 630.32,237.26 630.32,223.23 631.55,223.23 631.55,223.23 632.77,223.23 632.77,213.59 634.00,213.59 634.00,213.59 635.23,213.59 635.23,203.07 636.45,203.07 636.45,203.07 637.68,203.07 637.68,203.07 638.91,203.07 638.91,203.07 640.13,203.07 640.13,203.07 641.36,203.07 641.36,203.07 642.59,203.07 642.59,203.07 643.81,203.07 643.81,203.07 645.04,203.07 645.04,203.07 646.27,203.07 646.27,203.07 647.49,203.07 647.49,193.42 648.72,193.42 648.72,193.42 649.95,193.42 649.95,193.42 651.17,193.42 651.17,193.42 652.40,193.42 652.40,193.42 653.63,193.42 653.63,193.42 654.85,193.42 654.85,190.79 656.08,190.79 656.08,190.79 657.31,190.79 657.31,166.25 658.53,166.25 658.53,166.25 659.76,166.25 659.76,166.25 660.99,166.25 660.99,165.37 662.21,165.37 662.21,153.97 663.44,153.97 663.44,139.95 664.67,139.95 664.67,139.95 665.89,139.95 665.89,139.07 667.12,139.07 667.12,139.07 668.35,139.07 668.35,139.07 669.57,139.07 669.57,139.07 670.80,139.07 670.80,139.07 672.03,139.07 672.03,139.07 673.25,139.07 673.25,139.07 674.48,139.07 674.48,139.07 675.71,139.07 675.71,139.07 676.93,139.07 676.93,139.07 678.16,139.07 678.16,139.07 679.39,139.07 679.39,139.07 680.61,139.07 680.61,139.07 681.84,139.07 681.84,139.07 683.07,139.07 683.07,139.07 684.29,139.07 684.29,139.07 685.52,139.07 685.52,139.07 686.75,139.07 686.75,139.07 687.97,139.07 687.97,139.07 689.20,139.07 689.20,139.07 690.43,139.07 690.43,139.07 691.65,139.07 691.65,125.04 692.88,125.04 692.88,125.04 694.11,125.04 694.11,125.04 695.33,125.04 695.33,125.04 696.56,125.04 696.56,113.64 697.79,113.64 697.79,113.64 699.01,113.64 699.01,113.64 700.24,113.64 700.24,107.51 701.47,107.51 701.47,107.51 702.69,107.51 702.69,107.51 703.92,107.51 703.92,107.51 705.15,107.51 705.15,97.86 706.37,97.86 706.37,97.86 707.60,97.86 707.60,97.86 708.83,97.86 708.83,97.86 710.05,97.86 710.05,97.86 711.28,97.86 711.28,97.86 712.51,97.86 712.51,97.86 713.73,97.86 713.73,97.86 714.96,97.86 714.96,97.86 716.19,97.86 716.19,97.86 717.41,97.86 717.41,96.11 718.64,96.11 718.64,96.11 719.87,96.11 719.87,96.11 721.09,96.11 721.09,80.33 722.32,80.33 722.32,80.33 723.55,80.33 723.55,80.33 724.77,80.33 724.77,80.33 726.00,80.33 726.00,80.33 727.23,80.33 727.23,80.33 728.45,80.33 728.45,80.33 729.68,80.33 729.68,80.33 730.91,80.33 730.91,80.33 732.13,80.33 732.13,80.33 733.36,80.33 733.36,80.33 734.59,80.33 734.59,80.33 735.81,80.33 735.81,80.33 737.04,80.33 737.04,80.33 738.27,80.33 738.27,80.33 739.49,80.33 739.49,80.33 740.72,80.33 740.72,61.92 741.95,61.92 741.95,61.92 743.17,61.92 743.17,61.04 744.40,61.04 744.40,54.90 745.63,54.90 745.63,54.90 746.85,54.90 746.85,54.03 748.08,54.03 748.08,54.03 749.31,54.03 749.31,54.03 750.53,54.03 750.53,54.03 751.76,54.03 751.76,54.03 752.99,54.03 752.99,54.03 754.21,54.03 754.21,54.03 755.44,54.03 755.44,54.03 756.67,54.03 756.67,54.03 757.89,54.03 757.89,53.15 759.12,53.15 759.12,53.15 760.35,53.15 760.35,53.15 761.57,53.15 761.57,53.15 762.80,53.15 762.80,53.15 764.03,53.15 764.03,53.15 765.25,53.15 765.25,53.15 766.48,53.15 766.48,53.15 767.71,53.15 767.71,53.15 768.93,53.15 768.93,53.15 770.16,53.15 770.16,53.15 771.39,53.15 771.39,53.15 772.61,53.15 772.61,53.15 773.84,53.15 773.84,53.15 775.07,53.15 775.07,53.15 776.29,53.15 776.29,53.15 777.52,53.15 777.52,53.15 778.75,53.15 778.75,53.15 779.97,53.15 779.97,53.15 781.20,53.15 781.20,53.15 782.43,53.15 782.43,53.15 783.65,53.15 783.65,53.15 784.88,53.15 784.88,53.15 786.11,53.15 786.11,53.15 787.33,53.15 787.33,53.15 788.56,53.15 788.56,53.15 789.79,53.15 789.79,53.15 791.01,53.15 791.01,53.15 792.24,53.15 792.24,53.15 793.47,53.15 793.47,53.15 794.69,53.15 794.69,53.15 795.92,53.15 795.92,53.15 797.15,53.15 797.15,53.15 798.37,53.15 798.37,53.15 799.60,53.15 799.60,53.15 800.83,53.15 800.83,40.00 802.05,40.00 802.05,40.00 803.28,40.00 803.28,40.00 804.51,40.00 804.51,40.00 805.73,40.00 805.73,40.00 806.96,40.00 806.96,40.00 808.19,40.00 808.19,40.00 809.41,40.00 809.41,40.00 810.64,40.00 810.64,40.00 811.87,40.00 811.87,40.00 813.09,40.00 813.09,40.00 814.32,40.00 814.32,40.00 815.55,40.00 815.55,40.00 816.77,40.00 816.77,40.00 818.00,40.00 818.00,40.00" fill="none" stroke="#4b8f29" stroke-width="3"/>
<text x="450.0" y="552" text-anchor="middle" font-size="20" font-family="Arial, sans-serif" fill="#111827">Top displacement (mm)</text>
<text x="24" y="280.0" text-anchor="middle" transform="rotate(-90 24 280.0)" font-size="20" font-family="Arial, sans-serif" fill="#111827">Force magnitude (N)</text>
<text x="880" y="280.0" text-anchor="middle" transform="rotate(90 880 280.0)" font-size="20" font-family="Arial, sans-serif" fill="#111827">Broken bonds</text>
<text x="102" y="64" font-size="18" font-family="Arial, sans-serif" fill="#1b6ca8">Top plate</text>
<text x="212" y="64" font-size="18" font-family="Arial, sans-serif" fill="#d1495b">Bottom plate</text>
<text x="352" y="64" font-size="18" font-family="Arial, sans-serif" fill="#4b8f29">Broken bonds</text>
<text x="72" y="45" text-anchor="end" font-size="17" fill="#30363d">24.36</text>
<text x="72" y="488" text-anchor="end" font-size="17" fill="#30363d">0</text>
<text x="828" y="45" text-anchor="start" font-size="17" fill="#30363d">511</text>
<text x="828" y="488" text-anchor="start" font-size="17" fill="#30363d">0</text>
</svg>
