<svg xmlns="http://www.w3.org/2000/svg" width="900" height="560" viewBox="0 0 900 560">
<rect width="100%" height="100%" fill="white"/>
<text x="450.0" y="26" text-anchor="middle" font-size="22" font-family="Arial, sans-serif" fill="#111827">SP-002 force-displacement and bond breakage</text>
<line x1="82" y1="40.00" x2="818" y2="40.00" stroke="#d9dee2" stroke-width="1"/><line x1="82" y1="129.60" x2="818" y2="129.60" stroke="#d9dee2" stroke-width="1"/><line x1="82" y1="219.20" x2="818" y2="219.20" stroke="#d9dee2" stroke-width="1"/><line x1="82" y1="308.80" x2="818" y2="308.80" stroke="#d9dee2" stroke-width="1"/><line x1="82" y1="398.40" x2="818" y2="398.40" stroke="#d9dee2" stroke-width="1"/><line x1="82" y1="488.00" x2="818" y2="488.00" stroke="#d9dee2" stroke-width="1"/><line x1="82.00" y1="40" x2="82.00" y2="488" stroke="#edf0f2" stroke-width="1"/><text x="82.00" y="526" text-anchor="middle" font-size="18" fill="#30363d">0.000</text><line x1="229.20" y1="40" x2="229.20" y2="488" stroke="#edf0f2" stroke-width="1"/><text x="229.20" y="526" text-anchor="middle" font-size="18" fill="#30363d">0.060</text><line x1="376.40" y1="40" x2="376.40" y2="488" stroke="#edf0f2" stroke-width="1"/><text x="376.40" y="526" text-anchor="middle" font-size="18" fill="#30363d">0.120</text><line x1="523.60" y1="40" x2="523.60" y2="488" stroke="#edf0f2" stroke-width="1"/><text x="523.60" y="526" text-anchor="middle" font-size="18" fill="#30363d">0.180</text><line x1="670.80" y1="40" x2="670.80" y2="488" stroke="#edf0f2" stroke-width="1"/><text x="670.80" y="526" text-anchor="middle" font-size="18" fill="#30363d">0.240</text><line x1="818.00" y1="40" x2="818.00" y2="488" stroke="#edf0f2" stroke-width="1"/><text x="818.00" y="526" text-anchor="middle" font-size="18" fill="#30363d">0.300</text>
<line x1="82" y1="40" x2="82" y2="488" stroke="#111827" stroke-width="1.5"/>
<line x1="82" y1="488" x2="818" y2="488" stroke="#111827" stroke-width="1.5"/>
<line x1="818" y1="40" x2="818" y2="488" stroke="#111827" stroke-width="1.5"/>
<polyline points="82.00,488.00 83.23,488.00 84.45,488.00 85.68,488.00 86.91,488.00 88.13,488.00 89.36,488.00 90.59,488.00 91.81,488.00 93.04,488.00 94.27,488.00 95.49,488.00 96.72,488.00 97.95,488.00 99.17,488.00 100.40,488.00 101.63,488.00 102.85,488.00 104.08,488.00 105.31,488.00 106.53,488.00 107.76,488.00 108.99,488.00 110.21,488.00 111.44,488.00 112.67,488.00 113.89,488.00 115.12,488.00 116.35,488.00 117.57,488.00 118.80,488.00 120.03,488.00 121.25,488.00 122.48,488.00 123.71,488.00 124.93,488.00 126.16,488.00 127.39,488.00 128.61,488.00 129.84,488.00 131.07,488.00 132.29,488.00 133.52,488.00 134.75,488.00 135.97,488.00 137.20,488.00 138.43,488.00 139.65,488.00 140.88,488.00 142.11,488.00 143.33,488.00 144.56,488.00 145.79,488.00 147.01,488.00 148.24,488.00 149.47,488.00 150.69,488.00 151.92,488.00 153.15,488.00 154.37,488.00 155.60,488.00 156.83,488.00 158.05,488.00 159.28,488.00 160.51,488.00 161.73,488.00 162.96,488.00 164.19,488.00 165.41,488.00 166.64,488.00 167.87,488.00 169.09,488.00 170.32,488.00 171.55,488.00 172.77,488.00 174.00,488.00 175.23,488.00 176.45,488.00 177.68,488.00 178.91,488.00 180.13,488.00 181.36,488.00 182.59,488.00 183.81,488.00 185.04,488.00 186.27,488.00 187.49,488.00 188.72,488.00 189.95,488.00 191.17,488.00 192.40,488.00 193.63,488.00 194.85,488.00 196.08,488.00 197.31,488.00 198.53,488.00 199.76,488.00 200.99,488.00 202.21,488.00 203.44,488.00 204.67,488.00 205.89,488.00 207.12,488.00 208.35,488.00 209.57,488.00 210.80,488.00 212.03,488.00 213.25,488.00 214.48,488.00 215.71,488.00 216.93,488.00 218.16,488.00 219.39,488.00 220.61,488.00 221.84,488.00 223.07,488.00 224.29,488.00 225.52,488.00 226.75,488.00 227.97,488.00 229.20,488.00 230.43,488.00 231.65,488.00 232.88,488.00 234.11,488.00 235.33,488.00 236.56,488.00 237.79,488.00 239.01,488.00 240.24,488.00 241.47,488.00 242.69,488.00 243.92,488.00 245.15,488.00 246.37,488.00 247.60,488.00 248.83,488.00 250.05,488.00 251.28,488.00 252.51,488.00 253.73,488.00 254.96,488.00 256.19,488.00 257.41,488.00 258.64,488.00 259.87,488.00 261.09,488.00 262.32,488.00 263.55,488.00 264.77,488.00 266.00,488.00 267.23,488.00 268.45,488.00 269.68,488.00 270.91,488.00 272.13,488.00 273.36,488.00 274.59,488.00 275.81,488.00 277.04,488.00 278.27,488.00 279.49,488.00 280.72,488.00 281.95,488.00 283.17,488.00 284.40,488.00 285.63,488.00 286.85,488.00 288.08,488.00 289.31,488.00 290.53,488.00 291.76,488.00 292.99,488.00 294.21,488.00 295.44,488.00 296.67,488.00 297.89,488.00 299.12,488.00 300.35,488.00 301.57,488.00 302.80,488.00 304.03,488.00 305.25,488.00 306.48,488.00 307.71,488.00 308.93,488.00 310.16,488.00 311.39,488.00 312.61,488.00 313.84,488.00 315.07,488.00 316.29,488.00 317.52,488.00 318.75,488.00 319.97,488.00 321.20,488.00 322.43,488.00 323.65,488.00 324.88,488.00 326.11,488.00 327.33,487.99 328.56,484.11 329.79,477.96 331.01,470.67 332.24,462.58 333.47,453.84 334.69,444.58 335.92,434.87 337.15,425.76 338.37,434.25 339.60,456.39 340.83,464.76 342.05,468.42 343.28,468.42 344.51,465.59 345.73,461.70 346.96,457.44 348.19,452.87 349.41,448.09 350.64,443.09 351.87,437.51 353.09,431.34 354.32,424.51 355.55,417.17 356.77,409.45 358.00,401.43 359.23,393.18 360.45,384.73 361.68,376.11 362.91,367.35 364.13,358.46 365.36,349.45 366.59,340.35 367.81,356.01 369.04,381.38 370.27,386.12 371.49,384.33 372.72,380.07 373.95,374.96 375.17,369.64 376.40,364.08 377.63,358.36 378.85,352.54 380.08,346.64 381.31,340.69 382.53,334.70 383.76,328.68 384.99,322.64 386.21,316.59 387.44,457.72 388.67,411.49 389.89,394.51 391.12,384.85 392.35,377.23 393.57,370.28 394.80,363.37 396.03,356.28 397.25,348.97 398.48,341.42 399.71,333.65 400.93,325.68 402.16,317.52 403.39,309.08 404.61,300.25 405.84,291.12 407.07,281.77 408.29,272.24 409.52,262.55 410.75,252.73 411.97,242.80 413.20,232.77 414.43,222.66 415.65,212.48 416.88,202.25 418.11,288.32 419.33,312.94 420.56,312.41 421.79,305.72 423.01,297.43 424.24,329.79 425.47,381.49 426.69,397.88 427.92,402.86 429.15,403.40 430.37,402.11 431.60,400.08 432.83,397.77 434.05,395.40 435.28,393.07 436.51,390.84 437.73,388.74 438.96,386.76 440.19,384.92 441.41,383.21 442.64,381.65 443.87,380.24 445.09,378.98 446.32,377.86 447.55,376.90 448.77,376.13 450.00,375.49 451.23,375.00 452.45,374.56 453.68,373.92 454.91,372.92 456.13,370.45 457.36,366.09 458.59,360.33 459.81,353.50 461.04,345.78 462.27,337.27 463.49,328.10 464.72,318.20 465.95,307.32 467.17,295.80 468.40,283.89 469.63,271.74 470.85,431.14 472.08,376.22 473.31,360.18 474.53,351.28 475.76,342.93 476.99,333.86 478.21,324.00 479.44,313.55 480.67,302.89 481.89,292.03 483.12,280.89 484.35,421.26 485.57,395.93 486.80,382.40 488.03,371.75 489.25,361.48 490.48,350.97 491.71,340.22 492.93,329.35 494.16,318.29 495.39,306.55 496.61,293.04 497.84,279.08 499.07,265.93 500.29,253.05 501.52,239.96 502.75,226.64 503.97,213.09 505.20,199.35 506.43,185.43 507.65,171.27 508.88,156.80 510.11,142.11 511.33,127.24 512.56,121.74 513.79,151.35 515.01,127.14 516.24,109.41 517.47,91.75 518.69,74.28 519.92,57.17 521.15,40.00 522.37,290.13 523.60,331.19 524.83,328.57 526.05,319.83 527.28,309.38 528.51,297.80 529.73,285.80 530.96,273.48 532.19,260.88 533.41,248.02 534.64,234.96 535.87,221.70 537.09,208.24 538.32,194.59 539.55,180.50 540.77,166.05 542.00,151.34 543.23,136.38 544.45,156.83 545.68,203.85 546.91,209.74 548.13,207.97 549.36,203.39 550.59,197.51 551.81,191.00 553.04,272.27 554.27,309.22 555.49,337.72 556.72,358.51 557.95,372.43 559.17,379.33 560.40,382.66 561.63,383.35 562.85,381.69 564.08,376.91 565.31,369.88 566.53,369.42 567.76,362.45 568.99,362.97 570.21,376.36 571.44,369.69 572.67,364.46 573.89,359.49 575.12,354.60 576.35,351.83 577.57,357.28 578.80,357.61 580.03,353.84 581.25,354.19 582.48,350.20 583.71,345.07 584.93,339.48 586.16,333.54 587.39,327.23 588.61,320.03 589.84,311.00 591.07,300.78 592.29,289.74 593.52,278.40 594.75,269.28 595.97,258.82 597.20,247.79 598.43,236.34 599.65,224.58 600.88,212.58 602.11,200.39 603.33,188.02 604.56,235.27 605.79,255.40 607.01,258.22 608.24,254.44 609.47,250.12 610.69,345.02 611.92,373.13 613.15,379.39 614.37,378.71 615.60,375.36 616.83,370.36 618.05,363.97 619.28,356.36 620.51,347.88 621.73,339.76 622.96,330.41 624.19,320.05 625.41,309.06 626.64,300.56 627.87,301.87 629.09,323.14 630.32,337.85 631.55,332.88 632.77,329.42 634.00,326.98 635.23,327.00 636.45,324.67 637.68,321.11 638.91,378.53 640.13,403.16 641.36,411.80 642.59,416.07 643.81,417.95 645.04,418.38 646.27,417.74 647.49,416.28 648.72,414.16 649.95,411.47 651.17,408.27 652.40,404.46 653.63,399.92 654.85,394.43 656.08,388.75 657.31,383.01 658.53,377.24 659.76,371.46 660.99,365.68 662.21,359.87 663.44,353.98 664.67,346.83 665.89,338.45 667.12,328.88 668.35,418.34 669.57,409.50 670.80,407.83 672.03,407.21 673.25,406.27 674.48,405.21 675.71,405.03 676.93,405.99 678.16,407.63 679.39,409.72 680.61,412.11 681.84,414.50 683.07,416.89 684.29,419.20 685.52,421.80 686.75,424.34 687.97,426.75 689.20,428.97 690.43,431.15 691.65,432.91 692.88,433.51 694.11,433.79 695.33,433.80 696.56,433.78 697.79,433.71 699.01,433.61 700.24,431.42 701.47,427.68 702.69,424.35 703.92,421.28 705.15,418.11 706.37,414.70 707.60,410.99 708.83,406.96 710.05,402.62 711.28,397.96 712.51,392.98 713.73,387.68 714.96,382.17 716.19,376.47 717.41,370.56 718.64,364.51 719.87,358.36 721.09,352.12 722.32,345.69 723.55,338.98 724.77,331.95 726.00,324.85 727.23,317.53 728.45,308.75 729.68,299.00 730.91,288.65 732.13,277.83 733.36,266.64 734.59,255.11 735.81,243.32 737.04,231.26 738.27,218.98 739.49,206.50 740.72,312.21 741.95,316.50 743.17,327.57 744.40,331.93 745.63,334.05 746.85,334.87 748.08,335.07 749.31,334.62 750.53,333.55 751.76,332.16 752.99,330.47 754.21,328.50 755.44,326.30 756.67,323.83 757.89,319.95 759.12,315.17 760.35,309.83 761.57,303.74 762.80,297.15 764.03,290.31 765.25,283.33 766.48,276.31 767.71,269.31 768.93,262.37 770.16,255.55 771.39,248.90 772.61,242.48 773.84,236.33 775.07,230.51 776.29,225.05 777.52,220.00 778.75,214.23 779.97,208.22 781.20,199.99 782.43,190.62 783.65,180.19 784.88,167.75 786.11,153.76 787.33,138.46 788.56,122.15 789.79,104.96 791.01,154.04 792.24,140.70 793.47,123.39 794.69,105.15 795.92,86.81 797.15,258.14 798.37,291.97 799.60,329.56 800.83,339.38 802.05,341.88 803.28,340.59 804.51,337.72 805.73,334.45 806.96,331.08 808.19,327.69 809.41,324.27 810.64,320.83 811.87,317.37 813.09,313.88 814.32,310.36 815.55,306.79 816.77,303.08 818.00,298.90" fill="none" stroke="#1b6ca8" stroke-width="3"/>
<polyline points="82.00,488.00 83.23,488.00 84.45,488.00 85.68,488.00 86.91,488.00 88.13,488.00 89.36,488.00 90.59,488.00 91.81,488.00 93.04,488.00 94.27,488.00 95.49,488.00 96.72,488.00 97.95,488.00 99.17,488.00 100.40,488.00 101.63,488.00 102.85,488.00 104.08,488.00 105.31,488.00 106.53,488.00 107.76,488.00 108.99,488.00 110.21,488.00 111.44,488.00 112.67,488.00 113.89,488.00 115.12,488.00 116.35,488.00 117.57,488.00 118.80,488.00 120.03,488.00 121.25,488.00 122.48,488.00 123.71,488.00 124.93,488.00 126.16,488.00 127.39,488.00 128.61,488.00 129.84,488.00 131.07,488.00 132.29,488.00 133.52,488.00 134.75,488.00 135.97,488.00 137.20,488.00 138.43,488.00 139.65,488.00 140.88,488.00 142.11,488.00 143.33,488.00 144.56,488.00 145.79,488.00 147.01,488.00 148.24,488.00 149.47,488.00 150.69,488.00 151.92,488.00 153.15,488.00 154.37,488.00 155.60,488.00 156.83,488.00 158.05,488.00 159.28,488.00 160.51,488.00 161.73,488.00 162.96,488.00 164.19,488.00 165.41,488.00 166.64,488.00 167.87,488.00 169.09,488.00 170.32,488.00 171.55,488.00 172.77,488.00 174.00,488.00 175.23,488.00 176.45,488.00 177.68,488.00 178.91,488.00 180.13,488.00 181.36,488.00 182.59,488.00 183.81,488.00 185.04,488.00 186.27,488.00 187.49,488.00 188.72,488.00 189.95,488.00 191.17,488.00 192.40,488.00 193.63,488.00 194.85,488.00 196.08,488.00 197.31,488.00 198.53,488.00 199.76,488.00 200.99,488.00 202.21,488.00 203.44,488.00 204.67,488.00 205.89,488.00 207.12,488.00 208.35,488.00 209.57,488.00 210.80,488.00 212.03,488.00 213.25,488.00 214.48,488.00 215.71,488.00 216.93,488.00 218.16,488.00 219.39,488.00 220.61,488.00 221.84,488.00 223.07,488.00 224.29,488.00 225.52,488.00 226.75,488.00 227.97,488.00 229.20,488.00 230.43,488.00 231.65,488.00 232.88,488.00 234.11,488.00 235.33,488.00 236.56,488.00 237.79,488.00 239.01,488.00 240.24,488.00 241.47,488.00 242.69,488.00 243.92,488.00 245.15,488.00 246.37,488.00 247.60,488.00 248.83,488.00 250.05,488.00 251.28,488.00 252.51,488.00 253.73,488.00 254.96,488.00 256.19,488.00 257.41,488.00 258.64,488.00 259.87,488.00 261.09,488.00 262.32,488.00 263.55,488.00 264.77,488.00 266.00,488.00 267.23,488.00 268.45,488.00 269.68,488.00 270.91,488.00 272.13,488.00 273.36,488.00 274.59,488.00 275.81,488.00 277.04,488.00 278.27,488.00 279.49,488.00 280.72,488.00 281.95,488.00 283.17,488.00 284.40,488.00 285.63,488.00 286.85,488.00 288.08,488.00 289.31,488.00 290.53,488.00 291.76,488.00 292.99,488.00 294.21,488.00 295.44,488.00 296.67,488.00 297.89,488.00 299.12,488.00 300.35,488.00 301.57,488.00 302.80,488.00 304.03,488.00 305.25,488.00 306.48,488.00 307.71,488.00 308.93,488.00 310.16,488.00 311.39,488.00 312.61,488.00 313.84,488.00 315.07,488.00 316.29,488.00 317.52,488.00 318.75,488.00 319.97,488.00 321.20,488.00 322.43,488.00 323.65,488.00 324.88,488.00 326.11,488.00 327.33,488.00 328.56,486.19 329.79,481.19 331.01,474.55 332.24,466.90 333.47,458.51 334.69,449.53 335.92,440.05 337.15,438.61 338.37,474.70 339.60,487.62 340.83,487.77 342.05,486.64 343.28,481.67 344.51,476.15 345.73,471.52 346.96,467.08 348.19,462.39 349.41,457.63 350.64,452.50 351.87,446.59 353.09,440.05 354.32,432.92 355.55,425.44 356.77,417.67 358.00,409.67 359.23,401.45 360.45,393.05 361.68,384.50 362.91,375.80 364.13,366.97 365.36,358.03 366.59,349.00 367.81,470.80 369.04,433.41 370.27,414.53 371.49,404.67 372.72,397.44 373.95,391.18 375.17,385.41 376.40,379.64 377.63,373.80 378.85,367.91 380.08,361.96 381.31,355.99 382.53,349.98 383.76,343.97 384.99,337.94 386.21,331.90 387.44,363.71 388.67,397.76 389.89,401.53 391.12,397.68 392.35,392.16 393.57,386.03 394.80,379.49 396.03,372.60 397.25,365.40 398.48,357.93 399.71,350.21 400.93,342.28 402.16,334.14 403.39,325.32 404.61,316.24 405.84,306.95 407.07,297.49 408.29,287.88 409.52,278.13 410.75,268.26 411.97,258.29 413.20,248.24 414.43,238.11 415.65,227.91 416.88,217.67 418.11,378.43 419.33,349.47 420.56,335.52 421.79,325.49 423.01,316.39 424.24,461.16 425.47,447.61 426.69,440.03 427.92,434.63 429.15,430.72 430.37,427.54 431.60,424.75 432.83,422.19 434.05,419.81 435.28,417.59 436.51,415.51 437.73,413.59 438.96,411.80 440.19,410.16 441.41,408.66 442.64,407.31 443.87,406.12 445.09,405.08 446.32,404.20 447.55,403.48 448.77,402.93 450.00,402.57 451.23,402.37 452.45,401.84 453.68,400.99 454.91,398.64 456.13,392.62 457.36,385.70 458.59,378.28 459.81,370.34 461.04,361.81 462.27,352.69 463.49,343.05 464.72,332.28 465.95,320.68 467.17,308.93 468.40,296.93 469.63,284.71 470.85,282.53 472.08,358.48 473.31,367.57 474.53,363.33 475.76,355.26 476.99,345.88 478.21,335.73 479.44,325.19 480.67,314.53 481.89,303.52 483.12,292.25 484.35,361.79 485.57,387.53 486.80,387.87 488.03,380.97 489.25,372.21 490.48,362.52 491.71,352.18 492.93,341.40 494.16,330.34 495.39,318.93 496.61,306.31 497.84,292.71 499.07,279.76 500.29,266.97 501.52,253.96 502.75,240.70 503.97,227.21 505.20,213.51 506.43,199.62 507.65,185.50 508.88,171.04 510.11,156.37 511.33,141.52 512.56,133.35 513.79,149.61 515.01,140.31 516.24,123.08 517.47,105.36 518.69,87.94 519.92,70.89 521.15,53.79 522.37,328.39 523.60,351.33 524.83,342.67 526.05,332.78 527.28,322.24 528.51,310.96 529.73,299.11 530.96,286.88 532.19,274.34 533.41,261.54 534.64,248.55 535.87,235.33 537.09,221.90 538.32,208.27 539.55,194.22 540.77,179.81 542.00,165.12 543.23,150.19 544.45,196.12 545.68,227.07 546.91,228.21 548.13,224.88 549.36,219.65 550.59,213.43 551.81,206.75 553.04,301.42 554.27,335.96 555.49,361.82 556.72,380.30 557.95,392.26 559.17,397.59 560.40,399.82 561.63,399.42 562.85,396.94 564.08,391.91 565.31,384.97 566.53,383.25 567.76,377.32 568.99,374.35 570.21,378.97 571.44,381.70 572.67,378.30 573.89,373.88 575.12,369.20 576.35,366.72 577.57,371.71 578.80,371.69 580.03,366.94 581.25,365.72 582.48,362.02 583.71,357.02 584.93,351.51 586.16,345.63 587.39,339.38 588.61,332.26 589.84,323.41 591.07,313.43 592.29,302.57 593.52,291.25 594.75,281.82 595.97,271.59 597.20,260.48 598.43,248.94 599.65,237.10 600.88,225.05 602.11,212.81 603.33,200.41 604.56,288.80 605.79,281.56 607.01,275.25 608.24,269.74 609.47,265.36 610.69,414.98 611.92,405.60 613.15,402.37 614.37,399.73 615.60,395.92 616.83,390.71 618.05,384.23 619.28,376.60 620.51,368.03 621.73,359.95 622.96,349.64 624.19,338.81 625.41,327.73 626.64,323.67 627.87,317.91 629.09,335.18 630.32,347.04 631.55,348.79 632.77,346.66 634.00,345.03 635.23,344.97 636.45,343.09 637.68,337.86 638.91,404.62 640.13,430.17 641.36,435.49 642.59,437.60 643.81,438.06 645.04,436.46 646.27,434.12 647.49,431.05 648.72,427.49 649.95,423.85 651.17,420.12 652.40,416.37 653.63,412.06 654.85,407.02 656.08,401.65 657.31,396.12 658.53,390.50 659.76,384.81 660.99,379.06 662.21,373.26 663.44,367.14 664.67,359.10 665.89,349.55 667.12,339.37 668.35,376.99 669.57,397.33 670.80,404.04 672.03,406.46 673.25,407.07 674.48,406.75 675.71,407.66 676.93,409.52 678.16,411.56 679.39,413.76 680.61,416.15 681.84,418.50 683.07,421.04 684.29,423.78 685.52,426.52 686.75,429.03 687.97,431.41 689.20,433.69 690.43,435.85 691.65,437.74 692.88,438.70 694.11,439.15 695.33,439.36 696.56,439.39 697.79,439.31 699.01,439.15 700.24,438.78 701.47,437.81 702.69,436.16 703.92,433.90 705.15,431.16 706.37,428.00 707.60,424.48 708.83,420.61 710.05,416.41 711.28,411.87 712.51,407.00 713.73,401.79 714.96,396.30 716.19,390.60 717.41,384.70 718.64,378.65 719.87,372.47 721.09,366.17 722.32,359.73 723.55,353.06 724.77,346.42 726.00,339.54 727.23,331.90 728.45,322.39 729.68,312.26 730.91,301.68 732.13,290.71 733.36,279.42 734.59,267.82 735.81,255.95 737.04,243.85 738.27,231.53 739.49,219.01 740.72,270.06 741.95,308.03 743.17,324.56 744.40,333.04 745.63,338.80 746.85,342.13 748.08,344.06 749.31,344.96 750.53,344.98 751.76,344.36 752.99,343.23 754.21,341.68 755.44,339.81 756.67,337.66 757.89,334.86 759.12,331.19 760.35,326.64 761.57,320.54 762.80,313.92 764.03,307.11 765.25,300.19 766.48,293.23 767.71,286.27 768.93,279.37 770.16,272.57 771.39,265.93 772.61,259.50 773.84,253.32 775.07,247.45 776.29,241.93 777.52,236.80 778.75,231.23 779.97,225.11 781.20,217.81 782.43,208.48 783.65,197.74 784.88,185.31 786.11,171.00 787.33,155.34 788.56,138.62 789.79,121.06 791.01,176.72 792.24,157.41 793.47,139.02 794.69,120.44 795.92,101.94 797.15,299.80 798.37,381.29 799.60,365.93 800.83,362.98 802.05,360.90 803.28,357.99 804.51,354.89 805.73,351.61 806.96,348.24 808.19,344.82 809.41,341.37 810.64,337.92 811.87,334.46 813.09,330.98 814.32,327.46 815.55,323.92 816.77,319.51 818.00,314.66" fill="none" stroke="#d1495b" stroke-width="3"/>
<polyline points="82.00,488.00 83.23,488.00 83.23,488.00 84.45,488.00 84.45,488.00 85.68,488.00 85.68,488.00 86.91,488.00 86.91,488.00 88.13,488.00 88.13,488.00 89.36,488.00 89.36,488.00 90.59,488.00 90.59,488.00 91.81,488.00 91.81,488.00 93.04,488.00 93.04,488.00 94.27,488.00 94.27,488.00 95.49,488.00 95.49,488.00 96.72,488.00 96.72,488.00 97.95,488.00 97.95,488.00 99.17,488.00 99.17,488.00 100.40,488.00 100.40,488.00 101.63,488.00 101.63,488.00 102.85,488.00 102.85,488.00 104.08,488.00 104.08,488.00 105.31,488.00 105.31,488.00 106.53,488.00 106.53,488.00 107.76,488.00 107.76,488.00 108.99,488.00 108.99,488.00 110.21,488.00 110.21,488.00 111.44,488.00 111.44,488.00 112.67,488.00 112.67,488.00 113.89,488.00 113.89,488.00 115.12,488.00 115.12,488.00 116.35,488.00 116.35,488.00 117.57,488.00 117.57,488.00 118.80,488.00 118.80,488.00 120.03,488.00 120.03,488.00 121.25,488.00 121.25,488.00 122.48,488.00 122.48,488.00 123.71,488.00 123.71,488.00 124.93,488.00 124.93,488.00 126.16,488.00 126.16,488.00 127.39,488.00 127.39,488.00 128.61,488.00 128.61,488.00 129.84,488.00 129.84,488.00 131.07,488.00 131.07,488.00 132.29,488.00 132.29,488.00 133.52,488.00 133.52,488.00 134.75,488.00 134.75,488.00 135.97,488.00 135.97,488.00 137.20,488.00 137.20,488.00 138.43,488.00 138.43,488.00 139.65,488.00 139.65,488.00 140.88,488.00 140.88,488.00 142.11,488.00 142.11,488.00 143.33,488.00 143.33,488.00 144.56,488.00 144.56,488.00 145.79,488.00 145.79,488.00 147.01,488.00 147.01,488.00 148.24,488.00 148.24,488.00 149.47,488.00 149.47,488.00 150.69,488.00 150.69,488.00 151.92,488.00 151.92,488.00 153.15,488.00 153.15,488.00 154.37,488.00 154.37,488.00 155.60,488.00 155.60,488.00 156.83,488.00 156.83,488.00 158.05,488.00 158.05,488.00 159.28,488.00 159.28,488.00 160.51,488.00 160.51,488.00 161.73,488.00 161.73,488.00 162.96,488.00 162.96,488.00 164.19,488.00 164.19,488.00 165.41,488.00 165.41,488.00 166.64,488.00 166.64,488.00 167.87,488.00 167.87,488.00 169.09,488.00 169.09,488.00 170.32,488.00 170.32,488.00 171.55,488.00 171.55,488.00 172.77,488.00 172.77,488.00 174.00,488.00 174.00,488.00 175.23,488.00 175.23,488.00 176.45,488.00 176.45,488.00 177.68,488.00 177.68,488.00 178.91,488.00 178.91,488.00 180.13,488.00 180.13,488.00 181.36,488.00 181.36,488.00 182.59,488.00 182.59,488.00 183.81,488.00 183.81,488.00 185.04,488.00 185.04,488.00 186.27,488.00 186.27,488.00 187.49,488.00 187.49,488.00 188.72,488.00 188.72,488.00 189.95,488.00 189.95,488.00 191.17,488.00 191.17,488.00 192.40,488.00 192.40,488.00 193.63,488.00 193.63,488.00 194.85,488.00 194.85,488.00 196.08,488.00 196.08,488.00 197.31,488.00 197.31,488.00 198.53,488.00 198.53,488.00 199.76,488.00 199.76,488.00 200.99,488.00 200.99,488.00 202.21,488.00 202.21,488.00 203.44,488.00 203.44,488.00 204.67,488.00 204.67,488.00 205.89,488.00 205.89,488.00 207.12,488.00 207.12,488.00 208.35,488.00 208.35,488.00 209.57,488.00 209.57,488.00 210.80,488.00 210.80,488.00 212.03,488.00 212.03,488.00 213.25,488.00 213.25,488.00 214.48,488.00 214.48,488.00 215.71,488.00 215.71,488.00 216.93,488.00 216.93,488.00 218.16,488.00 218.16,488.00 219.39,488.00 219.39,488.00 220.61,488.00 220.61,488.00 221.84,488.00 221.84,488.00 223.07,488.00 223.07,488.00 224.29,488.00 224.29,488.00 225.52,488.00 225.52,488.00 226.75,488.00 226.75,488.00 227.97,488.00 227.97,488.00 229.20,488.00 229.20,488.00 230.43,488.00 230.43,488.00 231.65,488.00 231.65,488.00 232.88,488.00 232.88,488.00 234.11,488.00 234.11,488.00 235.33,488.00 235.33,488.00 236.56,488.00 236.56,488.00 237.79,488.00 237.79,488.00 239.01,488.00 239.01,488.00 240.24,488.00 240.24,488.00 241.47,488.00 241.47,488.00 242.69,488.00 242.69,488.00 243.92,488.00 243.92,488.00 245.15,488.00 245.15,488.00 246.37,488.00 246.37,488.00 247.60,488.00 247.60,488.00 248.83,488.00 248.83,488.00 250.05,488.00 250.05,488.00 251.28,488.00 251.28,488.00 252.51,488.00 252.51,488.00 253.73,488.00 253.73,488.00 254.96,488.00 254.96,488.00 256.19,488.00 256.19,488.00 257.41,488.00 257.41,488.00 258.64,488.00 258.64,488.00 259.87,488.00 259.87,488.00 261.09,488.00 261.09,488.00 262.32,488.00 262.32,488.00 263.55,488.00 263.55,488.00 264.77,488.00 264.77,488.00 266.00,488.00 266.00,488.00 267.23,488.00 267.23,488.00 268.45,488.00 268.45,488.00 269.68,488.00 269.68,488.00 270.91,488.00 270.91,488.00 272.13,488.00 272.13,488.00 273.36,488.00 273.36,488.00 274.59,488.00 274.59,488.00 275.81,488.00 275.81,488.00 277.04,488.00 277.04,488.00 278.27,488.00 278.27,488.00 279.49,488.00 279.49,488.00 280.72,488.00 280.72,488.00 281.95,488.00 281.95,488.00 283.17,488.00 283.17,488.00 284.40,488.00 284.40,488.00 285.63,488.00 285.63,488.00 286.85,488.00 286.85,488.00 288.08,488.00 288.08,488.00 289.31,488.00 289.31,488.00 290.53,488.00 290.53,488.00 291.76,488.00 291.76,488.00 292.99,488.00 292.99,488.00 294.21,488.00 294.21,488.00 295.44,488.00 295.44,488.00 296.67,488.00 296.67,488.00 297.89,488.00 297.89,488.00 299.12,488.00 299.12,488.00 300.35,488.00 300.35,488.00 301.57,488.00 301.57,488.00 302.80,488.00 302.80,488.00 304.03,488.00 304.03,488.00 305.25,488.00 305.25,488.00 306.48,488.00 306.48,488.00 307.71,488.00 307.71,488.00 308.93,488.00 308.93,488.00 310.16,488.00 310.16,488.00 311.39,488.00 311.39,488.00 312.61,488.00 312.61,488.00 313.84,488.00 313.84,488.00 315.07,488.00 315.07,488.00 316.29,488.00 316.29,488.00 317.52,488.00 317.52,488.00 318.75,488.00 318.75,488.00 319.97,488.00 319.97,488.00 321.20,488.00 321.20,488.00 322.43,488.00 322.43,488.00 323.65,488.00 323.65,488.00 324.88,488.00 324.88,488.00 326.11,488.00 326.11,488.00 327.33,488.00 327.33,488.00 328.56,488.00 328.56,488.00 329.79,488.00 329.79,488.00 331.01,488.00 331.01,488.00 332.24,488.00 332.24,488.00 333.47,488.00 333.47,488.00 334.69,488.00 334.69,488.00 335.92,488.00 335.92,488.00 337.15,488.00 337.15,483.04 338.37,483.04 338.37,464.21 339.60,464.21 339.60,464.21 340.83,464.21 340.83,464.21 342.05,464.21 342.05,464.21 343.28,464.21 343.28,464.21 344.51,464.21 344.51,464.21 345.73,464.21 345.73,464.21 346.96,464.21 346.96,464.21 348.19,464.21 348.19,464.21 349.41,464.21 349.41,464.21 350.64,464.21 350.64,464.21 351.87,464.21 351.87,464.21 353.09,464.21 353.09,464.21 354.32,464.21 354.32,464.21 355.55,464.21 355.55,464.21 356.77,464.21 356.77,464.21 358.00,464.21 358.00,464.21 359.23,464.21 359.23,464.21 360.45,464.21 360.45,464.21 361.68,464.21 361.68,464.21 362.91,464.21 362.91,464.21 364.13,464.21 364.13,464.21 365.36,464.21 365.36,464.21 366.59,464.21 366.59,464.21 367.81,464.21 367.81,464.21 369.04,464.21 369.04,464.21 370.27,464.21 370.27,464.21 371.49,464.21 371.49,464.21 372.72,464.21 372.72,464.21 373.95,464.21 373.95,464.21 375.17,464.21 375.17,464.21 376.40,464.21 376.40,464.21 377.63,464.21 377.63,464.21 378.85,464.21 378.85,464.21 380.08,464.21 380.08,464.21 381.31,464.21 381.31,464.21 382.53,464.21 382.53,464.21 383.76,464.21 383.76,464.21 384.99,464.21 384.99,464.21 386.21,464.21 386.21,464.21 387.44,464.21 387.44,447.36 388.67,447.36 388.67,447.36 389.89,447.36 389.89,447.36 391.12,447.36 391.12,447.36 392.35,447.36 392.35,447.36 393.57,447.36 393.57,447.36 394.80,447.36 394.80,447.36 396.03,447.36 396.03,447.36 397.25,447.36 397.25,447.36 398.48,447.36 398.48,447.36 399.71,447.36 399.71,447.36 400.93,447.36 400.93,447.36 402.16,447.36 402.16,447.36 403.39,447.36 403.39,447.36 404.61,447.36 404.61,447.36 405.84,447.36 405.84,447.36 407.07,447.36 407.07,447.36 408.29,447.36 408.29,447.36 409.52,447.36 409.52,447.36 410.75,447.36 410.75,447.36 411.97,447.36 411.97,447.36 413.20,447.36 413.20,447.36 414.43,447.36 414.43,447.36 415.65,447.36 415.65,447.36 416.88,447.36 416.88,447.36 418.11,447.36 418.11,417.63 419.33,417.63 419.33,417.63 420.56,417.63 420.56,417.63 421.79,417.63 421.79,417.63 423.01,417.63 423.01,417.63 424.24,417.63 424.24,400.78 425.47,400.78 425.47,400.78 426.69,400.78 426.69,400.78 427.92,400.78 427.92,400.78 429.15,400.78 429.15,400.78 430.37,400.78 430.37,400.78 431.60,400.78 431.60,400.78 432.83,400.78 432.83,400.78 434.05,400.78 434.05,400.78 435.28,400.78 435.28,400.78 436.51,400.78 436.51,400.78 437.73,400.78 437.73,400.78 438.96,400.78 438.96,400.78 440.19,400.78 440.19,400.78 441.41,400.78 441.41,400.78 442.64,400.78 442.64,400.78 443.87,400.78 443.87,400.78 445.09,400.78 445.09,400.78 446.32,400.78 446.32,400.78 447.55,400.78 447.55,400.78 448.77,400.78 448.77,400.78 450.00,400.78 450.00,400.78 451.23,400.78 451.23,400.78 452.45,400.78 452.45,400.78 453.68,400.78 453.68,400.78 454.91,400.78 454.91,400.78 456.13,400.78 456.13,400.78 457.36,400.78 457.36,400.78 458.59,400.78 458.59,400.78 459.81,400.78 459.81,400.78 461.04,400.78 461.04,400.78 462.27,400.78 462.27,400.78 463.49,400.78 463.49,400.78 464.72,400.78 464.72,400.78 465.95,400.78 465.95,400.78 467.17,400.78 467.17,400.78 468.40,400.78 468.40,400.78 469.63,400.78 469.63,400.78 470.85,400.78 470.85,381.95 472.08,381.95 472.08,381.95 473.31,381.95 473.31,381.95 474.53,381.95 474.53,381.95 475.76,381.95 475.76,381.95 476.99,381.95 476.99,381.95 478.21,381.95 478.21,381.95 479.44,381.95 479.44,381.95 480.67,381.95 480.67,381.95 481.89,381.95 481.89,381.95 483.12,381.95 483.12,381.95 484.35,381.95 484.35,365.10 485.57,365.10 485.57,365.10 486.80,365.10 486.80,365.10 488.03,365.10 488.03,365.10 489.25,365.10 489.25,365.10 490.48,365.10 490.48,365.10 491.71,365.10 491.71,365.10 492.93,365.10 492.93,365.10 494.16,365.10 494.16,365.10 495.39,365.10 495.39,365.10 496.61,365.10 496.61,365.10 497.84,365.10 497.84,365.10 499.07,365.10 499.07,365.10 500.29,365.10 500.29,365.10 501.52,365.10 501.52,365.10 502.75,365.10 502.75,365.10 503.97,365.10 503.97,365.10 505.20,365.10 505.20,365.10 506.43,365.10 506.43,365.10 507.65,365.10 507.65,365.10 508.88,365.10 508.88,365.10 510.11,365.10 510.11,365.10 511.33,365.10 511.33,365.10 512.56,365.10 512.56,361.13 513.79,361.13 513.79,352.21 515.01,352.21 515.01,352.21 516.24,352.21 516.24,352.21 517.47,352.21 517.47,352.21 518.69,352.21 518.69,352.21 519.92,352.21 519.92,352.21 521.15,352.21 521.15,352.21 522.37,352.21 522.37,292.74 523.60,292.74 523.60,292.74 524.83,292.74 524.83,292.74 526.05,292.74 526.05,292.74 527.28,292.74 527.28,292.74 528.51,292.74 528.51,292.74 529.73,292.74 529.73,292.74 530.96,292.74 530.96,292.74 532.19,292.74 532.19,292.74 533.41,292.74 533.41,292.74 534.64,292.74 534.64,292.74 535.87,292.74 535.87,292.74 537.09,292.74 537.09,292.74 538.32,292.74 538.32,292.74 539.55,292.74 539.55,292.74 540.77,292.74 540.77,292.74 542.00,292.74 542.00,292.74 543.23,292.74 543.23,292.74 544.45,292.74 544.45,272.92 545.68,272.92 545.68,272.92 546.91,272.92 546.91,272.92 548.13,272.92 548.13,272.92 549.36,272.92 549.36,272.92 550.59,272.92 550.59,272.92 551.81,272.92 551.81,272.92 553.04,272.92 553.04,255.08 554.27,255.08 554.27,255.08 555.49,255.08 555.49,255.08 556.72,255.08 556.72,255.08 557.95,255.08 557.95,255.08 559.17,255.08 559.17,255.08 560.40,255.08 560.40,255.08 561.63,255.08 561.63,255.08 562.85,255.08 562.85,255.08 564.08,255.08 564.08,255.08 565.31,255.08 565.31,255.08 566.53,255.08 566.53,254.09 567.76,254.09 567.76,254.09 568.99,254.09 568.99,252.11 570.21,252.11 570.21,250.12 571.44,250.12 571.44,250.12 572.67,250.12 572.67,250.12 573.89,250.12 573.89,250.12 575.12,250.12 575.12,250.12 576.35,250.12 576.35,249.13 577.57,249.13 577.57,246.16 578.80,246.16 578.80,246.16 580.03,246.16 580.03,246.16 581.25,246.16 581.25,244.18 582.48,244.18 582.48,244.18 583.71,244.18 583.71,244.18 584.93,244.18 584.93,244.18 586.16,244.18 586.16,244.18 587.39,244.18 587.39,244.18 588.61,244.18 588.61,244.18 589.84,244.18 589.84,244.18 591.07,244.18 591.07,244.18 592.29,244.18 592.29,244.18 593.52,244.18 593.52,244.18 594.75,244.18 594.75,243.19 595.97,243.19 595.97,243.19 597.20,243.19 597.20,243.19 598.43,243.19 598.43,243.19 599.65,243.19 599.65,243.19 600.88,243.19 600.88,243.19 602.11,243.19 602.11,243.19 603.33,243.19 603.33,243.19 604.56,243.19 604.56,229.31 605.79,229.31 605.79,227.33 607.01,227.33 607.01,227.33 608.24,227.33 608.24,227.33 609.47,227.33 609.47,225.35 610.69,225.35 610.69,186.69 611.92,186.69 611.92,186.69 613.15,186.69 613.15,186.69 614.37,186.69 614.37,186.69 615.60,186.69 615.60,186.69 616.83,186.69 616.83,186.69 618.05,186.69 618.05,186.69 619.28,186.69 619.28,186.69 620.51,186.69 620.51,186.69 621.73,186.69 621.73,185.70 622.96,185.70 622.96,185.70 624.19,185.70 624.19,185.70 625.41,185.70 625.41,185.70 626.64,185.70 626.64,179.75 627.87,179.75 627.87,177.77 629.09,177.77 629.09,172.81 630.32,172.81 630.32,169.84 631.55,169.84 631.55,169.84 632.77,169.84 632.77,169.84 634.00,169.84 634.00,168.85 635.23,168.85 635.23,166.87 636.45,166.87 636.45,166.87 637.68,166.87 637.68,166.87 638.91,166.87 638.91,141.10 640.13,141.10 640.13,141.10 641.36,141.10 641.36,141.10 642.59,141.10 642.59,141.10 643.81,141.10 643.81,141.10 645.04,141.10 645.04,141.10 646.27,141.10 646.27,141.10 647.49,141.10 647.49,141.10 648.72,141.10 648.72,141.10 649.95,141.10 649.95,141.10 651.17,141.10 651.17,141.10 652.40,141.10 652.40,141.10 653.63,141.10 653.63,141.10 654.85,141.10 654.85,141.10 656.08,141.10 656.08,141.10 657.31,141.10 657.31,141.10 658.53,141.10 658.53,141.10 659.76,141.10 659.76,141.10 660.99,141.10 660.99,141.10 662.21,141.10 662.21,141.10 663.44,141.10 663.44,141.10 664.67,141.10 664.67,141.10 665.89,141.10 665.89,141.10 667.12,141.10 667.12,141.10 668.35,141.10 668.35,126.23 669.57,126.23 669.57,126.23 670.80,126.23 670.80,126.23 672.03,126.23 672.03,126.23 673.25,126.23 673.25,126.23 674.48,126.23 674.48,126.23 675.71,126.23 675.71,126.23 676.93,126.23 676.93,126.23 678.16,126.23 678.16,126.23 679.39,126.23 679.39,126.23 680.61,126.23 680.61,126.23 681.84,126.23 681.84,126.23 683.07,126.23 683.07,126.23 684.29,126.23 684.29,126.23 685.52,126.23 685.52,126.23 686.75,126.23 686.75,126.23 687.97,126.23 687.97,126.23 689.20,126.23 689.20,126.23 690.43,126.23 690.43,126.23 691.65,126.23 691.65,126.23 692.88,126.23 692.88,126.23 694.11,126.23 694.11,126.23 695.33,126.23 695.33,126.23 696.56,126.23 696.56,126.23 697.79,126.23 697.79,126.23 699.01,126.23 699.01,126.23 700.24,126.23 700.24,126.23 701.47,126.23 701.47,126.23 702.69,126.23 702.69,126.23 703.92,126.23 703.92,126.23 705.15,126.23 705.15,126.23 706.37,126.23 706.37,126.23 707.60,126.23 707.60,126.23 708.83,126.23 708.83,126.23 710.05,126.23 710.05,126.23 711.28,126.23 711.28,126.23 712.51,126.23 712.51,126.23 713.73,126.23 713.73,126.23 714.96,126.23 714.96,126.23 716.19,126.23 716.19,126.23 717.41,126.23 717.41,126.23 718.64,126.23 718.64,126.23 719.87,126.23 719.87,126.23 721.09,126.23 721.09,126.23 722.32,126.23 722.32,126.23 723.55,126.23 723.55,126.23 724.77,126.23 724.77,126.23 726.00,126.23 726.00,126.23 727.23,126.23 727.23,126.23 728.45,126.23 728.45,126.23 729.68,126.23 729.68,126.23 730.91,126.23 730.91,126.23 732.13,126.23 732.13,126.23 733.36,126.23 733.36,126.23 734.59,126.23 734.59,126.23 735.81,126.23 735.81,126.23 737.04,126.23 737.04,126.23 738.27,126.23 738.27,126.23 739.49,126.23 739.49,126.23 740.72,126.23 740.72,110.37 741.95,110.37 741.95,110.37 743.17,110.37 743.17,110.37 744.40,110.37 744.40,110.37 745.63,110.37 745.63,110.37 746.85,110.37 746.85,110.37 748.08,110.37 748.08,110.37 749.31,110.37 749.31,110.37 750.53,110.37 750.53,110.37 751.76,110.37 751.76,110.37 752.99,110.37 752.99,110.37 754.21,110.37 754.21,110.37 755.44,110.37 755.44,110.37 756.67,110.37 756.67,110.37 757.89,110.37 757.89,110.37 759.12,110.37 759.12,110.37 760.35,110.37 760.35,110.37 761.57,110.37 761.57,110.37 762.80,110.37 762.80,110.37 764.03,110.37 764.03,110.37 765.25,110.37 765.25,110.37 766.48,110.37 766.48,110.37 767.71,110.37 767.71,110.37 768.93,110.37 768.93,110.37 770.16,110.37 770.16,110.37 771.39,110.37 771.39,110.37 772.61,110.37 772.61,110.37 773.84,110.37 773.84,110.37 775.07,110.37 775.07,110.37 776.29,110.37 776.29,110.37 777.52,110.37 777.52,110.37 778.75,110.37 778.75,110.37 779.97,110.37 779.97,110.37 781.20,110.37 781.20,110.37 782.43,110.37 782.43,110.37 783.65,110.37 783.65,110.37 784.88,110.37 784.88,110.37 786.11,110.37 786.11,110.37 787.33,110.37 787.33,110.37 788.56,110.37 788.56,110.37 789.79,110.37 789.79,110.37 791.01,110.37 791.01,94.51 792.24,94.51 792.24,94.51 793.47,94.51 793.47,94.51 794.69,94.51 794.69,94.51 795.92,94.51 795.92,94.51 797.15,94.51 797.15,52.88 798.37,52.88 798.37,40.00 799.60,40.00 799.60,40.00 800.83,40.00 800.83,40.00 802.05,40.00 802.05,40.00 803.28,40.00 803.28,40.00 804.51,40.00 804.51,40.00 805.73,40.00 805.73,40.00 806.96,40.00 806.96,40.00 808.19,40.00 808.19,40.00 809.41,40.00 809.41,40.00 810.64,40.00 810.64,40.00 811.87,40.00 811.87,40.00 813.09,40.00 813.09,40.00 814.32,40.00 814.32,40.00 815.55,40.00 815.55,40.00 816.77,40.00 816.77,40.00 818.00,40.00 818.00,40.00" fill="none" stroke="#4b8f29" stroke-width="3"/>
<text x="450.0" y="552" text-anchor="middle" font-size="20" font-family="Arial, sans-serif" fill="#111827">Top displacement (mm)</text>
<text x="24" y="280.0" text-anchor="middle" transform="rotate(-90 24 280.0)" font-size="20" font-family="Arial, sans-serif" fill="#111827">Force magnitude (N)</text>
<text x="880" y="280.0" text-anchor="middle" transform="rotate(90 880 280.0)" font-size="20" font-family="Arial, sans-serif" fill="#111827">Broken bonds</text>
<text x="102" y="64" font-size="18" font-family="Arial, sans-serif" fill="#1b6ca8">Top plate</text>
<text x="212" y="64" font-size="18" font-family="Arial, sans-serif" fill="#d1495b">Bottom plate</text>
<text x="352" y="64" font-size="18" font-family="Arial, sans-serif" fill="#4b8f29">Broken bonds</text>
<text x="72" y="45" text-anchor="end" font-size="17" fill="#30363d">14.52</text>
<text x="72" y="488" text-anchor="end" font-size="17" fill="#30363d">0</text>
<text x="828" y="45" text-anchor="start" font-size="17" fill="#30363d">452</text>
<text x="828" y="488" text-anchor="start" font-size="17" fill="#30363d">0</text>
</svg>
