<svg xmlns="http://www.w3.org/2000/svg" width="900" height="560" viewBox="0 0 900 560">
<rect width="100%" height="100%" fill="white"/>
<text x="450.0" y="26" text-anchor="middle" font-size="22" font-family="Arial, sans-serif" fill="#111827">SP-002 force-displacement and bond breakage</text>
<line x1="82" y1="40.00" x2="818" y2="40.00" stroke="#d9dee2" stroke-width="1"/><line x1="82" y1="129.60" x2="818" y2="129.60" stroke="#d9dee2" stroke-width="1"/><line x1="82" y1="219.20" x2="818" y2="219.20" stroke="#d9dee2" stroke-width="1"/><line x1="82" y1="308.80" x2="818" y2="308.80" stroke="#d9dee2" stroke-width="1"/><line x1="82" y1="398.40" x2="818" y2="398.40" stroke="#d9dee2" stroke-width="1"/><line x1="82" y1="488.00" x2="818" y2="488.00" stroke="#d9dee2" stroke-width="1"/><line x1="82.00" y1="40" x2="82.00" y2="488" stroke="#edf0f2" stroke-width="1"/><text x="82.00" y="526" text-anchor="middle" font-size="18" fill="#30363d">0.000</text><line x1="229.20" y1="40" x2="229.20" y2="488" stroke="#edf0f2" stroke-width="1"/><text x="229.20" y="526" text-anchor="middle" font-size="18" fill="#30363d">0.030</text><line x1="376.40" y1="40" x2="376.40" y2="488" stroke="#edf0f2" stroke-width="1"/><text x="376.40" y="526" text-anchor="middle" font-size="18" fill="#30363d">0.060</text><line x1="523.60" y1="40" x2="523.60" y2="488" stroke="#edf0f2" stroke-width="1"/><text x="523.60" y="526" text-anchor="middle" font-size="18" fill="#30363d">0.090</text><line x1="670.80" y1="40" x2="670.80" y2="488" stroke="#edf0f2" stroke-width="1"/><text x="670.80" y="526" text-anchor="middle" font-size="18" fill="#30363d">0.120</text><line x1="818.00" y1="40" x2="818.00" y2="488" stroke="#edf0f2" stroke-width="1"/><text x="818.00" y="526" text-anchor="middle" font-size="18" fill="#30363d">0.150</text>
<line x1="82" y1="40" x2="82" y2="488" stroke="#111827" stroke-width="1.5"/>
<line x1="82" y1="488" x2="818" y2="488" stroke="#111827" stroke-width="1.5"/>
<line x1="818" y1="40" x2="818" y2="488" stroke="#111827" stroke-width="1.5"/>
<polyline points="82.00,488.00 84.45,488.00 86.91,488.00 89.36,488.00 91.81,488.00 94.27,488.00 96.72,488.00 99.17,488.00 101.63,488.00 104.08,488.00 106.53,488.00 108.99,488.00 111.44,488.00 113.89,488.00 116.35,488.00 118.80,488.00 121.25,488.00 123.71,488.00 126.16,488.00 128.61,488.00 131.07,488.00 133.52,488.00 135.97,488.00 138.43,488.00 140.88,488.00 143.33,488.00 145.79,488.00 148.24,488.00 150.69,488.00 153.15,488.00 155.60,488.00 158.05,488.00 160.51,488.00 162.96,488.00 165.41,488.00 167.87,488.00 170.32,488.00 172.77,488.00 175.23,488.00 177.68,488.00 180.13,488.00 182.59,488.00 185.04,488.00 187.49,488.00 189.95,488.00 192.40,488.00 194.85,488.00 197.31,488.00 199.76,488.00 202.21,488.00 204.67,488.00 207.12,488.00 209.57,488.00 212.03,488.00 214.48,488.00 216.93,488.00 219.39,488.00 221.84,488.00 224.29,488.00 226.75,488.00 229.20,488.00 231.65,488.00 234.11,488.00 236.56,488.00 239.01,488.00 241.47,488.00 243.92,488.00 246.37,488.00 248.83,488.00 251.28,488.00 253.73,488.00 256.19,488.00 258.64,488.00 261.09,488.00 263.55,488.00 266.00,488.00 268.45,488.00 270.91,488.00 273.36,488.00 275.81,488.00 278.27,488.00 280.72,488.00 283.17,488.00 285.63,488.00 288.08,488.00 290.53,488.00 292.99,488.00 295.44,488.00 297.89,488.00 300.35,488.00 302.80,488.00 305.25,488.00 307.71,488.00 310.16,488.00 312.61,488.00 315.07,488.00 317.52,488.00 319.97,488.00 322.43,488.00 324.88,488.00 327.33,488.00 329.79,488.00 332.24,488.00 334.69,488.00 337.15,488.00 339.60,488.00 342.05,488.00 344.51,488.00 346.96,488.00 349.41,488.00 351.87,488.00 354.32,488.00 356.77,488.00 359.23,488.00 361.68,488.00 364.13,488.00 366.59,488.00 369.04,488.00 371.49,488.00 373.95,488.00 376.40,488.00 378.85,488.00 381.31,488.00 383.76,488.00 386.21,488.00 388.67,488.00 391.12,488.00 393.57,488.00 396.03,488.00 398.48,488.00 400.93,488.00 403.39,488.00 405.84,488.00 408.29,488.00 410.75,488.00 413.20,488.00 415.65,488.00 418.11,488.00 420.56,488.00 423.01,488.00 425.47,488.00 427.92,488.00 430.37,488.00 432.83,488.00 435.28,488.00 437.73,488.00 440.19,488.00 442.64,488.00 445.09,488.00 447.55,488.00 450.00,488.00 452.45,488.00 454.91,488.00 457.36,488.00 459.81,488.00 462.27,488.00 464.72,488.00 467.17,488.00 469.63,488.00 472.08,488.00 474.53,488.00 476.99,488.00 479.44,488.00 481.89,488.00 484.35,488.00 486.80,488.00 489.25,488.00 491.71,488.00 494.16,488.00 496.61,488.00 499.07,488.00 501.52,488.00 503.97,488.00 506.43,488.00 508.88,488.00 511.33,488.00 513.79,488.00 516.24,488.00 518.69,488.00 521.15,488.00 523.60,488.00 526.05,488.00 528.51,488.00 530.96,488.00 533.41,488.00 535.87,488.00 538.32,488.00 540.77,488.00 543.23,488.00 545.68,488.00 548.13,488.00 550.59,488.00 553.04,488.00 555.49,488.00 557.95,488.00 560.40,488.00 562.85,488.00 565.31,488.00 567.76,488.00 570.21,488.00 572.67,487.99 575.12,482.37 577.57,473.14 580.03,461.95 582.48,449.33 584.93,435.56 587.39,420.84 589.84,405.29 592.29,389.02 594.75,372.11 597.20,354.61 599.65,336.58 602.11,318.06 604.56,299.09 607.01,286.33 609.47,481.18 611.92,463.64 614.37,450.58 616.83,436.61 619.28,418.29 621.73,396.18 624.19,372.00 626.64,346.23 629.09,319.17 631.55,291.00 634.00,261.86 636.45,231.86 638.91,203.28 641.36,177.92 643.81,168.19 646.27,294.13 648.72,304.86 651.17,292.63 653.63,275.33 656.08,256.64 658.53,237.32 660.99,217.52 663.44,197.29 665.89,346.40 668.35,303.25 670.80,289.71 673.25,478.80 675.71,462.86 678.16,450.44 680.61,439.02 683.07,429.91 685.52,422.02 687.97,414.70 690.43,407.62 692.88,400.64 695.33,393.73 697.79,386.37 700.24,377.82 702.69,369.11 705.15,360.02 707.60,350.75 710.05,341.32 712.51,331.74 714.96,322.02 717.41,312.19 719.87,302.24 722.32,292.19 724.77,281.50 727.23,270.11 729.68,258.21 732.13,245.92 734.59,233.29 737.04,220.18 739.49,206.51 741.95,192.26 744.40,177.40 746.85,161.70 749.31,141.76 751.76,119.54 754.21,94.62 756.67,70.94 759.12,104.01 761.57,109.70 764.03,89.96 766.48,65.48 768.93,40.00 771.39,212.33 773.84,321.18 776.29,358.01 778.75,371.75 781.20,376.57 783.65,377.45 786.11,376.47 788.56,374.58 791.01,372.29 793.47,369.92 795.92,367.59 798.37,365.30 800.83,362.85 803.28,360.25 805.73,357.61 808.19,354.32 810.64,350.35 813.09,346.49 815.55,342.79 818.00,338.14" fill="none" stroke="#1b6ca8" stroke-width="3"/>
<polyline points="82.00,488.00 84.45,488.00 86.91,488.00 89.36,488.00 91.81,488.00 94.27,488.00 96.72,488.00 99.17,488.00 101.63,488.00 104.08,488.00 106.53,488.00 108.99,488.00 111.44,488.00 113.89,488.00 116.35,488.00 118.80,488.00 121.25,488.00 123.71,488.00 126.16,488.00 128.61,488.00 131.07,488.00 133.52,488.00 135.97,488.00 138.43,488.00 140.88,488.00 143.33,488.00 145.79,488.00 148.24,488.00 150.69,488.00 153.15,488.00 155.60,488.00 158.05,488.00 160.51,488.00 162.96,488.00 165.41,488.00 167.87,488.00 170.32,488.00 172.77,488.00 175.23,488.00 177.68,488.00 180.13,488.00 182.59,488.00 185.04,488.00 187.49,488.00 189.95,488.00 192.40,488.00 194.85,488.00 197.31,488.00 199.76,488.00 202.21,488.00 204.67,488.00 207.12,488.00 209.57,488.00 212.03,488.00 214.48,488.00 216.93,488.00 219.39,488.00 221.84,488.00 224.29,488.00 226.75,488.00 229.20,488.00 231.65,488.00 234.11,488.00 236.56,488.00 239.01,488.00 241.47,488.00 243.92,488.00 246.37,488.00 248.83,488.00 251.28,488.00 253.73,488.00 256.19,488.00 258.64,488.00 261.09,488.00 263.55,488.00 266.00,488.00 268.45,488.00 270.91,488.00 273.36,488.00 275.81,488.00 278.27,488.00 280.72,488.00 283.17,488.00 285.63,488.00 288.08,488.00 290.53,488.00 292.99,488.00 295.44,488.00 297.89,488.00 300.35,488.00 302.80,488.00 305.25,488.00 307.71,488.00 310.16,488.00 312.61,488.00 315.07,488.00 317.52,488.00 319.97,488.00 322.43,488.00 324.88,488.00 327.33,488.00 329.79,488.00 332.24,488.00 334.69,488.00 337.15,488.00 339.60,488.00 342.05,488.00 344.51,488.00 346.96,488.00 349.41,488.00 351.87,488.00 354.32,488.00 356.77,488.00 359.23,488.00 361.68,488.00 364.13,488.00 366.59,488.00 369.04,488.00 371.49,488.00 373.95,488.00 376.40,488.00 378.85,488.00 381.31,488.00 383.76,488.00 386.21,488.00 388.67,488.00 391.12,488.00 393.57,488.00 396.03,488.00 398.48,488.00 400.93,488.00 403.39,488.00 405.84,488.00 408.29,488.00 410.75,488.00 413.20,488.00 415.65,488.00 418.11,488.00 420.56,488.00 423.01,488.00 425.47,488.00 427.92,488.00 430.37,488.00 432.83,488.00 435.28,488.00 437.73,488.00 440.19,488.00 442.64,488.00 445.09,488.00 447.55,488.00 450.00,488.00 452.45,488.00 454.91,488.00 457.36,488.00 459.81,488.00 462.27,488.00 464.72,488.00 467.17,488.00 469.63,488.00 472.08,488.00 474.53,488.00 476.99,488.00 479.44,488.00 481.89,488.00 484.35,488.00 486.80,488.00 489.25,488.00 491.71,488.00 494.16,488.00 496.61,488.00 499.07,488.00 501.52,488.00 503.97,488.00 506.43,488.00 508.88,488.00 511.33,488.00 513.79,488.00 516.24,488.00 518.69,488.00 521.15,488.00 523.60,488.00 526.05,488.00 528.51,488.00 530.96,488.00 533.41,488.00 535.87,488.00 538.32,488.00 540.77,488.00 543.23,488.00 545.68,488.00 548.13,488.00 550.59,488.00 553.04,488.00 555.49,488.00 557.95,488.00 560.40,488.00 562.85,488.00 565.31,488.00 567.76,488.00 570.21,488.00 572.67,488.00 575.12,484.69 577.57,476.60 580.03,466.10 582.48,453.98 584.93,440.62 587.39,426.24 589.84,410.98 592.29,394.97 594.75,378.29 597.20,361.00 599.65,343.15 602.11,324.81 604.56,306.00 607.01,290.40 609.47,396.88 611.92,464.17 614.37,455.19 616.83,441.80 619.28,425.36 621.73,404.39 624.19,380.94 626.64,355.73 629.09,329.12 631.55,301.34 634.00,272.55 636.45,242.85 638.91,213.95 641.36,186.24 643.81,478.42 646.27,382.95 648.72,340.44 651.17,317.16 653.63,297.68 656.08,278.58 658.53,259.17 660.99,239.35 663.44,219.12 665.89,253.05 668.35,291.89 670.80,291.17 673.25,322.33 675.71,403.80 678.16,430.60 680.61,438.29 683.07,438.09 685.52,434.33 687.97,428.90 690.43,422.67 692.88,416.09 695.33,409.38 697.79,402.58 700.24,395.12 702.69,386.97 705.15,378.34 707.60,369.34 710.05,360.07 712.51,350.60 714.96,340.96 717.41,331.17 719.87,321.27 722.32,310.98 724.77,299.41 727.23,287.52 729.68,275.34 732.13,262.87 734.59,250.09 737.04,236.90 739.49,223.19 741.95,208.92 744.40,194.06 746.85,178.57 749.31,160.48 751.76,139.13 754.21,115.19 756.67,93.12 759.12,178.56 761.57,139.42 764.03,114.40 766.48,89.95 768.93,64.77 771.39,469.55 773.84,445.78 776.29,433.07 778.75,426.00 781.20,421.61 783.65,418.46 786.11,415.85 788.56,413.47 791.01,411.20 793.47,409.01 795.92,406.90 798.37,404.58 800.83,401.67 803.28,398.74 805.73,395.94 808.19,393.24 810.64,390.35 813.09,387.32 815.55,384.25 818.00,377.57" fill="none" stroke="#d1495b" stroke-width="3"/>
<polyline points="82.00,488.00 84.45,488.00 84.45,488.00 86.91,488.00 86.91,488.00 89.36,488.00 89.36,488.00 91.81,488.00 91.81,488.00 94.27,488.00 94.27,488.00 96.72,488.00 96.72,488.00 99.17,488.00 99.17,488.00 101.63,488.00 101.63,488.00 104.08,488.00 104.08,488.00 106.53,488.00 106.53,488.00 108.99,488.00 108.99,488.00 111.44,488.00 111.44,488.00 113.89,488.00 113.89,488.00 116.35,488.00 116.35,488.00 118.80,488.00 118.80,488.00 121.25,488.00 121.25,488.00 123.71,488.00 123.71,488.00 126.16,488.00 126.16,488.00 128.61,488.00 128.61,488.00 131.07,488.00 131.07,488.00 133.52,488.00 133.52,488.00 135.97,488.00 135.97,488.00 138.43,488.00 138.43,488.00 140.88,488.00 140.88,488.00 143.33,488.00 143.33,488.00 145.79,488.00 145.79,488.00 148.24,488.00 148.24,488.00 150.69,488.00 150.69,488.00 153.15,488.00 153.15,488.00 155.60,488.00 155.60,488.00 158.05,488.00 158.05,488.00 160.51,488.00 160.51,488.00 162.96,488.00 162.96,488.00 165.41,488.00 165.41,488.00 167.87,488.00 167.87,488.00 170.32,488.00 170.32,488.00 172.77,488.00 172.77,488.00 175.23,488.00 175.23,488.00 177.68,488.00 177.68,488.00 180.13,488.00 180.13,488.00 182.59,488.00 182.59,488.00 185.04,488.00 185.04,488.00 187.49,488.00 187.49,488.00 189.95,488.00 189.95,488.00 192.40,488.00 192.40,488.00 194.85,488.00 194.85,488.00 197.31,488.00 197.31,488.00 199.76,488.00 199.76,488.00 202.21,488.00 202.21,488.00 204.67,488.00 204.67,488.00 207.12,488.00 207.12,488.00 209.57,488.00 209.57,488.00 212.03,488.00 212.03,488.00 214.48,488.00 214.48,488.00 216.93,488.00 216.93,488.00 219.39,488.00 219.39,488.00 221.84,488.00 221.84,488.00 224.29,488.00 224.29,488.00 226.75,488.00 226.75,488.00 229.20,488.00 229.20,488.00 231.65,488.00 231.65,488.00 234.11,488.00 234.11,488.00 236.56,488.00 236.56,488.00 239.01,488.00 239.01,488.00 241.47,488.00 241.47,488.00 243.92,488.00 243.92,488.00 246.37,488.00 246.37,488.00 248.83,488.00 248.83,488.00 251.28,488.00 251.28,488.00 253.73,488.00 253.73,488.00 256.19,488.00 256.19,488.00 258.64,488.00 258.64,488.00 261.09,488.00 261.09,488.00 263.55,488.00 263.55,488.00 266.00,488.00 266.00,488.00 268.45,488.00 268.45,488.00 270.91,488.00 270.91,488.00 273.36,488.00 273.36,488.00 275.81,488.00 275.81,488.00 278.27,488.00 278.27,488.00 280.72,488.00 280.72,488.00 283.17,488.00 283.17,488.00 285.63,488.00 285.63,488.00 288.08,488.00 288.08,488.00 290.53,488.00 290.53,488.00 292.99,488.00 292.99,488.00 295.44,488.00 295.44,488.00 297.89,488.00 297.89,488.00 300.35,488.00 300.35,488.00 302.80,488.00 302.80,488.00 305.25,488.00 305.25,488.00 307.71,488.00 307.71,488.00 310.16,488.00 310.16,488.00 312.61,488.00 312.61,488.00 315.07,488.00 315.07,488.00 317.52,488.00 317.52,488.00 319.97,488.00 319.97,488.00 322.43,488.00 322.43,488.00 324.88,488.00 324.88,488.00 327.33,488.00 327.33,488.00 329.79,488.00 329.79,488.00 332.24,488.00 332.24,488.00 334.69,488.00 334.69,488.00 337.15,488.00 337.15,488.00 339.60,488.00 339.60,488.00 342.05,488.00 342.05,488.00 344.51,488.00 344.51,488.00 346.96,488.00 346.96,488.00 349.41,488.00 349.41,488.00 351.87,488.00 351.87,488.00 354.32,488.00 354.32,488.00 356.77,488.00 356.77,488.00 359.23,488.00 359.23,488.00 361.68,488.00 361.68,488.00 364.13,488.00 364.13,488.00 366.59,488.00 366.59,488.00 369.04,488.00 369.04,488.00 371.49,488.00 371.49,488.00 373.95,488.00 373.95,488.00 376.40,488.00 376.40,488.00 378.85,488.00 378.85,488.00 381.31,488.00 381.31,488.00 383.76,488.00 383.76,488.00 386.21,488.00 386.21,488.00 388.67,488.00 388.67,488.00 391.12,488.00 391.12,488.00 393.57,488.00 393.57,488.00 396.03,488.00 396.03,488.00 398.48,488.00 398.48,488.00 400.93,488.00 400.93,488.00 403.39,488.00 403.39,488.00 405.84,488.00 405.84,488.00 408.29,488.00 408.29,488.00 410.75,488.00 410.75,488.00 413.20,488.00 413.20,488.00 415.65,488.00 415.65,488.00 418.11,488.00 418.11,488.00 420.56,488.00 420.56,488.00 423.01,488.00 423.01,488.00 425.47,488.00 425.47,488.00 427.92,488.00 427.92,488.00 430.37,488.00 430.37,488.00 432.83,488.00 432.83,488.00 435.28,488.00 435.28,488.00 437.73,488.00 437.73,488.00 440.19,488.00 440.19,488.00 442.64,488.00 442.64,488.00 445.09,488.00 445.09,488.00 447.55,488.00 447.55,488.00 450.00,488.00 450.00,488.00 452.45,488.00 452.45,488.00 454.91,488.00 454.91,488.00 457.36,488.00 457.36,488.00 459.81,488.00 459.81,488.00 462.27,488.00 462.27,488.00 464.72,488.00 464.72,488.00 467.17,488.00 467.17,488.00 469.63,488.00 469.63,488.00 472.08,488.00 472.08,488.00 474.53,488.00 474.53,488.00 476.99,488.00 476.99,488.00 479.44,488.00 479.44,488.00 481.89,488.00 481.89,488.00 484.35,488.00 484.35,488.00 486.80,488.00 486.80,488.00 489.25,488.00 489.25,488.00 491.71,488.00 491.71,488.00 494.16,488.00 494.16,488.00 496.61,488.00 496.61,488.00 499.07,488.00 499.07,488.00 501.52,488.00 501.52,488.00 503.97,488.00 503.97,488.00 506.43,488.00 506.43,488.00 508.88,488.00 508.88,488.00 511.33,488.00 511.33,488.00 513.79,488.00 513.79,488.00 516.24,488.00 516.24,488.00 518.69,488.00 518.69,488.00 521.15,488.00 521.15,488.00 523.60,488.00 523.60,488.00 526.05,488.00 526.05,488.00 528.51,488.00 528.51,488.00 530.96,488.00 530.96,488.00 533.41,488.00 533.41,488.00 535.87,488.00 535.87,488.00 538.32,488.00 538.32,488.00 540.77,488.00 540.77,488.00 543.23,488.00 543.23,488.00 545.68,488.00 545.68,488.00 548.13,488.00 548.13,488.00 550.59,488.00 550.59,488.00 553.04,488.00 553.04,488.00 555.49,488.00 555.49,488.00 557.95,488.00 557.95,488.00 560.40,488.00 560.40,488.00 562.85,488.00 562.85,488.00 565.31,488.00 565.31,488.00 567.76,488.00 567.76,488.00 570.21,488.00 570.21,488.00 572.67,488.00 572.67,488.00 575.12,488.00 575.12,488.00 577.57,488.00 577.57,488.00 580.03,488.00 580.03,488.00 582.48,488.00 582.48,488.00 584.93,488.00 584.93,488.00 587.39,488.00 587.39,488.00 589.84,488.00 589.84,488.00 592.29,488.00 592.29,488.00 594.75,488.00 594.75,488.00 597.20,488.00 597.20,488.00 599.65,488.00 599.65,488.00 602.11,488.00 602.11,488.00 604.56,488.00 604.56,488.00 607.01,488.00 607.01,479.55 609.47,479.55 609.47,416.15 611.92,416.15 611.92,416.15 614.37,416.15 614.37,416.15 616.83,416.15 616.83,416.15 619.28,416.15 619.28,416.15 621.73,416.15 621.73,416.15 624.19,416.15 624.19,416.15 626.64,416.15 626.64,416.15 629.09,416.15 629.09,416.15 631.55,416.15 631.55,416.15 634.00,416.15 634.00,416.15 636.45,416.15 636.45,416.15 638.91,416.15 638.91,411.92 641.36,411.92 641.36,403.47 643.81,403.47 643.81,403.47 646.27,403.47 646.27,403.47 648.72,403.47 648.72,403.47 651.17,403.47 651.17,403.47 653.63,403.47 653.63,403.47 656.08,403.47 656.08,403.47 658.53,403.47 658.53,403.47 660.99,403.47 660.99,403.47 663.44,403.47 663.44,403.47 665.89,403.47 665.89,335.85 668.35,335.85 668.35,335.85 670.80,335.85 670.80,323.17 673.25,323.17 673.25,264.00 675.71,264.00 675.71,264.00 678.16,264.00 678.16,264.00 680.61,264.00 680.61,264.00 683.07,264.00 683.07,264.00 685.52,264.00 685.52,264.00 687.97,264.00 687.97,264.00 690.43,264.00 690.43,264.00 692.88,264.00 692.88,264.00 695.33,264.00 695.33,264.00 697.79,264.00 697.79,264.00 700.24,264.00 700.24,264.00 702.69,264.00 702.69,264.00 705.15,264.00 705.15,264.00 707.60,264.00 707.60,264.00 710.05,264.00 710.05,264.00 712.51,264.00 712.51,264.00 714.96,264.00 714.96,264.00 717.41,264.00 717.41,264.00 719.87,264.00 719.87,264.00 722.32,264.00 722.32,264.00 724.77,264.00 724.77,264.00 727.23,264.00 727.23,264.00 729.68,264.00 729.68,264.00 732.13,264.00 732.13,264.00 734.59,264.00 734.59,264.00 737.04,264.00 737.04,264.00 739.49,264.00 739.49,264.00 741.95,264.00 741.95,264.00 744.40,264.00 744.40,264.00 746.85,264.00 746.85,264.00 749.31,264.00 749.31,264.00 751.76,264.00 751.76,264.00 754.21,264.00 754.21,264.00 756.67,264.00 756.67,255.55 759.12,255.55 759.12,187.92 761.57,187.92 761.57,183.70 764.03,183.70 764.03,183.70 766.48,183.70 766.48,183.70 768.93,183.70 768.93,183.70 771.39,183.70 771.39,40.00 773.84,40.00 773.84,40.00 776.29,40.00 776.29,40.00 778.75,40.00 778.75,40.00 781.20,40.00 781.20,40.00 783.65,40.00 783.65,40.00 786.11,40.00 786.11,40.00 788.56,40.00 788.56,40.00 791.01,40.00 791.01,40.00 793.47,40.00 793.47,40.00 795.92,40.00 795.92,40.00 798.37,40.00 798.37,40.00 800.83,40.00 800.83,40.00 803.28,40.00 803.28,40.00 805.73,40.00 805.73,40.00 808.19,40.00 808.19,40.00 810.64,40.00 810.64,40.00 813.09,40.00 813.09,40.00 815.55,40.00 815.55,40.00 818.00,40.00 818.00,40.00" fill="none" stroke="#4b8f29" stroke-width="3"/>
<text x="450.0" y="552" text-anchor="middle" font-size="20" font-family="Arial, sans-serif" fill="#111827">Top displacement (mm)</text>
<text x="24" y="280.0" text-anchor="middle" transform="rotate(-90 24 280.0)" font-size="20" font-family="Arial, sans-serif" fill="#111827">Force magnitude (N)</text>
<text x="880" y="280.0" text-anchor="middle" transform="rotate(90 880 280.0)" font-size="20" font-family="Arial, sans-serif" fill="#111827">Broken bonds</text>
<text x="102" y="64" font-size="18" font-family="Arial, sans-serif" fill="#1b6ca8">Top plate</text>
<text x="212" y="64" font-size="18" font-family="Arial, sans-serif" fill="#d1495b">Bottom plate</text>
<text x="352" y="64" font-size="18" font-family="Arial, sans-serif" fill="#4b8f29">Broken bonds</text>
<text x="72" y="45" text-anchor="end" font-size="17" fill="#30363d">10.32</text>
<text x="72" y="488" text-anchor="end" font-size="17" fill="#30363d">0</text>
<text x="828" y="45" text-anchor="start" font-size="17" fill="#30363d">106</text>
<text x="828" y="488" text-anchor="start" font-size="17" fill="#30363d">0</text>
</svg>
