<svg xmlns="http://www.w3.org/2000/svg" width="900" height="560" viewBox="0 0 900 560">
<rect width="100%" height="100%" fill="white"/>
<text x="450.0" y="26" text-anchor="middle" font-size="22" font-family="Arial, sans-serif" fill="#111827">SP-002 force-displacement and bond breakage</text>
<line x1="82" y1="40.00" x2="818" y2="40.00" stroke="#d9dee2" stroke-width="1"/><line x1="82" y1="129.60" x2="818" y2="129.60" stroke="#d9dee2" stroke-width="1"/><line x1="82" y1="219.20" x2="818" y2="219.20" stroke="#d9dee2" stroke-width="1"/><line x1="82" y1="308.80" x2="818" y2="308.80" stroke="#d9dee2" stroke-width="1"/><line x1="82" y1="398.40" x2="818" y2="398.40" stroke="#d9dee2" stroke-width="1"/><line x1="82" y1="488.00" x2="818" y2="488.00" stroke="#d9dee2" stroke-width="1"/><line x1="82.00" y1="40" x2="82.00" y2="488" stroke="#edf0f2" stroke-width="1"/><text x="82.00" y="526" text-anchor="middle" font-size="18" fill="#30363d">0.000</text><line x1="229.20" y1="40" x2="229.20" y2="488" stroke="#edf0f2" stroke-width="1"/><text x="229.20" y="526" text-anchor="middle" font-size="18" fill="#30363d">0.060</text><line x1="376.40" y1="40" x2="376.40" y2="488" stroke="#edf0f2" stroke-width="1"/><text x="376.40" y="526" text-anchor="middle" font-size="18" fill="#30363d">0.120</text><line x1="523.60" y1="40" x2="523.60" y2="488" stroke="#edf0f2" stroke-width="1"/><text x="523.60" y="526" text-anchor="middle" font-size="18" fill="#30363d">0.180</text><line x1="670.80" y1="40" x2="670.80" y2="488" stroke="#edf0f2" stroke-width="1"/><text x="670.80" y="526" text-anchor="middle" font-size="18" fill="#30363d">0.240</text><line x1="818.00" y1="40" x2="818.00" y2="488" stroke="#edf0f2" stroke-width="1"/><text x="818.00" y="526" text-anchor="middle" font-size="18" fill="#30363d">0.300</text>
<line x1="82" y1="40" x2="82" y2="488" stroke="#111827" stroke-width="1.5"/>
<line x1="82" y1="488" x2="818" y2="488" stroke="#111827" stroke-width="1.5"/>
<line x1="818" y1="40" x2="818" y2="488" stroke="#111827" stroke-width="1.5"/>
<polyline points="82.00,488.00 82.61,488.00 83.23,488.00 83.84,488.00 84.45,488.00 85.07,488.00 85.68,488.00 86.29,488.00 86.91,488.00 87.52,488.00 88.13,488.00 88.75,488.00 89.36,488.00 89.97,488.00 90.59,488.00 91.20,488.00 91.81,488.00 92.43,488.00 93.04,488.00 93.65,488.00 94.27,488.00 94.88,488.00 95.49,488.00 96.11,488.00 96.72,488.00 97.33,488.00 97.95,488.00 98.56,488.00 99.17,488.00 99.79,488.00 100.40,488.00 101.01,488.00 101.63,488.00 102.24,488.00 102.85,488.00 103.47,488.00 104.08,488.00 104.69,488.00 105.31,488.00 105.92,488.00 106.53,488.00 107.15,488.00 107.76,488.00 108.37,488.00 108.99,488.00 109.60,488.00 110.21,488.00 110.83,488.00 111.44,488.00 112.05,488.00 112.67,488.00 113.28,488.00 113.89,488.00 114.51,488.00 115.12,488.00 115.73,488.00 116.35,488.00 116.96,488.00 117.57,488.00 118.19,488.00 118.80,488.00 119.41,488.00 120.03,488.00 120.64,488.00 121.25,488.00 121.87,488.00 122.48,488.00 123.09,488.00 123.71,488.00 124.32,488.00 124.93,488.00 125.55,488.00 126.16,488.00 126.77,488.00 127.39,488.00 128.00,488.00 128.61,488.00 129.23,488.00 129.84,488.00 130.45,488.00 131.07,488.00 131.68,488.00 132.29,488.00 132.91,488.00 133.52,488.00 134.13,488.00 134.75,488.00 135.36,488.00 135.97,488.00 136.59,488.00 137.20,488.00 137.81,488.00 138.43,488.00 139.04,488.00 139.65,488.00 140.27,488.00 140.88,488.00 141.49,488.00 142.11,488.00 142.72,488.00 143.33,488.00 143.95,488.00 144.56,488.00 145.17,488.00 145.79,488.00 146.40,488.00 147.01,488.00 147.63,488.00 148.24,488.00 148.85,488.00 149.47,488.00 150.08,488.00 150.69,488.00 151.31,488.00 151.92,488.00 152.53,488.00 153.15,488.00 153.76,488.00 154.37,488.00 154.99,488.00 155.60,488.00 156.21,488.00 156.83,488.00 157.44,488.00 158.05,488.00 158.67,488.00 159.28,488.00 159.89,488.00 160.51,488.00 161.12,488.00 161.73,488.00 162.35,488.00 162.96,488.00 163.57,488.00 164.19,488.00 164.80,488.00 165.41,488.00 166.03,488.00 166.64,488.00 167.25,488.00 167.87,488.00 168.48,488.00 169.09,488.00 169.71,488.00 170.32,488.00 170.93,488.00 171.55,488.00 172.16,488.00 172.77,488.00 173.39,488.00 174.00,488.00 174.61,488.00 175.23,488.00 175.84,488.00 176.45,488.00 177.07,488.00 177.68,488.00 178.29,488.00 178.91,488.00 179.52,488.00 180.13,488.00 180.75,488.00 181.36,488.00 181.97,488.00 182.59,488.00 183.20,488.00 183.81,488.00 184.43,488.00 185.04,488.00 185.65,488.00 186.27,488.00 186.88,488.00 187.49,488.00 188.11,488.00 188.72,488.00 189.33,488.00 189.95,488.00 190.56,488.00 191.17,488.00 191.79,488.00 192.40,488.00 193.01,488.00 193.63,488.00 194.24,488.00 194.85,488.00 195.47,488.00 196.08,488.00 196.69,488.00 197.31,488.00 197.92,488.00 198.53,488.00 199.15,488.00 199.76,488.00 200.37,488.00 200.99,488.00 201.60,488.00 202.21,488.00 202.83,488.00 203.44,488.00 204.05,488.00 204.67,488.00 205.28,488.00 205.89,488.00 206.51,488.00 207.12,488.00 207.73,488.00 208.35,488.00 208.96,488.00 209.57,488.00 210.19,488.00 210.80,488.00 211.41,488.00 212.03,488.00 212.64,488.00 213.25,488.00 213.87,488.00 214.48,488.00 215.09,488.00 215.71,488.00 216.32,488.00 216.93,488.00 217.55,488.00 218.16,488.00 218.77,488.00 219.39,488.00 220.00,488.00 220.61,488.00 221.23,488.00 221.84,488.00 222.45,488.00 223.07,488.00 223.68,488.00 224.29,488.00 224.91,488.00 225.52,488.00 226.13,488.00 226.75,488.00 227.36,488.00 227.97,488.00 228.59,488.00 229.20,488.00 229.81,488.00 230.43,488.00 231.04,488.00 231.65,488.00 232.27,488.00 232.88,488.00 233.49,488.00 234.11,488.00 234.72,488.00 235.33,488.00 235.95,488.00 236.56,488.00 237.17,488.00 237.79,488.00 238.40,488.00 239.01,488.00 239.63,488.00 240.24,488.00 240.85,488.00 241.47,488.00 242.08,488.00 242.69,488.00 243.31,488.00 243.92,488.00 244.53,488.00 245.15,488.00 245.76,488.00 246.37,488.00 246.99,488.00 247.60,488.00 248.21,488.00 248.83,488.00 249.44,488.00 250.05,488.00 250.67,488.00 251.28,488.00 251.89,488.00 252.51,488.00 253.12,488.00 253.73,488.00 254.35,488.00 254.96,488.00 255.57,488.00 256.19,488.00 256.80,488.00 257.41,488.00 258.03,488.00 258.64,488.00 259.25,488.00 259.87,488.00 260.48,488.00 261.09,488.00 261.71,488.00 262.32,488.00 262.93,488.00 263.55,488.00 264.16,488.00 264.77,488.00 265.39,488.00 266.00,488.00 266.61,488.00 267.23,488.00 267.84,488.00 268.45,488.00 269.07,488.00 269.68,488.00 270.29,488.00 270.91,488.00 271.52,488.00 272.13,488.00 272.75,488.00 273.36,488.00 273.97,488.00 274.59,488.00 275.20,488.00 275.81,488.00 276.43,488.00 277.04,488.00 277.65,488.00 278.27,488.00 278.88,488.00 279.49,488.00 280.11,488.00 280.72,488.00 281.33,488.00 281.95,488.00 282.56,488.00 283.17,488.00 283.79,488.00 284.40,488.00 285.01,488.00 285.63,488.00 286.24,488.00 286.85,488.00 287.47,488.00 288.08,488.00 288.69,488.00 289.31,488.00 289.92,488.00 290.53,488.00 291.15,488.00 291.76,488.00 292.37,488.00 292.99,488.00 293.60,488.00 294.21,488.00 294.83,488.00 295.44,488.00 296.05,488.00 296.67,488.00 297.28,488.00 297.89,488.00 298.51,488.00 299.12,488.00 299.73,488.00 300.35,488.00 300.96,488.00 301.57,488.00 302.19,488.00 302.80,488.00 303.41,488.00 304.03,488.00 304.64,488.00 305.25,488.00 305.87,488.00 306.48,488.00 307.09,488.00 307.71,488.00 308.32,488.00 308.93,488.00 309.55,488.00 310.16,488.00 310.77,488.00 311.39,488.00 312.00,488.00 312.61,488.00 313.23,488.00 313.84,488.00 314.45,488.00 315.07,488.00 315.68,488.00 316.29,488.00 316.91,488.00 317.52,488.00 318.13,488.00 318.75,488.00 319.36,488.00 319.97,488.00 320.59,488.00 321.20,488.00 321.81,488.00 322.43,488.00 323.04,488.00 323.65,488.00 324.27,488.00 324.88,488.00 325.49,488.00 326.11,488.00 326.72,488.00 327.33,488.00 327.95,487.05 328.56,485.51 329.17,483.65 329.79,481.55 330.40,479.27 331.01,476.83 331.63,474.27 332.24,471.59 332.85,468.81 333.47,466.69 334.08,463.92 334.69,461.08 335.31,458.16 335.92,455.17 336.53,452.13 337.15,449.03 337.76,445.88 338.37,442.68 338.99,439.45 339.60,436.17 340.21,432.85 340.83,434.30 341.44,429.16 342.05,487.98 342.67,487.98 343.28,487.98 343.89,487.51 344.51,486.28 345.12,484.72 345.73,482.94 346.35,480.98 346.96,478.89 347.57,476.69 348.19,474.39 348.80,472.00 349.41,469.53 350.03,466.16 350.64,462.25 351.25,458.02 351.87,453.54 352.48,448.86 353.09,444.02 353.71,439.02 354.32,433.90 354.93,428.65 355.55,423.30 356.16,417.84 356.77,459.03 357.39,456.39 358.00,453.78 358.61,451.03 359.23,448.17 359.84,445.22 360.45,442.20 361.07,439.91 361.68,437.15 362.29,487.93 362.91,487.17 363.52,486.58 364.13,485.96 364.75,485.28 365.36,484.54 365.97,483.76 366.59,482.93 367.20,482.06 367.81,481.15 368.43,480.22 369.04,479.26 369.65,478.27 370.27,477.26 370.88,476.23 371.49,474.91 372.11,473.31 372.72,471.55 373.33,469.66 373.95,467.67 374.56,465.59 375.17,463.43 375.79,461.20 376.40,458.90 377.01,456.54 377.63,454.13 378.24,451.68 378.85,449.19 379.47,446.66 380.08,444.03 380.69,440.69 381.31,436.94 381.92,434.30 382.53,435.07 383.15,435.01 383.76,436.37 384.37,442.17 384.99,447.70 385.60,454.00 386.21,456.57 386.83,457.23 387.44,457.00 388.05,456.34 388.67,455.48 389.28,454.53 389.89,453.55 390.51,452.56 391.12,451.58 391.73,450.63 392.35,449.70 392.96,448.80 393.57,447.93 394.19,447.09 394.80,446.29 395.41,445.52 396.03,444.79 396.64,444.10 397.25,443.45 397.87,442.78 398.48,442.07 399.09,441.34 399.71,440.61 400.32,439.80 400.93,438.98 401.55,437.90 402.16,436.65 402.77,435.26 403.39,433.75 404.00,432.14 404.61,430.42 405.23,428.60 405.84,426.67 406.45,424.65 407.07,422.52 407.68,420.28 408.29,417.95 408.91,415.51 409.52,414.53 410.13,414.44 410.75,413.35 411.36,411.50 411.97,409.04 412.59,406.54 413.20,403.03 413.81,399.30 414.43,395.41 415.04,391.31 415.65,387.00 416.27,382.50 416.88,377.82 417.49,372.97 418.11,367.96 418.72,362.79 419.33,357.47 419.95,352.01 420.56,346.39 421.17,340.63 421.79,334.78 422.40,355.98 423.01,423.75 423.63,451.05 424.24,460.00 424.85,464.50 425.47,466.97 426.08,468.28 426.69,468.91 427.31,470.14 427.92,466.10 428.53,466.84 429.15,466.38 429.76,465.82 430.37,468.85 430.99,466.85 431.60,465.71 432.21,464.83 432.83,464.03 433.44,463.26 434.05,462.50 434.67,461.74 435.28,460.99 435.89,460.25 436.51,459.51 437.12,458.78 437.73,458.07 438.35,457.48 438.96,457.46 439.57,457.28 440.19,457.01 440.80,456.69 441.41,456.36 442.03,456.04 442.64,455.73 443.25,455.44 443.87,455.18 444.48,454.94 445.09,454.73 445.71,454.55 446.32,454.39 446.93,454.26 447.55,454.16 448.16,454.09 448.77,453.95 449.39,453.42 450.00,452.56 450.61,451.44 451.23,450.09 451.84,448.43 452.45,446.42 453.07,444.11 453.68,441.57 454.29,438.81 454.91,435.58 455.52,431.92 456.13,428.09 456.75,424.14 457.36,420.09 457.97,415.95 458.59,411.73 459.20,407.41 459.81,402.87 460.43,398.16 461.04,393.31 461.65,388.36 462.27,383.26 462.88,378.02 463.49,372.65 464.11,367.18 464.72,361.61 465.33,355.94 465.95,351.51 466.56,347.08 467.17,341.73 467.79,336.10 468.40,330.34 469.01,324.47 469.63,322.52 470.24,334.00 470.85,333.03 471.47,329.39 472.08,325.92 472.69,321.32 473.31,419.30 473.92,400.91 474.53,398.20 475.15,397.34 475.76,396.80 476.37,396.34 476.99,395.99 477.60,395.77 478.21,395.68 478.83,395.72 479.44,395.88 480.05,396.13 480.67,396.53 481.28,397.03 481.89,397.63 482.51,398.33 483.12,399.12 483.73,399.99 484.35,400.93 484.96,401.94 485.57,403.00 486.19,404.11 486.80,405.27 487.41,406.46 488.03,407.68 488.64,408.92 489.25,410.19 489.87,411.47 490.48,417.84 491.09,414.18 491.71,415.44 492.32,416.74 492.93,418.06 493.55,419.38 494.16,420.69 494.77,421.47 495.39,422.24 496.00,422.91 496.61,423.50 497.23,424.00 497.84,424.44 498.45,424.94 499.07,425.52 499.68,428.33 500.29,431.66 500.91,434.87 501.52,437.61 502.13,439.68 502.75,441.04 503.36,441.79 503.97,442.06 504.59,442.02 505.20,441.75 505.81,441.42 506.43,441.01 507.04,440.52 507.65,439.97 508.27,439.38 508.88,438.76 509.49,438.10 510.11,437.41 510.72,436.69 511.33,435.89 511.95,434.97 512.56,433.94 513.17,432.56 513.79,430.81 514.40,428.82 515.01,426.44 515.63,423.82 516.24,421.02 516.85,418.03 517.47,414.87 518.08,411.54 518.69,408.06 519.31,404.44 519.92,400.68 520.53,396.79 521.15,392.76 521.76,388.60 522.37,384.30 522.99,379.94 523.60,375.44 524.21,370.80 524.83,366.03 525.44,361.13 526.05,356.10 526.67,350.95 527.28,345.76 527.89,340.49 528.51,335.17 529.12,329.81 529.73,324.41 530.35,318.91 530.96,313.16 531.57,307.27 532.19,301.26 532.80,295.15 533.41,289.65 534.03,283.99 534.64,277.31 535.25,270.48 535.87,315.51 536.48,315.62 537.09,308.91 537.71,301.86 538.32,295.00 538.93,288.09 539.55,353.02 540.16,345.14 540.77,344.46 541.39,344.76 542.00,344.71 542.61,343.84 543.23,342.24 543.84,340.00 544.45,337.25 545.07,334.07 545.68,330.29 546.29,326.03 546.91,321.54 547.52,316.95 548.13,312.40 548.75,309.59 549.36,304.90 549.97,300.23 550.59,295.43 551.20,379.44 551.81,360.55 552.43,355.65 553.04,352.51 553.65,349.67 554.27,346.84 554.88,343.60 555.49,340.12 556.11,336.72 556.72,333.42 557.33,330.20 557.95,375.04 558.56,379.04 559.17,383.70 559.79,388.32 560.40,392.52 561.01,395.48 561.63,397.63 562.24,399.08 562.85,399.85 563.47,400.17 564.08,400.19 564.69,399.72 565.31,398.66 565.92,397.24 566.53,395.49 567.15,393.41 567.76,390.98 568.37,388.30 568.99,385.44 569.60,382.42 570.21,379.28 570.83,376.02 571.44,372.46 572.05,368.69 572.67,364.73 573.28,360.62 573.89,356.37 574.51,351.99 575.12,347.49 575.73,342.92 576.35,407.48 576.96,418.78 577.57,421.63 578.19,422.42 578.80,422.26 579.41,421.26 580.03,419.30 580.64,416.58 581.25,413.24 581.87,409.41 582.48,405.16 583.09,400.52 583.71,395.57 584.32,390.38 584.93,384.98 585.55,379.39 586.16,373.52 586.77,397.97 587.39,398.50 588.00,395.71 588.61,391.50 589.23,386.34 589.84,380.67 590.45,374.67 591.07,368.44 591.68,362.05 592.29,355.49 592.91,348.78 593.52,341.91 594.13,334.91 594.75,327.76 595.36,320.49 595.97,313.08 596.59,305.55 597.20,297.90 597.81,290.13 598.43,312.53 599.04,303.74 599.65,297.34 600.27,290.73 600.88,283.86 601.49,276.72 602.11,269.35 602.72,261.75 603.33,253.93 603.95,245.97 604.56,237.91 605.17,229.77 605.79,223.22 606.40,215.20 607.01,206.72 607.63,217.48 608.24,209.69 608.85,204.54 609.47,195.12 610.08,204.71 610.69,361.72 611.31,359.08 611.92,359.37 612.53,357.48 613.15,354.74 613.76,351.56 614.37,348.06 614.99,344.28 615.60,340.33 616.21,336.41 616.83,332.14 617.44,330.57 618.05,326.59 618.67,322.65 619.28,379.41 619.89,377.89 620.51,377.77 621.12,377.29 621.73,376.41 622.35,375.23 622.96,373.87 623.57,372.37 624.19,370.77 624.80,369.11 625.41,367.38 626.03,365.62 626.64,363.81 627.25,361.96 627.87,359.95 628.48,357.53 629.09,354.87 629.71,352.23 630.32,350.11 630.93,358.09 631.55,362.97 632.16,362.10 632.77,360.31 633.39,358.08 634.00,355.49 634.61,352.25 635.23,348.73 635.84,345.06 636.45,341.09 637.07,336.57 637.68,331.24 638.29,338.39 638.91,374.28 639.52,389.88 640.13,387.02 640.75,381.92 641.36,376.35 641.97,370.47 642.59,364.40 643.20,358.18 643.81,351.85 644.43,345.44 645.04,338.79 645.65,331.81 646.27,324.64 646.88,317.32 647.49,309.77 648.11,301.96 648.72,293.96 649.33,285.81 649.95,277.53 650.56,269.40 651.17,261.21 651.79,252.90 652.40,244.46 653.01,235.89 653.63,227.27 654.24,218.58 654.85,209.67 655.47,200.57 656.08,191.31 656.69,181.92 657.31,175.41 657.92,269.93 658.53,285.38 659.15,286.78 659.76,285.53 660.37,283.40 660.99,280.70 661.60,277.67 662.21,274.49 662.83,271.11 663.44,267.17 664.05,262.37 664.67,257.28 665.28,251.95 665.89,246.43 666.51,240.76 667.12,234.95 667.73,305.75 668.35,330.60 668.96,344.24 669.57,340.23 670.19,335.18 670.80,335.90 671.41,339.01 672.03,334.81 672.64,329.05 673.25,322.98 673.87,316.74 674.48,310.37 675.09,303.96 675.71,297.22 676.32,290.30 676.93,334.55 677.55,343.32 678.16,345.40 678.77,344.94 679.39,342.08 680.00,337.70 680.61,332.19 681.23,325.85 681.84,318.95 682.45,311.59 683.07,303.78 683.68,295.70 684.29,287.38 684.91,278.85 685.52,270.27 686.13,261.50 686.75,252.57 687.36,243.49 687.97,234.28 688.59,274.10 689.20,275.66 689.81,272.47 690.43,268.54 691.04,263.72 691.65,257.89 692.27,251.40 692.88,244.46 693.49,237.29 694.11,230.02 694.72,222.81 695.33,215.59 695.95,208.22 696.56,200.46 697.17,192.35 697.79,183.80 698.40,174.99 699.01,165.92 699.63,156.65 700.24,147.22 700.85,137.63 701.47,128.03 702.08,170.40 702.69,152.44 703.31,143.04 703.92,133.47 704.53,123.65 705.15,113.72 705.76,105.49 706.37,95.45 706.99,85.36 707.60,79.68 708.21,71.82 708.83,61.78 709.44,51.76 710.05,54.30 710.67,133.59 711.28,149.45 711.89,155.16 712.51,154.60 713.12,150.67 713.73,144.90 714.35,138.22 714.96,130.90 715.57,123.16 716.19,115.11 716.80,106.90 717.41,98.62 718.03,90.29 718.64,81.85 719.25,73.33 719.87,66.00 720.48,57.37 721.09,48.70 721.71,40.00 722.32,175.23 722.93,171.57 723.55,169.91 724.16,167.73 724.77,165.06 725.39,162.47 726.00,226.98 726.61,267.71 727.23,277.77 727.84,284.04 728.45,288.36 729.07,375.93 729.68,389.04 730.29,396.21 730.91,402.57 731.52,408.00 732.13,412.54 732.75,416.42 733.36,419.69 733.97,422.57 734.59,426.23 735.20,430.16 735.81,432.06 736.43,432.76 737.04,433.16 737.65,433.48 738.27,433.91 738.88,434.45 739.49,434.94 740.11,435.32 740.72,435.70 741.33,435.91 741.95,436.13 742.56,436.52 743.17,437.61 743.79,438.41 744.40,439.02 745.01,439.29 745.63,439.37 746.24,439.32 746.85,439.17 747.47,438.92 748.08,438.57 748.69,438.17 749.31,437.71 749.92,437.17 750.53,436.57 751.15,435.90 751.76,435.10 752.37,434.16 752.99,433.09 753.60,431.94 754.21,430.68 754.83,429.35 755.44,427.95 756.05,426.49 756.67,424.97 757.28,423.39 757.89,421.76 758.51,420.08 759.12,418.38 759.73,416.53 760.35,414.40 760.96,412.13 761.57,409.75 762.19,407.14 762.80,404.55 763.41,401.99 764.03,399.48 764.64,397.01 765.25,394.80 765.87,393.09 766.48,390.99 767.09,388.79 767.71,386.62 768.32,384.48 768.93,382.37 769.55,445.39 770.16,443.58 770.77,443.55 771.39,444.07 772.00,444.95 772.61,445.48 773.23,445.66 773.84,445.53 774.45,445.19 775.07,444.70 775.68,444.15 776.29,443.58 776.91,442.91 777.52,442.23 778.13,441.54 778.75,440.88 779.36,440.25 779.97,439.64 780.59,439.07 781.20,438.49 781.81,437.90 782.43,437.39 783.04,436.77 783.65,436.03 784.27,435.09 784.88,434.00 785.49,432.78 786.11,431.45 786.72,430.12 787.33,428.27 787.95,426.27 788.56,424.21 789.17,422.07 789.79,419.98 790.40,417.95 791.01,416.01 791.63,414.52 792.24,414.12 792.85,415.08 793.47,416.63 794.08,416.73 794.69,416.63 795.31,416.43 795.92,416.07 796.53,415.60 797.15,415.07 797.76,414.53 798.37,414.01 798.99,413.54 799.60,413.17 800.21,412.76 800.83,412.37 801.44,411.65 802.05,410.60 802.67,408.99 803.28,407.22 803.89,405.33 804.51,403.34 805.12,401.27 805.73,399.12 806.35,396.84 806.96,394.43 807.57,391.71 808.19,388.96 808.80,386.36 809.41,383.89 810.03,381.29 810.64,378.36 811.25,375.14 811.87,371.73 812.48,368.16 813.09,364.18 813.71,360.08 814.32,355.78 814.93,351.31 815.55,346.72 816.16,342.02 816.77,337.21 817.39,332.28 818.00,327.09" fill="none" stroke="#1b6ca8" stroke-width="3"/>
<polyline points="82.00,488.00 82.61,488.00 83.23,488.00 83.84,488.00 84.45,488.00 85.07,488.00 85.68,488.00 86.29,488.00 86.91,488.00 87.52,488.00 88.13,488.00 88.75,488.00 89.36,488.00 89.97,488.00 90.59,488.00 91.20,488.00 91.81,488.00 92.43,488.00 93.04,488.00 93.65,488.00 94.27,488.00 94.88,488.00 95.49,488.00 96.11,488.00 96.72,488.00 97.33,488.00 97.95,488.00 98.56,488.00 99.17,488.00 99.79,488.00 100.40,488.00 101.01,488.00 101.63,488.00 102.24,488.00 102.85,488.00 103.47,488.00 104.08,488.00 104.69,488.00 105.31,488.00 105.92,488.00 106.53,488.00 107.15,488.00 107.76,488.00 108.37,488.00 108.99,488.00 109.60,488.00 110.21,488.00 110.83,488.00 111.44,488.00 112.05,488.00 112.67,488.00 113.28,488.00 113.89,488.00 114.51,488.00 115.12,488.00 115.73,488.00 116.35,488.00 116.96,488.00 117.57,488.00 118.19,488.00 118.80,488.00 119.41,488.00 120.03,488.00 120.64,488.00 121.25,488.00 121.87,488.00 122.48,488.00 123.09,488.00 123.71,488.00 124.32,488.00 124.93,488.00 125.55,488.00 126.16,488.00 126.77,488.00 127.39,488.00 128.00,488.00 128.61,488.00 129.23,488.00 129.84,488.00 130.45,488.00 131.07,488.00 131.68,488.00 132.29,488.00 132.91,488.00 133.52,488.00 134.13,488.00 134.75,488.00 135.36,488.00 135.97,488.00 136.59,488.00 137.20,488.00 137.81,488.00 138.43,488.00 139.04,488.00 139.65,488.00 140.27,488.00 140.88,488.00 141.49,488.00 142.11,488.00 142.72,488.00 143.33,488.00 143.95,488.00 144.56,488.00 145.17,488.00 145.79,488.00 146.40,488.00 147.01,488.00 147.63,488.00 148.24,488.00 148.85,488.00 149.47,488.00 150.08,488.00 150.69,488.00 151.31,488.00 151.92,488.00 152.53,488.00 153.15,488.00 153.76,488.00 154.37,488.00 154.99,488.00 155.60,488.00 156.21,488.00 156.83,488.00 157.44,488.00 158.05,488.00 158.67,488.00 159.28,488.00 159.89,488.00 160.51,488.00 161.12,488.00 161.73,488.00 162.35,488.00 162.96,488.00 163.57,488.00 164.19,488.00 164.80,488.00 165.41,488.00 166.03,488.00 166.64,488.00 167.25,488.00 167.87,488.00 168.48,488.00 169.09,488.00 169.71,488.00 170.32,488.00 170.93,488.00 171.55,488.00 172.16,488.00 172.77,488.00 173.39,488.00 174.00,488.00 174.61,488.00 175.23,488.00 175.84,488.00 176.45,488.00 177.07,488.00 177.68,488.00 178.29,488.00 178.91,488.00 179.52,488.00 180.13,488.00 180.75,488.00 181.36,488.00 181.97,488.00 182.59,488.00 183.20,488.00 183.81,488.00 184.43,488.00 185.04,488.00 185.65,488.00 186.27,488.00 186.88,488.00 187.49,488.00 188.11,488.00 188.72,488.00 189.33,488.00 189.95,488.00 190.56,488.00 191.17,488.00 191.79,488.00 192.40,488.00 193.01,488.00 193.63,488.00 194.24,488.00 194.85,488.00 195.47,488.00 196.08,488.00 196.69,488.00 197.31,488.00 197.92,488.00 198.53,488.00 199.15,488.00 199.76,488.00 200.37,488.00 200.99,488.00 201.60,488.00 202.21,488.00 202.83,488.00 203.44,488.00 204.05,488.00 204.67,488.00 205.28,488.00 205.89,488.00 206.51,488.00 207.12,488.00 207.73,488.00 208.35,488.00 208.96,488.00 209.57,488.00 210.19,488.00 210.80,488.00 211.41,488.00 212.03,488.00 212.64,488.00 213.25,488.00 213.87,488.00 214.48,488.00 215.09,488.00 215.71,488.00 216.32,488.00 216.93,488.00 217.55,488.00 218.16,488.00 218.77,488.00 219.39,488.00 220.00,488.00 220.61,488.00 221.23,488.00 221.84,488.00 222.45,488.00 223.07,488.00 223.68,488.00 224.29,488.00 224.91,488.00 225.52,488.00 226.13,488.00 226.75,488.00 227.36,488.00 227.97,488.00 228.59,488.00 229.20,488.00 229.81,488.00 230.43,488.00 231.04,488.00 231.65,488.00 232.27,488.00 232.88,488.00 233.49,488.00 234.11,488.00 234.72,488.00 235.33,488.00 235.95,488.00 236.56,488.00 237.17,488.00 237.79,488.00 238.40,488.00 239.01,488.00 239.63,488.00 240.24,488.00 240.85,488.00 241.47,488.00 242.08,488.00 242.69,488.00 243.31,488.00 243.92,488.00 244.53,488.00 245.15,488.00 245.76,488.00 246.37,488.00 246.99,488.00 247.60,488.00 248.21,488.00 248.83,488.00 249.44,488.00 250.05,488.00 250.67,488.00 251.28,488.00 251.89,488.00 252.51,488.00 253.12,488.00 253.73,488.00 254.35,488.00 254.96,488.00 255.57,488.00 256.19,488.00 256.80,488.00 257.41,488.00 258.03,488.00 258.64,488.00 259.25,488.00 259.87,488.00 260.48,488.00 261.09,488.00 261.71,488.00 262.32,488.00 262.93,488.00 263.55,488.00 264.16,488.00 264.77,488.00 265.39,488.00 266.00,488.00 266.61,488.00 267.23,488.00 267.84,488.00 268.45,488.00 269.07,488.00 269.68,488.00 270.29,488.00 270.91,488.00 271.52,488.00 272.13,488.00 272.75,488.00 273.36,488.00 273.97,488.00 274.59,488.00 275.20,488.00 275.81,488.00 276.43,488.00 277.04,488.00 277.65,488.00 278.27,488.00 278.88,488.00 279.49,488.00 280.11,488.00 280.72,488.00 281.33,488.00 281.95,488.00 282.56,488.00 283.17,488.00 283.79,488.00 284.40,488.00 285.01,488.00 285.63,488.00 286.24,488.00 286.85,488.00 287.47,488.00 288.08,488.00 288.69,488.00 289.31,488.00 289.92,488.00 290.53,488.00 291.15,488.00 291.76,488.00 292.37,488.00 292.99,488.00 293.60,488.00 294.21,488.00 294.83,488.00 295.44,488.00 296.05,488.00 296.67,488.00 297.28,488.00 297.89,488.00 298.51,488.00 299.12,488.00 299.73,488.00 300.35,488.00 300.96,488.00 301.57,488.00 302.19,488.00 302.80,488.00 303.41,488.00 304.03,488.00 304.64,488.00 305.25,488.00 305.87,488.00 306.48,488.00 307.09,488.00 307.71,488.00 308.32,488.00 308.93,488.00 309.55,488.00 310.16,488.00 310.77,488.00 311.39,488.00 312.00,488.00 312.61,488.00 313.23,488.00 313.84,488.00 314.45,488.00 315.07,488.00 315.68,488.00 316.29,488.00 316.91,488.00 317.52,488.00 318.13,488.00 318.75,488.00 319.36,488.00 319.97,488.00 320.59,488.00 321.20,488.00 321.81,488.00 322.43,488.00 323.04,488.00 323.65,488.00 324.27,488.00 324.88,488.00 325.49,488.00 326.11,488.00 326.72,488.00 327.33,488.00 327.95,487.48 328.56,486.15 329.17,484.41 329.79,482.40 330.40,480.20 331.01,477.82 331.63,475.31 332.24,472.68 332.85,469.94 333.47,467.55 334.08,465.02 334.69,462.22 335.31,459.34 335.92,456.38 336.53,453.36 337.15,450.28 337.76,447.15 338.37,443.97 338.99,440.75 339.60,437.49 340.21,434.19 340.83,430.85 341.44,430.24 342.05,480.45 342.67,487.46 343.28,487.96 343.89,487.79 344.51,486.79 345.12,485.36 345.73,483.66 346.35,481.77 346.96,479.73 347.57,477.57 348.19,475.31 348.80,472.96 349.41,470.53 350.03,467.55 350.64,463.84 351.25,459.73 351.87,455.35 352.48,450.75 353.09,445.97 353.71,441.03 354.32,435.96 354.93,430.76 355.55,425.45 356.16,420.03 356.77,457.21 357.39,457.23 358.00,454.85 358.61,452.18 359.23,449.36 359.84,446.45 360.45,443.46 361.07,440.74 361.68,438.19 362.29,453.59 362.91,485.03 363.52,486.69 364.13,486.25 364.75,485.60 365.36,484.88 365.97,484.12 366.59,483.30 367.20,482.45 367.81,481.55 368.43,480.63 369.04,479.68 369.65,478.70 370.27,477.70 370.88,476.68 371.49,475.49 372.11,473.98 372.72,472.29 373.33,470.45 373.95,468.50 374.56,466.45 375.17,464.33 375.79,462.13 376.40,459.86 377.01,457.52 377.63,455.14 378.24,452.71 378.85,450.23 379.47,447.72 380.08,445.15 380.69,442.07 381.31,438.47 381.92,439.16 382.53,441.85 383.15,451.81 383.76,441.74 384.37,467.13 384.99,475.97 385.60,476.20 386.21,469.46 386.83,465.54 387.44,463.09 388.05,461.34 388.67,459.94 389.28,458.73 389.89,457.61 390.51,456.56 391.12,455.56 391.73,454.59 392.35,453.65 392.96,452.75 393.57,451.88 394.19,451.04 394.80,450.23 395.41,449.46 396.03,448.73 396.64,448.03 397.25,447.37 397.87,446.73 398.48,446.07 399.09,445.38 399.71,444.56 400.32,444.10 400.93,442.96 401.55,441.71 402.16,440.39 402.77,438.99 403.39,437.49 404.00,435.89 404.61,434.19 405.23,432.38 405.84,430.47 406.45,428.46 407.07,426.35 407.68,424.13 408.29,421.81 408.91,419.39 409.52,421.36 410.13,422.41 410.75,420.44 411.36,417.87 411.97,415.02 412.59,411.38 413.20,408.19 413.81,404.69 414.43,400.86 415.04,396.77 415.65,392.47 416.27,387.97 416.88,383.30 417.49,378.46 418.11,373.46 418.72,368.30 419.33,362.99 419.95,357.54 420.56,351.94 421.17,346.21 421.79,340.38 422.40,371.25 423.01,487.51 423.63,485.06 424.24,483.58 424.85,482.62 425.47,481.88 426.08,481.21 426.69,480.56 427.31,479.78 427.92,478.62 428.53,477.54 429.15,476.51 429.76,475.56 430.37,475.10 430.99,474.86 431.60,474.22 432.21,473.50 432.83,472.74 433.44,471.98 434.05,471.22 434.67,470.46 435.28,469.71 435.89,468.97 436.51,468.25 437.12,467.53 437.73,466.83 438.35,468.40 438.96,468.10 439.57,467.71 440.19,467.33 440.80,466.96 441.41,466.62 442.03,466.31 442.64,466.02 443.25,465.77 443.87,465.55 444.48,465.35 445.09,465.19 445.71,465.05 446.32,464.94 446.93,464.86 447.55,464.80 448.16,464.77 448.77,464.33 449.39,463.31 450.00,462.03 450.61,460.55 451.23,458.79 451.84,456.27 452.45,453.49 453.07,450.56 453.68,447.49 454.29,444.28 454.91,440.99 455.52,437.47 456.13,433.74 456.75,429.87 457.36,425.86 457.97,421.75 458.59,417.54 459.20,413.17 459.81,408.53 460.43,403.76 461.04,398.89 461.65,393.91 462.27,388.72 462.88,383.42 463.49,378.02 464.11,372.52 464.72,366.92 465.33,361.24 465.95,358.65 466.56,352.95 467.17,347.33 467.79,341.59 468.40,335.77 469.01,329.87 469.63,356.40 470.24,347.04 470.85,340.97 471.47,335.76 472.08,331.89 472.69,326.96 473.31,338.56 473.92,398.87 474.53,404.24 475.15,404.84 475.76,404.43 476.37,403.92 476.99,403.52 477.60,403.26 478.21,403.11 478.83,403.09 479.44,403.19 480.05,403.40 480.67,403.72 481.28,404.15 481.89,404.67 482.51,405.29 483.12,405.99 483.73,406.77 484.35,407.61 484.96,408.52 485.57,409.49 486.19,410.50 486.80,411.56 487.41,412.66 488.03,413.78 488.64,414.93 489.25,416.10 489.87,417.30 490.48,418.49 491.09,419.65 491.71,420.96 492.32,422.22 492.93,423.46 493.55,424.71 494.16,425.97 494.77,426.99 495.39,427.81 496.00,428.51 496.61,429.10 497.23,429.62 497.84,430.06 498.45,430.45 499.07,430.86 499.68,431.85 500.29,433.90 500.91,436.32 501.52,438.71 502.13,440.80 502.75,442.44 503.36,443.60 503.97,444.31 504.59,444.66 505.20,444.73 505.81,444.62 506.43,444.38 507.04,444.04 507.65,443.64 508.27,443.17 508.88,442.66 509.49,442.10 510.11,441.50 510.72,440.85 511.33,440.06 511.95,439.18 512.56,438.20 513.17,437.04 513.79,435.50 514.40,433.65 515.01,431.45 515.63,428.93 516.24,426.17 516.85,423.20 517.47,420.04 518.08,416.72 518.69,413.25 519.31,409.64 519.92,405.88 520.53,401.99 521.15,397.96 521.76,393.80 522.37,389.50 522.99,385.10 523.60,380.59 524.21,375.95 524.83,371.18 525.44,366.28 526.05,361.24 526.67,356.08 527.28,350.84 527.89,345.57 528.51,340.25 529.12,334.88 529.73,329.48 530.35,323.84 530.96,317.97 531.57,311.99 532.19,305.94 532.80,299.71 533.41,296.53 534.03,288.34 534.64,281.49 535.25,274.60 535.87,324.72 536.48,317.62 537.09,312.79 537.71,306.18 538.32,299.34 538.93,292.43 539.55,310.48 540.16,334.53 540.77,340.97 541.39,343.26 542.00,343.80 542.61,343.54 543.23,342.56 543.84,340.82 544.45,338.53 545.07,335.71 545.68,332.26 546.29,328.26 546.91,323.98 547.52,319.54 548.13,315.04 548.75,311.85 549.36,307.54 549.97,302.98 550.59,298.34 551.20,306.33 551.81,354.83 552.43,356.40 553.04,354.57 553.65,352.12 554.27,349.52 554.88,346.84 555.49,344.02 556.11,341.11 556.72,338.12 557.33,335.09 557.95,378.52 558.56,386.59 559.17,391.35 559.79,395.40 560.40,398.98 561.01,401.75 561.63,403.52 562.24,404.47 562.85,404.84 563.47,404.97 564.08,404.88 564.69,404.50 565.31,403.57 565.92,402.20 566.53,400.45 567.15,398.39 567.76,396.04 568.37,393.48 568.99,390.74 569.60,387.87 570.21,384.89 570.83,381.81 571.44,378.54 572.05,374.95 572.67,371.16 573.28,367.20 573.89,363.08 574.51,358.81 575.12,354.43 575.73,349.96 576.35,434.40 576.96,431.32 577.57,431.58 578.19,431.65 578.80,431.18 579.41,429.42 580.03,426.83 580.64,423.67 581.25,420.05 581.87,416.02 582.48,411.61 583.09,406.88 583.71,401.91 584.32,396.69 584.93,391.27 585.55,385.66 586.16,379.59 586.77,411.47 587.39,407.59 588.00,403.51 588.61,398.53 589.23,393.00 589.84,387.12 590.45,380.97 591.07,374.67 591.68,368.23 592.29,361.63 592.91,354.88 593.52,347.99 594.13,340.96 594.75,333.79 595.36,326.49 595.97,319.06 596.59,311.51 597.20,303.84 597.81,296.06 598.43,311.78 599.04,309.42 599.65,303.19 600.27,296.46 600.88,289.48 601.49,282.25 602.11,274.79 602.72,267.11 603.33,259.24 603.95,251.26 604.56,243.20 605.17,235.05 605.79,228.85 606.40,220.38 607.01,211.82 607.63,224.70 608.24,214.64 608.85,208.04 609.47,199.96 610.08,212.93 610.69,338.96 611.31,359.70 611.92,362.01 612.53,361.15 613.15,358.69 613.76,355.58 614.37,352.11 614.99,348.34 615.60,344.39 616.21,340.16 616.83,336.21 617.44,334.28 618.05,330.62 618.67,327.51 619.28,378.19 619.89,383.23 620.51,383.25 621.12,382.43 621.73,381.27 622.35,379.91 622.96,378.41 623.57,376.82 624.19,375.17 624.80,373.46 625.41,371.72 626.03,369.94 626.64,368.12 627.25,366.25 627.87,364.29 628.48,361.97 629.09,359.34 629.71,356.57 630.32,355.70 630.93,371.98 631.55,368.97 632.16,366.90 632.77,364.91 633.39,362.60 634.00,359.94 634.61,356.76 635.23,353.16 635.84,349.41 636.45,345.43 637.07,341.09 637.68,336.00 638.29,398.50 638.91,422.20 639.52,398.44 640.13,392.15 640.75,386.78 641.36,381.07 641.97,375.12 642.59,368.99 643.20,362.75 643.81,356.41 644.43,349.99 645.04,343.44 645.65,336.56 646.27,329.46 646.88,322.17 647.49,314.53 648.11,306.69 648.72,298.68 649.33,290.52 649.95,282.23 650.56,273.98 651.17,265.82 651.79,257.56 652.40,249.26 653.01,240.93 653.63,232.43 654.24,223.56 654.85,214.52 655.47,205.34 656.08,196.03 656.69,186.60 657.31,180.19 657.92,307.86 658.53,299.14 659.15,295.89 659.76,293.27 660.37,290.55 660.99,287.70 661.60,284.53 662.21,281.20 662.83,277.48 663.44,273.29 664.05,268.26 664.67,262.96 665.28,257.50 665.89,251.91 666.51,246.18 667.12,240.33 667.73,336.72 668.35,370.98 668.96,350.86 669.57,345.31 670.19,340.74 670.80,347.25 671.41,345.82 672.03,339.85 672.64,333.90 673.25,327.81 673.87,321.57 674.48,315.21 675.09,308.77 675.71,302.17 676.32,295.33 676.93,349.13 677.55,350.41 678.16,351.58 678.77,350.47 679.39,347.08 680.00,342.57 680.61,337.00 681.23,330.66 681.84,323.79 682.45,316.50 683.07,308.78 683.68,300.74 684.29,292.44 684.91,283.94 685.52,275.31 686.13,266.54 686.75,257.62 687.36,248.55 687.97,239.35 688.59,285.96 689.20,283.39 689.81,279.57 690.43,275.11 691.04,269.84 691.65,263.66 692.27,257.00 692.88,249.94 693.49,242.74 694.11,235.48 694.72,228.20 695.33,220.96 695.95,213.32 696.56,205.44 697.17,197.33 697.79,188.88 698.40,180.11 699.01,171.08 699.63,161.85 700.24,152.43 700.85,142.86 701.47,133.23 702.08,153.42 702.69,156.32 703.31,147.63 703.92,138.14 704.53,128.35 705.15,118.46 705.76,110.19 706.37,100.24 706.99,90.17 707.60,84.20 708.21,76.50 708.83,66.52 709.44,56.62 710.05,105.56 710.67,147.71 711.28,159.24 711.89,162.69 712.51,161.06 713.12,156.59 713.73,150.54 714.35,143.60 714.96,136.16 715.57,128.32 716.19,120.24 716.80,112.03 717.41,103.76 718.03,95.42 718.64,86.97 719.25,78.44 719.87,71.00 720.48,62.41 721.09,53.77 721.71,45.08 722.32,136.96 722.93,169.96 723.55,171.37 724.16,169.75 724.77,167.46 725.39,165.26 726.00,231.72 726.61,264.30 727.23,277.46 727.84,284.68 728.45,289.39 729.07,348.71 729.68,386.51 730.29,396.43 730.91,402.99 731.52,408.23 732.13,412.62 732.75,416.43 733.36,419.74 733.97,422.66 734.59,425.48 735.20,428.19 735.81,430.37 736.43,431.98 737.04,433.14 737.65,434.10 738.27,434.90 738.88,435.63 739.49,436.25 740.11,436.89 740.72,437.46 741.33,437.94 741.95,438.34 742.56,438.70 743.17,439.23 743.79,439.84 744.40,440.43 745.01,440.76 745.63,440.94 746.24,441.03 746.85,441.02 747.47,440.92 748.08,440.72 748.69,440.45 749.31,440.10 749.92,439.65 750.53,439.16 751.15,438.45 751.76,437.56 752.37,436.55 752.99,435.45 753.60,434.30 754.21,433.02 754.83,431.74 755.44,430.35 756.05,428.91 756.67,427.46 757.28,425.89 757.89,424.30 758.51,422.64 759.12,420.97 759.73,419.08 760.35,417.09 760.96,415.00 761.57,412.81 762.19,410.50 762.80,408.08 763.41,405.60 764.03,403.11 764.64,400.70 765.25,398.95 765.87,397.38 766.48,394.75 767.09,392.46 767.71,390.23 768.32,388.02 768.93,385.84 769.55,427.00 770.16,440.02 770.77,444.23 771.39,447.12 772.00,449.08 772.61,450.12 773.23,450.53 773.84,450.49 774.45,450.15 775.07,449.66 775.68,449.35 776.29,448.58 776.91,447.90 777.52,447.24 778.13,446.60 778.75,445.99 779.36,445.40 779.97,444.85 780.59,444.33 781.20,443.84 781.81,443.37 782.43,442.94 783.04,442.42 783.65,441.08 784.27,439.79 784.88,438.58 785.49,437.40 786.11,436.20 786.72,434.99 787.33,433.62 787.95,431.94 788.56,430.00 789.17,427.93 789.79,426.01 790.40,424.08 791.01,422.52 791.63,421.93 792.24,423.02 792.85,424.47 793.47,424.97 794.08,424.55 794.69,424.14 795.31,423.74 795.92,423.33 796.53,422.86 797.15,422.37 797.76,421.85 798.37,421.33 798.99,420.85 799.60,420.43 800.21,420.07 800.83,419.62 801.44,418.42 802.05,417.07 802.67,415.54 803.28,413.80 803.89,411.91 804.51,409.90 805.12,407.78 805.73,405.59 806.35,403.31 806.96,400.92 807.57,398.32 808.19,395.82 808.80,393.50 809.41,391.08 810.03,388.26 810.64,385.02 811.25,381.61 811.87,378.12 812.48,374.56 813.09,370.66 813.71,366.60 814.32,362.21 814.93,357.71 815.55,353.09 816.16,348.39 816.77,343.59 817.39,338.60 818.00,333.31" fill="none" stroke="#d1495b" stroke-width="3"/>
<polyline points="82.00,488.00 82.61,488.00 82.61,488.00 83.23,488.00 83.23,488.00 83.84,488.00 83.84,488.00 84.45,488.00 84.45,488.00 85.07,488.00 85.07,488.00 85.68,488.00 85.68,488.00 86.29,488.00 86.29,488.00 86.91,488.00 86.91,488.00 87.52,488.00 87.52,488.00 88.13,488.00 88.13,488.00 88.75,488.00 88.75,488.00 89.36,488.00 89.36,488.00 89.97,488.00 89.97,488.00 90.59,488.00 90.59,488.00 91.20,488.00 91.20,488.00 91.81,488.00 91.81,488.00 92.43,488.00 92.43,488.00 93.04,488.00 93.04,488.00 93.65,488.00 93.65,488.00 94.27,488.00 94.27,488.00 94.88,488.00 94.88,488.00 95.49,488.00 95.49,488.00 96.11,488.00 96.11,488.00 96.72,488.00 96.72,488.00 97.33,488.00 97.33,488.00 97.95,488.00 97.95,488.00 98.56,488.00 98.56,488.00 99.17,488.00 99.17,488.00 99.79,488.00 99.79,488.00 100.40,488.00 100.40,488.00 101.01,488.00 101.01,488.00 101.63,488.00 101.63,488.00 102.24,488.00 102.24,488.00 102.85,488.00 102.85,488.00 103.47,488.00 103.47,488.00 104.08,488.00 104.08,488.00 104.69,488.00 104.69,488.00 105.31,488.00 105.31,488.00 105.92,488.00 105.92,488.00 106.53,488.00 106.53,488.00 107.15,488.00 107.15,488.00 107.76,488.00 107.76,488.00 108.37,488.00 108.37,488.00 108.99,488.00 108.99,488.00 109.60,488.00 109.60,488.00 110.21,488.00 110.21,488.00 110.83,488.00 110.83,488.00 111.44,488.00 111.44,488.00 112.05,488.00 112.05,488.00 112.67,488.00 112.67,488.00 113.28,488.00 113.28,488.00 113.89,488.00 113.89,488.00 114.51,488.00 114.51,488.00 115.12,488.00 115.12,488.00 115.73,488.00 115.73,488.00 116.35,488.00 116.35,488.00 116.96,488.00 116.96,488.00 117.57,488.00 117.57,488.00 118.19,488.00 118.19,488.00 118.80,488.00 118.80,488.00 119.41,488.00 119.41,488.00 120.03,488.00 120.03,488.00 120.64,488.00 120.64,488.00 121.25,488.00 121.25,488.00 121.87,488.00 121.87,488.00 122.48,488.00 122.48,488.00 123.09,488.00 123.09,488.00 123.71,488.00 123.71,488.00 124.32,488.00 124.32,488.00 124.93,488.00 124.93,488.00 125.55,488.00 125.55,488.00 126.16,488.00 126.16,488.00 126.77,488.00 126.77,488.00 127.39,488.00 127.39,488.00 128.00,488.00 128.00,488.00 128.61,488.00 128.61,488.00 129.23,488.00 129.23,488.00 129.84,488.00 129.84,488.00 130.45,488.00 130.45,488.00 131.07,488.00 131.07,488.00 131.68,488.00 131.68,488.00 132.29,488.00 132.29,488.00 132.91,488.00 132.91,488.00 133.52,488.00 133.52,488.00 134.13,488.00 134.13,488.00 134.75,488.00 134.75,488.00 135.36,488.00 135.36,488.00 135.97,488.00 135.97,488.00 136.59,488.00 136.59,488.00 137.20,488.00 137.20,488.00 137.81,488.00 137.81,488.00 138.43,488.00 138.43,488.00 139.04,488.00 139.04,488.00 139.65,488.00 139.65,488.00 140.27,488.00 140.27,488.00 140.88,488.00 140.88,488.00 141.49,488.00 141.49,488.00 142.11,488.00 142.11,488.00 142.72,488.00 142.72,488.00 143.33,488.00 143.33,488.00 143.95,488.00 143.95,488.00 144.56,488.00 144.56,488.00 145.17,488.00 145.17,488.00 145.79,488.00 145.79,488.00 146.40,488.00 146.40,488.00 147.01,488.00 147.01,488.00 147.63,488.00 147.63,488.00 148.24,488.00 148.24,488.00 148.85,488.00 148.85,488.00 149.47,488.00 149.47,488.00 150.08,488.00 150.08,488.00 150.69,488.00 150.69,488.00 151.31,488.00 151.31,488.00 151.92,488.00 151.92,488.00 152.53,488.00 152.53,488.00 153.15,488.00 153.15,488.00 153.76,488.00 153.76,488.00 154.37,488.00 154.37,488.00 154.99,488.00 154.99,488.00 155.60,488.00 155.60,488.00 156.21,488.00 156.21,488.00 156.83,488.00 156.83,488.00 157.44,488.00 157.44,488.00 158.05,488.00 158.05,488.00 158.67,488.00 158.67,488.00 159.28,488.00 159.28,488.00 159.89,488.00 159.89,488.00 160.51,488.00 160.51,488.00 161.12,488.00 161.12,488.00 161.73,488.00 161.73,488.00 162.35,488.00 162.35,488.00 162.96,488.00 162.96,488.00 163.57,488.00 163.57,488.00 164.19,488.00 164.19,488.00 164.80,488.00 164.80,488.00 165.41,488.00 165.41,488.00 166.03,488.00 166.03,488.00 166.64,488.00 166.64,488.00 167.25,488.00 167.25,488.00 167.87,488.00 167.87,488.00 168.48,488.00 168.48,488.00 169.09,488.00 169.09,488.00 169.71,488.00 169.71,488.00 170.32,488.00 170.32,488.00 170.93,488.00 170.93,488.00 171.55,488.00 171.55,488.00 172.16,488.00 172.16,488.00 172.77,488.00 172.77,488.00 173.39,488.00 173.39,488.00 174.00,488.00 174.00,488.00 174.61,488.00 174.61,488.00 175.23,488.00 175.23,488.00 175.84,488.00 175.84,488.00 176.45,488.00 176.45,488.00 177.07,488.00 177.07,488.00 177.68,488.00 177.68,488.00 178.29,488.00 178.29,488.00 178.91,488.00 178.91,488.00 179.52,488.00 179.52,488.00 180.13,488.00 180.13,488.00 180.75,488.00 180.75,488.00 181.36,488.00 181.36,488.00 181.97,488.00 181.97,488.00 182.59,488.00 182.59,488.00 183.20,488.00 183.20,488.00 183.81,488.00 183.81,488.00 184.43,488.00 184.43,488.00 185.04,488.00 185.04,488.00 185.65,488.00 185.65,488.00 186.27,488.00 186.27,488.00 186.88,488.00 186.88,488.00 187.49,488.00 187.49,488.00 188.11,488.00 188.11,488.00 188.72,488.00 188.72,488.00 189.33,488.00 189.33,488.00 189.95,488.00 189.95,488.00 190.56,488.00 190.56,488.00 191.17,488.00 191.17,488.00 191.79,488.00 191.79,488.00 192.40,488.00 192.40,488.00 193.01,488.00 193.01,488.00 193.63,488.00 193.63,488.00 194.24,488.00 194.24,488.00 194.85,488.00 194.85,488.00 195.47,488.00 195.47,488.00 196.08,488.00 196.08,488.00 196.69,488.00 196.69,488.00 197.31,488.00 197.31,488.00 197.92,488.00 197.92,488.00 198.53,488.00 198.53,488.00 199.15,488.00 199.15,488.00 199.76,488.00 199.76,488.00 200.37,488.00 200.37,488.00 200.99,488.00 200.99,488.00 201.60,488.00 201.60,488.00 202.21,488.00 202.21,488.00 202.83,488.00 202.83,488.00 203.44,488.00 203.44,488.00 204.05,488.00 204.05,488.00 204.67,488.00 204.67,488.00 205.28,488.00 205.28,488.00 205.89,488.00 205.89,488.00 206.51,488.00 206.51,488.00 207.12,488.00 207.12,488.00 207.73,488.00 207.73,488.00 208.35,488.00 208.35,488.00 208.96,488.00 208.96,488.00 209.57,488.00 209.57,488.00 210.19,488.00 210.19,488.00 210.80,488.00 210.80,488.00 211.41,488.00 211.41,488.00 212.03,488.00 212.03,488.00 212.64,488.00 212.64,488.00 213.25,488.00 213.25,488.00 213.87,488.00 213.87,488.00 214.48,488.00 214.48,488.00 215.09,488.00 215.09,488.00 215.71,488.00 215.71,488.00 216.32,488.00 216.32,488.00 216.93,488.00 216.93,488.00 217.55,488.00 217.55,488.00 218.16,488.00 218.16,488.00 218.77,488.00 218.77,488.00 219.39,488.00 219.39,488.00 220.00,488.00 220.00,488.00 220.61,488.00 220.61,488.00 221.23,488.00 221.23,488.00 221.84,488.00 221.84,488.00 222.45,488.00 222.45,488.00 223.07,488.00 223.07,488.00 223.68,488.00 223.68,488.00 224.29,488.00 224.29,488.00 224.91,488.00 224.91,488.00 225.52,488.00 225.52,488.00 226.13,488.00 226.13,488.00 226.75,488.00 226.75,488.00 227.36,488.00 227.36,488.00 227.97,488.00 227.97,488.00 228.59,488.00 228.59,488.00 229.20,488.00 229.20,488.00 229.81,488.00 229.81,488.00 230.43,488.00 230.43,488.00 231.04,488.00 231.04,488.00 231.65,488.00 231.65,488.00 232.27,488.00 232.27,488.00 232.88,488.00 232.88,488.00 233.49,488.00 233.49,488.00 234.11,488.00 234.11,488.00 234.72,488.00 234.72,488.00 235.33,488.00 235.33,488.00 235.95,488.00 235.95,488.00 236.56,488.00 236.56,488.00 237.17,488.00 237.17,488.00 237.79,488.00 237.79,488.00 238.40,488.00 238.40,488.00 239.01,488.00 239.01,488.00 239.63,488.00 239.63,488.00 240.24,488.00 240.24,488.00 240.85,488.00 240.85,488.00 241.47,488.00 241.47,488.00 242.08,488.00 242.08,488.00 242.69,488.00 242.69,488.00 243.31,488.00 243.31,488.00 243.92,488.00 243.92,488.00 244.53,488.00 244.53,488.00 245.15,488.00 245.15,488.00 245.76,488.00 245.76,488.00 246.37,488.00 246.37,488.00 246.99,488.00 246.99,488.00 247.60,488.00 247.60,488.00 248.21,488.00 248.21,488.00 248.83,488.00 248.83,488.00 249.44,488.00 249.44,488.00 250.05,488.00 250.05,488.00 250.67,488.00 250.67,488.00 251.28,488.00 251.28,488.00 251.89,488.00 251.89,488.00 252.51,488.00 252.51,488.00 253.12,488.00 253.12,488.00 253.73,488.00 253.73,488.00 254.35,488.00 254.35,488.00 254.96,488.00 254.96,488.00 255.57,488.00 255.57,488.00 256.19,488.00 256.19,488.00 256.80,488.00 256.80,488.00 257.41,488.00 257.41,488.00 258.03,488.00 258.03,488.00 258.64,488.00 258.64,488.00 259.25,488.00 259.25,488.00 259.87,488.00 259.87,488.00 260.48,488.00 260.48,488.00 261.09,488.00 261.09,488.00 261.71,488.00 261.71,488.00 262.32,488.00 262.32,488.00 262.93,488.00 262.93,488.00 263.55,488.00 263.55,488.00 264.16,488.00 264.16,488.00 264.77,488.00 264.77,488.00 265.39,488.00 265.39,488.00 266.00,488.00 266.00,488.00 266.61,488.00 266.61,488.00 267.23,488.00 267.23,488.00 267.84,488.00 267.84,488.00 268.45,488.00 268.45,488.00 269.07,488.00 269.07,488.00 269.68,488.00 269.68,488.00 270.29,488.00 270.29,488.00 270.91,488.00 270.91,488.00 271.52,488.00 271.52,488.00 272.13,488.00 272.13,488.00 272.75,488.00 272.75,488.00 273.36,488.00 273.36,488.00 273.97,488.00 273.97,488.00 274.59,488.00 274.59,488.00 275.20,488.00 275.20,488.00 275.81,488.00 275.81,488.00 276.43,488.00 276.43,488.00 277.04,488.00 277.04,488.00 277.65,488.00 277.65,488.00 278.27,488.00 278.27,488.00 278.88,488.00 278.88,488.00 279.49,488.00 279.49,488.00 280.11,488.00 280.11,488.00 280.72,488.00 280.72,488.00 281.33,488.00 281.33,488.00 281.95,488.00 281.95,488.00 282.56,488.00 282.56,488.00 283.17,488.00 283.17,488.00 283.79,488.00 283.79,488.00 284.40,488.00 284.40,488.00 285.01,488.00 285.01,488.00 285.63,488.00 285.63,488.00 286.24,488.00 286.24,488.00 286.85,488.00 286.85,488.00 287.47,488.00 287.47,488.00 288.08,488.00 288.08,488.00 288.69,488.00 288.69,488.00 289.31,488.00 289.31,488.00 289.92,488.00 289.92,488.00 290.53,488.00 290.53,488.00 291.15,488.00 291.15,488.00 291.76,488.00 291.76,488.00 292.37,488.00 292.37,488.00 292.99,488.00 292.99,488.00 293.60,488.00 293.60,488.00 294.21,488.00 294.21,488.00 294.83,488.00 294.83,488.00 295.44,488.00 295.44,488.00 296.05,488.00 296.05,488.00 296.67,488.00 296.67,488.00 297.28,488.00 297.28,488.00 297.89,488.00 297.89,488.00 298.51,488.00 298.51,488.00 299.12,488.00 299.12,488.00 299.73,488.00 299.73,488.00 300.35,488.00 300.35,488.00 300.96,488.00 300.96,488.00 301.57,488.00 301.57,488.00 302.19,488.00 302.19,488.00 302.80,488.00 302.80,488.00 303.41,488.00 303.41,488.00 304.03,488.00 304.03,488.00 304.64,488.00 304.64,488.00 305.25,488.00 305.25,488.00 305.87,488.00 305.87,488.00 306.48,488.00 306.48,488.00 307.09,488.00 307.09,488.00 307.71,488.00 307.71,488.00 308.32,488.00 308.32,488.00 308.93,488.00 308.93,488.00 309.55,488.00 309.55,488.00 310.16,488.00 310.16,488.00 310.77,488.00 310.77,488.00 311.39,488.00 311.39,488.00 312.00,488.00 312.00,488.00 312.61,488.00 312.61,488.00 313.23,488.00 313.23,488.00 313.84,488.00 313.84,488.00 314.45,488.00 314.45,488.00 315.07,488.00 315.07,488.00 315.68,488.00 315.68,488.00 316.29,488.00 316.29,488.00 316.91,488.00 316.91,488.00 317.52,488.00 317.52,488.00 318.13,488.00 318.13,488.00 318.75,488.00 318.75,488.00 319.36,488.00 319.36,488.00 319.97,488.00 319.97,488.00 320.59,488.00 320.59,488.00 321.20,488.00 321.20,488.00 321.81,488.00 321.81,488.00 322.43,488.00 322.43,488.00 323.04,488.00 323.04,488.00 323.65,488.00 323.65,488.00 324.27,488.00 324.27,488.00 324.88,488.00 324.88,488.00 325.49,488.00 325.49,488.00 326.11,488.00 326.11,488.00 326.72,488.00 326.72,488.00 327.33,488.00 327.33,488.00 327.95,488.00 327.95,488.00 328.56,488.00 328.56,488.00 329.17,488.00 329.17,488.00 329.79,488.00 329.79,488.00 330.40,488.00 330.40,488.00 331.01,488.00 331.01,488.00 331.63,488.00 331.63,488.00 332.24,488.00 332.24,488.00 332.85,488.00 332.85,488.00 333.47,488.00 333.47,487.17 334.08,487.17 334.08,487.17 334.69,487.17 334.69,487.17 335.31,487.17 335.31,487.17 335.92,487.17 335.92,487.17 336.53,487.17 336.53,487.17 337.15,487.17 337.15,487.17 337.76,487.17 337.76,487.17 338.37,487.17 338.37,487.17 338.99,487.17 338.99,487.17 339.60,487.17 339.60,487.17 340.21,487.17 340.21,487.17 340.83,487.17 340.83,486.34 341.44,486.34 341.44,486.34 342.05,486.34 342.05,478.06 342.67,478.06 342.67,478.06 343.28,478.06 343.28,478.06 343.89,478.06 343.89,478.06 344.51,478.06 344.51,478.06 345.12,478.06 345.12,478.06 345.73,478.06 345.73,478.06 346.35,478.06 346.35,478.06 346.96,478.06 346.96,478.06 347.57,478.06 347.57,478.06 348.19,478.06 348.19,478.06 348.80,478.06 348.80,478.06 349.41,478.06 349.41,478.06 350.03,478.06 350.03,478.06 350.64,478.06 350.64,478.06 351.25,478.06 351.25,478.06 351.87,478.06 351.87,478.06 352.48,478.06 352.48,478.06 353.09,478.06 353.09,478.06 353.71,478.06 353.71,478.06 354.32,478.06 354.32,478.06 354.93,478.06 354.93,478.06 355.55,478.06 355.55,478.06 356.16,478.06 356.16,478.06 356.77,478.06 356.77,469.78 357.39,469.78 357.39,469.78 358.00,469.78 358.00,469.78 358.61,469.78 358.61,469.78 359.23,469.78 359.23,469.78 359.84,469.78 359.84,469.78 360.45,469.78 360.45,469.78 361.07,469.78 361.07,468.13 361.68,468.13 361.68,467.30 362.29,467.30 362.29,459.02 362.91,459.02 362.91,459.02 363.52,459.02 363.52,459.02 364.13,459.02 364.13,459.02 364.75,459.02 364.75,459.02 365.36,459.02 365.36,459.02 365.97,459.02 365.97,459.02 366.59,459.02 366.59,459.02 367.20,459.02 367.20,459.02 367.81,459.02 367.81,459.02 368.43,459.02 368.43,459.02 369.04,459.02 369.04,459.02 369.65,459.02 369.65,459.02 370.27,459.02 370.27,459.02 370.88,459.02 370.88,459.02 371.49,459.02 371.49,459.02 372.11,459.02 372.11,459.02 372.72,459.02 372.72,459.02 373.33,459.02 373.33,459.02 373.95,459.02 373.95,459.02 374.56,459.02 374.56,459.02 375.17,459.02 375.17,459.02 375.79,459.02 375.79,459.02 376.40,459.02 376.40,459.02 377.01,459.02 377.01,459.02 377.63,459.02 377.63,459.02 378.24,459.02 378.24,459.02 378.85,459.02 378.85,459.02 379.47,459.02 379.47,459.02 380.08,459.02 380.08,459.02 380.69,459.02 380.69,459.02 381.31,459.02 381.31,459.02 381.92,459.02 381.92,459.02 382.53,459.02 382.53,459.02 383.15,459.02 383.15,459.02 383.76,459.02 383.76,459.02 384.37,459.02 384.37,459.02 384.99,459.02 384.99,459.02 385.60,459.02 385.60,459.02 386.21,459.02 386.21,459.02 386.83,459.02 386.83,459.02 387.44,459.02 387.44,459.02 388.05,459.02 388.05,459.02 388.67,459.02 388.67,459.02 389.28,459.02 389.28,459.02 389.89,459.02 389.89,459.02 390.51,459.02 390.51,459.02 391.12,459.02 391.12,459.02 391.73,459.02 391.73,459.02 392.35,459.02 392.35,459.02 392.96,459.02 392.96,459.02 393.57,459.02 393.57,459.02 394.19,459.02 394.19,459.02 394.80,459.02 394.80,459.02 395.41,459.02 395.41,459.02 396.03,459.02 396.03,459.02 396.64,459.02 396.64,459.02 397.25,459.02 397.25,459.02 397.87,459.02 397.87,459.02 398.48,459.02 398.48,459.02 399.09,459.02 399.09,459.02 399.71,459.02 399.71,459.02 400.32,459.02 400.32,458.19 400.93,458.19 400.93,458.19 401.55,458.19 401.55,458.19 402.16,458.19 402.16,458.19 402.77,458.19 402.77,458.19 403.39,458.19 403.39,458.19 404.00,458.19 404.00,458.19 404.61,458.19 404.61,458.19 405.23,458.19 405.23,458.19 405.84,458.19 405.84,458.19 406.45,458.19 406.45,458.19 407.07,458.19 407.07,458.19 407.68,458.19 407.68,458.19 408.29,458.19 408.29,458.19 408.91,458.19 408.91,458.19 409.52,458.19 409.52,449.08 410.13,449.08 410.13,444.94 410.75,444.94 410.75,444.94 411.36,444.94 411.36,444.94 411.97,444.94 411.97,444.94 412.59,444.94 412.59,443.28 413.20,443.28 413.20,443.28 413.81,443.28 413.81,443.28 414.43,443.28 414.43,443.28 415.04,443.28 415.04,443.28 415.65,443.28 415.65,443.28 416.27,443.28 416.27,443.28 416.88,443.28 416.88,443.28 417.49,443.28 417.49,443.28 418.11,443.28 418.11,443.28 418.72,443.28 418.72,443.28 419.33,443.28 419.33,443.28 419.95,443.28 419.95,443.28 420.56,443.28 420.56,443.28 421.17,443.28 421.17,443.28 421.79,443.28 421.79,443.28 422.40,443.28 422.40,432.52 423.01,432.52 423.01,414.30 423.63,414.30 423.63,414.30 424.24,414.30 424.24,414.30 424.85,414.30 424.85,414.30 425.47,414.30 425.47,414.30 426.08,414.30 426.08,414.30 426.69,414.30 426.69,414.30 427.31,414.30 427.31,414.30 427.92,414.30 427.92,414.30 428.53,414.30 428.53,414.30 429.15,414.30 429.15,414.30 429.76,414.30 429.76,414.30 430.37,414.30 430.37,414.30 430.99,414.30 430.99,414.30 431.60,414.30 431.60,414.30 432.21,414.30 432.21,414.30 432.83,414.30 432.83,414.30 433.44,414.30 433.44,414.30 434.05,414.30 434.05,414.30 434.67,414.30 434.67,414.30 435.28,414.30 435.28,414.30 435.89,414.30 435.89,414.30 436.51,414.30 436.51,414.30 437.12,414.30 437.12,414.30 437.73,414.30 437.73,414.30 438.35,414.30 438.35,413.47 438.96,413.47 438.96,413.47 439.57,413.47 439.57,413.47 440.19,413.47 440.19,413.47 440.80,413.47 440.80,413.47 441.41,413.47 441.41,413.47 442.03,413.47 442.03,413.47 442.64,413.47 442.64,413.47 443.25,413.47 443.25,413.47 443.87,413.47 443.87,413.47 444.48,413.47 444.48,413.47 445.09,413.47 445.09,413.47 445.71,413.47 445.71,413.47 446.32,413.47 446.32,413.47 446.93,413.47 446.93,413.47 447.55,413.47 447.55,413.47 448.16,413.47 448.16,413.47 448.77,413.47 448.77,413.47 449.39,413.47 449.39,413.47 450.00,413.47 450.00,413.47 450.61,413.47 450.61,413.47 451.23,413.47 451.23,413.47 451.84,413.47 451.84,413.47 452.45,413.47 452.45,413.47 453.07,413.47 453.07,413.47 453.68,413.47 453.68,413.47 454.29,413.47 454.29,413.47 454.91,413.47 454.91,413.47 455.52,413.47 455.52,413.47 456.13,413.47 456.13,413.47 456.75,413.47 456.75,413.47 457.36,413.47 457.36,413.47 457.97,413.47 457.97,413.47 458.59,413.47 458.59,413.47 459.20,413.47 459.20,413.47 459.81,413.47 459.81,413.47 460.43,413.47 460.43,413.47 461.04,413.47 461.04,413.47 461.65,413.47 461.65,413.47 462.27,413.47 462.27,413.47 462.88,413.47 462.88,413.47 463.49,413.47 463.49,413.47 464.11,413.47 464.11,413.47 464.72,413.47 464.72,413.47 465.33,413.47 465.33,413.47 465.95,413.47 465.95,412.64 466.56,412.64 466.56,412.64 467.17,412.64 467.17,412.64 467.79,412.64 467.79,412.64 468.40,412.64 468.40,412.64 469.01,412.64 469.01,412.64 469.63,412.64 469.63,406.02 470.24,406.02 470.24,406.02 470.85,406.02 470.85,406.02 471.47,406.02 471.47,406.02 472.08,406.02 472.08,405.19 472.69,405.19 472.69,405.19 473.31,405.19 473.31,391.94 473.92,391.94 473.92,391.94 474.53,391.94 474.53,391.94 475.15,391.94 475.15,391.94 475.76,391.94 475.76,391.94 476.37,391.94 476.37,391.94 476.99,391.94 476.99,391.94 477.60,391.94 477.60,391.94 478.21,391.94 478.21,391.94 478.83,391.94 478.83,391.94 479.44,391.94 479.44,391.94 480.05,391.94 480.05,391.94 480.67,391.94 480.67,391.94 481.28,391.94 481.28,391.94 481.89,391.94 481.89,391.94 482.51,391.94 482.51,391.94 483.12,391.94 483.12,391.94 483.73,391.94 483.73,391.94 484.35,391.94 484.35,391.94 484.96,391.94 484.96,391.94 485.57,391.94 485.57,391.94 486.19,391.94 486.19,391.94 486.80,391.94 486.80,391.94 487.41,391.94 487.41,391.94 488.03,391.94 488.03,391.94 488.64,391.94 488.64,391.94 489.25,391.94 489.25,391.94 489.87,391.94 489.87,391.94 490.48,391.94 490.48,391.94 491.09,391.94 491.09,391.94 491.71,391.94 491.71,391.94 492.32,391.94 492.32,391.94 492.93,391.94 492.93,391.94 493.55,391.94 493.55,391.94 494.16,391.94 494.16,391.94 494.77,391.94 494.77,391.94 495.39,391.94 495.39,391.94 496.00,391.94 496.00,391.94 496.61,391.94 496.61,391.94 497.23,391.94 497.23,391.94 497.84,391.94 497.84,391.94 498.45,391.94 498.45,391.94 499.07,391.94 499.07,391.94 499.68,391.94 499.68,391.94 500.29,391.94 500.29,391.94 500.91,391.94 500.91,391.94 501.52,391.94 501.52,391.94 502.13,391.94 502.13,391.94 502.75,391.94 502.75,391.94 503.36,391.94 503.36,391.94 503.97,391.94 503.97,391.94 504.59,391.94 504.59,391.94 505.20,391.94 505.20,391.94 505.81,391.94 505.81,391.94 506.43,391.94 506.43,391.94 507.04,391.94 507.04,391.94 507.65,391.94 507.65,391.94 508.27,391.94 508.27,391.94 508.88,391.94 508.88,391.94 509.49,391.94 509.49,391.94 510.11,391.94 510.11,391.94 510.72,391.94 510.72,391.94 511.33,391.94 511.33,391.94 511.95,391.94 511.95,391.94 512.56,391.94 512.56,391.94 513.17,391.94 513.17,391.94 513.79,391.94 513.79,391.94 514.40,391.94 514.40,391.94 515.01,391.94 515.01,391.94 515.63,391.94 515.63,391.94 516.24,391.94 516.24,391.94 516.85,391.94 516.85,391.94 517.47,391.94 517.47,391.94 518.08,391.94 518.08,391.94 518.69,391.94 518.69,391.94 519.31,391.94 519.31,391.94 519.92,391.94 519.92,391.94 520.53,391.94 520.53,391.94 521.15,391.94 521.15,391.94 521.76,391.94 521.76,391.94 522.37,391.94 522.37,391.94 522.99,391.94 522.99,391.94 523.60,391.94 523.60,391.94 524.21,391.94 524.21,391.94 524.83,391.94 524.83,391.94 525.44,391.94 525.44,391.94 526.05,391.94 526.05,391.94 526.67,391.94 526.67,391.94 527.28,391.94 527.28,391.94 527.89,391.94 527.89,391.94 528.51,391.94 528.51,391.94 529.12,391.94 529.12,391.94 529.73,391.94 529.73,391.94 530.35,391.94 530.35,391.94 530.96,391.94 530.96,391.94 531.57,391.94 531.57,391.94 532.19,391.94 532.19,391.94 532.80,391.94 532.80,391.94 533.41,391.94 533.41,390.28 534.03,390.28 534.03,390.28 534.64,390.28 534.64,390.28 535.25,390.28 535.25,390.28 535.87,390.28 535.87,378.69 536.48,378.69 536.48,378.69 537.09,378.69 537.09,378.69 537.71,378.69 537.71,378.69 538.32,378.69 538.32,378.69 538.93,378.69 538.93,378.69 539.55,378.69 539.55,367.93 540.16,367.93 540.16,367.93 540.77,367.93 540.77,367.93 541.39,367.93 541.39,367.93 542.00,367.93 542.00,367.93 542.61,367.93 542.61,367.93 543.23,367.93 543.23,367.93 543.84,367.93 543.84,367.93 544.45,367.93 544.45,367.93 545.07,367.93 545.07,367.93 545.68,367.93 545.68,367.93 546.29,367.93 546.29,367.93 546.91,367.93 546.91,367.93 547.52,367.93 547.52,367.93 548.13,367.93 548.13,367.93 548.75,367.93 548.75,367.10 549.36,367.10 549.36,367.10 549.97,367.10 549.97,367.10 550.59,367.10 550.59,367.10 551.20,367.10 551.20,354.68 551.81,354.68 551.81,354.68 552.43,354.68 552.43,354.68 553.04,354.68 553.04,354.68 553.65,354.68 553.65,354.68 554.27,354.68 554.27,354.68 554.88,354.68 554.88,354.68 555.49,354.68 555.49,354.68 556.11,354.68 556.11,354.68 556.72,354.68 556.72,354.68 557.33,354.68 557.33,354.68 557.95,354.68 557.95,343.08 558.56,343.08 558.56,343.08 559.17,343.08 559.17,343.08 559.79,343.08 559.79,343.08 560.40,343.08 560.40,343.08 561.01,343.08 561.01,343.08 561.63,343.08 561.63,343.08 562.24,343.08 562.24,343.08 562.85,343.08 562.85,343.08 563.47,343.08 563.47,343.08 564.08,343.08 564.08,343.08 564.69,343.08 564.69,343.08 565.31,343.08 565.31,343.08 565.92,343.08 565.92,343.08 566.53,343.08 566.53,343.08 567.15,343.08 567.15,343.08 567.76,343.08 567.76,343.08 568.37,343.08 568.37,343.08 568.99,343.08 568.99,343.08 569.60,343.08 569.60,343.08 570.21,343.08 570.21,343.08 570.83,343.08 570.83,343.08 571.44,343.08 571.44,343.08 572.05,343.08 572.05,343.08 572.67,343.08 572.67,343.08 573.28,343.08 573.28,343.08 573.89,343.08 573.89,343.08 574.51,343.08 574.51,343.08 575.12,343.08 575.12,343.08 575.73,343.08 575.73,343.08 576.35,343.08 576.35,329.01 576.96,329.01 576.96,329.01 577.57,329.01 577.57,329.01 578.19,329.01 578.19,329.01 578.80,329.01 578.80,329.01 579.41,329.01 579.41,329.01 580.03,329.01 580.03,329.01 580.64,329.01 580.64,329.01 581.25,329.01 581.25,329.01 581.87,329.01 581.87,329.01 582.48,329.01 582.48,329.01 583.09,329.01 583.09,329.01 583.71,329.01 583.71,329.01 584.32,329.01 584.32,329.01 584.93,329.01 584.93,329.01 585.55,329.01 585.55,329.01 586.16,329.01 586.16,329.01 586.77,329.01 586.77,321.55 587.39,321.55 587.39,321.55 588.00,321.55 588.00,321.55 588.61,321.55 588.61,321.55 589.23,321.55 589.23,321.55 589.84,321.55 589.84,321.55 590.45,321.55 590.45,321.55 591.07,321.55 591.07,321.55 591.68,321.55 591.68,321.55 592.29,321.55 592.29,321.55 592.91,321.55 592.91,321.55 593.52,321.55 593.52,321.55 594.13,321.55 594.13,321.55 594.75,321.55 594.75,321.55 595.36,321.55 595.36,321.55 595.97,321.55 595.97,321.55 596.59,321.55 596.59,321.55 597.20,321.55 597.20,321.55 597.81,321.55 597.81,321.55 598.43,321.55 598.43,313.27 599.04,313.27 599.04,313.27 599.65,313.27 599.65,313.27 600.27,313.27 600.27,313.27 600.88,313.27 600.88,313.27 601.49,313.27 601.49,313.27 602.11,313.27 602.11,313.27 602.72,313.27 602.72,313.27 603.33,313.27 603.33,313.27 603.95,313.27 603.95,313.27 604.56,313.27 604.56,313.27 605.17,313.27 605.17,313.27 605.79,313.27 605.79,312.44 606.40,312.44 606.40,312.44 607.01,312.44 607.01,312.44 607.63,312.44 607.63,304.16 608.24,304.16 608.24,304.16 608.85,304.16 608.85,302.51 609.47,302.51 609.47,302.51 610.08,302.51 610.08,293.40 610.69,293.40 610.69,269.38 611.31,269.38 611.31,269.38 611.92,269.38 611.92,269.38 612.53,269.38 612.53,269.38 613.15,269.38 613.15,269.38 613.76,269.38 613.76,269.38 614.37,269.38 614.37,269.38 614.99,269.38 614.99,269.38 615.60,269.38 615.60,269.38 616.21,269.38 616.21,269.38 616.83,269.38 616.83,269.38 617.44,269.38 617.44,268.55 618.05,268.55 618.05,268.55 618.67,268.55 618.67,268.55 619.28,268.55 619.28,256.96 619.89,256.96 619.89,256.96 620.51,256.96 620.51,256.96 621.12,256.96 621.12,256.96 621.73,256.96 621.73,256.96 622.35,256.96 622.35,256.96 622.96,256.96 622.96,256.96 623.57,256.96 623.57,256.96 624.19,256.96 624.19,256.96 624.80,256.96 624.80,256.96 625.41,256.96 625.41,256.96 626.03,256.96 626.03,256.96 626.64,256.96 626.64,256.96 627.25,256.96 627.25,256.96 627.87,256.96 627.87,256.96 628.48,256.96 628.48,256.96 629.09,256.96 629.09,256.96 629.71,256.96 629.71,256.96 630.32,256.96 630.32,256.96 630.93,256.96 630.93,256.96 631.55,256.96 631.55,256.96 632.16,256.96 632.16,256.96 632.77,256.96 632.77,256.96 633.39,256.96 633.39,256.96 634.00,256.96 634.00,256.96 634.61,256.96 634.61,256.96 635.23,256.96 635.23,256.96 635.84,256.96 635.84,256.96 636.45,256.96 636.45,256.96 637.07,256.96 637.07,256.96 637.68,256.96 637.68,256.96 638.29,256.96 638.29,246.20 638.91,246.20 638.91,237.91 639.52,237.91 639.52,237.91 640.13,237.91 640.13,237.91 640.75,237.91 640.75,237.91 641.36,237.91 641.36,237.91 641.97,237.91 641.97,237.91 642.59,237.91 642.59,237.91 643.20,237.91 643.20,237.91 643.81,237.91 643.81,237.91 644.43,237.91 644.43,237.91 645.04,237.91 645.04,237.91 645.65,237.91 645.65,237.91 646.27,237.91 646.27,237.91 646.88,237.91 646.88,237.91 647.49,237.91 647.49,237.91 648.11,237.91 648.11,237.91 648.72,237.91 648.72,237.91 649.33,237.91 649.33,237.91 649.95,237.91 649.95,237.91 650.56,237.91 650.56,237.91 651.17,237.91 651.17,237.91 651.79,237.91 651.79,237.91 652.40,237.91 652.40,237.91 653.01,237.91 653.01,237.91 653.63,237.91 653.63,237.91 654.24,237.91 654.24,237.91 654.85,237.91 654.85,237.91 655.47,237.91 655.47,237.91 656.08,237.91 656.08,237.91 656.69,237.91 656.69,237.91 657.31,237.91 657.31,236.26 657.92,236.26 657.92,217.21 658.53,217.21 658.53,217.21 659.15,217.21 659.15,217.21 659.76,217.21 659.76,217.21 660.37,217.21 660.37,217.21 660.99,217.21 660.99,217.21 661.60,217.21 661.60,217.21 662.21,217.21 662.21,217.21 662.83,217.21 662.83,217.21 663.44,217.21 663.44,217.21 664.05,217.21 664.05,217.21 664.67,217.21 664.67,217.21 665.28,217.21 665.28,217.21 665.89,217.21 665.89,217.21 666.51,217.21 666.51,217.21 667.12,217.21 667.12,217.21 667.73,217.21 667.73,190.71 668.35,190.71 668.35,178.29 668.96,178.29 668.96,178.29 669.57,178.29 669.57,178.29 670.19,178.29 670.19,178.29 670.80,178.29 670.80,178.29 671.41,178.29 671.41,178.29 672.03,178.29 672.03,178.29 672.64,178.29 672.64,178.29 673.25,178.29 673.25,178.29 673.87,178.29 673.87,178.29 674.48,178.29 674.48,178.29 675.09,178.29 675.09,178.29 675.71,178.29 675.71,178.29 676.32,178.29 676.32,178.29 676.93,178.29 676.93,166.70 677.55,166.70 677.55,166.70 678.16,166.70 678.16,166.70 678.77,166.70 678.77,166.70 679.39,166.70 679.39,166.70 680.00,166.70 680.00,166.70 680.61,166.70 680.61,166.70 681.23,166.70 681.23,166.70 681.84,166.70 681.84,166.70 682.45,166.70 682.45,166.70 683.07,166.70 683.07,166.70 683.68,166.70 683.68,166.70 684.29,166.70 684.29,166.70 684.91,166.70 684.91,166.70 685.52,166.70 685.52,166.70 686.13,166.70 686.13,166.70 686.75,166.70 686.75,166.70 687.36,166.70 687.36,166.70 687.97,166.70 687.97,166.70 688.59,166.70 688.59,155.93 689.20,155.93 689.20,155.93 689.81,155.93 689.81,155.93 690.43,155.93 690.43,155.93 691.04,155.93 691.04,155.93 691.65,155.93 691.65,155.93 692.27,155.93 692.27,155.93 692.88,155.93 692.88,155.93 693.49,155.93 693.49,155.93 694.11,155.93 694.11,155.93 694.72,155.93 694.72,155.93 695.33,155.93 695.33,155.93 695.95,155.93 695.95,155.93 696.56,155.93 696.56,155.93 697.17,155.93 697.17,155.93 697.79,155.93 697.79,155.93 698.40,155.93 698.40,155.93 699.01,155.93 699.01,155.93 699.63,155.93 699.63,155.93 700.24,155.93 700.24,155.93 700.85,155.93 700.85,155.93 701.47,155.93 701.47,155.93 702.08,155.93 702.08,142.68 702.69,142.68 702.69,142.68 703.31,142.68 703.31,142.68 703.92,142.68 703.92,142.68 704.53,142.68 704.53,142.68 705.15,142.68 705.15,142.68 705.76,142.68 705.76,141.03 706.37,141.03 706.37,141.03 706.99,141.03 706.99,141.03 707.60,141.03 707.60,137.72 708.21,137.72 708.21,136.89 708.83,136.89 708.83,136.89 709.44,136.89 709.44,136.89 710.05,136.89 710.05,124.47 710.67,124.47 710.67,110.39 711.28,110.39 711.28,110.39 711.89,110.39 711.89,110.39 712.51,110.39 712.51,110.39 713.12,110.39 713.12,110.39 713.73,110.39 713.73,110.39 714.35,110.39 714.35,110.39 714.96,110.39 714.96,110.39 715.57,110.39 715.57,110.39 716.19,110.39 716.19,110.39 716.80,110.39 716.80,110.39 717.41,110.39 717.41,110.39 718.03,110.39 718.03,110.39 718.64,110.39 718.64,110.39 719.25,110.39 719.25,110.39 719.87,110.39 719.87,109.56 720.48,109.56 720.48,109.56 721.09,109.56 721.09,109.56 721.71,109.56 721.71,109.56 722.32,109.56 722.32,97.14 722.93,97.14 722.93,97.14 723.55,97.14 723.55,97.14 724.16,97.14 724.16,97.14 724.77,97.14 724.77,97.14 725.39,97.14 725.39,97.14 726.00,97.14 726.00,72.30 726.61,72.30 726.61,69.81 727.23,69.81 727.23,69.81 727.84,69.81 727.84,69.81 728.45,69.81 728.45,69.81 729.07,69.81 729.07,54.08 729.68,54.08 729.68,52.42 730.29,52.42 730.29,52.42 730.91,52.42 730.91,52.42 731.52,52.42 731.52,52.42 732.13,52.42 732.13,52.42 732.75,52.42 732.75,52.42 733.36,52.42 733.36,52.42 733.97,52.42 733.97,52.42 734.59,52.42 734.59,52.42 735.20,52.42 735.20,52.42 735.81,52.42 735.81,52.42 736.43,52.42 736.43,52.42 737.04,52.42 737.04,52.42 737.65,52.42 737.65,52.42 738.27,52.42 738.27,52.42 738.88,52.42 738.88,52.42 739.49,52.42 739.49,52.42 740.11,52.42 740.11,52.42 740.72,52.42 740.72,52.42 741.33,52.42 741.33,52.42 741.95,52.42 741.95,52.42 742.56,52.42 742.56,52.42 743.17,52.42 743.17,52.42 743.79,52.42 743.79,52.42 744.40,52.42 744.40,52.42 745.01,52.42 745.01,52.42 745.63,52.42 745.63,52.42 746.24,52.42 746.24,52.42 746.85,52.42 746.85,52.42 747.47,52.42 747.47,52.42 748.08,52.42 748.08,52.42 748.69,52.42 748.69,52.42 749.31,52.42 749.31,52.42 749.92,52.42 749.92,52.42 750.53,52.42 750.53,52.42 751.15,52.42 751.15,52.42 751.76,52.42 751.76,52.42 752.37,52.42 752.37,52.42 752.99,52.42 752.99,52.42 753.60,52.42 753.60,52.42 754.21,52.42 754.21,52.42 754.83,52.42 754.83,52.42 755.44,52.42 755.44,52.42 756.05,52.42 756.05,52.42 756.67,52.42 756.67,52.42 757.28,52.42 757.28,52.42 757.89,52.42 757.89,52.42 758.51,52.42 758.51,52.42 759.12,52.42 759.12,52.42 759.73,52.42 759.73,52.42 760.35,52.42 760.35,52.42 760.96,52.42 760.96,52.42 761.57,52.42 761.57,52.42 762.19,52.42 762.19,52.42 762.80,52.42 762.80,52.42 763.41,52.42 763.41,52.42 764.03,52.42 764.03,52.42 764.64,52.42 764.64,52.42 765.25,52.42 765.25,52.42 765.87,52.42 765.87,52.42 766.48,52.42 766.48,52.42 767.09,52.42 767.09,52.42 767.71,52.42 767.71,52.42 768.32,52.42 768.32,52.42 768.93,52.42 768.93,52.42 769.55,52.42 769.55,40.00 770.16,40.00 770.16,40.00 770.77,40.00 770.77,40.00 771.39,40.00 771.39,40.00 772.00,40.00 772.00,40.00 772.61,40.00 772.61,40.00 773.23,40.00 773.23,40.00 773.84,40.00 773.84,40.00 774.45,40.00 774.45,40.00 775.07,40.00 775.07,40.00 775.68,40.00 775.68,40.00 776.29,40.00 776.29,40.00 776.91,40.00 776.91,40.00 777.52,40.00 777.52,40.00 778.13,40.00 778.13,40.00 778.75,40.00 778.75,40.00 779.36,40.00 779.36,40.00 779.97,40.00 779.97,40.00 780.59,40.00 780.59,40.00 781.20,40.00 781.20,40.00 781.81,40.00 781.81,40.00 782.43,40.00 782.43,40.00 783.04,40.00 783.04,40.00 783.65,40.00 783.65,40.00 784.27,40.00 784.27,40.00 784.88,40.00 784.88,40.00 785.49,40.00 785.49,40.00 786.11,40.00 786.11,40.00 786.72,40.00 786.72,40.00 787.33,40.00 787.33,40.00 787.95,40.00 787.95,40.00 788.56,40.00 788.56,40.00 789.17,40.00 789.17,40.00 789.79,40.00 789.79,40.00 790.40,40.00 790.40,40.00 791.01,40.00 791.01,40.00 791.63,40.00 791.63,40.00 792.24,40.00 792.24,40.00 792.85,40.00 792.85,40.00 793.47,40.00 793.47,40.00 794.08,40.00 794.08,40.00 794.69,40.00 794.69,40.00 795.31,40.00 795.31,40.00 795.92,40.00 795.92,40.00 796.53,40.00 796.53,40.00 797.15,40.00 797.15,40.00 797.76,40.00 797.76,40.00 798.37,40.00 798.37,40.00 798.99,40.00 798.99,40.00 799.60,40.00 799.60,40.00 800.21,40.00 800.21,40.00 800.83,40.00 800.83,40.00 801.44,40.00 801.44,40.00 802.05,40.00 802.05,40.00 802.67,40.00 802.67,40.00 803.28,40.00 803.28,40.00 803.89,40.00 803.89,40.00 804.51,40.00 804.51,40.00 805.12,40.00 805.12,40.00 805.73,40.00 805.73,40.00 806.35,40.00 806.35,40.00 806.96,40.00 806.96,40.00 807.57,40.00 807.57,40.00 808.19,40.00 808.19,40.00 808.80,40.00 808.80,40.00 809.41,40.00 809.41,40.00 810.03,40.00 810.03,40.00 810.64,40.00 810.64,40.00 811.25,40.00 811.25,40.00 811.87,40.00 811.87,40.00 812.48,40.00 812.48,40.00 813.09,40.00 813.09,40.00 813.71,40.00 813.71,40.00 814.32,40.00 814.32,40.00 814.93,40.00 814.93,40.00 815.55,40.00 815.55,40.00 816.16,40.00 816.16,40.00 816.77,40.00 816.77,40.00 817.39,40.00 817.39,40.00 818.00,40.00 818.00,40.00" fill="none" stroke="#4b8f29" stroke-width="3"/>
<text x="450.0" y="552" text-anchor="middle" font-size="20" font-family="Arial, sans-serif" fill="#111827">Top displacement (mm)</text>
<text x="24" y="280.0" text-anchor="middle" transform="rotate(-90 24 280.0)" font-size="20" font-family="Arial, sans-serif" fill="#111827">Force magnitude (N)</text>
<text x="880" y="280.0" text-anchor="middle" transform="rotate(90 880 280.0)" font-size="20" font-family="Arial, sans-serif" fill="#111827">Broken bonds</text>
<text x="102" y="64" font-size="18" font-family="Arial, sans-serif" fill="#1b6ca8">Top plate</text>
<text x="212" y="64" font-size="18" font-family="Arial, sans-serif" fill="#d1495b">Bottom plate</text>
<text x="352" y="64" font-size="18" font-family="Arial, sans-serif" fill="#4b8f29">Broken bonds</text>
<text x="72" y="45" text-anchor="end" font-size="17" fill="#30363d">21.64</text>
<text x="72" y="488" text-anchor="end" font-size="17" fill="#30363d">0</text>
<text x="828" y="45" text-anchor="start" font-size="17" fill="#30363d">541</text>
<text x="828" y="488" text-anchor="start" font-size="17" fill="#30363d">0</text>
</svg>
