<svg xmlns="http://www.w3.org/2000/svg" width="900" height="560" viewBox="0 0 900 560">
<rect width="100%" height="100%" fill="white"/>
<text x="450.0" y="26" text-anchor="middle" font-size="22" font-family="Arial, sans-serif" fill="#111827">SP-002 force-displacement and bond breakage</text>
<line x1="82" y1="40.00" x2="818" y2="40.00" stroke="#d9dee2" stroke-width="1"/><line x1="82" y1="129.60" x2="818" y2="129.60" stroke="#d9dee2" stroke-width="1"/><line x1="82" y1="219.20" x2="818" y2="219.20" stroke="#d9dee2" stroke-width="1"/><line x1="82" y1="308.80" x2="818" y2="308.80" stroke="#d9dee2" stroke-width="1"/><line x1="82" y1="398.40" x2="818" y2="398.40" stroke="#d9dee2" stroke-width="1"/><line x1="82" y1="488.00" x2="818" y2="488.00" stroke="#d9dee2" stroke-width="1"/><line x1="82.00" y1="40" x2="82.00" y2="488" stroke="#edf0f2" stroke-width="1"/><text x="82.00" y="526" text-anchor="middle" font-size="18" fill="#30363d">0.000</text><line x1="229.20" y1="40" x2="229.20" y2="488" stroke="#edf0f2" stroke-width="1"/><text x="229.20" y="526" text-anchor="middle" font-size="18" fill="#30363d">0.030</text><line x1="376.40" y1="40" x2="376.40" y2="488" stroke="#edf0f2" stroke-width="1"/><text x="376.40" y="526" text-anchor="middle" font-size="18" fill="#30363d">0.060</text><line x1="523.60" y1="40" x2="523.60" y2="488" stroke="#edf0f2" stroke-width="1"/><text x="523.60" y="526" text-anchor="middle" font-size="18" fill="#30363d">0.090</text><line x1="670.80" y1="40" x2="670.80" y2="488" stroke="#edf0f2" stroke-width="1"/><text x="670.80" y="526" text-anchor="middle" font-size="18" fill="#30363d">0.120</text><line x1="818.00" y1="40" x2="818.00" y2="488" stroke="#edf0f2" stroke-width="1"/><text x="818.00" y="526" text-anchor="middle" font-size="18" fill="#30363d">0.150</text>
<line x1="82" y1="40" x2="82" y2="488" stroke="#111827" stroke-width="1.5"/>
<line x1="82" y1="488" x2="818" y2="488" stroke="#111827" stroke-width="1.5"/>
<line x1="818" y1="40" x2="818" y2="488" stroke="#111827" stroke-width="1.5"/>
<polyline points="82.00,488.00 84.45,488.00 86.91,488.00 89.36,488.00 91.81,488.00 94.27,488.00 96.72,488.00 99.17,488.00 101.63,488.00 104.08,488.00 106.53,488.00 108.99,488.00 111.44,488.00 113.89,488.00 116.35,488.00 118.80,488.00 121.25,488.00 123.71,488.00 126.16,488.00 128.61,488.00 131.07,488.00 133.52,488.00 135.97,488.00 138.43,488.00 140.88,488.00 143.33,488.00 145.79,488.00 148.24,488.00 150.69,488.00 153.15,488.00 155.60,488.00 158.05,488.00 160.51,488.00 162.96,488.00 165.41,488.00 167.87,488.00 170.32,488.00 172.77,488.00 175.23,488.00 177.68,488.00 180.13,488.00 182.59,488.00 185.04,488.00 187.49,488.00 189.95,488.00 192.40,488.00 194.85,488.00 197.31,488.00 199.76,488.00 202.21,488.00 204.67,488.00 207.12,488.00 209.57,488.00 212.03,488.00 214.48,488.00 216.93,488.00 219.39,488.00 221.84,488.00 224.29,488.00 226.75,488.00 229.20,488.00 231.65,488.00 234.11,488.00 236.56,488.00 239.01,488.00 241.47,488.00 243.92,488.00 246.37,488.00 248.83,488.00 251.28,488.00 253.73,488.00 256.19,488.00 258.64,488.00 261.09,488.00 263.55,488.00 266.00,488.00 268.45,488.00 270.91,488.00 273.36,488.00 275.81,488.00 278.27,488.00 280.72,488.00 283.17,488.00 285.63,488.00 288.08,488.00 290.53,488.00 292.99,488.00 295.44,488.00 297.89,488.00 300.35,488.00 302.80,488.00 305.25,488.00 307.71,488.00 310.16,488.00 312.61,488.00 315.07,488.00 317.52,488.00 319.97,488.00 322.43,488.00 324.88,488.00 327.33,488.00 329.79,488.00 332.24,488.00 334.69,488.00 337.15,488.00 339.60,488.00 342.05,488.00 344.51,488.00 346.96,488.00 349.41,488.00 351.87,488.00 354.32,488.00 356.77,488.00 359.23,488.00 361.68,488.00 364.13,488.00 366.59,488.00 369.04,488.00 371.49,488.00 373.95,488.00 376.40,488.00 378.85,488.00 381.31,488.00 383.76,488.00 386.21,488.00 388.67,488.00 391.12,488.00 393.57,488.00 396.03,488.00 398.48,488.00 400.93,488.00 403.39,488.00 405.84,488.00 408.29,488.00 410.75,488.00 413.20,488.00 415.65,488.00 418.11,488.00 420.56,488.00 423.01,488.00 425.47,488.00 427.92,488.00 430.37,488.00 432.83,488.00 435.28,488.00 437.73,488.00 440.19,488.00 442.64,488.00 445.09,488.00 447.55,488.00 450.00,488.00 452.45,488.00 454.91,488.00 457.36,488.00 459.81,488.00 462.27,488.00 464.72,488.00 467.17,488.00 469.63,488.00 472.08,488.00 474.53,488.00 476.99,488.00 479.44,488.00 481.89,488.00 484.35,488.00 486.80,488.00 489.25,488.00 491.71,488.00 494.16,488.00 496.61,488.00 499.07,488.00 501.52,488.00 503.97,488.00 506.43,488.00 508.88,488.00 511.33,488.00 513.79,488.00 516.24,488.00 518.69,488.00 521.15,488.00 523.60,488.00 526.05,488.00 528.51,488.00 530.96,488.00 533.41,488.00 535.87,488.00 538.32,488.00 540.77,488.00 543.23,488.00 545.68,488.00 548.13,488.00 550.59,488.00 553.04,488.00 555.49,488.00 557.95,488.00 560.40,488.00 562.85,488.00 565.31,488.00 567.76,488.00 570.21,488.00 572.67,488.00 575.12,484.85 577.57,479.69 580.03,473.43 582.48,466.37 584.93,458.68 587.39,450.44 589.84,441.75 592.29,432.65 594.75,423.19 597.20,413.41 599.65,403.32 602.11,392.97 604.56,382.36 607.01,371.51 609.47,360.45 611.92,348.49 614.37,334.40 616.83,319.30 619.28,331.03 621.73,372.94 624.19,377.08 626.64,372.39 629.09,365.16 631.55,357.13 634.00,348.04 636.45,337.92 638.91,327.43 641.36,316.61 643.81,305.44 646.27,293.60 648.72,420.73 651.17,384.00 653.63,368.12 656.08,356.34 658.53,345.11 660.99,333.78 663.44,322.22 665.89,310.41 668.35,297.95 670.80,284.89 673.25,271.39 675.71,257.54 678.16,243.36 680.61,228.88 683.07,214.14 685.52,199.13 687.97,183.88 690.43,168.39 692.88,297.12 695.33,448.70 697.79,430.46 700.24,418.61 702.69,411.26 705.15,405.39 707.60,399.92 710.05,394.37 712.51,388.77 714.96,383.09 717.41,377.35 719.87,371.56 722.32,365.67 724.77,359.38 727.23,352.72 729.68,345.78 732.13,338.63 734.59,331.28 737.04,323.76 739.49,316.07 741.95,308.22 744.40,300.10 746.85,291.70 749.31,282.75 751.76,271.39 754.21,258.61 756.67,243.80 759.12,227.64 761.57,210.72 764.03,193.29 766.48,175.42 768.93,157.07 771.39,138.13 773.84,118.80 776.29,99.10 778.75,79.06 781.20,58.70 783.65,40.00 786.11,240.42 788.56,354.99 791.01,387.48 793.47,398.88 795.92,402.78 798.37,403.71 800.83,403.43 803.28,402.65 805.73,401.69 808.19,400.74 810.64,399.68 813.09,398.04 815.55,396.48 818.00,394.10" fill="none" stroke="#1b6ca8" stroke-width="3"/>
<polyline points="82.00,488.00 84.45,488.00 86.91,488.00 89.36,488.00 91.81,488.00 94.27,488.00 96.72,488.00 99.17,488.00 101.63,488.00 104.08,488.00 106.53,488.00 108.99,488.00 111.44,488.00 113.89,488.00 116.35,488.00 118.80,488.00 121.25,488.00 123.71,488.00 126.16,488.00 128.61,488.00 131.07,488.00 133.52,488.00 135.97,488.00 138.43,488.00 140.88,488.00 143.33,488.00 145.79,488.00 148.24,488.00 150.69,488.00 153.15,488.00 155.60,488.00 158.05,488.00 160.51,488.00 162.96,488.00 165.41,488.00 167.87,488.00 170.32,488.00 172.77,488.00 175.23,488.00 177.68,488.00 180.13,488.00 182.59,488.00 185.04,488.00 187.49,488.00 189.95,488.00 192.40,488.00 194.85,488.00 197.31,488.00 199.76,488.00 202.21,488.00 204.67,488.00 207.12,488.00 209.57,488.00 212.03,488.00 214.48,488.00 216.93,488.00 219.39,488.00 221.84,488.00 224.29,488.00 226.75,488.00 229.20,488.00 231.65,488.00 234.11,488.00 236.56,488.00 239.01,488.00 241.47,488.00 243.92,488.00 246.37,488.00 248.83,488.00 251.28,488.00 253.73,488.00 256.19,488.00 258.64,488.00 261.09,488.00 263.55,488.00 266.00,488.00 268.45,488.00 270.91,488.00 273.36,488.00 275.81,488.00 278.27,488.00 280.72,488.00 283.17,488.00 285.63,488.00 288.08,488.00 290.53,488.00 292.99,488.00 295.44,488.00 297.89,488.00 300.35,488.00 302.80,488.00 305.25,488.00 307.71,488.00 310.16,488.00 312.61,488.00 315.07,488.00 317.52,488.00 319.97,488.00 322.43,488.00 324.88,488.00 327.33,488.00 329.79,488.00 332.24,488.00 334.69,488.00 337.15,488.00 339.60,488.00 342.05,488.00 344.51,488.00 346.96,488.00 349.41,488.00 351.87,488.00 354.32,488.00 356.77,488.00 359.23,488.00 361.68,488.00 364.13,488.00 366.59,488.00 369.04,488.00 371.49,488.00 373.95,488.00 376.40,488.00 378.85,488.00 381.31,488.00 383.76,488.00 386.21,488.00 388.67,488.00 391.12,488.00 393.57,488.00 396.03,488.00 398.48,488.00 400.93,488.00 403.39,488.00 405.84,488.00 408.29,488.00 410.75,488.00 413.20,488.00 415.65,488.00 418.11,488.00 420.56,488.00 423.01,488.00 425.47,488.00 427.92,488.00 430.37,488.00 432.83,488.00 435.28,488.00 437.73,488.00 440.19,488.00 442.64,488.00 445.09,488.00 447.55,488.00 450.00,488.00 452.45,488.00 454.91,488.00 457.36,488.00 459.81,488.00 462.27,488.00 464.72,488.00 467.17,488.00 469.63,488.00 472.08,488.00 474.53,488.00 476.99,488.00 479.44,488.00 481.89,488.00 484.35,488.00 486.80,488.00 489.25,488.00 491.71,488.00 494.16,488.00 496.61,488.00 499.07,488.00 501.52,488.00 503.97,488.00 506.43,488.00 508.88,488.00 511.33,488.00 513.79,488.00 516.24,488.00 518.69,488.00 521.15,488.00 523.60,488.00 526.05,488.00 528.51,488.00 530.96,488.00 533.41,488.00 535.87,488.00 538.32,488.00 540.77,488.00 543.23,488.00 545.68,488.00 548.13,488.00 550.59,488.00 553.04,488.00 555.49,488.00 557.95,488.00 560.40,488.00 562.85,488.00 565.31,488.00 567.76,488.00 570.21,488.00 572.67,488.00 575.12,486.15 577.57,481.63 580.03,475.75 582.48,468.98 584.93,461.50 587.39,453.46 589.84,444.93 592.29,435.98 594.75,426.65 597.20,416.98 599.65,407.00 602.11,396.74 604.56,386.22 607.01,375.46 609.47,364.48 611.92,353.03 614.37,339.57 616.83,324.79 619.28,477.42 621.73,423.09 624.19,397.93 626.64,384.89 629.09,375.35 631.55,366.67 634.00,357.98 636.45,348.51 638.91,338.39 641.36,327.81 643.81,316.49 646.27,304.37 648.72,364.38 651.17,383.46 653.63,378.15 656.08,368.30 658.53,357.40 660.99,346.12 663.44,334.57 665.89,322.57 668.35,309.63 670.80,296.32 673.25,282.67 675.71,268.72 678.16,254.46 680.61,239.93 683.07,225.13 685.52,210.09 687.97,194.81 690.43,179.29 692.88,262.91 695.33,383.81 697.79,416.17 700.24,422.07 702.69,419.89 705.15,415.45 707.60,410.33 710.05,404.95 712.51,399.41 714.96,393.77 717.41,388.06 719.87,382.28 722.32,376.16 724.77,369.42 727.23,362.50 729.68,355.42 732.13,348.17 734.59,340.75 737.04,333.17 739.49,325.44 741.95,317.54 744.40,309.41 746.85,301.00 749.31,292.27 751.76,281.92 754.21,269.73 756.67,255.59 759.12,239.78 761.57,223.06 764.03,205.76 766.48,187.98 768.93,169.75 771.39,150.97 773.84,131.71 776.29,112.06 778.75,92.06 781.20,71.73 783.65,53.34 786.11,327.69 788.56,444.60 791.01,435.09 793.47,430.79 795.92,428.18 798.37,426.58 800.83,425.40 803.28,424.40 805.73,423.48 808.19,422.66 810.64,421.94 813.09,421.11 815.55,419.90 818.00,416.40" fill="none" stroke="#d1495b" stroke-width="3"/>
<polyline points="82.00,488.00 84.45,488.00 84.45,488.00 86.91,488.00 86.91,488.00 89.36,488.00 89.36,488.00 91.81,488.00 91.81,488.00 94.27,488.00 94.27,488.00 96.72,488.00 96.72,488.00 99.17,488.00 99.17,488.00 101.63,488.00 101.63,488.00 104.08,488.00 104.08,488.00 106.53,488.00 106.53,488.00 108.99,488.00 108.99,488.00 111.44,488.00 111.44,488.00 113.89,488.00 113.89,488.00 116.35,488.00 116.35,488.00 118.80,488.00 118.80,488.00 121.25,488.00 121.25,488.00 123.71,488.00 123.71,488.00 126.16,488.00 126.16,488.00 128.61,488.00 128.61,488.00 131.07,488.00 131.07,488.00 133.52,488.00 133.52,488.00 135.97,488.00 135.97,488.00 138.43,488.00 138.43,488.00 140.88,488.00 140.88,488.00 143.33,488.00 143.33,488.00 145.79,488.00 145.79,488.00 148.24,488.00 148.24,488.00 150.69,488.00 150.69,488.00 153.15,488.00 153.15,488.00 155.60,488.00 155.60,488.00 158.05,488.00 158.05,488.00 160.51,488.00 160.51,488.00 162.96,488.00 162.96,488.00 165.41,488.00 165.41,488.00 167.87,488.00 167.87,488.00 170.32,488.00 170.32,488.00 172.77,488.00 172.77,488.00 175.23,488.00 175.23,488.00 177.68,488.00 177.68,488.00 180.13,488.00 180.13,488.00 182.59,488.00 182.59,488.00 185.04,488.00 185.04,488.00 187.49,488.00 187.49,488.00 189.95,488.00 189.95,488.00 192.40,488.00 192.40,488.00 194.85,488.00 194.85,488.00 197.31,488.00 197.31,488.00 199.76,488.00 199.76,488.00 202.21,488.00 202.21,488.00 204.67,488.00 204.67,488.00 207.12,488.00 207.12,488.00 209.57,488.00 209.57,488.00 212.03,488.00 212.03,488.00 214.48,488.00 214.48,488.00 216.93,488.00 216.93,488.00 219.39,488.00 219.39,488.00 221.84,488.00 221.84,488.00 224.29,488.00 224.29,488.00 226.75,488.00 226.75,488.00 229.20,488.00 229.20,488.00 231.65,488.00 231.65,488.00 234.11,488.00 234.11,488.00 236.56,488.00 236.56,488.00 239.01,488.00 239.01,488.00 241.47,488.00 241.47,488.00 243.92,488.00 243.92,488.00 246.37,488.00 246.37,488.00 248.83,488.00 248.83,488.00 251.28,488.00 251.28,488.00 253.73,488.00 253.73,488.00 256.19,488.00 256.19,488.00 258.64,488.00 258.64,488.00 261.09,488.00 261.09,488.00 263.55,488.00 263.55,488.00 266.00,488.00 266.00,488.00 268.45,488.00 268.45,488.00 270.91,488.00 270.91,488.00 273.36,488.00 273.36,488.00 275.81,488.00 275.81,488.00 278.27,488.00 278.27,488.00 280.72,488.00 280.72,488.00 283.17,488.00 283.17,488.00 285.63,488.00 285.63,488.00 288.08,488.00 288.08,488.00 290.53,488.00 290.53,488.00 292.99,488.00 292.99,488.00 295.44,488.00 295.44,488.00 297.89,488.00 297.89,488.00 300.35,488.00 300.35,488.00 302.80,488.00 302.80,488.00 305.25,488.00 305.25,488.00 307.71,488.00 307.71,488.00 310.16,488.00 310.16,488.00 312.61,488.00 312.61,488.00 315.07,488.00 315.07,488.00 317.52,488.00 317.52,488.00 319.97,488.00 319.97,488.00 322.43,488.00 322.43,488.00 324.88,488.00 324.88,488.00 327.33,488.00 327.33,488.00 329.79,488.00 329.79,488.00 332.24,488.00 332.24,488.00 334.69,488.00 334.69,488.00 337.15,488.00 337.15,488.00 339.60,488.00 339.60,488.00 342.05,488.00 342.05,488.00 344.51,488.00 344.51,488.00 346.96,488.00 346.96,488.00 349.41,488.00 349.41,488.00 351.87,488.00 351.87,488.00 354.32,488.00 354.32,488.00 356.77,488.00 356.77,488.00 359.23,488.00 359.23,488.00 361.68,488.00 361.68,488.00 364.13,488.00 364.13,488.00 366.59,488.00 366.59,488.00 369.04,488.00 369.04,488.00 371.49,488.00 371.49,488.00 373.95,488.00 373.95,488.00 376.40,488.00 376.40,488.00 378.85,488.00 378.85,488.00 381.31,488.00 381.31,488.00 383.76,488.00 383.76,488.00 386.21,488.00 386.21,488.00 388.67,488.00 388.67,488.00 391.12,488.00 391.12,488.00 393.57,488.00 393.57,488.00 396.03,488.00 396.03,488.00 398.48,488.00 398.48,488.00 400.93,488.00 400.93,488.00 403.39,488.00 403.39,488.00 405.84,488.00 405.84,488.00 408.29,488.00 408.29,488.00 410.75,488.00 410.75,488.00 413.20,488.00 413.20,488.00 415.65,488.00 415.65,488.00 418.11,488.00 418.11,488.00 420.56,488.00 420.56,488.00 423.01,488.00 423.01,488.00 425.47,488.00 425.47,488.00 427.92,488.00 427.92,488.00 430.37,488.00 430.37,488.00 432.83,488.00 432.83,488.00 435.28,488.00 435.28,488.00 437.73,488.00 437.73,488.00 440.19,488.00 440.19,488.00 442.64,488.00 442.64,488.00 445.09,488.00 445.09,488.00 447.55,488.00 447.55,488.00 450.00,488.00 450.00,488.00 452.45,488.00 452.45,488.00 454.91,488.00 454.91,488.00 457.36,488.00 457.36,488.00 459.81,488.00 459.81,488.00 462.27,488.00 462.27,488.00 464.72,488.00 464.72,488.00 467.17,488.00 467.17,488.00 469.63,488.00 469.63,488.00 472.08,488.00 472.08,488.00 474.53,488.00 474.53,488.00 476.99,488.00 476.99,488.00 479.44,488.00 479.44,488.00 481.89,488.00 481.89,488.00 484.35,488.00 484.35,488.00 486.80,488.00 486.80,488.00 489.25,488.00 489.25,488.00 491.71,488.00 491.71,488.00 494.16,488.00 494.16,488.00 496.61,488.00 496.61,488.00 499.07,488.00 499.07,488.00 501.52,488.00 501.52,488.00 503.97,488.00 503.97,488.00 506.43,488.00 506.43,488.00 508.88,488.00 508.88,488.00 511.33,488.00 511.33,488.00 513.79,488.00 513.79,488.00 516.24,488.00 516.24,488.00 518.69,488.00 518.69,488.00 521.15,488.00 521.15,488.00 523.60,488.00 523.60,488.00 526.05,488.00 526.05,488.00 528.51,488.00 528.51,488.00 530.96,488.00 530.96,488.00 533.41,488.00 533.41,488.00 535.87,488.00 535.87,488.00 538.32,488.00 538.32,488.00 540.77,488.00 540.77,488.00 543.23,488.00 543.23,488.00 545.68,488.00 545.68,488.00 548.13,488.00 548.13,488.00 550.59,488.00 550.59,488.00 553.04,488.00 553.04,488.00 555.49,488.00 555.49,488.00 557.95,488.00 557.95,488.00 560.40,488.00 560.40,488.00 562.85,488.00 562.85,488.00 565.31,488.00 565.31,488.00 567.76,488.00 567.76,488.00 570.21,488.00 570.21,488.00 572.67,488.00 572.67,488.00 575.12,488.00 575.12,488.00 577.57,488.00 577.57,488.00 580.03,488.00 580.03,488.00 582.48,488.00 582.48,488.00 584.93,488.00 584.93,488.00 587.39,488.00 587.39,488.00 589.84,488.00 589.84,488.00 592.29,488.00 592.29,488.00 594.75,488.00 594.75,488.00 597.20,488.00 597.20,488.00 599.65,488.00 599.65,488.00 602.11,488.00 602.11,488.00 604.56,488.00 604.56,488.00 607.01,488.00 607.01,488.00 609.47,488.00 609.47,488.00 611.92,488.00 611.92,488.00 614.37,488.00 614.37,488.00 616.83,488.00 616.83,488.00 619.28,488.00 619.28,488.00 621.73,488.00 621.73,488.00 624.19,488.00 624.19,488.00 626.64,488.00 626.64,488.00 629.09,488.00 629.09,488.00 631.55,488.00 631.55,488.00 634.00,488.00 634.00,488.00 636.45,488.00 636.45,488.00 638.91,488.00 638.91,488.00 641.36,488.00 641.36,488.00 643.81,488.00 643.81,488.00 646.27,488.00 646.27,488.00 648.72,488.00 648.72,416.15 651.17,416.15 651.17,416.15 653.63,416.15 653.63,416.15 656.08,416.15 656.08,416.15 658.53,416.15 658.53,416.15 660.99,416.15 660.99,416.15 663.44,416.15 663.44,416.15 665.89,416.15 665.89,416.15 668.35,416.15 668.35,416.15 670.80,416.15 670.80,416.15 673.25,416.15 673.25,416.15 675.71,416.15 675.71,416.15 678.16,416.15 678.16,416.15 680.61,416.15 680.61,416.15 683.07,416.15 683.07,416.15 685.52,416.15 685.52,416.15 687.97,416.15 687.97,416.15 690.43,416.15 690.43,416.15 692.88,416.15 692.88,335.85 695.33,335.85 695.33,264.00 697.79,264.00 697.79,264.00 700.24,264.00 700.24,264.00 702.69,264.00 702.69,264.00 705.15,264.00 705.15,264.00 707.60,264.00 707.60,264.00 710.05,264.00 710.05,264.00 712.51,264.00 712.51,264.00 714.96,264.00 714.96,264.00 717.41,264.00 717.41,264.00 719.87,264.00 719.87,264.00 722.32,264.00 722.32,264.00 724.77,264.00 724.77,264.00 727.23,264.00 727.23,264.00 729.68,264.00 729.68,264.00 732.13,264.00 732.13,264.00 734.59,264.00 734.59,264.00 737.04,264.00 737.04,264.00 739.49,264.00 739.49,264.00 741.95,264.00 741.95,264.00 744.40,264.00 744.40,264.00 746.85,264.00 746.85,264.00 749.31,264.00 749.31,264.00 751.76,264.00 751.76,264.00 754.21,264.00 754.21,264.00 756.67,264.00 756.67,264.00 759.12,264.00 759.12,264.00 761.57,264.00 761.57,264.00 764.03,264.00 764.03,264.00 766.48,264.00 766.48,264.00 768.93,264.00 768.93,264.00 771.39,264.00 771.39,264.00 773.84,264.00 773.84,264.00 776.29,264.00 776.29,264.00 778.75,264.00 778.75,264.00 781.20,264.00 781.20,264.00 783.65,264.00 783.65,259.77 786.11,259.77 786.11,82.26 788.56,82.26 788.56,40.00 791.01,40.00 791.01,40.00 793.47,40.00 793.47,40.00 795.92,40.00 795.92,40.00 798.37,40.00 798.37,40.00 800.83,40.00 800.83,40.00 803.28,40.00 803.28,40.00 805.73,40.00 805.73,40.00 808.19,40.00 808.19,40.00 810.64,40.00 810.64,40.00 813.09,40.00 813.09,40.00 815.55,40.00 815.55,40.00 818.00,40.00 818.00,40.00" fill="none" stroke="#4b8f29" stroke-width="3"/>
<text x="450.0" y="552" text-anchor="middle" font-size="20" font-family="Arial, sans-serif" fill="#111827">Top displacement (mm)</text>
<text x="24" y="280.0" text-anchor="middle" transform="rotate(-90 24 280.0)" font-size="20" font-family="Arial, sans-serif" fill="#111827">Force magnitude (N)</text>
<text x="880" y="280.0" text-anchor="middle" transform="rotate(90 880 280.0)" font-size="20" font-family="Arial, sans-serif" fill="#111827">Broken bonds</text>
<text x="102" y="64" font-size="18" font-family="Arial, sans-serif" fill="#1b6ca8">Top plate</text>
<text x="212" y="64" font-size="18" font-family="Arial, sans-serif" fill="#d1495b">Bottom plate</text>
<text x="352" y="64" font-size="18" font-family="Arial, sans-serif" fill="#4b8f29">Broken bonds</text>
<text x="72" y="45" text-anchor="end" font-size="17" fill="#30363d">18.45</text>
<text x="72" y="488" text-anchor="end" font-size="17" fill="#30363d">0</text>
<text x="828" y="45" text-anchor="start" font-size="17" fill="#30363d">106</text>
<text x="828" y="488" text-anchor="start" font-size="17" fill="#30363d">0</text>
</svg>
