<svg xmlns="http://www.w3.org/2000/svg" width="900" height="560" viewBox="0 0 900 560">
<rect width="100%" height="100%" fill="white"/>
<text x="450.0" y="26" text-anchor="middle" font-size="22" font-family="Arial, sans-serif" fill="#111827">SP-002 force-displacement and bond breakage</text>
<line x1="82" y1="40.00" x2="818" y2="40.00" stroke="#d9dee2" stroke-width="1"/><line x1="82" y1="129.60" x2="818" y2="129.60" stroke="#d9dee2" stroke-width="1"/><line x1="82" y1="219.20" x2="818" y2="219.20" stroke="#d9dee2" stroke-width="1"/><line x1="82" y1="308.80" x2="818" y2="308.80" stroke="#d9dee2" stroke-width="1"/><line x1="82" y1="398.40" x2="818" y2="398.40" stroke="#d9dee2" stroke-width="1"/><line x1="82" y1="488.00" x2="818" y2="488.00" stroke="#d9dee2" stroke-width="1"/><line x1="82.00" y1="40" x2="82.00" y2="488" stroke="#edf0f2" stroke-width="1"/><text x="82.00" y="526" text-anchor="middle" font-size="18" fill="#30363d">0.000</text><line x1="229.20" y1="40" x2="229.20" y2="488" stroke="#edf0f2" stroke-width="1"/><text x="229.20" y="526" text-anchor="middle" font-size="18" fill="#30363d">0.060</text><line x1="376.40" y1="40" x2="376.40" y2="488" stroke="#edf0f2" stroke-width="1"/><text x="376.40" y="526" text-anchor="middle" font-size="18" fill="#30363d">0.120</text><line x1="523.60" y1="40" x2="523.60" y2="488" stroke="#edf0f2" stroke-width="1"/><text x="523.60" y="526" text-anchor="middle" font-size="18" fill="#30363d">0.180</text><line x1="670.80" y1="40" x2="670.80" y2="488" stroke="#edf0f2" stroke-width="1"/><text x="670.80" y="526" text-anchor="middle" font-size="18" fill="#30363d">0.240</text><line x1="818.00" y1="40" x2="818.00" y2="488" stroke="#edf0f2" stroke-width="1"/><text x="818.00" y="526" text-anchor="middle" font-size="18" fill="#30363d">0.300</text>
<line x1="82" y1="40" x2="82" y2="488" stroke="#111827" stroke-width="1.5"/>
<line x1="82" y1="488" x2="818" y2="488" stroke="#111827" stroke-width="1.5"/>
<line x1="818" y1="40" x2="818" y2="488" stroke="#111827" stroke-width="1.5"/>
<polyline points="82.00,488.00 83.23,488.00 84.45,488.00 85.68,488.00 86.91,488.00 88.13,488.00 89.36,488.00 90.59,488.00 91.81,488.00 93.04,488.00 94.27,488.00 95.49,488.00 96.72,488.00 97.95,488.00 99.17,488.00 100.40,488.00 101.63,488.00 102.85,488.00 104.08,488.00 105.31,488.00 106.53,488.00 107.76,488.00 108.99,488.00 110.21,488.00 111.44,488.00 112.67,488.00 113.89,488.00 115.12,488.00 116.35,488.00 117.57,488.00 118.80,488.00 120.03,488.00 121.25,488.00 122.48,488.00 123.71,488.00 124.93,488.00 126.16,488.00 127.39,488.00 128.61,488.00 129.84,488.00 131.07,488.00 132.29,488.00 133.52,488.00 134.75,488.00 135.97,488.00 137.20,488.00 138.43,488.00 139.65,488.00 140.88,488.00 142.11,488.00 143.33,488.00 144.56,488.00 145.79,488.00 147.01,488.00 148.24,488.00 149.47,488.00 150.69,488.00 151.92,488.00 153.15,488.00 154.37,488.00 155.60,488.00 156.83,488.00 158.05,488.00 159.28,488.00 160.51,488.00 161.73,488.00 162.96,488.00 164.19,488.00 165.41,488.00 166.64,488.00 167.87,488.00 169.09,488.00 170.32,488.00 171.55,488.00 172.77,488.00 174.00,488.00 175.23,488.00 176.45,488.00 177.68,488.00 178.91,488.00 180.13,488.00 181.36,488.00 182.59,488.00 183.81,488.00 185.04,488.00 186.27,488.00 187.49,488.00 188.72,488.00 189.95,488.00 191.17,488.00 192.40,488.00 193.63,488.00 194.85,488.00 196.08,488.00 197.31,488.00 198.53,488.00 199.76,488.00 200.99,488.00 202.21,488.00 203.44,488.00 204.67,488.00 205.89,488.00 207.12,488.00 208.35,488.00 209.57,488.00 210.80,488.00 212.03,488.00 213.25,488.00 214.48,488.00 215.71,488.00 216.93,488.00 218.16,488.00 219.39,488.00 220.61,488.00 221.84,488.00 223.07,488.00 224.29,488.00 225.52,488.00 226.75,488.00 227.97,488.00 229.20,488.00 230.43,488.00 231.65,488.00 232.88,488.00 234.11,488.00 235.33,488.00 236.56,488.00 237.79,488.00 239.01,488.00 240.24,488.00 241.47,488.00 242.69,488.00 243.92,488.00 245.15,488.00 246.37,488.00 247.60,488.00 248.83,488.00 250.05,488.00 251.28,488.00 252.51,488.00 253.73,488.00 254.96,488.00 256.19,488.00 257.41,488.00 258.64,488.00 259.87,488.00 261.09,488.00 262.32,488.00 263.55,488.00 264.77,488.00 266.00,488.00 267.23,488.00 268.45,488.00 269.68,488.00 270.91,488.00 272.13,488.00 273.36,488.00 274.59,488.00 275.81,488.00 277.04,488.00 278.27,488.00 279.49,488.00 280.72,488.00 281.95,488.00 283.17,488.00 284.40,488.00 285.63,488.00 286.85,488.00 288.08,488.00 289.31,488.00 290.53,488.00 291.76,488.00 292.99,488.00 294.21,488.00 295.44,488.00 296.67,488.00 297.89,488.00 299.12,488.00 300.35,488.00 301.57,488.00 302.80,488.00 304.03,488.00 305.25,488.00 306.48,488.00 307.71,488.00 308.93,488.00 310.16,488.00 311.39,488.00 312.61,488.00 313.84,488.00 315.07,488.00 316.29,488.00 317.52,488.00 318.75,488.00 319.97,488.00 321.20,488.00 322.43,488.00 323.65,488.00 324.88,488.00 326.11,488.00 327.33,488.00 328.56,485.73 329.79,482.11 331.01,477.80 332.24,473.00 333.47,467.83 334.69,462.35 335.92,456.60 337.15,450.62 338.37,444.44 339.60,438.08 340.83,431.55 342.05,425.22 343.28,419.33 344.51,439.07 345.73,445.19 346.96,441.68 348.19,436.99 349.41,432.04 350.64,425.32 351.87,417.23 353.09,408.52 354.32,399.37 355.55,462.82 356.77,447.65 358.00,438.03 359.23,429.49 360.45,421.01 361.68,413.63 362.91,418.00 364.13,427.47 365.36,473.63 366.59,476.31 367.81,477.69 369.04,477.37 370.27,474.91 371.49,471.82 372.72,468.49 373.95,464.99 375.17,461.30 376.40,457.47 377.63,453.52 378.85,449.48 380.08,445.37 381.31,441.20 382.53,436.98 383.76,434.04 384.99,439.75 386.21,444.59 387.44,444.48 388.67,442.47 389.89,439.66 391.12,436.42 392.35,432.96 393.57,429.33 394.80,425.62 396.03,421.89 397.25,418.12 398.48,414.31 399.71,410.48 400.93,406.61 402.16,453.15 403.39,450.31 404.61,449.94 405.84,449.43 407.07,447.50 408.29,445.44 409.52,443.51 410.75,441.75 411.97,440.15 413.20,437.43 414.43,432.63 415.65,427.16 416.88,421.33 418.11,415.15 419.33,408.70 420.56,402.16 421.79,395.51 423.01,388.76 424.24,381.92 425.47,374.96 426.69,367.84 427.92,361.47 429.15,376.70 430.37,366.16 431.60,358.22 432.83,350.55 434.05,346.82 435.28,393.32 436.51,447.63 437.73,460.14 438.96,463.62 440.19,463.92 441.41,463.00 442.64,461.54 443.87,459.86 445.09,458.11 446.32,455.05 447.55,451.76 448.77,448.14 450.00,444.13 451.23,439.84 452.45,435.35 453.68,432.44 454.91,429.84 456.13,436.76 457.36,443.15 458.59,443.58 459.81,441.04 461.04,437.30 462.27,432.23 463.49,426.50 464.72,420.40 465.95,414.03 467.17,407.33 468.40,399.22 469.63,389.90 470.85,379.83 472.08,369.23 473.31,358.23 474.53,346.90 475.76,335.28 476.99,323.40 478.21,451.65 479.44,438.80 480.67,429.71 481.89,423.06 483.12,416.74 484.35,410.26 485.57,403.65 486.80,396.92 488.03,390.07 489.25,383.11 490.48,412.70 491.71,406.05 492.93,401.76 494.16,398.18 495.39,394.87 496.61,390.79 497.84,386.44 499.07,381.99 500.29,377.52 501.52,373.12 502.75,368.84 503.97,364.75 505.20,358.74 506.43,351.77 507.65,344.41 508.88,337.26 510.11,330.34 511.33,323.62 512.56,317.07 513.79,310.43 515.01,301.96 516.24,293.18 517.47,284.15 518.69,272.98 519.92,290.27 521.15,351.47 522.37,360.90 523.60,359.97 524.83,356.47 526.05,352.25 527.28,347.71 528.51,342.72 529.73,374.34 530.96,413.52 532.19,417.62 533.41,416.80 534.64,414.10 535.87,410.54 537.09,406.58 538.32,402.18 539.55,397.03 540.77,391.10 542.00,384.56 543.23,377.35 544.45,369.54 545.68,361.37 546.91,352.92 548.13,343.98 549.36,333.55 550.59,322.25 551.81,310.32 553.04,347.98 554.27,346.24 555.49,336.07 556.72,324.40 557.95,312.15 559.17,299.54 560.40,286.61 561.63,276.02 562.85,312.24 564.08,309.54 565.31,367.99 566.53,334.87 567.76,346.93 568.99,331.04 570.21,317.95 571.44,304.15 572.67,325.27 573.89,341.60 575.12,337.97 576.35,332.77 577.57,326.72 578.80,320.08 580.03,312.95 581.25,305.90 582.48,328.29 583.71,341.28 584.93,366.04 586.16,372.76 587.39,377.01 588.61,384.26 589.84,387.07 591.07,384.47 592.29,380.56 593.52,376.15 594.75,371.55 595.97,366.81 597.20,360.45 598.43,352.23 599.65,342.96 600.88,332.77 602.11,321.83 603.33,310.29 604.56,300.22 605.79,291.63 607.01,278.16 608.24,269.09 609.47,324.34 610.69,333.28 611.92,335.05 613.15,312.84 614.37,325.91 615.60,330.77 616.83,335.13 618.05,332.00 619.28,330.01 620.51,327.97 621.73,325.40 622.96,323.09 624.19,321.04 625.41,319.19 626.64,317.59 627.87,316.42 629.09,315.84 630.32,316.00 631.55,317.06 632.77,328.61 634.00,330.08 635.23,324.96 636.45,317.97 637.68,310.11 638.91,301.51 640.13,291.65 641.36,280.62 642.59,268.76 643.81,257.11 645.04,243.34 646.27,228.99 647.49,214.69 648.72,289.57 649.95,309.16 651.17,296.92 652.40,283.63 653.63,286.96 654.85,361.89 656.08,334.01 657.31,323.73 658.53,313.03 659.76,301.39 660.99,288.78 662.21,275.10 663.44,324.00 664.67,327.55 665.89,329.38 667.12,324.27 668.35,313.51 669.57,305.07 670.80,297.49 672.03,345.15 673.25,339.33 674.48,333.88 675.71,328.29 676.93,381.71 678.16,373.88 679.39,369.21 680.61,364.04 681.84,357.60 683.07,350.56 684.29,343.11 685.52,335.33 686.75,327.27 687.97,319.00 689.20,310.52 690.43,301.85 691.65,292.92 692.88,283.80 694.11,274.48 695.33,265.02 696.56,278.65 697.79,273.44 699.01,265.20 700.24,256.75 701.47,248.42 702.69,240.11 703.92,231.79 705.15,299.15 706.37,316.01 707.60,306.79 708.83,297.32 710.05,288.63 711.28,280.24 712.51,271.83 713.73,263.41 714.96,254.99 716.19,245.88 717.41,235.82 718.64,224.73 719.87,212.65 721.09,230.80 722.32,234.38 723.55,227.42 724.77,218.82 726.00,209.89 727.23,201.09 728.45,192.70 729.68,184.15 730.91,174.98 732.13,165.13 733.36,153.87 734.59,141.37 735.81,127.48 737.04,112.74 738.27,97.28 739.49,80.98 740.72,63.93 741.95,48.05 743.17,61.77 744.40,40.00 745.63,148.65 746.85,237.88 748.08,227.84 749.31,219.54 750.53,271.63 751.76,272.28 752.99,266.09 754.21,258.31 755.44,249.67 756.67,240.37 757.89,230.71 759.12,220.97 760.35,211.01 761.57,242.65 762.80,229.93 764.03,221.21 765.25,254.83 766.48,231.62 767.71,274.33 768.93,245.47 770.16,238.05 771.39,257.39 772.61,257.97 773.84,253.64 775.07,251.32 776.29,249.23 777.52,246.15 778.75,243.06 779.97,243.08 781.20,246.32 782.43,253.39 783.65,276.46 784.88,298.16 786.11,290.94 787.33,281.28 788.56,271.10 789.79,260.48 791.01,250.18 792.24,238.96 793.47,227.83 794.69,216.34 795.92,203.77 797.15,190.85 798.37,273.63 799.60,308.18 800.83,309.95 802.05,306.31 803.28,300.88 804.51,293.12 805.73,283.91 806.96,273.78 808.19,262.75 809.41,250.69 810.64,257.56 811.87,250.24 813.09,246.96 814.32,241.65 815.55,235.99 816.77,268.79 818.00,267.57" fill="none" stroke="#1b6ca8" stroke-width="3"/>
<polyline points="82.00,488.00 83.23,488.00 84.45,488.00 85.68,488.00 86.91,488.00 88.13,488.00 89.36,488.00 90.59,488.00 91.81,488.00 93.04,488.00 94.27,488.00 95.49,488.00 96.72,488.00 97.95,488.00 99.17,488.00 100.40,488.00 101.63,488.00 102.85,488.00 104.08,488.00 105.31,488.00 106.53,488.00 107.76,488.00 108.99,488.00 110.21,488.00 111.44,488.00 112.67,488.00 113.89,488.00 115.12,488.00 116.35,488.00 117.57,488.00 118.80,488.00 120.03,488.00 121.25,488.00 122.48,488.00 123.71,488.00 124.93,488.00 126.16,488.00 127.39,488.00 128.61,488.00 129.84,488.00 131.07,488.00 132.29,488.00 133.52,488.00 134.75,488.00 135.97,488.00 137.20,488.00 138.43,488.00 139.65,488.00 140.88,488.00 142.11,488.00 143.33,488.00 144.56,488.00 145.79,488.00 147.01,488.00 148.24,488.00 149.47,488.00 150.69,488.00 151.92,488.00 153.15,488.00 154.37,488.00 155.60,488.00 156.83,488.00 158.05,488.00 159.28,488.00 160.51,488.00 161.73,488.00 162.96,488.00 164.19,488.00 165.41,488.00 166.64,488.00 167.87,488.00 169.09,488.00 170.32,488.00 171.55,488.00 172.77,488.00 174.00,488.00 175.23,488.00 176.45,488.00 177.68,488.00 178.91,488.00 180.13,488.00 181.36,488.00 182.59,488.00 183.81,488.00 185.04,488.00 186.27,488.00 187.49,488.00 188.72,488.00 189.95,488.00 191.17,488.00 192.40,488.00 193.63,488.00 194.85,488.00 196.08,488.00 197.31,488.00 198.53,488.00 199.76,488.00 200.99,488.00 202.21,488.00 203.44,488.00 204.67,488.00 205.89,488.00 207.12,488.00 208.35,488.00 209.57,488.00 210.80,488.00 212.03,488.00 213.25,488.00 214.48,488.00 215.71,488.00 216.93,488.00 218.16,488.00 219.39,488.00 220.61,488.00 221.84,488.00 223.07,488.00 224.29,488.00 225.52,488.00 226.75,488.00 227.97,488.00 229.20,488.00 230.43,488.00 231.65,488.00 232.88,488.00 234.11,488.00 235.33,488.00 236.56,488.00 237.79,488.00 239.01,488.00 240.24,488.00 241.47,488.00 242.69,488.00 243.92,488.00 245.15,488.00 246.37,488.00 247.60,488.00 248.83,488.00 250.05,488.00 251.28,488.00 252.51,488.00 253.73,488.00 254.96,488.00 256.19,488.00 257.41,488.00 258.64,488.00 259.87,488.00 261.09,488.00 262.32,488.00 263.55,488.00 264.77,488.00 266.00,488.00 267.23,488.00 268.45,488.00 269.68,488.00 270.91,488.00 272.13,488.00 273.36,488.00 274.59,488.00 275.81,488.00 277.04,488.00 278.27,488.00 279.49,488.00 280.72,488.00 281.95,488.00 283.17,488.00 284.40,488.00 285.63,488.00 286.85,488.00 288.08,488.00 289.31,488.00 290.53,488.00 291.76,488.00 292.99,488.00 294.21,488.00 295.44,488.00 296.67,488.00 297.89,488.00 299.12,488.00 300.35,488.00 301.57,488.00 302.80,488.00 304.03,488.00 305.25,488.00 306.48,488.00 307.71,488.00 308.93,488.00 310.16,488.00 311.39,488.00 312.61,488.00 313.84,488.00 315.07,488.00 316.29,488.00 317.52,488.00 318.75,488.00 319.97,488.00 321.20,488.00 322.43,488.00 323.65,488.00 324.88,488.00 326.11,488.00 327.33,488.00 328.56,486.70 329.79,483.55 331.01,479.50 332.24,474.89 333.47,469.86 334.69,464.50 335.92,458.85 337.15,452.96 338.37,446.86 339.60,440.57 340.83,434.10 342.05,427.49 343.28,421.52 344.51,465.75 345.73,452.56 346.96,445.91 348.19,440.78 349.41,435.77 350.64,429.83 351.87,422.22 353.09,413.78 354.32,404.81 355.55,437.39 356.77,447.26 358.00,442.37 359.23,434.83 360.45,426.58 361.68,424.52 362.91,454.22 364.13,450.59 365.36,476.38 366.59,483.21 367.81,484.92 369.04,483.43 370.27,481.17 371.49,478.51 372.72,475.53 373.95,472.03 375.17,468.22 376.40,464.24 377.63,460.17 378.85,456.03 380.08,451.83 381.31,447.59 382.53,443.31 383.76,442.19 384.99,466.12 386.21,460.73 387.44,456.27 388.67,452.36 389.89,448.68 391.12,445.06 392.35,441.45 393.57,437.79 394.80,434.08 396.03,430.34 397.25,426.57 398.48,422.77 399.71,418.94 400.93,415.08 402.16,422.21 403.39,436.04 404.61,441.67 405.84,444.84 407.07,446.66 408.29,447.47 409.52,447.57 410.75,447.15 411.97,446.39 413.20,445.10 414.43,442.31 415.65,438.32 416.88,433.55 418.11,428.18 419.33,422.31 420.56,416.10 421.79,409.65 423.01,402.99 424.24,396.13 425.47,389.07 426.69,381.84 427.92,376.18 429.15,383.78 430.37,378.48 431.60,371.37 432.83,363.97 434.05,357.28 435.28,487.98 436.51,486.70 437.73,483.79 438.96,481.00 440.19,478.46 441.41,476.26 442.64,474.27 443.87,472.39 445.09,470.61 446.32,468.51 447.55,465.46 448.77,461.48 450.00,457.15 451.23,452.63 452.45,448.01 453.68,447.64 454.91,443.57 456.13,466.62 457.36,464.59 458.59,460.77 459.81,458.45 461.04,452.53 462.27,446.49 463.49,440.32 464.72,433.99 465.95,427.47 467.17,419.93 468.40,409.93 469.63,399.64 470.85,389.14 472.08,378.37 473.31,367.29 474.53,355.93 475.76,344.30 476.99,332.41 478.21,329.06 479.44,427.13 480.67,432.35 481.89,428.54 483.12,422.97 484.35,416.81 485.57,410.28 486.80,403.54 488.03,396.67 489.25,389.68 490.48,401.94 491.71,405.84 492.93,404.30 494.16,401.48 495.39,398.38 496.61,394.80 497.84,390.64 499.07,386.16 500.29,381.54 501.52,376.91 502.75,372.34 503.97,367.91 505.20,362.87 506.43,356.48 507.65,349.54 508.88,342.45 510.11,335.43 511.33,328.53 512.56,321.79 513.79,315.12 515.01,307.73 516.24,299.61 517.47,291.09 518.69,281.39 519.92,301.62 521.15,370.25 522.37,371.67 523.60,370.60 524.83,367.80 526.05,363.94 527.28,359.37 528.51,354.26 529.73,456.94 530.96,441.10 532.19,432.12 533.41,427.72 534.64,424.45 535.87,420.99 537.09,417.22 538.32,413.13 539.55,407.86 540.77,401.58 542.00,394.86 543.23,387.35 544.45,379.46 545.68,371.28 546.91,362.85 548.13,353.39 549.36,342.53 550.59,331.25 551.81,319.45 553.04,375.36 554.27,358.72 555.49,346.62 556.72,334.67 557.95,322.40 559.17,309.80 560.40,296.88 561.63,357.08 562.85,334.68 564.08,320.00 565.31,327.33 566.53,342.19 567.76,343.03 568.99,337.66 570.21,325.36 571.44,311.92 572.67,353.28 573.89,347.85 575.12,342.52 576.35,337.73 577.57,332.22 578.80,326.00 580.03,319.24 581.25,312.45 582.48,341.10 583.71,382.49 584.93,380.79 586.16,384.83 587.39,388.77 588.61,402.54 589.84,399.66 591.07,394.40 592.29,389.58 593.52,384.70 594.75,380.05 595.97,374.69 597.20,367.30 598.43,358.97 599.65,349.80 600.88,339.74 602.11,329.02 603.33,317.86 604.56,306.78 605.79,295.56 607.01,288.74 608.24,275.28 609.47,331.90 610.69,342.63 611.92,343.27 613.15,342.04 614.37,340.27 615.60,338.42 616.83,339.09 618.05,337.81 619.28,335.95 620.51,334.10 621.73,332.04 622.96,329.91 624.19,327.96 625.41,326.20 626.64,324.76 627.87,323.61 629.09,323.29 630.32,323.48 631.55,324.44 632.77,328.33 634.00,335.74 635.23,332.76 636.45,326.59 637.68,319.16 638.91,310.74 640.13,300.96 641.36,290.30 642.59,278.70 643.81,266.13 645.04,253.43 646.27,239.13 647.49,224.86 648.72,352.64 649.95,322.26 651.17,306.80 652.40,294.26 653.63,280.70 654.85,335.71 656.08,345.87 657.31,336.23 658.53,325.14 659.76,313.09 660.99,300.05 662.21,285.95 663.44,355.76 664.67,342.48 665.89,337.29 667.12,331.07 668.35,326.04 669.57,318.22 670.80,310.48 672.03,353.36 673.25,351.75 674.48,346.65 675.71,341.09 676.93,372.70 678.16,380.76 679.39,379.07 680.61,373.92 681.84,367.40 683.07,360.30 684.29,352.79 685.52,344.97 686.75,336.90 687.97,328.64 689.20,320.15 690.43,311.38 691.65,302.24 692.88,292.95 694.11,283.49 695.33,273.95 696.56,292.40 697.79,283.35 699.01,275.10 700.24,266.79 701.47,258.49 702.69,250.17 703.92,241.86 705.15,283.98 706.37,303.63 707.60,308.57 708.83,304.35 710.05,296.78 711.28,288.67 712.51,280.40 713.73,272.03 714.96,263.64 716.19,254.88 717.41,245.09 718.64,234.25 719.87,222.27 721.09,226.83 722.32,240.68 723.55,236.12 724.77,228.22 726.00,219.45 727.23,211.17 728.45,203.22 729.68,194.74 730.91,185.36 732.13,175.13 733.36,163.59 734.59,151.17 735.81,137.41 737.04,122.71 738.27,107.19 739.49,90.79 740.72,73.68 741.95,56.79 743.17,63.30 744.40,49.20 745.63,110.77 746.85,218.96 748.08,229.95 749.31,225.86 750.53,274.99 751.76,277.24 752.99,271.19 754.21,264.41 755.44,256.71 756.67,248.24 757.89,239.30 759.12,230.01 760.35,220.45 761.57,232.03 762.80,235.72 764.03,228.67 765.25,230.02 766.48,236.78 767.71,233.51 768.93,249.61 770.16,245.25 771.39,259.56 772.61,267.92 773.84,266.06 775.07,263.67 776.29,262.00 777.52,259.21 778.75,255.76 779.97,254.10 781.20,255.43 782.43,262.61 783.65,298.69 784.88,301.63 786.11,296.59 787.33,288.42 788.56,278.86 789.79,268.54 791.01,258.57 792.24,247.35 793.47,237.31 794.69,225.10 795.92,212.69 797.15,199.86 798.37,307.25 799.60,320.76 800.83,318.66 802.05,314.47 803.28,309.18 804.51,302.13 805.73,293.46 806.96,283.68 808.19,273.02 809.41,261.42 810.64,250.82 811.87,264.76 813.09,259.80 814.32,254.09 815.55,248.47 816.77,281.74 818.00,280.88" fill="none" stroke="#d1495b" stroke-width="3"/>
<polyline points="82.00,488.00 83.23,488.00 83.23,488.00 84.45,488.00 84.45,488.00 85.68,488.00 85.68,488.00 86.91,488.00 86.91,488.00 88.13,488.00 88.13,488.00 89.36,488.00 89.36,488.00 90.59,488.00 90.59,488.00 91.81,488.00 91.81,488.00 93.04,488.00 93.04,488.00 94.27,488.00 94.27,488.00 95.49,488.00 95.49,488.00 96.72,488.00 96.72,488.00 97.95,488.00 97.95,488.00 99.17,488.00 99.17,488.00 100.40,488.00 100.40,488.00 101.63,488.00 101.63,488.00 102.85,488.00 102.85,488.00 104.08,488.00 104.08,488.00 105.31,488.00 105.31,488.00 106.53,488.00 106.53,488.00 107.76,488.00 107.76,488.00 108.99,488.00 108.99,488.00 110.21,488.00 110.21,488.00 111.44,488.00 111.44,488.00 112.67,488.00 112.67,488.00 113.89,488.00 113.89,488.00 115.12,488.00 115.12,488.00 116.35,488.00 116.35,488.00 117.57,488.00 117.57,488.00 118.80,488.00 118.80,488.00 120.03,488.00 120.03,488.00 121.25,488.00 121.25,488.00 122.48,488.00 122.48,488.00 123.71,488.00 123.71,488.00 124.93,488.00 124.93,488.00 126.16,488.00 126.16,488.00 127.39,488.00 127.39,488.00 128.61,488.00 128.61,488.00 129.84,488.00 129.84,488.00 131.07,488.00 131.07,488.00 132.29,488.00 132.29,488.00 133.52,488.00 133.52,488.00 134.75,488.00 134.75,488.00 135.97,488.00 135.97,488.00 137.20,488.00 137.20,488.00 138.43,488.00 138.43,488.00 139.65,488.00 139.65,488.00 140.88,488.00 140.88,488.00 142.11,488.00 142.11,488.00 143.33,488.00 143.33,488.00 144.56,488.00 144.56,488.00 145.79,488.00 145.79,488.00 147.01,488.00 147.01,488.00 148.24,488.00 148.24,488.00 149.47,488.00 149.47,488.00 150.69,488.00 150.69,488.00 151.92,488.00 151.92,488.00 153.15,488.00 153.15,488.00 154.37,488.00 154.37,488.00 155.60,488.00 155.60,488.00 156.83,488.00 156.83,488.00 158.05,488.00 158.05,488.00 159.28,488.00 159.28,488.00 160.51,488.00 160.51,488.00 161.73,488.00 161.73,488.00 162.96,488.00 162.96,488.00 164.19,488.00 164.19,488.00 165.41,488.00 165.41,488.00 166.64,488.00 166.64,488.00 167.87,488.00 167.87,488.00 169.09,488.00 169.09,488.00 170.32,488.00 170.32,488.00 171.55,488.00 171.55,488.00 172.77,488.00 172.77,488.00 174.00,488.00 174.00,488.00 175.23,488.00 175.23,488.00 176.45,488.00 176.45,488.00 177.68,488.00 177.68,488.00 178.91,488.00 178.91,488.00 180.13,488.00 180.13,488.00 181.36,488.00 181.36,488.00 182.59,488.00 182.59,488.00 183.81,488.00 183.81,488.00 185.04,488.00 185.04,488.00 186.27,488.00 186.27,488.00 187.49,488.00 187.49,488.00 188.72,488.00 188.72,488.00 189.95,488.00 189.95,488.00 191.17,488.00 191.17,488.00 192.40,488.00 192.40,488.00 193.63,488.00 193.63,488.00 194.85,488.00 194.85,488.00 196.08,488.00 196.08,488.00 197.31,488.00 197.31,488.00 198.53,488.00 198.53,488.00 199.76,488.00 199.76,488.00 200.99,488.00 200.99,488.00 202.21,488.00 202.21,488.00 203.44,488.00 203.44,488.00 204.67,488.00 204.67,488.00 205.89,488.00 205.89,488.00 207.12,488.00 207.12,488.00 208.35,488.00 208.35,488.00 209.57,488.00 209.57,488.00 210.80,488.00 210.80,488.00 212.03,488.00 212.03,488.00 213.25,488.00 213.25,488.00 214.48,488.00 214.48,488.00 215.71,488.00 215.71,488.00 216.93,488.00 216.93,488.00 218.16,488.00 218.16,488.00 219.39,488.00 219.39,488.00 220.61,488.00 220.61,488.00 221.84,488.00 221.84,488.00 223.07,488.00 223.07,488.00 224.29,488.00 224.29,488.00 225.52,488.00 225.52,488.00 226.75,488.00 226.75,488.00 227.97,488.00 227.97,488.00 229.20,488.00 229.20,488.00 230.43,488.00 230.43,488.00 231.65,488.00 231.65,488.00 232.88,488.00 232.88,488.00 234.11,488.00 234.11,488.00 235.33,488.00 235.33,488.00 236.56,488.00 236.56,488.00 237.79,488.00 237.79,488.00 239.01,488.00 239.01,488.00 240.24,488.00 240.24,488.00 241.47,488.00 241.47,488.00 242.69,488.00 242.69,488.00 243.92,488.00 243.92,488.00 245.15,488.00 245.15,488.00 246.37,488.00 246.37,488.00 247.60,488.00 247.60,488.00 248.83,488.00 248.83,488.00 250.05,488.00 250.05,488.00 251.28,488.00 251.28,488.00 252.51,488.00 252.51,488.00 253.73,488.00 253.73,488.00 254.96,488.00 254.96,488.00 256.19,488.00 256.19,488.00 257.41,488.00 257.41,488.00 258.64,488.00 258.64,488.00 259.87,488.00 259.87,488.00 261.09,488.00 261.09,488.00 262.32,488.00 262.32,488.00 263.55,488.00 263.55,488.00 264.77,488.00 264.77,488.00 266.00,488.00 266.00,488.00 267.23,488.00 267.23,488.00 268.45,488.00 268.45,488.00 269.68,488.00 269.68,488.00 270.91,488.00 270.91,488.00 272.13,488.00 272.13,488.00 273.36,488.00 273.36,488.00 274.59,488.00 274.59,488.00 275.81,488.00 275.81,488.00 277.04,488.00 277.04,488.00 278.27,488.00 278.27,488.00 279.49,488.00 279.49,488.00 280.72,488.00 280.72,488.00 281.95,488.00 281.95,488.00 283.17,488.00 283.17,488.00 284.40,488.00 284.40,488.00 285.63,488.00 285.63,488.00 286.85,488.00 286.85,488.00 288.08,488.00 288.08,488.00 289.31,488.00 289.31,488.00 290.53,488.00 290.53,488.00 291.76,488.00 291.76,488.00 292.99,488.00 292.99,488.00 294.21,488.00 294.21,488.00 295.44,488.00 295.44,488.00 296.67,488.00 296.67,488.00 297.89,488.00 297.89,488.00 299.12,488.00 299.12,488.00 300.35,488.00 300.35,488.00 301.57,488.00 301.57,488.00 302.80,488.00 302.80,488.00 304.03,488.00 304.03,488.00 305.25,488.00 305.25,488.00 306.48,488.00 306.48,488.00 307.71,488.00 307.71,488.00 308.93,488.00 308.93,488.00 310.16,488.00 310.16,488.00 311.39,488.00 311.39,488.00 312.61,488.00 312.61,488.00 313.84,488.00 313.84,488.00 315.07,488.00 315.07,488.00 316.29,488.00 316.29,488.00 317.52,488.00 317.52,488.00 318.75,488.00 318.75,488.00 319.97,488.00 319.97,488.00 321.20,488.00 321.20,488.00 322.43,488.00 322.43,488.00 323.65,488.00 323.65,488.00 324.88,488.00 324.88,488.00 326.11,488.00 326.11,488.00 327.33,488.00 327.33,488.00 328.56,488.00 328.56,488.00 329.79,488.00 329.79,488.00 331.01,488.00 331.01,488.00 332.24,488.00 332.24,488.00 333.47,488.00 333.47,488.00 334.69,488.00 334.69,488.00 335.92,488.00 335.92,488.00 337.15,488.00 337.15,488.00 338.37,488.00 338.37,488.00 339.60,488.00 339.60,488.00 340.83,488.00 340.83,488.00 342.05,488.00 342.05,487.33 343.28,487.33 343.28,485.31 344.51,485.31 344.51,473.90 345.73,473.90 345.73,473.90 346.96,473.90 346.96,473.90 348.19,473.90 348.19,473.90 349.41,473.90 349.41,473.90 350.64,473.90 350.64,473.90 351.87,473.90 351.87,473.90 353.09,473.90 353.09,473.90 354.32,473.90 354.32,473.90 355.55,473.90 355.55,465.16 356.77,465.16 356.77,465.16 358.00,465.16 358.00,465.16 359.23,465.16 359.23,465.16 360.45,465.16 360.45,465.16 361.68,465.16 361.68,465.16 362.91,465.16 362.91,465.16 364.13,465.16 364.13,465.16 365.36,465.16 365.36,458.45 366.59,458.45 366.59,458.45 367.81,458.45 367.81,458.45 369.04,458.45 369.04,458.45 370.27,458.45 370.27,458.45 371.49,458.45 371.49,458.45 372.72,458.45 372.72,458.45 373.95,458.45 373.95,458.45 375.17,458.45 375.17,458.45 376.40,458.45 376.40,458.45 377.63,458.45 377.63,458.45 378.85,458.45 378.85,458.45 380.08,458.45 380.08,458.45 381.31,458.45 381.31,458.45 382.53,458.45 382.53,458.45 383.76,458.45 383.76,457.78 384.99,457.78 384.99,453.07 386.21,453.07 386.21,453.07 387.44,453.07 387.44,453.07 388.67,453.07 388.67,453.07 389.89,453.07 389.89,453.07 391.12,453.07 391.12,453.07 392.35,453.07 392.35,453.07 393.57,453.07 393.57,453.07 394.80,453.07 394.80,453.07 396.03,453.07 396.03,453.07 397.25,453.07 397.25,453.07 398.48,453.07 398.48,453.07 399.71,453.07 399.71,453.07 400.93,453.07 400.93,453.07 402.16,453.07 402.16,445.01 403.39,445.01 403.39,445.01 404.61,445.01 404.61,445.01 405.84,445.01 405.84,445.01 407.07,445.01 407.07,445.01 408.29,445.01 408.29,445.01 409.52,445.01 409.52,445.01 410.75,445.01 410.75,445.01 411.97,445.01 411.97,445.01 413.20,445.01 413.20,445.01 414.43,445.01 414.43,445.01 415.65,445.01 415.65,445.01 416.88,445.01 416.88,445.01 418.11,445.01 418.11,445.01 419.33,445.01 419.33,445.01 420.56,445.01 420.56,445.01 421.79,445.01 421.79,445.01 423.01,445.01 423.01,445.01 424.24,445.01 424.24,445.01 425.47,445.01 425.47,445.01 426.69,445.01 426.69,445.01 427.92,445.01 427.92,444.34 429.15,444.34 429.15,434.94 430.37,434.94 430.37,434.94 431.60,434.94 431.60,434.94 432.83,434.94 432.83,434.94 434.05,434.94 434.05,433.60 435.28,433.60 435.28,416.13 436.51,416.13 436.51,416.13 437.73,416.13 437.73,416.13 438.96,416.13 438.96,416.13 440.19,416.13 440.19,416.13 441.41,416.13 441.41,416.13 442.64,416.13 442.64,416.13 443.87,416.13 443.87,416.13 445.09,416.13 445.09,416.13 446.32,416.13 446.32,416.13 447.55,416.13 447.55,416.13 448.77,416.13 448.77,416.13 450.00,416.13 450.00,416.13 451.23,416.13 451.23,416.13 452.45,416.13 452.45,416.13 453.68,416.13 453.68,415.46 454.91,415.46 454.91,415.46 456.13,415.46 456.13,412.10 457.36,412.10 457.36,412.10 458.59,412.10 458.59,412.10 459.81,412.10 459.81,411.43 461.04,411.43 461.04,411.43 462.27,411.43 462.27,411.43 463.49,411.43 463.49,411.43 464.72,411.43 464.72,411.43 465.95,411.43 465.95,411.43 467.17,411.43 467.17,411.43 468.40,411.43 468.40,411.43 469.63,411.43 469.63,411.43 470.85,411.43 470.85,411.43 472.08,411.43 472.08,411.43 473.31,411.43 473.31,411.43 474.53,411.43 474.53,411.43 475.76,411.43 475.76,411.43 476.99,411.43 476.99,411.43 478.21,411.43 478.21,395.31 479.44,395.31 479.44,395.31 480.67,395.31 480.67,395.31 481.89,395.31 481.89,395.31 483.12,395.31 483.12,395.31 484.35,395.31 484.35,395.31 485.57,395.31 485.57,395.31 486.80,395.31 486.80,395.31 488.03,395.31 488.03,395.31 489.25,395.31 489.25,395.31 490.48,395.31 490.48,388.59 491.71,388.59 491.71,388.59 492.93,388.59 492.93,388.59 494.16,388.59 494.16,388.59 495.39,388.59 495.39,388.59 496.61,388.59 496.61,388.59 497.84,388.59 497.84,388.59 499.07,388.59 499.07,388.59 500.29,388.59 500.29,388.59 501.52,388.59 501.52,388.59 502.75,388.59 502.75,388.59 503.97,388.59 503.97,388.59 505.20,388.59 505.20,388.59 506.43,388.59 506.43,388.59 507.65,388.59 507.65,388.59 508.88,388.59 508.88,388.59 510.11,388.59 510.11,388.59 511.33,388.59 511.33,388.59 512.56,388.59 512.56,388.59 513.79,388.59 513.79,388.59 515.01,388.59 515.01,388.59 516.24,388.59 516.24,388.59 517.47,388.59 517.47,388.59 518.69,388.59 518.69,388.59 519.92,388.59 519.92,381.21 521.15,381.21 521.15,371.13 522.37,371.13 522.37,371.13 523.60,371.13 523.60,371.13 524.83,371.13 524.83,371.13 526.05,371.13 526.05,371.13 527.28,371.13 527.28,371.13 528.51,371.13 528.51,371.13 529.73,371.13 529.73,359.71 530.96,359.71 530.96,359.71 532.19,359.71 532.19,359.71 533.41,359.71 533.41,359.71 534.64,359.71 534.64,359.71 535.87,359.71 535.87,359.71 537.09,359.71 537.09,359.71 538.32,359.71 538.32,359.71 539.55,359.71 539.55,359.71 540.77,359.71 540.77,359.71 542.00,359.71 542.00,359.71 543.23,359.71 543.23,359.71 544.45,359.71 544.45,359.71 545.68,359.71 545.68,359.71 546.91,359.71 546.91,359.71 548.13,359.71 548.13,359.71 549.36,359.71 549.36,359.71 550.59,359.71 550.59,359.71 551.81,359.71 551.81,359.71 553.04,359.71 553.04,348.97 554.27,348.97 554.27,348.97 555.49,348.97 555.49,348.97 556.72,348.97 556.72,348.97 557.95,348.97 557.95,348.97 559.17,348.97 559.17,348.97 560.40,348.97 560.40,348.97 561.63,348.97 561.63,339.56 562.85,339.56 562.85,339.56 564.08,339.56 564.08,338.22 565.31,338.22 565.31,328.14 566.53,328.14 566.53,328.14 567.76,328.14 567.76,322.77 568.99,322.77 568.99,322.77 570.21,322.77 570.21,322.77 571.44,322.77 571.44,322.77 572.67,322.77 572.67,309.34 573.89,309.34 573.89,309.34 575.12,309.34 575.12,309.34 576.35,309.34 576.35,309.34 577.57,309.34 577.57,309.34 578.80,309.34 578.80,309.34 580.03,309.34 580.03,309.34 581.25,309.34 581.25,309.34 582.48,309.34 582.48,301.95 583.71,301.95 583.71,293.22 584.93,293.22 584.93,293.22 586.16,293.22 586.16,293.22 587.39,293.22 587.39,293.22 588.61,293.22 588.61,293.22 589.84,293.22 589.84,293.22 591.07,293.22 591.07,293.22 592.29,293.22 592.29,293.22 593.52,293.22 593.52,293.22 594.75,293.22 594.75,293.22 595.97,293.22 595.97,293.22 597.20,293.22 597.20,293.22 598.43,293.22 598.43,293.22 599.65,293.22 599.65,293.22 600.88,293.22 600.88,293.22 602.11,293.22 602.11,293.22 603.33,293.22 603.33,293.22 604.56,293.22 604.56,293.22 605.79,293.22 605.79,293.22 607.01,293.22 607.01,291.87 608.24,291.87 608.24,291.87 609.47,291.87 609.47,277.10 610.69,277.10 610.69,276.43 611.92,276.43 611.92,276.43 613.15,276.43 613.15,276.43 614.37,276.43 614.37,276.43 615.60,276.43 615.60,276.43 616.83,276.43 616.83,276.43 618.05,276.43 618.05,276.43 619.28,276.43 619.28,276.43 620.51,276.43 620.51,276.43 621.73,276.43 621.73,276.43 622.96,276.43 622.96,276.43 624.19,276.43 624.19,276.43 625.41,276.43 625.41,276.43 626.64,276.43 626.64,276.43 627.87,276.43 627.87,276.43 629.09,276.43 629.09,276.43 630.32,276.43 630.32,276.43 631.55,276.43 631.55,276.43 632.77,276.43 632.77,276.43 634.00,276.43 634.00,276.43 635.23,276.43 635.23,276.43 636.45,276.43 636.45,276.43 637.68,276.43 637.68,276.43 638.91,276.43 638.91,276.43 640.13,276.43 640.13,276.43 641.36,276.43 641.36,276.43 642.59,276.43 642.59,276.43 643.81,276.43 643.81,275.75 645.04,275.75 645.04,275.75 646.27,275.75 646.27,275.75 647.49,275.75 647.49,275.08 648.72,275.08 648.72,242.84 649.95,242.84 649.95,242.84 651.17,242.84 651.17,242.17 652.40,242.17 652.40,242.17 653.63,242.17 653.63,238.81 654.85,238.81 654.85,222.69 656.08,222.69 656.08,222.69 657.31,222.69 657.31,222.69 658.53,222.69 658.53,222.69 659.76,222.69 659.76,222.69 660.99,222.69 660.99,222.69 662.21,222.69 662.21,222.69 663.44,222.69 663.44,211.95 664.67,211.95 664.67,211.95 665.89,211.95 665.89,209.93 667.12,209.93 667.12,209.26 668.35,209.26 668.35,209.26 669.57,209.26 669.57,209.26 670.80,209.26 670.80,209.26 672.03,209.26 672.03,199.18 673.25,199.18 673.25,199.18 674.48,199.18 674.48,199.18 675.71,199.18 675.71,199.18 676.93,199.18 676.93,191.12 678.16,191.12 678.16,191.12 679.39,191.12 679.39,191.12 680.61,191.12 680.61,191.12 681.84,191.12 681.84,191.12 683.07,191.12 683.07,191.12 684.29,191.12 684.29,191.12 685.52,191.12 685.52,191.12 686.75,191.12 686.75,191.12 687.97,191.12 687.97,191.12 689.20,191.12 689.20,191.12 690.43,191.12 690.43,191.12 691.65,191.12 691.65,191.12 692.88,191.12 692.88,191.12 694.11,191.12 694.11,191.12 695.33,191.12 695.33,191.12 696.56,191.12 696.56,184.41 697.79,184.41 697.79,184.41 699.01,184.41 699.01,184.41 700.24,184.41 700.24,184.41 701.47,184.41 701.47,184.41 702.69,184.41 702.69,184.41 703.92,184.41 703.92,184.41 705.15,184.41 705.15,173.66 706.37,173.66 706.37,173.66 707.60,173.66 707.60,173.66 708.83,173.66 708.83,173.66 710.05,173.66 710.05,173.66 711.28,173.66 711.28,173.66 712.51,173.66 712.51,173.66 713.73,173.66 713.73,173.66 714.96,173.66 714.96,173.66 716.19,173.66 716.19,173.66 717.41,173.66 717.41,173.66 718.64,173.66 718.64,173.66 719.87,173.66 719.87,173.66 721.09,173.66 721.09,166.27 722.32,166.27 722.32,166.27 723.55,166.27 723.55,166.27 724.77,166.27 724.77,166.27 726.00,166.27 726.00,166.27 727.23,166.27 727.23,166.27 728.45,166.27 728.45,166.27 729.68,166.27 729.68,166.27 730.91,166.27 730.91,166.27 732.13,166.27 732.13,166.27 733.36,166.27 733.36,166.27 734.59,166.27 734.59,166.27 735.81,166.27 735.81,166.27 737.04,166.27 737.04,166.27 738.27,166.27 738.27,166.27 739.49,166.27 739.49,166.27 740.72,166.27 740.72,166.27 741.95,166.27 741.95,164.93 743.17,164.93 743.17,155.53 744.40,155.53 744.40,155.53 745.63,155.53 745.63,135.38 746.85,135.38 746.85,118.58 748.08,118.58 748.08,118.58 749.31,118.58 749.31,118.58 750.53,118.58 750.53,110.52 751.76,110.52 751.76,110.52 752.99,110.52 752.99,110.52 754.21,110.52 754.21,110.52 755.44,110.52 755.44,110.52 756.67,110.52 756.67,110.52 757.89,110.52 757.89,110.52 759.12,110.52 759.12,110.52 760.35,110.52 760.35,110.52 761.57,110.52 761.57,101.12 762.80,101.12 762.80,101.12 764.03,101.12 764.03,101.12 765.25,101.12 765.25,93.06 766.48,93.06 766.48,93.06 767.71,93.06 767.71,85.00 768.93,85.00 768.93,85.00 770.16,85.00 770.16,85.00 771.39,85.00 771.39,77.61 772.61,77.61 772.61,77.61 773.84,77.61 773.84,77.61 775.07,77.61 775.07,77.61 776.29,77.61 776.29,77.61 777.52,77.61 777.52,77.61 778.75,77.61 778.75,77.61 779.97,77.61 779.97,77.61 781.20,77.61 781.20,77.61 782.43,77.61 782.43,77.61 783.65,77.61 783.65,77.61 784.88,77.61 784.88,77.61 786.11,77.61 786.11,77.61 787.33,77.61 787.33,77.61 788.56,77.61 788.56,77.61 789.79,77.61 789.79,77.61 791.01,77.61 791.01,76.94 792.24,76.94 792.24,76.94 793.47,76.94 793.47,76.27 794.69,76.27 794.69,76.27 795.92,76.27 795.92,76.27 797.15,76.27 797.15,76.27 798.37,76.27 798.37,56.12 799.60,56.12 799.60,56.12 800.83,56.12 800.83,56.12 802.05,56.12 802.05,56.12 803.28,56.12 803.28,56.12 804.51,56.12 804.51,56.12 805.73,56.12 805.73,56.12 806.96,56.12 806.96,56.12 808.19,56.12 808.19,56.12 809.41,56.12 809.41,56.12 810.64,56.12 810.64,48.06 811.87,48.06 811.87,48.06 813.09,48.06 813.09,48.06 814.32,48.06 814.32,48.06 815.55,48.06 815.55,48.06 816.77,48.06 816.77,40.00 818.00,40.00 818.00,40.00" fill="none" stroke="#4b8f29" stroke-width="3"/>
<text x="450.0" y="552" text-anchor="middle" font-size="20" font-family="Arial, sans-serif" fill="#111827">Top displacement (mm)</text>
<text x="24" y="280.0" text-anchor="middle" transform="rotate(-90 24 280.0)" font-size="20" font-family="Arial, sans-serif" fill="#111827">Force magnitude (N)</text>
<text x="880" y="280.0" text-anchor="middle" transform="rotate(90 880 280.0)" font-size="20" font-family="Arial, sans-serif" fill="#111827">Broken bonds</text>
<text x="102" y="64" font-size="18" font-family="Arial, sans-serif" fill="#1b6ca8">Top plate</text>
<text x="212" y="64" font-size="18" font-family="Arial, sans-serif" fill="#d1495b">Bottom plate</text>
<text x="352" y="64" font-size="18" font-family="Arial, sans-serif" fill="#4b8f29">Broken bonds</text>
<text x="72" y="45" text-anchor="end" font-size="17" fill="#30363d">24.57</text>
<text x="72" y="488" text-anchor="end" font-size="17" fill="#30363d">0</text>
<text x="828" y="45" text-anchor="start" font-size="17" fill="#30363d">667</text>
<text x="828" y="488" text-anchor="start" font-size="17" fill="#30363d">0</text>
</svg>
