<svg xmlns="http://www.w3.org/2000/svg" width="900" height="560" viewBox="0 0 900 560">
<rect width="100%" height="100%" fill="white"/>
<text x="450.0" y="26" text-anchor="middle" font-size="22" font-family="Arial, sans-serif" fill="#111827">SP-002 force-displacement and bond breakage</text>
<line x1="82" y1="40.00" x2="818" y2="40.00" stroke="#d9dee2" stroke-width="1"/><line x1="82" y1="129.60" x2="818" y2="129.60" stroke="#d9dee2" stroke-width="1"/><line x1="82" y1="219.20" x2="818" y2="219.20" stroke="#d9dee2" stroke-width="1"/><line x1="82" y1="308.80" x2="818" y2="308.80" stroke="#d9dee2" stroke-width="1"/><line x1="82" y1="398.40" x2="818" y2="398.40" stroke="#d9dee2" stroke-width="1"/><line x1="82" y1="488.00" x2="818" y2="488.00" stroke="#d9dee2" stroke-width="1"/><line x1="82.00" y1="40" x2="82.00" y2="488" stroke="#edf0f2" stroke-width="1"/><text x="82.00" y="526" text-anchor="middle" font-size="18" fill="#30363d">0.000</text><line x1="229.20" y1="40" x2="229.20" y2="488" stroke="#edf0f2" stroke-width="1"/><text x="229.20" y="526" text-anchor="middle" font-size="18" fill="#30363d">0.060</text><line x1="376.40" y1="40" x2="376.40" y2="488" stroke="#edf0f2" stroke-width="1"/><text x="376.40" y="526" text-anchor="middle" font-size="18" fill="#30363d">0.120</text><line x1="523.60" y1="40" x2="523.60" y2="488" stroke="#edf0f2" stroke-width="1"/><text x="523.60" y="526" text-anchor="middle" font-size="18" fill="#30363d">0.180</text><line x1="670.80" y1="40" x2="670.80" y2="488" stroke="#edf0f2" stroke-width="1"/><text x="670.80" y="526" text-anchor="middle" font-size="18" fill="#30363d">0.240</text><line x1="818.00" y1="40" x2="818.00" y2="488" stroke="#edf0f2" stroke-width="1"/><text x="818.00" y="526" text-anchor="middle" font-size="18" fill="#30363d">0.300</text>
<line x1="82" y1="40" x2="82" y2="488" stroke="#111827" stroke-width="1.5"/>
<line x1="82" y1="488" x2="818" y2="488" stroke="#111827" stroke-width="1.5"/>
<line x1="818" y1="40" x2="818" y2="488" stroke="#111827" stroke-width="1.5"/>
<polyline points="82.00,488.00 83.23,488.00 84.45,488.00 85.68,488.00 86.91,488.00 88.13,488.00 89.36,488.00 90.59,488.00 91.81,488.00 93.04,488.00 94.27,488.00 95.49,488.00 96.72,488.00 97.95,488.00 99.17,488.00 100.40,488.00 101.63,488.00 102.85,488.00 104.08,488.00 105.31,488.00 106.53,488.00 107.76,488.00 108.99,488.00 110.21,488.00 111.44,488.00 112.67,488.00 113.89,488.00 115.12,488.00 116.35,488.00 117.57,488.00 118.80,488.00 120.03,488.00 121.25,488.00 122.48,488.00 123.71,488.00 124.93,488.00 126.16,488.00 127.39,488.00 128.61,488.00 129.84,488.00 131.07,488.00 132.29,488.00 133.52,488.00 134.75,488.00 135.97,488.00 137.20,488.00 138.43,488.00 139.65,488.00 140.88,488.00 142.11,488.00 143.33,488.00 144.56,488.00 145.79,488.00 147.01,488.00 148.24,488.00 149.47,488.00 150.69,488.00 151.92,488.00 153.15,488.00 154.37,488.00 155.60,488.00 156.83,488.00 158.05,488.00 159.28,488.00 160.51,488.00 161.73,488.00 162.96,488.00 164.19,488.00 165.41,488.00 166.64,488.00 167.87,488.00 169.09,488.00 170.32,488.00 171.55,488.00 172.77,488.00 174.00,488.00 175.23,488.00 176.45,488.00 177.68,488.00 178.91,488.00 180.13,488.00 181.36,488.00 182.59,488.00 183.81,488.00 185.04,488.00 186.27,488.00 187.49,488.00 188.72,488.00 189.95,488.00 191.17,488.00 192.40,488.00 193.63,488.00 194.85,488.00 196.08,488.00 197.31,488.00 198.53,488.00 199.76,488.00 200.99,488.00 202.21,488.00 203.44,488.00 204.67,488.00 205.89,488.00 207.12,488.00 208.35,488.00 209.57,488.00 210.80,488.00 212.03,488.00 213.25,488.00 214.48,488.00 215.71,488.00 216.93,488.00 218.16,488.00 219.39,488.00 220.61,488.00 221.84,488.00 223.07,488.00 224.29,488.00 225.52,488.00 226.75,488.00 227.97,488.00 229.20,488.00 230.43,488.00 231.65,488.00 232.88,488.00 234.11,488.00 235.33,488.00 236.56,488.00 237.79,488.00 239.01,488.00 240.24,488.00 241.47,488.00 242.69,488.00 243.92,488.00 245.15,488.00 246.37,488.00 247.60,488.00 248.83,488.00 250.05,488.00 251.28,488.00 252.51,488.00 253.73,488.00 254.96,488.00 256.19,488.00 257.41,488.00 258.64,488.00 259.87,488.00 261.09,488.00 262.32,488.00 263.55,488.00 264.77,488.00 266.00,488.00 267.23,488.00 268.45,488.00 269.68,488.00 270.91,488.00 272.13,488.00 273.36,488.00 274.59,488.00 275.81,488.00 277.04,488.00 278.27,488.00 279.49,488.00 280.72,488.00 281.95,488.00 283.17,488.00 284.40,488.00 285.63,488.00 286.85,488.00 288.08,488.00 289.31,488.00 290.53,488.00 291.76,488.00 292.99,488.00 294.21,488.00 295.44,488.00 296.67,488.00 297.89,488.00 299.12,488.00 300.35,488.00 301.57,488.00 302.80,488.00 304.03,488.00 305.25,488.00 306.48,488.00 307.71,488.00 308.93,488.00 310.16,488.00 311.39,488.00 312.61,488.00 313.84,488.00 315.07,488.00 316.29,488.00 317.52,488.00 318.75,488.00 319.97,488.00 321.20,488.00 322.43,488.00 323.65,488.00 324.88,488.00 326.11,488.00 327.33,488.00 328.56,486.10 329.79,483.11 331.01,479.58 332.24,475.69 333.47,471.52 334.69,467.12 335.92,462.53 337.15,457.77 338.37,452.86 339.60,447.83 340.83,443.02 342.05,440.44 343.28,487.97 344.51,486.51 345.73,483.68 346.96,480.39 348.19,476.79 349.41,472.52 350.64,466.17 351.87,458.90 353.09,451.00 354.32,442.62 355.55,433.84 356.77,424.72 358.00,456.67 359.23,451.19 360.45,445.87 361.68,440.29 362.91,435.02 364.13,430.88 365.36,450.38 366.59,454.23 367.81,451.86 369.04,447.93 370.27,443.54 371.49,438.96 372.72,434.27 373.95,429.50 375.17,442.14 376.40,441.18 377.63,436.36 378.85,430.81 380.08,432.65 381.31,438.32 382.53,437.29 383.76,434.12 384.99,431.81 386.21,444.97 387.44,447.74 388.67,447.30 389.89,445.58 391.12,443.28 392.35,440.70 393.57,440.15 394.80,454.26 396.03,462.14 397.25,466.67 398.48,469.39 399.71,471.04 400.93,472.07 402.16,472.71 403.39,473.12 404.61,473.38 405.84,473.54 407.07,473.64 408.29,473.70 409.52,473.73 410.75,473.74 411.97,473.73 413.20,473.66 414.43,473.17 415.65,472.23 416.88,470.92 418.11,469.36 419.33,467.64 420.56,465.81 421.79,463.92 423.01,461.99 424.24,460.04 425.47,458.09 426.69,456.14 427.92,454.21 429.15,452.29 430.37,450.39 431.60,448.51 432.83,446.66 434.05,444.84 435.28,443.04 436.51,441.27 437.73,439.29 438.96,436.45 440.19,433.02 441.41,429.48 442.64,425.49 443.87,420.67 445.09,415.25 446.32,409.24 447.55,402.45 448.77,394.32 450.00,385.64 451.23,450.46 452.45,445.55 453.68,437.87 454.91,429.99 456.13,422.65 457.36,415.74 458.59,409.08 459.81,402.52 461.04,395.98 462.27,389.13 463.49,459.46 464.72,431.20 465.95,422.78 467.17,414.84 468.40,406.53 469.63,397.89 470.85,388.99 472.08,379.87 473.31,370.55 474.53,361.06 475.76,353.07 476.99,456.30 478.21,448.24 479.44,443.82 480.67,440.65 481.89,437.93 483.12,435.51 484.35,433.28 485.57,430.92 486.80,428.95 488.03,426.11 489.25,422.94 490.48,419.61 491.71,416.13 492.93,412.62 494.16,409.08 495.39,405.55 496.61,401.77 497.84,397.72 499.07,392.06 500.29,385.57 501.52,378.89 502.75,372.07 503.97,365.21 505.20,358.34 506.43,351.50 507.65,344.73 508.88,338.09 510.11,331.57 511.33,325.22 512.56,319.00 513.79,313.05 515.01,323.38 516.24,330.82 517.47,328.95 518.69,323.95 519.92,316.99 521.15,309.18 522.37,300.86 523.60,331.13 524.83,325.24 526.05,316.57 527.28,306.80 528.51,296.92 529.73,373.67 530.96,381.53 532.19,382.38 533.41,381.51 534.64,380.03 535.87,376.51 537.09,376.71 538.32,376.34 539.55,372.56 540.77,366.32 542.00,359.03 543.23,351.16 544.45,342.88 545.68,365.39 546.91,365.59 548.13,387.62 549.36,404.11 550.59,407.31 551.81,405.88 553.04,400.71 554.27,393.34 555.49,388.83 556.72,402.20 557.95,397.17 559.17,392.58 560.40,387.63 561.63,393.47 562.85,394.00 564.08,390.69 565.31,384.72 566.53,377.38 567.76,369.32 568.99,360.32 570.21,350.28 571.44,339.34 572.67,365.50 573.89,343.73 575.12,333.45 576.35,322.71 577.57,311.53 578.80,299.98 580.03,288.09 581.25,298.75 582.48,288.96 583.71,276.91 584.93,283.90 586.16,368.72 587.39,377.44 588.61,376.24 589.84,373.08 591.07,368.99 592.29,364.40 593.52,359.46 594.75,354.02 595.97,348.10 597.20,341.06 598.43,333.33 599.65,324.47 600.88,314.93 602.11,304.80 603.33,294.20 604.56,283.28 605.79,272.03 607.01,260.54 608.24,248.55 609.47,236.67 610.69,250.52 611.92,258.93 613.15,254.38 614.37,257.32 615.60,259.35 616.83,259.80 618.05,326.04 619.28,312.66 620.51,309.59 621.73,305.09 622.96,298.11 624.19,289.52 625.41,279.89 626.64,270.70 627.87,259.79 629.09,248.74 630.32,237.27 631.55,310.17 632.77,309.79 634.00,310.94 635.23,324.40 636.45,358.56 637.68,355.00 638.91,349.48 640.13,343.87 641.36,338.31 642.59,332.22 643.81,325.27 645.04,317.92 646.27,355.20 647.49,335.38 648.72,326.99 649.95,319.29 651.17,311.78 652.40,411.13 653.63,415.80 654.85,417.59 656.08,420.41 657.31,422.66 658.53,422.81 659.76,429.02 660.99,430.08 662.21,426.90 663.44,423.09 664.67,419.24 665.89,415.29 667.12,410.28 668.35,404.65 669.57,398.85 670.80,393.01 672.03,386.71 673.25,380.74 674.48,374.87 675.71,369.02 676.93,363.19 678.16,357.40 679.39,351.62 680.61,345.63 681.84,384.17 683.07,371.15 684.29,364.39 685.52,357.22 686.75,349.03 687.97,340.15 689.20,357.69 690.43,365.87 691.65,362.60 692.88,356.73 694.11,350.17 695.33,361.44 696.56,364.00 697.79,356.68 699.01,349.28 700.24,341.86 701.47,334.39 702.69,326.83 703.92,318.84 705.15,310.50 706.37,301.98 707.60,293.31 708.83,284.50 710.05,275.13 711.28,265.97 712.51,256.45 713.73,282.60 714.96,273.77 716.19,264.89 717.41,256.45 718.64,248.76 719.87,257.91 721.09,254.70 722.32,253.79 723.55,254.55 724.77,253.38 726.00,251.61 727.23,250.21 728.45,248.52 729.68,246.53 730.91,244.05 732.13,240.90 733.36,236.13 734.59,233.42 735.81,268.60 737.04,259.14 738.27,251.40 739.49,272.08 740.72,299.18 741.95,290.63 743.17,279.96 744.40,268.63 745.63,256.53 746.85,243.49 748.08,263.20 749.31,291.20 750.53,283.58 751.76,274.70 752.99,264.42 754.21,253.10 755.44,240.93 756.67,228.36 757.89,215.52 759.12,202.17 760.35,188.43 761.57,174.38 762.80,160.05 764.03,146.76 765.25,132.12 766.48,213.49 767.71,195.80 768.93,180.88 770.16,165.01 771.39,154.69 772.61,168.57 773.84,156.03 775.07,141.03 776.29,153.34 777.52,130.96 778.75,117.77 779.97,104.26 781.20,91.22 782.43,77.39 783.65,101.10 784.88,89.61 786.11,77.37 787.33,64.89 788.56,52.41 789.79,40.00 791.01,96.09 792.24,71.05 793.47,61.17 794.69,51.24 795.92,40.37 797.15,40.16 798.37,72.30 799.60,57.92 800.83,132.46 802.05,111.62 803.28,145.91 804.51,196.67 805.73,214.65 806.96,226.34 808.19,234.54 809.41,238.75 810.64,240.44 811.87,243.27 813.09,317.48 814.32,311.59 815.55,321.92 816.77,331.57 818.00,338.21" fill="none" stroke="#1b6ca8" stroke-width="3"/>
<polyline points="82.00,488.00 83.23,488.00 84.45,488.00 85.68,488.00 86.91,488.00 88.13,488.00 89.36,488.00 90.59,488.00 91.81,488.00 93.04,488.00 94.27,488.00 95.49,488.00 96.72,488.00 97.95,488.00 99.17,488.00 100.40,488.00 101.63,488.00 102.85,488.00 104.08,488.00 105.31,488.00 106.53,488.00 107.76,488.00 108.99,488.00 110.21,488.00 111.44,488.00 112.67,488.00 113.89,488.00 115.12,488.00 116.35,488.00 117.57,488.00 118.80,488.00 120.03,488.00 121.25,488.00 122.48,488.00 123.71,488.00 124.93,488.00 126.16,488.00 127.39,488.00 128.61,488.00 129.84,488.00 131.07,488.00 132.29,488.00 133.52,488.00 134.75,488.00 135.97,488.00 137.20,488.00 138.43,488.00 139.65,488.00 140.88,488.00 142.11,488.00 143.33,488.00 144.56,488.00 145.79,488.00 147.01,488.00 148.24,488.00 149.47,488.00 150.69,488.00 151.92,488.00 153.15,488.00 154.37,488.00 155.60,488.00 156.83,488.00 158.05,488.00 159.28,488.00 160.51,488.00 161.73,488.00 162.96,488.00 164.19,488.00 165.41,488.00 166.64,488.00 167.87,488.00 169.09,488.00 170.32,488.00 171.55,488.00 172.77,488.00 174.00,488.00 175.23,488.00 176.45,488.00 177.68,488.00 178.91,488.00 180.13,488.00 181.36,488.00 182.59,488.00 183.81,488.00 185.04,488.00 186.27,488.00 187.49,488.00 188.72,488.00 189.95,488.00 191.17,488.00 192.40,488.00 193.63,488.00 194.85,488.00 196.08,488.00 197.31,488.00 198.53,488.00 199.76,488.00 200.99,488.00 202.21,488.00 203.44,488.00 204.67,488.00 205.89,488.00 207.12,488.00 208.35,488.00 209.57,488.00 210.80,488.00 212.03,488.00 213.25,488.00 214.48,488.00 215.71,488.00 216.93,488.00 218.16,488.00 219.39,488.00 220.61,488.00 221.84,488.00 223.07,488.00 224.29,488.00 225.52,488.00 226.75,488.00 227.97,488.00 229.20,488.00 230.43,488.00 231.65,488.00 232.88,488.00 234.11,488.00 235.33,488.00 236.56,488.00 237.79,488.00 239.01,488.00 240.24,488.00 241.47,488.00 242.69,488.00 243.92,488.00 245.15,488.00 246.37,488.00 247.60,488.00 248.83,488.00 250.05,488.00 251.28,488.00 252.51,488.00 253.73,488.00 254.96,488.00 256.19,488.00 257.41,488.00 258.64,488.00 259.87,488.00 261.09,488.00 262.32,488.00 263.55,488.00 264.77,488.00 266.00,488.00 267.23,488.00 268.45,488.00 269.68,488.00 270.91,488.00 272.13,488.00 273.36,488.00 274.59,488.00 275.81,488.00 277.04,488.00 278.27,488.00 279.49,488.00 280.72,488.00 281.95,488.00 283.17,488.00 284.40,488.00 285.63,488.00 286.85,488.00 288.08,488.00 289.31,488.00 290.53,488.00 291.76,488.00 292.99,488.00 294.21,488.00 295.44,488.00 296.67,488.00 297.89,488.00 299.12,488.00 300.35,488.00 301.57,488.00 302.80,488.00 304.03,488.00 305.25,488.00 306.48,488.00 307.71,488.00 308.93,488.00 310.16,488.00 311.39,488.00 312.61,488.00 313.84,488.00 315.07,488.00 316.29,488.00 317.52,488.00 318.75,488.00 319.97,488.00 321.20,488.00 322.43,488.00 323.65,488.00 324.88,488.00 326.11,488.00 327.33,488.00 328.56,486.91 329.79,484.29 331.01,480.97 332.24,477.21 333.47,473.15 334.69,468.83 335.92,464.31 337.15,459.62 338.37,454.77 339.60,449.78 340.83,444.81 342.05,442.07 343.28,479.70 344.51,486.71 345.73,484.80 346.96,481.72 348.19,478.23 349.41,474.37 350.64,468.74 351.87,461.82 353.09,454.16 354.32,445.97 355.55,437.35 356.77,428.36 358.00,453.49 359.23,452.88 360.45,447.95 361.68,442.51 362.91,436.96 364.13,432.26 365.36,471.58 366.59,463.36 367.81,457.89 369.04,453.27 370.27,448.77 371.49,444.22 372.72,439.58 373.95,434.87 375.17,460.46 376.40,448.50 377.63,441.75 378.85,435.92 380.08,467.90 381.31,456.33 382.53,448.72 383.76,443.16 384.99,473.51 386.21,467.60 387.44,463.17 388.67,459.76 389.89,456.75 391.12,453.90 392.35,451.08 393.57,487.98 394.80,488.00 396.03,488.00 397.25,488.00 398.48,488.00 399.71,488.00 400.93,488.00 402.16,488.00 403.39,488.00 404.61,488.00 405.84,488.00 407.07,488.00 408.29,488.00 409.52,488.00 410.75,488.00 411.97,488.00 413.20,487.43 414.43,485.84 415.65,484.01 416.88,482.12 418.11,480.23 419.33,478.34 420.56,476.45 421.79,474.57 423.01,472.69 424.24,470.82 425.47,468.95 426.69,467.12 427.92,465.30 429.15,463.51 430.37,461.74 431.60,460.00 432.83,458.29 434.05,456.61 435.28,454.96 436.51,453.36 437.73,449.88 438.96,445.67 440.19,441.84 441.41,438.30 442.64,433.25 443.87,427.62 445.09,421.50 446.32,414.86 447.55,407.84 448.77,399.98 450.00,391.34 451.23,407.15 452.45,429.13 453.68,432.10 454.91,430.52 456.13,426.72 457.36,421.81 458.59,416.28 459.81,410.39 461.04,404.28 462.27,397.89 463.49,410.59 464.72,436.68 465.95,429.61 467.17,421.19 468.40,412.60 469.63,403.82 470.85,394.85 472.08,385.69 473.31,376.34 474.53,366.83 475.76,358.67 476.99,415.62 478.21,444.27 479.44,446.31 480.67,444.61 481.89,442.17 483.12,439.75 484.35,437.47 485.57,435.23 486.80,433.06 488.03,430.73 489.25,427.79 490.48,424.51 491.71,420.98 492.93,417.35 494.16,413.70 495.39,409.97 496.61,406.14 497.84,402.04 499.07,397.21 500.29,391.04 501.52,384.27 502.75,377.27 503.97,370.20 505.20,363.12 506.43,356.09 507.65,349.13 508.88,342.28 510.11,335.56 511.33,328.99 512.56,322.56 513.79,316.31 515.01,354.04 516.24,336.47 517.47,333.16 518.69,329.35 519.92,322.99 521.15,315.40 522.37,312.08 523.60,343.64 524.83,334.44 526.05,325.51 527.28,315.91 528.51,413.88 529.73,401.50 530.96,394.61 532.19,391.51 533.41,389.40 534.64,387.25 535.87,384.60 537.09,382.70 538.32,381.79 539.55,379.46 540.77,374.38 542.00,367.63 543.23,360.02 544.45,351.89 545.68,388.46 546.91,377.44 548.13,427.38 549.36,424.51 550.59,421.81 551.81,416.48 553.04,409.27 554.27,401.46 555.49,395.29 556.72,401.39 557.95,403.26 559.17,398.64 560.40,396.62 561.63,405.86 562.85,404.60 564.08,399.11 565.31,392.53 566.53,385.02 567.76,376.89 568.99,367.66 570.21,357.49 571.44,346.65 572.67,337.99 573.89,349.87 575.12,340.46 576.35,329.86 577.57,318.71 578.80,307.16 580.03,295.25 581.25,311.02 582.48,296.45 583.71,284.28 584.93,329.38 586.16,398.18 587.39,391.89 588.61,388.39 589.84,384.48 591.07,380.05 592.29,375.39 593.52,370.31 594.75,364.78 595.97,358.24 597.20,350.59 598.43,342.48 599.65,333.57 600.88,323.91 602.11,313.74 603.33,303.18 604.56,292.28 605.79,281.09 607.01,269.58 608.24,257.49 609.47,246.70 610.69,274.18 611.92,268.31 613.15,263.63 614.37,269.17 615.60,268.14 616.83,269.11 618.05,286.28 619.28,316.87 620.51,317.45 621.73,313.71 622.96,307.00 624.19,298.56 625.41,288.96 626.64,278.85 627.87,268.49 629.09,257.30 630.32,245.56 631.55,308.69 632.77,319.26 634.00,320.29 635.23,322.57 636.45,342.58 637.68,348.06 638.91,346.61 640.13,343.53 641.36,339.55 642.59,334.25 643.81,328.02 645.04,321.19 646.27,332.13 647.49,339.40 648.72,334.40 649.95,328.18 651.17,321.42 652.40,385.90 653.63,408.24 654.85,417.32 656.08,421.90 657.31,425.00 658.53,427.22 659.76,441.38 660.99,437.17 662.21,433.17 663.44,429.02 664.67,425.05 665.89,421.15 667.12,416.23 668.35,410.54 669.57,404.61 670.80,398.58 672.03,392.37 673.25,386.08 674.48,379.94 675.71,373.88 676.93,367.86 678.16,361.89 679.39,355.97 680.61,349.97 681.84,367.86 683.07,372.66 684.29,368.26 685.52,362.05 686.75,354.77 687.97,346.43 689.20,396.46 690.43,383.96 691.65,375.06 692.88,368.01 694.11,361.08 695.33,375.28 696.56,371.76 697.79,365.55 699.01,358.55 700.24,351.28 701.47,343.82 702.69,336.00 703.92,327.72 705.15,319.24 706.37,310.68 707.60,301.97 708.83,293.13 710.05,283.93 711.28,275.24 712.51,265.31 713.73,289.56 714.96,282.51 716.19,273.96 717.41,265.87 718.64,258.27 719.87,259.82 721.09,265.63 722.32,265.11 723.55,265.41 724.77,265.79 726.00,264.18 727.23,262.41 728.45,260.40 729.68,258.04 730.91,255.18 732.13,251.50 733.36,246.79 734.59,240.68 735.81,270.25 737.04,267.39 738.27,259.79 739.49,340.07 740.72,310.27 741.95,297.98 743.17,287.22 744.40,276.02 745.63,263.94 746.85,251.24 748.08,287.63 749.31,296.74 750.53,291.94 751.76,283.59 752.99,273.39 754.21,261.86 755.44,249.91 756.67,237.39 757.89,224.48 759.12,211.31 760.35,197.63 761.57,183.59 762.80,169.29 764.03,156.13 765.25,143.83 766.48,212.96 767.71,205.57 768.93,190.38 770.16,174.53 771.39,163.88 772.61,171.76 773.84,163.12 775.07,149.92 776.29,150.18 777.52,139.92 778.75,127.32 779.97,115.47 781.20,101.96 782.43,87.79 783.65,111.35 784.88,99.78 786.11,87.77 787.33,75.16 788.56,62.13 789.79,50.24 791.01,69.57 792.24,78.91 793.47,68.99 794.69,58.83 795.92,47.33 797.15,64.02 798.37,74.73 799.60,65.36 800.83,86.89 802.05,111.63 803.28,152.62 804.51,209.99 805.73,227.96 806.96,240.09 808.19,247.53 809.41,251.44 810.64,253.94 811.87,255.94 813.09,283.22 814.32,318.34 815.55,329.68 816.77,339.37 818.00,346.79" fill="none" stroke="#d1495b" stroke-width="3"/>
<polyline points="82.00,488.00 83.23,488.00 83.23,488.00 84.45,488.00 84.45,488.00 85.68,488.00 85.68,488.00 86.91,488.00 86.91,488.00 88.13,488.00 88.13,488.00 89.36,488.00 89.36,488.00 90.59,488.00 90.59,488.00 91.81,488.00 91.81,488.00 93.04,488.00 93.04,488.00 94.27,488.00 94.27,488.00 95.49,488.00 95.49,488.00 96.72,488.00 96.72,488.00 97.95,488.00 97.95,488.00 99.17,488.00 99.17,488.00 100.40,488.00 100.40,488.00 101.63,488.00 101.63,488.00 102.85,488.00 102.85,488.00 104.08,488.00 104.08,488.00 105.31,488.00 105.31,488.00 106.53,488.00 106.53,488.00 107.76,488.00 107.76,488.00 108.99,488.00 108.99,488.00 110.21,488.00 110.21,488.00 111.44,488.00 111.44,488.00 112.67,488.00 112.67,488.00 113.89,488.00 113.89,488.00 115.12,488.00 115.12,488.00 116.35,488.00 116.35,488.00 117.57,488.00 117.57,488.00 118.80,488.00 118.80,488.00 120.03,488.00 120.03,488.00 121.25,488.00 121.25,488.00 122.48,488.00 122.48,488.00 123.71,488.00 123.71,488.00 124.93,488.00 124.93,488.00 126.16,488.00 126.16,488.00 127.39,488.00 127.39,488.00 128.61,488.00 128.61,488.00 129.84,488.00 129.84,488.00 131.07,488.00 131.07,488.00 132.29,488.00 132.29,488.00 133.52,488.00 133.52,488.00 134.75,488.00 134.75,488.00 135.97,488.00 135.97,488.00 137.20,488.00 137.20,488.00 138.43,488.00 138.43,488.00 139.65,488.00 139.65,488.00 140.88,488.00 140.88,488.00 142.11,488.00 142.11,488.00 143.33,488.00 143.33,488.00 144.56,488.00 144.56,488.00 145.79,488.00 145.79,488.00 147.01,488.00 147.01,488.00 148.24,488.00 148.24,488.00 149.47,488.00 149.47,488.00 150.69,488.00 150.69,488.00 151.92,488.00 151.92,488.00 153.15,488.00 153.15,488.00 154.37,488.00 154.37,488.00 155.60,488.00 155.60,488.00 156.83,488.00 156.83,488.00 158.05,488.00 158.05,488.00 159.28,488.00 159.28,488.00 160.51,488.00 160.51,488.00 161.73,488.00 161.73,488.00 162.96,488.00 162.96,488.00 164.19,488.00 164.19,488.00 165.41,488.00 165.41,488.00 166.64,488.00 166.64,488.00 167.87,488.00 167.87,488.00 169.09,488.00 169.09,488.00 170.32,488.00 170.32,488.00 171.55,488.00 171.55,488.00 172.77,488.00 172.77,488.00 174.00,488.00 174.00,488.00 175.23,488.00 175.23,488.00 176.45,488.00 176.45,488.00 177.68,488.00 177.68,488.00 178.91,488.00 178.91,488.00 180.13,488.00 180.13,488.00 181.36,488.00 181.36,488.00 182.59,488.00 182.59,488.00 183.81,488.00 183.81,488.00 185.04,488.00 185.04,488.00 186.27,488.00 186.27,488.00 187.49,488.00 187.49,488.00 188.72,488.00 188.72,488.00 189.95,488.00 189.95,488.00 191.17,488.00 191.17,488.00 192.40,488.00 192.40,488.00 193.63,488.00 193.63,488.00 194.85,488.00 194.85,488.00 196.08,488.00 196.08,488.00 197.31,488.00 197.31,488.00 198.53,488.00 198.53,488.00 199.76,488.00 199.76,488.00 200.99,488.00 200.99,488.00 202.21,488.00 202.21,488.00 203.44,488.00 203.44,488.00 204.67,488.00 204.67,488.00 205.89,488.00 205.89,488.00 207.12,488.00 207.12,488.00 208.35,488.00 208.35,488.00 209.57,488.00 209.57,488.00 210.80,488.00 210.80,488.00 212.03,488.00 212.03,488.00 213.25,488.00 213.25,488.00 214.48,488.00 214.48,488.00 215.71,488.00 215.71,488.00 216.93,488.00 216.93,488.00 218.16,488.00 218.16,488.00 219.39,488.00 219.39,488.00 220.61,488.00 220.61,488.00 221.84,488.00 221.84,488.00 223.07,488.00 223.07,488.00 224.29,488.00 224.29,488.00 225.52,488.00 225.52,488.00 226.75,488.00 226.75,488.00 227.97,488.00 227.97,488.00 229.20,488.00 229.20,488.00 230.43,488.00 230.43,488.00 231.65,488.00 231.65,488.00 232.88,488.00 232.88,488.00 234.11,488.00 234.11,488.00 235.33,488.00 235.33,488.00 236.56,488.00 236.56,488.00 237.79,488.00 237.79,488.00 239.01,488.00 239.01,488.00 240.24,488.00 240.24,488.00 241.47,488.00 241.47,488.00 242.69,488.00 242.69,488.00 243.92,488.00 243.92,488.00 245.15,488.00 245.15,488.00 246.37,488.00 246.37,488.00 247.60,488.00 247.60,488.00 248.83,488.00 248.83,488.00 250.05,488.00 250.05,488.00 251.28,488.00 251.28,488.00 252.51,488.00 252.51,488.00 253.73,488.00 253.73,488.00 254.96,488.00 254.96,488.00 256.19,488.00 256.19,488.00 257.41,488.00 257.41,488.00 258.64,488.00 258.64,488.00 259.87,488.00 259.87,488.00 261.09,488.00 261.09,488.00 262.32,488.00 262.32,488.00 263.55,488.00 263.55,488.00 264.77,488.00 264.77,488.00 266.00,488.00 266.00,488.00 267.23,488.00 267.23,488.00 268.45,488.00 268.45,488.00 269.68,488.00 269.68,488.00 270.91,488.00 270.91,488.00 272.13,488.00 272.13,488.00 273.36,488.00 273.36,488.00 274.59,488.00 274.59,488.00 275.81,488.00 275.81,488.00 277.04,488.00 277.04,488.00 278.27,488.00 278.27,488.00 279.49,488.00 279.49,488.00 280.72,488.00 280.72,488.00 281.95,488.00 281.95,488.00 283.17,488.00 283.17,488.00 284.40,488.00 284.40,488.00 285.63,488.00 285.63,488.00 286.85,488.00 286.85,488.00 288.08,488.00 288.08,488.00 289.31,488.00 289.31,488.00 290.53,488.00 290.53,488.00 291.76,488.00 291.76,488.00 292.99,488.00 292.99,488.00 294.21,488.00 294.21,488.00 295.44,488.00 295.44,488.00 296.67,488.00 296.67,488.00 297.89,488.00 297.89,488.00 299.12,488.00 299.12,488.00 300.35,488.00 300.35,488.00 301.57,488.00 301.57,488.00 302.80,488.00 302.80,488.00 304.03,488.00 304.03,488.00 305.25,488.00 305.25,488.00 306.48,488.00 306.48,488.00 307.71,488.00 307.71,488.00 308.93,488.00 308.93,488.00 310.16,488.00 310.16,488.00 311.39,488.00 311.39,488.00 312.61,488.00 312.61,488.00 313.84,488.00 313.84,488.00 315.07,488.00 315.07,488.00 316.29,488.00 316.29,488.00 317.52,488.00 317.52,488.00 318.75,488.00 318.75,488.00 319.97,488.00 319.97,488.00 321.20,488.00 321.20,488.00 322.43,488.00 322.43,488.00 323.65,488.00 323.65,488.00 324.88,488.00 324.88,488.00 326.11,488.00 326.11,488.00 327.33,488.00 327.33,488.00 328.56,488.00 328.56,488.00 329.79,488.00 329.79,488.00 331.01,488.00 331.01,488.00 332.24,488.00 332.24,488.00 333.47,488.00 333.47,488.00 334.69,488.00 334.69,488.00 335.92,488.00 335.92,488.00 337.15,488.00 337.15,488.00 338.37,488.00 338.37,488.00 339.60,488.00 339.60,488.00 340.83,488.00 340.83,487.43 342.05,487.43 342.05,486.87 343.28,486.87 343.28,481.21 344.51,481.21 344.51,481.21 345.73,481.21 345.73,481.21 346.96,481.21 346.96,481.21 348.19,481.21 348.19,481.21 349.41,481.21 349.41,481.21 350.64,481.21 350.64,481.21 351.87,481.21 351.87,481.21 353.09,481.21 353.09,481.21 354.32,481.21 354.32,481.21 355.55,481.21 355.55,481.21 356.77,481.21 356.77,481.21 358.00,481.21 358.00,474.42 359.23,474.42 359.23,474.42 360.45,474.42 360.45,474.42 361.68,474.42 361.68,474.42 362.91,474.42 362.91,472.73 364.13,472.73 364.13,468.20 365.36,468.20 365.36,463.68 366.59,463.68 366.59,463.68 367.81,463.68 367.81,463.68 369.04,463.68 369.04,463.68 370.27,463.68 370.27,463.68 371.49,463.68 371.49,463.68 372.72,463.68 372.72,463.68 373.95,463.68 373.95,463.68 375.17,463.68 375.17,457.45 376.40,457.45 376.40,457.45 377.63,457.45 377.63,457.45 378.85,457.45 378.85,457.45 380.08,457.45 380.08,457.45 381.31,457.45 381.31,457.45 382.53,457.45 382.53,457.45 383.76,457.45 383.76,457.45 384.99,457.45 384.99,452.36 386.21,452.36 386.21,452.36 387.44,452.36 387.44,452.36 388.67,452.36 388.67,452.36 389.89,452.36 389.89,452.36 391.12,452.36 391.12,452.36 392.35,452.36 392.35,452.36 393.57,452.36 393.57,445.58 394.80,445.58 394.80,445.58 396.03,445.58 396.03,445.58 397.25,445.58 397.25,445.58 398.48,445.58 398.48,445.58 399.71,445.58 399.71,445.58 400.93,445.58 400.93,445.58 402.16,445.58 402.16,445.58 403.39,445.58 403.39,445.58 404.61,445.58 404.61,445.58 405.84,445.58 405.84,445.58 407.07,445.58 407.07,445.58 408.29,445.58 408.29,445.58 409.52,445.58 409.52,445.58 410.75,445.58 410.75,445.58 411.97,445.58 411.97,445.58 413.20,445.58 413.20,445.58 414.43,445.58 414.43,445.58 415.65,445.58 415.65,445.58 416.88,445.58 416.88,445.58 418.11,445.58 418.11,445.58 419.33,445.58 419.33,445.58 420.56,445.58 420.56,445.58 421.79,445.58 421.79,445.58 423.01,445.58 423.01,445.58 424.24,445.58 424.24,445.58 425.47,445.58 425.47,445.58 426.69,445.58 426.69,445.58 427.92,445.58 427.92,445.58 429.15,445.58 429.15,445.58 430.37,445.58 430.37,445.58 431.60,445.58 431.60,445.58 432.83,445.58 432.83,445.58 434.05,445.58 434.05,445.58 435.28,445.58 435.28,445.58 436.51,445.58 436.51,445.58 437.73,445.58 437.73,445.58 438.96,445.58 438.96,445.58 440.19,445.58 440.19,445.58 441.41,445.58 441.41,445.58 442.64,445.58 442.64,445.58 443.87,445.58 443.87,445.58 445.09,445.58 445.09,445.58 446.32,445.58 446.32,445.58 447.55,445.58 447.55,445.58 448.77,445.58 448.77,445.58 450.00,445.58 450.00,445.58 451.23,445.58 451.23,437.09 452.45,437.09 452.45,437.09 453.68,437.09 453.68,437.09 454.91,437.09 454.91,437.09 456.13,437.09 456.13,437.09 457.36,437.09 457.36,437.09 458.59,437.09 458.59,437.09 459.81,437.09 459.81,437.09 461.04,437.09 461.04,437.09 462.27,437.09 462.27,437.09 463.49,437.09 463.49,419.56 464.72,419.56 464.72,419.56 465.95,419.56 465.95,419.56 467.17,419.56 467.17,419.56 468.40,419.56 468.40,419.56 469.63,419.56 469.63,419.56 470.85,419.56 470.85,419.56 472.08,419.56 472.08,419.56 473.31,419.56 473.31,419.56 474.53,419.56 474.53,419.56 475.76,419.56 475.76,418.99 476.99,418.99 476.99,405.41 478.21,405.41 478.21,405.41 479.44,405.41 479.44,405.41 480.67,405.41 480.67,405.41 481.89,405.41 481.89,405.41 483.12,405.41 483.12,405.41 484.35,405.41 484.35,405.41 485.57,405.41 485.57,405.41 486.80,405.41 486.80,405.41 488.03,405.41 488.03,405.41 489.25,405.41 489.25,405.41 490.48,405.41 490.48,405.41 491.71,405.41 491.71,405.41 492.93,405.41 492.93,405.41 494.16,405.41 494.16,405.41 495.39,405.41 495.39,405.41 496.61,405.41 496.61,405.41 497.84,405.41 497.84,405.41 499.07,405.41 499.07,405.41 500.29,405.41 500.29,405.41 501.52,405.41 501.52,405.41 502.75,405.41 502.75,405.41 503.97,405.41 503.97,405.41 505.20,405.41 505.20,405.41 506.43,405.41 506.43,405.41 507.65,405.41 507.65,405.41 508.88,405.41 508.88,405.41 510.11,405.41 510.11,405.41 511.33,405.41 511.33,405.41 512.56,405.41 512.56,405.41 513.79,405.41 513.79,405.41 515.01,405.41 515.01,397.49 516.24,397.49 516.24,397.49 517.47,397.49 517.47,397.49 518.69,397.49 518.69,397.49 519.92,397.49 519.92,397.49 521.15,397.49 521.15,397.49 522.37,397.49 522.37,395.80 523.60,395.80 523.60,389.58 524.83,389.58 524.83,389.58 526.05,389.58 526.05,389.58 527.28,389.58 527.28,389.58 528.51,389.58 528.51,379.39 529.73,379.39 529.73,376.00 530.96,376.00 530.96,375.43 532.19,375.43 532.19,375.43 533.41,375.43 533.41,375.43 534.64,375.43 534.64,375.43 535.87,375.43 535.87,374.87 537.09,374.87 537.09,374.87 538.32,374.87 538.32,374.87 539.55,374.87 539.55,374.87 540.77,374.87 540.77,374.87 542.00,374.87 542.00,374.87 543.23,374.87 543.23,374.87 544.45,374.87 544.45,374.87 545.68,374.87 545.68,368.08 546.91,368.08 546.91,368.08 548.13,368.08 548.13,359.60 549.36,359.60 549.36,359.60 550.59,359.60 550.59,359.60 551.81,359.60 551.81,359.60 553.04,359.60 553.04,359.60 554.27,359.60 554.27,359.60 555.49,359.60 555.49,358.46 556.72,358.46 556.72,353.94 557.95,353.94 557.95,353.94 559.17,353.94 559.17,353.94 560.40,353.94 560.40,353.37 561.63,353.37 561.63,351.11 562.85,351.11 562.85,350.55 564.08,350.55 564.08,350.55 565.31,350.55 565.31,350.55 566.53,350.55 566.53,350.55 567.76,350.55 567.76,350.55 568.99,350.55 568.99,350.55 570.21,350.55 570.21,350.55 571.44,350.55 571.44,350.55 572.67,350.55 572.67,343.76 573.89,343.76 573.89,343.76 575.12,343.76 575.12,343.76 576.35,343.76 576.35,343.76 577.57,343.76 577.57,343.76 578.80,343.76 578.80,343.76 580.03,343.76 580.03,343.76 581.25,343.76 581.25,336.40 582.48,336.40 582.48,336.40 583.71,336.40 583.71,336.40 584.93,336.40 584.93,329.05 586.16,329.05 586.16,304.73 587.39,304.73 587.39,304.73 588.61,304.73 588.61,304.73 589.84,304.73 589.84,304.73 591.07,304.73 591.07,304.73 592.29,304.73 592.29,304.73 593.52,304.73 593.52,304.73 594.75,304.73 594.75,304.73 595.97,304.73 595.97,304.73 597.20,304.73 597.20,304.73 598.43,304.73 598.43,304.73 599.65,304.73 599.65,304.73 600.88,304.73 600.88,304.73 602.11,304.73 602.11,304.73 603.33,304.73 603.33,304.73 604.56,304.73 604.56,304.73 605.79,304.73 605.79,304.73 607.01,304.73 607.01,304.73 608.24,304.73 608.24,304.73 609.47,304.73 609.47,304.73 610.69,304.73 610.69,296.24 611.92,296.24 611.92,296.24 613.15,296.24 613.15,295.68 614.37,295.68 614.37,292.85 615.60,292.85 615.60,292.85 616.83,292.85 616.83,292.85 618.05,292.85 618.05,283.80 619.28,283.80 619.28,283.23 620.51,283.23 620.51,283.23 621.73,283.23 621.73,283.23 622.96,283.23 622.96,283.23 624.19,283.23 624.19,283.23 625.41,283.23 625.41,283.23 626.64,283.23 626.64,282.67 627.87,282.67 627.87,282.67 629.09,282.67 629.09,282.67 630.32,282.67 630.32,282.67 631.55,282.67 631.55,258.34 632.77,258.34 632.77,258.34 634.00,258.34 634.00,258.34 635.23,258.34 635.23,258.34 636.45,258.34 636.45,258.34 637.68,258.34 637.68,258.34 638.91,258.34 638.91,258.34 640.13,258.34 640.13,258.34 641.36,258.34 641.36,258.34 642.59,258.34 642.59,258.34 643.81,258.34 643.81,258.34 645.04,258.34 645.04,258.34 646.27,258.34 646.27,250.42 647.49,250.42 647.49,250.42 648.72,250.42 648.72,250.42 649.95,250.42 649.95,250.42 651.17,250.42 651.17,250.42 652.40,250.42 652.40,234.59 653.63,234.59 653.63,234.59 654.85,234.59 654.85,234.59 656.08,234.59 656.08,234.59 657.31,234.59 657.31,234.59 658.53,234.59 658.53,234.59 659.76,234.59 659.76,234.59 660.99,234.59 660.99,234.59 662.21,234.59 662.21,234.59 663.44,234.59 663.44,234.59 664.67,234.59 664.67,234.59 665.89,234.59 665.89,234.59 667.12,234.59 667.12,234.59 668.35,234.59 668.35,234.59 669.57,234.59 669.57,234.59 670.80,234.59 670.80,234.59 672.03,234.59 672.03,234.59 673.25,234.59 673.25,234.59 674.48,234.59 674.48,234.59 675.71,234.59 675.71,234.59 676.93,234.59 676.93,234.59 678.16,234.59 678.16,234.59 679.39,234.59 679.39,234.59 680.61,234.59 680.61,234.59 681.84,234.59 681.84,226.67 683.07,226.67 683.07,226.67 684.29,226.67 684.29,226.67 685.52,226.67 685.52,226.67 686.75,226.67 686.75,226.67 687.97,226.67 687.97,226.67 689.20,226.67 689.20,218.18 690.43,218.18 690.43,218.18 691.65,218.18 691.65,218.18 692.88,218.18 692.88,218.18 694.11,218.18 694.11,218.18 695.33,218.18 695.33,211.96 696.56,211.96 696.56,211.96 697.79,211.96 697.79,211.96 699.01,211.96 699.01,211.96 700.24,211.96 700.24,211.96 701.47,211.96 701.47,211.96 702.69,211.96 702.69,211.96 703.92,211.96 703.92,211.96 705.15,211.96 705.15,211.96 706.37,211.96 706.37,211.96 707.60,211.96 707.60,211.96 708.83,211.96 708.83,211.96 710.05,211.96 710.05,211.96 711.28,211.96 711.28,211.39 712.51,211.39 712.51,211.39 713.73,211.39 713.73,202.91 714.96,202.91 714.96,202.91 716.19,202.91 716.19,202.91 717.41,202.91 717.41,202.34 718.64,202.34 718.64,201.78 719.87,201.78 719.87,197.25 721.09,197.25 721.09,197.25 722.32,197.25 722.32,197.25 723.55,197.25 723.55,196.69 724.77,196.69 724.77,196.69 726.00,196.69 726.00,196.69 727.23,196.69 727.23,196.69 728.45,196.69 728.45,196.69 729.68,196.69 729.68,196.69 730.91,196.69 730.91,196.69 732.13,196.69 732.13,196.69 733.36,196.69 733.36,196.12 734.59,196.12 734.59,195.56 735.81,195.56 735.81,188.77 737.04,188.77 737.04,188.77 738.27,188.77 738.27,188.77 739.49,188.77 739.49,177.45 740.72,177.45 740.72,177.45 741.95,177.45 741.95,177.45 743.17,177.45 743.17,177.45 744.40,177.45 744.40,177.45 745.63,177.45 745.63,177.45 746.85,177.45 746.85,177.45 748.08,177.45 748.08,168.40 749.31,168.40 749.31,161.62 750.53,161.62 750.53,161.62 751.76,161.62 751.76,161.62 752.99,161.62 752.99,161.62 754.21,161.62 754.21,161.62 755.44,161.62 755.44,161.62 756.67,161.62 756.67,161.62 757.89,161.62 757.89,161.62 759.12,161.62 759.12,161.62 760.35,161.62 760.35,161.62 761.57,161.62 761.57,161.62 762.80,161.62 762.80,161.62 764.03,161.62 764.03,159.35 765.25,159.35 765.25,159.35 766.48,159.35 766.48,138.42 767.71,138.42 767.71,138.42 768.93,138.42 768.93,138.42 770.16,138.42 770.16,138.42 771.39,138.42 771.39,136.73 772.61,136.73 772.61,128.81 773.84,128.81 773.84,128.81 775.07,128.81 775.07,128.81 776.29,128.81 776.29,119.76 777.52,119.76 777.52,119.76 778.75,119.76 778.75,118.06 779.97,118.06 779.97,118.06 781.20,118.06 781.20,118.06 782.43,118.06 782.43,118.06 783.65,118.06 783.65,109.58 784.88,109.58 784.88,109.58 786.11,109.58 786.11,109.58 787.33,109.58 787.33,109.58 788.56,109.58 788.56,109.58 789.79,109.58 789.79,109.01 791.01,109.01 791.01,94.30 792.24,94.30 792.24,94.30 793.47,94.30 793.47,94.30 794.69,94.30 794.69,94.30 795.92,94.30 795.92,94.30 797.15,94.30 797.15,82.99 798.37,82.99 798.37,82.99 799.60,82.99 799.60,82.99 800.83,82.99 800.83,69.98 802.05,69.98 802.05,69.98 803.28,69.98 803.28,58.67 804.51,58.67 804.51,52.44 805.73,52.44 805.73,52.44 806.96,52.44 806.96,52.44 808.19,52.44 808.19,52.44 809.41,52.44 809.41,52.44 810.64,52.44 810.64,52.44 811.87,52.44 811.87,51.88 813.09,51.88 813.09,40.00 814.32,40.00 814.32,40.00 815.55,40.00 815.55,40.00 816.77,40.00 816.77,40.00 818.00,40.00 818.00,40.00" fill="none" stroke="#4b8f29" stroke-width="3"/>
<text x="450.0" y="552" text-anchor="middle" font-size="20" font-family="Arial, sans-serif" fill="#111827">Top displacement (mm)</text>
<text x="24" y="280.0" text-anchor="middle" transform="rotate(-90 24 280.0)" font-size="20" font-family="Arial, sans-serif" fill="#111827">Force magnitude (N)</text>
<text x="880" y="280.0" text-anchor="middle" transform="rotate(90 880 280.0)" font-size="20" font-family="Arial, sans-serif" fill="#111827">Broken bonds</text>
<text x="102" y="64" font-size="18" font-family="Arial, sans-serif" fill="#1b6ca8">Top plate</text>
<text x="212" y="64" font-size="18" font-family="Arial, sans-serif" fill="#d1495b">Bottom plate</text>
<text x="352" y="64" font-size="18" font-family="Arial, sans-serif" fill="#4b8f29">Broken bonds</text>
<text x="72" y="45" text-anchor="end" font-size="17" fill="#30363d">28.38</text>
<text x="72" y="488" text-anchor="end" font-size="17" fill="#30363d">0</text>
<text x="828" y="45" text-anchor="start" font-size="17" fill="#30363d">792</text>
<text x="828" y="488" text-anchor="start" font-size="17" fill="#30363d">0</text>
</svg>
