<svg xmlns="http://www.w3.org/2000/svg" width="900" height="560" viewBox="0 0 900 560">
<rect width="100%" height="100%" fill="white"/>
<text x="450.0" y="26" text-anchor="middle" font-size="22" font-family="Arial, sans-serif" fill="#111827">SP-002 force-displacement and bond breakage</text>
<line x1="82" y1="40.00" x2="818" y2="40.00" stroke="#d9dee2" stroke-width="1"/><line x1="82" y1="129.60" x2="818" y2="129.60" stroke="#d9dee2" stroke-width="1"/><line x1="82" y1="219.20" x2="818" y2="219.20" stroke="#d9dee2" stroke-width="1"/><line x1="82" y1="308.80" x2="818" y2="308.80" stroke="#d9dee2" stroke-width="1"/><line x1="82" y1="398.40" x2="818" y2="398.40" stroke="#d9dee2" stroke-width="1"/><line x1="82" y1="488.00" x2="818" y2="488.00" stroke="#d9dee2" stroke-width="1"/><line x1="82.00" y1="40" x2="82.00" y2="488" stroke="#edf0f2" stroke-width="1"/><text x="82.00" y="526" text-anchor="middle" font-size="18" fill="#30363d">0.000</text><line x1="229.20" y1="40" x2="229.20" y2="488" stroke="#edf0f2" stroke-width="1"/><text x="229.20" y="526" text-anchor="middle" font-size="18" fill="#30363d">0.060</text><line x1="376.40" y1="40" x2="376.40" y2="488" stroke="#edf0f2" stroke-width="1"/><text x="376.40" y="526" text-anchor="middle" font-size="18" fill="#30363d">0.120</text><line x1="523.60" y1="40" x2="523.60" y2="488" stroke="#edf0f2" stroke-width="1"/><text x="523.60" y="526" text-anchor="middle" font-size="18" fill="#30363d">0.180</text><line x1="670.80" y1="40" x2="670.80" y2="488" stroke="#edf0f2" stroke-width="1"/><text x="670.80" y="526" text-anchor="middle" font-size="18" fill="#30363d">0.240</text><line x1="818.00" y1="40" x2="818.00" y2="488" stroke="#edf0f2" stroke-width="1"/><text x="818.00" y="526" text-anchor="middle" font-size="18" fill="#30363d">0.300</text>
<line x1="82" y1="40" x2="82" y2="488" stroke="#111827" stroke-width="1.5"/>
<line x1="82" y1="488" x2="818" y2="488" stroke="#111827" stroke-width="1.5"/>
<line x1="818" y1="40" x2="818" y2="488" stroke="#111827" stroke-width="1.5"/>
<polyline points="82.00,488.00 83.23,488.00 84.45,488.00 85.68,488.00 86.91,488.00 88.13,488.00 89.36,488.00 90.59,488.00 91.81,488.00 93.04,488.00 94.27,488.00 95.49,488.00 96.72,488.00 97.95,488.00 99.17,488.00 100.40,488.00 101.63,488.00 102.85,488.00 104.08,488.00 105.31,488.00 106.53,488.00 107.76,488.00 108.99,488.00 110.21,488.00 111.44,488.00 112.67,488.00 113.89,488.00 115.12,488.00 116.35,488.00 117.57,488.00 118.80,488.00 120.03,488.00 121.25,488.00 122.48,488.00 123.71,488.00 124.93,488.00 126.16,488.00 127.39,488.00 128.61,488.00 129.84,488.00 131.07,488.00 132.29,488.00 133.52,488.00 134.75,488.00 135.97,488.00 137.20,488.00 138.43,488.00 139.65,488.00 140.88,488.00 142.11,488.00 143.33,488.00 144.56,488.00 145.79,488.00 147.01,488.00 148.24,488.00 149.47,488.00 150.69,488.00 151.92,488.00 153.15,488.00 154.37,488.00 155.60,488.00 156.83,488.00 158.05,488.00 159.28,488.00 160.51,488.00 161.73,488.00 162.96,488.00 164.19,488.00 165.41,488.00 166.64,488.00 167.87,488.00 169.09,488.00 170.32,488.00 171.55,488.00 172.77,488.00 174.00,488.00 175.23,488.00 176.45,488.00 177.68,488.00 178.91,488.00 180.13,488.00 181.36,488.00 182.59,488.00 183.81,488.00 185.04,488.00 186.27,488.00 187.49,488.00 188.72,488.00 189.95,488.00 191.17,488.00 192.40,488.00 193.63,488.00 194.85,488.00 196.08,488.00 197.31,488.00 198.53,488.00 199.76,488.00 200.99,488.00 202.21,488.00 203.44,488.00 204.67,488.00 205.89,488.00 207.12,488.00 208.35,488.00 209.57,488.00 210.80,488.00 212.03,488.00 213.25,488.00 214.48,488.00 215.71,488.00 216.93,488.00 218.16,488.00 219.39,488.00 220.61,488.00 221.84,488.00 223.07,488.00 224.29,488.00 225.52,488.00 226.75,488.00 227.97,488.00 229.20,488.00 230.43,488.00 231.65,488.00 232.88,488.00 234.11,488.00 235.33,488.00 236.56,488.00 237.79,488.00 239.01,488.00 240.24,488.00 241.47,488.00 242.69,488.00 243.92,488.00 245.15,488.00 246.37,488.00 247.60,488.00 248.83,488.00 250.05,488.00 251.28,488.00 252.51,488.00 253.73,488.00 254.96,488.00 256.19,488.00 257.41,488.00 258.64,488.00 259.87,488.00 261.09,488.00 262.32,488.00 263.55,488.00 264.77,488.00 266.00,488.00 267.23,488.00 268.45,488.00 269.68,488.00 270.91,488.00 272.13,488.00 273.36,488.00 274.59,488.00 275.81,488.00 277.04,488.00 278.27,488.00 279.49,488.00 280.72,488.00 281.95,488.00 283.17,488.00 284.40,488.00 285.63,488.00 286.85,488.00 288.08,488.00 289.31,488.00 290.53,488.00 291.76,488.00 292.99,488.00 294.21,488.00 295.44,488.00 296.67,488.00 297.89,488.00 299.12,488.00 300.35,488.00 301.57,488.00 302.80,488.00 304.03,488.00 305.25,488.00 306.48,488.00 307.71,488.00 308.93,488.00 310.16,488.00 311.39,488.00 312.61,488.00 313.84,488.00 315.07,488.00 316.29,488.00 317.52,488.00 318.75,488.00 319.97,488.00 321.20,488.00 322.43,488.00 323.65,488.00 324.88,488.00 326.11,488.00 327.33,487.99 328.56,483.61 329.79,476.66 331.01,468.42 332.24,460.15 333.47,450.77 334.69,440.89 335.92,430.58 337.15,419.88 338.37,487.93 339.60,487.93 340.83,487.93 342.05,487.93 343.28,487.93 344.51,484.77 345.73,478.73 346.96,471.52 348.19,463.55 349.41,454.98 350.64,442.11 351.87,426.87 353.09,466.75 354.32,457.24 355.55,448.25 356.77,438.84 358.00,429.38 359.23,487.79 360.45,487.79 361.68,487.79 362.91,487.77 364.13,486.37 365.36,484.08 366.59,481.27 367.81,478.08 369.04,474.61 370.27,470.91 371.49,466.88 372.72,461.06 373.95,454.29 375.17,446.87 376.40,438.93 377.63,430.56 378.85,421.83 380.08,412.39 381.31,408.01 382.53,414.41 383.76,421.08 384.99,424.93 386.21,426.58 387.44,428.22 388.67,434.47 389.89,437.02 391.12,434.65 392.35,430.15 393.57,424.74 394.80,418.93 396.03,412.90 397.25,406.73 398.48,400.51 399.71,394.33 400.93,386.63 402.16,378.36 403.39,369.76 404.61,360.79 405.84,430.16 407.07,425.09 408.29,417.50 409.52,409.38 410.75,423.20 411.97,419.73 413.20,410.43 414.43,401.34 415.65,391.89 416.88,381.93 418.11,371.32 419.33,359.99 420.56,448.10 421.79,437.92 423.01,429.63 424.24,423.31 425.47,417.71 426.69,411.83 427.92,405.65 429.15,399.33 430.37,392.86 431.60,386.24 432.83,379.44 434.05,372.50 435.28,365.41 436.51,358.19 437.73,350.86 438.96,344.29 440.19,336.88 441.41,331.13 442.64,467.80 443.87,450.05 445.09,445.34 446.32,444.67 447.55,444.08 448.77,443.29 450.00,442.37 451.23,441.30 452.45,440.08 453.68,438.69 454.91,436.87 456.13,434.40 457.36,429.81 458.59,424.88 459.81,419.90 461.04,414.91 462.27,409.54 463.49,404.36 464.72,398.16 465.95,390.53 467.17,382.35 468.40,373.67 469.63,365.07 470.85,354.63 472.08,342.32 473.31,329.83 474.53,317.12 475.76,303.03 476.99,287.66 478.21,313.74 479.44,291.51 480.67,272.65 481.89,254.06 483.12,257.11 484.35,370.72 485.57,388.23 486.80,393.52 488.03,395.17 489.25,395.53 490.48,394.43 491.71,391.54 492.93,387.48 494.16,382.72 495.39,377.33 496.61,371.28 497.84,365.01 499.07,358.75 500.29,352.63 501.52,346.74 502.75,341.15 503.97,335.98 505.20,331.26 506.43,367.29 507.65,360.52 508.88,352.86 510.11,343.60 511.33,335.12 512.56,326.37 513.79,317.15 515.01,307.54 516.24,299.47 517.47,346.43 518.69,355.20 519.92,351.06 521.15,345.65 522.37,338.35 523.60,327.68 524.83,314.63 526.05,305.79 527.28,369.80 528.51,379.05 529.73,367.74 530.96,354.28 532.19,338.45 533.41,325.34 534.64,333.09 535.87,321.89 537.09,307.92 538.32,293.37 539.55,308.87 540.77,355.82 542.00,362.07 543.23,360.37 544.45,354.43 545.68,346.77 546.91,338.49 548.13,329.33 549.36,317.09 550.59,302.65 551.81,286.51 553.04,268.77 554.27,274.60 555.49,365.71 556.72,315.61 557.95,299.96 559.17,283.66 560.40,265.10 561.63,249.98 562.85,401.75 564.08,379.06 565.31,354.21 566.53,383.11 567.76,398.29 568.99,402.53 570.21,403.83 571.44,402.18 572.67,398.41 573.89,392.74 575.12,385.97 576.35,378.51 577.57,370.54 578.80,362.18 580.03,353.35 581.25,342.62 582.48,330.76 583.71,318.19 584.93,304.69 586.16,291.60 587.39,278.89 588.61,266.87 589.84,316.05 591.07,306.69 592.29,298.73 593.52,290.11 594.75,281.82 595.97,274.86 597.20,280.27 598.43,284.71 599.65,281.09 600.88,273.07 602.11,263.95 603.33,252.71 604.56,239.18 605.79,224.05 607.01,207.92 608.24,190.34 609.47,170.78 610.69,150.63 611.92,130.70 613.15,145.78 614.37,165.42 615.60,156.04 616.83,142.72 618.05,124.78 619.28,104.95 620.51,104.07 621.73,175.07 622.96,213.93 624.19,232.57 625.41,242.47 626.64,245.94 627.87,245.15 629.09,240.74 630.32,233.13 631.55,221.28 632.77,207.11 634.00,191.31 635.23,216.73 636.45,206.77 637.68,200.75 638.91,194.52 640.13,187.47 641.36,179.73 642.59,171.52 643.81,160.34 645.04,146.27 646.27,132.11 647.49,229.27 648.72,224.39 649.95,210.70 651.17,196.62 652.40,182.47 653.63,168.18 654.85,153.24 656.08,168.92 657.31,192.78 658.53,182.60 659.76,171.26 660.99,162.45 662.21,150.55 663.44,268.12 664.67,249.05 665.89,244.43 667.12,235.16 668.35,225.33 669.57,214.05 670.80,201.47 672.03,187.54 673.25,172.12 674.48,155.39 675.71,137.80 676.93,244.50 678.16,286.79 679.39,292.63 680.61,285.78 681.84,272.17 683.07,254.53 684.29,234.13 685.52,228.18 686.75,253.72 687.97,239.06 689.20,275.45 690.43,310.96 691.65,321.46 692.88,323.51 694.11,320.98 695.33,315.60 696.56,307.92 697.79,298.35 699.01,288.71 700.24,278.87 701.47,268.43 702.69,257.42 703.92,246.03 705.15,234.25 706.37,222.22 707.60,210.14 708.83,198.40 710.05,186.62 711.28,173.33 712.51,158.89 713.73,145.23 714.96,130.48 716.19,115.17 717.41,99.25 718.64,268.19 719.87,254.24 721.09,249.65 722.32,244.27 723.55,235.51 724.77,224.02 726.00,210.53 727.23,285.26 728.45,320.10 729.68,329.27 730.91,335.14 732.13,337.20 733.36,337.28 734.59,335.67 735.81,331.92 737.04,325.57 738.27,318.34 739.49,311.22 740.72,303.49 741.95,294.89 743.17,285.50 744.40,275.21 745.63,264.15 746.85,253.59 748.08,243.37 749.31,232.64 750.53,222.79 751.76,206.83 752.99,257.94 754.21,246.06 755.44,303.83 756.67,261.91 757.89,248.32 759.12,231.02 760.35,213.90 761.57,196.70 762.80,178.64 764.03,160.27 765.25,141.78 766.48,122.94 767.71,169.35 768.93,160.76 770.16,151.39 771.39,138.93 772.61,125.55 773.84,112.02 775.07,111.34 776.29,227.60 777.52,257.91 778.75,243.49 779.97,231.39 781.20,219.21 782.43,206.31 783.65,192.31 784.88,177.41 786.11,160.60 787.33,143.56 788.56,127.81 789.79,109.56 791.01,86.94 792.24,64.63 793.47,40.00 794.69,65.56 795.92,151.12 797.15,126.84 798.37,133.26 799.60,134.87 800.83,135.96 802.05,135.74 803.28,133.14 804.51,128.43 805.73,122.19 806.96,115.43 808.19,174.20 809.41,265.83 810.64,274.27 811.87,270.89 813.09,266.17 814.32,260.93 815.55,264.83 816.77,308.77 818.00,325.02" fill="none" stroke="#1b6ca8" stroke-width="3"/>
<polyline points="82.00,488.00 83.23,488.00 84.45,488.00 85.68,488.00 86.91,488.00 88.13,488.00 89.36,488.00 90.59,488.00 91.81,488.00 93.04,488.00 94.27,488.00 95.49,488.00 96.72,488.00 97.95,488.00 99.17,488.00 100.40,488.00 101.63,488.00 102.85,488.00 104.08,488.00 105.31,488.00 106.53,488.00 107.76,488.00 108.99,488.00 110.21,488.00 111.44,488.00 112.67,488.00 113.89,488.00 115.12,488.00 116.35,488.00 117.57,488.00 118.80,488.00 120.03,488.00 121.25,488.00 122.48,488.00 123.71,488.00 124.93,488.00 126.16,488.00 127.39,488.00 128.61,488.00 129.84,488.00 131.07,488.00 132.29,488.00 133.52,488.00 134.75,488.00 135.97,488.00 137.20,488.00 138.43,488.00 139.65,488.00 140.88,488.00 142.11,488.00 143.33,488.00 144.56,488.00 145.79,488.00 147.01,488.00 148.24,488.00 149.47,488.00 150.69,488.00 151.92,488.00 153.15,488.00 154.37,488.00 155.60,488.00 156.83,488.00 158.05,488.00 159.28,488.00 160.51,488.00 161.73,488.00 162.96,488.00 164.19,488.00 165.41,488.00 166.64,488.00 167.87,488.00 169.09,488.00 170.32,488.00 171.55,488.00 172.77,488.00 174.00,488.00 175.23,488.00 176.45,488.00 177.68,488.00 178.91,488.00 180.13,488.00 181.36,488.00 182.59,488.00 183.81,488.00 185.04,488.00 186.27,488.00 187.49,488.00 188.72,488.00 189.95,488.00 191.17,488.00 192.40,488.00 193.63,488.00 194.85,488.00 196.08,488.00 197.31,488.00 198.53,488.00 199.76,488.00 200.99,488.00 202.21,488.00 203.44,488.00 204.67,488.00 205.89,488.00 207.12,488.00 208.35,488.00 209.57,488.00 210.80,488.00 212.03,488.00 213.25,488.00 214.48,488.00 215.71,488.00 216.93,488.00 218.16,488.00 219.39,488.00 220.61,488.00 221.84,488.00 223.07,488.00 224.29,488.00 225.52,488.00 226.75,488.00 227.97,488.00 229.20,488.00 230.43,488.00 231.65,488.00 232.88,488.00 234.11,488.00 235.33,488.00 236.56,488.00 237.79,488.00 239.01,488.00 240.24,488.00 241.47,488.00 242.69,488.00 243.92,488.00 245.15,488.00 246.37,488.00 247.60,488.00 248.83,488.00 250.05,488.00 251.28,488.00 252.51,488.00 253.73,488.00 254.96,488.00 256.19,488.00 257.41,488.00 258.64,488.00 259.87,488.00 261.09,488.00 262.32,488.00 263.55,488.00 264.77,488.00 266.00,488.00 267.23,488.00 268.45,488.00 269.68,488.00 270.91,488.00 272.13,488.00 273.36,488.00 274.59,488.00 275.81,488.00 277.04,488.00 278.27,488.00 279.49,488.00 280.72,488.00 281.95,488.00 283.17,488.00 284.40,488.00 285.63,488.00 286.85,488.00 288.08,488.00 289.31,488.00 290.53,488.00 291.76,488.00 292.99,488.00 294.21,488.00 295.44,488.00 296.67,488.00 297.89,488.00 299.12,488.00 300.35,488.00 301.57,488.00 302.80,488.00 304.03,488.00 305.25,488.00 306.48,488.00 307.71,488.00 308.93,488.00 310.16,488.00 311.39,488.00 312.61,488.00 313.84,488.00 315.07,488.00 316.29,488.00 317.52,488.00 318.75,488.00 319.97,488.00 321.20,488.00 322.43,488.00 323.65,488.00 324.88,488.00 326.11,488.00 327.33,488.00 328.56,485.55 329.79,479.52 331.01,471.79 332.24,463.48 333.47,454.56 334.69,444.90 335.92,434.75 337.15,424.21 338.37,476.15 339.60,487.15 340.83,487.94 342.05,488.00 343.28,488.00 344.51,486.36 345.73,481.20 346.96,474.44 348.19,466.76 349.41,458.46 350.64,447.42 351.87,433.06 353.09,457.34 354.32,460.11 355.55,451.96 356.77,442.78 358.00,433.18 359.23,465.55 360.45,486.40 361.68,487.89 362.91,488.00 364.13,487.16 365.36,485.17 366.59,482.55 367.81,479.50 369.04,476.13 370.27,472.52 371.49,468.68 372.72,463.52 373.95,457.12 375.17,449.95 376.40,442.22 377.63,434.02 378.85,425.45 380.08,423.33 381.31,435.44 382.53,453.46 383.76,455.27 384.99,453.26 386.21,450.58 387.44,474.10 388.67,479.91 389.89,466.09 391.12,453.60 392.35,444.56 393.57,437.17 394.80,430.44 396.03,423.97 397.25,417.60 398.48,411.33 399.71,405.15 400.93,398.64 402.16,391.16 403.39,382.91 404.61,374.05 405.84,442.65 407.07,450.72 408.29,446.52 409.52,437.78 410.75,443.30 411.97,440.09 413.20,432.83 414.43,423.92 415.65,414.20 416.88,403.76 418.11,392.64 419.33,381.11 420.56,393.16 421.79,432.03 423.01,437.79 424.24,436.47 425.47,432.79 426.69,427.42 427.92,421.22 429.15,414.88 430.37,408.49 431.60,402.02 432.83,395.38 434.05,388.54 435.28,381.54 436.51,374.41 437.73,367.17 438.96,360.12 440.19,353.27 441.41,346.05 442.64,357.67 443.87,411.72 445.09,432.28 446.32,441.38 447.55,445.68 448.77,447.25 450.00,447.41 451.23,446.88 452.45,445.94 453.68,444.71 454.91,443.13 456.13,441.38 457.36,438.93 458.59,435.61 459.81,431.68 461.04,427.37 462.27,422.71 463.49,417.88 464.72,412.65 465.95,406.29 467.17,398.68 468.40,390.28 469.63,381.38 470.85,372.03 472.08,361.15 473.31,349.66 474.53,337.67 475.76,324.83 476.99,310.43 478.21,331.66 479.44,317.50 480.67,300.36 481.89,282.56 483.12,444.35 484.35,438.94 485.57,436.06 486.80,434.64 488.03,433.81 489.25,433.11 490.48,429.30 491.71,424.48 492.93,419.23 494.16,413.65 495.39,407.03 496.61,400.26 497.84,393.87 499.07,387.73 500.29,381.74 501.52,376.00 502.75,370.62 503.97,365.64 505.20,361.03 506.43,379.33 507.65,381.65 508.88,378.68 510.11,371.68 511.33,363.42 512.56,354.54 513.79,345.12 515.01,335.30 516.24,328.48 517.47,407.76 518.69,389.03 519.92,382.20 521.15,376.57 522.37,365.87 523.60,352.74 524.83,338.36 526.05,386.59 527.28,440.63 528.51,410.10 529.73,390.50 530.96,376.68 532.19,359.82 533.41,383.27 534.64,361.10 535.87,345.76 537.09,331.25 538.32,316.66 539.55,420.84 540.77,415.86 542.00,407.53 543.23,392.54 544.45,380.65 545.68,370.71 546.91,361.70 548.13,352.68 549.36,340.09 550.59,325.33 551.81,308.80 553.04,290.62 554.27,323.66 555.49,311.15 556.72,331.24 557.95,318.60 559.17,302.12 560.40,283.71 561.63,263.63 562.85,296.97 564.08,351.72 565.31,352.82 566.53,434.33 567.76,430.51 568.99,429.21 570.21,426.95 571.44,421.57 572.67,415.43 573.89,408.21 575.12,400.53 576.35,392.38 577.57,383.80 578.80,374.99 580.03,365.99 581.25,356.69 582.48,347.67 583.71,337.85 584.93,326.93 586.16,314.86 587.39,302.68 588.61,291.49 589.84,330.61 591.07,327.58 592.29,319.39 593.52,310.86 594.75,305.76 595.97,300.84 597.20,342.24 598.43,327.23 599.65,316.68 600.88,306.77 602.11,294.51 603.33,276.90 604.56,259.27 605.79,241.80 607.01,224.72 608.24,206.33 609.47,186.38 610.69,165.75 611.92,146.09 613.15,211.68 614.37,183.56 615.60,172.23 616.83,159.51 618.05,142.60 619.28,122.96 620.51,193.26 621.73,255.64 622.96,263.50 624.19,272.82 625.41,276.52 626.64,275.80 627.87,272.38 629.09,266.99 630.32,257.20 631.55,243.90 632.77,228.79 634.00,212.46 635.23,206.53 636.45,224.32 637.68,220.90 638.91,214.17 640.13,205.91 641.36,197.55 642.59,188.98 643.81,179.57 645.04,168.69 646.27,153.38 647.49,266.92 648.72,246.46 649.95,231.97 651.17,217.83 652.40,203.55 653.63,188.23 654.85,172.28 656.08,238.29 657.31,213.70 658.53,201.64 659.76,190.05 660.99,179.07 662.21,168.29 663.44,174.87 664.67,238.05 665.89,250.63 667.12,247.89 668.35,240.13 669.57,229.60 670.80,217.16 672.03,203.32 673.25,188.10 674.48,171.51 675.71,154.58 676.93,274.89 678.16,307.90 679.39,314.92 680.61,306.45 681.84,291.61 683.07,272.31 684.29,251.21 685.52,313.76 686.75,273.66 687.97,257.96 689.20,324.11 690.43,333.75 691.65,340.84 692.88,342.61 694.11,340.25 695.33,335.22 696.56,328.25 697.79,319.79 699.01,310.60 700.24,301.02 701.47,290.57 702.69,279.64 703.92,268.34 705.15,256.71 706.37,244.81 707.60,233.06 708.83,221.59 710.05,209.74 711.28,196.00 712.51,181.46 713.73,168.01 714.96,152.85 716.19,137.53 717.41,122.01 718.64,158.77 719.87,242.27 721.09,252.02 722.32,251.61 723.55,245.09 724.77,234.75 726.00,221.72 727.23,326.43 728.45,333.23 729.68,341.70 730.91,348.05 732.13,351.95 733.36,353.25 734.59,352.06 735.81,348.12 737.04,341.53 738.27,335.17 739.49,329.17 740.72,321.92 741.95,313.59 743.17,304.32 744.40,294.21 745.63,283.23 746.85,272.28 748.08,259.81 749.31,246.92 750.53,235.80 751.76,221.16 752.99,256.16 754.21,251.22 755.44,252.94 756.67,267.90 757.89,257.67 759.12,244.14 760.35,228.86 761.57,212.40 762.80,195.05 764.03,177.68 765.25,159.73 766.48,141.34 767.71,169.53 768.93,170.89 770.16,161.90 771.39,149.62 772.61,136.51 773.84,123.03 775.07,113.85 776.29,180.32 777.52,241.96 778.75,248.74 779.97,242.01 781.20,231.13 782.43,217.93 783.65,203.70 784.88,189.13 786.11,170.00 787.33,160.57 788.56,140.59 789.79,122.17 791.01,102.16 792.24,80.52 793.47,57.62 794.69,65.09 795.92,71.46 797.15,149.30 798.37,159.89 799.60,163.25 800.83,164.99 802.05,163.41 803.28,159.00 804.51,152.87 805.73,145.72 806.96,138.13 808.19,295.12 809.41,310.41 810.64,298.83 811.87,293.89 813.09,288.89 814.32,283.34 815.55,339.96 816.77,347.04 818.00,356.02" fill="none" stroke="#d1495b" stroke-width="3"/>
<polyline points="82.00,488.00 83.23,488.00 83.23,488.00 84.45,488.00 84.45,488.00 85.68,488.00 85.68,488.00 86.91,488.00 86.91,488.00 88.13,488.00 88.13,488.00 89.36,488.00 89.36,488.00 90.59,488.00 90.59,488.00 91.81,488.00 91.81,488.00 93.04,488.00 93.04,488.00 94.27,488.00 94.27,488.00 95.49,488.00 95.49,488.00 96.72,488.00 96.72,488.00 97.95,488.00 97.95,488.00 99.17,488.00 99.17,488.00 100.40,488.00 100.40,488.00 101.63,488.00 101.63,488.00 102.85,488.00 102.85,488.00 104.08,488.00 104.08,488.00 105.31,488.00 105.31,488.00 106.53,488.00 106.53,488.00 107.76,488.00 107.76,488.00 108.99,488.00 108.99,488.00 110.21,488.00 110.21,488.00 111.44,488.00 111.44,488.00 112.67,488.00 112.67,488.00 113.89,488.00 113.89,488.00 115.12,488.00 115.12,488.00 116.35,488.00 116.35,488.00 117.57,488.00 117.57,488.00 118.80,488.00 118.80,488.00 120.03,488.00 120.03,488.00 121.25,488.00 121.25,488.00 122.48,488.00 122.48,488.00 123.71,488.00 123.71,488.00 124.93,488.00 124.93,488.00 126.16,488.00 126.16,488.00 127.39,488.00 127.39,488.00 128.61,488.00 128.61,488.00 129.84,488.00 129.84,488.00 131.07,488.00 131.07,488.00 132.29,488.00 132.29,488.00 133.52,488.00 133.52,488.00 134.75,488.00 134.75,488.00 135.97,488.00 135.97,488.00 137.20,488.00 137.20,488.00 138.43,488.00 138.43,488.00 139.65,488.00 139.65,488.00 140.88,488.00 140.88,488.00 142.11,488.00 142.11,488.00 143.33,488.00 143.33,488.00 144.56,488.00 144.56,488.00 145.79,488.00 145.79,488.00 147.01,488.00 147.01,488.00 148.24,488.00 148.24,488.00 149.47,488.00 149.47,488.00 150.69,488.00 150.69,488.00 151.92,488.00 151.92,488.00 153.15,488.00 153.15,488.00 154.37,488.00 154.37,488.00 155.60,488.00 155.60,488.00 156.83,488.00 156.83,488.00 158.05,488.00 158.05,488.00 159.28,488.00 159.28,488.00 160.51,488.00 160.51,488.00 161.73,488.00 161.73,488.00 162.96,488.00 162.96,488.00 164.19,488.00 164.19,488.00 165.41,488.00 165.41,488.00 166.64,488.00 166.64,488.00 167.87,488.00 167.87,488.00 169.09,488.00 169.09,488.00 170.32,488.00 170.32,488.00 171.55,488.00 171.55,488.00 172.77,488.00 172.77,488.00 174.00,488.00 174.00,488.00 175.23,488.00 175.23,488.00 176.45,488.00 176.45,488.00 177.68,488.00 177.68,488.00 178.91,488.00 178.91,488.00 180.13,488.00 180.13,488.00 181.36,488.00 181.36,488.00 182.59,488.00 182.59,488.00 183.81,488.00 183.81,488.00 185.04,488.00 185.04,488.00 186.27,488.00 186.27,488.00 187.49,488.00 187.49,488.00 188.72,488.00 188.72,488.00 189.95,488.00 189.95,488.00 191.17,488.00 191.17,488.00 192.40,488.00 192.40,488.00 193.63,488.00 193.63,488.00 194.85,488.00 194.85,488.00 196.08,488.00 196.08,488.00 197.31,488.00 197.31,488.00 198.53,488.00 198.53,488.00 199.76,488.00 199.76,488.00 200.99,488.00 200.99,488.00 202.21,488.00 202.21,488.00 203.44,488.00 203.44,488.00 204.67,488.00 204.67,488.00 205.89,488.00 205.89,488.00 207.12,488.00 207.12,488.00 208.35,488.00 208.35,488.00 209.57,488.00 209.57,488.00 210.80,488.00 210.80,488.00 212.03,488.00 212.03,488.00 213.25,488.00 213.25,488.00 214.48,488.00 214.48,488.00 215.71,488.00 215.71,488.00 216.93,488.00 216.93,488.00 218.16,488.00 218.16,488.00 219.39,488.00 219.39,488.00 220.61,488.00 220.61,488.00 221.84,488.00 221.84,488.00 223.07,488.00 223.07,488.00 224.29,488.00 224.29,488.00 225.52,488.00 225.52,488.00 226.75,488.00 226.75,488.00 227.97,488.00 227.97,488.00 229.20,488.00 229.20,488.00 230.43,488.00 230.43,488.00 231.65,488.00 231.65,488.00 232.88,488.00 232.88,488.00 234.11,488.00 234.11,488.00 235.33,488.00 235.33,488.00 236.56,488.00 236.56,488.00 237.79,488.00 237.79,488.00 239.01,488.00 239.01,488.00 240.24,488.00 240.24,488.00 241.47,488.00 241.47,488.00 242.69,488.00 242.69,488.00 243.92,488.00 243.92,488.00 245.15,488.00 245.15,488.00 246.37,488.00 246.37,488.00 247.60,488.00 247.60,488.00 248.83,488.00 248.83,488.00 250.05,488.00 250.05,488.00 251.28,488.00 251.28,488.00 252.51,488.00 252.51,488.00 253.73,488.00 253.73,488.00 254.96,488.00 254.96,488.00 256.19,488.00 256.19,488.00 257.41,488.00 257.41,488.00 258.64,488.00 258.64,488.00 259.87,488.00 259.87,488.00 261.09,488.00 261.09,488.00 262.32,488.00 262.32,488.00 263.55,488.00 263.55,488.00 264.77,488.00 264.77,488.00 266.00,488.00 266.00,488.00 267.23,488.00 267.23,488.00 268.45,488.00 268.45,488.00 269.68,488.00 269.68,488.00 270.91,488.00 270.91,488.00 272.13,488.00 272.13,488.00 273.36,488.00 273.36,488.00 274.59,488.00 274.59,488.00 275.81,488.00 275.81,488.00 277.04,488.00 277.04,488.00 278.27,488.00 278.27,488.00 279.49,488.00 279.49,488.00 280.72,488.00 280.72,488.00 281.95,488.00 281.95,488.00 283.17,488.00 283.17,488.00 284.40,488.00 284.40,488.00 285.63,488.00 285.63,488.00 286.85,488.00 286.85,488.00 288.08,488.00 288.08,488.00 289.31,488.00 289.31,488.00 290.53,488.00 290.53,488.00 291.76,488.00 291.76,488.00 292.99,488.00 292.99,488.00 294.21,488.00 294.21,488.00 295.44,488.00 295.44,488.00 296.67,488.00 296.67,488.00 297.89,488.00 297.89,488.00 299.12,488.00 299.12,488.00 300.35,488.00 300.35,488.00 301.57,488.00 301.57,488.00 302.80,488.00 302.80,488.00 304.03,488.00 304.03,488.00 305.25,488.00 305.25,488.00 306.48,488.00 306.48,488.00 307.71,488.00 307.71,488.00 308.93,488.00 308.93,488.00 310.16,488.00 310.16,488.00 311.39,488.00 311.39,488.00 312.61,488.00 312.61,488.00 313.84,488.00 313.84,488.00 315.07,488.00 315.07,488.00 316.29,488.00 316.29,488.00 317.52,488.00 317.52,488.00 318.75,488.00 318.75,488.00 319.97,488.00 319.97,488.00 321.20,488.00 321.20,488.00 322.43,488.00 322.43,488.00 323.65,488.00 323.65,488.00 324.88,488.00 324.88,488.00 326.11,488.00 326.11,488.00 327.33,488.00 327.33,488.00 328.56,488.00 328.56,488.00 329.79,488.00 329.79,488.00 331.01,488.00 331.01,488.00 332.24,488.00 332.24,487.41 333.47,487.41 333.47,487.41 334.69,487.41 334.69,487.41 335.92,487.41 335.92,487.41 337.15,487.41 337.15,487.41 338.37,487.41 338.37,480.87 339.60,480.87 339.60,480.87 340.83,480.87 340.83,480.87 342.05,480.87 342.05,480.87 343.28,480.87 343.28,480.87 344.51,480.87 344.51,480.87 345.73,480.87 345.73,480.87 346.96,480.87 346.96,480.87 348.19,480.87 348.19,480.87 349.41,480.87 349.41,480.87 350.64,480.87 350.64,480.87 351.87,480.87 351.87,480.87 353.09,480.87 353.09,474.33 354.32,474.33 354.32,474.33 355.55,474.33 355.55,474.33 356.77,474.33 356.77,474.33 358.00,474.33 358.00,473.74 359.23,473.74 359.23,467.20 360.45,467.20 360.45,467.20 361.68,467.20 361.68,467.20 362.91,467.20 362.91,467.20 364.13,467.20 364.13,467.20 365.36,467.20 365.36,467.20 366.59,467.20 366.59,467.20 367.81,467.20 367.81,467.20 369.04,467.20 369.04,467.20 370.27,467.20 370.27,467.20 371.49,467.20 371.49,467.20 372.72,467.20 372.72,467.20 373.95,467.20 373.95,467.20 375.17,467.20 375.17,467.20 376.40,467.20 376.40,467.20 377.63,467.20 377.63,467.20 378.85,467.20 378.85,467.20 380.08,467.20 380.08,467.20 381.31,467.20 381.31,466.61 382.53,466.61 382.53,457.70 383.76,457.70 383.76,455.92 384.99,455.92 384.99,455.92 386.21,455.92 386.21,455.92 387.44,455.92 387.44,455.92 388.67,455.92 388.67,455.92 389.89,455.92 389.89,455.92 391.12,455.92 391.12,455.92 392.35,455.92 392.35,455.92 393.57,455.92 393.57,455.92 394.80,455.92 394.80,455.92 396.03,455.92 396.03,455.92 397.25,455.92 397.25,455.92 398.48,455.92 398.48,455.92 399.71,455.92 399.71,455.92 400.93,455.92 400.93,455.92 402.16,455.92 402.16,455.92 403.39,455.92 403.39,455.92 404.61,455.92 404.61,455.92 405.84,455.92 405.84,442.25 407.07,442.25 407.07,442.25 408.29,442.25 408.29,442.25 409.52,442.25 409.52,442.25 410.75,442.25 410.75,438.68 411.97,438.68 411.97,438.09 413.20,438.09 413.20,438.09 414.43,438.09 414.43,438.09 415.65,438.09 415.65,438.09 416.88,438.09 416.88,438.09 418.11,438.09 418.11,438.09 419.33,438.09 419.33,438.09 420.56,438.09 420.56,430.37 421.79,430.37 421.79,430.37 423.01,430.37 423.01,430.37 424.24,430.37 424.24,430.37 425.47,430.37 425.47,430.37 426.69,430.37 426.69,430.37 427.92,430.37 427.92,430.37 429.15,430.37 429.15,430.37 430.37,430.37 430.37,430.37 431.60,430.37 431.60,430.37 432.83,430.37 432.83,430.37 434.05,430.37 434.05,430.37 435.28,430.37 435.28,430.37 436.51,430.37 436.51,430.37 437.73,430.37 437.73,430.37 438.96,430.37 438.96,429.77 440.19,429.77 440.19,429.77 441.41,429.77 441.41,429.18 442.64,429.18 442.64,410.76 443.87,410.76 443.87,410.76 445.09,410.76 445.09,410.76 446.32,410.76 446.32,410.76 447.55,410.76 447.55,410.76 448.77,410.76 448.77,410.76 450.00,410.76 450.00,410.76 451.23,410.76 451.23,410.76 452.45,410.76 452.45,410.76 453.68,410.76 453.68,410.76 454.91,410.76 454.91,410.76 456.13,410.76 456.13,410.76 457.36,410.76 457.36,410.76 458.59,410.76 458.59,410.76 459.81,410.76 459.81,410.76 461.04,410.76 461.04,410.76 462.27,410.76 462.27,410.76 463.49,410.76 463.49,410.76 464.72,410.76 464.72,410.76 465.95,410.76 465.95,410.76 467.17,410.76 467.17,410.76 468.40,410.76 468.40,410.76 469.63,410.76 469.63,410.76 470.85,410.76 470.85,410.76 472.08,410.76 472.08,410.76 473.31,410.76 473.31,410.76 474.53,410.76 474.53,410.76 475.76,410.76 475.76,410.76 476.99,410.76 476.99,410.76 478.21,410.76 478.21,401.25 479.44,401.25 479.44,401.25 480.67,401.25 480.67,401.25 481.89,401.25 481.89,401.25 483.12,401.25 483.12,385.21 484.35,385.21 484.35,385.21 485.57,385.21 485.57,385.21 486.80,385.21 486.80,385.21 488.03,385.21 488.03,385.21 489.25,385.21 489.25,385.21 490.48,385.21 490.48,385.21 491.71,385.21 491.71,385.21 492.93,385.21 492.93,385.21 494.16,385.21 494.16,385.21 495.39,385.21 495.39,385.21 496.61,385.21 496.61,385.21 497.84,385.21 497.84,385.21 499.07,385.21 499.07,385.21 500.29,385.21 500.29,385.21 501.52,385.21 501.52,385.21 502.75,385.21 502.75,385.21 503.97,385.21 503.97,385.21 505.20,385.21 505.20,385.21 506.43,385.21 506.43,377.49 507.65,377.49 507.65,377.49 508.88,377.49 508.88,377.49 510.11,377.49 510.11,377.49 511.33,377.49 511.33,377.49 512.56,377.49 512.56,377.49 513.79,377.49 513.79,377.49 515.01,377.49 515.01,377.49 516.24,377.49 516.24,376.30 517.47,376.30 517.47,367.38 518.69,367.38 518.69,367.38 519.92,367.38 519.92,367.38 521.15,367.38 521.15,367.38 522.37,367.38 522.37,367.38 523.60,367.38 523.60,367.38 524.83,367.38 524.83,367.38 526.05,367.38 526.05,357.88 527.28,357.88 527.28,347.78 528.51,347.78 528.51,347.78 529.73,347.78 529.73,347.78 530.96,347.78 530.96,347.18 532.19,347.18 532.19,347.18 533.41,347.18 533.41,342.43 534.64,342.43 534.64,342.43 535.87,342.43 535.87,342.43 537.09,342.43 537.09,342.43 538.32,342.43 538.32,342.43 539.55,342.43 539.55,333.52 540.77,333.52 540.77,333.52 542.00,333.52 542.00,333.52 543.23,333.52 543.23,333.52 544.45,333.52 544.45,333.52 545.68,333.52 545.68,333.52 546.91,333.52 546.91,333.52 548.13,333.52 548.13,333.52 549.36,333.52 549.36,333.52 550.59,333.52 550.59,333.52 551.81,333.52 551.81,333.52 553.04,333.52 553.04,333.52 554.27,333.52 554.27,326.98 555.49,326.98 555.49,318.07 556.72,318.07 556.72,318.07 557.95,318.07 557.95,318.07 559.17,318.07 559.17,318.07 560.40,318.07 560.40,318.07 561.63,318.07 561.63,316.88 562.85,316.88 562.85,300.84 564.08,300.84 564.08,300.84 565.31,300.84 565.31,300.84 566.53,300.84 566.53,293.71 567.76,293.71 567.76,293.71 568.99,293.71 568.99,293.71 570.21,293.71 570.21,293.71 571.44,293.71 571.44,293.71 572.67,293.71 572.67,293.71 573.89,293.71 573.89,293.71 575.12,293.71 575.12,293.71 576.35,293.71 576.35,293.71 577.57,293.71 577.57,293.71 578.80,293.71 578.80,293.71 580.03,293.71 580.03,293.71 581.25,293.71 581.25,293.71 582.48,293.71 582.48,293.71 583.71,293.71 583.71,293.71 584.93,293.71 584.93,293.71 586.16,293.71 586.16,293.71 587.39,293.71 587.39,293.71 588.61,293.71 588.61,293.71 589.84,293.71 589.84,285.98 591.07,285.98 591.07,285.98 592.29,285.98 592.29,285.98 593.52,285.98 593.52,285.98 594.75,285.98 594.75,285.98 595.97,285.98 595.97,285.98 597.20,285.98 597.20,279.45 598.43,279.45 598.43,279.45 599.65,279.45 599.65,279.45 600.88,279.45 600.88,279.45 602.11,279.45 602.11,279.45 603.33,279.45 603.33,279.45 604.56,279.45 604.56,279.45 605.79,279.45 605.79,279.45 607.01,279.45 607.01,279.45 608.24,279.45 608.24,279.45 609.47,279.45 609.47,279.45 610.69,279.45 610.69,279.45 611.92,279.45 611.92,278.85 613.15,278.85 613.15,269.94 614.37,269.94 614.37,269.94 615.60,269.94 615.60,269.94 616.83,269.94 616.83,269.94 618.05,269.94 618.05,269.94 619.28,269.94 619.28,269.94 620.51,269.94 620.51,261.62 621.73,261.62 621.73,252.12 622.96,252.12 622.96,252.12 624.19,252.12 624.19,252.12 625.41,252.12 625.41,252.12 626.64,252.12 626.64,252.12 627.87,252.12 627.87,252.12 629.09,252.12 629.09,252.12 630.32,252.12 630.32,252.12 631.55,252.12 631.55,252.12 632.77,252.12 632.77,252.12 634.00,252.12 634.00,252.12 635.23,252.12 635.23,246.77 636.45,246.77 636.45,246.77 637.68,246.77 637.68,246.77 638.91,246.77 638.91,246.77 640.13,246.77 640.13,246.77 641.36,246.77 641.36,246.77 642.59,246.77 642.59,246.77 643.81,246.77 643.81,246.77 645.04,246.77 645.04,245.58 646.27,245.58 646.27,245.58 647.49,245.58 647.49,231.92 648.72,231.92 648.72,231.92 649.95,231.92 649.95,231.92 651.17,231.92 651.17,231.92 652.40,231.92 652.40,231.92 653.63,231.92 653.63,231.92 654.85,231.92 654.85,231.92 656.08,231.92 656.08,223.60 657.31,223.60 657.31,223.60 658.53,223.60 658.53,223.60 659.76,223.60 659.76,223.60 660.99,223.60 660.99,222.41 662.21,222.41 662.21,222.41 663.44,222.41 663.44,212.90 664.67,212.90 664.67,212.90 665.89,212.90 665.89,212.90 667.12,212.90 667.12,212.90 668.35,212.90 668.35,212.90 669.57,212.90 669.57,212.90 670.80,212.90 670.80,212.90 672.03,212.90 672.03,212.90 673.25,212.90 673.25,212.90 674.48,212.90 674.48,212.90 675.71,212.90 675.71,212.90 676.93,212.90 676.93,193.29 678.16,193.29 678.16,193.29 679.39,193.29 679.39,193.29 680.61,193.29 680.61,193.29 681.84,193.29 681.84,193.29 683.07,193.29 683.07,193.29 684.29,193.29 684.29,193.29 685.52,193.29 685.52,185.57 686.75,185.57 686.75,185.57 687.97,185.57 687.97,185.57 689.20,185.57 689.20,176.66 690.43,176.66 690.43,176.66 691.65,176.66 691.65,176.66 692.88,176.66 692.88,176.66 694.11,176.66 694.11,176.66 695.33,176.66 695.33,176.66 696.56,176.66 696.56,176.66 697.79,176.66 697.79,176.66 699.01,176.66 699.01,176.66 700.24,176.66 700.24,176.66 701.47,176.66 701.47,176.66 702.69,176.66 702.69,176.66 703.92,176.66 703.92,176.66 705.15,176.66 705.15,176.66 706.37,176.66 706.37,176.66 707.60,176.66 707.60,176.66 708.83,176.66 708.83,176.66 710.05,176.66 710.05,176.66 711.28,176.66 711.28,176.66 712.51,176.66 712.51,176.66 713.73,176.66 713.73,176.06 714.96,176.06 714.96,176.06 716.19,176.06 716.19,176.06 717.41,176.06 717.41,176.06 718.64,176.06 718.64,151.11 719.87,151.11 719.87,151.11 721.09,151.11 721.09,151.11 722.32,151.11 722.32,151.11 723.55,151.11 723.55,151.11 724.77,151.11 724.77,151.11 726.00,151.11 726.00,151.11 727.23,151.11 727.23,135.07 728.45,135.07 728.45,135.07 729.68,135.07 729.68,135.07 730.91,135.07 730.91,135.07 732.13,135.07 732.13,135.07 733.36,135.07 733.36,135.07 734.59,135.07 734.59,135.07 735.81,135.07 735.81,135.07 737.04,135.07 737.04,135.07 738.27,135.07 738.27,135.07 739.49,135.07 739.49,135.07 740.72,135.07 740.72,135.07 741.95,135.07 741.95,135.07 743.17,135.07 743.17,135.07 744.40,135.07 744.40,135.07 745.63,135.07 745.63,135.07 746.85,135.07 746.85,134.47 748.08,134.47 748.08,134.47 749.31,134.47 749.31,134.47 750.53,134.47 750.53,133.28 751.76,133.28 751.76,133.28 752.99,133.28 752.99,123.78 754.21,123.78 754.21,122.59 755.44,122.59 755.44,114.27 756.67,114.27 756.67,114.27 757.89,114.27 757.89,114.27 759.12,114.27 759.12,114.27 760.35,114.27 760.35,114.27 761.57,114.27 761.57,114.27 762.80,114.27 762.80,114.27 764.03,114.27 764.03,114.27 765.25,114.27 765.25,114.27 766.48,114.27 766.48,114.27 767.71,114.27 767.71,105.95 768.93,105.95 768.93,105.95 770.16,105.95 770.16,105.95 771.39,105.95 771.39,105.95 772.61,105.95 772.61,105.95 773.84,105.95 773.84,105.95 775.07,105.95 775.07,105.95 776.29,105.95 776.29,96.45 777.52,96.45 777.52,96.45 778.75,96.45 778.75,96.45 779.97,96.45 779.97,96.45 781.20,96.45 781.20,96.45 782.43,96.45 782.43,96.45 783.65,96.45 783.65,96.45 784.88,96.45 784.88,96.45 786.11,96.45 786.11,96.45 787.33,96.45 787.33,96.45 788.56,96.45 788.56,96.45 789.79,96.45 789.79,96.45 791.01,96.45 791.01,96.45 792.24,96.45 792.24,95.85 793.47,95.85 793.47,95.85 794.69,95.85 794.69,88.13 795.92,88.13 795.92,67.33 797.15,67.33 797.15,67.33 798.37,67.33 798.37,67.33 799.60,67.33 799.60,67.33 800.83,67.33 800.83,67.33 802.05,67.33 802.05,67.33 803.28,67.33 803.28,67.33 804.51,67.33 804.51,67.33 805.73,67.33 805.73,67.33 806.96,67.33 806.96,66.74 808.19,66.74 808.19,48.32 809.41,48.32 809.41,48.32 810.64,48.32 810.64,48.32 811.87,48.32 811.87,48.32 813.09,48.32 813.09,48.32 814.32,48.32 814.32,48.32 815.55,48.32 815.55,40.00 816.77,40.00 816.77,40.00 818.00,40.00 818.00,40.00" fill="none" stroke="#4b8f29" stroke-width="3"/>
<text x="450.0" y="552" text-anchor="middle" font-size="20" font-family="Arial, sans-serif" fill="#111827">Top displacement (mm)</text>
<text x="24" y="280.0" text-anchor="middle" transform="rotate(-90 24 280.0)" font-size="20" font-family="Arial, sans-serif" fill="#111827">Force magnitude (N)</text>
<text x="880" y="280.0" text-anchor="middle" transform="rotate(90 880 280.0)" font-size="20" font-family="Arial, sans-serif" fill="#111827">Broken bonds</text>
<text x="102" y="64" font-size="18" font-family="Arial, sans-serif" fill="#1b6ca8">Top plate</text>
<text x="212" y="64" font-size="18" font-family="Arial, sans-serif" fill="#d1495b">Bottom plate</text>
<text x="352" y="64" font-size="18" font-family="Arial, sans-serif" fill="#4b8f29">Broken bonds</text>
<text x="72" y="45" text-anchor="end" font-size="17" fill="#30363d">12.51</text>
<text x="72" y="488" text-anchor="end" font-size="17" fill="#30363d">0</text>
<text x="828" y="45" text-anchor="start" font-size="17" fill="#30363d">754</text>
<text x="828" y="488" text-anchor="start" font-size="17" fill="#30363d">0</text>
</svg>
