<svg xmlns="http://www.w3.org/2000/svg" width="900" height="560" viewBox="0 0 900 560">
<rect width="100%" height="100%" fill="white"/>
<text x="450.0" y="26" text-anchor="middle" font-size="22" font-family="Arial, sans-serif" fill="#111827">SP-002 force-displacement and bond breakage</text>
<line x1="82" y1="40.00" x2="818" y2="40.00" stroke="#d9dee2" stroke-width="1"/><line x1="82" y1="129.60" x2="818" y2="129.60" stroke="#d9dee2" stroke-width="1"/><line x1="82" y1="219.20" x2="818" y2="219.20" stroke="#d9dee2" stroke-width="1"/><line x1="82" y1="308.80" x2="818" y2="308.80" stroke="#d9dee2" stroke-width="1"/><line x1="82" y1="398.40" x2="818" y2="398.40" stroke="#d9dee2" stroke-width="1"/><line x1="82" y1="488.00" x2="818" y2="488.00" stroke="#d9dee2" stroke-width="1"/><line x1="82.00" y1="40" x2="82.00" y2="488" stroke="#edf0f2" stroke-width="1"/><text x="82.00" y="526" text-anchor="middle" font-size="18" fill="#30363d">0.000</text><line x1="229.20" y1="40" x2="229.20" y2="488" stroke="#edf0f2" stroke-width="1"/><text x="229.20" y="526" text-anchor="middle" font-size="18" fill="#30363d">0.030</text><line x1="376.40" y1="40" x2="376.40" y2="488" stroke="#edf0f2" stroke-width="1"/><text x="376.40" y="526" text-anchor="middle" font-size="18" fill="#30363d">0.060</text><line x1="523.60" y1="40" x2="523.60" y2="488" stroke="#edf0f2" stroke-width="1"/><text x="523.60" y="526" text-anchor="middle" font-size="18" fill="#30363d">0.090</text><line x1="670.80" y1="40" x2="670.80" y2="488" stroke="#edf0f2" stroke-width="1"/><text x="670.80" y="526" text-anchor="middle" font-size="18" fill="#30363d">0.120</text><line x1="818.00" y1="40" x2="818.00" y2="488" stroke="#edf0f2" stroke-width="1"/><text x="818.00" y="526" text-anchor="middle" font-size="18" fill="#30363d">0.150</text>
<line x1="82" y1="40" x2="82" y2="488" stroke="#111827" stroke-width="1.5"/>
<line x1="82" y1="488" x2="818" y2="488" stroke="#111827" stroke-width="1.5"/>
<line x1="818" y1="40" x2="818" y2="488" stroke="#111827" stroke-width="1.5"/>
<polyline points="82.00,488.00 84.45,488.00 86.91,488.00 89.36,488.00 91.81,488.00 94.27,488.00 96.72,488.00 99.17,488.00 101.63,488.00 104.08,488.00 106.53,488.00 108.99,488.00 111.44,488.00 113.89,488.00 116.35,488.00 118.80,488.00 121.25,488.00 123.71,488.00 126.16,488.00 128.61,488.00 131.07,488.00 133.52,488.00 135.97,488.00 138.43,488.00 140.88,488.00 143.33,488.00 145.79,488.00 148.24,488.00 150.69,488.00 153.15,488.00 155.60,488.00 158.05,488.00 160.51,488.00 162.96,488.00 165.41,488.00 167.87,488.00 170.32,488.00 172.77,488.00 175.23,488.00 177.68,488.00 180.13,488.00 182.59,488.00 185.04,488.00 187.49,488.00 189.95,488.00 192.40,488.00 194.85,488.00 197.31,488.00 199.76,488.00 202.21,488.00 204.67,488.00 207.12,488.00 209.57,488.00 212.03,488.00 214.48,488.00 216.93,488.00 219.39,488.00 221.84,488.00 224.29,488.00 226.75,488.00 229.20,488.00 231.65,488.00 234.11,488.00 236.56,488.00 239.01,488.00 241.47,488.00 243.92,488.00 246.37,488.00 248.83,488.00 251.28,488.00 253.73,488.00 256.19,488.00 258.64,488.00 261.09,488.00 263.55,488.00 266.00,488.00 268.45,488.00 270.91,488.00 273.36,488.00 275.81,488.00 278.27,488.00 280.72,488.00 283.17,488.00 285.63,488.00 288.08,488.00 290.53,488.00 292.99,488.00 295.44,488.00 297.89,488.00 300.35,488.00 302.80,488.00 305.25,488.00 307.71,488.00 310.16,488.00 312.61,488.00 315.07,488.00 317.52,488.00 319.97,488.00 322.43,488.00 324.88,488.00 327.33,488.00 329.79,488.00 332.24,488.00 334.69,488.00 337.15,488.00 339.60,488.00 342.05,488.00 344.51,488.00 346.96,488.00 349.41,488.00 351.87,488.00 354.32,488.00 356.77,488.00 359.23,488.00 361.68,488.00 364.13,488.00 366.59,488.00 369.04,488.00 371.49,488.00 373.95,488.00 376.40,488.00 378.85,488.00 381.31,488.00 383.76,488.00 386.21,488.00 388.67,488.00 391.12,488.00 393.57,488.00 396.03,488.00 398.48,488.00 400.93,488.00 403.39,488.00 405.84,488.00 408.29,488.00 410.75,488.00 413.20,488.00 415.65,488.00 418.11,488.00 420.56,488.00 423.01,488.00 425.47,488.00 427.92,488.00 430.37,488.00 432.83,488.00 435.28,488.00 437.73,488.00 440.19,488.00 442.64,488.00 445.09,488.00 447.55,488.00 450.00,488.00 452.45,488.00 454.91,488.00 457.36,488.00 459.81,488.00 462.27,488.00 464.72,488.00 467.17,488.00 469.63,488.00 472.08,488.00 474.53,488.00 476.99,488.00 479.44,488.00 481.89,488.00 484.35,488.00 486.80,488.00 489.25,488.00 491.71,488.00 494.16,488.00 496.61,488.00 499.07,488.00 501.52,488.00 503.97,488.00 506.43,488.00 508.88,488.00 511.33,488.00 513.79,488.00 516.24,488.00 518.69,488.00 521.15,488.00 523.60,488.00 526.05,488.00 528.51,488.00 530.96,488.00 533.41,488.00 535.87,488.00 538.32,488.00 540.77,488.00 543.23,488.00 545.68,488.00 548.13,488.00 550.59,488.00 553.04,488.00 555.49,488.00 557.95,488.00 560.40,488.00 562.85,488.00 565.31,488.00 567.76,488.00 570.21,488.00 572.67,488.00 575.12,484.76 577.57,479.46 580.03,473.03 582.48,465.78 584.93,457.87 587.39,449.41 589.84,440.48 592.29,431.13 594.75,421.41 597.20,411.35 599.65,400.99 602.11,390.35 604.56,379.45 607.01,368.31 609.47,356.94 611.92,344.66 614.37,330.18 616.83,314.67 619.28,326.71 621.73,369.78 624.19,374.03 626.64,369.21 629.09,361.78 631.55,353.53 634.00,344.19 636.45,333.80 638.91,323.01 641.36,311.90 643.81,300.41 646.27,288.25 648.72,418.98 651.17,381.16 653.63,364.83 656.08,352.72 658.53,341.19 660.99,329.54 663.44,317.67 665.89,305.53 668.35,292.72 670.80,279.31 673.25,265.44 675.71,251.20 678.16,236.63 680.61,221.76 683.07,206.61 685.52,191.19 687.97,175.52 690.43,159.61 692.88,293.16 695.33,449.75 697.79,430.63 700.24,418.04 702.69,410.17 705.15,403.87 707.60,397.97 710.05,391.97 712.51,385.88 714.96,379.70 717.41,373.43 719.87,367.07 722.32,360.62 724.77,353.76 727.23,346.45 729.68,338.83 732.13,330.94 734.59,322.82 737.04,314.47 739.49,305.92 741.95,297.16 744.40,288.19 746.85,278.99 749.31,269.48 751.76,258.43 754.21,245.17 756.67,229.88 759.12,213.23 761.57,195.78 764.03,177.80 766.48,159.32 768.93,140.20 771.39,120.64 773.84,100.70 776.29,80.39 778.75,59.74 781.20,40.00 783.65,156.90 786.11,268.12 788.56,294.80 791.01,352.08 793.47,380.19 795.92,389.30 798.37,392.12 800.83,392.73 803.28,392.54 805.73,392.10 808.19,391.60 810.64,391.13 813.09,390.18 815.55,388.85 818.00,387.31" fill="none" stroke="#1b6ca8" stroke-width="3"/>
<polyline points="82.00,488.00 84.45,488.00 86.91,488.00 89.36,488.00 91.81,488.00 94.27,488.00 96.72,488.00 99.17,488.00 101.63,488.00 104.08,488.00 106.53,488.00 108.99,488.00 111.44,488.00 113.89,488.00 116.35,488.00 118.80,488.00 121.25,488.00 123.71,488.00 126.16,488.00 128.61,488.00 131.07,488.00 133.52,488.00 135.97,488.00 138.43,488.00 140.88,488.00 143.33,488.00 145.79,488.00 148.24,488.00 150.69,488.00 153.15,488.00 155.60,488.00 158.05,488.00 160.51,488.00 162.96,488.00 165.41,488.00 167.87,488.00 170.32,488.00 172.77,488.00 175.23,488.00 177.68,488.00 180.13,488.00 182.59,488.00 185.04,488.00 187.49,488.00 189.95,488.00 192.40,488.00 194.85,488.00 197.31,488.00 199.76,488.00 202.21,488.00 204.67,488.00 207.12,488.00 209.57,488.00 212.03,488.00 214.48,488.00 216.93,488.00 219.39,488.00 221.84,488.00 224.29,488.00 226.75,488.00 229.20,488.00 231.65,488.00 234.11,488.00 236.56,488.00 239.01,488.00 241.47,488.00 243.92,488.00 246.37,488.00 248.83,488.00 251.28,488.00 253.73,488.00 256.19,488.00 258.64,488.00 261.09,488.00 263.55,488.00 266.00,488.00 268.45,488.00 270.91,488.00 273.36,488.00 275.81,488.00 278.27,488.00 280.72,488.00 283.17,488.00 285.63,488.00 288.08,488.00 290.53,488.00 292.99,488.00 295.44,488.00 297.89,488.00 300.35,488.00 302.80,488.00 305.25,488.00 307.71,488.00 310.16,488.00 312.61,488.00 315.07,488.00 317.52,488.00 319.97,488.00 322.43,488.00 324.88,488.00 327.33,488.00 329.79,488.00 332.24,488.00 334.69,488.00 337.15,488.00 339.60,488.00 342.05,488.00 344.51,488.00 346.96,488.00 349.41,488.00 351.87,488.00 354.32,488.00 356.77,488.00 359.23,488.00 361.68,488.00 364.13,488.00 366.59,488.00 369.04,488.00 371.49,488.00 373.95,488.00 376.40,488.00 378.85,488.00 381.31,488.00 383.76,488.00 386.21,488.00 388.67,488.00 391.12,488.00 393.57,488.00 396.03,488.00 398.48,488.00 400.93,488.00 403.39,488.00 405.84,488.00 408.29,488.00 410.75,488.00 413.20,488.00 415.65,488.00 418.11,488.00 420.56,488.00 423.01,488.00 425.47,488.00 427.92,488.00 430.37,488.00 432.83,488.00 435.28,488.00 437.73,488.00 440.19,488.00 442.64,488.00 445.09,488.00 447.55,488.00 450.00,488.00 452.45,488.00 454.91,488.00 457.36,488.00 459.81,488.00 462.27,488.00 464.72,488.00 467.17,488.00 469.63,488.00 472.08,488.00 474.53,488.00 476.99,488.00 479.44,488.00 481.89,488.00 484.35,488.00 486.80,488.00 489.25,488.00 491.71,488.00 494.16,488.00 496.61,488.00 499.07,488.00 501.52,488.00 503.97,488.00 506.43,488.00 508.88,488.00 511.33,488.00 513.79,488.00 516.24,488.00 518.69,488.00 521.15,488.00 523.60,488.00 526.05,488.00 528.51,488.00 530.96,488.00 533.41,488.00 535.87,488.00 538.32,488.00 540.77,488.00 543.23,488.00 545.68,488.00 548.13,488.00 550.59,488.00 553.04,488.00 555.49,488.00 557.95,488.00 560.40,488.00 562.85,488.00 565.31,488.00 567.76,488.00 570.21,488.00 572.67,488.00 575.12,486.10 577.57,481.45 580.03,475.41 582.48,468.45 584.93,460.78 587.39,452.51 589.84,443.75 592.29,434.55 594.75,424.96 597.20,415.02 599.65,404.77 602.11,394.23 604.56,383.42 607.01,372.37 609.47,361.08 611.92,349.32 614.37,335.49 616.83,320.30 619.28,477.13 621.73,421.30 624.19,395.46 626.64,382.06 629.09,372.25 631.55,363.34 634.00,354.40 636.45,344.67 638.91,334.27 641.36,323.40 643.81,311.77 646.27,299.32 648.72,360.85 651.17,380.57 653.63,375.13 656.08,365.00 658.53,353.81 660.99,342.22 663.44,330.35 665.89,318.02 668.35,304.72 670.80,291.05 673.25,277.03 675.71,262.69 678.16,248.04 680.61,233.11 683.07,217.91 685.52,202.45 687.97,186.74 690.43,170.81 692.88,257.11 695.33,382.38 697.79,415.79 700.24,421.65 702.69,419.16 705.15,414.33 707.60,408.78 710.05,402.95 712.51,396.93 714.96,390.79 717.41,384.55 719.87,378.21 722.32,371.61 724.77,364.24 727.23,356.66 729.68,348.88 732.13,340.89 734.59,332.69 737.04,324.30 739.49,315.70 741.95,306.91 744.40,297.92 746.85,288.70 749.31,279.19 751.76,268.92 754.21,256.56 756.67,241.98 759.12,225.68 761.57,208.43 764.03,190.59 766.48,172.25 768.93,153.30 771.39,133.84 773.84,113.96 776.29,93.69 778.75,73.08 781.20,55.10 783.65,325.57 786.11,349.43 788.56,330.34 791.01,434.02 793.47,423.56 795.92,418.72 798.37,416.59 800.83,415.53 803.28,414.90 805.73,414.45 808.19,414.11 810.64,413.87 813.09,413.66 815.55,413.21 818.00,411.08" fill="none" stroke="#d1495b" stroke-width="3"/>
<polyline points="82.00,488.00 84.45,488.00 84.45,488.00 86.91,488.00 86.91,488.00 89.36,488.00 89.36,488.00 91.81,488.00 91.81,488.00 94.27,488.00 94.27,488.00 96.72,488.00 96.72,488.00 99.17,488.00 99.17,488.00 101.63,488.00 101.63,488.00 104.08,488.00 104.08,488.00 106.53,488.00 106.53,488.00 108.99,488.00 108.99,488.00 111.44,488.00 111.44,488.00 113.89,488.00 113.89,488.00 116.35,488.00 116.35,488.00 118.80,488.00 118.80,488.00 121.25,488.00 121.25,488.00 123.71,488.00 123.71,488.00 126.16,488.00 126.16,488.00 128.61,488.00 128.61,488.00 131.07,488.00 131.07,488.00 133.52,488.00 133.52,488.00 135.97,488.00 135.97,488.00 138.43,488.00 138.43,488.00 140.88,488.00 140.88,488.00 143.33,488.00 143.33,488.00 145.79,488.00 145.79,488.00 148.24,488.00 148.24,488.00 150.69,488.00 150.69,488.00 153.15,488.00 153.15,488.00 155.60,488.00 155.60,488.00 158.05,488.00 158.05,488.00 160.51,488.00 160.51,488.00 162.96,488.00 162.96,488.00 165.41,488.00 165.41,488.00 167.87,488.00 167.87,488.00 170.32,488.00 170.32,488.00 172.77,488.00 172.77,488.00 175.23,488.00 175.23,488.00 177.68,488.00 177.68,488.00 180.13,488.00 180.13,488.00 182.59,488.00 182.59,488.00 185.04,488.00 185.04,488.00 187.49,488.00 187.49,488.00 189.95,488.00 189.95,488.00 192.40,488.00 192.40,488.00 194.85,488.00 194.85,488.00 197.31,488.00 197.31,488.00 199.76,488.00 199.76,488.00 202.21,488.00 202.21,488.00 204.67,488.00 204.67,488.00 207.12,488.00 207.12,488.00 209.57,488.00 209.57,488.00 212.03,488.00 212.03,488.00 214.48,488.00 214.48,488.00 216.93,488.00 216.93,488.00 219.39,488.00 219.39,488.00 221.84,488.00 221.84,488.00 224.29,488.00 224.29,488.00 226.75,488.00 226.75,488.00 229.20,488.00 229.20,488.00 231.65,488.00 231.65,488.00 234.11,488.00 234.11,488.00 236.56,488.00 236.56,488.00 239.01,488.00 239.01,488.00 241.47,488.00 241.47,488.00 243.92,488.00 243.92,488.00 246.37,488.00 246.37,488.00 248.83,488.00 248.83,488.00 251.28,488.00 251.28,488.00 253.73,488.00 253.73,488.00 256.19,488.00 256.19,488.00 258.64,488.00 258.64,488.00 261.09,488.00 261.09,488.00 263.55,488.00 263.55,488.00 266.00,488.00 266.00,488.00 268.45,488.00 268.45,488.00 270.91,488.00 270.91,488.00 273.36,488.00 273.36,488.00 275.81,488.00 275.81,488.00 278.27,488.00 278.27,488.00 280.72,488.00 280.72,488.00 283.17,488.00 283.17,488.00 285.63,488.00 285.63,488.00 288.08,488.00 288.08,488.00 290.53,488.00 290.53,488.00 292.99,488.00 292.99,488.00 295.44,488.00 295.44,488.00 297.89,488.00 297.89,488.00 300.35,488.00 300.35,488.00 302.80,488.00 302.80,488.00 305.25,488.00 305.25,488.00 307.71,488.00 307.71,488.00 310.16,488.00 310.16,488.00 312.61,488.00 312.61,488.00 315.07,488.00 315.07,488.00 317.52,488.00 317.52,488.00 319.97,488.00 319.97,488.00 322.43,488.00 322.43,488.00 324.88,488.00 324.88,488.00 327.33,488.00 327.33,488.00 329.79,488.00 329.79,488.00 332.24,488.00 332.24,488.00 334.69,488.00 334.69,488.00 337.15,488.00 337.15,488.00 339.60,488.00 339.60,488.00 342.05,488.00 342.05,488.00 344.51,488.00 344.51,488.00 346.96,488.00 346.96,488.00 349.41,488.00 349.41,488.00 351.87,488.00 351.87,488.00 354.32,488.00 354.32,488.00 356.77,488.00 356.77,488.00 359.23,488.00 359.23,488.00 361.68,488.00 361.68,488.00 364.13,488.00 364.13,488.00 366.59,488.00 366.59,488.00 369.04,488.00 369.04,488.00 371.49,488.00 371.49,488.00 373.95,488.00 373.95,488.00 376.40,488.00 376.40,488.00 378.85,488.00 378.85,488.00 381.31,488.00 381.31,488.00 383.76,488.00 383.76,488.00 386.21,488.00 386.21,488.00 388.67,488.00 388.67,488.00 391.12,488.00 391.12,488.00 393.57,488.00 393.57,488.00 396.03,488.00 396.03,488.00 398.48,488.00 398.48,488.00 400.93,488.00 400.93,488.00 403.39,488.00 403.39,488.00 405.84,488.00 405.84,488.00 408.29,488.00 408.29,488.00 410.75,488.00 410.75,488.00 413.20,488.00 413.20,488.00 415.65,488.00 415.65,488.00 418.11,488.00 418.11,488.00 420.56,488.00 420.56,488.00 423.01,488.00 423.01,488.00 425.47,488.00 425.47,488.00 427.92,488.00 427.92,488.00 430.37,488.00 430.37,488.00 432.83,488.00 432.83,488.00 435.28,488.00 435.28,488.00 437.73,488.00 437.73,488.00 440.19,488.00 440.19,488.00 442.64,488.00 442.64,488.00 445.09,488.00 445.09,488.00 447.55,488.00 447.55,488.00 450.00,488.00 450.00,488.00 452.45,488.00 452.45,488.00 454.91,488.00 454.91,488.00 457.36,488.00 457.36,488.00 459.81,488.00 459.81,488.00 462.27,488.00 462.27,488.00 464.72,488.00 464.72,488.00 467.17,488.00 467.17,488.00 469.63,488.00 469.63,488.00 472.08,488.00 472.08,488.00 474.53,488.00 474.53,488.00 476.99,488.00 476.99,488.00 479.44,488.00 479.44,488.00 481.89,488.00 481.89,488.00 484.35,488.00 484.35,488.00 486.80,488.00 486.80,488.00 489.25,488.00 489.25,488.00 491.71,488.00 491.71,488.00 494.16,488.00 494.16,488.00 496.61,488.00 496.61,488.00 499.07,488.00 499.07,488.00 501.52,488.00 501.52,488.00 503.97,488.00 503.97,488.00 506.43,488.00 506.43,488.00 508.88,488.00 508.88,488.00 511.33,488.00 511.33,488.00 513.79,488.00 513.79,488.00 516.24,488.00 516.24,488.00 518.69,488.00 518.69,488.00 521.15,488.00 521.15,488.00 523.60,488.00 523.60,488.00 526.05,488.00 526.05,488.00 528.51,488.00 528.51,488.00 530.96,488.00 530.96,488.00 533.41,488.00 533.41,488.00 535.87,488.00 535.87,488.00 538.32,488.00 538.32,488.00 540.77,488.00 540.77,488.00 543.23,488.00 543.23,488.00 545.68,488.00 545.68,488.00 548.13,488.00 548.13,488.00 550.59,488.00 550.59,488.00 553.04,488.00 553.04,488.00 555.49,488.00 555.49,488.00 557.95,488.00 557.95,488.00 560.40,488.00 560.40,488.00 562.85,488.00 562.85,488.00 565.31,488.00 565.31,488.00 567.76,488.00 567.76,488.00 570.21,488.00 570.21,488.00 572.67,488.00 572.67,488.00 575.12,488.00 575.12,488.00 577.57,488.00 577.57,488.00 580.03,488.00 580.03,488.00 582.48,488.00 582.48,488.00 584.93,488.00 584.93,488.00 587.39,488.00 587.39,488.00 589.84,488.00 589.84,488.00 592.29,488.00 592.29,488.00 594.75,488.00 594.75,488.00 597.20,488.00 597.20,488.00 599.65,488.00 599.65,488.00 602.11,488.00 602.11,488.00 604.56,488.00 604.56,488.00 607.01,488.00 607.01,488.00 609.47,488.00 609.47,488.00 611.92,488.00 611.92,488.00 614.37,488.00 614.37,488.00 616.83,488.00 616.83,488.00 619.28,488.00 619.28,488.00 621.73,488.00 621.73,488.00 624.19,488.00 624.19,488.00 626.64,488.00 626.64,488.00 629.09,488.00 629.09,488.00 631.55,488.00 631.55,488.00 634.00,488.00 634.00,488.00 636.45,488.00 636.45,488.00 638.91,488.00 638.91,488.00 641.36,488.00 641.36,488.00 643.81,488.00 643.81,488.00 646.27,488.00 646.27,488.00 648.72,488.00 648.72,416.15 651.17,416.15 651.17,416.15 653.63,416.15 653.63,416.15 656.08,416.15 656.08,416.15 658.53,416.15 658.53,416.15 660.99,416.15 660.99,416.15 663.44,416.15 663.44,416.15 665.89,416.15 665.89,416.15 668.35,416.15 668.35,416.15 670.80,416.15 670.80,416.15 673.25,416.15 673.25,416.15 675.71,416.15 675.71,416.15 678.16,416.15 678.16,416.15 680.61,416.15 680.61,416.15 683.07,416.15 683.07,416.15 685.52,416.15 685.52,416.15 687.97,416.15 687.97,416.15 690.43,416.15 690.43,416.15 692.88,416.15 692.88,335.85 695.33,335.85 695.33,264.00 697.79,264.00 697.79,264.00 700.24,264.00 700.24,264.00 702.69,264.00 702.69,264.00 705.15,264.00 705.15,264.00 707.60,264.00 707.60,264.00 710.05,264.00 710.05,264.00 712.51,264.00 712.51,264.00 714.96,264.00 714.96,264.00 717.41,264.00 717.41,264.00 719.87,264.00 719.87,264.00 722.32,264.00 722.32,264.00 724.77,264.00 724.77,264.00 727.23,264.00 727.23,264.00 729.68,264.00 729.68,264.00 732.13,264.00 732.13,264.00 734.59,264.00 734.59,264.00 737.04,264.00 737.04,264.00 739.49,264.00 739.49,264.00 741.95,264.00 741.95,264.00 744.40,264.00 744.40,264.00 746.85,264.00 746.85,264.00 749.31,264.00 749.31,264.00 751.76,264.00 751.76,264.00 754.21,264.00 754.21,264.00 756.67,264.00 756.67,264.00 759.12,264.00 759.12,264.00 761.57,264.00 761.57,264.00 764.03,264.00 764.03,264.00 766.48,264.00 766.48,264.00 768.93,264.00 768.93,264.00 771.39,264.00 771.39,264.00 773.84,264.00 773.84,264.00 776.29,264.00 776.29,264.00 778.75,264.00 778.75,264.00 781.20,264.00 781.20,259.77 783.65,259.77 783.65,111.85 786.11,111.85 786.11,65.36 788.56,65.36 788.56,65.36 791.01,65.36 791.01,40.00 793.47,40.00 793.47,40.00 795.92,40.00 795.92,40.00 798.37,40.00 798.37,40.00 800.83,40.00 800.83,40.00 803.28,40.00 803.28,40.00 805.73,40.00 805.73,40.00 808.19,40.00 808.19,40.00 810.64,40.00 810.64,40.00 813.09,40.00 813.09,40.00 815.55,40.00 815.55,40.00 818.00,40.00 818.00,40.00" fill="none" stroke="#4b8f29" stroke-width="3"/>
<text x="450.0" y="552" text-anchor="middle" font-size="20" font-family="Arial, sans-serif" fill="#111827">Top displacement (mm)</text>
<text x="24" y="280.0" text-anchor="middle" transform="rotate(-90 24 280.0)" font-size="20" font-family="Arial, sans-serif" fill="#111827">Force magnitude (N)</text>
<text x="880" y="280.0" text-anchor="middle" transform="rotate(90 880 280.0)" font-size="20" font-family="Arial, sans-serif" fill="#111827">Broken bonds</text>
<text x="102" y="64" font-size="18" font-family="Arial, sans-serif" fill="#1b6ca8">Top plate</text>
<text x="212" y="64" font-size="18" font-family="Arial, sans-serif" fill="#d1495b">Bottom plate</text>
<text x="352" y="64" font-size="18" font-family="Arial, sans-serif" fill="#4b8f29">Broken bonds</text>
<text x="72" y="45" text-anchor="end" font-size="17" fill="#30363d">17.96</text>
<text x="72" y="488" text-anchor="end" font-size="17" fill="#30363d">0</text>
<text x="828" y="45" text-anchor="start" font-size="17" fill="#30363d">106</text>
<text x="828" y="488" text-anchor="start" font-size="17" fill="#30363d">0</text>
</svg>
