<svg xmlns="http://www.w3.org/2000/svg" width="900" height="560" viewBox="0 0 900 560">
<rect width="100%" height="100%" fill="white"/>
<text x="450.0" y="26" text-anchor="middle" font-size="22" font-family="Arial, sans-serif" fill="#111827">SP-002 force-displacement and bond breakage</text>
<line x1="82" y1="40.00" x2="818" y2="40.00" stroke="#d9dee2" stroke-width="1"/><line x1="82" y1="129.60" x2="818" y2="129.60" stroke="#d9dee2" stroke-width="1"/><line x1="82" y1="219.20" x2="818" y2="219.20" stroke="#d9dee2" stroke-width="1"/><line x1="82" y1="308.80" x2="818" y2="308.80" stroke="#d9dee2" stroke-width="1"/><line x1="82" y1="398.40" x2="818" y2="398.40" stroke="#d9dee2" stroke-width="1"/><line x1="82" y1="488.00" x2="818" y2="488.00" stroke="#d9dee2" stroke-width="1"/><line x1="82.00" y1="40" x2="82.00" y2="488" stroke="#edf0f2" stroke-width="1"/><text x="82.00" y="526" text-anchor="middle" font-size="18" fill="#30363d">0.000</text><line x1="229.20" y1="40" x2="229.20" y2="488" stroke="#edf0f2" stroke-width="1"/><text x="229.20" y="526" text-anchor="middle" font-size="18" fill="#30363d">0.060</text><line x1="376.40" y1="40" x2="376.40" y2="488" stroke="#edf0f2" stroke-width="1"/><text x="376.40" y="526" text-anchor="middle" font-size="18" fill="#30363d">0.120</text><line x1="523.60" y1="40" x2="523.60" y2="488" stroke="#edf0f2" stroke-width="1"/><text x="523.60" y="526" text-anchor="middle" font-size="18" fill="#30363d">0.180</text><line x1="670.80" y1="40" x2="670.80" y2="488" stroke="#edf0f2" stroke-width="1"/><text x="670.80" y="526" text-anchor="middle" font-size="18" fill="#30363d">0.240</text><line x1="818.00" y1="40" x2="818.00" y2="488" stroke="#edf0f2" stroke-width="1"/><text x="818.00" y="526" text-anchor="middle" font-size="18" fill="#30363d">0.300</text>
<line x1="82" y1="40" x2="82" y2="488" stroke="#111827" stroke-width="1.5"/>
<line x1="82" y1="488" x2="818" y2="488" stroke="#111827" stroke-width="1.5"/>
<line x1="818" y1="40" x2="818" y2="488" stroke="#111827" stroke-width="1.5"/>
<polyline points="82.00,488.00 83.23,488.00 84.45,488.00 85.68,488.00 86.91,488.00 88.13,488.00 89.36,488.00 90.59,488.00 91.81,488.00 93.04,488.00 94.27,488.00 95.49,488.00 96.72,488.00 97.95,488.00 99.17,488.00 100.40,488.00 101.63,488.00 102.85,488.00 104.08,488.00 105.31,488.00 106.53,488.00 107.76,488.00 108.99,488.00 110.21,488.00 111.44,488.00 112.67,488.00 113.89,488.00 115.12,488.00 116.35,488.00 117.57,488.00 118.80,488.00 120.03,488.00 121.25,488.00 122.48,488.00 123.71,488.00 124.93,488.00 126.16,488.00 127.39,488.00 128.61,488.00 129.84,488.00 131.07,488.00 132.29,488.00 133.52,488.00 134.75,488.00 135.97,488.00 137.20,488.00 138.43,488.00 139.65,488.00 140.88,488.00 142.11,488.00 143.33,488.00 144.56,488.00 145.79,488.00 147.01,488.00 148.24,488.00 149.47,488.00 150.69,488.00 151.92,488.00 153.15,488.00 154.37,488.00 155.60,488.00 156.83,488.00 158.05,488.00 159.28,488.00 160.51,488.00 161.73,488.00 162.96,488.00 164.19,488.00 165.41,488.00 166.64,488.00 167.87,488.00 169.09,488.00 170.32,488.00 171.55,488.00 172.77,488.00 174.00,488.00 175.23,488.00 176.45,488.00 177.68,488.00 178.91,488.00 180.13,488.00 181.36,488.00 182.59,488.00 183.81,488.00 185.04,488.00 186.27,488.00 187.49,488.00 188.72,488.00 189.95,488.00 191.17,488.00 192.40,488.00 193.63,488.00 194.85,488.00 196.08,488.00 197.31,488.00 198.53,488.00 199.76,488.00 200.99,488.00 202.21,488.00 203.44,488.00 204.67,488.00 205.89,488.00 207.12,488.00 208.35,488.00 209.57,488.00 210.80,488.00 212.03,488.00 213.25,488.00 214.48,488.00 215.71,488.00 216.93,488.00 218.16,488.00 219.39,488.00 220.61,488.00 221.84,488.00 223.07,488.00 224.29,488.00 225.52,488.00 226.75,488.00 227.97,488.00 229.20,488.00 230.43,488.00 231.65,488.00 232.88,488.00 234.11,488.00 235.33,488.00 236.56,488.00 237.79,488.00 239.01,488.00 240.24,488.00 241.47,488.00 242.69,488.00 243.92,488.00 245.15,488.00 246.37,488.00 247.60,488.00 248.83,488.00 250.05,488.00 251.28,488.00 252.51,488.00 253.73,488.00 254.96,488.00 256.19,488.00 257.41,488.00 258.64,488.00 259.87,488.00 261.09,488.00 262.32,488.00 263.55,488.00 264.77,488.00 266.00,488.00 267.23,488.00 268.45,488.00 269.68,488.00 270.91,488.00 272.13,488.00 273.36,488.00 274.59,488.00 275.81,488.00 277.04,488.00 278.27,488.00 279.49,488.00 280.72,488.00 281.95,488.00 283.17,488.00 284.40,488.00 285.63,488.00 286.85,488.00 288.08,488.00 289.31,488.00 290.53,488.00 291.76,488.00 292.99,488.00 294.21,488.00 295.44,488.00 296.67,488.00 297.89,488.00 299.12,488.00 300.35,488.00 301.57,488.00 302.80,488.00 304.03,488.00 305.25,488.00 306.48,488.00 307.71,488.00 308.93,488.00 310.16,488.00 311.39,488.00 312.61,488.00 313.84,488.00 315.07,488.00 316.29,488.00 317.52,488.00 318.75,488.00 319.97,488.00 321.20,488.00 322.43,488.00 323.65,488.00 324.88,488.00 326.11,488.00 327.33,488.00 328.56,485.38 329.79,481.26 331.01,476.40 332.24,471.04 333.47,465.29 334.69,459.24 335.92,452.91 337.15,446.36 338.37,439.60 339.60,433.08 340.83,429.20 342.05,487.96 343.28,487.96 344.51,485.93 345.73,482.09 346.96,477.58 348.19,472.64 349.41,466.87 350.64,458.21 351.87,448.23 353.09,437.38 354.32,425.85 355.55,413.78 356.77,452.35 358.00,445.19 359.23,438.03 360.45,430.51 361.68,422.73 362.91,417.80 364.13,443.18 365.36,447.49 366.59,444.32 367.81,439.13 369.04,433.27 370.27,427.13 371.49,420.81 372.72,425.16 373.95,435.85 375.17,431.65 376.40,424.80 377.63,417.33 378.85,415.82 380.08,424.37 381.31,423.68 382.53,419.76 383.76,431.02 384.99,437.97 386.21,438.64 387.44,436.87 388.67,434.03 389.89,430.70 391.12,427.11 392.35,435.92 393.57,449.16 394.80,456.70 396.03,461.18 397.25,463.91 398.48,465.62 399.71,466.71 400.93,467.38 402.16,467.80 403.39,468.06 404.61,468.22 405.84,468.31 407.07,468.37 408.29,468.39 409.52,468.40 410.75,468.37 411.97,468.34 413.20,468.23 414.43,467.56 415.65,466.24 416.88,464.44 418.11,462.29 419.33,459.91 420.56,457.38 421.79,454.77 423.01,452.10 424.24,449.40 425.47,446.70 426.69,443.99 427.92,441.31 429.15,438.64 430.37,436.01 431.60,433.40 432.83,430.83 434.05,428.30 435.28,425.82 436.51,423.37 437.73,420.72 438.96,416.94 440.19,412.27 441.41,407.39 442.64,402.02 443.87,395.46 445.09,388.02 446.32,379.75 447.55,370.41 448.77,448.23 450.00,441.96 451.23,436.21 452.45,427.13 453.68,417.90 454.91,408.79 456.13,399.87 457.36,391.08 458.59,382.33 459.81,373.55 461.04,364.70 462.27,428.83 463.49,416.53 464.72,407.36 465.95,397.45 467.17,386.66 468.40,375.23 469.63,363.33 470.85,351.07 472.08,338.50 473.31,327.68 474.53,450.88 475.76,444.02 476.99,437.47 478.21,432.63 479.44,428.41 480.67,424.41 481.89,420.61 483.12,417.13 484.35,413.86 485.57,410.52 486.80,407.29 488.03,404.07 489.25,399.72 490.48,395.15 491.71,390.42 492.93,385.57 494.16,380.71 495.39,375.67 496.61,370.16 497.84,364.43 499.07,356.20 500.29,347.12 501.52,337.77 502.75,328.34 503.97,318.78 505.20,309.28 506.43,299.78 507.65,290.35 508.88,281.12 510.11,272.02 511.33,263.14 512.56,281.90 513.79,284.06 515.01,280.76 516.24,276.98 517.47,272.14 518.69,263.61 519.92,290.79 521.15,294.84 522.37,288.06 523.60,278.27 524.83,266.39 526.05,300.24 527.28,337.33 528.51,358.54 529.73,360.28 530.96,359.27 532.19,357.25 533.41,355.13 534.64,350.79 535.87,349.94 537.09,348.97 538.32,344.27 539.55,336.16 540.77,326.45 542.00,315.85 543.23,340.31 544.45,343.72 545.68,337.55 546.91,377.82 548.13,388.32 549.36,389.56 550.59,386.98 551.81,381.09 553.04,372.51 554.27,370.70 555.49,385.93 556.72,380.51 557.95,374.18 559.17,366.73 560.40,371.04 561.63,370.99 562.85,366.59 564.08,358.40 565.31,348.58 566.53,337.81 567.76,325.97 568.99,312.79 570.21,298.70 571.44,284.29 572.67,300.61 573.89,286.79 575.12,272.56 576.35,257.91 577.57,265.48 578.80,260.08 580.03,244.97 581.25,265.42 582.48,299.27 583.71,323.36 584.93,358.27 586.16,353.14 587.39,347.71 588.61,341.55 589.84,334.92 591.07,327.81 592.29,320.37 593.52,312.35 594.75,303.93 595.97,295.32 597.20,285.63 598.43,274.59 599.65,262.17 600.88,248.87 602.11,234.84 603.33,220.21 604.56,205.15 605.79,230.16 607.01,226.42 608.24,224.34 609.47,218.30 610.69,210.12 611.92,211.40 613.15,212.00 614.37,210.56 615.60,288.82 616.83,268.54 618.05,262.44 619.28,255.73 620.51,246.25 621.73,234.89 622.96,222.36 624.19,234.09 625.41,222.71 626.64,216.74 627.87,209.40 629.09,225.51 630.32,279.37 631.55,302.55 632.77,310.42 634.00,337.93 635.23,331.26 636.45,323.62 637.68,315.96 638.91,308.22 640.13,300.27 641.36,292.37 642.59,284.43 643.81,316.47 645.04,307.07 646.27,300.15 647.49,290.40 648.72,280.08 649.95,269.89 651.17,394.03 652.40,400.17 653.63,402.17 654.85,404.82 656.08,407.13 657.31,409.38 658.53,415.45 659.76,415.60 660.99,411.87 662.21,406.53 663.44,399.09 664.67,391.53 665.89,383.83 667.12,375.98 668.35,367.58 669.57,358.91 670.80,350.08 672.03,341.15 673.25,332.15 674.48,323.22 675.71,314.86 676.93,306.45 678.16,298.12 679.39,348.38 680.61,331.96 681.84,325.69 683.07,320.17 684.29,315.74 685.52,379.75 686.75,382.42 687.97,378.61 689.20,373.18 690.43,366.83 691.65,359.79 692.88,352.53 694.11,345.10 695.33,337.30 696.56,328.75 697.79,320.19 699.01,311.46 700.24,302.49 701.47,292.98 702.69,282.94 703.92,272.52 705.15,261.69 706.37,250.69 707.60,239.53 708.83,228.97 710.05,218.17 711.28,205.95 712.51,244.35 713.73,221.83 714.96,211.72 716.19,201.17 717.41,195.08 718.64,205.48 719.87,205.19 721.09,204.60 722.32,203.05 723.55,201.30 724.77,198.51 726.00,195.24 727.23,190.93 728.45,185.64 729.68,179.45 730.91,221.93 732.13,239.22 733.36,288.92 734.59,275.78 735.81,264.38 737.04,253.36 738.27,242.15 739.49,229.98 740.72,216.68 741.95,203.05 743.17,187.41 744.40,171.67 745.63,203.95 746.85,237.28 748.08,226.48 749.31,215.86 750.53,203.11 751.76,189.00 752.99,174.36 754.21,158.99 755.44,143.20 756.67,127.04 757.89,112.60 759.12,95.90 760.35,79.10 761.57,61.79 762.80,165.34 764.03,137.21 765.25,120.38 766.48,104.50 767.71,97.65 768.93,84.95 770.16,68.58 771.39,52.09 772.61,83.13 773.84,69.69 775.07,55.06 776.29,40.00 777.52,71.20 778.75,81.57 779.97,87.21 781.20,121.72 782.43,146.98 783.65,157.88 784.88,164.68 786.11,167.72 787.33,167.72 788.56,165.52 789.79,161.15 791.01,154.86 792.24,163.91 793.47,274.85 794.69,274.09 795.92,275.99 797.15,275.15 798.37,275.28 799.60,275.83 800.83,276.49 802.05,276.29 803.28,276.99 804.51,277.95 805.73,313.55 806.96,319.75 808.19,323.80 809.41,322.22 810.64,314.28 811.87,305.46 813.09,297.74 814.32,289.64 815.55,282.54 816.77,317.99 818.00,308.81" fill="none" stroke="#1b6ca8" stroke-width="3"/>
<polyline points="82.00,488.00 83.23,488.00 84.45,488.00 85.68,488.00 86.91,488.00 88.13,488.00 89.36,488.00 90.59,488.00 91.81,488.00 93.04,488.00 94.27,488.00 95.49,488.00 96.72,488.00 97.95,488.00 99.17,488.00 100.40,488.00 101.63,488.00 102.85,488.00 104.08,488.00 105.31,488.00 106.53,488.00 107.76,488.00 108.99,488.00 110.21,488.00 111.44,488.00 112.67,488.00 113.89,488.00 115.12,488.00 116.35,488.00 117.57,488.00 118.80,488.00 120.03,488.00 121.25,488.00 122.48,488.00 123.71,488.00 124.93,488.00 126.16,488.00 127.39,488.00 128.61,488.00 129.84,488.00 131.07,488.00 132.29,488.00 133.52,488.00 134.75,488.00 135.97,488.00 137.20,488.00 138.43,488.00 139.65,488.00 140.88,488.00 142.11,488.00 143.33,488.00 144.56,488.00 145.79,488.00 147.01,488.00 148.24,488.00 149.47,488.00 150.69,488.00 151.92,488.00 153.15,488.00 154.37,488.00 155.60,488.00 156.83,488.00 158.05,488.00 159.28,488.00 160.51,488.00 161.73,488.00 162.96,488.00 164.19,488.00 165.41,488.00 166.64,488.00 167.87,488.00 169.09,488.00 170.32,488.00 171.55,488.00 172.77,488.00 174.00,488.00 175.23,488.00 176.45,488.00 177.68,488.00 178.91,488.00 180.13,488.00 181.36,488.00 182.59,488.00 183.81,488.00 185.04,488.00 186.27,488.00 187.49,488.00 188.72,488.00 189.95,488.00 191.17,488.00 192.40,488.00 193.63,488.00 194.85,488.00 196.08,488.00 197.31,488.00 198.53,488.00 199.76,488.00 200.99,488.00 202.21,488.00 203.44,488.00 204.67,488.00 205.89,488.00 207.12,488.00 208.35,488.00 209.57,488.00 210.80,488.00 212.03,488.00 213.25,488.00 214.48,488.00 215.71,488.00 216.93,488.00 218.16,488.00 219.39,488.00 220.61,488.00 221.84,488.00 223.07,488.00 224.29,488.00 225.52,488.00 226.75,488.00 227.97,488.00 229.20,488.00 230.43,488.00 231.65,488.00 232.88,488.00 234.11,488.00 235.33,488.00 236.56,488.00 237.79,488.00 239.01,488.00 240.24,488.00 241.47,488.00 242.69,488.00 243.92,488.00 245.15,488.00 246.37,488.00 247.60,488.00 248.83,488.00 250.05,488.00 251.28,488.00 252.51,488.00 253.73,488.00 254.96,488.00 256.19,488.00 257.41,488.00 258.64,488.00 259.87,488.00 261.09,488.00 262.32,488.00 263.55,488.00 264.77,488.00 266.00,488.00 267.23,488.00 268.45,488.00 269.68,488.00 270.91,488.00 272.13,488.00 273.36,488.00 274.59,488.00 275.81,488.00 277.04,488.00 278.27,488.00 279.49,488.00 280.72,488.00 281.95,488.00 283.17,488.00 284.40,488.00 285.63,488.00 286.85,488.00 288.08,488.00 289.31,488.00 290.53,488.00 291.76,488.00 292.99,488.00 294.21,488.00 295.44,488.00 296.67,488.00 297.89,488.00 299.12,488.00 300.35,488.00 301.57,488.00 302.80,488.00 304.03,488.00 305.25,488.00 306.48,488.00 307.71,488.00 308.93,488.00 310.16,488.00 311.39,488.00 312.61,488.00 313.84,488.00 315.07,488.00 316.29,488.00 317.52,488.00 318.75,488.00 319.97,488.00 321.20,488.00 322.43,488.00 323.65,488.00 324.88,488.00 326.11,488.00 327.33,488.00 328.56,486.50 329.79,482.89 331.01,478.31 332.24,473.14 333.47,467.54 334.69,461.60 335.92,455.37 337.15,448.91 338.37,442.23 339.60,435.46 340.83,431.42 342.05,480.47 343.28,487.47 344.51,486.92 345.73,483.66 346.96,479.40 348.19,474.61 349.41,469.35 350.64,461.71 351.87,452.24 353.09,441.73 354.32,430.46 355.55,418.61 356.77,450.37 358.00,447.62 359.23,440.86 360.45,433.51 361.68,425.87 362.91,419.70 364.13,469.39 365.36,459.44 366.59,452.44 367.81,446.37 369.04,440.38 370.27,434.29 371.49,428.05 372.72,474.44 373.95,451.83 375.17,440.13 376.40,431.92 377.63,424.26 378.85,464.06 380.08,450.85 381.31,440.22 382.53,432.53 383.76,468.76 384.99,462.05 386.21,457.03 387.44,452.77 388.67,448.84 389.89,445.04 391.12,441.25 392.35,488.00 393.57,488.00 394.80,488.00 396.03,488.00 397.25,488.00 398.48,488.00 399.71,488.00 400.93,488.00 402.16,488.00 403.39,488.00 404.61,488.00 405.84,488.00 407.07,488.00 408.29,488.00 409.52,488.00 410.75,488.00 411.97,488.00 413.20,487.22 414.43,485.02 415.65,482.49 416.88,479.87 418.11,477.25 419.33,474.64 420.56,472.04 421.79,469.44 423.01,466.84 424.24,464.26 425.47,461.69 426.69,459.14 427.92,456.61 429.15,454.11 430.37,451.65 431.60,449.22 432.83,446.84 434.05,444.50 435.28,442.20 436.51,439.99 437.73,435.66 438.96,429.79 440.19,424.44 441.41,419.55 442.64,412.84 443.87,405.13 445.09,396.65 446.32,387.52 447.55,377.86 448.77,368.10 450.00,415.59 451.23,423.11 452.45,423.72 453.68,420.51 454.91,415.10 456.13,408.38 457.36,400.90 458.59,392.95 459.81,384.69 461.04,376.21 462.27,433.35 463.49,428.59 464.72,418.38 465.95,407.10 467.17,395.45 468.40,383.59 469.63,371.50 470.85,359.14 472.08,346.52 473.31,335.20 474.53,383.09 475.76,434.47 476.99,439.43 478.21,437.73 479.44,434.34 480.67,430.57 481.89,426.75 483.12,423.14 484.35,419.78 485.57,416.53 486.80,413.27 488.03,410.21 489.25,406.34 490.48,401.90 491.71,397.09 492.93,392.12 494.16,387.10 495.39,382.02 496.61,376.37 497.84,370.48 499.07,363.45 500.29,354.72 501.52,345.26 502.75,335.52 503.97,325.69 505.20,315.86 506.43,306.10 507.65,296.44 508.88,286.92 510.11,277.56 511.33,268.41 512.56,304.41 513.79,290.61 515.01,286.31 516.24,282.64 517.47,278.79 518.69,271.39 519.92,321.28 521.15,306.73 522.37,298.05 523.60,288.97 524.83,277.93 526.05,399.33 527.28,374.71 528.51,373.56 529.73,371.51 530.96,369.52 532.19,367.02 533.41,364.61 534.64,361.12 535.87,358.00 537.09,356.37 538.32,353.37 539.55,346.91 540.77,338.04 542.00,327.85 543.23,373.93 544.45,361.99 545.68,351.66 546.91,414.53 548.13,411.97 549.36,408.44 550.59,403.09 551.81,393.65 553.04,383.59 554.27,378.91 555.49,391.46 556.72,388.06 557.95,382.19 559.17,375.06 560.40,388.61 561.63,386.50 562.85,379.34 564.08,369.97 565.31,359.59 566.53,348.52 567.76,336.66 568.99,323.30 570.21,309.26 571.44,294.81 572.67,308.72 573.89,296.60 575.12,282.72 576.35,268.19 577.57,296.98 578.80,271.10 580.03,255.30 581.25,305.99 582.48,320.01 583.71,353.94 584.93,369.36 586.16,366.98 587.39,361.74 588.61,355.89 589.84,349.21 591.07,342.12 592.29,334.63 593.52,326.45 594.75,318.04 595.97,309.23 597.20,298.71 598.43,287.39 599.65,274.84 600.88,261.40 602.11,247.34 603.33,232.76 604.56,217.73 605.79,243.84 607.01,238.19 608.24,236.06 609.47,229.09 610.69,221.82 611.92,226.17 613.15,225.50 614.37,224.28 615.60,248.79 616.83,276.71 618.05,274.20 619.28,267.89 620.51,258.56 621.73,247.30 622.96,234.80 624.19,235.45 625.41,237.34 626.64,232.24 627.87,224.67 629.09,258.30 630.32,267.53 631.55,289.80 632.77,310.51 634.00,322.99 635.23,324.36 636.45,321.39 637.68,316.45 638.91,310.59 640.13,304.10 641.36,297.18 642.59,289.87 643.81,313.90 645.04,311.71 646.27,306.60 647.49,299.71 648.72,291.75 649.95,283.01 651.17,358.84 652.40,389.87 653.63,402.03 654.85,407.25 656.08,410.59 657.31,421.32 658.53,431.29 659.76,426.63 660.99,421.17 662.21,414.93 663.44,407.87 664.67,400.20 665.89,392.40 667.12,384.38 668.35,376.12 669.57,367.51 670.80,358.56 672.03,349.24 673.25,339.92 674.48,330.65 675.71,321.78 676.93,313.07 678.16,304.47 679.39,319.28 680.61,332.23 681.84,328.86 683.07,323.81 684.29,318.92 685.52,394.85 686.75,398.54 687.97,393.60 689.20,387.25 690.43,380.69 691.65,373.78 692.88,366.50 694.11,359.11 695.33,351.46 696.56,342.96 697.79,333.97 699.01,324.88 700.24,315.55 701.47,305.39 702.69,294.96 703.92,284.30 705.15,273.44 706.37,262.36 707.60,251.11 708.83,240.56 710.05,230.26 711.28,217.97 712.51,227.80 713.73,233.82 714.96,224.56 716.19,214.40 717.41,209.06 718.64,219.36 719.87,220.15 721.09,220.24 722.32,219.83 723.55,217.66 724.77,214.88 726.00,211.02 727.23,206.00 728.45,200.07 729.68,193.46 730.91,290.05 732.13,256.23 733.36,278.47 734.59,283.92 735.81,274.51 737.04,262.93 738.27,251.22 739.49,239.70 740.72,226.62 741.95,212.34 743.17,197.49 744.40,249.85 745.63,223.47 746.85,234.61 748.08,234.42 749.31,225.56 750.53,214.49 751.76,201.45 752.99,187.11 754.21,170.98 755.44,155.88 756.67,139.72 757.89,125.27 759.12,108.62 760.35,91.88 761.57,74.74 762.80,152.76 764.03,149.70 765.25,133.58 766.48,121.17 767.71,119.02 768.93,100.99 770.16,83.38 771.39,66.43 772.61,97.07 773.84,83.85 775.07,69.55 776.29,54.59 777.52,56.33 778.75,87.31 779.97,97.81 781.20,139.30 782.43,154.97 783.65,166.55 784.88,173.52 786.11,176.90 787.33,176.79 788.56,175.17 789.79,171.88 791.01,166.51 792.24,183.06 793.47,230.26 794.69,273.23 795.92,285.61 797.15,288.66 798.37,289.63 799.60,290.59 800.83,291.66 802.05,292.56 803.28,293.23 804.51,294.00 805.73,316.05 806.96,324.92 808.19,328.36 809.41,327.90 810.64,324.87 811.87,318.38 813.09,310.67 814.32,302.30 815.55,294.89 816.77,326.82 818.00,319.59" fill="none" stroke="#d1495b" stroke-width="3"/>
<polyline points="82.00,488.00 83.23,488.00 83.23,488.00 84.45,488.00 84.45,488.00 85.68,488.00 85.68,488.00 86.91,488.00 86.91,488.00 88.13,488.00 88.13,488.00 89.36,488.00 89.36,488.00 90.59,488.00 90.59,488.00 91.81,488.00 91.81,488.00 93.04,488.00 93.04,488.00 94.27,488.00 94.27,488.00 95.49,488.00 95.49,488.00 96.72,488.00 96.72,488.00 97.95,488.00 97.95,488.00 99.17,488.00 99.17,488.00 100.40,488.00 100.40,488.00 101.63,488.00 101.63,488.00 102.85,488.00 102.85,488.00 104.08,488.00 104.08,488.00 105.31,488.00 105.31,488.00 106.53,488.00 106.53,488.00 107.76,488.00 107.76,488.00 108.99,488.00 108.99,488.00 110.21,488.00 110.21,488.00 111.44,488.00 111.44,488.00 112.67,488.00 112.67,488.00 113.89,488.00 113.89,488.00 115.12,488.00 115.12,488.00 116.35,488.00 116.35,488.00 117.57,488.00 117.57,488.00 118.80,488.00 118.80,488.00 120.03,488.00 120.03,488.00 121.25,488.00 121.25,488.00 122.48,488.00 122.48,488.00 123.71,488.00 123.71,488.00 124.93,488.00 124.93,488.00 126.16,488.00 126.16,488.00 127.39,488.00 127.39,488.00 128.61,488.00 128.61,488.00 129.84,488.00 129.84,488.00 131.07,488.00 131.07,488.00 132.29,488.00 132.29,488.00 133.52,488.00 133.52,488.00 134.75,488.00 134.75,488.00 135.97,488.00 135.97,488.00 137.20,488.00 137.20,488.00 138.43,488.00 138.43,488.00 139.65,488.00 139.65,488.00 140.88,488.00 140.88,488.00 142.11,488.00 142.11,488.00 143.33,488.00 143.33,488.00 144.56,488.00 144.56,488.00 145.79,488.00 145.79,488.00 147.01,488.00 147.01,488.00 148.24,488.00 148.24,488.00 149.47,488.00 149.47,488.00 150.69,488.00 150.69,488.00 151.92,488.00 151.92,488.00 153.15,488.00 153.15,488.00 154.37,488.00 154.37,488.00 155.60,488.00 155.60,488.00 156.83,488.00 156.83,488.00 158.05,488.00 158.05,488.00 159.28,488.00 159.28,488.00 160.51,488.00 160.51,488.00 161.73,488.00 161.73,488.00 162.96,488.00 162.96,488.00 164.19,488.00 164.19,488.00 165.41,488.00 165.41,488.00 166.64,488.00 166.64,488.00 167.87,488.00 167.87,488.00 169.09,488.00 169.09,488.00 170.32,488.00 170.32,488.00 171.55,488.00 171.55,488.00 172.77,488.00 172.77,488.00 174.00,488.00 174.00,488.00 175.23,488.00 175.23,488.00 176.45,488.00 176.45,488.00 177.68,488.00 177.68,488.00 178.91,488.00 178.91,488.00 180.13,488.00 180.13,488.00 181.36,488.00 181.36,488.00 182.59,488.00 182.59,488.00 183.81,488.00 183.81,488.00 185.04,488.00 185.04,488.00 186.27,488.00 186.27,488.00 187.49,488.00 187.49,488.00 188.72,488.00 188.72,488.00 189.95,488.00 189.95,488.00 191.17,488.00 191.17,488.00 192.40,488.00 192.40,488.00 193.63,488.00 193.63,488.00 194.85,488.00 194.85,488.00 196.08,488.00 196.08,488.00 197.31,488.00 197.31,488.00 198.53,488.00 198.53,488.00 199.76,488.00 199.76,488.00 200.99,488.00 200.99,488.00 202.21,488.00 202.21,488.00 203.44,488.00 203.44,488.00 204.67,488.00 204.67,488.00 205.89,488.00 205.89,488.00 207.12,488.00 207.12,488.00 208.35,488.00 208.35,488.00 209.57,488.00 209.57,488.00 210.80,488.00 210.80,488.00 212.03,488.00 212.03,488.00 213.25,488.00 213.25,488.00 214.48,488.00 214.48,488.00 215.71,488.00 215.71,488.00 216.93,488.00 216.93,488.00 218.16,488.00 218.16,488.00 219.39,488.00 219.39,488.00 220.61,488.00 220.61,488.00 221.84,488.00 221.84,488.00 223.07,488.00 223.07,488.00 224.29,488.00 224.29,488.00 225.52,488.00 225.52,488.00 226.75,488.00 226.75,488.00 227.97,488.00 227.97,488.00 229.20,488.00 229.20,488.00 230.43,488.00 230.43,488.00 231.65,488.00 231.65,488.00 232.88,488.00 232.88,488.00 234.11,488.00 234.11,488.00 235.33,488.00 235.33,488.00 236.56,488.00 236.56,488.00 237.79,488.00 237.79,488.00 239.01,488.00 239.01,488.00 240.24,488.00 240.24,488.00 241.47,488.00 241.47,488.00 242.69,488.00 242.69,488.00 243.92,488.00 243.92,488.00 245.15,488.00 245.15,488.00 246.37,488.00 246.37,488.00 247.60,488.00 247.60,488.00 248.83,488.00 248.83,488.00 250.05,488.00 250.05,488.00 251.28,488.00 251.28,488.00 252.51,488.00 252.51,488.00 253.73,488.00 253.73,488.00 254.96,488.00 254.96,488.00 256.19,488.00 256.19,488.00 257.41,488.00 257.41,488.00 258.64,488.00 258.64,488.00 259.87,488.00 259.87,488.00 261.09,488.00 261.09,488.00 262.32,488.00 262.32,488.00 263.55,488.00 263.55,488.00 264.77,488.00 264.77,488.00 266.00,488.00 266.00,488.00 267.23,488.00 267.23,488.00 268.45,488.00 268.45,488.00 269.68,488.00 269.68,488.00 270.91,488.00 270.91,488.00 272.13,488.00 272.13,488.00 273.36,488.00 273.36,488.00 274.59,488.00 274.59,488.00 275.81,488.00 275.81,488.00 277.04,488.00 277.04,488.00 278.27,488.00 278.27,488.00 279.49,488.00 279.49,488.00 280.72,488.00 280.72,488.00 281.95,488.00 281.95,488.00 283.17,488.00 283.17,488.00 284.40,488.00 284.40,488.00 285.63,488.00 285.63,488.00 286.85,488.00 286.85,488.00 288.08,488.00 288.08,488.00 289.31,488.00 289.31,488.00 290.53,488.00 290.53,488.00 291.76,488.00 291.76,488.00 292.99,488.00 292.99,488.00 294.21,488.00 294.21,488.00 295.44,488.00 295.44,488.00 296.67,488.00 296.67,488.00 297.89,488.00 297.89,488.00 299.12,488.00 299.12,488.00 300.35,488.00 300.35,488.00 301.57,488.00 301.57,488.00 302.80,488.00 302.80,488.00 304.03,488.00 304.03,488.00 305.25,488.00 305.25,488.00 306.48,488.00 306.48,488.00 307.71,488.00 307.71,488.00 308.93,488.00 308.93,488.00 310.16,488.00 310.16,488.00 311.39,488.00 311.39,488.00 312.61,488.00 312.61,488.00 313.84,488.00 313.84,488.00 315.07,488.00 315.07,488.00 316.29,488.00 316.29,488.00 317.52,488.00 317.52,488.00 318.75,488.00 318.75,488.00 319.97,488.00 319.97,488.00 321.20,488.00 321.20,488.00 322.43,488.00 322.43,488.00 323.65,488.00 323.65,488.00 324.88,488.00 324.88,488.00 326.11,488.00 326.11,488.00 327.33,488.00 327.33,488.00 328.56,488.00 328.56,488.00 329.79,488.00 329.79,488.00 331.01,488.00 331.01,488.00 332.24,488.00 332.24,488.00 333.47,488.00 333.47,488.00 334.69,488.00 334.69,488.00 335.92,488.00 335.92,488.00 337.15,488.00 337.15,488.00 338.37,488.00 338.37,488.00 339.60,488.00 339.60,487.39 340.83,487.39 340.83,486.78 342.05,486.78 342.05,480.68 343.28,480.68 343.28,480.68 344.51,480.68 344.51,480.68 345.73,480.68 345.73,480.68 346.96,480.68 346.96,480.68 348.19,480.68 348.19,480.68 349.41,480.68 349.41,480.68 350.64,480.68 350.64,480.68 351.87,480.68 351.87,480.68 353.09,480.68 353.09,480.68 354.32,480.68 354.32,480.68 355.55,480.68 355.55,480.68 356.77,480.68 356.77,473.35 358.00,473.35 358.00,473.35 359.23,473.35 359.23,473.35 360.45,473.35 360.45,473.35 361.68,473.35 361.68,472.13 362.91,472.13 362.91,466.64 364.13,466.64 364.13,461.75 365.36,461.75 365.36,461.75 366.59,461.75 366.59,461.75 367.81,461.75 367.81,461.75 369.04,461.75 369.04,461.75 370.27,461.75 370.27,461.75 371.49,461.75 371.49,461.75 372.72,461.75 372.72,455.04 373.95,455.04 373.95,455.04 375.17,455.04 375.17,455.04 376.40,455.04 376.40,455.04 377.63,455.04 377.63,455.04 378.85,455.04 378.85,455.04 380.08,455.04 380.08,455.04 381.31,455.04 381.31,455.04 382.53,455.04 382.53,455.04 383.76,455.04 383.76,449.55 384.99,449.55 384.99,449.55 386.21,449.55 386.21,449.55 387.44,449.55 387.44,449.55 388.67,449.55 388.67,449.55 389.89,449.55 389.89,449.55 391.12,449.55 391.12,449.55 392.35,449.55 392.35,442.22 393.57,442.22 393.57,442.22 394.80,442.22 394.80,442.22 396.03,442.22 396.03,442.22 397.25,442.22 397.25,442.22 398.48,442.22 398.48,442.22 399.71,442.22 399.71,442.22 400.93,442.22 400.93,442.22 402.16,442.22 402.16,442.22 403.39,442.22 403.39,442.22 404.61,442.22 404.61,442.22 405.84,442.22 405.84,442.22 407.07,442.22 407.07,442.22 408.29,442.22 408.29,442.22 409.52,442.22 409.52,442.22 410.75,442.22 410.75,442.22 411.97,442.22 411.97,442.22 413.20,442.22 413.20,442.22 414.43,442.22 414.43,442.22 415.65,442.22 415.65,442.22 416.88,442.22 416.88,442.22 418.11,442.22 418.11,442.22 419.33,442.22 419.33,442.22 420.56,442.22 420.56,442.22 421.79,442.22 421.79,442.22 423.01,442.22 423.01,442.22 424.24,442.22 424.24,442.22 425.47,442.22 425.47,442.22 426.69,442.22 426.69,442.22 427.92,442.22 427.92,442.22 429.15,442.22 429.15,442.22 430.37,442.22 430.37,442.22 431.60,442.22 431.60,442.22 432.83,442.22 432.83,442.22 434.05,442.22 434.05,442.22 435.28,442.22 435.28,442.22 436.51,442.22 436.51,442.22 437.73,442.22 437.73,442.22 438.96,442.22 438.96,442.22 440.19,442.22 440.19,442.22 441.41,442.22 441.41,442.22 442.64,442.22 442.64,442.22 443.87,442.22 443.87,442.22 445.09,442.22 445.09,442.22 446.32,442.22 446.32,442.22 447.55,442.22 447.55,442.22 448.77,442.22 448.77,433.07 450.00,433.07 450.00,433.07 451.23,433.07 451.23,433.07 452.45,433.07 452.45,433.07 453.68,433.07 453.68,433.07 454.91,433.07 454.91,433.07 456.13,433.07 456.13,433.07 457.36,433.07 457.36,433.07 458.59,433.07 458.59,433.07 459.81,433.07 459.81,433.07 461.04,433.07 461.04,433.07 462.27,433.07 462.27,414.15 463.49,414.15 463.49,414.15 464.72,414.15 464.72,414.15 465.95,414.15 465.95,414.15 467.17,414.15 467.17,414.15 468.40,414.15 468.40,414.15 469.63,414.15 469.63,414.15 470.85,414.15 470.85,414.15 472.08,414.15 472.08,414.15 473.31,414.15 473.31,413.54 474.53,413.54 474.53,398.89 475.76,398.89 475.76,398.89 476.99,398.89 476.99,398.89 478.21,398.89 478.21,398.89 479.44,398.89 479.44,398.89 480.67,398.89 480.67,398.89 481.89,398.89 481.89,398.89 483.12,398.89 483.12,398.89 484.35,398.89 484.35,398.89 485.57,398.89 485.57,398.89 486.80,398.89 486.80,398.89 488.03,398.89 488.03,398.89 489.25,398.89 489.25,398.89 490.48,398.89 490.48,398.89 491.71,398.89 491.71,398.89 492.93,398.89 492.93,398.89 494.16,398.89 494.16,398.89 495.39,398.89 495.39,398.89 496.61,398.89 496.61,398.89 497.84,398.89 497.84,398.89 499.07,398.89 499.07,398.89 500.29,398.89 500.29,398.89 501.52,398.89 501.52,398.89 502.75,398.89 502.75,398.89 503.97,398.89 503.97,398.89 505.20,398.89 505.20,398.89 506.43,398.89 506.43,398.89 507.65,398.89 507.65,398.89 508.88,398.89 508.88,398.89 510.11,398.89 510.11,398.89 511.33,398.89 511.33,398.89 512.56,398.89 512.56,390.34 513.79,390.34 513.79,390.34 515.01,390.34 515.01,390.34 516.24,390.34 516.24,390.34 517.47,390.34 517.47,390.34 518.69,390.34 518.69,390.34 519.92,390.34 519.92,381.80 521.15,381.80 521.15,381.80 522.37,381.80 522.37,381.80 523.60,381.80 523.60,381.80 524.83,381.80 524.83,381.80 526.05,381.80 526.05,370.81 527.28,370.81 527.28,369.59 528.51,369.59 528.51,366.54 529.73,366.54 529.73,366.54 530.96,366.54 530.96,366.54 532.19,366.54 532.19,366.54 533.41,366.54 533.41,365.93 534.64,365.93 534.64,365.93 535.87,365.93 535.87,365.93 537.09,365.93 537.09,365.93 538.32,365.93 538.32,365.93 539.55,365.93 539.55,365.93 540.77,365.93 540.77,365.93 542.00,365.93 542.00,365.93 543.23,365.93 543.23,358.60 544.45,358.60 544.45,358.60 545.68,358.60 545.68,358.60 546.91,358.60 546.91,349.45 548.13,349.45 548.13,349.45 549.36,349.45 549.36,349.45 550.59,349.45 550.59,349.45 551.81,349.45 551.81,349.45 553.04,349.45 553.04,349.45 554.27,349.45 554.27,347.62 555.49,347.62 555.49,343.35 556.72,343.35 556.72,343.35 557.95,343.35 557.95,343.35 559.17,343.35 559.17,343.35 560.40,343.35 560.40,340.29 561.63,340.29 561.63,339.68 562.85,339.68 562.85,339.68 564.08,339.68 564.08,339.68 565.31,339.68 565.31,339.68 566.53,339.68 566.53,339.68 567.76,339.68 567.76,339.68 568.99,339.68 568.99,339.68 570.21,339.68 570.21,339.68 571.44,339.68 571.44,339.68 572.67,339.68 572.67,332.36 573.89,332.36 573.89,332.36 575.12,332.36 575.12,332.36 576.35,332.36 576.35,332.36 577.57,332.36 577.57,324.43 578.80,324.43 578.80,324.43 580.03,324.43 580.03,324.43 581.25,324.43 581.25,316.49 582.48,316.49 582.48,305.50 583.71,305.50 583.71,298.18 584.93,298.18 584.93,290.25 586.16,290.25 586.16,290.25 587.39,290.25 587.39,290.25 588.61,290.25 588.61,290.25 589.84,290.25 589.84,290.25 591.07,290.25 591.07,290.25 592.29,290.25 592.29,290.25 593.52,290.25 593.52,290.25 594.75,290.25 594.75,290.25 595.97,290.25 595.97,290.25 597.20,290.25 597.20,290.25 598.43,290.25 598.43,290.25 599.65,290.25 599.65,290.25 600.88,290.25 600.88,290.25 602.11,290.25 602.11,290.25 603.33,290.25 603.33,290.25 604.56,290.25 604.56,290.25 605.79,290.25 605.79,281.09 607.01,281.09 607.01,281.09 608.24,281.09 608.24,281.09 609.47,281.09 609.47,281.09 610.69,281.09 610.69,280.48 611.92,280.48 611.92,277.43 613.15,277.43 613.15,276.21 614.37,276.21 614.37,276.21 615.60,276.21 615.60,266.44 616.83,266.44 616.83,266.44 618.05,266.44 618.05,266.44 619.28,266.44 619.28,266.44 620.51,266.44 620.51,266.44 621.73,266.44 621.73,266.44 622.96,266.44 622.96,266.44 624.19,266.44 624.19,257.90 625.41,257.90 625.41,257.29 626.64,257.29 626.64,256.68 627.87,256.68 627.87,256.68 629.09,256.68 629.09,248.13 630.32,248.13 630.32,239.59 631.55,239.59 631.55,233.48 632.77,233.48 632.77,233.48 634.00,233.48 634.00,233.48 635.23,233.48 635.23,233.48 636.45,233.48 636.45,233.48 637.68,233.48 637.68,233.48 638.91,233.48 638.91,233.48 640.13,233.48 640.13,233.48 641.36,233.48 641.36,233.48 642.59,233.48 642.59,233.48 643.81,233.48 643.81,224.94 645.04,224.94 645.04,224.94 646.27,224.94 646.27,224.94 647.49,224.94 647.49,224.94 648.72,224.94 648.72,224.94 649.95,224.94 649.95,224.94 651.17,224.94 651.17,207.85 652.40,207.85 652.40,207.85 653.63,207.85 653.63,207.85 654.85,207.85 654.85,207.85 656.08,207.85 656.08,207.85 657.31,207.85 657.31,207.85 658.53,207.85 658.53,207.85 659.76,207.85 659.76,207.85 660.99,207.85 660.99,207.85 662.21,207.85 662.21,207.85 663.44,207.85 663.44,207.85 664.67,207.85 664.67,207.85 665.89,207.85 665.89,207.85 667.12,207.85 667.12,207.85 668.35,207.85 668.35,207.85 669.57,207.85 669.57,207.85 670.80,207.85 670.80,207.85 672.03,207.85 672.03,207.85 673.25,207.85 673.25,207.85 674.48,207.85 674.48,207.85 675.71,207.85 675.71,207.85 676.93,207.85 676.93,207.85 678.16,207.85 678.16,207.85 679.39,207.85 679.39,199.30 680.61,199.30 680.61,199.30 681.84,199.30 681.84,199.30 683.07,199.30 683.07,199.30 684.29,199.30 684.29,198.69 685.52,198.69 685.52,183.43 686.75,183.43 686.75,183.43 687.97,183.43 687.97,183.43 689.20,183.43 689.20,183.43 690.43,183.43 690.43,183.43 691.65,183.43 691.65,183.43 692.88,183.43 692.88,183.43 694.11,183.43 694.11,183.43 695.33,183.43 695.33,183.43 696.56,183.43 696.56,183.43 697.79,183.43 697.79,183.43 699.01,183.43 699.01,183.43 700.24,183.43 700.24,183.43 701.47,183.43 701.47,183.43 702.69,183.43 702.69,183.43 703.92,183.43 703.92,183.43 705.15,183.43 705.15,183.43 706.37,183.43 706.37,183.43 707.60,183.43 707.60,183.43 708.83,183.43 708.83,182.82 710.05,182.82 710.05,182.21 711.28,182.21 711.28,182.21 712.51,182.21 712.51,173.06 713.73,173.06 713.73,173.06 714.96,173.06 714.96,173.06 716.19,173.06 716.19,173.06 717.41,173.06 717.41,171.84 718.64,171.84 718.64,168.17 719.87,168.17 719.87,168.17 721.09,168.17 721.09,168.17 722.32,168.17 722.32,167.56 723.55,167.56 723.55,166.95 724.77,166.95 724.77,166.95 726.00,166.95 726.00,166.95 727.23,166.95 727.23,166.95 728.45,166.95 728.45,166.95 729.68,166.95 729.68,166.95 730.91,166.95 730.91,154.75 732.13,154.75 732.13,154.75 733.36,154.75 733.36,146.81 734.59,146.81 734.59,146.81 735.81,146.81 735.81,146.81 737.04,146.81 737.04,146.81 738.27,146.81 738.27,146.20 739.49,146.20 739.49,146.20 740.72,146.20 740.72,146.20 741.95,146.20 741.95,146.20 743.17,146.20 743.17,146.20 744.40,146.20 744.40,136.44 745.63,136.44 745.63,136.44 746.85,136.44 746.85,129.11 748.08,129.11 748.08,129.11 749.31,129.11 749.31,129.11 750.53,129.11 750.53,129.11 751.76,129.11 751.76,129.11 752.99,129.11 752.99,129.11 754.21,129.11 754.21,129.11 755.44,129.11 755.44,129.11 756.67,129.11 756.67,129.11 757.89,129.11 757.89,126.67 759.12,126.67 759.12,126.67 760.35,126.67 760.35,126.67 761.57,126.67 761.57,126.67 762.80,126.67 762.80,104.09 764.03,104.09 764.03,104.09 765.25,104.09 765.25,104.09 766.48,104.09 766.48,104.09 767.71,104.09 767.71,104.09 768.93,104.09 768.93,104.09 770.16,104.09 770.16,104.09 771.39,104.09 771.39,104.09 772.61,104.09 772.61,95.54 773.84,95.54 773.84,95.54 775.07,95.54 775.07,95.54 776.29,95.54 776.29,95.54 777.52,95.54 777.52,88.83 778.75,88.83 778.75,78.45 779.97,78.45 779.97,78.45 781.20,78.45 781.20,71.74 782.43,71.74 782.43,71.74 783.65,71.74 783.65,71.74 784.88,71.74 784.88,71.74 786.11,71.74 786.11,71.74 787.33,71.74 787.33,71.74 788.56,71.74 788.56,71.74 789.79,71.74 789.79,71.74 791.01,71.74 791.01,71.74 792.24,71.74 792.24,66.86 793.47,66.86 793.47,53.43 794.69,53.43 794.69,53.43 795.92,53.43 795.92,53.43 797.15,53.43 797.15,53.43 798.37,53.43 798.37,53.43 799.60,53.43 799.60,53.43 800.83,53.43 800.83,53.43 802.05,53.43 802.05,53.43 803.28,53.43 803.28,53.43 804.51,53.43 804.51,53.43 805.73,53.43 805.73,47.93 806.96,47.93 806.96,47.93 808.19,47.93 808.19,47.93 809.41,47.93 809.41,47.93 810.64,47.93 810.64,47.93 811.87,47.93 811.87,47.93 813.09,47.93 813.09,47.93 814.32,47.93 814.32,47.93 815.55,47.93 815.55,47.32 816.77,47.32 816.77,40.00 818.00,40.00 818.00,40.00" fill="none" stroke="#4b8f29" stroke-width="3"/>
<text x="450.0" y="552" text-anchor="middle" font-size="20" font-family="Arial, sans-serif" fill="#111827">Top displacement (mm)</text>
<text x="24" y="280.0" text-anchor="middle" transform="rotate(-90 24 280.0)" font-size="20" font-family="Arial, sans-serif" fill="#111827">Force magnitude (N)</text>
<text x="880" y="280.0" text-anchor="middle" transform="rotate(90 880 280.0)" font-size="20" font-family="Arial, sans-serif" fill="#111827">Broken bonds</text>
<text x="102" y="64" font-size="18" font-family="Arial, sans-serif" fill="#1b6ca8">Top plate</text>
<text x="212" y="64" font-size="18" font-family="Arial, sans-serif" fill="#d1495b">Bottom plate</text>
<text x="352" y="64" font-size="18" font-family="Arial, sans-serif" fill="#4b8f29">Broken bonds</text>
<text x="72" y="45" text-anchor="end" font-size="17" fill="#30363d">20.60</text>
<text x="72" y="488" text-anchor="end" font-size="17" fill="#30363d">0</text>
<text x="828" y="45" text-anchor="start" font-size="17" fill="#30363d">734</text>
<text x="828" y="488" text-anchor="start" font-size="17" fill="#30363d">0</text>
</svg>
