<svg xmlns="http://www.w3.org/2000/svg" width="900" height="560" viewBox="0 0 900 560">
<rect width="100%" height="100%" fill="white"/>
<text x="450.0" y="26" text-anchor="middle" font-size="22" font-family="Arial, sans-serif" fill="#111827">SP-002 force-displacement and bond breakage</text>
<line x1="82" y1="40.00" x2="818" y2="40.00" stroke="#d9dee2" stroke-width="1"/><line x1="82" y1="129.60" x2="818" y2="129.60" stroke="#d9dee2" stroke-width="1"/><line x1="82" y1="219.20" x2="818" y2="219.20" stroke="#d9dee2" stroke-width="1"/><line x1="82" y1="308.80" x2="818" y2="308.80" stroke="#d9dee2" stroke-width="1"/><line x1="82" y1="398.40" x2="818" y2="398.40" stroke="#d9dee2" stroke-width="1"/><line x1="82" y1="488.00" x2="818" y2="488.00" stroke="#d9dee2" stroke-width="1"/><line x1="82.00" y1="40" x2="82.00" y2="488" stroke="#edf0f2" stroke-width="1"/><text x="82.00" y="526" text-anchor="middle" font-size="18" fill="#30363d">0.000</text><line x1="229.20" y1="40" x2="229.20" y2="488" stroke="#edf0f2" stroke-width="1"/><text x="229.20" y="526" text-anchor="middle" font-size="18" fill="#30363d">0.060</text><line x1="376.40" y1="40" x2="376.40" y2="488" stroke="#edf0f2" stroke-width="1"/><text x="376.40" y="526" text-anchor="middle" font-size="18" fill="#30363d">0.120</text><line x1="523.60" y1="40" x2="523.60" y2="488" stroke="#edf0f2" stroke-width="1"/><text x="523.60" y="526" text-anchor="middle" font-size="18" fill="#30363d">0.180</text><line x1="670.80" y1="40" x2="670.80" y2="488" stroke="#edf0f2" stroke-width="1"/><text x="670.80" y="526" text-anchor="middle" font-size="18" fill="#30363d">0.240</text><line x1="818.00" y1="40" x2="818.00" y2="488" stroke="#edf0f2" stroke-width="1"/><text x="818.00" y="526" text-anchor="middle" font-size="18" fill="#30363d">0.300</text>
<line x1="82" y1="40" x2="82" y2="488" stroke="#111827" stroke-width="1.5"/>
<line x1="82" y1="488" x2="818" y2="488" stroke="#111827" stroke-width="1.5"/>
<line x1="818" y1="40" x2="818" y2="488" stroke="#111827" stroke-width="1.5"/>
<polyline points="82.00,488.00 83.23,488.00 84.45,488.00 85.68,488.00 86.91,488.00 88.13,488.00 89.36,488.00 90.59,488.00 91.81,488.00 93.04,488.00 94.27,488.00 95.49,488.00 96.72,488.00 97.95,488.00 99.17,488.00 100.40,488.00 101.63,488.00 102.85,488.00 104.08,488.00 105.31,488.00 106.53,488.00 107.76,488.00 108.99,488.00 110.21,488.00 111.44,488.00 112.67,488.00 113.89,488.00 115.12,488.00 116.35,488.00 117.57,488.00 118.80,488.00 120.03,488.00 121.25,488.00 122.48,488.00 123.71,488.00 124.93,488.00 126.16,488.00 127.39,488.00 128.61,488.00 129.84,488.00 131.07,488.00 132.29,488.00 133.52,488.00 134.75,488.00 135.97,488.00 137.20,488.00 138.43,488.00 139.65,488.00 140.88,488.00 142.11,488.00 143.33,488.00 144.56,488.00 145.79,488.00 147.01,488.00 148.24,488.00 149.47,488.00 150.69,488.00 151.92,488.00 153.15,488.00 154.37,488.00 155.60,488.00 156.83,488.00 158.05,488.00 159.28,488.00 160.51,488.00 161.73,488.00 162.96,488.00 164.19,488.00 165.41,488.00 166.64,488.00 167.87,488.00 169.09,488.00 170.32,488.00 171.55,488.00 172.77,488.00 174.00,488.00 175.23,488.00 176.45,488.00 177.68,488.00 178.91,488.00 180.13,488.00 181.36,488.00 182.59,488.00 183.81,488.00 185.04,488.00 186.27,488.00 187.49,488.00 188.72,488.00 189.95,488.00 191.17,488.00 192.40,488.00 193.63,488.00 194.85,488.00 196.08,488.00 197.31,488.00 198.53,488.00 199.76,488.00 200.99,488.00 202.21,488.00 203.44,488.00 204.67,488.00 205.89,488.00 207.12,488.00 208.35,488.00 209.57,488.00 210.80,488.00 212.03,488.00 213.25,488.00 214.48,488.00 215.71,488.00 216.93,488.00 218.16,488.00 219.39,488.00 220.61,488.00 221.84,488.00 223.07,488.00 224.29,488.00 225.52,488.00 226.75,488.00 227.97,488.00 229.20,488.00 230.43,488.00 231.65,488.00 232.88,488.00 234.11,488.00 235.33,488.00 236.56,488.00 237.79,488.00 239.01,488.00 240.24,488.00 241.47,488.00 242.69,488.00 243.92,488.00 245.15,488.00 246.37,488.00 247.60,488.00 248.83,488.00 250.05,488.00 251.28,488.00 252.51,488.00 253.73,488.00 254.96,488.00 256.19,488.00 257.41,488.00 258.64,488.00 259.87,488.00 261.09,488.00 262.32,488.00 263.55,488.00 264.77,488.00 266.00,488.00 267.23,488.00 268.45,488.00 269.68,488.00 270.91,488.00 272.13,488.00 273.36,488.00 274.59,488.00 275.81,488.00 277.04,488.00 278.27,488.00 279.49,488.00 280.72,488.00 281.95,488.00 283.17,488.00 284.40,488.00 285.63,488.00 286.85,488.00 288.08,488.00 289.31,488.00 290.53,488.00 291.76,488.00 292.99,488.00 294.21,488.00 295.44,488.00 296.67,488.00 297.89,488.00 299.12,488.00 300.35,488.00 301.57,488.00 302.80,488.00 304.03,488.00 305.25,488.00 306.48,488.00 307.71,488.00 308.93,488.00 310.16,488.00 311.39,488.00 312.61,488.00 313.84,488.00 315.07,488.00 316.29,488.00 317.52,488.00 318.75,488.00 319.97,488.00 321.20,488.00 322.43,488.00 323.65,488.00 324.88,488.00 326.11,488.00 327.33,487.99 328.56,482.39 329.79,473.52 331.01,463.02 332.24,451.36 333.47,438.76 334.69,425.81 335.92,419.02 337.15,446.23 338.37,456.37 339.60,461.14 340.83,463.60 342.05,464.45 343.28,462.02 344.51,457.23 345.73,451.43 346.96,445.18 348.19,438.48 349.41,431.50 350.64,424.06 351.87,415.81 353.09,406.85 354.32,397.06 355.55,386.50 356.77,375.39 358.00,363.85 359.23,351.96 360.45,339.78 361.68,343.54 362.91,373.70 364.13,380.56 365.36,378.74 366.59,373.50 367.81,366.94 369.04,359.76 370.27,352.25 371.49,344.57 372.72,336.80 373.95,328.97 375.17,321.07 376.40,312.95 377.63,481.62 378.85,448.87 380.08,422.83 381.31,407.69 382.53,396.85 383.76,388.09 384.99,380.32 386.21,373.00 387.44,365.93 388.67,359.06 389.89,351.46 391.12,343.14 392.35,334.07 393.57,324.41 394.80,314.25 396.03,303.68 397.25,292.75 398.48,281.51 399.71,269.99 400.93,258.23 402.16,246.27 403.39,234.05 404.61,221.31 405.84,208.13 407.07,251.84 408.29,310.92 409.52,319.07 410.75,313.60 411.97,304.02 413.20,293.06 414.43,281.55 415.65,334.61 416.88,377.41 418.11,392.13 419.33,396.95 420.56,397.58 421.79,396.25 423.01,393.86 424.24,390.63 425.47,386.89 426.69,382.89 427.92,378.79 429.15,374.71 430.37,370.70 431.60,366.80 432.83,363.04 434.05,359.43 435.28,356.01 436.51,352.80 437.73,349.79 438.96,346.97 440.19,344.35 441.41,341.93 442.64,339.73 443.87,337.73 445.09,335.98 446.32,334.44 447.55,333.10 448.77,331.98 450.00,330.98 451.23,329.74 452.45,328.21 453.68,325.69 454.91,320.77 456.13,313.49 457.36,304.47 458.59,294.09 459.81,282.60 461.04,443.23 462.27,403.20 463.49,384.88 464.72,375.06 465.95,369.98 467.17,365.80 468.40,358.03 469.63,347.82 470.85,336.10 472.08,323.24 473.31,309.54 474.53,295.45 475.76,281.13 476.99,434.99 478.21,419.53 479.44,406.50 480.67,393.07 481.89,380.67 483.12,368.22 484.35,355.28 485.57,341.74 486.80,327.55 488.03,312.92 489.25,298.03 490.48,282.97 491.71,268.03 492.93,253.52 494.16,238.45 495.39,221.48 496.61,203.99 497.84,185.96 499.07,167.44 500.29,148.49 501.52,206.83 502.75,163.11 503.97,139.77 505.20,117.70 506.43,95.45 507.65,73.58 508.88,98.61 510.11,207.16 511.33,308.59 512.56,334.06 513.79,338.55 515.01,333.74 516.24,325.35 517.47,312.93 518.69,299.17 519.92,285.22 521.15,271.01 522.37,256.41 523.60,241.36 524.83,225.82 526.05,209.64 527.28,191.73 528.51,172.96 529.73,153.52 530.96,133.54 532.19,113.06 533.41,123.36 534.64,118.06 535.87,100.83 537.09,81.53 538.32,61.15 539.55,40.00 540.77,100.40 542.00,106.82 543.23,100.75 544.45,145.62 545.68,180.69 546.91,203.50 548.13,223.15 549.36,240.84 550.59,258.34 551.81,276.67 553.04,292.22 554.27,304.84 555.49,314.95 556.72,321.93 557.95,326.16 559.17,328.56 560.40,328.32 561.63,325.00 562.85,320.11 564.08,313.73 565.31,306.08 566.53,304.48 567.76,299.07 568.99,314.51 570.21,306.22 571.44,299.37 572.67,292.48 573.89,285.20 575.12,284.18 576.35,289.82 577.57,290.46 578.80,288.32 580.03,282.86 581.25,275.12 582.48,266.04 583.71,337.87 584.93,335.36 586.16,324.12 587.39,312.22 588.61,300.09 589.84,287.72 591.07,275.13 592.29,332.00 593.52,358.77 594.75,387.97 595.97,390.83 597.20,388.13 598.43,384.10 599.65,379.26 600.88,373.79 602.11,367.70 603.33,361.04 604.56,353.94 605.79,346.50 607.01,338.81 608.24,328.71 609.47,317.42 610.69,305.62 611.92,293.44 613.15,280.90 614.37,268.06 615.60,295.96 616.83,337.65 618.05,333.31 619.28,321.65 620.51,308.23 621.73,293.87 622.96,278.85 624.19,263.79 625.41,307.03 626.64,357.93 627.87,375.34 629.09,389.98 630.32,401.95 631.55,410.16 632.77,416.21 634.00,420.87 635.23,425.86 636.45,428.98 637.68,429.49 638.91,429.22 640.13,428.77 641.36,428.02 642.59,427.00 643.81,425.30 645.04,422.60 646.27,419.04 647.49,414.38 648.72,408.91 649.95,402.83 651.17,396.41 652.40,389.75 653.63,382.81 654.85,375.59 656.08,368.20 657.31,360.79 658.53,353.15 659.76,345.33 660.99,337.38 662.21,329.34 663.44,321.25 664.67,418.15 665.89,400.69 667.12,395.30 668.35,392.33 669.57,389.69 670.80,386.93 672.03,385.17 673.25,384.43 674.48,384.62 675.71,385.49 676.93,386.88 678.16,388.47 679.39,390.17 680.61,392.10 681.84,394.23 683.07,396.52 684.29,398.92 685.52,401.03 686.75,403.45 687.97,405.91 689.20,407.47 690.43,408.64 691.65,409.32 692.88,409.58 694.11,409.37 695.33,409.23 696.56,409.08 697.79,408.80 699.01,408.56 700.24,408.21 701.47,403.89 702.69,398.97 703.92,395.07 705.15,391.34 706.37,387.30 707.60,382.85 708.83,377.96 710.05,372.30 711.28,365.57 712.51,358.08 713.73,349.97 714.96,341.27 716.19,332.28 717.41,323.07 718.64,313.62 719.87,303.95 721.09,294.09 722.32,284.07 723.55,273.88 724.77,263.60 726.00,253.20 727.23,242.60 728.45,230.40 729.68,216.86 730.91,202.52 732.13,186.91 733.36,295.99 734.59,285.51 735.81,285.23 737.04,287.05 738.27,287.22 739.49,285.98 740.72,284.80 741.95,283.78 743.17,282.87 744.40,281.94 745.63,280.88 746.85,279.64 748.08,278.20 749.31,276.49 750.53,274.48 751.76,272.20 752.99,269.70 754.21,266.97 755.44,263.95 756.67,260.75 757.89,257.05 759.12,252.47 760.35,247.76 761.57,243.11 762.80,278.04 764.03,285.31 765.25,290.43 766.48,293.62 767.71,294.93 768.93,294.41 770.16,292.02 771.39,288.70 772.61,284.29 773.84,279.20 775.07,273.46 776.29,265.62 777.52,256.96 778.75,246.80 779.97,236.41 781.20,225.67 782.43,213.92 783.65,200.81 784.88,186.66 786.11,173.67 787.33,199.87 788.56,216.22 789.79,205.29 791.01,189.55 792.24,172.66 793.47,153.93 794.69,248.06 795.92,269.36 797.15,302.74 798.37,320.73 799.60,316.04 800.83,318.40 802.05,310.78 803.28,298.53 804.51,285.23 805.73,271.46 806.96,257.31 808.19,242.84 809.41,228.11 810.64,213.12 811.87,197.92 813.09,182.49 814.32,217.17 815.55,279.73 816.77,298.05 818.00,302.35" fill="none" stroke="#1b6ca8" stroke-width="3"/>
<polyline points="82.00,488.00 83.23,488.00 84.45,488.00 85.68,488.00 86.91,488.00 88.13,488.00 89.36,488.00 90.59,488.00 91.81,488.00 93.04,488.00 94.27,488.00 95.49,488.00 96.72,488.00 97.95,488.00 99.17,488.00 100.40,488.00 101.63,488.00 102.85,488.00 104.08,488.00 105.31,488.00 106.53,488.00 107.76,488.00 108.99,488.00 110.21,488.00 111.44,488.00 112.67,488.00 113.89,488.00 115.12,488.00 116.35,488.00 117.57,488.00 118.80,488.00 120.03,488.00 121.25,488.00 122.48,488.00 123.71,488.00 124.93,488.00 126.16,488.00 127.39,488.00 128.61,488.00 129.84,488.00 131.07,488.00 132.29,488.00 133.52,488.00 134.75,488.00 135.97,488.00 137.20,488.00 138.43,488.00 139.65,488.00 140.88,488.00 142.11,488.00 143.33,488.00 144.56,488.00 145.79,488.00 147.01,488.00 148.24,488.00 149.47,488.00 150.69,488.00 151.92,488.00 153.15,488.00 154.37,488.00 155.60,488.00 156.83,488.00 158.05,488.00 159.28,488.00 160.51,488.00 161.73,488.00 162.96,488.00 164.19,488.00 165.41,488.00 166.64,488.00 167.87,488.00 169.09,488.00 170.32,488.00 171.55,488.00 172.77,488.00 174.00,488.00 175.23,488.00 176.45,488.00 177.68,488.00 178.91,488.00 180.13,488.00 181.36,488.00 182.59,488.00 183.81,488.00 185.04,488.00 186.27,488.00 187.49,488.00 188.72,488.00 189.95,488.00 191.17,488.00 192.40,488.00 193.63,488.00 194.85,488.00 196.08,488.00 197.31,488.00 198.53,488.00 199.76,488.00 200.99,488.00 202.21,488.00 203.44,488.00 204.67,488.00 205.89,488.00 207.12,488.00 208.35,488.00 209.57,488.00 210.80,488.00 212.03,488.00 213.25,488.00 214.48,488.00 215.71,488.00 216.93,488.00 218.16,488.00 219.39,488.00 220.61,488.00 221.84,488.00 223.07,488.00 224.29,488.00 225.52,488.00 226.75,488.00 227.97,488.00 229.20,488.00 230.43,488.00 231.65,488.00 232.88,488.00 234.11,488.00 235.33,488.00 236.56,488.00 237.79,488.00 239.01,488.00 240.24,488.00 241.47,488.00 242.69,488.00 243.92,488.00 245.15,488.00 246.37,488.00 247.60,488.00 248.83,488.00 250.05,488.00 251.28,488.00 252.51,488.00 253.73,488.00 254.96,488.00 256.19,488.00 257.41,488.00 258.64,488.00 259.87,488.00 261.09,488.00 262.32,488.00 263.55,488.00 264.77,488.00 266.00,488.00 267.23,488.00 268.45,488.00 269.68,488.00 270.91,488.00 272.13,488.00 273.36,488.00 274.59,488.00 275.81,488.00 277.04,488.00 278.27,488.00 279.49,488.00 280.72,488.00 281.95,488.00 283.17,488.00 284.40,488.00 285.63,488.00 286.85,488.00 288.08,488.00 289.31,488.00 290.53,488.00 291.76,488.00 292.99,488.00 294.21,488.00 295.44,488.00 296.67,488.00 297.89,488.00 299.12,488.00 300.35,488.00 301.57,488.00 302.80,488.00 304.03,488.00 305.25,488.00 306.48,488.00 307.71,488.00 308.93,488.00 310.16,488.00 311.39,488.00 312.61,488.00 313.84,488.00 315.07,488.00 316.29,488.00 317.52,488.00 318.75,488.00 319.97,488.00 321.20,488.00 322.43,488.00 323.65,488.00 324.88,488.00 326.11,488.00 327.33,488.00 328.56,485.39 329.79,478.18 331.01,468.61 332.24,457.58 333.47,445.49 334.69,434.53 335.92,443.31 337.15,487.44 338.37,487.76 339.60,487.82 340.83,487.84 342.05,485.88 343.28,478.95 344.51,471.86 345.73,465.40 346.96,458.94 348.19,452.09 349.41,445.14 350.64,437.37 351.87,428.71 353.09,419.46 354.32,409.22 355.55,398.45 356.77,387.26 358.00,375.72 359.23,363.88 360.45,351.78 361.68,482.39 362.91,448.93 364.13,423.64 365.36,409.18 366.59,399.04 367.81,390.52 369.04,382.49 370.27,374.59 371.49,366.71 372.72,358.83 373.95,350.94 375.17,343.02 376.40,334.83 377.63,377.40 378.85,416.35 380.08,425.19 381.31,422.82 382.53,416.63 383.76,409.75 384.99,402.77 386.21,395.83 387.44,389.01 388.67,382.32 389.89,374.94 391.12,366.78 392.35,357.83 393.57,348.25 394.80,338.17 396.03,327.66 397.25,316.77 398.48,305.56 399.71,294.07 400.93,282.34 402.16,270.40 403.39,257.80 404.61,244.59 405.84,231.12 407.07,430.58 408.29,382.08 409.52,359.16 410.75,344.42 411.97,332.13 413.20,320.40 414.43,308.68 415.65,469.06 416.88,456.35 418.11,448.40 419.33,442.80 420.56,438.42 421.79,434.64 423.01,430.41 424.24,426.00 425.47,421.64 426.69,417.35 427.92,413.17 429.15,409.15 430.37,405.27 431.60,401.54 432.83,398.00 434.05,394.64 435.28,391.49 436.51,388.54 437.73,385.81 438.96,383.28 440.19,380.96 441.41,378.86 442.64,376.98 443.87,375.32 445.09,373.89 446.32,372.72 447.55,371.78 448.77,371.06 450.00,370.06 451.23,368.52 452.45,366.34 453.68,360.12 454.91,350.53 456.13,340.16 457.36,329.17 458.59,317.47 459.81,305.02 461.04,325.09 462.27,381.37 463.49,393.93 464.72,396.77 465.95,398.25 467.17,389.19 468.40,377.72 469.63,365.87 470.85,353.44 472.08,340.19 473.31,326.32 474.53,312.28 475.76,297.95 476.99,345.29 478.21,390.99 479.44,401.98 480.67,399.69 481.89,391.91 483.12,381.71 484.35,370.15 485.57,357.57 486.80,344.17 488.03,330.08 489.25,315.36 490.48,300.31 491.71,285.25 492.93,270.54 494.16,256.04 495.39,240.34 496.61,223.42 497.84,205.72 499.07,187.41 500.29,168.61 501.52,170.75 502.75,178.36 503.97,158.99 505.20,137.15 506.43,115.00 507.65,93.26 508.88,114.48 510.11,253.37 511.33,349.00 512.56,370.23 513.79,364.10 515.01,351.92 516.24,340.19 517.47,328.54 518.69,316.25 519.92,303.09 521.15,289.15 522.37,274.60 523.60,259.50 524.83,243.78 526.05,227.57 527.28,210.29 528.51,191.87 529.73,172.64 530.96,152.82 532.19,132.46 533.41,146.54 534.64,138.06 535.87,120.35 537.09,101.16 538.32,80.77 539.55,59.62 540.77,132.15 542.00,130.61 543.23,122.73 544.45,176.68 545.68,212.06 546.91,233.51 548.13,252.78 549.36,271.03 550.59,289.76 551.81,308.59 553.04,322.56 554.27,333.90 555.49,342.82 556.72,348.58 557.95,351.46 559.17,352.92 560.40,353.12 561.63,350.22 562.85,345.13 564.08,338.29 565.31,330.17 566.53,325.98 567.76,318.83 568.99,320.11 570.21,324.48 571.44,319.65 572.67,313.11 573.89,305.91 575.12,304.32 576.35,310.11 577.57,310.20 578.80,307.09 580.03,300.74 581.25,292.69 582.48,283.65 583.71,340.48 584.93,343.88 586.16,337.75 587.39,327.96 588.61,316.68 589.84,304.69 591.07,292.30 592.29,391.38 593.52,392.96 594.75,415.36 595.97,416.85 597.20,414.70 598.43,411.16 599.65,406.42 600.88,400.83 602.11,394.57 603.33,387.80 604.56,380.67 605.79,373.24 607.01,365.56 608.24,356.38 609.47,346.02 610.69,334.88 611.92,323.07 613.15,310.74 614.37,297.95 615.60,429.75 616.83,380.55 618.05,363.64 619.28,349.91 620.51,335.29 621.73,320.39 622.96,305.16 624.19,290.24 625.41,330.66 626.64,385.02 627.87,406.23 629.09,419.62 630.32,431.10 631.55,438.74 632.77,443.40 634.00,446.78 635.23,449.48 636.45,451.43 637.68,452.55 638.91,452.99 640.13,452.78 641.36,451.23 642.59,449.27 643.81,445.94 645.04,441.98 646.27,437.62 647.49,432.58 648.72,426.99 649.95,420.99 651.17,414.66 652.40,407.99 653.63,401.10 654.85,393.98 656.08,386.62 657.31,379.38 658.53,372.04 659.76,364.47 660.99,356.69 662.21,348.76 663.44,340.63 664.67,359.79 665.89,387.07 667.12,393.52 668.35,394.51 669.57,393.47 670.80,391.96 672.03,391.07 673.25,390.60 674.48,391.27 675.71,392.23 676.93,393.40 678.16,394.95 679.39,396.73 680.61,398.73 681.84,400.91 683.07,403.23 684.29,405.65 685.52,408.06 686.75,410.46 687.97,412.86 689.20,414.67 690.43,415.86 691.65,416.65 692.88,417.04 694.11,417.17 695.33,417.12 696.56,416.95 697.79,416.68 699.01,416.28 700.24,415.70 701.47,415.08 702.69,414.10 703.92,412.29 705.15,409.39 706.37,405.80 707.60,401.66 708.83,397.04 710.05,391.80 711.28,385.64 712.51,378.63 713.73,370.82 714.96,362.40 716.19,353.49 717.41,344.24 718.64,334.74 719.87,325.02 721.09,315.12 722.32,305.05 723.55,295.03 724.77,284.92 726.00,274.58 727.23,263.65 728.45,250.14 729.68,235.89 730.91,221.17 732.13,205.75 733.36,254.96 734.59,274.44 735.81,283.96 737.04,291.22 738.27,296.03 739.49,298.38 740.72,299.20 741.95,299.16 743.17,298.75 744.40,298.13 745.63,297.35 746.85,296.37 748.08,295.20 749.31,293.82 750.53,292.20 751.76,290.32 752.99,288.18 754.21,285.82 755.44,283.21 756.67,280.37 757.89,276.54 759.12,271.89 760.35,267.09 761.57,262.40 762.80,278.61 764.03,293.20 765.25,302.45 766.48,308.23 767.71,311.38 768.93,312.28 770.16,310.95 771.39,307.86 772.61,303.49 773.84,298.43 775.07,293.05 776.29,286.34 777.52,278.05 778.75,268.17 779.97,257.11 781.20,245.30 782.43,232.72 783.65,219.20 784.88,204.41 786.11,189.33 787.33,269.96 788.56,241.73 789.79,222.86 791.01,205.24 792.24,187.95 793.47,168.53 794.69,325.61 795.92,290.84 797.15,380.51 798.37,362.12 799.60,344.35 800.83,348.51 802.05,338.76 803.28,325.62 804.51,311.63 805.73,296.97 806.96,282.08 808.19,267.03 809.41,251.84 810.64,236.51 811.87,221.04 813.09,205.46 814.32,375.40 815.55,365.05 816.77,357.67 818.00,351.47" fill="none" stroke="#d1495b" stroke-width="3"/>
<polyline points="82.00,488.00 83.23,488.00 83.23,488.00 84.45,488.00 84.45,488.00 85.68,488.00 85.68,488.00 86.91,488.00 86.91,488.00 88.13,488.00 88.13,488.00 89.36,488.00 89.36,488.00 90.59,488.00 90.59,488.00 91.81,488.00 91.81,488.00 93.04,488.00 93.04,488.00 94.27,488.00 94.27,488.00 95.49,488.00 95.49,488.00 96.72,488.00 96.72,488.00 97.95,488.00 97.95,488.00 99.17,488.00 99.17,488.00 100.40,488.00 100.40,488.00 101.63,488.00 101.63,488.00 102.85,488.00 102.85,488.00 104.08,488.00 104.08,488.00 105.31,488.00 105.31,488.00 106.53,488.00 106.53,488.00 107.76,488.00 107.76,488.00 108.99,488.00 108.99,488.00 110.21,488.00 110.21,488.00 111.44,488.00 111.44,488.00 112.67,488.00 112.67,488.00 113.89,488.00 113.89,488.00 115.12,488.00 115.12,488.00 116.35,488.00 116.35,488.00 117.57,488.00 117.57,488.00 118.80,488.00 118.80,488.00 120.03,488.00 120.03,488.00 121.25,488.00 121.25,488.00 122.48,488.00 122.48,488.00 123.71,488.00 123.71,488.00 124.93,488.00 124.93,488.00 126.16,488.00 126.16,488.00 127.39,488.00 127.39,488.00 128.61,488.00 128.61,488.00 129.84,488.00 129.84,488.00 131.07,488.00 131.07,488.00 132.29,488.00 132.29,488.00 133.52,488.00 133.52,488.00 134.75,488.00 134.75,488.00 135.97,488.00 135.97,488.00 137.20,488.00 137.20,488.00 138.43,488.00 138.43,488.00 139.65,488.00 139.65,488.00 140.88,488.00 140.88,488.00 142.11,488.00 142.11,488.00 143.33,488.00 143.33,488.00 144.56,488.00 144.56,488.00 145.79,488.00 145.79,488.00 147.01,488.00 147.01,488.00 148.24,488.00 148.24,488.00 149.47,488.00 149.47,488.00 150.69,488.00 150.69,488.00 151.92,488.00 151.92,488.00 153.15,488.00 153.15,488.00 154.37,488.00 154.37,488.00 155.60,488.00 155.60,488.00 156.83,488.00 156.83,488.00 158.05,488.00 158.05,488.00 159.28,488.00 159.28,488.00 160.51,488.00 160.51,488.00 161.73,488.00 161.73,488.00 162.96,488.00 162.96,488.00 164.19,488.00 164.19,488.00 165.41,488.00 165.41,488.00 166.64,488.00 166.64,488.00 167.87,488.00 167.87,488.00 169.09,488.00 169.09,488.00 170.32,488.00 170.32,488.00 171.55,488.00 171.55,488.00 172.77,488.00 172.77,488.00 174.00,488.00 174.00,488.00 175.23,488.00 175.23,488.00 176.45,488.00 176.45,488.00 177.68,488.00 177.68,488.00 178.91,488.00 178.91,488.00 180.13,488.00 180.13,488.00 181.36,488.00 181.36,488.00 182.59,488.00 182.59,488.00 183.81,488.00 183.81,488.00 185.04,488.00 185.04,488.00 186.27,488.00 186.27,488.00 187.49,488.00 187.49,488.00 188.72,488.00 188.72,488.00 189.95,488.00 189.95,488.00 191.17,488.00 191.17,488.00 192.40,488.00 192.40,488.00 193.63,488.00 193.63,488.00 194.85,488.00 194.85,488.00 196.08,488.00 196.08,488.00 197.31,488.00 197.31,488.00 198.53,488.00 198.53,488.00 199.76,488.00 199.76,488.00 200.99,488.00 200.99,488.00 202.21,488.00 202.21,488.00 203.44,488.00 203.44,488.00 204.67,488.00 204.67,488.00 205.89,488.00 205.89,488.00 207.12,488.00 207.12,488.00 208.35,488.00 208.35,488.00 209.57,488.00 209.57,488.00 210.80,488.00 210.80,488.00 212.03,488.00 212.03,488.00 213.25,488.00 213.25,488.00 214.48,488.00 214.48,488.00 215.71,488.00 215.71,488.00 216.93,488.00 216.93,488.00 218.16,488.00 218.16,488.00 219.39,488.00 219.39,488.00 220.61,488.00 220.61,488.00 221.84,488.00 221.84,488.00 223.07,488.00 223.07,488.00 224.29,488.00 224.29,488.00 225.52,488.00 225.52,488.00 226.75,488.00 226.75,488.00 227.97,488.00 227.97,488.00 229.20,488.00 229.20,488.00 230.43,488.00 230.43,488.00 231.65,488.00 231.65,488.00 232.88,488.00 232.88,488.00 234.11,488.00 234.11,488.00 235.33,488.00 235.33,488.00 236.56,488.00 236.56,488.00 237.79,488.00 237.79,488.00 239.01,488.00 239.01,488.00 240.24,488.00 240.24,488.00 241.47,488.00 241.47,488.00 242.69,488.00 242.69,488.00 243.92,488.00 243.92,488.00 245.15,488.00 245.15,488.00 246.37,488.00 246.37,488.00 247.60,488.00 247.60,488.00 248.83,488.00 248.83,488.00 250.05,488.00 250.05,488.00 251.28,488.00 251.28,488.00 252.51,488.00 252.51,488.00 253.73,488.00 253.73,488.00 254.96,488.00 254.96,488.00 256.19,488.00 256.19,488.00 257.41,488.00 257.41,488.00 258.64,488.00 258.64,488.00 259.87,488.00 259.87,488.00 261.09,488.00 261.09,488.00 262.32,488.00 262.32,488.00 263.55,488.00 263.55,488.00 264.77,488.00 264.77,488.00 266.00,488.00 266.00,488.00 267.23,488.00 267.23,488.00 268.45,488.00 268.45,488.00 269.68,488.00 269.68,488.00 270.91,488.00 270.91,488.00 272.13,488.00 272.13,488.00 273.36,488.00 273.36,488.00 274.59,488.00 274.59,488.00 275.81,488.00 275.81,488.00 277.04,488.00 277.04,488.00 278.27,488.00 278.27,488.00 279.49,488.00 279.49,488.00 280.72,488.00 280.72,488.00 281.95,488.00 281.95,488.00 283.17,488.00 283.17,488.00 284.40,488.00 284.40,488.00 285.63,488.00 285.63,488.00 286.85,488.00 286.85,488.00 288.08,488.00 288.08,488.00 289.31,488.00 289.31,488.00 290.53,488.00 290.53,488.00 291.76,488.00 291.76,488.00 292.99,488.00 292.99,488.00 294.21,488.00 294.21,488.00 295.44,488.00 295.44,488.00 296.67,488.00 296.67,488.00 297.89,488.00 297.89,488.00 299.12,488.00 299.12,488.00 300.35,488.00 300.35,488.00 301.57,488.00 301.57,488.00 302.80,488.00 302.80,488.00 304.03,488.00 304.03,488.00 305.25,488.00 305.25,488.00 306.48,488.00 306.48,488.00 307.71,488.00 307.71,488.00 308.93,488.00 308.93,488.00 310.16,488.00 310.16,488.00 311.39,488.00 311.39,488.00 312.61,488.00 312.61,488.00 313.84,488.00 313.84,488.00 315.07,488.00 315.07,488.00 316.29,488.00 316.29,488.00 317.52,488.00 317.52,488.00 318.75,488.00 318.75,488.00 319.97,488.00 319.97,488.00 321.20,488.00 321.20,488.00 322.43,488.00 322.43,488.00 323.65,488.00 323.65,488.00 324.88,488.00 324.88,488.00 326.11,488.00 326.11,488.00 327.33,488.00 327.33,488.00 328.56,488.00 328.56,488.00 329.79,488.00 329.79,488.00 331.01,488.00 331.01,488.00 332.24,488.00 332.24,488.00 333.47,488.00 333.47,488.00 334.69,488.00 334.69,487.08 335.92,487.08 335.92,469.53 337.15,469.53 337.15,465.83 338.37,465.83 338.37,465.83 339.60,465.83 339.60,465.83 340.83,465.83 340.83,465.83 342.05,465.83 342.05,465.83 343.28,465.83 343.28,465.83 344.51,465.83 344.51,465.83 345.73,465.83 345.73,465.83 346.96,465.83 346.96,465.83 348.19,465.83 348.19,465.83 349.41,465.83 349.41,465.83 350.64,465.83 350.64,465.83 351.87,465.83 351.87,465.83 353.09,465.83 353.09,465.83 354.32,465.83 354.32,465.83 355.55,465.83 355.55,465.83 356.77,465.83 356.77,465.83 358.00,465.83 358.00,465.83 359.23,465.83 359.23,465.83 360.45,465.83 360.45,465.83 361.68,465.83 361.68,465.83 362.91,465.83 362.91,465.83 364.13,465.83 364.13,465.83 365.36,465.83 365.36,465.83 366.59,465.83 366.59,465.83 367.81,465.83 367.81,465.83 369.04,465.83 369.04,465.83 370.27,465.83 370.27,465.83 371.49,465.83 371.49,465.83 372.72,465.83 372.72,465.83 373.95,465.83 373.95,465.83 375.17,465.83 375.17,465.83 376.40,465.83 376.40,465.83 377.63,465.83 377.63,450.13 378.85,450.13 378.85,450.13 380.08,450.13 380.08,450.13 381.31,450.13 381.31,450.13 382.53,450.13 382.53,450.13 383.76,450.13 383.76,450.13 384.99,450.13 384.99,450.13 386.21,450.13 386.21,450.13 387.44,450.13 387.44,450.13 388.67,450.13 388.67,450.13 389.89,450.13 389.89,450.13 391.12,450.13 391.12,450.13 392.35,450.13 392.35,450.13 393.57,450.13 393.57,450.13 394.80,450.13 394.80,450.13 396.03,450.13 396.03,450.13 397.25,450.13 397.25,450.13 398.48,450.13 398.48,450.13 399.71,450.13 399.71,450.13 400.93,450.13 400.93,450.13 402.16,450.13 402.16,450.13 403.39,450.13 403.39,450.13 404.61,450.13 404.61,450.13 405.84,450.13 405.84,450.13 407.07,450.13 407.07,422.42 408.29,422.42 408.29,422.42 409.52,422.42 409.52,422.42 410.75,422.42 410.75,422.42 411.97,422.42 411.97,422.42 413.20,422.42 413.20,422.42 414.43,422.42 414.43,422.42 415.65,422.42 415.65,406.71 416.88,406.71 416.88,406.71 418.11,406.71 418.11,406.71 419.33,406.71 419.33,406.71 420.56,406.71 420.56,406.71 421.79,406.71 421.79,406.71 423.01,406.71 423.01,406.71 424.24,406.71 424.24,406.71 425.47,406.71 425.47,406.71 426.69,406.71 426.69,406.71 427.92,406.71 427.92,406.71 429.15,406.71 429.15,406.71 430.37,406.71 430.37,406.71 431.60,406.71 431.60,406.71 432.83,406.71 432.83,406.71 434.05,406.71 434.05,406.71 435.28,406.71 435.28,406.71 436.51,406.71 436.51,406.71 437.73,406.71 437.73,406.71 438.96,406.71 438.96,406.71 440.19,406.71 440.19,406.71 441.41,406.71 441.41,406.71 442.64,406.71 442.64,406.71 443.87,406.71 443.87,406.71 445.09,406.71 445.09,406.71 446.32,406.71 446.32,406.71 447.55,406.71 447.55,406.71 448.77,406.71 448.77,406.71 450.00,406.71 450.00,406.71 451.23,406.71 451.23,406.71 452.45,406.71 452.45,406.71 453.68,406.71 453.68,406.71 454.91,406.71 454.91,406.71 456.13,406.71 456.13,406.71 457.36,406.71 457.36,406.71 458.59,406.71 458.59,406.71 459.81,406.71 459.81,406.71 461.04,406.71 461.04,389.16 462.27,389.16 462.27,389.16 463.49,389.16 463.49,389.16 464.72,389.16 464.72,389.16 465.95,389.16 465.95,389.16 467.17,389.16 467.17,389.16 468.40,389.16 468.40,389.16 469.63,389.16 469.63,389.16 470.85,389.16 470.85,389.16 472.08,389.16 472.08,389.16 473.31,389.16 473.31,389.16 474.53,389.16 474.53,389.16 475.76,389.16 475.76,389.16 476.99,389.16 476.99,373.46 478.21,373.46 478.21,373.46 479.44,373.46 479.44,373.46 480.67,373.46 480.67,373.46 481.89,373.46 481.89,373.46 483.12,373.46 483.12,373.46 484.35,373.46 484.35,373.46 485.57,373.46 485.57,373.46 486.80,373.46 486.80,373.46 488.03,373.46 488.03,373.46 489.25,373.46 489.25,373.46 490.48,373.46 490.48,373.46 491.71,373.46 491.71,373.46 492.93,373.46 492.93,373.46 494.16,373.46 494.16,373.46 495.39,373.46 495.39,373.46 496.61,373.46 496.61,373.46 497.84,373.46 497.84,373.46 499.07,373.46 499.07,373.46 500.29,373.46 500.29,373.46 501.52,373.46 501.52,361.45 502.75,361.45 502.75,361.45 503.97,361.45 503.97,361.45 505.20,361.45 505.20,361.45 506.43,361.45 506.43,361.45 507.65,361.45 507.65,361.45 508.88,361.45 508.88,344.82 510.11,344.82 510.11,317.11 511.33,317.11 511.33,317.11 512.56,317.11 512.56,317.11 513.79,317.11 513.79,317.11 515.01,317.11 515.01,317.11 516.24,317.11 516.24,317.11 517.47,317.11 517.47,317.11 518.69,317.11 518.69,317.11 519.92,317.11 519.92,317.11 521.15,317.11 521.15,317.11 522.37,317.11 522.37,317.11 523.60,317.11 523.60,317.11 524.83,317.11 524.83,317.11 526.05,317.11 526.05,317.11 527.28,317.11 527.28,317.11 528.51,317.11 528.51,317.11 529.73,317.11 529.73,317.11 530.96,317.11 530.96,317.11 532.19,317.11 532.19,317.11 533.41,317.11 533.41,300.49 534.64,300.49 534.64,300.49 535.87,300.49 535.87,300.49 537.09,300.49 537.09,300.49 538.32,300.49 538.32,300.49 539.55,300.49 539.55,300.49 540.77,300.49 540.77,277.39 542.00,277.39 542.00,277.39 543.23,277.39 543.23,277.39 544.45,277.39 544.45,260.77 545.68,260.77 545.68,260.77 546.91,260.77 546.91,260.77 548.13,260.77 548.13,260.77 549.36,260.77 549.36,260.77 550.59,260.77 550.59,260.77 551.81,260.77 551.81,260.77 553.04,260.77 553.04,260.77 554.27,260.77 554.27,260.77 555.49,260.77 555.49,260.77 556.72,260.77 556.72,260.77 557.95,260.77 557.95,260.77 559.17,260.77 559.17,260.77 560.40,260.77 560.40,260.77 561.63,260.77 561.63,260.77 562.85,260.77 562.85,260.77 564.08,260.77 564.08,260.77 565.31,260.77 565.31,260.77 566.53,260.77 566.53,259.84 567.76,259.84 567.76,258.92 568.99,258.92 568.99,256.15 570.21,256.15 570.21,256.15 571.44,256.15 571.44,256.15 572.67,256.15 572.67,256.15 573.89,256.15 573.89,256.15 575.12,256.15 575.12,252.45 576.35,252.45 576.35,251.53 577.57,251.53 577.57,251.53 578.80,251.53 578.80,251.53 580.03,251.53 580.03,251.53 581.25,251.53 581.25,251.53 582.48,251.53 582.48,251.53 583.71,251.53 583.71,229.36 584.93,229.36 584.93,228.44 586.16,228.44 586.16,228.44 587.39,228.44 587.39,228.44 588.61,228.44 588.61,228.44 589.84,228.44 589.84,228.44 591.07,228.44 591.07,228.44 592.29,228.44 592.29,209.04 593.52,209.04 593.52,199.80 594.75,199.80 594.75,199.80 595.97,199.80 595.97,199.80 597.20,199.80 597.20,199.80 598.43,199.80 598.43,199.80 599.65,199.80 599.65,199.80 600.88,199.80 600.88,199.80 602.11,199.80 602.11,199.80 603.33,199.80 603.33,199.80 604.56,199.80 604.56,199.80 605.79,199.80 605.79,199.80 607.01,199.80 607.01,199.80 608.24,199.80 608.24,199.80 609.47,199.80 609.47,199.80 610.69,199.80 610.69,199.80 611.92,199.80 611.92,199.80 613.15,199.80 613.15,199.80 614.37,199.80 614.37,199.80 615.60,199.80 615.60,184.10 616.83,184.10 616.83,184.10 618.05,184.10 618.05,184.10 619.28,184.10 619.28,184.10 620.51,184.10 620.51,184.10 621.73,184.10 621.73,184.10 622.96,184.10 622.96,184.10 624.19,184.10 624.19,183.18 625.41,183.18 625.41,163.78 626.64,163.78 626.64,158.24 627.87,158.24 627.87,158.24 629.09,158.24 629.09,157.31 630.32,157.31 630.32,157.31 631.55,157.31 631.55,157.31 632.77,157.31 632.77,157.31 634.00,157.31 634.00,157.31 635.23,157.31 635.23,157.31 636.45,157.31 636.45,157.31 637.68,157.31 637.68,157.31 638.91,157.31 638.91,157.31 640.13,157.31 640.13,157.31 641.36,157.31 641.36,157.31 642.59,157.31 642.59,157.31 643.81,157.31 643.81,157.31 645.04,157.31 645.04,157.31 646.27,157.31 646.27,157.31 647.49,157.31 647.49,157.31 648.72,157.31 648.72,157.31 649.95,157.31 649.95,157.31 651.17,157.31 651.17,157.31 652.40,157.31 652.40,157.31 653.63,157.31 653.63,157.31 654.85,157.31 654.85,157.31 656.08,157.31 656.08,157.31 657.31,157.31 657.31,157.31 658.53,157.31 658.53,157.31 659.76,157.31 659.76,157.31 660.99,157.31 660.99,157.31 662.21,157.31 662.21,157.31 663.44,157.31 663.44,157.31 664.67,157.31 664.67,143.46 665.89,143.46 665.89,143.46 667.12,143.46 667.12,143.46 668.35,143.46 668.35,143.46 669.57,143.46 669.57,143.46 670.80,143.46 670.80,143.46 672.03,143.46 672.03,143.46 673.25,143.46 673.25,143.46 674.48,143.46 674.48,143.46 675.71,143.46 675.71,143.46 676.93,143.46 676.93,143.46 678.16,143.46 678.16,143.46 679.39,143.46 679.39,143.46 680.61,143.46 680.61,143.46 681.84,143.46 681.84,143.46 683.07,143.46 683.07,143.46 684.29,143.46 684.29,143.46 685.52,143.46 685.52,143.46 686.75,143.46 686.75,143.46 687.97,143.46 687.97,143.46 689.20,143.46 689.20,143.46 690.43,143.46 690.43,143.46 691.65,143.46 691.65,143.46 692.88,143.46 692.88,143.46 694.11,143.46 694.11,143.46 695.33,143.46 695.33,143.46 696.56,143.46 696.56,143.46 697.79,143.46 697.79,143.46 699.01,143.46 699.01,143.46 700.24,143.46 700.24,143.46 701.47,143.46 701.47,143.46 702.69,143.46 702.69,143.46 703.92,143.46 703.92,143.46 705.15,143.46 705.15,143.46 706.37,143.46 706.37,143.46 707.60,143.46 707.60,143.46 708.83,143.46 708.83,143.46 710.05,143.46 710.05,143.46 711.28,143.46 711.28,143.46 712.51,143.46 712.51,143.46 713.73,143.46 713.73,143.46 714.96,143.46 714.96,143.46 716.19,143.46 716.19,143.46 717.41,143.46 717.41,143.46 718.64,143.46 718.64,143.46 719.87,143.46 719.87,143.46 721.09,143.46 721.09,143.46 722.32,143.46 722.32,143.46 723.55,143.46 723.55,143.46 724.77,143.46 724.77,143.46 726.00,143.46 726.00,143.46 727.23,143.46 727.23,143.46 728.45,143.46 728.45,143.46 729.68,143.46 729.68,143.46 730.91,143.46 730.91,143.46 732.13,143.46 732.13,143.46 733.36,143.46 733.36,128.68 734.59,128.68 734.59,128.68 735.81,128.68 735.81,128.68 737.04,128.68 737.04,128.68 738.27,128.68 738.27,128.68 739.49,128.68 739.49,128.68 740.72,128.68 740.72,128.68 741.95,128.68 741.95,128.68 743.17,128.68 743.17,128.68 744.40,128.68 744.40,128.68 745.63,128.68 745.63,128.68 746.85,128.68 746.85,128.68 748.08,128.68 748.08,128.68 749.31,128.68 749.31,128.68 750.53,128.68 750.53,128.68 751.76,128.68 751.76,128.68 752.99,128.68 752.99,128.68 754.21,128.68 754.21,128.68 755.44,128.68 755.44,128.68 756.67,128.68 756.67,128.68 757.89,128.68 757.89,128.68 759.12,128.68 759.12,128.68 760.35,128.68 760.35,128.68 761.57,128.68 761.57,128.68 762.80,128.68 762.80,121.29 764.03,121.29 764.03,121.29 765.25,121.29 765.25,121.29 766.48,121.29 766.48,121.29 767.71,121.29 767.71,121.29 768.93,121.29 768.93,121.29 770.16,121.29 770.16,121.29 771.39,121.29 771.39,121.29 772.61,121.29 772.61,121.29 773.84,121.29 773.84,121.29 775.07,121.29 775.07,121.29 776.29,121.29 776.29,121.29 777.52,121.29 777.52,121.29 778.75,121.29 778.75,121.29 779.97,121.29 779.97,121.29 781.20,121.29 781.20,121.29 782.43,121.29 782.43,121.29 783.65,121.29 783.65,121.29 784.88,121.29 784.88,121.29 786.11,121.29 786.11,121.29 787.33,121.29 787.33,106.51 788.56,106.51 788.56,106.51 789.79,106.51 789.79,106.51 791.01,106.51 791.01,106.51 792.24,106.51 792.24,105.58 793.47,105.58 793.47,105.58 794.69,105.58 794.69,78.80 795.92,78.80 795.92,78.80 797.15,78.80 797.15,66.79 798.37,66.79 798.37,66.79 799.60,66.79 799.60,66.79 800.83,66.79 800.83,55.70 802.05,55.70 802.05,55.70 803.28,55.70 803.28,55.70 804.51,55.70 804.51,55.70 805.73,55.70 805.73,55.70 806.96,55.70 806.96,55.70 808.19,55.70 808.19,55.70 809.41,55.70 809.41,55.70 810.64,55.70 810.64,55.70 811.87,55.70 811.87,55.70 813.09,55.70 813.09,55.70 814.32,55.70 814.32,40.00 815.55,40.00 815.55,40.00 816.77,40.00 816.77,40.00 818.00,40.00 818.00,40.00" fill="none" stroke="#4b8f29" stroke-width="3"/>
<text x="450.0" y="552" text-anchor="middle" font-size="20" font-family="Arial, sans-serif" fill="#111827">Top displacement (mm)</text>
<text x="24" y="280.0" text-anchor="middle" transform="rotate(-90 24 280.0)" font-size="20" font-family="Arial, sans-serif" fill="#111827">Force magnitude (N)</text>
<text x="880" y="280.0" text-anchor="middle" transform="rotate(90 880 280.0)" font-size="20" font-family="Arial, sans-serif" fill="#111827">Broken bonds</text>
<text x="102" y="64" font-size="18" font-family="Arial, sans-serif" fill="#1b6ca8">Top plate</text>
<text x="212" y="64" font-size="18" font-family="Arial, sans-serif" fill="#d1495b">Bottom plate</text>
<text x="352" y="64" font-size="18" font-family="Arial, sans-serif" fill="#4b8f29">Broken bonds</text>
<text x="72" y="45" text-anchor="end" font-size="17" fill="#30363d">10.08</text>
<text x="72" y="488" text-anchor="end" font-size="17" fill="#30363d">0</text>
<text x="828" y="45" text-anchor="start" font-size="17" fill="#30363d">485</text>
<text x="828" y="488" text-anchor="start" font-size="17" fill="#30363d">0</text>
</svg>
