<svg xmlns="http://www.w3.org/2000/svg" width="900" height="560" viewBox="0 0 900 560">
<rect width="100%" height="100%" fill="white"/>
<text x="450.0" y="26" text-anchor="middle" font-size="22" font-family="Arial, sans-serif" fill="#111827">SP-002 force-displacement and bond breakage</text>
<line x1="82" y1="40.00" x2="818" y2="40.00" stroke="#d9dee2" stroke-width="1"/><line x1="82" y1="129.60" x2="818" y2="129.60" stroke="#d9dee2" stroke-width="1"/><line x1="82" y1="219.20" x2="818" y2="219.20" stroke="#d9dee2" stroke-width="1"/><line x1="82" y1="308.80" x2="818" y2="308.80" stroke="#d9dee2" stroke-width="1"/><line x1="82" y1="398.40" x2="818" y2="398.40" stroke="#d9dee2" stroke-width="1"/><line x1="82" y1="488.00" x2="818" y2="488.00" stroke="#d9dee2" stroke-width="1"/><line x1="82.00" y1="40" x2="82.00" y2="488" stroke="#edf0f2" stroke-width="1"/><text x="82.00" y="526" text-anchor="middle" font-size="18" fill="#30363d">0.000</text><line x1="229.20" y1="40" x2="229.20" y2="488" stroke="#edf0f2" stroke-width="1"/><text x="229.20" y="526" text-anchor="middle" font-size="18" fill="#30363d">0.060</text><line x1="376.40" y1="40" x2="376.40" y2="488" stroke="#edf0f2" stroke-width="1"/><text x="376.40" y="526" text-anchor="middle" font-size="18" fill="#30363d">0.120</text><line x1="523.60" y1="40" x2="523.60" y2="488" stroke="#edf0f2" stroke-width="1"/><text x="523.60" y="526" text-anchor="middle" font-size="18" fill="#30363d">0.180</text><line x1="670.80" y1="40" x2="670.80" y2="488" stroke="#edf0f2" stroke-width="1"/><text x="670.80" y="526" text-anchor="middle" font-size="18" fill="#30363d">0.240</text><line x1="818.00" y1="40" x2="818.00" y2="488" stroke="#edf0f2" stroke-width="1"/><text x="818.00" y="526" text-anchor="middle" font-size="18" fill="#30363d">0.300</text>
<line x1="82" y1="40" x2="82" y2="488" stroke="#111827" stroke-width="1.5"/>
<line x1="82" y1="488" x2="818" y2="488" stroke="#111827" stroke-width="1.5"/>
<line x1="818" y1="40" x2="818" y2="488" stroke="#111827" stroke-width="1.5"/>
<polyline points="82.00,488.00 83.23,488.00 84.45,488.00 85.68,488.00 86.91,488.00 88.13,488.00 89.36,488.00 90.59,488.00 91.81,488.00 93.04,488.00 94.27,488.00 95.49,488.00 96.72,488.00 97.95,488.00 99.17,488.00 100.40,488.00 101.63,488.00 102.85,488.00 104.08,488.00 105.31,488.00 106.53,488.00 107.76,488.00 108.99,488.00 110.21,488.00 111.44,488.00 112.67,488.00 113.89,488.00 115.12,488.00 116.35,488.00 117.57,488.00 118.80,488.00 120.03,488.00 121.25,488.00 122.48,488.00 123.71,488.00 124.93,488.00 126.16,488.00 127.39,488.00 128.61,488.00 129.84,488.00 131.07,488.00 132.29,488.00 133.52,488.00 134.75,488.00 135.97,488.00 137.20,488.00 138.43,488.00 139.65,488.00 140.88,488.00 142.11,488.00 143.33,488.00 144.56,488.00 145.79,488.00 147.01,488.00 148.24,488.00 149.47,488.00 150.69,488.00 151.92,488.00 153.15,488.00 154.37,488.00 155.60,488.00 156.83,488.00 158.05,488.00 159.28,488.00 160.51,488.00 161.73,488.00 162.96,488.00 164.19,488.00 165.41,488.00 166.64,488.00 167.87,488.00 169.09,488.00 170.32,488.00 171.55,488.00 172.77,488.00 174.00,488.00 175.23,488.00 176.45,488.00 177.68,488.00 178.91,488.00 180.13,488.00 181.36,488.00 182.59,488.00 183.81,488.00 185.04,488.00 186.27,488.00 187.49,488.00 188.72,488.00 189.95,488.00 191.17,488.00 192.40,488.00 193.63,488.00 194.85,488.00 196.08,488.00 197.31,488.00 198.53,488.00 199.76,488.00 200.99,488.00 202.21,488.00 203.44,488.00 204.67,488.00 205.89,488.00 207.12,488.00 208.35,488.00 209.57,488.00 210.80,488.00 212.03,488.00 213.25,488.00 214.48,488.00 215.71,488.00 216.93,488.00 218.16,488.00 219.39,488.00 220.61,488.00 221.84,488.00 223.07,488.00 224.29,488.00 225.52,488.00 226.75,488.00 227.97,488.00 229.20,488.00 230.43,488.00 231.65,488.00 232.88,488.00 234.11,488.00 235.33,488.00 236.56,488.00 237.79,488.00 239.01,488.00 240.24,488.00 241.47,488.00 242.69,488.00 243.92,488.00 245.15,488.00 246.37,488.00 247.60,488.00 248.83,488.00 250.05,488.00 251.28,488.00 252.51,488.00 253.73,488.00 254.96,488.00 256.19,488.00 257.41,488.00 258.64,488.00 259.87,488.00 261.09,488.00 262.32,488.00 263.55,488.00 264.77,488.00 266.00,488.00 267.23,488.00 268.45,488.00 269.68,488.00 270.91,488.00 272.13,488.00 273.36,488.00 274.59,488.00 275.81,488.00 277.04,488.00 278.27,488.00 279.49,488.00 280.72,488.00 281.95,488.00 283.17,488.00 284.40,488.00 285.63,488.00 286.85,488.00 288.08,488.00 289.31,488.00 290.53,488.00 291.76,488.00 292.99,488.00 294.21,488.00 295.44,488.00 296.67,488.00 297.89,488.00 299.12,488.00 300.35,488.00 301.57,488.00 302.80,488.00 304.03,488.00 305.25,488.00 306.48,488.00 307.71,488.00 308.93,488.00 310.16,488.00 311.39,488.00 312.61,488.00 313.84,488.00 315.07,488.00 316.29,488.00 317.52,488.00 318.75,488.00 319.97,488.00 321.20,488.00 322.43,488.00 323.65,488.00 324.88,488.00 326.11,488.00 327.33,487.99 328.56,483.85 329.79,477.24 331.01,469.38 332.24,460.63 333.47,451.19 334.69,441.19 335.92,430.70 337.15,419.80 338.37,408.52 339.60,398.43 340.83,424.13 342.05,433.15 343.28,428.38 344.51,420.84 345.73,412.56 346.96,403.92 348.19,395.04 349.41,487.45 350.64,480.54 351.87,464.30 353.09,450.43 354.32,437.22 355.55,423.80 356.77,409.88 358.00,395.45 359.23,385.65 360.45,452.87 361.68,462.43 362.91,467.02 364.13,469.43 365.36,470.75 366.59,471.50 367.81,471.71 369.04,468.93 370.27,464.05 371.49,458.47 372.72,452.52 373.95,446.31 375.17,439.77 376.40,432.90 377.63,425.79 378.85,418.49 380.08,418.34 381.31,427.90 382.53,429.43 383.76,427.98 384.99,424.65 386.21,419.91 387.44,414.32 388.67,408.38 389.89,402.17 391.12,395.72 392.35,389.10 393.57,382.44 394.80,442.63 396.03,438.76 397.25,437.20 398.48,436.33 399.71,435.75 400.93,434.05 402.16,430.37 403.39,426.43 404.61,422.62 405.84,419.02 407.07,415.57 408.29,412.19 409.52,408.90 410.75,405.70 411.97,402.65 413.20,396.34 414.43,388.17 415.65,378.23 416.88,367.86 418.11,357.04 419.33,345.79 420.56,377.90 421.79,352.01 423.01,338.88 424.24,326.67 425.47,314.98 426.69,303.28 427.92,324.89 429.15,415.49 430.37,438.44 431.60,447.25 432.83,451.47 434.05,453.82 435.28,454.46 436.51,453.72 437.73,452.33 438.96,450.11 440.19,447.17 441.41,443.73 442.64,439.96 443.87,436.01 445.09,431.96 446.32,425.93 447.55,419.47 448.77,412.41 450.00,407.45 451.23,407.42 452.45,417.60 453.68,419.56 454.91,418.90 456.13,417.34 457.36,415.08 458.59,409.88 459.81,401.52 461.04,391.62 462.27,380.83 463.49,369.43 464.72,357.68 465.95,345.86 467.17,330.73 468.40,313.46 469.63,294.87 470.85,452.95 472.08,441.22 473.31,428.79 474.53,419.41 475.76,410.86 476.99,402.03 478.21,392.42 479.44,382.13 480.67,371.21 481.89,359.72 483.12,347.79 484.35,385.72 485.57,374.52 486.80,366.20 488.03,358.74 489.25,351.63 490.48,344.77 491.71,338.18 492.93,331.89 494.16,325.97 495.39,320.45 496.61,315.21 497.84,308.31 499.07,421.60 500.29,417.87 501.52,414.16 502.75,409.90 503.97,402.36 505.20,390.09 506.43,377.06 507.65,363.93 508.88,349.75 510.11,332.97 511.33,325.34 512.56,328.90 513.79,314.11 515.01,298.07 516.24,352.98 517.47,363.35 518.69,360.26 519.92,352.19 521.15,343.86 522.37,336.78 523.60,333.79 524.83,342.71 526.05,342.27 527.28,336.33 528.51,328.45 529.73,322.03 530.96,312.76 532.19,366.86 533.41,406.18 534.64,416.17 535.87,413.50 537.09,406.17 538.32,396.87 539.55,386.05 540.77,374.18 542.00,361.60 543.23,348.45 544.45,334.82 545.68,320.76 546.91,306.27 548.13,290.73 549.36,273.75 550.59,255.85 551.81,237.21 553.04,216.49 554.27,252.78 555.49,269.25 556.72,257.70 557.95,240.41 559.17,257.01 560.40,303.61 561.63,306.63 562.85,294.81 564.08,279.22 565.31,308.07 566.53,314.90 567.76,422.28 568.99,375.92 570.21,366.76 571.44,360.92 572.67,356.00 573.89,351.83 575.12,348.40 576.35,345.73 577.57,344.00 578.80,344.82 580.03,347.51 581.25,351.04 582.48,355.27 583.71,359.59 584.93,362.60 586.16,363.29 587.39,362.43 588.61,360.08 589.84,355.60 591.07,345.63 592.29,333.68 593.52,320.36 594.75,305.96 595.97,290.58 597.20,277.21 598.43,270.60 599.65,371.78 600.88,372.38 602.11,368.95 603.33,364.11 604.56,357.69 605.79,350.33 607.01,342.47 608.24,334.24 609.47,325.73 610.69,317.00 611.92,307.91 613.15,298.26 614.37,288.25 615.60,294.01 616.83,289.70 618.05,279.84 619.28,267.70 620.51,253.34 621.73,238.64 622.96,221.57 624.19,374.24 625.41,329.78 626.64,311.84 627.87,401.91 629.09,392.16 630.32,371.52 631.55,353.59 632.77,335.60 634.00,316.11 635.23,295.31 636.45,333.22 637.68,362.66 638.91,367.37 640.13,362.23 641.36,355.31 642.59,347.41 643.81,336.81 645.04,322.24 646.27,307.62 647.49,292.41 648.72,350.37 649.95,358.11 651.17,356.21 652.40,352.81 653.63,345.32 654.85,336.73 656.08,329.34 657.31,320.43 658.53,307.18 659.76,291.70 660.99,275.73 662.21,259.22 663.44,242.39 664.67,297.70 665.89,284.63 667.12,280.45 668.35,270.98 669.57,268.94 670.80,257.75 672.03,244.11 673.25,229.66 674.48,214.91 675.71,283.84 676.93,261.01 678.16,247.82 679.39,234.39 680.61,221.12 681.84,207.03 683.07,192.07 684.29,176.28 685.52,159.73 686.75,232.95 687.97,213.04 689.20,199.56 690.43,189.70 691.65,266.87 692.88,289.56 694.11,283.38 695.33,272.36 696.56,256.94 697.79,238.50 699.01,217.73 700.24,195.60 701.47,171.79 702.69,146.41 703.92,119.63 705.15,133.70 706.37,112.23 707.60,92.80 708.83,113.93 710.05,97.17 711.28,81.10 712.51,66.26 713.73,258.52 714.96,267.85 716.19,269.30 717.41,263.30 718.64,254.35 719.87,243.84 721.09,306.88 722.32,294.38 723.55,319.57 724.77,316.62 726.00,313.33 727.23,307.73 728.45,306.68 729.68,322.27 730.91,331.53 732.13,326.09 733.36,319.16 734.59,310.96 735.81,301.61 737.04,290.97 738.27,279.15 739.49,265.61 740.72,251.14 741.95,236.50 743.17,222.14 744.40,208.60 745.63,195.39 746.85,297.97 748.08,281.91 749.31,273.43 750.53,265.39 751.76,257.03 752.99,248.40 754.21,239.42 755.44,230.13 756.67,220.63 757.89,210.76 759.12,201.19 760.35,191.16 761.57,180.27 762.80,169.04 764.03,157.57 765.25,145.42 766.48,132.93 767.71,119.42 768.93,103.44 770.16,86.39 771.39,68.77 772.61,50.76 773.84,112.49 775.07,107.21 776.29,97.82 777.52,86.50 778.75,75.56 779.97,67.42 781.20,178.07 782.43,164.89 783.65,162.65 784.88,157.45 786.11,150.63 787.33,141.13 788.56,176.31 789.79,172.41 791.01,163.61 792.24,148.74 793.47,135.97 794.69,123.04 795.92,110.42 797.15,97.91 798.37,84.17 799.60,69.79 800.83,55.20 802.05,40.00 803.28,115.13 804.51,109.79 805.73,119.68 806.96,171.16 808.19,186.05 809.41,199.74 810.64,206.41 811.87,214.30 813.09,222.67 814.32,231.18 815.55,235.55 816.77,239.35 818.00,242.34" fill="none" stroke="#1b6ca8" stroke-width="3"/>
<polyline points="82.00,488.00 83.23,488.00 84.45,488.00 85.68,488.00 86.91,488.00 88.13,488.00 89.36,488.00 90.59,488.00 91.81,488.00 93.04,488.00 94.27,488.00 95.49,488.00 96.72,488.00 97.95,488.00 99.17,488.00 100.40,488.00 101.63,488.00 102.85,488.00 104.08,488.00 105.31,488.00 106.53,488.00 107.76,488.00 108.99,488.00 110.21,488.00 111.44,488.00 112.67,488.00 113.89,488.00 115.12,488.00 116.35,488.00 117.57,488.00 118.80,488.00 120.03,488.00 121.25,488.00 122.48,488.00 123.71,488.00 124.93,488.00 126.16,488.00 127.39,488.00 128.61,488.00 129.84,488.00 131.07,488.00 132.29,488.00 133.52,488.00 134.75,488.00 135.97,488.00 137.20,488.00 138.43,488.00 139.65,488.00 140.88,488.00 142.11,488.00 143.33,488.00 144.56,488.00 145.79,488.00 147.01,488.00 148.24,488.00 149.47,488.00 150.69,488.00 151.92,488.00 153.15,488.00 154.37,488.00 155.60,488.00 156.83,488.00 158.05,488.00 159.28,488.00 160.51,488.00 161.73,488.00 162.96,488.00 164.19,488.00 165.41,488.00 166.64,488.00 167.87,488.00 169.09,488.00 170.32,488.00 171.55,488.00 172.77,488.00 174.00,488.00 175.23,488.00 176.45,488.00 177.68,488.00 178.91,488.00 180.13,488.00 181.36,488.00 182.59,488.00 183.81,488.00 185.04,488.00 186.27,488.00 187.49,488.00 188.72,488.00 189.95,488.00 191.17,488.00 192.40,488.00 193.63,488.00 194.85,488.00 196.08,488.00 197.31,488.00 198.53,488.00 199.76,488.00 200.99,488.00 202.21,488.00 203.44,488.00 204.67,488.00 205.89,488.00 207.12,488.00 208.35,488.00 209.57,488.00 210.80,488.00 212.03,488.00 213.25,488.00 214.48,488.00 215.71,488.00 216.93,488.00 218.16,488.00 219.39,488.00 220.61,488.00 221.84,488.00 223.07,488.00 224.29,488.00 225.52,488.00 226.75,488.00 227.97,488.00 229.20,488.00 230.43,488.00 231.65,488.00 232.88,488.00 234.11,488.00 235.33,488.00 236.56,488.00 237.79,488.00 239.01,488.00 240.24,488.00 241.47,488.00 242.69,488.00 243.92,488.00 245.15,488.00 246.37,488.00 247.60,488.00 248.83,488.00 250.05,488.00 251.28,488.00 252.51,488.00 253.73,488.00 254.96,488.00 256.19,488.00 257.41,488.00 258.64,488.00 259.87,488.00 261.09,488.00 262.32,488.00 263.55,488.00 264.77,488.00 266.00,488.00 267.23,488.00 268.45,488.00 269.68,488.00 270.91,488.00 272.13,488.00 273.36,488.00 274.59,488.00 275.81,488.00 277.04,488.00 278.27,488.00 279.49,488.00 280.72,488.00 281.95,488.00 283.17,488.00 284.40,488.00 285.63,488.00 286.85,488.00 288.08,488.00 289.31,488.00 290.53,488.00 291.76,488.00 292.99,488.00 294.21,488.00 295.44,488.00 296.67,488.00 297.89,488.00 299.12,488.00 300.35,488.00 301.57,488.00 302.80,488.00 304.03,488.00 305.25,488.00 306.48,488.00 307.71,488.00 308.93,488.00 310.16,488.00 311.39,488.00 312.61,488.00 313.84,488.00 315.07,488.00 316.29,488.00 317.52,488.00 318.75,488.00 319.97,488.00 321.20,488.00 322.43,488.00 323.65,488.00 324.88,488.00 326.11,488.00 327.33,488.00 328.56,485.63 329.79,479.87 331.01,472.49 332.24,464.07 333.47,454.90 334.69,445.11 335.92,434.81 337.15,424.07 338.37,412.93 339.60,402.16 340.83,467.11 342.05,447.49 343.28,436.50 344.51,427.83 345.73,419.33 346.96,410.66 348.19,401.78 349.41,394.76 350.64,460.13 351.87,464.77 353.09,457.43 354.32,446.35 355.55,433.58 356.77,419.89 358.00,405.56 359.23,404.51 360.45,456.85 361.68,476.35 362.91,481.90 364.13,484.01 365.36,485.24 366.59,486.01 367.81,485.09 369.04,481.36 370.27,476.81 371.49,471.68 372.72,466.05 373.95,459.85 375.17,452.78 376.40,445.46 377.63,438.02 378.85,430.49 380.08,464.33 381.31,457.56 382.53,452.29 383.76,447.06 384.99,441.59 386.21,435.69 387.44,429.63 388.67,423.45 389.89,417.18 391.12,410.80 392.35,404.27 393.57,397.66 394.80,408.92 396.03,421.80 397.25,427.12 398.48,430.07 399.71,431.85 400.93,432.94 402.16,433.24 403.39,432.69 404.61,431.35 405.84,429.38 407.07,426.94 408.29,424.25 409.52,421.55 410.75,419.01 411.97,416.72 413.20,413.52 414.43,408.30 415.65,401.13 416.88,392.48 418.11,382.81 419.33,372.32 420.56,375.11 421.79,374.70 423.01,363.74 424.24,351.74 425.47,341.55 426.69,328.72 427.92,487.81 429.15,487.97 430.37,487.98 431.60,487.98 432.83,487.99 434.05,487.30 435.28,484.07 436.51,480.82 437.73,477.66 438.96,473.97 440.19,470.17 441.41,466.30 442.64,462.37 443.87,458.41 445.09,454.45 446.32,449.98 447.55,443.87 448.77,436.31 450.00,433.76 451.23,461.88 452.45,458.02 453.68,454.46 454.91,451.41 456.13,448.69 457.36,444.78 458.59,437.00 459.81,427.23 461.04,416.64 462.27,405.52 463.49,393.93 464.72,383.56 465.95,368.60 467.17,350.16 468.40,331.37 469.63,312.11 470.85,312.53 472.08,422.26 473.31,430.82 474.53,427.50 475.76,420.99 476.99,412.69 478.21,403.43 479.44,393.45 480.67,382.91 481.89,371.80 483.12,360.11 484.35,374.20 485.57,376.81 486.80,372.49 488.03,366.20 489.25,359.39 490.48,352.54 491.71,345.82 492.93,339.34 494.16,333.16 495.39,327.33 496.61,321.86 497.84,315.64 499.07,322.74 500.29,379.67 501.52,395.71 502.75,400.32 503.97,399.59 505.20,393.28 506.43,383.79 507.65,372.64 508.88,360.42 510.11,346.38 511.33,378.52 512.56,347.05 513.79,330.42 515.01,314.17 516.24,383.90 517.47,378.44 518.69,375.31 519.92,369.15 521.15,362.37 522.37,356.73 523.60,363.54 524.83,375.47 526.05,368.93 527.28,360.89 528.51,352.40 529.73,344.38 530.96,336.27 532.19,460.42 533.41,460.11 534.64,450.50 535.87,439.20 537.09,428.81 538.32,418.19 539.55,406.45 540.77,394.14 542.00,381.32 543.23,368.03 544.45,354.29 545.68,340.15 546.91,325.56 548.13,309.03 549.36,291.45 550.59,273.22 551.81,254.14 553.04,233.06 554.27,296.48 555.49,293.58 556.72,275.14 557.95,257.13 559.17,316.45 560.40,347.27 561.63,328.75 562.85,312.16 564.08,296.03 565.31,359.24 566.53,347.82 567.76,339.27 568.99,382.22 570.21,379.31 571.44,374.20 572.67,369.31 573.89,365.04 575.12,361.51 576.35,358.76 577.57,358.07 578.80,360.35 580.03,364.14 581.25,368.71 582.48,373.66 583.71,377.28 584.93,378.07 586.16,376.76 587.39,374.80 588.61,371.87 589.84,366.53 591.07,357.16 592.29,345.92 593.52,333.09 594.75,319.03 595.97,303.93 597.20,290.91 598.43,299.73 599.65,370.39 600.88,385.04 602.11,385.18 603.33,380.30 604.56,373.84 605.79,366.44 607.01,358.47 608.24,350.10 609.47,341.50 610.69,332.68 611.92,323.25 613.15,313.39 614.37,303.28 615.60,324.06 616.83,306.81 618.05,295.55 619.28,283.07 620.51,268.87 621.73,254.06 622.96,237.42 624.19,247.27 625.41,329.62 626.64,324.57 627.87,355.59 629.09,379.70 630.32,377.87 631.55,366.81 632.77,351.33 634.00,332.75 635.23,312.25 636.45,345.36 637.68,351.70 638.91,361.64 640.13,363.29 641.36,360.04 642.59,354.07 643.81,346.27 645.04,336.08 646.27,323.67 647.49,309.47 648.72,380.00 649.95,378.62 651.17,377.07 652.40,373.56 653.63,364.36 654.85,354.84 656.08,345.17 657.31,335.86 658.53,324.84 659.76,311.14 660.99,295.81 662.21,279.56 663.44,263.04 664.67,294.00 665.89,298.74 667.12,294.93 668.35,287.63 669.57,279.61 670.80,270.00 672.03,257.62 673.25,243.38 674.48,228.63 675.71,265.97 676.93,267.12 678.16,256.64 679.39,245.26 680.61,232.81 681.84,219.24 683.07,204.69 684.29,189.25 685.52,172.95 686.75,227.90 687.97,222.90 689.20,210.59 690.43,199.66 691.65,288.85 692.88,304.38 694.11,297.04 695.33,284.97 696.56,270.24 697.79,252.70 699.01,232.74 700.24,211.06 701.47,187.21 702.69,161.85 703.92,135.09 705.15,156.51 706.37,129.86 707.60,109.41 708.83,115.65 710.05,112.75 711.28,97.61 712.51,80.34 713.73,261.00 714.96,296.55 716.19,287.62 717.41,279.81 718.64,270.80 719.87,260.25 721.09,302.04 722.32,303.34 723.55,321.02 724.77,323.04 726.00,321.03 727.23,317.08 728.45,315.03 729.68,324.94 730.91,340.60 732.13,343.18 733.36,338.18 734.59,329.78 735.81,319.88 737.04,309.08 738.27,296.93 739.49,283.83 740.72,269.55 741.95,255.07 743.17,241.27 744.40,228.36 745.63,215.21 746.85,285.52 748.08,296.64 749.31,291.16 750.53,283.54 751.76,275.21 752.99,266.52 754.21,257.52 755.44,248.25 756.67,238.73 757.89,228.79 759.12,218.87 760.35,208.98 761.57,198.44 762.80,187.42 764.03,176.11 765.25,164.38 766.48,152.08 767.71,138.16 768.93,122.18 770.16,105.17 771.39,87.55 772.61,69.62 773.84,104.15 775.07,118.73 776.29,113.81 777.52,103.36 778.75,92.65 779.97,84.22 781.20,120.61 782.43,164.39 783.65,171.66 784.88,170.27 786.11,165.45 787.33,155.91 788.56,204.15 789.79,189.03 791.01,176.63 792.24,164.36 793.47,151.39 794.69,138.37 795.92,125.61 797.15,113.25 798.37,99.61 799.60,84.69 800.83,70.05 802.05,55.16 803.28,87.66 804.51,119.23 805.73,130.41 806.96,197.02 808.19,204.68 809.41,213.64 810.64,224.25 811.87,232.16 813.09,239.60 814.32,247.09 815.55,252.32 816.77,254.55 818.00,255.13" fill="none" stroke="#d1495b" stroke-width="3"/>
<polyline points="82.00,488.00 83.23,488.00 83.23,488.00 84.45,488.00 84.45,488.00 85.68,488.00 85.68,488.00 86.91,488.00 86.91,488.00 88.13,488.00 88.13,488.00 89.36,488.00 89.36,488.00 90.59,488.00 90.59,488.00 91.81,488.00 91.81,488.00 93.04,488.00 93.04,488.00 94.27,488.00 94.27,488.00 95.49,488.00 95.49,488.00 96.72,488.00 96.72,488.00 97.95,488.00 97.95,488.00 99.17,488.00 99.17,488.00 100.40,488.00 100.40,488.00 101.63,488.00 101.63,488.00 102.85,488.00 102.85,488.00 104.08,488.00 104.08,488.00 105.31,488.00 105.31,488.00 106.53,488.00 106.53,488.00 107.76,488.00 107.76,488.00 108.99,488.00 108.99,488.00 110.21,488.00 110.21,488.00 111.44,488.00 111.44,488.00 112.67,488.00 112.67,488.00 113.89,488.00 113.89,488.00 115.12,488.00 115.12,488.00 116.35,488.00 116.35,488.00 117.57,488.00 117.57,488.00 118.80,488.00 118.80,488.00 120.03,488.00 120.03,488.00 121.25,488.00 121.25,488.00 122.48,488.00 122.48,488.00 123.71,488.00 123.71,488.00 124.93,488.00 124.93,488.00 126.16,488.00 126.16,488.00 127.39,488.00 127.39,488.00 128.61,488.00 128.61,488.00 129.84,488.00 129.84,488.00 131.07,488.00 131.07,488.00 132.29,488.00 132.29,488.00 133.52,488.00 133.52,488.00 134.75,488.00 134.75,488.00 135.97,488.00 135.97,488.00 137.20,488.00 137.20,488.00 138.43,488.00 138.43,488.00 139.65,488.00 139.65,488.00 140.88,488.00 140.88,488.00 142.11,488.00 142.11,488.00 143.33,488.00 143.33,488.00 144.56,488.00 144.56,488.00 145.79,488.00 145.79,488.00 147.01,488.00 147.01,488.00 148.24,488.00 148.24,488.00 149.47,488.00 149.47,488.00 150.69,488.00 150.69,488.00 151.92,488.00 151.92,488.00 153.15,488.00 153.15,488.00 154.37,488.00 154.37,488.00 155.60,488.00 155.60,488.00 156.83,488.00 156.83,488.00 158.05,488.00 158.05,488.00 159.28,488.00 159.28,488.00 160.51,488.00 160.51,488.00 161.73,488.00 161.73,488.00 162.96,488.00 162.96,488.00 164.19,488.00 164.19,488.00 165.41,488.00 165.41,488.00 166.64,488.00 166.64,488.00 167.87,488.00 167.87,488.00 169.09,488.00 169.09,488.00 170.32,488.00 170.32,488.00 171.55,488.00 171.55,488.00 172.77,488.00 172.77,488.00 174.00,488.00 174.00,488.00 175.23,488.00 175.23,488.00 176.45,488.00 176.45,488.00 177.68,488.00 177.68,488.00 178.91,488.00 178.91,488.00 180.13,488.00 180.13,488.00 181.36,488.00 181.36,488.00 182.59,488.00 182.59,488.00 183.81,488.00 183.81,488.00 185.04,488.00 185.04,488.00 186.27,488.00 186.27,488.00 187.49,488.00 187.49,488.00 188.72,488.00 188.72,488.00 189.95,488.00 189.95,488.00 191.17,488.00 191.17,488.00 192.40,488.00 192.40,488.00 193.63,488.00 193.63,488.00 194.85,488.00 194.85,488.00 196.08,488.00 196.08,488.00 197.31,488.00 197.31,488.00 198.53,488.00 198.53,488.00 199.76,488.00 199.76,488.00 200.99,488.00 200.99,488.00 202.21,488.00 202.21,488.00 203.44,488.00 203.44,488.00 204.67,488.00 204.67,488.00 205.89,488.00 205.89,488.00 207.12,488.00 207.12,488.00 208.35,488.00 208.35,488.00 209.57,488.00 209.57,488.00 210.80,488.00 210.80,488.00 212.03,488.00 212.03,488.00 213.25,488.00 213.25,488.00 214.48,488.00 214.48,488.00 215.71,488.00 215.71,488.00 216.93,488.00 216.93,488.00 218.16,488.00 218.16,488.00 219.39,488.00 219.39,488.00 220.61,488.00 220.61,488.00 221.84,488.00 221.84,488.00 223.07,488.00 223.07,488.00 224.29,488.00 224.29,488.00 225.52,488.00 225.52,488.00 226.75,488.00 226.75,488.00 227.97,488.00 227.97,488.00 229.20,488.00 229.20,488.00 230.43,488.00 230.43,488.00 231.65,488.00 231.65,488.00 232.88,488.00 232.88,488.00 234.11,488.00 234.11,488.00 235.33,488.00 235.33,488.00 236.56,488.00 236.56,488.00 237.79,488.00 237.79,488.00 239.01,488.00 239.01,488.00 240.24,488.00 240.24,488.00 241.47,488.00 241.47,488.00 242.69,488.00 242.69,488.00 243.92,488.00 243.92,488.00 245.15,488.00 245.15,488.00 246.37,488.00 246.37,488.00 247.60,488.00 247.60,488.00 248.83,488.00 248.83,488.00 250.05,488.00 250.05,488.00 251.28,488.00 251.28,488.00 252.51,488.00 252.51,488.00 253.73,488.00 253.73,488.00 254.96,488.00 254.96,488.00 256.19,488.00 256.19,488.00 257.41,488.00 257.41,488.00 258.64,488.00 258.64,488.00 259.87,488.00 259.87,488.00 261.09,488.00 261.09,488.00 262.32,488.00 262.32,488.00 263.55,488.00 263.55,488.00 264.77,488.00 264.77,488.00 266.00,488.00 266.00,488.00 267.23,488.00 267.23,488.00 268.45,488.00 268.45,488.00 269.68,488.00 269.68,488.00 270.91,488.00 270.91,488.00 272.13,488.00 272.13,488.00 273.36,488.00 273.36,488.00 274.59,488.00 274.59,488.00 275.81,488.00 275.81,488.00 277.04,488.00 277.04,488.00 278.27,488.00 278.27,488.00 279.49,488.00 279.49,488.00 280.72,488.00 280.72,488.00 281.95,488.00 281.95,488.00 283.17,488.00 283.17,488.00 284.40,488.00 284.40,488.00 285.63,488.00 285.63,488.00 286.85,488.00 286.85,488.00 288.08,488.00 288.08,488.00 289.31,488.00 289.31,488.00 290.53,488.00 290.53,488.00 291.76,488.00 291.76,488.00 292.99,488.00 292.99,488.00 294.21,488.00 294.21,488.00 295.44,488.00 295.44,488.00 296.67,488.00 296.67,488.00 297.89,488.00 297.89,488.00 299.12,488.00 299.12,488.00 300.35,488.00 300.35,488.00 301.57,488.00 301.57,488.00 302.80,488.00 302.80,488.00 304.03,488.00 304.03,488.00 305.25,488.00 305.25,488.00 306.48,488.00 306.48,488.00 307.71,488.00 307.71,488.00 308.93,488.00 308.93,488.00 310.16,488.00 310.16,488.00 311.39,488.00 311.39,488.00 312.61,488.00 312.61,488.00 313.84,488.00 313.84,488.00 315.07,488.00 315.07,488.00 316.29,488.00 316.29,488.00 317.52,488.00 317.52,488.00 318.75,488.00 318.75,488.00 319.97,488.00 319.97,488.00 321.20,488.00 321.20,488.00 322.43,488.00 322.43,488.00 323.65,488.00 323.65,488.00 324.88,488.00 324.88,488.00 326.11,488.00 326.11,488.00 327.33,488.00 327.33,488.00 328.56,488.00 328.56,488.00 329.79,488.00 329.79,488.00 331.01,488.00 331.01,488.00 332.24,488.00 332.24,488.00 333.47,488.00 333.47,488.00 334.69,488.00 334.69,488.00 335.92,488.00 335.92,488.00 337.15,488.00 337.15,488.00 338.37,488.00 338.37,488.00 339.60,488.00 339.60,485.48 340.83,485.48 340.83,474.75 342.05,474.75 342.05,474.75 343.28,474.75 343.28,474.75 344.51,474.75 344.51,474.75 345.73,474.75 345.73,474.75 346.96,474.75 346.96,474.75 348.19,474.75 348.19,474.75 349.41,474.75 349.41,466.55 350.64,466.55 350.64,466.55 351.87,466.55 351.87,466.55 353.09,466.55 353.09,466.55 354.32,466.55 354.32,466.55 355.55,466.55 355.55,466.55 356.77,466.55 356.77,466.55 358.00,466.55 358.00,466.55 359.23,466.55 359.23,466.55 360.45,466.55 360.45,460.24 361.68,460.24 361.68,460.24 362.91,460.24 362.91,460.24 364.13,460.24 364.13,460.24 365.36,460.24 365.36,460.24 366.59,460.24 366.59,460.24 367.81,460.24 367.81,460.24 369.04,460.24 369.04,460.24 370.27,460.24 370.27,460.24 371.49,460.24 371.49,460.24 372.72,460.24 372.72,460.24 373.95,460.24 373.95,460.24 375.17,460.24 375.17,460.24 376.40,460.24 376.40,460.24 377.63,460.24 377.63,460.24 378.85,460.24 378.85,460.24 380.08,460.24 380.08,455.19 381.31,455.19 381.31,455.19 382.53,455.19 382.53,455.19 383.76,455.19 383.76,455.19 384.99,455.19 384.99,455.19 386.21,455.19 386.21,455.19 387.44,455.19 387.44,455.19 388.67,455.19 388.67,455.19 389.89,455.19 389.89,455.19 391.12,455.19 391.12,455.19 392.35,455.19 392.35,455.19 393.57,455.19 393.57,455.19 394.80,455.19 394.80,447.62 396.03,447.62 396.03,447.62 397.25,447.62 397.25,447.62 398.48,447.62 398.48,447.62 399.71,447.62 399.71,447.62 400.93,447.62 400.93,447.62 402.16,447.62 402.16,447.62 403.39,447.62 403.39,447.62 404.61,447.62 404.61,447.62 405.84,447.62 405.84,447.62 407.07,447.62 407.07,447.62 408.29,447.62 408.29,447.62 409.52,447.62 409.52,447.62 410.75,447.62 410.75,447.62 411.97,447.62 411.97,447.62 413.20,447.62 413.20,447.62 414.43,447.62 414.43,447.62 415.65,447.62 415.65,447.62 416.88,447.62 416.88,447.62 418.11,447.62 418.11,447.62 419.33,447.62 419.33,447.62 420.56,447.62 420.56,438.78 421.79,438.78 421.79,438.78 423.01,438.78 423.01,438.78 424.24,438.78 424.24,438.78 425.47,438.78 425.47,438.15 426.69,438.15 426.69,438.15 427.92,438.15 427.92,421.12 429.15,421.12 429.15,421.12 430.37,421.12 430.37,421.12 431.60,421.12 431.60,421.12 432.83,421.12 432.83,421.12 434.05,421.12 434.05,421.12 435.28,421.12 435.28,421.12 436.51,421.12 436.51,421.12 437.73,421.12 437.73,421.12 438.96,421.12 438.96,421.12 440.19,421.12 440.19,421.12 441.41,421.12 441.41,421.12 442.64,421.12 442.64,421.12 443.87,421.12 443.87,421.12 445.09,421.12 445.09,421.12 446.32,421.12 446.32,421.12 447.55,421.12 447.55,421.12 448.77,421.12 448.77,421.12 450.00,421.12 450.00,420.48 451.23,420.48 451.23,416.07 452.45,416.07 452.45,416.07 453.68,416.07 453.68,416.07 454.91,416.07 454.91,416.07 456.13,416.07 456.13,416.07 457.36,416.07 457.36,416.07 458.59,416.07 458.59,416.07 459.81,416.07 459.81,416.07 461.04,416.07 461.04,416.07 462.27,416.07 462.27,416.07 463.49,416.07 463.49,416.07 464.72,416.07 464.72,415.44 465.95,415.44 465.95,415.44 467.17,415.44 467.17,415.44 468.40,415.44 468.40,415.44 469.63,415.44 469.63,415.44 470.85,415.44 470.85,399.66 472.08,399.66 472.08,399.66 473.31,399.66 473.31,399.66 474.53,399.66 474.53,399.66 475.76,399.66 475.76,399.66 476.99,399.66 476.99,399.66 478.21,399.66 478.21,399.66 479.44,399.66 479.44,399.66 480.67,399.66 480.67,399.66 481.89,399.66 481.89,399.66 483.12,399.66 483.12,399.66 484.35,399.66 484.35,393.35 485.57,393.35 485.57,393.35 486.80,393.35 486.80,393.35 488.03,393.35 488.03,393.35 489.25,393.35 489.25,393.35 490.48,393.35 490.48,393.35 491.71,393.35 491.71,393.35 492.93,393.35 492.93,393.35 494.16,393.35 494.16,393.35 495.39,393.35 495.39,393.35 496.61,393.35 496.61,393.35 497.84,393.35 497.84,393.35 499.07,393.35 499.07,380.73 500.29,380.73 500.29,380.73 501.52,380.73 501.52,380.73 502.75,380.73 502.75,380.73 503.97,380.73 503.97,380.73 505.20,380.73 505.20,380.73 506.43,380.73 506.43,380.73 507.65,380.73 507.65,380.73 508.88,380.73 508.88,380.73 510.11,380.73 510.11,380.73 511.33,380.73 511.33,373.79 512.56,373.79 512.56,373.79 513.79,373.79 513.79,373.79 515.01,373.79 515.01,373.79 516.24,373.79 516.24,364.33 517.47,364.33 517.47,364.33 518.69,364.33 518.69,364.33 519.92,364.33 519.92,364.33 521.15,364.33 521.15,364.33 522.37,364.33 522.37,364.33 523.60,364.33 523.60,364.33 524.83,364.33 524.83,364.33 526.05,364.33 526.05,364.33 527.28,364.33 527.28,364.33 528.51,364.33 528.51,364.33 529.73,364.33 529.73,363.70 530.96,363.70 530.96,363.70 532.19,363.70 532.19,352.97 533.41,352.97 533.41,352.97 534.64,352.97 534.64,352.97 535.87,352.97 535.87,352.97 537.09,352.97 537.09,352.97 538.32,352.97 538.32,352.97 539.55,352.97 539.55,352.97 540.77,352.97 540.77,352.97 542.00,352.97 542.00,352.97 543.23,352.97 543.23,352.97 544.45,352.97 544.45,352.97 545.68,352.97 545.68,352.97 546.91,352.97 546.91,352.97 548.13,352.97 548.13,352.97 549.36,352.97 549.36,352.97 550.59,352.97 550.59,352.97 551.81,352.97 551.81,352.97 553.04,352.97 553.04,352.97 554.27,352.97 554.27,343.50 555.49,343.50 555.49,336.56 556.72,336.56 556.72,336.56 557.95,336.56 557.95,336.56 559.17,336.56 559.17,327.10 560.40,327.10 560.40,321.42 561.63,321.42 561.63,321.42 562.85,321.42 562.85,321.42 564.08,321.42 564.08,321.42 565.31,321.42 565.31,314.48 566.53,314.48 566.53,314.48 567.76,314.48 567.76,304.38 568.99,304.38 568.99,304.38 570.21,304.38 570.21,304.38 571.44,304.38 571.44,304.38 572.67,304.38 572.67,304.38 573.89,304.38 573.89,304.38 575.12,304.38 575.12,304.38 576.35,304.38 576.35,304.38 577.57,304.38 577.57,304.38 578.80,304.38 578.80,304.38 580.03,304.38 580.03,304.38 581.25,304.38 581.25,304.38 582.48,304.38 582.48,304.38 583.71,304.38 583.71,304.38 584.93,304.38 584.93,304.38 586.16,304.38 586.16,304.38 587.39,304.38 587.39,304.38 588.61,304.38 588.61,304.38 589.84,304.38 589.84,304.38 591.07,304.38 591.07,304.38 592.29,304.38 592.29,304.38 593.52,304.38 593.52,304.38 594.75,304.38 594.75,304.38 595.97,304.38 595.97,304.38 597.20,304.38 597.20,303.75 598.43,303.75 598.43,299.97 599.65,299.97 599.65,290.50 600.88,290.50 600.88,290.50 602.11,290.50 602.11,289.87 603.33,289.87 603.33,289.87 604.56,289.87 604.56,289.87 605.79,289.87 605.79,289.87 607.01,289.87 607.01,289.87 608.24,289.87 608.24,289.87 609.47,289.87 609.47,289.87 610.69,289.87 610.69,289.87 611.92,289.87 611.92,289.87 613.15,289.87 613.15,289.87 614.37,289.87 614.37,289.87 615.60,289.87 615.60,284.19 616.83,284.19 616.83,284.19 618.05,284.19 618.05,284.19 619.28,284.19 619.28,284.19 620.51,284.19 620.51,284.19 621.73,284.19 621.73,283.56 622.96,283.56 622.96,283.56 624.19,283.56 624.19,265.26 625.41,265.26 625.41,265.26 626.64,265.26 626.64,265.26 627.87,265.26 627.87,256.43 629.09,256.43 629.09,256.43 630.32,256.43 630.32,256.43 631.55,256.43 631.55,256.43 632.77,256.43 632.77,256.43 634.00,256.43 634.00,256.43 635.23,256.43 635.23,256.43 636.45,256.43 636.45,247.59 637.68,247.59 637.68,241.28 638.91,241.28 638.91,240.02 640.13,240.02 640.13,240.02 641.36,240.02 641.36,240.02 642.59,240.02 642.59,240.02 643.81,240.02 643.81,240.02 645.04,240.02 645.04,240.02 646.27,240.02 646.27,240.02 647.49,240.02 647.49,240.02 648.72,240.02 648.72,229.93 649.95,229.93 649.95,229.93 651.17,229.93 651.17,229.93 652.40,229.93 652.40,229.93 653.63,229.93 653.63,229.93 654.85,229.93 654.85,229.93 656.08,229.93 656.08,229.93 657.31,229.93 657.31,229.93 658.53,229.93 658.53,229.93 659.76,229.93 659.76,229.93 660.99,229.93 660.99,229.93 662.21,229.93 662.21,229.93 663.44,229.93 663.44,229.93 664.67,229.93 664.67,222.99 665.89,222.99 665.89,222.99 667.12,222.99 667.12,221.72 668.35,221.72 668.35,221.72 669.57,221.72 669.57,220.46 670.80,220.46 670.80,219.83 672.03,219.83 672.03,219.83 673.25,219.83 673.25,219.83 674.48,219.83 674.48,219.20 675.71,219.20 675.71,209.10 676.93,209.10 676.93,209.10 678.16,209.10 678.16,209.10 679.39,209.10 679.39,209.10 680.61,209.10 680.61,209.10 681.84,209.10 681.84,209.10 683.07,209.10 683.07,209.10 684.29,209.10 684.29,209.10 685.52,209.10 685.52,209.10 686.75,209.10 686.75,192.07 687.97,192.07 687.97,192.07 689.20,192.07 689.20,192.07 690.43,192.07 690.43,192.07 691.65,192.07 691.65,185.76 692.88,185.76 692.88,185.76 694.11,185.76 694.11,185.76 695.33,185.76 695.33,185.76 696.56,185.76 696.56,185.76 697.79,185.76 697.79,185.76 699.01,185.76 699.01,185.76 700.24,185.76 700.24,185.76 701.47,185.76 701.47,185.76 702.69,185.76 702.69,185.76 703.92,185.76 703.92,185.76 705.15,185.76 705.15,177.55 706.37,177.55 706.37,176.92 707.60,176.92 707.60,176.92 708.83,176.92 708.83,168.72 710.05,168.72 710.05,168.09 711.28,168.09 711.28,168.09 712.51,168.09 712.51,164.30 713.73,164.30 713.73,132.12 714.96,132.12 714.96,125.18 716.19,125.18 716.19,125.18 717.41,125.18 717.41,125.18 718.64,125.18 718.64,125.18 719.87,125.18 719.87,125.18 721.09,125.18 721.09,117.61 722.32,117.61 722.32,117.61 723.55,117.61 723.55,110.67 724.77,110.67 724.77,110.67 726.00,110.67 726.00,110.67 727.23,110.67 727.23,110.67 728.45,110.67 728.45,110.67 729.68,110.67 729.68,110.67 730.91,110.67 730.91,110.67 732.13,110.67 732.13,110.67 733.36,110.67 733.36,110.67 734.59,110.67 734.59,110.67 735.81,110.67 735.81,110.67 737.04,110.67 737.04,110.67 738.27,110.67 738.27,110.67 739.49,110.67 739.49,110.67 740.72,110.67 740.72,110.67 741.95,110.67 741.95,110.67 743.17,110.67 743.17,110.67 744.40,110.67 744.40,110.67 745.63,110.67 745.63,110.67 746.85,110.67 746.85,98.68 748.08,98.68 748.08,98.68 749.31,98.68 749.31,98.68 750.53,98.68 750.53,98.68 751.76,98.68 751.76,98.68 752.99,98.68 752.99,98.68 754.21,98.68 754.21,98.68 755.44,98.68 755.44,98.68 756.67,98.68 756.67,98.68 757.89,98.68 757.89,98.68 759.12,98.68 759.12,98.68 760.35,98.68 760.35,98.68 761.57,98.68 761.57,98.68 762.80,98.68 762.80,98.68 764.03,98.68 764.03,98.68 765.25,98.68 765.25,98.68 766.48,98.68 766.48,98.68 767.71,98.68 767.71,98.68 768.93,98.68 768.93,98.68 770.16,98.68 770.16,98.68 771.39,98.68 771.39,98.68 772.61,98.68 772.61,98.68 773.84,98.68 773.84,89.22 775.07,89.22 775.07,89.22 776.29,89.22 776.29,89.22 777.52,89.22 777.52,89.22 778.75,89.22 778.75,89.22 779.97,89.22 779.97,87.95 781.20,87.95 781.20,73.44 782.43,73.44 782.43,73.44 783.65,73.44 783.65,73.44 784.88,73.44 784.88,73.44 786.11,73.44 786.11,72.81 787.33,72.81 787.33,72.81 788.56,72.81 788.56,65.24 789.79,65.24 789.79,65.24 791.01,65.24 791.01,65.24 792.24,65.24 792.24,65.24 793.47,65.24 793.47,65.24 794.69,65.24 794.69,65.24 795.92,65.24 795.92,65.24 797.15,65.24 797.15,64.61 798.37,64.61 798.37,64.61 799.60,64.61 799.60,64.61 800.83,64.61 800.83,64.61 802.05,64.61 802.05,64.61 803.28,64.61 803.28,48.20 804.51,48.20 804.51,48.20 805.73,48.20 805.73,48.20 806.96,48.20 806.96,40.00 808.19,40.00 808.19,40.00 809.41,40.00 809.41,40.00 810.64,40.00 810.64,40.00 811.87,40.00 811.87,40.00 813.09,40.00 813.09,40.00 814.32,40.00 814.32,40.00 815.55,40.00 815.55,40.00 816.77,40.00 816.77,40.00 818.00,40.00 818.00,40.00" fill="none" stroke="#4b8f29" stroke-width="3"/>
<text x="450.0" y="552" text-anchor="middle" font-size="20" font-family="Arial, sans-serif" fill="#111827">Top displacement (mm)</text>
<text x="24" y="280.0" text-anchor="middle" transform="rotate(-90 24 280.0)" font-size="20" font-family="Arial, sans-serif" fill="#111827">Force magnitude (N)</text>
<text x="880" y="280.0" text-anchor="middle" transform="rotate(90 880 280.0)" font-size="20" font-family="Arial, sans-serif" fill="#111827">Broken bonds</text>
<text x="102" y="64" font-size="18" font-family="Arial, sans-serif" fill="#1b6ca8">Top plate</text>
<text x="212" y="64" font-size="18" font-family="Arial, sans-serif" fill="#d1495b">Bottom plate</text>
<text x="352" y="64" font-size="18" font-family="Arial, sans-serif" fill="#4b8f29">Broken bonds</text>
<text x="72" y="45" text-anchor="end" font-size="17" fill="#30363d">13.47</text>
<text x="72" y="488" text-anchor="end" font-size="17" fill="#30363d">0</text>
<text x="828" y="45" text-anchor="start" font-size="17" fill="#30363d">710</text>
<text x="828" y="488" text-anchor="start" font-size="17" fill="#30363d">0</text>
</svg>
