<svg xmlns="http://www.w3.org/2000/svg" width="900" height="560" viewBox="0 0 900 560">
<rect width="100%" height="100%" fill="white"/>
<text x="450.0" y="26" text-anchor="middle" font-size="22" font-family="Arial, sans-serif" fill="#111827">SP-002 force-displacement and bond breakage</text>
<line x1="82" y1="40.00" x2="818" y2="40.00" stroke="#d9dee2" stroke-width="1"/><line x1="82" y1="129.60" x2="818" y2="129.60" stroke="#d9dee2" stroke-width="1"/><line x1="82" y1="219.20" x2="818" y2="219.20" stroke="#d9dee2" stroke-width="1"/><line x1="82" y1="308.80" x2="818" y2="308.80" stroke="#d9dee2" stroke-width="1"/><line x1="82" y1="398.40" x2="818" y2="398.40" stroke="#d9dee2" stroke-width="1"/><line x1="82" y1="488.00" x2="818" y2="488.00" stroke="#d9dee2" stroke-width="1"/><line x1="82.00" y1="40" x2="82.00" y2="488" stroke="#edf0f2" stroke-width="1"/><text x="82.00" y="526" text-anchor="middle" font-size="18" fill="#30363d">0.000</text><line x1="229.20" y1="40" x2="229.20" y2="488" stroke="#edf0f2" stroke-width="1"/><text x="229.20" y="526" text-anchor="middle" font-size="18" fill="#30363d">0.060</text><line x1="376.40" y1="40" x2="376.40" y2="488" stroke="#edf0f2" stroke-width="1"/><text x="376.40" y="526" text-anchor="middle" font-size="18" fill="#30363d">0.120</text><line x1="523.60" y1="40" x2="523.60" y2="488" stroke="#edf0f2" stroke-width="1"/><text x="523.60" y="526" text-anchor="middle" font-size="18" fill="#30363d">0.180</text><line x1="670.80" y1="40" x2="670.80" y2="488" stroke="#edf0f2" stroke-width="1"/><text x="670.80" y="526" text-anchor="middle" font-size="18" fill="#30363d">0.240</text><line x1="818.00" y1="40" x2="818.00" y2="488" stroke="#edf0f2" stroke-width="1"/><text x="818.00" y="526" text-anchor="middle" font-size="18" fill="#30363d">0.300</text>
<line x1="82" y1="40" x2="82" y2="488" stroke="#111827" stroke-width="1.5"/>
<line x1="82" y1="488" x2="818" y2="488" stroke="#111827" stroke-width="1.5"/>
<line x1="818" y1="40" x2="818" y2="488" stroke="#111827" stroke-width="1.5"/>
<polyline points="82.00,488.00 83.23,488.00 84.45,488.00 85.68,488.00 86.91,488.00 88.13,488.00 89.36,488.00 90.59,488.00 91.81,488.00 93.04,488.00 94.27,488.00 95.49,488.00 96.72,488.00 97.95,488.00 99.17,488.00 100.40,488.00 101.63,488.00 102.85,488.00 104.08,488.00 105.31,488.00 106.53,488.00 107.76,488.00 108.99,488.00 110.21,488.00 111.44,488.00 112.67,488.00 113.89,488.00 115.12,488.00 116.35,488.00 117.57,488.00 118.80,488.00 120.03,488.00 121.25,488.00 122.48,488.00 123.71,488.00 124.93,488.00 126.16,488.00 127.39,488.00 128.61,488.00 129.84,488.00 131.07,488.00 132.29,488.00 133.52,488.00 134.75,488.00 135.97,488.00 137.20,488.00 138.43,488.00 139.65,488.00 140.88,488.00 142.11,488.00 143.33,488.00 144.56,488.00 145.79,488.00 147.01,488.00 148.24,488.00 149.47,488.00 150.69,488.00 151.92,488.00 153.15,488.00 154.37,488.00 155.60,488.00 156.83,488.00 158.05,488.00 159.28,488.00 160.51,488.00 161.73,488.00 162.96,488.00 164.19,488.00 165.41,488.00 166.64,488.00 167.87,488.00 169.09,488.00 170.32,488.00 171.55,488.00 172.77,488.00 174.00,488.00 175.23,488.00 176.45,488.00 177.68,488.00 178.91,488.00 180.13,488.00 181.36,488.00 182.59,488.00 183.81,488.00 185.04,488.00 186.27,488.00 187.49,488.00 188.72,488.00 189.95,488.00 191.17,488.00 192.40,488.00 193.63,488.00 194.85,488.00 196.08,488.00 197.31,488.00 198.53,488.00 199.76,488.00 200.99,488.00 202.21,488.00 203.44,488.00 204.67,488.00 205.89,488.00 207.12,488.00 208.35,488.00 209.57,488.00 210.80,488.00 212.03,488.00 213.25,488.00 214.48,488.00 215.71,488.00 216.93,488.00 218.16,488.00 219.39,488.00 220.61,488.00 221.84,488.00 223.07,488.00 224.29,488.00 225.52,488.00 226.75,488.00 227.97,488.00 229.20,488.00 230.43,488.00 231.65,488.00 232.88,488.00 234.11,488.00 235.33,488.00 236.56,488.00 237.79,488.00 239.01,488.00 240.24,488.00 241.47,488.00 242.69,488.00 243.92,488.00 245.15,488.00 246.37,488.00 247.60,488.00 248.83,488.00 250.05,488.00 251.28,488.00 252.51,488.00 253.73,488.00 254.96,488.00 256.19,488.00 257.41,488.00 258.64,488.00 259.87,488.00 261.09,488.00 262.32,488.00 263.55,488.00 264.77,488.00 266.00,488.00 267.23,488.00 268.45,488.00 269.68,488.00 270.91,488.00 272.13,488.00 273.36,488.00 274.59,488.00 275.81,488.00 277.04,488.00 278.27,488.00 279.49,488.00 280.72,488.00 281.95,488.00 283.17,488.00 284.40,488.00 285.63,488.00 286.85,488.00 288.08,488.00 289.31,488.00 290.53,488.00 291.76,488.00 292.99,488.00 294.21,488.00 295.44,488.00 296.67,488.00 297.89,488.00 299.12,488.00 300.35,488.00 301.57,488.00 302.80,488.00 304.03,488.00 305.25,488.00 306.48,488.00 307.71,488.00 308.93,488.00 310.16,488.00 311.39,488.00 312.61,488.00 313.84,488.00 315.07,488.00 316.29,488.00 317.52,488.00 318.75,488.00 319.97,488.00 321.20,488.00 322.43,488.00 323.65,488.00 324.88,488.00 326.11,488.00 327.33,488.00 328.56,485.86 329.79,482.46 331.01,478.41 332.24,473.91 333.47,469.04 334.69,463.89 335.92,459.34 337.15,454.00 338.37,448.48 339.60,442.79 340.83,436.95 342.05,430.97 343.28,424.88 344.51,422.32 345.73,484.07 346.96,480.11 348.19,476.23 349.41,472.07 350.64,465.97 351.87,458.59 353.09,450.51 354.32,441.91 355.55,432.90 356.77,423.55 358.00,413.90 359.23,403.99 360.45,447.01 361.68,441.82 362.91,436.77 364.13,430.96 365.36,485.23 366.59,482.86 367.81,481.21 369.04,479.50 370.27,477.70 371.49,475.83 372.72,473.16 373.95,469.90 375.17,466.28 376.40,462.36 377.63,458.21 378.85,453.83 380.08,448.57 381.31,441.75 382.53,434.07 383.76,426.22 384.99,417.43 386.21,408.23 387.44,398.86 388.67,402.54 389.89,428.31 391.12,437.78 392.35,438.30 393.57,436.13 394.80,433.03 396.03,430.29 397.25,427.42 398.48,424.17 399.71,420.77 400.93,417.29 402.16,414.67 403.39,410.48 404.61,406.21 405.84,401.81 407.07,397.28 408.29,392.62 409.52,387.82 410.75,382.94 411.97,377.70 413.20,372.83 414.43,367.24 415.65,361.16 416.88,353.43 418.11,345.10 419.33,335.99 420.56,325.75 421.79,344.96 423.01,386.94 424.24,425.87 425.47,440.57 426.69,446.55 427.92,449.00 429.15,449.96 430.37,450.11 431.60,449.68 432.83,448.93 434.05,448.01 435.28,446.99 436.51,445.89 437.73,444.66 438.96,443.36 440.19,442.02 441.41,440.69 442.64,439.40 443.87,438.17 445.09,437.02 446.32,435.45 447.55,433.75 448.77,432.14 450.00,430.10 451.23,427.13 452.45,423.30 453.68,418.69 454.91,413.54 456.13,407.45 457.36,400.41 458.59,392.59 459.81,384.02 461.04,374.89 462.27,365.34 463.49,355.50 464.72,345.40 465.95,334.52 467.17,322.45 468.40,309.54 469.63,296.91 470.85,283.27 472.08,269.17 473.31,254.51 474.53,240.17 475.76,225.00 476.99,209.52 478.21,193.86 479.44,280.02 480.67,322.66 481.89,340.31 483.12,370.10 484.35,376.66 485.57,374.81 486.80,369.96 488.03,363.48 489.25,355.72 490.48,346.78 491.71,336.86 492.93,326.23 494.16,315.06 495.39,303.47 496.61,291.57 497.84,279.40 499.07,266.98 500.29,261.42 501.52,306.62 502.75,307.13 503.97,319.08 505.20,326.45 506.43,330.20 507.65,330.43 508.88,329.20 510.11,326.59 511.33,328.40 512.56,383.52 513.79,390.30 515.01,388.63 516.24,400.73 517.47,408.32 518.69,405.61 519.92,400.70 521.15,394.93 522.37,388.68 523.60,382.35 524.83,375.85 526.05,369.15 527.28,362.29 528.51,355.28 529.73,348.13 530.96,340.85 532.19,336.87 533.41,386.48 534.64,399.76 535.87,405.57 537.09,408.83 538.32,410.57 539.55,411.00 540.77,410.64 542.00,409.59 543.23,408.03 544.45,405.96 545.68,403.24 546.91,400.11 548.13,396.40 549.36,392.00 550.59,386.63 551.81,381.32 553.04,377.53 554.27,372.85 555.49,366.61 556.72,359.53 557.95,351.30 559.17,341.58 560.40,331.18 561.63,320.34 562.85,309.07 564.08,297.47 565.31,285.59 566.53,273.44 567.76,260.95 568.99,247.93 570.21,234.48 571.44,265.43 572.67,250.46 573.89,239.71 575.12,311.33 576.35,300.86 577.57,294.46 578.80,287.74 580.03,280.61 581.25,272.90 582.48,264.34 583.71,254.84 584.93,244.56 586.16,233.67 587.39,223.90 588.61,214.33 589.84,270.61 591.07,260.32 592.29,270.68 593.52,342.34 594.75,323.75 595.97,311.83 597.20,300.06 598.43,287.64 599.65,315.43 600.88,300.08 602.11,286.33 603.33,272.26 604.56,257.82 605.79,242.88 607.01,227.46 608.24,214.12 609.47,197.92 610.69,181.33 611.92,242.28 613.15,320.00 614.37,301.93 615.60,304.78 616.83,301.47 618.05,293.63 619.28,281.17 620.51,273.14 621.73,292.05 622.96,276.15 624.19,321.99 625.41,296.82 626.64,281.82 627.87,266.45 629.09,250.42 630.32,233.88 631.55,216.85 632.77,199.26 634.00,181.19 635.23,162.71 636.45,143.85 637.68,124.58 638.91,104.95 640.13,84.99 641.36,64.69 642.59,44.05 643.81,67.01 645.04,190.72 646.27,225.56 647.49,227.09 648.72,221.07 649.95,212.90 651.17,202.84 652.40,212.76 653.63,221.57 654.85,212.42 656.08,199.80 657.31,186.08 658.53,171.98 659.76,157.55 660.99,142.84 662.21,127.74 663.44,147.94 664.67,139.58 665.89,128.08 667.12,117.52 668.35,123.21 669.57,113.93 670.80,150.90 672.03,168.18 673.25,171.49 674.48,167.44 675.71,166.92 676.93,158.81 678.16,146.82 679.39,133.84 680.61,197.02 681.84,179.78 683.07,166.94 684.29,328.45 685.52,311.16 686.75,300.86 687.97,290.57 689.20,279.83 690.43,268.82 691.65,257.58 692.88,246.10 694.11,234.40 695.33,280.60 696.56,271.82 697.79,264.65 699.01,256.62 700.24,248.31 701.47,240.12 702.69,231.95 703.92,223.48 705.15,214.60 706.37,205.49 707.60,242.79 708.83,345.27 710.05,342.82 711.28,341.81 712.51,337.66 713.73,329.91 714.96,321.36 716.19,311.99 717.41,301.86 718.64,291.27 719.87,280.03 721.09,267.95 722.32,255.18 723.55,241.83 724.77,228.22 726.00,218.44 727.23,205.52 728.45,203.83 729.68,193.25 730.91,211.24 732.13,197.67 733.36,185.47 734.59,170.72 735.81,155.55 737.04,139.81 738.27,188.17 739.49,177.58 740.72,164.68 741.95,151.01 743.17,136.71 744.40,121.41 745.63,105.19 746.85,88.29 748.08,70.86 749.31,57.39 750.53,40.00 751.76,85.40 752.99,79.95 754.21,133.89 755.44,139.82 756.67,149.83 757.89,158.87 759.12,166.69 760.35,173.73 761.57,180.01 762.80,185.27 764.03,185.37 765.25,236.20 766.48,238.68 767.71,240.10 768.93,239.94 770.16,237.21 771.39,231.28 772.61,222.97 773.84,213.37 775.07,203.90 776.29,194.22 777.52,184.03 778.75,173.34 779.97,162.13 781.20,150.54 782.43,170.28 783.65,175.20 784.88,175.32 786.11,194.46 787.33,201.91 788.56,202.62 789.79,202.05 791.01,202.92 792.24,200.41 793.47,195.00 794.69,188.31 795.92,180.67 797.15,172.22 798.37,163.12 799.60,221.83 800.83,215.38 802.05,209.36 803.28,202.12 804.51,194.39 805.73,194.90 806.96,202.96 808.19,188.73 809.41,175.27 810.64,161.21 811.87,146.63 813.09,130.88 814.32,279.19 815.55,377.84 816.77,361.02 818.00,348.19" fill="none" stroke="#1b6ca8" stroke-width="3"/>
<polyline points="82.00,488.00 83.23,488.00 84.45,488.00 85.68,488.00 86.91,488.00 88.13,488.00 89.36,488.00 90.59,488.00 91.81,488.00 93.04,488.00 94.27,488.00 95.49,488.00 96.72,488.00 97.95,488.00 99.17,488.00 100.40,488.00 101.63,488.00 102.85,488.00 104.08,488.00 105.31,488.00 106.53,488.00 107.76,488.00 108.99,488.00 110.21,488.00 111.44,488.00 112.67,488.00 113.89,488.00 115.12,488.00 116.35,488.00 117.57,488.00 118.80,488.00 120.03,488.00 121.25,488.00 122.48,488.00 123.71,488.00 124.93,488.00 126.16,488.00 127.39,488.00 128.61,488.00 129.84,488.00 131.07,488.00 132.29,488.00 133.52,488.00 134.75,488.00 135.97,488.00 137.20,488.00 138.43,488.00 139.65,488.00 140.88,488.00 142.11,488.00 143.33,488.00 144.56,488.00 145.79,488.00 147.01,488.00 148.24,488.00 149.47,488.00 150.69,488.00 151.92,488.00 153.15,488.00 154.37,488.00 155.60,488.00 156.83,488.00 158.05,488.00 159.28,488.00 160.51,488.00 161.73,488.00 162.96,488.00 164.19,488.00 165.41,488.00 166.64,488.00 167.87,488.00 169.09,488.00 170.32,488.00 171.55,488.00 172.77,488.00 174.00,488.00 175.23,488.00 176.45,488.00 177.68,488.00 178.91,488.00 180.13,488.00 181.36,488.00 182.59,488.00 183.81,488.00 185.04,488.00 186.27,488.00 187.49,488.00 188.72,488.00 189.95,488.00 191.17,488.00 192.40,488.00 193.63,488.00 194.85,488.00 196.08,488.00 197.31,488.00 198.53,488.00 199.76,488.00 200.99,488.00 202.21,488.00 203.44,488.00 204.67,488.00 205.89,488.00 207.12,488.00 208.35,488.00 209.57,488.00 210.80,488.00 212.03,488.00 213.25,488.00 214.48,488.00 215.71,488.00 216.93,488.00 218.16,488.00 219.39,488.00 220.61,488.00 221.84,488.00 223.07,488.00 224.29,488.00 225.52,488.00 226.75,488.00 227.97,488.00 229.20,488.00 230.43,488.00 231.65,488.00 232.88,488.00 234.11,488.00 235.33,488.00 236.56,488.00 237.79,488.00 239.01,488.00 240.24,488.00 241.47,488.00 242.69,488.00 243.92,488.00 245.15,488.00 246.37,488.00 247.60,488.00 248.83,488.00 250.05,488.00 251.28,488.00 252.51,488.00 253.73,488.00 254.96,488.00 256.19,488.00 257.41,488.00 258.64,488.00 259.87,488.00 261.09,488.00 262.32,488.00 263.55,488.00 264.77,488.00 266.00,488.00 267.23,488.00 268.45,488.00 269.68,488.00 270.91,488.00 272.13,488.00 273.36,488.00 274.59,488.00 275.81,488.00 277.04,488.00 278.27,488.00 279.49,488.00 280.72,488.00 281.95,488.00 283.17,488.00 284.40,488.00 285.63,488.00 286.85,488.00 288.08,488.00 289.31,488.00 290.53,488.00 291.76,488.00 292.99,488.00 294.21,488.00 295.44,488.00 296.67,488.00 297.89,488.00 299.12,488.00 300.35,488.00 301.57,488.00 302.80,488.00 304.03,488.00 305.25,488.00 306.48,488.00 307.71,488.00 308.93,488.00 310.16,488.00 311.39,488.00 312.61,488.00 313.84,488.00 315.07,488.00 316.29,488.00 317.52,488.00 318.75,488.00 319.97,488.00 321.20,488.00 322.43,488.00 323.65,488.00 324.88,488.00 326.11,488.00 327.33,488.00 328.56,486.78 329.79,483.81 331.01,480.01 332.24,475.67 333.47,470.95 334.69,465.91 335.92,461.22 337.15,456.08 338.37,450.64 339.60,445.01 340.83,439.23 342.05,433.31 343.28,427.26 344.51,423.79 345.73,477.70 346.96,481.09 348.19,477.73 349.41,473.71 350.64,468.45 351.87,461.49 353.09,453.67 354.32,445.27 355.55,436.42 356.77,427.20 358.00,417.66 359.23,407.85 360.45,443.60 361.68,443.52 362.91,438.83 364.13,433.36 365.36,457.82 366.59,481.87 367.81,481.79 369.04,480.21 370.27,478.45 371.49,476.60 372.72,474.27 373.95,471.21 375.17,467.72 376.40,463.92 377.63,459.86 378.85,455.58 380.08,450.79 381.31,444.46 382.53,437.11 383.76,429.43 384.99,420.87 386.21,411.83 387.44,412.67 388.67,422.83 389.89,472.35 391.12,456.75 392.35,449.28 393.57,444.66 394.80,440.86 396.03,438.98 397.25,435.52 398.48,432.05 399.71,428.58 400.93,425.08 402.16,421.40 403.39,417.42 404.61,413.12 405.84,408.67 407.07,404.09 408.29,399.40 409.52,394.59 410.75,389.64 411.97,384.48 413.20,379.28 414.43,373.88 415.65,368.13 416.88,361.18 418.11,354.03 419.33,344.75 420.56,334.76 421.79,363.65 423.01,485.21 424.24,477.60 425.47,472.72 426.69,469.71 427.92,467.72 429.15,467.07 430.37,465.86 431.60,464.81 432.83,463.84 434.05,462.90 435.28,461.97 436.51,460.77 437.73,459.35 438.96,457.91 440.19,456.51 441.41,455.17 442.64,453.91 443.87,452.73 445.09,451.65 446.32,450.60 447.55,449.45 448.77,448.20 450.00,445.32 451.23,441.61 452.45,437.34 453.68,432.46 454.91,426.81 456.13,419.82 457.36,412.05 458.59,403.57 459.81,394.55 461.04,385.22 462.27,375.57 463.49,365.69 464.72,355.48 465.95,343.84 467.17,331.12 468.40,317.97 469.63,306.10 470.85,291.64 472.08,277.59 473.31,263.92 474.53,248.52 475.76,233.26 476.99,217.76 478.21,202.04 479.44,331.97 480.67,341.82 481.89,398.73 483.12,395.22 484.35,392.21 485.57,387.34 486.80,381.20 488.03,373.97 489.25,365.71 490.48,356.43 491.71,346.29 492.93,335.55 494.16,324.30 495.39,312.67 496.61,300.73 497.84,288.53 499.07,276.08 500.29,267.05 501.52,302.95 502.75,309.06 503.97,320.35 505.20,327.85 506.43,332.65 507.65,334.36 508.88,333.84 510.11,331.91 511.33,335.36 512.56,409.47 513.79,403.24 515.01,398.74 516.24,434.39 517.47,420.50 518.69,414.14 519.92,408.65 521.15,402.74 522.37,396.39 523.60,389.79 524.83,383.12 526.05,376.32 527.28,369.39 528.51,362.33 529.73,355.14 530.96,347.81 532.19,345.82 533.41,413.37 534.64,413.74 535.87,416.40 537.09,418.47 538.32,419.04 539.55,418.67 540.77,418.10 542.00,417.29 543.23,415.92 544.45,413.88 545.68,411.05 546.91,407.72 548.13,403.68 549.36,398.95 550.59,393.26 551.81,389.74 553.04,386.64 554.27,380.05 555.49,372.82 556.72,365.44 557.95,357.54 559.17,348.25 560.40,338.04 561.63,327.36 562.85,316.22 564.08,304.72 565.31,292.90 566.53,280.80 567.76,268.15 568.99,254.99 570.21,241.50 571.44,269.16 572.67,258.69 573.89,245.89 575.12,304.25 576.35,310.17 577.57,304.62 578.80,298.00 580.03,290.96 581.25,282.30 582.48,273.06 583.71,263.17 584.93,252.59 586.16,241.47 587.39,231.20 588.61,221.42 589.84,273.77 591.07,266.67 592.29,274.71 593.52,330.00 594.75,329.97 595.97,319.58 597.20,307.86 598.43,295.38 599.65,317.48 600.88,307.31 602.11,293.64 603.33,279.53 604.56,265.04 605.79,250.12 607.01,234.71 608.24,220.65 609.47,204.94 610.69,188.32 611.92,244.11 613.15,258.72 614.37,303.66 615.60,309.24 616.83,307.95 618.05,300.80 619.28,288.57 620.51,273.44 621.73,297.88 622.96,283.54 624.19,277.82 625.41,303.42 626.64,289.57 627.87,274.01 629.09,257.93 630.32,241.36 631.55,224.27 632.77,206.61 634.00,188.52 635.23,170.03 636.45,151.12 637.68,131.83 638.91,112.18 640.13,92.21 641.36,71.91 642.59,51.23 643.81,99.84 645.04,224.55 646.27,239.39 647.49,236.35 648.72,230.75 649.95,222.76 651.17,212.69 652.40,256.37 653.63,236.78 654.85,223.68 656.08,210.19 657.31,196.09 658.53,181.88 659.76,167.27 660.99,152.42 662.21,137.22 663.44,158.50 664.67,149.10 665.89,140.10 667.12,126.83 668.35,139.50 669.57,123.83 670.80,163.51 672.03,188.92 673.25,185.25 674.48,180.78 675.71,182.60 676.93,169.68 678.16,156.77 679.39,143.14 680.61,191.87 681.84,187.66 683.07,174.87 684.29,311.21 685.52,315.39 686.75,308.00 687.97,298.42 689.20,287.89 690.43,276.89 691.65,265.66 692.88,254.20 694.11,242.51 695.33,274.64 696.56,274.84 697.79,270.10 699.01,263.62 700.24,256.00 701.47,247.99 702.69,239.87 703.92,231.20 705.15,222.14 706.37,212.93 707.60,233.08 708.83,325.76 710.05,347.64 711.28,347.93 712.51,343.97 713.73,337.85 714.96,329.65 716.19,320.40 717.41,310.34 718.64,299.69 719.87,288.31 721.09,276.01 722.32,263.15 723.55,249.75 724.77,236.26 726.00,222.75 727.23,213.30 728.45,209.87 729.68,201.10 730.91,218.18 732.13,206.09 733.36,192.91 734.59,179.07 735.81,163.98 737.04,148.24 738.27,196.45 739.49,185.97 740.72,172.83 741.95,159.21 743.17,144.92 744.40,129.62 745.63,113.41 746.85,96.52 748.08,79.24 749.31,65.71 750.53,48.52 751.76,98.05 752.99,90.27 754.21,130.03 755.44,151.10 756.67,161.36 757.89,170.19 759.12,177.86 760.35,184.81 761.57,191.01 762.80,194.91 764.03,194.22 765.25,240.97 766.48,247.20 767.71,249.01 768.93,248.92 770.16,247.03 771.39,241.09 772.61,232.63 773.84,222.84 775.07,212.82 776.29,202.84 777.52,192.38 778.75,181.47 779.97,170.00 781.20,158.20 782.43,182.95 783.65,183.61 784.88,182.30 786.11,201.16 787.33,209.47 788.56,210.78 789.79,210.09 791.01,209.27 792.24,207.07 793.47,202.83 794.69,196.74 795.92,189.50 797.15,181.31 798.37,170.04 799.60,209.97 800.83,223.51 802.05,218.18 803.28,210.91 804.51,203.16 805.73,197.20 806.96,207.10 808.19,195.99 809.41,182.78 810.64,168.68 811.87,154.03 813.09,139.26 814.32,189.78 815.55,318.93 816.77,352.43 818.00,352.37" fill="none" stroke="#d1495b" stroke-width="3"/>
<polyline points="82.00,488.00 83.23,488.00 83.23,488.00 84.45,488.00 84.45,488.00 85.68,488.00 85.68,488.00 86.91,488.00 86.91,488.00 88.13,488.00 88.13,488.00 89.36,488.00 89.36,488.00 90.59,488.00 90.59,488.00 91.81,488.00 91.81,488.00 93.04,488.00 93.04,488.00 94.27,488.00 94.27,488.00 95.49,488.00 95.49,488.00 96.72,488.00 96.72,488.00 97.95,488.00 97.95,488.00 99.17,488.00 99.17,488.00 100.40,488.00 100.40,488.00 101.63,488.00 101.63,488.00 102.85,488.00 102.85,488.00 104.08,488.00 104.08,488.00 105.31,488.00 105.31,488.00 106.53,488.00 106.53,488.00 107.76,488.00 107.76,488.00 108.99,488.00 108.99,488.00 110.21,488.00 110.21,488.00 111.44,488.00 111.44,488.00 112.67,488.00 112.67,488.00 113.89,488.00 113.89,488.00 115.12,488.00 115.12,488.00 116.35,488.00 116.35,488.00 117.57,488.00 117.57,488.00 118.80,488.00 118.80,488.00 120.03,488.00 120.03,488.00 121.25,488.00 121.25,488.00 122.48,488.00 122.48,488.00 123.71,488.00 123.71,488.00 124.93,488.00 124.93,488.00 126.16,488.00 126.16,488.00 127.39,488.00 127.39,488.00 128.61,488.00 128.61,488.00 129.84,488.00 129.84,488.00 131.07,488.00 131.07,488.00 132.29,488.00 132.29,488.00 133.52,488.00 133.52,488.00 134.75,488.00 134.75,488.00 135.97,488.00 135.97,488.00 137.20,488.00 137.20,488.00 138.43,488.00 138.43,488.00 139.65,488.00 139.65,488.00 140.88,488.00 140.88,488.00 142.11,488.00 142.11,488.00 143.33,488.00 143.33,488.00 144.56,488.00 144.56,488.00 145.79,488.00 145.79,488.00 147.01,488.00 147.01,488.00 148.24,488.00 148.24,488.00 149.47,488.00 149.47,488.00 150.69,488.00 150.69,488.00 151.92,488.00 151.92,488.00 153.15,488.00 153.15,488.00 154.37,488.00 154.37,488.00 155.60,488.00 155.60,488.00 156.83,488.00 156.83,488.00 158.05,488.00 158.05,488.00 159.28,488.00 159.28,488.00 160.51,488.00 160.51,488.00 161.73,488.00 161.73,488.00 162.96,488.00 162.96,488.00 164.19,488.00 164.19,488.00 165.41,488.00 165.41,488.00 166.64,488.00 166.64,488.00 167.87,488.00 167.87,488.00 169.09,488.00 169.09,488.00 170.32,488.00 170.32,488.00 171.55,488.00 171.55,488.00 172.77,488.00 172.77,488.00 174.00,488.00 174.00,488.00 175.23,488.00 175.23,488.00 176.45,488.00 176.45,488.00 177.68,488.00 177.68,488.00 178.91,488.00 178.91,488.00 180.13,488.00 180.13,488.00 181.36,488.00 181.36,488.00 182.59,488.00 182.59,488.00 183.81,488.00 183.81,488.00 185.04,488.00 185.04,488.00 186.27,488.00 186.27,488.00 187.49,488.00 187.49,488.00 188.72,488.00 188.72,488.00 189.95,488.00 189.95,488.00 191.17,488.00 191.17,488.00 192.40,488.00 192.40,488.00 193.63,488.00 193.63,488.00 194.85,488.00 194.85,488.00 196.08,488.00 196.08,488.00 197.31,488.00 197.31,488.00 198.53,488.00 198.53,488.00 199.76,488.00 199.76,488.00 200.99,488.00 200.99,488.00 202.21,488.00 202.21,488.00 203.44,488.00 203.44,488.00 204.67,488.00 204.67,488.00 205.89,488.00 205.89,488.00 207.12,488.00 207.12,488.00 208.35,488.00 208.35,488.00 209.57,488.00 209.57,488.00 210.80,488.00 210.80,488.00 212.03,488.00 212.03,488.00 213.25,488.00 213.25,488.00 214.48,488.00 214.48,488.00 215.71,488.00 215.71,488.00 216.93,488.00 216.93,488.00 218.16,488.00 218.16,488.00 219.39,488.00 219.39,488.00 220.61,488.00 220.61,488.00 221.84,488.00 221.84,488.00 223.07,488.00 223.07,488.00 224.29,488.00 224.29,488.00 225.52,488.00 225.52,488.00 226.75,488.00 226.75,488.00 227.97,488.00 227.97,488.00 229.20,488.00 229.20,488.00 230.43,488.00 230.43,488.00 231.65,488.00 231.65,488.00 232.88,488.00 232.88,488.00 234.11,488.00 234.11,488.00 235.33,488.00 235.33,488.00 236.56,488.00 236.56,488.00 237.79,488.00 237.79,488.00 239.01,488.00 239.01,488.00 240.24,488.00 240.24,488.00 241.47,488.00 241.47,488.00 242.69,488.00 242.69,488.00 243.92,488.00 243.92,488.00 245.15,488.00 245.15,488.00 246.37,488.00 246.37,488.00 247.60,488.00 247.60,488.00 248.83,488.00 248.83,488.00 250.05,488.00 250.05,488.00 251.28,488.00 251.28,488.00 252.51,488.00 252.51,488.00 253.73,488.00 253.73,488.00 254.96,488.00 254.96,488.00 256.19,488.00 256.19,488.00 257.41,488.00 257.41,488.00 258.64,488.00 258.64,488.00 259.87,488.00 259.87,488.00 261.09,488.00 261.09,488.00 262.32,488.00 262.32,488.00 263.55,488.00 263.55,488.00 264.77,488.00 264.77,488.00 266.00,488.00 266.00,488.00 267.23,488.00 267.23,488.00 268.45,488.00 268.45,488.00 269.68,488.00 269.68,488.00 270.91,488.00 270.91,488.00 272.13,488.00 272.13,488.00 273.36,488.00 273.36,488.00 274.59,488.00 274.59,488.00 275.81,488.00 275.81,488.00 277.04,488.00 277.04,488.00 278.27,488.00 278.27,488.00 279.49,488.00 279.49,488.00 280.72,488.00 280.72,488.00 281.95,488.00 281.95,488.00 283.17,488.00 283.17,488.00 284.40,488.00 284.40,488.00 285.63,488.00 285.63,488.00 286.85,488.00 286.85,488.00 288.08,488.00 288.08,488.00 289.31,488.00 289.31,488.00 290.53,488.00 290.53,488.00 291.76,488.00 291.76,488.00 292.99,488.00 292.99,488.00 294.21,488.00 294.21,488.00 295.44,488.00 295.44,488.00 296.67,488.00 296.67,488.00 297.89,488.00 297.89,488.00 299.12,488.00 299.12,488.00 300.35,488.00 300.35,488.00 301.57,488.00 301.57,488.00 302.80,488.00 302.80,488.00 304.03,488.00 304.03,488.00 305.25,488.00 305.25,488.00 306.48,488.00 306.48,488.00 307.71,488.00 307.71,488.00 308.93,488.00 308.93,488.00 310.16,488.00 310.16,488.00 311.39,488.00 311.39,488.00 312.61,488.00 312.61,488.00 313.84,488.00 313.84,488.00 315.07,488.00 315.07,488.00 316.29,488.00 316.29,488.00 317.52,488.00 317.52,488.00 318.75,488.00 318.75,488.00 319.97,488.00 319.97,488.00 321.20,488.00 321.20,488.00 322.43,488.00 322.43,488.00 323.65,488.00 323.65,488.00 324.88,488.00 324.88,488.00 326.11,488.00 326.11,488.00 327.33,488.00 327.33,488.00 328.56,488.00 328.56,488.00 329.79,488.00 329.79,488.00 331.01,488.00 331.01,488.00 332.24,488.00 332.24,488.00 333.47,488.00 333.47,488.00 334.69,488.00 334.69,488.00 335.92,488.00 335.92,487.44 337.15,487.44 337.15,487.44 338.37,487.44 338.37,487.44 339.60,487.44 339.60,487.44 340.83,487.44 340.83,487.44 342.05,487.44 342.05,487.44 343.28,487.44 343.28,487.44 344.51,487.44 344.51,486.88 345.73,486.88 345.73,479.60 346.96,479.60 346.96,479.60 348.19,479.60 348.19,479.60 349.41,479.60 349.41,479.60 350.64,479.60 350.64,479.60 351.87,479.60 351.87,479.60 353.09,479.60 353.09,479.60 354.32,479.60 354.32,479.60 355.55,479.60 355.55,479.60 356.77,479.60 356.77,479.60 358.00,479.60 358.00,479.60 359.23,479.60 359.23,479.60 360.45,479.60 360.45,474.00 361.68,474.00 361.68,474.00 362.91,474.00 362.91,474.00 364.13,474.00 364.13,474.00 365.36,474.00 365.36,468.40 366.59,468.40 366.59,468.40 367.81,468.40 367.81,468.40 369.04,468.40 369.04,468.40 370.27,468.40 370.27,468.40 371.49,468.40 371.49,468.40 372.72,468.40 372.72,468.40 373.95,468.40 373.95,468.40 375.17,468.40 375.17,468.40 376.40,468.40 376.40,468.40 377.63,468.40 377.63,468.40 378.85,468.40 378.85,468.40 380.08,468.40 380.08,468.40 381.31,468.40 381.31,468.40 382.53,468.40 382.53,468.40 383.76,468.40 383.76,467.84 384.99,467.84 384.99,467.84 386.21,467.84 386.21,467.84 387.44,467.84 387.44,467.84 388.67,467.84 388.67,467.84 389.89,467.84 389.89,467.84 391.12,467.84 391.12,467.84 392.35,467.84 392.35,467.84 393.57,467.84 393.57,467.84 394.80,467.84 394.80,467.84 396.03,467.84 396.03,466.72 397.25,466.72 397.25,466.72 398.48,466.72 398.48,466.72 399.71,466.72 399.71,466.72 400.93,466.72 400.93,466.72 402.16,466.72 402.16,465.04 403.39,465.04 403.39,465.04 404.61,465.04 404.61,465.04 405.84,465.04 405.84,465.04 407.07,465.04 407.07,465.04 408.29,465.04 408.29,465.04 409.52,465.04 409.52,465.04 410.75,465.04 410.75,464.48 411.97,464.48 411.97,464.48 413.20,464.48 413.20,462.80 414.43,462.80 414.43,462.24 415.65,462.24 415.65,461.68 416.88,461.68 416.88,461.68 418.11,461.68 418.11,460.00 419.33,460.00 419.33,460.00 420.56,460.00 420.56,460.00 421.79,460.00 421.79,451.04 423.01,451.04 423.01,437.60 424.24,437.60 424.24,437.60 425.47,437.60 425.47,437.60 426.69,437.60 426.69,437.60 427.92,437.60 427.92,437.60 429.15,437.60 429.15,436.48 430.37,436.48 430.37,436.48 431.60,436.48 431.60,436.48 432.83,436.48 432.83,436.48 434.05,436.48 434.05,436.48 435.28,436.48 435.28,436.48 436.51,436.48 436.51,436.48 437.73,436.48 437.73,436.48 438.96,436.48 438.96,436.48 440.19,436.48 440.19,436.48 441.41,436.48 441.41,436.48 442.64,436.48 442.64,436.48 443.87,436.48 443.87,436.48 445.09,436.48 445.09,436.48 446.32,436.48 446.32,436.48 447.55,436.48 447.55,436.48 448.77,436.48 448.77,436.48 450.00,436.48 450.00,436.48 451.23,436.48 451.23,436.48 452.45,436.48 452.45,436.48 453.68,436.48 453.68,436.48 454.91,436.48 454.91,436.48 456.13,436.48 456.13,436.48 457.36,436.48 457.36,436.48 458.59,436.48 458.59,436.48 459.81,436.48 459.81,436.48 461.04,436.48 461.04,436.48 462.27,436.48 462.27,436.48 463.49,436.48 463.49,436.48 464.72,436.48 464.72,436.48 465.95,436.48 465.95,436.48 467.17,436.48 467.17,436.48 468.40,436.48 468.40,436.48 469.63,436.48 469.63,435.92 470.85,435.92 470.85,435.92 472.08,435.92 472.08,435.36 473.31,435.36 473.31,434.80 474.53,434.80 474.53,434.80 475.76,434.80 475.76,434.80 476.99,434.80 476.99,434.80 478.21,434.80 478.21,434.80 479.44,434.80 479.44,413.52 480.67,413.52 480.67,409.60 481.89,409.60 481.89,404.00 483.12,404.00 483.12,404.00 484.35,404.00 484.35,404.00 485.57,404.00 485.57,404.00 486.80,404.00 486.80,404.00 488.03,404.00 488.03,404.00 489.25,404.00 489.25,404.00 490.48,404.00 490.48,404.00 491.71,404.00 491.71,404.00 492.93,404.00 492.93,404.00 494.16,404.00 494.16,404.00 495.39,404.00 495.39,404.00 496.61,404.00 496.61,404.00 497.84,404.00 497.84,404.00 499.07,404.00 499.07,404.00 500.29,404.00 500.29,402.32 501.52,402.32 501.52,392.80 502.75,392.80 502.75,362.00 503.97,362.00 503.97,353.04 505.20,353.04 505.20,352.48 506.43,352.48 506.43,351.92 507.65,351.92 507.65,351.92 508.88,351.92 508.88,351.92 510.11,351.92 510.11,351.92 511.33,351.92 511.33,351.36 512.56,351.36 512.56,342.96 513.79,342.96 513.79,342.96 515.01,342.96 515.01,342.96 516.24,342.96 516.24,336.80 517.47,336.80 517.47,336.80 518.69,336.80 518.69,336.80 519.92,336.80 519.92,336.80 521.15,336.80 521.15,336.80 522.37,336.80 522.37,336.80 523.60,336.80 523.60,336.80 524.83,336.80 524.83,336.80 526.05,336.80 526.05,336.80 527.28,336.80 527.28,336.80 528.51,336.80 528.51,336.80 529.73,336.80 529.73,336.80 530.96,336.80 530.96,336.80 532.19,336.80 532.19,335.68 533.41,335.68 533.41,330.08 534.64,330.08 534.64,330.08 535.87,330.08 535.87,330.08 537.09,330.08 537.09,330.08 538.32,330.08 538.32,330.08 539.55,330.08 539.55,330.08 540.77,330.08 540.77,330.08 542.00,330.08 542.00,330.08 543.23,330.08 543.23,330.08 544.45,330.08 544.45,330.08 545.68,330.08 545.68,330.08 546.91,330.08 546.91,330.08 548.13,330.08 548.13,330.08 549.36,330.08 549.36,330.08 550.59,330.08 550.59,330.08 551.81,330.08 551.81,330.08 553.04,330.08 553.04,330.08 554.27,330.08 554.27,330.08 555.49,330.08 555.49,330.08 556.72,330.08 556.72,330.08 557.95,330.08 557.95,330.08 559.17,330.08 559.17,330.08 560.40,330.08 560.40,330.08 561.63,330.08 561.63,330.08 562.85,330.08 562.85,330.08 564.08,330.08 564.08,330.08 565.31,330.08 565.31,330.08 566.53,330.08 566.53,330.08 567.76,330.08 567.76,330.08 568.99,330.08 568.99,330.08 570.21,330.08 570.21,330.08 571.44,330.08 571.44,322.24 572.67,322.24 572.67,321.68 573.89,321.68 573.89,320.56 575.12,320.56 575.12,313.28 576.35,313.28 576.35,313.28 577.57,313.28 577.57,313.28 578.80,313.28 578.80,313.28 580.03,313.28 580.03,313.28 581.25,313.28 581.25,313.28 582.48,313.28 582.48,313.28 583.71,313.28 583.71,313.28 584.93,313.28 584.93,313.28 586.16,313.28 586.16,313.28 587.39,313.28 587.39,312.72 588.61,312.72 588.61,312.16 589.84,312.16 589.84,304.32 591.07,304.32 591.07,303.76 592.29,303.76 592.29,300.40 593.52,300.40 593.52,292.00 594.75,292.00 594.75,292.00 595.97,292.00 595.97,292.00 597.20,292.00 597.20,292.00 598.43,292.00 598.43,292.00 599.65,292.00 599.65,284.16 600.88,284.16 600.88,284.16 602.11,284.16 602.11,284.16 603.33,284.16 603.33,284.16 604.56,284.16 604.56,284.16 605.79,284.16 605.79,284.16 607.01,284.16 607.01,284.16 608.24,284.16 608.24,283.60 609.47,283.60 609.47,283.60 610.69,283.60 610.69,283.60 611.92,283.60 611.92,276.32 613.15,276.32 613.15,267.92 614.37,267.92 614.37,267.92 615.60,267.92 615.60,267.92 616.83,267.92 616.83,267.92 618.05,267.92 618.05,267.92 619.28,267.92 619.28,267.92 620.51,267.92 620.51,265.12 621.73,265.12 621.73,259.52 622.96,259.52 622.96,259.52 624.19,259.52 624.19,253.92 625.41,253.92 625.41,253.92 626.64,253.92 626.64,253.92 627.87,253.92 627.87,253.92 629.09,253.92 629.09,253.92 630.32,253.92 630.32,253.92 631.55,253.92 631.55,253.92 632.77,253.92 632.77,253.92 634.00,253.92 634.00,253.92 635.23,253.92 635.23,253.92 636.45,253.92 636.45,253.92 637.68,253.92 637.68,253.92 638.91,253.92 638.91,253.92 640.13,253.92 640.13,253.92 641.36,253.92 641.36,253.92 642.59,253.92 642.59,253.92 643.81,253.92 643.81,244.40 645.04,244.40 645.04,225.92 646.27,225.92 646.27,223.12 647.49,223.12 647.49,223.12 648.72,223.12 648.72,223.12 649.95,223.12 649.95,223.12 651.17,223.12 651.17,223.12 652.40,223.12 652.40,214.72 653.63,214.72 653.63,214.16 654.85,214.16 654.85,214.16 656.08,214.16 656.08,214.16 657.31,214.16 657.31,214.16 658.53,214.16 658.53,214.16 659.76,214.16 659.76,214.16 660.99,214.16 660.99,214.16 662.21,214.16 662.21,214.16 663.44,214.16 663.44,205.20 664.67,205.20 664.67,205.20 665.89,205.20 665.89,204.64 667.12,204.64 667.12,204.64 668.35,204.64 668.35,199.60 669.57,199.60 669.57,199.60 670.80,199.60 670.80,192.32 672.03,192.32 672.03,192.32 673.25,192.32 673.25,192.32 674.48,192.32 674.48,192.32 675.71,192.32 675.71,192.32 676.93,192.32 676.93,192.32 678.16,192.32 678.16,192.32 679.39,192.32 679.39,192.32 680.61,192.32 680.61,184.48 681.84,184.48 681.84,184.48 683.07,184.48 683.07,184.48 684.29,184.48 684.29,158.72 685.52,158.72 685.52,158.72 686.75,158.72 686.75,158.72 687.97,158.72 687.97,158.72 689.20,158.72 689.20,158.72 690.43,158.72 690.43,158.72 691.65,158.72 691.65,158.72 692.88,158.72 692.88,158.72 694.11,158.72 694.11,158.72 695.33,158.72 695.33,152.00 696.56,152.00 696.56,152.00 697.79,152.00 697.79,152.00 699.01,152.00 699.01,152.00 700.24,152.00 700.24,152.00 701.47,152.00 701.47,152.00 702.69,152.00 702.69,152.00 703.92,152.00 703.92,152.00 705.15,152.00 705.15,152.00 706.37,152.00 706.37,152.00 707.60,152.00 707.60,144.16 708.83,144.16 708.83,133.52 710.05,133.52 710.05,133.52 711.28,133.52 711.28,133.52 712.51,133.52 712.51,133.52 713.73,133.52 713.73,133.52 714.96,133.52 714.96,133.52 716.19,133.52 716.19,133.52 717.41,133.52 717.41,133.52 718.64,133.52 718.64,133.52 719.87,133.52 719.87,133.52 721.09,133.52 721.09,133.52 722.32,133.52 722.32,133.52 723.55,133.52 723.55,133.52 724.77,133.52 724.77,133.52 726.00,133.52 726.00,132.96 727.23,132.96 727.23,132.96 728.45,132.96 728.45,131.28 729.68,131.28 729.68,131.28 730.91,131.28 730.91,123.44 732.13,123.44 732.13,123.44 733.36,123.44 733.36,122.88 734.59,122.88 734.59,122.88 735.81,122.88 735.81,122.88 737.04,122.88 737.04,122.88 738.27,122.88 738.27,115.04 739.49,115.04 739.49,115.04 740.72,115.04 740.72,115.04 741.95,115.04 741.95,115.04 743.17,115.04 743.17,115.04 744.40,115.04 744.40,115.04 745.63,115.04 745.63,115.04 746.85,115.04 746.85,115.04 748.08,115.04 748.08,115.04 749.31,115.04 749.31,113.36 750.53,113.36 750.53,113.36 751.76,113.36 751.76,106.08 752.99,106.08 752.99,106.08 754.21,106.08 754.21,98.80 755.44,98.80 755.44,98.80 756.67,98.80 756.67,98.80 757.89,98.80 757.89,98.80 759.12,98.80 759.12,98.80 760.35,98.80 760.35,98.80 761.57,98.80 761.57,98.80 762.80,98.80 762.80,98.80 764.03,98.80 764.03,98.80 765.25,98.80 765.25,92.08 766.48,92.08 766.48,92.08 767.71,92.08 767.71,92.08 768.93,92.08 768.93,92.08 770.16,92.08 770.16,92.08 771.39,92.08 771.39,92.08 772.61,92.08 772.61,92.08 773.84,92.08 773.84,92.08 775.07,92.08 775.07,92.08 776.29,92.08 776.29,92.08 777.52,92.08 777.52,92.08 778.75,92.08 778.75,92.08 779.97,92.08 779.97,92.08 781.20,92.08 781.20,92.08 782.43,92.08 782.43,87.60 783.65,87.60 783.65,87.04 784.88,87.04 784.88,85.92 786.11,85.92 786.11,82.00 787.33,82.00 787.33,81.44 788.56,81.44 788.56,81.44 789.79,81.44 789.79,81.44 791.01,81.44 791.01,81.44 792.24,81.44 792.24,81.44 793.47,81.44 793.47,81.44 794.69,81.44 794.69,81.44 795.92,81.44 795.92,81.44 797.15,81.44 797.15,81.44 798.37,81.44 798.37,80.88 799.60,80.88 799.60,72.48 800.83,72.48 800.83,72.48 802.05,72.48 802.05,72.48 803.28,72.48 803.28,72.48 804.51,72.48 804.51,72.48 805.73,72.48 805.73,72.48 806.96,72.48 806.96,72.48 808.19,72.48 808.19,72.48 809.41,72.48 809.41,72.48 810.64,72.48 810.64,72.48 811.87,72.48 811.87,72.48 813.09,72.48 813.09,71.92 814.32,71.92 814.32,55.12 815.55,55.12 815.55,40.00 816.77,40.00 816.77,40.00 818.00,40.00 818.00,40.00" fill="none" stroke="#4b8f29" stroke-width="3"/>
<text x="450.0" y="552" text-anchor="middle" font-size="20" font-family="Arial, sans-serif" fill="#111827">Top displacement (mm)</text>
<text x="24" y="280.0" text-anchor="middle" transform="rotate(-90 24 280.0)" font-size="20" font-family="Arial, sans-serif" fill="#111827">Force magnitude (N)</text>
<text x="880" y="280.0" text-anchor="middle" transform="rotate(90 880 280.0)" font-size="20" font-family="Arial, sans-serif" fill="#111827">Broken bonds</text>
<text x="102" y="64" font-size="18" font-family="Arial, sans-serif" fill="#1b6ca8">Top plate</text>
<text x="212" y="64" font-size="18" font-family="Arial, sans-serif" fill="#d1495b">Bottom plate</text>
<text x="352" y="64" font-size="18" font-family="Arial, sans-serif" fill="#4b8f29">Broken bonds</text>
<text x="72" y="45" text-anchor="end" font-size="17" fill="#30363d">25.99</text>
<text x="72" y="488" text-anchor="end" font-size="17" fill="#30363d">0</text>
<text x="828" y="45" text-anchor="start" font-size="17" fill="#30363d">800</text>
<text x="828" y="488" text-anchor="start" font-size="17" fill="#30363d">0</text>
</svg>
