<svg xmlns="http://www.w3.org/2000/svg" width="900" height="560" viewBox="0 0 900 560">
<rect width="100%" height="100%" fill="white"/>
<text x="450.0" y="26" text-anchor="middle" font-size="22" font-family="Arial, sans-serif" fill="#111827">SP-002 force-displacement and bond breakage</text>
<line x1="82" y1="40.00" x2="818" y2="40.00" stroke="#d9dee2" stroke-width="1"/><line x1="82" y1="129.60" x2="818" y2="129.60" stroke="#d9dee2" stroke-width="1"/><line x1="82" y1="219.20" x2="818" y2="219.20" stroke="#d9dee2" stroke-width="1"/><line x1="82" y1="308.80" x2="818" y2="308.80" stroke="#d9dee2" stroke-width="1"/><line x1="82" y1="398.40" x2="818" y2="398.40" stroke="#d9dee2" stroke-width="1"/><line x1="82" y1="488.00" x2="818" y2="488.00" stroke="#d9dee2" stroke-width="1"/><line x1="82.00" y1="40" x2="82.00" y2="488" stroke="#edf0f2" stroke-width="1"/><text x="82.00" y="526" text-anchor="middle" font-size="18" fill="#30363d">0.000</text><line x1="229.20" y1="40" x2="229.20" y2="488" stroke="#edf0f2" stroke-width="1"/><text x="229.20" y="526" text-anchor="middle" font-size="18" fill="#30363d">0.060</text><line x1="376.40" y1="40" x2="376.40" y2="488" stroke="#edf0f2" stroke-width="1"/><text x="376.40" y="526" text-anchor="middle" font-size="18" fill="#30363d">0.120</text><line x1="523.60" y1="40" x2="523.60" y2="488" stroke="#edf0f2" stroke-width="1"/><text x="523.60" y="526" text-anchor="middle" font-size="18" fill="#30363d">0.180</text><line x1="670.80" y1="40" x2="670.80" y2="488" stroke="#edf0f2" stroke-width="1"/><text x="670.80" y="526" text-anchor="middle" font-size="18" fill="#30363d">0.240</text><line x1="818.00" y1="40" x2="818.00" y2="488" stroke="#edf0f2" stroke-width="1"/><text x="818.00" y="526" text-anchor="middle" font-size="18" fill="#30363d">0.300</text>
<line x1="82" y1="40" x2="82" y2="488" stroke="#111827" stroke-width="1.5"/>
<line x1="82" y1="488" x2="818" y2="488" stroke="#111827" stroke-width="1.5"/>
<line x1="818" y1="40" x2="818" y2="488" stroke="#111827" stroke-width="1.5"/>
<polyline points="82.00,488.00 83.23,488.00 84.45,488.00 85.68,488.00 86.91,488.00 88.13,488.00 89.36,488.00 90.59,488.00 91.81,488.00 93.04,488.00 94.27,488.00 95.49,488.00 96.72,488.00 97.95,488.00 99.17,488.00 100.40,488.00 101.63,488.00 102.85,488.00 104.08,488.00 105.31,488.00 106.53,488.00 107.76,488.00 108.99,488.00 110.21,488.00 111.44,488.00 112.67,488.00 113.89,488.00 115.12,488.00 116.35,488.00 117.57,488.00 118.80,488.00 120.03,488.00 121.25,488.00 122.48,488.00 123.71,488.00 124.93,488.00 126.16,488.00 127.39,488.00 128.61,488.00 129.84,488.00 131.07,488.00 132.29,488.00 133.52,488.00 134.75,488.00 135.97,488.00 137.20,488.00 138.43,488.00 139.65,488.00 140.88,488.00 142.11,488.00 143.33,488.00 144.56,488.00 145.79,488.00 147.01,488.00 148.24,488.00 149.47,488.00 150.69,488.00 151.92,488.00 153.15,488.00 154.37,488.00 155.60,488.00 156.83,488.00 158.05,488.00 159.28,488.00 160.51,488.00 161.73,488.00 162.96,488.00 164.19,488.00 165.41,488.00 166.64,488.00 167.87,488.00 169.09,488.00 170.32,488.00 171.55,488.00 172.77,488.00 174.00,488.00 175.23,488.00 176.45,488.00 177.68,488.00 178.91,488.00 180.13,488.00 181.36,488.00 182.59,488.00 183.81,488.00 185.04,488.00 186.27,488.00 187.49,488.00 188.72,488.00 189.95,488.00 191.17,488.00 192.40,488.00 193.63,488.00 194.85,488.00 196.08,488.00 197.31,488.00 198.53,488.00 199.76,488.00 200.99,488.00 202.21,488.00 203.44,488.00 204.67,488.00 205.89,488.00 207.12,488.00 208.35,488.00 209.57,488.00 210.80,488.00 212.03,488.00 213.25,488.00 214.48,488.00 215.71,488.00 216.93,488.00 218.16,488.00 219.39,488.00 220.61,488.00 221.84,488.00 223.07,488.00 224.29,488.00 225.52,488.00 226.75,488.00 227.97,488.00 229.20,488.00 230.43,488.00 231.65,488.00 232.88,488.00 234.11,488.00 235.33,488.00 236.56,488.00 237.79,488.00 239.01,488.00 240.24,488.00 241.47,488.00 242.69,488.00 243.92,488.00 245.15,488.00 246.37,488.00 247.60,488.00 248.83,488.00 250.05,488.00 251.28,488.00 252.51,488.00 253.73,488.00 254.96,488.00 256.19,488.00 257.41,488.00 258.64,488.00 259.87,488.00 261.09,488.00 262.32,488.00 263.55,488.00 264.77,488.00 266.00,488.00 267.23,488.00 268.45,488.00 269.68,488.00 270.91,488.00 272.13,488.00 273.36,488.00 274.59,488.00 275.81,488.00 277.04,488.00 278.27,488.00 279.49,488.00 280.72,488.00 281.95,488.00 283.17,488.00 284.40,488.00 285.63,488.00 286.85,488.00 288.08,488.00 289.31,488.00 290.53,488.00 291.76,488.00 292.99,488.00 294.21,488.00 295.44,488.00 296.67,488.00 297.89,488.00 299.12,488.00 300.35,488.00 301.57,488.00 302.80,488.00 304.03,488.00 305.25,488.00 306.48,488.00 307.71,488.00 308.93,488.00 310.16,488.00 311.39,488.00 312.61,488.00 313.84,488.00 315.07,488.00 316.29,488.00 317.52,488.00 318.75,488.00 319.97,488.00 321.20,488.00 322.43,488.00 323.65,488.00 324.88,488.00 326.11,488.00 327.33,488.00 328.56,485.21 329.79,480.81 331.01,475.64 332.24,469.92 333.47,463.80 334.69,457.34 335.92,450.60 337.15,443.61 338.37,436.41 339.60,432.31 340.83,487.95 342.05,487.95 343.28,487.95 344.51,485.80 345.73,481.72 346.96,476.92 348.19,471.67 349.41,465.59 350.64,456.40 351.87,445.79 353.09,434.24 354.32,421.97 355.55,458.26 356.77,450.16 358.00,442.79 359.23,435.05 360.45,426.97 361.68,419.37 362.91,435.22 364.13,448.04 365.36,446.84 366.59,442.10 367.81,436.25 369.04,429.95 370.27,423.39 371.49,422.98 372.72,438.72 373.95,435.50 375.17,428.69 376.40,421.01 377.63,413.70 378.85,421.54 380.08,423.92 381.31,420.88 382.53,430.25 383.76,438.19 384.99,439.16 386.21,437.44 387.44,434.55 388.67,431.09 389.89,427.34 391.12,433.19 392.35,446.90 393.57,454.78 394.80,459.49 396.03,462.36 397.25,464.15 398.48,465.30 399.71,466.07 400.93,466.53 402.16,466.80 403.39,466.96 404.61,467.06 405.84,467.11 407.07,467.13 408.29,467.13 409.52,467.11 410.75,467.07 411.97,467.04 413.20,466.92 414.43,466.20 415.65,464.80 416.88,462.87 418.11,460.58 419.33,458.04 420.56,455.34 421.79,452.55 423.01,449.70 424.24,446.81 425.47,443.92 426.69,441.04 427.92,438.17 429.15,435.32 430.37,432.50 431.60,429.72 432.83,426.97 434.05,424.27 435.28,421.62 436.51,419.00 437.73,416.24 438.96,412.34 440.19,407.42 441.41,402.21 442.64,396.54 443.87,389.61 445.09,381.68 446.32,372.87 447.55,450.36 448.77,445.28 450.00,440.30 451.23,431.94 452.45,423.05 453.68,414.19 454.91,405.29 456.13,396.33 457.36,387.30 458.59,378.19 459.81,368.97 461.04,433.27 462.27,419.65 463.49,410.46 464.72,400.95 465.95,390.47 467.17,379.02 468.40,366.88 469.63,354.23 470.85,341.17 472.08,329.71 473.31,451.32 474.53,445.50 475.76,439.64 476.99,434.49 478.21,429.86 479.44,425.57 480.67,421.50 481.89,417.34 483.12,413.39 484.35,409.73 485.57,406.14 486.80,402.55 488.03,399.01 489.25,395.08 490.48,390.24 491.71,385.19 492.93,380.06 494.16,374.89 495.39,369.22 496.61,363.30 497.84,357.10 499.07,348.16 500.29,338.42 501.52,328.42 502.75,318.30 503.97,308.10 505.20,297.92 506.43,287.77 507.65,277.69 508.88,267.72 510.11,257.99 511.33,281.36 512.56,278.47 513.79,274.40 515.01,270.39 516.24,266.37 517.47,260.34 518.69,287.12 519.92,291.42 521.15,284.67 522.37,276.01 523.60,330.91 524.83,344.51 526.05,347.92 527.28,359.44 528.51,359.17 529.73,357.77 530.96,355.24 532.19,352.93 533.41,349.72 534.64,346.59 535.87,345.49 537.09,343.54 538.32,336.51 539.55,327.43 540.77,316.80 542.00,343.01 543.23,345.31 544.45,366.52 545.68,389.50 546.91,393.93 548.13,393.37 549.36,390.44 550.59,385.35 551.81,377.11 553.04,371.82 554.27,390.89 555.49,384.99 556.72,378.98 557.95,371.83 559.17,371.87 560.40,374.30 561.63,370.78 562.85,363.00 564.08,353.04 565.31,341.97 566.53,329.85 567.76,315.98 568.99,301.14 570.21,285.86 571.44,302.36 572.67,285.35 573.89,270.60 575.12,255.35 576.35,273.25 577.57,259.22 578.80,288.51 580.03,311.59 581.25,308.28 582.48,335.78 583.71,353.02 584.93,351.44 586.16,345.53 587.39,338.43 588.61,330.91 589.84,323.07 591.07,315.04 592.29,306.55 593.52,297.67 594.75,288.58 595.97,279.17 597.20,269.21 598.43,258.10 599.65,245.45 600.88,231.70 602.11,257.06 603.33,254.65 604.56,249.19 605.79,244.02 607.01,239.26 608.24,231.73 609.47,231.81 610.69,230.92 611.92,228.20 613.15,226.21 614.37,287.54 615.60,277.31 616.83,268.65 618.05,258.50 619.28,246.68 620.51,233.47 621.73,245.50 622.96,232.63 624.19,223.72 625.41,215.77 626.64,252.78 627.87,312.63 629.09,315.56 630.32,341.45 631.55,340.71 632.77,333.90 634.00,326.26 635.23,318.29 636.45,310.10 637.68,301.81 638.91,293.55 640.13,285.26 641.36,276.86 642.59,268.41 643.81,297.55 645.04,288.58 646.27,281.66 647.49,271.81 648.72,388.86 649.95,395.46 651.17,398.37 652.40,402.64 653.63,406.73 654.85,409.13 656.08,408.81 657.31,416.04 658.53,418.73 659.76,416.96 660.99,413.26 662.21,407.94 663.44,401.80 664.67,394.87 665.89,387.03 667.12,378.88 668.35,370.37 669.57,361.71 670.80,352.85 672.03,344.14 673.25,335.44 674.48,326.79 675.71,318.26 676.93,309.51 678.16,351.79 679.39,340.47 680.61,332.36 681.84,324.60 683.07,344.38 684.29,356.19 685.52,354.22 686.75,348.54 687.97,374.11 689.20,362.35 690.43,353.81 691.65,345.44 692.88,337.06 694.11,328.37 695.33,319.11 696.56,309.99 697.79,300.73 699.01,291.31 700.24,281.68 701.47,271.51 702.69,260.84 703.92,249.66 705.15,238.62 706.37,227.73 707.60,216.86 708.83,204.84 710.05,237.69 711.28,227.50 712.51,217.78 713.73,211.66 714.96,266.16 716.19,278.21 717.41,275.17 718.64,269.95 719.87,275.30 721.09,272.13 722.32,269.87 723.55,267.77 724.77,265.96 726.00,264.99 727.23,260.03 728.45,253.04 729.68,244.96 730.91,235.05 732.13,222.83 733.36,210.21 734.59,258.01 735.81,239.20 737.04,226.61 738.27,213.59 739.49,199.75 740.72,185.35 741.95,170.26 743.17,154.56 744.40,138.32 745.63,153.23 746.85,160.58 748.08,154.68 749.31,142.24 750.53,238.62 751.76,212.86 752.99,197.40 754.21,181.76 755.44,165.66 756.67,149.31 757.89,132.74 759.12,115.67 760.35,160.60 761.57,134.62 762.80,119.19 764.03,104.01 765.25,90.21 766.48,80.93 767.71,72.16 768.93,56.85 770.16,40.00 771.39,63.73 772.61,58.20 773.84,106.86 775.07,118.31 776.29,117.28 777.52,107.84 778.75,138.76 779.97,122.65 781.20,179.47 782.43,168.50 783.65,174.73 784.88,179.25 786.11,182.16 787.33,182.22 788.56,180.79 789.79,175.87 791.01,296.07 792.24,298.97 793.47,301.96 794.69,303.64 795.92,301.03 797.15,297.90 798.37,294.15 799.60,291.46 800.83,289.35 802.05,287.64 803.28,286.22 804.51,283.81 805.73,315.07 806.96,315.75 808.19,319.18 809.41,321.39 810.64,318.05 811.87,310.64 813.09,302.03 814.32,294.33 815.55,286.27 816.77,277.68 818.00,268.73" fill="none" stroke="#1b6ca8" stroke-width="3"/>
<polyline points="82.00,488.00 83.23,488.00 84.45,488.00 85.68,488.00 86.91,488.00 88.13,488.00 89.36,488.00 90.59,488.00 91.81,488.00 93.04,488.00 94.27,488.00 95.49,488.00 96.72,488.00 97.95,488.00 99.17,488.00 100.40,488.00 101.63,488.00 102.85,488.00 104.08,488.00 105.31,488.00 106.53,488.00 107.76,488.00 108.99,488.00 110.21,488.00 111.44,488.00 112.67,488.00 113.89,488.00 115.12,488.00 116.35,488.00 117.57,488.00 118.80,488.00 120.03,488.00 121.25,488.00 122.48,488.00 123.71,488.00 124.93,488.00 126.16,488.00 127.39,488.00 128.61,488.00 129.84,488.00 131.07,488.00 132.29,488.00 133.52,488.00 134.75,488.00 135.97,488.00 137.20,488.00 138.43,488.00 139.65,488.00 140.88,488.00 142.11,488.00 143.33,488.00 144.56,488.00 145.79,488.00 147.01,488.00 148.24,488.00 149.47,488.00 150.69,488.00 151.92,488.00 153.15,488.00 154.37,488.00 155.60,488.00 156.83,488.00 158.05,488.00 159.28,488.00 160.51,488.00 161.73,488.00 162.96,488.00 164.19,488.00 165.41,488.00 166.64,488.00 167.87,488.00 169.09,488.00 170.32,488.00 171.55,488.00 172.77,488.00 174.00,488.00 175.23,488.00 176.45,488.00 177.68,488.00 178.91,488.00 180.13,488.00 181.36,488.00 182.59,488.00 183.81,488.00 185.04,488.00 186.27,488.00 187.49,488.00 188.72,488.00 189.95,488.00 191.17,488.00 192.40,488.00 193.63,488.00 194.85,488.00 196.08,488.00 197.31,488.00 198.53,488.00 199.76,488.00 200.99,488.00 202.21,488.00 203.44,488.00 204.67,488.00 205.89,488.00 207.12,488.00 208.35,488.00 209.57,488.00 210.80,488.00 212.03,488.00 213.25,488.00 214.48,488.00 215.71,488.00 216.93,488.00 218.16,488.00 219.39,488.00 220.61,488.00 221.84,488.00 223.07,488.00 224.29,488.00 225.52,488.00 226.75,488.00 227.97,488.00 229.20,488.00 230.43,488.00 231.65,488.00 232.88,488.00 234.11,488.00 235.33,488.00 236.56,488.00 237.79,488.00 239.01,488.00 240.24,488.00 241.47,488.00 242.69,488.00 243.92,488.00 245.15,488.00 246.37,488.00 247.60,488.00 248.83,488.00 250.05,488.00 251.28,488.00 252.51,488.00 253.73,488.00 254.96,488.00 256.19,488.00 257.41,488.00 258.64,488.00 259.87,488.00 261.09,488.00 262.32,488.00 263.55,488.00 264.77,488.00 266.00,488.00 267.23,488.00 268.45,488.00 269.68,488.00 270.91,488.00 272.13,488.00 273.36,488.00 274.59,488.00 275.81,488.00 277.04,488.00 278.27,488.00 279.49,488.00 280.72,488.00 281.95,488.00 283.17,488.00 284.40,488.00 285.63,488.00 286.85,488.00 288.08,488.00 289.31,488.00 290.53,488.00 291.76,488.00 292.99,488.00 294.21,488.00 295.44,488.00 296.67,488.00 297.89,488.00 299.12,488.00 300.35,488.00 301.57,488.00 302.80,488.00 304.03,488.00 305.25,488.00 306.48,488.00 307.71,488.00 308.93,488.00 310.16,488.00 311.39,488.00 312.61,488.00 313.84,488.00 315.07,488.00 316.29,488.00 317.52,488.00 318.75,488.00 319.97,488.00 321.20,488.00 322.43,488.00 323.65,488.00 324.88,488.00 326.11,488.00 327.33,488.00 328.56,486.40 329.79,482.56 331.01,477.68 332.24,472.16 333.47,466.19 334.69,459.86 335.92,453.22 337.15,446.33 338.37,439.21 339.60,434.13 340.83,470.68 342.05,486.80 343.28,487.92 344.51,486.88 345.73,483.40 346.96,478.86 348.19,473.77 349.41,468.20 350.64,460.11 351.87,450.05 353.09,438.87 354.32,426.88 355.55,448.85 356.77,452.28 358.00,445.67 359.23,438.13 360.45,430.20 361.68,422.49 362.91,474.20 364.13,464.33 365.36,456.40 366.59,449.96 367.81,443.77 369.04,437.47 370.27,431.00 371.49,477.03 372.72,458.41 373.95,445.15 375.17,436.35 376.40,428.35 377.63,426.14 378.85,457.83 380.08,444.88 381.31,435.84 382.53,471.30 383.76,464.38 384.99,459.04 386.21,454.51 387.44,450.36 388.67,446.36 389.89,442.38 391.12,488.00 392.35,488.00 393.57,488.00 394.80,488.00 396.03,488.00 397.25,488.00 398.48,488.00 399.71,488.00 400.93,488.00 402.16,488.00 403.39,488.00 404.61,488.00 405.84,488.00 407.07,488.00 408.29,488.00 409.52,488.00 410.75,488.00 411.97,488.00 413.20,487.18 414.43,484.85 415.65,482.16 416.88,479.37 418.11,476.56 419.33,473.77 420.56,470.98 421.79,468.20 423.01,465.42 424.24,462.66 425.47,459.90 426.69,457.17 427.92,454.47 429.15,451.79 430.37,449.16 431.60,446.57 432.83,444.02 434.05,441.51 435.28,439.06 436.51,436.69 437.73,432.47 438.96,426.16 440.19,420.42 441.41,415.16 442.64,408.15 443.87,399.96 445.09,390.87 446.32,381.16 447.55,401.61 448.77,423.20 450.00,428.74 451.23,428.77 452.45,425.62 453.68,420.58 454.91,414.06 456.13,406.47 457.36,398.31 458.59,389.77 459.81,380.95 461.04,435.89 462.27,433.00 463.49,423.92 464.72,412.82 465.95,400.82 467.17,388.45 468.40,375.85 469.63,362.96 470.85,349.79 472.08,338.03 473.31,407.33 474.53,438.51 475.76,441.78 476.99,439.88 478.21,436.35 479.44,432.20 480.67,428.05 481.89,423.97 483.12,419.95 484.35,416.17 485.57,412.60 486.80,409.06 488.03,405.58 489.25,401.83 490.48,397.38 491.71,392.34 492.93,387.08 494.16,381.75 495.39,376.16 496.61,370.10 497.84,363.72 499.07,356.00 500.29,346.58 501.52,336.43 502.75,326.00 503.97,315.48 505.20,304.97 506.43,294.52 507.65,284.17 508.88,273.98 510.11,263.96 511.33,293.45 512.56,285.11 513.79,280.28 515.01,276.26 516.24,272.32 517.47,268.45 518.69,318.53 519.92,303.81 521.15,295.07 522.37,286.25 523.60,400.99 524.83,374.90 526.05,358.94 527.28,367.31 528.51,368.39 529.73,367.33 530.96,365.03 532.19,362.61 533.41,359.25 534.64,355.54 535.87,353.45 537.09,351.52 538.32,346.74 539.55,339.05 540.77,329.23 542.00,374.87 543.23,364.71 544.45,424.50 545.68,419.01 546.91,416.26 548.13,413.11 549.36,408.19 550.59,399.98 551.81,389.60 553.04,382.30 554.27,393.67 555.49,392.53 556.72,387.26 557.95,380.46 559.17,392.66 560.40,391.85 561.63,385.60 562.85,376.03 564.08,365.25 565.31,353.70 566.53,341.03 567.76,326.97 568.99,312.29 570.21,297.12 571.44,304.77 572.67,295.81 573.89,281.63 575.12,266.45 576.35,287.81 577.57,270.48 578.80,317.08 580.03,339.76 581.25,324.28 582.48,327.22 583.71,375.16 584.93,367.25 586.16,360.72 587.39,353.58 588.61,346.02 589.84,338.37 591.07,330.45 592.29,321.72 593.52,312.87 594.75,303.74 595.97,294.31 597.20,283.71 598.43,271.92 599.65,259.21 600.88,245.29 602.11,273.11 603.33,265.17 604.56,259.06 605.79,256.16 607.01,252.26 608.24,246.33 609.47,249.88 610.69,245.23 611.92,242.78 613.15,241.27 614.37,287.46 615.60,288.46 616.83,280.78 618.05,270.34 619.28,258.71 620.51,246.18 621.73,237.58 622.96,245.39 624.19,240.33 625.41,232.17 626.64,297.59 627.87,314.94 629.09,322.33 630.32,327.68 631.55,331.14 632.77,329.66 634.00,325.44 635.23,319.76 636.45,313.28 637.68,306.24 638.91,298.82 640.13,291.18 641.36,283.33 642.59,275.27 643.81,298.19 645.04,294.53 646.27,288.62 647.49,281.66 648.72,356.53 649.95,384.93 651.17,397.98 652.40,405.33 653.63,410.62 654.85,414.59 656.08,419.24 657.31,436.44 658.53,432.15 659.76,428.21 660.99,422.67 662.21,416.91 663.44,410.67 664.67,403.99 665.89,396.28 667.12,387.81 668.35,379.10 669.57,370.19 670.80,361.18 672.03,352.11 673.25,343.14 674.48,334.20 675.71,325.29 676.93,316.49 678.16,347.39 679.39,344.68 680.61,337.80 681.84,330.14 683.07,391.21 684.29,378.75 685.52,370.82 686.75,363.59 687.97,377.89 689.20,375.60 690.43,367.89 691.65,359.78 692.88,351.62 694.11,342.99 695.33,334.69 696.56,325.58 697.79,316.22 699.01,306.71 700.24,296.69 701.47,285.80 702.69,274.66 703.92,263.38 705.15,253.14 706.37,240.99 707.60,230.52 708.83,218.46 710.05,247.77 711.28,240.47 712.51,231.15 713.73,222.81 714.96,311.85 716.19,302.09 717.41,294.76 718.64,288.29 719.87,289.53 721.09,291.35 722.32,288.78 723.55,286.22 724.77,283.71 726.00,280.57 727.23,275.13 728.45,267.29 729.68,258.57 730.91,247.50 732.13,240.88 733.36,203.22 734.59,248.61 735.81,247.32 737.04,236.07 738.27,223.51 739.49,210.04 740.72,195.70 741.95,180.61 743.17,164.89 744.40,148.62 745.63,198.32 746.85,176.38 748.08,167.26 749.31,156.03 750.53,230.01 751.76,226.40 752.99,211.20 754.21,195.45 755.44,179.41 756.67,163.06 757.89,146.48 759.12,129.56 760.35,139.75 761.57,145.11 762.80,131.80 764.03,118.28 765.25,104.50 766.48,105.65 767.71,90.06 768.93,72.39 770.16,54.92 771.39,86.41 772.61,72.93 773.84,117.96 775.07,130.01 776.29,128.60 777.52,119.76 778.75,127.19 779.97,132.14 781.20,167.58 782.43,176.87 783.65,183.02 784.88,188.15 786.11,191.82 787.33,193.25 788.56,191.99 789.79,188.46 791.01,270.34 792.24,302.26 793.47,312.88 794.69,317.19 795.92,317.48 797.15,315.48 798.37,312.75 799.60,310.15 800.83,307.93 802.05,306.03 803.28,304.38 804.51,300.51 805.73,303.12 806.96,320.86 808.19,325.17 809.41,326.33 810.64,325.87 811.87,322.52 813.09,315.96 814.32,308.22 815.55,299.65 816.77,290.84 818.00,281.70" fill="none" stroke="#d1495b" stroke-width="3"/>
<polyline points="82.00,488.00 83.23,488.00 83.23,488.00 84.45,488.00 84.45,488.00 85.68,488.00 85.68,488.00 86.91,488.00 86.91,488.00 88.13,488.00 88.13,488.00 89.36,488.00 89.36,488.00 90.59,488.00 90.59,488.00 91.81,488.00 91.81,488.00 93.04,488.00 93.04,488.00 94.27,488.00 94.27,488.00 95.49,488.00 95.49,488.00 96.72,488.00 96.72,488.00 97.95,488.00 97.95,488.00 99.17,488.00 99.17,488.00 100.40,488.00 100.40,488.00 101.63,488.00 101.63,488.00 102.85,488.00 102.85,488.00 104.08,488.00 104.08,488.00 105.31,488.00 105.31,488.00 106.53,488.00 106.53,488.00 107.76,488.00 107.76,488.00 108.99,488.00 108.99,488.00 110.21,488.00 110.21,488.00 111.44,488.00 111.44,488.00 112.67,488.00 112.67,488.00 113.89,488.00 113.89,488.00 115.12,488.00 115.12,488.00 116.35,488.00 116.35,488.00 117.57,488.00 117.57,488.00 118.80,488.00 118.80,488.00 120.03,488.00 120.03,488.00 121.25,488.00 121.25,488.00 122.48,488.00 122.48,488.00 123.71,488.00 123.71,488.00 124.93,488.00 124.93,488.00 126.16,488.00 126.16,488.00 127.39,488.00 127.39,488.00 128.61,488.00 128.61,488.00 129.84,488.00 129.84,488.00 131.07,488.00 131.07,488.00 132.29,488.00 132.29,488.00 133.52,488.00 133.52,488.00 134.75,488.00 134.75,488.00 135.97,488.00 135.97,488.00 137.20,488.00 137.20,488.00 138.43,488.00 138.43,488.00 139.65,488.00 139.65,488.00 140.88,488.00 140.88,488.00 142.11,488.00 142.11,488.00 143.33,488.00 143.33,488.00 144.56,488.00 144.56,488.00 145.79,488.00 145.79,488.00 147.01,488.00 147.01,488.00 148.24,488.00 148.24,488.00 149.47,488.00 149.47,488.00 150.69,488.00 150.69,488.00 151.92,488.00 151.92,488.00 153.15,488.00 153.15,488.00 154.37,488.00 154.37,488.00 155.60,488.00 155.60,488.00 156.83,488.00 156.83,488.00 158.05,488.00 158.05,488.00 159.28,488.00 159.28,488.00 160.51,488.00 160.51,488.00 161.73,488.00 161.73,488.00 162.96,488.00 162.96,488.00 164.19,488.00 164.19,488.00 165.41,488.00 165.41,488.00 166.64,488.00 166.64,488.00 167.87,488.00 167.87,488.00 169.09,488.00 169.09,488.00 170.32,488.00 170.32,488.00 171.55,488.00 171.55,488.00 172.77,488.00 172.77,488.00 174.00,488.00 174.00,488.00 175.23,488.00 175.23,488.00 176.45,488.00 176.45,488.00 177.68,488.00 177.68,488.00 178.91,488.00 178.91,488.00 180.13,488.00 180.13,488.00 181.36,488.00 181.36,488.00 182.59,488.00 182.59,488.00 183.81,488.00 183.81,488.00 185.04,488.00 185.04,488.00 186.27,488.00 186.27,488.00 187.49,488.00 187.49,488.00 188.72,488.00 188.72,488.00 189.95,488.00 189.95,488.00 191.17,488.00 191.17,488.00 192.40,488.00 192.40,488.00 193.63,488.00 193.63,488.00 194.85,488.00 194.85,488.00 196.08,488.00 196.08,488.00 197.31,488.00 197.31,488.00 198.53,488.00 198.53,488.00 199.76,488.00 199.76,488.00 200.99,488.00 200.99,488.00 202.21,488.00 202.21,488.00 203.44,488.00 203.44,488.00 204.67,488.00 204.67,488.00 205.89,488.00 205.89,488.00 207.12,488.00 207.12,488.00 208.35,488.00 208.35,488.00 209.57,488.00 209.57,488.00 210.80,488.00 210.80,488.00 212.03,488.00 212.03,488.00 213.25,488.00 213.25,488.00 214.48,488.00 214.48,488.00 215.71,488.00 215.71,488.00 216.93,488.00 216.93,488.00 218.16,488.00 218.16,488.00 219.39,488.00 219.39,488.00 220.61,488.00 220.61,488.00 221.84,488.00 221.84,488.00 223.07,488.00 223.07,488.00 224.29,488.00 224.29,488.00 225.52,488.00 225.52,488.00 226.75,488.00 226.75,488.00 227.97,488.00 227.97,488.00 229.20,488.00 229.20,488.00 230.43,488.00 230.43,488.00 231.65,488.00 231.65,488.00 232.88,488.00 232.88,488.00 234.11,488.00 234.11,488.00 235.33,488.00 235.33,488.00 236.56,488.00 236.56,488.00 237.79,488.00 237.79,488.00 239.01,488.00 239.01,488.00 240.24,488.00 240.24,488.00 241.47,488.00 241.47,488.00 242.69,488.00 242.69,488.00 243.92,488.00 243.92,488.00 245.15,488.00 245.15,488.00 246.37,488.00 246.37,488.00 247.60,488.00 247.60,488.00 248.83,488.00 248.83,488.00 250.05,488.00 250.05,488.00 251.28,488.00 251.28,488.00 252.51,488.00 252.51,488.00 253.73,488.00 253.73,488.00 254.96,488.00 254.96,488.00 256.19,488.00 256.19,488.00 257.41,488.00 257.41,488.00 258.64,488.00 258.64,488.00 259.87,488.00 259.87,488.00 261.09,488.00 261.09,488.00 262.32,488.00 262.32,488.00 263.55,488.00 263.55,488.00 264.77,488.00 264.77,488.00 266.00,488.00 266.00,488.00 267.23,488.00 267.23,488.00 268.45,488.00 268.45,488.00 269.68,488.00 269.68,488.00 270.91,488.00 270.91,488.00 272.13,488.00 272.13,488.00 273.36,488.00 273.36,488.00 274.59,488.00 274.59,488.00 275.81,488.00 275.81,488.00 277.04,488.00 277.04,488.00 278.27,488.00 278.27,488.00 279.49,488.00 279.49,488.00 280.72,488.00 280.72,488.00 281.95,488.00 281.95,488.00 283.17,488.00 283.17,488.00 284.40,488.00 284.40,488.00 285.63,488.00 285.63,488.00 286.85,488.00 286.85,488.00 288.08,488.00 288.08,488.00 289.31,488.00 289.31,488.00 290.53,488.00 290.53,488.00 291.76,488.00 291.76,488.00 292.99,488.00 292.99,488.00 294.21,488.00 294.21,488.00 295.44,488.00 295.44,488.00 296.67,488.00 296.67,488.00 297.89,488.00 297.89,488.00 299.12,488.00 299.12,488.00 300.35,488.00 300.35,488.00 301.57,488.00 301.57,488.00 302.80,488.00 302.80,488.00 304.03,488.00 304.03,488.00 305.25,488.00 305.25,488.00 306.48,488.00 306.48,488.00 307.71,488.00 307.71,488.00 308.93,488.00 308.93,488.00 310.16,488.00 310.16,488.00 311.39,488.00 311.39,488.00 312.61,488.00 312.61,488.00 313.84,488.00 313.84,488.00 315.07,488.00 315.07,488.00 316.29,488.00 316.29,488.00 317.52,488.00 317.52,488.00 318.75,488.00 318.75,488.00 319.97,488.00 319.97,488.00 321.20,488.00 321.20,488.00 322.43,488.00 322.43,488.00 323.65,488.00 323.65,488.00 324.88,488.00 324.88,488.00 326.11,488.00 326.11,488.00 327.33,488.00 327.33,488.00 328.56,488.00 328.56,488.00 329.79,488.00 329.79,488.00 331.01,488.00 331.01,488.00 332.24,488.00 332.24,488.00 333.47,488.00 333.47,488.00 334.69,488.00 334.69,488.00 335.92,488.00 335.92,488.00 337.15,488.00 337.15,488.00 338.37,488.00 338.37,488.00 339.60,488.00 339.60,486.76 340.83,486.76 340.83,480.55 342.05,480.55 342.05,480.55 343.28,480.55 343.28,480.55 344.51,480.55 344.51,480.55 345.73,480.55 345.73,480.55 346.96,480.55 346.96,480.55 348.19,480.55 348.19,480.55 349.41,480.55 349.41,480.55 350.64,480.55 350.64,480.55 351.87,480.55 351.87,480.55 353.09,480.55 353.09,480.55 354.32,480.55 354.32,480.55 355.55,480.55 355.55,473.11 356.77,473.11 356.77,473.11 358.00,473.11 358.00,473.11 359.23,473.11 359.23,473.11 360.45,473.11 360.45,473.11 361.68,473.11 361.68,470.63 362.91,470.63 362.91,461.32 364.13,461.32 364.13,461.32 365.36,461.32 365.36,461.32 366.59,461.32 366.59,461.32 367.81,461.32 367.81,461.32 369.04,461.32 369.04,461.32 370.27,461.32 370.27,461.32 371.49,461.32 371.49,454.49 372.72,454.49 372.72,454.49 373.95,454.49 373.95,454.49 375.17,454.49 375.17,454.49 376.40,454.49 376.40,454.49 377.63,454.49 377.63,454.49 378.85,454.49 378.85,454.49 380.08,454.49 380.08,454.49 381.31,454.49 381.31,454.49 382.53,454.49 382.53,448.91 383.76,448.91 383.76,448.91 384.99,448.91 384.99,448.91 386.21,448.91 386.21,448.91 387.44,448.91 387.44,448.91 388.67,448.91 388.67,448.91 389.89,448.91 389.89,448.91 391.12,448.91 391.12,441.46 392.35,441.46 392.35,441.46 393.57,441.46 393.57,441.46 394.80,441.46 394.80,441.46 396.03,441.46 396.03,441.46 397.25,441.46 397.25,441.46 398.48,441.46 398.48,441.46 399.71,441.46 399.71,441.46 400.93,441.46 400.93,441.46 402.16,441.46 402.16,441.46 403.39,441.46 403.39,441.46 404.61,441.46 404.61,441.46 405.84,441.46 405.84,441.46 407.07,441.46 407.07,441.46 408.29,441.46 408.29,441.46 409.52,441.46 409.52,441.46 410.75,441.46 410.75,441.46 411.97,441.46 411.97,441.46 413.20,441.46 413.20,441.46 414.43,441.46 414.43,441.46 415.65,441.46 415.65,441.46 416.88,441.46 416.88,441.46 418.11,441.46 418.11,441.46 419.33,441.46 419.33,441.46 420.56,441.46 420.56,441.46 421.79,441.46 421.79,441.46 423.01,441.46 423.01,441.46 424.24,441.46 424.24,441.46 425.47,441.46 425.47,441.46 426.69,441.46 426.69,441.46 427.92,441.46 427.92,441.46 429.15,441.46 429.15,441.46 430.37,441.46 430.37,441.46 431.60,441.46 431.60,441.46 432.83,441.46 432.83,441.46 434.05,441.46 434.05,441.46 435.28,441.46 435.28,441.46 436.51,441.46 436.51,441.46 437.73,441.46 437.73,441.46 438.96,441.46 438.96,441.46 440.19,441.46 440.19,441.46 441.41,441.46 441.41,441.46 442.64,441.46 442.64,441.46 443.87,441.46 443.87,441.46 445.09,441.46 445.09,441.46 446.32,441.46 446.32,441.46 447.55,441.46 447.55,432.16 448.77,432.16 448.77,432.16 450.00,432.16 450.00,432.16 451.23,432.16 451.23,432.16 452.45,432.16 452.45,432.16 453.68,432.16 453.68,432.16 454.91,432.16 454.91,432.16 456.13,432.16 456.13,432.16 457.36,432.16 457.36,432.16 458.59,432.16 458.59,432.16 459.81,432.16 459.81,432.16 461.04,432.16 461.04,412.92 462.27,412.92 462.27,412.92 463.49,412.92 463.49,412.92 464.72,412.92 464.72,412.92 465.95,412.92 465.95,412.92 467.17,412.92 467.17,412.92 468.40,412.92 468.40,412.92 469.63,412.92 469.63,412.92 470.85,412.92 470.85,412.92 472.08,412.92 472.08,412.30 473.31,412.30 473.31,397.41 474.53,397.41 474.53,397.41 475.76,397.41 475.76,397.41 476.99,397.41 476.99,397.41 478.21,397.41 478.21,397.41 479.44,397.41 479.44,397.41 480.67,397.41 480.67,397.41 481.89,397.41 481.89,397.41 483.12,397.41 483.12,397.41 484.35,397.41 484.35,397.41 485.57,397.41 485.57,397.41 486.80,397.41 486.80,397.41 488.03,397.41 488.03,397.41 489.25,397.41 489.25,397.41 490.48,397.41 490.48,397.41 491.71,397.41 491.71,397.41 492.93,397.41 492.93,397.41 494.16,397.41 494.16,397.41 495.39,397.41 495.39,397.41 496.61,397.41 496.61,397.41 497.84,397.41 497.84,397.41 499.07,397.41 499.07,397.41 500.29,397.41 500.29,397.41 501.52,397.41 501.52,397.41 502.75,397.41 502.75,397.41 503.97,397.41 503.97,397.41 505.20,397.41 505.20,397.41 506.43,397.41 506.43,397.41 507.65,397.41 507.65,397.41 508.88,397.41 508.88,397.41 510.11,397.41 510.11,397.41 511.33,397.41 511.33,388.72 512.56,388.72 512.56,388.72 513.79,388.72 513.79,388.72 515.01,388.72 515.01,388.72 516.24,388.72 516.24,388.72 517.47,388.72 517.47,388.10 518.69,388.10 518.69,380.03 519.92,380.03 519.92,380.03 521.15,380.03 521.15,380.03 522.37,380.03 522.37,380.03 523.60,380.03 523.60,368.86 524.83,368.86 524.83,368.86 526.05,368.86 526.05,367.62 527.28,367.62 527.28,364.52 528.51,364.52 528.51,364.52 529.73,364.52 529.73,364.52 530.96,364.52 530.96,364.52 532.19,364.52 532.19,363.90 533.41,363.90 533.41,363.90 534.64,363.90 534.64,363.90 535.87,363.90 535.87,363.90 537.09,363.90 537.09,363.90 538.32,363.90 538.32,363.90 539.55,363.90 539.55,363.90 540.77,363.90 540.77,363.90 542.00,363.90 542.00,356.45 543.23,356.45 543.23,356.45 544.45,356.45 544.45,347.15 545.68,347.15 545.68,347.15 546.91,347.15 546.91,347.15 548.13,347.15 548.13,347.15 549.36,347.15 549.36,347.15 550.59,347.15 550.59,347.15 551.81,347.15 551.81,347.15 553.04,347.15 553.04,345.91 554.27,345.91 554.27,340.94 555.49,340.94 555.49,340.94 556.72,340.94 556.72,340.94 557.95,340.94 557.95,340.94 559.17,340.94 559.17,337.84 560.40,337.84 560.40,337.22 561.63,337.22 561.63,337.22 562.85,337.22 562.85,337.22 564.08,337.22 564.08,337.22 565.31,337.22 565.31,337.22 566.53,337.22 566.53,337.22 567.76,337.22 567.76,337.22 568.99,337.22 568.99,337.22 570.21,337.22 570.21,337.22 571.44,337.22 571.44,329.77 572.67,329.77 572.67,329.77 573.89,329.77 573.89,329.77 575.12,329.77 575.12,329.77 576.35,329.77 576.35,321.71 577.57,321.71 577.57,321.71 578.80,321.71 578.80,313.64 580.03,313.64 580.03,302.47 581.25,302.47 581.25,302.47 582.48,302.47 582.48,294.40 583.71,294.40 583.71,286.96 584.93,286.96 584.93,286.96 586.16,286.96 586.16,286.96 587.39,286.96 587.39,286.96 588.61,286.96 588.61,286.96 589.84,286.96 589.84,286.96 591.07,286.96 591.07,286.96 592.29,286.96 592.29,286.96 593.52,286.96 593.52,286.96 594.75,286.96 594.75,286.96 595.97,286.96 595.97,286.96 597.20,286.96 597.20,286.96 598.43,286.96 598.43,286.96 599.65,286.96 599.65,286.96 600.88,286.96 600.88,286.96 602.11,286.96 602.11,277.65 603.33,277.65 603.33,277.65 604.56,277.65 604.56,277.65 605.79,277.65 605.79,277.65 607.01,277.65 607.01,277.65 608.24,277.65 608.24,277.03 609.47,277.03 609.47,273.93 610.69,273.93 610.69,273.93 611.92,273.93 611.92,273.93 613.15,273.93 613.15,273.31 614.37,273.31 614.37,263.38 615.60,263.38 615.60,263.38 616.83,263.38 616.83,263.38 618.05,263.38 618.05,263.38 619.28,263.38 619.28,263.38 620.51,263.38 620.51,263.38 621.73,263.38 621.73,254.69 622.96,254.69 622.96,253.45 624.19,253.45 624.19,253.45 625.41,253.45 625.41,253.45 626.64,253.45 626.64,236.08 627.87,236.08 627.87,229.87 629.09,229.87 629.09,229.87 630.32,229.87 630.32,229.87 631.55,229.87 631.55,229.87 632.77,229.87 632.77,229.87 634.00,229.87 634.00,229.87 635.23,229.87 635.23,229.87 636.45,229.87 636.45,229.87 637.68,229.87 637.68,229.87 638.91,229.87 638.91,229.87 640.13,229.87 640.13,229.87 641.36,229.87 641.36,229.87 642.59,229.87 642.59,229.87 643.81,229.87 643.81,221.19 645.04,221.19 645.04,221.19 646.27,221.19 646.27,221.19 647.49,221.19 647.49,221.19 648.72,221.19 648.72,203.81 649.95,203.81 649.95,203.81 651.17,203.81 651.17,203.81 652.40,203.81 652.40,203.81 653.63,203.81 653.63,203.81 654.85,203.81 654.85,203.81 656.08,203.81 656.08,203.81 657.31,203.81 657.31,203.81 658.53,203.81 658.53,203.81 659.76,203.81 659.76,203.81 660.99,203.81 660.99,203.81 662.21,203.81 662.21,203.81 663.44,203.81 663.44,203.81 664.67,203.81 664.67,203.81 665.89,203.81 665.89,203.81 667.12,203.81 667.12,203.81 668.35,203.81 668.35,203.81 669.57,203.81 669.57,203.81 670.80,203.81 670.80,203.81 672.03,203.81 672.03,203.81 673.25,203.81 673.25,203.81 674.48,203.81 674.48,203.81 675.71,203.81 675.71,203.81 676.93,203.81 676.93,203.81 678.16,203.81 678.16,195.12 679.39,195.12 679.39,195.12 680.61,195.12 680.61,195.12 681.84,195.12 681.84,195.12 683.07,195.12 683.07,185.82 684.29,185.82 684.29,185.82 685.52,185.82 685.52,185.82 686.75,185.82 686.75,185.82 687.97,185.82 687.97,178.99 689.20,178.99 689.20,178.99 690.43,178.99 690.43,178.99 691.65,178.99 691.65,178.99 692.88,178.99 692.88,178.99 694.11,178.99 694.11,178.99 695.33,178.99 695.33,178.99 696.56,178.99 696.56,178.99 697.79,178.99 697.79,178.99 699.01,178.99 699.01,178.99 700.24,178.99 700.24,178.99 701.47,178.99 701.47,178.99 702.69,178.99 702.69,178.99 703.92,178.99 703.92,178.99 705.15,178.99 705.15,178.37 706.37,178.37 706.37,178.37 707.60,178.37 707.60,177.75 708.83,177.75 708.83,177.75 710.05,177.75 710.05,168.44 711.28,168.44 711.28,168.44 712.51,168.44 712.51,168.44 713.73,168.44 713.73,167.20 714.96,167.20 714.96,154.79 716.19,154.79 716.19,154.79 717.41,154.79 717.41,154.79 718.64,154.79 718.64,154.79 719.87,154.79 719.87,151.69 721.09,151.69 721.09,151.07 722.32,151.07 722.32,151.07 723.55,151.07 723.55,151.07 724.77,151.07 724.77,151.07 726.00,151.07 726.00,150.45 727.23,150.45 727.23,150.45 728.45,150.45 728.45,150.45 729.68,150.45 729.68,150.45 730.91,150.45 730.91,150.45 732.13,150.45 732.13,150.45 733.36,150.45 733.36,150.45 734.59,150.45 734.59,142.38 735.81,142.38 735.81,141.76 737.04,141.76 737.04,141.76 738.27,141.76 738.27,141.76 739.49,141.76 739.49,141.76 740.72,141.76 740.72,141.76 741.95,141.76 741.95,141.76 743.17,141.76 743.17,141.76 744.40,141.76 744.40,141.76 745.63,141.76 745.63,131.83 746.85,131.83 746.85,131.83 748.08,131.83 748.08,128.11 749.31,128.11 749.31,128.11 750.53,128.11 750.53,108.88 751.76,108.88 751.76,108.88 752.99,108.88 752.99,108.88 754.21,108.88 754.21,108.88 755.44,108.88 755.44,108.88 756.67,108.88 756.67,108.88 757.89,108.88 757.89,108.88 759.12,108.88 759.12,108.88 760.35,108.88 760.35,98.95 761.57,98.95 761.57,98.95 762.80,98.95 762.80,98.95 764.03,98.95 764.03,98.95 765.25,98.95 765.25,98.95 766.48,98.95 766.48,98.95 767.71,98.95 767.71,98.95 768.93,98.95 768.93,98.95 770.16,98.95 770.16,98.95 771.39,98.95 771.39,89.64 772.61,89.64 772.61,89.64 773.84,89.64 773.84,78.47 775.07,78.47 775.07,78.47 776.29,78.47 776.29,78.47 777.52,78.47 777.52,78.47 778.75,78.47 778.75,71.65 779.97,71.65 779.97,71.65 781.20,71.65 781.20,64.82 782.43,64.82 782.43,64.82 783.65,64.82 783.65,64.82 784.88,64.82 784.88,64.82 786.11,64.82 786.11,64.82 787.33,64.82 787.33,64.82 788.56,64.82 788.56,64.82 789.79,64.82 789.79,64.82 791.01,64.82 791.01,46.20 792.24,46.20 792.24,46.20 793.47,46.20 793.47,46.20 794.69,46.20 794.69,46.20 795.92,46.20 795.92,46.20 797.15,46.20 797.15,46.20 798.37,46.20 798.37,46.20 799.60,46.20 799.60,46.20 800.83,46.20 800.83,46.20 802.05,46.20 802.05,46.20 803.28,46.20 803.28,46.20 804.51,46.20 804.51,46.20 805.73,46.20 805.73,40.00 806.96,40.00 806.96,40.00 808.19,40.00 808.19,40.00 809.41,40.00 809.41,40.00 810.64,40.00 810.64,40.00 811.87,40.00 811.87,40.00 813.09,40.00 813.09,40.00 814.32,40.00 814.32,40.00 815.55,40.00 815.55,40.00 816.77,40.00 816.77,40.00 818.00,40.00 818.00,40.00" fill="none" stroke="#4b8f29" stroke-width="3"/>
<text x="450.0" y="552" text-anchor="middle" font-size="20" font-family="Arial, sans-serif" fill="#111827">Top displacement (mm)</text>
<text x="24" y="280.0" text-anchor="middle" transform="rotate(-90 24 280.0)" font-size="20" font-family="Arial, sans-serif" fill="#111827">Force magnitude (N)</text>
<text x="880" y="280.0" text-anchor="middle" transform="rotate(90 880 280.0)" font-size="20" font-family="Arial, sans-serif" fill="#111827">Broken bonds</text>
<text x="102" y="64" font-size="18" font-family="Arial, sans-serif" fill="#1b6ca8">Top plate</text>
<text x="212" y="64" font-size="18" font-family="Arial, sans-serif" fill="#d1495b">Bottom plate</text>
<text x="352" y="64" font-size="18" font-family="Arial, sans-serif" fill="#4b8f29">Broken bonds</text>
<text x="72" y="45" text-anchor="end" font-size="17" fill="#30363d">19.33</text>
<text x="72" y="488" text-anchor="end" font-size="17" fill="#30363d">0</text>
<text x="828" y="45" text-anchor="start" font-size="17" fill="#30363d">722</text>
<text x="828" y="488" text-anchor="start" font-size="17" fill="#30363d">0</text>
</svg>
