<svg xmlns="http://www.w3.org/2000/svg" width="900" height="560" viewBox="0 0 900 560">
<rect width="100%" height="100%" fill="white"/>
<text x="450.0" y="26" text-anchor="middle" font-size="22" font-family="Arial, sans-serif" fill="#111827">SP-002 force-displacement and bond breakage</text>
<line x1="82" y1="40.00" x2="818" y2="40.00" stroke="#d9dee2" stroke-width="1"/><line x1="82" y1="129.60" x2="818" y2="129.60" stroke="#d9dee2" stroke-width="1"/><line x1="82" y1="219.20" x2="818" y2="219.20" stroke="#d9dee2" stroke-width="1"/><line x1="82" y1="308.80" x2="818" y2="308.80" stroke="#d9dee2" stroke-width="1"/><line x1="82" y1="398.40" x2="818" y2="398.40" stroke="#d9dee2" stroke-width="1"/><line x1="82" y1="488.00" x2="818" y2="488.00" stroke="#d9dee2" stroke-width="1"/><line x1="82.00" y1="40" x2="82.00" y2="488" stroke="#edf0f2" stroke-width="1"/><text x="82.00" y="526" text-anchor="middle" font-size="18" fill="#30363d">0.000</text><line x1="229.20" y1="40" x2="229.20" y2="488" stroke="#edf0f2" stroke-width="1"/><text x="229.20" y="526" text-anchor="middle" font-size="18" fill="#30363d">0.060</text><line x1="376.40" y1="40" x2="376.40" y2="488" stroke="#edf0f2" stroke-width="1"/><text x="376.40" y="526" text-anchor="middle" font-size="18" fill="#30363d">0.120</text><line x1="523.60" y1="40" x2="523.60" y2="488" stroke="#edf0f2" stroke-width="1"/><text x="523.60" y="526" text-anchor="middle" font-size="18" fill="#30363d">0.180</text><line x1="670.80" y1="40" x2="670.80" y2="488" stroke="#edf0f2" stroke-width="1"/><text x="670.80" y="526" text-anchor="middle" font-size="18" fill="#30363d">0.240</text><line x1="818.00" y1="40" x2="818.00" y2="488" stroke="#edf0f2" stroke-width="1"/><text x="818.00" y="526" text-anchor="middle" font-size="18" fill="#30363d">0.300</text>
<line x1="82" y1="40" x2="82" y2="488" stroke="#111827" stroke-width="1.5"/>
<line x1="82" y1="488" x2="818" y2="488" stroke="#111827" stroke-width="1.5"/>
<line x1="818" y1="40" x2="818" y2="488" stroke="#111827" stroke-width="1.5"/>
<polyline points="82.00,488.00 83.23,488.00 84.45,488.00 85.68,488.00 86.91,488.00 88.13,488.00 89.36,488.00 90.59,488.00 91.81,488.00 93.04,488.00 94.27,488.00 95.49,488.00 96.72,488.00 97.95,488.00 99.17,488.00 100.40,488.00 101.63,488.00 102.85,488.00 104.08,488.00 105.31,488.00 106.53,488.00 107.76,488.00 108.99,488.00 110.21,488.00 111.44,488.00 112.67,488.00 113.89,488.00 115.12,488.00 116.35,488.00 117.57,488.00 118.80,488.00 120.03,488.00 121.25,488.00 122.48,488.00 123.71,488.00 124.93,488.00 126.16,488.00 127.39,488.00 128.61,488.00 129.84,488.00 131.07,488.00 132.29,488.00 133.52,488.00 134.75,488.00 135.97,488.00 137.20,488.00 138.43,488.00 139.65,488.00 140.88,488.00 142.11,488.00 143.33,488.00 144.56,488.00 145.79,488.00 147.01,488.00 148.24,488.00 149.47,488.00 150.69,488.00 151.92,488.00 153.15,488.00 154.37,488.00 155.60,488.00 156.83,488.00 158.05,488.00 159.28,488.00 160.51,488.00 161.73,488.00 162.96,488.00 164.19,488.00 165.41,488.00 166.64,488.00 167.87,488.00 169.09,488.00 170.32,488.00 171.55,488.00 172.77,488.00 174.00,488.00 175.23,488.00 176.45,488.00 177.68,488.00 178.91,488.00 180.13,488.00 181.36,488.00 182.59,488.00 183.81,488.00 185.04,488.00 186.27,488.00 187.49,488.00 188.72,488.00 189.95,488.00 191.17,488.00 192.40,488.00 193.63,488.00 194.85,488.00 196.08,488.00 197.31,488.00 198.53,488.00 199.76,488.00 200.99,488.00 202.21,488.00 203.44,488.00 204.67,488.00 205.89,488.00 207.12,488.00 208.35,488.00 209.57,488.00 210.80,488.00 212.03,488.00 213.25,488.00 214.48,488.00 215.71,488.00 216.93,488.00 218.16,488.00 219.39,488.00 220.61,488.00 221.84,488.00 223.07,488.00 224.29,488.00 225.52,488.00 226.75,488.00 227.97,488.00 229.20,488.00 230.43,488.00 231.65,488.00 232.88,488.00 234.11,488.00 235.33,488.00 236.56,488.00 237.79,488.00 239.01,488.00 240.24,488.00 241.47,488.00 242.69,488.00 243.92,488.00 245.15,488.00 246.37,488.00 247.60,488.00 248.83,488.00 250.05,488.00 251.28,488.00 252.51,488.00 253.73,488.00 254.96,488.00 256.19,488.00 257.41,488.00 258.64,488.00 259.87,488.00 261.09,488.00 262.32,488.00 263.55,488.00 264.77,488.00 266.00,488.00 267.23,488.00 268.45,488.00 269.68,488.00 270.91,488.00 272.13,488.00 273.36,488.00 274.59,488.00 275.81,488.00 277.04,488.00 278.27,488.00 279.49,488.00 280.72,488.00 281.95,488.00 283.17,488.00 284.40,488.00 285.63,488.00 286.85,488.00 288.08,488.00 289.31,488.00 290.53,488.00 291.76,488.00 292.99,488.00 294.21,488.00 295.44,488.00 296.67,488.00 297.89,488.00 299.12,488.00 300.35,488.00 301.57,488.00 302.80,488.00 304.03,488.00 305.25,488.00 306.48,488.00 307.71,488.00 308.93,488.00 310.16,488.00 311.39,488.00 312.61,488.00 313.84,488.00 315.07,488.00 316.29,488.00 317.52,488.00 318.75,488.00 319.97,488.00 321.20,488.00 322.43,488.00 323.65,488.00 324.88,488.00 326.11,488.00 327.33,488.00 328.56,486.21 329.79,483.37 331.01,479.98 332.24,476.22 333.47,472.15 334.69,467.84 335.92,463.32 337.15,458.62 338.37,453.76 339.60,448.76 340.83,445.06 342.05,440.17 343.28,435.16 344.51,433.05 345.73,484.75 346.96,481.38 348.19,478.12 349.41,474.63 350.64,469.53 351.87,463.33 353.09,456.54 354.32,449.30 355.55,441.71 356.77,433.83 358.00,425.69 359.23,417.33 360.45,452.32 361.68,447.49 362.91,444.79 364.13,440.08 365.36,485.81 366.59,483.70 367.81,482.30 369.04,480.86 370.27,479.34 371.49,477.77 372.72,475.52 373.95,472.78 375.17,469.74 376.40,466.45 377.63,462.97 378.85,459.30 380.08,454.89 381.31,449.17 382.53,442.73 383.76,435.74 384.99,428.32 386.21,420.56 387.44,413.27 388.67,417.03 389.89,439.72 391.12,446.42 392.35,446.52 393.57,444.63 394.80,442.04 396.03,439.19 397.25,436.25 398.48,433.25 399.71,430.22 400.93,427.15 402.16,424.06 403.39,420.76 404.61,417.23 405.84,413.54 407.07,409.73 408.29,405.81 409.52,401.80 410.75,398.14 411.97,394.72 413.20,390.47 414.43,385.87 415.65,380.81 416.88,374.46 418.11,367.52 419.33,359.98 420.56,351.53 421.79,365.04 423.01,384.73 424.24,429.84 425.47,445.92 426.69,452.17 427.92,454.69 429.15,455.55 430.37,455.56 431.60,455.12 432.83,454.44 434.05,453.62 435.28,452.74 436.51,451.86 437.73,450.99 438.96,450.14 440.19,449.25 441.41,448.30 442.64,447.32 443.87,446.36 445.09,445.42 446.32,444.21 447.55,442.83 448.77,441.52 450.00,439.94 451.23,437.58 452.45,434.59 453.68,430.85 454.91,426.53 456.13,421.32 457.36,415.31 458.59,409.06 459.81,402.14 461.04,394.74 462.27,386.69 463.49,378.36 464.72,369.71 465.95,360.21 467.17,349.75 468.40,338.70 469.63,327.23 470.85,316.94 472.08,304.82 473.31,292.25 474.53,280.58 475.76,267.12 476.99,253.81 478.21,240.39 479.44,227.29 480.67,323.46 481.89,362.70 483.12,388.80 484.35,393.55 485.57,391.76 486.80,387.40 488.03,381.59 489.25,374.71 490.48,366.90 491.71,358.20 492.93,348.93 494.16,339.27 495.39,329.33 496.61,319.10 497.84,308.62 499.07,297.91 500.29,295.80 501.52,337.66 502.75,316.38 503.97,306.94 505.20,339.61 506.43,325.52 507.65,320.72 508.88,316.78 510.11,312.00 511.33,305.46 512.56,346.65 513.79,357.65 515.01,361.00 516.24,360.07 517.47,356.27 518.69,350.78 519.92,344.55 521.15,337.79 522.37,330.57 523.60,323.00 524.83,315.22 526.05,307.29 527.28,299.20 528.51,290.89 529.73,417.39 530.96,411.87 532.19,410.73 533.41,406.11 534.64,400.14 535.87,392.98 537.09,385.71 538.32,378.26 539.55,370.56 540.77,362.67 542.00,354.60 543.23,346.36 544.45,337.97 545.68,329.43 546.91,320.75 548.13,311.83 549.36,302.01 550.59,291.90 551.81,281.62 553.04,336.89 554.27,328.19 555.49,315.66 556.72,303.20 557.95,290.50 559.17,346.79 560.40,304.48 561.63,290.93 562.85,277.93 564.08,264.56 565.31,250.87 566.53,253.36 567.76,247.34 568.99,234.11 570.21,220.63 571.44,236.87 572.67,222.43 573.89,207.84 575.12,193.42 576.35,220.51 577.57,215.90 578.80,203.95 580.03,191.43 581.25,178.65 582.48,165.79 583.71,369.92 584.93,350.38 586.16,341.82 587.39,334.89 588.61,328.49 589.84,322.00 591.07,315.66 592.29,309.23 593.52,302.69 594.75,296.05 595.97,289.33 597.20,282.53 598.43,275.51 599.65,267.84 600.88,259.25 602.11,250.16 603.33,240.82 604.56,231.07 605.79,220.88 607.01,210.16 608.24,239.36 609.47,208.49 610.69,196.09 611.92,228.37 613.15,230.00 614.37,222.95 615.60,213.79 616.83,203.74 618.05,191.91 619.28,212.28 620.51,264.01 621.73,257.65 622.96,247.37 624.19,233.40 625.41,217.53 626.64,201.14 627.87,184.63 629.09,167.73 630.32,190.51 631.55,193.05 632.77,185.27 634.00,173.95 635.23,160.20 636.45,144.85 637.68,128.73 638.91,112.25 640.13,97.97 641.36,89.84 642.59,72.68 643.81,57.49 645.04,40.00 646.27,164.13 647.49,153.20 648.72,246.32 649.95,248.03 651.17,245.50 652.40,252.51 653.63,321.15 654.85,313.99 656.08,308.88 657.31,300.64 658.53,290.65 659.76,279.68 660.99,267.92 662.21,255.34 663.44,242.24 664.67,228.73 665.89,214.82 667.12,200.73 668.35,246.83 669.57,230.74 670.80,221.56 672.03,214.37 673.25,205.85 674.48,261.93 675.71,237.19 676.93,226.82 678.16,215.74 679.39,204.07 680.61,255.85 681.84,227.42 683.07,214.72 684.29,201.64 685.52,188.03 686.75,174.66 687.97,159.94 689.20,144.71 690.43,129.47 691.65,114.11 692.88,277.47 694.11,272.17 695.33,260.68 696.56,251.27 697.79,267.89 699.01,258.82 700.24,249.63 701.47,239.80 702.69,229.40 703.92,218.47 705.15,248.98 706.37,246.95 707.60,242.36 708.83,236.88 710.05,234.53 711.28,229.14 712.51,238.24 713.73,237.56 714.96,234.87 716.19,231.54 717.41,225.55 718.64,217.82 719.87,208.89 721.09,199.46 722.32,189.54 723.55,232.91 724.77,236.13 726.00,230.48 727.23,220.01 728.45,206.98 729.68,192.89 730.91,230.18 732.13,319.75 733.36,320.47 734.59,313.71 735.81,304.73 737.04,295.12 738.27,285.22 739.49,275.09 740.72,264.74 741.95,254.22 743.17,243.19 744.40,230.87 745.63,246.43 746.85,249.94 748.08,236.12 749.31,221.55 750.53,206.65 751.76,193.94 752.99,180.03 754.21,235.48 755.44,280.78 756.67,297.24 757.89,301.12 759.12,303.19 760.35,307.58 761.57,311.40 762.80,341.29 764.03,352.13 765.25,354.03 766.48,355.23 767.71,356.18 768.93,356.59 770.16,356.78 771.39,356.84 772.61,356.44 773.84,355.91 775.07,354.92 776.29,353.43 777.52,351.57 778.75,349.80 779.97,347.10 781.20,342.97 782.43,338.01 783.65,332.80 784.88,330.26 786.11,326.75 787.33,320.14 788.56,313.89 789.79,362.98 791.01,352.70 792.24,349.06 793.47,345.36 794.69,341.24 795.92,337.00 797.15,332.84 798.37,328.91 799.60,325.24 800.83,322.13 802.05,320.19 803.28,318.23 804.51,316.49 805.73,315.21 806.96,313.59 808.19,311.81 809.41,323.01 810.64,312.43 811.87,307.14 813.09,302.31 814.32,296.04 815.55,288.80 816.77,281.13 818.00,273.05" fill="none" stroke="#1b6ca8" stroke-width="3"/>
<polyline points="82.00,488.00 83.23,488.00 84.45,488.00 85.68,488.00 86.91,488.00 88.13,488.00 89.36,488.00 90.59,488.00 91.81,488.00 93.04,488.00 94.27,488.00 95.49,488.00 96.72,488.00 97.95,488.00 99.17,488.00 100.40,488.00 101.63,488.00 102.85,488.00 104.08,488.00 105.31,488.00 106.53,488.00 107.76,488.00 108.99,488.00 110.21,488.00 111.44,488.00 112.67,488.00 113.89,488.00 115.12,488.00 116.35,488.00 117.57,488.00 118.80,488.00 120.03,488.00 121.25,488.00 122.48,488.00 123.71,488.00 124.93,488.00 126.16,488.00 127.39,488.00 128.61,488.00 129.84,488.00 131.07,488.00 132.29,488.00 133.52,488.00 134.75,488.00 135.97,488.00 137.20,488.00 138.43,488.00 139.65,488.00 140.88,488.00 142.11,488.00 143.33,488.00 144.56,488.00 145.79,488.00 147.01,488.00 148.24,488.00 149.47,488.00 150.69,488.00 151.92,488.00 153.15,488.00 154.37,488.00 155.60,488.00 156.83,488.00 158.05,488.00 159.28,488.00 160.51,488.00 161.73,488.00 162.96,488.00 164.19,488.00 165.41,488.00 166.64,488.00 167.87,488.00 169.09,488.00 170.32,488.00 171.55,488.00 172.77,488.00 174.00,488.00 175.23,488.00 176.45,488.00 177.68,488.00 178.91,488.00 180.13,488.00 181.36,488.00 182.59,488.00 183.81,488.00 185.04,488.00 186.27,488.00 187.49,488.00 188.72,488.00 189.95,488.00 191.17,488.00 192.40,488.00 193.63,488.00 194.85,488.00 196.08,488.00 197.31,488.00 198.53,488.00 199.76,488.00 200.99,488.00 202.21,488.00 203.44,488.00 204.67,488.00 205.89,488.00 207.12,488.00 208.35,488.00 209.57,488.00 210.80,488.00 212.03,488.00 213.25,488.00 214.48,488.00 215.71,488.00 216.93,488.00 218.16,488.00 219.39,488.00 220.61,488.00 221.84,488.00 223.07,488.00 224.29,488.00 225.52,488.00 226.75,488.00 227.97,488.00 229.20,488.00 230.43,488.00 231.65,488.00 232.88,488.00 234.11,488.00 235.33,488.00 236.56,488.00 237.79,488.00 239.01,488.00 240.24,488.00 241.47,488.00 242.69,488.00 243.92,488.00 245.15,488.00 246.37,488.00 247.60,488.00 248.83,488.00 250.05,488.00 251.28,488.00 252.51,488.00 253.73,488.00 254.96,488.00 256.19,488.00 257.41,488.00 258.64,488.00 259.87,488.00 261.09,488.00 262.32,488.00 263.55,488.00 264.77,488.00 266.00,488.00 267.23,488.00 268.45,488.00 269.68,488.00 270.91,488.00 272.13,488.00 273.36,488.00 274.59,488.00 275.81,488.00 277.04,488.00 278.27,488.00 279.49,488.00 280.72,488.00 281.95,488.00 283.17,488.00 284.40,488.00 285.63,488.00 286.85,488.00 288.08,488.00 289.31,488.00 290.53,488.00 291.76,488.00 292.99,488.00 294.21,488.00 295.44,488.00 296.67,488.00 297.89,488.00 299.12,488.00 300.35,488.00 301.57,488.00 302.80,488.00 304.03,488.00 305.25,488.00 306.48,488.00 307.71,488.00 308.93,488.00 310.16,488.00 311.39,488.00 312.61,488.00 313.84,488.00 315.07,488.00 316.29,488.00 317.52,488.00 318.75,488.00 319.97,488.00 321.20,488.00 322.43,488.00 323.65,488.00 324.88,488.00 326.11,488.00 327.33,488.00 328.56,486.98 329.79,484.50 331.01,481.32 332.24,477.70 333.47,473.74 334.69,469.53 335.92,465.09 337.15,460.46 338.37,455.66 339.60,450.71 340.83,446.26 342.05,442.04 343.28,437.12 344.51,434.22 345.73,478.70 346.96,482.17 348.19,479.38 349.41,476.00 350.64,471.60 351.87,465.77 353.09,459.20 354.32,452.13 355.55,444.68 356.77,436.90 358.00,428.86 359.23,420.58 360.45,450.32 361.68,449.14 362.91,445.94 364.13,442.00 365.36,458.74 366.59,482.63 367.81,482.77 369.04,481.45 370.27,479.97 371.49,478.42 372.72,476.45 373.95,473.88 375.17,470.96 376.40,467.76 377.63,464.35 378.85,460.76 380.08,456.74 381.31,451.44 382.53,445.28 383.76,438.49 384.99,431.23 386.21,423.60 387.44,422.65 388.67,440.13 389.89,473.20 391.12,461.19 392.35,455.36 393.57,451.65 394.80,448.54 396.03,445.58 397.25,442.62 398.48,439.63 399.71,436.61 400.93,433.56 402.16,430.40 403.39,426.80 404.61,423.11 405.84,419.33 407.07,415.47 408.29,411.52 409.52,407.48 410.75,404.62 411.97,400.71 413.20,396.22 414.43,391.60 415.65,386.77 416.88,381.00 418.11,374.33 419.33,367.00 420.56,358.91 421.79,385.00 423.01,443.91 424.24,480.16 425.47,475.48 426.69,472.69 427.92,470.90 429.15,469.64 430.37,468.64 431.60,467.76 432.83,466.94 434.05,466.14 435.28,465.35 436.51,464.57 437.73,463.81 438.96,462.99 440.19,461.93 441.41,460.86 442.64,459.81 443.87,458.81 445.09,457.89 446.32,456.99 447.55,456.03 448.77,455.03 450.00,452.82 451.23,449.83 452.45,446.37 453.68,442.45 454.91,437.58 456.13,431.65 457.36,425.04 458.59,418.55 459.81,411.61 461.04,403.47 462.27,395.30 463.49,386.92 464.72,378.02 465.95,367.85 467.17,357.02 468.40,345.79 469.63,334.21 470.85,324.04 472.08,311.75 473.31,299.17 474.53,286.56 475.76,273.96 476.99,260.65 478.21,248.35 479.44,234.17 480.67,374.35 481.89,414.11 483.12,408.86 484.35,406.61 485.57,402.30 486.80,396.84 488.03,390.39 489.25,383.06 490.48,374.91 491.71,366.07 492.93,356.73 494.16,347.03 495.39,337.07 496.61,326.80 497.84,316.29 499.07,305.56 500.29,294.87 501.52,311.13 502.75,321.00 503.97,313.24 505.20,316.13 506.43,327.70 507.65,324.71 508.88,320.07 510.11,315.17 511.33,310.16 512.56,364.22 513.79,366.05 515.01,366.83 516.24,364.94 517.47,360.59 518.69,355.14 519.92,349.00 521.15,342.33 522.37,335.19 523.60,327.65 524.83,319.86 526.05,311.91 527.28,303.82 528.51,295.54 529.73,364.89 530.96,402.69 532.19,407.89 533.41,407.16 534.64,403.09 535.87,397.10 537.09,390.54 538.32,383.40 539.55,375.88 540.77,368.06 542.00,360.02 543.23,351.80 544.45,343.42 545.68,334.88 546.91,326.20 548.13,317.38 549.36,307.95 550.59,298.16 551.81,288.00 553.04,337.63 554.27,334.33 555.49,322.73 556.72,310.56 557.95,297.77 559.17,291.16 560.40,309.60 561.63,297.92 562.85,284.97 564.08,271.74 565.31,258.03 566.53,274.46 567.76,255.34 568.99,241.74 570.21,228.26 571.44,237.80 572.67,229.32 573.89,215.24 575.12,200.99 576.35,240.90 577.57,225.16 578.80,212.65 580.03,200.08 581.25,187.31 582.48,174.39 583.71,314.32 584.93,344.64 586.16,344.63 587.39,339.88 588.61,333.97 589.84,327.92 591.07,321.78 592.29,315.46 593.52,308.98 594.75,302.40 595.97,295.71 597.20,288.95 598.43,282.08 599.65,274.81 600.88,266.83 602.11,258.28 603.33,249.21 604.56,239.49 605.79,229.22 607.01,218.41 608.24,209.10 609.47,215.13 610.69,203.92 611.92,254.43 613.15,242.51 614.37,233.13 615.60,223.58 616.83,212.26 618.05,201.00 619.28,259.10 620.51,277.28 621.73,266.53 622.96,255.01 624.19,239.98 625.41,223.80 626.64,207.20 627.87,190.56 629.09,173.65 630.32,208.82 631.55,199.45 632.77,191.67 634.00,180.09 635.23,166.26 636.45,150.86 637.68,134.78 638.91,118.30 640.13,110.61 641.36,95.98 642.59,78.67 643.81,63.53 645.04,46.01 646.27,103.11 647.49,159.19 648.72,250.55 649.95,254.75 651.17,257.00 652.40,259.40 653.63,291.13 654.85,318.20 656.08,314.26 657.31,306.09 658.53,296.23 659.76,285.35 660.99,273.70 662.21,261.19 663.44,248.16 664.67,234.70 665.89,220.81 667.12,206.64 668.35,211.86 669.57,232.87 670.80,225.52 672.03,217.76 673.25,210.10 674.48,225.82 675.71,241.88 676.93,232.47 678.16,221.63 679.39,210.14 680.61,222.67 681.84,232.11 683.07,220.44 684.29,207.42 685.52,193.85 686.75,180.66 687.97,165.89 689.20,150.68 690.43,135.56 691.65,120.20 692.88,297.73 694.11,280.64 695.33,268.40 696.56,258.96 697.79,274.47 699.01,267.14 700.24,257.76 701.47,247.82 702.69,237.37 703.92,226.43 705.15,263.24 706.37,257.05 707.60,252.01 708.83,246.21 710.05,243.84 711.28,238.29 712.51,247.89 713.73,247.10 714.96,244.02 716.19,240.61 717.41,234.11 718.64,226.36 719.87,217.28 721.09,208.52 722.32,198.20 723.55,243.02 724.77,245.62 726.00,239.01 727.23,227.83 728.45,214.49 729.68,200.25 730.91,234.84 732.13,334.85 733.36,329.25 734.59,321.13 735.81,311.88 737.04,302.11 738.27,292.18 739.49,282.07 740.72,271.71 741.95,261.16 743.17,249.78 744.40,237.36 745.63,281.45 746.85,256.73 748.08,242.51 749.31,227.93 750.53,213.15 751.76,200.95 752.99,186.89 754.21,253.30 755.44,306.04 756.67,310.28 757.89,314.22 759.12,316.96 760.35,323.21 761.57,347.52 762.80,361.01 764.03,365.76 765.25,366.66 766.48,368.27 767.71,369.68 768.93,370.65 770.16,371.05 771.39,370.61 772.61,369.96 773.84,368.97 775.07,367.66 776.29,366.05 777.52,364.11 778.75,362.26 779.97,358.44 781.20,352.30 782.43,345.73 783.65,339.37 784.88,334.46 786.11,331.60 787.33,325.87 788.56,319.66 789.79,336.90 791.01,355.94 792.24,354.34 793.47,349.96 794.69,345.32 795.92,340.67 797.15,336.10 798.37,331.80 799.60,327.83 800.83,324.23 802.05,321.64 803.28,319.43 804.51,317.22 805.73,315.21 806.96,313.91 808.19,312.25 809.41,316.23 810.64,315.72 811.87,311.42 813.09,307.00 814.32,301.38 815.55,294.54 816.77,287.09 818.00,279.14" fill="none" stroke="#d1495b" stroke-width="3"/>
<polyline points="82.00,488.00 83.23,488.00 83.23,488.00 84.45,488.00 84.45,488.00 85.68,488.00 85.68,488.00 86.91,488.00 86.91,488.00 88.13,488.00 88.13,488.00 89.36,488.00 89.36,488.00 90.59,488.00 90.59,488.00 91.81,488.00 91.81,488.00 93.04,488.00 93.04,488.00 94.27,488.00 94.27,488.00 95.49,488.00 95.49,488.00 96.72,488.00 96.72,488.00 97.95,488.00 97.95,488.00 99.17,488.00 99.17,488.00 100.40,488.00 100.40,488.00 101.63,488.00 101.63,488.00 102.85,488.00 102.85,488.00 104.08,488.00 104.08,488.00 105.31,488.00 105.31,488.00 106.53,488.00 106.53,488.00 107.76,488.00 107.76,488.00 108.99,488.00 108.99,488.00 110.21,488.00 110.21,488.00 111.44,488.00 111.44,488.00 112.67,488.00 112.67,488.00 113.89,488.00 113.89,488.00 115.12,488.00 115.12,488.00 116.35,488.00 116.35,488.00 117.57,488.00 117.57,488.00 118.80,488.00 118.80,488.00 120.03,488.00 120.03,488.00 121.25,488.00 121.25,488.00 122.48,488.00 122.48,488.00 123.71,488.00 123.71,488.00 124.93,488.00 124.93,488.00 126.16,488.00 126.16,488.00 127.39,488.00 127.39,488.00 128.61,488.00 128.61,488.00 129.84,488.00 129.84,488.00 131.07,488.00 131.07,488.00 132.29,488.00 132.29,488.00 133.52,488.00 133.52,488.00 134.75,488.00 134.75,488.00 135.97,488.00 135.97,488.00 137.20,488.00 137.20,488.00 138.43,488.00 138.43,488.00 139.65,488.00 139.65,488.00 140.88,488.00 140.88,488.00 142.11,488.00 142.11,488.00 143.33,488.00 143.33,488.00 144.56,488.00 144.56,488.00 145.79,488.00 145.79,488.00 147.01,488.00 147.01,488.00 148.24,488.00 148.24,488.00 149.47,488.00 149.47,488.00 150.69,488.00 150.69,488.00 151.92,488.00 151.92,488.00 153.15,488.00 153.15,488.00 154.37,488.00 154.37,488.00 155.60,488.00 155.60,488.00 156.83,488.00 156.83,488.00 158.05,488.00 158.05,488.00 159.28,488.00 159.28,488.00 160.51,488.00 160.51,488.00 161.73,488.00 161.73,488.00 162.96,488.00 162.96,488.00 164.19,488.00 164.19,488.00 165.41,488.00 165.41,488.00 166.64,488.00 166.64,488.00 167.87,488.00 167.87,488.00 169.09,488.00 169.09,488.00 170.32,488.00 170.32,488.00 171.55,488.00 171.55,488.00 172.77,488.00 172.77,488.00 174.00,488.00 174.00,488.00 175.23,488.00 175.23,488.00 176.45,488.00 176.45,488.00 177.68,488.00 177.68,488.00 178.91,488.00 178.91,488.00 180.13,488.00 180.13,488.00 181.36,488.00 181.36,488.00 182.59,488.00 182.59,488.00 183.81,488.00 183.81,488.00 185.04,488.00 185.04,488.00 186.27,488.00 186.27,488.00 187.49,488.00 187.49,488.00 188.72,488.00 188.72,488.00 189.95,488.00 189.95,488.00 191.17,488.00 191.17,488.00 192.40,488.00 192.40,488.00 193.63,488.00 193.63,488.00 194.85,488.00 194.85,488.00 196.08,488.00 196.08,488.00 197.31,488.00 197.31,488.00 198.53,488.00 198.53,488.00 199.76,488.00 199.76,488.00 200.99,488.00 200.99,488.00 202.21,488.00 202.21,488.00 203.44,488.00 203.44,488.00 204.67,488.00 204.67,488.00 205.89,488.00 205.89,488.00 207.12,488.00 207.12,488.00 208.35,488.00 208.35,488.00 209.57,488.00 209.57,488.00 210.80,488.00 210.80,488.00 212.03,488.00 212.03,488.00 213.25,488.00 213.25,488.00 214.48,488.00 214.48,488.00 215.71,488.00 215.71,488.00 216.93,488.00 216.93,488.00 218.16,488.00 218.16,488.00 219.39,488.00 219.39,488.00 220.61,488.00 220.61,488.00 221.84,488.00 221.84,488.00 223.07,488.00 223.07,488.00 224.29,488.00 224.29,488.00 225.52,488.00 225.52,488.00 226.75,488.00 226.75,488.00 227.97,488.00 227.97,488.00 229.20,488.00 229.20,488.00 230.43,488.00 230.43,488.00 231.65,488.00 231.65,488.00 232.88,488.00 232.88,488.00 234.11,488.00 234.11,488.00 235.33,488.00 235.33,488.00 236.56,488.00 236.56,488.00 237.79,488.00 237.79,488.00 239.01,488.00 239.01,488.00 240.24,488.00 240.24,488.00 241.47,488.00 241.47,488.00 242.69,488.00 242.69,488.00 243.92,488.00 243.92,488.00 245.15,488.00 245.15,488.00 246.37,488.00 246.37,488.00 247.60,488.00 247.60,488.00 248.83,488.00 248.83,488.00 250.05,488.00 250.05,488.00 251.28,488.00 251.28,488.00 252.51,488.00 252.51,488.00 253.73,488.00 253.73,488.00 254.96,488.00 254.96,488.00 256.19,488.00 256.19,488.00 257.41,488.00 257.41,488.00 258.64,488.00 258.64,488.00 259.87,488.00 259.87,488.00 261.09,488.00 261.09,488.00 262.32,488.00 262.32,488.00 263.55,488.00 263.55,488.00 264.77,488.00 264.77,488.00 266.00,488.00 266.00,488.00 267.23,488.00 267.23,488.00 268.45,488.00 268.45,488.00 269.68,488.00 269.68,488.00 270.91,488.00 270.91,488.00 272.13,488.00 272.13,488.00 273.36,488.00 273.36,488.00 274.59,488.00 274.59,488.00 275.81,488.00 275.81,488.00 277.04,488.00 277.04,488.00 278.27,488.00 278.27,488.00 279.49,488.00 279.49,488.00 280.72,488.00 280.72,488.00 281.95,488.00 281.95,488.00 283.17,488.00 283.17,488.00 284.40,488.00 284.40,488.00 285.63,488.00 285.63,488.00 286.85,488.00 286.85,488.00 288.08,488.00 288.08,488.00 289.31,488.00 289.31,488.00 290.53,488.00 290.53,488.00 291.76,488.00 291.76,488.00 292.99,488.00 292.99,488.00 294.21,488.00 294.21,488.00 295.44,488.00 295.44,488.00 296.67,488.00 296.67,488.00 297.89,488.00 297.89,488.00 299.12,488.00 299.12,488.00 300.35,488.00 300.35,488.00 301.57,488.00 301.57,488.00 302.80,488.00 302.80,488.00 304.03,488.00 304.03,488.00 305.25,488.00 305.25,488.00 306.48,488.00 306.48,488.00 307.71,488.00 307.71,488.00 308.93,488.00 308.93,488.00 310.16,488.00 310.16,488.00 311.39,488.00 311.39,488.00 312.61,488.00 312.61,488.00 313.84,488.00 313.84,488.00 315.07,488.00 315.07,488.00 316.29,488.00 316.29,488.00 317.52,488.00 317.52,488.00 318.75,488.00 318.75,488.00 319.97,488.00 319.97,488.00 321.20,488.00 321.20,488.00 322.43,488.00 322.43,488.00 323.65,488.00 323.65,488.00 324.88,488.00 324.88,488.00 326.11,488.00 326.11,488.00 327.33,488.00 327.33,488.00 328.56,488.00 328.56,488.00 329.79,488.00 329.79,488.00 331.01,488.00 331.01,488.00 332.24,488.00 332.24,488.00 333.47,488.00 333.47,488.00 334.69,488.00 334.69,488.00 335.92,488.00 335.92,488.00 337.15,488.00 337.15,488.00 338.37,488.00 338.37,488.00 339.60,488.00 339.60,488.00 340.83,488.00 340.83,487.45 342.05,487.45 342.05,487.45 343.28,487.45 343.28,487.45 344.51,487.45 344.51,486.91 345.73,486.91 345.73,481.44 346.96,481.44 346.96,481.44 348.19,481.44 348.19,481.44 349.41,481.44 349.41,481.44 350.64,481.44 350.64,481.44 351.87,481.44 351.87,481.44 353.09,481.44 353.09,481.44 354.32,481.44 354.32,481.44 355.55,481.44 355.55,481.44 356.77,481.44 356.77,481.44 358.00,481.44 358.00,481.44 359.23,481.44 359.23,481.44 360.45,481.44 360.45,475.98 361.68,475.98 361.68,475.98 362.91,475.98 362.91,475.43 364.13,475.43 364.13,475.43 365.36,475.43 365.36,469.97 366.59,469.97 366.59,469.97 367.81,469.97 367.81,469.97 369.04,469.97 369.04,469.97 370.27,469.97 370.27,469.97 371.49,469.97 371.49,469.97 372.72,469.97 372.72,469.97 373.95,469.97 373.95,469.97 375.17,469.97 375.17,469.97 376.40,469.97 376.40,469.97 377.63,469.97 377.63,469.97 378.85,469.97 378.85,469.97 380.08,469.97 380.08,469.97 381.31,469.97 381.31,469.97 382.53,469.97 382.53,469.97 383.76,469.97 383.76,469.97 384.99,469.97 384.99,469.97 386.21,469.97 386.21,469.97 387.44,469.97 387.44,469.97 388.67,469.97 388.67,469.97 389.89,469.97 389.89,469.97 391.12,469.97 391.12,469.97 392.35,469.97 392.35,469.97 393.57,469.97 393.57,469.97 394.80,469.97 394.80,469.97 396.03,469.97 396.03,469.97 397.25,469.97 397.25,469.97 398.48,469.97 398.48,469.97 399.71,469.97 399.71,469.97 400.93,469.97 400.93,469.97 402.16,469.97 402.16,469.97 403.39,469.97 403.39,469.97 404.61,469.97 404.61,469.97 405.84,469.97 405.84,469.97 407.07,469.97 407.07,469.97 408.29,469.97 408.29,469.97 409.52,469.97 409.52,469.97 410.75,469.97 410.75,469.42 411.97,469.42 411.97,468.88 413.20,468.88 413.20,468.88 414.43,468.88 414.43,468.88 415.65,468.88 415.65,468.88 416.88,468.88 416.88,468.88 418.11,468.88 418.11,468.88 419.33,468.88 419.33,468.88 420.56,468.88 420.56,468.88 421.79,468.88 421.79,461.78 423.01,461.78 423.01,454.13 424.24,454.13 424.24,449.21 425.47,449.21 425.47,449.21 426.69,449.21 426.69,449.21 427.92,449.21 427.92,449.21 429.15,449.21 429.15,449.21 430.37,449.21 430.37,449.21 431.60,449.21 431.60,449.21 432.83,449.21 432.83,449.21 434.05,449.21 434.05,449.21 435.28,449.21 435.28,449.21 436.51,449.21 436.51,449.21 437.73,449.21 437.73,449.21 438.96,449.21 438.96,449.21 440.19,449.21 440.19,449.21 441.41,449.21 441.41,449.21 442.64,449.21 442.64,449.21 443.87,449.21 443.87,449.21 445.09,449.21 445.09,449.21 446.32,449.21 446.32,449.21 447.55,449.21 447.55,449.21 448.77,449.21 448.77,449.21 450.00,449.21 450.00,449.21 451.23,449.21 451.23,449.21 452.45,449.21 452.45,449.21 453.68,449.21 453.68,449.21 454.91,449.21 454.91,449.21 456.13,449.21 456.13,449.21 457.36,449.21 457.36,449.21 458.59,449.21 458.59,448.66 459.81,448.66 459.81,448.12 461.04,448.12 461.04,448.12 462.27,448.12 462.27,448.12 463.49,448.12 463.49,448.12 464.72,448.12 464.72,448.12 465.95,448.12 465.95,448.12 467.17,448.12 467.17,448.12 468.40,448.12 468.40,448.12 469.63,448.12 469.63,448.12 470.85,448.12 470.85,447.02 472.08,447.02 472.08,447.02 473.31,447.02 473.31,447.02 474.53,447.02 474.53,446.48 475.76,446.48 475.76,446.48 476.99,446.48 476.99,446.48 478.21,446.48 478.21,445.93 479.44,445.93 479.44,445.93 480.67,445.93 480.67,419.16 481.89,419.16 481.89,413.15 483.12,413.15 483.12,413.15 484.35,413.15 484.35,413.15 485.57,413.15 485.57,413.15 486.80,413.15 486.80,413.15 488.03,413.15 488.03,413.15 489.25,413.15 489.25,413.15 490.48,413.15 490.48,413.15 491.71,413.15 491.71,413.15 492.93,413.15 492.93,413.15 494.16,413.15 494.16,413.15 495.39,413.15 495.39,413.15 496.61,413.15 496.61,413.15 497.84,413.15 497.84,413.15 499.07,413.15 499.07,413.15 500.29,413.15 500.29,411.51 501.52,411.51 501.52,406.05 502.75,406.05 502.75,406.05 503.97,406.05 503.97,406.05 505.20,406.05 505.20,401.13 506.43,401.13 506.43,401.13 507.65,401.13 507.65,398.95 508.88,398.95 508.88,396.76 510.11,396.76 510.11,393.48 511.33,393.48 511.33,393.48 512.56,393.48 512.56,385.29 513.79,385.29 513.79,385.29 515.01,385.29 515.01,385.29 516.24,385.29 516.24,385.29 517.47,385.29 517.47,385.29 518.69,385.29 518.69,385.29 519.92,385.29 519.92,385.29 521.15,385.29 521.15,385.29 522.37,385.29 522.37,385.29 523.60,385.29 523.60,385.29 524.83,385.29 524.83,385.29 526.05,385.29 526.05,385.29 527.28,385.29 527.28,385.29 528.51,385.29 528.51,385.29 529.73,385.29 529.73,369.44 530.96,369.44 530.96,369.44 532.19,369.44 532.19,369.44 533.41,369.44 533.41,369.44 534.64,369.44 534.64,369.44 535.87,369.44 535.87,369.44 537.09,369.44 537.09,369.44 538.32,369.44 538.32,369.44 539.55,369.44 539.55,369.44 540.77,369.44 540.77,369.44 542.00,369.44 542.00,369.44 543.23,369.44 543.23,369.44 544.45,369.44 544.45,369.44 545.68,369.44 545.68,369.44 546.91,369.44 546.91,369.44 548.13,369.44 548.13,369.44 549.36,369.44 549.36,369.44 550.59,369.44 550.59,369.44 551.81,369.44 551.81,369.44 553.04,369.44 553.04,353.60 554.27,353.60 554.27,350.87 555.49,350.87 555.49,350.87 556.72,350.87 556.72,350.87 557.95,350.87 557.95,350.87 559.17,350.87 559.17,344.86 560.40,344.86 560.40,344.86 561.63,344.86 561.63,344.86 562.85,344.86 562.85,344.86 564.08,344.86 564.08,344.86 565.31,344.86 565.31,344.86 566.53,344.86 566.53,338.85 567.76,338.85 567.76,338.85 568.99,338.85 568.99,338.85 570.21,338.85 570.21,338.85 571.44,338.85 571.44,331.20 572.67,331.20 572.67,331.20 573.89,331.20 573.89,331.20 575.12,331.20 575.12,331.20 576.35,331.20 576.35,324.64 577.57,324.64 577.57,324.64 578.80,324.64 578.80,324.64 580.03,324.64 580.03,324.64 581.25,324.64 581.25,324.64 582.48,324.64 582.48,324.64 583.71,324.64 583.71,293.50 584.93,293.50 584.93,293.50 586.16,293.50 586.16,293.50 587.39,293.50 587.39,293.50 588.61,293.50 588.61,293.50 589.84,293.50 589.84,293.50 591.07,293.50 591.07,293.50 592.29,293.50 592.29,293.50 593.52,293.50 593.52,293.50 594.75,293.50 594.75,293.50 595.97,293.50 595.97,293.50 597.20,293.50 597.20,293.50 598.43,293.50 598.43,293.50 599.65,293.50 599.65,293.50 600.88,293.50 600.88,293.50 602.11,293.50 602.11,293.50 603.33,293.50 603.33,293.50 604.56,293.50 604.56,293.50 605.79,293.50 605.79,293.50 607.01,293.50 607.01,293.50 608.24,293.50 608.24,288.59 609.47,288.59 609.47,288.59 610.69,288.59 610.69,288.59 611.92,288.59 611.92,278.75 613.15,278.75 613.15,278.75 614.37,278.75 614.37,278.20 615.60,278.20 615.60,277.11 616.83,277.11 616.83,276.02 618.05,276.02 618.05,274.38 619.28,274.38 619.28,245.97 620.51,245.97 620.51,240.51 621.73,240.51 621.73,238.32 622.96,238.32 622.96,238.32 624.19,238.32 624.19,238.32 625.41,238.32 625.41,238.32 626.64,238.32 626.64,238.32 627.87,238.32 627.87,238.32 629.09,238.32 629.09,238.32 630.32,238.32 630.32,227.94 631.55,227.94 631.55,227.40 632.77,227.40 632.77,227.40 634.00,227.40 634.00,227.40 635.23,227.40 635.23,227.40 636.45,227.40 636.45,227.40 637.68,227.40 637.68,227.40 638.91,227.40 638.91,227.40 640.13,227.40 640.13,227.40 641.36,227.40 641.36,227.40 642.59,227.40 642.59,227.40 643.81,227.40 643.81,226.30 645.04,226.30 645.04,226.30 646.27,226.30 646.27,210.46 647.49,210.46 647.49,209.91 648.72,209.91 648.72,198.44 649.95,198.44 649.95,198.44 651.17,198.44 651.17,198.44 652.40,198.44 652.40,198.44 653.63,198.44 653.63,191.34 654.85,191.34 654.85,191.34 656.08,191.34 656.08,191.34 657.31,191.34 657.31,191.34 658.53,191.34 658.53,191.34 659.76,191.34 659.76,191.34 660.99,191.34 660.99,191.34 662.21,191.34 662.21,191.34 663.44,191.34 663.44,191.34 664.67,191.34 664.67,191.34 665.89,191.34 665.89,191.34 667.12,191.34 667.12,191.34 668.35,191.34 668.35,184.78 669.57,184.78 669.57,184.78 670.80,184.78 670.80,184.78 672.03,184.78 672.03,184.78 673.25,184.78 673.25,184.78 674.48,184.78 674.48,177.13 675.71,177.13 675.71,177.13 676.93,177.13 676.93,177.13 678.16,177.13 678.16,177.13 679.39,177.13 679.39,177.13 680.61,177.13 680.61,167.30 681.84,167.30 681.84,167.30 683.07,167.30 683.07,167.30 684.29,167.30 684.29,167.30 685.52,167.30 685.52,167.30 686.75,167.30 686.75,166.75 687.97,166.75 687.97,166.75 689.20,166.75 689.20,166.75 690.43,166.75 690.43,166.75 691.65,166.75 691.65,166.75 692.88,166.75 692.88,130.15 694.11,130.15 694.11,130.15 695.33,130.15 695.33,130.15 696.56,130.15 696.56,129.60 697.79,129.60 697.79,125.23 699.01,125.23 699.01,125.23 700.24,125.23 700.24,125.23 701.47,125.23 701.47,125.23 702.69,125.23 702.69,125.23 703.92,125.23 703.92,125.23 705.15,125.23 705.15,117.58 706.37,117.58 706.37,117.58 707.60,117.58 707.60,117.58 708.83,117.58 708.83,117.03 710.05,117.03 710.05,117.03 711.28,117.03 711.28,117.03 712.51,117.03 712.51,114.85 713.73,114.85 713.73,114.85 714.96,114.85 714.96,114.85 716.19,114.85 716.19,114.30 717.41,114.30 717.41,114.30 718.64,114.30 718.64,114.30 719.87,114.30 719.87,114.30 721.09,114.30 721.09,113.21 722.32,113.21 722.32,113.21 723.55,113.21 723.55,103.92 724.77,103.92 724.77,103.92 726.00,103.92 726.00,103.92 727.23,103.92 727.23,103.92 728.45,103.92 728.45,103.92 729.68,103.92 729.68,103.92 730.91,103.92 730.91,96.82 732.13,96.82 732.13,83.16 733.36,83.16 733.36,83.16 734.59,83.16 734.59,83.16 735.81,83.16 735.81,83.16 737.04,83.16 737.04,83.16 738.27,83.16 738.27,83.16 739.49,83.16 739.49,83.16 740.72,83.16 740.72,83.16 741.95,83.16 741.95,83.16 743.17,83.16 743.17,83.16 744.40,83.16 744.40,83.16 745.63,83.16 745.63,74.42 746.85,74.42 746.85,74.42 748.08,74.42 748.08,74.42 749.31,74.42 749.31,74.42 750.53,74.42 750.53,74.42 751.76,74.42 751.76,73.87 752.99,73.87 752.99,73.33 754.21,73.33 754.21,58.58 755.44,58.58 755.44,52.57 756.67,52.57 756.67,52.02 757.89,52.02 757.89,52.02 759.12,52.02 759.12,52.02 760.35,52.02 760.35,51.47 761.57,51.47 761.57,48.20 762.80,48.20 762.80,48.20 764.03,48.20 764.03,47.10 765.25,47.10 765.25,47.10 766.48,47.10 766.48,47.10 767.71,47.10 767.71,47.10 768.93,47.10 768.93,47.10 770.16,47.10 770.16,47.10 771.39,47.10 771.39,47.10 772.61,47.10 772.61,47.10 773.84,47.10 773.84,47.10 775.07,47.10 775.07,47.10 776.29,47.10 776.29,47.10 777.52,47.10 777.52,47.10 778.75,47.10 778.75,47.10 779.97,47.10 779.97,47.10 781.20,47.10 781.20,47.10 782.43,47.10 782.43,47.10 783.65,47.10 783.65,47.10 784.88,47.10 784.88,47.10 786.11,47.10 786.11,47.10 787.33,47.10 787.33,47.10 788.56,47.10 788.56,47.10 789.79,47.10 789.79,40.00 791.01,40.00 791.01,40.00 792.24,40.00 792.24,40.00 793.47,40.00 793.47,40.00 794.69,40.00 794.69,40.00 795.92,40.00 795.92,40.00 797.15,40.00 797.15,40.00 798.37,40.00 798.37,40.00 799.60,40.00 799.60,40.00 800.83,40.00 800.83,40.00 802.05,40.00 802.05,40.00 803.28,40.00 803.28,40.00 804.51,40.00 804.51,40.00 805.73,40.00 805.73,40.00 806.96,40.00 806.96,40.00 808.19,40.00 808.19,40.00 809.41,40.00 809.41,40.00 810.64,40.00 810.64,40.00 811.87,40.00 811.87,40.00 813.09,40.00 813.09,40.00 814.32,40.00 814.32,40.00 815.55,40.00 815.55,40.00 816.77,40.00 816.77,40.00 818.00,40.00 818.00,40.00" fill="none" stroke="#4b8f29" stroke-width="3"/>
<text x="450.0" y="552" text-anchor="middle" font-size="20" font-family="Arial, sans-serif" fill="#111827">Top displacement (mm)</text>
<text x="24" y="280.0" text-anchor="middle" transform="rotate(-90 24 280.0)" font-size="20" font-family="Arial, sans-serif" fill="#111827">Force magnitude (N)</text>
<text x="880" y="280.0" text-anchor="middle" transform="rotate(90 880 280.0)" font-size="20" font-family="Arial, sans-serif" fill="#111827">Broken bonds</text>
<text x="102" y="64" font-size="18" font-family="Arial, sans-serif" fill="#1b6ca8">Top plate</text>
<text x="212" y="64" font-size="18" font-family="Arial, sans-serif" fill="#d1495b">Bottom plate</text>
<text x="352" y="64" font-size="18" font-family="Arial, sans-serif" fill="#4b8f29">Broken bonds</text>
<text x="72" y="45" text-anchor="end" font-size="17" fill="#30363d">31.09</text>
<text x="72" y="488" text-anchor="end" font-size="17" fill="#30363d">0</text>
<text x="828" y="45" text-anchor="start" font-size="17" fill="#30363d">820</text>
<text x="828" y="488" text-anchor="start" font-size="17" fill="#30363d">0</text>
</svg>
