<svg xmlns="http://www.w3.org/2000/svg" width="900" height="560" viewBox="0 0 900 560">
<rect width="100%" height="100%" fill="white"/>
<text x="450.0" y="26" text-anchor="middle" font-size="22" font-family="Arial, sans-serif" fill="#111827">SP-002 force-displacement and bond breakage</text>
<line x1="82" y1="40.00" x2="818" y2="40.00" stroke="#d9dee2" stroke-width="1"/><line x1="82" y1="129.60" x2="818" y2="129.60" stroke="#d9dee2" stroke-width="1"/><line x1="82" y1="219.20" x2="818" y2="219.20" stroke="#d9dee2" stroke-width="1"/><line x1="82" y1="308.80" x2="818" y2="308.80" stroke="#d9dee2" stroke-width="1"/><line x1="82" y1="398.40" x2="818" y2="398.40" stroke="#d9dee2" stroke-width="1"/><line x1="82" y1="488.00" x2="818" y2="488.00" stroke="#d9dee2" stroke-width="1"/><line x1="82.00" y1="40" x2="82.00" y2="488" stroke="#edf0f2" stroke-width="1"/><text x="82.00" y="526" text-anchor="middle" font-size="18" fill="#30363d">0.000</text><line x1="229.20" y1="40" x2="229.20" y2="488" stroke="#edf0f2" stroke-width="1"/><text x="229.20" y="526" text-anchor="middle" font-size="18" fill="#30363d">0.060</text><line x1="376.40" y1="40" x2="376.40" y2="488" stroke="#edf0f2" stroke-width="1"/><text x="376.40" y="526" text-anchor="middle" font-size="18" fill="#30363d">0.120</text><line x1="523.60" y1="40" x2="523.60" y2="488" stroke="#edf0f2" stroke-width="1"/><text x="523.60" y="526" text-anchor="middle" font-size="18" fill="#30363d">0.180</text><line x1="670.80" y1="40" x2="670.80" y2="488" stroke="#edf0f2" stroke-width="1"/><text x="670.80" y="526" text-anchor="middle" font-size="18" fill="#30363d">0.240</text><line x1="818.00" y1="40" x2="818.00" y2="488" stroke="#edf0f2" stroke-width="1"/><text x="818.00" y="526" text-anchor="middle" font-size="18" fill="#30363d">0.300</text>
<line x1="82" y1="40" x2="82" y2="488" stroke="#111827" stroke-width="1.5"/>
<line x1="82" y1="488" x2="818" y2="488" stroke="#111827" stroke-width="1.5"/>
<line x1="818" y1="40" x2="818" y2="488" stroke="#111827" stroke-width="1.5"/>
<polyline points="82.00,488.00 83.23,488.00 84.45,488.00 85.68,488.00 86.91,488.00 88.13,488.00 89.36,488.00 90.59,488.00 91.81,488.00 93.04,488.00 94.27,488.00 95.49,488.00 96.72,488.00 97.95,488.00 99.17,488.00 100.40,488.00 101.63,488.00 102.85,488.00 104.08,488.00 105.31,488.00 106.53,488.00 107.76,488.00 108.99,488.00 110.21,488.00 111.44,488.00 112.67,488.00 113.89,488.00 115.12,488.00 116.35,488.00 117.57,488.00 118.80,488.00 120.03,488.00 121.25,488.00 122.48,488.00 123.71,488.00 124.93,488.00 126.16,488.00 127.39,488.00 128.61,488.00 129.84,488.00 131.07,488.00 132.29,488.00 133.52,488.00 134.75,488.00 135.97,488.00 137.20,488.00 138.43,488.00 139.65,488.00 140.88,488.00 142.11,488.00 143.33,488.00 144.56,488.00 145.79,488.00 147.01,488.00 148.24,488.00 149.47,488.00 150.69,488.00 151.92,488.00 153.15,488.00 154.37,488.00 155.60,488.00 156.83,488.00 158.05,488.00 159.28,488.00 160.51,488.00 161.73,488.00 162.96,488.00 164.19,488.00 165.41,488.00 166.64,488.00 167.87,488.00 169.09,488.00 170.32,488.00 171.55,488.00 172.77,488.00 174.00,488.00 175.23,488.00 176.45,488.00 177.68,488.00 178.91,488.00 180.13,488.00 181.36,488.00 182.59,488.00 183.81,488.00 185.04,488.00 186.27,488.00 187.49,488.00 188.72,488.00 189.95,488.00 191.17,488.00 192.40,488.00 193.63,488.00 194.85,488.00 196.08,488.00 197.31,488.00 198.53,488.00 199.76,488.00 200.99,488.00 202.21,488.00 203.44,488.00 204.67,488.00 205.89,488.00 207.12,488.00 208.35,488.00 209.57,488.00 210.80,488.00 212.03,488.00 213.25,488.00 214.48,488.00 215.71,488.00 216.93,488.00 218.16,488.00 219.39,488.00 220.61,488.00 221.84,488.00 223.07,488.00 224.29,488.00 225.52,488.00 226.75,488.00 227.97,488.00 229.20,488.00 230.43,488.00 231.65,488.00 232.88,488.00 234.11,488.00 235.33,488.00 236.56,488.00 237.79,488.00 239.01,488.00 240.24,488.00 241.47,488.00 242.69,488.00 243.92,488.00 245.15,488.00 246.37,488.00 247.60,488.00 248.83,488.00 250.05,488.00 251.28,488.00 252.51,488.00 253.73,488.00 254.96,488.00 256.19,488.00 257.41,488.00 258.64,488.00 259.87,488.00 261.09,488.00 262.32,488.00 263.55,488.00 264.77,488.00 266.00,488.00 267.23,488.00 268.45,488.00 269.68,488.00 270.91,488.00 272.13,488.00 273.36,488.00 274.59,488.00 275.81,488.00 277.04,488.00 278.27,488.00 279.49,488.00 280.72,488.00 281.95,488.00 283.17,488.00 284.40,488.00 285.63,488.00 286.85,488.00 288.08,488.00 289.31,488.00 290.53,488.00 291.76,488.00 292.99,488.00 294.21,488.00 295.44,488.00 296.67,488.00 297.89,488.00 299.12,488.00 300.35,488.00 301.57,488.00 302.80,488.00 304.03,488.00 305.25,488.00 306.48,488.00 307.71,488.00 308.93,488.00 310.16,488.00 311.39,488.00 312.61,488.00 313.84,488.00 315.07,488.00 316.29,488.00 317.52,488.00 318.75,488.00 319.97,488.00 321.20,488.00 322.43,488.00 323.65,488.00 324.88,488.00 326.11,488.00 327.33,487.99 328.56,484.26 329.79,478.39 331.01,471.47 332.24,463.82 333.47,455.63 334.69,446.99 335.92,437.98 337.15,428.94 338.37,422.75 339.60,487.94 340.83,487.94 342.05,487.94 343.28,487.94 344.51,485.07 345.73,479.66 346.96,473.26 348.19,466.26 349.41,458.27 350.64,446.09 351.87,431.95 353.09,416.55 354.32,457.20 355.55,447.82 356.77,438.28 358.00,428.23 359.23,417.73 360.45,408.67 361.68,433.16 362.91,442.80 364.13,441.02 365.36,435.07 366.59,427.69 367.81,419.64 369.04,411.19 370.27,436.25 371.49,436.57 372.72,429.24 373.95,419.92 375.17,409.91 376.40,400.73 377.63,410.30 378.85,411.43 380.08,416.23 381.31,429.35 382.53,431.77 383.76,430.19 384.99,426.82 386.21,422.58 387.44,417.87 388.67,418.39 389.89,434.83 391.12,444.55 392.35,450.42 393.57,454.03 394.80,456.29 396.03,457.76 397.25,458.73 398.48,459.35 399.71,459.80 400.93,460.03 402.16,460.13 403.39,460.18 404.61,460.19 405.84,460.19 407.07,460.16 408.29,460.12 409.52,460.05 410.75,459.97 411.97,459.90 413.20,459.72 414.43,458.76 415.65,456.90 416.88,454.33 418.11,451.26 419.33,447.86 420.56,444.24 421.79,440.49 423.01,436.67 424.24,432.80 425.47,428.92 426.69,425.05 427.92,421.19 429.15,417.37 430.37,413.59 431.60,409.86 432.83,406.18 434.05,402.56 435.28,399.01 436.51,395.51 437.73,391.99 438.96,387.17 440.19,380.84 441.41,373.90 442.64,455.62 443.87,451.63 445.09,448.77 446.32,446.15 447.55,441.34 448.77,432.74 450.00,423.41 451.23,413.75 452.45,403.73 453.68,393.28 454.91,382.53 456.13,371.63 457.36,360.60 458.59,399.50 459.81,423.32 461.04,402.50 462.27,390.22 463.49,378.32 464.72,366.00 465.95,352.67 467.17,337.86 468.40,324.11 469.63,367.30 470.85,447.21 472.08,441.49 473.31,434.93 474.53,428.81 475.76,423.04 476.99,417.50 478.21,411.98 479.44,406.55 480.67,401.16 481.89,395.83 483.12,390.52 484.35,385.36 485.57,380.50 486.80,375.71 488.03,371.14 489.25,366.06 490.48,360.20 491.71,353.82 492.93,346.82 494.16,339.09 495.39,331.12 496.61,323.01 497.84,313.42 499.07,300.86 500.29,287.72 501.52,274.28 502.75,260.71 503.97,247.12 505.20,233.59 506.43,233.10 507.65,246.15 508.88,239.53 510.11,232.51 511.33,226.16 512.56,221.75 513.79,228.91 515.01,256.79 516.24,294.39 517.47,329.17 518.69,337.15 519.92,335.11 521.15,327.39 522.37,317.24 523.60,342.90 524.83,368.52 526.05,373.23 527.28,374.27 528.51,373.58 529.73,371.94 530.96,369.57 532.19,366.29 533.41,362.40 534.64,357.99 535.87,349.65 537.09,340.35 538.32,333.04 539.55,364.91 540.77,373.37 542.00,395.83 543.23,386.83 544.45,379.71 545.68,370.59 546.91,360.08 548.13,348.73 549.36,336.64 550.59,329.46 551.81,349.87 553.04,367.01 554.27,373.78 555.49,373.75 556.72,371.54 557.95,367.82 559.17,357.52 560.40,342.50 561.63,325.37 562.85,306.97 564.08,287.73 565.31,267.66 566.53,247.09 567.76,225.98 568.99,206.96 570.21,267.96 571.44,288.62 572.67,279.30 573.89,266.46 575.12,251.67 576.35,236.05 577.57,259.88 578.80,259.02 580.03,290.34 581.25,299.67 582.48,324.28 583.71,337.69 584.93,333.16 586.16,325.07 587.39,315.89 588.61,305.75 589.84,294.84 591.07,283.27 592.29,272.90 593.52,276.11 594.75,277.35 595.97,272.05 597.20,264.23 598.43,254.43 599.65,242.89 600.88,230.34 602.11,216.89 603.33,202.17 604.56,186.86 605.79,170.89 607.01,154.32 608.24,137.05 609.47,205.27 610.69,211.40 611.92,199.23 613.15,185.60 614.37,170.80 615.60,155.06 616.83,138.68 618.05,121.56 619.28,106.44 620.51,88.47 621.73,70.25 622.96,278.07 624.19,321.90 625.41,328.58 626.64,323.33 627.87,316.76 629.09,309.63 630.32,301.63 631.55,293.00 632.77,337.09 634.00,320.41 635.23,333.77 636.45,336.23 637.68,326.56 638.91,395.70 640.13,395.51 641.36,393.32 642.59,392.43 643.81,389.70 645.04,383.68 646.27,376.57 647.49,368.74 648.72,360.30 649.95,351.44 651.17,342.21 652.40,332.50 653.63,320.82 654.85,308.87 656.08,296.66 657.31,284.22 658.53,271.48 659.76,258.37 660.99,245.03 662.21,314.70 663.44,297.35 664.67,280.55 665.89,274.85 667.12,266.05 668.35,252.45 669.57,235.46 670.80,216.66 672.03,196.69 673.25,175.93 674.48,154.65 675.71,164.75 676.93,147.97 678.16,129.41 679.39,110.11 680.61,90.14 681.84,68.89 683.07,71.80 684.29,92.40 685.52,119.94 686.75,122.09 687.97,116.62 689.20,109.96 690.43,100.90 691.65,116.03 692.88,246.12 694.11,229.10 695.33,224.25 696.56,220.13 697.79,215.36 699.01,208.93 700.24,202.65 701.47,195.65 702.69,188.18 703.92,180.88 705.15,173.02 706.37,164.78 707.60,154.98 708.83,143.32 710.05,130.40 711.28,158.20 712.51,174.03 713.73,204.23 714.96,224.65 716.19,253.29 717.41,245.36 718.64,233.52 719.87,219.81 721.09,223.09 722.32,237.43 723.55,245.13 724.77,248.08 726.00,248.27 727.23,246.46 728.45,241.54 729.68,240.83 730.91,231.55 732.13,219.94 733.36,206.91 734.59,192.44 735.81,177.11 737.04,160.03 738.27,140.27 739.49,118.75 740.72,94.81 741.95,120.91 743.17,113.98 744.40,92.43 745.63,66.46 746.85,40.00 748.08,157.19 749.31,226.87 750.53,217.28 751.76,210.77 752.99,303.45 754.21,296.02 755.44,288.88 756.67,278.47 757.89,264.53 759.12,250.01 760.35,234.95 761.57,219.30 762.80,203.16 764.03,201.26 765.25,190.08 766.48,174.31 767.71,288.91 768.93,379.69 770.16,398.82 771.39,383.24 772.61,372.53 773.84,361.38 775.07,348.63 776.29,334.03 777.52,317.19 778.75,298.89 779.97,279.52 781.20,259.26 782.43,238.29 783.65,216.68 784.88,251.62 786.11,219.81 787.33,200.38 788.56,180.52 789.79,159.41 791.01,137.32 792.24,114.75 793.47,91.87 794.69,68.71 795.92,41.44 797.15,41.32 798.37,164.34 799.60,127.31 800.83,111.12 802.05,68.98 803.28,77.68 804.51,69.86 805.73,111.30 806.96,98.67 808.19,85.83 809.41,76.16 810.64,68.48 811.87,129.50 813.09,126.09 814.32,171.45 815.55,178.67 816.77,179.10 818.00,192.90" fill="none" stroke="#1b6ca8" stroke-width="3"/>
<polyline points="82.00,488.00 83.23,488.00 84.45,488.00 85.68,488.00 86.91,488.00 88.13,488.00 89.36,488.00 90.59,488.00 91.81,488.00 93.04,488.00 94.27,488.00 95.49,488.00 96.72,488.00 97.95,488.00 99.17,488.00 100.40,488.00 101.63,488.00 102.85,488.00 104.08,488.00 105.31,488.00 106.53,488.00 107.76,488.00 108.99,488.00 110.21,488.00 111.44,488.00 112.67,488.00 113.89,488.00 115.12,488.00 116.35,488.00 117.57,488.00 118.80,488.00 120.03,488.00 121.25,488.00 122.48,488.00 123.71,488.00 124.93,488.00 126.16,488.00 127.39,488.00 128.61,488.00 129.84,488.00 131.07,488.00 132.29,488.00 133.52,488.00 134.75,488.00 135.97,488.00 137.20,488.00 138.43,488.00 139.65,488.00 140.88,488.00 142.11,488.00 143.33,488.00 144.56,488.00 145.79,488.00 147.01,488.00 148.24,488.00 149.47,488.00 150.69,488.00 151.92,488.00 153.15,488.00 154.37,488.00 155.60,488.00 156.83,488.00 158.05,488.00 159.28,488.00 160.51,488.00 161.73,488.00 162.96,488.00 164.19,488.00 165.41,488.00 166.64,488.00 167.87,488.00 169.09,488.00 170.32,488.00 171.55,488.00 172.77,488.00 174.00,488.00 175.23,488.00 176.45,488.00 177.68,488.00 178.91,488.00 180.13,488.00 181.36,488.00 182.59,488.00 183.81,488.00 185.04,488.00 186.27,488.00 187.49,488.00 188.72,488.00 189.95,488.00 191.17,488.00 192.40,488.00 193.63,488.00 194.85,488.00 196.08,488.00 197.31,488.00 198.53,488.00 199.76,488.00 200.99,488.00 202.21,488.00 203.44,488.00 204.67,488.00 205.89,488.00 207.12,488.00 208.35,488.00 209.57,488.00 210.80,488.00 212.03,488.00 213.25,488.00 214.48,488.00 215.71,488.00 216.93,488.00 218.16,488.00 219.39,488.00 220.61,488.00 221.84,488.00 223.07,488.00 224.29,488.00 225.52,488.00 226.75,488.00 227.97,488.00 229.20,488.00 230.43,488.00 231.65,488.00 232.88,488.00 234.11,488.00 235.33,488.00 236.56,488.00 237.79,488.00 239.01,488.00 240.24,488.00 241.47,488.00 242.69,488.00 243.92,488.00 245.15,488.00 246.37,488.00 247.60,488.00 248.83,488.00 250.05,488.00 251.28,488.00 252.51,488.00 253.73,488.00 254.96,488.00 256.19,488.00 257.41,488.00 258.64,488.00 259.87,488.00 261.09,488.00 262.32,488.00 263.55,488.00 264.77,488.00 266.00,488.00 267.23,488.00 268.45,488.00 269.68,488.00 270.91,488.00 272.13,488.00 273.36,488.00 274.59,488.00 275.81,488.00 277.04,488.00 278.27,488.00 279.49,488.00 280.72,488.00 281.95,488.00 283.17,488.00 284.40,488.00 285.63,488.00 286.85,488.00 288.08,488.00 289.31,488.00 290.53,488.00 291.76,488.00 292.99,488.00 294.21,488.00 295.44,488.00 296.67,488.00 297.89,488.00 299.12,488.00 300.35,488.00 301.57,488.00 302.80,488.00 304.03,488.00 305.25,488.00 306.48,488.00 307.71,488.00 308.93,488.00 310.16,488.00 311.39,488.00 312.61,488.00 313.84,488.00 315.07,488.00 316.29,488.00 317.52,488.00 318.75,488.00 319.97,488.00 321.20,488.00 322.43,488.00 323.65,488.00 324.88,488.00 326.11,488.00 327.33,488.00 328.56,485.86 329.79,480.72 331.01,474.19 332.24,466.82 333.47,458.83 334.69,450.36 335.92,441.49 337.15,432.27 338.37,425.65 339.60,480.62 340.83,487.48 342.05,487.96 343.28,488.00 344.51,486.52 345.73,481.88 346.96,475.85 348.19,469.06 349.41,461.67 350.64,451.02 351.87,437.64 353.09,422.73 354.32,455.46 355.55,451.12 356.77,442.08 358.00,432.26 359.23,421.94 360.45,412.08 361.68,472.02 362.91,460.59 364.13,452.52 365.36,445.12 366.59,437.49 367.81,429.51 369.04,421.19 370.27,471.28 371.49,452.26 372.72,439.99 373.95,429.67 375.17,419.54 376.40,434.67 377.63,452.05 378.85,437.57 380.08,475.23 381.31,466.77 382.53,459.69 383.76,453.68 384.99,448.25 386.21,443.08 387.44,437.96 388.67,487.99 389.89,488.00 391.12,488.00 392.35,488.00 393.57,488.00 394.80,488.00 396.03,488.00 397.25,488.00 398.48,488.00 399.71,488.00 400.93,488.00 402.16,488.00 403.39,488.00 404.61,488.00 405.84,488.00 407.07,488.00 408.29,488.00 409.52,488.00 410.75,488.00 411.97,488.00 413.20,486.98 414.43,483.88 415.65,480.24 416.88,476.48 418.11,472.70 419.33,468.93 420.56,465.17 421.79,461.43 423.01,457.69 424.24,453.98 425.47,450.28 426.69,446.61 427.92,442.98 429.15,439.39 430.37,435.84 431.60,432.36 432.83,428.94 434.05,425.58 435.28,422.29 436.51,419.10 437.73,414.71 438.96,406.21 440.19,398.38 441.41,391.20 442.64,388.44 443.87,417.87 445.09,429.60 446.32,434.55 447.55,436.00 448.77,433.82 450.00,429.17 451.23,422.88 452.45,415.35 453.68,406.79 454.91,397.32 456.13,387.26 457.36,376.74 458.59,398.63 459.81,419.91 461.04,419.60 462.27,409.08 463.49,397.52 464.72,383.80 465.95,368.13 467.17,351.43 468.40,335.77 469.63,329.95 470.85,425.54 472.08,438.22 473.31,438.25 474.53,435.54 475.76,431.46 476.99,426.68 478.21,421.39 479.44,415.71 480.67,410.14 481.89,404.72 483.12,399.43 484.35,394.26 485.57,389.32 486.80,384.59 488.03,379.97 489.25,375.30 490.48,369.80 491.71,363.57 492.93,356.68 494.16,348.97 495.39,340.83 496.61,332.48 497.84,323.45 499.07,311.87 500.29,298.72 501.52,284.93 502.75,270.90 503.97,256.84 505.20,242.86 506.43,297.95 507.65,259.47 508.88,249.11 510.11,241.41 511.33,234.57 512.56,229.83 513.79,305.39 515.01,275.48 516.24,404.35 517.47,386.57 518.69,375.95 519.92,360.11 521.15,346.15 522.37,333.34 523.60,403.70 524.83,399.68 526.05,398.53 527.28,397.04 528.51,395.17 529.73,392.49 530.96,389.02 532.19,384.41 533.41,379.50 534.64,374.38 535.87,367.56 537.09,359.00 538.32,351.14 539.55,409.52 540.77,404.63 542.00,409.27 543.23,406.26 544.45,398.08 545.68,387.38 546.91,376.44 548.13,364.77 549.36,352.59 550.59,340.00 551.81,352.52 553.04,378.88 554.27,379.58 555.49,379.01 556.72,376.89 557.95,373.61 559.17,366.93 560.40,354.66 561.63,339.08 562.85,321.55 564.08,302.78 565.31,283.21 566.53,263.20 567.76,242.42 568.99,226.03 570.21,338.33 571.44,313.96 572.67,299.91 573.89,285.76 575.12,270.64 576.35,254.99 577.57,295.81 578.80,283.01 580.03,322.77 581.25,321.29 582.48,375.46 583.71,360.01 584.93,350.95 586.16,342.76 587.39,333.92 588.61,324.09 589.84,313.55 591.07,302.37 592.29,292.89 593.52,298.60 594.75,297.17 595.97,290.55 597.20,282.74 598.43,272.68 599.65,261.36 600.88,249.05 602.11,235.81 603.33,220.83 604.56,205.12 605.79,188.83 607.01,171.97 608.24,154.31 609.47,170.86 610.69,223.58 611.92,213.32 613.15,200.81 614.37,185.92 615.60,169.70 616.83,153.09 618.05,130.53 619.28,121.31 620.51,103.01 621.73,85.56 622.96,148.98 624.19,226.14 625.41,300.97 626.64,312.90 627.87,313.34 629.09,309.86 630.32,304.33 631.55,297.49 632.77,290.28 634.00,317.44 635.23,323.77 636.45,332.72 637.68,331.22 638.91,368.07 640.13,386.36 641.36,394.00 642.59,396.38 643.81,396.43 645.04,392.82 646.27,387.56 647.49,380.56 648.72,372.65 649.95,364.14 651.17,355.19 652.40,345.86 653.63,335.39 654.85,324.03 656.08,312.15 657.31,299.97 658.53,287.39 659.76,274.46 660.99,261.47 662.21,260.80 663.44,297.65 664.67,306.52 665.89,304.17 667.12,289.87 668.35,272.77 669.57,254.47 670.80,235.29 672.03,215.25 673.25,194.52 674.48,173.26 675.71,179.56 676.93,164.25 678.16,146.54 679.39,127.70 680.61,107.34 681.84,86.09 683.07,138.91 684.29,131.61 685.52,155.03 686.75,146.13 687.97,138.29 689.20,130.33 690.43,119.63 691.65,117.04 692.88,201.59 694.11,234.68 695.33,238.43 696.56,236.87 697.79,233.53 699.01,229.18 700.24,224.07 701.47,217.37 702.69,210.14 703.92,202.87 705.15,195.25 706.37,186.89 707.60,174.98 708.83,161.85 710.05,147.97 711.28,220.94 712.51,203.20 713.73,275.60 714.96,249.05 716.19,275.06 717.41,261.82 718.64,249.21 719.87,235.24 721.09,247.06 722.32,272.06 723.55,274.11 724.77,274.56 726.00,273.14 727.23,269.89 728.45,266.33 729.68,263.31 730.91,257.12 732.13,243.26 733.36,228.40 734.59,213.01 735.81,196.53 737.04,177.67 738.27,156.37 739.49,133.26 740.72,108.80 741.95,148.29 743.17,134.78 744.40,107.55 745.63,80.85 746.85,54.03 748.08,109.62 749.31,179.24 750.53,219.13 751.76,218.58 752.99,291.93 754.21,300.19 755.44,295.74 756.67,287.48 757.89,275.33 759.12,261.42 760.35,246.46 761.57,230.79 762.80,214.55 764.03,225.96 765.25,201.23 766.48,184.85 767.71,206.78 768.93,288.50 770.16,387.98 771.39,390.80 772.61,383.18 773.84,373.24 775.07,361.79 776.29,347.20 777.52,329.84 778.75,311.30 779.97,291.81 781.20,271.49 782.43,250.49 783.65,228.86 784.88,226.24 786.11,229.65 787.33,210.76 788.56,190.95 789.79,170.21 791.01,148.17 792.24,125.58 793.47,102.68 794.69,79.64 795.92,54.02 797.15,93.53 798.37,82.06 799.60,135.94 800.83,123.69 802.05,104.19 803.28,87.43 804.51,120.54 805.73,97.39 806.96,109.44 808.19,98.39 809.41,96.42 810.64,83.10 811.87,141.06 813.09,134.23 814.32,183.80 815.55,191.16 816.77,192.67 818.00,209.24" fill="none" stroke="#d1495b" stroke-width="3"/>
<polyline points="82.00,488.00 83.23,488.00 83.23,488.00 84.45,488.00 84.45,488.00 85.68,488.00 85.68,488.00 86.91,488.00 86.91,488.00 88.13,488.00 88.13,488.00 89.36,488.00 89.36,488.00 90.59,488.00 90.59,488.00 91.81,488.00 91.81,488.00 93.04,488.00 93.04,488.00 94.27,488.00 94.27,488.00 95.49,488.00 95.49,488.00 96.72,488.00 96.72,488.00 97.95,488.00 97.95,488.00 99.17,488.00 99.17,488.00 100.40,488.00 100.40,488.00 101.63,488.00 101.63,488.00 102.85,488.00 102.85,488.00 104.08,488.00 104.08,488.00 105.31,488.00 105.31,488.00 106.53,488.00 106.53,488.00 107.76,488.00 107.76,488.00 108.99,488.00 108.99,488.00 110.21,488.00 110.21,488.00 111.44,488.00 111.44,488.00 112.67,488.00 112.67,488.00 113.89,488.00 113.89,488.00 115.12,488.00 115.12,488.00 116.35,488.00 116.35,488.00 117.57,488.00 117.57,488.00 118.80,488.00 118.80,488.00 120.03,488.00 120.03,488.00 121.25,488.00 121.25,488.00 122.48,488.00 122.48,488.00 123.71,488.00 123.71,488.00 124.93,488.00 124.93,488.00 126.16,488.00 126.16,488.00 127.39,488.00 127.39,488.00 128.61,488.00 128.61,488.00 129.84,488.00 129.84,488.00 131.07,488.00 131.07,488.00 132.29,488.00 132.29,488.00 133.52,488.00 133.52,488.00 134.75,488.00 134.75,488.00 135.97,488.00 135.97,488.00 137.20,488.00 137.20,488.00 138.43,488.00 138.43,488.00 139.65,488.00 139.65,488.00 140.88,488.00 140.88,488.00 142.11,488.00 142.11,488.00 143.33,488.00 143.33,488.00 144.56,488.00 144.56,488.00 145.79,488.00 145.79,488.00 147.01,488.00 147.01,488.00 148.24,488.00 148.24,488.00 149.47,488.00 149.47,488.00 150.69,488.00 150.69,488.00 151.92,488.00 151.92,488.00 153.15,488.00 153.15,488.00 154.37,488.00 154.37,488.00 155.60,488.00 155.60,488.00 156.83,488.00 156.83,488.00 158.05,488.00 158.05,488.00 159.28,488.00 159.28,488.00 160.51,488.00 160.51,488.00 161.73,488.00 161.73,488.00 162.96,488.00 162.96,488.00 164.19,488.00 164.19,488.00 165.41,488.00 165.41,488.00 166.64,488.00 166.64,488.00 167.87,488.00 167.87,488.00 169.09,488.00 169.09,488.00 170.32,488.00 170.32,488.00 171.55,488.00 171.55,488.00 172.77,488.00 172.77,488.00 174.00,488.00 174.00,488.00 175.23,488.00 175.23,488.00 176.45,488.00 176.45,488.00 177.68,488.00 177.68,488.00 178.91,488.00 178.91,488.00 180.13,488.00 180.13,488.00 181.36,488.00 181.36,488.00 182.59,488.00 182.59,488.00 183.81,488.00 183.81,488.00 185.04,488.00 185.04,488.00 186.27,488.00 186.27,488.00 187.49,488.00 187.49,488.00 188.72,488.00 188.72,488.00 189.95,488.00 189.95,488.00 191.17,488.00 191.17,488.00 192.40,488.00 192.40,488.00 193.63,488.00 193.63,488.00 194.85,488.00 194.85,488.00 196.08,488.00 196.08,488.00 197.31,488.00 197.31,488.00 198.53,488.00 198.53,488.00 199.76,488.00 199.76,488.00 200.99,488.00 200.99,488.00 202.21,488.00 202.21,488.00 203.44,488.00 203.44,488.00 204.67,488.00 204.67,488.00 205.89,488.00 205.89,488.00 207.12,488.00 207.12,488.00 208.35,488.00 208.35,488.00 209.57,488.00 209.57,488.00 210.80,488.00 210.80,488.00 212.03,488.00 212.03,488.00 213.25,488.00 213.25,488.00 214.48,488.00 214.48,488.00 215.71,488.00 215.71,488.00 216.93,488.00 216.93,488.00 218.16,488.00 218.16,488.00 219.39,488.00 219.39,488.00 220.61,488.00 220.61,488.00 221.84,488.00 221.84,488.00 223.07,488.00 223.07,488.00 224.29,488.00 224.29,488.00 225.52,488.00 225.52,488.00 226.75,488.00 226.75,488.00 227.97,488.00 227.97,488.00 229.20,488.00 229.20,488.00 230.43,488.00 230.43,488.00 231.65,488.00 231.65,488.00 232.88,488.00 232.88,488.00 234.11,488.00 234.11,488.00 235.33,488.00 235.33,488.00 236.56,488.00 236.56,488.00 237.79,488.00 237.79,488.00 239.01,488.00 239.01,488.00 240.24,488.00 240.24,488.00 241.47,488.00 241.47,488.00 242.69,488.00 242.69,488.00 243.92,488.00 243.92,488.00 245.15,488.00 245.15,488.00 246.37,488.00 246.37,488.00 247.60,488.00 247.60,488.00 248.83,488.00 248.83,488.00 250.05,488.00 250.05,488.00 251.28,488.00 251.28,488.00 252.51,488.00 252.51,488.00 253.73,488.00 253.73,488.00 254.96,488.00 254.96,488.00 256.19,488.00 256.19,488.00 257.41,488.00 257.41,488.00 258.64,488.00 258.64,488.00 259.87,488.00 259.87,488.00 261.09,488.00 261.09,488.00 262.32,488.00 262.32,488.00 263.55,488.00 263.55,488.00 264.77,488.00 264.77,488.00 266.00,488.00 266.00,488.00 267.23,488.00 267.23,488.00 268.45,488.00 268.45,488.00 269.68,488.00 269.68,488.00 270.91,488.00 270.91,488.00 272.13,488.00 272.13,488.00 273.36,488.00 273.36,488.00 274.59,488.00 274.59,488.00 275.81,488.00 275.81,488.00 277.04,488.00 277.04,488.00 278.27,488.00 278.27,488.00 279.49,488.00 279.49,488.00 280.72,488.00 280.72,488.00 281.95,488.00 281.95,488.00 283.17,488.00 283.17,488.00 284.40,488.00 284.40,488.00 285.63,488.00 285.63,488.00 286.85,488.00 286.85,488.00 288.08,488.00 288.08,488.00 289.31,488.00 289.31,488.00 290.53,488.00 290.53,488.00 291.76,488.00 291.76,488.00 292.99,488.00 292.99,488.00 294.21,488.00 294.21,488.00 295.44,488.00 295.44,488.00 296.67,488.00 296.67,488.00 297.89,488.00 297.89,488.00 299.12,488.00 299.12,488.00 300.35,488.00 300.35,488.00 301.57,488.00 301.57,488.00 302.80,488.00 302.80,488.00 304.03,488.00 304.03,488.00 305.25,488.00 305.25,488.00 306.48,488.00 306.48,488.00 307.71,488.00 307.71,488.00 308.93,488.00 308.93,488.00 310.16,488.00 310.16,488.00 311.39,488.00 311.39,488.00 312.61,488.00 312.61,488.00 313.84,488.00 313.84,488.00 315.07,488.00 315.07,488.00 316.29,488.00 316.29,488.00 317.52,488.00 317.52,488.00 318.75,488.00 318.75,488.00 319.97,488.00 319.97,488.00 321.20,488.00 321.20,488.00 322.43,488.00 322.43,488.00 323.65,488.00 323.65,488.00 324.88,488.00 324.88,488.00 326.11,488.00 326.11,488.00 327.33,488.00 327.33,488.00 328.56,488.00 328.56,488.00 329.79,488.00 329.79,488.00 331.01,488.00 331.01,488.00 332.24,488.00 332.24,488.00 333.47,488.00 333.47,488.00 334.69,488.00 334.69,488.00 335.92,488.00 335.92,488.00 337.15,488.00 337.15,487.48 338.37,487.48 338.37,486.96 339.60,486.96 339.60,481.78 340.83,481.78 340.83,481.78 342.05,481.78 342.05,481.78 343.28,481.78 343.28,481.78 344.51,481.78 344.51,481.78 345.73,481.78 345.73,481.78 346.96,481.78 346.96,481.78 348.19,481.78 348.19,481.78 349.41,481.78 349.41,481.78 350.64,481.78 350.64,481.78 351.87,481.78 351.87,481.78 353.09,481.78 353.09,481.78 354.32,481.78 354.32,475.56 355.55,475.56 355.55,475.56 356.77,475.56 356.77,475.56 358.00,475.56 358.00,475.56 359.23,475.56 359.23,475.56 360.45,475.56 360.45,471.41 361.68,471.41 361.68,465.70 362.91,465.70 362.91,465.70 364.13,465.70 364.13,465.70 365.36,465.70 365.36,465.70 366.59,465.70 366.59,465.70 367.81,465.70 367.81,465.70 369.04,465.70 369.04,465.70 370.27,465.70 370.27,460.00 371.49,460.00 371.49,460.00 372.72,460.00 372.72,460.00 373.95,460.00 373.95,460.00 375.17,460.00 375.17,460.00 376.40,460.00 376.40,460.00 377.63,460.00 377.63,460.00 378.85,460.00 378.85,460.00 380.08,460.00 380.08,455.33 381.31,455.33 381.31,455.33 382.53,455.33 382.53,455.33 383.76,455.33 383.76,455.33 384.99,455.33 384.99,455.33 386.21,455.33 386.21,455.33 387.44,455.33 387.44,455.33 388.67,455.33 388.67,449.11 389.89,449.11 389.89,449.11 391.12,449.11 391.12,449.11 392.35,449.11 392.35,449.11 393.57,449.11 393.57,449.11 394.80,449.11 394.80,449.11 396.03,449.11 396.03,449.11 397.25,449.11 397.25,449.11 398.48,449.11 398.48,449.11 399.71,449.11 399.71,449.11 400.93,449.11 400.93,449.11 402.16,449.11 402.16,449.11 403.39,449.11 403.39,449.11 404.61,449.11 404.61,449.11 405.84,449.11 405.84,449.11 407.07,449.11 407.07,449.11 408.29,449.11 408.29,449.11 409.52,449.11 409.52,449.11 410.75,449.11 410.75,449.11 411.97,449.11 411.97,449.11 413.20,449.11 413.20,449.11 414.43,449.11 414.43,449.11 415.65,449.11 415.65,449.11 416.88,449.11 416.88,449.11 418.11,449.11 418.11,449.11 419.33,449.11 419.33,449.11 420.56,449.11 420.56,449.11 421.79,449.11 421.79,449.11 423.01,449.11 423.01,449.11 424.24,449.11 424.24,449.11 425.47,449.11 425.47,449.11 426.69,449.11 426.69,449.11 427.92,449.11 427.92,449.11 429.15,449.11 429.15,449.11 430.37,449.11 430.37,449.11 431.60,449.11 431.60,449.11 432.83,449.11 432.83,449.11 434.05,449.11 434.05,449.11 435.28,449.11 435.28,449.11 436.51,449.11 436.51,449.11 437.73,449.11 437.73,449.11 438.96,449.11 438.96,449.11 440.19,449.11 440.19,449.11 441.41,449.11 441.41,449.11 442.64,449.11 442.64,441.33 443.87,441.33 443.87,441.33 445.09,441.33 445.09,441.33 446.32,441.33 446.32,441.33 447.55,441.33 447.55,441.33 448.77,441.33 448.77,441.33 450.00,441.33 450.00,441.33 451.23,441.33 451.23,441.33 452.45,441.33 452.45,441.33 453.68,441.33 453.68,441.33 454.91,441.33 454.91,441.33 456.13,441.33 456.13,441.33 457.36,441.33 457.36,441.33 458.59,441.33 458.59,430.44 459.81,430.44 459.81,425.26 461.04,425.26 461.04,425.26 462.27,425.26 462.27,425.26 463.49,425.26 463.49,425.26 464.72,425.26 464.72,425.26 465.95,425.26 465.95,425.26 467.17,425.26 467.17,425.26 468.40,425.26 468.40,424.74 469.63,424.74 469.63,419.04 470.85,419.04 470.85,411.78 472.08,411.78 472.08,411.78 473.31,411.78 473.31,411.78 474.53,411.78 474.53,411.78 475.76,411.78 475.76,411.78 476.99,411.78 476.99,411.78 478.21,411.78 478.21,411.78 479.44,411.78 479.44,411.78 480.67,411.78 480.67,411.78 481.89,411.78 481.89,411.78 483.12,411.78 483.12,411.78 484.35,411.78 484.35,411.78 485.57,411.78 485.57,411.78 486.80,411.78 486.80,411.78 488.03,411.78 488.03,411.78 489.25,411.78 489.25,411.78 490.48,411.78 490.48,411.78 491.71,411.78 491.71,411.78 492.93,411.78 492.93,411.78 494.16,411.78 494.16,411.78 495.39,411.78 495.39,411.78 496.61,411.78 496.61,411.78 497.84,411.78 497.84,411.78 499.07,411.78 499.07,411.78 500.29,411.78 500.29,411.78 501.52,411.78 501.52,411.78 502.75,411.78 502.75,411.78 503.97,411.78 503.97,411.78 505.20,411.78 505.20,411.78 506.43,411.78 506.43,404.52 507.65,404.52 507.65,404.52 508.88,404.52 508.88,404.52 510.11,404.52 510.11,404.52 511.33,404.52 511.33,404.52 512.56,404.52 512.56,404.00 513.79,404.00 513.79,397.26 515.01,397.26 515.01,397.26 516.24,397.26 516.24,387.93 517.47,387.93 517.47,387.93 518.69,387.93 518.69,387.93 519.92,387.93 519.92,387.93 521.15,387.93 521.15,387.93 522.37,387.93 522.37,387.93 523.60,387.93 523.60,380.15 524.83,380.15 524.83,380.15 526.05,380.15 526.05,380.15 527.28,380.15 527.28,380.15 528.51,380.15 528.51,380.15 529.73,380.15 529.73,380.15 530.96,380.15 530.96,380.15 532.19,380.15 532.19,380.15 533.41,380.15 533.41,380.15 534.64,380.15 534.64,380.15 535.87,380.15 535.87,380.15 537.09,380.15 537.09,380.15 538.32,380.15 538.32,379.63 539.55,379.63 539.55,373.41 540.77,373.41 540.77,373.41 542.00,373.41 542.00,369.78 543.23,369.78 543.23,369.78 544.45,369.78 544.45,369.78 545.68,369.78 545.68,369.78 546.91,369.78 546.91,369.78 548.13,369.78 548.13,369.78 549.36,369.78 549.36,369.78 550.59,369.78 550.59,368.74 551.81,368.74 551.81,364.07 553.04,364.07 553.04,361.48 554.27,361.48 554.27,361.48 555.49,361.48 555.49,361.48 556.72,361.48 556.72,361.48 557.95,361.48 557.95,361.48 559.17,361.48 559.17,361.48 560.40,361.48 560.40,361.48 561.63,361.48 561.63,361.48 562.85,361.48 562.85,361.48 564.08,361.48 564.08,361.48 565.31,361.48 565.31,361.48 566.53,361.48 566.53,361.48 567.76,361.48 567.76,361.48 568.99,361.48 568.99,359.93 570.21,359.93 570.21,348.00 571.44,348.00 571.44,348.00 572.67,348.00 572.67,348.00 573.89,348.00 573.89,348.00 575.12,348.00 575.12,348.00 576.35,348.00 576.35,348.00 577.57,348.00 577.57,338.67 578.80,338.67 578.80,338.67 580.03,338.67 580.03,331.41 581.25,331.41 581.25,331.41 582.48,331.41 582.48,325.19 583.71,325.19 583.71,325.19 584.93,325.19 584.93,325.19 586.16,325.19 586.16,325.19 587.39,325.19 587.39,325.19 588.61,325.19 588.61,325.19 589.84,325.19 589.84,325.19 591.07,325.19 591.07,325.19 592.29,325.19 592.29,324.67 593.52,324.67 593.52,322.07 594.75,322.07 594.75,321.56 595.97,321.56 595.97,321.56 597.20,321.56 597.20,321.56 598.43,321.56 598.43,321.56 599.65,321.56 599.65,321.56 600.88,321.56 600.88,321.56 602.11,321.56 602.11,321.56 603.33,321.56 603.33,321.56 604.56,321.56 604.56,321.56 605.79,321.56 605.79,321.56 607.01,321.56 607.01,321.56 608.24,321.56 608.24,321.56 609.47,321.56 609.47,313.26 610.69,313.26 610.69,306.52 611.92,306.52 611.92,306.52 613.15,306.52 613.15,306.52 614.37,306.52 614.37,306.52 615.60,306.52 615.60,306.52 616.83,306.52 616.83,306.52 618.05,306.52 618.05,306.52 619.28,306.52 619.28,304.96 620.51,304.96 620.51,304.96 621.73,304.96 621.73,304.44 622.96,304.44 622.96,269.19 624.19,269.19 624.19,261.41 625.41,261.41 625.41,261.41 626.64,261.41 626.64,261.41 627.87,261.41 627.87,261.41 629.09,261.41 629.09,261.41 630.32,261.41 630.32,261.41 631.55,261.41 631.55,261.41 632.77,261.41 632.77,254.67 634.00,254.67 634.00,254.67 635.23,254.67 635.23,254.67 636.45,254.67 636.45,254.67 637.68,254.67 637.68,254.67 638.91,254.67 638.91,246.89 640.13,246.89 640.13,246.89 641.36,246.89 641.36,246.89 642.59,246.89 642.59,246.89 643.81,246.89 643.81,246.89 645.04,246.89 645.04,246.89 646.27,246.89 646.27,246.89 647.49,246.89 647.49,246.89 648.72,246.89 648.72,246.89 649.95,246.89 649.95,246.89 651.17,246.89 651.17,246.89 652.40,246.89 652.40,246.89 653.63,246.89 653.63,246.89 654.85,246.89 654.85,246.89 656.08,246.89 656.08,246.89 657.31,246.89 657.31,246.89 658.53,246.89 658.53,246.89 659.76,246.89 659.76,246.89 660.99,246.89 660.99,246.89 662.21,246.89 662.21,240.15 663.44,240.15 663.44,240.15 664.67,240.15 664.67,240.15 665.89,240.15 665.89,240.15 667.12,240.15 667.12,240.15 668.35,240.15 668.35,240.15 669.57,240.15 669.57,240.15 670.80,240.15 670.80,240.15 672.03,240.15 672.03,240.15 673.25,240.15 673.25,240.15 674.48,240.15 674.48,240.15 675.71,240.15 675.71,234.44 676.93,234.44 676.93,234.44 678.16,234.44 678.16,234.44 679.39,234.44 679.39,234.44 680.61,234.44 680.61,234.44 681.84,234.44 681.84,234.44 683.07,234.44 683.07,226.67 684.29,226.67 684.29,226.67 685.52,226.67 685.52,226.67 686.75,226.67 686.75,226.15 687.97,226.15 687.97,226.15 689.20,226.15 689.20,226.15 690.43,226.15 690.43,226.15 691.65,226.15 691.65,226.15 692.88,226.15 692.88,212.67 694.11,212.67 694.11,212.67 695.33,212.67 695.33,212.67 696.56,212.67 696.56,212.67 697.79,212.67 697.79,212.67 699.01,212.67 699.01,212.67 700.24,212.67 700.24,212.67 701.47,212.67 701.47,212.67 702.69,212.67 702.69,212.67 703.92,212.67 703.92,212.67 705.15,212.67 705.15,212.67 706.37,212.67 706.37,212.67 707.60,212.67 707.60,212.67 708.83,212.67 708.83,212.67 710.05,212.67 710.05,212.67 711.28,212.67 711.28,202.30 712.51,202.30 712.51,202.30 713.73,202.30 713.73,191.93 714.96,191.93 714.96,191.93 716.19,191.93 716.19,185.70 717.41,185.70 717.41,185.70 718.64,185.70 718.64,185.70 719.87,185.70 719.87,185.70 721.09,185.70 721.09,182.59 722.32,182.59 722.32,176.37 723.55,176.37 723.55,176.37 724.77,176.37 724.77,176.37 726.00,176.37 726.00,176.37 727.23,176.37 727.23,176.37 728.45,176.37 728.45,176.37 729.68,176.37 729.68,176.37 730.91,176.37 730.91,176.37 732.13,176.37 732.13,176.37 733.36,176.37 733.36,176.37 734.59,176.37 734.59,176.37 735.81,176.37 735.81,176.37 737.04,176.37 737.04,176.37 738.27,176.37 738.27,176.37 739.49,176.37 739.49,175.85 740.72,175.85 740.72,175.85 741.95,175.85 741.95,168.59 743.17,168.59 743.17,168.59 744.40,168.59 744.40,168.07 745.63,168.07 745.63,168.07 746.85,168.07 746.85,168.07 748.08,168.07 748.08,147.85 749.31,147.85 749.31,138.00 750.53,138.00 750.53,138.00 751.76,138.00 751.76,138.00 752.99,138.00 752.99,128.15 754.21,128.15 754.21,128.15 755.44,128.15 755.44,128.15 756.67,128.15 756.67,128.15 757.89,128.15 757.89,128.15 759.12,128.15 759.12,128.15 760.35,128.15 760.35,128.15 761.57,128.15 761.57,128.15 762.80,128.15 762.80,128.15 764.03,128.15 764.03,122.44 765.25,122.44 765.25,122.44 766.48,122.44 766.48,122.44 767.71,122.44 767.71,115.19 768.93,115.19 768.93,104.81 770.16,104.81 770.16,101.70 771.39,101.70 771.39,101.70 772.61,101.70 772.61,101.70 773.84,101.70 773.84,101.70 775.07,101.70 775.07,101.70 776.29,101.70 776.29,101.70 777.52,101.70 777.52,101.70 778.75,101.70 778.75,101.70 779.97,101.70 779.97,101.70 781.20,101.70 781.20,101.70 782.43,101.70 782.43,101.70 783.65,101.70 783.65,101.70 784.88,101.70 784.88,96.00 786.11,96.00 786.11,96.00 787.33,96.00 787.33,96.00 788.56,96.00 788.56,96.00 789.79,96.00 789.79,96.00 791.01,96.00 791.01,96.00 792.24,96.00 792.24,96.00 793.47,96.00 793.47,96.00 794.69,96.00 794.69,96.00 795.92,96.00 795.92,96.00 797.15,96.00 797.15,80.96 798.37,80.96 798.37,72.15 799.60,72.15 799.60,72.15 800.83,72.15 800.83,72.15 802.05,72.15 802.05,72.15 803.28,72.15 803.28,72.15 804.51,72.15 804.51,66.96 805.73,66.96 805.73,61.78 806.96,61.78 806.96,61.78 808.19,61.78 808.19,61.78 809.41,61.78 809.41,61.26 810.64,61.26 810.64,61.26 811.87,61.26 811.87,50.37 813.09,50.37 813.09,50.37 814.32,50.37 814.32,44.67 815.55,44.67 815.55,44.67 816.77,44.67 816.77,44.67 818.00,44.67 818.00,40.00" fill="none" stroke="#4b8f29" stroke-width="3"/>
<text x="450.0" y="552" text-anchor="middle" font-size="20" font-family="Arial, sans-serif" fill="#111827">Top displacement (mm)</text>
<text x="24" y="280.0" text-anchor="middle" transform="rotate(-90 24 280.0)" font-size="20" font-family="Arial, sans-serif" fill="#111827">Force magnitude (N)</text>
<text x="880" y="280.0" text-anchor="middle" transform="rotate(90 880 280.0)" font-size="20" font-family="Arial, sans-serif" fill="#111827">Broken bonds</text>
<text x="102" y="64" font-size="18" font-family="Arial, sans-serif" fill="#1b6ca8">Top plate</text>
<text x="212" y="64" font-size="18" font-family="Arial, sans-serif" fill="#d1495b">Bottom plate</text>
<text x="352" y="64" font-size="18" font-family="Arial, sans-serif" fill="#4b8f29">Broken bonds</text>
<text x="72" y="45" text-anchor="end" font-size="17" fill="#30363d">14.45</text>
<text x="72" y="488" text-anchor="end" font-size="17" fill="#30363d">0</text>
<text x="828" y="45" text-anchor="start" font-size="17" fill="#30363d">864</text>
<text x="828" y="488" text-anchor="start" font-size="17" fill="#30363d">0</text>
</svg>
