<svg xmlns="http://www.w3.org/2000/svg" width="900" height="560" viewBox="0 0 900 560">
<rect width="100%" height="100%" fill="white"/>
<text x="450.0" y="26" text-anchor="middle" font-size="22" font-family="Arial, sans-serif" fill="#111827">SP-002 force-displacement and bond breakage</text>
<line x1="82" y1="40.00" x2="818" y2="40.00" stroke="#d9dee2" stroke-width="1"/><line x1="82" y1="129.60" x2="818" y2="129.60" stroke="#d9dee2" stroke-width="1"/><line x1="82" y1="219.20" x2="818" y2="219.20" stroke="#d9dee2" stroke-width="1"/><line x1="82" y1="308.80" x2="818" y2="308.80" stroke="#d9dee2" stroke-width="1"/><line x1="82" y1="398.40" x2="818" y2="398.40" stroke="#d9dee2" stroke-width="1"/><line x1="82" y1="488.00" x2="818" y2="488.00" stroke="#d9dee2" stroke-width="1"/><line x1="82.00" y1="40" x2="82.00" y2="488" stroke="#edf0f2" stroke-width="1"/><text x="82.00" y="526" text-anchor="middle" font-size="18" fill="#30363d">0.000</text><line x1="229.20" y1="40" x2="229.20" y2="488" stroke="#edf0f2" stroke-width="1"/><text x="229.20" y="526" text-anchor="middle" font-size="18" fill="#30363d">0.060</text><line x1="376.40" y1="40" x2="376.40" y2="488" stroke="#edf0f2" stroke-width="1"/><text x="376.40" y="526" text-anchor="middle" font-size="18" fill="#30363d">0.120</text><line x1="523.60" y1="40" x2="523.60" y2="488" stroke="#edf0f2" stroke-width="1"/><text x="523.60" y="526" text-anchor="middle" font-size="18" fill="#30363d">0.180</text><line x1="670.80" y1="40" x2="670.80" y2="488" stroke="#edf0f2" stroke-width="1"/><text x="670.80" y="526" text-anchor="middle" font-size="18" fill="#30363d">0.240</text><line x1="818.00" y1="40" x2="818.00" y2="488" stroke="#edf0f2" stroke-width="1"/><text x="818.00" y="526" text-anchor="middle" font-size="18" fill="#30363d">0.300</text>
<line x1="82" y1="40" x2="82" y2="488" stroke="#111827" stroke-width="1.5"/>
<line x1="82" y1="488" x2="818" y2="488" stroke="#111827" stroke-width="1.5"/>
<line x1="818" y1="40" x2="818" y2="488" stroke="#111827" stroke-width="1.5"/>
<polyline points="82.00,488.00 83.23,488.00 84.45,488.00 85.68,488.00 86.91,488.00 88.13,488.00 89.36,488.00 90.59,488.00 91.81,488.00 93.04,488.00 94.27,488.00 95.49,488.00 96.72,488.00 97.95,488.00 99.17,488.00 100.40,488.00 101.63,488.00 102.85,488.00 104.08,488.00 105.31,488.00 106.53,488.00 107.76,488.00 108.99,488.00 110.21,488.00 111.44,488.00 112.67,488.00 113.89,488.00 115.12,488.00 116.35,488.00 117.57,488.00 118.80,488.00 120.03,488.00 121.25,488.00 122.48,488.00 123.71,488.00 124.93,488.00 126.16,488.00 127.39,488.00 128.61,488.00 129.84,488.00 131.07,488.00 132.29,488.00 133.52,488.00 134.75,488.00 135.97,488.00 137.20,488.00 138.43,488.00 139.65,488.00 140.88,488.00 142.11,488.00 143.33,488.00 144.56,488.00 145.79,488.00 147.01,488.00 148.24,488.00 149.47,488.00 150.69,488.00 151.92,488.00 153.15,488.00 154.37,488.00 155.60,488.00 156.83,488.00 158.05,488.00 159.28,488.00 160.51,488.00 161.73,488.00 162.96,488.00 164.19,488.00 165.41,488.00 166.64,488.00 167.87,488.00 169.09,488.00 170.32,488.00 171.55,488.00 172.77,488.00 174.00,488.00 175.23,488.00 176.45,488.00 177.68,488.00 178.91,488.00 180.13,488.00 181.36,488.00 182.59,488.00 183.81,488.00 185.04,488.00 186.27,488.00 187.49,488.00 188.72,488.00 189.95,488.00 191.17,488.00 192.40,488.00 193.63,488.00 194.85,488.00 196.08,488.00 197.31,488.00 198.53,488.00 199.76,488.00 200.99,488.00 202.21,488.00 203.44,488.00 204.67,488.00 205.89,488.00 207.12,488.00 208.35,488.00 209.57,488.00 210.80,488.00 212.03,488.00 213.25,488.00 214.48,488.00 215.71,488.00 216.93,488.00 218.16,488.00 219.39,488.00 220.61,488.00 221.84,488.00 223.07,488.00 224.29,488.00 225.52,488.00 226.75,488.00 227.97,488.00 229.20,488.00 230.43,488.00 231.65,488.00 232.88,488.00 234.11,488.00 235.33,488.00 236.56,488.00 237.79,488.00 239.01,488.00 240.24,488.00 241.47,488.00 242.69,488.00 243.92,488.00 245.15,488.00 246.37,488.00 247.60,488.00 248.83,488.00 250.05,488.00 251.28,488.00 252.51,488.00 253.73,488.00 254.96,488.00 256.19,488.00 257.41,488.00 258.64,488.00 259.87,488.00 261.09,488.00 262.32,488.00 263.55,488.00 264.77,488.00 266.00,488.00 267.23,488.00 268.45,488.00 269.68,488.00 270.91,488.00 272.13,488.00 273.36,488.00 274.59,488.00 275.81,488.00 277.04,488.00 278.27,488.00 279.49,488.00 280.72,488.00 281.95,488.00 283.17,488.00 284.40,488.00 285.63,488.00 286.85,488.00 288.08,488.00 289.31,488.00 290.53,488.00 291.76,488.00 292.99,488.00 294.21,488.00 295.44,488.00 296.67,488.00 297.89,488.00 299.12,488.00 300.35,488.00 301.57,488.00 302.80,488.00 304.03,488.00 305.25,488.00 306.48,488.00 307.71,488.00 308.93,488.00 310.16,488.00 311.39,488.00 312.61,488.00 313.84,488.00 315.07,488.00 316.29,488.00 317.52,488.00 318.75,488.00 319.97,488.00 321.20,488.00 322.43,488.00 323.65,488.00 324.88,488.00 326.11,488.00 327.33,488.00 328.56,484.56 329.79,479.15 331.01,472.77 332.24,465.73 333.47,458.18 334.69,450.23 335.92,441.92 337.15,433.32 338.37,424.91 339.60,419.44 340.83,487.94 342.05,487.94 343.28,487.94 344.51,485.29 345.73,480.29 346.96,474.38 348.19,467.91 349.41,460.47 350.64,449.18 351.87,436.13 353.09,421.91 354.32,406.81 355.55,450.63 356.77,441.70 358.00,432.56 359.23,422.96 360.45,412.98 361.68,405.97 362.91,436.01 364.13,441.92 365.36,438.27 366.59,431.92 367.81,424.60 369.04,416.82 370.27,408.75 371.49,429.62 372.72,431.35 373.95,424.37 375.17,415.44 376.40,405.90 377.63,401.22 378.85,411.45 380.08,410.99 381.31,410.30 382.53,427.38 383.76,430.89 384.99,429.79 386.21,426.73 387.44,422.75 388.67,418.31 389.89,414.31 391.12,433.33 392.35,444.68 393.57,451.41 394.80,455.51 396.03,458.04 397.25,459.66 398.48,460.74 399.71,461.42 400.93,461.81 402.16,462.05 403.39,462.19 404.61,462.26 405.84,462.30 407.07,462.31 408.29,462.31 409.52,462.27 410.75,462.22 411.97,462.17 413.20,462.02 414.43,461.13 415.65,459.41 416.88,457.04 418.11,454.21 419.33,451.08 420.56,447.75 421.79,444.31 423.01,440.79 424.24,437.23 425.47,433.67 426.69,430.11 427.92,426.57 429.15,423.06 430.37,419.59 431.60,416.16 432.83,412.78 434.05,409.45 435.28,406.18 436.51,402.96 437.73,399.65 438.96,395.02 440.19,389.05 441.41,382.65 442.64,375.69 443.87,367.17 445.09,357.41 446.32,446.66 447.55,442.33 448.77,437.25 450.00,429.12 451.23,419.04 452.45,408.79 453.68,398.41 454.91,387.90 456.13,377.32 457.36,366.48 458.59,355.44 459.81,443.90 461.04,414.16 462.27,401.97 463.49,390.97 464.72,379.27 465.95,366.45 467.17,352.38 468.40,337.47 469.63,321.95 470.85,308.15 472.08,446.16 473.31,440.83 474.53,433.82 475.76,427.79 476.99,422.04 478.21,416.45 479.44,411.13 480.67,405.98 481.89,401.06 483.12,396.39 484.35,391.69 485.57,386.98 486.80,382.41 488.03,378.04 489.25,372.87 490.48,367.34 491.71,361.63 492.93,355.47 494.16,349.00 495.39,341.85 496.61,334.52 497.84,326.75 499.07,315.59 500.29,303.59 501.52,291.29 502.75,278.85 503.97,266.38 505.20,253.91 506.43,241.53 507.65,229.30 508.88,217.74 510.11,245.21 511.33,240.85 512.56,235.72 513.79,231.20 515.01,226.90 516.24,220.31 517.47,242.10 518.69,252.39 519.92,243.50 521.15,300.47 522.37,319.66 523.60,318.10 524.83,309.89 526.05,353.02 527.28,370.93 528.51,375.63 529.73,376.91 530.96,376.31 532.19,374.75 533.41,372.17 534.64,368.05 535.87,360.63 537.09,352.59 538.32,344.16 539.55,335.42 540.77,356.91 542.00,373.68 543.23,372.84 544.45,385.66 545.68,377.34 546.91,367.90 548.13,357.61 549.36,346.49 550.59,334.72 551.81,321.98 553.04,351.12 554.27,365.91 555.49,370.37 556.72,369.92 557.95,367.67 559.17,364.30 560.40,355.46 561.63,342.08 562.85,326.17 564.08,308.74 565.31,290.28 566.53,271.13 567.76,252.35 568.99,232.26 570.21,211.77 571.44,226.36 572.67,206.68 573.89,187.79 575.12,209.42 576.35,218.91 577.57,237.53 578.80,230.97 580.03,254.58 581.25,245.02 582.48,231.31 583.71,303.34 584.93,321.27 586.16,320.12 587.39,315.18 588.61,304.74 589.84,302.78 591.07,295.31 592.29,286.84 593.52,277.78 594.75,270.33 595.97,277.41 597.20,277.44 598.43,271.71 599.65,262.91 600.88,251.91 602.11,239.34 603.33,227.30 604.56,214.06 605.79,199.38 607.01,183.52 608.24,167.03 609.47,149.77 610.69,133.20 611.92,194.25 613.15,272.67 614.37,265.36 615.60,265.12 616.83,254.75 618.05,241.03 619.28,226.23 620.51,210.92 621.73,226.39 622.96,213.37 624.19,249.88 625.41,275.42 626.64,276.97 627.87,337.81 629.09,353.70 630.32,358.73 631.55,354.07 632.77,347.79 634.00,340.88 635.23,333.63 636.45,328.56 637.68,400.59 638.91,401.18 640.13,406.06 641.36,408.97 642.59,409.43 643.81,409.06 645.04,408.00 646.27,405.08 647.49,401.60 648.72,394.33 649.95,386.51 651.17,379.17 652.40,372.19 653.63,365.01 654.85,357.34 656.08,348.14 657.31,337.58 658.53,326.61 659.76,316.95 660.99,308.69 662.21,332.02 663.44,339.91 664.67,334.64 665.89,325.82 667.12,315.30 668.35,303.42 669.57,290.02 670.80,275.83 672.03,260.90 673.25,245.54 674.48,229.57 675.71,213.04 676.93,266.35 678.16,237.33 679.39,221.88 680.61,206.98 681.84,191.28 683.07,218.46 684.29,226.02 685.52,224.13 686.75,220.32 687.97,215.78 689.20,209.59 690.43,201.79 691.65,252.52 692.88,222.69 694.11,221.24 695.33,222.33 696.56,218.84 697.79,213.20 699.01,207.79 700.24,202.35 701.47,196.80 702.69,190.62 703.92,184.57 705.15,178.49 706.37,172.52 707.60,165.13 708.83,210.64 710.05,202.55 711.28,196.77 712.51,194.69 713.73,271.90 714.96,280.05 716.19,278.16 717.41,273.44 718.64,285.02 719.87,283.26 721.09,284.04 722.32,284.59 723.55,285.00 724.77,286.77 726.00,283.82 727.23,278.11 728.45,270.27 729.68,259.51 730.91,247.40 732.13,234.35 733.36,220.99 734.59,206.67 735.81,191.54 737.04,174.96 738.27,156.10 739.49,135.83 740.72,114.42 741.95,92.14 743.17,68.95 744.40,45.00 745.63,73.11 746.85,103.06 748.08,89.93 749.31,168.03 750.53,155.11 751.76,142.12 752.99,128.10 754.21,114.40 755.44,99.91 756.67,85.39 757.89,74.32 759.12,57.53 760.35,40.00 761.57,122.33 762.80,105.68 764.03,90.76 765.25,86.74 766.48,179.21 767.71,261.08 768.93,246.22 770.16,230.53 771.39,214.94 772.61,275.93 773.84,256.03 775.07,246.95 776.29,233.02 777.52,217.64 778.75,201.50 779.97,184.76 781.20,167.48 782.43,149.38 783.65,249.59 784.88,227.94 786.11,212.19 787.33,258.50 788.56,238.31 789.79,224.07 791.01,208.57 792.24,189.31 793.47,229.73 794.69,205.53 795.92,186.33 797.15,167.40 798.37,146.43 799.60,228.06 800.83,247.53 802.05,235.92 803.28,223.82 804.51,206.11 805.73,182.09 806.96,157.49 808.19,135.57 809.41,162.25 810.64,139.59 811.87,205.38 813.09,202.45 814.32,191.94 815.55,179.58 816.77,169.97 818.00,160.36" fill="none" stroke="#1b6ca8" stroke-width="3"/>
<polyline points="82.00,488.00 83.23,488.00 84.45,488.00 85.68,488.00 86.91,488.00 88.13,488.00 89.36,488.00 90.59,488.00 91.81,488.00 93.04,488.00 94.27,488.00 95.49,488.00 96.72,488.00 97.95,488.00 99.17,488.00 100.40,488.00 101.63,488.00 102.85,488.00 104.08,488.00 105.31,488.00 106.53,488.00 107.76,488.00 108.99,488.00 110.21,488.00 111.44,488.00 112.67,488.00 113.89,488.00 115.12,488.00 116.35,488.00 117.57,488.00 118.80,488.00 120.03,488.00 121.25,488.00 122.48,488.00 123.71,488.00 124.93,488.00 126.16,488.00 127.39,488.00 128.61,488.00 129.84,488.00 131.07,488.00 132.29,488.00 133.52,488.00 134.75,488.00 135.97,488.00 137.20,488.00 138.43,488.00 139.65,488.00 140.88,488.00 142.11,488.00 143.33,488.00 144.56,488.00 145.79,488.00 147.01,488.00 148.24,488.00 149.47,488.00 150.69,488.00 151.92,488.00 153.15,488.00 154.37,488.00 155.60,488.00 156.83,488.00 158.05,488.00 159.28,488.00 160.51,488.00 161.73,488.00 162.96,488.00 164.19,488.00 165.41,488.00 166.64,488.00 167.87,488.00 169.09,488.00 170.32,488.00 171.55,488.00 172.77,488.00 174.00,488.00 175.23,488.00 176.45,488.00 177.68,488.00 178.91,488.00 180.13,488.00 181.36,488.00 182.59,488.00 183.81,488.00 185.04,488.00 186.27,488.00 187.49,488.00 188.72,488.00 189.95,488.00 191.17,488.00 192.40,488.00 193.63,488.00 194.85,488.00 196.08,488.00 197.31,488.00 198.53,488.00 199.76,488.00 200.99,488.00 202.21,488.00 203.44,488.00 204.67,488.00 205.89,488.00 207.12,488.00 208.35,488.00 209.57,488.00 210.80,488.00 212.03,488.00 213.25,488.00 214.48,488.00 215.71,488.00 216.93,488.00 218.16,488.00 219.39,488.00 220.61,488.00 221.84,488.00 223.07,488.00 224.29,488.00 225.52,488.00 226.75,488.00 227.97,488.00 229.20,488.00 230.43,488.00 231.65,488.00 232.88,488.00 234.11,488.00 235.33,488.00 236.56,488.00 237.79,488.00 239.01,488.00 240.24,488.00 241.47,488.00 242.69,488.00 243.92,488.00 245.15,488.00 246.37,488.00 247.60,488.00 248.83,488.00 250.05,488.00 251.28,488.00 252.51,488.00 253.73,488.00 254.96,488.00 256.19,488.00 257.41,488.00 258.64,488.00 259.87,488.00 261.09,488.00 262.32,488.00 263.55,488.00 264.77,488.00 266.00,488.00 267.23,488.00 268.45,488.00 269.68,488.00 270.91,488.00 272.13,488.00 273.36,488.00 274.59,488.00 275.81,488.00 277.04,488.00 278.27,488.00 279.49,488.00 280.72,488.00 281.95,488.00 283.17,488.00 284.40,488.00 285.63,488.00 286.85,488.00 288.08,488.00 289.31,488.00 290.53,488.00 291.76,488.00 292.99,488.00 294.21,488.00 295.44,488.00 296.67,488.00 297.89,488.00 299.12,488.00 300.35,488.00 301.57,488.00 302.80,488.00 304.03,488.00 305.25,488.00 306.48,488.00 307.71,488.00 308.93,488.00 310.16,488.00 311.39,488.00 312.61,488.00 313.84,488.00 315.07,488.00 316.29,488.00 317.52,488.00 318.75,488.00 319.97,488.00 321.20,488.00 322.43,488.00 323.65,488.00 324.88,488.00 326.11,488.00 327.33,488.00 328.56,486.03 329.79,481.30 331.01,475.28 332.24,468.49 333.47,461.13 334.69,453.33 335.92,445.15 337.15,436.66 338.37,427.93 339.60,422.34 340.83,482.01 342.05,487.58 343.28,487.97 344.51,486.63 345.73,482.34 346.96,476.76 348.19,470.50 349.41,463.65 350.64,453.75 351.87,441.38 353.09,427.61 354.32,412.86 355.55,450.18 356.77,444.93 358.00,436.19 359.23,426.80 360.45,416.97 361.68,408.67 362.91,468.01 364.13,457.01 365.36,448.72 366.59,441.26 367.81,433.77 369.04,426.06 370.27,418.11 371.49,467.31 372.72,446.51 373.95,434.41 375.17,424.51 376.40,414.86 377.63,460.63 378.85,446.78 380.08,433.27 381.31,473.15 382.53,464.76 383.76,457.72 384.99,451.88 386.21,446.68 387.44,441.75 388.67,436.89 389.89,487.65 391.12,488.00 392.35,488.00 393.57,488.00 394.80,488.00 396.03,488.00 397.25,488.00 398.48,488.00 399.71,488.00 400.93,488.00 402.16,488.00 403.39,488.00 404.61,488.00 405.84,488.00 407.07,488.00 408.29,488.00 409.52,488.00 410.75,488.00 411.97,488.00 413.20,487.02 414.43,484.17 415.65,480.84 416.88,477.39 418.11,473.93 419.33,470.48 420.56,467.03 421.79,463.60 423.01,460.17 424.24,456.76 425.47,453.36 426.69,450.00 427.92,446.66 429.15,443.36 430.37,440.11 431.60,436.92 432.83,433.78 434.05,430.69 435.28,427.67 436.51,424.75 437.73,420.07 438.96,412.26 440.19,405.13 441.41,398.61 442.64,390.02 443.87,379.95 445.09,368.71 446.32,393.10 447.55,415.99 448.77,423.08 450.00,423.81 451.23,420.69 452.45,415.24 453.68,408.20 454.91,399.97 456.13,390.54 457.36,380.42 458.59,369.91 459.81,413.68 461.04,427.72 462.27,419.13 463.49,407.76 464.72,394.04 465.95,379.34 467.17,364.08 468.40,348.58 469.63,332.77 470.85,318.39 472.08,378.13 473.31,428.77 474.53,434.78 475.76,433.31 476.99,429.67 478.21,424.81 479.44,419.51 480.67,414.23 481.89,409.15 483.12,404.34 484.35,399.72 485.57,395.16 486.80,390.60 488.03,386.19 489.25,381.50 490.48,376.13 491.71,370.28 492.93,364.12 494.16,357.60 495.39,350.54 496.61,343.01 497.84,335.07 499.07,325.36 500.29,313.66 501.52,301.13 502.75,288.29 503.97,275.38 505.20,262.51 506.43,249.75 507.65,237.16 508.88,304.63 510.11,258.41 511.33,249.12 512.56,243.10 513.79,238.04 515.01,233.67 516.24,229.88 517.47,292.65 518.69,269.62 519.92,257.22 521.15,388.38 522.37,363.31 523.60,340.84 524.83,326.51 526.05,401.44 527.28,399.46 528.51,399.27 529.73,397.94 530.96,395.78 532.19,392.90 533.41,388.91 534.64,384.49 535.87,378.04 537.09,370.16 538.32,361.73 539.55,352.97 540.77,410.37 542.00,404.51 543.23,393.67 544.45,396.38 545.68,391.77 546.91,382.72 548.13,372.20 549.36,361.17 550.59,349.09 551.81,335.94 553.04,342.02 554.27,375.17 555.49,376.02 556.72,375.03 557.95,372.74 559.17,369.53 560.40,363.30 561.63,352.75 562.85,338.67 564.08,322.39 565.31,304.65 566.53,285.87 567.76,266.79 568.99,247.31 570.21,227.24 571.44,238.58 572.67,221.66 573.89,202.94 575.12,229.31 576.35,297.73 577.57,263.72 578.80,311.39 580.03,279.26 581.25,264.56 582.48,248.59 583.71,347.06 584.93,343.01 586.16,337.74 587.39,332.94 588.61,325.49 589.84,321.14 591.07,314.19 592.29,305.85 593.52,297.05 594.75,290.04 595.97,298.18 597.20,295.85 598.43,289.11 599.65,279.69 600.88,268.35 602.11,256.30 603.33,245.01 604.56,231.34 605.79,216.14 607.01,199.99 608.24,183.35 609.47,165.90 610.69,149.15 611.92,197.77 613.15,260.00 614.37,271.96 615.60,273.32 616.83,265.90 618.05,254.30 619.28,240.81 620.51,225.84 621.73,239.42 622.96,232.52 624.19,244.26 625.41,274.18 626.64,286.53 627.87,300.59 629.09,336.39 630.32,345.52 631.55,346.58 632.77,344.21 634.00,339.99 635.23,334.54 636.45,328.53 637.68,348.80 638.91,390.36 640.13,400.77 641.36,405.63 642.59,407.82 643.81,408.23 645.04,408.16 646.27,406.98 647.49,404.78 648.72,401.67 649.95,397.57 651.17,392.62 652.40,386.95 653.63,380.57 654.85,372.73 656.08,363.66 657.31,353.10 658.53,342.93 659.76,334.34 660.99,327.80 662.21,366.22 663.44,356.93 664.67,349.95 665.89,339.59 667.12,328.50 668.35,316.29 669.57,302.75 670.80,288.63 672.03,273.94 673.25,258.73 674.48,243.10 675.71,226.90 676.93,244.25 678.16,244.98 679.39,233.40 680.61,219.60 681.84,204.44 683.07,246.36 684.29,242.68 685.52,239.57 686.75,236.19 687.97,232.41 689.20,224.73 690.43,216.87 691.65,216.98 692.88,233.96 694.11,241.52 695.33,238.25 696.56,236.04 697.79,232.68 699.01,227.35 700.24,222.50 701.47,217.59 702.69,212.14 703.92,207.46 705.15,200.67 706.37,195.07 707.60,187.69 708.83,226.82 710.05,225.02 711.28,217.87 712.51,321.77 713.73,309.88 714.96,307.19 716.19,299.50 717.41,292.21 718.64,291.82 719.87,304.31 721.09,305.58 722.32,305.88 723.55,304.99 724.77,304.33 726.00,300.17 727.23,293.26 728.45,284.57 729.68,273.94 730.91,261.79 732.13,248.46 733.36,234.94 734.59,220.41 735.81,205.27 737.04,188.64 738.27,169.94 739.49,149.76 740.72,128.39 741.95,106.04 743.17,82.82 744.40,58.84 745.63,180.94 746.85,126.89 748.08,109.97 749.31,166.27 750.53,165.93 751.76,155.34 752.99,142.11 754.21,128.40 755.44,114.38 756.67,99.85 757.89,88.72 759.12,72.98 760.35,55.80 761.57,133.34 762.80,123.82 764.03,116.17 765.25,110.88 766.48,183.45 767.71,259.97 768.93,256.57 770.16,244.64 771.39,230.24 772.61,239.99 773.84,268.12 775.07,262.67 776.29,248.87 777.52,233.60 778.75,217.50 779.97,200.71 781.20,183.36 782.43,165.22 783.65,204.88 784.88,230.50 786.11,221.47 787.33,246.46 788.56,248.15 789.79,235.25 791.01,221.38 792.24,203.73 793.47,229.73 794.69,219.21 795.92,200.03 797.15,180.23 798.37,159.88 799.60,168.92 800.83,202.85 802.05,220.06 803.28,216.46 804.51,205.52 805.73,191.21 806.96,172.32 808.19,151.63 809.41,173.36 810.64,154.70 811.87,221.74 813.09,219.39 814.32,208.98 815.55,196.59 816.77,187.38 818.00,176.68" fill="none" stroke="#d1495b" stroke-width="3"/>
<polyline points="82.00,488.00 83.23,488.00 83.23,488.00 84.45,488.00 84.45,488.00 85.68,488.00 85.68,488.00 86.91,488.00 86.91,488.00 88.13,488.00 88.13,488.00 89.36,488.00 89.36,488.00 90.59,488.00 90.59,488.00 91.81,488.00 91.81,488.00 93.04,488.00 93.04,488.00 94.27,488.00 94.27,488.00 95.49,488.00 95.49,488.00 96.72,488.00 96.72,488.00 97.95,488.00 97.95,488.00 99.17,488.00 99.17,488.00 100.40,488.00 100.40,488.00 101.63,488.00 101.63,488.00 102.85,488.00 102.85,488.00 104.08,488.00 104.08,488.00 105.31,488.00 105.31,488.00 106.53,488.00 106.53,488.00 107.76,488.00 107.76,488.00 108.99,488.00 108.99,488.00 110.21,488.00 110.21,488.00 111.44,488.00 111.44,488.00 112.67,488.00 112.67,488.00 113.89,488.00 113.89,488.00 115.12,488.00 115.12,488.00 116.35,488.00 116.35,488.00 117.57,488.00 117.57,488.00 118.80,488.00 118.80,488.00 120.03,488.00 120.03,488.00 121.25,488.00 121.25,488.00 122.48,488.00 122.48,488.00 123.71,488.00 123.71,488.00 124.93,488.00 124.93,488.00 126.16,488.00 126.16,488.00 127.39,488.00 127.39,488.00 128.61,488.00 128.61,488.00 129.84,488.00 129.84,488.00 131.07,488.00 131.07,488.00 132.29,488.00 132.29,488.00 133.52,488.00 133.52,488.00 134.75,488.00 134.75,488.00 135.97,488.00 135.97,488.00 137.20,488.00 137.20,488.00 138.43,488.00 138.43,488.00 139.65,488.00 139.65,488.00 140.88,488.00 140.88,488.00 142.11,488.00 142.11,488.00 143.33,488.00 143.33,488.00 144.56,488.00 144.56,488.00 145.79,488.00 145.79,488.00 147.01,488.00 147.01,488.00 148.24,488.00 148.24,488.00 149.47,488.00 149.47,488.00 150.69,488.00 150.69,488.00 151.92,488.00 151.92,488.00 153.15,488.00 153.15,488.00 154.37,488.00 154.37,488.00 155.60,488.00 155.60,488.00 156.83,488.00 156.83,488.00 158.05,488.00 158.05,488.00 159.28,488.00 159.28,488.00 160.51,488.00 160.51,488.00 161.73,488.00 161.73,488.00 162.96,488.00 162.96,488.00 164.19,488.00 164.19,488.00 165.41,488.00 165.41,488.00 166.64,488.00 166.64,488.00 167.87,488.00 167.87,488.00 169.09,488.00 169.09,488.00 170.32,488.00 170.32,488.00 171.55,488.00 171.55,488.00 172.77,488.00 172.77,488.00 174.00,488.00 174.00,488.00 175.23,488.00 175.23,488.00 176.45,488.00 176.45,488.00 177.68,488.00 177.68,488.00 178.91,488.00 178.91,488.00 180.13,488.00 180.13,488.00 181.36,488.00 181.36,488.00 182.59,488.00 182.59,488.00 183.81,488.00 183.81,488.00 185.04,488.00 185.04,488.00 186.27,488.00 186.27,488.00 187.49,488.00 187.49,488.00 188.72,488.00 188.72,488.00 189.95,488.00 189.95,488.00 191.17,488.00 191.17,488.00 192.40,488.00 192.40,488.00 193.63,488.00 193.63,488.00 194.85,488.00 194.85,488.00 196.08,488.00 196.08,488.00 197.31,488.00 197.31,488.00 198.53,488.00 198.53,488.00 199.76,488.00 199.76,488.00 200.99,488.00 200.99,488.00 202.21,488.00 202.21,488.00 203.44,488.00 203.44,488.00 204.67,488.00 204.67,488.00 205.89,488.00 205.89,488.00 207.12,488.00 207.12,488.00 208.35,488.00 208.35,488.00 209.57,488.00 209.57,488.00 210.80,488.00 210.80,488.00 212.03,488.00 212.03,488.00 213.25,488.00 213.25,488.00 214.48,488.00 214.48,488.00 215.71,488.00 215.71,488.00 216.93,488.00 216.93,488.00 218.16,488.00 218.16,488.00 219.39,488.00 219.39,488.00 220.61,488.00 220.61,488.00 221.84,488.00 221.84,488.00 223.07,488.00 223.07,488.00 224.29,488.00 224.29,488.00 225.52,488.00 225.52,488.00 226.75,488.00 226.75,488.00 227.97,488.00 227.97,488.00 229.20,488.00 229.20,488.00 230.43,488.00 230.43,488.00 231.65,488.00 231.65,488.00 232.88,488.00 232.88,488.00 234.11,488.00 234.11,488.00 235.33,488.00 235.33,488.00 236.56,488.00 236.56,488.00 237.79,488.00 237.79,488.00 239.01,488.00 239.01,488.00 240.24,488.00 240.24,488.00 241.47,488.00 241.47,488.00 242.69,488.00 242.69,488.00 243.92,488.00 243.92,488.00 245.15,488.00 245.15,488.00 246.37,488.00 246.37,488.00 247.60,488.00 247.60,488.00 248.83,488.00 248.83,488.00 250.05,488.00 250.05,488.00 251.28,488.00 251.28,488.00 252.51,488.00 252.51,488.00 253.73,488.00 253.73,488.00 254.96,488.00 254.96,488.00 256.19,488.00 256.19,488.00 257.41,488.00 257.41,488.00 258.64,488.00 258.64,488.00 259.87,488.00 259.87,488.00 261.09,488.00 261.09,488.00 262.32,488.00 262.32,488.00 263.55,488.00 263.55,488.00 264.77,488.00 264.77,488.00 266.00,488.00 266.00,488.00 267.23,488.00 267.23,488.00 268.45,488.00 268.45,488.00 269.68,488.00 269.68,488.00 270.91,488.00 270.91,488.00 272.13,488.00 272.13,488.00 273.36,488.00 273.36,488.00 274.59,488.00 274.59,488.00 275.81,488.00 275.81,488.00 277.04,488.00 277.04,488.00 278.27,488.00 278.27,488.00 279.49,488.00 279.49,488.00 280.72,488.00 280.72,488.00 281.95,488.00 281.95,488.00 283.17,488.00 283.17,488.00 284.40,488.00 284.40,488.00 285.63,488.00 285.63,488.00 286.85,488.00 286.85,488.00 288.08,488.00 288.08,488.00 289.31,488.00 289.31,488.00 290.53,488.00 290.53,488.00 291.76,488.00 291.76,488.00 292.99,488.00 292.99,488.00 294.21,488.00 294.21,488.00 295.44,488.00 295.44,488.00 296.67,488.00 296.67,488.00 297.89,488.00 297.89,488.00 299.12,488.00 299.12,488.00 300.35,488.00 300.35,488.00 301.57,488.00 301.57,488.00 302.80,488.00 302.80,488.00 304.03,488.00 304.03,488.00 305.25,488.00 305.25,488.00 306.48,488.00 306.48,488.00 307.71,488.00 307.71,488.00 308.93,488.00 308.93,488.00 310.16,488.00 310.16,488.00 311.39,488.00 311.39,488.00 312.61,488.00 312.61,488.00 313.84,488.00 313.84,488.00 315.07,488.00 315.07,488.00 316.29,488.00 316.29,488.00 317.52,488.00 317.52,488.00 318.75,488.00 318.75,488.00 319.97,488.00 319.97,488.00 321.20,488.00 321.20,488.00 322.43,488.00 322.43,488.00 323.65,488.00 323.65,488.00 324.88,488.00 324.88,488.00 326.11,488.00 326.11,488.00 327.33,488.00 327.33,488.00 328.56,488.00 328.56,488.00 329.79,488.00 329.79,488.00 331.01,488.00 331.01,488.00 332.24,488.00 332.24,488.00 333.47,488.00 333.47,488.00 334.69,488.00 334.69,488.00 335.92,488.00 335.92,488.00 337.15,488.00 337.15,488.00 338.37,488.00 338.37,487.42 339.60,487.42 339.60,486.84 340.83,486.84 340.83,481.02 342.05,481.02 342.05,481.02 343.28,481.02 343.28,481.02 344.51,481.02 344.51,481.02 345.73,481.02 345.73,481.02 346.96,481.02 346.96,481.02 348.19,481.02 348.19,481.02 349.41,481.02 349.41,481.02 350.64,481.02 350.64,481.02 351.87,481.02 351.87,481.02 353.09,481.02 353.09,481.02 354.32,481.02 354.32,481.02 355.55,481.02 355.55,474.04 356.77,474.04 356.77,474.04 358.00,474.04 358.00,474.04 359.23,474.04 359.23,474.04 360.45,474.04 360.45,474.04 361.68,474.04 361.68,467.64 362.91,467.64 362.91,462.98 364.13,462.98 364.13,462.98 365.36,462.98 365.36,462.98 366.59,462.98 366.59,462.98 367.81,462.98 367.81,462.98 369.04,462.98 369.04,462.98 370.27,462.98 370.27,462.98 371.49,462.98 371.49,456.58 372.72,456.58 372.72,456.58 373.95,456.58 373.95,456.58 375.17,456.58 375.17,456.58 376.40,456.58 376.40,456.58 377.63,456.58 377.63,456.58 378.85,456.58 378.85,456.58 380.08,456.58 380.08,456.58 381.31,456.58 381.31,451.35 382.53,451.35 382.53,451.35 383.76,451.35 383.76,451.35 384.99,451.35 384.99,451.35 386.21,451.35 386.21,451.35 387.44,451.35 387.44,451.35 388.67,451.35 388.67,451.35 389.89,451.35 389.89,444.36 391.12,444.36 391.12,444.36 392.35,444.36 392.35,444.36 393.57,444.36 393.57,444.36 394.80,444.36 394.80,444.36 396.03,444.36 396.03,444.36 397.25,444.36 397.25,444.36 398.48,444.36 398.48,444.36 399.71,444.36 399.71,444.36 400.93,444.36 400.93,444.36 402.16,444.36 402.16,444.36 403.39,444.36 403.39,444.36 404.61,444.36 404.61,444.36 405.84,444.36 405.84,444.36 407.07,444.36 407.07,444.36 408.29,444.36 408.29,444.36 409.52,444.36 409.52,444.36 410.75,444.36 410.75,444.36 411.97,444.36 411.97,444.36 413.20,444.36 413.20,444.36 414.43,444.36 414.43,444.36 415.65,444.36 415.65,444.36 416.88,444.36 416.88,444.36 418.11,444.36 418.11,444.36 419.33,444.36 419.33,444.36 420.56,444.36 420.56,444.36 421.79,444.36 421.79,444.36 423.01,444.36 423.01,444.36 424.24,444.36 424.24,444.36 425.47,444.36 425.47,444.36 426.69,444.36 426.69,444.36 427.92,444.36 427.92,444.36 429.15,444.36 429.15,444.36 430.37,444.36 430.37,444.36 431.60,444.36 431.60,444.36 432.83,444.36 432.83,444.36 434.05,444.36 434.05,444.36 435.28,444.36 435.28,444.36 436.51,444.36 436.51,444.36 437.73,444.36 437.73,444.36 438.96,444.36 438.96,444.36 440.19,444.36 440.19,444.36 441.41,444.36 441.41,444.36 442.64,444.36 442.64,444.36 443.87,444.36 443.87,444.36 445.09,444.36 445.09,444.36 446.32,444.36 446.32,435.64 447.55,435.64 447.55,435.64 448.77,435.64 448.77,435.64 450.00,435.64 450.00,435.64 451.23,435.64 451.23,435.64 452.45,435.64 452.45,435.64 453.68,435.64 453.68,435.64 454.91,435.64 454.91,435.64 456.13,435.64 456.13,435.64 457.36,435.64 457.36,435.64 458.59,435.64 458.59,435.64 459.81,435.64 459.81,417.60 461.04,417.60 461.04,417.60 462.27,417.60 462.27,417.60 463.49,417.60 463.49,417.60 464.72,417.60 464.72,417.60 465.95,417.60 465.95,417.60 467.17,417.60 467.17,417.60 468.40,417.60 468.40,417.60 469.63,417.60 469.63,417.60 470.85,417.60 470.85,417.02 472.08,417.02 472.08,402.47 473.31,402.47 473.31,402.47 474.53,402.47 474.53,402.47 475.76,402.47 475.76,402.47 476.99,402.47 476.99,402.47 478.21,402.47 478.21,402.47 479.44,402.47 479.44,402.47 480.67,402.47 480.67,402.47 481.89,402.47 481.89,402.47 483.12,402.47 483.12,402.47 484.35,402.47 484.35,402.47 485.57,402.47 485.57,402.47 486.80,402.47 486.80,402.47 488.03,402.47 488.03,402.47 489.25,402.47 489.25,402.47 490.48,402.47 490.48,402.47 491.71,402.47 491.71,402.47 492.93,402.47 492.93,402.47 494.16,402.47 494.16,402.47 495.39,402.47 495.39,402.47 496.61,402.47 496.61,402.47 497.84,402.47 497.84,402.47 499.07,402.47 499.07,402.47 500.29,402.47 500.29,402.47 501.52,402.47 501.52,402.47 502.75,402.47 502.75,402.47 503.97,402.47 503.97,402.47 505.20,402.47 505.20,402.47 506.43,402.47 506.43,402.47 507.65,402.47 507.65,402.47 508.88,402.47 508.88,394.33 510.11,394.33 510.11,394.33 511.33,394.33 511.33,394.33 512.56,394.33 512.56,394.33 513.79,394.33 513.79,394.33 515.01,394.33 515.01,394.33 516.24,394.33 516.24,393.75 517.47,393.75 517.47,386.18 518.69,386.18 518.69,386.18 519.92,386.18 519.92,386.18 521.15,386.18 521.15,375.71 522.37,375.71 522.37,375.71 523.60,375.71 523.60,375.71 524.83,375.71 524.83,375.71 526.05,375.71 526.05,366.98 527.28,366.98 527.28,366.98 528.51,366.98 528.51,366.98 529.73,366.98 529.73,366.98 530.96,366.98 530.96,366.98 532.19,366.98 532.19,366.98 533.41,366.98 533.41,366.98 534.64,366.98 534.64,366.98 535.87,366.98 535.87,366.98 537.09,366.98 537.09,366.98 538.32,366.98 538.32,366.98 539.55,366.98 539.55,366.98 540.77,366.98 540.77,360.00 542.00,360.00 542.00,359.42 543.23,359.42 543.23,359.42 544.45,359.42 544.45,355.93 545.68,355.93 545.68,355.35 546.91,355.35 546.91,355.35 548.13,355.35 548.13,355.35 549.36,355.35 549.36,355.35 550.59,355.35 550.59,355.35 551.81,355.35 551.81,355.35 553.04,355.35 553.04,348.95 554.27,348.95 554.27,346.04 555.49,346.04 555.49,346.04 556.72,346.04 556.72,346.04 557.95,346.04 557.95,346.04 559.17,346.04 559.17,346.04 560.40,346.04 560.40,346.04 561.63,346.04 561.63,346.04 562.85,346.04 562.85,346.04 564.08,346.04 564.08,346.04 565.31,346.04 565.31,346.04 566.53,346.04 566.53,346.04 567.76,346.04 567.76,345.45 568.99,345.45 568.99,345.45 570.21,345.45 570.21,345.45 571.44,345.45 571.44,338.47 572.67,338.47 572.67,338.47 573.89,338.47 573.89,338.47 575.12,338.47 575.12,330.91 576.35,330.91 576.35,323.35 577.57,323.35 577.57,323.35 578.80,323.35 578.80,312.87 580.03,312.87 580.03,312.87 581.25,312.87 581.25,312.87 582.48,312.87 582.48,312.87 583.71,312.87 583.71,297.75 584.93,297.75 584.93,297.75 586.16,297.75 586.16,297.75 587.39,297.75 587.39,297.75 588.61,297.75 588.61,297.75 589.84,297.75 589.84,297.75 591.07,297.75 591.07,297.75 592.29,297.75 592.29,297.75 593.52,297.75 593.52,297.75 594.75,297.75 594.75,297.16 595.97,297.16 595.97,294.25 597.20,294.25 597.20,293.67 598.43,293.67 598.43,293.67 599.65,293.67 599.65,293.67 600.88,293.67 600.88,293.67 602.11,293.67 602.11,293.67 603.33,293.67 603.33,293.67 604.56,293.67 604.56,293.67 605.79,293.67 605.79,293.67 607.01,293.67 607.01,293.67 608.24,293.67 608.24,293.67 609.47,293.67 609.47,293.67 610.69,293.67 610.69,293.09 611.92,293.09 611.92,284.95 613.15,284.95 613.15,275.64 614.37,275.64 614.37,275.64 615.60,275.64 615.60,275.64 616.83,275.64 616.83,275.64 618.05,275.64 618.05,275.64 619.28,275.64 619.28,275.64 620.51,275.64 620.51,275.64 621.73,275.64 621.73,266.91 622.96,266.91 622.96,266.33 624.19,266.33 624.19,257.60 625.41,257.60 625.41,251.78 626.64,251.78 626.64,251.78 627.87,251.78 627.87,244.22 629.09,244.22 629.09,244.22 630.32,244.22 630.32,244.22 631.55,244.22 631.55,244.22 632.77,244.22 632.77,244.22 634.00,244.22 634.00,244.22 635.23,244.22 635.23,244.22 636.45,244.22 636.45,243.64 637.68,243.64 637.68,235.49 638.91,235.49 638.91,235.49 640.13,235.49 640.13,235.49 641.36,235.49 641.36,235.49 642.59,235.49 642.59,235.49 643.81,235.49 643.81,235.49 645.04,235.49 645.04,235.49 646.27,235.49 646.27,235.49 647.49,235.49 647.49,235.49 648.72,235.49 648.72,235.49 649.95,235.49 649.95,235.49 651.17,235.49 651.17,235.49 652.40,235.49 652.40,235.49 653.63,235.49 653.63,235.49 654.85,235.49 654.85,235.49 656.08,235.49 656.08,235.49 657.31,235.49 657.31,235.49 658.53,235.49 658.53,235.49 659.76,235.49 659.76,235.49 660.99,235.49 660.99,235.49 662.21,235.49 662.21,227.93 663.44,227.93 663.44,227.93 664.67,227.93 664.67,227.93 665.89,227.93 665.89,227.93 667.12,227.93 667.12,227.93 668.35,227.93 668.35,227.93 669.57,227.93 669.57,227.93 670.80,227.93 670.80,227.93 672.03,227.93 672.03,227.93 673.25,227.93 673.25,227.93 674.48,227.93 674.48,227.93 675.71,227.93 675.71,227.93 676.93,227.93 676.93,219.78 678.16,219.78 678.16,219.78 679.39,219.78 679.39,219.78 680.61,219.78 680.61,219.78 681.84,219.78 681.84,219.78 683.07,219.78 683.07,211.05 684.29,211.05 684.29,211.05 685.52,211.05 685.52,211.05 686.75,211.05 686.75,211.05 687.97,211.05 687.97,211.05 689.20,211.05 689.20,211.05 690.43,211.05 690.43,211.05 691.65,211.05 691.65,204.65 692.88,204.65 692.88,204.65 694.11,204.65 694.11,204.07 695.33,204.07 695.33,204.07 696.56,204.07 696.56,204.07 697.79,204.07 697.79,204.07 699.01,204.07 699.01,204.07 700.24,204.07 700.24,204.07 701.47,204.07 701.47,204.07 702.69,204.07 702.69,204.07 703.92,204.07 703.92,203.49 705.15,203.49 705.15,203.49 706.37,203.49 706.37,202.91 707.60,202.91 707.60,202.91 708.83,202.91 708.83,194.18 710.05,194.18 710.05,194.18 711.28,194.18 711.28,194.18 712.51,194.18 712.51,182.55 713.73,182.55 713.73,182.55 714.96,182.55 714.96,182.55 716.19,182.55 716.19,182.55 717.41,182.55 717.41,182.55 718.64,182.55 718.64,179.05 719.87,179.05 719.87,177.89 721.09,177.89 721.09,177.89 722.32,177.89 722.32,177.89 723.55,177.89 723.55,177.89 724.77,177.89 724.77,177.31 726.00,177.31 726.00,177.31 727.23,177.31 727.23,177.31 728.45,177.31 728.45,177.31 729.68,177.31 729.68,177.31 730.91,177.31 730.91,177.31 732.13,177.31 732.13,177.31 733.36,177.31 733.36,176.73 734.59,176.73 734.59,176.73 735.81,176.73 735.81,176.73 737.04,176.73 737.04,176.73 738.27,176.73 738.27,176.73 739.49,176.73 739.49,176.73 740.72,176.73 740.72,176.73 741.95,176.73 741.95,176.73 743.17,176.73 743.17,176.73 744.40,176.73 744.40,176.73 745.63,176.73 745.63,159.27 746.85,159.27 746.85,159.27 748.08,159.27 748.08,159.27 749.31,159.27 749.31,145.31 750.53,145.31 750.53,145.31 751.76,145.31 751.76,145.31 752.99,145.31 752.99,145.31 754.21,145.31 754.21,144.73 755.44,144.73 755.44,144.73 756.67,144.73 756.67,144.73 757.89,144.73 757.89,141.82 759.12,141.82 759.12,141.82 760.35,141.82 760.35,141.82 761.57,141.82 761.57,124.36 762.80,124.36 762.80,124.36 764.03,124.36 764.03,124.36 765.25,124.36 765.25,124.36 766.48,124.36 766.48,115.64 767.71,115.64 767.71,108.07 768.93,108.07 768.93,108.07 770.16,108.07 770.16,108.07 771.39,108.07 771.39,108.07 772.61,108.07 772.61,101.09 773.84,101.09 773.84,101.09 775.07,101.09 775.07,101.09 776.29,101.09 776.29,101.09 777.52,101.09 777.52,101.09 778.75,101.09 778.75,101.09 779.97,101.09 779.97,101.09 781.20,101.09 781.20,101.09 782.43,101.09 782.43,101.09 783.65,101.09 783.65,88.87 784.88,88.87 784.88,88.87 786.11,88.87 786.11,88.87 787.33,88.87 787.33,82.47 788.56,82.47 788.56,82.47 789.79,82.47 789.79,82.47 791.01,82.47 791.01,82.47 792.24,82.47 792.24,82.47 793.47,82.47 793.47,73.16 794.69,73.16 794.69,73.16 795.92,73.16 795.92,73.16 797.15,73.16 797.15,72.58 798.37,72.58 798.37,72.58 799.60,72.58 799.60,60.95 800.83,60.95 800.83,55.13 802.05,55.13 802.05,55.13 803.28,55.13 803.28,55.13 804.51,55.13 804.51,55.13 805.73,55.13 805.73,55.13 806.96,55.13 806.96,55.13 808.19,55.13 808.19,55.13 809.41,55.13 809.41,48.15 810.64,48.15 810.64,48.15 811.87,48.15 811.87,40.00 813.09,40.00 813.09,40.00 814.32,40.00 814.32,40.00 815.55,40.00 815.55,40.00 816.77,40.00 816.77,40.00 818.00,40.00 818.00,40.00" fill="none" stroke="#4b8f29" stroke-width="3"/>
<text x="450.0" y="552" text-anchor="middle" font-size="20" font-family="Arial, sans-serif" fill="#111827">Top displacement (mm)</text>
<text x="24" y="280.0" text-anchor="middle" transform="rotate(-90 24 280.0)" font-size="20" font-family="Arial, sans-serif" fill="#111827">Force magnitude (N)</text>
<text x="880" y="280.0" text-anchor="middle" transform="rotate(90 880 280.0)" font-size="20" font-family="Arial, sans-serif" fill="#111827">Broken bonds</text>
<text x="102" y="64" font-size="18" font-family="Arial, sans-serif" fill="#1b6ca8">Top plate</text>
<text x="212" y="64" font-size="18" font-family="Arial, sans-serif" fill="#d1495b">Bottom plate</text>
<text x="352" y="64" font-size="18" font-family="Arial, sans-serif" fill="#4b8f29">Broken bonds</text>
<text x="72" y="45" text-anchor="end" font-size="17" fill="#30363d">15.69</text>
<text x="72" y="488" text-anchor="end" font-size="17" fill="#30363d">0</text>
<text x="828" y="45" text-anchor="start" font-size="17" fill="#30363d">770</text>
<text x="828" y="488" text-anchor="start" font-size="17" fill="#30363d">0</text>
</svg>
