<svg xmlns="http://www.w3.org/2000/svg" width="900" height="560" viewBox="0 0 900 560">
<rect width="100%" height="100%" fill="white"/>
<text x="450.0" y="26" text-anchor="middle" font-size="22" font-family="Arial, sans-serif" fill="#111827">SP-002 force-displacement and bond breakage</text>
<line x1="82" y1="40.00" x2="818" y2="40.00" stroke="#d9dee2" stroke-width="1"/><line x1="82" y1="129.60" x2="818" y2="129.60" stroke="#d9dee2" stroke-width="1"/><line x1="82" y1="219.20" x2="818" y2="219.20" stroke="#d9dee2" stroke-width="1"/><line x1="82" y1="308.80" x2="818" y2="308.80" stroke="#d9dee2" stroke-width="1"/><line x1="82" y1="398.40" x2="818" y2="398.40" stroke="#d9dee2" stroke-width="1"/><line x1="82" y1="488.00" x2="818" y2="488.00" stroke="#d9dee2" stroke-width="1"/><line x1="82.00" y1="40" x2="82.00" y2="488" stroke="#edf0f2" stroke-width="1"/><text x="82.00" y="526" text-anchor="middle" font-size="18" fill="#30363d">0.000</text><line x1="229.20" y1="40" x2="229.20" y2="488" stroke="#edf0f2" stroke-width="1"/><text x="229.20" y="526" text-anchor="middle" font-size="18" fill="#30363d">0.060</text><line x1="376.40" y1="40" x2="376.40" y2="488" stroke="#edf0f2" stroke-width="1"/><text x="376.40" y="526" text-anchor="middle" font-size="18" fill="#30363d">0.120</text><line x1="523.60" y1="40" x2="523.60" y2="488" stroke="#edf0f2" stroke-width="1"/><text x="523.60" y="526" text-anchor="middle" font-size="18" fill="#30363d">0.180</text><line x1="670.80" y1="40" x2="670.80" y2="488" stroke="#edf0f2" stroke-width="1"/><text x="670.80" y="526" text-anchor="middle" font-size="18" fill="#30363d">0.240</text><line x1="818.00" y1="40" x2="818.00" y2="488" stroke="#edf0f2" stroke-width="1"/><text x="818.00" y="526" text-anchor="middle" font-size="18" fill="#30363d">0.300</text>
<line x1="82" y1="40" x2="82" y2="488" stroke="#111827" stroke-width="1.5"/>
<line x1="82" y1="488" x2="818" y2="488" stroke="#111827" stroke-width="1.5"/>
<line x1="818" y1="40" x2="818" y2="488" stroke="#111827" stroke-width="1.5"/>
<polyline points="82.00,488.00 83.23,488.00 84.45,488.00 85.68,488.00 86.91,488.00 88.13,488.00 89.36,488.00 90.59,488.00 91.81,488.00 93.04,488.00 94.27,488.00 95.49,488.00 96.72,488.00 97.95,488.00 99.17,488.00 100.40,488.00 101.63,488.00 102.85,488.00 104.08,488.00 105.31,488.00 106.53,488.00 107.76,488.00 108.99,488.00 110.21,488.00 111.44,488.00 112.67,488.00 113.89,488.00 115.12,488.00 116.35,488.00 117.57,488.00 118.80,488.00 120.03,488.00 121.25,488.00 122.48,488.00 123.71,488.00 124.93,488.00 126.16,488.00 127.39,488.00 128.61,488.00 129.84,488.00 131.07,488.00 132.29,488.00 133.52,488.00 134.75,488.00 135.97,488.00 137.20,488.00 138.43,488.00 139.65,488.00 140.88,488.00 142.11,488.00 143.33,488.00 144.56,488.00 145.79,488.00 147.01,488.00 148.24,488.00 149.47,488.00 150.69,488.00 151.92,488.00 153.15,488.00 154.37,488.00 155.60,488.00 156.83,488.00 158.05,488.00 159.28,488.00 160.51,488.00 161.73,488.00 162.96,488.00 164.19,488.00 165.41,488.00 166.64,488.00 167.87,488.00 169.09,488.00 170.32,488.00 171.55,488.00 172.77,488.00 174.00,488.00 175.23,488.00 176.45,488.00 177.68,488.00 178.91,488.00 180.13,488.00 181.36,488.00 182.59,488.00 183.81,488.00 185.04,488.00 186.27,488.00 187.49,488.00 188.72,488.00 189.95,488.00 191.17,488.00 192.40,488.00 193.63,488.00 194.85,488.00 196.08,488.00 197.31,488.00 198.53,488.00 199.76,488.00 200.99,488.00 202.21,488.00 203.44,488.00 204.67,488.00 205.89,488.00 207.12,488.00 208.35,488.00 209.57,488.00 210.80,488.00 212.03,488.00 213.25,488.00 214.48,488.00 215.71,488.00 216.93,488.00 218.16,488.00 219.39,488.00 220.61,488.00 221.84,488.00 223.07,488.00 224.29,488.00 225.52,488.00 226.75,488.00 227.97,488.00 229.20,488.00 230.43,488.00 231.65,488.00 232.88,488.00 234.11,488.00 235.33,488.00 236.56,488.00 237.79,488.00 239.01,488.00 240.24,488.00 241.47,488.00 242.69,488.00 243.92,488.00 245.15,488.00 246.37,488.00 247.60,488.00 248.83,488.00 250.05,488.00 251.28,488.00 252.51,488.00 253.73,488.00 254.96,488.00 256.19,488.00 257.41,488.00 258.64,488.00 259.87,488.00 261.09,488.00 262.32,488.00 263.55,488.00 264.77,488.00 266.00,488.00 267.23,488.00 268.45,488.00 269.68,488.00 270.91,488.00 272.13,488.00 273.36,488.00 274.59,488.00 275.81,488.00 277.04,488.00 278.27,488.00 279.49,488.00 280.72,488.00 281.95,488.00 283.17,488.00 284.40,488.00 285.63,488.00 286.85,488.00 288.08,488.00 289.31,488.00 290.53,488.00 291.76,488.00 292.99,488.00 294.21,488.00 295.44,488.00 296.67,488.00 297.89,488.00 299.12,488.00 300.35,488.00 301.57,488.00 302.80,488.00 304.03,488.00 305.25,488.00 306.48,488.00 307.71,488.00 308.93,488.00 310.16,488.00 311.39,488.00 312.61,488.00 313.84,488.00 315.07,488.00 316.29,488.00 317.52,488.00 318.75,488.00 319.97,488.00 321.20,488.00 322.43,488.00 323.65,488.00 324.88,488.00 326.11,488.00 327.33,488.00 328.56,484.40 329.79,478.67 331.01,471.89 332.24,464.36 333.47,456.27 334.69,447.70 335.92,438.74 337.15,429.66 338.37,420.15 339.60,487.94 340.83,487.94 342.05,487.94 343.28,487.94 344.51,485.41 345.73,480.82 346.96,475.54 348.19,469.88 349.41,463.81 350.64,454.02 351.87,477.57 353.09,469.59 354.32,462.42 355.55,454.79 356.77,446.73 358.00,438.30 359.23,487.63 360.45,487.82 361.68,487.82 362.91,487.82 364.13,487.82 365.36,487.06 366.59,485.31 367.81,483.10 369.04,480.56 370.27,477.78 371.49,474.82 372.72,470.49 373.95,465.25 375.17,459.41 376.40,453.09 377.63,446.39 378.85,439.34 380.08,431.02 381.31,420.87 382.53,426.85 383.76,453.88 384.99,463.44 386.21,464.55 387.44,463.23 388.67,461.36 389.89,459.40 391.12,456.95 392.35,453.94 393.57,450.69 394.80,447.24 396.03,443.64 397.25,438.60 398.48,426.70 399.71,415.16 400.93,415.64 402.16,415.53 403.39,432.28 404.61,439.66 405.84,439.45 407.07,436.11 408.29,431.37 409.52,425.93 410.75,419.68 411.97,411.83 413.20,403.50 414.43,394.75 415.65,425.17 416.88,412.73 418.11,403.68 419.33,395.56 420.56,387.61 421.79,379.59 423.01,371.42 424.24,363.08 425.47,435.28 426.69,423.52 427.92,417.01 429.15,412.90 430.37,409.40 431.60,406.06 432.83,402.76 434.05,399.48 435.28,396.22 436.51,392.98 437.73,389.76 438.96,386.56 440.19,383.37 441.41,380.19 442.64,377.01 443.87,373.82 445.09,370.53 446.32,366.19 447.55,361.60 448.77,355.57 450.00,349.02 451.23,342.03 452.45,334.64 453.68,326.39 454.91,317.64 456.13,349.97 457.36,375.21 458.59,383.45 459.81,386.74 461.04,387.74 462.27,387.59 463.49,387.50 464.72,387.25 465.95,386.54 467.17,381.13 468.40,374.54 469.63,367.06 470.85,358.23 472.08,347.79 473.31,333.85 474.53,389.22 475.76,425.55 476.99,432.06 478.21,432.26 479.44,429.62 480.67,425.48 481.89,420.54 483.12,415.10 484.35,409.30 485.57,403.13 486.80,395.96 488.03,388.08 489.25,379.86 490.48,371.42 491.71,386.42 492.93,429.03 494.16,441.38 495.39,445.53 496.61,446.81 497.84,446.91 499.07,445.19 500.29,439.84 501.52,431.45 502.75,420.89 503.97,408.69 505.20,395.01 506.43,380.02 507.65,364.05 508.88,347.26 510.11,329.14 511.33,310.22 512.56,305.33 513.79,300.73 515.01,349.54 516.24,353.75 517.47,346.86 518.69,336.68 519.92,325.23 521.15,317.39 522.37,372.56 523.60,388.38 524.83,383.76 526.05,375.74 527.28,400.27 528.51,413.95 529.73,415.42 530.96,413.90 532.19,410.52 533.41,406.76 534.64,402.89 535.87,398.95 537.09,394.97 538.32,390.64 539.55,385.54 540.77,379.85 542.00,373.72 543.23,367.20 544.45,360.29 545.68,353.06 546.91,345.54 548.13,341.95 549.36,341.23 550.59,335.65 551.81,327.43 553.04,318.02 554.27,308.91 555.49,296.80 556.72,282.35 557.95,266.61 559.17,249.24 560.40,271.50 561.63,263.19 562.85,250.25 564.08,303.85 565.31,271.08 566.53,326.24 567.76,313.89 568.99,308.01 570.21,305.61 571.44,301.33 572.67,371.88 573.89,373.23 575.12,376.99 576.35,381.09 577.57,385.13 578.80,389.01 580.03,392.57 581.25,395.69 582.48,398.48 583.71,399.36 584.93,398.39 586.16,394.90 587.39,388.56 588.61,395.36 589.84,401.09 591.07,400.49 592.29,397.21 593.52,392.28 594.75,386.43 595.97,379.87 597.20,372.78 598.43,365.39 599.65,357.80 600.88,350.03 602.11,342.10 603.33,333.85 604.56,325.37 605.79,316.05 607.01,305.66 608.24,296.03 609.47,284.06 610.69,270.73 611.92,318.11 613.15,304.28 614.37,292.74 615.60,280.90 616.83,269.08 618.05,256.10 619.28,242.01 620.51,227.74 621.73,212.75 622.96,196.79 624.19,180.75 625.41,246.33 626.64,323.43 627.87,278.01 629.09,381.49 630.32,364.77 631.55,349.65 632.77,333.92 634.00,317.51 635.23,300.48 636.45,282.89 637.68,265.74 638.91,351.58 640.13,366.88 641.36,365.88 642.59,361.73 643.81,356.14 645.04,458.87 646.27,436.27 647.49,424.60 648.72,414.90 649.95,404.93 651.17,394.45 652.40,383.50 653.63,372.10 654.85,428.55 656.08,421.87 657.31,413.07 658.53,405.03 659.76,397.19 660.99,389.27 662.21,380.77 663.44,372.43 664.67,363.46 665.89,354.62 667.12,345.04 668.35,336.58 669.57,324.26 670.80,307.86 672.03,329.48 673.25,328.60 674.48,313.93 675.71,298.20 676.93,310.85 678.16,300.54 679.39,288.79 680.61,276.38 681.84,263.35 683.07,285.77 684.29,269.67 685.52,254.54 686.75,239.06 687.97,223.23 689.20,206.92 690.43,189.87 691.65,172.43 692.88,155.46 694.11,136.30 695.33,172.12 696.56,170.74 697.79,164.69 699.01,155.54 700.24,190.34 701.47,221.52 702.69,209.00 703.92,194.64 705.15,178.06 706.37,198.75 707.60,194.43 708.83,173.69 710.05,171.52 711.28,168.48 712.51,150.65 713.73,130.77 714.96,109.45 716.19,115.21 717.41,102.98 718.64,89.11 719.87,72.98 721.09,55.31 722.32,93.04 723.55,57.61 724.77,77.60 726.00,60.01 727.23,40.00 728.45,197.50 729.68,183.81 730.91,234.89 732.13,258.80 733.36,266.38 734.59,263.86 735.81,252.98 737.04,274.06 738.27,253.01 739.49,237.49 740.72,284.56 741.95,263.35 743.17,262.14 744.40,245.92 745.63,226.50 746.85,205.83 748.08,186.44 749.31,164.59 750.53,144.38 751.76,129.06 752.99,107.81 754.21,117.71 755.44,128.41 756.67,249.86 757.89,287.12 759.12,285.84 760.35,279.22 761.57,270.84 762.80,262.10 764.03,253.70 765.25,244.86 766.48,235.25 767.71,223.50 768.93,210.62 770.16,197.98 771.39,185.77 772.61,172.01 773.84,156.34 775.07,139.42 776.29,121.56 777.52,129.84 778.75,108.50 779.97,94.91 781.20,90.13 782.43,80.09 783.65,70.11 784.88,160.37 786.11,142.13 787.33,135.35 788.56,126.10 789.79,115.46 791.01,189.26 792.24,259.36 793.47,314.91 794.69,305.45 795.92,296.12 797.15,352.02 798.37,354.65 799.60,348.41 800.83,343.27 802.05,338.90 803.28,326.27 804.51,366.37 805.73,381.67 806.96,382.78 808.19,378.31 809.41,371.65 810.64,363.13 811.87,353.52 813.09,343.17 814.32,332.29 815.55,320.83 816.77,308.79 818.00,297.35" fill="none" stroke="#1b6ca8" stroke-width="3"/>
<polyline points="82.00,488.00 83.23,488.00 84.45,488.00 85.68,488.00 86.91,488.00 88.13,488.00 89.36,488.00 90.59,488.00 91.81,488.00 93.04,488.00 94.27,488.00 95.49,488.00 96.72,488.00 97.95,488.00 99.17,488.00 100.40,488.00 101.63,488.00 102.85,488.00 104.08,488.00 105.31,488.00 106.53,488.00 107.76,488.00 108.99,488.00 110.21,488.00 111.44,488.00 112.67,488.00 113.89,488.00 115.12,488.00 116.35,488.00 117.57,488.00 118.80,488.00 120.03,488.00 121.25,488.00 122.48,488.00 123.71,488.00 124.93,488.00 126.16,488.00 127.39,488.00 128.61,488.00 129.84,488.00 131.07,488.00 132.29,488.00 133.52,488.00 134.75,488.00 135.97,488.00 137.20,488.00 138.43,488.00 139.65,488.00 140.88,488.00 142.11,488.00 143.33,488.00 144.56,488.00 145.79,488.00 147.01,488.00 148.24,488.00 149.47,488.00 150.69,488.00 151.92,488.00 153.15,488.00 154.37,488.00 155.60,488.00 156.83,488.00 158.05,488.00 159.28,488.00 160.51,488.00 161.73,488.00 162.96,488.00 164.19,488.00 165.41,488.00 166.64,488.00 167.87,488.00 169.09,488.00 170.32,488.00 171.55,488.00 172.77,488.00 174.00,488.00 175.23,488.00 176.45,488.00 177.68,488.00 178.91,488.00 180.13,488.00 181.36,488.00 182.59,488.00 183.81,488.00 185.04,488.00 186.27,488.00 187.49,488.00 188.72,488.00 189.95,488.00 191.17,488.00 192.40,488.00 193.63,488.00 194.85,488.00 196.08,488.00 197.31,488.00 198.53,488.00 199.76,488.00 200.99,488.00 202.21,488.00 203.44,488.00 204.67,488.00 205.89,488.00 207.12,488.00 208.35,488.00 209.57,488.00 210.80,488.00 212.03,488.00 213.25,488.00 214.48,488.00 215.71,488.00 216.93,488.00 218.16,488.00 219.39,488.00 220.61,488.00 221.84,488.00 223.07,488.00 224.29,488.00 225.52,488.00 226.75,488.00 227.97,488.00 229.20,488.00 230.43,488.00 231.65,488.00 232.88,488.00 234.11,488.00 235.33,488.00 236.56,488.00 237.79,488.00 239.01,488.00 240.24,488.00 241.47,488.00 242.69,488.00 243.92,488.00 245.15,488.00 246.37,488.00 247.60,488.00 248.83,488.00 250.05,488.00 251.28,488.00 252.51,488.00 253.73,488.00 254.96,488.00 256.19,488.00 257.41,488.00 258.64,488.00 259.87,488.00 261.09,488.00 262.32,488.00 263.55,488.00 264.77,488.00 266.00,488.00 267.23,488.00 268.45,488.00 269.68,488.00 270.91,488.00 272.13,488.00 273.36,488.00 274.59,488.00 275.81,488.00 277.04,488.00 278.27,488.00 279.49,488.00 280.72,488.00 281.95,488.00 283.17,488.00 284.40,488.00 285.63,488.00 286.85,488.00 288.08,488.00 289.31,488.00 290.53,488.00 291.76,488.00 292.99,488.00 294.21,488.00 295.44,488.00 296.67,488.00 297.89,488.00 299.12,488.00 300.35,488.00 301.57,488.00 302.80,488.00 304.03,488.00 305.25,488.00 306.48,488.00 307.71,488.00 308.93,488.00 310.16,488.00 311.39,488.00 312.61,488.00 313.84,488.00 315.07,488.00 316.29,488.00 317.52,488.00 318.75,488.00 319.97,488.00 321.20,488.00 322.43,488.00 323.65,488.00 324.88,488.00 326.11,488.00 327.33,488.00 328.56,485.93 329.79,480.92 331.01,474.53 332.24,467.28 333.47,459.40 334.69,451.02 335.92,442.20 337.15,432.99 338.37,423.79 339.60,460.70 340.83,486.18 342.05,487.86 343.28,487.98 344.51,486.66 345.73,482.69 346.96,477.67 348.19,472.16 349.41,466.34 350.64,458.00 351.87,460.11 353.09,471.15 354.32,465.17 355.55,457.79 356.77,449.91 358.00,441.62 359.23,440.92 360.45,484.98 361.68,487.80 362.91,487.99 364.13,488.00 365.36,487.60 366.59,486.15 367.81,484.10 369.04,481.67 370.27,478.98 371.49,476.08 372.72,472.29 373.95,467.37 375.17,461.75 376.40,455.61 377.63,449.05 378.85,442.13 380.08,434.50 381.31,432.95 382.53,463.61 383.76,486.65 384.99,484.18 386.21,477.63 387.44,474.09 388.67,471.80 389.89,469.77 391.12,466.60 392.35,463.43 393.57,460.09 394.80,456.46 396.03,452.73 397.25,448.49 398.48,439.53 399.71,428.19 400.93,431.16 402.16,457.96 403.39,479.43 404.61,469.27 405.84,461.73 407.07,455.55 408.29,449.73 409.52,443.91 410.75,437.90 411.97,430.87 413.20,422.94 414.43,414.20 415.65,428.67 416.88,426.13 418.11,420.07 419.33,413.04 420.56,405.55 421.79,397.77 423.01,389.75 424.24,381.52 425.47,413.62 426.69,427.67 427.92,428.89 429.15,426.79 430.37,423.79 431.60,420.54 432.83,417.21 434.05,413.87 435.28,410.53 436.51,407.20 437.73,403.89 438.96,400.60 440.19,397.33 441.41,394.08 442.64,390.83 443.87,387.59 445.09,384.15 446.32,378.56 447.55,373.01 448.77,366.73 450.00,359.96 451.23,352.87 452.45,345.47 453.68,337.51 454.91,328.93 456.13,383.61 457.36,398.49 458.59,403.16 459.81,404.97 461.04,405.68 462.27,405.93 463.49,405.70 464.72,405.10 465.95,404.45 467.17,401.06 468.40,395.07 469.63,387.78 470.85,379.13 472.08,366.73 473.31,351.17 474.53,473.39 475.76,467.93 476.99,463.06 478.21,458.12 479.44,452.94 480.67,447.51 481.89,441.86 483.12,435.98 484.35,429.91 485.57,422.99 486.80,415.26 488.03,407.15 489.25,398.78 490.48,390.26 491.71,479.15 492.93,477.53 494.16,476.03 495.39,474.64 496.61,473.32 497.84,472.00 499.07,466.50 500.29,457.67 501.52,447.65 502.75,436.61 503.97,424.10 505.20,409.58 506.43,394.18 507.65,378.04 508.88,361.20 510.11,343.33 511.33,324.49 512.56,327.97 513.79,335.35 515.01,388.72 516.24,375.93 517.47,364.10 518.69,352.39 519.92,340.49 521.15,328.41 522.37,438.27 523.60,413.13 524.83,400.76 526.05,391.21 527.28,449.74 528.51,442.36 529.73,437.93 530.96,434.57 532.19,431.33 533.41,427.77 534.64,424.08 535.87,420.30 537.09,416.47 538.32,411.41 539.55,405.48 540.77,399.18 542.00,392.54 543.23,385.53 544.45,378.26 545.68,370.75 546.91,363.04 548.13,367.67 549.36,366.63 550.59,358.58 551.81,350.08 553.04,340.60 554.27,333.58 555.49,317.84 556.72,301.09 557.95,283.91 559.17,264.80 560.40,289.41 561.63,275.80 562.85,262.72 564.08,269.38 565.31,276.84 566.53,308.12 567.76,317.51 568.99,315.84 570.21,312.90 571.44,310.75 572.67,356.75 573.89,372.22 575.12,380.02 576.35,386.04 577.57,391.15 578.80,395.60 580.03,399.56 581.25,403.70 582.48,406.91 583.71,407.69 584.93,404.85 586.16,401.84 587.39,396.99 588.61,420.08 589.84,413.67 591.07,410.16 592.29,406.81 593.52,402.65 594.75,397.71 595.97,391.79 597.20,385.08 598.43,377.94 599.65,370.53 600.88,362.91 602.11,355.08 603.33,347.03 604.56,338.66 605.79,328.83 607.01,318.47 608.24,308.48 609.47,297.07 610.69,284.19 611.92,321.40 613.15,315.96 614.37,305.61 615.60,294.29 616.83,282.36 618.05,269.11 619.28,255.07 620.51,240.81 621.73,225.68 622.96,210.24 624.19,194.39 625.41,276.95 626.64,252.88 627.87,288.32 629.09,366.68 630.32,369.57 631.55,358.78 632.77,344.50 634.00,328.50 635.23,311.59 636.45,294.02 637.68,277.54 638.91,398.81 640.13,389.52 641.36,383.02 642.59,377.84 643.81,371.50 645.04,412.88 646.27,439.92 647.49,437.77 648.72,430.02 649.95,420.47 651.17,410.02 652.40,398.97 653.63,387.48 654.85,393.13 656.08,415.69 657.31,417.81 658.53,414.01 659.76,407.89 660.99,400.53 662.21,392.45 663.44,384.02 664.67,375.29 665.89,366.00 667.12,356.48 668.35,348.12 669.57,336.24 670.80,322.90 672.03,364.59 673.25,345.92 674.48,330.36 675.71,314.30 676.93,329.93 678.16,318.04 679.39,306.02 680.61,293.59 681.84,280.63 683.07,295.53 684.29,287.00 685.52,273.14 686.75,257.93 687.97,242.07 689.20,225.69 690.43,208.74 691.65,191.25 692.88,173.47 694.11,154.25 695.33,189.86 696.56,187.95 697.79,183.57 699.01,176.39 700.24,204.39 701.47,238.65 702.69,229.63 703.92,214.52 705.15,197.35 706.37,237.64 707.60,212.76 708.83,191.02 710.05,210.65 711.28,189.47 712.51,170.06 713.73,149.64 714.96,127.93 716.19,138.83 717.41,124.27 718.64,109.17 719.87,92.73 721.09,74.02 722.32,73.47 723.55,72.28 724.77,81.28 726.00,69.16 727.23,50.42 728.45,175.69 729.68,181.69 730.91,264.22 732.13,270.02 733.36,278.59 734.59,271.65 735.81,263.11 737.04,264.46 738.27,264.71 739.49,250.04 740.72,276.06 741.95,277.45 743.17,279.64 744.40,260.77 745.63,241.12 746.85,220.38 748.08,201.34 749.31,178.97 750.53,157.95 751.76,138.29 752.99,118.44 754.21,134.36 755.44,126.32 756.67,318.18 757.89,309.12 759.12,303.01 760.35,295.31 761.57,286.63 762.80,278.38 764.03,270.05 765.25,261.29 766.48,250.82 767.71,238.50 768.93,226.07 770.16,214.17 771.39,201.91 772.61,186.94 773.84,170.72 775.07,153.46 776.29,135.42 777.52,121.81 778.75,123.08 779.97,109.01 781.20,104.79 782.43,94.69 783.65,83.15 784.88,91.11 786.11,148.65 787.33,146.97 788.56,140.07 789.79,130.53 791.01,121.70 792.24,240.75 793.47,313.81 794.69,313.54 795.92,305.96 797.15,324.04 798.37,342.98 799.60,347.06 800.83,344.12 802.05,342.78 803.28,334.74 804.51,386.85 805.73,389.06 806.96,389.63 808.19,387.26 809.41,382.34 810.64,375.20 811.87,366.42 813.09,356.56 814.32,345.94 815.55,334.75 816.77,322.85 818.00,311.02" fill="none" stroke="#d1495b" stroke-width="3"/>
<polyline points="82.00,488.00 83.23,488.00 83.23,488.00 84.45,488.00 84.45,488.00 85.68,488.00 85.68,488.00 86.91,488.00 86.91,488.00 88.13,488.00 88.13,488.00 89.36,488.00 89.36,488.00 90.59,488.00 90.59,488.00 91.81,488.00 91.81,488.00 93.04,488.00 93.04,488.00 94.27,488.00 94.27,488.00 95.49,488.00 95.49,488.00 96.72,488.00 96.72,488.00 97.95,488.00 97.95,488.00 99.17,488.00 99.17,488.00 100.40,488.00 100.40,488.00 101.63,488.00 101.63,488.00 102.85,488.00 102.85,488.00 104.08,488.00 104.08,488.00 105.31,488.00 105.31,488.00 106.53,488.00 106.53,488.00 107.76,488.00 107.76,488.00 108.99,488.00 108.99,488.00 110.21,488.00 110.21,488.00 111.44,488.00 111.44,488.00 112.67,488.00 112.67,488.00 113.89,488.00 113.89,488.00 115.12,488.00 115.12,488.00 116.35,488.00 116.35,488.00 117.57,488.00 117.57,488.00 118.80,488.00 118.80,488.00 120.03,488.00 120.03,488.00 121.25,488.00 121.25,488.00 122.48,488.00 122.48,488.00 123.71,488.00 123.71,488.00 124.93,488.00 124.93,488.00 126.16,488.00 126.16,488.00 127.39,488.00 127.39,488.00 128.61,488.00 128.61,488.00 129.84,488.00 129.84,488.00 131.07,488.00 131.07,488.00 132.29,488.00 132.29,488.00 133.52,488.00 133.52,488.00 134.75,488.00 134.75,488.00 135.97,488.00 135.97,488.00 137.20,488.00 137.20,488.00 138.43,488.00 138.43,488.00 139.65,488.00 139.65,488.00 140.88,488.00 140.88,488.00 142.11,488.00 142.11,488.00 143.33,488.00 143.33,488.00 144.56,488.00 144.56,488.00 145.79,488.00 145.79,488.00 147.01,488.00 147.01,488.00 148.24,488.00 148.24,488.00 149.47,488.00 149.47,488.00 150.69,488.00 150.69,488.00 151.92,488.00 151.92,488.00 153.15,488.00 153.15,488.00 154.37,488.00 154.37,488.00 155.60,488.00 155.60,488.00 156.83,488.00 156.83,488.00 158.05,488.00 158.05,488.00 159.28,488.00 159.28,488.00 160.51,488.00 160.51,488.00 161.73,488.00 161.73,488.00 162.96,488.00 162.96,488.00 164.19,488.00 164.19,488.00 165.41,488.00 165.41,488.00 166.64,488.00 166.64,488.00 167.87,488.00 167.87,488.00 169.09,488.00 169.09,488.00 170.32,488.00 170.32,488.00 171.55,488.00 171.55,488.00 172.77,488.00 172.77,488.00 174.00,488.00 174.00,488.00 175.23,488.00 175.23,488.00 176.45,488.00 176.45,488.00 177.68,488.00 177.68,488.00 178.91,488.00 178.91,488.00 180.13,488.00 180.13,488.00 181.36,488.00 181.36,488.00 182.59,488.00 182.59,488.00 183.81,488.00 183.81,488.00 185.04,488.00 185.04,488.00 186.27,488.00 186.27,488.00 187.49,488.00 187.49,488.00 188.72,488.00 188.72,488.00 189.95,488.00 189.95,488.00 191.17,488.00 191.17,488.00 192.40,488.00 192.40,488.00 193.63,488.00 193.63,488.00 194.85,488.00 194.85,488.00 196.08,488.00 196.08,488.00 197.31,488.00 197.31,488.00 198.53,488.00 198.53,488.00 199.76,488.00 199.76,488.00 200.99,488.00 200.99,488.00 202.21,488.00 202.21,488.00 203.44,488.00 203.44,488.00 204.67,488.00 204.67,488.00 205.89,488.00 205.89,488.00 207.12,488.00 207.12,488.00 208.35,488.00 208.35,488.00 209.57,488.00 209.57,488.00 210.80,488.00 210.80,488.00 212.03,488.00 212.03,488.00 213.25,488.00 213.25,488.00 214.48,488.00 214.48,488.00 215.71,488.00 215.71,488.00 216.93,488.00 216.93,488.00 218.16,488.00 218.16,488.00 219.39,488.00 219.39,488.00 220.61,488.00 220.61,488.00 221.84,488.00 221.84,488.00 223.07,488.00 223.07,488.00 224.29,488.00 224.29,488.00 225.52,488.00 225.52,488.00 226.75,488.00 226.75,488.00 227.97,488.00 227.97,488.00 229.20,488.00 229.20,488.00 230.43,488.00 230.43,488.00 231.65,488.00 231.65,488.00 232.88,488.00 232.88,488.00 234.11,488.00 234.11,488.00 235.33,488.00 235.33,488.00 236.56,488.00 236.56,488.00 237.79,488.00 237.79,488.00 239.01,488.00 239.01,488.00 240.24,488.00 240.24,488.00 241.47,488.00 241.47,488.00 242.69,488.00 242.69,488.00 243.92,488.00 243.92,488.00 245.15,488.00 245.15,488.00 246.37,488.00 246.37,488.00 247.60,488.00 247.60,488.00 248.83,488.00 248.83,488.00 250.05,488.00 250.05,488.00 251.28,488.00 251.28,488.00 252.51,488.00 252.51,488.00 253.73,488.00 253.73,488.00 254.96,488.00 254.96,488.00 256.19,488.00 256.19,488.00 257.41,488.00 257.41,488.00 258.64,488.00 258.64,488.00 259.87,488.00 259.87,488.00 261.09,488.00 261.09,488.00 262.32,488.00 262.32,488.00 263.55,488.00 263.55,488.00 264.77,488.00 264.77,488.00 266.00,488.00 266.00,488.00 267.23,488.00 267.23,488.00 268.45,488.00 268.45,488.00 269.68,488.00 269.68,488.00 270.91,488.00 270.91,488.00 272.13,488.00 272.13,488.00 273.36,488.00 273.36,488.00 274.59,488.00 274.59,488.00 275.81,488.00 275.81,488.00 277.04,488.00 277.04,488.00 278.27,488.00 278.27,488.00 279.49,488.00 279.49,488.00 280.72,488.00 280.72,488.00 281.95,488.00 281.95,488.00 283.17,488.00 283.17,488.00 284.40,488.00 284.40,488.00 285.63,488.00 285.63,488.00 286.85,488.00 286.85,488.00 288.08,488.00 288.08,488.00 289.31,488.00 289.31,488.00 290.53,488.00 290.53,488.00 291.76,488.00 291.76,488.00 292.99,488.00 292.99,488.00 294.21,488.00 294.21,488.00 295.44,488.00 295.44,488.00 296.67,488.00 296.67,488.00 297.89,488.00 297.89,488.00 299.12,488.00 299.12,488.00 300.35,488.00 300.35,488.00 301.57,488.00 301.57,488.00 302.80,488.00 302.80,488.00 304.03,488.00 304.03,488.00 305.25,488.00 305.25,488.00 306.48,488.00 306.48,488.00 307.71,488.00 307.71,488.00 308.93,488.00 308.93,488.00 310.16,488.00 310.16,488.00 311.39,488.00 311.39,488.00 312.61,488.00 312.61,488.00 313.84,488.00 313.84,488.00 315.07,488.00 315.07,488.00 316.29,488.00 316.29,488.00 317.52,488.00 317.52,488.00 318.75,488.00 318.75,488.00 319.97,488.00 319.97,488.00 321.20,488.00 321.20,488.00 322.43,488.00 322.43,488.00 323.65,488.00 323.65,488.00 324.88,488.00 324.88,488.00 326.11,488.00 326.11,488.00 327.33,488.00 327.33,488.00 328.56,488.00 328.56,488.00 329.79,488.00 329.79,488.00 331.01,488.00 331.01,488.00 332.24,488.00 332.24,488.00 333.47,488.00 333.47,488.00 334.69,488.00 334.69,488.00 335.92,488.00 335.92,488.00 337.15,488.00 337.15,487.49 338.37,487.49 338.37,487.49 339.60,487.49 339.60,481.36 340.83,481.36 340.83,481.36 342.05,481.36 342.05,481.36 343.28,481.36 343.28,481.36 344.51,481.36 344.51,481.36 345.73,481.36 345.73,481.36 346.96,481.36 346.96,481.36 348.19,481.36 348.19,481.36 349.41,481.36 349.41,481.36 350.64,481.36 350.64,481.36 351.87,481.36 351.87,477.27 353.09,477.27 353.09,477.27 354.32,477.27 354.32,477.27 355.55,477.27 355.55,477.27 356.77,477.27 356.77,477.27 358.00,477.27 358.00,477.27 359.23,477.27 359.23,471.65 360.45,471.65 360.45,471.65 361.68,471.65 361.68,471.65 362.91,471.65 362.91,471.65 364.13,471.65 364.13,471.65 365.36,471.65 365.36,471.65 366.59,471.65 366.59,471.65 367.81,471.65 367.81,471.65 369.04,471.65 369.04,471.65 370.27,471.65 370.27,471.65 371.49,471.65 371.49,471.65 372.72,471.65 372.72,471.65 373.95,471.65 373.95,471.65 375.17,471.65 375.17,471.65 376.40,471.65 376.40,471.65 377.63,471.65 377.63,471.65 378.85,471.65 378.85,471.65 380.08,471.65 380.08,471.65 381.31,471.65 381.31,470.63 382.53,470.63 382.53,458.88 383.76,458.88 383.76,458.88 384.99,458.88 384.99,458.88 386.21,458.88 386.21,458.88 387.44,458.88 387.44,458.88 388.67,458.88 388.67,458.88 389.89,458.88 389.89,458.88 391.12,458.88 391.12,458.88 392.35,458.88 392.35,458.88 393.57,458.88 393.57,458.88 394.80,458.88 394.80,458.88 396.03,458.88 396.03,458.88 397.25,458.88 397.25,458.88 398.48,458.88 398.48,458.88 399.71,458.88 399.71,458.88 400.93,458.88 400.93,458.88 402.16,458.88 402.16,458.37 403.39,458.37 403.39,454.29 404.61,454.29 404.61,454.29 405.84,454.29 405.84,454.29 407.07,454.29 407.07,454.29 408.29,454.29 408.29,454.29 409.52,454.29 409.52,454.29 410.75,454.29 410.75,454.29 411.97,454.29 411.97,454.29 413.20,454.29 413.20,454.29 414.43,454.29 414.43,454.29 415.65,454.29 415.65,448.67 416.88,448.67 416.88,448.67 418.11,448.67 418.11,448.67 419.33,448.67 419.33,448.67 420.56,448.67 420.56,448.67 421.79,448.67 421.79,448.67 423.01,448.67 423.01,448.67 424.24,448.67 424.24,448.67 425.47,448.67 425.47,442.03 426.69,442.03 426.69,442.03 427.92,442.03 427.92,442.03 429.15,442.03 429.15,442.03 430.37,442.03 430.37,442.03 431.60,442.03 431.60,442.03 432.83,442.03 432.83,442.03 434.05,442.03 434.05,442.03 435.28,442.03 435.28,442.03 436.51,442.03 436.51,442.03 437.73,442.03 437.73,442.03 438.96,442.03 438.96,442.03 440.19,442.03 440.19,442.03 441.41,442.03 441.41,442.03 442.64,442.03 442.64,442.03 443.87,442.03 443.87,442.03 445.09,442.03 445.09,442.03 446.32,442.03 446.32,442.03 447.55,442.03 447.55,441.51 448.77,441.51 448.77,441.51 450.00,441.51 450.00,441.51 451.23,441.51 451.23,441.51 452.45,441.51 452.45,441.51 453.68,441.51 453.68,441.51 454.91,441.51 454.91,441.51 456.13,441.51 456.13,427.72 457.36,427.72 457.36,427.72 458.59,427.72 458.59,427.72 459.81,427.72 459.81,427.72 461.04,427.72 461.04,427.72 462.27,427.72 462.27,427.72 463.49,427.72 463.49,427.72 464.72,427.72 464.72,427.72 465.95,427.72 465.95,427.72 467.17,427.72 467.17,427.72 468.40,427.72 468.40,427.72 469.63,427.72 469.63,427.72 470.85,427.72 470.85,427.72 472.08,427.72 472.08,427.21 473.31,427.21 473.31,427.21 474.53,427.21 474.53,413.42 475.76,413.42 475.76,413.42 476.99,413.42 476.99,413.42 478.21,413.42 478.21,413.42 479.44,413.42 479.44,413.42 480.67,413.42 480.67,413.42 481.89,413.42 481.89,413.42 483.12,413.42 483.12,413.42 484.35,413.42 484.35,413.42 485.57,413.42 485.57,413.42 486.80,413.42 486.80,413.42 488.03,413.42 488.03,413.42 489.25,413.42 489.25,413.42 490.48,413.42 490.48,413.42 491.71,413.42 491.71,405.76 492.93,405.76 492.93,405.76 494.16,405.76 494.16,405.76 495.39,405.76 495.39,405.76 496.61,405.76 496.61,405.76 497.84,405.76 497.84,405.76 499.07,405.76 499.07,405.76 500.29,405.76 500.29,405.76 501.52,405.76 501.52,405.76 502.75,405.76 502.75,405.76 503.97,405.76 503.97,405.76 505.20,405.76 505.20,405.76 506.43,405.76 506.43,405.76 507.65,405.76 507.65,405.76 508.88,405.76 508.88,405.76 510.11,405.76 510.11,405.76 511.33,405.76 511.33,405.76 512.56,405.76 512.56,398.60 513.79,398.60 513.79,394.01 515.01,394.01 515.01,387.37 516.24,387.37 516.24,387.37 517.47,387.37 517.47,387.37 518.69,387.37 518.69,387.37 519.92,387.37 519.92,387.37 521.15,387.37 521.15,386.34 522.37,386.34 522.37,371.53 523.60,371.53 523.60,371.53 524.83,371.53 524.83,371.53 526.05,371.53 526.05,371.53 527.28,371.53 527.28,365.40 528.51,365.40 528.51,365.40 529.73,365.40 529.73,365.40 530.96,365.40 530.96,365.40 532.19,365.40 532.19,365.40 533.41,365.40 533.41,365.40 534.64,365.40 534.64,365.40 535.87,365.40 535.87,365.40 537.09,365.40 537.09,365.40 538.32,365.40 538.32,365.40 539.55,365.40 539.55,365.40 540.77,365.40 540.77,365.40 542.00,365.40 542.00,365.40 543.23,365.40 543.23,365.40 544.45,365.40 544.45,365.40 545.68,365.40 545.68,365.40 546.91,365.40 546.91,365.40 548.13,365.40 548.13,363.87 549.36,363.87 549.36,362.85 550.59,362.85 550.59,362.85 551.81,362.85 551.81,362.85 553.04,362.85 553.04,362.85 554.27,362.85 554.27,361.82 555.49,361.82 555.49,361.82 556.72,361.82 556.72,361.82 557.95,361.82 557.95,361.82 559.17,361.82 559.17,361.82 560.40,361.82 560.40,355.69 561.63,355.69 561.63,355.69 562.85,355.69 562.85,355.69 564.08,355.69 564.08,347.52 565.31,347.52 565.31,347.52 566.53,347.52 566.53,338.33 567.76,338.33 567.76,338.33 568.99,338.33 568.99,338.33 570.21,338.33 570.21,337.82 571.44,337.82 571.44,337.82 572.67,337.82 572.67,332.20 573.89,332.20 573.89,332.20 575.12,332.20 575.12,332.20 576.35,332.20 576.35,332.20 577.57,332.20 577.57,332.20 578.80,332.20 578.80,332.20 580.03,332.20 580.03,332.20 581.25,332.20 581.25,332.20 582.48,332.20 582.48,332.20 583.71,332.20 583.71,332.20 584.93,332.20 584.93,332.20 586.16,332.20 586.16,332.20 587.39,332.20 587.39,332.20 588.61,332.20 588.61,327.60 589.84,327.60 589.84,327.60 591.07,327.60 591.07,327.60 592.29,327.60 592.29,327.60 593.52,327.60 593.52,327.60 594.75,327.60 594.75,327.60 595.97,327.60 595.97,327.60 597.20,327.60 597.20,327.60 598.43,327.60 598.43,327.60 599.65,327.60 599.65,327.60 600.88,327.60 600.88,327.60 602.11,327.60 602.11,327.60 603.33,327.60 603.33,327.60 604.56,327.60 604.56,327.60 605.79,327.60 605.79,327.60 607.01,327.60 607.01,327.60 608.24,327.60 608.24,327.09 609.47,327.09 609.47,327.09 610.69,327.09 610.69,327.09 611.92,327.09 611.92,319.94 613.15,319.94 613.15,319.94 614.37,319.94 614.37,319.94 615.60,319.94 615.60,319.94 616.83,319.94 616.83,319.94 618.05,319.94 618.05,319.94 619.28,319.94 619.28,319.94 620.51,319.94 620.51,319.94 621.73,319.94 621.73,319.94 622.96,319.94 622.96,319.94 624.19,319.94 624.19,319.94 625.41,319.94 625.41,308.70 626.64,308.70 626.64,301.04 627.87,301.04 627.87,301.04 629.09,301.04 629.09,282.13 630.32,282.13 630.32,282.13 631.55,282.13 631.55,282.13 632.77,282.13 632.77,282.13 634.00,282.13 634.00,282.13 635.23,282.13 635.23,282.13 636.45,282.13 636.45,282.13 637.68,282.13 637.68,281.62 638.91,281.62 638.91,268.85 640.13,268.85 640.13,268.85 641.36,268.85 641.36,268.85 642.59,268.85 642.59,268.34 643.81,268.34 643.81,268.34 645.04,268.34 645.04,259.66 646.27,259.66 646.27,259.66 647.49,259.66 647.49,259.66 648.72,259.66 648.72,259.66 649.95,259.66 649.95,259.66 651.17,259.66 651.17,259.66 652.40,259.66 652.40,259.66 653.63,259.66 653.63,259.66 654.85,259.66 654.85,253.02 656.08,253.02 656.08,253.02 657.31,253.02 657.31,253.02 658.53,253.02 658.53,253.02 659.76,253.02 659.76,253.02 660.99,253.02 660.99,253.02 662.21,253.02 662.21,253.02 663.44,253.02 663.44,253.02 664.67,253.02 664.67,253.02 665.89,253.02 665.89,253.02 667.12,253.02 667.12,253.02 668.35,253.02 668.35,252.51 669.57,252.51 669.57,252.51 670.80,252.51 670.80,252.51 672.03,252.51 672.03,244.33 673.25,244.33 673.25,244.33 674.48,244.33 674.48,244.33 675.71,244.33 675.71,244.33 676.93,244.33 676.93,240.76 678.16,240.76 678.16,240.76 679.39,240.76 679.39,240.76 680.61,240.76 680.61,240.76 681.84,240.76 681.84,240.76 683.07,240.76 683.07,237.18 684.29,237.18 684.29,237.18 685.52,237.18 685.52,237.18 686.75,237.18 686.75,237.18 687.97,237.18 687.97,237.18 689.20,237.18 689.20,237.18 690.43,237.18 690.43,237.18 691.65,237.18 691.65,237.18 692.88,237.18 692.88,237.18 694.11,237.18 694.11,237.18 695.33,237.18 695.33,227.99 696.56,227.99 696.56,227.99 697.79,227.99 697.79,227.99 699.01,227.99 699.01,227.99 700.24,227.99 700.24,222.88 701.47,222.88 701.47,217.26 702.69,217.26 702.69,217.26 703.92,217.26 703.92,217.26 705.15,217.26 705.15,217.26 706.37,217.26 706.37,211.13 707.60,211.13 707.60,211.13 708.83,211.13 708.83,211.13 710.05,211.13 710.05,204.49 711.28,204.49 711.28,204.49 712.51,204.49 712.51,204.49 713.73,204.49 713.73,204.49 714.96,204.49 714.96,204.49 716.19,204.49 716.19,200.40 717.41,200.40 717.41,199.89 718.64,199.89 718.64,199.38 719.87,199.38 719.87,199.38 721.09,199.38 721.09,199.38 722.32,199.38 722.32,191.21 723.55,191.21 723.55,191.21 724.77,191.21 724.77,184.05 726.00,184.05 726.00,184.05 727.23,184.05 727.23,184.05 728.45,184.05 728.45,155.96 729.68,155.96 729.68,155.96 730.91,155.96 730.91,142.68 732.13,142.68 732.13,142.68 733.36,142.68 733.36,142.68 734.59,142.68 734.59,142.68 735.81,142.68 735.81,142.68 737.04,142.68 737.04,136.55 738.27,136.55 738.27,136.55 739.49,136.55 739.49,136.55 740.72,136.55 740.72,128.88 741.95,128.88 741.95,128.88 743.17,128.88 743.17,125.82 744.40,125.82 744.40,125.82 745.63,125.82 745.63,125.82 746.85,125.82 746.85,125.82 748.08,125.82 748.08,125.31 749.31,125.31 749.31,125.31 750.53,125.31 750.53,124.80 751.76,124.80 751.76,124.80 752.99,124.80 752.99,124.80 754.21,124.80 754.21,119.18 755.44,119.18 755.44,118.67 756.67,118.67 756.67,104.36 757.89,104.36 757.89,104.36 759.12,104.36 759.12,104.36 760.35,104.36 760.35,104.36 761.57,104.36 761.57,104.36 762.80,104.36 762.80,104.36 764.03,104.36 764.03,104.36 765.25,104.36 765.25,104.36 766.48,104.36 766.48,104.36 767.71,104.36 767.71,104.36 768.93,104.36 768.93,104.36 770.16,104.36 770.16,104.36 771.39,104.36 771.39,104.36 772.61,104.36 772.61,104.36 773.84,104.36 773.84,104.36 775.07,104.36 775.07,104.36 776.29,104.36 776.29,104.36 777.52,104.36 777.52,97.21 778.75,97.21 778.75,97.21 779.97,97.21 779.97,97.21 781.20,97.21 781.20,93.64 782.43,93.64 782.43,93.64 783.65,93.64 783.65,93.13 784.88,93.13 784.88,85.46 786.11,85.46 786.11,85.46 787.33,85.46 787.33,85.46 788.56,85.46 788.56,85.46 789.79,85.46 789.79,85.46 791.01,85.46 791.01,64.52 792.24,64.52 792.24,64.52 793.47,64.52 793.47,54.81 794.69,54.81 794.69,54.81 795.92,54.81 795.92,54.81 797.15,54.81 797.15,49.19 798.37,49.19 798.37,49.19 799.60,49.19 799.60,49.19 800.83,49.19 800.83,49.19 802.05,49.19 802.05,48.17 803.28,48.17 803.28,47.66 804.51,47.66 804.51,41.02 805.73,41.02 805.73,40.51 806.96,40.51 806.96,40.51 808.19,40.51 808.19,40.51 809.41,40.51 809.41,40.51 810.64,40.51 810.64,40.51 811.87,40.51 811.87,40.51 813.09,40.51 813.09,40.51 814.32,40.51 814.32,40.51 815.55,40.51 815.55,40.51 816.77,40.51 816.77,40.51 818.00,40.51 818.00,40.00" fill="none" stroke="#4b8f29" stroke-width="3"/>
<text x="450.0" y="552" text-anchor="middle" font-size="20" font-family="Arial, sans-serif" fill="#111827">Top displacement (mm)</text>
<text x="24" y="280.0" text-anchor="middle" transform="rotate(-90 24 280.0)" font-size="20" font-family="Arial, sans-serif" fill="#111827">Force magnitude (N)</text>
<text x="880" y="280.0" text-anchor="middle" transform="rotate(90 880 280.0)" font-size="20" font-family="Arial, sans-serif" fill="#111827">Broken bonds</text>
<text x="102" y="64" font-size="18" font-family="Arial, sans-serif" fill="#1b6ca8">Top plate</text>
<text x="212" y="64" font-size="18" font-family="Arial, sans-serif" fill="#d1495b">Bottom plate</text>
<text x="352" y="64" font-size="18" font-family="Arial, sans-serif" fill="#4b8f29">Broken bonds</text>
<text x="72" y="45" text-anchor="end" font-size="17" fill="#30363d">15.35</text>
<text x="72" y="488" text-anchor="end" font-size="17" fill="#30363d">0</text>
<text x="828" y="45" text-anchor="start" font-size="17" fill="#30363d">877</text>
<text x="828" y="488" text-anchor="start" font-size="17" fill="#30363d">0</text>
</svg>
