<svg xmlns="http://www.w3.org/2000/svg" width="900" height="560" viewBox="0 0 900 560">
<rect width="100%" height="100%" fill="white"/>
<text x="450.0" y="26" text-anchor="middle" font-size="22" font-family="Arial, sans-serif" fill="#111827">SP-002 force-displacement and bond breakage</text>
<line x1="82" y1="40.00" x2="818" y2="40.00" stroke="#d9dee2" stroke-width="1"/><line x1="82" y1="129.60" x2="818" y2="129.60" stroke="#d9dee2" stroke-width="1"/><line x1="82" y1="219.20" x2="818" y2="219.20" stroke="#d9dee2" stroke-width="1"/><line x1="82" y1="308.80" x2="818" y2="308.80" stroke="#d9dee2" stroke-width="1"/><line x1="82" y1="398.40" x2="818" y2="398.40" stroke="#d9dee2" stroke-width="1"/><line x1="82" y1="488.00" x2="818" y2="488.00" stroke="#d9dee2" stroke-width="1"/><line x1="82.00" y1="40" x2="82.00" y2="488" stroke="#edf0f2" stroke-width="1"/><text x="82.00" y="526" text-anchor="middle" font-size="18" fill="#30363d">0.000</text><line x1="229.20" y1="40" x2="229.20" y2="488" stroke="#edf0f2" stroke-width="1"/><text x="229.20" y="526" text-anchor="middle" font-size="18" fill="#30363d">0.060</text><line x1="376.40" y1="40" x2="376.40" y2="488" stroke="#edf0f2" stroke-width="1"/><text x="376.40" y="526" text-anchor="middle" font-size="18" fill="#30363d">0.120</text><line x1="523.60" y1="40" x2="523.60" y2="488" stroke="#edf0f2" stroke-width="1"/><text x="523.60" y="526" text-anchor="middle" font-size="18" fill="#30363d">0.180</text><line x1="670.80" y1="40" x2="670.80" y2="488" stroke="#edf0f2" stroke-width="1"/><text x="670.80" y="526" text-anchor="middle" font-size="18" fill="#30363d">0.240</text><line x1="818.00" y1="40" x2="818.00" y2="488" stroke="#edf0f2" stroke-width="1"/><text x="818.00" y="526" text-anchor="middle" font-size="18" fill="#30363d">0.300</text>
<line x1="82" y1="40" x2="82" y2="488" stroke="#111827" stroke-width="1.5"/>
<line x1="82" y1="488" x2="818" y2="488" stroke="#111827" stroke-width="1.5"/>
<line x1="818" y1="40" x2="818" y2="488" stroke="#111827" stroke-width="1.5"/>
<polyline points="82.00,488.00 83.23,488.00 84.45,488.00 85.68,488.00 86.91,488.00 88.13,488.00 89.36,488.00 90.59,488.00 91.81,488.00 93.04,488.00 94.27,488.00 95.49,488.00 96.72,488.00 97.95,488.00 99.17,488.00 100.40,488.00 101.63,488.00 102.85,488.00 104.08,488.00 105.31,488.00 106.53,488.00 107.76,488.00 108.99,488.00 110.21,488.00 111.44,488.00 112.67,488.00 113.89,488.00 115.12,488.00 116.35,488.00 117.57,488.00 118.80,488.00 120.03,488.00 121.25,488.00 122.48,488.00 123.71,488.00 124.93,488.00 126.16,488.00 127.39,488.00 128.61,488.00 129.84,488.00 131.07,488.00 132.29,488.00 133.52,488.00 134.75,488.00 135.97,488.00 137.20,488.00 138.43,488.00 139.65,488.00 140.88,488.00 142.11,488.00 143.33,488.00 144.56,488.00 145.79,488.00 147.01,488.00 148.24,488.00 149.47,488.00 150.69,488.00 151.92,488.00 153.15,488.00 154.37,488.00 155.60,488.00 156.83,488.00 158.05,488.00 159.28,488.00 160.51,488.00 161.73,488.00 162.96,488.00 164.19,488.00 165.41,488.00 166.64,488.00 167.87,488.00 169.09,488.00 170.32,488.00 171.55,488.00 172.77,488.00 174.00,488.00 175.23,488.00 176.45,488.00 177.68,488.00 178.91,488.00 180.13,488.00 181.36,488.00 182.59,488.00 183.81,488.00 185.04,488.00 186.27,488.00 187.49,488.00 188.72,488.00 189.95,488.00 191.17,488.00 192.40,488.00 193.63,488.00 194.85,488.00 196.08,488.00 197.31,488.00 198.53,488.00 199.76,488.00 200.99,488.00 202.21,488.00 203.44,488.00 204.67,488.00 205.89,488.00 207.12,488.00 208.35,488.00 209.57,488.00 210.80,488.00 212.03,488.00 213.25,488.00 214.48,488.00 215.71,488.00 216.93,488.00 218.16,488.00 219.39,488.00 220.61,488.00 221.84,488.00 223.07,488.00 224.29,488.00 225.52,488.00 226.75,488.00 227.97,488.00 229.20,488.00 230.43,488.00 231.65,488.00 232.88,488.00 234.11,488.00 235.33,488.00 236.56,488.00 237.79,488.00 239.01,488.00 240.24,488.00 241.47,488.00 242.69,488.00 243.92,488.00 245.15,488.00 246.37,488.00 247.60,488.00 248.83,488.00 250.05,488.00 251.28,488.00 252.51,488.00 253.73,488.00 254.96,488.00 256.19,488.00 257.41,488.00 258.64,488.00 259.87,488.00 261.09,488.00 262.32,488.00 263.55,488.00 264.77,488.00 266.00,488.00 267.23,488.00 268.45,488.00 269.68,488.00 270.91,488.00 272.13,488.00 273.36,488.00 274.59,488.00 275.81,488.00 277.04,488.00 278.27,488.00 279.49,488.00 280.72,488.00 281.95,488.00 283.17,488.00 284.40,488.00 285.63,488.00 286.85,488.00 288.08,488.00 289.31,488.00 290.53,488.00 291.76,488.00 292.99,488.00 294.21,488.00 295.44,488.00 296.67,488.00 297.89,488.00 299.12,488.00 300.35,488.00 301.57,488.00 302.80,488.00 304.03,488.00 305.25,488.00 306.48,488.00 307.71,488.00 308.93,488.00 310.16,488.00 311.39,488.00 312.61,488.00 313.84,488.00 315.07,488.00 316.29,488.00 317.52,488.00 318.75,488.00 319.97,488.00 321.20,488.00 322.43,488.00 323.65,488.00 324.88,488.00 326.11,488.00 327.33,487.99 328.56,484.10 329.79,477.98 331.01,470.76 332.24,462.80 333.47,454.26 334.69,445.25 335.92,435.85 337.15,429.34 338.37,487.94 339.60,487.94 340.83,487.94 342.05,487.94 343.28,487.94 344.51,484.96 345.73,479.33 346.96,472.68 348.19,465.39 349.41,457.13 350.64,444.50 351.87,429.80 353.09,465.62 354.32,456.08 355.55,446.66 356.77,436.68 358.00,426.20 359.23,415.77 360.45,431.72 361.68,444.78 362.91,444.52 364.13,439.60 365.36,432.50 366.59,424.52 367.81,421.08 369.04,441.88 370.27,442.58 371.49,435.59 372.72,426.36 373.95,416.29 375.17,407.18 376.40,414.85 377.63,415.61 378.85,422.40 380.08,432.59 381.31,434.16 382.53,432.25 383.76,428.72 384.99,424.36 386.21,419.56 387.44,425.46 388.67,438.32 389.89,446.09 391.12,450.86 392.35,453.83 393.57,455.73 394.80,456.98 396.03,457.81 397.25,458.36 398.48,458.74 399.71,458.96 400.93,459.04 402.16,459.08 403.39,459.12 404.61,459.13 405.84,459.09 407.07,459.01 408.29,458.92 409.52,458.83 410.75,458.76 411.97,458.68 413.20,458.48 414.43,457.43 415.65,455.46 416.88,452.75 418.11,449.54 419.33,445.99 420.56,442.23 421.79,438.32 423.01,434.34 424.24,430.32 425.47,426.29 426.69,422.26 427.92,418.24 429.15,414.26 430.37,410.32 431.60,406.43 432.83,402.58 434.05,398.80 435.28,395.08 436.51,391.43 437.73,387.54 438.96,463.26 440.19,460.40 441.41,457.68 442.64,454.89 443.87,452.06 445.09,447.70 446.32,441.81 447.55,435.85 448.77,427.96 450.00,419.43 451.23,410.39 452.45,400.79 453.68,390.55 454.91,379.81 456.13,413.98 457.36,391.33 458.59,376.96 459.81,407.66 461.04,392.07 462.27,379.71 463.49,367.28 464.72,354.57 465.95,343.43 467.17,382.44 468.40,452.36 469.63,449.70 470.85,444.82 472.08,438.75 473.31,432.76 474.53,426.96 475.76,421.30 476.99,415.73 478.21,410.22 479.44,404.61 480.67,399.11 481.89,393.67 483.12,388.37 484.35,383.25 485.57,378.33 486.80,373.67 488.03,368.88 489.25,364.04 490.48,358.29 491.71,351.91 492.93,344.24 494.16,336.13 495.39,327.77 496.61,319.25 497.84,309.06 499.07,296.17 500.29,282.57 501.52,268.63 502.75,254.53 503.97,249.36 505.20,262.16 506.43,254.31 507.65,245.69 508.88,238.49 510.11,231.36 511.33,265.59 512.56,306.06 513.79,334.60 515.01,345.57 516.24,350.24 517.47,350.44 518.69,344.85 519.92,336.05 521.15,325.16 522.37,369.67 523.60,378.08 524.83,379.72 526.05,379.11 527.28,377.29 528.51,374.95 529.73,372.34 530.96,368.98 532.19,364.73 533.41,360.12 534.64,358.01 535.87,348.35 537.09,338.83 538.32,390.58 539.55,397.05 540.77,397.82 542.00,394.23 543.23,388.18 544.45,380.70 545.68,371.22 546.91,359.84 548.13,347.41 549.36,339.07 550.59,356.26 551.81,365.70 553.04,377.21 554.27,379.23 555.49,377.43 556.72,372.99 557.95,365.39 559.17,351.60 560.40,334.66 561.63,316.16 562.85,296.54 564.08,276.25 565.31,255.38 566.53,233.88 567.76,214.03 568.99,284.74 570.21,295.34 571.44,285.61 572.67,273.21 573.89,297.34 575.12,274.08 576.35,296.20 577.57,293.80 578.80,283.05 580.03,269.05 581.25,289.65 582.48,333.44 583.71,339.27 584.93,334.94 586.16,328.55 587.39,322.38 588.61,316.75 589.84,309.37 591.07,300.28 592.29,290.14 593.52,279.17 594.75,267.95 595.97,257.80 597.20,259.01 598.43,257.87 599.65,254.82 600.88,248.97 602.11,240.41 603.33,229.14 604.56,215.38 605.79,200.10 607.01,270.24 608.24,232.04 609.47,215.80 610.69,200.59 611.92,184.51 613.15,192.03 614.37,184.55 615.60,169.30 616.83,155.02 618.05,138.20 619.28,153.61 620.51,169.46 621.73,156.38 622.96,140.94 624.19,170.38 625.41,265.35 626.64,270.21 627.87,274.92 629.09,322.49 630.32,318.63 631.55,329.63 632.77,344.48 634.00,344.50 635.23,393.01 636.45,397.68 637.68,407.80 638.91,415.55 640.13,419.51 641.36,422.53 642.59,428.64 643.81,437.39 645.04,439.44 646.27,437.90 647.49,435.33 648.72,431.65 649.95,424.88 651.17,418.60 652.40,412.66 653.63,405.08 654.85,397.21 656.08,387.52 657.31,374.40 658.53,361.53 659.76,350.98 660.99,338.02 662.21,326.53 663.44,360.84 664.67,368.48 665.89,367.62 667.12,367.14 668.35,363.64 669.57,360.10 670.80,356.30 672.03,352.33 673.25,348.45 674.48,344.78 675.71,341.28 676.93,338.13 678.16,335.42 679.39,333.53 680.61,330.52 681.84,328.74 683.07,327.11 684.29,325.66 685.52,396.56 686.75,387.47 687.97,377.30 689.20,370.36 690.43,366.14 691.65,362.40 692.88,358.85 694.11,355.01 695.33,351.05 696.56,346.91 697.79,342.59 699.01,338.02 700.24,332.38 701.47,325.51 702.69,317.23 703.92,307.86 705.15,297.54 706.37,286.36 707.60,274.49 708.83,261.77 710.05,248.30 711.28,234.30 712.51,219.71 713.73,204.63 714.96,189.06 716.19,213.73 717.41,237.99 718.64,224.51 719.87,205.95 721.09,185.54 722.32,163.92 723.55,199.99 724.77,191.16 726.00,181.43 727.23,166.01 728.45,143.37 729.68,118.27 730.91,92.04 732.13,118.99 733.36,133.73 734.59,173.29 735.81,181.80 737.04,283.85 738.27,294.00 739.49,313.16 740.72,317.61 741.95,317.21 743.17,314.18 744.40,309.11 745.63,302.60 746.85,294.44 748.08,285.84 749.31,276.40 750.53,318.99 751.76,306.09 752.99,295.93 754.21,358.36 755.44,343.36 756.67,332.59 757.89,321.29 759.12,309.01 760.35,295.76 761.57,281.79 762.80,267.39 764.03,252.48 765.25,244.33 766.48,275.96 767.71,253.20 768.93,240.60 770.16,227.98 771.39,214.54 772.61,201.87 773.84,186.57 775.07,171.19 776.29,155.04 777.52,186.80 778.75,173.98 779.97,150.68 781.20,125.30 782.43,99.21 783.65,202.64 784.88,171.49 786.11,152.69 787.33,134.15 788.56,144.42 789.79,116.77 791.01,182.69 792.24,157.28 793.47,132.82 794.69,106.46 795.92,78.66 797.15,50.83 798.37,40.00 799.60,89.20 800.83,102.39 802.05,85.52 803.28,68.96 804.51,98.41 805.73,100.83 806.96,87.24 808.19,74.45 809.41,61.32 810.64,67.63 811.87,57.29 813.09,49.62 814.32,87.51 815.55,86.71 816.77,87.14 818.00,91.98" fill="none" stroke="#1b6ca8" stroke-width="3"/>
<polyline points="82.00,488.00 83.23,488.00 84.45,488.00 85.68,488.00 86.91,488.00 88.13,488.00 89.36,488.00 90.59,488.00 91.81,488.00 93.04,488.00 94.27,488.00 95.49,488.00 96.72,488.00 97.95,488.00 99.17,488.00 100.40,488.00 101.63,488.00 102.85,488.00 104.08,488.00 105.31,488.00 106.53,488.00 107.76,488.00 108.99,488.00 110.21,488.00 111.44,488.00 112.67,488.00 113.89,488.00 115.12,488.00 116.35,488.00 117.57,488.00 118.80,488.00 120.03,488.00 121.25,488.00 122.48,488.00 123.71,488.00 124.93,488.00 126.16,488.00 127.39,488.00 128.61,488.00 129.84,488.00 131.07,488.00 132.29,488.00 133.52,488.00 134.75,488.00 135.97,488.00 137.20,488.00 138.43,488.00 139.65,488.00 140.88,488.00 142.11,488.00 143.33,488.00 144.56,488.00 145.79,488.00 147.01,488.00 148.24,488.00 149.47,488.00 150.69,488.00 151.92,488.00 153.15,488.00 154.37,488.00 155.60,488.00 156.83,488.00 158.05,488.00 159.28,488.00 160.51,488.00 161.73,488.00 162.96,488.00 164.19,488.00 165.41,488.00 166.64,488.00 167.87,488.00 169.09,488.00 170.32,488.00 171.55,488.00 172.77,488.00 174.00,488.00 175.23,488.00 176.45,488.00 177.68,488.00 178.91,488.00 180.13,488.00 181.36,488.00 182.59,488.00 183.81,488.00 185.04,488.00 186.27,488.00 187.49,488.00 188.72,488.00 189.95,488.00 191.17,488.00 192.40,488.00 193.63,488.00 194.85,488.00 196.08,488.00 197.31,488.00 198.53,488.00 199.76,488.00 200.99,488.00 202.21,488.00 203.44,488.00 204.67,488.00 205.89,488.00 207.12,488.00 208.35,488.00 209.57,488.00 210.80,488.00 212.03,488.00 213.25,488.00 214.48,488.00 215.71,488.00 216.93,488.00 218.16,488.00 219.39,488.00 220.61,488.00 221.84,488.00 223.07,488.00 224.29,488.00 225.52,488.00 226.75,488.00 227.97,488.00 229.20,488.00 230.43,488.00 231.65,488.00 232.88,488.00 234.11,488.00 235.33,488.00 236.56,488.00 237.79,488.00 239.01,488.00 240.24,488.00 241.47,488.00 242.69,488.00 243.92,488.00 245.15,488.00 246.37,488.00 247.60,488.00 248.83,488.00 250.05,488.00 251.28,488.00 252.51,488.00 253.73,488.00 254.96,488.00 256.19,488.00 257.41,488.00 258.64,488.00 259.87,488.00 261.09,488.00 262.32,488.00 263.55,488.00 264.77,488.00 266.00,488.00 267.23,488.00 268.45,488.00 269.68,488.00 270.91,488.00 272.13,488.00 273.36,488.00 274.59,488.00 275.81,488.00 277.04,488.00 278.27,488.00 279.49,488.00 280.72,488.00 281.95,488.00 283.17,488.00 284.40,488.00 285.63,488.00 286.85,488.00 288.08,488.00 289.31,488.00 290.53,488.00 291.76,488.00 292.99,488.00 294.21,488.00 295.44,488.00 296.67,488.00 297.89,488.00 299.12,488.00 300.35,488.00 301.57,488.00 302.80,488.00 304.03,488.00 305.25,488.00 306.48,488.00 307.71,488.00 308.93,488.00 310.16,488.00 311.39,488.00 312.61,488.00 313.84,488.00 315.07,488.00 316.29,488.00 317.52,488.00 318.75,488.00 319.97,488.00 321.20,488.00 322.43,488.00 323.65,488.00 324.88,488.00 326.11,488.00 327.33,488.00 328.56,485.77 329.79,480.41 331.01,473.61 332.24,465.92 333.47,457.59 334.69,448.76 335.92,439.51 337.15,431.84 338.37,477.67 339.60,487.28 340.83,487.95 342.05,488.00 343.28,488.00 344.51,486.46 345.73,481.64 346.96,475.36 348.19,468.30 349.41,460.63 350.64,449.61 351.87,435.71 353.09,459.67 354.32,459.07 355.55,450.37 356.77,440.66 358.00,430.38 359.23,420.12 360.45,476.25 361.68,465.46 362.91,457.00 364.13,450.07 365.36,442.63 366.59,434.69 367.81,481.15 369.04,476.47 370.27,459.47 371.49,447.07 372.72,436.56 373.95,426.29 375.17,438.50 376.40,455.49 377.63,442.65 378.85,477.03 380.08,469.08 381.31,462.33 382.53,456.41 383.76,450.95 384.99,445.69 386.21,440.49 387.44,488.00 388.67,488.00 389.89,488.00 391.12,488.00 392.35,488.00 393.57,488.00 394.80,488.00 396.03,488.00 397.25,488.00 398.48,488.00 399.71,488.00 400.93,488.00 402.16,488.00 403.39,488.00 404.61,488.00 405.84,488.00 407.07,488.00 408.29,488.00 409.52,488.00 410.75,488.00 411.97,488.00 413.20,486.81 414.43,483.53 415.65,479.73 416.88,475.81 418.11,471.87 419.33,467.95 420.56,464.04 421.79,460.14 423.01,456.25 424.24,452.38 425.47,448.53 426.69,444.71 427.92,440.92 429.15,437.18 430.37,433.49 431.60,429.85 432.83,426.27 434.05,422.75 435.28,419.30 436.51,415.98 437.73,409.98 438.96,402.41 440.19,427.71 441.41,438.70 442.64,443.40 443.87,444.94 445.09,444.70 446.32,443.13 447.55,440.67 448.77,436.57 450.00,430.58 451.23,423.35 452.45,415.14 453.68,406.06 454.91,396.20 456.13,410.34 457.36,409.31 458.59,396.74 459.81,418.65 461.04,411.26 462.27,399.70 463.49,387.53 464.72,375.02 465.95,361.30 467.17,345.31 468.40,421.29 469.63,442.66 470.85,445.08 472.08,443.56 473.31,440.23 474.53,435.89 475.76,430.95 476.99,425.67 478.21,420.26 479.44,414.41 480.67,408.62 481.89,403.03 483.12,397.65 484.35,392.48 485.57,387.53 486.80,382.85 488.03,378.23 489.25,373.61 490.48,368.31 491.71,362.27 492.93,354.96 494.16,346.76 495.39,338.15 496.61,329.33 497.84,320.00 499.07,307.89 500.29,294.18 501.52,279.84 502.75,265.24 503.97,317.97 505.20,277.29 506.43,265.04 507.65,255.68 508.88,248.57 510.11,240.55 511.33,287.21 512.56,400.20 513.79,385.24 515.01,379.60 516.24,377.91 517.47,376.48 518.69,366.65 519.92,353.90 521.15,341.00 522.37,406.84 523.60,405.93 524.83,404.09 526.05,401.70 527.28,399.04 528.51,396.24 529.73,393.25 530.96,388.63 532.19,383.48 533.41,378.06 534.64,372.98 535.87,367.12 537.09,358.36 538.32,426.59 539.55,427.69 540.77,424.02 542.00,416.69 543.23,408.35 544.45,399.50 545.68,388.65 546.91,376.88 548.13,364.33 549.36,351.86 550.59,359.71 551.81,387.39 553.04,384.85 554.27,384.16 555.49,382.80 556.72,379.51 557.95,373.60 559.17,363.61 560.40,348.73 561.63,331.26 562.85,312.39 564.08,292.77 565.31,272.29 566.53,251.01 567.76,231.79 568.99,339.71 570.21,320.70 571.44,307.32 572.67,293.81 573.89,294.20 575.12,290.31 576.35,331.21 577.57,317.14 578.80,303.40 580.03,288.13 581.25,314.05 582.48,372.90 583.71,362.33 584.93,354.50 586.16,347.87 587.39,342.29 588.61,336.65 589.84,328.40 591.07,319.43 592.29,309.52 593.52,298.75 594.75,287.79 595.97,282.75 597.20,284.74 598.43,280.65 599.65,277.45 600.88,270.29 602.11,261.72 603.33,249.50 604.56,235.30 605.79,219.16 607.01,222.21 608.24,243.90 609.47,232.25 610.69,216.77 611.92,200.14 613.15,215.65 614.37,195.95 615.60,182.06 616.83,168.16 618.05,151.56 619.28,226.80 620.51,189.56 621.73,172.80 622.96,157.44 624.19,174.22 625.41,236.02 626.64,277.83 627.87,286.62 629.09,305.47 630.32,324.55 631.55,330.24 632.77,334.93 634.00,337.37 635.23,346.01 636.45,377.34 637.68,394.17 638.91,406.49 640.13,414.87 641.36,420.30 642.59,438.05 643.81,445.10 645.04,442.88 646.27,440.12 647.49,437.54 648.72,434.70 649.95,430.24 651.17,424.52 652.40,418.51 653.63,411.79 654.85,404.29 656.08,396.05 657.31,386.99 658.53,377.08 659.76,367.56 660.99,356.24 662.21,344.24 663.44,398.30 664.67,391.90 665.89,389.14 667.12,389.68 668.35,386.87 669.57,382.59 670.80,378.24 672.03,373.95 673.25,369.78 674.48,365.78 675.71,362.06 676.93,358.68 678.16,355.73 679.39,353.34 680.61,351.11 681.84,349.26 683.07,347.83 684.29,346.31 685.52,358.98 686.75,383.36 687.97,390.93 689.20,391.35 690.43,388.81 691.65,385.69 692.88,382.31 694.11,378.63 695.33,374.72 696.56,370.59 697.79,366.30 699.01,361.16 700.24,354.51 701.47,346.63 702.69,337.65 703.92,327.78 705.15,317.08 706.37,305.66 707.60,293.73 708.83,281.53 710.05,268.44 711.28,254.46 712.51,239.87 713.73,224.77 714.96,209.19 716.19,282.42 717.41,260.32 718.64,242.41 719.87,222.60 721.09,201.70 722.32,179.84 723.55,193.84 724.77,194.13 726.00,184.92 727.23,177.46 728.45,159.01 729.68,134.05 730.91,107.77 732.13,117.37 733.36,136.59 734.59,143.19 735.81,168.48 737.04,276.52 738.27,299.05 739.49,317.25 740.72,327.87 741.95,329.86 743.17,327.47 744.40,321.89 745.63,315.77 746.85,307.67 748.08,299.22 749.31,289.79 750.53,319.87 751.76,317.77 752.99,308.58 754.21,350.84 755.44,353.15 756.67,345.02 757.89,334.22 759.12,322.11 760.35,309.02 761.57,294.95 762.80,280.36 764.03,265.30 765.25,261.40 766.48,261.17 767.71,264.31 768.93,252.72 770.16,240.07 771.39,226.76 772.61,213.44 773.84,198.97 775.07,183.60 776.29,167.72 777.52,211.29 778.75,191.62 779.97,168.00 781.20,142.40 782.43,115.90 783.65,172.98 784.88,181.24 786.11,163.74 787.33,143.17 788.56,142.76 789.79,127.42 791.01,188.07 792.24,172.00 793.47,148.26 794.69,122.11 795.92,94.25 797.15,67.35 798.37,77.15 799.60,94.77 800.83,108.36 802.05,99.70 803.28,83.69 804.51,153.00 805.73,125.64 806.96,106.42 808.19,91.21 809.41,79.48 810.64,86.22 811.87,75.84 813.09,67.89 814.32,106.97 815.55,104.60 816.77,104.83 818.00,107.78" fill="none" stroke="#d1495b" stroke-width="3"/>
<polyline points="82.00,488.00 83.23,488.00 83.23,488.00 84.45,488.00 84.45,488.00 85.68,488.00 85.68,488.00 86.91,488.00 86.91,488.00 88.13,488.00 88.13,488.00 89.36,488.00 89.36,488.00 90.59,488.00 90.59,488.00 91.81,488.00 91.81,488.00 93.04,488.00 93.04,488.00 94.27,488.00 94.27,488.00 95.49,488.00 95.49,488.00 96.72,488.00 96.72,488.00 97.95,488.00 97.95,488.00 99.17,488.00 99.17,488.00 100.40,488.00 100.40,488.00 101.63,488.00 101.63,488.00 102.85,488.00 102.85,488.00 104.08,488.00 104.08,488.00 105.31,488.00 105.31,488.00 106.53,488.00 106.53,488.00 107.76,488.00 107.76,488.00 108.99,488.00 108.99,488.00 110.21,488.00 110.21,488.00 111.44,488.00 111.44,488.00 112.67,488.00 112.67,488.00 113.89,488.00 113.89,488.00 115.12,488.00 115.12,488.00 116.35,488.00 116.35,488.00 117.57,488.00 117.57,488.00 118.80,488.00 118.80,488.00 120.03,488.00 120.03,488.00 121.25,488.00 121.25,488.00 122.48,488.00 122.48,488.00 123.71,488.00 123.71,488.00 124.93,488.00 124.93,488.00 126.16,488.00 126.16,488.00 127.39,488.00 127.39,488.00 128.61,488.00 128.61,488.00 129.84,488.00 129.84,488.00 131.07,488.00 131.07,488.00 132.29,488.00 132.29,488.00 133.52,488.00 133.52,488.00 134.75,488.00 134.75,488.00 135.97,488.00 135.97,488.00 137.20,488.00 137.20,488.00 138.43,488.00 138.43,488.00 139.65,488.00 139.65,488.00 140.88,488.00 140.88,488.00 142.11,488.00 142.11,488.00 143.33,488.00 143.33,488.00 144.56,488.00 144.56,488.00 145.79,488.00 145.79,488.00 147.01,488.00 147.01,488.00 148.24,488.00 148.24,488.00 149.47,488.00 149.47,488.00 150.69,488.00 150.69,488.00 151.92,488.00 151.92,488.00 153.15,488.00 153.15,488.00 154.37,488.00 154.37,488.00 155.60,488.00 155.60,488.00 156.83,488.00 156.83,488.00 158.05,488.00 158.05,488.00 159.28,488.00 159.28,488.00 160.51,488.00 160.51,488.00 161.73,488.00 161.73,488.00 162.96,488.00 162.96,488.00 164.19,488.00 164.19,488.00 165.41,488.00 165.41,488.00 166.64,488.00 166.64,488.00 167.87,488.00 167.87,488.00 169.09,488.00 169.09,488.00 170.32,488.00 170.32,488.00 171.55,488.00 171.55,488.00 172.77,488.00 172.77,488.00 174.00,488.00 174.00,488.00 175.23,488.00 175.23,488.00 176.45,488.00 176.45,488.00 177.68,488.00 177.68,488.00 178.91,488.00 178.91,488.00 180.13,488.00 180.13,488.00 181.36,488.00 181.36,488.00 182.59,488.00 182.59,488.00 183.81,488.00 183.81,488.00 185.04,488.00 185.04,488.00 186.27,488.00 186.27,488.00 187.49,488.00 187.49,488.00 188.72,488.00 188.72,488.00 189.95,488.00 189.95,488.00 191.17,488.00 191.17,488.00 192.40,488.00 192.40,488.00 193.63,488.00 193.63,488.00 194.85,488.00 194.85,488.00 196.08,488.00 196.08,488.00 197.31,488.00 197.31,488.00 198.53,488.00 198.53,488.00 199.76,488.00 199.76,488.00 200.99,488.00 200.99,488.00 202.21,488.00 202.21,488.00 203.44,488.00 203.44,488.00 204.67,488.00 204.67,488.00 205.89,488.00 205.89,488.00 207.12,488.00 207.12,488.00 208.35,488.00 208.35,488.00 209.57,488.00 209.57,488.00 210.80,488.00 210.80,488.00 212.03,488.00 212.03,488.00 213.25,488.00 213.25,488.00 214.48,488.00 214.48,488.00 215.71,488.00 215.71,488.00 216.93,488.00 216.93,488.00 218.16,488.00 218.16,488.00 219.39,488.00 219.39,488.00 220.61,488.00 220.61,488.00 221.84,488.00 221.84,488.00 223.07,488.00 223.07,488.00 224.29,488.00 224.29,488.00 225.52,488.00 225.52,488.00 226.75,488.00 226.75,488.00 227.97,488.00 227.97,488.00 229.20,488.00 229.20,488.00 230.43,488.00 230.43,488.00 231.65,488.00 231.65,488.00 232.88,488.00 232.88,488.00 234.11,488.00 234.11,488.00 235.33,488.00 235.33,488.00 236.56,488.00 236.56,488.00 237.79,488.00 237.79,488.00 239.01,488.00 239.01,488.00 240.24,488.00 240.24,488.00 241.47,488.00 241.47,488.00 242.69,488.00 242.69,488.00 243.92,488.00 243.92,488.00 245.15,488.00 245.15,488.00 246.37,488.00 246.37,488.00 247.60,488.00 247.60,488.00 248.83,488.00 248.83,488.00 250.05,488.00 250.05,488.00 251.28,488.00 251.28,488.00 252.51,488.00 252.51,488.00 253.73,488.00 253.73,488.00 254.96,488.00 254.96,488.00 256.19,488.00 256.19,488.00 257.41,488.00 257.41,488.00 258.64,488.00 258.64,488.00 259.87,488.00 259.87,488.00 261.09,488.00 261.09,488.00 262.32,488.00 262.32,488.00 263.55,488.00 263.55,488.00 264.77,488.00 264.77,488.00 266.00,488.00 266.00,488.00 267.23,488.00 267.23,488.00 268.45,488.00 268.45,488.00 269.68,488.00 269.68,488.00 270.91,488.00 270.91,488.00 272.13,488.00 272.13,488.00 273.36,488.00 273.36,488.00 274.59,488.00 274.59,488.00 275.81,488.00 275.81,488.00 277.04,488.00 277.04,488.00 278.27,488.00 278.27,488.00 279.49,488.00 279.49,488.00 280.72,488.00 280.72,488.00 281.95,488.00 281.95,488.00 283.17,488.00 283.17,488.00 284.40,488.00 284.40,488.00 285.63,488.00 285.63,488.00 286.85,488.00 286.85,488.00 288.08,488.00 288.08,488.00 289.31,488.00 289.31,488.00 290.53,488.00 290.53,488.00 291.76,488.00 291.76,488.00 292.99,488.00 292.99,488.00 294.21,488.00 294.21,488.00 295.44,488.00 295.44,488.00 296.67,488.00 296.67,488.00 297.89,488.00 297.89,488.00 299.12,488.00 299.12,488.00 300.35,488.00 300.35,488.00 301.57,488.00 301.57,488.00 302.80,488.00 302.80,488.00 304.03,488.00 304.03,488.00 305.25,488.00 305.25,488.00 306.48,488.00 306.48,488.00 307.71,488.00 307.71,488.00 308.93,488.00 308.93,488.00 310.16,488.00 310.16,488.00 311.39,488.00 311.39,488.00 312.61,488.00 312.61,488.00 313.84,488.00 313.84,488.00 315.07,488.00 315.07,488.00 316.29,488.00 316.29,488.00 317.52,488.00 317.52,488.00 318.75,488.00 318.75,488.00 319.97,488.00 319.97,488.00 321.20,488.00 321.20,488.00 322.43,488.00 322.43,488.00 323.65,488.00 323.65,488.00 324.88,488.00 324.88,488.00 326.11,488.00 326.11,488.00 327.33,488.00 327.33,488.00 328.56,488.00 328.56,488.00 329.79,488.00 329.79,488.00 331.01,488.00 331.01,488.00 332.24,488.00 332.24,488.00 333.47,488.00 333.47,488.00 334.69,488.00 334.69,488.00 335.92,488.00 335.92,488.00 337.15,488.00 337.15,486.92 338.37,486.92 338.37,481.49 339.60,481.49 339.60,481.49 340.83,481.49 340.83,481.49 342.05,481.49 342.05,481.49 343.28,481.49 343.28,481.49 344.51,481.49 344.51,481.49 345.73,481.49 345.73,481.49 346.96,481.49 346.96,481.49 348.19,481.49 348.19,481.49 349.41,481.49 349.41,481.49 350.64,481.49 350.64,481.49 351.87,481.49 351.87,481.49 353.09,481.49 353.09,474.44 354.32,474.44 354.32,474.44 355.55,474.44 355.55,474.44 356.77,474.44 356.77,474.44 358.00,474.44 358.00,474.44 359.23,474.44 359.23,473.36 360.45,473.36 360.45,464.68 361.68,464.68 361.68,464.68 362.91,464.68 362.91,464.68 364.13,464.68 364.13,464.68 365.36,464.68 365.36,464.68 366.59,464.68 366.59,464.68 367.81,464.68 367.81,458.71 369.04,458.71 369.04,458.71 370.27,458.71 370.27,458.71 371.49,458.71 371.49,458.71 372.72,458.71 372.72,458.71 373.95,458.71 373.95,458.71 375.17,458.71 375.17,458.71 376.40,458.71 376.40,458.71 377.63,458.71 377.63,458.71 378.85,458.71 378.85,453.83 380.08,453.83 380.08,453.83 381.31,453.83 381.31,453.83 382.53,453.83 382.53,453.83 383.76,453.83 383.76,453.83 384.99,453.83 384.99,453.83 386.21,453.83 386.21,453.83 387.44,453.83 387.44,447.32 388.67,447.32 388.67,447.32 389.89,447.32 389.89,447.32 391.12,447.32 391.12,447.32 392.35,447.32 392.35,447.32 393.57,447.32 393.57,447.32 394.80,447.32 394.80,447.32 396.03,447.32 396.03,447.32 397.25,447.32 397.25,447.32 398.48,447.32 398.48,447.32 399.71,447.32 399.71,447.32 400.93,447.32 400.93,447.32 402.16,447.32 402.16,447.32 403.39,447.32 403.39,447.32 404.61,447.32 404.61,447.32 405.84,447.32 405.84,447.32 407.07,447.32 407.07,447.32 408.29,447.32 408.29,447.32 409.52,447.32 409.52,447.32 410.75,447.32 410.75,447.32 411.97,447.32 411.97,447.32 413.20,447.32 413.20,447.32 414.43,447.32 414.43,447.32 415.65,447.32 415.65,447.32 416.88,447.32 416.88,447.32 418.11,447.32 418.11,447.32 419.33,447.32 419.33,447.32 420.56,447.32 420.56,447.32 421.79,447.32 421.79,447.32 423.01,447.32 423.01,447.32 424.24,447.32 424.24,447.32 425.47,447.32 425.47,447.32 426.69,447.32 426.69,447.32 427.92,447.32 427.92,447.32 429.15,447.32 429.15,447.32 430.37,447.32 430.37,447.32 431.60,447.32 431.60,447.32 432.83,447.32 432.83,447.32 434.05,447.32 434.05,447.32 435.28,447.32 435.28,447.32 436.51,447.32 436.51,447.32 437.73,447.32 437.73,447.32 438.96,447.32 438.96,439.19 440.19,439.19 440.19,439.19 441.41,439.19 441.41,439.19 442.64,439.19 442.64,439.19 443.87,439.19 443.87,439.19 445.09,439.19 445.09,439.19 446.32,439.19 446.32,439.19 447.55,439.19 447.55,439.19 448.77,439.19 448.77,439.19 450.00,439.19 450.00,439.19 451.23,439.19 451.23,439.19 452.45,439.19 452.45,439.19 453.68,439.19 453.68,439.19 454.91,439.19 454.91,439.19 456.13,439.19 456.13,429.42 457.36,429.42 457.36,429.42 458.59,429.42 458.59,429.42 459.81,429.42 459.81,422.37 461.04,422.37 461.04,422.37 462.27,422.37 462.27,422.37 463.49,422.37 463.49,422.37 464.72,422.37 464.72,422.37 465.95,422.37 465.95,421.83 467.17,421.83 467.17,416.41 468.40,416.41 468.40,408.27 469.63,408.27 469.63,408.27 470.85,408.27 470.85,408.27 472.08,408.27 472.08,408.27 473.31,408.27 473.31,408.27 474.53,408.27 474.53,408.27 475.76,408.27 475.76,408.27 476.99,408.27 476.99,408.27 478.21,408.27 478.21,408.27 479.44,408.27 479.44,408.27 480.67,408.27 480.67,408.27 481.89,408.27 481.89,408.27 483.12,408.27 483.12,408.27 484.35,408.27 484.35,408.27 485.57,408.27 485.57,408.27 486.80,408.27 486.80,408.27 488.03,408.27 488.03,408.27 489.25,408.27 489.25,408.27 490.48,408.27 490.48,408.27 491.71,408.27 491.71,408.27 492.93,408.27 492.93,408.27 494.16,408.27 494.16,408.27 495.39,408.27 495.39,408.27 496.61,408.27 496.61,408.27 497.84,408.27 497.84,408.27 499.07,408.27 499.07,408.27 500.29,408.27 500.29,408.27 501.52,408.27 501.52,408.27 502.75,408.27 502.75,408.27 503.97,408.27 503.97,400.68 505.20,400.68 505.20,400.68 506.43,400.68 506.43,400.68 507.65,400.68 507.65,400.68 508.88,400.68 508.88,400.14 510.11,400.14 510.11,400.14 511.33,400.14 511.33,393.08 512.56,393.08 512.56,383.32 513.79,383.32 513.79,383.32 515.01,383.32 515.01,383.32 516.24,383.32 516.24,383.32 517.47,383.32 517.47,383.32 518.69,383.32 518.69,383.32 519.92,383.32 519.92,383.32 521.15,383.32 521.15,383.32 522.37,383.32 522.37,375.19 523.60,375.19 523.60,375.19 524.83,375.19 524.83,375.19 526.05,375.19 526.05,375.19 527.28,375.19 527.28,375.19 528.51,375.19 528.51,375.19 529.73,375.19 529.73,375.19 530.96,375.19 530.96,375.19 532.19,375.19 532.19,375.19 533.41,375.19 533.41,375.19 534.64,375.19 534.64,374.64 535.87,374.64 535.87,374.64 537.09,374.64 537.09,374.64 538.32,374.64 538.32,364.34 539.55,364.34 539.55,364.34 540.77,364.34 540.77,364.34 542.00,364.34 542.00,364.34 543.23,364.34 543.23,364.34 544.45,364.34 544.45,364.34 545.68,364.34 545.68,364.34 546.91,364.34 546.91,364.34 548.13,364.34 548.13,364.34 549.36,364.34 549.36,363.25 550.59,363.25 550.59,358.92 551.81,358.92 551.81,355.12 553.04,355.12 553.04,355.12 554.27,355.12 554.27,355.12 555.49,355.12 555.49,355.12 556.72,355.12 556.72,355.12 557.95,355.12 557.95,355.12 559.17,355.12 559.17,355.12 560.40,355.12 560.40,355.12 561.63,355.12 561.63,355.12 562.85,355.12 562.85,355.12 564.08,355.12 564.08,355.12 565.31,355.12 565.31,355.12 566.53,355.12 566.53,355.12 567.76,355.12 567.76,354.03 568.99,354.03 568.99,341.02 570.21,341.02 570.21,341.02 571.44,341.02 571.44,341.02 572.67,341.02 572.67,341.02 573.89,341.02 573.89,333.97 575.12,333.97 575.12,333.97 576.35,333.97 576.35,324.20 577.57,324.20 577.57,324.20 578.80,324.20 578.80,324.20 580.03,324.20 580.03,323.12 581.25,323.12 581.25,316.61 582.48,316.61 582.48,310.10 583.71,310.10 583.71,310.10 584.93,310.10 584.93,310.10 586.16,310.10 586.16,310.10 587.39,310.10 587.39,310.10 588.61,310.10 588.61,310.10 589.84,310.10 589.84,310.10 591.07,310.10 591.07,310.10 592.29,310.10 592.29,310.10 593.52,310.10 593.52,310.10 594.75,310.10 594.75,310.10 595.97,310.10 595.97,309.02 597.20,309.02 597.20,305.76 598.43,305.76 598.43,305.76 599.65,305.76 599.65,305.76 600.88,305.76 600.88,305.76 602.11,305.76 602.11,305.76 603.33,305.76 603.33,305.76 604.56,305.76 604.56,305.76 605.79,305.76 605.79,305.76 607.01,305.76 607.01,297.08 608.24,297.08 608.24,297.08 609.47,297.08 609.47,297.08 610.69,297.08 610.69,297.08 611.92,297.08 611.92,297.08 613.15,297.08 613.15,290.03 614.37,290.03 614.37,290.03 615.60,290.03 615.60,289.49 616.83,289.49 616.83,287.86 618.05,287.86 618.05,287.32 619.28,287.32 619.28,275.93 620.51,275.93 620.51,275.93 621.73,275.93 621.73,275.93 622.96,275.93 622.96,275.93 624.19,275.93 624.19,268.34 625.41,268.34 625.41,242.85 626.64,242.85 626.64,242.31 627.87,242.31 627.87,242.31 629.09,242.31 629.09,235.25 630.32,235.25 630.32,235.25 631.55,235.25 631.55,235.25 632.77,235.25 632.77,235.25 634.00,235.25 634.00,235.25 635.23,235.25 635.23,227.66 636.45,227.66 636.45,227.66 637.68,227.66 637.68,227.66 638.91,227.66 638.91,227.66 640.13,227.66 640.13,227.66 641.36,227.66 641.36,227.66 642.59,227.66 642.59,227.66 643.81,227.66 643.81,227.66 645.04,227.66 645.04,227.66 646.27,227.66 646.27,227.66 647.49,227.66 647.49,227.66 648.72,227.66 648.72,227.66 649.95,227.66 649.95,227.66 651.17,227.66 651.17,227.66 652.40,227.66 652.40,227.66 653.63,227.66 653.63,227.66 654.85,227.66 654.85,227.66 656.08,227.66 656.08,227.66 657.31,227.66 657.31,227.66 658.53,227.66 658.53,227.66 659.76,227.66 659.76,227.66 660.99,227.66 660.99,227.66 662.21,227.66 662.21,227.66 663.44,227.66 663.44,219.53 664.67,219.53 664.67,219.53 665.89,219.53 665.89,219.53 667.12,219.53 667.12,219.53 668.35,219.53 668.35,219.53 669.57,219.53 669.57,219.53 670.80,219.53 670.80,219.53 672.03,219.53 672.03,219.53 673.25,219.53 673.25,219.53 674.48,219.53 674.48,219.53 675.71,219.53 675.71,219.53 676.93,219.53 676.93,219.53 678.16,219.53 678.16,219.53 679.39,219.53 679.39,219.53 680.61,219.53 680.61,219.53 681.84,219.53 681.84,219.53 683.07,219.53 683.07,219.53 684.29,219.53 684.29,219.53 685.52,219.53 685.52,211.93 686.75,211.93 686.75,211.93 687.97,211.93 687.97,211.93 689.20,211.93 689.20,211.93 690.43,211.93 690.43,211.93 691.65,211.93 691.65,211.93 692.88,211.93 692.88,211.93 694.11,211.93 694.11,211.93 695.33,211.93 695.33,211.93 696.56,211.93 696.56,211.93 697.79,211.93 697.79,211.93 699.01,211.93 699.01,211.93 700.24,211.93 700.24,211.93 701.47,211.93 701.47,211.93 702.69,211.93 702.69,211.93 703.92,211.93 703.92,211.93 705.15,211.93 705.15,211.93 706.37,211.93 706.37,211.93 707.60,211.93 707.60,211.93 708.83,211.93 708.83,211.93 710.05,211.93 710.05,211.93 711.28,211.93 711.28,211.93 712.51,211.93 712.51,211.93 713.73,211.93 713.73,211.93 714.96,211.93 714.96,211.93 716.19,211.93 716.19,201.08 717.41,201.08 717.41,201.08 718.64,201.08 718.64,201.08 719.87,201.08 719.87,201.08 721.09,201.08 721.09,201.08 722.32,201.08 722.32,201.08 723.55,201.08 723.55,192.41 724.77,192.41 724.77,192.41 726.00,192.41 726.00,191.32 727.23,191.32 727.23,188.61 728.45,188.61 728.45,188.07 729.68,188.07 729.68,188.07 730.91,188.07 730.91,188.07 732.13,188.07 732.13,181.56 733.36,181.56 733.36,175.05 734.59,175.05 734.59,166.37 735.81,166.37 735.81,160.41 737.04,160.41 737.04,146.85 738.27,146.85 738.27,146.85 739.49,146.85 739.49,146.85 740.72,146.85 740.72,146.85 741.95,146.85 741.95,146.85 743.17,146.85 743.17,146.85 744.40,146.85 744.40,146.85 745.63,146.85 745.63,146.85 746.85,146.85 746.85,146.31 748.08,146.31 748.08,146.31 749.31,146.31 749.31,146.31 750.53,146.31 750.53,139.80 751.76,139.80 751.76,139.80 752.99,139.80 752.99,139.80 754.21,139.80 754.21,132.20 755.44,132.20 755.44,132.20 756.67,132.20 756.67,132.20 757.89,132.20 757.89,132.20 759.12,132.20 759.12,132.20 760.35,132.20 760.35,132.20 761.57,132.20 761.57,132.20 762.80,132.20 762.80,132.20 764.03,132.20 764.03,132.20 765.25,132.20 765.25,128.41 766.48,128.41 766.48,122.44 767.71,122.44 767.71,122.44 768.93,122.44 768.93,122.44 770.16,122.44 770.16,122.44 771.39,122.44 771.39,122.44 772.61,122.44 772.61,122.44 773.84,122.44 773.84,122.44 775.07,122.44 775.07,122.44 776.29,122.44 776.29,122.44 777.52,122.44 777.52,114.85 778.75,114.85 778.75,114.85 779.97,114.85 779.97,114.85 781.20,114.85 781.20,114.85 782.43,114.85 782.43,114.85 783.65,114.85 783.65,99.12 784.88,99.12 784.88,99.12 786.11,99.12 786.11,99.12 787.33,99.12 787.33,99.12 788.56,99.12 788.56,99.12 789.79,99.12 789.79,99.12 791.01,99.12 791.01,82.85 792.24,82.85 792.24,82.85 793.47,82.85 793.47,82.85 794.69,82.85 794.69,82.85 795.92,82.85 795.92,82.85 797.15,82.85 797.15,82.31 798.37,82.31 798.37,76.34 799.60,76.34 799.60,69.29 800.83,69.29 800.83,62.78 802.05,62.78 802.05,62.78 803.28,62.78 803.28,62.78 804.51,62.78 804.51,54.10 805.73,54.10 805.73,54.10 806.96,54.10 806.96,54.10 808.19,54.10 808.19,53.56 809.41,53.56 809.41,53.56 810.64,53.56 810.64,48.14 811.87,48.14 811.87,48.14 813.09,48.14 813.09,48.14 814.32,48.14 814.32,40.00 815.55,40.00 815.55,40.00 816.77,40.00 816.77,40.00 818.00,40.00 818.00,40.00" fill="none" stroke="#4b8f29" stroke-width="3"/>
<text x="450.0" y="552" text-anchor="middle" font-size="20" font-family="Arial, sans-serif" fill="#111827">Top displacement (mm)</text>
<text x="24" y="280.0" text-anchor="middle" transform="rotate(-90 24 280.0)" font-size="20" font-family="Arial, sans-serif" fill="#111827">Force magnitude (N)</text>
<text x="880" y="280.0" text-anchor="middle" transform="rotate(90 880 280.0)" font-size="20" font-family="Arial, sans-serif" fill="#111827">Broken bonds</text>
<text x="102" y="64" font-size="18" font-family="Arial, sans-serif" fill="#1b6ca8">Top plate</text>
<text x="212" y="64" font-size="18" font-family="Arial, sans-serif" fill="#d1495b">Bottom plate</text>
<text x="352" y="64" font-size="18" font-family="Arial, sans-serif" fill="#4b8f29">Broken bonds</text>
<text x="72" y="45" text-anchor="end" font-size="17" fill="#30363d">13.86</text>
<text x="72" y="488" text-anchor="end" font-size="17" fill="#30363d">0</text>
<text x="828" y="45" text-anchor="start" font-size="17" fill="#30363d">826</text>
<text x="828" y="488" text-anchor="start" font-size="17" fill="#30363d">0</text>
</svg>
