<svg xmlns="http://www.w3.org/2000/svg" width="900" height="560" viewBox="0 0 900 560">
<rect width="100%" height="100%" fill="white"/>
<text x="450.0" y="26" text-anchor="middle" font-size="22" font-family="Arial, sans-serif" fill="#111827">SP-002 force-displacement and bond breakage</text>
<line x1="82" y1="40.00" x2="818" y2="40.00" stroke="#d9dee2" stroke-width="1"/><line x1="82" y1="129.60" x2="818" y2="129.60" stroke="#d9dee2" stroke-width="1"/><line x1="82" y1="219.20" x2="818" y2="219.20" stroke="#d9dee2" stroke-width="1"/><line x1="82" y1="308.80" x2="818" y2="308.80" stroke="#d9dee2" stroke-width="1"/><line x1="82" y1="398.40" x2="818" y2="398.40" stroke="#d9dee2" stroke-width="1"/><line x1="82" y1="488.00" x2="818" y2="488.00" stroke="#d9dee2" stroke-width="1"/><line x1="82.00" y1="40" x2="82.00" y2="488" stroke="#edf0f2" stroke-width="1"/><text x="82.00" y="526" text-anchor="middle" font-size="18" fill="#30363d">0.000</text><line x1="229.20" y1="40" x2="229.20" y2="488" stroke="#edf0f2" stroke-width="1"/><text x="229.20" y="526" text-anchor="middle" font-size="18" fill="#30363d">0.060</text><line x1="376.40" y1="40" x2="376.40" y2="488" stroke="#edf0f2" stroke-width="1"/><text x="376.40" y="526" text-anchor="middle" font-size="18" fill="#30363d">0.120</text><line x1="523.60" y1="40" x2="523.60" y2="488" stroke="#edf0f2" stroke-width="1"/><text x="523.60" y="526" text-anchor="middle" font-size="18" fill="#30363d">0.180</text><line x1="670.80" y1="40" x2="670.80" y2="488" stroke="#edf0f2" stroke-width="1"/><text x="670.80" y="526" text-anchor="middle" font-size="18" fill="#30363d">0.240</text><line x1="818.00" y1="40" x2="818.00" y2="488" stroke="#edf0f2" stroke-width="1"/><text x="818.00" y="526" text-anchor="middle" font-size="18" fill="#30363d">0.300</text>
<line x1="82" y1="40" x2="82" y2="488" stroke="#111827" stroke-width="1.5"/>
<line x1="82" y1="488" x2="818" y2="488" stroke="#111827" stroke-width="1.5"/>
<line x1="818" y1="40" x2="818" y2="488" stroke="#111827" stroke-width="1.5"/>
<polyline points="82.00,488.00 83.23,488.00 84.45,488.00 85.68,488.00 86.91,488.00 88.13,488.00 89.36,488.00 90.59,488.00 91.81,488.00 93.04,488.00 94.27,488.00 95.49,488.00 96.72,488.00 97.95,488.00 99.17,488.00 100.40,488.00 101.63,488.00 102.85,488.00 104.08,488.00 105.31,488.00 106.53,488.00 107.76,488.00 108.99,488.00 110.21,488.00 111.44,488.00 112.67,488.00 113.89,488.00 115.12,488.00 116.35,488.00 117.57,488.00 118.80,488.00 120.03,488.00 121.25,488.00 122.48,488.00 123.71,488.00 124.93,488.00 126.16,488.00 127.39,488.00 128.61,488.00 129.84,488.00 131.07,488.00 132.29,488.00 133.52,488.00 134.75,488.00 135.97,488.00 137.20,488.00 138.43,488.00 139.65,488.00 140.88,488.00 142.11,488.00 143.33,488.00 144.56,488.00 145.79,488.00 147.01,488.00 148.24,488.00 149.47,488.00 150.69,488.00 151.92,488.00 153.15,488.00 154.37,488.00 155.60,488.00 156.83,488.00 158.05,488.00 159.28,488.00 160.51,488.00 161.73,488.00 162.96,488.00 164.19,488.00 165.41,488.00 166.64,488.00 167.87,488.00 169.09,488.00 170.32,488.00 171.55,488.00 172.77,488.00 174.00,488.00 175.23,488.00 176.45,488.00 177.68,488.00 178.91,488.00 180.13,488.00 181.36,488.00 182.59,488.00 183.81,488.00 185.04,488.00 186.27,488.00 187.49,488.00 188.72,488.00 189.95,488.00 191.17,488.00 192.40,488.00 193.63,488.00 194.85,488.00 196.08,488.00 197.31,488.00 198.53,488.00 199.76,488.00 200.99,488.00 202.21,488.00 203.44,488.00 204.67,488.00 205.89,488.00 207.12,488.00 208.35,488.00 209.57,488.00 210.80,488.00 212.03,488.00 213.25,488.00 214.48,488.00 215.71,488.00 216.93,488.00 218.16,488.00 219.39,488.00 220.61,488.00 221.84,488.00 223.07,488.00 224.29,488.00 225.52,488.00 226.75,488.00 227.97,488.00 229.20,488.00 230.43,488.00 231.65,488.00 232.88,488.00 234.11,488.00 235.33,488.00 236.56,488.00 237.79,488.00 239.01,488.00 240.24,488.00 241.47,488.00 242.69,488.00 243.92,488.00 245.15,488.00 246.37,488.00 247.60,488.00 248.83,488.00 250.05,488.00 251.28,488.00 252.51,488.00 253.73,488.00 254.96,488.00 256.19,488.00 257.41,488.00 258.64,488.00 259.87,488.00 261.09,488.00 262.32,488.00 263.55,488.00 264.77,488.00 266.00,488.00 267.23,488.00 268.45,488.00 269.68,488.00 270.91,488.00 272.13,488.00 273.36,488.00 274.59,488.00 275.81,488.00 277.04,488.00 278.27,488.00 279.49,488.00 280.72,488.00 281.95,488.00 283.17,488.00 284.40,488.00 285.63,488.00 286.85,488.00 288.08,488.00 289.31,488.00 290.53,488.00 291.76,488.00 292.99,488.00 294.21,488.00 295.44,488.00 296.67,488.00 297.89,488.00 299.12,488.00 300.35,488.00 301.57,488.00 302.80,488.00 304.03,488.00 305.25,488.00 306.48,488.00 307.71,488.00 308.93,488.00 310.16,488.00 311.39,488.00 312.61,488.00 313.84,488.00 315.07,488.00 316.29,488.00 317.52,488.00 318.75,488.00 319.97,488.00 321.20,488.00 322.43,488.00 323.65,488.00 324.88,488.00 326.11,488.00 327.33,488.00 328.56,485.81 329.79,482.33 331.01,478.39 332.24,473.92 333.47,469.13 334.69,464.06 335.92,458.96 337.15,453.60 338.37,448.19 339.60,442.50 340.83,436.75 342.05,430.90 343.28,425.67 344.51,419.97 345.73,484.40 346.96,480.41 348.19,476.64 349.41,472.61 350.64,466.39 351.87,458.93 353.09,450.77 354.32,442.08 355.55,432.99 356.77,423.54 358.00,413.79 359.23,403.78 360.45,447.89 361.68,441.86 362.91,437.09 364.13,431.42 365.36,424.98 366.59,482.91 367.81,481.08 369.04,479.39 370.27,477.63 371.49,475.79 372.72,473.15 373.95,469.93 375.17,466.35 376.40,462.51 377.63,458.43 378.85,454.16 380.08,448.93 381.31,442.23 382.53,434.71 383.76,426.58 384.99,418.11 386.21,409.16 387.44,400.02 388.67,422.51 389.89,439.27 391.12,442.18 392.35,442.70 393.57,441.77 394.80,439.97 396.03,437.69 397.25,439.16 398.48,439.87 399.71,437.89 400.93,434.66 402.16,430.36 403.39,424.68 404.61,418.41 405.84,411.58 407.07,409.79 408.29,406.36 409.52,398.93 410.75,390.52 411.97,381.64 413.20,378.41 414.43,388.72 415.65,385.17 416.88,378.71 418.11,371.36 419.33,363.54 420.56,355.37 421.79,346.89 423.01,338.17 424.24,329.27 425.47,320.19 426.69,310.95 427.92,304.35 429.15,370.17 430.37,426.96 431.60,434.00 432.83,437.11 434.05,438.46 435.28,438.93 436.51,438.96 437.73,438.76 438.96,438.46 440.19,438.13 441.41,437.87 442.64,437.60 443.87,437.33 445.09,437.06 446.32,436.63 447.55,435.55 448.77,433.87 450.00,431.71 451.23,429.06 452.45,425.27 453.68,420.37 454.91,414.65 456.13,408.34 457.36,401.61 458.59,394.56 459.81,387.02 461.04,378.20 462.27,368.96 463.49,359.40 464.72,349.25 465.95,338.50 467.17,327.34 468.40,317.04 469.63,305.43 470.85,293.93 472.08,285.03 473.31,287.93 474.53,372.10 475.76,351.17 476.99,367.24 478.21,369.24 479.44,367.01 480.67,363.37 481.89,358.66 483.12,353.77 484.35,348.94 485.57,344.21 486.80,339.57 488.03,335.02 489.25,330.52 490.48,326.08 491.71,321.65 492.93,317.21 494.16,312.84 495.39,308.65 496.61,304.63 497.84,300.74 499.07,296.76 500.29,291.23 501.52,286.99 502.75,281.08 503.97,275.18 505.20,269.10 506.43,262.78 507.65,330.47 508.88,307.23 510.11,348.31 511.33,352.09 512.56,355.98 513.79,359.99 515.01,380.69 516.24,396.22 517.47,403.34 518.69,404.54 519.92,403.69 521.15,401.87 522.37,399.49 523.60,396.53 524.83,392.87 526.05,389.07 527.28,385.11 528.51,381.32 529.73,377.22 530.96,370.94 532.19,362.89 533.41,354.65 534.64,346.43 535.87,337.95 537.09,329.26 538.32,320.32 539.55,311.30 540.77,302.41 542.00,293.49 543.23,284.51 544.45,275.47 545.68,266.38 546.91,256.79 548.13,382.14 549.36,371.92 550.59,368.99 551.81,364.44 553.04,358.73 554.27,352.00 555.49,344.09 556.72,334.84 557.95,323.72 559.17,311.24 560.40,297.89 561.63,283.96 562.85,269.63 564.08,254.94 565.31,239.91 566.53,224.60 567.76,209.03 568.99,195.73 570.21,244.72 571.44,226.51 572.67,253.30 573.89,251.84 575.12,247.55 576.35,239.67 577.57,324.37 578.80,318.82 580.03,314.67 581.25,308.29 582.48,300.33 583.71,290.47 584.93,278.80 586.16,265.31 587.39,250.48 588.61,234.86 589.84,218.45 591.07,213.12 592.29,197.19 593.52,211.66 594.75,224.24 595.97,209.07 597.20,193.12 598.43,240.28 599.65,287.49 600.88,290.51 602.11,287.47 603.33,281.79 604.56,274.39 605.79,265.68 607.01,255.89 608.24,245.28 609.47,242.89 610.69,308.81 611.92,316.85 613.15,314.06 614.37,306.05 615.60,295.61 616.83,283.46 618.05,269.99 619.28,255.51 620.51,240.55 621.73,231.21 622.96,239.30 624.19,222.42 625.41,204.94 626.64,187.01 627.87,168.58 629.09,149.67 630.32,156.96 631.55,232.83 632.77,216.26 634.00,203.30 635.23,253.41 636.45,286.07 637.68,293.89 638.91,283.01 640.13,270.29 641.36,256.87 642.59,242.38 643.81,227.21 645.04,211.45 646.27,195.08 647.49,178.16 648.72,160.72 649.95,142.82 651.17,185.34 652.40,171.94 653.63,154.56 654.85,216.55 656.08,215.43 657.31,206.82 658.53,194.82 659.76,180.55 660.99,233.72 662.21,235.37 663.44,284.32 664.67,297.06 665.89,294.54 667.12,290.16 668.35,289.41 669.57,291.93 670.80,284.85 672.03,276.76 673.25,267.82 674.48,257.50 675.71,246.34 676.93,234.71 678.16,222.76 679.39,210.18 680.61,197.25 681.84,183.97 683.07,170.52 684.29,157.06 685.52,143.20 686.75,128.45 687.97,112.70 689.20,96.40 690.43,79.61 691.65,114.76 692.88,94.86 694.11,78.39 695.33,61.66 696.56,47.61 697.79,71.56 699.01,70.44 700.24,58.70 701.47,107.66 702.69,130.75 703.92,146.45 705.15,176.26 706.37,170.22 707.60,160.44 708.83,148.62 710.05,136.21 711.28,123.54 712.51,110.95 713.73,97.13 714.96,85.21 716.19,70.73 717.41,55.60 718.64,40.00 719.87,188.98 721.09,204.84 722.32,218.52 723.55,229.89 724.77,239.31 726.00,246.14 727.23,249.62 728.45,249.83 729.68,245.36 730.91,378.11 732.13,408.03 733.36,410.38 734.59,408.38 735.81,404.01 737.04,398.39 738.27,392.18 739.49,385.66 740.72,379.12 741.95,372.65 743.17,366.17 744.40,359.87 745.63,356.37 746.85,351.03 748.08,380.55 749.31,385.01 750.53,383.44 751.76,380.36 752.99,377.43 754.21,374.45 755.44,370.81 756.67,366.66 757.89,362.09 759.12,357.15 760.35,351.84 761.57,346.24 762.80,340.72 764.03,335.02 765.25,328.79 766.48,322.37 767.71,315.46 768.93,308.38 770.16,300.76 771.39,292.70 772.61,284.30 773.84,275.59 775.07,266.57 776.29,257.13 777.52,247.19 778.75,236.81 779.97,295.74 781.20,309.31 782.43,312.97 783.65,312.34 784.88,311.15 786.11,309.78 787.33,307.96 788.56,305.67 789.79,302.95 791.01,299.59 792.24,296.16 793.47,292.96 794.69,290.33 795.92,288.13 797.15,285.86 798.37,282.97 799.60,342.38 800.83,353.64 802.05,357.05 803.28,358.94 804.51,360.43 805.73,362.32 806.96,369.91 808.19,382.36 809.41,398.84 810.64,390.87 811.87,386.11 813.09,382.34 814.32,377.90 815.55,372.91 816.77,367.20 818.00,360.84" fill="none" stroke="#1b6ca8" stroke-width="3"/>
<polyline points="82.00,488.00 83.23,488.00 84.45,488.00 85.68,488.00 86.91,488.00 88.13,488.00 89.36,488.00 90.59,488.00 91.81,488.00 93.04,488.00 94.27,488.00 95.49,488.00 96.72,488.00 97.95,488.00 99.17,488.00 100.40,488.00 101.63,488.00 102.85,488.00 104.08,488.00 105.31,488.00 106.53,488.00 107.76,488.00 108.99,488.00 110.21,488.00 111.44,488.00 112.67,488.00 113.89,488.00 115.12,488.00 116.35,488.00 117.57,488.00 118.80,488.00 120.03,488.00 121.25,488.00 122.48,488.00 123.71,488.00 124.93,488.00 126.16,488.00 127.39,488.00 128.61,488.00 129.84,488.00 131.07,488.00 132.29,488.00 133.52,488.00 134.75,488.00 135.97,488.00 137.20,488.00 138.43,488.00 139.65,488.00 140.88,488.00 142.11,488.00 143.33,488.00 144.56,488.00 145.79,488.00 147.01,488.00 148.24,488.00 149.47,488.00 150.69,488.00 151.92,488.00 153.15,488.00 154.37,488.00 155.60,488.00 156.83,488.00 158.05,488.00 159.28,488.00 160.51,488.00 161.73,488.00 162.96,488.00 164.19,488.00 165.41,488.00 166.64,488.00 167.87,488.00 169.09,488.00 170.32,488.00 171.55,488.00 172.77,488.00 174.00,488.00 175.23,488.00 176.45,488.00 177.68,488.00 178.91,488.00 180.13,488.00 181.36,488.00 182.59,488.00 183.81,488.00 185.04,488.00 186.27,488.00 187.49,488.00 188.72,488.00 189.95,488.00 191.17,488.00 192.40,488.00 193.63,488.00 194.85,488.00 196.08,488.00 197.31,488.00 198.53,488.00 199.76,488.00 200.99,488.00 202.21,488.00 203.44,488.00 204.67,488.00 205.89,488.00 207.12,488.00 208.35,488.00 209.57,488.00 210.80,488.00 212.03,488.00 213.25,488.00 214.48,488.00 215.71,488.00 216.93,488.00 218.16,488.00 219.39,488.00 220.61,488.00 221.84,488.00 223.07,488.00 224.29,488.00 225.52,488.00 226.75,488.00 227.97,488.00 229.20,488.00 230.43,488.00 231.65,488.00 232.88,488.00 234.11,488.00 235.33,488.00 236.56,488.00 237.79,488.00 239.01,488.00 240.24,488.00 241.47,488.00 242.69,488.00 243.92,488.00 245.15,488.00 246.37,488.00 247.60,488.00 248.83,488.00 250.05,488.00 251.28,488.00 252.51,488.00 253.73,488.00 254.96,488.00 256.19,488.00 257.41,488.00 258.64,488.00 259.87,488.00 261.09,488.00 262.32,488.00 263.55,488.00 264.77,488.00 266.00,488.00 267.23,488.00 268.45,488.00 269.68,488.00 270.91,488.00 272.13,488.00 273.36,488.00 274.59,488.00 275.81,488.00 277.04,488.00 278.27,488.00 279.49,488.00 280.72,488.00 281.95,488.00 283.17,488.00 284.40,488.00 285.63,488.00 286.85,488.00 288.08,488.00 289.31,488.00 290.53,488.00 291.76,488.00 292.99,488.00 294.21,488.00 295.44,488.00 296.67,488.00 297.89,488.00 299.12,488.00 300.35,488.00 301.57,488.00 302.80,488.00 304.03,488.00 305.25,488.00 306.48,488.00 307.71,488.00 308.93,488.00 310.16,488.00 311.39,488.00 312.61,488.00 313.84,488.00 315.07,488.00 316.29,488.00 317.52,488.00 318.75,488.00 319.97,488.00 321.20,488.00 322.43,488.00 323.65,488.00 324.88,488.00 326.11,488.00 327.33,488.00 328.56,486.75 329.79,483.71 331.01,479.85 332.24,475.67 333.47,471.01 334.69,466.05 335.92,460.99 337.15,455.71 338.37,450.32 339.60,444.73 340.83,438.99 342.05,433.19 343.28,427.86 344.51,422.17 345.73,475.36 346.96,481.17 348.19,478.08 349.41,474.20 350.64,468.91 351.87,461.90 353.09,454.00 354.32,445.52 355.55,436.58 356.77,427.27 358.00,417.64 359.23,407.73 360.45,433.65 361.68,442.89 362.91,438.98 364.13,433.76 365.36,427.58 366.59,476.25 367.81,481.31 369.04,480.08 370.27,478.37 371.49,476.56 372.72,474.26 373.95,471.24 375.17,467.80 376.40,464.06 377.63,460.07 378.85,455.88 380.08,451.14 381.31,444.89 382.53,437.68 383.76,429.78 384.99,421.30 386.21,412.64 387.44,403.41 388.67,461.95 389.89,461.30 391.12,457.96 392.35,454.27 393.57,450.56 394.80,447.20 396.03,444.05 397.25,460.76 398.48,449.09 399.71,444.52 400.93,441.22 402.16,437.53 403.39,432.44 404.61,426.41 405.84,419.72 407.07,427.81 408.29,416.17 409.52,408.10 410.75,399.75 411.97,390.94 413.20,421.60 414.43,408.67 415.65,399.55 416.88,391.43 418.11,383.30 419.33,374.99 420.56,366.51 421.79,357.90 423.01,349.14 424.24,340.22 425.47,331.16 426.69,321.98 427.92,315.35 429.15,461.67 430.37,462.38 431.60,461.31 432.83,460.40 434.05,459.59 435.28,458.90 436.51,458.34 437.73,457.90 438.96,457.55 440.19,457.26 441.41,456.93 442.64,456.60 443.87,456.27 445.09,455.95 446.32,454.97 447.55,452.80 448.77,450.12 450.00,447.04 451.23,443.08 452.45,437.06 453.68,430.50 454.91,423.65 456.13,416.62 457.36,409.37 458.59,401.98 459.81,394.41 461.04,386.16 462.27,377.21 463.49,367.80 464.72,357.89 465.95,347.11 467.17,335.95 468.40,325.78 469.63,314.05 470.85,305.99 472.08,294.14 473.31,293.52 474.53,323.41 475.76,357.10 476.99,385.43 478.21,381.94 479.44,378.70 480.67,374.38 481.89,369.52 483.12,364.70 484.35,360.01 485.57,355.48 486.80,351.04 488.03,346.67 489.25,342.36 490.48,338.09 491.71,333.79 492.93,329.43 494.16,325.08 495.39,320.79 496.61,316.59 497.84,312.27 499.07,307.76 500.29,302.88 501.52,297.67 502.75,292.43 503.97,286.56 505.20,280.38 506.43,273.94 507.65,289.36 508.88,311.22 510.11,338.46 511.33,347.32 512.56,352.97 513.79,357.65 515.01,369.48 516.24,384.28 517.47,394.85 518.69,400.05 519.92,400.85 521.15,400.28 522.37,398.85 523.60,396.77 524.83,394.03 526.05,390.80 527.28,387.19 528.51,383.27 529.73,378.96 530.96,374.38 532.19,368.98 533.41,362.60 534.64,355.35 535.87,347.35 537.09,338.94 538.32,330.23 539.55,321.31 540.77,312.40 542.00,303.50 543.23,294.53 544.45,285.53 545.68,276.35 546.91,266.26 548.13,357.44 549.36,380.42 550.59,379.33 551.81,374.87 553.04,368.90 554.27,361.66 555.49,353.26 556.72,343.78 557.95,332.44 559.17,319.80 560.40,306.35 561.63,292.37 562.85,278.02 564.08,263.32 565.31,248.30 566.53,232.99 567.76,217.41 568.99,203.54 570.21,222.93 571.44,235.23 572.67,263.24 573.89,262.53 575.12,258.20 576.35,250.10 577.57,314.76 578.80,321.76 580.03,320.16 581.25,315.10 582.48,308.00 583.71,298.89 584.93,287.72 586.16,274.68 587.39,260.04 588.61,244.40 589.84,227.95 591.07,225.31 592.29,206.87 593.52,266.48 594.75,234.57 595.97,219.06 597.20,203.15 598.43,276.76 599.65,312.56 600.88,307.23 602.11,300.93 603.33,293.57 604.56,285.23 605.79,276.00 607.01,266.00 608.24,255.37 609.47,336.30 610.69,326.29 611.92,329.65 613.15,324.68 614.37,316.44 615.60,305.92 616.83,293.75 618.05,280.22 619.28,265.68 620.51,250.64 621.73,241.08 622.96,249.29 624.19,231.80 625.41,214.30 626.64,196.34 627.87,177.86 629.09,158.91 630.32,169.73 631.55,218.87 632.77,224.63 634.00,211.93 635.23,295.11 636.45,318.85 637.68,304.23 638.91,291.16 640.13,278.16 641.36,264.77 642.59,250.46 643.81,235.43 645.04,219.73 646.27,203.42 647.49,186.55 648.72,169.16 649.95,151.30 651.17,199.99 652.40,180.79 653.63,169.32 654.85,233.16 656.08,227.39 657.31,217.11 658.53,204.55 659.76,190.04 660.99,259.34 662.21,249.06 663.44,318.23 664.67,310.87 665.89,305.80 667.12,300.71 668.35,311.06 669.57,309.39 670.80,298.24 672.03,289.30 673.25,278.84 674.48,267.80 675.71,256.31 676.93,244.54 678.16,232.55 679.39,220.08 680.61,207.18 681.84,193.95 683.07,180.51 684.29,166.63 685.52,152.66 686.75,137.78 687.97,122.07 689.20,105.77 690.43,88.97 691.65,116.03 692.88,103.34 694.11,87.04 695.33,70.41 696.56,56.30 697.79,94.13 699.01,82.09 700.24,69.28 701.47,117.04 702.69,145.12 703.92,160.29 705.15,182.09 706.37,181.10 707.60,170.45 708.83,158.18 710.05,145.70 711.28,132.85 712.51,119.55 713.73,106.27 714.96,94.23 716.19,79.62 717.41,64.40 718.64,48.74 719.87,173.27 721.09,202.21 722.32,221.42 723.55,235.31 724.77,245.91 726.00,253.67 727.23,258.23 728.45,258.72 729.68,254.68 730.91,369.49 732.13,410.14 733.36,418.81 734.59,415.71 735.81,411.31 737.04,405.65 738.27,399.37 739.49,392.91 740.72,386.34 741.95,379.74 743.17,373.26 744.40,366.85 745.63,363.39 746.85,357.32 748.08,391.19 749.31,389.80 750.53,387.95 751.76,385.46 752.99,382.91 754.21,380.11 755.44,376.86 756.67,373.06 757.89,368.80 759.12,364.10 760.35,358.93 761.57,353.48 762.80,348.03 764.03,342.51 765.25,336.63 766.48,330.14 767.71,323.25 768.93,316.14 770.16,308.48 771.39,300.46 772.61,292.12 773.84,283.46 775.07,274.50 776.29,265.18 777.52,255.42 778.75,245.17 779.97,287.37 781.20,310.48 782.43,315.78 783.65,316.31 784.88,316.00 786.11,314.99 787.33,313.52 788.56,311.39 789.79,308.47 791.01,304.76 792.24,301.15 793.47,297.75 794.69,294.78 795.92,292.36 797.15,290.05 798.37,287.31 799.60,357.07 800.83,360.92 802.05,364.63 803.28,366.97 804.51,368.97 805.73,371.01 806.96,375.50 808.19,381.96 809.41,397.71 810.64,398.55 811.87,394.84 813.09,391.53 814.32,387.73 815.55,383.27 816.77,377.99 818.00,371.84" fill="none" stroke="#d1495b" stroke-width="3"/>
<polyline points="82.00,488.00 83.23,488.00 83.23,488.00 84.45,488.00 84.45,488.00 85.68,488.00 85.68,488.00 86.91,488.00 86.91,488.00 88.13,488.00 88.13,488.00 89.36,488.00 89.36,488.00 90.59,488.00 90.59,488.00 91.81,488.00 91.81,488.00 93.04,488.00 93.04,488.00 94.27,488.00 94.27,488.00 95.49,488.00 95.49,488.00 96.72,488.00 96.72,488.00 97.95,488.00 97.95,488.00 99.17,488.00 99.17,488.00 100.40,488.00 100.40,488.00 101.63,488.00 101.63,488.00 102.85,488.00 102.85,488.00 104.08,488.00 104.08,488.00 105.31,488.00 105.31,488.00 106.53,488.00 106.53,488.00 107.76,488.00 107.76,488.00 108.99,488.00 108.99,488.00 110.21,488.00 110.21,488.00 111.44,488.00 111.44,488.00 112.67,488.00 112.67,488.00 113.89,488.00 113.89,488.00 115.12,488.00 115.12,488.00 116.35,488.00 116.35,488.00 117.57,488.00 117.57,488.00 118.80,488.00 118.80,488.00 120.03,488.00 120.03,488.00 121.25,488.00 121.25,488.00 122.48,488.00 122.48,488.00 123.71,488.00 123.71,488.00 124.93,488.00 124.93,488.00 126.16,488.00 126.16,488.00 127.39,488.00 127.39,488.00 128.61,488.00 128.61,488.00 129.84,488.00 129.84,488.00 131.07,488.00 131.07,488.00 132.29,488.00 132.29,488.00 133.52,488.00 133.52,488.00 134.75,488.00 134.75,488.00 135.97,488.00 135.97,488.00 137.20,488.00 137.20,488.00 138.43,488.00 138.43,488.00 139.65,488.00 139.65,488.00 140.88,488.00 140.88,488.00 142.11,488.00 142.11,488.00 143.33,488.00 143.33,488.00 144.56,488.00 144.56,488.00 145.79,488.00 145.79,488.00 147.01,488.00 147.01,488.00 148.24,488.00 148.24,488.00 149.47,488.00 149.47,488.00 150.69,488.00 150.69,488.00 151.92,488.00 151.92,488.00 153.15,488.00 153.15,488.00 154.37,488.00 154.37,488.00 155.60,488.00 155.60,488.00 156.83,488.00 156.83,488.00 158.05,488.00 158.05,488.00 159.28,488.00 159.28,488.00 160.51,488.00 160.51,488.00 161.73,488.00 161.73,488.00 162.96,488.00 162.96,488.00 164.19,488.00 164.19,488.00 165.41,488.00 165.41,488.00 166.64,488.00 166.64,488.00 167.87,488.00 167.87,488.00 169.09,488.00 169.09,488.00 170.32,488.00 170.32,488.00 171.55,488.00 171.55,488.00 172.77,488.00 172.77,488.00 174.00,488.00 174.00,488.00 175.23,488.00 175.23,488.00 176.45,488.00 176.45,488.00 177.68,488.00 177.68,488.00 178.91,488.00 178.91,488.00 180.13,488.00 180.13,488.00 181.36,488.00 181.36,488.00 182.59,488.00 182.59,488.00 183.81,488.00 183.81,488.00 185.04,488.00 185.04,488.00 186.27,488.00 186.27,488.00 187.49,488.00 187.49,488.00 188.72,488.00 188.72,488.00 189.95,488.00 189.95,488.00 191.17,488.00 191.17,488.00 192.40,488.00 192.40,488.00 193.63,488.00 193.63,488.00 194.85,488.00 194.85,488.00 196.08,488.00 196.08,488.00 197.31,488.00 197.31,488.00 198.53,488.00 198.53,488.00 199.76,488.00 199.76,488.00 200.99,488.00 200.99,488.00 202.21,488.00 202.21,488.00 203.44,488.00 203.44,488.00 204.67,488.00 204.67,488.00 205.89,488.00 205.89,488.00 207.12,488.00 207.12,488.00 208.35,488.00 208.35,488.00 209.57,488.00 209.57,488.00 210.80,488.00 210.80,488.00 212.03,488.00 212.03,488.00 213.25,488.00 213.25,488.00 214.48,488.00 214.48,488.00 215.71,488.00 215.71,488.00 216.93,488.00 216.93,488.00 218.16,488.00 218.16,488.00 219.39,488.00 219.39,488.00 220.61,488.00 220.61,488.00 221.84,488.00 221.84,488.00 223.07,488.00 223.07,488.00 224.29,488.00 224.29,488.00 225.52,488.00 225.52,488.00 226.75,488.00 226.75,488.00 227.97,488.00 227.97,488.00 229.20,488.00 229.20,488.00 230.43,488.00 230.43,488.00 231.65,488.00 231.65,488.00 232.88,488.00 232.88,488.00 234.11,488.00 234.11,488.00 235.33,488.00 235.33,488.00 236.56,488.00 236.56,488.00 237.79,488.00 237.79,488.00 239.01,488.00 239.01,488.00 240.24,488.00 240.24,488.00 241.47,488.00 241.47,488.00 242.69,488.00 242.69,488.00 243.92,488.00 243.92,488.00 245.15,488.00 245.15,488.00 246.37,488.00 246.37,488.00 247.60,488.00 247.60,488.00 248.83,488.00 248.83,488.00 250.05,488.00 250.05,488.00 251.28,488.00 251.28,488.00 252.51,488.00 252.51,488.00 253.73,488.00 253.73,488.00 254.96,488.00 254.96,488.00 256.19,488.00 256.19,488.00 257.41,488.00 257.41,488.00 258.64,488.00 258.64,488.00 259.87,488.00 259.87,488.00 261.09,488.00 261.09,488.00 262.32,488.00 262.32,488.00 263.55,488.00 263.55,488.00 264.77,488.00 264.77,488.00 266.00,488.00 266.00,488.00 267.23,488.00 267.23,488.00 268.45,488.00 268.45,488.00 269.68,488.00 269.68,488.00 270.91,488.00 270.91,488.00 272.13,488.00 272.13,488.00 273.36,488.00 273.36,488.00 274.59,488.00 274.59,488.00 275.81,488.00 275.81,488.00 277.04,488.00 277.04,488.00 278.27,488.00 278.27,488.00 279.49,488.00 279.49,488.00 280.72,488.00 280.72,488.00 281.95,488.00 281.95,488.00 283.17,488.00 283.17,488.00 284.40,488.00 284.40,488.00 285.63,488.00 285.63,488.00 286.85,488.00 286.85,488.00 288.08,488.00 288.08,488.00 289.31,488.00 289.31,488.00 290.53,488.00 290.53,488.00 291.76,488.00 291.76,488.00 292.99,488.00 292.99,488.00 294.21,488.00 294.21,488.00 295.44,488.00 295.44,488.00 296.67,488.00 296.67,488.00 297.89,488.00 297.89,488.00 299.12,488.00 299.12,488.00 300.35,488.00 300.35,488.00 301.57,488.00 301.57,488.00 302.80,488.00 302.80,488.00 304.03,488.00 304.03,488.00 305.25,488.00 305.25,488.00 306.48,488.00 306.48,488.00 307.71,488.00 307.71,488.00 308.93,488.00 308.93,488.00 310.16,488.00 310.16,488.00 311.39,488.00 311.39,488.00 312.61,488.00 312.61,488.00 313.84,488.00 313.84,488.00 315.07,488.00 315.07,488.00 316.29,488.00 316.29,488.00 317.52,488.00 317.52,488.00 318.75,488.00 318.75,488.00 319.97,488.00 319.97,488.00 321.20,488.00 321.20,488.00 322.43,488.00 322.43,488.00 323.65,488.00 323.65,488.00 324.88,488.00 324.88,488.00 326.11,488.00 326.11,488.00 327.33,488.00 327.33,488.00 328.56,488.00 328.56,488.00 329.79,488.00 329.79,488.00 331.01,488.00 331.01,487.28 332.24,487.28 332.24,487.28 333.47,487.28 333.47,487.28 334.69,487.28 334.69,487.28 335.92,487.28 335.92,485.84 337.15,485.84 337.15,485.12 338.37,485.12 338.37,482.97 339.60,482.97 339.60,482.97 340.83,482.97 340.83,481.53 342.05,481.53 342.05,480.09 343.28,480.09 343.28,468.58 344.51,468.58 344.51,463.55 345.73,463.55 345.73,452.76 346.96,452.76 346.96,452.76 348.19,452.76 348.19,452.76 349.41,452.76 349.41,452.76 350.64,452.76 350.64,452.76 351.87,452.76 351.87,452.76 353.09,452.76 353.09,452.76 354.32,452.76 354.32,452.76 355.55,452.76 355.55,452.76 356.77,452.76 356.77,452.76 358.00,452.76 358.00,452.76 359.23,452.76 359.23,452.76 360.45,452.76 360.45,444.85 361.68,444.85 361.68,444.85 362.91,444.85 362.91,444.85 364.13,444.85 364.13,444.13 365.36,444.13 365.36,444.13 366.59,444.13 366.59,436.94 367.81,436.94 367.81,436.94 369.04,436.94 369.04,436.94 370.27,436.94 370.27,436.94 371.49,436.94 371.49,436.94 372.72,436.94 372.72,436.94 373.95,436.94 373.95,436.94 375.17,436.94 375.17,436.94 376.40,436.94 376.40,436.94 377.63,436.94 377.63,436.94 378.85,436.94 378.85,436.94 380.08,436.94 380.08,436.94 381.31,436.94 381.31,436.94 382.53,436.94 382.53,436.94 383.76,436.94 383.76,436.94 384.99,436.94 384.99,434.79 386.21,434.79 386.21,434.79 387.44,434.79 387.44,430.47 388.67,430.47 388.67,389.48 389.89,389.48 389.89,389.48 391.12,389.48 391.12,389.48 392.35,389.48 392.35,389.48 393.57,389.48 393.57,389.48 394.80,389.48 394.80,389.48 396.03,389.48 396.03,389.48 397.25,389.48 397.25,389.48 398.48,389.48 398.48,389.48 399.71,389.48 399.71,389.48 400.93,389.48 400.93,389.48 402.16,389.48 402.16,389.48 403.39,389.48 403.39,389.48 404.61,389.48 404.61,389.48 405.84,389.48 405.84,389.48 407.07,389.48 407.07,389.48 408.29,389.48 408.29,389.48 409.52,389.48 409.52,389.48 410.75,389.48 410.75,389.48 411.97,389.48 411.97,389.48 413.20,389.48 413.20,383.73 414.43,383.73 414.43,383.73 415.65,383.73 415.65,383.73 416.88,383.73 416.88,383.73 418.11,383.73 418.11,383.73 419.33,383.73 419.33,383.73 420.56,383.73 420.56,383.73 421.79,383.73 421.79,383.73 423.01,383.73 423.01,383.73 424.24,383.73 424.24,383.73 425.47,383.73 425.47,383.73 426.69,383.73 426.69,383.73 427.92,383.73 427.92,383.01 429.15,383.01 429.15,364.31 430.37,364.31 430.37,363.60 431.60,363.60 431.60,363.60 432.83,363.60 432.83,363.60 434.05,363.60 434.05,363.60 435.28,363.60 435.28,363.60 436.51,363.60 436.51,363.60 437.73,363.60 437.73,363.60 438.96,363.60 438.96,363.60 440.19,363.60 440.19,363.60 441.41,363.60 441.41,363.60 442.64,363.60 442.64,363.60 443.87,363.60 443.87,363.60 445.09,363.60 445.09,363.60 446.32,363.60 446.32,363.60 447.55,363.60 447.55,363.60 448.77,363.60 448.77,363.60 450.00,363.60 450.00,363.60 451.23,363.60 451.23,363.60 452.45,363.60 452.45,363.60 453.68,363.60 453.68,363.60 454.91,363.60 454.91,363.60 456.13,363.60 456.13,363.60 457.36,363.60 457.36,363.60 458.59,363.60 458.59,363.60 459.81,363.60 459.81,363.60 461.04,363.60 461.04,363.60 462.27,363.60 462.27,363.60 463.49,363.60 463.49,363.60 464.72,363.60 464.72,363.60 465.95,363.60 465.95,363.60 467.17,363.60 467.17,363.60 468.40,363.60 468.40,362.88 469.63,362.88 469.63,362.88 470.85,362.88 470.85,362.16 472.08,362.16 472.08,362.16 473.31,362.16 473.31,357.84 474.53,357.84 474.53,350.65 475.76,350.65 475.76,350.65 476.99,350.65 476.99,345.62 478.21,345.62 478.21,345.62 479.44,345.62 479.44,345.62 480.67,345.62 480.67,345.62 481.89,345.62 481.89,345.62 483.12,345.62 483.12,345.62 484.35,345.62 484.35,345.62 485.57,345.62 485.57,345.62 486.80,345.62 486.80,345.62 488.03,345.62 488.03,345.62 489.25,345.62 489.25,345.62 490.48,345.62 490.48,345.62 491.71,345.62 491.71,345.62 492.93,345.62 492.93,345.62 494.16,345.62 494.16,345.62 495.39,345.62 495.39,345.62 496.61,345.62 496.61,345.62 497.84,345.62 497.84,345.62 499.07,345.62 499.07,345.62 500.29,345.62 500.29,345.62 501.52,345.62 501.52,345.62 502.75,345.62 502.75,345.62 503.97,345.62 503.97,345.62 505.20,345.62 505.20,345.62 506.43,345.62 506.43,345.62 507.65,345.62 507.65,336.27 508.88,336.27 508.88,336.27 510.11,336.27 510.11,331.96 511.33,331.96 511.33,331.96 512.56,331.96 512.56,331.96 513.79,331.96 513.79,331.96 515.01,331.96 515.01,331.96 516.24,331.96 516.24,331.96 517.47,331.96 517.47,331.96 518.69,331.96 518.69,331.96 519.92,331.96 519.92,331.96 521.15,331.96 521.15,331.96 522.37,331.96 522.37,331.96 523.60,331.96 523.60,331.96 524.83,331.96 524.83,331.96 526.05,331.96 526.05,331.96 527.28,331.96 527.28,331.96 528.51,331.96 528.51,331.96 529.73,331.96 529.73,331.96 530.96,331.96 530.96,331.96 532.19,331.96 532.19,331.96 533.41,331.96 533.41,331.96 534.64,331.96 534.64,331.96 535.87,331.96 535.87,331.96 537.09,331.96 537.09,331.96 538.32,331.96 538.32,331.96 539.55,331.96 539.55,331.96 540.77,331.96 540.77,331.96 542.00,331.96 542.00,331.96 543.23,331.96 543.23,331.96 544.45,331.96 544.45,331.96 545.68,331.96 545.68,331.96 546.91,331.96 546.91,331.96 548.13,331.96 548.13,310.38 549.36,310.38 549.36,310.38 550.59,310.38 550.59,310.38 551.81,310.38 551.81,310.38 553.04,310.38 553.04,310.38 554.27,310.38 554.27,310.38 555.49,310.38 555.49,310.38 556.72,310.38 556.72,310.38 557.95,310.38 557.95,310.38 559.17,310.38 559.17,310.38 560.40,310.38 560.40,310.38 561.63,310.38 561.63,310.38 562.85,310.38 562.85,310.38 564.08,310.38 564.08,310.38 565.31,310.38 565.31,310.38 566.53,310.38 566.53,310.38 567.76,310.38 567.76,310.38 568.99,310.38 568.99,309.66 570.21,309.66 570.21,299.60 571.44,299.60 571.44,299.60 572.67,299.60 572.67,292.40 573.89,292.40 573.89,292.40 575.12,292.40 575.12,292.40 576.35,292.40 576.35,292.40 577.57,292.40 577.57,280.90 578.80,280.90 578.80,280.90 580.03,280.90 580.03,280.90 581.25,280.90 581.25,280.90 582.48,280.90 582.48,280.90 583.71,280.90 583.71,280.90 584.93,280.90 584.93,280.90 586.16,280.90 586.16,280.90 587.39,280.90 587.39,280.90 588.61,280.90 588.61,280.90 589.84,280.90 589.84,280.90 591.07,280.90 591.07,275.87 592.29,275.87 592.29,275.87 593.52,275.87 593.52,269.39 594.75,269.39 594.75,269.39 595.97,269.39 595.97,269.39 597.20,269.39 597.20,269.39 598.43,269.39 598.43,257.17 599.65,257.17 599.65,250.70 600.88,250.70 600.88,250.70 602.11,250.70 602.11,250.70 603.33,250.70 603.33,250.70 604.56,250.70 604.56,250.70 605.79,250.70 605.79,250.70 607.01,250.70 607.01,250.70 608.24,250.70 608.24,250.70 609.47,250.70 609.47,239.19 610.69,239.19 610.69,239.19 611.92,239.19 611.92,239.19 613.15,239.19 613.15,239.19 614.37,239.19 614.37,239.19 615.60,239.19 615.60,239.19 616.83,239.19 616.83,239.19 618.05,239.19 618.05,239.19 619.28,239.19 619.28,239.19 620.51,239.19 620.51,239.19 621.73,239.19 621.73,237.03 622.96,237.03 622.96,231.28 624.19,231.28 624.19,231.28 625.41,231.28 625.41,231.28 626.64,231.28 626.64,231.28 627.87,231.28 627.87,231.28 629.09,231.28 629.09,231.28 630.32,231.28 630.32,223.37 631.55,223.37 631.55,211.15 632.77,211.15 632.77,211.15 634.00,211.15 634.00,211.15 635.23,211.15 635.23,194.61 636.45,194.61 636.45,194.61 637.68,194.61 637.68,194.61 638.91,194.61 638.91,194.61 640.13,194.61 640.13,194.61 641.36,194.61 641.36,194.61 642.59,194.61 642.59,194.61 643.81,194.61 643.81,194.61 645.04,194.61 645.04,194.61 646.27,194.61 646.27,194.61 647.49,194.61 647.49,194.61 648.72,194.61 648.72,194.61 649.95,194.61 649.95,194.61 651.17,194.61 651.17,186.70 652.40,186.70 652.40,186.70 653.63,186.70 653.63,183.82 654.85,183.82 654.85,165.84 656.08,165.84 656.08,165.84 657.31,165.84 657.31,165.84 658.53,165.84 658.53,165.84 659.76,165.84 659.76,165.84 660.99,165.84 660.99,155.78 662.21,155.78 662.21,155.78 663.44,155.78 663.44,144.27 664.67,144.27 664.67,144.27 665.89,144.27 665.89,144.27 667.12,144.27 667.12,143.55 668.35,143.55 668.35,143.55 669.57,143.55 669.57,143.55 670.80,143.55 670.80,143.55 672.03,143.55 672.03,143.55 673.25,143.55 673.25,143.55 674.48,143.55 674.48,143.55 675.71,143.55 675.71,143.55 676.93,143.55 676.93,143.55 678.16,143.55 678.16,143.55 679.39,143.55 679.39,143.55 680.61,143.55 680.61,143.55 681.84,143.55 681.84,143.55 683.07,143.55 683.07,143.55 684.29,143.55 684.29,143.55 685.52,143.55 685.52,143.55 686.75,143.55 686.75,143.55 687.97,143.55 687.97,143.55 689.20,143.55 689.20,143.55 690.43,143.55 690.43,143.55 691.65,143.55 691.65,132.04 692.88,132.04 692.88,132.04 694.11,132.04 694.11,132.04 695.33,132.04 695.33,132.04 696.56,132.04 696.56,131.33 697.79,131.33 697.79,121.98 699.01,121.98 699.01,121.98 700.24,121.98 700.24,121.98 701.47,121.98 701.47,108.31 702.69,108.31 702.69,108.31 703.92,108.31 703.92,108.31 705.15,108.31 705.15,108.31 706.37,108.31 706.37,108.31 707.60,108.31 707.60,108.31 708.83,108.31 708.83,108.31 710.05,108.31 710.05,108.31 711.28,108.31 711.28,108.31 712.51,108.31 712.51,108.31 713.73,108.31 713.73,108.31 714.96,108.31 714.96,106.88 716.19,106.88 716.19,106.88 717.41,106.88 717.41,106.88 718.64,106.88 718.64,106.88 719.87,106.88 719.87,93.93 721.09,93.93 721.09,93.93 722.32,93.93 722.32,93.93 723.55,93.93 723.55,93.93 724.77,93.93 724.77,93.93 726.00,93.93 726.00,93.93 727.23,93.93 727.23,93.93 728.45,93.93 728.45,93.93 729.68,93.93 729.68,93.93 730.91,93.93 730.91,74.52 732.13,74.52 732.13,68.76 733.36,68.76 733.36,68.76 734.59,68.76 734.59,68.76 735.81,68.76 735.81,68.76 737.04,68.76 737.04,68.76 738.27,68.76 738.27,68.76 739.49,68.76 739.49,68.76 740.72,68.76 740.72,68.76 741.95,68.76 741.95,68.76 743.17,68.76 743.17,68.76 744.40,68.76 744.40,68.76 745.63,68.76 745.63,68.04 746.85,68.04 746.85,68.04 748.08,68.04 748.08,61.57 749.31,61.57 749.31,61.57 750.53,61.57 750.53,61.57 751.76,61.57 751.76,61.57 752.99,61.57 752.99,61.57 754.21,61.57 754.21,61.57 755.44,61.57 755.44,61.57 756.67,61.57 756.67,61.57 757.89,61.57 757.89,61.57 759.12,61.57 759.12,61.57 760.35,61.57 760.35,61.57 761.57,61.57 761.57,61.57 762.80,61.57 762.80,61.57 764.03,61.57 764.03,61.57 765.25,61.57 765.25,61.57 766.48,61.57 766.48,61.57 767.71,61.57 767.71,61.57 768.93,61.57 768.93,61.57 770.16,61.57 770.16,61.57 771.39,61.57 771.39,61.57 772.61,61.57 772.61,61.57 773.84,61.57 773.84,61.57 775.07,61.57 775.07,61.57 776.29,61.57 776.29,61.57 777.52,61.57 777.52,61.57 778.75,61.57 778.75,61.57 779.97,61.57 779.97,50.79 781.20,50.79 781.20,50.79 782.43,50.79 782.43,50.79 783.65,50.79 783.65,50.79 784.88,50.79 784.88,50.79 786.11,50.79 786.11,50.79 787.33,50.79 787.33,50.79 788.56,50.79 788.56,50.79 789.79,50.79 789.79,50.79 791.01,50.79 791.01,50.79 792.24,50.79 792.24,50.79 793.47,50.79 793.47,50.79 794.69,50.79 794.69,50.79 795.92,50.79 795.92,50.79 797.15,50.79 797.15,50.79 798.37,50.79 798.37,50.79 799.60,50.79 799.60,40.00 800.83,40.00 800.83,40.00 802.05,40.00 802.05,40.00 803.28,40.00 803.28,40.00 804.51,40.00 804.51,40.00 805.73,40.00 805.73,40.00 806.96,40.00 806.96,40.00 808.19,40.00 808.19,40.00 809.41,40.00 809.41,40.00 810.64,40.00 810.64,40.00 811.87,40.00 811.87,40.00 813.09,40.00 813.09,40.00 814.32,40.00 814.32,40.00 815.55,40.00 815.55,40.00 816.77,40.00 816.77,40.00 818.00,40.00 818.00,40.00" fill="none" stroke="#4b8f29" stroke-width="3"/>
<text x="450.0" y="552" text-anchor="middle" font-size="20" font-family="Arial, sans-serif" fill="#111827">Top displacement (mm)</text>
<text x="24" y="280.0" text-anchor="middle" transform="rotate(-90 24 280.0)" font-size="20" font-family="Arial, sans-serif" fill="#111827">Force magnitude (N)</text>
<text x="880" y="280.0" text-anchor="middle" transform="rotate(90 880 280.0)" font-size="20" font-family="Arial, sans-serif" fill="#111827">Broken bonds</text>
<text x="102" y="64" font-size="18" font-family="Arial, sans-serif" fill="#1b6ca8">Top plate</text>
<text x="212" y="64" font-size="18" font-family="Arial, sans-serif" fill="#d1495b">Bottom plate</text>
<text x="352" y="64" font-size="18" font-family="Arial, sans-serif" fill="#4b8f29">Broken bonds</text>
<text x="72" y="45" text-anchor="end" font-size="17" fill="#30363d">25.39</text>
<text x="72" y="488" text-anchor="end" font-size="17" fill="#30363d">0</text>
<text x="828" y="45" text-anchor="start" font-size="17" fill="#30363d">623</text>
<text x="828" y="488" text-anchor="start" font-size="17" fill="#30363d">0</text>
</svg>
