<svg xmlns="http://www.w3.org/2000/svg" width="900" height="560" viewBox="0 0 900 560">
<rect width="100%" height="100%" fill="white"/>
<text x="450.0" y="26" text-anchor="middle" font-size="22" font-family="Arial, sans-serif" fill="#111827">SP-002 force-displacement and bond breakage</text>
<line x1="82" y1="40.00" x2="818" y2="40.00" stroke="#d9dee2" stroke-width="1"/><line x1="82" y1="129.60" x2="818" y2="129.60" stroke="#d9dee2" stroke-width="1"/><line x1="82" y1="219.20" x2="818" y2="219.20" stroke="#d9dee2" stroke-width="1"/><line x1="82" y1="308.80" x2="818" y2="308.80" stroke="#d9dee2" stroke-width="1"/><line x1="82" y1="398.40" x2="818" y2="398.40" stroke="#d9dee2" stroke-width="1"/><line x1="82" y1="488.00" x2="818" y2="488.00" stroke="#d9dee2" stroke-width="1"/><line x1="82.00" y1="40" x2="82.00" y2="488" stroke="#edf0f2" stroke-width="1"/><text x="82.00" y="526" text-anchor="middle" font-size="18" fill="#30363d">0.000</text><line x1="229.20" y1="40" x2="229.20" y2="488" stroke="#edf0f2" stroke-width="1"/><text x="229.20" y="526" text-anchor="middle" font-size="18" fill="#30363d">0.060</text><line x1="376.40" y1="40" x2="376.40" y2="488" stroke="#edf0f2" stroke-width="1"/><text x="376.40" y="526" text-anchor="middle" font-size="18" fill="#30363d">0.120</text><line x1="523.60" y1="40" x2="523.60" y2="488" stroke="#edf0f2" stroke-width="1"/><text x="523.60" y="526" text-anchor="middle" font-size="18" fill="#30363d">0.180</text><line x1="670.80" y1="40" x2="670.80" y2="488" stroke="#edf0f2" stroke-width="1"/><text x="670.80" y="526" text-anchor="middle" font-size="18" fill="#30363d">0.240</text><line x1="818.00" y1="40" x2="818.00" y2="488" stroke="#edf0f2" stroke-width="1"/><text x="818.00" y="526" text-anchor="middle" font-size="18" fill="#30363d">0.300</text>
<line x1="82" y1="40" x2="82" y2="488" stroke="#111827" stroke-width="1.5"/>
<line x1="82" y1="488" x2="818" y2="488" stroke="#111827" stroke-width="1.5"/>
<line x1="818" y1="40" x2="818" y2="488" stroke="#111827" stroke-width="1.5"/>
<polyline points="82.00,488.00 83.23,488.00 84.45,488.00 85.68,488.00 86.91,488.00 88.13,488.00 89.36,488.00 90.59,488.00 91.81,488.00 93.04,488.00 94.27,488.00 95.49,488.00 96.72,488.00 97.95,488.00 99.17,488.00 100.40,488.00 101.63,488.00 102.85,488.00 104.08,488.00 105.31,488.00 106.53,488.00 107.76,488.00 108.99,488.00 110.21,488.00 111.44,488.00 112.67,488.00 113.89,488.00 115.12,488.00 116.35,488.00 117.57,488.00 118.80,488.00 120.03,488.00 121.25,488.00 122.48,488.00 123.71,488.00 124.93,488.00 126.16,488.00 127.39,488.00 128.61,488.00 129.84,488.00 131.07,488.00 132.29,488.00 133.52,488.00 134.75,488.00 135.97,488.00 137.20,488.00 138.43,488.00 139.65,488.00 140.88,488.00 142.11,488.00 143.33,488.00 144.56,488.00 145.79,488.00 147.01,488.00 148.24,488.00 149.47,488.00 150.69,488.00 151.92,488.00 153.15,488.00 154.37,488.00 155.60,488.00 156.83,488.00 158.05,488.00 159.28,488.00 160.51,488.00 161.73,488.00 162.96,488.00 164.19,488.00 165.41,488.00 166.64,488.00 167.87,488.00 169.09,488.00 170.32,488.00 171.55,488.00 172.77,488.00 174.00,488.00 175.23,488.00 176.45,488.00 177.68,488.00 178.91,488.00 180.13,488.00 181.36,488.00 182.59,488.00 183.81,488.00 185.04,488.00 186.27,488.00 187.49,488.00 188.72,488.00 189.95,488.00 191.17,488.00 192.40,488.00 193.63,488.00 194.85,488.00 196.08,488.00 197.31,488.00 198.53,488.00 199.76,488.00 200.99,488.00 202.21,488.00 203.44,488.00 204.67,488.00 205.89,488.00 207.12,488.00 208.35,488.00 209.57,488.00 210.80,488.00 212.03,488.00 213.25,488.00 214.48,488.00 215.71,488.00 216.93,488.00 218.16,488.00 219.39,488.00 220.61,488.00 221.84,488.00 223.07,488.00 224.29,488.00 225.52,488.00 226.75,488.00 227.97,488.00 229.20,488.00 230.43,488.00 231.65,488.00 232.88,488.00 234.11,488.00 235.33,488.00 236.56,488.00 237.79,488.00 239.01,488.00 240.24,488.00 241.47,488.00 242.69,488.00 243.92,488.00 245.15,488.00 246.37,488.00 247.60,488.00 248.83,488.00 250.05,488.00 251.28,488.00 252.51,488.00 253.73,488.00 254.96,488.00 256.19,488.00 257.41,488.00 258.64,488.00 259.87,488.00 261.09,488.00 262.32,488.00 263.55,488.00 264.77,488.00 266.00,488.00 267.23,488.00 268.45,488.00 269.68,488.00 270.91,488.00 272.13,488.00 273.36,488.00 274.59,488.00 275.81,488.00 277.04,488.00 278.27,488.00 279.49,488.00 280.72,488.00 281.95,488.00 283.17,488.00 284.40,488.00 285.63,488.00 286.85,488.00 288.08,488.00 289.31,488.00 290.53,488.00 291.76,488.00 292.99,488.00 294.21,488.00 295.44,488.00 296.67,488.00 297.89,488.00 299.12,488.00 300.35,488.00 301.57,488.00 302.80,488.00 304.03,488.00 305.25,488.00 306.48,488.00 307.71,488.00 308.93,488.00 310.16,488.00 311.39,488.00 312.61,488.00 313.84,488.00 315.07,488.00 316.29,488.00 317.52,488.00 318.75,488.00 319.97,488.00 321.20,488.00 322.43,488.00 323.65,488.00 324.88,488.00 326.11,488.00 327.33,488.00 328.56,485.98 329.79,482.77 331.01,478.96 332.24,474.74 333.47,470.20 334.69,465.40 335.92,460.37 337.15,455.15 338.37,449.75 339.60,444.20 340.83,438.76 342.05,433.00 343.28,487.77 344.51,486.66 345.73,483.83 346.96,480.78 348.19,477.55 349.41,474.09 350.64,468.56 351.87,461.97 353.09,454.74 354.32,447.04 355.55,469.02 356.77,464.26 358.00,459.78 359.23,455.06 360.45,450.11 361.68,444.99 362.91,487.90 364.13,487.90 365.36,487.58 366.59,486.65 367.81,485.45 369.04,484.06 370.27,482.53 371.49,480.89 372.72,478.61 373.95,475.73 375.17,472.50 376.40,469.00 377.63,465.27 378.85,461.35 380.08,456.60 381.31,450.49 382.53,443.74 383.76,436.51 384.99,429.56 386.21,441.27 387.44,466.05 388.67,470.01 389.89,470.29 391.12,469.71 392.35,468.48 393.57,466.90 394.80,465.12 396.03,463.22 397.25,460.59 398.48,456.17 399.71,451.05 400.93,445.20 402.16,439.05 403.39,432.64 404.61,425.59 405.84,421.54 407.07,438.06 408.29,449.31 409.52,450.61 410.75,448.71 411.97,445.00 413.20,440.61 414.43,435.84 415.65,430.82 416.88,425.60 418.11,420.13 419.33,414.43 420.56,448.03 421.79,431.56 423.01,424.07 424.24,418.54 425.47,413.56 426.69,408.62 427.92,403.47 429.15,398.21 430.37,394.59 431.60,449.51 432.83,440.99 434.05,437.73 435.28,435.69 436.51,433.92 437.73,432.22 438.96,430.54 440.19,428.88 441.41,427.22 442.64,425.57 443.87,423.91 445.09,422.23 446.32,419.89 447.55,416.93 448.77,413.59 450.00,409.97 451.23,406.11 452.45,402.01 453.68,397.69 454.91,393.21 456.13,388.67 457.36,383.98 458.59,379.07 459.81,375.99 461.04,386.73 462.27,393.46 463.49,392.71 464.72,390.55 465.95,388.16 467.17,385.81 468.40,383.61 469.63,381.60 470.85,379.92 472.08,377.32 473.31,373.65 474.53,368.98 475.76,406.83 476.99,435.71 478.21,441.99 479.44,442.14 480.67,440.13 481.89,437.22 483.12,433.81 484.35,430.11 485.57,426.20 486.80,422.12 488.03,417.90 489.25,413.57 490.48,409.14 491.71,404.63 492.93,424.37 494.16,453.55 495.39,459.56 496.61,460.13 497.84,458.85 499.07,456.72 500.29,452.95 501.52,448.15 502.75,442.78 503.97,436.81 505.20,429.44 506.43,421.22 507.65,412.39 508.88,403.08 510.11,393.35 511.33,383.13 512.56,372.55 513.79,361.48 515.01,349.75 516.24,337.66 517.47,339.95 518.69,335.04 519.92,324.10 521.15,314.40 522.37,303.68 523.60,346.00 524.83,347.83 526.05,341.24 527.28,394.93 528.51,405.52 529.73,401.22 530.96,407.11 532.19,432.51 533.41,435.89 534.64,435.22 535.87,432.41 537.09,428.36 538.32,423.59 539.55,418.10 540.77,412.26 542.00,405.84 543.23,398.98 544.45,391.80 545.68,384.32 546.91,376.58 548.13,369.54 549.36,369.61 550.59,366.14 551.81,363.15 553.04,358.47 554.27,351.15 555.49,342.78 556.72,333.48 557.95,323.31 559.17,312.33 560.40,299.93 561.63,286.65 562.85,272.82 564.08,284.49 565.31,306.03 566.53,299.26 567.76,291.45 568.99,283.08 570.21,274.35 571.44,265.28 572.67,255.93 573.89,290.30 575.12,287.45 576.35,286.71 577.57,286.97 578.80,287.19 580.03,287.06 581.25,397.92 582.48,401.54 583.71,407.60 584.93,412.44 586.16,416.65 587.39,420.07 588.61,422.89 589.84,424.95 591.07,424.00 592.29,421.43 593.52,422.91 594.75,432.18 595.97,432.83 597.20,431.22 598.43,428.06 599.65,423.72 600.88,418.66 602.11,413.47 603.33,407.31 604.56,400.29 605.79,393.09 607.01,385.75 608.24,378.29 609.47,370.56 610.69,362.58 611.92,354.43 613.15,346.10 614.37,339.39 615.60,330.38 616.83,320.85 618.05,310.85 619.28,353.07 620.51,341.82 621.73,331.40 622.96,320.48 624.19,309.11 625.41,297.09 626.64,284.56 627.87,271.59 629.09,258.00 630.32,243.55 631.55,272.50 632.77,246.85 634.00,293.98 635.23,329.90 636.45,317.64 637.68,307.64 638.91,353.46 640.13,348.17 641.36,337.44 642.59,326.38 643.81,315.05 645.04,304.05 646.27,311.32 647.49,363.99 648.72,383.53 649.95,385.54 651.17,382.40 652.40,377.15 653.63,370.45 654.85,363.99 656.08,356.19 657.31,380.33 658.53,387.46 659.76,386.74 660.99,383.55 662.21,379.43 663.44,374.73 664.67,368.38 665.89,360.75 667.12,352.65 668.35,344.01 669.57,334.81 670.80,324.97 672.03,313.91 673.25,301.69 674.48,289.07 675.71,276.07 676.93,262.44 678.16,248.93 679.39,234.03 680.61,221.68 681.84,313.49 683.07,299.40 684.29,349.57 685.52,346.30 686.75,339.83 687.97,331.79 689.20,322.84 690.43,313.42 691.65,303.71 692.88,326.19 694.11,316.39 695.33,306.84 696.56,297.65 697.79,288.16 699.01,278.41 700.24,268.43 701.47,258.22 702.69,247.69 703.92,236.98 705.15,226.14 706.37,215.20 707.60,204.15 708.83,192.89 710.05,203.36 711.28,190.51 712.51,197.11 713.73,217.44 714.96,217.58 716.19,215.28 717.41,205.75 718.64,194.25 719.87,180.78 721.09,165.06 722.32,167.54 723.55,183.77 724.77,175.77 726.00,164.42 727.23,151.56 728.45,137.76 729.68,123.23 730.91,107.89 732.13,91.20 733.36,74.26 734.59,56.46 735.81,40.00 737.04,118.23 738.27,255.69 739.49,246.21 740.72,234.50 741.95,219.84 743.17,233.96 744.40,221.92 745.63,207.65 746.85,192.19 748.08,253.26 749.31,269.68 750.53,270.84 751.76,267.20 752.99,263.35 754.21,256.68 755.44,262.86 756.67,264.80 757.89,264.10 759.12,264.76 760.35,256.26 761.57,244.91 762.80,231.76 764.03,217.22 765.25,201.45 766.48,185.85 767.71,286.94 768.93,274.43 770.16,269.58 771.39,260.09 772.61,248.48 773.84,236.10 775.07,223.22 776.29,272.33 777.52,286.71 778.75,275.16 779.97,309.35 781.20,310.78 782.43,316.79 783.65,313.55 784.88,306.10 786.11,297.07 787.33,287.19 788.56,277.01 789.79,266.32 791.01,255.25 792.24,273.05 793.47,264.55 794.69,256.35 795.92,248.04 797.15,239.36 798.37,230.65 799.60,220.64 800.83,209.97 802.05,199.01 803.28,275.33 804.51,269.57 805.73,258.89 806.96,246.99 808.19,234.49 809.41,221.66 810.64,208.55 811.87,236.46 813.09,230.47 814.32,220.03 815.55,208.88 816.77,203.61 818.00,193.53" fill="none" stroke="#1b6ca8" stroke-width="3"/>
<polyline points="82.00,488.00 83.23,488.00 84.45,488.00 85.68,488.00 86.91,488.00 88.13,488.00 89.36,488.00 90.59,488.00 91.81,488.00 93.04,488.00 94.27,488.00 95.49,488.00 96.72,488.00 97.95,488.00 99.17,488.00 100.40,488.00 101.63,488.00 102.85,488.00 104.08,488.00 105.31,488.00 106.53,488.00 107.76,488.00 108.99,488.00 110.21,488.00 111.44,488.00 112.67,488.00 113.89,488.00 115.12,488.00 116.35,488.00 117.57,488.00 118.80,488.00 120.03,488.00 121.25,488.00 122.48,488.00 123.71,488.00 124.93,488.00 126.16,488.00 127.39,488.00 128.61,488.00 129.84,488.00 131.07,488.00 132.29,488.00 133.52,488.00 134.75,488.00 135.97,488.00 137.20,488.00 138.43,488.00 139.65,488.00 140.88,488.00 142.11,488.00 143.33,488.00 144.56,488.00 145.79,488.00 147.01,488.00 148.24,488.00 149.47,488.00 150.69,488.00 151.92,488.00 153.15,488.00 154.37,488.00 155.60,488.00 156.83,488.00 158.05,488.00 159.28,488.00 160.51,488.00 161.73,488.00 162.96,488.00 164.19,488.00 165.41,488.00 166.64,488.00 167.87,488.00 169.09,488.00 170.32,488.00 171.55,488.00 172.77,488.00 174.00,488.00 175.23,488.00 176.45,488.00 177.68,488.00 178.91,488.00 180.13,488.00 181.36,488.00 182.59,488.00 183.81,488.00 185.04,488.00 186.27,488.00 187.49,488.00 188.72,488.00 189.95,488.00 191.17,488.00 192.40,488.00 193.63,488.00 194.85,488.00 196.08,488.00 197.31,488.00 198.53,488.00 199.76,488.00 200.99,488.00 202.21,488.00 203.44,488.00 204.67,488.00 205.89,488.00 207.12,488.00 208.35,488.00 209.57,488.00 210.80,488.00 212.03,488.00 213.25,488.00 214.48,488.00 215.71,488.00 216.93,488.00 218.16,488.00 219.39,488.00 220.61,488.00 221.84,488.00 223.07,488.00 224.29,488.00 225.52,488.00 226.75,488.00 227.97,488.00 229.20,488.00 230.43,488.00 231.65,488.00 232.88,488.00 234.11,488.00 235.33,488.00 236.56,488.00 237.79,488.00 239.01,488.00 240.24,488.00 241.47,488.00 242.69,488.00 243.92,488.00 245.15,488.00 246.37,488.00 247.60,488.00 248.83,488.00 250.05,488.00 251.28,488.00 252.51,488.00 253.73,488.00 254.96,488.00 256.19,488.00 257.41,488.00 258.64,488.00 259.87,488.00 261.09,488.00 262.32,488.00 263.55,488.00 264.77,488.00 266.00,488.00 267.23,488.00 268.45,488.00 269.68,488.00 270.91,488.00 272.13,488.00 273.36,488.00 274.59,488.00 275.81,488.00 277.04,488.00 278.27,488.00 279.49,488.00 280.72,488.00 281.95,488.00 283.17,488.00 284.40,488.00 285.63,488.00 286.85,488.00 288.08,488.00 289.31,488.00 290.53,488.00 291.76,488.00 292.99,488.00 294.21,488.00 295.44,488.00 296.67,488.00 297.89,488.00 299.12,488.00 300.35,488.00 301.57,488.00 302.80,488.00 304.03,488.00 305.25,488.00 306.48,488.00 307.71,488.00 308.93,488.00 310.16,488.00 311.39,488.00 312.61,488.00 313.84,488.00 315.07,488.00 316.29,488.00 317.52,488.00 318.75,488.00 319.97,488.00 321.20,488.00 322.43,488.00 323.65,488.00 324.88,488.00 326.11,488.00 327.33,488.00 328.56,486.84 329.79,484.03 331.01,480.45 332.24,476.38 333.47,471.96 334.69,467.25 335.92,462.31 337.15,457.16 338.37,451.83 339.60,446.34 340.83,440.82 342.05,435.21 343.28,432.45 344.51,483.91 345.73,484.71 346.96,481.99 348.19,478.85 349.41,475.54 350.64,470.81 351.87,464.60 353.09,457.61 354.32,450.09 355.55,463.71 356.77,465.50 358.00,461.49 359.23,456.90 360.45,452.05 361.68,447.00 362.91,459.80 364.13,486.17 365.36,487.73 366.59,487.10 367.81,486.00 369.04,484.68 370.27,483.19 371.49,481.59 372.72,479.58 373.95,476.90 375.17,473.80 376.40,470.39 377.63,466.75 378.85,462.90 380.08,458.58 381.31,452.89 382.53,446.38 383.76,439.33 384.99,432.19 386.21,471.87 387.44,486.17 388.67,480.68 389.89,477.90 391.12,476.16 392.35,474.32 393.57,472.50 394.80,470.52 396.03,468.47 397.25,466.20 398.48,462.42 399.71,457.68 400.93,452.28 402.16,446.35 403.39,440.03 404.61,433.27 405.84,442.56 407.07,479.60 408.29,470.28 409.52,464.70 410.75,460.57 411.97,456.39 413.20,451.89 414.43,447.13 415.65,442.14 416.88,436.83 418.11,431.29 419.33,425.55 420.56,424.09 421.79,434.73 423.01,432.22 424.24,428.22 425.47,423.77 426.69,419.11 427.92,414.18 429.15,409.06 430.37,404.33 431.60,435.21 432.83,444.16 434.05,444.57 435.28,443.34 436.51,441.74 437.73,440.07 438.96,438.39 440.19,436.70 441.41,435.03 442.64,433.35 443.87,431.68 445.09,429.85 446.32,426.82 447.55,423.49 448.77,419.94 450.00,416.20 451.23,412.28 452.45,408.20 453.68,403.90 454.91,399.47 456.13,394.97 457.36,390.39 458.59,385.61 459.81,382.90 461.04,410.23 462.27,404.55 463.49,401.97 464.72,399.74 465.95,397.55 467.17,395.42 468.40,393.41 469.63,391.59 470.85,390.03 472.08,389.03 473.31,385.23 474.53,380.63 475.76,483.52 476.99,472.81 478.21,465.35 479.44,459.65 480.67,454.71 481.89,450.08 483.12,445.59 484.35,441.15 485.57,436.73 486.80,432.30 488.03,427.84 489.25,423.36 490.48,418.83 491.71,414.26 492.93,487.72 494.16,480.55 495.39,475.17 496.61,471.55 497.84,468.64 499.07,465.48 500.29,460.75 501.52,455.49 502.75,449.91 503.97,444.02 505.20,437.05 506.43,428.78 507.65,419.91 508.88,410.58 510.11,400.86 511.33,390.70 512.56,380.14 513.79,369.21 515.01,357.67 516.24,345.67 517.47,360.14 518.69,344.31 519.92,332.71 521.15,324.28 522.37,312.34 523.60,372.58 524.83,359.93 526.05,350.09 527.28,436.59 528.51,418.21 529.73,410.05 530.96,459.68 532.19,451.97 533.41,449.14 534.64,446.75 535.87,443.38 537.09,439.11 538.32,434.13 539.55,428.57 540.77,422.42 542.00,415.89 543.23,408.95 544.45,401.67 545.68,394.11 546.91,386.30 548.13,388.40 549.36,382.60 550.59,380.95 551.81,377.05 553.04,371.61 554.27,363.16 555.49,354.80 556.72,344.60 557.95,333.80 559.17,321.86 560.40,308.79 561.63,295.32 562.85,281.42 564.08,301.03 565.31,312.44 566.53,304.86 567.76,296.98 568.99,288.72 570.21,280.10 571.44,271.15 572.67,261.92 573.89,289.98 575.12,290.04 576.35,289.62 577.57,289.72 578.80,290.21 580.03,290.50 581.25,370.73 582.48,397.54 583.71,407.02 584.93,413.32 586.16,418.18 587.39,422.14 588.61,425.34 589.84,427.86 591.07,428.69 592.29,426.70 593.52,448.88 594.75,440.83 595.97,438.85 597.20,437.16 598.43,434.05 599.65,430.10 600.88,425.97 602.11,421.19 603.33,414.80 604.56,407.75 605.79,400.49 607.01,393.14 608.24,385.63 609.47,377.65 610.69,369.61 611.92,361.42 613.15,353.07 614.37,345.00 615.60,337.32 616.83,328.06 618.05,318.19 619.28,354.79 620.51,349.12 621.73,339.24 622.96,328.44 624.19,317.21 625.41,305.20 626.64,292.92 627.87,280.11 629.09,266.65 630.32,252.17 631.55,250.20 632.77,255.24 634.00,267.88 635.23,317.89 636.45,321.72 637.68,313.68 638.91,368.12 640.13,354.15 641.36,343.35 642.59,332.26 643.81,320.91 645.04,310.86 646.27,371.19 647.49,398.79 648.72,397.30 649.95,394.27 651.17,389.33 652.40,383.96 653.63,377.81 654.85,371.48 656.08,364.02 657.31,409.40 658.53,396.23 659.76,392.89 660.99,390.21 662.21,386.56 663.44,382.22 664.67,376.92 665.89,370.18 667.12,362.40 668.35,353.76 669.57,344.36 670.80,334.28 672.03,322.55 673.25,310.22 674.48,297.77 675.71,284.59 676.93,270.96 678.16,257.73 679.39,242.69 680.61,228.26 681.84,255.39 683.07,338.59 684.29,354.99 685.52,351.60 686.75,346.73 687.97,340.00 689.20,331.84 690.43,322.65 691.65,312.97 692.88,333.08 694.11,325.67 695.33,316.49 696.56,307.09 697.79,297.52 699.01,287.75 700.24,277.78 701.47,267.57 702.69,257.04 703.92,246.35 705.15,235.57 706.37,224.65 707.60,213.62 708.83,202.46 710.05,210.00 711.28,199.94 712.51,222.64 713.73,227.84 714.96,230.16 716.19,226.13 717.41,214.99 718.64,206.27 719.87,189.34 721.09,173.74 722.32,190.99 723.55,197.40 724.77,186.69 726.00,174.73 727.23,161.34 728.45,147.33 729.68,132.72 730.91,117.05 732.13,100.18 733.36,83.49 734.59,65.27 735.81,47.75 737.04,313.79 738.27,270.72 739.49,254.09 740.72,241.89 741.95,227.41 743.17,242.45 744.40,230.06 745.63,216.04 746.85,200.54 748.08,284.52 749.31,284.42 750.53,282.09 751.76,277.72 752.99,274.03 754.21,266.17 755.44,272.90 756.67,269.64 757.89,271.90 759.12,272.06 760.35,264.13 761.57,252.49 762.80,239.11 764.03,224.31 765.25,208.81 766.48,193.19 767.71,236.75 768.93,283.20 770.16,277.89 771.39,267.85 772.61,256.22 773.84,243.80 775.07,230.86 776.29,248.71 777.52,280.18 778.75,279.85 779.97,321.90 781.20,327.55 782.43,328.25 783.65,322.24 784.88,314.05 786.11,304.52 787.33,294.76 788.56,284.54 789.79,273.78 791.01,262.61 792.24,270.77 793.47,268.92 794.69,262.36 795.92,254.43 797.15,246.40 798.37,237.38 799.60,227.21 800.83,216.57 802.05,205.66 803.28,287.09 804.51,276.18 805.73,265.26 806.96,253.32 808.19,240.77 809.41,227.83 810.64,214.64 811.87,244.79 813.09,236.68 814.32,226.87 815.55,215.89 816.77,205.22 818.00,197.46" fill="none" stroke="#d1495b" stroke-width="3"/>
<polyline points="82.00,488.00 83.23,488.00 83.23,488.00 84.45,488.00 84.45,488.00 85.68,488.00 85.68,488.00 86.91,488.00 86.91,488.00 88.13,488.00 88.13,488.00 89.36,488.00 89.36,488.00 90.59,488.00 90.59,488.00 91.81,488.00 91.81,488.00 93.04,488.00 93.04,488.00 94.27,488.00 94.27,488.00 95.49,488.00 95.49,488.00 96.72,488.00 96.72,488.00 97.95,488.00 97.95,488.00 99.17,488.00 99.17,488.00 100.40,488.00 100.40,488.00 101.63,488.00 101.63,488.00 102.85,488.00 102.85,488.00 104.08,488.00 104.08,488.00 105.31,488.00 105.31,488.00 106.53,488.00 106.53,488.00 107.76,488.00 107.76,488.00 108.99,488.00 108.99,488.00 110.21,488.00 110.21,488.00 111.44,488.00 111.44,488.00 112.67,488.00 112.67,488.00 113.89,488.00 113.89,488.00 115.12,488.00 115.12,488.00 116.35,488.00 116.35,488.00 117.57,488.00 117.57,488.00 118.80,488.00 118.80,488.00 120.03,488.00 120.03,488.00 121.25,488.00 121.25,488.00 122.48,488.00 122.48,488.00 123.71,488.00 123.71,488.00 124.93,488.00 124.93,488.00 126.16,488.00 126.16,488.00 127.39,488.00 127.39,488.00 128.61,488.00 128.61,488.00 129.84,488.00 129.84,488.00 131.07,488.00 131.07,488.00 132.29,488.00 132.29,488.00 133.52,488.00 133.52,488.00 134.75,488.00 134.75,488.00 135.97,488.00 135.97,488.00 137.20,488.00 137.20,488.00 138.43,488.00 138.43,488.00 139.65,488.00 139.65,488.00 140.88,488.00 140.88,488.00 142.11,488.00 142.11,488.00 143.33,488.00 143.33,488.00 144.56,488.00 144.56,488.00 145.79,488.00 145.79,488.00 147.01,488.00 147.01,488.00 148.24,488.00 148.24,488.00 149.47,488.00 149.47,488.00 150.69,488.00 150.69,488.00 151.92,488.00 151.92,488.00 153.15,488.00 153.15,488.00 154.37,488.00 154.37,488.00 155.60,488.00 155.60,488.00 156.83,488.00 156.83,488.00 158.05,488.00 158.05,488.00 159.28,488.00 159.28,488.00 160.51,488.00 160.51,488.00 161.73,488.00 161.73,488.00 162.96,488.00 162.96,488.00 164.19,488.00 164.19,488.00 165.41,488.00 165.41,488.00 166.64,488.00 166.64,488.00 167.87,488.00 167.87,488.00 169.09,488.00 169.09,488.00 170.32,488.00 170.32,488.00 171.55,488.00 171.55,488.00 172.77,488.00 172.77,488.00 174.00,488.00 174.00,488.00 175.23,488.00 175.23,488.00 176.45,488.00 176.45,488.00 177.68,488.00 177.68,488.00 178.91,488.00 178.91,488.00 180.13,488.00 180.13,488.00 181.36,488.00 181.36,488.00 182.59,488.00 182.59,488.00 183.81,488.00 183.81,488.00 185.04,488.00 185.04,488.00 186.27,488.00 186.27,488.00 187.49,488.00 187.49,488.00 188.72,488.00 188.72,488.00 189.95,488.00 189.95,488.00 191.17,488.00 191.17,488.00 192.40,488.00 192.40,488.00 193.63,488.00 193.63,488.00 194.85,488.00 194.85,488.00 196.08,488.00 196.08,488.00 197.31,488.00 197.31,488.00 198.53,488.00 198.53,488.00 199.76,488.00 199.76,488.00 200.99,488.00 200.99,488.00 202.21,488.00 202.21,488.00 203.44,488.00 203.44,488.00 204.67,488.00 204.67,488.00 205.89,488.00 205.89,488.00 207.12,488.00 207.12,488.00 208.35,488.00 208.35,488.00 209.57,488.00 209.57,488.00 210.80,488.00 210.80,488.00 212.03,488.00 212.03,488.00 213.25,488.00 213.25,488.00 214.48,488.00 214.48,488.00 215.71,488.00 215.71,488.00 216.93,488.00 216.93,488.00 218.16,488.00 218.16,488.00 219.39,488.00 219.39,488.00 220.61,488.00 220.61,488.00 221.84,488.00 221.84,488.00 223.07,488.00 223.07,488.00 224.29,488.00 224.29,488.00 225.52,488.00 225.52,488.00 226.75,488.00 226.75,488.00 227.97,488.00 227.97,488.00 229.20,488.00 229.20,488.00 230.43,488.00 230.43,488.00 231.65,488.00 231.65,488.00 232.88,488.00 232.88,488.00 234.11,488.00 234.11,488.00 235.33,488.00 235.33,488.00 236.56,488.00 236.56,488.00 237.79,488.00 237.79,488.00 239.01,488.00 239.01,488.00 240.24,488.00 240.24,488.00 241.47,488.00 241.47,488.00 242.69,488.00 242.69,488.00 243.92,488.00 243.92,488.00 245.15,488.00 245.15,488.00 246.37,488.00 246.37,488.00 247.60,488.00 247.60,488.00 248.83,488.00 248.83,488.00 250.05,488.00 250.05,488.00 251.28,488.00 251.28,488.00 252.51,488.00 252.51,488.00 253.73,488.00 253.73,488.00 254.96,488.00 254.96,488.00 256.19,488.00 256.19,488.00 257.41,488.00 257.41,488.00 258.64,488.00 258.64,488.00 259.87,488.00 259.87,488.00 261.09,488.00 261.09,488.00 262.32,488.00 262.32,488.00 263.55,488.00 263.55,488.00 264.77,488.00 264.77,488.00 266.00,488.00 266.00,488.00 267.23,488.00 267.23,488.00 268.45,488.00 268.45,488.00 269.68,488.00 269.68,488.00 270.91,488.00 270.91,488.00 272.13,488.00 272.13,488.00 273.36,488.00 273.36,488.00 274.59,488.00 274.59,488.00 275.81,488.00 275.81,488.00 277.04,488.00 277.04,488.00 278.27,488.00 278.27,488.00 279.49,488.00 279.49,488.00 280.72,488.00 280.72,488.00 281.95,488.00 281.95,488.00 283.17,488.00 283.17,488.00 284.40,488.00 284.40,488.00 285.63,488.00 285.63,488.00 286.85,488.00 286.85,488.00 288.08,488.00 288.08,488.00 289.31,488.00 289.31,488.00 290.53,488.00 290.53,488.00 291.76,488.00 291.76,488.00 292.99,488.00 292.99,488.00 294.21,488.00 294.21,488.00 295.44,488.00 295.44,488.00 296.67,488.00 296.67,488.00 297.89,488.00 297.89,488.00 299.12,488.00 299.12,488.00 300.35,488.00 300.35,488.00 301.57,488.00 301.57,488.00 302.80,488.00 302.80,488.00 304.03,488.00 304.03,488.00 305.25,488.00 305.25,488.00 306.48,488.00 306.48,488.00 307.71,488.00 307.71,488.00 308.93,488.00 308.93,488.00 310.16,488.00 310.16,488.00 311.39,488.00 311.39,488.00 312.61,488.00 312.61,488.00 313.84,488.00 313.84,488.00 315.07,488.00 315.07,488.00 316.29,488.00 316.29,488.00 317.52,488.00 317.52,488.00 318.75,488.00 318.75,488.00 319.97,488.00 319.97,488.00 321.20,488.00 321.20,488.00 322.43,488.00 322.43,488.00 323.65,488.00 323.65,488.00 324.88,488.00 324.88,488.00 326.11,488.00 326.11,488.00 327.33,488.00 327.33,488.00 328.56,488.00 328.56,488.00 329.79,488.00 329.79,488.00 331.01,488.00 331.01,488.00 332.24,488.00 332.24,488.00 333.47,488.00 333.47,488.00 334.69,488.00 334.69,488.00 335.92,488.00 335.92,488.00 337.15,488.00 337.15,488.00 338.37,488.00 338.37,488.00 339.60,488.00 339.60,488.00 340.83,488.00 340.83,487.44 342.05,487.44 342.05,487.44 343.28,487.44 343.28,480.76 344.51,480.76 344.51,480.76 345.73,480.76 345.73,480.76 346.96,480.76 346.96,480.76 348.19,480.76 348.19,480.76 349.41,480.76 349.41,480.76 350.64,480.76 350.64,480.76 351.87,480.76 351.87,480.76 353.09,480.76 353.09,480.76 354.32,480.76 354.32,480.76 355.55,480.76 355.55,476.30 356.77,476.30 356.77,476.30 358.00,476.30 358.00,476.30 359.23,476.30 359.23,476.30 360.45,476.30 360.45,476.30 361.68,476.30 361.68,475.74 362.91,475.74 362.91,470.17 364.13,470.17 364.13,470.17 365.36,470.17 365.36,470.17 366.59,470.17 366.59,470.17 367.81,470.17 367.81,470.17 369.04,470.17 369.04,470.17 370.27,470.17 370.27,470.17 371.49,470.17 371.49,470.17 372.72,470.17 372.72,470.17 373.95,470.17 373.95,470.17 375.17,470.17 375.17,470.17 376.40,470.17 376.40,470.17 377.63,470.17 377.63,470.17 378.85,470.17 378.85,470.17 380.08,470.17 380.08,470.17 381.31,470.17 381.31,470.17 382.53,470.17 382.53,470.17 383.76,470.17 383.76,470.17 384.99,470.17 384.99,469.05 386.21,469.05 386.21,456.24 387.44,456.24 387.44,456.24 388.67,456.24 388.67,456.24 389.89,456.24 389.89,456.24 391.12,456.24 391.12,456.24 392.35,456.24 392.35,456.24 393.57,456.24 393.57,456.24 394.80,456.24 394.80,456.24 396.03,456.24 396.03,456.24 397.25,456.24 397.25,456.24 398.48,456.24 398.48,456.24 399.71,456.24 399.71,456.24 400.93,456.24 400.93,456.24 402.16,456.24 402.16,456.24 403.39,456.24 403.39,456.24 404.61,456.24 404.61,456.24 405.84,456.24 405.84,456.24 407.07,456.24 407.07,451.78 408.29,451.78 408.29,451.78 409.52,451.78 409.52,451.78 410.75,451.78 410.75,451.78 411.97,451.78 411.97,451.78 413.20,451.78 413.20,451.78 414.43,451.78 414.43,451.78 415.65,451.78 415.65,451.78 416.88,451.78 416.88,451.78 418.11,451.78 418.11,451.78 419.33,451.78 419.33,451.78 420.56,451.78 420.56,445.65 421.79,445.65 421.79,445.65 423.01,445.65 423.01,445.65 424.24,445.65 424.24,445.65 425.47,445.65 425.47,445.65 426.69,445.65 426.69,445.65 427.92,445.65 427.92,445.65 429.15,445.65 429.15,445.65 430.37,445.65 430.37,445.09 431.60,445.09 431.60,438.41 432.83,438.41 432.83,438.41 434.05,438.41 434.05,438.41 435.28,438.41 435.28,438.41 436.51,438.41 436.51,438.41 437.73,438.41 437.73,438.41 438.96,438.41 438.96,438.41 440.19,438.41 440.19,438.41 441.41,438.41 441.41,438.41 442.64,438.41 442.64,438.41 443.87,438.41 443.87,438.41 445.09,438.41 445.09,438.41 446.32,438.41 446.32,438.41 447.55,438.41 447.55,438.41 448.77,438.41 448.77,438.41 450.00,438.41 450.00,438.41 451.23,438.41 451.23,438.41 452.45,438.41 452.45,438.41 453.68,438.41 453.68,438.41 454.91,438.41 454.91,438.41 456.13,438.41 456.13,438.41 457.36,438.41 457.36,438.41 458.59,438.41 458.59,438.41 459.81,438.41 459.81,437.29 461.04,437.29 461.04,431.72 462.27,431.72 462.27,431.72 463.49,431.72 463.49,431.72 464.72,431.72 464.72,431.72 465.95,431.72 465.95,431.72 467.17,431.72 467.17,431.72 468.40,431.72 468.40,431.72 469.63,431.72 469.63,431.72 470.85,431.72 470.85,431.72 472.08,431.72 472.08,431.16 473.31,431.16 473.31,431.16 474.53,431.16 474.53,431.16 475.76,431.16 475.76,416.12 476.99,416.12 476.99,416.12 478.21,416.12 478.21,416.12 479.44,416.12 479.44,416.12 480.67,416.12 480.67,416.12 481.89,416.12 481.89,416.12 483.12,416.12 483.12,416.12 484.35,416.12 484.35,416.12 485.57,416.12 485.57,416.12 486.80,416.12 486.80,416.12 488.03,416.12 488.03,416.12 489.25,416.12 489.25,416.12 490.48,416.12 490.48,416.12 491.71,416.12 491.71,416.12 492.93,416.12 492.93,407.76 494.16,407.76 494.16,407.76 495.39,407.76 495.39,407.76 496.61,407.76 496.61,407.76 497.84,407.76 497.84,407.76 499.07,407.76 499.07,407.76 500.29,407.76 500.29,407.76 501.52,407.76 501.52,407.76 502.75,407.76 502.75,407.76 503.97,407.76 503.97,407.76 505.20,407.76 505.20,407.76 506.43,407.76 506.43,407.76 507.65,407.76 507.65,407.76 508.88,407.76 508.88,407.76 510.11,407.76 510.11,407.76 511.33,407.76 511.33,407.76 512.56,407.76 512.56,407.76 513.79,407.76 513.79,407.76 515.01,407.76 515.01,407.76 516.24,407.76 516.24,407.76 517.47,407.76 517.47,402.19 518.69,402.19 518.69,402.19 519.92,402.19 519.92,402.19 521.15,402.19 521.15,401.07 522.37,401.07 522.37,401.07 523.60,401.07 523.60,393.83 524.83,393.83 524.83,393.83 526.05,393.83 526.05,393.83 527.28,393.83 527.28,377.11 528.51,377.11 528.51,377.11 529.73,377.11 529.73,377.11 530.96,377.11 530.96,370.43 532.19,370.43 532.19,370.43 533.41,370.43 533.41,370.43 534.64,370.43 534.64,370.43 535.87,370.43 535.87,370.43 537.09,370.43 537.09,370.43 538.32,370.43 538.32,370.43 539.55,370.43 539.55,370.43 540.77,370.43 540.77,370.43 542.00,370.43 542.00,370.43 543.23,370.43 543.23,370.43 544.45,370.43 544.45,370.43 545.68,370.43 545.68,370.43 546.91,370.43 546.91,370.43 548.13,370.43 548.13,368.76 549.36,368.76 549.36,368.76 550.59,368.76 550.59,367.64 551.81,367.64 551.81,367.64 553.04,367.64 553.04,367.08 554.27,367.08 554.27,367.08 555.49,367.08 555.49,366.53 556.72,366.53 556.72,366.53 557.95,366.53 557.95,366.53 559.17,366.53 559.17,366.53 560.40,366.53 560.40,366.53 561.63,366.53 561.63,366.53 562.85,366.53 562.85,366.53 564.08,366.53 564.08,358.73 565.31,358.73 565.31,353.71 566.53,353.71 566.53,353.71 567.76,353.71 567.76,353.71 568.99,353.71 568.99,353.71 570.21,353.71 570.21,353.71 571.44,353.71 571.44,353.71 572.67,353.71 572.67,353.71 573.89,353.71 573.89,344.80 575.12,344.80 575.12,344.80 576.35,344.80 576.35,344.80 577.57,344.80 577.57,344.80 578.80,344.80 578.80,344.80 580.03,344.80 580.03,344.80 581.25,344.80 581.25,326.97 582.48,326.97 582.48,326.97 583.71,326.97 583.71,326.97 584.93,326.97 584.93,326.97 586.16,326.97 586.16,326.97 587.39,326.97 587.39,326.97 588.61,326.97 588.61,326.97 589.84,326.97 589.84,326.97 591.07,326.97 591.07,326.97 592.29,326.97 592.29,326.97 593.52,326.97 593.52,321.95 594.75,321.95 594.75,321.95 595.97,321.95 595.97,321.95 597.20,321.95 597.20,321.95 598.43,321.95 598.43,321.95 599.65,321.95 599.65,321.95 600.88,321.95 600.88,321.95 602.11,321.95 602.11,321.95 603.33,321.95 603.33,321.95 604.56,321.95 604.56,321.95 605.79,321.95 605.79,321.95 607.01,321.95 607.01,321.95 608.24,321.95 608.24,321.95 609.47,321.95 609.47,321.95 610.69,321.95 610.69,321.95 611.92,321.95 611.92,321.95 613.15,321.95 613.15,321.95 614.37,321.95 614.37,321.39 615.60,321.39 615.60,321.39 616.83,321.39 616.83,321.39 618.05,321.39 618.05,321.39 619.28,321.39 619.28,313.59 620.51,313.59 620.51,313.59 621.73,313.59 621.73,313.59 622.96,313.59 622.96,313.59 624.19,313.59 624.19,313.59 625.41,313.59 625.41,313.59 626.64,313.59 626.64,313.59 627.87,313.59 627.87,313.59 629.09,313.59 629.09,313.59 630.32,313.59 630.32,313.59 631.55,313.59 631.55,305.79 632.77,305.79 632.77,305.79 634.00,305.79 634.00,297.43 635.23,297.43 635.23,290.75 636.45,290.75 636.45,290.75 637.68,290.75 637.68,290.75 638.91,290.75 638.91,278.49 640.13,278.49 640.13,278.49 641.36,278.49 641.36,278.49 642.59,278.49 642.59,278.49 643.81,278.49 643.81,278.49 645.04,278.49 645.04,277.93 646.27,277.93 646.27,270.13 647.49,270.13 647.49,264.00 648.72,264.00 648.72,264.00 649.95,264.00 649.95,264.00 651.17,264.00 651.17,264.00 652.40,264.00 652.40,264.00 653.63,264.00 653.63,264.00 654.85,264.00 654.85,263.44 656.08,263.44 656.08,263.44 657.31,263.44 657.31,256.20 658.53,256.20 658.53,256.20 659.76,256.20 659.76,256.20 660.99,256.20 660.99,256.20 662.21,256.20 662.21,256.20 663.44,256.20 663.44,256.20 664.67,256.20 664.67,256.20 665.89,256.20 665.89,256.20 667.12,256.20 667.12,256.20 668.35,256.20 668.35,256.20 669.57,256.20 669.57,256.20 670.80,256.20 670.80,256.20 672.03,256.20 672.03,256.20 673.25,256.20 673.25,256.20 674.48,256.20 674.48,256.20 675.71,256.20 675.71,256.20 676.93,256.20 676.93,256.20 678.16,256.20 678.16,255.64 679.39,255.64 679.39,255.64 680.61,255.64 680.61,253.97 681.84,253.97 681.84,237.81 683.07,237.81 683.07,228.90 684.29,228.90 684.29,225.00 685.52,225.00 685.52,225.00 686.75,225.00 686.75,225.00 687.97,225.00 687.97,225.00 689.20,225.00 689.20,225.00 690.43,225.00 690.43,225.00 691.65,225.00 691.65,225.00 692.88,225.00 692.88,218.87 694.11,218.87 694.11,218.87 695.33,218.87 695.33,218.87 696.56,218.87 696.56,218.87 697.79,218.87 697.79,218.87 699.01,218.87 699.01,218.87 700.24,218.87 700.24,218.87 701.47,218.87 701.47,218.87 702.69,218.87 702.69,218.87 703.92,218.87 703.92,218.87 705.15,218.87 705.15,218.87 706.37,218.87 706.37,218.87 707.60,218.87 707.60,218.87 708.83,218.87 708.83,218.87 710.05,218.87 710.05,213.85 711.28,213.85 711.28,213.85 712.51,213.85 712.51,203.26 713.73,203.26 713.73,203.26 714.96,203.26 714.96,203.26 716.19,203.26 716.19,203.26 717.41,203.26 717.41,203.26 718.64,203.26 718.64,202.71 719.87,202.71 719.87,202.71 721.09,202.71 721.09,202.71 722.32,202.71 722.32,195.46 723.55,195.46 723.55,191.56 724.77,191.56 724.77,191.56 726.00,191.56 726.00,191.56 727.23,191.56 727.23,191.56 728.45,191.56 728.45,191.56 729.68,191.56 729.68,191.56 730.91,191.56 730.91,191.56 732.13,191.56 732.13,191.56 733.36,191.56 733.36,191.00 734.59,191.00 734.59,191.00 735.81,191.00 735.81,190.45 737.04,190.45 737.04,148.66 738.27,148.66 738.27,148.66 739.49,148.66 739.49,148.66 740.72,148.66 740.72,147.54 741.95,147.54 741.95,147.54 743.17,147.54 743.17,139.74 744.40,139.74 744.40,139.74 745.63,139.74 745.63,139.74 746.85,139.74 746.85,139.74 748.08,139.74 748.08,126.37 749.31,126.37 749.31,126.37 750.53,126.37 750.53,126.37 751.76,126.37 751.76,125.81 752.99,125.81 752.99,125.25 754.21,125.25 754.21,125.25 755.44,125.25 755.44,123.02 756.67,123.02 756.67,121.35 757.89,121.35 757.89,119.12 759.12,119.12 759.12,116.90 760.35,116.90 760.35,116.34 761.57,116.34 761.57,116.34 762.80,116.34 762.80,116.34 764.03,116.34 764.03,116.34 765.25,116.34 765.25,116.34 766.48,116.34 766.48,115.78 767.71,115.78 767.71,99.62 768.93,99.62 768.93,99.62 770.16,99.62 770.16,99.62 771.39,99.62 771.39,99.62 772.61,99.62 772.61,99.62 773.84,99.62 773.84,99.62 775.07,99.62 775.07,99.62 776.29,99.62 776.29,89.03 777.52,89.03 777.52,82.91 778.75,82.91 778.75,82.91 779.97,82.91 779.97,73.99 781.20,73.99 781.20,73.99 782.43,73.99 782.43,73.99 783.65,73.99 783.65,73.99 784.88,73.99 784.88,73.99 786.11,73.99 786.11,73.99 787.33,73.99 787.33,73.99 788.56,73.99 788.56,73.99 789.79,73.99 789.79,73.99 791.01,73.99 791.01,73.99 792.24,73.99 792.24,67.86 793.47,67.86 793.47,67.86 794.69,67.86 794.69,67.86 795.92,67.86 795.92,67.86 797.15,67.86 797.15,67.30 798.37,67.30 798.37,66.75 799.60,66.75 799.60,66.75 800.83,66.75 800.83,66.75 802.05,66.75 802.05,66.75 803.28,66.75 803.28,55.04 804.51,55.04 804.51,55.04 805.73,55.04 805.73,55.04 806.96,55.04 806.96,55.04 808.19,55.04 808.19,55.04 809.41,55.04 809.41,55.04 810.64,55.04 810.64,55.04 811.87,55.04 811.87,43.34 813.09,43.34 813.09,43.34 814.32,43.34 814.32,43.34 815.55,43.34 815.55,43.34 816.77,43.34 816.77,40.00 818.00,40.00 818.00,40.00" fill="none" stroke="#4b8f29" stroke-width="3"/>
<text x="450.0" y="552" text-anchor="middle" font-size="20" font-family="Arial, sans-serif" fill="#111827">Top displacement (mm)</text>
<text x="24" y="280.0" text-anchor="middle" transform="rotate(-90 24 280.0)" font-size="20" font-family="Arial, sans-serif" fill="#111827">Force magnitude (N)</text>
<text x="880" y="280.0" text-anchor="middle" transform="rotate(90 880 280.0)" font-size="20" font-family="Arial, sans-serif" fill="#111827">Broken bonds</text>
<text x="102" y="64" font-size="18" font-family="Arial, sans-serif" fill="#1b6ca8">Top plate</text>
<text x="212" y="64" font-size="18" font-family="Arial, sans-serif" fill="#d1495b">Bottom plate</text>
<text x="352" y="64" font-size="18" font-family="Arial, sans-serif" fill="#4b8f29">Broken bonds</text>
<text x="72" y="45" text-anchor="end" font-size="17" fill="#30363d">27.37</text>
<text x="72" y="488" text-anchor="end" font-size="17" fill="#30363d">0</text>
<text x="828" y="45" text-anchor="start" font-size="17" fill="#30363d">804</text>
<text x="828" y="488" text-anchor="start" font-size="17" fill="#30363d">0</text>
</svg>
