<svg xmlns="http://www.w3.org/2000/svg" width="900" height="560" viewBox="0 0 900 560">
<rect width="100%" height="100%" fill="white"/>
<text x="450.0" y="26" text-anchor="middle" font-size="22" font-family="Arial, sans-serif" fill="#111827">SP-002 force-displacement and bond breakage</text>
<line x1="82" y1="40.00" x2="818" y2="40.00" stroke="#d9dee2" stroke-width="1"/><line x1="82" y1="129.60" x2="818" y2="129.60" stroke="#d9dee2" stroke-width="1"/><line x1="82" y1="219.20" x2="818" y2="219.20" stroke="#d9dee2" stroke-width="1"/><line x1="82" y1="308.80" x2="818" y2="308.80" stroke="#d9dee2" stroke-width="1"/><line x1="82" y1="398.40" x2="818" y2="398.40" stroke="#d9dee2" stroke-width="1"/><line x1="82" y1="488.00" x2="818" y2="488.00" stroke="#d9dee2" stroke-width="1"/><line x1="82.00" y1="40" x2="82.00" y2="488" stroke="#edf0f2" stroke-width="1"/><text x="82.00" y="526" text-anchor="middle" font-size="18" fill="#30363d">0.000</text><line x1="229.20" y1="40" x2="229.20" y2="488" stroke="#edf0f2" stroke-width="1"/><text x="229.20" y="526" text-anchor="middle" font-size="18" fill="#30363d">0.036</text><line x1="376.40" y1="40" x2="376.40" y2="488" stroke="#edf0f2" stroke-width="1"/><text x="376.40" y="526" text-anchor="middle" font-size="18" fill="#30363d">0.072</text><line x1="523.60" y1="40" x2="523.60" y2="488" stroke="#edf0f2" stroke-width="1"/><text x="523.60" y="526" text-anchor="middle" font-size="18" fill="#30363d">0.108</text><line x1="670.80" y1="40" x2="670.80" y2="488" stroke="#edf0f2" stroke-width="1"/><text x="670.80" y="526" text-anchor="middle" font-size="18" fill="#30363d">0.144</text><line x1="818.00" y1="40" x2="818.00" y2="488" stroke="#edf0f2" stroke-width="1"/><text x="818.00" y="526" text-anchor="middle" font-size="18" fill="#30363d">0.180</text>
<line x1="82" y1="40" x2="82" y2="488" stroke="#111827" stroke-width="1.5"/>
<line x1="82" y1="488" x2="818" y2="488" stroke="#111827" stroke-width="1.5"/>
<line x1="818" y1="40" x2="818" y2="488" stroke="#111827" stroke-width="1.5"/>
<polyline points="82.00,488.00 82.61,488.00 83.23,488.00 83.84,488.00 84.45,488.00 85.07,488.00 85.68,488.00 86.29,488.00 86.91,488.00 87.52,488.00 88.13,488.00 88.75,488.00 89.36,488.00 89.97,488.00 90.59,488.00 91.20,488.00 91.81,488.00 92.43,488.00 93.04,488.00 93.65,488.00 94.27,488.00 94.88,488.00 95.49,488.00 96.11,488.00 96.72,488.00 97.33,488.00 97.95,488.00 98.56,488.00 99.17,488.00 99.79,488.00 100.40,488.00 101.01,488.00 101.63,488.00 102.24,488.00 102.85,488.00 103.47,488.00 104.08,488.00 104.69,488.00 105.31,488.00 105.92,488.00 106.53,488.00 107.15,488.00 107.76,488.00 108.37,488.00 108.99,488.00 109.60,488.00 110.21,488.00 110.83,488.00 111.44,488.00 112.05,488.00 112.67,488.00 113.28,488.00 113.89,488.00 114.51,488.00 115.12,488.00 115.73,488.00 116.35,488.00 116.96,488.00 117.57,488.00 118.19,488.00 118.80,488.00 119.41,488.00 120.03,488.00 120.64,488.00 121.25,488.00 121.87,488.00 122.48,488.00 123.09,488.00 123.71,488.00 124.32,488.00 124.93,488.00 125.55,488.00 126.16,488.00 126.77,488.00 127.39,488.00 128.00,488.00 128.61,488.00 129.23,488.00 129.84,488.00 130.45,488.00 131.07,488.00 131.68,488.00 132.29,488.00 132.91,488.00 133.52,488.00 134.13,488.00 134.75,488.00 135.36,488.00 135.97,488.00 136.59,488.00 137.20,488.00 137.81,488.00 138.43,488.00 139.04,488.00 139.65,488.00 140.27,488.00 140.88,488.00 141.49,488.00 142.11,488.00 142.72,488.00 143.33,488.00 143.95,488.00 144.56,488.00 145.17,488.00 145.79,488.00 146.40,488.00 147.01,488.00 147.63,488.00 148.24,488.00 148.85,488.00 149.47,488.00 150.08,488.00 150.69,488.00 151.31,488.00 151.92,488.00 152.53,488.00 153.15,488.00 153.76,488.00 154.37,488.00 154.99,488.00 155.60,488.00 156.21,488.00 156.83,488.00 157.44,488.00 158.05,488.00 158.67,488.00 159.28,488.00 159.89,488.00 160.51,488.00 161.12,488.00 161.73,488.00 162.35,488.00 162.96,488.00 163.57,488.00 164.19,488.00 164.80,488.00 165.41,488.00 166.03,488.00 166.64,488.00 167.25,488.00 167.87,488.00 168.48,488.00 169.09,488.00 169.71,488.00 170.32,488.00 170.93,488.00 171.55,488.00 172.16,488.00 172.77,488.00 173.39,488.00 174.00,488.00 174.61,488.00 175.23,488.00 175.84,488.00 176.45,488.00 177.07,488.00 177.68,488.00 178.29,488.00 178.91,488.00 179.52,488.00 180.13,488.00 180.75,488.00 181.36,488.00 181.97,488.00 182.59,488.00 183.20,488.00 183.81,488.00 184.43,488.00 185.04,488.00 185.65,488.00 186.27,488.00 186.88,488.00 187.49,488.00 188.11,488.00 188.72,488.00 189.33,488.00 189.95,488.00 190.56,488.00 191.17,488.00 191.79,488.00 192.40,488.00 193.01,488.00 193.63,488.00 194.24,488.00 194.85,488.00 195.47,488.00 196.08,488.00 196.69,488.00 197.31,488.00 197.92,488.00 198.53,488.00 199.15,488.00 199.76,488.00 200.37,488.00 200.99,488.00 201.60,488.00 202.21,488.00 202.83,488.00 203.44,488.00 204.05,488.00 204.67,488.00 205.28,488.00 205.89,488.00 206.51,488.00 207.12,488.00 207.73,488.00 208.35,488.00 208.96,488.00 209.57,488.00 210.19,488.00 210.80,488.00 211.41,488.00 212.03,488.00 212.64,488.00 213.25,488.00 213.87,488.00 214.48,488.00 215.09,488.00 215.71,488.00 216.32,488.00 216.93,488.00 217.55,488.00 218.16,488.00 218.77,488.00 219.39,488.00 220.00,488.00 220.61,488.00 221.23,488.00 221.84,488.00 222.45,488.00 223.07,488.00 223.68,488.00 224.29,488.00 224.91,488.00 225.52,488.00 226.13,488.00 226.75,488.00 227.36,488.00 227.97,488.00 228.59,488.00 229.20,488.00 229.81,488.00 230.43,488.00 231.04,488.00 231.65,488.00 232.27,488.00 232.88,488.00 233.49,488.00 234.11,488.00 234.72,488.00 235.33,488.00 235.95,488.00 236.56,488.00 237.17,488.00 237.79,488.00 238.40,488.00 239.01,488.00 239.63,488.00 240.24,488.00 240.85,488.00 241.47,488.00 242.08,488.00 242.69,488.00 243.31,488.00 243.92,488.00 244.53,488.00 245.15,488.00 245.76,488.00 246.37,488.00 246.99,488.00 247.60,488.00 248.21,488.00 248.83,488.00 249.44,488.00 250.05,488.00 250.67,488.00 251.28,488.00 251.89,488.00 252.51,488.00 253.12,488.00 253.73,488.00 254.35,488.00 254.96,488.00 255.57,488.00 256.19,488.00 256.80,488.00 257.41,488.00 258.03,488.00 258.64,488.00 259.25,488.00 259.87,488.00 260.48,488.00 261.09,488.00 261.71,488.00 262.32,488.00 262.93,488.00 263.55,488.00 264.16,488.00 264.77,488.00 265.39,488.00 266.00,488.00 266.61,488.00 267.23,488.00 267.84,488.00 268.45,488.00 269.07,488.00 269.68,488.00 270.29,488.00 270.91,488.00 271.52,488.00 272.13,488.00 272.75,488.00 273.36,488.00 273.97,488.00 274.59,488.00 275.20,488.00 275.81,488.00 276.43,488.00 277.04,488.00 277.65,488.00 278.27,488.00 278.88,488.00 279.49,488.00 280.11,488.00 280.72,488.00 281.33,488.00 281.95,488.00 282.56,488.00 283.17,488.00 283.79,488.00 284.40,488.00 285.01,488.00 285.63,488.00 286.24,488.00 286.85,488.00 287.47,488.00 288.08,488.00 288.69,488.00 289.31,488.00 289.92,488.00 290.53,488.00 291.15,488.00 291.76,488.00 292.37,488.00 292.99,488.00 293.60,488.00 294.21,488.00 294.83,488.00 295.44,488.00 296.05,488.00 296.67,488.00 297.28,488.00 297.89,488.00 298.51,488.00 299.12,488.00 299.73,488.00 300.35,488.00 300.96,488.00 301.57,488.00 302.19,488.00 302.80,488.00 303.41,488.00 304.03,488.00 304.64,488.00 305.25,488.00 305.87,488.00 306.48,488.00 307.09,488.00 307.71,488.00 308.32,488.00 308.93,488.00 309.55,488.00 310.16,488.00 310.77,488.00 311.39,488.00 312.00,488.00 312.61,488.00 313.23,488.00 313.84,488.00 314.45,488.00 315.07,488.00 315.68,488.00 316.29,488.00 316.91,488.00 317.52,488.00 318.13,488.00 318.75,488.00 319.36,488.00 319.97,488.00 320.59,488.00 321.20,488.00 321.81,488.00 322.43,488.00 323.04,488.00 323.65,488.00 324.27,488.00 324.88,488.00 325.49,488.00 326.11,488.00 326.72,488.00 327.33,488.00 327.95,488.00 328.56,488.00 329.17,488.00 329.79,488.00 330.40,488.00 331.01,488.00 331.63,488.00 332.24,488.00 332.85,488.00 333.47,488.00 334.08,488.00 334.69,488.00 335.31,488.00 335.92,488.00 336.53,488.00 337.15,488.00 337.76,488.00 338.37,488.00 338.99,488.00 339.60,488.00 340.21,488.00 340.83,488.00 341.44,488.00 342.05,488.00 342.67,488.00 343.28,488.00 343.89,488.00 344.51,488.00 345.12,488.00 345.73,488.00 346.35,488.00 346.96,488.00 347.57,488.00 348.19,488.00 348.80,488.00 349.41,488.00 350.03,488.00 350.64,488.00 351.25,488.00 351.87,488.00 352.48,488.00 353.09,488.00 353.71,488.00 354.32,488.00 354.93,488.00 355.55,488.00 356.16,488.00 356.77,488.00 357.39,488.00 358.00,488.00 358.61,488.00 359.23,488.00 359.84,488.00 360.45,488.00 361.07,488.00 361.68,488.00 362.29,488.00 362.91,488.00 363.52,488.00 364.13,488.00 364.75,488.00 365.36,488.00 365.97,488.00 366.59,488.00 367.20,488.00 367.81,488.00 368.43,488.00 369.04,488.00 369.65,488.00 370.27,488.00 370.88,488.00 371.49,488.00 372.11,488.00 372.72,488.00 373.33,488.00 373.95,488.00 374.56,488.00 375.17,488.00 375.79,488.00 376.40,488.00 377.01,488.00 377.63,488.00 378.24,488.00 378.85,488.00 379.47,488.00 380.08,488.00 380.69,488.00 381.31,488.00 381.92,488.00 382.53,488.00 383.15,488.00 383.76,488.00 384.37,488.00 384.99,488.00 385.60,488.00 386.21,488.00 386.83,488.00 387.44,488.00 388.05,488.00 388.67,488.00 389.28,488.00 389.89,488.00 390.51,488.00 391.12,488.00 391.73,488.00 392.35,488.00 392.96,488.00 393.57,488.00 394.19,488.00 394.80,488.00 395.41,488.00 396.03,488.00 396.64,488.00 397.25,488.00 397.87,488.00 398.48,488.00 399.09,488.00 399.71,488.00 400.32,488.00 400.93,488.00 401.55,488.00 402.16,488.00 402.77,488.00 403.39,488.00 404.00,488.00 404.61,488.00 405.23,488.00 405.84,488.00 406.45,488.00 407.07,488.00 407.68,488.00 408.29,488.00 408.91,488.00 409.52,488.00 410.13,488.00 410.75,488.00 411.36,488.00 411.97,488.00 412.59,488.00 413.20,488.00 413.81,488.00 414.43,488.00 415.04,488.00 415.65,488.00 416.27,488.00 416.88,488.00 417.49,488.00 418.11,488.00 418.72,488.00 419.33,488.00 419.95,488.00 420.56,488.00 421.17,488.00 421.79,488.00 422.40,488.00 423.01,488.00 423.63,488.00 424.24,488.00 424.85,488.00 425.47,488.00 426.08,488.00 426.69,488.00 427.31,488.00 427.92,488.00 428.53,488.00 429.15,488.00 429.76,488.00 430.37,488.00 430.99,488.00 431.60,488.00 432.21,488.00 432.83,488.00 433.44,488.00 434.05,488.00 434.67,488.00 435.28,488.00 435.89,488.00 436.51,488.00 437.12,488.00 437.73,488.00 438.35,488.00 438.96,488.00 439.57,488.00 440.19,488.00 440.80,488.00 441.41,488.00 442.03,488.00 442.64,488.00 443.25,488.00 443.87,488.00 444.48,488.00 445.09,488.00 445.71,488.00 446.32,488.00 446.93,488.00 447.55,488.00 448.16,488.00 448.77,488.00 449.39,488.00 450.00,488.00 450.61,488.00 451.23,488.00 451.84,488.00 452.45,488.00 453.07,488.00 453.68,488.00 454.29,488.00 454.91,488.00 455.52,488.00 456.13,488.00 456.75,488.00 457.36,488.00 457.97,488.00 458.59,488.00 459.20,488.00 459.81,488.00 460.43,488.00 461.04,488.00 461.65,488.00 462.27,488.00 462.88,488.00 463.49,488.00 464.11,488.00 464.72,488.00 465.33,488.00 465.95,488.00 466.56,488.00 467.17,488.00 467.79,488.00 468.40,488.00 469.01,488.00 469.63,488.00 470.24,488.00 470.85,488.00 471.47,488.00 472.08,488.00 472.69,488.00 473.31,488.00 473.92,488.00 474.53,488.00 475.15,488.00 475.76,488.00 476.37,488.00 476.99,488.00 477.60,488.00 478.21,488.00 478.83,488.00 479.44,488.00 480.05,488.00 480.67,488.00 481.28,488.00 481.89,488.00 482.51,488.00 483.12,488.00 483.73,488.00 484.35,488.00 484.96,488.00 485.57,488.00 486.19,488.00 486.80,488.00 487.41,488.00 488.03,488.00 488.64,488.00 489.25,488.00 489.87,488.00 490.48,488.00 491.09,487.77 491.71,486.33 492.32,484.33 492.93,481.97 493.55,479.32 494.16,476.45 494.77,473.39 495.39,470.16 496.00,466.77 496.61,463.25 497.23,459.61 497.84,455.86 498.45,452.00 499.07,448.04 499.68,444.00 500.29,439.87 500.91,437.46 501.52,433.52 502.13,429.47 502.75,425.33 503.36,421.10 503.97,416.82 504.59,412.47 505.20,408.06 505.81,403.61 506.43,399.10 507.04,394.56 507.65,389.96 508.27,385.33 508.88,380.66 509.49,375.94 510.11,371.19 510.72,366.41 511.33,361.58 511.95,356.73 512.56,351.84 513.17,346.91 513.79,349.11 514.40,344.63 515.01,487.97 515.63,487.97 516.24,487.97 516.85,487.97 517.47,487.97 518.08,487.67 518.69,486.34 519.31,484.55 519.92,482.45 520.53,480.10 521.15,477.54 521.76,474.82 522.37,471.95 522.99,468.96 523.60,465.86 524.21,462.66 524.83,459.38 525.44,456.01 526.05,452.57 526.67,449.06 527.28,445.49 527.89,441.59 528.51,436.63 529.12,431.15 529.73,425.32 530.35,419.20 530.96,412.84 531.57,406.28 532.19,399.54 532.80,392.63 533.41,385.58 534.03,378.39 534.64,371.07 535.25,363.63 535.87,356.08 536.48,348.42 537.09,340.67 537.71,332.82 538.32,324.88 538.93,316.85 539.55,420.75 540.16,417.18 540.77,413.85 541.39,410.20 542.00,406.31 542.61,402.26 543.23,398.10 543.84,393.86 544.45,389.56 545.07,385.21 545.68,381.67 546.29,377.35 546.91,373.00 547.52,369.17 548.13,364.78 548.75,360.36 549.36,486.56 549.97,485.73 550.59,485.01 551.20,484.22 551.81,483.38 552.43,482.48 553.04,481.52 553.65,480.52 554.27,479.47 554.88,478.37 555.49,477.24 556.11,476.07 556.72,474.86 557.33,473.62 557.95,472.35 558.56,471.05 559.17,469.73 559.79,468.38 560.40,467.00 561.01,465.61 561.63,464.19 562.24,462.76 562.85,461.31 563.47,459.72 564.08,457.68 564.69,455.43 565.31,453.01 565.92,450.46 566.53,447.78 567.15,445.01 567.76,442.14 568.37,439.19 568.99,436.17 569.60,433.07 570.21,429.91 570.83,426.66 571.44,423.38 572.05,420.05 572.67,416.66 573.28,413.23 573.89,409.76 574.51,406.25 575.12,402.69 575.73,399.10 576.35,395.48 576.96,391.82 577.57,388.13 578.19,384.41 578.80,380.66 579.41,376.65 580.03,375.47 580.64,378.25 581.25,377.90 581.87,376.05 582.48,380.78 583.09,381.85 583.71,386.70 584.32,399.99 584.93,410.20 585.55,415.12 586.16,417.34 586.77,418.38 587.39,418.88 588.00,419.14 588.61,419.27 589.23,419.34 589.84,419.37 590.45,419.37 591.07,419.36 591.68,419.34 592.29,419.31 592.91,419.27 593.52,419.22 594.13,419.18 594.75,419.12 595.36,419.07 595.97,419.01 596.59,418.96 597.20,418.90 597.81,418.69 598.43,418.40 599.04,418.04 599.65,417.60 600.27,417.09 600.88,416.49 601.49,415.82 602.11,415.07 602.72,414.25 603.33,413.37 603.95,412.42 604.56,411.41 605.17,410.35 605.79,409.23 606.40,408.06 607.01,406.85 607.63,405.59 608.24,404.29 608.85,402.96 609.47,401.59 610.08,400.19 610.69,398.76 611.31,397.30 611.92,395.82 612.53,394.29 613.15,392.59 613.76,391.06 614.37,389.44 614.99,388.20 615.60,386.76 616.21,385.17 616.83,383.49 617.44,381.75 618.05,379.92 618.67,378.81 619.28,380.85 619.89,382.93 620.51,384.25 621.12,388.71 621.73,391.39 622.35,393.06 622.96,392.80 623.57,391.61 624.19,389.84 624.80,387.62 625.41,385.00 626.03,382.04 626.64,378.76 627.25,375.19 627.87,371.35 628.48,367.29 629.09,363.04 629.71,358.66 630.32,353.66 630.93,347.76 631.55,341.45 632.16,334.94 632.77,328.26 633.39,321.41 634.00,314.40 634.61,307.22 635.23,299.87 635.84,292.38 636.45,284.73 637.07,276.93 637.68,268.99 638.29,260.90 638.91,252.68 639.52,244.32 640.13,235.86 640.75,227.31 641.36,218.68 641.97,221.79 642.59,215.63 643.20,207.82 643.81,199.81 644.43,191.72 645.04,183.55 645.65,175.32 646.27,167.02 646.88,158.65 647.49,150.23 648.11,141.74 648.72,133.19 649.33,124.58 649.95,115.91 650.56,107.20 651.17,109.96 651.79,319.87 652.40,363.80 653.01,374.09 653.63,376.38 654.24,376.12 654.85,421.95 655.47,443.15 656.08,450.89 656.69,454.41 657.31,456.06 657.92,456.79 658.53,456.99 659.15,456.86 659.76,456.48 660.37,455.96 660.99,455.33 661.60,454.64 662.21,453.89 662.83,453.10 663.44,452.28 664.05,451.43 664.67,450.55 665.28,449.65 665.89,448.73 666.51,447.80 667.12,446.86 667.73,445.91 668.35,444.95 668.96,443.99 669.57,443.03 670.19,442.06 670.80,441.10 671.41,440.13 672.03,439.18 672.64,438.23 673.25,437.28 673.87,436.35 674.48,435.43 675.09,434.52 675.71,433.64 676.32,432.78 676.93,431.95 677.55,431.15 678.16,430.37 678.77,429.63 679.39,428.92 680.00,428.24 680.61,427.60 681.23,427.00 681.84,426.43 682.45,425.91 683.07,425.43 683.68,424.99 684.29,424.60 684.91,424.28 685.52,424.01 686.13,423.80 686.75,423.64 687.36,423.55 687.97,423.52 688.59,423.55 689.20,423.66 689.81,423.83 690.43,424.07 691.04,424.38 691.65,424.62 692.27,424.20 692.88,423.13 693.49,421.50 694.11,419.36 694.72,416.77 695.33,413.85 695.95,410.74 696.56,407.52 697.17,404.12 697.79,400.49 698.40,396.67 699.01,392.72 699.63,388.67 700.24,384.55 700.85,380.36 701.47,376.10 702.08,371.19 702.69,365.97 703.31,360.61 703.92,358.32 704.53,354.12 705.15,348.73 705.76,342.98 706.37,337.11 706.99,331.10 707.60,324.96 708.21,318.71 708.83,312.37 709.44,305.93 710.05,299.41 710.67,292.77 711.28,285.89 711.89,278.82 712.51,271.61 713.12,264.26 713.73,256.75 714.35,249.15 714.96,241.41 715.57,233.57 716.19,225.62 716.80,217.56 717.41,209.41 718.03,201.15 718.64,192.80 719.25,184.36 719.87,175.83 720.48,167.22 721.09,158.53 721.71,149.76 722.32,145.56 722.93,138.66 723.55,130.44 724.16,121.83 724.77,113.05 725.39,104.15 726.00,95.17 726.61,86.13 727.23,77.02 727.84,67.85 728.45,58.63 729.07,49.34 729.68,40.00 730.29,71.35 730.91,77.58 731.52,74.45 732.13,69.61 732.75,66.79 733.36,61.61 733.97,271.03 734.59,268.74 735.20,272.16 735.81,276.03 736.43,279.58 737.04,282.78 737.65,285.77 738.27,288.72 738.88,291.69 739.49,294.70 740.11,297.74 740.72,300.81 741.33,303.89 741.95,306.98 742.56,310.07 743.17,313.14 743.79,316.18 744.40,319.19 745.01,322.16 745.63,325.08 746.24,329.02 746.85,331.08 747.47,333.63 748.08,336.23 748.69,338.78 749.31,341.26 749.92,343.61 750.53,345.92 751.15,348.14 751.76,350.29 752.37,352.15 752.99,353.99 753.60,355.80 754.21,357.56 754.83,359.26 755.44,360.94 756.05,362.73 756.67,364.28 757.28,374.15 757.89,397.52 758.51,404.98 759.12,407.30 759.73,409.05 760.35,410.72 760.96,412.29 761.57,413.76 762.19,415.18 762.80,416.54 763.41,417.85 764.03,419.11 764.64,420.35 765.25,421.54 765.87,422.69 766.48,423.33 767.09,423.50 767.71,423.58 768.32,423.68 768.93,423.75 769.55,423.79 770.16,423.80 770.77,423.77 771.39,423.71 772.00,423.64 772.61,423.54 773.23,423.41 773.84,423.25 774.45,423.07 775.07,422.85 775.68,422.60 776.29,422.32 776.91,422.02 777.52,421.69 778.13,421.33 778.75,420.95 779.36,420.55 779.97,420.13 780.59,419.68 781.20,419.22 781.81,418.74 782.43,418.25 783.04,417.75 783.65,417.23 784.27,416.71 784.88,416.18 785.49,415.65 786.11,415.11 786.72,414.57 787.33,414.04 787.95,413.51 788.56,412.98 789.17,412.03 789.79,411.12 790.40,409.92 791.01,408.52 791.63,406.95 792.24,405.29 792.85,403.50 793.47,401.59 794.08,399.54 794.69,397.35 795.31,395.01 795.92,392.53 796.53,389.94 797.15,387.28 797.76,384.55 798.37,381.74 798.99,378.86 799.60,375.92 800.21,372.92 800.83,369.86 801.44,366.75 802.05,363.59 802.67,360.38 803.28,357.12 803.89,353.82 804.51,350.46 805.12,347.06 805.73,343.61 806.35,340.07 806.96,336.19 807.57,332.11 808.19,327.97 808.80,323.83 809.41,319.73 810.03,315.67 810.64,311.63 811.25,307.62 811.87,303.63 812.48,299.64 813.09,295.66 813.71,291.67 814.32,287.68 814.93,283.70 815.55,279.72 816.16,275.72 816.77,271.72 817.39,267.71 818.00,263.68" fill="none" stroke="#1b6ca8" stroke-width="3"/>
<polyline points="82.00,488.00 82.61,488.00 83.23,488.00 83.84,488.00 84.45,488.00 85.07,488.00 85.68,488.00 86.29,488.00 86.91,488.00 87.52,488.00 88.13,488.00 88.75,488.00 89.36,488.00 89.97,488.00 90.59,488.00 91.20,488.00 91.81,488.00 92.43,488.00 93.04,488.00 93.65,488.00 94.27,488.00 94.88,488.00 95.49,488.00 96.11,488.00 96.72,488.00 97.33,488.00 97.95,488.00 98.56,488.00 99.17,488.00 99.79,488.00 100.40,488.00 101.01,488.00 101.63,488.00 102.24,488.00 102.85,488.00 103.47,488.00 104.08,488.00 104.69,488.00 105.31,488.00 105.92,488.00 106.53,488.00 107.15,488.00 107.76,488.00 108.37,488.00 108.99,488.00 109.60,488.00 110.21,488.00 110.83,488.00 111.44,488.00 112.05,488.00 112.67,488.00 113.28,488.00 113.89,488.00 114.51,488.00 115.12,488.00 115.73,488.00 116.35,488.00 116.96,488.00 117.57,488.00 118.19,488.00 118.80,488.00 119.41,488.00 120.03,488.00 120.64,488.00 121.25,488.00 121.87,488.00 122.48,488.00 123.09,488.00 123.71,488.00 124.32,488.00 124.93,488.00 125.55,488.00 126.16,488.00 126.77,488.00 127.39,488.00 128.00,488.00 128.61,488.00 129.23,488.00 129.84,488.00 130.45,488.00 131.07,488.00 131.68,488.00 132.29,488.00 132.91,488.00 133.52,488.00 134.13,488.00 134.75,488.00 135.36,488.00 135.97,488.00 136.59,488.00 137.20,488.00 137.81,488.00 138.43,488.00 139.04,488.00 139.65,488.00 140.27,488.00 140.88,488.00 141.49,488.00 142.11,488.00 142.72,488.00 143.33,488.00 143.95,488.00 144.56,488.00 145.17,488.00 145.79,488.00 146.40,488.00 147.01,488.00 147.63,488.00 148.24,488.00 148.85,488.00 149.47,488.00 150.08,488.00 150.69,488.00 151.31,488.00 151.92,488.00 152.53,488.00 153.15,488.00 153.76,488.00 154.37,488.00 154.99,488.00 155.60,488.00 156.21,488.00 156.83,488.00 157.44,488.00 158.05,488.00 158.67,488.00 159.28,488.00 159.89,488.00 160.51,488.00 161.12,488.00 161.73,488.00 162.35,488.00 162.96,488.00 163.57,488.00 164.19,488.00 164.80,488.00 165.41,488.00 166.03,488.00 166.64,488.00 167.25,488.00 167.87,488.00 168.48,488.00 169.09,488.00 169.71,488.00 170.32,488.00 170.93,488.00 171.55,488.00 172.16,488.00 172.77,488.00 173.39,488.00 174.00,488.00 174.61,488.00 175.23,488.00 175.84,488.00 176.45,488.00 177.07,488.00 177.68,488.00 178.29,488.00 178.91,488.00 179.52,488.00 180.13,488.00 180.75,488.00 181.36,488.00 181.97,488.00 182.59,488.00 183.20,488.00 183.81,488.00 184.43,488.00 185.04,488.00 185.65,488.00 186.27,488.00 186.88,488.00 187.49,488.00 188.11,488.00 188.72,488.00 189.33,488.00 189.95,488.00 190.56,488.00 191.17,488.00 191.79,488.00 192.40,488.00 193.01,488.00 193.63,488.00 194.24,488.00 194.85,488.00 195.47,488.00 196.08,488.00 196.69,488.00 197.31,488.00 197.92,488.00 198.53,488.00 199.15,488.00 199.76,488.00 200.37,488.00 200.99,488.00 201.60,488.00 202.21,488.00 202.83,488.00 203.44,488.00 204.05,488.00 204.67,488.00 205.28,488.00 205.89,488.00 206.51,488.00 207.12,488.00 207.73,488.00 208.35,488.00 208.96,488.00 209.57,488.00 210.19,488.00 210.80,488.00 211.41,488.00 212.03,488.00 212.64,488.00 213.25,488.00 213.87,488.00 214.48,488.00 215.09,488.00 215.71,488.00 216.32,488.00 216.93,488.00 217.55,488.00 218.16,488.00 218.77,488.00 219.39,488.00 220.00,488.00 220.61,488.00 221.23,488.00 221.84,488.00 222.45,488.00 223.07,488.00 223.68,488.00 224.29,488.00 224.91,488.00 225.52,488.00 226.13,488.00 226.75,488.00 227.36,488.00 227.97,488.00 228.59,488.00 229.20,488.00 229.81,488.00 230.43,488.00 231.04,488.00 231.65,488.00 232.27,488.00 232.88,488.00 233.49,488.00 234.11,488.00 234.72,488.00 235.33,488.00 235.95,488.00 236.56,488.00 237.17,488.00 237.79,488.00 238.40,488.00 239.01,488.00 239.63,488.00 240.24,488.00 240.85,488.00 241.47,488.00 242.08,488.00 242.69,488.00 243.31,488.00 243.92,488.00 244.53,488.00 245.15,488.00 245.76,488.00 246.37,488.00 246.99,488.00 247.60,488.00 248.21,488.00 248.83,488.00 249.44,488.00 250.05,488.00 250.67,488.00 251.28,488.00 251.89,488.00 252.51,488.00 253.12,488.00 253.73,488.00 254.35,488.00 254.96,488.00 255.57,488.00 256.19,488.00 256.80,488.00 257.41,488.00 258.03,488.00 258.64,488.00 259.25,488.00 259.87,488.00 260.48,488.00 261.09,488.00 261.71,488.00 262.32,488.00 262.93,488.00 263.55,488.00 264.16,488.00 264.77,488.00 265.39,488.00 266.00,488.00 266.61,488.00 267.23,488.00 267.84,488.00 268.45,488.00 269.07,488.00 269.68,488.00 270.29,488.00 270.91,488.00 271.52,488.00 272.13,488.00 272.75,488.00 273.36,488.00 273.97,488.00 274.59,488.00 275.20,488.00 275.81,488.00 276.43,488.00 277.04,488.00 277.65,488.00 278.27,488.00 278.88,488.00 279.49,488.00 280.11,488.00 280.72,488.00 281.33,488.00 281.95,488.00 282.56,488.00 283.17,488.00 283.79,488.00 284.40,488.00 285.01,488.00 285.63,488.00 286.24,488.00 286.85,488.00 287.47,488.00 288.08,488.00 288.69,488.00 289.31,488.00 289.92,488.00 290.53,488.00 291.15,488.00 291.76,488.00 292.37,488.00 292.99,488.00 293.60,488.00 294.21,488.00 294.83,488.00 295.44,488.00 296.05,488.00 296.67,488.00 297.28,488.00 297.89,488.00 298.51,488.00 299.12,488.00 299.73,488.00 300.35,488.00 300.96,488.00 301.57,488.00 302.19,488.00 302.80,488.00 303.41,488.00 304.03,488.00 304.64,488.00 305.25,488.00 305.87,488.00 306.48,488.00 307.09,488.00 307.71,488.00 308.32,488.00 308.93,488.00 309.55,488.00 310.16,488.00 310.77,488.00 311.39,488.00 312.00,488.00 312.61,488.00 313.23,488.00 313.84,488.00 314.45,488.00 315.07,488.00 315.68,488.00 316.29,488.00 316.91,488.00 317.52,488.00 318.13,488.00 318.75,488.00 319.36,488.00 319.97,488.00 320.59,488.00 321.20,488.00 321.81,488.00 322.43,488.00 323.04,488.00 323.65,488.00 324.27,488.00 324.88,488.00 325.49,488.00 326.11,488.00 326.72,488.00 327.33,488.00 327.95,488.00 328.56,488.00 329.17,488.00 329.79,488.00 330.40,488.00 331.01,488.00 331.63,488.00 332.24,488.00 332.85,488.00 333.47,488.00 334.08,488.00 334.69,488.00 335.31,488.00 335.92,488.00 336.53,488.00 337.15,488.00 337.76,488.00 338.37,488.00 338.99,488.00 339.60,488.00 340.21,488.00 340.83,488.00 341.44,488.00 342.05,488.00 342.67,488.00 343.28,488.00 343.89,488.00 344.51,488.00 345.12,488.00 345.73,488.00 346.35,488.00 346.96,488.00 347.57,488.00 348.19,488.00 348.80,488.00 349.41,488.00 350.03,488.00 350.64,488.00 351.25,488.00 351.87,488.00 352.48,488.00 353.09,488.00 353.71,488.00 354.32,488.00 354.93,488.00 355.55,488.00 356.16,488.00 356.77,488.00 357.39,488.00 358.00,488.00 358.61,488.00 359.23,488.00 359.84,488.00 360.45,488.00 361.07,488.00 361.68,488.00 362.29,488.00 362.91,488.00 363.52,488.00 364.13,488.00 364.75,488.00 365.36,488.00 365.97,488.00 366.59,488.00 367.20,488.00 367.81,488.00 368.43,488.00 369.04,488.00 369.65,488.00 370.27,488.00 370.88,488.00 371.49,488.00 372.11,488.00 372.72,488.00 373.33,488.00 373.95,488.00 374.56,488.00 375.17,488.00 375.79,488.00 376.40,488.00 377.01,488.00 377.63,488.00 378.24,488.00 378.85,488.00 379.47,488.00 380.08,488.00 380.69,488.00 381.31,488.00 381.92,488.00 382.53,488.00 383.15,488.00 383.76,488.00 384.37,488.00 384.99,488.00 385.60,488.00 386.21,488.00 386.83,488.00 387.44,488.00 388.05,488.00 388.67,488.00 389.28,488.00 389.89,488.00 390.51,488.00 391.12,488.00 391.73,488.00 392.35,488.00 392.96,488.00 393.57,488.00 394.19,488.00 394.80,488.00 395.41,488.00 396.03,488.00 396.64,488.00 397.25,488.00 397.87,488.00 398.48,488.00 399.09,488.00 399.71,488.00 400.32,488.00 400.93,488.00 401.55,488.00 402.16,488.00 402.77,488.00 403.39,488.00 404.00,488.00 404.61,488.00 405.23,488.00 405.84,488.00 406.45,488.00 407.07,488.00 407.68,488.00 408.29,488.00 408.91,488.00 409.52,488.00 410.13,488.00 410.75,488.00 411.36,488.00 411.97,488.00 412.59,488.00 413.20,488.00 413.81,488.00 414.43,488.00 415.04,488.00 415.65,488.00 416.27,488.00 416.88,488.00 417.49,488.00 418.11,488.00 418.72,488.00 419.33,488.00 419.95,488.00 420.56,488.00 421.17,488.00 421.79,488.00 422.40,488.00 423.01,488.00 423.63,488.00 424.24,488.00 424.85,488.00 425.47,488.00 426.08,488.00 426.69,488.00 427.31,488.00 427.92,488.00 428.53,488.00 429.15,488.00 429.76,488.00 430.37,488.00 430.99,488.00 431.60,488.00 432.21,488.00 432.83,488.00 433.44,488.00 434.05,488.00 434.67,488.00 435.28,488.00 435.89,488.00 436.51,488.00 437.12,488.00 437.73,488.00 438.35,488.00 438.96,488.00 439.57,488.00 440.19,488.00 440.80,488.00 441.41,488.00 442.03,488.00 442.64,488.00 443.25,488.00 443.87,488.00 444.48,488.00 445.09,488.00 445.71,488.00 446.32,488.00 446.93,488.00 447.55,488.00 448.16,488.00 448.77,488.00 449.39,488.00 450.00,488.00 450.61,488.00 451.23,488.00 451.84,488.00 452.45,488.00 453.07,488.00 453.68,488.00 454.29,488.00 454.91,488.00 455.52,488.00 456.13,488.00 456.75,488.00 457.36,488.00 457.97,488.00 458.59,488.00 459.20,488.00 459.81,488.00 460.43,488.00 461.04,488.00 461.65,488.00 462.27,488.00 462.88,488.00 463.49,488.00 464.11,488.00 464.72,488.00 465.33,488.00 465.95,488.00 466.56,488.00 467.17,488.00 467.79,488.00 468.40,488.00 469.01,488.00 469.63,488.00 470.24,488.00 470.85,488.00 471.47,488.00 472.08,488.00 472.69,488.00 473.31,488.00 473.92,488.00 474.53,488.00 475.15,488.00 475.76,488.00 476.37,488.00 476.99,488.00 477.60,488.00 478.21,488.00 478.83,488.00 479.44,488.00 480.05,488.00 480.67,488.00 481.28,488.00 481.89,488.00 482.51,488.00 483.12,488.00 483.73,488.00 484.35,488.00 484.96,488.00 485.57,488.00 486.19,488.00 486.80,488.00 487.41,488.00 488.03,488.00 488.64,488.00 489.25,488.00 489.87,488.00 490.48,488.00 491.09,487.94 491.71,486.94 492.32,485.16 492.93,482.94 493.55,480.40 494.16,477.62 494.77,474.63 495.39,471.47 496.00,468.14 496.61,464.68 497.23,461.09 497.84,457.38 498.45,453.56 499.07,449.64 499.68,445.63 500.29,441.54 500.91,438.55 501.52,435.06 502.13,431.09 502.75,426.99 503.36,422.80 503.97,418.54 504.59,414.22 505.20,409.84 505.81,405.40 506.43,400.92 507.04,396.39 507.65,391.82 508.27,387.20 508.88,382.54 509.49,377.85 510.11,373.11 510.72,368.34 511.33,363.53 511.95,358.69 512.56,353.81 513.17,348.90 513.79,350.09 514.40,346.36 515.01,459.10 515.63,485.92 516.24,487.85 516.85,487.99 517.47,488.00 518.08,487.91 518.69,486.91 519.31,485.30 519.92,483.31 520.53,481.06 521.15,478.58 521.76,475.92 522.37,473.11 522.99,470.17 523.60,467.11 524.21,463.95 524.83,460.70 525.44,457.36 526.05,453.95 526.67,450.47 527.28,446.92 527.89,443.24 528.51,438.65 529.12,433.37 529.73,427.68 530.35,421.67 530.96,415.40 531.57,408.92 532.19,402.25 532.80,395.41 533.41,388.41 534.03,381.28 534.64,374.01 535.25,366.62 535.87,359.11 536.48,351.50 537.09,343.78 537.71,335.97 538.32,328.06 538.93,320.07 539.55,413.74 540.16,417.91 540.77,415.19 541.39,411.71 542.00,407.93 542.61,403.95 543.23,399.84 543.84,395.63 544.45,391.36 545.07,387.03 545.68,382.79 546.29,379.09 546.91,374.80 547.52,370.47 548.13,366.55 548.75,362.19 549.36,476.09 549.97,485.34 550.59,485.32 551.20,484.61 551.81,483.79 552.43,482.91 553.04,481.97 553.65,480.99 554.27,479.95 554.88,478.87 555.49,477.75 556.11,476.59 556.72,475.40 557.33,474.17 557.95,472.91 558.56,471.62 559.17,470.31 559.79,468.97 560.40,467.60 561.01,466.22 561.63,464.81 562.24,463.38 562.85,461.94 563.47,460.43 564.08,458.54 564.69,456.38 565.31,454.02 565.92,451.52 566.53,448.90 567.15,446.17 567.76,443.34 568.37,440.43 568.99,437.43 569.60,434.37 570.21,431.23 570.83,428.01 571.44,424.75 572.05,421.44 572.67,418.08 573.28,414.67 573.89,411.22 574.51,407.72 575.12,404.19 575.73,400.61 576.35,397.00 576.96,393.36 577.57,389.68 578.19,385.97 578.80,382.24 579.41,378.39 580.03,380.75 580.64,394.58 581.25,382.73 581.87,379.66 582.48,399.66 583.09,389.62 583.71,443.64 584.32,437.96 584.93,443.39 585.55,434.56 586.16,430.54 586.77,428.80 587.39,428.01 588.00,427.65 588.61,427.47 589.23,427.37 589.84,427.30 590.45,427.23 591.07,427.17 591.68,427.09 592.29,427.02 592.91,426.94 593.52,426.85 594.13,426.77 594.75,426.67 595.36,426.58 595.97,426.48 596.59,426.39 597.20,426.29 597.81,426.13 598.43,425.83 599.04,425.40 599.65,424.88 600.27,424.26 600.88,423.56 601.49,422.79 602.11,421.94 602.72,421.02 603.33,420.04 603.95,419.00 604.56,417.91 605.17,416.77 605.79,415.58 606.40,414.34 607.01,413.06 607.63,411.75 608.24,410.39 608.85,409.01 609.47,407.59 610.08,406.15 610.69,404.68 611.31,403.19 611.92,401.66 612.53,399.88 613.15,398.91 613.76,397.83 614.37,396.94 614.99,394.70 615.60,392.54 616.21,390.55 616.83,388.65 617.44,386.89 618.05,385.20 618.67,393.83 619.28,396.49 619.89,395.18 620.51,394.33 621.12,401.85 621.73,397.90 622.35,398.87 622.96,399.39 623.57,398.53 624.19,396.84 624.80,394.57 625.41,391.86 626.03,388.77 626.64,385.37 627.25,381.69 627.87,377.76 628.48,373.61 629.09,369.27 629.71,364.80 630.32,360.04 630.93,354.75 631.55,348.94 632.16,342.73 632.77,336.22 633.39,329.45 634.00,322.47 634.61,315.30 635.23,307.95 635.84,300.43 636.45,292.76 637.07,284.93 637.68,276.96 638.29,268.84 638.91,260.59 639.52,252.24 640.13,243.80 640.75,235.26 641.36,226.65 641.97,233.27 642.59,224.03 643.20,216.07 643.81,208.08 644.43,200.01 645.04,191.87 645.65,183.65 646.27,175.37 646.88,167.02 647.49,158.61 648.11,150.14 648.72,141.61 649.33,133.01 649.95,124.36 650.56,115.65 651.17,228.18 651.79,411.48 652.40,408.99 653.01,404.15 653.63,399.82 654.24,396.24 654.85,485.75 655.47,481.09 656.08,478.37 656.69,476.66 657.31,475.39 657.92,474.32 658.53,473.33 659.15,472.38 659.76,471.45 660.37,470.54 660.99,469.62 661.60,468.69 662.21,467.75 662.83,466.80 663.44,465.85 664.05,464.89 664.67,463.92 665.28,462.95 665.89,461.97 666.51,460.99 667.12,460.00 667.73,459.02 668.35,458.04 668.96,457.05 669.57,456.07 670.19,455.09 670.80,454.12 671.41,453.16 672.03,452.19 672.64,451.24 673.25,450.30 673.87,449.38 674.48,448.48 675.09,447.60 675.71,446.76 676.32,445.94 676.93,445.15 677.55,444.39 678.16,443.66 678.77,442.96 679.39,442.31 680.00,441.69 680.61,441.10 681.23,440.55 681.84,440.04 682.45,439.57 683.07,439.14 683.68,438.75 684.29,438.40 684.91,438.10 685.52,437.85 686.13,437.66 686.75,437.55 687.36,437.51 687.97,437.53 688.59,437.63 689.20,437.81 689.81,438.05 690.43,438.37 691.04,438.75 691.65,438.55 692.27,437.38 692.88,435.64 693.49,433.40 694.11,430.73 694.72,427.69 695.33,424.51 695.95,421.26 696.56,417.92 697.17,413.84 697.79,409.55 698.40,405.21 699.01,400.86 699.63,396.51 700.24,392.17 700.85,387.82 701.47,383.42 702.08,378.86 702.69,373.96 703.31,368.75 703.92,369.90 704.53,363.39 705.15,357.44 705.76,351.55 706.37,345.57 706.99,339.49 707.60,333.32 708.21,327.07 708.83,320.72 709.44,314.29 710.05,307.77 710.67,301.04 711.28,294.02 711.89,286.87 712.51,279.60 713.12,272.19 713.73,264.60 714.35,256.90 714.96,249.12 715.57,241.25 716.19,233.27 716.80,225.19 717.41,217.00 718.03,208.72 718.64,200.34 719.25,191.88 719.87,183.33 720.48,174.71 721.09,166.00 721.71,157.22 722.32,155.73 722.93,146.97 723.55,138.29 724.16,129.51 724.77,120.65 725.39,111.72 726.00,102.73 726.61,93.68 727.23,84.56 727.84,75.38 728.45,66.15 729.07,56.86 729.68,47.52 730.29,100.82 730.91,88.94 731.52,82.51 732.13,77.00 732.75,74.37 733.36,68.91 733.97,252.32 734.59,277.79 735.20,285.51 735.81,289.70 736.43,292.81 737.04,295.51 737.65,298.18 738.27,300.96 738.88,303.80 739.49,306.68 740.11,309.60 740.72,312.54 741.33,315.50 741.95,318.45 742.56,321.40 743.17,324.33 743.79,327.24 744.40,330.11 745.01,332.94 745.63,335.71 746.24,336.63 746.85,340.83 747.47,343.70 748.08,346.28 748.69,348.74 749.31,351.10 749.92,353.38 750.53,355.57 751.15,357.68 751.76,359.71 752.37,361.62 752.99,363.41 753.60,365.14 754.21,366.82 754.83,368.44 755.44,370.18 756.05,372.16 756.67,373.59 757.28,376.26 757.89,387.94 758.51,399.45 759.12,406.13 759.73,410.16 760.35,412.97 760.96,415.08 761.57,416.83 762.19,418.42 762.80,419.90 763.41,421.30 764.03,422.64 764.64,423.94 765.25,425.19 765.87,426.41 766.48,427.49 767.09,428.21 767.71,428.61 768.32,428.80 768.93,428.85 769.55,428.84 770.16,428.81 770.77,428.76 771.39,428.70 772.00,428.62 772.61,428.52 773.23,428.40 773.84,428.27 774.45,428.11 775.07,427.93 775.68,427.73 776.29,427.49 776.91,427.24 777.52,426.96 778.13,426.66 778.75,426.33 779.36,425.99 779.97,425.62 780.59,425.23 781.20,424.83 781.81,424.41 782.43,423.97 783.04,423.52 783.65,423.06 784.27,422.58 784.88,422.10 785.49,421.62 786.11,421.13 786.72,420.63 787.33,420.14 787.95,419.65 788.56,419.16 789.17,418.62 789.79,417.80 790.40,416.75 791.01,415.49 791.63,413.97 792.24,412.25 792.85,410.36 793.47,408.34 794.08,406.17 794.69,403.86 795.31,401.43 795.92,398.93 796.53,396.37 797.15,393.74 797.76,391.06 798.37,388.31 798.99,385.50 799.60,382.63 800.21,379.69 800.83,376.68 801.44,373.62 802.05,370.51 802.67,367.34 803.28,364.11 803.89,360.84 804.51,357.52 805.12,354.15 805.73,350.74 806.35,347.27 806.96,343.69 807.57,339.98 808.19,336.17 808.80,332.29 809.41,328.36 810.03,324.40 810.64,320.42 811.25,316.44 811.87,312.46 812.48,308.47 813.09,304.49 813.71,300.52 814.32,296.56 814.93,292.59 815.55,288.61 816.16,284.62 816.77,280.62 817.39,276.61 818.00,272.58" fill="none" stroke="#d1495b" stroke-width="3"/>
<polyline points="82.00,488.00 82.61,488.00 82.61,488.00 83.23,488.00 83.23,488.00 83.84,488.00 83.84,488.00 84.45,488.00 84.45,488.00 85.07,488.00 85.07,488.00 85.68,488.00 85.68,488.00 86.29,488.00 86.29,488.00 86.91,488.00 86.91,488.00 87.52,488.00 87.52,488.00 88.13,488.00 88.13,488.00 88.75,488.00 88.75,488.00 89.36,488.00 89.36,488.00 89.97,488.00 89.97,488.00 90.59,488.00 90.59,488.00 91.20,488.00 91.20,488.00 91.81,488.00 91.81,488.00 92.43,488.00 92.43,488.00 93.04,488.00 93.04,488.00 93.65,488.00 93.65,488.00 94.27,488.00 94.27,488.00 94.88,488.00 94.88,488.00 95.49,488.00 95.49,488.00 96.11,488.00 96.11,488.00 96.72,488.00 96.72,488.00 97.33,488.00 97.33,488.00 97.95,488.00 97.95,488.00 98.56,488.00 98.56,488.00 99.17,488.00 99.17,488.00 99.79,488.00 99.79,488.00 100.40,488.00 100.40,488.00 101.01,488.00 101.01,488.00 101.63,488.00 101.63,488.00 102.24,488.00 102.24,488.00 102.85,488.00 102.85,488.00 103.47,488.00 103.47,488.00 104.08,488.00 104.08,488.00 104.69,488.00 104.69,488.00 105.31,488.00 105.31,488.00 105.92,488.00 105.92,488.00 106.53,488.00 106.53,488.00 107.15,488.00 107.15,488.00 107.76,488.00 107.76,488.00 108.37,488.00 108.37,488.00 108.99,488.00 108.99,488.00 109.60,488.00 109.60,488.00 110.21,488.00 110.21,488.00 110.83,488.00 110.83,488.00 111.44,488.00 111.44,488.00 112.05,488.00 112.05,488.00 112.67,488.00 112.67,488.00 113.28,488.00 113.28,488.00 113.89,488.00 113.89,488.00 114.51,488.00 114.51,488.00 115.12,488.00 115.12,488.00 115.73,488.00 115.73,488.00 116.35,488.00 116.35,488.00 116.96,488.00 116.96,488.00 117.57,488.00 117.57,488.00 118.19,488.00 118.19,488.00 118.80,488.00 118.80,488.00 119.41,488.00 119.41,488.00 120.03,488.00 120.03,488.00 120.64,488.00 120.64,488.00 121.25,488.00 121.25,488.00 121.87,488.00 121.87,488.00 122.48,488.00 122.48,488.00 123.09,488.00 123.09,488.00 123.71,488.00 123.71,488.00 124.32,488.00 124.32,488.00 124.93,488.00 124.93,488.00 125.55,488.00 125.55,488.00 126.16,488.00 126.16,488.00 126.77,488.00 126.77,488.00 127.39,488.00 127.39,488.00 128.00,488.00 128.00,488.00 128.61,488.00 128.61,488.00 129.23,488.00 129.23,488.00 129.84,488.00 129.84,488.00 130.45,488.00 130.45,488.00 131.07,488.00 131.07,488.00 131.68,488.00 131.68,488.00 132.29,488.00 132.29,488.00 132.91,488.00 132.91,488.00 133.52,488.00 133.52,488.00 134.13,488.00 134.13,488.00 134.75,488.00 134.75,488.00 135.36,488.00 135.36,488.00 135.97,488.00 135.97,488.00 136.59,488.00 136.59,488.00 137.20,488.00 137.20,488.00 137.81,488.00 137.81,488.00 138.43,488.00 138.43,488.00 139.04,488.00 139.04,488.00 139.65,488.00 139.65,488.00 140.27,488.00 140.27,488.00 140.88,488.00 140.88,488.00 141.49,488.00 141.49,488.00 142.11,488.00 142.11,488.00 142.72,488.00 142.72,488.00 143.33,488.00 143.33,488.00 143.95,488.00 143.95,488.00 144.56,488.00 144.56,488.00 145.17,488.00 145.17,488.00 145.79,488.00 145.79,488.00 146.40,488.00 146.40,488.00 147.01,488.00 147.01,488.00 147.63,488.00 147.63,488.00 148.24,488.00 148.24,488.00 148.85,488.00 148.85,488.00 149.47,488.00 149.47,488.00 150.08,488.00 150.08,488.00 150.69,488.00 150.69,488.00 151.31,488.00 151.31,488.00 151.92,488.00 151.92,488.00 152.53,488.00 152.53,488.00 153.15,488.00 153.15,488.00 153.76,488.00 153.76,488.00 154.37,488.00 154.37,488.00 154.99,488.00 154.99,488.00 155.60,488.00 155.60,488.00 156.21,488.00 156.21,488.00 156.83,488.00 156.83,488.00 157.44,488.00 157.44,488.00 158.05,488.00 158.05,488.00 158.67,488.00 158.67,488.00 159.28,488.00 159.28,488.00 159.89,488.00 159.89,488.00 160.51,488.00 160.51,488.00 161.12,488.00 161.12,488.00 161.73,488.00 161.73,488.00 162.35,488.00 162.35,488.00 162.96,488.00 162.96,488.00 163.57,488.00 163.57,488.00 164.19,488.00 164.19,488.00 164.80,488.00 164.80,488.00 165.41,488.00 165.41,488.00 166.03,488.00 166.03,488.00 166.64,488.00 166.64,488.00 167.25,488.00 167.25,488.00 167.87,488.00 167.87,488.00 168.48,488.00 168.48,488.00 169.09,488.00 169.09,488.00 169.71,488.00 169.71,488.00 170.32,488.00 170.32,488.00 170.93,488.00 170.93,488.00 171.55,488.00 171.55,488.00 172.16,488.00 172.16,488.00 172.77,488.00 172.77,488.00 173.39,488.00 173.39,488.00 174.00,488.00 174.00,488.00 174.61,488.00 174.61,488.00 175.23,488.00 175.23,488.00 175.84,488.00 175.84,488.00 176.45,488.00 176.45,488.00 177.07,488.00 177.07,488.00 177.68,488.00 177.68,488.00 178.29,488.00 178.29,488.00 178.91,488.00 178.91,488.00 179.52,488.00 179.52,488.00 180.13,488.00 180.13,488.00 180.75,488.00 180.75,488.00 181.36,488.00 181.36,488.00 181.97,488.00 181.97,488.00 182.59,488.00 182.59,488.00 183.20,488.00 183.20,488.00 183.81,488.00 183.81,488.00 184.43,488.00 184.43,488.00 185.04,488.00 185.04,488.00 185.65,488.00 185.65,488.00 186.27,488.00 186.27,488.00 186.88,488.00 186.88,488.00 187.49,488.00 187.49,488.00 188.11,488.00 188.11,488.00 188.72,488.00 188.72,488.00 189.33,488.00 189.33,488.00 189.95,488.00 189.95,488.00 190.56,488.00 190.56,488.00 191.17,488.00 191.17,488.00 191.79,488.00 191.79,488.00 192.40,488.00 192.40,488.00 193.01,488.00 193.01,488.00 193.63,488.00 193.63,488.00 194.24,488.00 194.24,488.00 194.85,488.00 194.85,488.00 195.47,488.00 195.47,488.00 196.08,488.00 196.08,488.00 196.69,488.00 196.69,488.00 197.31,488.00 197.31,488.00 197.92,488.00 197.92,488.00 198.53,488.00 198.53,488.00 199.15,488.00 199.15,488.00 199.76,488.00 199.76,488.00 200.37,488.00 200.37,488.00 200.99,488.00 200.99,488.00 201.60,488.00 201.60,488.00 202.21,488.00 202.21,488.00 202.83,488.00 202.83,488.00 203.44,488.00 203.44,488.00 204.05,488.00 204.05,488.00 204.67,488.00 204.67,488.00 205.28,488.00 205.28,488.00 205.89,488.00 205.89,488.00 206.51,488.00 206.51,488.00 207.12,488.00 207.12,488.00 207.73,488.00 207.73,488.00 208.35,488.00 208.35,488.00 208.96,488.00 208.96,488.00 209.57,488.00 209.57,488.00 210.19,488.00 210.19,488.00 210.80,488.00 210.80,488.00 211.41,488.00 211.41,488.00 212.03,488.00 212.03,488.00 212.64,488.00 212.64,488.00 213.25,488.00 213.25,488.00 213.87,488.00 213.87,488.00 214.48,488.00 214.48,488.00 215.09,488.00 215.09,488.00 215.71,488.00 215.71,488.00 216.32,488.00 216.32,488.00 216.93,488.00 216.93,488.00 217.55,488.00 217.55,488.00 218.16,488.00 218.16,488.00 218.77,488.00 218.77,488.00 219.39,488.00 219.39,488.00 220.00,488.00 220.00,488.00 220.61,488.00 220.61,488.00 221.23,488.00 221.23,488.00 221.84,488.00 221.84,488.00 222.45,488.00 222.45,488.00 223.07,488.00 223.07,488.00 223.68,488.00 223.68,488.00 224.29,488.00 224.29,488.00 224.91,488.00 224.91,488.00 225.52,488.00 225.52,488.00 226.13,488.00 226.13,488.00 226.75,488.00 226.75,488.00 227.36,488.00 227.36,488.00 227.97,488.00 227.97,488.00 228.59,488.00 228.59,488.00 229.20,488.00 229.20,488.00 229.81,488.00 229.81,488.00 230.43,488.00 230.43,488.00 231.04,488.00 231.04,488.00 231.65,488.00 231.65,488.00 232.27,488.00 232.27,488.00 232.88,488.00 232.88,488.00 233.49,488.00 233.49,488.00 234.11,488.00 234.11,488.00 234.72,488.00 234.72,488.00 235.33,488.00 235.33,488.00 235.95,488.00 235.95,488.00 236.56,488.00 236.56,488.00 237.17,488.00 237.17,488.00 237.79,488.00 237.79,488.00 238.40,488.00 238.40,488.00 239.01,488.00 239.01,488.00 239.63,488.00 239.63,488.00 240.24,488.00 240.24,488.00 240.85,488.00 240.85,488.00 241.47,488.00 241.47,488.00 242.08,488.00 242.08,488.00 242.69,488.00 242.69,488.00 243.31,488.00 243.31,488.00 243.92,488.00 243.92,488.00 244.53,488.00 244.53,488.00 245.15,488.00 245.15,488.00 245.76,488.00 245.76,488.00 246.37,488.00 246.37,488.00 246.99,488.00 246.99,488.00 247.60,488.00 247.60,488.00 248.21,488.00 248.21,488.00 248.83,488.00 248.83,488.00 249.44,488.00 249.44,488.00 250.05,488.00 250.05,488.00 250.67,488.00 250.67,488.00 251.28,488.00 251.28,488.00 251.89,488.00 251.89,488.00 252.51,488.00 252.51,488.00 253.12,488.00 253.12,488.00 253.73,488.00 253.73,488.00 254.35,488.00 254.35,488.00 254.96,488.00 254.96,488.00 255.57,488.00 255.57,488.00 256.19,488.00 256.19,488.00 256.80,488.00 256.80,488.00 257.41,488.00 257.41,488.00 258.03,488.00 258.03,488.00 258.64,488.00 258.64,488.00 259.25,488.00 259.25,488.00 259.87,488.00 259.87,488.00 260.48,488.00 260.48,488.00 261.09,488.00 261.09,488.00 261.71,488.00 261.71,488.00 262.32,488.00 262.32,488.00 262.93,488.00 262.93,488.00 263.55,488.00 263.55,488.00 264.16,488.00 264.16,488.00 264.77,488.00 264.77,488.00 265.39,488.00 265.39,488.00 266.00,488.00 266.00,488.00 266.61,488.00 266.61,488.00 267.23,488.00 267.23,488.00 267.84,488.00 267.84,488.00 268.45,488.00 268.45,488.00 269.07,488.00 269.07,488.00 269.68,488.00 269.68,488.00 270.29,488.00 270.29,488.00 270.91,488.00 270.91,488.00 271.52,488.00 271.52,488.00 272.13,488.00 272.13,488.00 272.75,488.00 272.75,488.00 273.36,488.00 273.36,488.00 273.97,488.00 273.97,488.00 274.59,488.00 274.59,488.00 275.20,488.00 275.20,488.00 275.81,488.00 275.81,488.00 276.43,488.00 276.43,488.00 277.04,488.00 277.04,488.00 277.65,488.00 277.65,488.00 278.27,488.00 278.27,488.00 278.88,488.00 278.88,488.00 279.49,488.00 279.49,488.00 280.11,488.00 280.11,488.00 280.72,488.00 280.72,488.00 281.33,488.00 281.33,488.00 281.95,488.00 281.95,488.00 282.56,488.00 282.56,488.00 283.17,488.00 283.17,488.00 283.79,488.00 283.79,488.00 284.40,488.00 284.40,488.00 285.01,488.00 285.01,488.00 285.63,488.00 285.63,488.00 286.24,488.00 286.24,488.00 286.85,488.00 286.85,488.00 287.47,488.00 287.47,488.00 288.08,488.00 288.08,488.00 288.69,488.00 288.69,488.00 289.31,488.00 289.31,488.00 289.92,488.00 289.92,488.00 290.53,488.00 290.53,488.00 291.15,488.00 291.15,488.00 291.76,488.00 291.76,488.00 292.37,488.00 292.37,488.00 292.99,488.00 292.99,488.00 293.60,488.00 293.60,488.00 294.21,488.00 294.21,488.00 294.83,488.00 294.83,488.00 295.44,488.00 295.44,488.00 296.05,488.00 296.05,488.00 296.67,488.00 296.67,488.00 297.28,488.00 297.28,488.00 297.89,488.00 297.89,488.00 298.51,488.00 298.51,488.00 299.12,488.00 299.12,488.00 299.73,488.00 299.73,488.00 300.35,488.00 300.35,488.00 300.96,488.00 300.96,488.00 301.57,488.00 301.57,488.00 302.19,488.00 302.19,488.00 302.80,488.00 302.80,488.00 303.41,488.00 303.41,488.00 304.03,488.00 304.03,488.00 304.64,488.00 304.64,488.00 305.25,488.00 305.25,488.00 305.87,488.00 305.87,488.00 306.48,488.00 306.48,488.00 307.09,488.00 307.09,488.00 307.71,488.00 307.71,488.00 308.32,488.00 308.32,488.00 308.93,488.00 308.93,488.00 309.55,488.00 309.55,488.00 310.16,488.00 310.16,488.00 310.77,488.00 310.77,488.00 311.39,488.00 311.39,488.00 312.00,488.00 312.00,488.00 312.61,488.00 312.61,488.00 313.23,488.00 313.23,488.00 313.84,488.00 313.84,488.00 314.45,488.00 314.45,488.00 315.07,488.00 315.07,488.00 315.68,488.00 315.68,488.00 316.29,488.00 316.29,488.00 316.91,488.00 316.91,488.00 317.52,488.00 317.52,488.00 318.13,488.00 318.13,488.00 318.75,488.00 318.75,488.00 319.36,488.00 319.36,488.00 319.97,488.00 319.97,488.00 320.59,488.00 320.59,488.00 321.20,488.00 321.20,488.00 321.81,488.00 321.81,488.00 322.43,488.00 322.43,488.00 323.04,488.00 323.04,488.00 323.65,488.00 323.65,488.00 324.27,488.00 324.27,488.00 324.88,488.00 324.88,488.00 325.49,488.00 325.49,488.00 326.11,488.00 326.11,488.00 326.72,488.00 326.72,488.00 327.33,488.00 327.33,488.00 327.95,488.00 327.95,488.00 328.56,488.00 328.56,488.00 329.17,488.00 329.17,488.00 329.79,488.00 329.79,488.00 330.40,488.00 330.40,488.00 331.01,488.00 331.01,488.00 331.63,488.00 331.63,488.00 332.24,488.00 332.24,488.00 332.85,488.00 332.85,488.00 333.47,488.00 333.47,488.00 334.08,488.00 334.08,488.00 334.69,488.00 334.69,488.00 335.31,488.00 335.31,488.00 335.92,488.00 335.92,488.00 336.53,488.00 336.53,488.00 337.15,488.00 337.15,488.00 337.76,488.00 337.76,488.00 338.37,488.00 338.37,488.00 338.99,488.00 338.99,488.00 339.60,488.00 339.60,488.00 340.21,488.00 340.21,488.00 340.83,488.00 340.83,488.00 341.44,488.00 341.44,488.00 342.05,488.00 342.05,488.00 342.67,488.00 342.67,488.00 343.28,488.00 343.28,488.00 343.89,488.00 343.89,488.00 344.51,488.00 344.51,488.00 345.12,488.00 345.12,488.00 345.73,488.00 345.73,488.00 346.35,488.00 346.35,488.00 346.96,488.00 346.96,488.00 347.57,488.00 347.57,488.00 348.19,488.00 348.19,488.00 348.80,488.00 348.80,488.00 349.41,488.00 349.41,488.00 350.03,488.00 350.03,488.00 350.64,488.00 350.64,488.00 351.25,488.00 351.25,488.00 351.87,488.00 351.87,488.00 352.48,488.00 352.48,488.00 353.09,488.00 353.09,488.00 353.71,488.00 353.71,488.00 354.32,488.00 354.32,488.00 354.93,488.00 354.93,488.00 355.55,488.00 355.55,488.00 356.16,488.00 356.16,488.00 356.77,488.00 356.77,488.00 357.39,488.00 357.39,488.00 358.00,488.00 358.00,488.00 358.61,488.00 358.61,488.00 359.23,488.00 359.23,488.00 359.84,488.00 359.84,488.00 360.45,488.00 360.45,488.00 361.07,488.00 361.07,488.00 361.68,488.00 361.68,488.00 362.29,488.00 362.29,488.00 362.91,488.00 362.91,488.00 363.52,488.00 363.52,488.00 364.13,488.00 364.13,488.00 364.75,488.00 364.75,488.00 365.36,488.00 365.36,488.00 365.97,488.00 365.97,488.00 366.59,488.00 366.59,488.00 367.20,488.00 367.20,488.00 367.81,488.00 367.81,488.00 368.43,488.00 368.43,488.00 369.04,488.00 369.04,488.00 369.65,488.00 369.65,488.00 370.27,488.00 370.27,488.00 370.88,488.00 370.88,488.00 371.49,488.00 371.49,488.00 372.11,488.00 372.11,488.00 372.72,488.00 372.72,488.00 373.33,488.00 373.33,488.00 373.95,488.00 373.95,488.00 374.56,488.00 374.56,488.00 375.17,488.00 375.17,488.00 375.79,488.00 375.79,488.00 376.40,488.00 376.40,488.00 377.01,488.00 377.01,488.00 377.63,488.00 377.63,488.00 378.24,488.00 378.24,488.00 378.85,488.00 378.85,488.00 379.47,488.00 379.47,488.00 380.08,488.00 380.08,488.00 380.69,488.00 380.69,488.00 381.31,488.00 381.31,488.00 381.92,488.00 381.92,488.00 382.53,488.00 382.53,488.00 383.15,488.00 383.15,488.00 383.76,488.00 383.76,488.00 384.37,488.00 384.37,488.00 384.99,488.00 384.99,488.00 385.60,488.00 385.60,488.00 386.21,488.00 386.21,488.00 386.83,488.00 386.83,488.00 387.44,488.00 387.44,488.00 388.05,488.00 388.05,488.00 388.67,488.00 388.67,488.00 389.28,488.00 389.28,488.00 389.89,488.00 389.89,488.00 390.51,488.00 390.51,488.00 391.12,488.00 391.12,488.00 391.73,488.00 391.73,488.00 392.35,488.00 392.35,488.00 392.96,488.00 392.96,488.00 393.57,488.00 393.57,488.00 394.19,488.00 394.19,488.00 394.80,488.00 394.80,488.00 395.41,488.00 395.41,488.00 396.03,488.00 396.03,488.00 396.64,488.00 396.64,488.00 397.25,488.00 397.25,488.00 397.87,488.00 397.87,488.00 398.48,488.00 398.48,488.00 399.09,488.00 399.09,488.00 399.71,488.00 399.71,488.00 400.32,488.00 400.32,488.00 400.93,488.00 400.93,488.00 401.55,488.00 401.55,488.00 402.16,488.00 402.16,488.00 402.77,488.00 402.77,488.00 403.39,488.00 403.39,488.00 404.00,488.00 404.00,488.00 404.61,488.00 404.61,488.00 405.23,488.00 405.23,488.00 405.84,488.00 405.84,488.00 406.45,488.00 406.45,488.00 407.07,488.00 407.07,488.00 407.68,488.00 407.68,488.00 408.29,488.00 408.29,488.00 408.91,488.00 408.91,488.00 409.52,488.00 409.52,488.00 410.13,488.00 410.13,488.00 410.75,488.00 410.75,488.00 411.36,488.00 411.36,488.00 411.97,488.00 411.97,488.00 412.59,488.00 412.59,488.00 413.20,488.00 413.20,488.00 413.81,488.00 413.81,488.00 414.43,488.00 414.43,488.00 415.04,488.00 415.04,488.00 415.65,488.00 415.65,488.00 416.27,488.00 416.27,488.00 416.88,488.00 416.88,488.00 417.49,488.00 417.49,488.00 418.11,488.00 418.11,488.00 418.72,488.00 418.72,488.00 419.33,488.00 419.33,488.00 419.95,488.00 419.95,488.00 420.56,488.00 420.56,488.00 421.17,488.00 421.17,488.00 421.79,488.00 421.79,488.00 422.40,488.00 422.40,488.00 423.01,488.00 423.01,488.00 423.63,488.00 423.63,488.00 424.24,488.00 424.24,488.00 424.85,488.00 424.85,488.00 425.47,488.00 425.47,488.00 426.08,488.00 426.08,488.00 426.69,488.00 426.69,488.00 427.31,488.00 427.31,488.00 427.92,488.00 427.92,488.00 428.53,488.00 428.53,488.00 429.15,488.00 429.15,488.00 429.76,488.00 429.76,488.00 430.37,488.00 430.37,488.00 430.99,488.00 430.99,488.00 431.60,488.00 431.60,488.00 432.21,488.00 432.21,488.00 432.83,488.00 432.83,488.00 433.44,488.00 433.44,488.00 434.05,488.00 434.05,488.00 434.67,488.00 434.67,488.00 435.28,488.00 435.28,488.00 435.89,488.00 435.89,488.00 436.51,488.00 436.51,488.00 437.12,488.00 437.12,488.00 437.73,488.00 437.73,488.00 438.35,488.00 438.35,488.00 438.96,488.00 438.96,488.00 439.57,488.00 439.57,488.00 440.19,488.00 440.19,488.00 440.80,488.00 440.80,488.00 441.41,488.00 441.41,488.00 442.03,488.00 442.03,488.00 442.64,488.00 442.64,488.00 443.25,488.00 443.25,488.00 443.87,488.00 443.87,488.00 444.48,488.00 444.48,488.00 445.09,488.00 445.09,488.00 445.71,488.00 445.71,488.00 446.32,488.00 446.32,488.00 446.93,488.00 446.93,488.00 447.55,488.00 447.55,488.00 448.16,488.00 448.16,488.00 448.77,488.00 448.77,488.00 449.39,488.00 449.39,488.00 450.00,488.00 450.00,488.00 450.61,488.00 450.61,488.00 451.23,488.00 451.23,488.00 451.84,488.00 451.84,488.00 452.45,488.00 452.45,488.00 453.07,488.00 453.07,488.00 453.68,488.00 453.68,488.00 454.29,488.00 454.29,488.00 454.91,488.00 454.91,488.00 455.52,488.00 455.52,488.00 456.13,488.00 456.13,488.00 456.75,488.00 456.75,488.00 457.36,488.00 457.36,488.00 457.97,488.00 457.97,488.00 458.59,488.00 458.59,488.00 459.20,488.00 459.20,488.00 459.81,488.00 459.81,488.00 460.43,488.00 460.43,488.00 461.04,488.00 461.04,488.00 461.65,488.00 461.65,488.00 462.27,488.00 462.27,488.00 462.88,488.00 462.88,488.00 463.49,488.00 463.49,488.00 464.11,488.00 464.11,488.00 464.72,488.00 464.72,488.00 465.33,488.00 465.33,488.00 465.95,488.00 465.95,488.00 466.56,488.00 466.56,488.00 467.17,488.00 467.17,488.00 467.79,488.00 467.79,488.00 468.40,488.00 468.40,488.00 469.01,488.00 469.01,488.00 469.63,488.00 469.63,488.00 470.24,488.00 470.24,488.00 470.85,488.00 470.85,488.00 471.47,488.00 471.47,488.00 472.08,488.00 472.08,488.00 472.69,488.00 472.69,488.00 473.31,488.00 473.31,488.00 473.92,488.00 473.92,488.00 474.53,488.00 474.53,488.00 475.15,488.00 475.15,488.00 475.76,488.00 475.76,488.00 476.37,488.00 476.37,488.00 476.99,488.00 476.99,488.00 477.60,488.00 477.60,488.00 478.21,488.00 478.21,488.00 478.83,488.00 478.83,488.00 479.44,488.00 479.44,488.00 480.05,488.00 480.05,488.00 480.67,488.00 480.67,488.00 481.28,488.00 481.28,488.00 481.89,488.00 481.89,488.00 482.51,488.00 482.51,488.00 483.12,488.00 483.12,488.00 483.73,488.00 483.73,488.00 484.35,488.00 484.35,488.00 484.96,488.00 484.96,488.00 485.57,488.00 485.57,488.00 486.19,488.00 486.19,488.00 486.80,488.00 486.80,488.00 487.41,488.00 487.41,488.00 488.03,488.00 488.03,488.00 488.64,488.00 488.64,488.00 489.25,488.00 489.25,488.00 489.87,488.00 489.87,488.00 490.48,488.00 490.48,488.00 491.09,488.00 491.09,488.00 491.71,488.00 491.71,488.00 492.32,488.00 492.32,488.00 492.93,488.00 492.93,488.00 493.55,488.00 493.55,488.00 494.16,488.00 494.16,488.00 494.77,488.00 494.77,488.00 495.39,488.00 495.39,488.00 496.00,488.00 496.00,488.00 496.61,488.00 496.61,488.00 497.23,488.00 497.23,488.00 497.84,488.00 497.84,488.00 498.45,488.00 498.45,488.00 499.07,488.00 499.07,488.00 499.68,488.00 499.68,488.00 500.29,488.00 500.29,488.00 500.91,488.00 500.91,484.10 501.52,484.10 501.52,484.10 502.13,484.10 502.13,484.10 502.75,484.10 502.75,484.10 503.36,484.10 503.36,484.10 503.97,484.10 503.97,484.10 504.59,484.10 504.59,484.10 505.20,484.10 505.20,484.10 505.81,484.10 505.81,484.10 506.43,484.10 506.43,484.10 507.04,484.10 507.04,484.10 507.65,484.10 507.65,484.10 508.27,484.10 508.27,484.10 508.88,484.10 508.88,484.10 509.49,484.10 509.49,484.10 510.11,484.10 510.11,484.10 510.72,484.10 510.72,484.10 511.33,484.10 511.33,484.10 511.95,484.10 511.95,484.10 512.56,484.10 512.56,484.10 513.17,484.10 513.17,484.10 513.79,484.10 513.79,480.21 514.40,480.21 514.40,480.21 515.01,480.21 515.01,441.25 515.63,441.25 515.63,441.25 516.24,441.25 516.24,441.25 516.85,441.25 516.85,441.25 517.47,441.25 517.47,441.25 518.08,441.25 518.08,441.25 518.69,441.25 518.69,441.25 519.31,441.25 519.31,441.25 519.92,441.25 519.92,441.25 520.53,441.25 520.53,441.25 521.15,441.25 521.15,441.25 521.76,441.25 521.76,441.25 522.37,441.25 522.37,441.25 522.99,441.25 522.99,441.25 523.60,441.25 523.60,441.25 524.21,441.25 524.21,441.25 524.83,441.25 524.83,441.25 525.44,441.25 525.44,441.25 526.05,441.25 526.05,441.25 526.67,441.25 526.67,441.25 527.28,441.25 527.28,441.25 527.89,441.25 527.89,441.25 528.51,441.25 528.51,441.25 529.12,441.25 529.12,441.25 529.73,441.25 529.73,441.25 530.35,441.25 530.35,441.25 530.96,441.25 530.96,441.25 531.57,441.25 531.57,441.25 532.19,441.25 532.19,441.25 532.80,441.25 532.80,441.25 533.41,441.25 533.41,441.25 534.03,441.25 534.03,441.25 534.64,441.25 534.64,441.25 535.25,441.25 535.25,441.25 535.87,441.25 535.87,441.25 536.48,441.25 536.48,441.25 537.09,441.25 537.09,441.25 537.71,441.25 537.71,441.25 538.32,441.25 538.32,441.25 538.93,441.25 538.93,441.25 539.55,441.25 539.55,398.40 540.16,398.40 540.16,398.40 540.77,398.40 540.77,398.40 541.39,398.40 541.39,398.40 542.00,398.40 542.00,398.40 542.61,398.40 542.61,398.40 543.23,398.40 543.23,398.40 543.84,398.40 543.84,398.40 544.45,398.40 544.45,398.40 545.07,398.40 545.07,398.40 545.68,398.40 545.68,394.50 546.29,394.50 546.29,394.50 546.91,394.50 546.91,394.50 547.52,394.50 547.52,390.61 548.13,390.61 548.13,390.61 548.75,390.61 548.75,390.61 549.36,390.61 549.36,351.65 549.97,351.65 549.97,351.65 550.59,351.65 550.59,351.65 551.20,351.65 551.20,351.65 551.81,351.65 551.81,351.65 552.43,351.65 552.43,351.65 553.04,351.65 553.04,351.65 553.65,351.65 553.65,351.65 554.27,351.65 554.27,351.65 554.88,351.65 554.88,351.65 555.49,351.65 555.49,351.65 556.11,351.65 556.11,351.65 556.72,351.65 556.72,351.65 557.33,351.65 557.33,351.65 557.95,351.65 557.95,351.65 558.56,351.65 558.56,351.65 559.17,351.65 559.17,351.65 559.79,351.65 559.79,351.65 560.40,351.65 560.40,351.65 561.01,351.65 561.01,351.65 561.63,351.65 561.63,351.65 562.24,351.65 562.24,351.65 562.85,351.65 562.85,351.65 563.47,351.65 563.47,351.65 564.08,351.65 564.08,351.65 564.69,351.65 564.69,351.65 565.31,351.65 565.31,351.65 565.92,351.65 565.92,351.65 566.53,351.65 566.53,351.65 567.15,351.65 567.15,351.65 567.76,351.65 567.76,351.65 568.37,351.65 568.37,351.65 568.99,351.65 568.99,351.65 569.60,351.65 569.60,351.65 570.21,351.65 570.21,351.65 570.83,351.65 570.83,351.65 571.44,351.65 571.44,351.65 572.05,351.65 572.05,351.65 572.67,351.65 572.67,351.65 573.28,351.65 573.28,351.65 573.89,351.65 573.89,351.65 574.51,351.65 574.51,351.65 575.12,351.65 575.12,351.65 575.73,351.65 575.73,351.65 576.35,351.65 576.35,351.65 576.96,351.65 576.96,351.65 577.57,351.65 577.57,351.65 578.19,351.65 578.19,351.65 578.80,351.65 578.80,351.65 579.41,351.65 579.41,351.65 580.03,351.65 580.03,351.65 580.64,351.65 580.64,351.65 581.25,351.65 581.25,351.65 581.87,351.65 581.87,351.65 582.48,351.65 582.48,351.65 583.09,351.65 583.09,351.65 583.71,351.65 583.71,351.65 584.32,351.65 584.32,351.65 584.93,351.65 584.93,351.65 585.55,351.65 585.55,351.65 586.16,351.65 586.16,351.65 586.77,351.65 586.77,351.65 587.39,351.65 587.39,351.65 588.00,351.65 588.00,351.65 588.61,351.65 588.61,351.65 589.23,351.65 589.23,351.65 589.84,351.65 589.84,351.65 590.45,351.65 590.45,351.65 591.07,351.65 591.07,351.65 591.68,351.65 591.68,351.65 592.29,351.65 592.29,351.65 592.91,351.65 592.91,351.65 593.52,351.65 593.52,351.65 594.13,351.65 594.13,351.65 594.75,351.65 594.75,351.65 595.36,351.65 595.36,351.65 595.97,351.65 595.97,351.65 596.59,351.65 596.59,351.65 597.20,351.65 597.20,351.65 597.81,351.65 597.81,351.65 598.43,351.65 598.43,351.65 599.04,351.65 599.04,351.65 599.65,351.65 599.65,351.65 600.27,351.65 600.27,351.65 600.88,351.65 600.88,351.65 601.49,351.65 601.49,351.65 602.11,351.65 602.11,351.65 602.72,351.65 602.72,351.65 603.33,351.65 603.33,351.65 603.95,351.65 603.95,351.65 604.56,351.65 604.56,351.65 605.17,351.65 605.17,351.65 605.79,351.65 605.79,351.65 606.40,351.65 606.40,351.65 607.01,351.65 607.01,351.65 607.63,351.65 607.63,351.65 608.24,351.65 608.24,351.65 608.85,351.65 608.85,351.65 609.47,351.65 609.47,351.65 610.08,351.65 610.08,351.65 610.69,351.65 610.69,351.65 611.31,351.65 611.31,351.65 611.92,351.65 611.92,351.65 612.53,351.65 612.53,351.65 613.15,351.65 613.15,347.76 613.76,347.76 613.76,347.76 614.37,347.76 614.37,339.97 614.99,339.97 614.99,339.97 615.60,339.97 615.60,339.97 616.21,339.97 616.21,339.97 616.83,339.97 616.83,339.97 617.44,339.97 617.44,336.07 618.05,336.07 618.05,336.07 618.67,336.07 618.67,297.11 619.28,297.11 619.28,289.32 619.89,289.32 619.89,289.32 620.51,289.32 620.51,289.32 621.12,289.32 621.12,277.63 621.73,277.63 621.73,277.63 622.35,277.63 622.35,277.63 622.96,277.63 622.96,277.63 623.57,277.63 623.57,277.63 624.19,277.63 624.19,277.63 624.80,277.63 624.80,277.63 625.41,277.63 625.41,277.63 626.03,277.63 626.03,277.63 626.64,277.63 626.64,277.63 627.25,277.63 627.25,277.63 627.87,277.63 627.87,277.63 628.48,277.63 628.48,277.63 629.09,277.63 629.09,277.63 629.71,277.63 629.71,277.63 630.32,277.63 630.32,277.63 630.93,277.63 630.93,277.63 631.55,277.63 631.55,277.63 632.16,277.63 632.16,277.63 632.77,277.63 632.77,277.63 633.39,277.63 633.39,277.63 634.00,277.63 634.00,277.63 634.61,277.63 634.61,277.63 635.23,277.63 635.23,277.63 635.84,277.63 635.84,277.63 636.45,277.63 636.45,277.63 637.07,277.63 637.07,277.63 637.68,277.63 637.68,277.63 638.29,277.63 638.29,277.63 638.91,277.63 638.91,277.63 639.52,277.63 639.52,277.63 640.13,277.63 640.13,277.63 640.75,277.63 640.75,277.63 641.36,277.63 641.36,277.63 641.97,277.63 641.97,277.63 642.59,277.63 642.59,277.63 643.20,277.63 643.20,277.63 643.81,277.63 643.81,277.63 644.43,277.63 644.43,277.63 645.04,277.63 645.04,277.63 645.65,277.63 645.65,277.63 646.27,277.63 646.27,277.63 646.88,277.63 646.88,277.63 647.49,277.63 647.49,277.63 648.11,277.63 648.11,277.63 648.72,277.63 648.72,277.63 649.33,277.63 649.33,277.63 649.95,277.63 649.95,277.63 650.56,277.63 650.56,277.63 651.17,277.63 651.17,226.99 651.79,226.99 651.79,172.45 652.40,172.45 652.40,172.45 653.01,172.45 653.01,172.45 653.63,172.45 653.63,172.45 654.24,172.45 654.24,172.45 654.85,172.45 654.85,141.29 655.47,141.29 655.47,141.29 656.08,141.29 656.08,141.29 656.69,141.29 656.69,141.29 657.31,141.29 657.31,141.29 657.92,141.29 657.92,141.29 658.53,141.29 658.53,141.29 659.15,141.29 659.15,141.29 659.76,141.29 659.76,141.29 660.37,141.29 660.37,141.29 660.99,141.29 660.99,141.29 661.60,141.29 661.60,141.29 662.21,141.29 662.21,141.29 662.83,141.29 662.83,141.29 663.44,141.29 663.44,141.29 664.05,141.29 664.05,141.29 664.67,141.29 664.67,141.29 665.28,141.29 665.28,141.29 665.89,141.29 665.89,141.29 666.51,141.29 666.51,141.29 667.12,141.29 667.12,141.29 667.73,141.29 667.73,141.29 668.35,141.29 668.35,141.29 668.96,141.29 668.96,141.29 669.57,141.29 669.57,141.29 670.19,141.29 670.19,141.29 670.80,141.29 670.80,141.29 671.41,141.29 671.41,141.29 672.03,141.29 672.03,141.29 672.64,141.29 672.64,141.29 673.25,141.29 673.25,141.29 673.87,141.29 673.87,141.29 674.48,141.29 674.48,141.29 675.09,141.29 675.09,141.29 675.71,141.29 675.71,141.29 676.32,141.29 676.32,141.29 676.93,141.29 676.93,141.29 677.55,141.29 677.55,141.29 678.16,141.29 678.16,141.29 678.77,141.29 678.77,141.29 679.39,141.29 679.39,141.29 680.00,141.29 680.00,141.29 680.61,141.29 680.61,141.29 681.23,141.29 681.23,141.29 681.84,141.29 681.84,141.29 682.45,141.29 682.45,141.29 683.07,141.29 683.07,141.29 683.68,141.29 683.68,141.29 684.29,141.29 684.29,141.29 684.91,141.29 684.91,141.29 685.52,141.29 685.52,141.29 686.13,141.29 686.13,141.29 686.75,141.29 686.75,141.29 687.36,141.29 687.36,141.29 687.97,141.29 687.97,141.29 688.59,141.29 688.59,141.29 689.20,141.29 689.20,141.29 689.81,141.29 689.81,141.29 690.43,141.29 690.43,141.29 691.04,141.29 691.04,141.29 691.65,141.29 691.65,141.29 692.27,141.29 692.27,141.29 692.88,141.29 692.88,141.29 693.49,141.29 693.49,141.29 694.11,141.29 694.11,141.29 694.72,141.29 694.72,141.29 695.33,141.29 695.33,141.29 695.95,141.29 695.95,141.29 696.56,141.29 696.56,141.29 697.17,141.29 697.17,141.29 697.79,141.29 697.79,141.29 698.40,141.29 698.40,141.29 699.01,141.29 699.01,141.29 699.63,141.29 699.63,141.29 700.24,141.29 700.24,141.29 700.85,141.29 700.85,141.29 701.47,141.29 701.47,141.29 702.08,141.29 702.08,141.29 702.69,141.29 702.69,141.29 703.31,141.29 703.31,141.29 703.92,141.29 703.92,137.39 704.53,137.39 704.53,137.39 705.15,137.39 705.15,137.39 705.76,137.39 705.76,137.39 706.37,137.39 706.37,137.39 706.99,137.39 706.99,137.39 707.60,137.39 707.60,137.39 708.21,137.39 708.21,137.39 708.83,137.39 708.83,137.39 709.44,137.39 709.44,137.39 710.05,137.39 710.05,137.39 710.67,137.39 710.67,137.39 711.28,137.39 711.28,137.39 711.89,137.39 711.89,137.39 712.51,137.39 712.51,137.39 713.12,137.39 713.12,137.39 713.73,137.39 713.73,137.39 714.35,137.39 714.35,137.39 714.96,137.39 714.96,137.39 715.57,137.39 715.57,137.39 716.19,137.39 716.19,137.39 716.80,137.39 716.80,137.39 717.41,137.39 717.41,137.39 718.03,137.39 718.03,137.39 718.64,137.39 718.64,137.39 719.25,137.39 719.25,137.39 719.87,137.39 719.87,137.39 720.48,137.39 720.48,137.39 721.09,137.39 721.09,137.39 721.71,137.39 721.71,137.39 722.32,137.39 722.32,133.50 722.93,133.50 722.93,133.50 723.55,133.50 723.55,133.50 724.16,133.50 724.16,133.50 724.77,133.50 724.77,133.50 725.39,133.50 725.39,133.50 726.00,133.50 726.00,133.50 726.61,133.50 726.61,133.50 727.23,133.50 727.23,133.50 727.84,133.50 727.84,133.50 728.45,133.50 728.45,133.50 729.07,133.50 729.07,133.50 729.68,133.50 729.68,133.50 730.29,133.50 730.29,106.23 730.91,106.23 730.91,106.23 731.52,106.23 731.52,106.23 732.13,106.23 732.13,106.23 732.75,106.23 732.75,102.33 733.36,102.33 733.36,102.33 733.97,102.33 733.97,40.00 734.59,40.00 734.59,40.00 735.20,40.00 735.20,40.00 735.81,40.00 735.81,40.00 736.43,40.00 736.43,40.00 737.04,40.00 737.04,40.00 737.65,40.00 737.65,40.00 738.27,40.00 738.27,40.00 738.88,40.00 738.88,40.00 739.49,40.00 739.49,40.00 740.11,40.00 740.11,40.00 740.72,40.00 740.72,40.00 741.33,40.00 741.33,40.00 741.95,40.00 741.95,40.00 742.56,40.00 742.56,40.00 743.17,40.00 743.17,40.00 743.79,40.00 743.79,40.00 744.40,40.00 744.40,40.00 745.01,40.00 745.01,40.00 745.63,40.00 745.63,40.00 746.24,40.00 746.24,40.00 746.85,40.00 746.85,40.00 747.47,40.00 747.47,40.00 748.08,40.00 748.08,40.00 748.69,40.00 748.69,40.00 749.31,40.00 749.31,40.00 749.92,40.00 749.92,40.00 750.53,40.00 750.53,40.00 751.15,40.00 751.15,40.00 751.76,40.00 751.76,40.00 752.37,40.00 752.37,40.00 752.99,40.00 752.99,40.00 753.60,40.00 753.60,40.00 754.21,40.00 754.21,40.00 754.83,40.00 754.83,40.00 755.44,40.00 755.44,40.00 756.05,40.00 756.05,40.00 756.67,40.00 756.67,40.00 757.28,40.00 757.28,40.00 757.89,40.00 757.89,40.00 758.51,40.00 758.51,40.00 759.12,40.00 759.12,40.00 759.73,40.00 759.73,40.00 760.35,40.00 760.35,40.00 760.96,40.00 760.96,40.00 761.57,40.00 761.57,40.00 762.19,40.00 762.19,40.00 762.80,40.00 762.80,40.00 763.41,40.00 763.41,40.00 764.03,40.00 764.03,40.00 764.64,40.00 764.64,40.00 765.25,40.00 765.25,40.00 765.87,40.00 765.87,40.00 766.48,40.00 766.48,40.00 767.09,40.00 767.09,40.00 767.71,40.00 767.71,40.00 768.32,40.00 768.32,40.00 768.93,40.00 768.93,40.00 769.55,40.00 769.55,40.00 770.16,40.00 770.16,40.00 770.77,40.00 770.77,40.00 771.39,40.00 771.39,40.00 772.00,40.00 772.00,40.00 772.61,40.00 772.61,40.00 773.23,40.00 773.23,40.00 773.84,40.00 773.84,40.00 774.45,40.00 774.45,40.00 775.07,40.00 775.07,40.00 775.68,40.00 775.68,40.00 776.29,40.00 776.29,40.00 776.91,40.00 776.91,40.00 777.52,40.00 777.52,40.00 778.13,40.00 778.13,40.00 778.75,40.00 778.75,40.00 779.36,40.00 779.36,40.00 779.97,40.00 779.97,40.00 780.59,40.00 780.59,40.00 781.20,40.00 781.20,40.00 781.81,40.00 781.81,40.00 782.43,40.00 782.43,40.00 783.04,40.00 783.04,40.00 783.65,40.00 783.65,40.00 784.27,40.00 784.27,40.00 784.88,40.00 784.88,40.00 785.49,40.00 785.49,40.00 786.11,40.00 786.11,40.00 786.72,40.00 786.72,40.00 787.33,40.00 787.33,40.00 787.95,40.00 787.95,40.00 788.56,40.00 788.56,40.00 789.17,40.00 789.17,40.00 789.79,40.00 789.79,40.00 790.40,40.00 790.40,40.00 791.01,40.00 791.01,40.00 791.63,40.00 791.63,40.00 792.24,40.00 792.24,40.00 792.85,40.00 792.85,40.00 793.47,40.00 793.47,40.00 794.08,40.00 794.08,40.00 794.69,40.00 794.69,40.00 795.31,40.00 795.31,40.00 795.92,40.00 795.92,40.00 796.53,40.00 796.53,40.00 797.15,40.00 797.15,40.00 797.76,40.00 797.76,40.00 798.37,40.00 798.37,40.00 798.99,40.00 798.99,40.00 799.60,40.00 799.60,40.00 800.21,40.00 800.21,40.00 800.83,40.00 800.83,40.00 801.44,40.00 801.44,40.00 802.05,40.00 802.05,40.00 802.67,40.00 802.67,40.00 803.28,40.00 803.28,40.00 803.89,40.00 803.89,40.00 804.51,40.00 804.51,40.00 805.12,40.00 805.12,40.00 805.73,40.00 805.73,40.00 806.35,40.00 806.35,40.00 806.96,40.00 806.96,40.00 807.57,40.00 807.57,40.00 808.19,40.00 808.19,40.00 808.80,40.00 808.80,40.00 809.41,40.00 809.41,40.00 810.03,40.00 810.03,40.00 810.64,40.00 810.64,40.00 811.25,40.00 811.25,40.00 811.87,40.00 811.87,40.00 812.48,40.00 812.48,40.00 813.09,40.00 813.09,40.00 813.71,40.00 813.71,40.00 814.32,40.00 814.32,40.00 814.93,40.00 814.93,40.00 815.55,40.00 815.55,40.00 816.16,40.00 816.16,40.00 816.77,40.00 816.77,40.00 817.39,40.00 817.39,40.00 818.00,40.00 818.00,40.00" fill="none" stroke="#4b8f29" stroke-width="3"/>
<text x="450.0" y="552" text-anchor="middle" font-size="20" font-family="Arial, sans-serif" fill="#111827">Top displacement (mm)</text>
<text x="24" y="280.0" text-anchor="middle" transform="rotate(-90 24 280.0)" font-size="20" font-family="Arial, sans-serif" fill="#111827">Force magnitude (N)</text>
<text x="880" y="280.0" text-anchor="middle" transform="rotate(90 880 280.0)" font-size="20" font-family="Arial, sans-serif" fill="#111827">Broken bonds</text>
<text x="102" y="64" font-size="18" font-family="Arial, sans-serif" fill="#1b6ca8">Top plate</text>
<text x="212" y="64" font-size="18" font-family="Arial, sans-serif" fill="#d1495b">Bottom plate</text>
<text x="352" y="64" font-size="18" font-family="Arial, sans-serif" fill="#4b8f29">Broken bonds</text>
<text x="72" y="45" text-anchor="end" font-size="17" fill="#30363d">8.84</text>
<text x="72" y="488" text-anchor="end" font-size="17" fill="#30363d">0</text>
<text x="828" y="45" text-anchor="start" font-size="17" fill="#30363d">115</text>
<text x="828" y="488" text-anchor="start" font-size="17" fill="#30363d">0</text>
</svg>
