<svg xmlns="http://www.w3.org/2000/svg" width="900" height="560" viewBox="0 0 900 560">
<rect width="100%" height="100%" fill="white"/>
<text x="450.0" y="26" text-anchor="middle" font-size="22" font-family="Arial, sans-serif" fill="#111827">SP-002 force-displacement and bond breakage</text>
<line x1="82" y1="40.00" x2="818" y2="40.00" stroke="#d9dee2" stroke-width="1"/><line x1="82" y1="129.60" x2="818" y2="129.60" stroke="#d9dee2" stroke-width="1"/><line x1="82" y1="219.20" x2="818" y2="219.20" stroke="#d9dee2" stroke-width="1"/><line x1="82" y1="308.80" x2="818" y2="308.80" stroke="#d9dee2" stroke-width="1"/><line x1="82" y1="398.40" x2="818" y2="398.40" stroke="#d9dee2" stroke-width="1"/><line x1="82" y1="488.00" x2="818" y2="488.00" stroke="#d9dee2" stroke-width="1"/><line x1="82.00" y1="40" x2="82.00" y2="488" stroke="#edf0f2" stroke-width="1"/><text x="82.00" y="526" text-anchor="middle" font-size="18" fill="#30363d">0.000</text><line x1="229.20" y1="40" x2="229.20" y2="488" stroke="#edf0f2" stroke-width="1"/><text x="229.20" y="526" text-anchor="middle" font-size="18" fill="#30363d">0.030</text><line x1="376.40" y1="40" x2="376.40" y2="488" stroke="#edf0f2" stroke-width="1"/><text x="376.40" y="526" text-anchor="middle" font-size="18" fill="#30363d">0.060</text><line x1="523.60" y1="40" x2="523.60" y2="488" stroke="#edf0f2" stroke-width="1"/><text x="523.60" y="526" text-anchor="middle" font-size="18" fill="#30363d">0.090</text><line x1="670.80" y1="40" x2="670.80" y2="488" stroke="#edf0f2" stroke-width="1"/><text x="670.80" y="526" text-anchor="middle" font-size="18" fill="#30363d">0.120</text><line x1="818.00" y1="40" x2="818.00" y2="488" stroke="#edf0f2" stroke-width="1"/><text x="818.00" y="526" text-anchor="middle" font-size="18" fill="#30363d">0.150</text>
<line x1="82" y1="40" x2="82" y2="488" stroke="#111827" stroke-width="1.5"/>
<line x1="82" y1="488" x2="818" y2="488" stroke="#111827" stroke-width="1.5"/>
<line x1="818" y1="40" x2="818" y2="488" stroke="#111827" stroke-width="1.5"/>
<polyline points="82.00,488.00 84.45,488.00 86.91,488.00 89.36,488.00 91.81,488.00 94.27,488.00 96.72,488.00 99.17,488.00 101.63,488.00 104.08,488.00 106.53,488.00 108.99,488.00 111.44,488.00 113.89,488.00 116.35,488.00 118.80,488.00 121.25,488.00 123.71,488.00 126.16,488.00 128.61,488.00 131.07,488.00 133.52,488.00 135.97,488.00 138.43,488.00 140.88,488.00 143.33,488.00 145.79,488.00 148.24,488.00 150.69,488.00 153.15,488.00 155.60,488.00 158.05,488.00 160.51,488.00 162.96,488.00 165.41,488.00 167.87,488.00 170.32,488.00 172.77,488.00 175.23,488.00 177.68,488.00 180.13,488.00 182.59,488.00 185.04,488.00 187.49,488.00 189.95,488.00 192.40,488.00 194.85,488.00 197.31,488.00 199.76,488.00 202.21,488.00 204.67,488.00 207.12,488.00 209.57,488.00 212.03,488.00 214.48,488.00 216.93,488.00 219.39,488.00 221.84,488.00 224.29,488.00 226.75,488.00 229.20,488.00 231.65,488.00 234.11,488.00 236.56,488.00 239.01,488.00 241.47,488.00 243.92,488.00 246.37,488.00 248.83,488.00 251.28,488.00 253.73,488.00 256.19,488.00 258.64,488.00 261.09,488.00 263.55,488.00 266.00,488.00 268.45,488.00 270.91,488.00 273.36,488.00 275.81,488.00 278.27,488.00 280.72,488.00 283.17,488.00 285.63,488.00 288.08,488.00 290.53,488.00 292.99,488.00 295.44,488.00 297.89,488.00 300.35,488.00 302.80,488.00 305.25,488.00 307.71,488.00 310.16,488.00 312.61,488.00 315.07,488.00 317.52,488.00 319.97,488.00 322.43,488.00 324.88,488.00 327.33,488.00 329.79,488.00 332.24,488.00 334.69,488.00 337.15,488.00 339.60,488.00 342.05,488.00 344.51,488.00 346.96,488.00 349.41,488.00 351.87,488.00 354.32,488.00 356.77,488.00 359.23,488.00 361.68,488.00 364.13,488.00 366.59,488.00 369.04,488.00 371.49,488.00 373.95,488.00 376.40,488.00 378.85,488.00 381.31,488.00 383.76,488.00 386.21,488.00 388.67,488.00 391.12,488.00 393.57,488.00 396.03,488.00 398.48,488.00 400.93,488.00 403.39,488.00 405.84,488.00 408.29,488.00 410.75,488.00 413.20,488.00 415.65,488.00 418.11,488.00 420.56,488.00 423.01,488.00 425.47,488.00 427.92,488.00 430.37,488.00 432.83,488.00 435.28,488.00 437.73,488.00 440.19,488.00 442.64,488.00 445.09,488.00 447.55,488.00 450.00,488.00 452.45,488.00 454.91,488.00 457.36,488.00 459.81,488.00 462.27,488.00 464.72,488.00 467.17,488.00 469.63,488.00 472.08,488.00 474.53,488.00 476.99,488.00 479.44,488.00 481.89,488.00 484.35,488.00 486.80,488.00 489.25,488.00 491.71,488.00 494.16,488.00 496.61,488.00 499.07,488.00 501.52,488.00 503.97,488.00 506.43,488.00 508.88,488.00 511.33,488.00 513.79,488.00 516.24,488.00 518.69,488.00 521.15,488.00 523.60,488.00 526.05,488.00 528.51,488.00 530.96,488.00 533.41,488.00 535.87,488.00 538.32,488.00 540.77,488.00 543.23,488.00 545.68,488.00 548.13,488.00 550.59,488.00 553.04,488.00 555.49,488.00 557.95,488.00 560.40,488.00 562.85,488.00 565.31,488.00 567.76,488.00 570.21,488.00 572.67,487.99 575.12,483.77 577.57,476.84 580.03,468.44 582.48,458.96 584.93,448.62 587.39,437.57 589.84,425.89 592.29,413.68 594.75,400.97 597.20,387.83 599.65,374.29 602.11,360.38 604.56,346.14 607.01,331.57 609.47,316.72 611.92,300.67 614.37,281.74 616.83,261.47 619.28,277.21 621.73,333.50 624.19,339.05 626.64,332.75 629.09,323.04 631.55,312.26 634.00,300.06 636.45,286.47 638.91,272.38 641.36,257.85 643.81,412.02 646.27,373.89 648.72,354.82 651.17,339.92 653.63,325.59 656.08,311.06 658.53,296.22 660.99,281.04 663.44,265.53 665.89,249.67 668.35,232.93 670.80,215.39 673.25,197.27 675.71,178.66 678.16,159.62 680.61,140.19 683.07,336.86 685.52,268.88 687.97,460.32 690.43,438.36 692.88,425.81 695.33,417.10 697.79,408.88 700.24,401.34 702.69,393.97 705.15,386.56 707.60,378.97 710.05,371.17 712.51,363.21 714.96,355.11 717.41,346.88 719.87,338.52 722.32,330.04 724.77,321.09 727.23,311.52 729.68,301.49 732.13,291.10 734.59,280.37 737.04,269.33 739.49,257.98 741.95,246.34 744.40,234.41 746.85,222.18 749.31,209.57 751.76,193.91 754.21,175.76 756.67,155.26 759.12,133.23 761.57,110.35 764.03,173.54 766.48,145.29 768.93,124.36 771.39,103.08 773.84,81.32 776.29,59.20 778.75,40.00 781.20,96.77 783.65,169.47 786.11,173.83 788.56,185.21 791.01,196.77 793.47,207.31 795.92,216.76 798.37,225.01 800.83,232.04 803.28,237.65 805.73,232.51 808.19,227.69 810.64,218.27 813.09,213.97 815.55,212.05 818.00,210.98" fill="none" stroke="#1b6ca8" stroke-width="3"/>
<polyline points="82.00,488.00 84.45,488.00 86.91,488.00 89.36,488.00 91.81,488.00 94.27,488.00 96.72,488.00 99.17,488.00 101.63,488.00 104.08,488.00 106.53,488.00 108.99,488.00 111.44,488.00 113.89,488.00 116.35,488.00 118.80,488.00 121.25,488.00 123.71,488.00 126.16,488.00 128.61,488.00 131.07,488.00 133.52,488.00 135.97,488.00 138.43,488.00 140.88,488.00 143.33,488.00 145.79,488.00 148.24,488.00 150.69,488.00 153.15,488.00 155.60,488.00 158.05,488.00 160.51,488.00 162.96,488.00 165.41,488.00 167.87,488.00 170.32,488.00 172.77,488.00 175.23,488.00 177.68,488.00 180.13,488.00 182.59,488.00 185.04,488.00 187.49,488.00 189.95,488.00 192.40,488.00 194.85,488.00 197.31,488.00 199.76,488.00 202.21,488.00 204.67,488.00 207.12,488.00 209.57,488.00 212.03,488.00 214.48,488.00 216.93,488.00 219.39,488.00 221.84,488.00 224.29,488.00 226.75,488.00 229.20,488.00 231.65,488.00 234.11,488.00 236.56,488.00 239.01,488.00 241.47,488.00 243.92,488.00 246.37,488.00 248.83,488.00 251.28,488.00 253.73,488.00 256.19,488.00 258.64,488.00 261.09,488.00 263.55,488.00 266.00,488.00 268.45,488.00 270.91,488.00 273.36,488.00 275.81,488.00 278.27,488.00 280.72,488.00 283.17,488.00 285.63,488.00 288.08,488.00 290.53,488.00 292.99,488.00 295.44,488.00 297.89,488.00 300.35,488.00 302.80,488.00 305.25,488.00 307.71,488.00 310.16,488.00 312.61,488.00 315.07,488.00 317.52,488.00 319.97,488.00 322.43,488.00 324.88,488.00 327.33,488.00 329.79,488.00 332.24,488.00 334.69,488.00 337.15,488.00 339.60,488.00 342.05,488.00 344.51,488.00 346.96,488.00 349.41,488.00 351.87,488.00 354.32,488.00 356.77,488.00 359.23,488.00 361.68,488.00 364.13,488.00 366.59,488.00 369.04,488.00 371.49,488.00 373.95,488.00 376.40,488.00 378.85,488.00 381.31,488.00 383.76,488.00 386.21,488.00 388.67,488.00 391.12,488.00 393.57,488.00 396.03,488.00 398.48,488.00 400.93,488.00 403.39,488.00 405.84,488.00 408.29,488.00 410.75,488.00 413.20,488.00 415.65,488.00 418.11,488.00 420.56,488.00 423.01,488.00 425.47,488.00 427.92,488.00 430.37,488.00 432.83,488.00 435.28,488.00 437.73,488.00 440.19,488.00 442.64,488.00 445.09,488.00 447.55,488.00 450.00,488.00 452.45,488.00 454.91,488.00 457.36,488.00 459.81,488.00 462.27,488.00 464.72,488.00 467.17,488.00 469.63,488.00 472.08,488.00 474.53,488.00 476.99,488.00 479.44,488.00 481.89,488.00 484.35,488.00 486.80,488.00 489.25,488.00 491.71,488.00 494.16,488.00 496.61,488.00 499.07,488.00 501.52,488.00 503.97,488.00 506.43,488.00 508.88,488.00 511.33,488.00 513.79,488.00 516.24,488.00 518.69,488.00 521.15,488.00 523.60,488.00 526.05,488.00 528.51,488.00 530.96,488.00 533.41,488.00 535.87,488.00 538.32,488.00 540.77,488.00 543.23,488.00 545.68,488.00 548.13,488.00 550.59,488.00 553.04,488.00 555.49,488.00 557.95,488.00 560.40,488.00 562.85,488.00 565.31,488.00 567.76,488.00 570.21,488.00 572.67,488.00 575.12,485.51 577.57,479.44 580.03,471.55 582.48,462.45 584.93,452.42 587.39,441.62 589.84,430.17 592.29,418.14 594.75,405.61 597.20,392.63 599.65,379.23 602.11,365.45 604.56,351.33 607.01,336.88 609.47,322.13 611.92,306.76 614.37,288.68 616.83,268.84 619.28,473.80 621.73,400.83 624.19,367.06 626.64,349.54 629.09,336.72 631.55,325.08 634.00,313.40 636.45,300.68 638.91,287.09 641.36,272.88 643.81,361.38 646.27,376.23 648.72,368.55 651.17,355.97 653.63,342.08 656.08,327.64 658.53,312.80 660.99,297.62 663.44,282.11 665.89,265.98 668.35,248.61 670.80,230.73 673.25,212.41 675.71,193.67 678.16,174.53 680.61,155.02 683.07,144.12 685.52,249.14 687.97,367.97 690.43,412.90 692.88,424.02 695.33,424.55 697.79,420.60 700.24,414.66 702.69,407.89 705.15,400.70 707.60,393.25 710.05,385.56 712.51,377.67 714.96,369.61 717.41,361.42 719.87,353.08 722.32,344.53 724.77,334.88 727.23,324.91 729.68,314.65 732.13,304.12 734.59,293.29 737.04,282.18 739.49,270.79 741.95,259.11 744.40,247.15 746.85,234.91 749.31,222.35 751.76,208.04 754.21,191.03 756.67,171.26 759.12,149.61 761.57,126.97 764.03,167.78 766.48,159.41 768.93,139.80 771.39,118.61 773.84,96.89 776.29,74.79 778.75,54.11 781.20,80.81 783.65,151.64 786.11,179.15 788.56,192.90 791.01,204.60 793.47,215.04 795.92,224.39 798.37,232.59 800.83,239.60 803.28,245.35 805.73,245.83 808.19,241.33 810.64,234.59 813.09,227.71 815.55,222.53 818.00,220.44" fill="none" stroke="#d1495b" stroke-width="3"/>
<polyline points="82.00,488.00 84.45,488.00 84.45,488.00 86.91,488.00 86.91,488.00 89.36,488.00 89.36,488.00 91.81,488.00 91.81,488.00 94.27,488.00 94.27,488.00 96.72,488.00 96.72,488.00 99.17,488.00 99.17,488.00 101.63,488.00 101.63,488.00 104.08,488.00 104.08,488.00 106.53,488.00 106.53,488.00 108.99,488.00 108.99,488.00 111.44,488.00 111.44,488.00 113.89,488.00 113.89,488.00 116.35,488.00 116.35,488.00 118.80,488.00 118.80,488.00 121.25,488.00 121.25,488.00 123.71,488.00 123.71,488.00 126.16,488.00 126.16,488.00 128.61,488.00 128.61,488.00 131.07,488.00 131.07,488.00 133.52,488.00 133.52,488.00 135.97,488.00 135.97,488.00 138.43,488.00 138.43,488.00 140.88,488.00 140.88,488.00 143.33,488.00 143.33,488.00 145.79,488.00 145.79,488.00 148.24,488.00 148.24,488.00 150.69,488.00 150.69,488.00 153.15,488.00 153.15,488.00 155.60,488.00 155.60,488.00 158.05,488.00 158.05,488.00 160.51,488.00 160.51,488.00 162.96,488.00 162.96,488.00 165.41,488.00 165.41,488.00 167.87,488.00 167.87,488.00 170.32,488.00 170.32,488.00 172.77,488.00 172.77,488.00 175.23,488.00 175.23,488.00 177.68,488.00 177.68,488.00 180.13,488.00 180.13,488.00 182.59,488.00 182.59,488.00 185.04,488.00 185.04,488.00 187.49,488.00 187.49,488.00 189.95,488.00 189.95,488.00 192.40,488.00 192.40,488.00 194.85,488.00 194.85,488.00 197.31,488.00 197.31,488.00 199.76,488.00 199.76,488.00 202.21,488.00 202.21,488.00 204.67,488.00 204.67,488.00 207.12,488.00 207.12,488.00 209.57,488.00 209.57,488.00 212.03,488.00 212.03,488.00 214.48,488.00 214.48,488.00 216.93,488.00 216.93,488.00 219.39,488.00 219.39,488.00 221.84,488.00 221.84,488.00 224.29,488.00 224.29,488.00 226.75,488.00 226.75,488.00 229.20,488.00 229.20,488.00 231.65,488.00 231.65,488.00 234.11,488.00 234.11,488.00 236.56,488.00 236.56,488.00 239.01,488.00 239.01,488.00 241.47,488.00 241.47,488.00 243.92,488.00 243.92,488.00 246.37,488.00 246.37,488.00 248.83,488.00 248.83,488.00 251.28,488.00 251.28,488.00 253.73,488.00 253.73,488.00 256.19,488.00 256.19,488.00 258.64,488.00 258.64,488.00 261.09,488.00 261.09,488.00 263.55,488.00 263.55,488.00 266.00,488.00 266.00,488.00 268.45,488.00 268.45,488.00 270.91,488.00 270.91,488.00 273.36,488.00 273.36,488.00 275.81,488.00 275.81,488.00 278.27,488.00 278.27,488.00 280.72,488.00 280.72,488.00 283.17,488.00 283.17,488.00 285.63,488.00 285.63,488.00 288.08,488.00 288.08,488.00 290.53,488.00 290.53,488.00 292.99,488.00 292.99,488.00 295.44,488.00 295.44,488.00 297.89,488.00 297.89,488.00 300.35,488.00 300.35,488.00 302.80,488.00 302.80,488.00 305.25,488.00 305.25,488.00 307.71,488.00 307.71,488.00 310.16,488.00 310.16,488.00 312.61,488.00 312.61,488.00 315.07,488.00 315.07,488.00 317.52,488.00 317.52,488.00 319.97,488.00 319.97,488.00 322.43,488.00 322.43,488.00 324.88,488.00 324.88,488.00 327.33,488.00 327.33,488.00 329.79,488.00 329.79,488.00 332.24,488.00 332.24,488.00 334.69,488.00 334.69,488.00 337.15,488.00 337.15,488.00 339.60,488.00 339.60,488.00 342.05,488.00 342.05,488.00 344.51,488.00 344.51,488.00 346.96,488.00 346.96,488.00 349.41,488.00 349.41,488.00 351.87,488.00 351.87,488.00 354.32,488.00 354.32,488.00 356.77,488.00 356.77,488.00 359.23,488.00 359.23,488.00 361.68,488.00 361.68,488.00 364.13,488.00 364.13,488.00 366.59,488.00 366.59,488.00 369.04,488.00 369.04,488.00 371.49,488.00 371.49,488.00 373.95,488.00 373.95,488.00 376.40,488.00 376.40,488.00 378.85,488.00 378.85,488.00 381.31,488.00 381.31,488.00 383.76,488.00 383.76,488.00 386.21,488.00 386.21,488.00 388.67,488.00 388.67,488.00 391.12,488.00 391.12,488.00 393.57,488.00 393.57,488.00 396.03,488.00 396.03,488.00 398.48,488.00 398.48,488.00 400.93,488.00 400.93,488.00 403.39,488.00 403.39,488.00 405.84,488.00 405.84,488.00 408.29,488.00 408.29,488.00 410.75,488.00 410.75,488.00 413.20,488.00 413.20,488.00 415.65,488.00 415.65,488.00 418.11,488.00 418.11,488.00 420.56,488.00 420.56,488.00 423.01,488.00 423.01,488.00 425.47,488.00 425.47,488.00 427.92,488.00 427.92,488.00 430.37,488.00 430.37,488.00 432.83,488.00 432.83,488.00 435.28,488.00 435.28,488.00 437.73,488.00 437.73,488.00 440.19,488.00 440.19,488.00 442.64,488.00 442.64,488.00 445.09,488.00 445.09,488.00 447.55,488.00 447.55,488.00 450.00,488.00 450.00,488.00 452.45,488.00 452.45,488.00 454.91,488.00 454.91,488.00 457.36,488.00 457.36,488.00 459.81,488.00 459.81,488.00 462.27,488.00 462.27,488.00 464.72,488.00 464.72,488.00 467.17,488.00 467.17,488.00 469.63,488.00 469.63,488.00 472.08,488.00 472.08,488.00 474.53,488.00 474.53,488.00 476.99,488.00 476.99,488.00 479.44,488.00 479.44,488.00 481.89,488.00 481.89,488.00 484.35,488.00 484.35,488.00 486.80,488.00 486.80,488.00 489.25,488.00 489.25,488.00 491.71,488.00 491.71,488.00 494.16,488.00 494.16,488.00 496.61,488.00 496.61,488.00 499.07,488.00 499.07,488.00 501.52,488.00 501.52,488.00 503.97,488.00 503.97,488.00 506.43,488.00 506.43,488.00 508.88,488.00 508.88,488.00 511.33,488.00 511.33,488.00 513.79,488.00 513.79,488.00 516.24,488.00 516.24,488.00 518.69,488.00 518.69,488.00 521.15,488.00 521.15,488.00 523.60,488.00 523.60,488.00 526.05,488.00 526.05,488.00 528.51,488.00 528.51,488.00 530.96,488.00 530.96,488.00 533.41,488.00 533.41,488.00 535.87,488.00 535.87,488.00 538.32,488.00 538.32,488.00 540.77,488.00 540.77,488.00 543.23,488.00 543.23,488.00 545.68,488.00 545.68,488.00 548.13,488.00 548.13,488.00 550.59,488.00 550.59,488.00 553.04,488.00 553.04,488.00 555.49,488.00 555.49,488.00 557.95,488.00 557.95,488.00 560.40,488.00 560.40,488.00 562.85,488.00 562.85,488.00 565.31,488.00 565.31,488.00 567.76,488.00 567.76,488.00 570.21,488.00 570.21,488.00 572.67,488.00 572.67,488.00 575.12,488.00 575.12,488.00 577.57,488.00 577.57,488.00 580.03,488.00 580.03,488.00 582.48,488.00 582.48,488.00 584.93,488.00 584.93,488.00 587.39,488.00 587.39,488.00 589.84,488.00 589.84,488.00 592.29,488.00 592.29,488.00 594.75,488.00 594.75,488.00 597.20,488.00 597.20,488.00 599.65,488.00 599.65,488.00 602.11,488.00 602.11,488.00 604.56,488.00 604.56,488.00 607.01,488.00 607.01,488.00 609.47,488.00 609.47,488.00 611.92,488.00 611.92,488.00 614.37,488.00 614.37,488.00 616.83,488.00 616.83,488.00 619.28,488.00 619.28,488.00 621.73,488.00 621.73,488.00 624.19,488.00 624.19,488.00 626.64,488.00 626.64,488.00 629.09,488.00 629.09,488.00 631.55,488.00 631.55,488.00 634.00,488.00 634.00,488.00 636.45,488.00 636.45,488.00 638.91,488.00 638.91,488.00 641.36,488.00 641.36,488.00 643.81,488.00 643.81,414.06 646.27,414.06 646.27,414.06 648.72,414.06 648.72,414.06 651.17,414.06 651.17,414.06 653.63,414.06 653.63,414.06 656.08,414.06 656.08,414.06 658.53,414.06 658.53,414.06 660.99,414.06 660.99,414.06 663.44,414.06 663.44,414.06 665.89,414.06 665.89,414.06 668.35,414.06 668.35,414.06 670.80,414.06 670.80,414.06 673.25,414.06 673.25,414.06 675.71,414.06 675.71,414.06 678.16,414.06 678.16,414.06 680.61,414.06 680.61,414.06 683.07,414.06 683.07,331.42 685.52,331.42 685.52,331.42 687.97,331.42 687.97,257.48 690.43,257.48 690.43,257.48 692.88,257.48 692.88,257.48 695.33,257.48 695.33,257.48 697.79,257.48 697.79,257.48 700.24,257.48 700.24,257.48 702.69,257.48 702.69,257.48 705.15,257.48 705.15,257.48 707.60,257.48 707.60,257.48 710.05,257.48 710.05,257.48 712.51,257.48 712.51,257.48 714.96,257.48 714.96,257.48 717.41,257.48 717.41,257.48 719.87,257.48 719.87,257.48 722.32,257.48 722.32,257.48 724.77,257.48 724.77,257.48 727.23,257.48 727.23,257.48 729.68,257.48 729.68,257.48 732.13,257.48 732.13,257.48 734.59,257.48 734.59,257.48 737.04,257.48 737.04,257.48 739.49,257.48 739.49,257.48 741.95,257.48 741.95,257.48 744.40,257.48 744.40,257.48 746.85,257.48 746.85,257.48 749.31,257.48 749.31,257.48 751.76,257.48 751.76,257.48 754.21,257.48 754.21,257.48 756.67,257.48 756.67,257.48 759.12,257.48 759.12,257.48 761.57,257.48 761.57,257.48 764.03,257.48 764.03,183.53 766.48,183.53 766.48,183.53 768.93,183.53 768.93,183.53 771.39,183.53 771.39,183.53 773.84,183.53 773.84,183.53 776.29,183.53 776.29,183.53 778.75,183.53 778.75,174.83 781.20,174.83 781.20,122.64 783.65,122.64 783.65,48.70 786.11,48.70 786.11,48.70 788.56,48.70 788.56,48.70 791.01,48.70 791.01,48.70 793.47,48.70 793.47,48.70 795.92,48.70 795.92,48.70 798.37,48.70 798.37,48.70 800.83,48.70 800.83,48.70 803.28,48.70 803.28,48.70 805.73,48.70 805.73,44.35 808.19,44.35 808.19,44.35 810.64,44.35 810.64,40.00 813.09,40.00 813.09,40.00 815.55,40.00 815.55,40.00 818.00,40.00 818.00,40.00" fill="none" stroke="#4b8f29" stroke-width="3"/>
<text x="450.0" y="552" text-anchor="middle" font-size="20" font-family="Arial, sans-serif" fill="#111827">Top displacement (mm)</text>
<text x="24" y="280.0" text-anchor="middle" transform="rotate(-90 24 280.0)" font-size="20" font-family="Arial, sans-serif" fill="#111827">Force magnitude (N)</text>
<text x="880" y="280.0" text-anchor="middle" transform="rotate(90 880 280.0)" font-size="20" font-family="Arial, sans-serif" fill="#111827">Broken bonds</text>
<text x="102" y="64" font-size="18" font-family="Arial, sans-serif" fill="#1b6ca8">Top plate</text>
<text x="212" y="64" font-size="18" font-family="Arial, sans-serif" fill="#d1495b">Bottom plate</text>
<text x="352" y="64" font-size="18" font-family="Arial, sans-serif" fill="#4b8f29">Broken bonds</text>
<text x="72" y="45" text-anchor="end" font-size="17" fill="#30363d">13.74</text>
<text x="72" y="488" text-anchor="end" font-size="17" fill="#30363d">0</text>
<text x="828" y="45" text-anchor="start" font-size="17" fill="#30363d">103</text>
<text x="828" y="488" text-anchor="start" font-size="17" fill="#30363d">0</text>
</svg>
