<svg xmlns="http://www.w3.org/2000/svg" width="900" height="560" viewBox="0 0 900 560">
<rect width="100%" height="100%" fill="white"/>
<text x="450.0" y="26" text-anchor="middle" font-size="22" font-family="Arial, sans-serif" fill="#111827">SP-002 force-displacement and bond breakage</text>
<line x1="82" y1="40.00" x2="818" y2="40.00" stroke="#d9dee2" stroke-width="1"/><line x1="82" y1="129.60" x2="818" y2="129.60" stroke="#d9dee2" stroke-width="1"/><line x1="82" y1="219.20" x2="818" y2="219.20" stroke="#d9dee2" stroke-width="1"/><line x1="82" y1="308.80" x2="818" y2="308.80" stroke="#d9dee2" stroke-width="1"/><line x1="82" y1="398.40" x2="818" y2="398.40" stroke="#d9dee2" stroke-width="1"/><line x1="82" y1="488.00" x2="818" y2="488.00" stroke="#d9dee2" stroke-width="1"/><line x1="82.00" y1="40" x2="82.00" y2="488" stroke="#edf0f2" stroke-width="1"/><text x="82.00" y="526" text-anchor="middle" font-size="18" fill="#30363d">0.000</text><line x1="229.20" y1="40" x2="229.20" y2="488" stroke="#edf0f2" stroke-width="1"/><text x="229.20" y="526" text-anchor="middle" font-size="18" fill="#30363d">0.060</text><line x1="376.40" y1="40" x2="376.40" y2="488" stroke="#edf0f2" stroke-width="1"/><text x="376.40" y="526" text-anchor="middle" font-size="18" fill="#30363d">0.120</text><line x1="523.60" y1="40" x2="523.60" y2="488" stroke="#edf0f2" stroke-width="1"/><text x="523.60" y="526" text-anchor="middle" font-size="18" fill="#30363d">0.180</text><line x1="670.80" y1="40" x2="670.80" y2="488" stroke="#edf0f2" stroke-width="1"/><text x="670.80" y="526" text-anchor="middle" font-size="18" fill="#30363d">0.240</text><line x1="818.00" y1="40" x2="818.00" y2="488" stroke="#edf0f2" stroke-width="1"/><text x="818.00" y="526" text-anchor="middle" font-size="18" fill="#30363d">0.300</text>
<line x1="82" y1="40" x2="82" y2="488" stroke="#111827" stroke-width="1.5"/>
<line x1="82" y1="488" x2="818" y2="488" stroke="#111827" stroke-width="1.5"/>
<line x1="818" y1="40" x2="818" y2="488" stroke="#111827" stroke-width="1.5"/>
<polyline points="82.00,488.00 83.23,488.00 84.45,488.00 85.68,488.00 86.91,488.00 88.13,488.00 89.36,488.00 90.59,488.00 91.81,488.00 93.04,488.00 94.27,488.00 95.49,488.00 96.72,488.00 97.95,488.00 99.17,488.00 100.40,488.00 101.63,488.00 102.85,488.00 104.08,488.00 105.31,488.00 106.53,488.00 107.76,488.00 108.99,488.00 110.21,488.00 111.44,488.00 112.67,488.00 113.89,488.00 115.12,488.00 116.35,488.00 117.57,488.00 118.80,488.00 120.03,488.00 121.25,488.00 122.48,488.00 123.71,488.00 124.93,488.00 126.16,488.00 127.39,488.00 128.61,488.00 129.84,488.00 131.07,488.00 132.29,488.00 133.52,488.00 134.75,488.00 135.97,488.00 137.20,488.00 138.43,488.00 139.65,488.00 140.88,488.00 142.11,488.00 143.33,488.00 144.56,488.00 145.79,488.00 147.01,488.00 148.24,488.00 149.47,488.00 150.69,488.00 151.92,488.00 153.15,488.00 154.37,488.00 155.60,488.00 156.83,488.00 158.05,488.00 159.28,488.00 160.51,488.00 161.73,488.00 162.96,488.00 164.19,488.00 165.41,488.00 166.64,488.00 167.87,488.00 169.09,488.00 170.32,488.00 171.55,488.00 172.77,488.00 174.00,488.00 175.23,488.00 176.45,488.00 177.68,488.00 178.91,488.00 180.13,488.00 181.36,488.00 182.59,488.00 183.81,488.00 185.04,488.00 186.27,488.00 187.49,488.00 188.72,488.00 189.95,488.00 191.17,488.00 192.40,488.00 193.63,488.00 194.85,488.00 196.08,488.00 197.31,488.00 198.53,488.00 199.76,488.00 200.99,488.00 202.21,488.00 203.44,488.00 204.67,488.00 205.89,488.00 207.12,488.00 208.35,488.00 209.57,488.00 210.80,488.00 212.03,488.00 213.25,488.00 214.48,488.00 215.71,488.00 216.93,488.00 218.16,488.00 219.39,488.00 220.61,488.00 221.84,488.00 223.07,488.00 224.29,488.00 225.52,488.00 226.75,488.00 227.97,488.00 229.20,488.00 230.43,488.00 231.65,488.00 232.88,488.00 234.11,488.00 235.33,488.00 236.56,488.00 237.79,488.00 239.01,488.00 240.24,488.00 241.47,488.00 242.69,488.00 243.92,488.00 245.15,488.00 246.37,488.00 247.60,488.00 248.83,488.00 250.05,488.00 251.28,488.00 252.51,488.00 253.73,488.00 254.96,488.00 256.19,488.00 257.41,488.00 258.64,488.00 259.87,488.00 261.09,488.00 262.32,488.00 263.55,488.00 264.77,488.00 266.00,488.00 267.23,488.00 268.45,488.00 269.68,488.00 270.91,488.00 272.13,488.00 273.36,488.00 274.59,488.00 275.81,488.00 277.04,488.00 278.27,488.00 279.49,488.00 280.72,488.00 281.95,488.00 283.17,488.00 284.40,488.00 285.63,488.00 286.85,488.00 288.08,488.00 289.31,488.00 290.53,488.00 291.76,488.00 292.99,488.00 294.21,488.00 295.44,488.00 296.67,488.00 297.89,488.00 299.12,488.00 300.35,488.00 301.57,488.00 302.80,488.00 304.03,488.00 305.25,488.00 306.48,488.00 307.71,488.00 308.93,488.00 310.16,488.00 311.39,488.00 312.61,488.00 313.84,488.00 315.07,488.00 316.29,488.00 317.52,488.00 318.75,488.00 319.97,488.00 321.20,488.00 322.43,488.00 323.65,488.00 324.88,488.00 326.11,488.00 327.33,488.00 328.56,485.05 329.79,480.39 331.01,474.86 332.24,468.72 333.47,462.94 334.69,456.33 335.92,449.43 337.15,442.26 338.37,434.87 339.60,427.28 340.83,419.51 342.05,487.95 343.28,487.95 344.51,485.91 345.73,481.93 346.96,477.16 348.19,471.87 349.41,466.17 350.64,457.61 351.87,447.42 353.09,436.30 354.32,424.49 355.55,412.13 356.77,454.91 358.00,447.46 359.23,440.94 360.45,434.15 361.68,427.57 362.91,487.37 364.13,485.54 365.36,483.72 366.59,481.68 367.81,479.45 369.04,477.07 370.27,474.55 371.49,471.86 372.72,467.96 373.95,463.41 375.17,458.42 376.40,453.09 377.63,447.47 378.85,441.62 380.08,434.75 381.31,425.71 382.53,415.51 383.76,405.54 384.99,406.04 386.21,424.56 387.44,431.93 388.67,435.62 389.89,435.94 391.12,434.65 392.35,435.41 393.57,436.96 394.80,435.99 396.03,436.36 397.25,433.48 398.48,429.74 399.71,425.79 400.93,421.62 402.16,416.38 403.39,410.89 404.61,405.03 405.84,397.24 407.07,388.70 408.29,379.58 409.52,369.39 410.75,377.79 411.97,377.73 413.20,371.11 414.43,362.65 415.65,353.33 416.88,343.45 418.11,333.06 419.33,405.95 420.56,387.44 421.79,377.77 423.01,368.95 424.24,360.01 425.47,353.23 426.69,443.26 427.92,432.54 429.15,426.58 430.37,422.66 431.60,419.01 432.83,415.16 434.05,410.73 435.28,406.18 436.51,401.56 437.73,396.87 438.96,392.10 440.19,387.24 441.41,382.30 442.64,377.27 443.87,372.14 445.09,366.95 446.32,361.73 447.55,356.49 448.77,351.22 450.00,346.19 451.23,339.90 452.45,335.50 453.68,328.19 454.91,408.45 456.13,384.38 457.36,378.00 458.59,375.57 459.81,374.11 461.04,372.94 462.27,371.79 463.49,370.30 464.72,368.25 465.95,366.89 467.17,365.66 468.40,364.51 469.63,363.41 470.85,360.06 472.08,354.98 473.31,348.47 474.53,339.86 475.76,330.78 476.99,321.19 478.21,311.50 479.44,301.62 480.67,291.61 481.89,281.51 483.12,271.33 484.35,261.06 485.57,250.50 486.80,299.12 488.03,391.98 489.25,404.23 490.48,409.50 491.71,412.63 492.93,414.22 494.16,415.01 495.39,415.09 496.61,414.79 497.84,413.47 499.07,411.67 500.29,409.83 501.52,407.99 502.75,414.61 503.97,425.33 505.20,429.26 506.43,426.62 507.65,422.11 508.88,417.39 510.11,412.47 511.33,407.29 512.56,401.87 513.79,396.26 515.01,390.50 516.24,384.41 517.47,376.93 518.69,367.98 519.92,358.16 521.15,347.80 522.37,336.66 523.60,325.02 524.83,313.07 526.05,300.83 527.28,288.20 528.51,275.00 529.73,264.26 530.96,313.60 532.19,322.09 533.41,330.52 534.64,333.25 535.87,324.89 537.09,314.63 538.32,304.94 539.55,294.13 540.77,282.96 542.00,275.19 543.23,323.62 544.45,419.92 545.68,416.87 546.91,411.15 548.13,402.72 549.36,396.69 550.59,392.40 551.81,387.60 553.04,380.87 554.27,372.04 555.49,361.12 556.72,352.31 557.95,344.18 559.17,330.59 560.40,314.76 561.63,298.06 562.85,280.72 564.08,262.81 565.31,244.34 566.53,225.38 567.76,205.97 568.99,186.09 570.21,257.89 571.44,194.98 572.67,173.09 573.89,152.17 575.12,186.69 576.35,158.75 577.57,138.80 578.80,149.06 580.03,179.31 581.25,225.76 582.48,216.08 583.71,209.00 584.93,201.41 586.16,192.90 587.39,183.82 588.61,174.45 589.84,164.56 591.07,152.21 592.29,164.10 593.52,197.40 594.75,184.86 595.97,168.35 597.20,149.98 598.43,206.36 599.65,304.32 600.88,321.58 602.11,320.47 603.33,314.92 604.56,307.81 605.79,298.43 607.01,287.05 608.24,274.02 609.47,259.72 610.69,245.80 611.92,332.94 613.15,293.37 614.37,289.56 615.60,286.12 616.83,282.81 618.05,314.23 619.28,309.23 620.51,359.38 621.73,360.77 622.96,353.92 624.19,344.63 625.41,334.16 626.64,322.98 627.87,310.60 629.09,297.70 630.32,284.41 631.55,270.84 632.77,257.08 634.00,242.54 635.23,305.61 636.45,307.75 637.68,300.29 638.91,344.18 640.13,334.10 641.36,319.73 642.59,304.03 643.81,287.13 645.04,268.60 646.27,248.95 647.49,228.29 648.72,207.01 649.95,185.04 651.17,162.34 652.40,140.58 653.63,162.35 654.85,178.33 656.08,167.66 657.31,153.83 658.53,136.85 659.76,117.90 660.99,98.02 662.21,78.28 663.44,60.43 664.67,154.37 665.89,233.28 667.12,226.00 668.35,214.72 669.57,202.74 670.80,189.57 672.03,175.64 673.25,161.17 674.48,146.24 675.71,129.96 676.93,112.78 678.16,94.94 679.39,76.57 680.61,57.62 681.84,40.00 683.07,84.22 684.29,171.80 685.52,156.69 686.75,174.50 687.97,164.13 689.20,153.01 690.43,139.50 691.65,185.81 692.88,199.87 694.11,208.66 695.33,209.15 696.56,209.43 697.79,205.59 699.01,200.39 700.24,194.36 701.47,187.34 702.69,238.73 703.92,273.37 705.15,279.15 706.37,277.75 707.60,271.24 708.83,260.96 710.05,270.30 711.28,291.28 712.51,286.51 713.73,278.11 714.96,286.89 716.19,322.12 717.41,329.41 718.64,330.15 719.87,328.74 721.09,324.58 722.32,318.89 723.55,312.15 724.77,304.51 726.00,295.52 727.23,285.01 728.45,273.55 729.68,261.61 730.91,249.41 732.13,236.86 733.36,223.66 734.59,293.81 735.81,315.87 737.04,313.82 738.27,311.33 739.49,307.75 740.72,301.42 741.95,293.76 743.17,283.54 744.40,270.96 745.63,256.64 746.85,241.02 748.08,224.22 749.31,206.41 750.53,187.93 751.76,168.92 752.99,149.42 754.21,162.99 755.44,158.17 756.67,141.61 757.89,123.94 759.12,106.53 760.35,88.47 761.57,95.42 762.80,119.82 764.03,129.71 765.25,117.77 766.48,106.89 767.71,96.75 768.93,95.06 770.16,101.91 771.39,91.93 772.61,81.10 773.84,71.11 775.07,61.08 776.29,67.83 777.52,145.49 778.75,140.56 779.97,201.46 781.20,186.35 782.43,182.91 783.65,180.54 784.88,173.89 786.11,166.29 787.33,159.03 788.56,152.39 789.79,145.91 791.01,139.49 792.24,140.39 793.47,140.37 794.69,159.16 795.92,158.12 797.15,158.09 798.37,158.20 799.60,157.62 800.83,156.48 802.05,155.44 803.28,154.60 804.51,153.99 805.73,153.24 806.96,152.60 808.19,151.95 809.41,150.95 810.64,151.67 811.87,150.41 813.09,198.67 814.32,250.74 815.55,281.03 816.77,297.42 818.00,311.28" fill="none" stroke="#1b6ca8" stroke-width="3"/>
<polyline points="82.00,488.00 83.23,488.00 84.45,488.00 85.68,488.00 86.91,488.00 88.13,488.00 89.36,488.00 90.59,488.00 91.81,488.00 93.04,488.00 94.27,488.00 95.49,488.00 96.72,488.00 97.95,488.00 99.17,488.00 100.40,488.00 101.63,488.00 102.85,488.00 104.08,488.00 105.31,488.00 106.53,488.00 107.76,488.00 108.99,488.00 110.21,488.00 111.44,488.00 112.67,488.00 113.89,488.00 115.12,488.00 116.35,488.00 117.57,488.00 118.80,488.00 120.03,488.00 121.25,488.00 122.48,488.00 123.71,488.00 124.93,488.00 126.16,488.00 127.39,488.00 128.61,488.00 129.84,488.00 131.07,488.00 132.29,488.00 133.52,488.00 134.75,488.00 135.97,488.00 137.20,488.00 138.43,488.00 139.65,488.00 140.88,488.00 142.11,488.00 143.33,488.00 144.56,488.00 145.79,488.00 147.01,488.00 148.24,488.00 149.47,488.00 150.69,488.00 151.92,488.00 153.15,488.00 154.37,488.00 155.60,488.00 156.83,488.00 158.05,488.00 159.28,488.00 160.51,488.00 161.73,488.00 162.96,488.00 164.19,488.00 165.41,488.00 166.64,488.00 167.87,488.00 169.09,488.00 170.32,488.00 171.55,488.00 172.77,488.00 174.00,488.00 175.23,488.00 176.45,488.00 177.68,488.00 178.91,488.00 180.13,488.00 181.36,488.00 182.59,488.00 183.81,488.00 185.04,488.00 186.27,488.00 187.49,488.00 188.72,488.00 189.95,488.00 191.17,488.00 192.40,488.00 193.63,488.00 194.85,488.00 196.08,488.00 197.31,488.00 198.53,488.00 199.76,488.00 200.99,488.00 202.21,488.00 203.44,488.00 204.67,488.00 205.89,488.00 207.12,488.00 208.35,488.00 209.57,488.00 210.80,488.00 212.03,488.00 213.25,488.00 214.48,488.00 215.71,488.00 216.93,488.00 218.16,488.00 219.39,488.00 220.61,488.00 221.84,488.00 223.07,488.00 224.29,488.00 225.52,488.00 226.75,488.00 227.97,488.00 229.20,488.00 230.43,488.00 231.65,488.00 232.88,488.00 234.11,488.00 235.33,488.00 236.56,488.00 237.79,488.00 239.01,488.00 240.24,488.00 241.47,488.00 242.69,488.00 243.92,488.00 245.15,488.00 246.37,488.00 247.60,488.00 248.83,488.00 250.05,488.00 251.28,488.00 252.51,488.00 253.73,488.00 254.96,488.00 256.19,488.00 257.41,488.00 258.64,488.00 259.87,488.00 261.09,488.00 262.32,488.00 263.55,488.00 264.77,488.00 266.00,488.00 267.23,488.00 268.45,488.00 269.68,488.00 270.91,488.00 272.13,488.00 273.36,488.00 274.59,488.00 275.81,488.00 277.04,488.00 278.27,488.00 279.49,488.00 280.72,488.00 281.95,488.00 283.17,488.00 284.40,488.00 285.63,488.00 286.85,488.00 288.08,488.00 289.31,488.00 290.53,488.00 291.76,488.00 292.99,488.00 294.21,488.00 295.44,488.00 296.67,488.00 297.89,488.00 299.12,488.00 300.35,488.00 301.57,488.00 302.80,488.00 304.03,488.00 305.25,488.00 306.48,488.00 307.71,488.00 308.93,488.00 310.16,488.00 311.39,488.00 312.61,488.00 313.84,488.00 315.07,488.00 316.29,488.00 317.52,488.00 318.75,488.00 319.97,488.00 321.20,488.00 322.43,488.00 323.65,488.00 324.88,488.00 326.11,488.00 327.33,488.00 328.56,486.36 329.79,482.31 331.01,477.12 332.24,471.22 333.47,464.96 334.69,458.97 335.92,452.22 337.15,445.16 338.37,437.86 339.60,430.35 340.83,422.65 342.05,454.22 343.28,485.56 344.51,486.78 345.73,483.55 346.96,479.09 348.19,474.00 349.41,468.47 350.64,461.14 351.87,451.55 353.09,440.80 354.32,429.26 355.55,417.11 356.77,444.33 358.00,449.36 359.23,443.59 360.45,436.97 361.68,430.16 362.91,465.98 364.13,484.76 365.36,484.45 366.59,482.59 367.81,480.44 369.04,478.11 370.27,475.64 371.49,473.05 372.72,469.60 373.95,465.31 375.17,460.49 376.40,455.30 377.63,449.80 378.85,444.04 380.08,437.74 381.31,429.36 382.53,419.59 383.76,417.17 384.99,429.95 386.21,454.61 387.44,457.60 388.67,455.76 389.89,451.94 391.12,447.39 392.35,467.10 393.57,451.27 394.80,464.63 396.03,450.40 397.25,442.83 398.48,437.58 399.71,433.15 400.93,429.02 402.16,424.57 403.39,419.53 404.61,414.01 405.84,407.34 407.07,399.43 408.29,390.69 409.52,381.17 410.75,411.67 411.97,400.06 413.20,390.00 414.43,379.93 415.65,369.60 416.88,358.97 418.11,348.05 419.33,387.20 420.56,396.80 421.79,390.53 423.01,382.33 424.24,373.53 425.47,365.43 426.69,406.40 427.92,429.52 429.15,435.25 430.37,433.72 431.60,430.75 432.83,426.95 434.05,422.18 435.28,417.43 436.51,412.76 437.73,408.06 438.96,403.31 440.19,398.48 441.41,393.58 442.64,388.62 443.87,383.60 445.09,378.53 446.32,373.43 447.55,368.30 448.77,363.16 450.00,357.92 451.23,352.68 452.45,346.53 453.68,341.15 454.91,348.85 456.13,383.13 457.36,390.31 458.59,390.92 459.81,390.06 461.04,388.82 462.27,386.51 463.49,383.06 464.72,379.64 465.95,376.81 467.17,374.70 468.40,372.97 469.63,371.47 470.85,369.28 472.08,365.25 473.31,359.96 474.53,352.71 475.76,344.52 476.99,335.41 478.21,325.84 479.44,315.96 480.67,305.91 481.89,295.76 483.12,285.52 484.35,275.18 485.57,264.71 486.80,431.05 488.03,431.61 489.25,431.97 490.48,432.11 491.71,432.06 492.93,431.82 494.16,431.39 495.39,430.87 496.61,430.15 497.84,429.29 499.07,428.30 500.29,427.20 501.52,425.98 502.75,426.63 503.97,432.84 505.20,438.23 506.43,439.63 507.65,437.74 508.88,434.16 510.11,429.75 511.33,424.83 512.56,419.56 513.79,414.05 515.01,408.35 516.24,401.53 517.47,391.94 518.69,381.99 519.92,371.81 521.15,361.32 522.37,350.41 523.60,338.98 524.83,327.14 526.05,314.97 527.28,302.19 528.51,288.88 529.73,279.36 530.96,366.15 532.19,342.17 533.41,365.37 534.64,351.40 535.87,340.38 537.09,329.57 538.32,319.93 539.55,308.92 540.77,297.84 542.00,289.76 543.23,320.60 544.45,394.48 545.68,412.25 546.91,415.71 548.13,415.46 549.36,413.65 550.59,411.00 551.81,405.76 553.04,397.54 554.27,387.88 555.49,376.91 556.72,371.43 557.95,361.04 559.17,345.87 560.40,329.74 561.63,312.99 562.85,295.66 564.08,277.78 565.31,259.35 566.53,240.41 567.76,221.02 568.99,200.99 570.21,194.86 571.44,205.84 572.67,186.65 573.89,165.91 575.12,171.35 576.35,169.53 577.57,150.92 578.80,219.32 580.03,191.95 581.25,231.35 582.48,228.40 583.71,221.95 584.93,214.24 586.16,205.68 587.39,196.54 588.61,187.15 589.84,177.31 591.07,164.60 592.29,258.15 593.52,215.04 594.75,198.94 595.97,182.03 597.20,163.70 598.43,206.05 599.65,363.32 600.88,347.31 602.11,334.02 603.33,325.71 604.56,317.90 605.79,308.89 607.01,297.71 608.24,284.83 609.47,270.75 610.69,256.36 611.92,256.53 613.15,292.55 614.37,293.66 615.60,291.99 616.83,289.35 618.05,327.75 619.28,321.26 620.51,393.39 621.73,379.18 622.96,368.24 624.19,357.92 625.41,347.30 626.64,336.23 627.87,324.26 629.09,311.50 630.32,298.35 631.55,284.87 632.77,271.15 634.00,256.12 635.23,332.79 636.45,323.94 637.68,313.00 638.91,362.89 640.13,347.07 641.36,332.38 642.59,316.71 643.81,299.72 645.04,281.66 646.27,262.19 647.49,241.52 648.72,220.00 649.95,197.92 651.17,175.20 652.40,153.97 653.63,223.73 654.85,200.60 656.08,186.95 657.31,171.43 658.53,152.95 659.76,133.29 660.99,112.97 662.21,94.17 663.44,75.02 664.67,288.37 665.89,253.99 667.12,241.69 668.35,230.18 669.57,218.03 670.80,204.52 672.03,190.45 673.25,175.87 674.48,160.73 675.71,144.22 676.93,126.92 678.16,109.00 679.39,90.55 680.61,71.51 681.84,53.70 683.07,96.38 684.29,153.09 685.52,165.64 686.75,160.00 687.97,178.60 689.20,165.72 690.43,151.36 691.65,196.02 692.88,201.79 694.11,217.62 695.33,219.67 696.56,218.64 697.79,214.18 699.01,208.71 700.24,202.78 701.47,195.57 702.69,249.70 703.92,277.49 705.15,285.29 706.37,284.71 707.60,278.00 708.83,268.21 710.05,315.03 711.28,301.03 712.51,294.98 713.73,286.01 714.96,342.34 716.19,343.57 717.41,348.36 718.64,346.31 719.87,343.04 721.09,337.83 722.32,331.13 723.55,323.63 724.77,315.51 726.00,306.42 727.23,295.18 728.45,283.63 729.68,271.61 730.91,259.40 732.13,246.90 733.36,233.96 734.59,225.85 735.81,321.38 737.04,323.11 738.27,320.81 739.49,317.24 740.72,311.36 741.95,303.86 743.17,293.96 744.40,281.09 745.63,266.88 746.85,251.40 748.08,234.74 749.31,217.04 750.53,198.63 751.76,179.66 752.99,160.20 754.21,189.58 755.44,170.82 756.67,153.70 757.89,136.09 759.12,118.49 760.35,100.40 761.57,149.86 762.80,179.12 764.03,146.44 765.25,135.21 766.48,122.89 767.71,111.20 768.93,129.30 770.16,114.76 771.39,104.36 772.61,92.97 773.84,82.83 775.07,74.65 776.29,198.74 777.52,164.54 778.75,154.18 779.97,162.40 781.20,193.65 782.43,193.93 783.65,192.14 784.88,188.19 786.11,180.79 787.33,173.07 788.56,166.06 789.79,159.36 791.01,152.58 792.24,148.12 793.47,148.61 794.69,172.18 795.92,175.92 797.15,176.06 798.37,176.14 799.60,175.05 800.83,173.81 802.05,172.66 803.28,171.62 804.51,170.72 805.73,169.48 806.96,168.58 808.19,167.53 809.41,166.29 810.64,168.58 811.87,167.68 813.09,228.79 814.32,313.42 815.55,313.42 816.77,325.42 818.00,338.29" fill="none" stroke="#d1495b" stroke-width="3"/>
<polyline points="82.00,488.00 83.23,488.00 83.23,488.00 84.45,488.00 84.45,488.00 85.68,488.00 85.68,488.00 86.91,488.00 86.91,488.00 88.13,488.00 88.13,488.00 89.36,488.00 89.36,488.00 90.59,488.00 90.59,488.00 91.81,488.00 91.81,488.00 93.04,488.00 93.04,488.00 94.27,488.00 94.27,488.00 95.49,488.00 95.49,488.00 96.72,488.00 96.72,488.00 97.95,488.00 97.95,488.00 99.17,488.00 99.17,488.00 100.40,488.00 100.40,488.00 101.63,488.00 101.63,488.00 102.85,488.00 102.85,488.00 104.08,488.00 104.08,488.00 105.31,488.00 105.31,488.00 106.53,488.00 106.53,488.00 107.76,488.00 107.76,488.00 108.99,488.00 108.99,488.00 110.21,488.00 110.21,488.00 111.44,488.00 111.44,488.00 112.67,488.00 112.67,488.00 113.89,488.00 113.89,488.00 115.12,488.00 115.12,488.00 116.35,488.00 116.35,488.00 117.57,488.00 117.57,488.00 118.80,488.00 118.80,488.00 120.03,488.00 120.03,488.00 121.25,488.00 121.25,488.00 122.48,488.00 122.48,488.00 123.71,488.00 123.71,488.00 124.93,488.00 124.93,488.00 126.16,488.00 126.16,488.00 127.39,488.00 127.39,488.00 128.61,488.00 128.61,488.00 129.84,488.00 129.84,488.00 131.07,488.00 131.07,488.00 132.29,488.00 132.29,488.00 133.52,488.00 133.52,488.00 134.75,488.00 134.75,488.00 135.97,488.00 135.97,488.00 137.20,488.00 137.20,488.00 138.43,488.00 138.43,488.00 139.65,488.00 139.65,488.00 140.88,488.00 140.88,488.00 142.11,488.00 142.11,488.00 143.33,488.00 143.33,488.00 144.56,488.00 144.56,488.00 145.79,488.00 145.79,488.00 147.01,488.00 147.01,488.00 148.24,488.00 148.24,488.00 149.47,488.00 149.47,488.00 150.69,488.00 150.69,488.00 151.92,488.00 151.92,488.00 153.15,488.00 153.15,488.00 154.37,488.00 154.37,488.00 155.60,488.00 155.60,488.00 156.83,488.00 156.83,488.00 158.05,488.00 158.05,488.00 159.28,488.00 159.28,488.00 160.51,488.00 160.51,488.00 161.73,488.00 161.73,488.00 162.96,488.00 162.96,488.00 164.19,488.00 164.19,488.00 165.41,488.00 165.41,488.00 166.64,488.00 166.64,488.00 167.87,488.00 167.87,488.00 169.09,488.00 169.09,488.00 170.32,488.00 170.32,488.00 171.55,488.00 171.55,488.00 172.77,488.00 172.77,488.00 174.00,488.00 174.00,488.00 175.23,488.00 175.23,488.00 176.45,488.00 176.45,488.00 177.68,488.00 177.68,488.00 178.91,488.00 178.91,488.00 180.13,488.00 180.13,488.00 181.36,488.00 181.36,488.00 182.59,488.00 182.59,488.00 183.81,488.00 183.81,488.00 185.04,488.00 185.04,488.00 186.27,488.00 186.27,488.00 187.49,488.00 187.49,488.00 188.72,488.00 188.72,488.00 189.95,488.00 189.95,488.00 191.17,488.00 191.17,488.00 192.40,488.00 192.40,488.00 193.63,488.00 193.63,488.00 194.85,488.00 194.85,488.00 196.08,488.00 196.08,488.00 197.31,488.00 197.31,488.00 198.53,488.00 198.53,488.00 199.76,488.00 199.76,488.00 200.99,488.00 200.99,488.00 202.21,488.00 202.21,488.00 203.44,488.00 203.44,488.00 204.67,488.00 204.67,488.00 205.89,488.00 205.89,488.00 207.12,488.00 207.12,488.00 208.35,488.00 208.35,488.00 209.57,488.00 209.57,488.00 210.80,488.00 210.80,488.00 212.03,488.00 212.03,488.00 213.25,488.00 213.25,488.00 214.48,488.00 214.48,488.00 215.71,488.00 215.71,488.00 216.93,488.00 216.93,488.00 218.16,488.00 218.16,488.00 219.39,488.00 219.39,488.00 220.61,488.00 220.61,488.00 221.84,488.00 221.84,488.00 223.07,488.00 223.07,488.00 224.29,488.00 224.29,488.00 225.52,488.00 225.52,488.00 226.75,488.00 226.75,488.00 227.97,488.00 227.97,488.00 229.20,488.00 229.20,488.00 230.43,488.00 230.43,488.00 231.65,488.00 231.65,488.00 232.88,488.00 232.88,488.00 234.11,488.00 234.11,488.00 235.33,488.00 235.33,488.00 236.56,488.00 236.56,488.00 237.79,488.00 237.79,488.00 239.01,488.00 239.01,488.00 240.24,488.00 240.24,488.00 241.47,488.00 241.47,488.00 242.69,488.00 242.69,488.00 243.92,488.00 243.92,488.00 245.15,488.00 245.15,488.00 246.37,488.00 246.37,488.00 247.60,488.00 247.60,488.00 248.83,488.00 248.83,488.00 250.05,488.00 250.05,488.00 251.28,488.00 251.28,488.00 252.51,488.00 252.51,488.00 253.73,488.00 253.73,488.00 254.96,488.00 254.96,488.00 256.19,488.00 256.19,488.00 257.41,488.00 257.41,488.00 258.64,488.00 258.64,488.00 259.87,488.00 259.87,488.00 261.09,488.00 261.09,488.00 262.32,488.00 262.32,488.00 263.55,488.00 263.55,488.00 264.77,488.00 264.77,488.00 266.00,488.00 266.00,488.00 267.23,488.00 267.23,488.00 268.45,488.00 268.45,488.00 269.68,488.00 269.68,488.00 270.91,488.00 270.91,488.00 272.13,488.00 272.13,488.00 273.36,488.00 273.36,488.00 274.59,488.00 274.59,488.00 275.81,488.00 275.81,488.00 277.04,488.00 277.04,488.00 278.27,488.00 278.27,488.00 279.49,488.00 279.49,488.00 280.72,488.00 280.72,488.00 281.95,488.00 281.95,488.00 283.17,488.00 283.17,488.00 284.40,488.00 284.40,488.00 285.63,488.00 285.63,488.00 286.85,488.00 286.85,488.00 288.08,488.00 288.08,488.00 289.31,488.00 289.31,488.00 290.53,488.00 290.53,488.00 291.76,488.00 291.76,488.00 292.99,488.00 292.99,488.00 294.21,488.00 294.21,488.00 295.44,488.00 295.44,488.00 296.67,488.00 296.67,488.00 297.89,488.00 297.89,488.00 299.12,488.00 299.12,488.00 300.35,488.00 300.35,488.00 301.57,488.00 301.57,488.00 302.80,488.00 302.80,488.00 304.03,488.00 304.03,488.00 305.25,488.00 305.25,488.00 306.48,488.00 306.48,488.00 307.71,488.00 307.71,488.00 308.93,488.00 308.93,488.00 310.16,488.00 310.16,488.00 311.39,488.00 311.39,488.00 312.61,488.00 312.61,488.00 313.84,488.00 313.84,488.00 315.07,488.00 315.07,488.00 316.29,488.00 316.29,488.00 317.52,488.00 317.52,488.00 318.75,488.00 318.75,488.00 319.97,488.00 319.97,488.00 321.20,488.00 321.20,488.00 322.43,488.00 322.43,488.00 323.65,488.00 323.65,488.00 324.88,488.00 324.88,488.00 326.11,488.00 326.11,488.00 327.33,488.00 327.33,488.00 328.56,488.00 328.56,488.00 329.79,488.00 329.79,488.00 331.01,488.00 331.01,488.00 332.24,488.00 332.24,488.00 333.47,488.00 333.47,487.36 334.69,487.36 334.69,487.36 335.92,487.36 335.92,487.36 337.15,487.36 337.15,487.36 338.37,487.36 338.37,487.36 339.60,487.36 339.60,487.36 340.83,487.36 340.83,487.36 342.05,487.36 342.05,480.35 343.28,480.35 343.28,480.35 344.51,480.35 344.51,480.35 345.73,480.35 345.73,480.35 346.96,480.35 346.96,480.35 348.19,480.35 348.19,480.35 349.41,480.35 349.41,480.35 350.64,480.35 350.64,480.35 351.87,480.35 351.87,480.35 353.09,480.35 353.09,480.35 354.32,480.35 354.32,480.35 355.55,480.35 355.55,480.35 356.77,480.35 356.77,473.34 358.00,473.34 358.00,473.34 359.23,473.34 359.23,473.34 360.45,473.34 360.45,473.34 361.68,473.34 361.68,472.71 362.91,472.71 362.91,465.70 364.13,465.70 364.13,465.70 365.36,465.70 365.36,465.70 366.59,465.70 366.59,465.70 367.81,465.70 367.81,465.70 369.04,465.70 369.04,465.70 370.27,465.70 370.27,465.70 371.49,465.70 371.49,465.70 372.72,465.70 372.72,465.70 373.95,465.70 373.95,465.70 375.17,465.70 375.17,465.70 376.40,465.70 376.40,465.70 377.63,465.70 377.63,465.70 378.85,465.70 378.85,465.70 380.08,465.70 380.08,465.70 381.31,465.70 381.31,465.70 382.53,465.70 382.53,465.70 383.76,465.70 383.76,465.70 384.99,465.70 384.99,465.06 386.21,465.06 386.21,454.86 387.44,454.86 387.44,453.59 388.67,453.59 388.67,453.59 389.89,453.59 389.89,453.59 391.12,453.59 391.12,453.59 392.35,453.59 392.35,453.59 393.57,453.59 393.57,453.59 394.80,453.59 394.80,453.59 396.03,453.59 396.03,453.59 397.25,453.59 397.25,453.59 398.48,453.59 398.48,453.59 399.71,453.59 399.71,453.59 400.93,453.59 400.93,453.59 402.16,453.59 402.16,453.59 403.39,453.59 403.39,453.59 404.61,453.59 404.61,453.59 405.84,453.59 405.84,453.59 407.07,453.59 407.07,453.59 408.29,453.59 408.29,453.59 409.52,453.59 409.52,453.59 410.75,453.59 410.75,448.49 411.97,448.49 411.97,448.49 413.20,448.49 413.20,448.49 414.43,448.49 414.43,448.49 415.65,448.49 415.65,448.49 416.88,448.49 416.88,448.49 418.11,448.49 418.11,448.49 419.33,448.49 419.33,434.47 420.56,434.47 420.56,434.47 421.79,434.47 421.79,434.47 423.01,434.47 423.01,434.47 424.24,434.47 424.24,434.47 425.47,434.47 425.47,433.83 426.69,433.83 426.69,426.82 427.92,426.82 427.92,426.82 429.15,426.82 429.15,426.18 430.37,426.18 430.37,426.18 431.60,426.18 431.60,426.18 432.83,426.18 432.83,426.18 434.05,426.18 434.05,426.18 435.28,426.18 435.28,426.18 436.51,426.18 436.51,426.18 437.73,426.18 437.73,426.18 438.96,426.18 438.96,426.18 440.19,426.18 440.19,426.18 441.41,426.18 441.41,426.18 442.64,426.18 442.64,426.18 443.87,426.18 443.87,426.18 445.09,426.18 445.09,426.18 446.32,426.18 446.32,426.18 447.55,426.18 447.55,426.18 448.77,426.18 448.77,426.18 450.00,426.18 450.00,425.55 451.23,425.55 451.23,425.55 452.45,425.55 452.45,424.91 453.68,424.91 453.68,424.91 454.91,424.91 454.91,415.35 456.13,415.35 456.13,415.35 457.36,415.35 457.36,415.35 458.59,415.35 458.59,415.35 459.81,415.35 459.81,415.35 461.04,415.35 461.04,415.35 462.27,415.35 462.27,415.35 463.49,415.35 463.49,415.35 464.72,415.35 464.72,415.35 465.95,415.35 465.95,415.35 467.17,415.35 467.17,415.35 468.40,415.35 468.40,415.35 469.63,415.35 469.63,415.35 470.85,415.35 470.85,415.35 472.08,415.35 472.08,415.35 473.31,415.35 473.31,415.35 474.53,415.35 474.53,415.35 475.76,415.35 475.76,415.35 476.99,415.35 476.99,415.35 478.21,415.35 478.21,415.35 479.44,415.35 479.44,415.35 480.67,415.35 480.67,415.35 481.89,415.35 481.89,415.35 483.12,415.35 483.12,415.35 484.35,415.35 484.35,415.35 485.57,415.35 485.57,415.35 486.80,415.35 486.80,398.15 488.03,398.15 488.03,398.15 489.25,398.15 489.25,398.15 490.48,398.15 490.48,398.15 491.71,398.15 491.71,398.15 492.93,398.15 492.93,398.15 494.16,398.15 494.16,398.15 495.39,398.15 495.39,398.15 496.61,398.15 496.61,398.15 497.84,398.15 497.84,398.15 499.07,398.15 499.07,398.15 500.29,398.15 500.29,398.15 501.52,398.15 501.52,398.15 502.75,398.15 502.75,398.15 503.97,398.15 503.97,398.15 505.20,398.15 505.20,398.15 506.43,398.15 506.43,398.15 507.65,398.15 507.65,398.15 508.88,398.15 508.88,398.15 510.11,398.15 510.11,398.15 511.33,398.15 511.33,398.15 512.56,398.15 512.56,398.15 513.79,398.15 513.79,398.15 515.01,398.15 515.01,398.15 516.24,398.15 516.24,398.15 517.47,398.15 517.47,398.15 518.69,398.15 518.69,398.15 519.92,398.15 519.92,398.15 521.15,398.15 521.15,398.15 522.37,398.15 522.37,398.15 523.60,398.15 523.60,398.15 524.83,398.15 524.83,398.15 526.05,398.15 526.05,398.15 527.28,398.15 527.28,398.15 528.51,398.15 528.51,398.15 529.73,398.15 529.73,397.51 530.96,397.51 530.96,387.31 532.19,387.31 532.19,387.31 533.41,387.31 533.41,382.21 534.64,382.21 534.64,382.21 535.87,382.21 535.87,382.21 537.09,382.21 537.09,382.21 538.32,382.21 538.32,381.58 539.55,381.58 539.55,381.58 540.77,381.58 540.77,381.58 542.00,381.58 542.00,379.03 543.23,379.03 543.23,371.38 544.45,371.38 544.45,362.46 545.68,362.46 545.68,362.46 546.91,362.46 546.91,362.46 548.13,362.46 548.13,362.46 549.36,362.46 549.36,362.46 550.59,362.46 550.59,362.46 551.81,362.46 551.81,362.46 553.04,362.46 553.04,362.46 554.27,362.46 554.27,362.46 555.49,362.46 555.49,362.46 556.72,362.46 556.72,362.46 557.95,362.46 557.95,362.46 559.17,362.46 559.17,362.46 560.40,362.46 560.40,362.46 561.63,362.46 561.63,362.46 562.85,362.46 562.85,362.46 564.08,362.46 564.08,362.46 565.31,362.46 565.31,362.46 566.53,362.46 566.53,362.46 567.76,362.46 567.76,362.46 568.99,362.46 568.99,362.46 570.21,362.46 570.21,352.26 571.44,352.26 571.44,352.26 572.67,352.26 572.67,352.26 573.89,352.26 573.89,352.26 575.12,352.26 575.12,345.89 576.35,345.89 576.35,345.89 577.57,345.89 577.57,345.89 578.80,345.89 578.80,335.69 580.03,335.69 580.03,335.69 581.25,335.69 581.25,326.13 582.48,326.13 582.48,326.13 583.71,326.13 583.71,326.13 584.93,326.13 584.93,326.13 586.16,326.13 586.16,326.13 587.39,326.13 587.39,326.13 588.61,326.13 588.61,326.13 589.84,326.13 589.84,326.13 591.07,326.13 591.07,326.13 592.29,326.13 592.29,315.30 593.52,315.30 593.52,315.30 594.75,315.30 594.75,315.30 595.97,315.30 595.97,315.30 597.20,315.30 597.20,315.30 598.43,315.30 598.43,305.74 599.65,305.74 599.65,285.99 600.88,285.99 600.88,285.99 602.11,285.99 602.11,285.99 603.33,285.99 603.33,285.99 604.56,285.99 604.56,285.99 605.79,285.99 605.79,285.99 607.01,285.99 607.01,285.99 608.24,285.99 608.24,285.99 609.47,285.99 609.47,285.99 610.69,285.99 610.69,285.35 611.92,285.35 611.92,276.43 613.15,276.43 613.15,276.43 614.37,276.43 614.37,276.43 615.60,276.43 615.60,276.43 616.83,276.43 616.83,276.43 618.05,276.43 618.05,269.42 619.28,269.42 619.28,269.42 620.51,269.42 620.51,261.77 621.73,261.77 621.73,261.77 622.96,261.77 622.96,261.77 624.19,261.77 624.19,261.77 625.41,261.77 625.41,261.77 626.64,261.77 626.64,261.77 627.87,261.77 627.87,261.77 629.09,261.77 629.09,261.77 630.32,261.77 630.32,261.77 631.55,261.77 631.55,261.77 632.77,261.77 632.77,261.77 634.00,261.77 634.00,261.77 635.23,261.77 635.23,251.57 636.45,251.57 636.45,250.94 637.68,250.94 637.68,250.94 638.91,250.94 638.91,244.56 640.13,244.56 640.13,244.56 641.36,244.56 641.36,244.56 642.59,244.56 642.59,244.56 643.81,244.56 643.81,244.56 645.04,244.56 645.04,244.56 646.27,244.56 646.27,244.56 647.49,244.56 647.49,244.56 648.72,244.56 648.72,244.56 649.95,244.56 649.95,244.56 651.17,244.56 651.17,244.56 652.40,244.56 652.40,243.93 653.63,243.93 653.63,235.64 654.85,235.64 654.85,235.64 656.08,235.64 656.08,235.64 657.31,235.64 657.31,235.64 658.53,235.64 658.53,235.64 659.76,235.64 659.76,235.64 660.99,235.64 660.99,235.64 662.21,235.64 662.21,235.00 663.44,235.00 663.44,234.37 664.67,234.37 664.67,201.87 665.89,201.87 665.89,201.87 667.12,201.87 667.12,201.87 668.35,201.87 668.35,201.87 669.57,201.87 669.57,201.87 670.80,201.87 670.80,201.87 672.03,201.87 672.03,201.87 673.25,201.87 673.25,201.87 674.48,201.87 674.48,201.87 675.71,201.87 675.71,201.87 676.93,201.87 676.93,201.87 678.16,201.87 678.16,201.87 679.39,201.87 679.39,201.87 680.61,201.87 680.61,201.87 681.84,201.87 681.84,201.23 683.07,201.23 683.07,190.40 684.29,190.40 684.29,182.11 685.52,182.11 685.52,182.11 686.75,182.11 686.75,175.74 687.97,175.74 687.97,175.74 689.20,175.74 689.20,175.74 690.43,175.74 690.43,175.74 691.65,175.74 691.65,169.37 692.88,169.37 692.88,167.45 694.11,167.45 694.11,166.18 695.33,166.18 695.33,166.18 696.56,166.18 696.56,165.54 697.79,165.54 697.79,165.54 699.01,165.54 699.01,165.54 700.24,165.54 700.24,165.54 701.47,165.54 701.47,165.54 702.69,165.54 702.69,153.43 703.92,153.43 703.92,153.43 705.15,153.43 705.15,153.43 706.37,153.43 706.37,153.43 707.60,153.43 707.60,153.43 708.83,153.43 708.83,153.43 710.05,153.43 710.05,145.15 711.28,145.15 711.28,145.15 712.51,145.15 712.51,145.15 713.73,145.15 713.73,145.15 714.96,145.15 714.96,134.95 716.19,134.95 716.19,134.95 717.41,134.95 717.41,134.95 718.64,134.95 718.64,134.95 719.87,134.95 719.87,134.95 721.09,134.95 721.09,134.95 722.32,134.95 722.32,134.95 723.55,134.95 723.55,134.95 724.77,134.95 724.77,134.95 726.00,134.95 726.00,134.95 727.23,134.95 727.23,134.95 728.45,134.95 728.45,134.95 729.68,134.95 729.68,134.95 730.91,134.95 730.91,134.95 732.13,134.95 732.13,134.95 733.36,134.95 733.36,134.95 734.59,134.95 734.59,120.93 735.81,120.93 735.81,119.66 737.04,119.66 737.04,119.66 738.27,119.66 738.27,119.66 739.49,119.66 739.49,119.66 740.72,119.66 740.72,119.66 741.95,119.66 741.95,119.66 743.17,119.66 743.17,119.66 744.40,119.66 744.40,119.66 745.63,119.66 745.63,119.66 746.85,119.66 746.85,119.66 748.08,119.66 748.08,119.66 749.31,119.66 749.31,119.66 750.53,119.66 750.53,119.66 751.76,119.66 751.76,119.66 752.99,119.66 752.99,119.66 754.21,119.66 754.21,112.01 755.44,112.01 755.44,112.01 756.67,112.01 756.67,112.01 757.89,112.01 757.89,112.01 759.12,112.01 759.12,112.01 760.35,112.01 760.35,112.01 761.57,112.01 761.57,102.45 762.80,102.45 762.80,93.53 764.03,93.53 764.03,93.53 765.25,93.53 765.25,93.53 766.48,93.53 766.48,93.53 767.71,93.53 767.71,92.26 768.93,92.26 768.93,86.52 770.16,86.52 770.16,86.52 771.39,86.52 771.39,86.52 772.61,86.52 772.61,86.52 773.84,86.52 773.84,85.88 775.07,85.88 775.07,85.25 776.29,85.25 776.29,73.78 777.52,73.78 777.52,73.78 778.75,73.78 778.75,73.78 779.97,73.78 779.97,66.13 781.20,66.13 781.20,66.13 782.43,66.13 782.43,66.13 783.65,66.13 783.65,66.13 784.88,66.13 784.88,66.13 786.11,66.13 786.11,66.13 787.33,66.13 787.33,66.13 788.56,66.13 788.56,66.13 789.79,66.13 789.79,66.13 791.01,66.13 791.01,66.13 792.24,66.13 792.24,66.13 793.47,66.13 793.47,65.49 794.69,65.49 794.69,60.39 795.92,60.39 795.92,59.76 797.15,59.76 797.15,59.76 798.37,59.76 798.37,59.76 799.60,59.76 799.60,59.76 800.83,59.76 800.83,59.76 802.05,59.76 802.05,59.76 803.28,59.76 803.28,59.76 804.51,59.76 804.51,59.76 805.73,59.76 805.73,59.76 806.96,59.76 806.96,59.76 808.19,59.76 808.19,59.76 809.41,59.76 809.41,59.76 810.64,59.76 810.64,59.12 811.87,59.12 811.87,59.12 813.09,59.12 813.09,46.37 814.32,46.37 814.32,40.00 815.55,40.00 815.55,40.00 816.77,40.00 816.77,40.00 818.00,40.00 818.00,40.00" fill="none" stroke="#4b8f29" stroke-width="3"/>
<text x="450.0" y="552" text-anchor="middle" font-size="20" font-family="Arial, sans-serif" fill="#111827">Top displacement (mm)</text>
<text x="24" y="280.0" text-anchor="middle" transform="rotate(-90 24 280.0)" font-size="20" font-family="Arial, sans-serif" fill="#111827">Force magnitude (N)</text>
<text x="880" y="280.0" text-anchor="middle" transform="rotate(90 880 280.0)" font-size="20" font-family="Arial, sans-serif" fill="#111827">Broken bonds</text>
<text x="102" y="64" font-size="18" font-family="Arial, sans-serif" fill="#1b6ca8">Top plate</text>
<text x="212" y="64" font-size="18" font-family="Arial, sans-serif" fill="#d1495b">Bottom plate</text>
<text x="352" y="64" font-size="18" font-family="Arial, sans-serif" fill="#4b8f29">Broken bonds</text>
<text x="72" y="45" text-anchor="end" font-size="17" fill="#30363d">18.64</text>
<text x="72" y="488" text-anchor="end" font-size="17" fill="#30363d">0</text>
<text x="828" y="45" text-anchor="start" font-size="17" fill="#30363d">703</text>
<text x="828" y="488" text-anchor="start" font-size="17" fill="#30363d">0</text>
</svg>
