<svg xmlns="http://www.w3.org/2000/svg" width="900" height="560" viewBox="0 0 900 560">
<rect width="100%" height="100%" fill="white"/>
<text x="450.0" y="26" text-anchor="middle" font-size="22" font-family="Arial, sans-serif" fill="#111827">SP-002 force-displacement and bond breakage</text>
<line x1="82" y1="40.00" x2="818" y2="40.00" stroke="#d9dee2" stroke-width="1"/><line x1="82" y1="129.60" x2="818" y2="129.60" stroke="#d9dee2" stroke-width="1"/><line x1="82" y1="219.20" x2="818" y2="219.20" stroke="#d9dee2" stroke-width="1"/><line x1="82" y1="308.80" x2="818" y2="308.80" stroke="#d9dee2" stroke-width="1"/><line x1="82" y1="398.40" x2="818" y2="398.40" stroke="#d9dee2" stroke-width="1"/><line x1="82" y1="488.00" x2="818" y2="488.00" stroke="#d9dee2" stroke-width="1"/><line x1="82.00" y1="40" x2="82.00" y2="488" stroke="#edf0f2" stroke-width="1"/><text x="82.00" y="526" text-anchor="middle" font-size="18" fill="#30363d">0.000</text><line x1="229.20" y1="40" x2="229.20" y2="488" stroke="#edf0f2" stroke-width="1"/><text x="229.20" y="526" text-anchor="middle" font-size="18" fill="#30363d">0.060</text><line x1="376.40" y1="40" x2="376.40" y2="488" stroke="#edf0f2" stroke-width="1"/><text x="376.40" y="526" text-anchor="middle" font-size="18" fill="#30363d">0.120</text><line x1="523.60" y1="40" x2="523.60" y2="488" stroke="#edf0f2" stroke-width="1"/><text x="523.60" y="526" text-anchor="middle" font-size="18" fill="#30363d">0.180</text><line x1="670.80" y1="40" x2="670.80" y2="488" stroke="#edf0f2" stroke-width="1"/><text x="670.80" y="526" text-anchor="middle" font-size="18" fill="#30363d">0.240</text><line x1="818.00" y1="40" x2="818.00" y2="488" stroke="#edf0f2" stroke-width="1"/><text x="818.00" y="526" text-anchor="middle" font-size="18" fill="#30363d">0.300</text>
<line x1="82" y1="40" x2="82" y2="488" stroke="#111827" stroke-width="1.5"/>
<line x1="82" y1="488" x2="818" y2="488" stroke="#111827" stroke-width="1.5"/>
<line x1="818" y1="40" x2="818" y2="488" stroke="#111827" stroke-width="1.5"/>
<polyline points="82.00,488.00 83.23,488.00 84.45,488.00 85.68,488.00 86.91,488.00 88.13,488.00 89.36,488.00 90.59,488.00 91.81,488.00 93.04,488.00 94.27,488.00 95.49,488.00 96.72,488.00 97.95,488.00 99.17,488.00 100.40,488.00 101.63,488.00 102.85,488.00 104.08,488.00 105.31,488.00 106.53,488.00 107.76,488.00 108.99,488.00 110.21,488.00 111.44,488.00 112.67,488.00 113.89,488.00 115.12,488.00 116.35,488.00 117.57,488.00 118.80,488.00 120.03,488.00 121.25,488.00 122.48,488.00 123.71,488.00 124.93,488.00 126.16,488.00 127.39,488.00 128.61,488.00 129.84,488.00 131.07,488.00 132.29,488.00 133.52,488.00 134.75,488.00 135.97,488.00 137.20,488.00 138.43,488.00 139.65,488.00 140.88,488.00 142.11,488.00 143.33,488.00 144.56,488.00 145.79,488.00 147.01,488.00 148.24,488.00 149.47,488.00 150.69,488.00 151.92,488.00 153.15,488.00 154.37,488.00 155.60,488.00 156.83,488.00 158.05,488.00 159.28,488.00 160.51,488.00 161.73,488.00 162.96,488.00 164.19,488.00 165.41,488.00 166.64,488.00 167.87,488.00 169.09,488.00 170.32,488.00 171.55,488.00 172.77,488.00 174.00,488.00 175.23,488.00 176.45,488.00 177.68,488.00 178.91,488.00 180.13,488.00 181.36,488.00 182.59,488.00 183.81,488.00 185.04,488.00 186.27,488.00 187.49,488.00 188.72,488.00 189.95,488.00 191.17,488.00 192.40,488.00 193.63,488.00 194.85,488.00 196.08,488.00 197.31,488.00 198.53,488.00 199.76,488.00 200.99,488.00 202.21,488.00 203.44,488.00 204.67,488.00 205.89,488.00 207.12,488.00 208.35,488.00 209.57,488.00 210.80,488.00 212.03,488.00 213.25,488.00 214.48,488.00 215.71,488.00 216.93,488.00 218.16,488.00 219.39,488.00 220.61,488.00 221.84,488.00 223.07,488.00 224.29,488.00 225.52,488.00 226.75,488.00 227.97,488.00 229.20,488.00 230.43,488.00 231.65,488.00 232.88,488.00 234.11,488.00 235.33,488.00 236.56,488.00 237.79,488.00 239.01,488.00 240.24,488.00 241.47,488.00 242.69,488.00 243.92,488.00 245.15,488.00 246.37,488.00 247.60,488.00 248.83,488.00 250.05,488.00 251.28,488.00 252.51,488.00 253.73,488.00 254.96,488.00 256.19,488.00 257.41,488.00 258.64,488.00 259.87,488.00 261.09,488.00 262.32,488.00 263.55,488.00 264.77,488.00 266.00,488.00 267.23,488.00 268.45,488.00 269.68,488.00 270.91,488.00 272.13,488.00 273.36,488.00 274.59,488.00 275.81,488.00 277.04,488.00 278.27,488.00 279.49,488.00 280.72,488.00 281.95,488.00 283.17,488.00 284.40,488.00 285.63,488.00 286.85,488.00 288.08,488.00 289.31,488.00 290.53,488.00 291.76,488.00 292.99,488.00 294.21,488.00 295.44,488.00 296.67,488.00 297.89,488.00 299.12,488.00 300.35,488.00 301.57,488.00 302.80,488.00 304.03,488.00 305.25,488.00 306.48,488.00 307.71,488.00 308.93,485.58 310.16,481.23 311.39,476.01 312.61,470.19 313.84,463.92 315.07,458.35 316.29,451.76 317.52,444.93 318.75,437.87 319.97,430.62 321.20,423.19 322.43,487.93 323.65,487.95 324.88,486.27 326.11,482.53 327.33,478.04 328.56,473.06 329.79,467.72 331.01,460.01 332.24,450.51 333.47,440.11 334.69,429.04 335.92,417.45 337.15,458.19 338.37,449.76 339.60,443.46 340.83,436.99 342.05,430.28 343.28,487.62 344.51,485.64 345.73,483.85 346.96,481.88 348.19,479.75 349.41,477.48 350.64,475.09 351.87,472.60 353.09,469.01 354.32,464.77 355.55,460.11 356.77,455.13 358.00,449.89 359.23,444.43 360.45,438.56 361.68,430.59 362.91,422.16 364.13,417.42 365.36,416.26 366.59,429.67 367.81,435.28 369.04,438.64 370.27,439.39 371.49,438.35 372.72,437.33 373.95,443.14 375.17,452.12 376.40,457.62 377.63,461.08 378.85,463.36 380.08,464.93 381.31,466.03 382.53,466.81 383.76,467.38 384.99,467.80 386.21,468.11 387.44,468.29 388.67,467.75 389.89,466.44 391.12,464.34 392.35,461.66 393.57,458.41 394.80,454.88 396.03,451.18 397.25,447.39 398.48,443.57 399.71,439.73 400.93,435.07 402.16,429.83 403.39,424.37 404.61,418.70 405.84,411.81 407.07,402.42 408.29,391.87 409.52,380.92 410.75,381.87 411.97,386.77 413.20,381.37 414.43,373.44 415.65,364.42 416.88,354.74 418.11,344.54 419.33,333.89 420.56,322.88 421.79,311.55 423.01,317.84 424.24,414.85 425.47,429.14 426.69,432.73 427.92,434.23 429.15,434.43 430.37,433.95 431.60,433.16 432.83,432.24 434.05,431.28 435.28,430.29 436.51,429.25 437.73,428.23 438.96,427.27 440.19,426.40 441.41,425.61 442.64,424.90 443.87,424.26 445.09,423.71 446.32,423.19 447.55,422.03 448.77,420.13 450.00,417.60 451.23,414.28 452.45,409.21 453.68,402.57 454.91,394.79 456.13,386.28 457.36,377.35 458.59,366.87 459.81,355.49 461.04,344.73 462.27,332.62 463.49,320.02 464.72,306.97 465.95,311.57 467.17,383.84 468.40,364.52 469.63,355.51 470.85,348.38 472.08,358.13 473.31,360.62 474.53,357.60 475.76,352.96 476.99,348.01 478.21,343.20 479.44,338.64 480.67,334.38 481.89,330.48 483.12,326.96 484.35,323.86 485.57,320.98 486.80,317.82 488.03,314.60 489.25,311.53 490.48,308.71 491.71,306.15 492.93,303.81 494.16,301.64 495.39,299.46 496.61,297.32 497.84,294.70 499.07,388.81 500.29,383.05 501.52,372.72 502.75,361.99 503.97,351.69 505.20,341.33 506.43,411.47 507.65,410.25 508.88,410.72 510.11,410.47 511.33,409.01 512.56,406.07 513.79,403.21 515.01,400.23 516.24,396.69 517.47,392.17 518.69,387.07 519.92,381.74 521.15,435.36 522.37,426.20 523.60,422.91 524.83,421.50 526.05,420.76 527.28,420.34 528.51,420.11 529.73,420.06 530.96,420.16 532.19,420.42 533.41,420.83 534.64,420.61 535.87,418.56 537.09,416.93 538.32,415.81 539.55,415.23 540.77,415.08 542.00,414.81 543.23,412.75 544.45,409.42 545.68,404.80 546.91,399.37 548.13,393.08 549.36,385.89 550.59,377.51 551.81,367.96 553.04,357.66 554.27,346.69 555.49,335.17 556.72,323.06 557.95,310.38 559.17,297.12 560.40,294.16 561.63,281.53 562.85,265.14 564.08,309.02 565.31,296.44 566.53,279.95 567.76,262.85 568.99,245.31 570.21,227.39 571.44,209.10 572.67,190.49 573.89,281.20 575.12,256.15 576.35,352.71 577.57,359.44 578.80,364.28 580.03,365.23 581.25,362.22 582.48,354.44 583.71,344.09 584.93,332.27 586.16,319.26 587.39,305.17 588.61,290.07 589.84,317.60 591.07,306.06 592.29,356.74 593.52,351.16 594.75,342.91 595.97,332.25 597.20,320.62 598.43,308.16 599.65,295.06 600.88,281.52 602.11,267.39 603.33,252.72 604.56,237.68 605.79,222.28 607.01,206.59 608.24,215.99 609.47,242.54 610.69,303.45 611.92,300.24 613.15,291.73 614.37,281.24 615.60,269.27 616.83,255.96 618.05,241.36 619.28,225.45 620.51,211.05 621.73,194.01 622.96,176.38 624.19,217.77 625.41,268.23 626.64,341.82 627.87,359.37 629.09,369.40 630.32,374.76 631.55,378.52 632.77,379.30 634.00,376.20 635.23,370.86 636.45,364.09 637.68,356.14 638.91,347.24 640.13,337.40 641.36,328.56 642.59,317.90 643.81,307.06 645.04,346.72 646.27,380.43 647.49,381.65 648.72,375.97 649.95,368.72 651.17,361.02 652.40,353.21 653.63,345.35 654.85,337.41 656.08,329.21 657.31,320.20 658.53,310.46 659.76,305.26 660.99,295.67 662.21,300.34 663.44,310.10 664.67,301.22 665.89,290.20 667.12,278.78 668.35,266.84 669.57,254.53 670.80,241.92 672.03,229.01 673.25,215.84 674.48,202.38 675.71,188.70 676.93,220.53 678.16,205.29 679.39,232.17 680.61,224.93 681.84,219.41 683.07,213.45 684.29,207.11 685.52,200.43 686.75,193.47 687.97,186.14 689.20,178.89 690.43,171.55 691.65,163.58 692.88,251.42 694.11,209.77 695.33,198.53 696.56,189.58 697.79,180.54 699.01,171.27 700.24,161.82 701.47,156.45 702.69,159.12 703.92,152.97 705.15,145.92 706.37,138.51 707.60,130.42 708.83,122.10 710.05,113.53 711.28,105.04 712.51,103.19 713.73,101.09 714.96,92.87 716.19,83.01 717.41,72.33 718.64,60.79 719.87,48.34 721.09,40.00 722.32,129.96 723.55,165.02 724.77,185.28 726.00,208.87 727.23,214.17 728.45,215.41 729.68,315.94 730.91,341.16 732.13,350.09 733.36,351.91 734.59,350.05 735.81,346.73 737.04,342.46 738.27,337.45 739.49,331.71 740.72,325.36 741.95,318.53 743.17,311.26 744.40,303.80 745.63,299.97 746.85,320.15 748.08,327.40 749.31,330.66 750.53,331.82 751.76,330.44 752.99,328.72 754.21,326.39 755.44,324.46 756.67,343.66 757.89,356.17 759.12,359.51 760.35,361.45 761.57,362.69 762.80,363.42 764.03,363.38 765.25,363.71 766.48,363.86 767.71,363.88 768.93,363.74 770.16,363.54 771.39,363.28 772.61,362.91 773.84,362.51 775.07,362.08 776.29,361.61 777.52,361.08 778.75,360.52 779.97,359.82 781.20,359.08 782.43,358.45 783.65,357.98 784.88,357.68 786.11,357.60 787.33,357.75 788.56,358.11 789.79,358.66 791.01,358.84 792.24,359.60 793.47,360.59 794.69,362.14 795.92,364.32 797.15,367.20 798.37,370.69 799.60,374.68 800.83,378.88 802.05,383.08 803.28,387.57 804.51,392.31 805.73,397.55 806.96,402.98 808.19,408.24 809.41,413.04 810.64,417.19 811.87,420.12 813.09,420.69 814.32,420.28 815.55,418.91 816.77,416.60 818.00,413.06" fill="none" stroke="#1b6ca8" stroke-width="3"/>
<polyline points="82.00,488.00 83.23,488.00 84.45,488.00 85.68,488.00 86.91,488.00 88.13,488.00 89.36,488.00 90.59,488.00 91.81,488.00 93.04,488.00 94.27,488.00 95.49,488.00 96.72,488.00 97.95,488.00 99.17,488.00 100.40,488.00 101.63,488.00 102.85,488.00 104.08,488.00 105.31,488.00 106.53,488.00 107.76,488.00 108.99,488.00 110.21,488.00 111.44,488.00 112.67,488.00 113.89,488.00 115.12,488.00 116.35,488.00 117.57,488.00 118.80,488.00 120.03,488.00 121.25,488.00 122.48,488.00 123.71,488.00 124.93,488.00 126.16,488.00 127.39,488.00 128.61,488.00 129.84,488.00 131.07,488.00 132.29,488.00 133.52,488.00 134.75,488.00 135.97,488.00 137.20,488.00 138.43,488.00 139.65,488.00 140.88,488.00 142.11,488.00 143.33,488.00 144.56,488.00 145.79,488.00 147.01,488.00 148.24,488.00 149.47,488.00 150.69,488.00 151.92,488.00 153.15,488.00 154.37,488.00 155.60,488.00 156.83,488.00 158.05,488.00 159.28,488.00 160.51,488.00 161.73,488.00 162.96,488.00 164.19,488.00 165.41,488.00 166.64,488.00 167.87,488.00 169.09,488.00 170.32,488.00 171.55,488.00 172.77,488.00 174.00,488.00 175.23,488.00 176.45,488.00 177.68,488.00 178.91,488.00 180.13,488.00 181.36,488.00 182.59,488.00 183.81,488.00 185.04,488.00 186.27,488.00 187.49,488.00 188.72,488.00 189.95,488.00 191.17,488.00 192.40,488.00 193.63,488.00 194.85,488.00 196.08,488.00 197.31,488.00 198.53,488.00 199.76,488.00 200.99,488.00 202.21,488.00 203.44,488.00 204.67,488.00 205.89,488.00 207.12,488.00 208.35,488.00 209.57,488.00 210.80,488.00 212.03,488.00 213.25,488.00 214.48,488.00 215.71,488.00 216.93,488.00 218.16,488.00 219.39,488.00 220.61,488.00 221.84,488.00 223.07,488.00 224.29,488.00 225.52,488.00 226.75,488.00 227.97,488.00 229.20,488.00 230.43,488.00 231.65,488.00 232.88,488.00 234.11,488.00 235.33,488.00 236.56,488.00 237.79,488.00 239.01,488.00 240.24,488.00 241.47,488.00 242.69,488.00 243.92,488.00 245.15,488.00 246.37,488.00 247.60,488.00 248.83,488.00 250.05,488.00 251.28,488.00 252.51,488.00 253.73,488.00 254.96,488.00 256.19,488.00 257.41,488.00 258.64,488.00 259.87,488.00 261.09,488.00 262.32,488.00 263.55,488.00 264.77,488.00 266.00,488.00 267.23,488.00 268.45,488.00 269.68,488.00 270.91,488.00 272.13,488.00 273.36,488.00 274.59,488.00 275.81,488.00 277.04,488.00 278.27,488.00 279.49,488.00 280.72,488.00 281.95,488.00 283.17,488.00 284.40,488.00 285.63,488.00 286.85,488.00 288.08,488.00 289.31,488.00 290.53,488.00 291.76,488.00 292.99,488.00 294.21,488.00 295.44,488.00 296.67,488.00 297.89,488.00 299.12,488.00 300.35,488.00 301.57,488.00 302.80,488.00 304.03,488.00 305.25,488.00 306.48,488.00 307.71,488.00 308.93,486.78 310.16,483.11 311.39,478.26 312.61,472.69 313.84,466.60 315.07,460.94 316.29,454.53 317.52,447.81 318.75,440.84 319.97,433.67 321.20,426.32 322.43,437.81 323.65,483.69 324.88,486.91 326.11,484.18 327.33,480.05 328.56,475.29 329.79,470.11 331.01,463.54 332.24,454.69 333.47,444.67 334.69,433.87 335.92,422.50 337.15,436.24 338.37,450.68 339.60,445.92 340.83,439.70 342.05,433.12 343.28,455.19 344.51,483.77 345.73,484.57 346.96,482.91 348.19,480.87 349.41,478.66 350.64,476.32 351.87,473.89 353.09,470.78 354.32,466.81 355.55,462.34 356.77,457.51 358.00,452.39 359.23,447.04 360.45,441.43 361.68,434.26 362.91,434.71 364.13,425.73 365.36,440.13 366.59,455.67 367.81,459.16 369.04,458.23 370.27,454.83 371.49,451.48 372.72,467.35 373.95,476.61 375.17,488.00 376.40,488.00 377.63,488.00 378.85,488.00 380.08,488.00 381.31,488.00 382.53,488.00 383.76,488.00 384.99,488.00 386.21,488.00 387.44,487.36 388.67,484.73 389.89,480.96 391.12,476.21 392.35,471.59 393.57,466.91 394.80,462.54 396.03,458.41 397.25,454.42 398.48,450.50 399.71,446.62 400.93,442.56 402.16,437.87 403.39,432.68 404.61,427.18 405.84,421.23 407.07,413.54 408.29,403.92 409.52,393.20 410.75,421.76 411.97,409.79 413.20,399.84 414.43,390.17 415.65,380.25 416.88,370.00 418.11,359.42 419.33,348.51 420.56,337.30 421.79,325.80 423.01,465.61 424.24,463.07 425.47,461.15 426.69,461.93 427.92,460.44 429.15,458.99 430.37,457.65 431.60,456.41 432.83,455.26 434.05,454.20 435.28,453.27 436.51,452.49 437.73,451.80 438.96,451.17 440.19,450.58 441.41,450.05 442.64,449.58 443.87,449.16 445.09,448.80 446.32,448.21 447.55,445.90 448.77,442.68 450.00,438.75 451.23,433.26 452.45,424.74 453.68,415.52 454.91,406.10 456.13,396.82 457.36,387.38 458.59,377.34 459.81,366.35 461.04,356.02 462.27,343.82 463.49,331.25 464.72,318.29 465.95,308.96 467.17,351.05 468.40,372.48 469.63,368.31 470.85,364.39 472.08,386.42 473.31,379.03 474.53,373.32 475.76,367.79 476.99,362.64 478.21,357.83 479.44,353.36 480.67,349.22 481.89,345.46 483.12,342.08 484.35,339.09 485.57,335.91 486.80,332.51 488.03,329.18 489.25,326.16 490.48,323.40 491.71,320.80 492.93,318.39 494.16,316.01 495.39,313.17 496.61,310.79 497.84,308.53 499.07,346.66 500.29,371.25 501.52,375.14 502.75,370.38 503.97,362.19 505.20,352.42 506.43,395.63 507.65,404.59 508.88,408.04 510.11,409.46 511.33,408.56 512.56,407.36 513.79,405.66 515.01,403.52 516.24,400.98 517.47,397.56 518.69,393.32 519.92,388.52 521.15,403.29 522.37,421.15 523.60,424.91 524.83,425.72 526.05,425.76 527.28,425.70 528.51,425.66 529.73,425.79 530.96,426.04 532.19,426.40 533.41,426.92 534.64,427.55 535.87,427.94 537.09,428.05 538.32,428.05 539.55,428.03 540.77,428.08 542.00,428.19 543.23,427.01 544.45,424.42 545.68,420.24 546.91,414.88 548.13,408.58 549.36,401.46 550.59,392.44 551.81,382.37 553.04,371.68 554.27,360.51 555.49,348.81 556.72,336.54 557.95,323.71 559.17,310.40 560.40,312.25 561.63,293.81 562.85,276.97 564.08,327.24 565.31,308.34 566.53,291.47 567.76,274.29 568.99,256.69 570.21,238.74 571.44,220.43 572.67,201.77 573.89,216.47 575.12,267.41 576.35,327.21 577.57,356.41 578.80,367.54 580.03,371.47 581.25,370.21 582.48,364.60 583.71,355.65 584.93,344.53 586.16,331.86 587.39,317.92 588.61,302.75 589.84,326.15 591.07,318.06 592.29,362.70 593.52,362.25 594.75,355.69 595.97,345.56 597.20,333.83 598.43,321.18 599.65,307.96 600.88,294.25 602.11,280.02 603.33,265.37 604.56,250.36 605.79,235.01 607.01,219.30 608.24,312.10 609.47,269.73 610.69,325.43 611.92,316.24 613.15,306.74 614.37,295.98 615.60,283.52 616.83,269.75 618.05,254.34 619.28,237.77 620.51,222.11 621.73,205.93 622.96,188.24 624.19,223.56 625.41,347.88 626.64,361.15 627.87,376.71 629.09,385.36 630.32,389.18 631.55,390.29 632.77,389.46 634.00,386.74 635.23,382.08 636.45,375.51 637.68,367.61 638.91,358.74 640.13,348.92 641.36,338.88 642.59,328.32 643.81,317.47 645.04,395.51 646.27,401.55 647.49,393.39 648.72,386.17 649.95,379.06 651.17,372.10 652.40,364.55 653.63,357.14 654.85,349.35 656.08,341.30 657.31,332.64 658.53,326.95 659.76,316.71 660.99,307.15 662.21,345.53 663.44,323.13 664.67,311.97 665.89,300.96 667.12,289.65 668.35,277.86 669.57,265.60 670.80,253.02 672.03,240.16 673.25,227.04 674.48,213.66 675.71,200.04 676.93,223.61 678.16,216.69 679.39,238.23 680.61,238.24 681.84,233.00 683.07,226.85 684.29,220.38 685.52,213.61 686.75,206.57 687.97,199.25 689.20,191.50 690.43,183.36 691.65,175.06 692.88,180.50 694.11,215.09 695.33,209.62 696.56,200.76 697.79,191.49 699.01,182.07 700.24,172.54 701.47,172.39 702.69,172.03 703.92,163.74 705.15,156.50 706.37,149.39 707.60,141.46 708.83,133.09 710.05,124.52 711.28,116.83 712.51,120.55 713.73,113.20 714.96,103.05 716.19,92.84 717.41,82.05 718.64,70.49 719.87,57.78 721.09,50.38 722.32,200.11 723.55,198.35 724.77,206.47 726.00,228.08 727.23,234.48 728.45,235.60 729.68,327.61 730.91,352.56 732.13,359.17 733.36,358.96 734.59,360.93 735.81,357.87 737.04,353.63 738.27,348.49 739.49,342.70 740.72,336.30 741.95,329.32 743.17,321.98 744.40,314.47 745.63,339.88 746.85,339.07 748.08,340.57 749.31,342.16 750.53,341.46 751.76,340.39 752.99,339.22 754.21,336.05 755.44,338.15 756.67,395.61 757.89,377.72 759.12,376.58 760.35,376.98 761.57,377.35 762.80,377.46 764.03,377.37 765.25,377.35 766.48,377.31 767.71,377.14 768.93,376.84 770.16,376.15 771.39,375.56 772.61,375.08 773.84,374.58 775.07,374.05 776.29,373.47 777.52,372.81 778.75,372.00 779.97,370.81 781.20,369.80 782.43,368.97 783.65,368.30 784.88,367.83 786.11,367.58 787.33,367.59 788.56,367.90 789.79,368.52 791.01,369.37 792.24,370.62 793.47,372.32 794.69,374.54 795.92,377.43 797.15,380.90 798.37,384.80 799.60,388.85 800.83,392.12 802.05,395.55 803.28,399.61 804.51,404.40 805.73,409.66 806.96,415.01 808.19,420.10 809.41,424.67 810.64,428.51 811.87,431.65 813.09,433.16 814.32,433.13 815.55,431.94 816.77,429.74 818.00,426.20" fill="none" stroke="#d1495b" stroke-width="3"/>
<polyline points="82.00,488.00 83.23,488.00 83.23,488.00 84.45,488.00 84.45,488.00 85.68,488.00 85.68,488.00 86.91,488.00 86.91,488.00 88.13,488.00 88.13,488.00 89.36,488.00 89.36,488.00 90.59,488.00 90.59,488.00 91.81,488.00 91.81,488.00 93.04,488.00 93.04,488.00 94.27,488.00 94.27,488.00 95.49,488.00 95.49,488.00 96.72,488.00 96.72,488.00 97.95,488.00 97.95,488.00 99.17,488.00 99.17,488.00 100.40,488.00 100.40,488.00 101.63,488.00 101.63,488.00 102.85,488.00 102.85,488.00 104.08,488.00 104.08,488.00 105.31,488.00 105.31,488.00 106.53,488.00 106.53,488.00 107.76,488.00 107.76,488.00 108.99,488.00 108.99,488.00 110.21,488.00 110.21,488.00 111.44,488.00 111.44,488.00 112.67,488.00 112.67,488.00 113.89,488.00 113.89,488.00 115.12,488.00 115.12,488.00 116.35,488.00 116.35,488.00 117.57,488.00 117.57,488.00 118.80,488.00 118.80,488.00 120.03,488.00 120.03,488.00 121.25,488.00 121.25,488.00 122.48,488.00 122.48,488.00 123.71,488.00 123.71,488.00 124.93,488.00 124.93,488.00 126.16,488.00 126.16,488.00 127.39,488.00 127.39,488.00 128.61,488.00 128.61,488.00 129.84,488.00 129.84,488.00 131.07,488.00 131.07,488.00 132.29,488.00 132.29,488.00 133.52,488.00 133.52,488.00 134.75,488.00 134.75,488.00 135.97,488.00 135.97,488.00 137.20,488.00 137.20,488.00 138.43,488.00 138.43,488.00 139.65,488.00 139.65,488.00 140.88,488.00 140.88,488.00 142.11,488.00 142.11,488.00 143.33,488.00 143.33,488.00 144.56,488.00 144.56,488.00 145.79,488.00 145.79,488.00 147.01,488.00 147.01,488.00 148.24,488.00 148.24,488.00 149.47,488.00 149.47,488.00 150.69,488.00 150.69,488.00 151.92,488.00 151.92,488.00 153.15,488.00 153.15,488.00 154.37,488.00 154.37,488.00 155.60,488.00 155.60,488.00 156.83,488.00 156.83,488.00 158.05,488.00 158.05,488.00 159.28,488.00 159.28,488.00 160.51,488.00 160.51,488.00 161.73,488.00 161.73,488.00 162.96,488.00 162.96,488.00 164.19,488.00 164.19,488.00 165.41,488.00 165.41,488.00 166.64,488.00 166.64,488.00 167.87,488.00 167.87,488.00 169.09,488.00 169.09,488.00 170.32,488.00 170.32,488.00 171.55,488.00 171.55,488.00 172.77,488.00 172.77,488.00 174.00,488.00 174.00,488.00 175.23,488.00 175.23,488.00 176.45,488.00 176.45,488.00 177.68,488.00 177.68,488.00 178.91,488.00 178.91,488.00 180.13,488.00 180.13,488.00 181.36,488.00 181.36,488.00 182.59,488.00 182.59,488.00 183.81,488.00 183.81,488.00 185.04,488.00 185.04,488.00 186.27,488.00 186.27,488.00 187.49,488.00 187.49,488.00 188.72,488.00 188.72,488.00 189.95,488.00 189.95,488.00 191.17,488.00 191.17,488.00 192.40,488.00 192.40,488.00 193.63,488.00 193.63,488.00 194.85,488.00 194.85,488.00 196.08,488.00 196.08,488.00 197.31,488.00 197.31,488.00 198.53,488.00 198.53,488.00 199.76,488.00 199.76,488.00 200.99,488.00 200.99,488.00 202.21,488.00 202.21,488.00 203.44,488.00 203.44,488.00 204.67,488.00 204.67,488.00 205.89,488.00 205.89,488.00 207.12,488.00 207.12,488.00 208.35,488.00 208.35,488.00 209.57,488.00 209.57,488.00 210.80,488.00 210.80,488.00 212.03,488.00 212.03,488.00 213.25,488.00 213.25,488.00 214.48,488.00 214.48,488.00 215.71,488.00 215.71,488.00 216.93,488.00 216.93,488.00 218.16,488.00 218.16,488.00 219.39,488.00 219.39,488.00 220.61,488.00 220.61,488.00 221.84,488.00 221.84,488.00 223.07,488.00 223.07,488.00 224.29,488.00 224.29,488.00 225.52,488.00 225.52,488.00 226.75,488.00 226.75,488.00 227.97,488.00 227.97,488.00 229.20,488.00 229.20,488.00 230.43,488.00 230.43,488.00 231.65,488.00 231.65,488.00 232.88,488.00 232.88,488.00 234.11,488.00 234.11,488.00 235.33,488.00 235.33,488.00 236.56,488.00 236.56,488.00 237.79,488.00 237.79,488.00 239.01,488.00 239.01,488.00 240.24,488.00 240.24,488.00 241.47,488.00 241.47,488.00 242.69,488.00 242.69,488.00 243.92,488.00 243.92,488.00 245.15,488.00 245.15,488.00 246.37,488.00 246.37,488.00 247.60,488.00 247.60,488.00 248.83,488.00 248.83,488.00 250.05,488.00 250.05,488.00 251.28,488.00 251.28,488.00 252.51,488.00 252.51,488.00 253.73,488.00 253.73,488.00 254.96,488.00 254.96,488.00 256.19,488.00 256.19,488.00 257.41,488.00 257.41,488.00 258.64,488.00 258.64,488.00 259.87,488.00 259.87,488.00 261.09,488.00 261.09,488.00 262.32,488.00 262.32,488.00 263.55,488.00 263.55,488.00 264.77,488.00 264.77,488.00 266.00,488.00 266.00,488.00 267.23,488.00 267.23,488.00 268.45,488.00 268.45,488.00 269.68,488.00 269.68,488.00 270.91,488.00 270.91,488.00 272.13,488.00 272.13,488.00 273.36,488.00 273.36,488.00 274.59,488.00 274.59,488.00 275.81,488.00 275.81,488.00 277.04,488.00 277.04,488.00 278.27,488.00 278.27,488.00 279.49,488.00 279.49,488.00 280.72,488.00 280.72,488.00 281.95,488.00 281.95,488.00 283.17,488.00 283.17,488.00 284.40,488.00 284.40,488.00 285.63,488.00 285.63,488.00 286.85,488.00 286.85,488.00 288.08,488.00 288.08,488.00 289.31,488.00 289.31,488.00 290.53,488.00 290.53,488.00 291.76,488.00 291.76,488.00 292.99,488.00 292.99,488.00 294.21,488.00 294.21,488.00 295.44,488.00 295.44,488.00 296.67,488.00 296.67,488.00 297.89,488.00 297.89,488.00 299.12,488.00 299.12,488.00 300.35,488.00 300.35,488.00 301.57,488.00 301.57,488.00 302.80,488.00 302.80,488.00 304.03,488.00 304.03,488.00 305.25,488.00 305.25,488.00 306.48,488.00 306.48,488.00 307.71,488.00 307.71,488.00 308.93,488.00 308.93,488.00 310.16,488.00 310.16,488.00 311.39,488.00 311.39,488.00 312.61,488.00 312.61,488.00 313.84,488.00 313.84,488.00 315.07,488.00 315.07,487.06 316.29,487.06 316.29,487.06 317.52,487.06 317.52,487.06 318.75,487.06 318.75,487.06 319.97,487.06 319.97,487.06 321.20,487.06 321.20,487.06 322.43,487.06 322.43,476.68 323.65,476.68 323.65,476.68 324.88,476.68 324.88,476.68 326.11,476.68 326.11,476.68 327.33,476.68 327.33,476.68 328.56,476.68 328.56,476.68 329.79,476.68 329.79,476.68 331.01,476.68 331.01,476.68 332.24,476.68 332.24,476.68 333.47,476.68 333.47,476.68 334.69,476.68 334.69,476.68 335.92,476.68 335.92,476.68 337.15,476.68 337.15,466.31 338.37,466.31 338.37,466.31 339.60,466.31 339.60,466.31 340.83,466.31 340.83,466.31 342.05,466.31 342.05,466.31 343.28,466.31 343.28,454.99 344.51,454.99 344.51,454.99 345.73,454.99 345.73,454.99 346.96,454.99 346.96,454.99 348.19,454.99 348.19,454.99 349.41,454.99 349.41,454.99 350.64,454.99 350.64,454.99 351.87,454.99 351.87,454.99 353.09,454.99 353.09,454.99 354.32,454.99 354.32,454.99 355.55,454.99 355.55,454.99 356.77,454.99 356.77,454.99 358.00,454.99 358.00,454.99 359.23,454.99 359.23,454.99 360.45,454.99 360.45,454.99 361.68,454.99 361.68,454.99 362.91,454.99 362.91,454.99 364.13,454.99 364.13,454.99 365.36,454.99 365.36,453.10 366.59,453.10 366.59,438.96 367.81,438.96 367.81,437.07 369.04,437.07 369.04,437.07 370.27,437.07 370.27,437.07 371.49,437.07 371.49,437.07 372.72,437.07 372.72,437.07 373.95,437.07 373.95,437.07 375.17,437.07 375.17,437.07 376.40,437.07 376.40,437.07 377.63,437.07 377.63,437.07 378.85,437.07 378.85,437.07 380.08,437.07 380.08,437.07 381.31,437.07 381.31,437.07 382.53,437.07 382.53,437.07 383.76,437.07 383.76,437.07 384.99,437.07 384.99,437.07 386.21,437.07 386.21,437.07 387.44,437.07 387.44,437.07 388.67,437.07 388.67,437.07 389.89,437.07 389.89,437.07 391.12,437.07 391.12,437.07 392.35,437.07 392.35,437.07 393.57,437.07 393.57,437.07 394.80,437.07 394.80,437.07 396.03,437.07 396.03,437.07 397.25,437.07 397.25,437.07 398.48,437.07 398.48,437.07 399.71,437.07 399.71,437.07 400.93,437.07 400.93,437.07 402.16,437.07 402.16,437.07 403.39,437.07 403.39,437.07 404.61,437.07 404.61,437.07 405.84,437.07 405.84,437.07 407.07,437.07 407.07,437.07 408.29,437.07 408.29,437.07 409.52,437.07 409.52,437.07 410.75,437.07 410.75,429.52 411.97,429.52 411.97,429.52 413.20,429.52 413.20,429.52 414.43,429.52 414.43,429.52 415.65,429.52 415.65,429.52 416.88,429.52 416.88,429.52 418.11,429.52 418.11,429.52 419.33,429.52 419.33,429.52 420.56,429.52 420.56,429.52 421.79,429.52 421.79,429.52 423.01,429.52 423.01,405.00 424.24,405.00 424.24,405.00 425.47,405.00 425.47,405.00 426.69,405.00 426.69,404.06 427.92,404.06 427.92,404.06 429.15,404.06 429.15,404.06 430.37,404.06 430.37,404.06 431.60,404.06 431.60,404.06 432.83,404.06 432.83,404.06 434.05,404.06 434.05,404.06 435.28,404.06 435.28,404.06 436.51,404.06 436.51,404.06 437.73,404.06 437.73,404.06 438.96,404.06 438.96,404.06 440.19,404.06 440.19,404.06 441.41,404.06 441.41,404.06 442.64,404.06 442.64,404.06 443.87,404.06 443.87,404.06 445.09,404.06 445.09,404.06 446.32,404.06 446.32,404.06 447.55,404.06 447.55,404.06 448.77,404.06 448.77,404.06 450.00,404.06 450.00,404.06 451.23,404.06 451.23,404.06 452.45,404.06 452.45,404.06 453.68,404.06 453.68,404.06 454.91,404.06 454.91,404.06 456.13,404.06 456.13,404.06 457.36,404.06 457.36,404.06 458.59,404.06 458.59,404.06 459.81,404.06 459.81,404.06 461.04,404.06 461.04,403.12 462.27,403.12 462.27,403.12 463.49,403.12 463.49,403.12 464.72,403.12 464.72,403.12 465.95,403.12 465.95,396.51 467.17,396.51 467.17,387.08 468.40,387.08 468.40,387.08 469.63,387.08 469.63,387.08 470.85,387.08 470.85,386.14 472.08,386.14 472.08,379.54 473.31,379.54 473.31,379.54 474.53,379.54 474.53,379.54 475.76,379.54 475.76,379.54 476.99,379.54 476.99,379.54 478.21,379.54 478.21,379.54 479.44,379.54 479.44,379.54 480.67,379.54 480.67,379.54 481.89,379.54 481.89,379.54 483.12,379.54 483.12,379.54 484.35,379.54 484.35,379.54 485.57,379.54 485.57,379.54 486.80,379.54 486.80,379.54 488.03,379.54 488.03,379.54 489.25,379.54 489.25,379.54 490.48,379.54 490.48,379.54 491.71,379.54 491.71,379.54 492.93,379.54 492.93,379.54 494.16,379.54 494.16,379.54 495.39,379.54 495.39,379.54 496.61,379.54 496.61,379.54 497.84,379.54 497.84,379.54 499.07,379.54 499.07,352.19 500.29,352.19 500.29,352.19 501.52,352.19 501.52,352.19 502.75,352.19 502.75,352.19 503.97,352.19 503.97,352.19 505.20,352.19 505.20,352.19 506.43,352.19 506.43,339.92 507.65,339.92 507.65,339.92 508.88,339.92 508.88,339.92 510.11,339.92 510.11,339.92 511.33,339.92 511.33,339.92 512.56,339.92 512.56,339.92 513.79,339.92 513.79,339.92 515.01,339.92 515.01,339.92 516.24,339.92 516.24,339.92 517.47,339.92 517.47,339.92 518.69,339.92 518.69,339.92 519.92,339.92 519.92,339.92 521.15,339.92 521.15,327.66 522.37,327.66 522.37,327.66 523.60,327.66 523.60,327.66 524.83,327.66 524.83,327.66 526.05,327.66 526.05,327.66 527.28,327.66 527.28,327.66 528.51,327.66 528.51,327.66 529.73,327.66 529.73,327.66 530.96,327.66 530.96,327.66 532.19,327.66 532.19,327.66 533.41,327.66 533.41,327.66 534.64,327.66 534.64,327.66 535.87,327.66 535.87,327.66 537.09,327.66 537.09,327.66 538.32,327.66 538.32,327.66 539.55,327.66 539.55,327.66 540.77,327.66 540.77,327.66 542.00,327.66 542.00,327.66 543.23,327.66 543.23,327.66 544.45,327.66 544.45,327.66 545.68,327.66 545.68,327.66 546.91,327.66 546.91,327.66 548.13,327.66 548.13,327.66 549.36,327.66 549.36,327.66 550.59,327.66 550.59,327.66 551.81,327.66 551.81,327.66 553.04,327.66 553.04,327.66 554.27,327.66 554.27,327.66 555.49,327.66 555.49,327.66 556.72,327.66 556.72,327.66 557.95,327.66 557.95,327.66 559.17,327.66 559.17,327.66 560.40,327.66 560.40,321.06 561.63,321.06 561.63,321.06 562.85,321.06 562.85,321.06 564.08,321.06 564.08,312.57 565.31,312.57 565.31,312.57 566.53,312.57 566.53,312.57 567.76,312.57 567.76,312.57 568.99,312.57 568.99,312.57 570.21,312.57 570.21,312.57 571.44,312.57 571.44,312.57 572.67,312.57 572.67,312.57 573.89,312.57 573.89,289.94 575.12,289.94 575.12,289.94 576.35,289.94 576.35,274.85 577.57,274.85 577.57,274.85 578.80,274.85 578.80,274.85 580.03,274.85 580.03,274.85 581.25,274.85 581.25,274.85 582.48,274.85 582.48,274.85 583.71,274.85 583.71,274.85 584.93,274.85 584.93,274.85 586.16,274.85 586.16,274.85 587.39,274.85 587.39,274.85 588.61,274.85 588.61,274.85 589.84,274.85 589.84,260.70 591.07,260.70 591.07,260.70 592.29,260.70 592.29,249.38 593.52,249.38 593.52,249.38 594.75,249.38 594.75,249.38 595.97,249.38 595.97,249.38 597.20,249.38 597.20,249.38 598.43,249.38 598.43,249.38 599.65,249.38 599.65,249.38 600.88,249.38 600.88,249.38 602.11,249.38 602.11,249.38 603.33,249.38 603.33,249.38 604.56,249.38 604.56,249.38 605.79,249.38 605.79,249.38 607.01,249.38 607.01,249.38 608.24,249.38 608.24,233.35 609.47,233.35 609.47,231.46 610.69,231.46 610.69,218.26 611.92,218.26 611.92,218.26 613.15,218.26 613.15,218.26 614.37,218.26 614.37,218.26 615.60,218.26 615.60,218.26 616.83,218.26 616.83,218.26 618.05,218.26 618.05,218.26 619.28,218.26 619.28,218.26 620.51,218.26 620.51,217.31 621.73,217.31 621.73,217.31 622.96,217.31 622.96,217.31 624.19,217.31 624.19,200.34 625.41,200.34 625.41,172.04 626.64,172.04 626.64,172.04 627.87,172.04 627.87,172.04 629.09,172.04 629.09,172.04 630.32,172.04 630.32,172.04 631.55,172.04 631.55,172.04 632.77,172.04 632.77,172.04 634.00,172.04 634.00,172.04 635.23,172.04 635.23,172.04 636.45,172.04 636.45,172.04 637.68,172.04 637.68,172.04 638.91,172.04 638.91,172.04 640.13,172.04 640.13,172.04 641.36,172.04 641.36,171.10 642.59,171.10 642.59,171.10 643.81,171.10 643.81,171.10 645.04,171.10 645.04,156.01 646.27,156.01 646.27,156.01 647.49,156.01 647.49,156.01 648.72,156.01 648.72,156.01 649.95,156.01 649.95,156.01 651.17,156.01 651.17,156.01 652.40,156.01 652.40,156.01 653.63,156.01 653.63,156.01 654.85,156.01 654.85,156.01 656.08,156.01 656.08,156.01 657.31,156.01 657.31,156.01 658.53,156.01 658.53,155.07 659.76,155.07 659.76,155.07 660.99,155.07 660.99,155.07 662.21,155.07 662.21,144.69 663.44,144.69 663.44,144.69 664.67,144.69 664.67,144.69 665.89,144.69 665.89,144.69 667.12,144.69 667.12,144.69 668.35,144.69 668.35,144.69 669.57,144.69 669.57,144.69 670.80,144.69 670.80,144.69 672.03,144.69 672.03,144.69 673.25,144.69 673.25,144.69 674.48,144.69 674.48,144.69 675.71,144.69 675.71,144.69 676.93,144.69 676.93,131.49 678.16,131.49 678.16,131.49 679.39,131.49 679.39,123.00 680.61,123.00 680.61,123.00 681.84,123.00 681.84,123.00 683.07,123.00 683.07,123.00 684.29,123.00 684.29,123.00 685.52,123.00 685.52,123.00 686.75,123.00 686.75,123.00 687.97,123.00 687.97,123.00 689.20,123.00 689.20,123.00 690.43,123.00 690.43,123.00 691.65,123.00 691.65,123.00 692.88,123.00 692.88,107.91 694.11,107.91 694.11,107.91 695.33,107.91 695.33,107.91 696.56,107.91 696.56,107.91 697.79,107.91 697.79,107.91 699.01,107.91 699.01,107.91 700.24,107.91 700.24,107.91 701.47,107.91 701.47,107.91 702.69,107.91 702.69,107.91 703.92,107.91 703.92,107.91 705.15,107.91 705.15,107.91 706.37,107.91 706.37,107.91 707.60,107.91 707.60,107.91 708.83,107.91 708.83,107.91 710.05,107.91 710.05,107.91 711.28,107.91 711.28,107.91 712.51,107.91 712.51,107.91 713.73,107.91 713.73,107.91 714.96,107.91 714.96,107.91 716.19,107.91 716.19,107.91 717.41,107.91 717.41,107.91 718.64,107.91 718.64,107.91 719.87,107.91 719.87,107.91 721.09,107.91 721.09,105.08 722.32,105.08 722.32,81.50 723.55,81.50 723.55,81.50 724.77,81.50 724.77,81.50 726.00,81.50 726.00,79.61 727.23,79.61 727.23,79.61 728.45,79.61 728.45,79.61 729.68,79.61 729.68,63.58 730.91,63.58 730.91,63.58 732.13,63.58 732.13,63.58 733.36,63.58 733.36,63.58 734.59,63.58 734.59,63.58 735.81,63.58 735.81,63.58 737.04,63.58 737.04,63.58 738.27,63.58 738.27,63.58 739.49,63.58 739.49,63.58 740.72,63.58 740.72,63.58 741.95,63.58 741.95,63.58 743.17,63.58 743.17,63.58 744.40,63.58 744.40,63.58 745.63,63.58 745.63,56.98 746.85,56.98 746.85,54.15 748.08,54.15 748.08,54.15 749.31,54.15 749.31,54.15 750.53,54.15 750.53,54.15 751.76,54.15 751.76,54.15 752.99,54.15 752.99,54.15 754.21,54.15 754.21,54.15 755.44,54.15 755.44,52.26 756.67,52.26 756.67,40.94 757.89,40.94 757.89,40.94 759.12,40.94 759.12,40.94 760.35,40.94 760.35,40.94 761.57,40.94 761.57,40.94 762.80,40.94 762.80,40.94 764.03,40.94 764.03,40.00 765.25,40.00 765.25,40.00 766.48,40.00 766.48,40.00 767.71,40.00 767.71,40.00 768.93,40.00 768.93,40.00 770.16,40.00 770.16,40.00 771.39,40.00 771.39,40.00 772.61,40.00 772.61,40.00 773.84,40.00 773.84,40.00 775.07,40.00 775.07,40.00 776.29,40.00 776.29,40.00 777.52,40.00 777.52,40.00 778.75,40.00 778.75,40.00 779.97,40.00 779.97,40.00 781.20,40.00 781.20,40.00 782.43,40.00 782.43,40.00 783.65,40.00 783.65,40.00 784.88,40.00 784.88,40.00 786.11,40.00 786.11,40.00 787.33,40.00 787.33,40.00 788.56,40.00 788.56,40.00 789.79,40.00 789.79,40.00 791.01,40.00 791.01,40.00 792.24,40.00 792.24,40.00 793.47,40.00 793.47,40.00 794.69,40.00 794.69,40.00 795.92,40.00 795.92,40.00 797.15,40.00 797.15,40.00 798.37,40.00 798.37,40.00 799.60,40.00 799.60,40.00 800.83,40.00 800.83,40.00 802.05,40.00 802.05,40.00 803.28,40.00 803.28,40.00 804.51,40.00 804.51,40.00 805.73,40.00 805.73,40.00 806.96,40.00 806.96,40.00 808.19,40.00 808.19,40.00 809.41,40.00 809.41,40.00 810.64,40.00 810.64,40.00 811.87,40.00 811.87,40.00 813.09,40.00 813.09,40.00 814.32,40.00 814.32,40.00 815.55,40.00 815.55,40.00 816.77,40.00 816.77,40.00 818.00,40.00 818.00,40.00" fill="none" stroke="#4b8f29" stroke-width="3"/>
<text x="450.0" y="552" text-anchor="middle" font-size="20" font-family="Arial, sans-serif" fill="#111827">Top displacement (mm)</text>
<text x="24" y="280.0" text-anchor="middle" transform="rotate(-90 24 280.0)" font-size="20" font-family="Arial, sans-serif" fill="#111827">Force magnitude (N)</text>
<text x="880" y="280.0" text-anchor="middle" transform="rotate(90 880 280.0)" font-size="20" font-family="Arial, sans-serif" fill="#111827">Broken bonds</text>
<text x="102" y="64" font-size="18" font-family="Arial, sans-serif" fill="#1b6ca8">Top plate</text>
<text x="212" y="64" font-size="18" font-family="Arial, sans-serif" fill="#d1495b">Bottom plate</text>
<text x="352" y="64" font-size="18" font-family="Arial, sans-serif" fill="#4b8f29">Broken bonds</text>
<text x="72" y="45" text-anchor="end" font-size="17" fill="#30363d">19.40</text>
<text x="72" y="488" text-anchor="end" font-size="17" fill="#30363d">0</text>
<text x="828" y="45" text-anchor="start" font-size="17" fill="#30363d">475</text>
<text x="828" y="488" text-anchor="start" font-size="17" fill="#30363d">0</text>
</svg>
