<svg xmlns="http://www.w3.org/2000/svg" width="900" height="560" viewBox="0 0 900 560">
<rect width="100%" height="100%" fill="white"/>
<text x="450.0" y="26" text-anchor="middle" font-size="22" font-family="Arial, sans-serif" fill="#111827">SP-002 force-displacement and bond breakage</text>
<line x1="82" y1="40.00" x2="818" y2="40.00" stroke="#d9dee2" stroke-width="1"/><line x1="82" y1="129.60" x2="818" y2="129.60" stroke="#d9dee2" stroke-width="1"/><line x1="82" y1="219.20" x2="818" y2="219.20" stroke="#d9dee2" stroke-width="1"/><line x1="82" y1="308.80" x2="818" y2="308.80" stroke="#d9dee2" stroke-width="1"/><line x1="82" y1="398.40" x2="818" y2="398.40" stroke="#d9dee2" stroke-width="1"/><line x1="82" y1="488.00" x2="818" y2="488.00" stroke="#d9dee2" stroke-width="1"/><line x1="82.00" y1="40" x2="82.00" y2="488" stroke="#edf0f2" stroke-width="1"/><text x="82.00" y="526" text-anchor="middle" font-size="18" fill="#30363d">0.000</text><line x1="229.20" y1="40" x2="229.20" y2="488" stroke="#edf0f2" stroke-width="1"/><text x="229.20" y="526" text-anchor="middle" font-size="18" fill="#30363d">0.060</text><line x1="376.40" y1="40" x2="376.40" y2="488" stroke="#edf0f2" stroke-width="1"/><text x="376.40" y="526" text-anchor="middle" font-size="18" fill="#30363d">0.120</text><line x1="523.60" y1="40" x2="523.60" y2="488" stroke="#edf0f2" stroke-width="1"/><text x="523.60" y="526" text-anchor="middle" font-size="18" fill="#30363d">0.180</text><line x1="670.80" y1="40" x2="670.80" y2="488" stroke="#edf0f2" stroke-width="1"/><text x="670.80" y="526" text-anchor="middle" font-size="18" fill="#30363d">0.240</text><line x1="818.00" y1="40" x2="818.00" y2="488" stroke="#edf0f2" stroke-width="1"/><text x="818.00" y="526" text-anchor="middle" font-size="18" fill="#30363d">0.300</text>
<line x1="82" y1="40" x2="82" y2="488" stroke="#111827" stroke-width="1.5"/>
<line x1="82" y1="488" x2="818" y2="488" stroke="#111827" stroke-width="1.5"/>
<line x1="818" y1="40" x2="818" y2="488" stroke="#111827" stroke-width="1.5"/>
<polyline points="82.00,488.00 83.23,488.00 84.45,488.00 85.68,488.00 86.91,488.00 88.13,488.00 89.36,488.00 90.59,488.00 91.81,488.00 93.04,488.00 94.27,488.00 95.49,488.00 96.72,488.00 97.95,488.00 99.17,488.00 100.40,488.00 101.63,488.00 102.85,488.00 104.08,488.00 105.31,488.00 106.53,488.00 107.76,488.00 108.99,488.00 110.21,488.00 111.44,488.00 112.67,488.00 113.89,488.00 115.12,488.00 116.35,488.00 117.57,488.00 118.80,488.00 120.03,488.00 121.25,488.00 122.48,488.00 123.71,488.00 124.93,488.00 126.16,488.00 127.39,488.00 128.61,488.00 129.84,488.00 131.07,488.00 132.29,488.00 133.52,488.00 134.75,488.00 135.97,488.00 137.20,488.00 138.43,488.00 139.65,488.00 140.88,488.00 142.11,488.00 143.33,488.00 144.56,488.00 145.79,488.00 147.01,488.00 148.24,488.00 149.47,488.00 150.69,488.00 151.92,488.00 153.15,488.00 154.37,488.00 155.60,488.00 156.83,488.00 158.05,488.00 159.28,488.00 160.51,488.00 161.73,488.00 162.96,488.00 164.19,488.00 165.41,488.00 166.64,488.00 167.87,488.00 169.09,488.00 170.32,488.00 171.55,488.00 172.77,488.00 174.00,488.00 175.23,488.00 176.45,488.00 177.68,488.00 178.91,488.00 180.13,488.00 181.36,488.00 182.59,488.00 183.81,488.00 185.04,488.00 186.27,488.00 187.49,488.00 188.72,488.00 189.95,488.00 191.17,488.00 192.40,488.00 193.63,488.00 194.85,488.00 196.08,488.00 197.31,488.00 198.53,488.00 199.76,488.00 200.99,488.00 202.21,488.00 203.44,488.00 204.67,488.00 205.89,488.00 207.12,488.00 208.35,488.00 209.57,488.00 210.80,488.00 212.03,488.00 213.25,488.00 214.48,488.00 215.71,488.00 216.93,488.00 218.16,488.00 219.39,488.00 220.61,488.00 221.84,488.00 223.07,488.00 224.29,488.00 225.52,488.00 226.75,488.00 227.97,488.00 229.20,488.00 230.43,488.00 231.65,488.00 232.88,488.00 234.11,488.00 235.33,488.00 236.56,488.00 237.79,488.00 239.01,488.00 240.24,488.00 241.47,488.00 242.69,488.00 243.92,488.00 245.15,488.00 246.37,488.00 247.60,488.00 248.83,488.00 250.05,488.00 251.28,488.00 252.51,488.00 253.73,488.00 254.96,488.00 256.19,488.00 257.41,488.00 258.64,488.00 259.87,488.00 261.09,488.00 262.32,488.00 263.55,488.00 264.77,488.00 266.00,488.00 267.23,488.00 268.45,488.00 269.68,488.00 270.91,488.00 272.13,488.00 273.36,488.00 274.59,488.00 275.81,488.00 277.04,488.00 278.27,488.00 279.49,488.00 280.72,488.00 281.95,488.00 283.17,488.00 284.40,488.00 285.63,488.00 286.85,488.00 288.08,488.00 289.31,488.00 290.53,488.00 291.76,488.00 292.99,488.00 294.21,488.00 295.44,488.00 296.67,488.00 297.89,488.00 299.12,488.00 300.35,488.00 301.57,488.00 302.80,488.00 304.03,488.00 305.25,488.00 306.48,488.00 307.71,488.00 308.93,488.00 310.16,488.00 311.39,488.00 312.61,485.13 313.84,480.04 315.07,473.93 316.29,468.49 317.52,461.37 318.75,450.52 319.97,437.90 321.20,424.14 322.43,409.53 323.65,446.20 324.88,437.72 326.11,428.59 327.33,419.08 328.56,409.24 329.79,400.46 331.01,401.25 332.24,487.90 333.47,487.90 334.69,487.90 335.92,487.90 337.15,487.90 338.37,487.90 339.60,487.90 340.83,487.90 342.05,487.90 343.28,487.90 344.51,487.90 345.73,487.90 346.96,487.90 348.19,487.90 349.41,487.90 350.64,487.90 351.87,487.90 353.09,487.90 354.32,487.90 355.55,487.90 356.77,487.90 358.00,487.90 359.23,487.90 360.45,487.90 361.68,487.90 362.91,486.30 364.13,482.30 365.36,475.49 366.59,465.18 367.81,453.19 369.04,440.03 370.27,425.96 371.49,409.17 372.72,390.61 373.95,370.89 375.17,350.99 376.40,329.72 377.63,357.12 378.85,338.75 380.08,319.83 381.31,392.90 382.53,394.41 383.76,455.13 384.99,470.85 386.21,474.48 387.44,475.57 388.67,475.93 389.89,475.70 391.12,473.71 392.35,470.72 393.57,467.25 394.80,463.44 396.03,459.26 397.25,454.75 398.48,450.00 399.71,445.05 400.93,439.94 402.16,434.68 403.39,429.30 404.61,423.79 405.84,418.17 407.07,412.44 408.29,406.62 409.52,400.69 410.75,393.88 411.97,385.38 413.20,424.88 414.43,421.95 415.65,412.86 416.88,403.24 418.11,393.29 419.33,383.04 420.56,372.51 421.79,361.72 423.01,350.69 424.24,339.43 425.47,327.96 426.69,316.27 427.92,304.40 429.15,448.86 430.37,469.20 431.60,474.07 432.83,475.55 434.05,476.04 435.28,476.21 436.51,476.27 437.73,476.27 438.96,476.24 440.19,476.21 441.41,476.19 442.64,476.18 443.87,476.17 445.09,476.17 446.32,476.17 447.55,476.17 448.77,476.17 450.00,476.17 451.23,476.17 452.45,476.17 453.68,476.12 454.91,475.63 456.13,474.44 457.36,472.34 458.59,469.65 459.81,466.57 461.04,462.25 462.27,456.81 463.49,450.80 464.72,444.38 465.95,437.65 467.17,430.64 468.40,423.34 469.63,415.69 470.85,407.77 472.08,399.64 473.31,391.16 474.53,380.67 475.76,369.04 476.99,356.75 478.21,344.04 479.44,330.96 480.67,317.55 481.89,303.86 483.12,289.89 484.35,275.65 485.57,397.38 486.80,391.06 488.03,385.66 489.25,388.30 490.48,416.95 491.71,424.73 492.93,431.78 494.16,438.37 495.39,441.59 496.61,444.37 497.84,445.82 499.07,446.32 500.29,446.03 501.52,444.88 502.75,442.94 503.97,440.32 505.20,437.22 506.43,433.77 507.65,429.21 508.88,422.84 510.11,415.51 511.33,407.34 512.56,398.48 513.79,389.26 515.01,379.80 516.24,370.20 517.47,360.54 518.69,350.92 519.92,341.41 521.15,329.56 522.37,316.26 523.60,301.82 524.83,286.44 526.05,270.12 527.28,252.72 528.51,363.98 529.73,412.87 530.96,398.22 532.19,389.73 533.41,381.07 534.64,371.67 535.87,360.75 537.09,348.82 538.32,385.89 539.55,371.07 540.77,360.76 542.00,349.81 543.23,337.88 544.45,324.56 545.68,309.00 546.91,292.79 548.13,393.30 549.36,380.20 550.59,368.71 551.81,356.85 553.04,344.60 554.27,331.97 555.49,318.98 556.72,305.68 557.95,292.11 559.17,278.30 560.40,264.27 561.63,250.04 562.85,234.83 564.08,217.71 565.31,200.06 566.53,181.20 567.76,264.68 568.99,332.07 570.21,329.27 571.44,319.83 572.67,308.84 573.89,322.64 575.12,346.78 576.35,335.45 577.57,322.88 578.80,309.85 580.03,296.70 581.25,284.31 582.48,289.42 583.71,373.25 584.93,374.38 586.16,370.49 587.39,365.39 588.61,360.94 589.84,354.68 591.07,347.89 592.29,340.69 593.52,332.81 594.75,322.67 595.97,311.07 597.20,298.41 598.43,284.87 599.65,270.70 600.88,256.00 602.11,240.82 603.33,225.21 604.56,209.21 605.79,192.83 607.01,176.10 608.24,159.06 609.47,141.71 610.69,124.08 611.92,106.19 613.15,173.25 614.37,196.24 615.60,257.01 616.83,351.97 618.05,369.59 619.28,374.28 620.51,369.72 621.73,360.40 622.96,348.26 624.19,334.14 625.41,318.96 626.64,303.28 627.87,287.09 629.09,270.20 630.32,252.77 631.55,234.89 632.77,216.84 634.00,198.91 635.23,180.65 636.45,162.06 637.68,143.18 638.91,209.18 640.13,212.96 641.36,211.97 642.59,206.92 643.81,291.19 645.04,306.62 646.27,308.01 647.49,303.47 648.72,296.53 649.95,290.01 651.17,282.99 652.40,274.86 653.63,266.09 654.85,257.02 656.08,247.79 657.31,340.42 658.53,338.63 659.76,336.53 660.99,334.02 662.21,331.65 663.44,328.89 664.67,324.93 665.89,321.60 667.12,317.50 668.35,312.94 669.57,308.09 670.80,302.91 672.03,297.35 673.25,291.36 674.48,284.89 675.71,277.90 676.93,270.40 678.16,262.19 679.39,252.69 680.61,242.60 681.84,232.37 683.07,222.30 684.29,212.30 685.52,202.38 686.75,192.53 687.97,182.78 689.20,172.95 690.43,163.16 691.65,153.49 692.88,143.98 694.11,134.61 695.33,259.85 696.56,270.93 697.79,276.26 699.01,279.08 700.24,281.08 701.47,281.48 702.69,280.22 703.92,351.02 705.15,372.84 706.37,387.24 707.60,389.70 708.83,390.38 710.05,390.70 711.28,390.03 712.51,388.64 713.73,386.96 714.96,385.06 716.19,382.97 717.41,380.71 718.64,378.33 719.87,375.88 721.09,373.40 722.32,370.96 723.55,368.63 724.77,366.42 726.00,364.36 727.23,362.51 728.45,360.89 729.68,359.54 730.91,358.51 732.13,358.95 733.36,355.94 734.59,352.46 735.81,348.72 737.04,344.80 738.27,340.73 739.49,336.55 740.72,332.26 741.95,327.33 743.17,322.16 744.40,316.69 745.63,311.06 746.85,304.96 748.08,298.70 749.31,292.24 750.53,285.58 751.76,278.74 752.99,271.79 754.21,264.63 755.44,257.97 756.67,249.16 757.89,240.06 759.12,230.60 760.35,220.78 761.57,210.61 762.80,199.91 764.03,187.71 765.25,174.61 766.48,160.86 767.71,146.75 768.93,132.35 770.16,117.45 771.39,101.52 772.61,84.69 773.84,144.51 775.07,125.01 776.29,141.77 777.52,132.21 778.75,115.40 779.97,171.78 781.20,139.39 782.43,119.79 783.65,99.58 784.88,210.38 786.11,192.04 787.33,172.63 788.56,151.93 789.79,130.42 791.01,108.20 792.24,85.37 793.47,61.99 794.69,118.85 795.92,129.99 797.15,127.09 798.37,116.53 799.60,104.72 800.83,89.33 802.05,73.70 803.28,58.78 804.51,40.00 805.73,335.23 806.96,307.12 808.19,303.29 809.41,290.92 810.64,277.50 811.87,264.18 813.09,250.39 814.32,237.09 815.55,224.02 816.77,210.70 818.00,197.68" fill="none" stroke="#1b6ca8" stroke-width="3"/>
<polyline points="82.00,488.00 83.23,488.00 84.45,488.00 85.68,488.00 86.91,488.00 88.13,488.00 89.36,488.00 90.59,488.00 91.81,488.00 93.04,488.00 94.27,488.00 95.49,488.00 96.72,488.00 97.95,488.00 99.17,488.00 100.40,488.00 101.63,488.00 102.85,488.00 104.08,488.00 105.31,488.00 106.53,488.00 107.76,488.00 108.99,488.00 110.21,488.00 111.44,488.00 112.67,488.00 113.89,488.00 115.12,488.00 116.35,488.00 117.57,488.00 118.80,488.00 120.03,488.00 121.25,488.00 122.48,488.00 123.71,488.00 124.93,488.00 126.16,488.00 127.39,488.00 128.61,488.00 129.84,488.00 131.07,488.00 132.29,488.00 133.52,488.00 134.75,488.00 135.97,488.00 137.20,488.00 138.43,488.00 139.65,488.00 140.88,488.00 142.11,488.00 143.33,488.00 144.56,488.00 145.79,488.00 147.01,488.00 148.24,488.00 149.47,488.00 150.69,488.00 151.92,488.00 153.15,488.00 154.37,488.00 155.60,488.00 156.83,488.00 158.05,488.00 159.28,488.00 160.51,488.00 161.73,488.00 162.96,488.00 164.19,488.00 165.41,488.00 166.64,488.00 167.87,488.00 169.09,488.00 170.32,488.00 171.55,488.00 172.77,488.00 174.00,488.00 175.23,488.00 176.45,488.00 177.68,488.00 178.91,488.00 180.13,488.00 181.36,488.00 182.59,488.00 183.81,488.00 185.04,488.00 186.27,488.00 187.49,488.00 188.72,488.00 189.95,488.00 191.17,488.00 192.40,488.00 193.63,488.00 194.85,488.00 196.08,488.00 197.31,488.00 198.53,488.00 199.76,488.00 200.99,488.00 202.21,488.00 203.44,488.00 204.67,488.00 205.89,488.00 207.12,488.00 208.35,488.00 209.57,488.00 210.80,488.00 212.03,488.00 213.25,488.00 214.48,488.00 215.71,488.00 216.93,488.00 218.16,488.00 219.39,488.00 220.61,488.00 221.84,488.00 223.07,488.00 224.29,488.00 225.52,488.00 226.75,488.00 227.97,488.00 229.20,488.00 230.43,488.00 231.65,488.00 232.88,488.00 234.11,488.00 235.33,488.00 236.56,488.00 237.79,488.00 239.01,488.00 240.24,488.00 241.47,488.00 242.69,488.00 243.92,488.00 245.15,488.00 246.37,488.00 247.60,488.00 248.83,488.00 250.05,488.00 251.28,488.00 252.51,488.00 253.73,488.00 254.96,488.00 256.19,488.00 257.41,488.00 258.64,488.00 259.87,488.00 261.09,488.00 262.32,488.00 263.55,488.00 264.77,488.00 266.00,488.00 267.23,488.00 268.45,488.00 269.68,488.00 270.91,488.00 272.13,488.00 273.36,488.00 274.59,488.00 275.81,488.00 277.04,488.00 278.27,488.00 279.49,488.00 280.72,488.00 281.95,488.00 283.17,488.00 284.40,488.00 285.63,488.00 286.85,488.00 288.08,488.00 289.31,488.00 290.53,488.00 291.76,488.00 292.99,488.00 294.21,488.00 295.44,488.00 296.67,488.00 297.89,488.00 299.12,488.00 300.35,488.00 301.57,488.00 302.80,488.00 304.03,488.00 305.25,488.00 306.48,488.00 307.71,488.00 308.93,488.00 310.16,488.00 311.39,488.00 312.61,485.76 313.84,480.87 315.07,474.88 316.29,468.83 317.52,462.59 318.75,452.27 319.97,439.88 321.20,426.28 322.43,411.79 323.65,446.50 324.88,439.19 326.11,430.13 327.33,420.66 328.56,410.88 329.79,402.03 331.01,401.17 332.24,483.25 333.47,487.95 334.69,487.95 335.92,487.95 337.15,487.95 338.37,487.95 339.60,487.96 340.83,487.96 342.05,487.96 343.28,487.97 344.51,487.97 345.73,487.97 346.96,487.98 348.19,487.98 349.41,487.98 350.64,487.98 351.87,487.99 353.09,487.99 354.32,487.99 355.55,487.99 356.77,487.99 358.00,487.99 359.23,487.99 360.45,487.99 361.68,487.99 362.91,486.91 364.13,483.17 365.36,477.02 366.59,467.04 367.81,455.26 369.04,442.26 370.27,428.31 371.49,412.02 372.72,393.68 373.95,374.13 375.17,354.35 376.40,333.19 377.63,360.10 378.85,342.19 380.08,323.13 381.31,416.08 382.53,404.92 383.76,488.00 384.99,488.00 386.21,488.00 387.44,488.00 388.67,488.00 389.89,486.56 391.12,483.40 392.35,480.08 393.57,476.52 394.80,472.63 396.03,468.34 397.25,463.80 398.48,459.05 399.71,454.14 400.93,449.06 402.16,443.85 403.39,438.50 404.61,433.03 405.84,427.44 407.07,421.75 408.29,415.95 409.52,410.06 410.75,401.69 411.97,392.45 413.20,443.58 414.43,428.98 415.65,419.48 416.88,409.83 418.11,399.88 419.33,389.62 420.56,379.10 421.79,368.31 423.01,357.28 424.24,346.03 425.47,334.55 426.69,322.87 427.92,344.57 429.15,488.00 430.37,488.00 431.60,488.00 432.83,488.00 434.05,488.00 435.28,488.00 436.51,488.00 437.73,488.00 438.96,488.00 440.19,488.00 441.41,488.00 442.64,488.00 443.87,488.00 445.09,488.00 446.32,488.00 447.55,488.00 448.77,488.00 450.00,488.00 451.23,488.00 452.45,487.99 453.68,487.69 454.91,486.61 456.13,484.32 457.36,481.52 458.59,478.47 459.81,475.05 461.04,469.71 462.27,463.89 463.49,457.71 464.72,451.19 465.95,444.39 467.17,437.33 468.40,429.89 469.63,422.14 470.85,414.15 472.08,405.96 473.31,397.07 474.53,386.34 475.76,374.85 476.99,362.62 478.21,349.88 479.44,336.78 480.67,323.36 481.89,309.66 483.12,295.69 484.35,281.44 485.57,389.60 486.80,392.75 488.03,388.34 489.25,424.64 490.48,420.59 491.71,426.74 492.93,433.68 494.16,440.31 495.39,445.42 496.61,448.96 497.84,451.09 499.07,452.22 500.29,452.22 501.52,451.22 502.75,449.33 503.97,446.75 505.20,443.67 506.43,440.28 507.65,435.11 508.88,428.67 510.11,421.35 511.33,413.19 512.56,404.29 513.79,394.97 515.01,385.43 516.24,375.76 517.47,366.05 518.69,356.37 519.92,346.81 521.15,335.79 522.37,322.65 523.60,308.16 524.83,292.77 526.05,276.20 527.28,258.71 528.51,338.11 529.73,398.88 530.96,398.93 532.19,391.62 533.41,383.55 534.64,374.19 535.87,363.95 537.09,352.96 538.32,380.46 539.55,375.68 540.77,364.90 542.00,353.61 543.23,341.83 544.45,329.12 545.68,314.70 546.91,298.88 548.13,387.21 549.36,383.50 550.59,373.22 551.81,361.71 553.04,349.52 554.27,336.85 555.49,323.80 556.72,310.43 557.95,296.79 559.17,282.90 560.40,268.79 561.63,254.47 562.85,239.79 564.08,223.53 565.31,206.13 566.53,187.36 567.76,277.31 568.99,342.77 570.21,336.51 571.44,327.15 572.67,316.40 573.89,390.52 575.12,353.65 576.35,342.39 577.57,330.15 578.80,317.32 580.03,304.35 581.25,291.98 582.48,419.13 583.71,384.82 584.93,381.99 586.16,378.09 587.39,373.66 588.61,369.48 589.84,363.24 591.07,356.62 592.29,349.53 593.52,341.25 594.75,330.74 595.97,318.99 597.20,306.26 598.43,292.65 599.65,278.40 600.88,263.64 602.11,248.42 603.33,232.78 604.56,216.75 605.79,200.35 607.01,183.61 608.24,166.55 609.47,149.20 610.69,131.56 611.92,113.66 613.15,208.03 614.37,214.07 615.60,323.83 616.83,370.56 618.05,381.80 619.28,383.52 620.51,377.71 621.73,367.84 622.96,355.37 624.19,341.10 625.41,325.93 626.64,310.24 627.87,293.98 629.09,277.00 630.32,259.53 631.55,241.60 632.77,223.68 634.00,205.72 635.23,187.43 636.45,168.81 637.68,149.90 638.91,220.42 640.13,223.44 641.36,221.60 642.59,216.03 643.81,321.26 645.04,316.74 646.27,316.84 647.49,310.54 648.72,303.65 649.95,297.16 651.17,289.59 652.40,281.20 653.63,272.31 654.85,263.21 656.08,253.98 657.31,340.85 658.53,343.63 659.76,341.29 660.99,338.92 662.21,336.59 663.44,334.12 664.67,330.43 665.89,326.99 667.12,323.13 668.35,318.77 669.57,314.10 670.80,309.08 672.03,303.66 673.25,297.80 674.48,291.45 675.71,284.58 676.93,277.16 678.16,268.12 679.39,258.02 680.61,247.71 681.84,237.39 683.07,227.26 684.29,217.18 685.52,207.19 686.75,197.26 687.97,187.46 689.20,177.39 690.43,167.51 691.65,157.79 692.88,148.23 694.11,138.84 695.33,270.19 696.56,278.06 697.79,282.94 699.01,285.29 700.24,287.37 701.47,286.57 702.69,285.11 703.92,344.13 705.15,368.59 706.37,382.52 707.60,390.42 708.83,394.16 710.05,395.24 711.28,394.88 712.51,393.53 713.73,391.95 714.96,390.17 716.19,388.18 717.41,386.01 718.64,383.72 719.87,381.34 721.09,378.92 722.32,376.53 723.55,374.25 724.77,372.07 726.00,370.05 727.23,368.23 728.45,366.63 729.68,365.24 730.91,364.18 732.13,364.22 733.36,361.18 734.59,357.74 735.81,354.03 737.04,350.13 738.27,346.10 739.49,341.95 740.72,337.71 741.95,333.02 743.17,327.97 744.40,322.63 745.63,317.07 746.85,311.05 748.08,304.74 749.31,298.29 750.53,291.65 751.76,284.83 752.99,277.85 754.21,270.37 755.44,263.07 756.67,254.46 757.89,245.34 759.12,235.88 760.35,226.04 761.57,215.82 762.80,205.18 764.03,193.27 765.25,180.25 766.48,166.52 767.71,152.42 768.93,138.04 770.16,123.36 771.39,107.54 772.61,90.83 773.84,153.71 775.07,132.16 776.29,154.62 777.52,137.12 778.75,120.41 779.97,151.02 781.20,144.79 782.43,125.34 783.65,105.14 784.88,213.36 786.11,197.42 787.33,178.36 788.56,157.70 789.79,136.21 791.01,114.00 792.24,91.18 793.47,67.81 794.69,134.09 795.92,135.94 797.15,130.93 798.37,122.52 799.60,110.34 800.83,95.19 802.05,79.86 803.28,64.94 804.51,46.48 805.73,281.60 806.96,311.28 808.19,306.44 809.41,296.81 810.64,283.78 811.87,270.16 813.09,256.52 814.32,243.04 815.55,229.82 816.77,216.43 818.00,203.28" fill="none" stroke="#d1495b" stroke-width="3"/>
<polyline points="82.00,488.00 83.23,488.00 83.23,488.00 84.45,488.00 84.45,488.00 85.68,488.00 85.68,488.00 86.91,488.00 86.91,488.00 88.13,488.00 88.13,488.00 89.36,488.00 89.36,488.00 90.59,488.00 90.59,488.00 91.81,488.00 91.81,488.00 93.04,488.00 93.04,488.00 94.27,488.00 94.27,488.00 95.49,488.00 95.49,488.00 96.72,488.00 96.72,488.00 97.95,488.00 97.95,488.00 99.17,488.00 99.17,488.00 100.40,488.00 100.40,488.00 101.63,488.00 101.63,488.00 102.85,488.00 102.85,488.00 104.08,488.00 104.08,488.00 105.31,488.00 105.31,488.00 106.53,488.00 106.53,488.00 107.76,488.00 107.76,488.00 108.99,488.00 108.99,488.00 110.21,488.00 110.21,488.00 111.44,488.00 111.44,488.00 112.67,488.00 112.67,488.00 113.89,488.00 113.89,488.00 115.12,488.00 115.12,488.00 116.35,488.00 116.35,488.00 117.57,488.00 117.57,488.00 118.80,488.00 118.80,488.00 120.03,488.00 120.03,488.00 121.25,488.00 121.25,488.00 122.48,488.00 122.48,488.00 123.71,488.00 123.71,488.00 124.93,488.00 124.93,488.00 126.16,488.00 126.16,488.00 127.39,488.00 127.39,488.00 128.61,488.00 128.61,488.00 129.84,488.00 129.84,488.00 131.07,488.00 131.07,488.00 132.29,488.00 132.29,488.00 133.52,488.00 133.52,488.00 134.75,488.00 134.75,488.00 135.97,488.00 135.97,488.00 137.20,488.00 137.20,488.00 138.43,488.00 138.43,488.00 139.65,488.00 139.65,488.00 140.88,488.00 140.88,488.00 142.11,488.00 142.11,488.00 143.33,488.00 143.33,488.00 144.56,488.00 144.56,488.00 145.79,488.00 145.79,488.00 147.01,488.00 147.01,488.00 148.24,488.00 148.24,488.00 149.47,488.00 149.47,488.00 150.69,488.00 150.69,488.00 151.92,488.00 151.92,488.00 153.15,488.00 153.15,488.00 154.37,488.00 154.37,488.00 155.60,488.00 155.60,488.00 156.83,488.00 156.83,488.00 158.05,488.00 158.05,488.00 159.28,488.00 159.28,488.00 160.51,488.00 160.51,488.00 161.73,488.00 161.73,488.00 162.96,488.00 162.96,488.00 164.19,488.00 164.19,488.00 165.41,488.00 165.41,488.00 166.64,488.00 166.64,488.00 167.87,488.00 167.87,488.00 169.09,488.00 169.09,488.00 170.32,488.00 170.32,488.00 171.55,488.00 171.55,488.00 172.77,488.00 172.77,488.00 174.00,488.00 174.00,488.00 175.23,488.00 175.23,488.00 176.45,488.00 176.45,488.00 177.68,488.00 177.68,488.00 178.91,488.00 178.91,488.00 180.13,488.00 180.13,488.00 181.36,488.00 181.36,488.00 182.59,488.00 182.59,488.00 183.81,488.00 183.81,488.00 185.04,488.00 185.04,488.00 186.27,488.00 186.27,488.00 187.49,488.00 187.49,488.00 188.72,488.00 188.72,488.00 189.95,488.00 189.95,488.00 191.17,488.00 191.17,488.00 192.40,488.00 192.40,488.00 193.63,488.00 193.63,488.00 194.85,488.00 194.85,488.00 196.08,488.00 196.08,488.00 197.31,488.00 197.31,488.00 198.53,488.00 198.53,488.00 199.76,488.00 199.76,488.00 200.99,488.00 200.99,488.00 202.21,488.00 202.21,488.00 203.44,488.00 203.44,488.00 204.67,488.00 204.67,488.00 205.89,488.00 205.89,488.00 207.12,488.00 207.12,488.00 208.35,488.00 208.35,488.00 209.57,488.00 209.57,488.00 210.80,488.00 210.80,488.00 212.03,488.00 212.03,488.00 213.25,488.00 213.25,488.00 214.48,488.00 214.48,488.00 215.71,488.00 215.71,488.00 216.93,488.00 216.93,488.00 218.16,488.00 218.16,488.00 219.39,488.00 219.39,488.00 220.61,488.00 220.61,488.00 221.84,488.00 221.84,488.00 223.07,488.00 223.07,488.00 224.29,488.00 224.29,488.00 225.52,488.00 225.52,488.00 226.75,488.00 226.75,488.00 227.97,488.00 227.97,488.00 229.20,488.00 229.20,488.00 230.43,488.00 230.43,488.00 231.65,488.00 231.65,488.00 232.88,488.00 232.88,488.00 234.11,488.00 234.11,488.00 235.33,488.00 235.33,488.00 236.56,488.00 236.56,488.00 237.79,488.00 237.79,488.00 239.01,488.00 239.01,488.00 240.24,488.00 240.24,488.00 241.47,488.00 241.47,488.00 242.69,488.00 242.69,488.00 243.92,488.00 243.92,488.00 245.15,488.00 245.15,488.00 246.37,488.00 246.37,488.00 247.60,488.00 247.60,488.00 248.83,488.00 248.83,488.00 250.05,488.00 250.05,488.00 251.28,488.00 251.28,488.00 252.51,488.00 252.51,488.00 253.73,488.00 253.73,488.00 254.96,488.00 254.96,488.00 256.19,488.00 256.19,488.00 257.41,488.00 257.41,488.00 258.64,488.00 258.64,488.00 259.87,488.00 259.87,488.00 261.09,488.00 261.09,488.00 262.32,488.00 262.32,488.00 263.55,488.00 263.55,488.00 264.77,488.00 264.77,488.00 266.00,488.00 266.00,488.00 267.23,488.00 267.23,488.00 268.45,488.00 268.45,488.00 269.68,488.00 269.68,488.00 270.91,488.00 270.91,488.00 272.13,488.00 272.13,488.00 273.36,488.00 273.36,488.00 274.59,488.00 274.59,488.00 275.81,488.00 275.81,488.00 277.04,488.00 277.04,488.00 278.27,488.00 278.27,488.00 279.49,488.00 279.49,488.00 280.72,488.00 280.72,488.00 281.95,488.00 281.95,488.00 283.17,488.00 283.17,488.00 284.40,488.00 284.40,488.00 285.63,488.00 285.63,488.00 286.85,488.00 286.85,488.00 288.08,488.00 288.08,488.00 289.31,488.00 289.31,488.00 290.53,488.00 290.53,488.00 291.76,488.00 291.76,488.00 292.99,488.00 292.99,488.00 294.21,488.00 294.21,488.00 295.44,488.00 295.44,488.00 296.67,488.00 296.67,488.00 297.89,488.00 297.89,488.00 299.12,488.00 299.12,488.00 300.35,488.00 300.35,488.00 301.57,488.00 301.57,488.00 302.80,488.00 302.80,488.00 304.03,488.00 304.03,488.00 305.25,488.00 305.25,488.00 306.48,488.00 306.48,488.00 307.71,488.00 307.71,488.00 308.93,488.00 308.93,488.00 310.16,488.00 310.16,488.00 311.39,488.00 311.39,488.00 312.61,488.00 312.61,488.00 313.84,488.00 313.84,488.00 315.07,488.00 315.07,488.00 316.29,488.00 316.29,486.77 317.52,486.77 317.52,486.77 318.75,486.77 318.75,486.77 319.97,486.77 319.97,486.77 321.20,486.77 321.20,486.77 322.43,486.77 322.43,486.77 323.65,486.77 323.65,480.62 324.88,480.62 324.88,480.62 326.11,480.62 326.11,480.62 327.33,480.62 327.33,480.62 328.56,480.62 328.56,480.62 329.79,480.62 329.79,479.38 331.01,479.38 331.01,476.92 332.24,476.92 332.24,462.15 333.47,462.15 333.47,462.15 334.69,462.15 334.69,462.15 335.92,462.15 335.92,462.15 337.15,462.15 337.15,462.15 338.37,462.15 338.37,462.15 339.60,462.15 339.60,462.15 340.83,462.15 340.83,462.15 342.05,462.15 342.05,462.15 343.28,462.15 343.28,462.15 344.51,462.15 344.51,462.15 345.73,462.15 345.73,462.15 346.96,462.15 346.96,462.15 348.19,462.15 348.19,462.15 349.41,462.15 349.41,462.15 350.64,462.15 350.64,462.15 351.87,462.15 351.87,462.15 353.09,462.15 353.09,462.15 354.32,462.15 354.32,462.15 355.55,462.15 355.55,462.15 356.77,462.15 356.77,462.15 358.00,462.15 358.00,462.15 359.23,462.15 359.23,462.15 360.45,462.15 360.45,462.15 361.68,462.15 361.68,462.15 362.91,462.15 362.91,462.15 364.13,462.15 364.13,462.15 365.36,462.15 365.36,462.15 366.59,462.15 366.59,462.15 367.81,462.15 367.81,462.15 369.04,462.15 369.04,462.15 370.27,462.15 370.27,462.15 371.49,462.15 371.49,462.15 372.72,462.15 372.72,462.15 373.95,462.15 373.95,462.15 375.17,462.15 375.17,460.92 376.40,460.92 376.40,460.92 377.63,460.92 377.63,448.62 378.85,448.62 378.85,447.38 380.08,447.38 380.08,447.38 381.31,447.38 381.31,441.23 382.53,441.23 382.53,441.23 383.76,441.23 383.76,441.23 384.99,441.23 384.99,441.23 386.21,441.23 386.21,441.23 387.44,441.23 387.44,441.23 388.67,441.23 388.67,441.23 389.89,441.23 389.89,441.23 391.12,441.23 391.12,441.23 392.35,441.23 392.35,441.23 393.57,441.23 393.57,441.23 394.80,441.23 394.80,441.23 396.03,441.23 396.03,441.23 397.25,441.23 397.25,441.23 398.48,441.23 398.48,441.23 399.71,441.23 399.71,441.23 400.93,441.23 400.93,441.23 402.16,441.23 402.16,441.23 403.39,441.23 403.39,441.23 404.61,441.23 404.61,441.23 405.84,441.23 405.84,441.23 407.07,441.23 407.07,441.23 408.29,441.23 408.29,441.23 409.52,441.23 409.52,441.23 410.75,441.23 410.75,441.23 411.97,441.23 411.97,441.23 413.20,441.23 413.20,428.92 414.43,428.92 414.43,428.92 415.65,428.92 415.65,428.92 416.88,428.92 416.88,428.92 418.11,428.92 418.11,428.92 419.33,428.92 419.33,428.92 420.56,428.92 420.56,428.92 421.79,428.92 421.79,428.92 423.01,428.92 423.01,428.92 424.24,428.92 424.24,428.92 425.47,428.92 425.47,428.92 426.69,428.92 426.69,428.92 427.92,428.92 427.92,422.77 429.15,422.77 429.15,406.77 430.37,406.77 430.37,406.77 431.60,406.77 431.60,406.77 432.83,406.77 432.83,406.77 434.05,406.77 434.05,406.77 435.28,406.77 435.28,406.77 436.51,406.77 436.51,406.77 437.73,406.77 437.73,406.77 438.96,406.77 438.96,406.77 440.19,406.77 440.19,406.77 441.41,406.77 441.41,406.77 442.64,406.77 442.64,406.77 443.87,406.77 443.87,406.77 445.09,406.77 445.09,406.77 446.32,406.77 446.32,406.77 447.55,406.77 447.55,406.77 448.77,406.77 448.77,406.77 450.00,406.77 450.00,406.77 451.23,406.77 451.23,406.77 452.45,406.77 452.45,406.77 453.68,406.77 453.68,406.77 454.91,406.77 454.91,406.77 456.13,406.77 456.13,406.77 457.36,406.77 457.36,406.77 458.59,406.77 458.59,406.77 459.81,406.77 459.81,406.77 461.04,406.77 461.04,406.77 462.27,406.77 462.27,406.77 463.49,406.77 463.49,406.77 464.72,406.77 464.72,406.77 465.95,406.77 465.95,406.77 467.17,406.77 467.17,406.77 468.40,406.77 468.40,406.77 469.63,406.77 469.63,406.77 470.85,406.77 470.85,406.77 472.08,406.77 472.08,406.77 473.31,406.77 473.31,406.77 474.53,406.77 474.53,406.77 475.76,406.77 475.76,406.77 476.99,406.77 476.99,406.77 478.21,406.77 478.21,406.77 479.44,406.77 479.44,406.77 480.67,406.77 480.67,406.77 481.89,406.77 481.89,406.77 483.12,406.77 483.12,406.77 484.35,406.77 484.35,406.77 485.57,406.77 485.57,392.00 486.80,392.00 486.80,392.00 488.03,392.00 488.03,392.00 489.25,392.00 489.25,383.38 490.48,383.38 490.48,383.38 491.71,383.38 491.71,383.38 492.93,383.38 492.93,383.38 494.16,383.38 494.16,383.38 495.39,383.38 495.39,383.38 496.61,383.38 496.61,383.38 497.84,383.38 497.84,383.38 499.07,383.38 499.07,383.38 500.29,383.38 500.29,383.38 501.52,383.38 501.52,383.38 502.75,383.38 502.75,383.38 503.97,383.38 503.97,383.38 505.20,383.38 505.20,383.38 506.43,383.38 506.43,383.38 507.65,383.38 507.65,383.38 508.88,383.38 508.88,383.38 510.11,383.38 510.11,383.38 511.33,383.38 511.33,383.38 512.56,383.38 512.56,383.38 513.79,383.38 513.79,383.38 515.01,383.38 515.01,383.38 516.24,383.38 516.24,383.38 517.47,383.38 517.47,383.38 518.69,383.38 518.69,383.38 519.92,383.38 519.92,383.38 521.15,383.38 521.15,383.38 522.37,383.38 522.37,383.38 523.60,383.38 523.60,383.38 524.83,383.38 524.83,383.38 526.05,383.38 526.05,383.38 527.28,383.38 527.28,383.38 528.51,383.38 528.51,368.62 529.73,368.62 529.73,356.31 530.96,356.31 530.96,356.31 532.19,356.31 532.19,356.31 533.41,356.31 533.41,356.31 534.64,356.31 534.64,356.31 535.87,356.31 535.87,356.31 537.09,356.31 537.09,356.31 538.32,356.31 538.32,342.77 539.55,342.77 539.55,342.77 540.77,342.77 540.77,342.77 542.00,342.77 542.00,342.77 543.23,342.77 543.23,342.77 544.45,342.77 544.45,342.77 545.68,342.77 545.68,342.77 546.91,342.77 546.91,342.77 548.13,342.77 548.13,328.00 549.36,328.00 549.36,328.00 550.59,328.00 550.59,328.00 551.81,328.00 551.81,328.00 553.04,328.00 553.04,328.00 554.27,328.00 554.27,328.00 555.49,328.00 555.49,328.00 556.72,328.00 556.72,328.00 557.95,328.00 557.95,328.00 559.17,328.00 559.17,328.00 560.40,328.00 560.40,328.00 561.63,328.00 561.63,328.00 562.85,328.00 562.85,328.00 564.08,328.00 564.08,328.00 565.31,328.00 565.31,328.00 566.53,328.00 566.53,328.00 567.76,328.00 567.76,313.23 568.99,313.23 568.99,299.69 570.21,299.69 570.21,299.69 571.44,299.69 571.44,299.69 572.67,299.69 572.67,299.69 573.89,299.69 573.89,282.46 575.12,282.46 575.12,282.46 576.35,282.46 576.35,282.46 577.57,282.46 577.57,282.46 578.80,282.46 578.80,282.46 580.03,282.46 580.03,282.46 581.25,282.46 581.25,282.46 582.48,282.46 582.48,266.46 583.71,266.46 583.71,266.46 584.93,266.46 584.93,266.46 586.16,266.46 586.16,266.46 587.39,266.46 587.39,266.46 588.61,266.46 588.61,266.46 589.84,266.46 589.84,266.46 591.07,266.46 591.07,266.46 592.29,266.46 592.29,266.46 593.52,266.46 593.52,266.46 594.75,266.46 594.75,266.46 595.97,266.46 595.97,266.46 597.20,266.46 597.20,266.46 598.43,266.46 598.43,266.46 599.65,266.46 599.65,266.46 600.88,266.46 600.88,266.46 602.11,266.46 602.11,266.46 603.33,266.46 603.33,266.46 604.56,266.46 604.56,266.46 605.79,266.46 605.79,266.46 607.01,266.46 607.01,266.46 608.24,266.46 608.24,266.46 609.47,266.46 609.47,266.46 610.69,266.46 610.69,266.46 611.92,266.46 611.92,266.46 613.15,266.46 613.15,249.23 614.37,249.23 614.37,249.23 615.60,249.23 615.60,230.77 616.83,230.77 616.83,230.77 618.05,230.77 618.05,230.77 619.28,230.77 619.28,230.77 620.51,230.77 620.51,230.77 621.73,230.77 621.73,230.77 622.96,230.77 622.96,230.77 624.19,230.77 624.19,230.77 625.41,230.77 625.41,230.77 626.64,230.77 626.64,230.77 627.87,230.77 627.87,230.77 629.09,230.77 629.09,230.77 630.32,230.77 630.32,230.77 631.55,230.77 631.55,230.77 632.77,230.77 632.77,230.77 634.00,230.77 634.00,230.77 635.23,230.77 635.23,230.77 636.45,230.77 636.45,230.77 637.68,230.77 637.68,230.77 638.91,230.77 638.91,217.23 640.13,217.23 640.13,217.23 641.36,217.23 641.36,217.23 642.59,217.23 642.59,217.23 643.81,217.23 643.81,201.23 645.04,201.23 645.04,201.23 646.27,201.23 646.27,201.23 647.49,201.23 647.49,201.23 648.72,201.23 648.72,201.23 649.95,201.23 649.95,201.23 651.17,201.23 651.17,201.23 652.40,201.23 652.40,201.23 653.63,201.23 653.63,201.23 654.85,201.23 654.85,201.23 656.08,201.23 656.08,201.23 657.31,201.23 657.31,185.23 658.53,185.23 658.53,185.23 659.76,185.23 659.76,185.23 660.99,185.23 660.99,185.23 662.21,185.23 662.21,185.23 663.44,185.23 663.44,185.23 664.67,185.23 664.67,185.23 665.89,185.23 665.89,185.23 667.12,185.23 667.12,185.23 668.35,185.23 668.35,185.23 669.57,185.23 669.57,185.23 670.80,185.23 670.80,185.23 672.03,185.23 672.03,185.23 673.25,185.23 673.25,185.23 674.48,185.23 674.48,185.23 675.71,185.23 675.71,185.23 676.93,185.23 676.93,185.23 678.16,185.23 678.16,185.23 679.39,185.23 679.39,185.23 680.61,185.23 680.61,185.23 681.84,185.23 681.84,185.23 683.07,185.23 683.07,185.23 684.29,185.23 684.29,185.23 685.52,185.23 685.52,185.23 686.75,185.23 686.75,185.23 687.97,185.23 687.97,185.23 689.20,185.23 689.20,185.23 690.43,185.23 690.43,185.23 691.65,185.23 691.65,185.23 692.88,185.23 692.88,185.23 694.11,185.23 694.11,185.23 695.33,185.23 695.33,171.69 696.56,171.69 696.56,171.69 697.79,171.69 697.79,171.69 699.01,171.69 699.01,171.69 700.24,171.69 700.24,171.69 701.47,171.69 701.47,171.69 702.69,171.69 702.69,171.69 703.92,171.69 703.92,161.85 705.15,161.85 705.15,161.85 706.37,161.85 706.37,161.85 707.60,161.85 707.60,161.85 708.83,161.85 708.83,161.85 710.05,161.85 710.05,161.85 711.28,161.85 711.28,161.85 712.51,161.85 712.51,161.85 713.73,161.85 713.73,161.85 714.96,161.85 714.96,161.85 716.19,161.85 716.19,161.85 717.41,161.85 717.41,161.85 718.64,161.85 718.64,161.85 719.87,161.85 719.87,161.85 721.09,161.85 721.09,161.85 722.32,161.85 722.32,161.85 723.55,161.85 723.55,161.85 724.77,161.85 724.77,161.85 726.00,161.85 726.00,161.85 727.23,161.85 727.23,161.85 728.45,161.85 728.45,161.85 729.68,161.85 729.68,161.85 730.91,161.85 730.91,161.85 732.13,161.85 732.13,161.85 733.36,161.85 733.36,161.85 734.59,161.85 734.59,161.85 735.81,161.85 735.81,161.85 737.04,161.85 737.04,161.85 738.27,161.85 738.27,161.85 739.49,161.85 739.49,161.85 740.72,161.85 740.72,161.85 741.95,161.85 741.95,161.85 743.17,161.85 743.17,161.85 744.40,161.85 744.40,161.85 745.63,161.85 745.63,161.85 746.85,161.85 746.85,161.85 748.08,161.85 748.08,161.85 749.31,161.85 749.31,161.85 750.53,161.85 750.53,161.85 751.76,161.85 751.76,161.85 752.99,161.85 752.99,161.85 754.21,161.85 754.21,161.85 755.44,161.85 755.44,160.62 756.67,160.62 756.67,160.62 757.89,160.62 757.89,160.62 759.12,160.62 759.12,160.62 760.35,160.62 760.35,160.62 761.57,160.62 761.57,160.62 762.80,160.62 762.80,160.62 764.03,160.62 764.03,160.62 765.25,160.62 765.25,160.62 766.48,160.62 766.48,160.62 767.71,160.62 767.71,160.62 768.93,160.62 768.93,160.62 770.16,160.62 770.16,160.62 771.39,160.62 771.39,160.62 772.61,160.62 772.61,160.62 773.84,160.62 773.84,137.23 775.07,137.23 775.07,137.23 776.29,137.23 776.29,128.62 777.52,128.62 777.52,128.62 778.75,128.62 778.75,128.62 779.97,128.62 779.97,111.38 781.20,111.38 781.20,111.38 782.43,111.38 782.43,111.38 783.65,111.38 783.65,111.38 784.88,111.38 784.88,92.92 786.11,92.92 786.11,92.92 787.33,92.92 787.33,92.92 788.56,92.92 788.56,92.92 789.79,92.92 789.79,92.92 791.01,92.92 791.01,92.92 792.24,92.92 792.24,92.92 793.47,92.92 793.47,92.92 794.69,92.92 794.69,79.38 795.92,79.38 795.92,79.38 797.15,79.38 797.15,78.15 798.37,78.15 798.37,78.15 799.60,78.15 799.60,78.15 800.83,78.15 800.83,78.15 802.05,78.15 802.05,76.92 803.28,76.92 803.28,74.46 804.51,74.46 804.51,74.46 805.73,74.46 805.73,40.00 806.96,40.00 806.96,40.00 808.19,40.00 808.19,40.00 809.41,40.00 809.41,40.00 810.64,40.00 810.64,40.00 811.87,40.00 811.87,40.00 813.09,40.00 813.09,40.00 814.32,40.00 814.32,40.00 815.55,40.00 815.55,40.00 816.77,40.00 816.77,40.00 818.00,40.00 818.00,40.00" fill="none" stroke="#4b8f29" stroke-width="3"/>
<text x="450.0" y="552" text-anchor="middle" font-size="20" font-family="Arial, sans-serif" fill="#111827">Top displacement (mm)</text>
<text x="24" y="280.0" text-anchor="middle" transform="rotate(-90 24 280.0)" font-size="20" font-family="Arial, sans-serif" fill="#111827">Force magnitude (N)</text>
<text x="880" y="280.0" text-anchor="middle" transform="rotate(90 880 280.0)" font-size="20" font-family="Arial, sans-serif" fill="#111827">Broken bonds</text>
<text x="102" y="64" font-size="18" font-family="Arial, sans-serif" fill="#1b6ca8">Top plate</text>
<text x="212" y="64" font-size="18" font-family="Arial, sans-serif" fill="#d1495b">Bottom plate</text>
<text x="352" y="64" font-size="18" font-family="Arial, sans-serif" fill="#4b8f29">Broken bonds</text>
<text x="72" y="45" text-anchor="end" font-size="17" fill="#30363d">17.91</text>
<text x="72" y="488" text-anchor="end" font-size="17" fill="#30363d">0</text>
<text x="828" y="45" text-anchor="start" font-size="17" fill="#30363d">364</text>
<text x="828" y="488" text-anchor="start" font-size="17" fill="#30363d">0</text>
</svg>
