<svg xmlns="http://www.w3.org/2000/svg" width="900" height="560" viewBox="0 0 900 560">
<rect width="100%" height="100%" fill="white"/>
<text x="450.0" y="26" text-anchor="middle" font-size="22" font-family="Arial, sans-serif" fill="#111827">SP-002 force-displacement and bond breakage</text>
<line x1="82" y1="40.00" x2="818" y2="40.00" stroke="#d9dee2" stroke-width="1"/><line x1="82" y1="129.60" x2="818" y2="129.60" stroke="#d9dee2" stroke-width="1"/><line x1="82" y1="219.20" x2="818" y2="219.20" stroke="#d9dee2" stroke-width="1"/><line x1="82" y1="308.80" x2="818" y2="308.80" stroke="#d9dee2" stroke-width="1"/><line x1="82" y1="398.40" x2="818" y2="398.40" stroke="#d9dee2" stroke-width="1"/><line x1="82" y1="488.00" x2="818" y2="488.00" stroke="#d9dee2" stroke-width="1"/><line x1="82.00" y1="40" x2="82.00" y2="488" stroke="#edf0f2" stroke-width="1"/><text x="82.00" y="526" text-anchor="middle" font-size="18" fill="#30363d">0.000</text><line x1="229.20" y1="40" x2="229.20" y2="488" stroke="#edf0f2" stroke-width="1"/><text x="229.20" y="526" text-anchor="middle" font-size="18" fill="#30363d">0.060</text><line x1="376.40" y1="40" x2="376.40" y2="488" stroke="#edf0f2" stroke-width="1"/><text x="376.40" y="526" text-anchor="middle" font-size="18" fill="#30363d">0.120</text><line x1="523.60" y1="40" x2="523.60" y2="488" stroke="#edf0f2" stroke-width="1"/><text x="523.60" y="526" text-anchor="middle" font-size="18" fill="#30363d">0.180</text><line x1="670.80" y1="40" x2="670.80" y2="488" stroke="#edf0f2" stroke-width="1"/><text x="670.80" y="526" text-anchor="middle" font-size="18" fill="#30363d">0.240</text><line x1="818.00" y1="40" x2="818.00" y2="488" stroke="#edf0f2" stroke-width="1"/><text x="818.00" y="526" text-anchor="middle" font-size="18" fill="#30363d">0.300</text>
<line x1="82" y1="40" x2="82" y2="488" stroke="#111827" stroke-width="1.5"/>
<line x1="82" y1="488" x2="818" y2="488" stroke="#111827" stroke-width="1.5"/>
<line x1="818" y1="40" x2="818" y2="488" stroke="#111827" stroke-width="1.5"/>
<polyline points="82.00,488.00 82.61,488.00 83.23,488.00 83.84,488.00 84.45,488.00 85.07,488.00 85.68,488.00 86.29,488.00 86.91,488.00 87.52,488.00 88.13,488.00 88.75,488.00 89.36,488.00 89.97,488.00 90.59,488.00 91.20,488.00 91.81,488.00 92.43,488.00 93.04,488.00 93.65,488.00 94.27,488.00 94.88,488.00 95.49,488.00 96.11,488.00 96.72,488.00 97.33,488.00 97.95,488.00 98.56,488.00 99.17,488.00 99.79,488.00 100.40,488.00 101.01,488.00 101.63,488.00 102.24,488.00 102.85,488.00 103.47,488.00 104.08,488.00 104.69,488.00 105.31,488.00 105.92,488.00 106.53,488.00 107.15,488.00 107.76,488.00 108.37,488.00 108.99,488.00 109.60,488.00 110.21,488.00 110.83,488.00 111.44,488.00 112.05,488.00 112.67,488.00 113.28,488.00 113.89,488.00 114.51,488.00 115.12,488.00 115.73,488.00 116.35,488.00 116.96,488.00 117.57,488.00 118.19,488.00 118.80,488.00 119.41,488.00 120.03,488.00 120.64,488.00 121.25,488.00 121.87,488.00 122.48,488.00 123.09,488.00 123.71,488.00 124.32,488.00 124.93,488.00 125.55,488.00 126.16,488.00 126.77,488.00 127.39,488.00 128.00,488.00 128.61,488.00 129.23,488.00 129.84,488.00 130.45,488.00 131.07,488.00 131.68,488.00 132.29,488.00 132.91,488.00 133.52,488.00 134.13,488.00 134.75,488.00 135.36,488.00 135.97,488.00 136.59,488.00 137.20,488.00 137.81,488.00 138.43,488.00 139.04,488.00 139.65,488.00 140.27,488.00 140.88,488.00 141.49,488.00 142.11,488.00 142.72,488.00 143.33,488.00 143.95,488.00 144.56,488.00 145.17,488.00 145.79,488.00 146.40,488.00 147.01,488.00 147.63,488.00 148.24,488.00 148.85,488.00 149.47,488.00 150.08,488.00 150.69,488.00 151.31,488.00 151.92,488.00 152.53,488.00 153.15,488.00 153.76,488.00 154.37,488.00 154.99,488.00 155.60,488.00 156.21,488.00 156.83,488.00 157.44,488.00 158.05,488.00 158.67,488.00 159.28,488.00 159.89,488.00 160.51,488.00 161.12,488.00 161.73,488.00 162.35,488.00 162.96,488.00 163.57,488.00 164.19,488.00 164.80,488.00 165.41,488.00 166.03,488.00 166.64,488.00 167.25,488.00 167.87,488.00 168.48,488.00 169.09,488.00 169.71,488.00 170.32,488.00 170.93,488.00 171.55,488.00 172.16,488.00 172.77,488.00 173.39,488.00 174.00,488.00 174.61,488.00 175.23,488.00 175.84,488.00 176.45,488.00 177.07,488.00 177.68,488.00 178.29,488.00 178.91,488.00 179.52,488.00 180.13,488.00 180.75,488.00 181.36,488.00 181.97,488.00 182.59,488.00 183.20,488.00 183.81,488.00 184.43,488.00 185.04,488.00 185.65,488.00 186.27,488.00 186.88,488.00 187.49,488.00 188.11,488.00 188.72,488.00 189.33,488.00 189.95,488.00 190.56,488.00 191.17,488.00 191.79,488.00 192.40,488.00 193.01,488.00 193.63,488.00 194.24,488.00 194.85,488.00 195.47,488.00 196.08,488.00 196.69,488.00 197.31,488.00 197.92,488.00 198.53,488.00 199.15,488.00 199.76,488.00 200.37,488.00 200.99,488.00 201.60,488.00 202.21,488.00 202.83,488.00 203.44,488.00 204.05,488.00 204.67,488.00 205.28,488.00 205.89,488.00 206.51,488.00 207.12,488.00 207.73,488.00 208.35,488.00 208.96,488.00 209.57,488.00 210.19,488.00 210.80,488.00 211.41,488.00 212.03,488.00 212.64,488.00 213.25,488.00 213.87,488.00 214.48,488.00 215.09,488.00 215.71,488.00 216.32,488.00 216.93,488.00 217.55,488.00 218.16,488.00 218.77,488.00 219.39,488.00 220.00,488.00 220.61,488.00 221.23,488.00 221.84,488.00 222.45,488.00 223.07,488.00 223.68,488.00 224.29,488.00 224.91,488.00 225.52,488.00 226.13,488.00 226.75,488.00 227.36,488.00 227.97,488.00 228.59,488.00 229.20,488.00 229.81,488.00 230.43,488.00 231.04,488.00 231.65,488.00 232.27,488.00 232.88,488.00 233.49,488.00 234.11,488.00 234.72,488.00 235.33,488.00 235.95,488.00 236.56,488.00 237.17,488.00 237.79,488.00 238.40,488.00 239.01,488.00 239.63,488.00 240.24,488.00 240.85,488.00 241.47,488.00 242.08,488.00 242.69,488.00 243.31,488.00 243.92,488.00 244.53,488.00 245.15,488.00 245.76,488.00 246.37,488.00 246.99,488.00 247.60,488.00 248.21,488.00 248.83,488.00 249.44,488.00 250.05,488.00 250.67,488.00 251.28,488.00 251.89,488.00 252.51,488.00 253.12,488.00 253.73,488.00 254.35,488.00 254.96,488.00 255.57,488.00 256.19,488.00 256.80,488.00 257.41,488.00 258.03,488.00 258.64,488.00 259.25,488.00 259.87,488.00 260.48,488.00 261.09,488.00 261.71,488.00 262.32,488.00 262.93,488.00 263.55,488.00 264.16,488.00 264.77,488.00 265.39,488.00 266.00,488.00 266.61,488.00 267.23,488.00 267.84,488.00 268.45,488.00 269.07,488.00 269.68,488.00 270.29,488.00 270.91,488.00 271.52,488.00 272.13,488.00 272.75,488.00 273.36,488.00 273.97,488.00 274.59,488.00 275.20,488.00 275.81,488.00 276.43,488.00 277.04,488.00 277.65,488.00 278.27,488.00 278.88,488.00 279.49,488.00 280.11,488.00 280.72,488.00 281.33,488.00 281.95,488.00 282.56,488.00 283.17,488.00 283.79,488.00 284.40,488.00 285.01,488.00 285.63,488.00 286.24,488.00 286.85,488.00 287.47,488.00 288.08,488.00 288.69,488.00 289.31,488.00 289.92,488.00 290.53,488.00 291.15,488.00 291.76,488.00 292.37,488.00 292.99,488.00 293.60,488.00 294.21,488.00 294.83,488.00 295.44,488.00 296.05,488.00 296.67,488.00 297.28,488.00 297.89,488.00 298.51,488.00 299.12,488.00 299.73,488.00 300.35,488.00 300.96,488.00 301.57,488.00 302.19,488.00 302.80,488.00 303.41,488.00 304.03,488.00 304.64,488.00 305.25,488.00 305.87,488.00 306.48,488.00 307.09,488.00 307.71,488.00 308.32,487.23 308.93,485.56 309.55,483.49 310.16,481.14 310.77,478.58 311.39,475.83 312.00,472.92 312.61,469.89 313.23,466.73 313.84,464.23 314.45,461.10 315.07,457.86 315.68,454.54 316.29,451.14 316.91,447.66 317.52,444.13 318.13,440.54 318.75,436.89 319.36,433.19 319.97,429.44 320.59,425.65 321.20,421.82 321.81,421.34 322.43,487.98 323.04,487.98 323.65,487.98 324.27,487.62 324.88,486.29 325.49,484.57 326.11,482.57 326.72,480.39 327.33,478.04 327.95,475.57 328.56,472.99 329.17,470.32 329.79,467.57 330.40,464.07 331.01,459.77 331.63,455.07 332.24,450.08 332.85,444.86 333.47,439.44 334.08,433.85 334.69,428.11 335.31,422.23 335.92,416.23 336.53,410.12 337.15,456.35 337.76,452.51 338.37,449.59 338.99,446.53 339.60,443.33 340.21,440.02 340.83,436.63 341.44,433.60 342.05,430.15 342.67,426.96 343.28,487.01 343.89,486.23 344.51,485.49 345.12,484.70 345.73,483.84 346.35,482.94 346.96,481.99 347.57,481.00 348.19,479.97 348.80,478.92 349.41,477.83 350.03,476.72 350.64,475.59 351.25,474.44 351.87,473.07 352.48,471.33 353.09,469.39 353.71,467.30 354.32,465.10 354.93,462.80 355.55,460.42 356.16,457.95 356.77,455.40 357.39,452.80 358.00,450.15 358.61,447.45 359.23,444.70 359.84,441.91 360.45,439.09 361.07,437.69 361.68,436.91 362.29,434.80 362.91,432.07 363.52,434.26 364.13,435.07 364.75,441.04 365.36,446.26 365.97,454.22 366.59,459.87 367.20,463.94 367.81,466.92 368.43,469.14 369.04,470.82 369.65,472.11 370.27,473.11 370.88,473.88 371.49,474.49 372.11,474.97 372.72,475.35 373.33,475.65 373.95,475.89 374.56,476.08 375.17,476.24 375.79,476.36 376.40,476.46 377.01,476.54 377.63,476.60 378.24,476.66 378.85,476.70 379.47,476.73 380.08,476.76 380.69,476.67 381.31,476.35 381.92,475.70 382.53,474.81 383.15,473.73 383.76,472.53 384.37,471.26 384.99,469.93 385.60,468.58 386.21,467.22 386.83,465.85 387.44,464.48 388.05,463.13 388.67,461.78 389.28,460.46 389.89,459.15 390.51,457.87 391.12,456.61 391.73,455.38 392.35,454.17 392.96,453.00 393.57,451.86 394.19,450.75 394.80,449.68 395.41,448.65 396.03,447.64 396.64,446.68 397.25,445.77 397.87,444.86 398.48,443.91 399.09,442.91 399.71,441.84 400.32,440.71 400.93,439.53 401.55,438.32 402.16,437.07 402.77,435.79 403.39,434.48 404.00,433.15 404.61,431.49 405.23,429.86 405.84,428.00 406.45,425.97 407.07,423.77 407.68,421.31 408.29,417.83 408.91,413.93 409.52,409.66 410.13,405.09 410.75,400.76 411.36,399.70 411.97,397.84 412.59,395.00 413.20,392.07 413.81,388.92 414.43,385.21 415.04,381.26 415.65,376.85 416.27,372.16 416.88,367.23 417.49,362.06 418.11,356.68 418.72,350.93 419.33,345.63 419.95,339.02 420.56,332.65 421.17,326.19 421.79,319.60 422.40,343.82 423.01,344.47 423.63,352.72 424.24,432.89 424.85,452.89 425.47,459.43 426.08,462.88 426.69,464.78 427.31,465.79 427.92,466.22 428.53,466.26 429.15,465.99 429.76,465.54 430.37,464.95 430.99,464.25 431.60,463.49 432.21,462.69 432.83,461.86 433.44,461.01 434.05,460.15 434.67,459.28 435.28,458.40 435.89,457.53 436.51,456.66 437.12,455.80 437.73,454.95 438.35,454.11 438.96,453.29 439.57,452.89 440.19,452.91 440.80,452.72 441.41,452.40 442.03,452.03 442.64,451.66 443.25,451.30 443.87,450.96 444.48,450.65 445.09,450.37 445.71,450.12 446.32,449.90 446.93,449.72 447.55,449.56 448.16,449.44 448.77,449.33 449.39,448.89 450.00,448.02 450.61,446.83 451.23,445.20 451.84,443.14 452.45,440.77 453.07,437.99 453.68,434.58 454.29,430.83 454.91,426.79 455.52,422.47 456.13,417.98 456.75,413.36 457.36,408.62 457.97,403.78 458.59,398.86 459.20,393.85 459.81,388.74 460.43,383.57 461.04,378.32 461.65,372.96 462.27,367.37 462.88,361.62 463.49,355.73 464.11,349.70 464.72,345.66 465.33,340.53 465.95,334.62 466.56,328.44 467.17,322.10 467.79,315.63 468.40,321.50 469.01,329.83 469.63,328.24 470.24,324.17 470.85,319.26 471.47,314.03 472.08,308.66 472.69,303.86 473.31,298.85 473.92,414.55 474.53,390.85 475.15,387.15 475.76,386.42 476.37,386.35 476.99,386.41 477.60,386.51 478.21,386.74 478.83,387.11 479.44,387.61 480.05,388.24 480.67,389.00 481.28,389.88 481.89,390.87 482.51,391.96 483.12,393.14 483.73,394.40 484.35,395.73 484.96,397.12 485.57,398.56 486.19,400.04 486.80,401.79 487.41,403.26 488.03,404.79 488.64,406.35 489.25,407.93 489.87,409.51 490.48,411.10 491.09,412.69 491.71,414.27 492.32,415.86 492.93,417.44 493.55,419.01 494.16,420.57 494.77,421.80 495.39,422.72 496.00,423.54 496.61,424.25 497.23,424.86 497.84,425.36 498.45,425.72 499.07,425.91 499.68,425.98 500.29,425.98 500.91,425.91 501.52,425.79 502.13,428.34 502.75,431.75 503.36,434.62 503.97,436.59 504.59,437.61 505.20,437.90 505.81,437.68 506.43,437.13 507.04,436.43 507.65,435.73 508.27,435.01 508.88,434.27 509.49,433.50 510.11,432.72 510.72,431.90 511.33,430.95 511.95,429.81 512.56,428.28 513.17,426.14 513.79,423.64 514.40,420.91 515.01,417.98 515.63,414.85 516.24,411.53 516.85,408.02 517.47,404.33 518.08,400.47 518.69,396.46 519.31,392.37 519.92,388.15 520.53,383.76 521.15,379.22 521.76,374.53 522.37,369.69 522.99,364.70 523.60,359.57 524.21,354.29 524.83,348.87 525.44,343.29 526.05,337.58 526.67,331.72 527.28,325.76 527.89,319.73 528.51,313.66 529.12,307.55 529.73,301.39 530.35,295.15 530.96,288.65 531.57,281.98 532.19,275.18 532.80,268.30 533.41,261.35 534.03,254.36 534.64,249.29 535.25,242.47 535.87,284.70 536.48,292.07 537.09,284.93 537.71,277.30 538.32,269.55 538.93,261.73 539.55,334.65 540.16,327.39 540.77,327.08 541.39,327.45 542.00,327.15 542.61,326.15 543.23,324.50 543.84,322.23 544.45,319.46 545.07,316.32 545.68,312.78 546.29,308.89 546.91,304.52 547.52,299.90 548.13,295.00 548.75,289.93 549.36,286.78 549.97,281.58 550.59,276.29 551.20,270.92 551.81,354.74 552.43,345.40 553.04,341.09 553.65,337.73 554.27,334.25 554.88,330.27 555.49,326.24 556.11,322.30 556.72,318.40 557.33,314.35 557.95,310.13 558.56,305.77 559.17,301.27 559.79,346.46 560.40,347.29 561.01,352.80 561.63,357.90 562.24,361.85 562.85,364.59 563.47,366.15 564.08,366.72 564.69,366.70 565.31,366.22 565.92,365.32 566.53,364.02 567.15,362.37 567.76,360.38 568.37,357.79 568.99,354.63 569.60,351.12 570.21,347.33 570.83,343.26 571.44,338.90 572.05,334.25 572.67,329.28 573.28,323.86 573.89,317.93 574.51,311.50 575.12,304.59 575.73,337.94 576.35,334.86 576.96,333.21 577.57,331.43 578.19,329.32 578.80,326.83 579.41,323.95 580.03,320.70 580.64,317.20 581.25,313.37 581.87,309.14 582.48,304.61 583.09,299.82 583.71,294.81 584.32,289.58 584.93,284.16 585.55,278.54 586.16,272.74 586.77,278.42 587.39,339.39 588.00,350.56 588.61,352.87 589.23,351.76 589.84,348.78 590.45,344.67 591.07,339.83 591.68,334.47 592.29,328.71 592.91,322.71 593.52,316.37 594.13,309.76 594.75,303.00 595.36,296.11 595.97,376.04 596.59,371.35 597.20,368.40 597.81,364.56 598.43,359.97 599.04,354.80 599.65,349.06 600.27,342.80 600.88,336.10 601.49,329.01 602.11,321.64 602.72,314.10 603.33,306.45 603.95,298.67 604.56,290.79 605.17,282.79 605.79,274.68 606.40,266.46 607.01,346.42 607.63,357.87 608.24,366.12 608.85,370.08 609.47,371.32 610.08,370.79 610.69,368.06 611.31,364.04 611.92,359.60 612.53,355.23 613.15,350.72 613.76,346.10 614.37,341.46 614.99,339.06 615.60,403.95 616.21,397.76 616.83,404.44 617.44,407.39 618.05,407.54 618.67,406.46 619.28,404.52 619.89,401.87 620.51,398.64 621.12,394.91 621.73,390.57 622.35,385.63 622.96,380.32 623.57,374.76 624.19,368.94 624.80,362.87 625.41,356.58 626.03,350.09 626.64,343.18 627.25,335.73 627.87,327.88 628.48,319.76 629.09,311.44 629.71,302.92 630.32,294.25 630.93,285.42 631.55,276.45 632.16,267.35 632.77,258.20 633.39,252.22 634.00,251.63 634.61,242.50 635.23,232.94 635.84,223.25 636.45,213.36 637.07,203.34 637.68,193.13 638.29,182.54 638.91,171.59 639.52,160.36 640.13,148.92 640.75,137.27 641.36,129.92 641.97,183.15 642.59,231.65 643.20,224.56 643.81,218.63 644.43,211.19 645.04,202.62 645.65,193.20 646.27,183.20 646.88,172.90 647.49,162.66 648.11,152.23 648.72,141.65 649.33,130.90 649.95,120.04 650.56,109.05 651.17,97.93 651.79,86.69 652.40,75.32 653.01,63.80 653.63,52.00 654.24,40.00 654.85,128.38 655.47,130.03 656.08,129.47 656.69,126.31 657.31,121.76 657.92,119.53 658.53,118.85 659.15,111.86 659.76,103.75 660.37,97.40 660.99,154.36 661.60,302.69 662.21,340.10 662.83,349.05 663.44,348.87 664.05,345.84 664.67,341.12 665.28,335.43 665.89,329.10 666.51,322.90 667.12,318.12 667.73,313.12 668.35,369.10 668.96,394.03 669.57,388.09 670.19,385.25 670.80,382.66 671.41,379.90 672.03,376.95 672.64,373.81 673.25,370.51 673.87,367.06 674.48,363.50 675.09,359.84 675.71,356.12 676.32,352.40 676.93,348.67 677.55,344.89 678.16,341.08 678.77,337.23 679.39,333.34 680.00,329.42 680.61,325.47 681.23,321.49 681.84,317.46 682.45,313.42 683.07,309.35 683.68,305.27 684.29,301.18 684.91,297.07 685.52,292.95 686.13,288.82 686.75,284.67 687.36,322.88 687.97,335.60 688.59,333.41 689.20,330.06 689.81,326.11 690.43,321.75 691.04,316.97 691.65,311.63 692.27,306.26 692.88,300.48 693.49,294.50 694.11,288.44 694.72,282.31 695.33,276.12 695.95,269.90 696.56,263.63 697.17,257.32 697.79,250.99 698.40,244.67 699.01,238.73 699.63,232.72 700.24,226.67 700.85,220.50 701.47,214.07 702.08,207.55 702.69,200.93 703.31,194.23 703.92,187.45 704.53,180.58 705.15,173.63 705.76,166.61 706.37,159.52 706.99,152.35 707.60,151.76 708.21,143.23 708.83,135.99 709.44,308.70 710.05,317.71 710.67,323.48 711.28,325.78 711.89,326.62 712.51,326.88 713.12,326.99 713.73,326.81 714.35,326.33 714.96,325.77 715.57,325.18 716.19,323.15 716.80,323.46 717.41,322.77 718.03,321.77 718.64,320.61 719.25,319.34 719.87,317.92 720.48,316.40 721.09,314.77 721.71,313.04 722.32,311.13 722.93,336.15 723.55,387.19 724.16,392.72 724.77,394.84 725.39,396.06 726.00,396.85 726.61,397.52 727.23,398.11 727.84,398.57 728.45,398.98 729.07,399.35 729.68,399.68 730.29,399.98 730.91,400.12 731.52,400.22 732.13,400.31 732.75,400.37 733.36,400.41 733.97,400.39 734.59,400.30 735.20,400.21 735.81,400.12 736.43,400.03 737.04,399.94 737.65,399.85 738.27,399.76 738.88,399.67 739.49,399.85 740.11,400.13 740.72,400.49 741.33,400.93 741.95,401.44 742.56,402.01 743.17,402.70 743.79,403.54 744.40,404.45 745.01,405.46 745.63,406.56 746.24,407.71 746.85,408.92 747.47,410.15 748.08,411.41 748.69,412.59 749.31,412.95 749.92,412.43 750.53,411.34 751.15,409.80 751.76,407.85 752.37,405.64 752.99,403.51 753.60,401.30 754.21,398.95 754.83,396.63 755.44,394.31 756.05,391.99 756.67,389.67 757.28,387.34 757.89,385.01 758.51,382.68 759.12,380.37 759.73,378.05 760.35,375.75 760.96,373.46 761.57,371.17 762.19,368.91 762.80,366.65 763.41,364.41 764.03,362.18 764.64,359.97 765.25,357.78 765.87,355.60 766.48,353.44 767.09,351.16 767.71,348.19 768.32,345.06 768.93,341.83 769.55,338.47 770.16,335.02 770.77,331.53 771.39,327.95 772.00,327.24 772.61,324.10 773.23,320.94 773.84,317.87 774.45,352.50 775.07,358.05 775.68,361.74 776.29,362.74 776.91,362.91 777.52,362.81 778.13,362.68 778.75,362.70 779.36,362.87 779.97,363.16 780.59,363.58 781.20,364.19 781.81,364.70 782.43,365.09 783.04,365.42 783.65,365.72 784.27,365.89 784.88,365.93 785.49,365.84 786.11,365.75 786.72,365.74 787.33,365.82 787.95,366.03 788.56,366.37 789.17,366.76 789.79,367.04 790.40,367.39 791.01,368.45 791.63,369.34 792.24,370.33 792.85,370.79 793.47,371.84 794.08,372.56 794.69,372.65 795.31,371.95 795.92,372.28 796.53,372.04 797.15,371.47 797.76,370.74 798.37,369.96 798.99,369.14 799.60,368.49 800.21,367.38 800.83,364.72 801.44,361.39 802.05,357.72 802.67,354.65 803.28,350.44 803.89,389.57 804.51,388.40 805.12,391.78 805.73,395.58 806.35,399.18 806.96,402.44 807.57,405.33 808.19,407.82 808.80,409.97 809.41,412.00 810.03,413.65 810.64,415.00 811.25,416.09 811.87,416.93 812.48,417.60 813.09,418.01 813.71,418.27 814.32,418.54 814.93,418.78 815.55,418.89 816.16,418.63 816.77,418.31 817.39,417.91 818.00,417.42" fill="none" stroke="#1b6ca8" stroke-width="3"/>
<polyline points="82.00,488.00 82.61,488.00 83.23,488.00 83.84,488.00 84.45,488.00 85.07,488.00 85.68,488.00 86.29,488.00 86.91,488.00 87.52,488.00 88.13,488.00 88.75,488.00 89.36,488.00 89.97,488.00 90.59,488.00 91.20,488.00 91.81,488.00 92.43,488.00 93.04,488.00 93.65,488.00 94.27,488.00 94.88,488.00 95.49,488.00 96.11,488.00 96.72,488.00 97.33,488.00 97.95,488.00 98.56,488.00 99.17,488.00 99.79,488.00 100.40,488.00 101.01,488.00 101.63,488.00 102.24,488.00 102.85,488.00 103.47,488.00 104.08,488.00 104.69,488.00 105.31,488.00 105.92,488.00 106.53,488.00 107.15,488.00 107.76,488.00 108.37,488.00 108.99,488.00 109.60,488.00 110.21,488.00 110.83,488.00 111.44,488.00 112.05,488.00 112.67,488.00 113.28,488.00 113.89,488.00 114.51,488.00 115.12,488.00 115.73,488.00 116.35,488.00 116.96,488.00 117.57,488.00 118.19,488.00 118.80,488.00 119.41,488.00 120.03,488.00 120.64,488.00 121.25,488.00 121.87,488.00 122.48,488.00 123.09,488.00 123.71,488.00 124.32,488.00 124.93,488.00 125.55,488.00 126.16,488.00 126.77,488.00 127.39,488.00 128.00,488.00 128.61,488.00 129.23,488.00 129.84,488.00 130.45,488.00 131.07,488.00 131.68,488.00 132.29,488.00 132.91,488.00 133.52,488.00 134.13,488.00 134.75,488.00 135.36,488.00 135.97,488.00 136.59,488.00 137.20,488.00 137.81,488.00 138.43,488.00 139.04,488.00 139.65,488.00 140.27,488.00 140.88,488.00 141.49,488.00 142.11,488.00 142.72,488.00 143.33,488.00 143.95,488.00 144.56,488.00 145.17,488.00 145.79,488.00 146.40,488.00 147.01,488.00 147.63,488.00 148.24,488.00 148.85,488.00 149.47,488.00 150.08,488.00 150.69,488.00 151.31,488.00 151.92,488.00 152.53,488.00 153.15,488.00 153.76,488.00 154.37,488.00 154.99,488.00 155.60,488.00 156.21,488.00 156.83,488.00 157.44,488.00 158.05,488.00 158.67,488.00 159.28,488.00 159.89,488.00 160.51,488.00 161.12,488.00 161.73,488.00 162.35,488.00 162.96,488.00 163.57,488.00 164.19,488.00 164.80,488.00 165.41,488.00 166.03,488.00 166.64,488.00 167.25,488.00 167.87,488.00 168.48,488.00 169.09,488.00 169.71,488.00 170.32,488.00 170.93,488.00 171.55,488.00 172.16,488.00 172.77,488.00 173.39,488.00 174.00,488.00 174.61,488.00 175.23,488.00 175.84,488.00 176.45,488.00 177.07,488.00 177.68,488.00 178.29,488.00 178.91,488.00 179.52,488.00 180.13,488.00 180.75,488.00 181.36,488.00 181.97,488.00 182.59,488.00 183.20,488.00 183.81,488.00 184.43,488.00 185.04,488.00 185.65,488.00 186.27,488.00 186.88,488.00 187.49,488.00 188.11,488.00 188.72,488.00 189.33,488.00 189.95,488.00 190.56,488.00 191.17,488.00 191.79,488.00 192.40,488.00 193.01,488.00 193.63,488.00 194.24,488.00 194.85,488.00 195.47,488.00 196.08,488.00 196.69,488.00 197.31,488.00 197.92,488.00 198.53,488.00 199.15,488.00 199.76,488.00 200.37,488.00 200.99,488.00 201.60,488.00 202.21,488.00 202.83,488.00 203.44,488.00 204.05,488.00 204.67,488.00 205.28,488.00 205.89,488.00 206.51,488.00 207.12,488.00 207.73,488.00 208.35,488.00 208.96,488.00 209.57,488.00 210.19,488.00 210.80,488.00 211.41,488.00 212.03,488.00 212.64,488.00 213.25,488.00 213.87,488.00 214.48,488.00 215.09,488.00 215.71,488.00 216.32,488.00 216.93,488.00 217.55,488.00 218.16,488.00 218.77,488.00 219.39,488.00 220.00,488.00 220.61,488.00 221.23,488.00 221.84,488.00 222.45,488.00 223.07,488.00 223.68,488.00 224.29,488.00 224.91,488.00 225.52,488.00 226.13,488.00 226.75,488.00 227.36,488.00 227.97,488.00 228.59,488.00 229.20,488.00 229.81,488.00 230.43,488.00 231.04,488.00 231.65,488.00 232.27,488.00 232.88,488.00 233.49,488.00 234.11,488.00 234.72,488.00 235.33,488.00 235.95,488.00 236.56,488.00 237.17,488.00 237.79,488.00 238.40,488.00 239.01,488.00 239.63,488.00 240.24,488.00 240.85,488.00 241.47,488.00 242.08,488.00 242.69,488.00 243.31,488.00 243.92,488.00 244.53,488.00 245.15,488.00 245.76,488.00 246.37,488.00 246.99,488.00 247.60,488.00 248.21,488.00 248.83,488.00 249.44,488.00 250.05,488.00 250.67,488.00 251.28,488.00 251.89,488.00 252.51,488.00 253.12,488.00 253.73,488.00 254.35,488.00 254.96,488.00 255.57,488.00 256.19,488.00 256.80,488.00 257.41,488.00 258.03,488.00 258.64,488.00 259.25,488.00 259.87,488.00 260.48,488.00 261.09,488.00 261.71,488.00 262.32,488.00 262.93,488.00 263.55,488.00 264.16,488.00 264.77,488.00 265.39,488.00 266.00,488.00 266.61,488.00 267.23,488.00 267.84,488.00 268.45,488.00 269.07,488.00 269.68,488.00 270.29,488.00 270.91,488.00 271.52,488.00 272.13,488.00 272.75,488.00 273.36,488.00 273.97,488.00 274.59,488.00 275.20,488.00 275.81,488.00 276.43,488.00 277.04,488.00 277.65,488.00 278.27,488.00 278.88,488.00 279.49,488.00 280.11,488.00 280.72,488.00 281.33,488.00 281.95,488.00 282.56,488.00 283.17,488.00 283.79,488.00 284.40,488.00 285.01,488.00 285.63,488.00 286.24,488.00 286.85,488.00 287.47,488.00 288.08,488.00 288.69,488.00 289.31,488.00 289.92,488.00 290.53,488.00 291.15,488.00 291.76,488.00 292.37,488.00 292.99,488.00 293.60,488.00 294.21,488.00 294.83,488.00 295.44,488.00 296.05,488.00 296.67,488.00 297.28,488.00 297.89,488.00 298.51,488.00 299.12,488.00 299.73,488.00 300.35,488.00 300.96,488.00 301.57,488.00 302.19,488.00 302.80,488.00 303.41,488.00 304.03,488.00 304.64,488.00 305.25,488.00 305.87,488.00 306.48,488.00 307.09,488.00 307.71,488.00 308.32,487.64 308.93,486.29 309.55,484.39 310.16,482.15 310.77,479.68 311.39,477.00 312.00,474.16 312.61,471.18 313.23,468.08 313.84,464.89 314.45,462.35 315.07,459.21 315.68,455.93 316.29,452.56 316.91,449.12 317.52,445.62 318.13,442.05 318.75,438.42 319.36,434.75 319.97,431.02 320.59,427.25 321.20,423.44 321.81,422.22 322.43,466.74 323.04,486.21 323.65,487.88 324.27,487.91 324.88,486.92 325.49,485.36 326.11,483.48 326.72,481.37 327.33,479.10 327.95,476.68 328.56,474.15 329.17,471.52 329.79,468.81 330.40,465.70 331.01,461.67 331.63,457.14 332.24,452.27 332.85,447.14 333.47,441.80 334.08,436.28 334.69,430.60 335.31,424.78 335.92,418.84 336.53,412.77 337.15,445.58 337.76,452.78 338.37,450.67 338.99,447.78 339.60,444.67 340.21,441.42 340.83,438.07 341.44,434.81 342.05,431.59 342.67,428.37 343.28,480.88 343.89,486.12 344.51,485.90 345.12,485.17 345.73,484.34 346.35,483.46 346.96,482.53 347.57,481.55 348.19,480.54 348.80,479.50 349.41,478.43 350.03,477.33 350.64,476.21 351.25,475.07 351.87,473.82 352.48,472.21 353.09,470.35 353.71,468.33 354.32,466.19 354.93,463.93 355.55,461.59 356.16,459.16 356.77,456.65 357.39,454.07 358.00,451.45 358.61,448.77 359.23,446.05 359.84,443.29 360.45,440.48 361.07,440.86 361.68,441.05 362.29,437.43 362.91,434.71 363.52,441.86 364.13,454.73 364.75,462.20 365.36,476.62 365.97,488.00 366.59,488.00 367.20,488.00 367.81,488.00 368.43,488.00 369.04,488.00 369.65,488.00 370.27,488.00 370.88,488.00 371.49,488.00 372.11,488.00 372.72,488.00 373.33,488.00 373.95,488.00 374.56,488.00 375.17,488.00 375.79,488.00 376.40,488.00 377.01,488.00 377.63,488.00 378.24,488.00 378.85,488.00 379.47,488.00 380.08,487.92 380.69,486.88 381.31,485.03 381.92,482.91 382.53,480.96 383.15,479.19 383.76,477.56 384.37,476.03 384.99,474.55 385.60,473.11 386.21,471.69 386.83,470.29 387.44,468.92 388.05,467.55 388.67,466.21 389.28,464.88 389.89,463.58 390.51,462.30 391.12,461.04 391.73,459.81 392.35,458.61 392.96,457.44 393.57,456.30 394.19,455.20 394.80,454.13 395.41,453.09 396.03,452.10 396.64,451.14 397.25,450.22 397.87,449.34 398.48,448.40 399.09,447.21 399.71,445.96 400.32,444.71 400.93,443.44 401.55,442.16 402.16,440.85 402.77,439.53 403.39,438.19 404.00,436.82 404.61,435.81 405.23,434.08 405.84,432.18 406.45,430.16 407.07,428.02 407.68,425.72 408.29,422.83 408.91,419.25 409.52,415.18 410.13,411.19 410.75,408.60 411.36,407.84 411.97,405.11 412.59,401.95 413.20,398.26 413.81,394.69 414.43,391.16 415.04,387.29 415.65,383.01 416.27,378.37 416.88,373.46 417.49,368.32 418.11,362.96 418.72,357.36 419.33,351.05 419.95,345.32 420.56,339.11 421.17,332.67 421.79,326.09 422.40,361.30 423.01,352.05 423.63,487.73 424.24,485.64 424.85,483.47 425.47,482.14 426.08,481.24 426.69,480.50 427.31,479.79 427.92,479.07 428.53,478.31 429.15,477.52 429.76,476.69 430.37,475.82 430.99,474.93 431.60,474.02 432.21,473.11 432.83,472.19 433.44,471.27 434.05,470.35 434.67,469.43 435.28,468.53 435.89,467.63 436.51,466.74 437.12,465.87 437.73,465.02 438.35,464.19 438.96,463.38 439.57,465.34 440.19,464.93 440.80,464.48 441.41,464.06 442.03,463.68 442.64,463.32 443.25,463.00 443.87,462.71 444.48,462.45 445.09,462.22 445.71,462.02 446.32,461.86 446.93,461.73 447.55,461.63 448.16,461.56 448.77,461.36 449.39,460.35 450.00,459.00 450.61,457.17 451.23,454.52 451.84,451.63 452.45,448.57 453.07,445.33 453.68,441.76 454.29,437.83 454.91,433.59 455.52,429.20 456.13,424.71 456.75,420.09 457.36,415.37 457.97,410.54 458.59,405.61 459.20,400.60 459.81,395.50 460.43,390.33 461.04,385.08 461.65,379.64 462.27,373.94 462.88,368.12 463.49,362.21 464.11,356.09 464.72,353.54 465.33,347.36 465.95,341.17 466.56,334.86 467.17,328.45 467.79,321.93 468.40,352.90 469.01,343.96 469.63,337.46 470.24,331.67 470.85,326.10 471.47,320.58 472.08,315.06 472.69,311.18 473.31,305.20 473.92,301.38 474.53,385.37 475.15,393.37 475.76,394.90 476.37,395.11 476.99,395.04 477.60,395.05 478.21,395.21 478.83,395.50 479.44,395.93 480.05,396.49 480.67,397.16 481.28,397.95 481.89,398.84 482.51,399.83 483.12,400.90 483.73,402.05 484.35,403.26 484.96,404.53 485.57,405.85 486.19,407.21 486.80,408.60 487.41,410.13 488.03,411.58 488.64,413.04 489.25,414.50 489.87,415.98 490.48,417.46 491.09,418.94 491.71,420.43 492.32,421.92 492.93,423.40 493.55,424.89 494.16,426.37 494.77,427.76 495.39,428.81 496.00,429.69 496.61,430.43 497.23,431.05 497.84,431.55 498.45,431.93 499.07,432.15 499.68,432.27 500.29,432.29 500.91,432.23 501.52,432.11 502.13,432.57 502.75,434.37 503.36,436.54 503.97,438.48 504.59,439.89 505.20,440.71 505.81,441.02 506.43,440.93 507.04,440.56 507.65,440.04 508.27,439.45 508.88,438.81 509.49,438.14 510.11,437.43 510.72,436.64 511.33,435.68 511.95,434.61 512.56,433.30 513.17,431.57 513.79,429.34 514.40,426.75 515.01,423.88 515.63,420.78 516.24,417.48 516.85,413.98 517.47,410.30 518.08,406.46 518.69,402.45 519.31,398.30 519.92,394.06 520.53,389.68 521.15,385.14 521.76,380.46 522.37,375.62 522.99,370.64 523.60,365.51 524.21,360.22 524.83,354.79 525.44,349.22 526.05,343.50 526.67,337.63 527.28,331.66 527.89,325.63 528.51,319.55 529.12,313.42 529.73,307.26 530.35,300.88 530.96,294.20 531.57,287.42 532.19,280.54 532.80,273.58 533.41,266.57 534.03,259.50 534.64,254.83 535.25,247.52 535.87,315.02 536.48,298.01 537.09,290.08 537.71,282.41 538.32,274.65 538.93,266.81 539.55,294.47 540.16,317.21 540.77,323.68 541.39,326.10 542.00,326.82 542.61,326.45 543.23,325.36 543.84,323.56 544.45,321.17 545.07,318.18 545.68,314.84 546.29,311.15 546.91,307.07 547.52,302.65 548.13,297.92 548.75,293.01 549.36,289.85 549.97,284.81 550.59,279.61 551.20,274.29 551.81,333.38 552.43,343.81 553.04,342.98 553.65,340.54 554.27,337.66 554.88,334.46 555.49,331.02 556.11,327.53 556.72,323.69 557.33,319.52 557.95,315.21 558.56,310.77 559.17,306.22 559.79,307.38 560.40,355.44 561.01,364.66 561.63,369.44 562.24,372.43 562.85,374.23 563.47,374.84 564.08,374.90 564.69,374.55 565.31,373.78 565.92,372.61 566.53,371.08 567.15,369.24 567.76,367.10 568.37,364.57 568.99,361.51 569.60,358.08 570.21,354.32 570.83,350.26 571.44,345.90 572.05,341.22 572.67,336.21 573.28,330.62 573.89,324.56 574.51,317.99 575.12,310.98 575.73,339.90 576.35,340.88 576.96,339.61 577.57,337.82 578.19,335.64 578.80,333.07 579.41,330.10 580.03,326.79 580.64,323.25 581.25,319.18 581.87,314.80 582.48,310.18 583.09,305.34 583.71,300.29 584.32,295.03 584.93,289.58 585.55,283.95 586.16,278.14 586.77,396.71 587.39,371.88 588.00,367.63 588.61,365.81 589.23,362.01 589.84,357.55 590.45,352.61 591.07,347.25 591.68,341.55 592.29,335.55 592.91,329.26 593.52,322.67 594.13,315.96 594.75,309.17 595.36,302.28 595.97,361.16 596.59,374.11 597.20,373.04 597.81,369.74 598.43,365.38 599.04,360.25 599.65,354.49 600.27,348.20 600.88,341.49 601.49,334.43 602.11,327.08 602.72,319.54 603.33,311.90 603.95,304.14 604.56,296.27 605.17,288.27 605.79,280.17 606.40,271.97 607.01,333.52 607.63,356.21 608.24,366.30 608.85,371.45 609.47,373.63 610.08,373.84 610.69,372.38 611.31,369.34 611.92,365.63 612.53,361.58 613.15,357.34 613.76,352.87 614.37,348.20 614.99,345.89 615.60,364.03 616.21,405.22 616.83,413.83 617.44,416.33 618.05,416.50 618.67,415.29 619.28,413.05 619.89,410.08 620.51,406.53 621.12,402.41 621.73,397.48 622.35,392.16 622.96,386.61 623.57,380.90 624.19,374.96 624.80,368.79 625.41,362.41 626.03,355.85 626.64,348.84 627.25,341.30 627.87,333.41 628.48,325.27 629.09,316.94 629.71,308.42 630.32,299.74 630.93,290.90 631.55,281.92 632.16,272.80 632.77,263.57 633.39,255.71 634.00,253.32 634.61,247.76 635.23,238.48 635.84,228.79 636.45,218.90 637.07,208.86 637.68,198.68 638.29,188.11 638.91,177.13 639.52,165.89 640.13,154.44 640.75,142.79 641.36,133.18 641.97,128.78 642.59,223.39 643.20,230.32 643.81,224.74 644.43,217.01 645.04,208.16 645.65,198.52 646.27,188.44 646.88,178.10 647.49,167.74 648.11,157.31 648.72,146.73 649.33,136.01 649.95,125.15 650.56,114.17 651.17,103.05 651.79,91.82 652.40,80.46 653.01,68.85 653.63,56.99 654.24,44.96 654.85,132.20 655.47,138.41 656.08,135.81 656.69,131.54 657.31,127.42 657.92,137.13 658.53,127.80 659.15,117.50 659.76,108.75 660.37,102.07 660.99,233.13 661.60,333.97 662.21,358.38 662.83,356.24 663.44,354.34 664.05,350.93 664.67,346.34 665.28,340.78 665.89,334.49 666.51,327.90 667.12,322.01 667.73,316.70 668.35,339.84 668.96,367.80 669.57,387.55 670.19,388.62 670.80,386.80 671.41,384.18 672.03,381.20 672.64,378.00 673.25,374.63 673.87,371.09 674.48,367.39 675.09,363.67 675.71,359.94 676.32,356.21 676.93,352.46 677.55,348.66 678.16,344.81 678.77,340.92 679.39,336.99 680.00,333.01 680.61,328.99 681.23,324.86 681.84,320.72 682.45,316.62 683.07,312.51 683.68,308.41 684.29,304.30 684.91,300.18 685.52,296.04 686.13,291.90 686.75,287.74 687.36,349.43 687.97,338.15 688.59,335.69 689.20,332.50 689.81,328.62 690.43,324.34 691.04,319.74 691.65,314.80 692.27,309.67 692.88,304.31 693.49,298.65 694.11,292.78 694.72,286.77 695.33,280.66 695.95,274.47 696.56,268.23 697.17,261.93 697.79,255.60 698.40,249.24 699.01,243.18 699.63,237.16 700.24,231.12 700.85,225.02 701.47,218.77 702.08,212.36 702.69,205.83 703.31,199.18 703.92,192.44 704.53,185.61 705.15,178.69 705.76,171.70 706.37,164.62 706.99,157.47 707.60,153.58 708.21,148.32 708.83,141.14 709.44,290.79 710.05,322.79 710.67,329.21 711.28,331.38 711.89,332.20 712.51,332.53 713.12,332.72 713.73,332.17 714.35,331.73 714.96,331.26 715.57,330.74 716.19,318.60 716.80,329.73 717.41,328.49 718.03,327.50 718.64,326.36 719.25,325.20 719.87,323.70 720.48,322.20 721.09,320.63 721.71,318.95 722.32,317.00 722.93,423.65 723.55,404.16 724.16,402.12 724.77,402.25 725.39,403.05 726.00,403.86 726.61,404.58 727.23,405.22 727.84,405.77 728.45,406.24 729.07,406.65 729.68,407.03 730.29,407.37 730.91,407.65 731.52,407.87 732.13,408.06 732.75,408.21 733.36,408.33 733.97,408.39 734.59,408.35 735.20,408.33 735.81,408.30 736.43,408.27 737.04,408.24 737.65,408.20 738.27,408.16 738.88,408.12 739.49,408.15 740.11,408.34 740.72,408.64 741.33,409.02 741.95,409.48 742.56,410.02 743.17,410.66 743.79,411.40 744.40,412.23 745.01,413.14 745.63,414.11 746.24,415.15 746.85,416.23 747.47,417.35 748.08,418.49 748.69,419.34 749.31,419.20 749.92,418.52 750.53,417.50 751.15,416.11 751.76,414.29 752.37,412.08 752.99,409.82 753.60,407.64 754.21,405.43 754.83,403.11 755.44,400.75 756.05,398.38 756.67,396.01 757.28,393.64 757.89,391.28 758.51,388.92 759.12,386.56 759.73,384.21 760.35,381.87 760.96,379.54 761.57,377.22 762.19,374.91 762.80,372.62 763.41,370.34 764.03,368.07 764.64,365.81 765.25,363.57 765.87,361.34 766.48,359.12 767.09,356.89 767.71,354.31 768.32,351.36 768.93,348.19 769.55,344.82 770.16,341.29 770.77,337.44 771.39,333.58 772.00,332.93 772.61,329.68 773.23,326.50 773.84,323.41 774.45,361.17 775.07,363.49 775.68,366.13 776.29,367.52 776.91,367.83 777.52,367.50 778.13,367.27 778.75,367.18 779.36,367.24 779.97,367.44 780.59,367.77 781.20,368.25 781.81,368.71 782.43,369.08 783.04,369.38 783.65,369.66 784.27,369.85 784.88,369.91 785.49,369.86 786.11,369.71 786.72,369.54 787.33,369.43 787.95,369.42 788.56,369.52 789.17,369.55 789.79,369.60 790.40,369.71 791.01,369.90 791.63,370.22 792.24,370.73 792.85,371.28 793.47,371.83 794.08,372.46 794.69,372.82 795.31,372.64 795.92,372.39 796.53,372.12 797.15,371.40 797.76,370.73 798.37,370.06 798.99,369.37 799.60,368.67 800.21,368.00 800.83,366.70 801.44,364.57 802.05,364.04 802.67,359.57 803.28,355.46 803.89,374.47 804.51,388.63 805.12,394.45 805.73,398.75 806.35,402.47 806.96,405.76 807.57,408.66 808.19,411.16 808.80,413.42 809.41,415.46 810.03,417.12 810.64,418.51 811.25,419.64 811.87,420.58 812.48,421.35 813.09,422.01 813.71,422.36 814.32,422.67 814.93,422.94 815.55,423.18 816.16,423.23 816.77,423.12 817.39,422.89 818.00,422.55" fill="none" stroke="#d1495b" stroke-width="3"/>
<polyline points="82.00,488.00 82.61,488.00 82.61,488.00 83.23,488.00 83.23,488.00 83.84,488.00 83.84,488.00 84.45,488.00 84.45,488.00 85.07,488.00 85.07,488.00 85.68,488.00 85.68,488.00 86.29,488.00 86.29,488.00 86.91,488.00 86.91,488.00 87.52,488.00 87.52,488.00 88.13,488.00 88.13,488.00 88.75,488.00 88.75,488.00 89.36,488.00 89.36,488.00 89.97,488.00 89.97,488.00 90.59,488.00 90.59,488.00 91.20,488.00 91.20,488.00 91.81,488.00 91.81,488.00 92.43,488.00 92.43,488.00 93.04,488.00 93.04,488.00 93.65,488.00 93.65,488.00 94.27,488.00 94.27,488.00 94.88,488.00 94.88,488.00 95.49,488.00 95.49,488.00 96.11,488.00 96.11,488.00 96.72,488.00 96.72,488.00 97.33,488.00 97.33,488.00 97.95,488.00 97.95,488.00 98.56,488.00 98.56,488.00 99.17,488.00 99.17,488.00 99.79,488.00 99.79,488.00 100.40,488.00 100.40,488.00 101.01,488.00 101.01,488.00 101.63,488.00 101.63,488.00 102.24,488.00 102.24,488.00 102.85,488.00 102.85,488.00 103.47,488.00 103.47,488.00 104.08,488.00 104.08,488.00 104.69,488.00 104.69,488.00 105.31,488.00 105.31,488.00 105.92,488.00 105.92,488.00 106.53,488.00 106.53,488.00 107.15,488.00 107.15,488.00 107.76,488.00 107.76,488.00 108.37,488.00 108.37,488.00 108.99,488.00 108.99,488.00 109.60,488.00 109.60,488.00 110.21,488.00 110.21,488.00 110.83,488.00 110.83,488.00 111.44,488.00 111.44,488.00 112.05,488.00 112.05,488.00 112.67,488.00 112.67,488.00 113.28,488.00 113.28,488.00 113.89,488.00 113.89,488.00 114.51,488.00 114.51,488.00 115.12,488.00 115.12,488.00 115.73,488.00 115.73,488.00 116.35,488.00 116.35,488.00 116.96,488.00 116.96,488.00 117.57,488.00 117.57,488.00 118.19,488.00 118.19,488.00 118.80,488.00 118.80,488.00 119.41,488.00 119.41,488.00 120.03,488.00 120.03,488.00 120.64,488.00 120.64,488.00 121.25,488.00 121.25,488.00 121.87,488.00 121.87,488.00 122.48,488.00 122.48,488.00 123.09,488.00 123.09,488.00 123.71,488.00 123.71,488.00 124.32,488.00 124.32,488.00 124.93,488.00 124.93,488.00 125.55,488.00 125.55,488.00 126.16,488.00 126.16,488.00 126.77,488.00 126.77,488.00 127.39,488.00 127.39,488.00 128.00,488.00 128.00,488.00 128.61,488.00 128.61,488.00 129.23,488.00 129.23,488.00 129.84,488.00 129.84,488.00 130.45,488.00 130.45,488.00 131.07,488.00 131.07,488.00 131.68,488.00 131.68,488.00 132.29,488.00 132.29,488.00 132.91,488.00 132.91,488.00 133.52,488.00 133.52,488.00 134.13,488.00 134.13,488.00 134.75,488.00 134.75,488.00 135.36,488.00 135.36,488.00 135.97,488.00 135.97,488.00 136.59,488.00 136.59,488.00 137.20,488.00 137.20,488.00 137.81,488.00 137.81,488.00 138.43,488.00 138.43,488.00 139.04,488.00 139.04,488.00 139.65,488.00 139.65,488.00 140.27,488.00 140.27,488.00 140.88,488.00 140.88,488.00 141.49,488.00 141.49,488.00 142.11,488.00 142.11,488.00 142.72,488.00 142.72,488.00 143.33,488.00 143.33,488.00 143.95,488.00 143.95,488.00 144.56,488.00 144.56,488.00 145.17,488.00 145.17,488.00 145.79,488.00 145.79,488.00 146.40,488.00 146.40,488.00 147.01,488.00 147.01,488.00 147.63,488.00 147.63,488.00 148.24,488.00 148.24,488.00 148.85,488.00 148.85,488.00 149.47,488.00 149.47,488.00 150.08,488.00 150.08,488.00 150.69,488.00 150.69,488.00 151.31,488.00 151.31,488.00 151.92,488.00 151.92,488.00 152.53,488.00 152.53,488.00 153.15,488.00 153.15,488.00 153.76,488.00 153.76,488.00 154.37,488.00 154.37,488.00 154.99,488.00 154.99,488.00 155.60,488.00 155.60,488.00 156.21,488.00 156.21,488.00 156.83,488.00 156.83,488.00 157.44,488.00 157.44,488.00 158.05,488.00 158.05,488.00 158.67,488.00 158.67,488.00 159.28,488.00 159.28,488.00 159.89,488.00 159.89,488.00 160.51,488.00 160.51,488.00 161.12,488.00 161.12,488.00 161.73,488.00 161.73,488.00 162.35,488.00 162.35,488.00 162.96,488.00 162.96,488.00 163.57,488.00 163.57,488.00 164.19,488.00 164.19,488.00 164.80,488.00 164.80,488.00 165.41,488.00 165.41,488.00 166.03,488.00 166.03,488.00 166.64,488.00 166.64,488.00 167.25,488.00 167.25,488.00 167.87,488.00 167.87,488.00 168.48,488.00 168.48,488.00 169.09,488.00 169.09,488.00 169.71,488.00 169.71,488.00 170.32,488.00 170.32,488.00 170.93,488.00 170.93,488.00 171.55,488.00 171.55,488.00 172.16,488.00 172.16,488.00 172.77,488.00 172.77,488.00 173.39,488.00 173.39,488.00 174.00,488.00 174.00,488.00 174.61,488.00 174.61,488.00 175.23,488.00 175.23,488.00 175.84,488.00 175.84,488.00 176.45,488.00 176.45,488.00 177.07,488.00 177.07,488.00 177.68,488.00 177.68,488.00 178.29,488.00 178.29,488.00 178.91,488.00 178.91,488.00 179.52,488.00 179.52,488.00 180.13,488.00 180.13,488.00 180.75,488.00 180.75,488.00 181.36,488.00 181.36,488.00 181.97,488.00 181.97,488.00 182.59,488.00 182.59,488.00 183.20,488.00 183.20,488.00 183.81,488.00 183.81,488.00 184.43,488.00 184.43,488.00 185.04,488.00 185.04,488.00 185.65,488.00 185.65,488.00 186.27,488.00 186.27,488.00 186.88,488.00 186.88,488.00 187.49,488.00 187.49,488.00 188.11,488.00 188.11,488.00 188.72,488.00 188.72,488.00 189.33,488.00 189.33,488.00 189.95,488.00 189.95,488.00 190.56,488.00 190.56,488.00 191.17,488.00 191.17,488.00 191.79,488.00 191.79,488.00 192.40,488.00 192.40,488.00 193.01,488.00 193.01,488.00 193.63,488.00 193.63,488.00 194.24,488.00 194.24,488.00 194.85,488.00 194.85,488.00 195.47,488.00 195.47,488.00 196.08,488.00 196.08,488.00 196.69,488.00 196.69,488.00 197.31,488.00 197.31,488.00 197.92,488.00 197.92,488.00 198.53,488.00 198.53,488.00 199.15,488.00 199.15,488.00 199.76,488.00 199.76,488.00 200.37,488.00 200.37,488.00 200.99,488.00 200.99,488.00 201.60,488.00 201.60,488.00 202.21,488.00 202.21,488.00 202.83,488.00 202.83,488.00 203.44,488.00 203.44,488.00 204.05,488.00 204.05,488.00 204.67,488.00 204.67,488.00 205.28,488.00 205.28,488.00 205.89,488.00 205.89,488.00 206.51,488.00 206.51,488.00 207.12,488.00 207.12,488.00 207.73,488.00 207.73,488.00 208.35,488.00 208.35,488.00 208.96,488.00 208.96,488.00 209.57,488.00 209.57,488.00 210.19,488.00 210.19,488.00 210.80,488.00 210.80,488.00 211.41,488.00 211.41,488.00 212.03,488.00 212.03,488.00 212.64,488.00 212.64,488.00 213.25,488.00 213.25,488.00 213.87,488.00 213.87,488.00 214.48,488.00 214.48,488.00 215.09,488.00 215.09,488.00 215.71,488.00 215.71,488.00 216.32,488.00 216.32,488.00 216.93,488.00 216.93,488.00 217.55,488.00 217.55,488.00 218.16,488.00 218.16,488.00 218.77,488.00 218.77,488.00 219.39,488.00 219.39,488.00 220.00,488.00 220.00,488.00 220.61,488.00 220.61,488.00 221.23,488.00 221.23,488.00 221.84,488.00 221.84,488.00 222.45,488.00 222.45,488.00 223.07,488.00 223.07,488.00 223.68,488.00 223.68,488.00 224.29,488.00 224.29,488.00 224.91,488.00 224.91,488.00 225.52,488.00 225.52,488.00 226.13,488.00 226.13,488.00 226.75,488.00 226.75,488.00 227.36,488.00 227.36,488.00 227.97,488.00 227.97,488.00 228.59,488.00 228.59,488.00 229.20,488.00 229.20,488.00 229.81,488.00 229.81,488.00 230.43,488.00 230.43,488.00 231.04,488.00 231.04,488.00 231.65,488.00 231.65,488.00 232.27,488.00 232.27,488.00 232.88,488.00 232.88,488.00 233.49,488.00 233.49,488.00 234.11,488.00 234.11,488.00 234.72,488.00 234.72,488.00 235.33,488.00 235.33,488.00 235.95,488.00 235.95,488.00 236.56,488.00 236.56,488.00 237.17,488.00 237.17,488.00 237.79,488.00 237.79,488.00 238.40,488.00 238.40,488.00 239.01,488.00 239.01,488.00 239.63,488.00 239.63,488.00 240.24,488.00 240.24,488.00 240.85,488.00 240.85,488.00 241.47,488.00 241.47,488.00 242.08,488.00 242.08,488.00 242.69,488.00 242.69,488.00 243.31,488.00 243.31,488.00 243.92,488.00 243.92,488.00 244.53,488.00 244.53,488.00 245.15,488.00 245.15,488.00 245.76,488.00 245.76,488.00 246.37,488.00 246.37,488.00 246.99,488.00 246.99,488.00 247.60,488.00 247.60,488.00 248.21,488.00 248.21,488.00 248.83,488.00 248.83,488.00 249.44,488.00 249.44,488.00 250.05,488.00 250.05,488.00 250.67,488.00 250.67,488.00 251.28,488.00 251.28,488.00 251.89,488.00 251.89,488.00 252.51,488.00 252.51,488.00 253.12,488.00 253.12,488.00 253.73,488.00 253.73,488.00 254.35,488.00 254.35,488.00 254.96,488.00 254.96,488.00 255.57,488.00 255.57,488.00 256.19,488.00 256.19,488.00 256.80,488.00 256.80,488.00 257.41,488.00 257.41,488.00 258.03,488.00 258.03,488.00 258.64,488.00 258.64,488.00 259.25,488.00 259.25,488.00 259.87,488.00 259.87,488.00 260.48,488.00 260.48,488.00 261.09,488.00 261.09,488.00 261.71,488.00 261.71,488.00 262.32,488.00 262.32,488.00 262.93,488.00 262.93,488.00 263.55,488.00 263.55,488.00 264.16,488.00 264.16,488.00 264.77,488.00 264.77,488.00 265.39,488.00 265.39,488.00 266.00,488.00 266.00,488.00 266.61,488.00 266.61,488.00 267.23,488.00 267.23,488.00 267.84,488.00 267.84,488.00 268.45,488.00 268.45,488.00 269.07,488.00 269.07,488.00 269.68,488.00 269.68,488.00 270.29,488.00 270.29,488.00 270.91,488.00 270.91,488.00 271.52,488.00 271.52,488.00 272.13,488.00 272.13,488.00 272.75,488.00 272.75,488.00 273.36,488.00 273.36,488.00 273.97,488.00 273.97,488.00 274.59,488.00 274.59,488.00 275.20,488.00 275.20,488.00 275.81,488.00 275.81,488.00 276.43,488.00 276.43,488.00 277.04,488.00 277.04,488.00 277.65,488.00 277.65,488.00 278.27,488.00 278.27,488.00 278.88,488.00 278.88,488.00 279.49,488.00 279.49,488.00 280.11,488.00 280.11,488.00 280.72,488.00 280.72,488.00 281.33,488.00 281.33,488.00 281.95,488.00 281.95,488.00 282.56,488.00 282.56,488.00 283.17,488.00 283.17,488.00 283.79,488.00 283.79,488.00 284.40,488.00 284.40,488.00 285.01,488.00 285.01,488.00 285.63,488.00 285.63,488.00 286.24,488.00 286.24,488.00 286.85,488.00 286.85,488.00 287.47,488.00 287.47,488.00 288.08,488.00 288.08,488.00 288.69,488.00 288.69,488.00 289.31,488.00 289.31,488.00 289.92,488.00 289.92,488.00 290.53,488.00 290.53,488.00 291.15,488.00 291.15,488.00 291.76,488.00 291.76,488.00 292.37,488.00 292.37,488.00 292.99,488.00 292.99,488.00 293.60,488.00 293.60,488.00 294.21,488.00 294.21,488.00 294.83,488.00 294.83,488.00 295.44,488.00 295.44,488.00 296.05,488.00 296.05,488.00 296.67,488.00 296.67,488.00 297.28,488.00 297.28,488.00 297.89,488.00 297.89,488.00 298.51,488.00 298.51,488.00 299.12,488.00 299.12,488.00 299.73,488.00 299.73,488.00 300.35,488.00 300.35,488.00 300.96,488.00 300.96,488.00 301.57,488.00 301.57,488.00 302.19,488.00 302.19,488.00 302.80,488.00 302.80,488.00 303.41,488.00 303.41,488.00 304.03,488.00 304.03,488.00 304.64,488.00 304.64,488.00 305.25,488.00 305.25,488.00 305.87,488.00 305.87,488.00 306.48,488.00 306.48,488.00 307.09,488.00 307.09,488.00 307.71,488.00 307.71,488.00 308.32,488.00 308.32,488.00 308.93,488.00 308.93,488.00 309.55,488.00 309.55,488.00 310.16,488.00 310.16,488.00 310.77,488.00 310.77,488.00 311.39,488.00 311.39,488.00 312.00,488.00 312.00,488.00 312.61,488.00 312.61,488.00 313.23,488.00 313.23,488.00 313.84,488.00 313.84,487.01 314.45,487.01 314.45,487.01 315.07,487.01 315.07,487.01 315.68,487.01 315.68,487.01 316.29,487.01 316.29,487.01 316.91,487.01 316.91,487.01 317.52,487.01 317.52,487.01 318.13,487.01 318.13,487.01 318.75,487.01 318.75,487.01 319.36,487.01 319.36,487.01 319.97,487.01 319.97,487.01 320.59,487.01 320.59,487.01 321.20,487.01 321.20,487.01 321.81,487.01 321.81,486.03 322.43,486.03 322.43,476.16 323.04,476.16 323.04,476.16 323.65,476.16 323.65,476.16 324.27,476.16 324.27,476.16 324.88,476.16 324.88,476.16 325.49,476.16 325.49,476.16 326.11,476.16 326.11,476.16 326.72,476.16 326.72,476.16 327.33,476.16 327.33,476.16 327.95,476.16 327.95,476.16 328.56,476.16 328.56,476.16 329.17,476.16 329.17,476.16 329.79,476.16 329.79,476.16 330.40,476.16 330.40,476.16 331.01,476.16 331.01,476.16 331.63,476.16 331.63,476.16 332.24,476.16 332.24,476.16 332.85,476.16 332.85,476.16 333.47,476.16 333.47,476.16 334.08,476.16 334.08,476.16 334.69,476.16 334.69,476.16 335.31,476.16 335.31,476.16 335.92,476.16 335.92,476.16 336.53,476.16 336.53,476.16 337.15,476.16 337.15,465.30 337.76,465.30 337.76,465.30 338.37,465.30 338.37,465.30 338.99,465.30 338.99,465.30 339.60,465.30 339.60,465.30 340.21,465.30 340.21,465.30 340.83,465.30 340.83,465.30 341.44,465.30 341.44,464.32 342.05,464.32 342.05,464.32 342.67,464.32 342.67,463.33 343.28,463.33 343.28,453.46 343.89,453.46 343.89,453.46 344.51,453.46 344.51,453.46 345.12,453.46 345.12,453.46 345.73,453.46 345.73,453.46 346.35,453.46 346.35,453.46 346.96,453.46 346.96,453.46 347.57,453.46 347.57,453.46 348.19,453.46 348.19,453.46 348.80,453.46 348.80,453.46 349.41,453.46 349.41,453.46 350.03,453.46 350.03,453.46 350.64,453.46 350.64,453.46 351.25,453.46 351.25,453.46 351.87,453.46 351.87,453.46 352.48,453.46 352.48,453.46 353.09,453.46 353.09,453.46 353.71,453.46 353.71,453.46 354.32,453.46 354.32,453.46 354.93,453.46 354.93,453.46 355.55,453.46 355.55,453.46 356.16,453.46 356.16,453.46 356.77,453.46 356.77,453.46 357.39,453.46 357.39,453.46 358.00,453.46 358.00,453.46 358.61,453.46 358.61,453.46 359.23,453.46 359.23,453.46 359.84,453.46 359.84,453.46 360.45,453.46 360.45,453.46 361.07,453.46 361.07,453.46 361.68,453.46 361.68,453.46 362.29,453.46 362.29,453.46 362.91,453.46 362.91,453.46 363.52,453.46 363.52,453.46 364.13,453.46 364.13,453.46 364.75,453.46 364.75,453.46 365.36,453.46 365.36,453.46 365.97,453.46 365.97,453.46 366.59,453.46 366.59,453.46 367.20,453.46 367.20,453.46 367.81,453.46 367.81,453.46 368.43,453.46 368.43,453.46 369.04,453.46 369.04,453.46 369.65,453.46 369.65,453.46 370.27,453.46 370.27,453.46 370.88,453.46 370.88,453.46 371.49,453.46 371.49,453.46 372.11,453.46 372.11,453.46 372.72,453.46 372.72,453.46 373.33,453.46 373.33,453.46 373.95,453.46 373.95,453.46 374.56,453.46 374.56,453.46 375.17,453.46 375.17,453.46 375.79,453.46 375.79,453.46 376.40,453.46 376.40,453.46 377.01,453.46 377.01,453.46 377.63,453.46 377.63,453.46 378.24,453.46 378.24,453.46 378.85,453.46 378.85,453.46 379.47,453.46 379.47,453.46 380.08,453.46 380.08,453.46 380.69,453.46 380.69,453.46 381.31,453.46 381.31,453.46 381.92,453.46 381.92,453.46 382.53,453.46 382.53,453.46 383.15,453.46 383.15,453.46 383.76,453.46 383.76,453.46 384.37,453.46 384.37,453.46 384.99,453.46 384.99,453.46 385.60,453.46 385.60,453.46 386.21,453.46 386.21,453.46 386.83,453.46 386.83,453.46 387.44,453.46 387.44,453.46 388.05,453.46 388.05,453.46 388.67,453.46 388.67,453.46 389.28,453.46 389.28,453.46 389.89,453.46 389.89,453.46 390.51,453.46 390.51,453.46 391.12,453.46 391.12,453.46 391.73,453.46 391.73,453.46 392.35,453.46 392.35,453.46 392.96,453.46 392.96,453.46 393.57,453.46 393.57,453.46 394.19,453.46 394.19,453.46 394.80,453.46 394.80,453.46 395.41,453.46 395.41,453.46 396.03,453.46 396.03,453.46 396.64,453.46 396.64,453.46 397.25,453.46 397.25,453.46 397.87,453.46 397.87,453.46 398.48,453.46 398.48,453.46 399.09,453.46 399.09,453.46 399.71,453.46 399.71,453.46 400.32,453.46 400.32,453.46 400.93,453.46 400.93,453.46 401.55,453.46 401.55,453.46 402.16,453.46 402.16,453.46 402.77,453.46 402.77,453.46 403.39,453.46 403.39,453.46 404.00,453.46 404.00,453.46 404.61,453.46 404.61,452.48 405.23,452.48 405.23,452.48 405.84,452.48 405.84,452.48 406.45,452.48 406.45,452.48 407.07,452.48 407.07,452.48 407.68,452.48 407.68,452.48 408.29,452.48 408.29,452.48 408.91,452.48 408.91,452.48 409.52,452.48 409.52,452.48 410.13,452.48 410.13,450.50 410.75,450.50 410.75,442.61 411.36,442.61 411.36,439.65 411.97,439.65 411.97,439.65 412.59,439.65 412.59,436.69 413.20,436.69 413.20,435.70 413.81,435.70 413.81,434.71 414.43,434.71 414.43,434.71 415.04,434.71 415.04,434.71 415.65,434.71 415.65,434.71 416.27,434.71 416.27,434.71 416.88,434.71 416.88,434.71 417.49,434.71 417.49,434.71 418.11,434.71 418.11,434.71 418.72,434.71 418.72,434.71 419.33,434.71 419.33,434.71 419.95,434.71 419.95,434.71 420.56,434.71 420.56,434.71 421.17,434.71 421.17,434.71 421.79,434.71 421.79,434.71 422.40,434.71 422.40,421.89 423.01,421.89 423.01,421.89 423.63,421.89 423.63,400.18 424.24,400.18 424.24,400.18 424.85,400.18 424.85,400.18 425.47,400.18 425.47,400.18 426.08,400.18 426.08,400.18 426.69,400.18 426.69,400.18 427.31,400.18 427.31,400.18 427.92,400.18 427.92,400.18 428.53,400.18 428.53,400.18 429.15,400.18 429.15,400.18 429.76,400.18 429.76,400.18 430.37,400.18 430.37,400.18 430.99,400.18 430.99,400.18 431.60,400.18 431.60,400.18 432.21,400.18 432.21,400.18 432.83,400.18 432.83,400.18 433.44,400.18 433.44,400.18 434.05,400.18 434.05,400.18 434.67,400.18 434.67,400.18 435.28,400.18 435.28,400.18 435.89,400.18 435.89,400.18 436.51,400.18 436.51,400.18 437.12,400.18 437.12,400.18 437.73,400.18 437.73,400.18 438.35,400.18 438.35,400.18 438.96,400.18 438.96,400.18 439.57,400.18 439.57,399.19 440.19,399.19 440.19,399.19 440.80,399.19 440.80,399.19 441.41,399.19 441.41,399.19 442.03,399.19 442.03,399.19 442.64,399.19 442.64,399.19 443.25,399.19 443.25,399.19 443.87,399.19 443.87,399.19 444.48,399.19 444.48,399.19 445.09,399.19 445.09,399.19 445.71,399.19 445.71,399.19 446.32,399.19 446.32,399.19 446.93,399.19 446.93,399.19 447.55,399.19 447.55,399.19 448.16,399.19 448.16,399.19 448.77,399.19 448.77,399.19 449.39,399.19 449.39,399.19 450.00,399.19 450.00,399.19 450.61,399.19 450.61,399.19 451.23,399.19 451.23,399.19 451.84,399.19 451.84,399.19 452.45,399.19 452.45,399.19 453.07,399.19 453.07,399.19 453.68,399.19 453.68,399.19 454.29,399.19 454.29,399.19 454.91,399.19 454.91,399.19 455.52,399.19 455.52,399.19 456.13,399.19 456.13,399.19 456.75,399.19 456.75,399.19 457.36,399.19 457.36,399.19 457.97,399.19 457.97,399.19 458.59,399.19 458.59,399.19 459.20,399.19 459.20,399.19 459.81,399.19 459.81,399.19 460.43,399.19 460.43,399.19 461.04,399.19 461.04,399.19 461.65,399.19 461.65,399.19 462.27,399.19 462.27,399.19 462.88,399.19 462.88,399.19 463.49,399.19 463.49,399.19 464.11,399.19 464.11,399.19 464.72,399.19 464.72,398.20 465.33,398.20 465.33,398.20 465.95,398.20 465.95,398.20 466.56,398.20 466.56,398.20 467.17,398.20 467.17,398.20 467.79,398.20 467.79,398.20 468.40,398.20 468.40,390.31 469.01,390.31 469.01,390.31 469.63,390.31 469.63,390.31 470.24,390.31 470.24,390.31 470.85,390.31 470.85,390.31 471.47,390.31 471.47,390.31 472.08,390.31 472.08,390.31 472.69,390.31 472.69,389.32 473.31,389.32 473.31,389.32 473.92,389.32 473.92,373.53 474.53,373.53 474.53,373.53 475.15,373.53 475.15,373.53 475.76,373.53 475.76,373.53 476.37,373.53 476.37,373.53 476.99,373.53 476.99,373.53 477.60,373.53 477.60,373.53 478.21,373.53 478.21,373.53 478.83,373.53 478.83,373.53 479.44,373.53 479.44,373.53 480.05,373.53 480.05,373.53 480.67,373.53 480.67,373.53 481.28,373.53 481.28,373.53 481.89,373.53 481.89,373.53 482.51,373.53 482.51,373.53 483.12,373.53 483.12,373.53 483.73,373.53 483.73,373.53 484.35,373.53 484.35,373.53 484.96,373.53 484.96,373.53 485.57,373.53 485.57,373.53 486.19,373.53 486.19,373.53 486.80,373.53 486.80,373.53 487.41,373.53 487.41,373.53 488.03,373.53 488.03,373.53 488.64,373.53 488.64,373.53 489.25,373.53 489.25,373.53 489.87,373.53 489.87,373.53 490.48,373.53 490.48,373.53 491.09,373.53 491.09,373.53 491.71,373.53 491.71,373.53 492.32,373.53 492.32,373.53 492.93,373.53 492.93,373.53 493.55,373.53 493.55,373.53 494.16,373.53 494.16,373.53 494.77,373.53 494.77,373.53 495.39,373.53 495.39,373.53 496.00,373.53 496.00,373.53 496.61,373.53 496.61,373.53 497.23,373.53 497.23,373.53 497.84,373.53 497.84,373.53 498.45,373.53 498.45,373.53 499.07,373.53 499.07,373.53 499.68,373.53 499.68,373.53 500.29,373.53 500.29,373.53 500.91,373.53 500.91,373.53 501.52,373.53 501.52,373.53 502.13,373.53 502.13,373.53 502.75,373.53 502.75,373.53 503.36,373.53 503.36,373.53 503.97,373.53 503.97,373.53 504.59,373.53 504.59,373.53 505.20,373.53 505.20,373.53 505.81,373.53 505.81,373.53 506.43,373.53 506.43,373.53 507.04,373.53 507.04,373.53 507.65,373.53 507.65,373.53 508.27,373.53 508.27,373.53 508.88,373.53 508.88,373.53 509.49,373.53 509.49,373.53 510.11,373.53 510.11,373.53 510.72,373.53 510.72,373.53 511.33,373.53 511.33,373.53 511.95,373.53 511.95,373.53 512.56,373.53 512.56,373.53 513.17,373.53 513.17,373.53 513.79,373.53 513.79,373.53 514.40,373.53 514.40,373.53 515.01,373.53 515.01,373.53 515.63,373.53 515.63,373.53 516.24,373.53 516.24,373.53 516.85,373.53 516.85,373.53 517.47,373.53 517.47,373.53 518.08,373.53 518.08,373.53 518.69,373.53 518.69,373.53 519.31,373.53 519.31,373.53 519.92,373.53 519.92,373.53 520.53,373.53 520.53,373.53 521.15,373.53 521.15,373.53 521.76,373.53 521.76,373.53 522.37,373.53 522.37,373.53 522.99,373.53 522.99,373.53 523.60,373.53 523.60,373.53 524.21,373.53 524.21,373.53 524.83,373.53 524.83,373.53 525.44,373.53 525.44,373.53 526.05,373.53 526.05,373.53 526.67,373.53 526.67,373.53 527.28,373.53 527.28,373.53 527.89,373.53 527.89,373.53 528.51,373.53 528.51,373.53 529.12,373.53 529.12,373.53 529.73,373.53 529.73,373.53 530.35,373.53 530.35,373.53 530.96,373.53 530.96,373.53 531.57,373.53 531.57,373.53 532.19,373.53 532.19,373.53 532.80,373.53 532.80,373.53 533.41,373.53 533.41,373.53 534.03,373.53 534.03,373.53 534.64,373.53 534.64,371.56 535.25,371.56 535.25,371.56 535.87,371.56 535.87,357.74 536.48,357.74 536.48,357.74 537.09,357.74 537.09,357.74 537.71,357.74 537.71,357.74 538.32,357.74 538.32,357.74 538.93,357.74 538.93,357.74 539.55,357.74 539.55,344.92 540.16,344.92 540.16,344.92 540.77,344.92 540.77,344.92 541.39,344.92 541.39,344.92 542.00,344.92 542.00,344.92 542.61,344.92 542.61,344.92 543.23,344.92 543.23,344.92 543.84,344.92 543.84,344.92 544.45,344.92 544.45,344.92 545.07,344.92 545.07,344.92 545.68,344.92 545.68,344.92 546.29,344.92 546.29,344.92 546.91,344.92 546.91,344.92 547.52,344.92 547.52,344.92 548.13,344.92 548.13,344.92 548.75,344.92 548.75,344.92 549.36,344.92 549.36,343.93 549.97,343.93 549.97,343.93 550.59,343.93 550.59,343.93 551.20,343.93 551.20,343.93 551.81,343.93 551.81,329.13 552.43,329.13 552.43,329.13 553.04,329.13 553.04,329.13 553.65,329.13 553.65,329.13 554.27,329.13 554.27,329.13 554.88,329.13 554.88,329.13 555.49,329.13 555.49,329.13 556.11,329.13 556.11,329.13 556.72,329.13 556.72,329.13 557.33,329.13 557.33,329.13 557.95,329.13 557.95,329.13 558.56,329.13 558.56,329.13 559.17,329.13 559.17,329.13 559.79,329.13 559.79,315.31 560.40,315.31 560.40,315.31 561.01,315.31 561.01,315.31 561.63,315.31 561.63,315.31 562.24,315.31 562.24,315.31 562.85,315.31 562.85,315.31 563.47,315.31 563.47,315.31 564.08,315.31 564.08,315.31 564.69,315.31 564.69,315.31 565.31,315.31 565.31,315.31 565.92,315.31 565.92,315.31 566.53,315.31 566.53,315.31 567.15,315.31 567.15,315.31 567.76,315.31 567.76,315.31 568.37,315.31 568.37,315.31 568.99,315.31 568.99,315.31 569.60,315.31 569.60,315.31 570.21,315.31 570.21,315.31 570.83,315.31 570.83,315.31 571.44,315.31 571.44,315.31 572.05,315.31 572.05,315.31 572.67,315.31 572.67,315.31 573.28,315.31 573.28,315.31 573.89,315.31 573.89,315.31 574.51,315.31 574.51,315.31 575.12,315.31 575.12,315.31 575.73,315.31 575.73,305.44 576.35,305.44 576.35,305.44 576.96,305.44 576.96,305.44 577.57,305.44 577.57,305.44 578.19,305.44 578.19,305.44 578.80,305.44 578.80,305.44 579.41,305.44 579.41,305.44 580.03,305.44 580.03,305.44 580.64,305.44 580.64,305.44 581.25,305.44 581.25,305.44 581.87,305.44 581.87,305.44 582.48,305.44 582.48,305.44 583.09,305.44 583.09,305.44 583.71,305.44 583.71,305.44 584.32,305.44 584.32,305.44 584.93,305.44 584.93,305.44 585.55,305.44 585.55,305.44 586.16,305.44 586.16,305.44 586.77,305.44 586.77,288.67 587.39,288.67 587.39,288.67 588.00,288.67 588.00,288.67 588.61,288.67 588.61,288.67 589.23,288.67 589.23,288.67 589.84,288.67 589.84,288.67 590.45,288.67 590.45,288.67 591.07,288.67 591.07,288.67 591.68,288.67 591.68,288.67 592.29,288.67 592.29,288.67 592.91,288.67 592.91,288.67 593.52,288.67 593.52,288.67 594.13,288.67 594.13,288.67 594.75,288.67 594.75,288.67 595.36,288.67 595.36,288.67 595.97,288.67 595.97,272.88 596.59,272.88 596.59,272.88 597.20,272.88 597.20,272.88 597.81,272.88 597.81,272.88 598.43,272.88 598.43,272.88 599.04,272.88 599.04,272.88 599.65,272.88 599.65,272.88 600.27,272.88 600.27,272.88 600.88,272.88 600.88,272.88 601.49,272.88 601.49,272.88 602.11,272.88 602.11,272.88 602.72,272.88 602.72,272.88 603.33,272.88 603.33,272.88 603.95,272.88 603.95,272.88 604.56,272.88 604.56,272.88 605.17,272.88 605.17,272.88 605.79,272.88 605.79,272.88 606.40,272.88 606.40,272.88 607.01,272.88 607.01,257.09 607.63,257.09 607.63,257.09 608.24,257.09 608.24,257.09 608.85,257.09 608.85,257.09 609.47,257.09 609.47,257.09 610.08,257.09 610.08,257.09 610.69,257.09 610.69,257.09 611.31,257.09 611.31,257.09 611.92,257.09 611.92,257.09 612.53,257.09 612.53,257.09 613.15,257.09 613.15,257.09 613.76,257.09 613.76,257.09 614.37,257.09 614.37,257.09 614.99,257.09 614.99,256.11 615.60,256.11 615.60,242.29 616.21,242.29 616.21,242.29 616.83,242.29 616.83,242.29 617.44,242.29 617.44,242.29 618.05,242.29 618.05,242.29 618.67,242.29 618.67,242.29 619.28,242.29 619.28,242.29 619.89,242.29 619.89,242.29 620.51,242.29 620.51,242.29 621.12,242.29 621.12,242.29 621.73,242.29 621.73,242.29 622.35,242.29 622.35,242.29 622.96,242.29 622.96,242.29 623.57,242.29 623.57,242.29 624.19,242.29 624.19,242.29 624.80,242.29 624.80,242.29 625.41,242.29 625.41,242.29 626.03,242.29 626.03,242.29 626.64,242.29 626.64,242.29 627.25,242.29 627.25,242.29 627.87,242.29 627.87,242.29 628.48,242.29 628.48,242.29 629.09,242.29 629.09,242.29 629.71,242.29 629.71,242.29 630.32,242.29 630.32,242.29 630.93,242.29 630.93,242.29 631.55,242.29 631.55,242.29 632.16,242.29 632.16,242.29 632.77,242.29 632.77,242.29 633.39,242.29 633.39,242.29 634.00,242.29 634.00,242.29 634.61,242.29 634.61,242.29 635.23,242.29 635.23,242.29 635.84,242.29 635.84,242.29 636.45,242.29 636.45,242.29 637.07,242.29 637.07,242.29 637.68,242.29 637.68,242.29 638.29,242.29 638.29,242.29 638.91,242.29 638.91,242.29 639.52,242.29 639.52,242.29 640.13,242.29 640.13,242.29 640.75,242.29 640.75,242.29 641.36,242.29 641.36,240.32 641.97,240.32 641.97,226.50 642.59,226.50 642.59,217.62 643.20,217.62 643.20,217.62 643.81,217.62 643.81,217.62 644.43,217.62 644.43,217.62 645.04,217.62 645.04,217.62 645.65,217.62 645.65,217.62 646.27,217.62 646.27,217.62 646.88,217.62 646.88,217.62 647.49,217.62 647.49,217.62 648.11,217.62 648.11,217.62 648.72,217.62 648.72,217.62 649.33,217.62 649.33,217.62 649.95,217.62 649.95,217.62 650.56,217.62 650.56,217.62 651.17,217.62 651.17,217.62 651.79,217.62 651.79,217.62 652.40,217.62 652.40,217.62 653.01,217.62 653.01,217.62 653.63,217.62 653.63,217.62 654.24,217.62 654.24,217.62 654.85,217.62 654.85,193.94 655.47,193.94 655.47,193.94 656.08,193.94 656.08,193.94 656.69,193.94 656.69,193.94 657.31,193.94 657.31,193.94 657.92,193.94 657.92,193.94 658.53,193.94 658.53,191.96 659.15,191.96 659.15,191.96 659.76,191.96 659.76,191.96 660.37,191.96 660.37,189.99 660.99,189.99 660.99,145.59 661.60,145.59 661.60,130.78 662.21,130.78 662.21,130.78 662.83,130.78 662.83,130.78 663.44,130.78 663.44,130.78 664.05,130.78 664.05,130.78 664.67,130.78 664.67,130.78 665.28,130.78 665.28,130.78 665.89,130.78 665.89,130.78 666.51,130.78 666.51,130.78 667.12,130.78 667.12,130.78 667.73,130.78 667.73,130.78 668.35,130.78 668.35,116.97 668.96,116.97 668.96,108.09 669.57,108.09 669.57,108.09 670.19,108.09 670.19,108.09 670.80,108.09 670.80,108.09 671.41,108.09 671.41,108.09 672.03,108.09 672.03,108.09 672.64,108.09 672.64,108.09 673.25,108.09 673.25,108.09 673.87,108.09 673.87,108.09 674.48,108.09 674.48,108.09 675.09,108.09 675.09,108.09 675.71,108.09 675.71,108.09 676.32,108.09 676.32,108.09 676.93,108.09 676.93,108.09 677.55,108.09 677.55,108.09 678.16,108.09 678.16,108.09 678.77,108.09 678.77,108.09 679.39,108.09 679.39,108.09 680.00,108.09 680.00,108.09 680.61,108.09 680.61,108.09 681.23,108.09 681.23,108.09 681.84,108.09 681.84,108.09 682.45,108.09 682.45,108.09 683.07,108.09 683.07,108.09 683.68,108.09 683.68,108.09 684.29,108.09 684.29,108.09 684.91,108.09 684.91,108.09 685.52,108.09 685.52,108.09 686.13,108.09 686.13,108.09 686.75,108.09 686.75,108.09 687.36,108.09 687.36,94.27 687.97,94.27 687.97,94.27 688.59,94.27 688.59,94.27 689.20,94.27 689.20,94.27 689.81,94.27 689.81,94.27 690.43,94.27 690.43,94.27 691.04,94.27 691.04,94.27 691.65,94.27 691.65,94.27 692.27,94.27 692.27,94.27 692.88,94.27 692.88,94.27 693.49,94.27 693.49,94.27 694.11,94.27 694.11,94.27 694.72,94.27 694.72,94.27 695.33,94.27 695.33,94.27 695.95,94.27 695.95,94.27 696.56,94.27 696.56,94.27 697.17,94.27 697.17,94.27 697.79,94.27 697.79,94.27 698.40,94.27 698.40,94.27 699.01,94.27 699.01,94.27 699.63,94.27 699.63,94.27 700.24,94.27 700.24,94.27 700.85,94.27 700.85,94.27 701.47,94.27 701.47,94.27 702.08,94.27 702.08,94.27 702.69,94.27 702.69,94.27 703.31,94.27 703.31,94.27 703.92,94.27 703.92,94.27 704.53,94.27 704.53,94.27 705.15,94.27 705.15,94.27 705.76,94.27 705.76,94.27 706.37,94.27 706.37,94.27 706.99,94.27 706.99,94.27 707.60,94.27 707.60,90.33 708.21,90.33 708.21,90.33 708.83,90.33 708.83,90.33 709.44,90.33 709.44,76.51 710.05,76.51 710.05,76.51 710.67,76.51 710.67,76.51 711.28,76.51 711.28,76.51 711.89,76.51 711.89,76.51 712.51,76.51 712.51,76.51 713.12,76.51 713.12,76.51 713.73,76.51 713.73,76.51 714.35,76.51 714.35,76.51 714.96,76.51 714.96,76.51 715.57,76.51 715.57,76.51 716.19,76.51 716.19,76.51 716.80,76.51 716.80,76.51 717.41,76.51 717.41,76.51 718.03,76.51 718.03,76.51 718.64,76.51 718.64,76.51 719.25,76.51 719.25,76.51 719.87,76.51 719.87,76.51 720.48,76.51 720.48,76.51 721.09,76.51 721.09,76.51 721.71,76.51 721.71,76.51 722.32,76.51 722.32,76.51 722.93,76.51 722.93,61.71 723.55,61.71 723.55,61.71 724.16,61.71 724.16,61.71 724.77,61.71 724.77,61.71 725.39,61.71 725.39,61.71 726.00,61.71 726.00,61.71 726.61,61.71 726.61,61.71 727.23,61.71 727.23,61.71 727.84,61.71 727.84,61.71 728.45,61.71 728.45,61.71 729.07,61.71 729.07,61.71 729.68,61.71 729.68,61.71 730.29,61.71 730.29,61.71 730.91,61.71 730.91,61.71 731.52,61.71 731.52,61.71 732.13,61.71 732.13,61.71 732.75,61.71 732.75,61.71 733.36,61.71 733.36,61.71 733.97,61.71 733.97,61.71 734.59,61.71 734.59,61.71 735.20,61.71 735.20,61.71 735.81,61.71 735.81,61.71 736.43,61.71 736.43,61.71 737.04,61.71 737.04,61.71 737.65,61.71 737.65,61.71 738.27,61.71 738.27,61.71 738.88,61.71 738.88,61.71 739.49,61.71 739.49,61.71 740.11,61.71 740.11,61.71 740.72,61.71 740.72,61.71 741.33,61.71 741.33,61.71 741.95,61.71 741.95,61.71 742.56,61.71 742.56,61.71 743.17,61.71 743.17,61.71 743.79,61.71 743.79,61.71 744.40,61.71 744.40,61.71 745.01,61.71 745.01,61.71 745.63,61.71 745.63,61.71 746.24,61.71 746.24,61.71 746.85,61.71 746.85,61.71 747.47,61.71 747.47,61.71 748.08,61.71 748.08,61.71 748.69,61.71 748.69,61.71 749.31,61.71 749.31,61.71 749.92,61.71 749.92,61.71 750.53,61.71 750.53,61.71 751.15,61.71 751.15,61.71 751.76,61.71 751.76,61.71 752.37,61.71 752.37,61.71 752.99,61.71 752.99,61.71 753.60,61.71 753.60,61.71 754.21,61.71 754.21,61.71 754.83,61.71 754.83,61.71 755.44,61.71 755.44,61.71 756.05,61.71 756.05,61.71 756.67,61.71 756.67,61.71 757.28,61.71 757.28,61.71 757.89,61.71 757.89,61.71 758.51,61.71 758.51,61.71 759.12,61.71 759.12,61.71 759.73,61.71 759.73,61.71 760.35,61.71 760.35,61.71 760.96,61.71 760.96,61.71 761.57,61.71 761.57,61.71 762.19,61.71 762.19,61.71 762.80,61.71 762.80,61.71 763.41,61.71 763.41,61.71 764.03,61.71 764.03,61.71 764.64,61.71 764.64,61.71 765.25,61.71 765.25,61.71 765.87,61.71 765.87,61.71 766.48,61.71 766.48,61.71 767.09,61.71 767.09,61.71 767.71,61.71 767.71,61.71 768.32,61.71 768.32,61.71 768.93,61.71 768.93,61.71 769.55,61.71 769.55,61.71 770.16,61.71 770.16,61.71 770.77,61.71 770.77,61.71 771.39,61.71 771.39,61.71 772.00,61.71 772.00,60.72 772.61,60.72 772.61,60.72 773.23,60.72 773.23,60.72 773.84,60.72 773.84,60.72 774.45,60.72 774.45,51.84 775.07,51.84 775.07,51.84 775.68,51.84 775.68,51.84 776.29,51.84 776.29,51.84 776.91,51.84 776.91,51.84 777.52,51.84 777.52,51.84 778.13,51.84 778.13,51.84 778.75,51.84 778.75,51.84 779.36,51.84 779.36,51.84 779.97,51.84 779.97,51.84 780.59,51.84 780.59,51.84 781.20,51.84 781.20,51.84 781.81,51.84 781.81,51.84 782.43,51.84 782.43,51.84 783.04,51.84 783.04,51.84 783.65,51.84 783.65,51.84 784.27,51.84 784.27,51.84 784.88,51.84 784.88,51.84 785.49,51.84 785.49,51.84 786.11,51.84 786.11,51.84 786.72,51.84 786.72,51.84 787.33,51.84 787.33,51.84 787.95,51.84 787.95,51.84 788.56,51.84 788.56,51.84 789.17,51.84 789.17,51.84 789.79,51.84 789.79,51.84 790.40,51.84 790.40,51.84 791.01,51.84 791.01,51.84 791.63,51.84 791.63,51.84 792.24,51.84 792.24,51.84 792.85,51.84 792.85,51.84 793.47,51.84 793.47,51.84 794.08,51.84 794.08,51.84 794.69,51.84 794.69,51.84 795.31,51.84 795.31,51.84 795.92,51.84 795.92,51.84 796.53,51.84 796.53,51.84 797.15,51.84 797.15,51.84 797.76,51.84 797.76,51.84 798.37,51.84 798.37,51.84 798.99,51.84 798.99,51.84 799.60,51.84 799.60,51.84 800.21,51.84 800.21,51.84 800.83,51.84 800.83,51.84 801.44,51.84 801.44,51.84 802.05,51.84 802.05,50.85 802.67,50.85 802.67,50.85 803.28,50.85 803.28,50.85 803.89,50.85 803.89,40.00 804.51,40.00 804.51,40.00 805.12,40.00 805.12,40.00 805.73,40.00 805.73,40.00 806.35,40.00 806.35,40.00 806.96,40.00 806.96,40.00 807.57,40.00 807.57,40.00 808.19,40.00 808.19,40.00 808.80,40.00 808.80,40.00 809.41,40.00 809.41,40.00 810.03,40.00 810.03,40.00 810.64,40.00 810.64,40.00 811.25,40.00 811.25,40.00 811.87,40.00 811.87,40.00 812.48,40.00 812.48,40.00 813.09,40.00 813.09,40.00 813.71,40.00 813.71,40.00 814.32,40.00 814.32,40.00 814.93,40.00 814.93,40.00 815.55,40.00 815.55,40.00 816.16,40.00 816.16,40.00 816.77,40.00 816.77,40.00 817.39,40.00 817.39,40.00 818.00,40.00 818.00,40.00" fill="none" stroke="#4b8f29" stroke-width="3"/>
<text x="450.0" y="552" text-anchor="middle" font-size="20" font-family="Arial, sans-serif" fill="#111827">Top displacement (mm)</text>
<text x="24" y="280.0" text-anchor="middle" transform="rotate(-90 24 280.0)" font-size="20" font-family="Arial, sans-serif" fill="#111827">Force magnitude (N)</text>
<text x="880" y="280.0" text-anchor="middle" transform="rotate(90 880 280.0)" font-size="20" font-family="Arial, sans-serif" fill="#111827">Broken bonds</text>
<text x="102" y="64" font-size="18" font-family="Arial, sans-serif" fill="#1b6ca8">Top plate</text>
<text x="212" y="64" font-size="18" font-family="Arial, sans-serif" fill="#d1495b">Bottom plate</text>
<text x="352" y="64" font-size="18" font-family="Arial, sans-serif" fill="#4b8f29">Broken bonds</text>
<text x="72" y="45" text-anchor="end" font-size="17" fill="#30363d">18.84</text>
<text x="72" y="488" text-anchor="end" font-size="17" fill="#30363d">0</text>
<text x="828" y="45" text-anchor="start" font-size="17" fill="#30363d">454</text>
<text x="828" y="488" text-anchor="start" font-size="17" fill="#30363d">0</text>
</svg>
