<svg xmlns="http://www.w3.org/2000/svg" width="900" height="560" viewBox="0 0 900 560">
<rect width="100%" height="100%" fill="white"/>
<text x="450.0" y="26" text-anchor="middle" font-size="22" font-family="Arial, sans-serif" fill="#111827">SP-002 force-displacement and bond breakage</text>
<line x1="82" y1="40.00" x2="818" y2="40.00" stroke="#d9dee2" stroke-width="1"/><line x1="82" y1="129.60" x2="818" y2="129.60" stroke="#d9dee2" stroke-width="1"/><line x1="82" y1="219.20" x2="818" y2="219.20" stroke="#d9dee2" stroke-width="1"/><line x1="82" y1="308.80" x2="818" y2="308.80" stroke="#d9dee2" stroke-width="1"/><line x1="82" y1="398.40" x2="818" y2="398.40" stroke="#d9dee2" stroke-width="1"/><line x1="82" y1="488.00" x2="818" y2="488.00" stroke="#d9dee2" stroke-width="1"/><line x1="82.00" y1="40" x2="82.00" y2="488" stroke="#edf0f2" stroke-width="1"/><text x="82.00" y="526" text-anchor="middle" font-size="18" fill="#30363d">0.000</text><line x1="229.20" y1="40" x2="229.20" y2="488" stroke="#edf0f2" stroke-width="1"/><text x="229.20" y="526" text-anchor="middle" font-size="18" fill="#30363d">0.060</text><line x1="376.40" y1="40" x2="376.40" y2="488" stroke="#edf0f2" stroke-width="1"/><text x="376.40" y="526" text-anchor="middle" font-size="18" fill="#30363d">0.120</text><line x1="523.60" y1="40" x2="523.60" y2="488" stroke="#edf0f2" stroke-width="1"/><text x="523.60" y="526" text-anchor="middle" font-size="18" fill="#30363d">0.180</text><line x1="670.80" y1="40" x2="670.80" y2="488" stroke="#edf0f2" stroke-width="1"/><text x="670.80" y="526" text-anchor="middle" font-size="18" fill="#30363d">0.240</text><line x1="818.00" y1="40" x2="818.00" y2="488" stroke="#edf0f2" stroke-width="1"/><text x="818.00" y="526" text-anchor="middle" font-size="18" fill="#30363d">0.300</text>
<line x1="82" y1="40" x2="82" y2="488" stroke="#111827" stroke-width="1.5"/>
<line x1="82" y1="488" x2="818" y2="488" stroke="#111827" stroke-width="1.5"/>
<line x1="818" y1="40" x2="818" y2="488" stroke="#111827" stroke-width="1.5"/>
<polyline points="82.00,488.00 83.23,488.00 84.45,488.00 85.68,488.00 86.91,488.00 88.13,488.00 89.36,488.00 90.59,488.00 91.81,488.00 93.04,488.00 94.27,488.00 95.49,488.00 96.72,488.00 97.95,488.00 99.17,488.00 100.40,488.00 101.63,488.00 102.85,488.00 104.08,488.00 105.31,488.00 106.53,488.00 107.76,488.00 108.99,488.00 110.21,488.00 111.44,488.00 112.67,488.00 113.89,488.00 115.12,488.00 116.35,488.00 117.57,488.00 118.80,488.00 120.03,488.00 121.25,488.00 122.48,488.00 123.71,488.00 124.93,488.00 126.16,488.00 127.39,488.00 128.61,488.00 129.84,488.00 131.07,488.00 132.29,488.00 133.52,488.00 134.75,488.00 135.97,488.00 137.20,488.00 138.43,488.00 139.65,488.00 140.88,488.00 142.11,488.00 143.33,488.00 144.56,488.00 145.79,488.00 147.01,488.00 148.24,488.00 149.47,488.00 150.69,488.00 151.92,488.00 153.15,488.00 154.37,488.00 155.60,488.00 156.83,488.00 158.05,488.00 159.28,488.00 160.51,488.00 161.73,488.00 162.96,488.00 164.19,488.00 165.41,488.00 166.64,488.00 167.87,488.00 169.09,488.00 170.32,488.00 171.55,488.00 172.77,488.00 174.00,488.00 175.23,488.00 176.45,488.00 177.68,488.00 178.91,488.00 180.13,488.00 181.36,488.00 182.59,488.00 183.81,488.00 185.04,488.00 186.27,488.00 187.49,488.00 188.72,488.00 189.95,488.00 191.17,488.00 192.40,488.00 193.63,488.00 194.85,488.00 196.08,488.00 197.31,488.00 198.53,488.00 199.76,488.00 200.99,488.00 202.21,488.00 203.44,488.00 204.67,488.00 205.89,488.00 207.12,488.00 208.35,488.00 209.57,488.00 210.80,488.00 212.03,488.00 213.25,488.00 214.48,488.00 215.71,488.00 216.93,488.00 218.16,488.00 219.39,488.00 220.61,488.00 221.84,488.00 223.07,488.00 224.29,488.00 225.52,488.00 226.75,488.00 227.97,488.00 229.20,488.00 230.43,488.00 231.65,488.00 232.88,488.00 234.11,488.00 235.33,488.00 236.56,488.00 237.79,488.00 239.01,488.00 240.24,488.00 241.47,488.00 242.69,488.00 243.92,488.00 245.15,488.00 246.37,488.00 247.60,488.00 248.83,488.00 250.05,488.00 251.28,488.00 252.51,488.00 253.73,488.00 254.96,488.00 256.19,488.00 257.41,488.00 258.64,488.00 259.87,488.00 261.09,488.00 262.32,488.00 263.55,488.00 264.77,488.00 266.00,488.00 267.23,488.00 268.45,488.00 269.68,488.00 270.91,488.00 272.13,488.00 273.36,488.00 274.59,488.00 275.81,488.00 277.04,488.00 278.27,488.00 279.49,488.00 280.72,488.00 281.95,488.00 283.17,488.00 284.40,488.00 285.63,488.00 286.85,488.00 288.08,488.00 289.31,488.00 290.53,488.00 291.76,488.00 292.99,488.00 294.21,488.00 295.44,488.00 296.67,488.00 297.89,488.00 299.12,488.00 300.35,488.00 301.57,488.00 302.80,488.00 304.03,488.00 305.25,488.00 306.48,488.00 307.71,488.00 308.93,488.00 310.16,488.00 311.39,488.00 312.61,488.00 313.84,488.00 315.07,488.00 316.29,488.00 317.52,488.00 318.75,487.89 319.97,485.71 321.20,482.39 322.43,478.57 323.65,474.40 324.88,469.99 326.11,465.36 327.33,460.56 328.56,455.60 329.79,450.52 331.01,445.61 332.24,440.76 333.47,436.91 334.69,445.35 335.92,452.49 337.15,457.21 338.37,460.29 339.60,461.30 340.83,460.39 342.05,456.57 343.28,451.47 344.51,445.69 345.73,439.47 346.96,432.94 348.19,426.17 349.41,419.22 350.64,412.10 351.87,406.46 353.09,451.39 354.32,448.42 355.55,448.64 356.77,454.01 358.00,457.64 359.23,460.24 360.45,459.00 361.68,456.70 362.91,454.22 364.13,451.79 365.36,448.91 366.59,445.93 367.81,443.08 369.04,440.30 370.27,437.54 371.49,434.74 372.72,431.89 373.95,428.98 375.17,426.01 376.40,422.97 377.63,423.26 378.85,433.75 380.08,439.94 381.31,443.07 382.53,444.00 383.76,443.35 384.99,441.68 386.21,439.36 387.44,436.59 388.67,433.51 389.89,430.20 391.12,426.74 392.35,427.47 393.57,469.77 394.80,464.52 396.03,458.71 397.25,451.83 398.48,444.93 399.71,438.41 400.93,436.94 402.16,438.48 403.39,430.50 404.61,432.53 405.84,423.62 407.07,415.76 408.29,415.02 409.52,413.74 410.75,411.18 411.97,409.97 413.20,455.03 414.43,450.76 415.65,446.54 416.88,442.20 418.11,437.72 419.33,433.12 420.56,428.37 421.79,423.52 423.01,418.85 424.24,414.48 425.47,410.43 426.69,432.16 427.92,422.62 429.15,445.11 430.37,441.10 431.60,436.69 432.83,430.42 434.05,423.71 435.28,416.79 436.51,409.76 437.73,402.67 438.96,394.98 440.19,386.81 441.41,378.36 442.64,369.76 443.87,361.02 445.09,357.18 446.32,389.01 447.55,399.88 448.77,408.86 450.00,412.65 451.23,412.53 452.45,410.26 453.68,406.80 454.91,402.66 456.13,398.08 457.36,399.78 458.59,406.51 459.81,416.07 461.04,427.77 462.27,434.98 463.49,437.80 464.72,437.71 465.95,435.75 467.17,432.63 468.40,428.93 469.63,424.86 470.85,420.50 472.08,415.96 473.31,411.14 474.53,405.17 475.76,398.60 476.99,391.62 478.21,383.94 479.44,376.48 480.67,368.55 481.89,376.07 483.12,375.11 484.35,370.04 485.57,363.38 486.80,356.10 488.03,348.60 489.25,341.11 490.48,333.87 491.71,326.58 492.93,319.14 494.16,311.65 495.39,303.73 496.61,295.81 497.84,287.72 499.07,279.08 500.29,270.03 501.52,260.58 502.75,253.63 503.97,241.73 505.20,296.59 506.43,271.88 507.65,302.62 508.88,279.10 510.11,266.67 511.33,295.53 512.56,276.38 513.79,313.02 515.01,337.78 516.24,311.87 517.47,295.04 518.69,281.02 519.92,267.79 521.15,255.09 522.37,243.09 523.60,254.56 524.83,256.74 526.05,246.68 527.28,255.87 528.51,254.45 529.73,264.81 530.96,256.30 532.19,244.00 533.41,230.50 534.64,217.64 535.87,249.82 537.09,302.45 538.32,270.18 539.55,251.25 540.77,239.86 542.00,243.69 543.23,229.94 544.45,231.50 545.68,236.09 546.91,238.96 548.13,236.42 549.36,249.77 550.59,270.20 551.81,275.35 553.04,270.49 554.27,264.46 555.49,258.33 556.72,257.35 557.95,248.35 559.17,253.23 560.40,246.77 561.63,242.53 562.85,241.11 564.08,318.56 565.31,293.52 566.53,313.60 567.76,343.56 568.99,331.03 570.21,323.43 571.44,315.29 572.67,307.42 573.89,299.35 575.12,319.23 576.35,308.61 577.57,300.28 578.80,291.73 580.03,298.56 581.25,284.28 582.48,275.40 583.71,263.90 584.93,259.24 586.16,257.09 587.39,255.39 588.61,249.11 589.84,242.05 591.07,236.68 592.29,232.36 593.52,225.00 594.75,233.49 595.97,230.70 597.20,231.02 598.43,231.97 599.65,221.06 600.88,206.89 602.11,191.64 603.33,175.86 604.56,161.18 605.79,144.91 607.01,129.72 608.24,117.02 609.47,175.19 610.69,195.11 611.92,187.59 613.15,178.01 614.37,167.09 615.60,155.01 616.83,141.99 618.05,147.29 619.28,223.03 620.51,209.76 621.73,203.37 622.96,206.17 624.19,250.91 625.41,263.16 626.64,263.42 627.87,256.71 629.09,247.61 630.32,195.85 631.55,250.99 632.77,236.12 634.00,236.71 635.23,270.61 636.45,282.54 637.68,346.73 638.91,348.75 640.13,354.37 641.36,352.67 642.59,349.29 643.81,344.87 645.04,338.58 646.27,330.66 647.49,321.83 648.72,312.60 649.95,303.09 651.17,293.41 652.40,283.38 653.63,274.14 654.85,269.73 656.08,264.59 657.31,253.62 658.53,240.60 659.76,226.77 660.99,212.18 662.21,199.80 663.44,194.77 664.67,229.32 665.89,207.12 667.12,226.64 668.35,206.01 669.57,188.22 670.80,170.64 672.03,269.57 673.25,252.44 674.48,239.05 675.71,277.40 676.93,325.37 678.16,305.66 679.39,288.77 680.61,273.66 681.84,292.15 683.07,275.56 684.29,261.78 685.52,247.55 686.75,230.66 687.97,212.92 689.20,194.68 690.43,175.97 691.65,157.02 692.88,137.71 694.11,145.63 695.33,123.39 696.56,142.41 697.79,110.12 699.01,195.45 700.24,234.04 701.47,209.32 702.69,200.70 703.92,205.70 705.15,215.10 706.37,207.66 707.60,197.90 708.83,185.31 710.05,191.49 711.28,242.07 712.51,281.21 713.73,266.77 714.96,257.12 716.19,272.13 717.41,279.56 718.64,273.26 719.87,264.55 721.09,255.16 722.32,251.17 723.55,252.13 724.77,251.21 726.00,242.99 727.23,247.23 728.45,246.97 729.68,241.81 730.91,234.48 732.13,227.78 733.36,220.27 734.59,216.00 735.81,218.81 737.04,212.19 738.27,201.56 739.49,191.40 740.72,178.63 741.95,165.70 743.17,152.39 744.40,138.18 745.63,123.26 746.85,166.32 748.08,149.26 749.31,141.35 750.53,133.51 751.76,175.59 752.99,190.63 754.21,195.77 755.44,198.29 756.67,199.32 757.89,193.45 759.12,183.67 760.35,173.51 761.57,162.89 762.80,151.23 764.03,140.80 765.25,131.06 766.48,119.94 767.71,142.73 768.93,145.98 770.16,135.89 771.39,120.77 772.61,166.22 773.84,172.90 775.07,172.51 776.29,182.66 777.52,182.93 778.75,179.87 779.97,168.30 781.20,156.95 782.43,148.29 783.65,133.87 784.88,164.93 786.11,178.29 787.33,183.06 788.56,178.90 789.79,171.18 791.01,170.78 792.24,191.37 793.47,168.11 794.69,153.71 795.92,139.81 797.15,131.08 798.37,118.76 799.60,102.13 800.83,84.80 802.05,85.21 803.28,80.18 804.51,69.68 805.73,74.66 806.96,56.30 808.19,40.00 809.41,89.75 810.64,94.48 811.87,95.69 813.09,116.85 814.32,114.85 815.55,106.48 816.77,96.73 818.00,114.70" fill="none" stroke="#1b6ca8" stroke-width="3"/>
<polyline points="82.00,488.00 83.23,488.00 84.45,488.00 85.68,488.00 86.91,488.00 88.13,488.00 89.36,488.00 90.59,488.00 91.81,488.00 93.04,488.00 94.27,488.00 95.49,488.00 96.72,488.00 97.95,488.00 99.17,488.00 100.40,488.00 101.63,488.00 102.85,488.00 104.08,488.00 105.31,488.00 106.53,488.00 107.76,488.00 108.99,488.00 110.21,488.00 111.44,488.00 112.67,488.00 113.89,488.00 115.12,488.00 116.35,488.00 117.57,488.00 118.80,488.00 120.03,488.00 121.25,488.00 122.48,488.00 123.71,488.00 124.93,488.00 126.16,488.00 127.39,488.00 128.61,488.00 129.84,488.00 131.07,488.00 132.29,488.00 133.52,488.00 134.75,488.00 135.97,488.00 137.20,488.00 138.43,488.00 139.65,488.00 140.88,488.00 142.11,488.00 143.33,488.00 144.56,488.00 145.79,488.00 147.01,488.00 148.24,488.00 149.47,488.00 150.69,488.00 151.92,488.00 153.15,488.00 154.37,488.00 155.60,488.00 156.83,488.00 158.05,488.00 159.28,488.00 160.51,488.00 161.73,488.00 162.96,488.00 164.19,488.00 165.41,488.00 166.64,488.00 167.87,488.00 169.09,488.00 170.32,488.00 171.55,488.00 172.77,488.00 174.00,488.00 175.23,488.00 176.45,488.00 177.68,488.00 178.91,488.00 180.13,488.00 181.36,488.00 182.59,488.00 183.81,488.00 185.04,488.00 186.27,488.00 187.49,488.00 188.72,488.00 189.95,488.00 191.17,488.00 192.40,488.00 193.63,488.00 194.85,488.00 196.08,488.00 197.31,488.00 198.53,488.00 199.76,488.00 200.99,488.00 202.21,488.00 203.44,488.00 204.67,488.00 205.89,488.00 207.12,488.00 208.35,488.00 209.57,488.00 210.80,488.00 212.03,488.00 213.25,488.00 214.48,488.00 215.71,488.00 216.93,488.00 218.16,488.00 219.39,488.00 220.61,488.00 221.84,488.00 223.07,488.00 224.29,488.00 225.52,488.00 226.75,488.00 227.97,488.00 229.20,488.00 230.43,488.00 231.65,488.00 232.88,488.00 234.11,488.00 235.33,488.00 236.56,488.00 237.79,488.00 239.01,488.00 240.24,488.00 241.47,488.00 242.69,488.00 243.92,488.00 245.15,488.00 246.37,488.00 247.60,488.00 248.83,488.00 250.05,488.00 251.28,488.00 252.51,488.00 253.73,488.00 254.96,488.00 256.19,488.00 257.41,488.00 258.64,488.00 259.87,488.00 261.09,488.00 262.32,488.00 263.55,488.00 264.77,488.00 266.00,488.00 267.23,488.00 268.45,488.00 269.68,488.00 270.91,488.00 272.13,488.00 273.36,488.00 274.59,488.00 275.81,488.00 277.04,488.00 278.27,488.00 279.49,488.00 280.72,488.00 281.95,488.00 283.17,488.00 284.40,488.00 285.63,488.00 286.85,488.00 288.08,488.00 289.31,488.00 290.53,488.00 291.76,488.00 292.99,488.00 294.21,488.00 295.44,488.00 296.67,488.00 297.89,488.00 299.12,488.00 300.35,488.00 301.57,488.00 302.80,488.00 304.03,488.00 305.25,488.00 306.48,488.00 307.71,488.00 308.93,488.00 310.16,488.00 311.39,488.00 312.61,488.00 313.84,488.00 315.07,488.00 316.29,488.00 317.52,488.00 318.75,487.89 319.97,487.35 321.20,485.30 322.43,482.30 323.65,478.68 324.88,474.64 326.11,470.29 327.33,465.71 328.56,460.94 329.79,456.00 331.01,451.00 332.24,446.02 333.47,441.49 334.69,484.72 335.92,486.77 337.15,487.54 338.37,485.96 339.60,481.78 340.83,477.27 342.05,472.43 343.28,466.95 344.51,461.04 345.73,454.82 346.96,448.37 348.19,441.72 349.41,434.89 350.64,427.88 351.87,420.86 353.09,414.81 354.32,424.79 355.55,469.27 356.77,473.69 358.00,476.82 359.23,479.09 360.45,480.46 361.68,480.82 362.91,480.42 364.13,479.44 365.36,477.99 366.59,476.09 367.81,473.82 369.04,471.30 370.27,468.60 371.49,465.77 372.72,462.85 373.95,459.85 375.17,456.79 376.40,453.67 377.63,487.83 378.85,488.00 380.08,486.35 381.31,483.22 382.53,478.87 383.76,474.65 384.99,470.72 386.21,466.98 387.44,463.32 388.67,459.69 389.89,456.04 391.12,452.35 392.35,448.79 393.57,450.86 394.80,465.46 396.03,469.19 397.25,468.29 398.48,464.69 399.71,459.61 400.93,454.55 402.16,449.90 403.39,447.18 404.61,442.82 405.84,439.59 407.07,434.45 408.29,449.74 409.52,444.48 410.75,442.92 411.97,437.72 413.20,445.56 414.43,454.19 415.65,455.79 416.88,454.37 418.11,451.45 419.33,447.71 420.56,443.47 421.79,438.93 423.01,435.47 424.24,434.01 425.47,430.85 426.69,431.12 427.92,430.12 429.15,430.58 430.37,433.05 431.60,433.23 432.83,431.61 434.05,428.51 435.28,424.31 436.51,419.23 437.73,413.53 438.96,407.32 440.19,400.60 441.41,393.40 442.64,385.78 443.87,379.33 445.09,372.24 446.32,427.01 447.55,464.96 448.77,462.02 450.00,454.33 451.23,446.61 452.45,439.75 453.68,433.51 454.91,427.68 456.13,422.06 457.36,417.78 458.59,462.44 459.81,460.43 461.04,487.98 462.27,483.40 463.49,477.00 464.72,470.53 465.95,464.61 467.17,459.12 468.40,453.88 469.63,448.85 470.85,443.92 472.08,439.05 473.31,433.16 474.53,426.24 475.76,418.95 476.99,411.42 478.21,403.43 479.44,396.60 480.67,389.41 481.89,412.16 483.12,400.43 484.35,391.25 485.57,382.95 486.80,374.93 488.03,367.00 489.25,359.12 490.48,351.30 491.71,343.57 492.93,335.93 494.16,328.38 495.39,320.42 496.61,312.67 497.84,304.04 499.07,294.99 500.29,285.77 501.52,275.98 502.75,267.16 503.97,257.26 505.20,275.15 506.43,278.68 507.65,274.30 508.88,285.35 510.11,279.47 511.33,285.82 512.56,284.04 513.79,276.25 515.01,295.80 516.24,310.20 517.47,306.04 518.69,296.69 519.92,285.43 521.15,273.87 522.37,289.60 523.60,312.27 524.83,286.56 526.05,269.45 527.28,254.13 528.51,318.49 529.73,293.01 530.96,277.63 532.19,263.68 533.41,249.65 534.64,235.40 535.87,226.56 537.09,259.15 538.32,270.86 539.55,265.06 540.77,257.05 542.00,252.36 543.23,245.28 544.45,250.72 545.68,247.91 546.91,245.34 548.13,284.78 549.36,276.98 550.59,317.40 551.81,299.16 553.04,289.96 554.27,279.68 555.49,297.84 556.72,282.90 557.95,270.44 559.17,286.05 560.40,274.23 561.63,267.16 562.85,290.45 564.08,280.81 565.31,307.01 566.53,313.33 567.76,336.99 568.99,344.07 570.21,341.65 571.44,336.35 572.67,329.33 573.89,321.53 575.12,328.89 576.35,327.69 577.57,321.57 578.80,311.44 580.03,304.38 581.25,301.34 582.48,291.94 583.71,281.07 584.93,277.70 586.16,286.51 587.39,278.23 588.61,270.62 589.84,262.76 591.07,269.03 592.29,262.96 593.52,253.10 594.75,273.61 595.97,251.92 597.20,288.50 598.43,259.10 599.65,240.01 600.88,223.81 602.11,208.04 603.33,192.15 604.56,177.58 605.79,161.13 607.01,144.89 608.24,135.16 609.47,177.54 610.69,206.56 611.92,205.41 613.15,197.17 614.37,186.34 615.60,173.43 616.83,159.61 618.05,158.09 619.28,175.53 620.51,199.79 621.73,207.96 622.96,286.23 624.19,286.72 625.41,301.59 626.64,285.82 627.87,274.37 629.09,263.89 630.32,253.20 631.55,242.75 632.77,245.95 634.00,350.24 635.23,326.11 636.45,310.39 637.68,363.94 638.91,371.24 640.13,371.58 641.36,369.84 642.59,365.90 643.81,359.68 645.04,350.71 646.27,341.69 647.49,332.78 648.72,323.69 649.95,314.40 651.17,304.88 652.40,295.49 653.63,287.97 654.85,301.69 656.08,283.42 657.31,269.91 658.53,257.12 659.76,244.04 660.99,230.09 662.21,233.19 663.44,219.50 664.67,227.03 665.89,220.19 667.12,221.58 668.35,217.97 669.57,205.87 670.80,189.72 672.03,259.89 673.25,268.86 674.48,303.60 675.71,341.15 676.93,306.61 678.16,307.49 679.39,298.44 680.61,287.12 681.84,291.41 683.07,284.96 684.29,274.10 685.52,261.69 686.75,247.39 687.97,231.25 689.20,213.79 690.43,195.85 691.65,177.35 692.88,158.29 694.11,160.01 695.33,142.84 696.56,125.86 697.79,125.19 699.01,119.38 700.24,187.20 701.47,210.47 702.69,210.21 703.92,251.63 705.15,234.65 706.37,225.34 707.60,216.40 708.83,203.84 710.05,248.29 711.28,257.63 712.51,286.82 713.73,287.78 714.96,280.40 716.19,332.72 717.41,313.71 718.64,301.52 719.87,290.12 721.09,279.53 722.32,274.59 723.55,293.81 724.77,279.79 726.00,266.98 727.23,256.76 728.45,262.85 729.68,263.48 730.91,259.62 732.13,252.47 733.36,244.15 734.59,264.27 735.81,250.17 737.04,237.56 738.27,225.62 739.49,214.25 740.72,201.86 741.95,188.79 743.17,175.02 744.40,160.33 745.63,145.06 746.85,156.36 748.08,165.48 749.31,159.47 750.53,152.50 751.76,201.51 752.99,216.42 754.21,222.45 755.44,219.75 756.67,217.49 757.89,212.08 759.12,204.40 760.35,194.83 761.57,184.19 762.80,171.77 764.03,160.19 765.25,149.40 766.48,138.70 767.71,189.19 768.93,171.79 770.16,156.79 771.39,141.33 772.61,221.09 773.84,201.78 775.07,198.63 776.29,221.10 777.52,220.48 778.75,201.50 779.97,187.06 781.20,176.07 782.43,164.59 783.65,150.67 784.88,163.53 786.11,219.67 787.33,202.97 788.56,196.88 789.79,187.99 791.01,181.34 792.24,191.70 793.47,188.60 794.69,174.47 795.92,159.72 797.15,153.98 798.37,138.71 799.60,122.90 800.83,108.86 802.05,121.62 803.28,115.31 804.51,93.64 805.73,90.06 806.96,77.82 808.19,65.72 809.41,106.89 810.64,113.11 811.87,113.94 813.09,121.52 814.32,132.20 815.55,127.96 816.77,118.78 818.00,156.60" fill="none" stroke="#d1495b" stroke-width="3"/>
<polyline points="82.00,488.00 83.23,488.00 83.23,488.00 84.45,488.00 84.45,488.00 85.68,488.00 85.68,488.00 86.91,488.00 86.91,488.00 88.13,488.00 88.13,488.00 89.36,488.00 89.36,488.00 90.59,488.00 90.59,488.00 91.81,488.00 91.81,488.00 93.04,488.00 93.04,488.00 94.27,488.00 94.27,488.00 95.49,488.00 95.49,488.00 96.72,488.00 96.72,488.00 97.95,488.00 97.95,488.00 99.17,488.00 99.17,488.00 100.40,488.00 100.40,488.00 101.63,488.00 101.63,488.00 102.85,488.00 102.85,488.00 104.08,488.00 104.08,488.00 105.31,488.00 105.31,488.00 106.53,488.00 106.53,488.00 107.76,488.00 107.76,488.00 108.99,488.00 108.99,488.00 110.21,488.00 110.21,488.00 111.44,488.00 111.44,488.00 112.67,488.00 112.67,488.00 113.89,488.00 113.89,488.00 115.12,488.00 115.12,488.00 116.35,488.00 116.35,488.00 117.57,488.00 117.57,488.00 118.80,488.00 118.80,488.00 120.03,488.00 120.03,488.00 121.25,488.00 121.25,488.00 122.48,488.00 122.48,488.00 123.71,488.00 123.71,488.00 124.93,488.00 124.93,488.00 126.16,488.00 126.16,488.00 127.39,488.00 127.39,488.00 128.61,488.00 128.61,488.00 129.84,488.00 129.84,488.00 131.07,488.00 131.07,488.00 132.29,488.00 132.29,488.00 133.52,488.00 133.52,488.00 134.75,488.00 134.75,488.00 135.97,488.00 135.97,488.00 137.20,488.00 137.20,488.00 138.43,488.00 138.43,488.00 139.65,488.00 139.65,488.00 140.88,488.00 140.88,488.00 142.11,488.00 142.11,488.00 143.33,488.00 143.33,488.00 144.56,488.00 144.56,488.00 145.79,488.00 145.79,488.00 147.01,488.00 147.01,488.00 148.24,488.00 148.24,488.00 149.47,488.00 149.47,488.00 150.69,488.00 150.69,488.00 151.92,488.00 151.92,488.00 153.15,488.00 153.15,488.00 154.37,488.00 154.37,488.00 155.60,488.00 155.60,488.00 156.83,488.00 156.83,488.00 158.05,488.00 158.05,488.00 159.28,488.00 159.28,488.00 160.51,488.00 160.51,488.00 161.73,488.00 161.73,488.00 162.96,488.00 162.96,488.00 164.19,488.00 164.19,488.00 165.41,488.00 165.41,488.00 166.64,488.00 166.64,488.00 167.87,488.00 167.87,488.00 169.09,488.00 169.09,488.00 170.32,488.00 170.32,488.00 171.55,488.00 171.55,488.00 172.77,488.00 172.77,488.00 174.00,488.00 174.00,488.00 175.23,488.00 175.23,488.00 176.45,488.00 176.45,488.00 177.68,488.00 177.68,488.00 178.91,488.00 178.91,488.00 180.13,488.00 180.13,488.00 181.36,488.00 181.36,488.00 182.59,488.00 182.59,488.00 183.81,488.00 183.81,488.00 185.04,488.00 185.04,488.00 186.27,488.00 186.27,488.00 187.49,488.00 187.49,488.00 188.72,488.00 188.72,488.00 189.95,488.00 189.95,488.00 191.17,488.00 191.17,488.00 192.40,488.00 192.40,488.00 193.63,488.00 193.63,488.00 194.85,488.00 194.85,488.00 196.08,488.00 196.08,488.00 197.31,488.00 197.31,488.00 198.53,488.00 198.53,488.00 199.76,488.00 199.76,488.00 200.99,488.00 200.99,488.00 202.21,488.00 202.21,488.00 203.44,488.00 203.44,488.00 204.67,488.00 204.67,488.00 205.89,488.00 205.89,488.00 207.12,488.00 207.12,488.00 208.35,488.00 208.35,488.00 209.57,488.00 209.57,488.00 210.80,488.00 210.80,488.00 212.03,488.00 212.03,488.00 213.25,488.00 213.25,488.00 214.48,488.00 214.48,488.00 215.71,488.00 215.71,488.00 216.93,488.00 216.93,488.00 218.16,488.00 218.16,488.00 219.39,488.00 219.39,488.00 220.61,488.00 220.61,488.00 221.84,488.00 221.84,488.00 223.07,488.00 223.07,488.00 224.29,488.00 224.29,488.00 225.52,488.00 225.52,488.00 226.75,488.00 226.75,488.00 227.97,488.00 227.97,488.00 229.20,488.00 229.20,488.00 230.43,488.00 230.43,488.00 231.65,488.00 231.65,488.00 232.88,488.00 232.88,488.00 234.11,488.00 234.11,488.00 235.33,488.00 235.33,488.00 236.56,488.00 236.56,488.00 237.79,488.00 237.79,488.00 239.01,488.00 239.01,488.00 240.24,488.00 240.24,488.00 241.47,488.00 241.47,488.00 242.69,488.00 242.69,488.00 243.92,488.00 243.92,488.00 245.15,488.00 245.15,488.00 246.37,488.00 246.37,488.00 247.60,488.00 247.60,488.00 248.83,488.00 248.83,488.00 250.05,488.00 250.05,488.00 251.28,488.00 251.28,488.00 252.51,488.00 252.51,488.00 253.73,488.00 253.73,488.00 254.96,488.00 254.96,488.00 256.19,488.00 256.19,488.00 257.41,488.00 257.41,488.00 258.64,488.00 258.64,488.00 259.87,488.00 259.87,488.00 261.09,488.00 261.09,488.00 262.32,488.00 262.32,488.00 263.55,488.00 263.55,488.00 264.77,488.00 264.77,488.00 266.00,488.00 266.00,488.00 267.23,488.00 267.23,488.00 268.45,488.00 268.45,488.00 269.68,488.00 269.68,488.00 270.91,488.00 270.91,488.00 272.13,488.00 272.13,488.00 273.36,488.00 273.36,488.00 274.59,488.00 274.59,488.00 275.81,488.00 275.81,488.00 277.04,488.00 277.04,488.00 278.27,488.00 278.27,488.00 279.49,488.00 279.49,488.00 280.72,488.00 280.72,488.00 281.95,488.00 281.95,488.00 283.17,488.00 283.17,488.00 284.40,488.00 284.40,488.00 285.63,488.00 285.63,488.00 286.85,488.00 286.85,488.00 288.08,488.00 288.08,488.00 289.31,488.00 289.31,488.00 290.53,488.00 290.53,488.00 291.76,488.00 291.76,488.00 292.99,488.00 292.99,488.00 294.21,488.00 294.21,488.00 295.44,488.00 295.44,488.00 296.67,488.00 296.67,488.00 297.89,488.00 297.89,488.00 299.12,488.00 299.12,488.00 300.35,488.00 300.35,488.00 301.57,488.00 301.57,488.00 302.80,488.00 302.80,488.00 304.03,488.00 304.03,488.00 305.25,488.00 305.25,488.00 306.48,488.00 306.48,488.00 307.71,488.00 307.71,488.00 308.93,488.00 308.93,488.00 310.16,488.00 310.16,488.00 311.39,488.00 311.39,488.00 312.61,488.00 312.61,488.00 313.84,488.00 313.84,488.00 315.07,488.00 315.07,488.00 316.29,488.00 316.29,488.00 317.52,488.00 317.52,488.00 318.75,488.00 318.75,370.85 319.97,370.85 319.97,356.46 321.20,356.46 321.20,356.46 322.43,356.46 322.43,356.46 323.65,356.46 323.65,356.46 324.88,356.46 324.88,356.46 326.11,356.46 326.11,356.46 327.33,356.46 327.33,356.46 328.56,356.46 328.56,356.46 329.79,356.46 329.79,356.46 331.01,356.46 331.01,356.26 332.24,356.26 332.24,355.46 333.47,355.46 333.47,354.46 334.69,354.46 334.69,353.86 335.92,353.86 335.92,353.86 337.15,353.86 337.15,353.86 338.37,353.86 338.37,353.86 339.60,353.86 339.60,353.86 340.83,353.86 340.83,353.86 342.05,353.86 342.05,353.86 343.28,353.86 343.28,353.86 344.51,353.86 344.51,353.86 345.73,353.86 345.73,353.86 346.96,353.86 346.96,353.86 348.19,353.86 348.19,353.86 349.41,353.86 349.41,353.86 350.64,353.86 350.64,353.86 351.87,353.86 351.87,353.66 353.09,353.66 353.09,351.06 354.32,351.06 354.32,350.86 355.55,350.86 355.55,350.86 356.77,350.86 356.77,350.86 358.00,350.86 358.00,350.86 359.23,350.86 359.23,350.86 360.45,350.86 360.45,350.86 361.68,350.86 361.68,350.86 362.91,350.86 362.91,350.86 364.13,350.86 364.13,350.86 365.36,350.86 365.36,350.86 366.59,350.86 366.59,350.86 367.81,350.86 367.81,350.86 369.04,350.86 369.04,350.86 370.27,350.86 370.27,350.86 371.49,350.86 371.49,350.86 372.72,350.86 372.72,350.86 373.95,350.86 373.95,350.86 375.17,350.86 375.17,350.86 376.40,350.86 376.40,350.86 377.63,350.86 377.63,348.26 378.85,348.26 378.85,348.26 380.08,348.26 380.08,348.26 381.31,348.26 381.31,348.26 382.53,348.26 382.53,348.26 383.76,348.26 383.76,348.26 384.99,348.26 384.99,348.26 386.21,348.26 386.21,348.26 387.44,348.26 387.44,348.26 388.67,348.26 388.67,348.26 389.89,348.26 389.89,348.26 391.12,348.26 391.12,348.26 392.35,348.26 392.35,347.86 393.57,347.86 393.57,346.06 394.80,346.06 394.80,346.06 396.03,346.06 396.03,346.06 397.25,346.06 397.25,346.06 398.48,346.06 398.48,346.06 399.71,346.06 399.71,346.06 400.93,346.06 400.93,345.66 402.16,345.66 402.16,345.26 403.39,345.26 403.39,345.26 404.61,345.26 404.61,344.66 405.84,344.66 405.84,344.66 407.07,344.66 407.07,344.66 408.29,344.66 408.29,343.26 409.52,343.26 409.52,343.26 410.75,343.26 410.75,342.66 411.97,342.66 411.97,342.46 413.20,342.46 413.20,340.07 414.43,340.07 414.43,340.07 415.65,340.07 415.65,340.07 416.88,340.07 416.88,340.07 418.11,340.07 418.11,340.07 419.33,340.07 419.33,340.07 420.56,340.07 420.56,340.07 421.79,340.07 421.79,340.07 423.01,340.07 423.01,340.07 424.24,340.07 424.24,340.07 425.47,340.07 425.47,340.07 426.69,340.07 426.69,338.07 427.92,338.07 427.92,338.07 429.15,338.07 429.15,336.47 430.37,336.47 430.37,336.47 431.60,336.47 431.60,336.47 432.83,336.47 432.83,336.47 434.05,336.47 434.05,336.47 435.28,336.47 435.28,336.47 436.51,336.47 436.51,336.47 437.73,336.47 437.73,336.47 438.96,336.47 438.96,336.47 440.19,336.47 440.19,336.47 441.41,336.47 441.41,336.47 442.64,336.47 442.64,336.47 443.87,336.47 443.87,336.27 445.09,336.27 445.09,335.67 446.32,335.67 446.32,330.27 447.55,330.27 447.55,328.27 448.77,328.27 448.77,328.27 450.00,328.27 450.00,328.27 451.23,328.27 451.23,328.27 452.45,328.27 452.45,328.27 453.68,328.27 453.68,328.27 454.91,328.27 454.91,328.27 456.13,328.27 456.13,328.27 457.36,328.27 457.36,328.07 458.59,328.07 458.59,325.27 459.81,325.27 459.81,325.27 461.04,325.27 461.04,323.27 462.27,323.27 462.27,323.27 463.49,323.27 463.49,323.27 464.72,323.27 464.72,323.27 465.95,323.27 465.95,323.27 467.17,323.27 467.17,323.27 468.40,323.27 468.40,323.27 469.63,323.27 469.63,323.27 470.85,323.27 470.85,323.27 472.08,323.27 472.08,323.27 473.31,323.27 473.31,323.27 474.53,323.27 474.53,323.27 475.76,323.27 475.76,323.27 476.99,323.27 476.99,323.27 478.21,323.27 478.21,323.27 479.44,323.27 479.44,323.07 480.67,323.07 480.67,322.87 481.89,322.87 481.89,320.47 483.12,320.47 483.12,320.47 484.35,320.47 484.35,320.47 485.57,320.47 485.57,320.47 486.80,320.47 486.80,320.47 488.03,320.47 488.03,320.47 489.25,320.47 489.25,320.47 490.48,320.47 490.48,320.47 491.71,320.47 491.71,320.47 492.93,320.47 492.93,320.47 494.16,320.47 494.16,320.47 495.39,320.47 495.39,320.47 496.61,320.47 496.61,320.47 497.84,320.47 497.84,320.47 499.07,320.47 499.07,320.47 500.29,320.47 500.29,320.47 501.52,320.47 501.52,320.47 502.75,320.47 502.75,320.07 503.97,320.07 503.97,320.07 505.20,320.07 505.20,315.28 506.43,315.28 506.43,315.28 507.65,315.28 507.65,312.08 508.88,312.08 508.88,312.08 510.11,312.08 510.11,311.88 511.33,311.88 511.33,308.88 512.56,308.88 512.56,308.88 513.79,308.88 513.79,306.28 515.01,306.28 515.01,303.28 516.24,303.28 516.24,303.28 517.47,303.28 517.47,303.28 518.69,303.28 518.69,303.28 519.92,303.28 519.92,303.28 521.15,303.28 521.15,303.08 522.37,303.08 522.37,299.88 523.60,299.88 523.60,296.09 524.83,296.09 524.83,296.09 526.05,296.09 526.05,296.09 527.28,296.09 527.28,294.49 528.51,294.49 528.51,290.29 529.73,290.29 529.73,290.29 530.96,290.29 530.96,290.29 532.19,290.29 532.19,290.29 533.41,290.29 533.41,290.29 534.64,290.29 534.64,290.09 535.87,290.09 535.87,286.69 537.09,286.69 537.09,281.49 538.32,281.49 538.32,281.49 539.55,281.49 539.55,281.49 540.77,281.49 540.77,281.09 542.00,281.09 542.00,279.69 543.23,279.69 543.23,279.69 544.45,279.69 544.45,277.89 545.68,277.89 545.68,276.29 546.91,276.29 546.91,275.29 548.13,275.29 548.13,271.90 549.36,271.90 549.36,271.30 550.59,271.30 550.59,266.50 551.81,266.50 551.81,266.50 553.04,266.50 553.04,266.30 554.27,266.30 554.27,265.90 555.49,265.90 555.49,263.10 556.72,263.10 556.72,263.10 557.95,263.10 557.95,263.10 559.17,263.10 559.17,260.30 560.40,260.30 560.40,260.30 561.63,260.30 561.63,259.30 562.85,259.30 562.85,256.90 564.08,256.90 564.08,253.30 565.31,253.30 565.31,253.30 566.53,253.30 566.53,250.91 567.76,250.91 567.76,248.11 568.99,248.11 568.99,248.11 570.21,248.11 570.21,247.91 571.44,247.91 571.44,247.91 572.67,247.91 572.67,247.91 573.89,247.91 573.89,247.91 575.12,247.91 575.12,245.91 576.35,245.91 576.35,245.91 577.57,245.91 577.57,245.91 578.80,245.91 578.80,245.91 580.03,245.91 580.03,244.71 581.25,244.71 581.25,244.71 582.48,244.71 582.48,244.51 583.71,244.51 583.71,244.51 584.93,244.51 584.93,243.51 586.16,243.51 586.16,241.71 587.39,241.71 587.39,241.51 588.61,241.51 588.61,241.51 589.84,241.51 589.84,241.51 591.07,241.51 591.07,241.51 592.29,241.51 592.29,241.51 593.52,241.51 593.52,241.51 594.75,241.51 594.75,241.51 595.97,241.51 595.97,241.31 597.20,241.31 597.20,238.11 598.43,238.11 598.43,238.11 599.65,238.11 599.65,238.11 600.88,238.11 600.88,238.11 602.11,238.11 602.11,238.11 603.33,238.11 603.33,238.11 604.56,238.11 604.56,237.71 605.79,237.71 605.79,237.71 607.01,237.71 607.01,237.71 608.24,237.71 608.24,236.71 609.47,236.71 609.47,229.32 610.69,229.32 610.69,225.72 611.92,225.72 611.92,225.72 613.15,225.72 613.15,225.72 614.37,225.72 614.37,225.72 615.60,225.72 615.60,225.72 616.83,225.72 616.83,225.72 618.05,225.72 618.05,224.12 619.28,224.12 619.28,217.32 620.51,217.32 620.51,216.92 621.73,216.92 621.73,215.72 622.96,215.72 622.96,210.52 624.19,210.52 624.19,208.12 625.41,208.12 625.41,205.93 626.64,205.93 626.64,205.93 627.87,205.93 627.87,205.93 629.09,205.93 629.09,205.93 630.32,205.93 630.32,205.93 631.55,205.93 631.55,203.53 632.77,203.53 632.77,203.53 634.00,203.53 634.00,196.73 635.23,196.73 635.23,196.53 636.45,196.53 636.45,195.53 637.68,195.53 637.68,189.33 638.91,189.33 638.91,189.13 640.13,189.13 640.13,189.13 641.36,189.13 641.36,189.13 642.59,189.13 642.59,189.13 643.81,189.13 643.81,189.13 645.04,189.13 645.04,189.13 646.27,189.13 646.27,189.13 647.49,189.13 647.49,189.13 648.72,189.13 648.72,189.13 649.95,189.13 649.95,189.13 651.17,189.13 651.17,189.13 652.40,189.13 652.40,189.13 653.63,189.13 653.63,188.93 654.85,188.93 654.85,186.93 656.08,186.93 656.08,186.93 657.31,186.93 657.31,186.93 658.53,186.93 658.53,186.93 659.76,186.93 659.76,186.93 660.99,186.93 660.99,186.93 662.21,186.93 662.21,186.93 663.44,186.93 663.44,186.93 664.67,186.93 664.67,183.54 665.89,183.54 665.89,183.34 667.12,183.34 667.12,180.94 668.35,180.94 668.35,180.94 669.57,180.94 669.57,180.74 670.80,180.74 670.80,180.74 672.03,180.74 672.03,169.34 673.25,169.34 673.25,168.74 674.48,168.74 674.48,163.94 675.71,163.94 675.71,160.55 676.93,160.55 676.93,158.15 678.16,158.15 678.16,158.15 679.39,158.15 679.39,158.15 680.61,158.15 680.61,158.15 681.84,158.15 681.84,155.75 683.07,155.75 683.07,155.75 684.29,155.75 684.29,155.75 685.52,155.75 685.52,155.75 686.75,155.75 686.75,155.75 687.97,155.75 687.97,155.75 689.20,155.75 689.20,155.75 690.43,155.75 690.43,155.75 691.65,155.75 691.65,155.75 692.88,155.75 692.88,155.75 694.11,155.75 694.11,151.15 695.33,151.15 695.33,151.15 696.56,151.15 696.56,148.15 697.79,148.15 697.79,147.95 699.01,147.95 699.01,142.35 700.24,142.35 700.24,134.16 701.47,134.16 701.47,134.16 702.69,134.16 702.69,133.96 703.92,133.96 703.92,130.96 705.15,130.96 705.15,130.96 706.37,130.96 706.37,130.96 707.60,130.96 707.60,130.56 708.83,130.56 708.83,130.56 710.05,130.56 710.05,124.56 711.28,124.56 711.28,121.76 712.51,121.76 712.51,117.57 713.73,117.57 713.73,117.57 714.96,117.57 714.96,117.57 716.19,117.57 716.19,113.97 717.41,113.97 717.41,113.77 718.64,113.77 718.64,113.77 719.87,113.77 719.87,113.57 721.09,113.57 721.09,113.17 722.32,113.17 722.32,112.17 723.55,112.17 723.55,109.17 724.77,109.17 724.77,108.97 726.00,108.97 726.00,108.97 727.23,108.97 727.23,107.17 728.45,107.17 728.45,105.77 729.68,105.77 729.68,105.37 730.91,105.37 730.91,105.17 732.13,105.17 732.13,105.17 733.36,105.17 733.36,105.17 734.59,105.17 734.59,103.37 735.81,103.37 735.81,103.37 737.04,103.37 737.04,103.37 738.27,103.37 738.27,103.37 739.49,103.37 739.49,102.97 740.72,102.97 740.72,102.97 741.95,102.97 741.95,102.97 743.17,102.97 743.17,102.97 744.40,102.97 744.40,102.97 745.63,102.97 745.63,102.97 746.85,102.97 746.85,97.37 748.08,97.37 748.08,97.37 749.31,97.37 749.31,97.17 750.53,97.17 750.53,97.17 751.76,97.17 751.76,91.18 752.99,91.18 752.99,90.98 754.21,90.98 754.21,90.98 755.44,90.98 755.44,90.98 756.67,90.98 756.67,90.98 757.89,90.98 757.89,90.58 759.12,90.58 759.12,90.58 760.35,90.58 760.35,90.38 761.57,90.38 761.57,90.18 762.80,90.18 762.80,90.18 764.03,90.18 764.03,89.98 765.25,89.98 765.25,89.98 766.48,89.98 766.48,89.98 767.71,89.98 767.71,86.58 768.93,86.58 768.93,85.98 770.16,85.98 770.16,85.78 771.39,85.78 771.39,85.78 772.61,85.78 772.61,74.38 773.84,74.38 773.84,73.98 775.07,73.98 775.07,73.78 776.29,73.78 776.29,70.99 777.52,70.99 777.52,69.19 778.75,69.19 778.75,69.19 779.97,69.19 779.97,69.19 781.20,69.19 781.20,68.99 782.43,68.99 782.43,68.99 783.65,68.99 783.65,68.99 784.88,68.99 784.88,65.79 786.11,65.79 786.11,61.39 787.33,61.39 787.33,61.39 788.56,61.39 788.56,61.19 789.79,61.19 789.79,61.19 791.01,61.19 791.01,61.19 792.24,61.19 792.24,58.19 793.47,58.19 793.47,58.19 794.69,58.19 794.69,58.19 795.92,58.19 795.92,58.19 797.15,58.19 797.15,56.59 798.37,56.59 798.37,56.59 799.60,56.59 799.60,56.59 800.83,56.59 800.83,56.19 802.05,56.19 802.05,53.79 803.28,53.79 803.28,52.39 804.51,52.39 804.51,52.39 805.73,52.39 805.73,49.80 806.96,49.80 806.96,49.80 808.19,49.80 808.19,49.20 809.41,49.20 809.41,43.20 810.64,43.20 810.64,43.20 811.87,43.20 811.87,43.20 813.09,43.20 813.09,43.20 814.32,43.20 814.32,42.80 815.55,42.80 815.55,42.80 816.77,42.80 816.77,42.80 818.00,42.80 818.00,40.00" fill="none" stroke="#4b8f29" stroke-width="3"/>
<text x="450.0" y="552" text-anchor="middle" font-size="20" font-family="Arial, sans-serif" fill="#111827">Top displacement (mm)</text>
<text x="24" y="280.0" text-anchor="middle" transform="rotate(-90 24 280.0)" font-size="20" font-family="Arial, sans-serif" fill="#111827">Force magnitude (N)</text>
<text x="880" y="280.0" text-anchor="middle" transform="rotate(90 880 280.0)" font-size="20" font-family="Arial, sans-serif" fill="#111827">Broken bonds</text>
<text x="102" y="64" font-size="18" font-family="Arial, sans-serif" fill="#1b6ca8">Top plate</text>
<text x="212" y="64" font-size="18" font-family="Arial, sans-serif" fill="#d1495b">Bottom plate</text>
<text x="352" y="64" font-size="18" font-family="Arial, sans-serif" fill="#4b8f29">Broken bonds</text>
<text x="72" y="45" text-anchor="end" font-size="17" fill="#30363d">22.64</text>
<text x="72" y="488" text-anchor="end" font-size="17" fill="#30363d">0</text>
<text x="828" y="45" text-anchor="start" font-size="17" fill="#30363d">2241</text>
<text x="828" y="488" text-anchor="start" font-size="17" fill="#30363d">0</text>
</svg>
