<svg xmlns="http://www.w3.org/2000/svg" width="900" height="560" viewBox="0 0 900 560">
<rect width="100%" height="100%" fill="white"/>
<text x="450.0" y="26" text-anchor="middle" font-size="22" font-family="Arial, sans-serif" fill="#111827">SP-002 force-displacement and bond breakage</text>
<line x1="82" y1="40.00" x2="818" y2="40.00" stroke="#d9dee2" stroke-width="1"/><line x1="82" y1="129.60" x2="818" y2="129.60" stroke="#d9dee2" stroke-width="1"/><line x1="82" y1="219.20" x2="818" y2="219.20" stroke="#d9dee2" stroke-width="1"/><line x1="82" y1="308.80" x2="818" y2="308.80" stroke="#d9dee2" stroke-width="1"/><line x1="82" y1="398.40" x2="818" y2="398.40" stroke="#d9dee2" stroke-width="1"/><line x1="82" y1="488.00" x2="818" y2="488.00" stroke="#d9dee2" stroke-width="1"/><line x1="82.00" y1="40" x2="82.00" y2="488" stroke="#edf0f2" stroke-width="1"/><text x="82.00" y="526" text-anchor="middle" font-size="18" fill="#30363d">0.000</text><line x1="229.20" y1="40" x2="229.20" y2="488" stroke="#edf0f2" stroke-width="1"/><text x="229.20" y="526" text-anchor="middle" font-size="18" fill="#30363d">0.060</text><line x1="376.40" y1="40" x2="376.40" y2="488" stroke="#edf0f2" stroke-width="1"/><text x="376.40" y="526" text-anchor="middle" font-size="18" fill="#30363d">0.120</text><line x1="523.60" y1="40" x2="523.60" y2="488" stroke="#edf0f2" stroke-width="1"/><text x="523.60" y="526" text-anchor="middle" font-size="18" fill="#30363d">0.180</text><line x1="670.80" y1="40" x2="670.80" y2="488" stroke="#edf0f2" stroke-width="1"/><text x="670.80" y="526" text-anchor="middle" font-size="18" fill="#30363d">0.240</text><line x1="818.00" y1="40" x2="818.00" y2="488" stroke="#edf0f2" stroke-width="1"/><text x="818.00" y="526" text-anchor="middle" font-size="18" fill="#30363d">0.300</text>
<line x1="82" y1="40" x2="82" y2="488" stroke="#111827" stroke-width="1.5"/>
<line x1="82" y1="488" x2="818" y2="488" stroke="#111827" stroke-width="1.5"/>
<line x1="818" y1="40" x2="818" y2="488" stroke="#111827" stroke-width="1.5"/>
<polyline points="82.00,488.00 83.23,488.00 84.45,488.00 85.68,488.00 86.91,488.00 88.13,488.00 89.36,488.00 90.59,488.00 91.81,488.00 93.04,488.00 94.27,488.00 95.49,488.00 96.72,488.00 97.95,488.00 99.17,488.00 100.40,488.00 101.63,488.00 102.85,488.00 104.08,488.00 105.31,488.00 106.53,488.00 107.76,488.00 108.99,488.00 110.21,488.00 111.44,488.00 112.67,488.00 113.89,488.00 115.12,488.00 116.35,488.00 117.57,488.00 118.80,488.00 120.03,488.00 121.25,488.00 122.48,488.00 123.71,488.00 124.93,488.00 126.16,488.00 127.39,488.00 128.61,488.00 129.84,488.00 131.07,488.00 132.29,488.00 133.52,488.00 134.75,488.00 135.97,488.00 137.20,488.00 138.43,488.00 139.65,488.00 140.88,488.00 142.11,488.00 143.33,488.00 144.56,488.00 145.79,488.00 147.01,488.00 148.24,488.00 149.47,488.00 150.69,488.00 151.92,488.00 153.15,488.00 154.37,488.00 155.60,488.00 156.83,488.00 158.05,488.00 159.28,488.00 160.51,488.00 161.73,488.00 162.96,488.00 164.19,488.00 165.41,488.00 166.64,488.00 167.87,488.00 169.09,488.00 170.32,488.00 171.55,488.00 172.77,488.00 174.00,488.00 175.23,488.00 176.45,488.00 177.68,488.00 178.91,488.00 180.13,488.00 181.36,488.00 182.59,488.00 183.81,488.00 185.04,488.00 186.27,488.00 187.49,488.00 188.72,488.00 189.95,488.00 191.17,488.00 192.40,488.00 193.63,488.00 194.85,488.00 196.08,488.00 197.31,488.00 198.53,488.00 199.76,488.00 200.99,488.00 202.21,488.00 203.44,488.00 204.67,488.00 205.89,488.00 207.12,488.00 208.35,488.00 209.57,488.00 210.80,488.00 212.03,488.00 213.25,488.00 214.48,488.00 215.71,488.00 216.93,488.00 218.16,488.00 219.39,488.00 220.61,488.00 221.84,488.00 223.07,488.00 224.29,488.00 225.52,488.00 226.75,488.00 227.97,488.00 229.20,488.00 230.43,488.00 231.65,488.00 232.88,488.00 234.11,488.00 235.33,488.00 236.56,488.00 237.79,488.00 239.01,488.00 240.24,488.00 241.47,488.00 242.69,488.00 243.92,488.00 245.15,488.00 246.37,488.00 247.60,488.00 248.83,488.00 250.05,488.00 251.28,488.00 252.51,488.00 253.73,488.00 254.96,488.00 256.19,488.00 257.41,488.00 258.64,488.00 259.87,488.00 261.09,488.00 262.32,488.00 263.55,488.00 264.77,488.00 266.00,488.00 267.23,488.00 268.45,488.00 269.68,488.00 270.91,488.00 272.13,488.00 273.36,488.00 274.59,488.00 275.81,488.00 277.04,488.00 278.27,488.00 279.49,488.00 280.72,488.00 281.95,488.00 283.17,488.00 284.40,488.00 285.63,488.00 286.85,488.00 288.08,488.00 289.31,488.00 290.53,488.00 291.76,488.00 292.99,488.00 294.21,488.00 295.44,488.00 296.67,486.93 297.89,483.80 299.12,480.05 300.35,475.96 301.57,471.65 302.80,467.16 304.03,462.54 305.25,457.82 306.48,457.63 307.71,487.95 308.93,487.95 310.16,487.95 311.39,487.95 312.61,487.95 313.84,487.95 315.07,487.92 316.29,485.26 317.52,481.39 318.75,476.98 319.97,472.22 321.20,467.20 322.43,461.99 323.65,455.43 324.88,446.11 326.11,435.86 327.33,471.43 328.56,463.52 329.79,456.11 331.01,449.07 332.24,440.05 333.47,427.48 334.69,413.75 335.92,438.09 337.15,445.89 338.37,443.47 339.60,438.66 340.83,432.70 342.05,425.53 343.28,416.49 344.51,406.62 345.73,401.04 346.96,440.26 348.19,452.82 349.41,458.56 350.64,461.45 351.87,462.99 353.09,463.84 354.32,464.32 355.55,464.59 356.77,464.75 358.00,464.84 359.23,464.84 360.45,463.97 361.68,462.22 362.91,459.90 364.13,457.18 365.36,453.47 366.59,449.18 367.81,444.62 369.04,439.87 370.27,434.96 371.49,429.92 372.72,424.75 373.95,433.32 375.17,448.02 376.40,451.77 377.63,452.15 378.85,455.71 380.08,456.99 381.31,455.90 382.53,453.62 383.76,450.66 384.99,447.29 386.21,443.65 387.44,439.80 388.67,435.50 389.89,430.56 391.12,425.46 392.35,420.21 393.57,414.80 394.80,409.25 396.03,402.98 397.25,395.46 398.48,388.11 399.71,431.88 400.93,432.73 402.16,426.97 403.39,419.27 404.61,410.20 405.84,400.31 407.07,389.39 408.29,377.78 409.52,365.67 410.75,356.05 411.97,363.69 413.20,359.49 414.43,349.24 415.65,337.88 416.88,374.36 418.11,424.90 419.33,446.94 420.56,453.84 421.79,455.43 423.01,454.73 424.24,452.71 425.47,449.03 426.69,443.92 427.92,438.13 429.15,434.23 430.37,438.90 431.60,438.82 432.83,439.67 434.05,437.96 435.28,434.54 436.51,430.47 437.73,426.51 438.96,422.28 440.19,416.77 441.41,410.56 442.64,430.98 443.87,427.78 445.09,421.29 446.32,414.06 447.55,406.48 448.77,398.62 450.00,390.51 451.23,392.84 452.45,392.72 453.68,383.82 454.91,373.63 456.13,410.60 457.36,391.82 458.59,387.92 459.81,379.43 461.04,369.91 462.27,359.75 463.49,445.70 464.72,441.06 465.95,436.29 467.17,431.42 468.40,457.62 469.63,467.59 470.85,472.04 472.08,474.23 473.31,475.37 474.53,475.75 475.76,474.59 476.99,471.97 478.21,466.05 479.44,460.07 480.67,454.49 481.89,448.66 483.12,442.03 484.35,434.81 485.57,427.16 486.80,417.80 488.03,407.63 489.25,397.11 490.48,413.89 491.71,417.46 492.93,412.35 494.16,403.68 495.39,393.57 496.61,382.76 497.84,371.51 499.07,359.91 500.29,351.65 501.52,396.31 502.75,436.98 503.97,431.25 505.20,423.74 506.43,411.99 507.65,400.45 508.88,389.02 510.11,377.34 511.33,365.78 512.56,390.92 513.79,382.51 515.01,371.27 516.24,359.46 517.47,347.31 518.69,334.86 519.92,361.15 521.15,363.63 522.37,356.13 523.60,346.60 524.83,336.35 526.05,332.26 527.28,400.12 528.51,386.03 529.73,367.97 530.96,354.78 532.19,342.68 533.41,330.36 534.64,317.67 535.87,304.31 537.09,292.00 538.32,277.62 539.55,268.86 540.77,350.59 542.00,312.36 543.23,294.50 544.45,280.33 545.68,266.64 546.91,252.84 548.13,241.32 549.36,231.05 550.59,258.30 551.81,409.51 553.04,423.36 554.27,426.35 555.49,425.78 556.72,422.74 557.95,418.46 559.17,413.56 560.40,408.16 561.63,401.45 562.85,393.46 564.08,383.03 565.31,371.52 566.53,359.67 567.76,347.54 568.99,335.14 570.21,322.52 571.44,309.67 572.67,294.77 573.89,278.24 575.12,289.74 576.35,307.29 577.57,296.08 578.80,281.12 580.03,265.55 581.25,326.16 582.48,395.98 583.71,439.75 584.93,442.56 586.16,439.69 587.39,435.76 588.61,431.57 589.84,427.23 591.07,422.60 592.29,417.79 593.52,412.58 594.75,407.15 595.97,401.50 597.20,395.69 598.43,389.39 599.65,382.36 600.88,374.95 602.11,367.48 603.33,360.04 604.56,408.75 605.79,408.16 607.01,389.86 608.24,378.94 609.47,368.68 610.69,357.51 611.92,345.31 613.15,332.38 614.37,318.93 615.60,305.06 616.83,290.82 618.05,276.23 619.28,261.37 620.51,245.85 621.73,229.78 622.96,213.33 624.19,196.49 625.41,179.24 626.64,161.64 627.87,280.22 629.09,377.41 630.32,452.48 631.55,450.29 632.77,482.64 634.00,478.27 635.23,474.91 636.45,471.35 637.68,467.75 638.91,462.50 640.13,456.73 641.36,452.03 642.59,447.96 643.81,443.62 645.04,438.05 646.27,431.56 647.49,423.43 648.72,414.66 649.95,405.26 651.17,395.14 652.40,384.21 653.63,372.23 654.85,359.78 656.08,346.92 657.31,333.64 658.53,319.98 659.76,337.78 660.99,320.79 662.21,308.06 663.44,295.41 664.67,282.41 665.89,298.04 667.12,312.65 668.35,306.59 669.57,297.93 670.80,288.94 672.03,278.39 673.25,267.07 674.48,255.50 675.71,243.70 676.93,231.71 678.16,219.44 679.39,206.91 680.61,194.69 681.84,182.57 683.07,296.47 684.29,300.96 685.52,291.78 686.75,279.40 687.97,265.86 689.20,252.50 690.43,247.20 691.65,342.23 692.88,338.81 694.11,325.32 695.33,309.83 696.56,292.98 697.79,274.89 699.01,259.08 700.24,243.46 701.47,224.21 702.69,253.25 703.92,244.87 705.15,229.16 706.37,290.16 707.60,289.04 708.83,280.98 710.05,267.72 711.28,251.92 712.51,234.00 713.73,213.87 714.96,192.35 716.19,184.38 717.41,245.22 718.64,238.12 719.87,223.58 721.09,205.34 722.32,186.32 723.55,166.83 724.77,146.97 726.00,126.77 727.23,145.49 728.45,131.24 729.68,198.39 730.91,209.17 732.13,202.81 733.36,194.42 734.59,183.57 735.81,171.42 737.04,157.99 738.27,140.99 739.49,121.72 740.72,106.71 741.95,149.61 743.17,205.42 744.40,214.33 745.63,205.68 746.85,193.65 748.08,198.38 749.31,261.45 750.53,239.12 751.76,229.47 752.99,216.97 754.21,203.66 755.44,236.85 756.67,215.84 757.89,214.57 759.12,208.52 760.35,199.91 761.57,258.32 762.80,280.08 764.03,307.53 765.25,307.67 766.48,304.24 767.71,299.14 768.93,292.63 770.16,317.72 771.39,324.27 772.61,325.76 773.84,319.71 775.07,310.59 776.29,300.73 777.52,291.03 778.75,280.51 779.97,268.14 781.20,254.43 782.43,239.68 783.65,224.67 784.88,209.47 786.11,193.60 787.33,233.78 788.56,221.88 789.79,209.30 791.01,195.62 792.24,181.28 793.47,167.10 794.69,153.33 795.92,139.81 797.15,126.44 798.37,113.23 799.60,99.46 800.83,85.23 802.05,71.30 803.28,55.70 804.51,40.00 805.73,157.43 806.96,203.83 808.19,174.68 809.41,162.98 810.64,150.13 811.87,134.55 813.09,116.76 814.32,98.83 815.55,81.19 816.77,64.06 818.00,47.12" fill="none" stroke="#1b6ca8" stroke-width="3"/>
<polyline points="82.00,488.00 83.23,488.00 84.45,488.00 85.68,488.00 86.91,488.00 88.13,488.00 89.36,488.00 90.59,488.00 91.81,488.00 93.04,488.00 94.27,488.00 95.49,488.00 96.72,488.00 97.95,488.00 99.17,488.00 100.40,488.00 101.63,488.00 102.85,488.00 104.08,488.00 105.31,488.00 106.53,488.00 107.76,488.00 108.99,488.00 110.21,488.00 111.44,488.00 112.67,488.00 113.89,488.00 115.12,488.00 116.35,488.00 117.57,488.00 118.80,488.00 120.03,488.00 121.25,488.00 122.48,488.00 123.71,488.00 124.93,488.00 126.16,488.00 127.39,488.00 128.61,488.00 129.84,488.00 131.07,488.00 132.29,488.00 133.52,488.00 134.75,488.00 135.97,488.00 137.20,488.00 138.43,488.00 139.65,488.00 140.88,488.00 142.11,488.00 143.33,488.00 144.56,488.00 145.79,488.00 147.01,488.00 148.24,488.00 149.47,488.00 150.69,488.00 151.92,488.00 153.15,488.00 154.37,488.00 155.60,488.00 156.83,488.00 158.05,488.00 159.28,488.00 160.51,488.00 161.73,488.00 162.96,488.00 164.19,488.00 165.41,488.00 166.64,488.00 167.87,488.00 169.09,488.00 170.32,488.00 171.55,488.00 172.77,488.00 174.00,488.00 175.23,488.00 176.45,488.00 177.68,488.00 178.91,488.00 180.13,488.00 181.36,488.00 182.59,488.00 183.81,488.00 185.04,488.00 186.27,488.00 187.49,488.00 188.72,488.00 189.95,488.00 191.17,488.00 192.40,488.00 193.63,488.00 194.85,488.00 196.08,488.00 197.31,488.00 198.53,488.00 199.76,488.00 200.99,488.00 202.21,488.00 203.44,488.00 204.67,488.00 205.89,488.00 207.12,488.00 208.35,488.00 209.57,488.00 210.80,488.00 212.03,488.00 213.25,488.00 214.48,488.00 215.71,488.00 216.93,488.00 218.16,488.00 219.39,488.00 220.61,488.00 221.84,488.00 223.07,488.00 224.29,488.00 225.52,488.00 226.75,488.00 227.97,488.00 229.20,488.00 230.43,488.00 231.65,488.00 232.88,488.00 234.11,488.00 235.33,488.00 236.56,488.00 237.79,488.00 239.01,488.00 240.24,488.00 241.47,488.00 242.69,488.00 243.92,488.00 245.15,488.00 246.37,488.00 247.60,488.00 248.83,488.00 250.05,488.00 251.28,488.00 252.51,488.00 253.73,488.00 254.96,488.00 256.19,488.00 257.41,488.00 258.64,488.00 259.87,488.00 261.09,488.00 262.32,488.00 263.55,488.00 264.77,488.00 266.00,488.00 267.23,488.00 268.45,488.00 269.68,488.00 270.91,488.00 272.13,488.00 273.36,488.00 274.59,488.00 275.81,488.00 277.04,488.00 278.27,488.00 279.49,488.00 280.72,488.00 281.95,488.00 283.17,488.00 284.40,488.00 285.63,488.00 286.85,488.00 288.08,488.00 289.31,488.00 290.53,488.00 291.76,488.00 292.99,488.00 294.21,488.00 295.44,488.00 296.67,487.55 297.89,484.99 299.12,481.46 300.35,477.47 301.57,473.21 302.80,468.76 304.03,464.17 305.25,459.47 306.48,457.09 307.71,484.91 308.93,487.66 310.16,487.95 311.39,488.00 312.61,487.98 313.84,487.98 315.07,487.98 316.29,486.40 317.52,482.92 318.75,478.69 319.97,474.02 321.20,469.07 322.43,463.90 323.65,458.17 324.88,449.88 326.11,440.17 327.33,457.62 328.56,466.27 329.79,459.86 331.01,453.08 332.24,445.28 333.47,433.46 334.69,420.17 335.92,473.50 337.15,467.61 338.37,461.33 339.60,454.73 340.83,447.85 342.05,440.53 343.28,431.59 344.51,421.77 345.73,457.70 346.96,488.00 348.19,488.00 349.41,488.00 350.64,488.00 351.87,488.00 353.09,488.00 354.32,488.00 355.55,488.00 356.77,488.00 358.00,488.00 359.23,487.43 360.45,484.83 361.68,481.96 362.91,479.04 364.13,475.74 365.36,471.81 366.59,467.57 367.81,463.06 369.04,458.34 370.27,453.46 371.49,448.44 372.72,443.30 373.95,470.98 375.17,477.01 376.40,475.85 377.63,473.04 378.85,482.85 380.08,479.50 381.31,476.10 382.53,472.62 383.76,469.02 384.99,465.30 386.21,461.46 387.44,457.49 388.67,453.38 389.89,448.82 391.12,443.91 392.35,438.75 393.57,433.39 394.80,427.84 396.03,419.70 397.25,410.75 398.48,478.72 399.71,465.67 400.93,451.92 402.16,442.02 403.39,433.15 404.61,424.23 405.84,414.07 407.07,402.90 408.29,391.20 409.52,379.06 410.75,369.96 411.97,391.30 413.20,376.06 414.43,364.02 415.65,352.37 416.88,435.26 418.11,487.93 419.33,487.03 420.56,482.53 421.79,478.92 423.01,475.83 424.24,471.33 425.47,465.29 426.69,459.18 427.92,452.96 429.15,460.67 430.37,461.90 431.60,464.23 432.83,461.13 434.05,457.35 435.28,453.28 436.51,448.91 437.73,447.66 438.96,441.54 440.19,435.12 441.41,447.87 442.64,455.57 443.87,445.56 445.09,438.20 446.32,430.88 447.55,423.27 448.77,415.41 450.00,407.30 451.23,426.34 452.45,408.87 453.68,397.71 454.91,386.84 456.13,392.11 457.36,398.36 458.59,401.92 459.81,391.28 461.04,381.46 462.27,371.50 463.49,411.34 464.72,432.35 465.95,435.85 467.17,434.25 468.40,484.90 469.63,485.64 470.85,486.02 472.08,486.32 473.31,486.58 474.53,485.29 475.76,482.18 476.99,479.00 478.21,475.58 479.44,471.71 480.67,467.35 481.89,461.02 483.12,453.95 484.35,446.47 485.57,438.65 486.80,430.16 488.03,420.60 489.25,410.31 490.48,450.95 491.71,441.33 492.93,428.67 494.16,417.25 495.39,406.22 496.61,395.11 497.84,383.75 499.07,372.11 500.29,360.33 501.52,377.39 502.75,417.84 503.97,426.68 505.20,425.31 506.43,419.17 507.65,410.28 508.88,399.82 510.11,388.38 511.33,444.61 512.56,408.27 513.79,394.62 515.01,382.80 516.24,370.88 517.47,358.69 518.69,346.21 519.92,393.88 521.15,380.31 522.37,370.12 523.60,359.94 524.83,349.52 526.05,340.04 527.28,332.53 528.51,376.34 529.73,376.76 530.96,367.46 532.19,356.10 533.41,344.04 534.64,331.53 535.87,318.51 537.09,305.84 538.32,292.13 539.55,282.12 540.77,306.72 542.00,315.28 543.23,306.07 544.45,293.74 545.68,280.54 546.91,266.94 548.13,261.99 549.36,245.91 550.59,324.91 551.81,430.58 553.04,439.54 554.27,440.98 555.49,436.87 556.72,432.29 557.95,427.58 559.17,422.59 560.40,416.69 561.63,408.91 562.85,400.42 564.08,390.87 565.31,380.21 566.53,368.81 567.76,356.89 568.99,344.58 570.21,331.99 571.44,318.81 572.67,303.64 573.89,287.77 575.12,289.76 576.35,321.64 577.57,305.03 578.80,290.61 580.03,275.71 581.25,268.03 582.48,459.19 583.71,463.61 584.93,460.69 586.16,457.25 587.39,453.28 588.61,449.13 589.84,445.03 591.07,440.85 592.29,435.62 593.52,430.07 594.75,424.49 595.97,418.88 597.20,412.97 598.43,406.25 599.65,398.91 600.88,391.50 602.11,384.12 603.33,376.82 604.56,381.90 605.79,403.13 607.01,402.88 608.24,395.04 609.47,384.62 610.69,373.01 611.92,360.42 613.15,347.35 614.37,333.82 615.60,319.91 616.83,305.66 618.05,291.14 619.28,276.01 620.51,260.31 621.73,244.18 622.96,227.69 624.19,210.81 625.41,193.55 626.64,175.94 627.87,201.87 629.09,315.10 630.32,380.29 631.55,422.38 632.77,452.73 634.00,464.78 635.23,469.68 636.45,471.70 637.68,472.15 638.91,471.40 640.13,469.52 641.36,466.91 642.59,463.76 643.81,458.23 645.04,451.47 646.27,444.33 647.49,436.31 648.72,427.31 649.95,417.67 651.17,407.50 652.40,396.79 653.63,385.25 654.85,373.02 656.08,360.25 657.31,347.02 658.53,333.39 659.76,334.61 660.99,330.08 662.21,318.73 663.44,306.26 664.67,293.36 665.89,344.43 667.12,328.40 668.35,320.14 669.57,311.94 670.80,303.31 672.03,293.88 673.25,283.33 674.48,272.05 675.71,260.34 676.93,248.35 678.16,236.09 679.39,223.50 680.61,211.44 681.84,284.53 683.07,336.72 684.29,322.08 685.52,308.09 686.75,294.53 687.97,282.10 689.20,267.38 690.43,383.55 691.65,368.21 692.88,351.56 694.11,337.19 695.33,321.56 696.56,304.76 697.79,286.79 699.01,278.00 700.24,256.09 701.47,236.67 702.69,280.02 703.92,258.87 705.15,244.56 706.37,326.54 707.60,311.62 708.83,299.87 710.05,284.26 711.28,267.11 712.51,247.00 713.73,225.35 714.96,203.43 716.19,249.64 717.41,263.87 718.64,255.24 719.87,236.53 721.09,217.95 722.32,198.88 723.55,179.39 724.77,159.51 726.00,139.28 727.23,153.17 728.45,142.03 729.68,209.19 730.91,217.96 732.13,211.73 733.36,203.67 734.59,193.34 735.81,181.18 737.04,167.70 738.27,151.72 739.49,133.32 740.72,186.97 741.95,218.19 743.17,250.95 744.40,237.25 745.63,223.81 746.85,210.53 748.08,224.20 749.31,260.86 750.53,259.52 751.76,248.14 752.99,234.67 754.21,220.82 755.44,213.13 756.67,232.09 757.89,230.51 759.12,225.35 760.35,216.33 761.57,287.49 762.80,343.51 764.03,338.69 765.25,335.13 766.48,328.41 767.71,320.86 768.93,312.70 770.16,348.51 771.39,353.58 772.61,341.35 773.84,334.61 775.07,324.03 776.29,313.31 777.52,302.66 778.75,292.09 779.97,280.31 781.20,267.43 782.43,253.57 783.65,239.00 784.88,223.98 786.11,207.89 787.33,246.58 788.56,237.17 789.79,223.59 791.01,209.54 792.24,195.09 793.47,181.28 794.69,167.79 795.92,154.46 797.15,141.18 798.37,127.92 799.60,113.51 800.83,98.56 802.05,84.19 803.28,68.46 804.51,52.77 805.73,138.19 806.96,162.68 808.19,175.87 809.41,167.32 810.64,155.76 811.87,142.13 813.09,127.15 814.32,110.90 815.55,94.27 816.77,77.84 818.00,61.30" fill="none" stroke="#d1495b" stroke-width="3"/>
<polyline points="82.00,488.00 83.23,488.00 83.23,488.00 84.45,488.00 84.45,488.00 85.68,488.00 85.68,488.00 86.91,488.00 86.91,488.00 88.13,488.00 88.13,488.00 89.36,488.00 89.36,488.00 90.59,488.00 90.59,488.00 91.81,488.00 91.81,488.00 93.04,488.00 93.04,488.00 94.27,488.00 94.27,488.00 95.49,488.00 95.49,488.00 96.72,488.00 96.72,488.00 97.95,488.00 97.95,488.00 99.17,488.00 99.17,488.00 100.40,488.00 100.40,488.00 101.63,488.00 101.63,488.00 102.85,488.00 102.85,488.00 104.08,488.00 104.08,488.00 105.31,488.00 105.31,488.00 106.53,488.00 106.53,488.00 107.76,488.00 107.76,488.00 108.99,488.00 108.99,488.00 110.21,488.00 110.21,488.00 111.44,488.00 111.44,488.00 112.67,488.00 112.67,488.00 113.89,488.00 113.89,488.00 115.12,488.00 115.12,488.00 116.35,488.00 116.35,488.00 117.57,488.00 117.57,488.00 118.80,488.00 118.80,488.00 120.03,488.00 120.03,488.00 121.25,488.00 121.25,488.00 122.48,488.00 122.48,488.00 123.71,488.00 123.71,488.00 124.93,488.00 124.93,488.00 126.16,488.00 126.16,488.00 127.39,488.00 127.39,488.00 128.61,488.00 128.61,488.00 129.84,488.00 129.84,488.00 131.07,488.00 131.07,488.00 132.29,488.00 132.29,488.00 133.52,488.00 133.52,488.00 134.75,488.00 134.75,488.00 135.97,488.00 135.97,488.00 137.20,488.00 137.20,488.00 138.43,488.00 138.43,488.00 139.65,488.00 139.65,488.00 140.88,488.00 140.88,488.00 142.11,488.00 142.11,488.00 143.33,488.00 143.33,488.00 144.56,488.00 144.56,488.00 145.79,488.00 145.79,488.00 147.01,488.00 147.01,488.00 148.24,488.00 148.24,488.00 149.47,488.00 149.47,488.00 150.69,488.00 150.69,488.00 151.92,488.00 151.92,488.00 153.15,488.00 153.15,488.00 154.37,488.00 154.37,488.00 155.60,488.00 155.60,488.00 156.83,488.00 156.83,488.00 158.05,488.00 158.05,488.00 159.28,488.00 159.28,488.00 160.51,488.00 160.51,488.00 161.73,488.00 161.73,488.00 162.96,488.00 162.96,488.00 164.19,488.00 164.19,488.00 165.41,488.00 165.41,488.00 166.64,488.00 166.64,488.00 167.87,488.00 167.87,488.00 169.09,488.00 169.09,488.00 170.32,488.00 170.32,488.00 171.55,488.00 171.55,488.00 172.77,488.00 172.77,488.00 174.00,488.00 174.00,488.00 175.23,488.00 175.23,488.00 176.45,488.00 176.45,488.00 177.68,488.00 177.68,488.00 178.91,488.00 178.91,488.00 180.13,488.00 180.13,488.00 181.36,488.00 181.36,488.00 182.59,488.00 182.59,488.00 183.81,488.00 183.81,488.00 185.04,488.00 185.04,488.00 186.27,488.00 186.27,488.00 187.49,488.00 187.49,488.00 188.72,488.00 188.72,488.00 189.95,488.00 189.95,488.00 191.17,488.00 191.17,488.00 192.40,488.00 192.40,488.00 193.63,488.00 193.63,488.00 194.85,488.00 194.85,488.00 196.08,488.00 196.08,488.00 197.31,488.00 197.31,488.00 198.53,488.00 198.53,488.00 199.76,488.00 199.76,488.00 200.99,488.00 200.99,488.00 202.21,488.00 202.21,488.00 203.44,488.00 203.44,488.00 204.67,488.00 204.67,488.00 205.89,488.00 205.89,488.00 207.12,488.00 207.12,488.00 208.35,488.00 208.35,488.00 209.57,488.00 209.57,488.00 210.80,488.00 210.80,488.00 212.03,488.00 212.03,488.00 213.25,488.00 213.25,488.00 214.48,488.00 214.48,488.00 215.71,488.00 215.71,488.00 216.93,488.00 216.93,488.00 218.16,488.00 218.16,488.00 219.39,488.00 219.39,488.00 220.61,488.00 220.61,488.00 221.84,488.00 221.84,488.00 223.07,488.00 223.07,488.00 224.29,488.00 224.29,488.00 225.52,488.00 225.52,488.00 226.75,488.00 226.75,488.00 227.97,488.00 227.97,488.00 229.20,488.00 229.20,488.00 230.43,488.00 230.43,488.00 231.65,488.00 231.65,488.00 232.88,488.00 232.88,488.00 234.11,488.00 234.11,488.00 235.33,488.00 235.33,488.00 236.56,488.00 236.56,488.00 237.79,488.00 237.79,488.00 239.01,488.00 239.01,488.00 240.24,488.00 240.24,488.00 241.47,488.00 241.47,488.00 242.69,488.00 242.69,488.00 243.92,488.00 243.92,488.00 245.15,488.00 245.15,488.00 246.37,488.00 246.37,488.00 247.60,488.00 247.60,488.00 248.83,488.00 248.83,488.00 250.05,488.00 250.05,488.00 251.28,488.00 251.28,488.00 252.51,488.00 252.51,488.00 253.73,488.00 253.73,488.00 254.96,488.00 254.96,488.00 256.19,488.00 256.19,488.00 257.41,488.00 257.41,488.00 258.64,488.00 258.64,488.00 259.87,488.00 259.87,488.00 261.09,488.00 261.09,488.00 262.32,488.00 262.32,488.00 263.55,488.00 263.55,488.00 264.77,488.00 264.77,488.00 266.00,488.00 266.00,488.00 267.23,488.00 267.23,488.00 268.45,488.00 268.45,488.00 269.68,488.00 269.68,488.00 270.91,488.00 270.91,488.00 272.13,488.00 272.13,488.00 273.36,488.00 273.36,488.00 274.59,488.00 274.59,488.00 275.81,488.00 275.81,488.00 277.04,488.00 277.04,488.00 278.27,488.00 278.27,488.00 279.49,488.00 279.49,488.00 280.72,488.00 280.72,488.00 281.95,488.00 281.95,488.00 283.17,488.00 283.17,488.00 284.40,488.00 284.40,488.00 285.63,488.00 285.63,488.00 286.85,488.00 286.85,488.00 288.08,488.00 288.08,488.00 289.31,488.00 289.31,488.00 290.53,488.00 290.53,488.00 291.76,488.00 291.76,488.00 292.99,488.00 292.99,488.00 294.21,488.00 294.21,488.00 295.44,488.00 295.44,488.00 296.67,488.00 296.67,488.00 297.89,488.00 297.89,488.00 299.12,488.00 299.12,488.00 300.35,488.00 300.35,488.00 301.57,488.00 301.57,488.00 302.80,488.00 302.80,488.00 304.03,488.00 304.03,488.00 305.25,488.00 305.25,488.00 306.48,488.00 306.48,487.40 307.71,487.40 307.71,483.78 308.93,483.78 308.93,483.78 310.16,483.78 310.16,483.78 311.39,483.78 311.39,483.78 312.61,483.78 312.61,483.78 313.84,483.78 313.84,483.78 315.07,483.78 315.07,483.78 316.29,483.78 316.29,483.78 317.52,483.78 317.52,483.78 318.75,483.78 318.75,483.78 319.97,483.78 319.97,483.78 321.20,483.78 321.20,483.78 322.43,483.78 322.43,483.78 323.65,483.78 323.65,483.78 324.88,483.78 324.88,483.78 326.11,483.78 326.11,483.18 327.33,483.18 327.33,478.35 328.56,478.35 328.56,477.75 329.79,477.75 329.79,477.15 331.01,477.15 331.01,475.94 332.24,475.94 332.24,475.94 333.47,475.94 333.47,475.94 334.69,475.94 334.69,475.94 335.92,475.94 335.92,475.94 337.15,475.94 337.15,475.94 338.37,475.94 338.37,475.94 339.60,475.94 339.60,475.94 340.83,475.94 340.83,475.94 342.05,475.94 342.05,475.94 343.28,475.94 343.28,475.94 344.51,475.94 344.51,475.94 345.73,475.94 345.73,475.94 346.96,475.94 346.96,475.94 348.19,475.94 348.19,475.94 349.41,475.94 349.41,475.94 350.64,475.94 350.64,475.94 351.87,475.94 351.87,475.94 353.09,475.94 353.09,475.94 354.32,475.94 354.32,475.94 355.55,475.94 355.55,475.94 356.77,475.94 356.77,475.94 358.00,475.94 358.00,475.94 359.23,475.94 359.23,475.94 360.45,475.94 360.45,475.94 361.68,475.94 361.68,475.94 362.91,475.94 362.91,475.94 364.13,475.94 364.13,475.94 365.36,475.94 365.36,475.94 366.59,475.94 366.59,475.94 367.81,475.94 367.81,475.94 369.04,475.94 369.04,475.94 370.27,475.94 370.27,475.94 371.49,475.94 371.49,475.94 372.72,475.94 372.72,475.94 373.95,475.94 373.95,472.32 375.17,472.32 375.17,471.12 376.40,471.12 376.40,471.12 377.63,471.12 377.63,471.12 378.85,471.12 378.85,468.10 380.08,468.10 380.08,468.10 381.31,468.10 381.31,468.10 382.53,468.10 382.53,468.10 383.76,468.10 383.76,468.10 384.99,468.10 384.99,468.10 386.21,468.10 386.21,468.10 387.44,468.10 387.44,468.10 388.67,468.10 388.67,468.10 389.89,468.10 389.89,468.10 391.12,468.10 391.12,468.10 392.35,468.10 392.35,468.10 393.57,468.10 393.57,468.10 394.80,468.10 394.80,468.10 396.03,468.10 396.03,468.10 397.25,468.10 397.25,468.10 398.48,468.10 398.48,461.47 399.71,461.47 399.71,461.47 400.93,461.47 400.93,461.47 402.16,461.47 402.16,461.47 403.39,461.47 403.39,461.47 404.61,461.47 404.61,461.47 405.84,461.47 405.84,461.47 407.07,461.47 407.07,461.47 408.29,461.47 408.29,461.47 409.52,461.47 409.52,461.47 410.75,461.47 410.75,460.87 411.97,460.87 411.97,456.04 413.20,456.04 413.20,456.04 414.43,456.04 414.43,456.04 415.65,456.04 415.65,456.04 416.88,456.04 416.88,447.60 418.11,447.60 418.11,441.57 419.33,441.57 419.33,441.57 420.56,441.57 420.56,441.57 421.79,441.57 421.79,441.57 423.01,441.57 423.01,441.57 424.24,441.57 424.24,441.57 425.47,441.57 425.47,441.57 426.69,441.57 426.69,441.57 427.92,441.57 427.92,441.57 429.15,441.57 429.15,440.37 430.37,440.37 430.37,439.76 431.60,439.76 431.60,439.16 432.83,439.16 432.83,439.16 434.05,439.16 434.05,439.16 435.28,439.16 435.28,439.16 436.51,439.16 436.51,439.16 437.73,439.16 437.73,438.56 438.96,438.56 438.96,438.56 440.19,438.56 440.19,438.56 441.41,438.56 441.41,436.75 442.64,436.75 442.64,433.73 443.87,433.73 443.87,433.73 445.09,433.73 445.09,433.73 446.32,433.73 446.32,433.73 447.55,433.73 447.55,433.73 448.77,433.73 448.77,433.73 450.00,433.73 450.00,433.73 451.23,433.73 451.23,429.51 452.45,429.51 452.45,429.51 453.68,429.51 453.68,429.51 454.91,429.51 454.91,429.51 456.13,429.51 456.13,422.88 457.36,422.88 457.36,422.88 458.59,422.88 458.59,422.88 459.81,422.88 459.81,422.88 461.04,422.88 461.04,422.88 462.27,422.88 462.27,422.88 463.49,422.88 463.49,415.64 464.72,415.64 464.72,415.64 465.95,415.64 465.95,415.64 467.17,415.64 467.17,415.64 468.40,415.64 468.40,410.22 469.63,410.22 469.63,410.22 470.85,410.22 470.85,410.22 472.08,410.22 472.08,410.22 473.31,410.22 473.31,410.22 474.53,410.22 474.53,410.22 475.76,410.22 475.76,410.22 476.99,410.22 476.99,410.22 478.21,410.22 478.21,410.22 479.44,410.22 479.44,410.22 480.67,410.22 480.67,410.22 481.89,410.22 481.89,410.22 483.12,410.22 483.12,410.22 484.35,410.22 484.35,410.22 485.57,410.22 485.57,410.22 486.80,410.22 486.80,410.22 488.03,410.22 488.03,410.22 489.25,410.22 489.25,410.22 490.48,410.22 490.48,404.79 491.71,404.79 491.71,404.79 492.93,404.79 492.93,404.79 494.16,404.79 494.16,404.79 495.39,404.79 495.39,404.79 496.61,404.79 496.61,404.79 497.84,404.79 497.84,404.79 499.07,404.79 499.07,404.79 500.29,404.79 500.29,404.19 501.52,404.19 501.52,398.76 502.75,398.76 502.75,393.94 503.97,393.94 503.97,393.94 505.20,393.94 505.20,393.94 506.43,393.94 506.43,393.94 507.65,393.94 507.65,393.94 508.88,393.94 508.88,393.94 510.11,393.94 510.11,393.94 511.33,393.94 511.33,387.31 512.56,387.31 512.56,387.31 513.79,387.31 513.79,387.31 515.01,387.31 515.01,387.31 516.24,387.31 516.24,387.31 517.47,387.31 517.47,387.31 518.69,387.31 518.69,387.31 519.92,387.31 519.92,380.67 521.15,380.67 521.15,380.67 522.37,380.67 522.37,380.67 523.60,380.67 523.60,380.67 524.83,380.67 524.83,380.67 526.05,380.67 526.05,379.47 527.28,379.47 527.28,374.04 528.51,374.04 528.51,374.04 529.73,374.04 529.73,374.04 530.96,374.04 530.96,374.04 532.19,374.04 532.19,374.04 533.41,374.04 533.41,374.04 534.64,374.04 534.64,374.04 535.87,374.04 535.87,374.04 537.09,374.04 537.09,373.44 538.32,373.44 538.32,373.44 539.55,373.44 539.55,371.03 540.77,371.03 540.77,359.57 542.00,359.57 542.00,359.57 543.23,359.57 543.23,359.57 544.45,359.57 544.45,359.57 545.68,359.57 545.68,359.57 546.91,359.57 546.91,359.57 548.13,359.57 548.13,357.76 549.36,357.76 549.36,357.76 550.59,357.76 550.59,348.72 551.81,348.72 551.81,336.05 553.04,336.05 553.04,336.05 554.27,336.05 554.27,336.05 555.49,336.05 555.49,336.05 556.72,336.05 556.72,336.05 557.95,336.05 557.95,336.05 559.17,336.05 559.17,336.05 560.40,336.05 560.40,336.05 561.63,336.05 561.63,336.05 562.85,336.05 562.85,336.05 564.08,336.05 564.08,336.05 565.31,336.05 565.31,336.05 566.53,336.05 566.53,336.05 567.76,336.05 567.76,336.05 568.99,336.05 568.99,336.05 570.21,336.05 570.21,336.05 571.44,336.05 571.44,336.05 572.67,336.05 572.67,336.05 573.89,336.05 573.89,336.05 575.12,336.05 575.12,330.02 576.35,330.02 576.35,323.99 577.57,323.99 577.57,323.99 578.80,323.99 578.80,323.99 580.03,323.99 580.03,323.99 581.25,323.99 581.25,317.36 582.48,317.36 582.48,304.10 583.71,304.10 583.71,304.10 584.93,304.10 584.93,304.10 586.16,304.10 586.16,304.10 587.39,304.10 587.39,304.10 588.61,304.10 588.61,304.10 589.84,304.10 589.84,304.10 591.07,304.10 591.07,304.10 592.29,304.10 592.29,304.10 593.52,304.10 593.52,304.10 594.75,304.10 594.75,304.10 595.97,304.10 595.97,304.10 597.20,304.10 597.20,304.10 598.43,304.10 598.43,304.10 599.65,304.10 599.65,304.10 600.88,304.10 600.88,304.10 602.11,304.10 602.11,304.10 603.33,304.10 603.33,304.10 604.56,304.10 604.56,297.46 605.79,297.46 605.79,293.85 607.01,293.85 607.01,293.85 608.24,293.85 608.24,293.85 609.47,293.85 609.47,293.85 610.69,293.85 610.69,293.85 611.92,293.85 611.92,293.85 613.15,293.85 613.15,293.85 614.37,293.85 614.37,293.85 615.60,293.85 615.60,293.85 616.83,293.85 616.83,293.85 618.05,293.85 618.05,293.85 619.28,293.85 619.28,293.85 620.51,293.85 620.51,293.85 621.73,293.85 621.73,293.85 622.96,293.85 622.96,293.85 624.19,293.85 624.19,293.85 625.41,293.85 625.41,293.85 626.64,293.85 626.64,293.85 627.87,293.85 627.87,277.57 629.09,277.57 629.09,263.10 630.32,263.10 630.32,255.26 631.55,255.26 631.55,255.26 632.77,255.26 632.77,251.04 634.00,251.04 634.00,251.04 635.23,251.04 635.23,251.04 636.45,251.04 636.45,251.04 637.68,251.04 637.68,251.04 638.91,251.04 638.91,251.04 640.13,251.04 640.13,251.04 641.36,251.04 641.36,251.04 642.59,251.04 642.59,251.04 643.81,251.04 643.81,251.04 645.04,251.04 645.04,251.04 646.27,251.04 646.27,251.04 647.49,251.04 647.49,251.04 648.72,251.04 648.72,251.04 649.95,251.04 649.95,251.04 651.17,251.04 651.17,251.04 652.40,251.04 652.40,251.04 653.63,251.04 653.63,251.04 654.85,251.04 654.85,251.04 656.08,251.04 656.08,251.04 657.31,251.04 657.31,251.04 658.53,251.04 658.53,251.04 659.76,251.04 659.76,246.82 660.99,246.82 660.99,246.82 662.21,246.82 662.21,246.82 663.44,246.82 663.44,246.82 664.67,246.82 664.67,246.82 665.89,246.82 665.89,241.39 667.12,241.39 667.12,241.39 668.35,241.39 668.35,241.39 669.57,241.39 669.57,241.39 670.80,241.39 670.80,241.39 672.03,241.39 672.03,241.39 673.25,241.39 673.25,241.39 674.48,241.39 674.48,241.39 675.71,241.39 675.71,241.39 676.93,241.39 676.93,241.39 678.16,241.39 678.16,241.39 679.39,241.39 679.39,241.39 680.61,241.39 680.61,240.79 681.84,240.79 681.84,231.74 683.07,231.74 683.07,224.51 684.29,224.51 684.29,224.51 685.52,224.51 685.52,224.51 686.75,224.51 686.75,224.51 687.97,224.51 687.97,223.90 689.20,223.90 689.20,223.90 690.43,223.90 690.43,211.84 691.65,211.84 691.65,204.61 692.88,204.61 692.88,204.61 694.11,204.61 694.11,204.61 695.33,204.61 695.33,204.61 696.56,204.61 696.56,204.61 697.79,204.61 697.79,204.61 699.01,204.61 699.01,203.40 700.24,203.40 700.24,203.40 701.47,203.40 701.47,203.40 702.69,203.40 702.69,196.77 703.92,196.77 703.92,196.77 705.15,196.77 705.15,196.77 706.37,196.77 706.37,187.12 707.60,187.12 707.60,187.12 708.83,187.12 708.83,187.12 710.05,187.12 710.05,187.12 711.28,187.12 711.28,187.12 712.51,187.12 712.51,187.12 713.73,187.12 713.73,187.12 714.96,187.12 714.96,187.12 716.19,187.12 716.19,178.68 717.41,178.68 717.41,170.84 718.64,170.84 718.64,169.64 719.87,169.64 719.87,169.64 721.09,169.64 721.09,169.64 722.32,169.64 722.32,169.64 723.55,169.64 723.55,169.64 724.77,169.64 724.77,169.64 726.00,169.64 726.00,169.64 727.23,169.64 727.23,165.42 728.45,165.42 728.45,164.81 729.68,164.81 729.68,147.33 730.91,147.33 730.91,147.33 732.13,147.33 732.13,147.33 733.36,147.33 733.36,147.33 734.59,147.33 734.59,147.33 735.81,147.33 735.81,147.33 737.04,147.33 737.04,147.33 738.27,147.33 738.27,147.33 739.49,147.33 739.49,147.33 740.72,147.33 740.72,138.89 741.95,138.89 741.95,133.46 743.17,133.46 743.17,127.43 744.40,127.43 744.40,127.43 745.63,127.43 745.63,127.43 746.85,127.43 746.85,127.43 748.08,127.43 748.08,123.21 749.31,123.21 749.31,109.94 750.53,109.94 750.53,109.94 751.76,109.94 751.76,108.74 752.99,108.74 752.99,108.74 754.21,108.74 754.21,108.74 755.44,108.74 755.44,103.31 756.67,103.31 756.67,103.31 757.89,103.31 757.89,102.10 759.12,102.10 759.12,101.50 760.35,101.50 760.35,101.50 761.57,101.50 761.57,93.06 762.80,93.06 762.80,87.03 764.03,87.03 764.03,87.03 765.25,87.03 765.25,87.03 766.48,87.03 766.48,87.03 767.71,87.03 767.71,87.03 768.93,87.03 768.93,87.03 770.16,87.03 770.16,78.59 771.39,78.59 771.39,75.57 772.61,75.57 772.61,75.57 773.84,75.57 773.84,74.97 775.07,74.97 775.07,74.97 776.29,74.97 776.29,74.97 777.52,74.97 777.52,74.97 778.75,74.97 778.75,74.97 779.97,74.97 779.97,74.97 781.20,74.97 781.20,74.97 782.43,74.97 782.43,74.97 783.65,74.97 783.65,74.97 784.88,74.97 784.88,74.97 786.11,74.97 786.11,74.97 787.33,74.97 787.33,64.72 788.56,64.72 788.56,64.72 789.79,64.72 789.79,64.72 791.01,64.72 791.01,64.72 792.24,64.72 792.24,64.72 793.47,64.72 793.47,64.72 794.69,64.72 794.69,64.72 795.92,64.72 795.92,64.72 797.15,64.72 797.15,64.72 798.37,64.72 798.37,64.72 799.60,64.72 799.60,64.72 800.83,64.72 800.83,64.72 802.05,64.72 802.05,64.12 803.28,64.12 803.28,64.12 804.51,64.12 804.51,64.12 805.73,64.12 805.73,47.84 806.96,47.84 806.96,40.00 808.19,40.00 808.19,40.00 809.41,40.00 809.41,40.00 810.64,40.00 810.64,40.00 811.87,40.00 811.87,40.00 813.09,40.00 813.09,40.00 814.32,40.00 814.32,40.00 815.55,40.00 815.55,40.00 816.77,40.00 816.77,40.00 818.00,40.00 818.00,40.00" fill="none" stroke="#4b8f29" stroke-width="3"/>
<text x="450.0" y="552" text-anchor="middle" font-size="20" font-family="Arial, sans-serif" fill="#111827">Top displacement (mm)</text>
<text x="24" y="280.0" text-anchor="middle" transform="rotate(-90 24 280.0)" font-size="20" font-family="Arial, sans-serif" fill="#111827">Force magnitude (N)</text>
<text x="880" y="280.0" text-anchor="middle" transform="rotate(90 880 280.0)" font-size="20" font-family="Arial, sans-serif" fill="#111827">Broken bonds</text>
<text x="102" y="64" font-size="18" font-family="Arial, sans-serif" fill="#1b6ca8">Top plate</text>
<text x="212" y="64" font-size="18" font-family="Arial, sans-serif" fill="#d1495b">Bottom plate</text>
<text x="352" y="64" font-size="18" font-family="Arial, sans-serif" fill="#4b8f29">Broken bonds</text>
<text x="72" y="45" text-anchor="end" font-size="17" fill="#30363d">18.75</text>
<text x="72" y="488" text-anchor="end" font-size="17" fill="#30363d">0</text>
<text x="828" y="45" text-anchor="start" font-size="17" fill="#30363d">743</text>
<text x="828" y="488" text-anchor="start" font-size="17" fill="#30363d">0</text>
</svg>
