<?xml version="1.0" encoding="utf-8" standalone="no"?>
<!DOCTYPE svg PUBLIC "-//W3C//DTD SVG 1.1//EN"
  "http://www.w3.org/Graphics/SVG/1.1/DTD/svg11.dtd">
<svg xmlns:xlink="http://www.w3.org/1999/xlink" width="255.6pt" height="190.8pt" viewBox="0 0 255.6 190.8" xmlns="http://www.w3.org/2000/svg" version="1.1">
 <metadata>
  <rdf:RDF xmlns:dc="http://purl.org/dc/elements/1.1/" xmlns:cc="http://creativecommons.org/ns#" xmlns:rdf="http://www.w3.org/1999/02/22-rdf-syntax-ns#">
   <cc:Work>
    <dc:type rdf:resource="http://purl.org/dc/dcmitype/StillImage"/>
    <dc:date>2026-06-01T17:26:58.120592</dc:date>
    <dc:format>image/svg+xml</dc:format>
    <dc:creator>
     <cc:Agent>
      <dc:title>Matplotlib v3.10.9, https://matplotlib.org/</dc:title>
     </cc:Agent>
    </dc:creator>
   </cc:Work>
  </rdf:RDF>
 </metadata>
 <defs>
  <style type="text/css">*{stroke-linejoin: round; stroke-linecap: butt}</style>
 </defs>
 <g id="figure_1">
  <g id="patch_1">
   <path d="M 0 190.8 
L 255.6 190.8 
L 255.6 0 
L 0 0 
z
" style="fill: #ffffff"/>
  </g>
  <g id="axes_1">
   <g id="patch_2">
    <path d="M 29.90524 162.47601 
L 244.815385 162.47601 
L 244.815385 15.98874 
L 29.90524 15.98874 
z
" style="fill: #ffffff"/>
   </g>
   <g id="patch_3">
    <path d="M 29.90524 93.810102 
L 244.815385 93.810102 
L 244.815385 61.766012 
L 29.90524 61.766012 
z
" clip-path="url(#p03f65ce4d3)" style="fill: #e7e1cf; opacity: 0.65; stroke: #e7e1cf; stroke-linejoin: miter"/>
   </g>
   <g id="matplotlib.axis_1">
    <g id="xtick_1">
     <g id="line2d_1">
      <defs>
       <path id="ma076867f09" d="M 0 0 
L 0 3 
" style="stroke: #000000; stroke-width: 0.8"/>
      </defs>
      <g>
       <use xlink:href="#ma076867f09" x="29.90524" y="162.47601" style="stroke: #000000; stroke-width: 0.8"/>
      </g>
     </g>
     <g id="text_1">
      <text style="font-size: 8px; font-family: 'Arial'; text-anchor: middle" x="29.90524" y="174.70226" transform="rotate(-0 29.90524 174.70226)">0.00</text>
     </g>
    </g>
    <g id="xtick_2">
     <g id="line2d_2">
      <g>
       <use xlink:href="#ma076867f09" x="65.723597" y="162.47601" style="stroke: #000000; stroke-width: 0.8"/>
      </g>
     </g>
     <g id="text_2">
      <text style="font-size: 8px; font-family: 'Arial'; text-anchor: middle" x="65.723597" y="174.70226" transform="rotate(-0 65.723597 174.70226)">0.05</text>
     </g>
    </g>
    <g id="xtick_3">
     <g id="line2d_3">
      <g>
       <use xlink:href="#ma076867f09" x="101.541955" y="162.47601" style="stroke: #000000; stroke-width: 0.8"/>
      </g>
     </g>
     <g id="text_3">
      <text style="font-size: 8px; font-family: 'Arial'; text-anchor: middle" x="101.541955" y="174.70226" transform="rotate(-0 101.541955 174.70226)">0.10</text>
     </g>
    </g>
    <g id="xtick_4">
     <g id="line2d_4">
      <g>
       <use xlink:href="#ma076867f09" x="137.360312" y="162.47601" style="stroke: #000000; stroke-width: 0.8"/>
      </g>
     </g>
     <g id="text_4">
      <text style="font-size: 8px; font-family: 'Arial'; text-anchor: middle" x="137.360312" y="174.70226" transform="rotate(-0 137.360312 174.70226)">0.15</text>
     </g>
    </g>
    <g id="xtick_5">
     <g id="line2d_5">
      <g>
       <use xlink:href="#ma076867f09" x="173.17867" y="162.47601" style="stroke: #000000; stroke-width: 0.8"/>
      </g>
     </g>
     <g id="text_5">
      <text style="font-size: 8px; font-family: 'Arial'; text-anchor: middle" x="173.17867" y="174.70226" transform="rotate(-0 173.17867 174.70226)">0.20</text>
     </g>
    </g>
    <g id="xtick_6">
     <g id="line2d_6">
      <g>
       <use xlink:href="#ma076867f09" x="208.997027" y="162.47601" style="stroke: #000000; stroke-width: 0.8"/>
      </g>
     </g>
     <g id="text_6">
      <text style="font-size: 8px; font-family: 'Arial'; text-anchor: middle" x="208.997027" y="174.70226" transform="rotate(-0 208.997027 174.70226)">0.25</text>
     </g>
    </g>
    <g id="xtick_7">
     <g id="line2d_7">
      <g>
       <use xlink:href="#ma076867f09" x="244.815385" y="162.47601" style="stroke: #000000; stroke-width: 0.8"/>
      </g>
     </g>
     <g id="text_7">
      <text style="font-size: 8px; font-family: 'Arial'; text-anchor: middle" x="244.815385" y="174.70226" transform="rotate(-0 244.815385 174.70226)">0.30</text>
     </g>
    </g>
    <g id="text_8">
     <text style="font-size: 8px; font-family: 'Arial'; text-anchor: middle" x="137.360312" y="186.11601" transform="rotate(-0 137.360312 186.11601)">Top displacement (mm)</text>
    </g>
   </g>
   <g id="matplotlib.axis_2">
    <g id="ytick_1">
     <g id="line2d_8">
      <defs>
       <path id="m21ae20e25e" d="M 0 0 
L -3 0 
" style="stroke: #000000; stroke-width: 0.8"/>
      </defs>
      <g>
       <use xlink:href="#m21ae20e25e" x="29.90524" y="162.47601" style="stroke: #000000; stroke-width: 0.8"/>
      </g>
     </g>
     <g id="text_9">
      <text style="font-size: 8px; font-family: 'Arial'; text-anchor: end" x="23.40524" y="165.339135" transform="rotate(-0 23.40524 165.339135)">0</text>
     </g>
    </g>
    <g id="ytick_2">
     <g id="line2d_9">
      <g>
       <use xlink:href="#m21ae20e25e" x="29.90524" y="139.587374" style="stroke: #000000; stroke-width: 0.8"/>
      </g>
     </g>
     <g id="text_10">
      <text style="font-size: 8px; font-family: 'Arial'; text-anchor: end" x="23.40524" y="142.450499" transform="rotate(-0 23.40524 142.450499)">5</text>
     </g>
    </g>
    <g id="ytick_3">
     <g id="line2d_10">
      <g>
       <use xlink:href="#m21ae20e25e" x="29.90524" y="116.698738" style="stroke: #000000; stroke-width: 0.8"/>
      </g>
     </g>
     <g id="text_11">
      <text style="font-size: 8px; font-family: 'Arial'; text-anchor: end" x="23.40524" y="119.561863" transform="rotate(-0 23.40524 119.561863)">10</text>
     </g>
    </g>
    <g id="ytick_4">
     <g id="line2d_11">
      <g>
       <use xlink:href="#m21ae20e25e" x="29.90524" y="93.810102" style="stroke: #000000; stroke-width: 0.8"/>
      </g>
     </g>
     <g id="text_12">
      <text style="font-size: 8px; font-family: 'Arial'; text-anchor: end" x="23.40524" y="96.673227" transform="rotate(-0 23.40524 96.673227)">15</text>
     </g>
    </g>
    <g id="ytick_5">
     <g id="line2d_12">
      <g>
       <use xlink:href="#m21ae20e25e" x="29.90524" y="70.921466" style="stroke: #000000; stroke-width: 0.8"/>
      </g>
     </g>
     <g id="text_13">
      <text style="font-size: 8px; font-family: 'Arial'; text-anchor: end" x="23.40524" y="73.784591" transform="rotate(-0 23.40524 73.784591)">20</text>
     </g>
    </g>
    <g id="ytick_6">
     <g id="line2d_13">
      <g>
       <use xlink:href="#m21ae20e25e" x="29.90524" y="48.03283" style="stroke: #000000; stroke-width: 0.8"/>
      </g>
     </g>
     <g id="text_14">
      <text style="font-size: 8px; font-family: 'Arial'; text-anchor: end" x="23.40524" y="50.895955" transform="rotate(-0 23.40524 50.895955)">25</text>
     </g>
    </g>
    <g id="ytick_7">
     <g id="line2d_14">
      <g>
       <use xlink:href="#m21ae20e25e" x="29.90524" y="25.144194" style="stroke: #000000; stroke-width: 0.8"/>
      </g>
     </g>
     <g id="text_15">
      <text style="font-size: 8px; font-family: 'Arial'; text-anchor: end" x="23.40524" y="28.007319" transform="rotate(-0 23.40524 28.007319)">30</text>
     </g>
    </g>
    <g id="text_16">
     <text style="font-size: 8px; font-family: 'Arial'; text-anchor: middle" x="8.82399" y="89.232375" transform="rotate(-90 8.82399 89.232375)">Compressive top force (N)</text>
    </g>
   </g>
   <g id="line2d_15">
    <path d="M 29.90524 162.47601 
L 101.541955 162.475265 
L 101.900139 161.914849 
L 102.616506 159.973388 
L 104.407424 153.765904 
L 105.481974 149.432173 
L 105.840158 162.466761 
L 106.198341 162.466855 
L 106.556525 162.07837 
L 107.272892 160.411997 
L 107.989259 158.318965 
L 108.705626 154.747675 
L 109.780177 148.028576 
L 110.138361 156.174627 
L 111.212912 152.221588 
L 111.571095 150.968792 
L 111.929279 162.356347 
L 113.362013 160.847817 
L 114.436564 159.401522 
L 115.152931 157.793008 
L 116.227482 154.758306 
L 116.943849 152.335675 
L 118.018399 146.772918 
L 118.376583 146.867264 
L 118.734767 150.393948 
L 119.09295 151.798436 
L 119.451134 152.501319 
L 119.809317 152.562527 
L 120.167501 152.31705 
L 120.525684 152.460587 
L 120.883868 152.756091 
L 121.242052 152.571212 
L 121.600235 152.641672 
L 122.316602 151.380458 
L 123.032969 149.834084 
L 124.10752 146.67632 
L 125.182071 141.828845 
L 125.540255 139.887876 
L 125.898438 141.488493 
L 126.256622 141.476397 
L 126.972989 138.605511 
L 128.04754 132.970123 
L 128.405723 146.850438 
L 128.763907 143.32522 
L 129.838457 138.102731 
L 130.196641 136.810486 
L 130.554825 153.956463 
L 130.913008 151.914608 
L 131.271192 150.779123 
L 133.06211 146.894736 
L 135.211211 141.389807 
L 138.07668 133.434536 
L 138.434863 132.042704 
L 138.793047 147.326724 
L 139.15123 142.742619 
L 139.509414 141.528231 
L 139.867598 141.064866 
L 142.733066 138.958498 
L 143.09125 138.750138 
L 143.449433 138.110784 
L 144.1658 135.903956 
L 145.598535 128.86365 
L 147.747636 117.24823 
L 148.10582 126.50645 
L 148.464003 144.190816 
L 148.822187 146.522482 
L 149.18037 147.526957 
L 149.538554 148.122948 
L 149.896738 148.425414 
L 150.254921 148.576583 
L 150.971288 148.535042 
L 151.687655 147.939328 
L 152.404023 147.238855 
L 152.762206 148.499707 
L 153.12039 150.542303 
L 153.478573 151.290395 
L 153.836757 150.786801 
L 155.269491 147.105708 
L 156.702226 142.7493 
L 157.418593 139.620692 
L 158.493143 133.655842 
L 160.642245 119.867776 
L 161.000428 129.263785 
L 161.716796 132.485371 
L 162.074979 133.005386 
L 162.791346 129.460619 
L 164.224081 121.948658 
L 164.582264 131.172578 
L 164.940448 149.511377 
L 165.298631 148.929785 
L 165.656815 147.840108 
L 166.373182 145.086458 
L 167.089549 143.355941 
L 167.805916 140.392145 
L 168.522284 136.635816 
L 168.880467 135.086543 
L 169.596834 129.484958 
L 171.029569 116.073714 
L 172.104119 104.982329 
L 172.462303 118.655098 
L 172.820486 106.673648 
L 173.536854 98.522703 
L 173.895037 105.09615 
L 174.611404 95.975436 
L 174.969588 97.929411 
L 175.327771 103.690838 
L 175.685955 112.536696 
L 176.402322 109.345288 
L 177.476873 104.549949 
L 178.19324 100.881304 
L 178.551424 98.529341 
L 178.909607 100.793709 
L 179.267791 107.134809 
L 179.625974 104.746888 
L 180.342341 98.104111 
L 180.700525 108.841449 
L 181.058709 127.496817 
L 181.416892 130.784401 
L 181.775076 130.572374 
L 182.491443 128.161955 
L 183.20781 124.206941 
L 184.282361 116.351861 
L 184.640544 132.946567 
L 184.998728 125.410863 
L 186.073279 123.400946 
L 186.431462 129.383714 
L 186.789646 128.431019 
L 187.147829 137.981408 
L 187.506013 138.247306 
L 187.864197 136.942755 
L 188.580564 133.179995 
L 189.655114 126.236015 
L 191.087849 115.731712 
L 191.446032 127.742975 
L 191.804216 128.149784 
L 192.162399 126.72929 
L 192.520583 135.087093 
L 192.878767 133.168141 
L 193.953317 124.222832 
L 195.027868 113.017591 
L 196.460602 96.314865 
L 197.17697 103.503215 
L 197.893337 98.837678 
L 198.967887 88.209207 
L 199.684255 81.050786 
L 200.400622 113.968682 
L 200.758805 112.581192 
L 201.833356 105.644397 
L 203.26609 94.292434 
L 205.057008 77.160647 
L 205.415192 85.582063 
L 205.773375 102.261072 
L 206.131559 99.383004 
L 206.489742 102.774363 
L 207.20611 98.681193 
L 207.564293 96.108455 
L 207.922477 104.927795 
L 208.28066 107.606461 
L 208.638844 109.280014 
L 209.355211 109.425714 
L 209.713395 108.695644 
L 210.429762 106.556857 
L 210.787945 105.220339 
L 211.146129 115.006261 
L 211.504313 121.602094 
L 211.862496 122.703564 
L 212.22068 122.437112 
L 212.578863 121.19643 
L 212.937047 119.240343 
L 213.29523 121.019009 
L 213.653414 125.01399 
L 214.011598 124.104447 
L 214.369781 122.505448 
L 214.727965 124.178183 
L 215.086148 130.88668 
L 215.444332 132.274894 
L 215.802515 132.415604 
L 216.160699 132.147558 
L 216.518883 131.355604 
L 217.23525 128.988114 
L 217.951617 125.82076 
L 219.026168 119.363268 
L 220.100718 112.135609 
L 220.458902 125.49527 
L 220.817085 129.697114 
L 221.533453 128.831128 
L 221.891636 128.150743 
L 222.608003 125.485774 
L 223.32437 121.143317 
L 224.398921 112.243319 
L 225.831656 97.99843 
L 226.189839 100.58274 
L 226.548023 99.664521 
L 227.980757 86.391483 
L 228.338941 87.715284 
L 228.697124 92.361691 
L 229.055308 94.243933 
L 230.129858 87.967975 
L 230.488042 87.645611 
L 230.846226 88.951289 
L 232.27896 81.174998 
L 232.637143 82.460282 
L 232.995327 97.250534 
L 233.353511 96.311656 
L 233.711694 107.908554 
L 234.069878 105.031201 
L 234.786245 103.924888 
L 236.935346 96.107815 
L 237.29353 96.279136 
L 237.651713 96.274888 
L 238.009897 99.853306 
L 238.368081 99.655004 
L 239.442631 99.559604 
L 240.517182 98.984934 
L 242.3081 98.290255 
L 242.666284 98.427555 
L 243.024467 98.186881 
L 244.099018 123.06058 
L 244.815385 128.82247 
L 244.815385 128.82247 
" clip-path="url(#p03f65ce4d3)" style="fill: none; stroke: #111111; stroke-width: 1.45; stroke-linecap: square"/>
   </g>
   <g id="LineCollection_1">
    <path d="M 103.332873 162.47601 
L 103.332873 157.704224 
" clip-path="url(#p03f65ce4d3)" style="fill: none; stroke: #111111; stroke-opacity: 0.45; stroke-width: 0.8"/>
   </g>
   <g id="line2d_16">
    <path d="M 29.90524 162.47601 
L 101.541955 162.475635 
L 101.900139 161.925496 
L 102.616506 160.006718 
L 104.228332 154.543371 
L 105.302883 150.279067 
L 105.481974 150.601459 
L 105.661066 149.462712 
L 105.840158 162.471432 
L 106.377433 162.36761 
L 106.914709 161.356395 
L 107.810168 158.938452 
L 108.168351 157.646522 
L 108.884718 153.820956 
L 109.959269 146.960761 
L 110.138361 156.068725 
L 111.571095 151.229893 
L 111.750187 162.459627 
L 113.899288 160.324198 
L 114.436564 159.58206 
L 115.152931 157.979543 
L 116.227482 154.986818 
L 117.122941 152.014263 
L 117.481124 150.601393 
L 117.660216 150.771454 
L 117.839308 150.756527 
L 118.018399 151.05829 
L 118.734767 155.525667 
L 118.913858 155.671659 
L 119.272042 155.473826 
L 123.570245 150.812252 
L 124.465704 148.913901 
L 125.540255 146.228971 
L 125.719346 146.209343 
L 126.07753 145.558944 
L 126.614805 143.685935 
L 127.510264 139.144648 
L 128.584815 132.40139 
L 129.12209 128.591878 
L 129.301182 133.279508 
L 129.659366 154.303752 
L 130.017549 157.279385 
L 130.375733 158.11497 
L 130.733916 158.52722 
L 130.913008 157.633029 
L 131.0921 157.795889 
L 131.450284 157.571448 
L 131.629375 158.241925 
L 131.987559 157.546701 
L 133.241201 156.338566 
L 133.957569 155.727543 
L 134.494844 155.622528 
L 136.10667 155.078385 
L 137.181221 154.828684 
L 137.539404 154.389974 
L 137.897588 153.72573 
L 138.434863 152.208388 
L 138.972139 150.073777 
L 140.225781 143.650677 
L 141.479424 135.756974 
L 142.912158 126.312862 
L 143.09125 125.879937 
L 143.270341 128.419576 
L 143.449433 128.204418 
L 143.986709 125.615585 
L 144.1658 147.284042 
L 144.344892 143.21602 
L 144.523984 142.617372 
L 145.061259 142.204938 
L 145.598535 142.059817 
L 146.13581 142.160059 
L 146.673085 142.491844 
L 147.389453 143.221439 
L 148.464003 144.713351 
L 149.001279 145.552751 
L 149.18037 146.96093 
L 149.359462 146.150042 
L 150.613105 147.932497 
L 151.508564 148.530541 
L 151.687655 148.658259 
L 152.762206 152.090256 
L 153.12039 152.316288 
L 153.478573 152.248358 
L 154.194941 151.854795 
L 155.269491 150.951049 
L 155.806767 150.215357 
L 156.344042 148.862907 
L 157.060409 146.302845 
L 157.955868 142.304989 
L 159.030419 136.557897 
L 160.463153 127.493504 
L 161.895887 117.359826 
L 162.254071 114.372328 
L 162.433163 124.330507 
L 162.612255 124.353994 
L 163.328622 118.265856 
L 163.507713 132.626114 
L 163.686805 130.883133 
L 163.865897 130.733804 
L 164.224081 130.788385 
L 164.582264 130.241564 
L 165.11954 128.435304 
L 165.835907 124.649401 
L 166.731366 119.890008 
L 166.910457 138.468181 
L 167.089549 134.2911 
L 167.447733 132.514015 
L 168.343192 129.021243 
L 168.701375 127.578913 
L 168.880467 137.495353 
L 169.955018 142.490241 
L 170.313201 142.981 
L 170.671385 143.056417 
L 170.850477 142.953749 
L 171.20866 142.405612 
L 171.745936 141.020334 
L 172.641395 137.712399 
L 173.536854 133.367551 
L 174.074129 130.391135 
L 174.253221 144.670017 
L 174.432313 147.168927 
L 174.611404 147.798755 
L 174.790496 147.972382 
L 174.969588 147.936993 
L 175.14868 147.717548 
L 175.506863 146.681155 
L 176.044139 144.156613 
L 176.939598 138.458091 
L 177.118689 137.15968 
L 177.297781 142.566274 
L 177.476873 142.68257 
L 177.835056 141.135016 
L 178.551424 136.036757 
L 179.805066 125.431342 
L 180.521433 118.718078 
L 180.700525 123.670911 
L 181.2378 118.851201 
L 182.312351 108.951553 
L 183.20781 100.271427 
L 183.386902 102.652065 
L 183.924177 97.707066 
L 184.103269 99.828669 
L 184.282361 134.550206 
L 184.461453 133.966675 
L 184.640544 134.031038 
L 184.998728 133.006192 
L 185.715095 129.820301 
L 186.610554 125.910482 
L 186.789646 138.462117 
L 186.968738 138.125331 
L 187.326921 137.993689 
L 187.685105 137.536626 
L 188.401472 136.183502 
L 189.296931 134.158226 
L 190.013298 131.982923 
L 190.371482 134.82647 
L 190.550573 134.632736 
L 190.908757 133.744154 
L 191.446032 131.676118 
L 191.983308 128.988683 
L 192.162399 127.808317 
L 192.341491 129.390453 
L 192.699675 140.777494 
L 192.878767 140.145097 
L 193.595134 135.141731 
L 194.848776 124.730992 
L 196.281511 110.484556 
L 197.893337 93.347811 
L 198.072428 114.251563 
L 198.25152 117.667693 
L 198.430612 117.976179 
L 198.788796 117.229049 
L 199.505163 114.51155 
L 200.042438 111.452658 
L 200.758805 106.515492 
L 200.937897 122.17141 
L 201.296081 130.684363 
L 201.654264 128.681221 
L 201.833356 128.840283 
L 202.012448 129.527769 
L 202.370631 127.325976 
L 203.445182 118.75629 
L 203.624274 128.542148 
L 203.803366 130.480954 
L 203.982457 130.941008 
L 204.161549 130.839878 
L 204.519733 129.23707 
L 205.057008 125.091261 
L 206.131559 114.326038 
L 206.847926 106.367627 
L 207.027018 115.172634 
L 207.20611 115.517872 
L 207.564293 113.944384 
L 208.101569 110.152369 
L 209.534303 97.093436 
L 210.787945 82.869275 
L 210.967037 92.239663 
L 211.325221 86.18956 
L 213.116139 66.002318 
L 213.29523 66.565956 
L 213.474322 84.100628 
L 213.653414 87.606888 
L 213.832506 88.869567 
L 214.011598 88.746797 
L 214.369781 86.601303 
L 215.086148 80.012503 
L 216.697974 63.402732 
L 216.877066 93.307449 
L 217.23525 92.131967 
L 217.772525 90.487327 
L 218.130709 113.758835 
L 218.488892 117.372204 
L 218.667984 118.326571 
L 218.847076 137.691976 
L 219.205259 142.178057 
L 219.742535 145.787376 
L 220.637994 149.685362 
L 220.996177 150.25958 
L 222.966187 151.332227 
L 223.32437 151.643291 
L 223.861646 151.711346 
L 224.398921 151.545577 
L 225.115288 151.103182 
L 225.652564 150.568503 
L 226.368931 149.505399 
L 227.443482 147.456525 
L 228.159849 145.698416 
L 230.488042 139.117446 
L 230.667134 153.053161 
L 230.846226 152.653461 
L 231.025317 152.645641 
L 231.741685 153.112591 
L 232.099868 153.009245 
L 232.995327 152.353322 
L 234.428061 151.283101 
L 234.965337 150.774265 
L 235.681704 149.675281 
L 237.29353 146.137427 
L 237.830805 146.715746 
L 238.368081 146.568234 
L 239.979907 145.592524 
L 240.33809 145.003567 
L 241.233549 142.82012 
L 242.129008 139.999625 
L 242.845375 137.517224 
L 243.561742 134.186145 
L 244.636293 128.03996 
L 244.815385 126.890499 
L 244.815385 126.890499 
" clip-path="url(#p03f65ce4d3)" style="fill: none; stroke: #2f6f73; stroke-width: 1.45; stroke-linecap: square"/>
   </g>
   <g id="LineCollection_2">
    <path d="M 103.332873 162.47601 
L 103.332873 157.762772 
" clip-path="url(#p03f65ce4d3)" style="fill: none; stroke: #2f6f73; stroke-opacity: 0.45; stroke-width: 0.8"/>
   </g>
   <g id="line2d_17">
    <path d="M 29.90524 162.47601 
L 101.577773 162.454975 
L 101.900139 161.930954 
L 102.544869 160.240035 
L 103.941785 155.650895 
L 105.661066 149.521586 
L 105.875976 162.473263 
L 106.305797 162.445799 
L 106.628162 161.974269 
L 107.272892 160.475711 
L 108.025078 158.282842 
L 108.562353 155.684788 
L 109.636904 149.1633 
L 109.959269 147.011272 
L 110.066724 156.399514 
L 111.141275 152.867826 
L 111.67855 150.942969 
L 111.786005 162.345945 
L 111.89346 162.271137 
L 112.645646 161.705106 
L 113.720197 160.578783 
L 114.472382 159.533035 
L 115.224568 157.792446 
L 116.406573 154.443326 
L 117.158759 152.307988 
L 117.266214 152.559606 
L 117.373669 152.527161 
L 117.481124 152.360831 
L 117.803489 153.322438 
L 118.125855 155.891042 
L 118.340765 156.185094 
L 118.770585 156.271904 
L 120.274956 156.212932 
L 120.919686 155.953584 
L 121.671872 155.358414 
L 122.638968 154.280938 
L 123.928428 152.609826 
L 124.680614 153.874235 
L 125.002979 153.405788 
L 125.432799 152.28239 
L 125.970075 150.336893 
L 126.72226 146.140628 
L 127.796811 138.920722 
L 127.904266 138.140489 
L 128.011721 138.421454 
L 128.441541 135.704658 
L 129.516092 128.067154 
L 129.623547 128.317019 
L 129.838457 151.25338 
L 130.053368 152.390158 
L 130.160823 152.366518 
L 130.375733 158.423195 
L 130.590643 159.440727 
L 130.805553 159.655565 
L 131.127918 159.628075 
L 131.772649 159.248572 
L 133.70684 157.725482 
L 134.888846 156.963825 
L 135.748486 156.674942 
L 136.393217 156.677894 
L 136.823037 156.711034 
L 137.145402 156.273521 
L 137.682678 154.896906 
L 138.542318 151.920862 
L 140.046689 144.835615 
L 141.12124 138.039955 
L 143.377797 121.995531 
L 143.592707 125.391005 
L 144.022527 123.948586 
L 144.129982 142.870999 
L 144.237437 142.664161 
L 145.741808 146.675741 
L 146.923814 149.429334 
L 147.675999 150.689604 
L 148.10582 151.296625 
L 148.213275 152.188686 
L 148.428185 154.974661 
L 148.858005 155.634577 
L 149.717646 156.575117 
L 150.040011 156.654979 
L 151.007107 156.639508 
L 151.974202 156.417697 
L 153.478573 155.79301 
L 153.908394 155.529335 
L 154.445669 154.840887 
L 155.090399 153.615773 
L 156.16495 150.944669 
L 157.132046 148.015655 
L 158.851327 142.206507 
L 158.851327 142.206507 
" clip-path="url(#p03f65ce4d3)" style="fill: none; stroke-dasharray: 5.365,2.32; stroke-dashoffset: 0; stroke: #7a4eab; stroke-width: 1.45"/>
   </g>
   <g id="LineCollection_3">
    <path d="M 103.297055 162.47601 
L 103.297055 157.909644 
" clip-path="url(#p03f65ce4d3)" style="fill: none; stroke: #7a4eab; stroke-opacity: 0.45; stroke-width: 0.8"/>
   </g>
   <g id="patch_4">
    <path d="M 29.90524 162.47601 
L 29.90524 15.98874 
" style="fill: none; stroke: #000000; stroke-width: 0.8; stroke-linejoin: miter; stroke-linecap: square"/>
   </g>
   <g id="patch_5">
    <path d="M 29.90524 162.47601 
L 244.815385 162.47601 
" style="fill: none; stroke: #000000; stroke-width: 0.8; stroke-linejoin: miter; stroke-linecap: square"/>
   </g>
   <g id="PathCollection_1">
    <defs>
     <path id="m3a5759d19e" d="M -2.44949 2.44949 
L 2.44949 2.44949 
L 2.44949 -2.44949 
L -2.44949 -2.44949 
z
" style="stroke: #c46a30"/>
    </defs>
    <g clip-path="url(#p03f65ce4d3)">
     <use xlink:href="#m3a5759d19e" x="58.559926" y="98.387829" style="fill: #c46a30; stroke: #c46a30"/>
    </g>
   </g>
   <g id="text_17">
    <text style="font-weight: 700; font-size: 9.6px; font-family: 'Arial'; text-anchor: start" x="29.90524" y="9.98874" transform="rotate(-0 29.90524 9.98874)">Single-pebble calibration check</text>
   </g>
   <g id="PathCollection_2">
    <defs>
     <path id="m87d824c6dd" d="M 0 2.345208 
C 0.621956 2.345208 1.218523 2.098102 1.658312 1.658312 
C 2.098102 1.218523 2.345208 0.621956 2.345208 0 
C 2.345208 -0.621956 2.098102 -1.218523 1.658312 -1.658312 
C 1.218523 -2.098102 0.621956 -2.345208 0 -2.345208 
C -0.621956 -2.345208 -1.218523 -2.098102 -1.658312 -1.658312 
C -2.098102 -1.218523 -2.345208 -0.621956 -2.345208 0 
C -2.345208 0.621956 -2.098102 1.218523 -1.658312 1.658312 
C -1.218523 2.098102 -0.621956 2.345208 0 2.345208 
z
" style="stroke: #111111"/>
    </defs>
    <g clip-path="url(#p03f65ce4d3)">
     <use xlink:href="#m87d824c6dd" x="103.332873" y="157.704224" style="fill: #ffffff; stroke: #111111"/>
    </g>
   </g>
   <g id="PathCollection_3">
    <defs>
     <path id="m82a56bbd67" d="M 0 2.345208 
C 0.621956 2.345208 1.218523 2.098102 1.658312 1.658312 
C 2.098102 1.218523 2.345208 0.621956 2.345208 0 
C 2.345208 -0.621956 2.098102 -1.218523 1.658312 -1.658312 
C 1.218523 -2.098102 0.621956 -2.345208 0 -2.345208 
C -0.621956 -2.345208 -1.218523 -2.098102 -1.658312 -1.658312 
C -2.098102 -1.218523 -2.345208 -0.621956 -2.345208 0 
C -2.345208 0.621956 -2.098102 1.218523 -1.658312 1.658312 
C -1.218523 2.098102 -0.621956 2.345208 0 2.345208 
z
" style="stroke: #2f6f73"/>
    </defs>
    <g clip-path="url(#p03f65ce4d3)">
     <use xlink:href="#m82a56bbd67" x="103.332873" y="157.762772" style="fill: #ffffff; stroke: #2f6f73"/>
    </g>
   </g>
   <g id="PathCollection_4">
    <defs>
     <path id="m38ace2c7ec" d="M 0 2.345208 
C 0.621956 2.345208 1.218523 2.098102 1.658312 1.658312 
C 2.098102 1.218523 2.345208 0.621956 2.345208 0 
C 2.345208 -0.621956 2.098102 -1.218523 1.658312 -1.658312 
C 1.218523 -2.098102 0.621956 -2.345208 0 -2.345208 
C -0.621956 -2.345208 -1.218523 -2.098102 -1.658312 -1.658312 
C -2.098102 -1.218523 -2.345208 -0.621956 -2.345208 0 
C -2.345208 0.621956 -2.098102 1.218523 -1.658312 1.658312 
C -1.218523 2.098102 -0.621956 2.345208 0 2.345208 
z
" style="stroke: #7a4eab"/>
    </defs>
    <g clip-path="url(#p03f65ce4d3)">
     <use xlink:href="#m38ace2c7ec" x="103.297055" y="157.909644" style="fill: #ffffff; stroke: #7a4eab"/>
    </g>
   </g>
   <g id="legend_1">
    <g id="patch_6">
     <path d="M 115.284604 26.510615 
L 128.284604 26.510615 
L 128.284604 21.960615 
L 115.284604 21.960615 
z
" style="fill: #e7e1cf; opacity: 0.65; stroke: #e7e1cf; stroke-linejoin: miter"/>
    </g>
    <g id="text_18">
     <text style="font-size: 6.5px; font-family: 'Arial'; text-anchor: start" x="133.484604" y="26.510615" transform="rotate(-0 133.484604 26.510615)">1 mm load target window</text>
    </g>
    <g id="PathCollection_5">
     <g>
      <use xlink:href="#m3a5759d19e" x="121.784604" y="34.07499" style="fill: #c46a30; stroke: #c46a30"/>
     </g>
    </g>
    <g id="text_19">
     <text style="font-size: 6.5px; font-family: 'Arial'; text-anchor: start" x="133.484604" y="35.78124" transform="rotate(-0 133.484604 35.78124)">near-size literature anchor</text>
    </g>
    <g id="line2d_18">
     <path d="M 115.284604 42.779912 
L 121.784604 42.779912 
L 128.284604 42.779912 
" style="fill: none; stroke: #111111; stroke-width: 1.45; stroke-linecap: square"/>
    </g>
    <g id="text_20">
     <text style="font-size: 6.5px; font-family: 'Arial'; text-anchor: start" x="133.484604" y="45.054912" transform="rotate(-0 133.484604 45.054912)">reference template, 0.10 m/s</text>
    </g>
    <g id="line2d_19">
     <path d="M 115.284604 52.053584 
L 121.784604 52.053584 
L 128.284604 52.053584 
" style="fill: none; stroke: #2f6f73; stroke-width: 1.45; stroke-linecap: square"/>
    </g>
    <g id="text_21">
     <text style="font-size: 6.5px; font-family: 'Arial'; text-anchor: start" x="133.484604" y="54.328584" transform="rotate(-0 133.484604 54.328584)">same template, 0.05 m/s</text>
    </g>
    <g id="line2d_20">
     <path d="M 115.284604 61.327256 
L 121.784604 61.327256 
L 128.284604 61.327256 
" style="fill: none; stroke-dasharray: 5.365,2.32; stroke-dashoffset: 0; stroke: #7a4eab; stroke-width: 1.45"/>
    </g>
    <g id="text_22">
     <text style="font-size: 6.5px; font-family: 'Arial'; text-anchor: start" x="133.484604" y="63.602256" transform="rotate(-0 133.484604 63.602256)">same template, 0.03 m/s to 0.18 mm</text>
    </g>
   </g>
  </g>
 </g>
 <defs>
  <clipPath id="p03f65ce4d3">
   <rect x="29.90524" y="15.98874" width="214.910145" height="146.48727"/>
  </clipPath>
 </defs>
</svg>
