solid wall
  facet normal 0.0 0.0 1.0
    outer loop
      vertex -1.560000000000e-03 -1.560000000000e-03 -1.506000000000e-03
      vertex -1.300000000000e-03 -1.560000000000e-03 -1.506000000000e-03
      vertex -1.300000000000e-03 -1.300000000000e-03 -1.506000000000e-03
    endloop
  endfacet
  facet normal 0.0 0.0 1.0
    outer loop
      vertex -1.560000000000e-03 -1.560000000000e-03 -1.506000000000e-03
      vertex -1.300000000000e-03 -1.300000000000e-03 -1.506000000000e-03
      vertex -1.560000000000e-03 -1.300000000000e-03 -1.506000000000e-03
    endloop
  endfacet
  facet normal 0.0 0.0 1.0
    outer loop
      vertex -1.560000000000e-03 -1.300000000000e-03 -1.506000000000e-03
      vertex -1.300000000000e-03 -1.300000000000e-03 -1.506000000000e-03
      vertex -1.300000000000e-03 -1.040000000000e-03 -1.506000000000e-03
    endloop
  endfacet
  facet normal 0.0 0.0 1.0
    outer loop
      vertex -1.560000000000e-03 -1.300000000000e-03 -1.506000000000e-03
      vertex -1.300000000000e-03 -1.040000000000e-03 -1.506000000000e-03
      vertex -1.560000000000e-03 -1.040000000000e-03 -1.506000000000e-03
    endloop
  endfacet
  facet normal 0.0 0.0 1.0
    outer loop
      vertex -1.560000000000e-03 -1.040000000000e-03 -1.506000000000e-03
      vertex -1.300000000000e-03 -1.040000000000e-03 -1.506000000000e-03
      vertex -1.300000000000e-03 -7.800000000000e-04 -1.506000000000e-03
    endloop
  endfacet
  facet normal 0.0 0.0 1.0
    outer loop
      vertex -1.560000000000e-03 -1.040000000000e-03 -1.506000000000e-03
      vertex -1.300000000000e-03 -7.800000000000e-04 -1.506000000000e-03
      vertex -1.560000000000e-03 -7.800000000000e-04 -1.506000000000e-03
    endloop
  endfacet
  facet normal 0.0 0.0 1.0
    outer loop
      vertex -1.560000000000e-03 -7.800000000000e-04 -1.506000000000e-03
      vertex -1.300000000000e-03 -7.800000000000e-04 -1.506000000000e-03
      vertex -1.300000000000e-03 -5.200000000000e-04 -1.506000000000e-03
    endloop
  endfacet
  facet normal 0.0 0.0 1.0
    outer loop
      vertex -1.560000000000e-03 -7.800000000000e-04 -1.506000000000e-03
      vertex -1.300000000000e-03 -5.200000000000e-04 -1.506000000000e-03
      vertex -1.560000000000e-03 -5.200000000000e-04 -1.506000000000e-03
    endloop
  endfacet
  facet normal 0.0 0.0 1.0
    outer loop
      vertex -1.560000000000e-03 -5.200000000000e-04 -1.506000000000e-03
      vertex -1.300000000000e-03 -5.200000000000e-04 -1.506000000000e-03
      vertex -1.300000000000e-03 -2.600000000000e-04 -1.506000000000e-03
    endloop
  endfacet
  facet normal 0.0 0.0 1.0
    outer loop
      vertex -1.560000000000e-03 -5.200000000000e-04 -1.506000000000e-03
      vertex -1.300000000000e-03 -2.600000000000e-04 -1.506000000000e-03
      vertex -1.560000000000e-03 -2.600000000000e-04 -1.506000000000e-03
    endloop
  endfacet
  facet normal 0.0 0.0 1.0
    outer loop
      vertex -1.560000000000e-03 -2.600000000000e-04 -1.506000000000e-03
      vertex -1.300000000000e-03 -2.600000000000e-04 -1.506000000000e-03
      vertex -1.300000000000e-03 -5.421010862428e-20 -1.506000000000e-03
    endloop
  endfacet
  facet normal 0.0 0.0 1.0
    outer loop
      vertex -1.560000000000e-03 -2.600000000000e-04 -1.506000000000e-03
      vertex -1.300000000000e-03 -5.421010862428e-20 -1.506000000000e-03
      vertex -1.560000000000e-03 -5.421010862428e-20 -1.506000000000e-03
    endloop
  endfacet
  facet normal 0.0 0.0 1.0
    outer loop
      vertex -1.560000000000e-03 -2.168404344971e-19 -1.506000000000e-03
      vertex -1.300000000000e-03 -2.168404344971e-19 -1.506000000000e-03
      vertex -1.300000000000e-03 2.600000000000e-04 -1.506000000000e-03
    endloop
  endfacet
  facet normal 0.0 0.0 1.0
    outer loop
      vertex -1.560000000000e-03 -2.168404344971e-19 -1.506000000000e-03
      vertex -1.300000000000e-03 2.600000000000e-04 -1.506000000000e-03
      vertex -1.560000000000e-03 2.600000000000e-04 -1.506000000000e-03
    endloop
  endfacet
  facet normal 0.0 0.0 1.0
    outer loop
      vertex -1.560000000000e-03 2.600000000000e-04 -1.506000000000e-03
      vertex -1.300000000000e-03 2.600000000000e-04 -1.506000000000e-03
      vertex -1.300000000000e-03 5.200000000000e-04 -1.506000000000e-03
    endloop
  endfacet
  facet normal 0.0 0.0 1.0
    outer loop
      vertex -1.560000000000e-03 2.600000000000e-04 -1.506000000000e-03
      vertex -1.300000000000e-03 5.200000000000e-04 -1.506000000000e-03
      vertex -1.560000000000e-03 5.200000000000e-04 -1.506000000000e-03
    endloop
  endfacet
  facet normal 0.0 0.0 1.0
    outer loop
      vertex -1.560000000000e-03 5.200000000000e-04 -1.506000000000e-03
      vertex -1.300000000000e-03 5.200000000000e-04 -1.506000000000e-03
      vertex -1.300000000000e-03 7.800000000000e-04 -1.506000000000e-03
    endloop
  endfacet
  facet normal 0.0 0.0 1.0
    outer loop
      vertex -1.560000000000e-03 5.200000000000e-04 -1.506000000000e-03
      vertex -1.300000000000e-03 7.800000000000e-04 -1.506000000000e-03
      vertex -1.560000000000e-03 7.800000000000e-04 -1.506000000000e-03
    endloop
  endfacet
  facet normal 0.0 0.0 1.0
    outer loop
      vertex -1.560000000000e-03 7.800000000000e-04 -1.506000000000e-03
      vertex -1.300000000000e-03 7.800000000000e-04 -1.506000000000e-03
      vertex -1.300000000000e-03 1.040000000000e-03 -1.506000000000e-03
    endloop
  endfacet
  facet normal 0.0 0.0 1.0
    outer loop
      vertex -1.560000000000e-03 7.800000000000e-04 -1.506000000000e-03
      vertex -1.300000000000e-03 1.040000000000e-03 -1.506000000000e-03
      vertex -1.560000000000e-03 1.040000000000e-03 -1.506000000000e-03
    endloop
  endfacet
  facet normal 0.0 0.0 1.0
    outer loop
      vertex -1.560000000000e-03 1.040000000000e-03 -1.506000000000e-03
      vertex -1.300000000000e-03 1.040000000000e-03 -1.506000000000e-03
      vertex -1.300000000000e-03 1.300000000000e-03 -1.506000000000e-03
    endloop
  endfacet
  facet normal 0.0 0.0 1.0
    outer loop
      vertex -1.560000000000e-03 1.040000000000e-03 -1.506000000000e-03
      vertex -1.300000000000e-03 1.300000000000e-03 -1.506000000000e-03
      vertex -1.560000000000e-03 1.300000000000e-03 -1.506000000000e-03
    endloop
  endfacet
  facet normal 0.0 0.0 1.0
    outer loop
      vertex -1.560000000000e-03 1.300000000000e-03 -1.506000000000e-03
      vertex -1.300000000000e-03 1.300000000000e-03 -1.506000000000e-03
      vertex -1.300000000000e-03 1.560000000000e-03 -1.506000000000e-03
    endloop
  endfacet
  facet normal 0.0 0.0 1.0
    outer loop
      vertex -1.560000000000e-03 1.300000000000e-03 -1.506000000000e-03
      vertex -1.300000000000e-03 1.560000000000e-03 -1.506000000000e-03
      vertex -1.560000000000e-03 1.560000000000e-03 -1.506000000000e-03
    endloop
  endfacet
  facet normal 0.0 0.0 1.0
    outer loop
      vertex -1.300000000000e-03 -1.560000000000e-03 -1.506000000000e-03
      vertex -1.040000000000e-03 -1.560000000000e-03 -1.506000000000e-03
      vertex -1.040000000000e-03 -1.300000000000e-03 -1.506000000000e-03
    endloop
  endfacet
  facet normal 0.0 0.0 1.0
    outer loop
      vertex -1.300000000000e-03 -1.560000000000e-03 -1.506000000000e-03
      vertex -1.040000000000e-03 -1.300000000000e-03 -1.506000000000e-03
      vertex -1.300000000000e-03 -1.300000000000e-03 -1.506000000000e-03
    endloop
  endfacet
  facet normal 0.0 0.0 1.0
    outer loop
      vertex -1.300000000000e-03 -1.300000000000e-03 -1.506000000000e-03
      vertex -1.040000000000e-03 -1.300000000000e-03 -1.506000000000e-03
      vertex -1.040000000000e-03 -1.040000000000e-03 -1.506000000000e-03
    endloop
  endfacet
  facet normal 0.0 0.0 1.0
    outer loop
      vertex -1.300000000000e-03 -1.300000000000e-03 -1.506000000000e-03
      vertex -1.040000000000e-03 -1.040000000000e-03 -1.506000000000e-03
      vertex -1.300000000000e-03 -1.040000000000e-03 -1.506000000000e-03
    endloop
  endfacet
  facet normal 0.0 0.0 1.0
    outer loop
      vertex -1.300000000000e-03 -1.040000000000e-03 -1.506000000000e-03
      vertex -1.040000000000e-03 -1.040000000000e-03 -1.506000000000e-03
      vertex -1.040000000000e-03 -7.800000000000e-04 -1.506000000000e-03
    endloop
  endfacet
  facet normal 0.0 0.0 1.0
    outer loop
      vertex -1.300000000000e-03 -1.040000000000e-03 -1.506000000000e-03
      vertex -1.040000000000e-03 -7.800000000000e-04 -1.506000000000e-03
      vertex -1.300000000000e-03 -7.800000000000e-04 -1.506000000000e-03
    endloop
  endfacet
  facet normal 0.0 0.0 1.0
    outer loop
      vertex -1.300000000000e-03 -7.800000000000e-04 -1.506000000000e-03
      vertex -1.040000000000e-03 -7.800000000000e-04 -1.506000000000e-03
      vertex -1.040000000000e-03 -5.200000000000e-04 -1.506000000000e-03
    endloop
  endfacet
  facet normal 0.0 0.0 1.0
    outer loop
      vertex -1.300000000000e-03 -7.800000000000e-04 -1.506000000000e-03
      vertex -1.040000000000e-03 -5.200000000000e-04 -1.506000000000e-03
      vertex -1.300000000000e-03 -5.200000000000e-04 -1.506000000000e-03
    endloop
  endfacet
  facet normal 0.0 0.0 1.0
    outer loop
      vertex -1.300000000000e-03 -5.200000000000e-04 -1.506000000000e-03
      vertex -1.040000000000e-03 -5.200000000000e-04 -1.506000000000e-03
      vertex -1.040000000000e-03 -2.600000000000e-04 -1.506000000000e-03
    endloop
  endfacet
  facet normal 0.0 0.0 1.0
    outer loop
      vertex -1.300000000000e-03 -5.200000000000e-04 -1.506000000000e-03
      vertex -1.040000000000e-03 -2.600000000000e-04 -1.506000000000e-03
      vertex -1.300000000000e-03 -2.600000000000e-04 -1.506000000000e-03
    endloop
  endfacet
  facet normal 0.0 0.0 1.0
    outer loop
      vertex -1.300000000000e-03 -2.600000000000e-04 -1.506000000000e-03
      vertex -1.040000000000e-03 -2.600000000000e-04 -1.506000000000e-03
      vertex -1.040000000000e-03 -5.421010862428e-20 -1.506000000000e-03
    endloop
  endfacet
  facet normal 0.0 0.0 1.0
    outer loop
      vertex -1.300000000000e-03 -2.600000000000e-04 -1.506000000000e-03
      vertex -1.040000000000e-03 -5.421010862428e-20 -1.506000000000e-03
      vertex -1.300000000000e-03 -5.421010862428e-20 -1.506000000000e-03
    endloop
  endfacet
  facet normal 0.0 0.0 1.0
    outer loop
      vertex -1.300000000000e-03 -2.168404344971e-19 -1.506000000000e-03
      vertex -1.040000000000e-03 -2.168404344971e-19 -1.506000000000e-03
      vertex -1.040000000000e-03 2.600000000000e-04 -1.506000000000e-03
    endloop
  endfacet
  facet normal 0.0 0.0 1.0
    outer loop
      vertex -1.300000000000e-03 -2.168404344971e-19 -1.506000000000e-03
      vertex -1.040000000000e-03 2.600000000000e-04 -1.506000000000e-03
      vertex -1.300000000000e-03 2.600000000000e-04 -1.506000000000e-03
    endloop
  endfacet
  facet normal 0.0 0.0 1.0
    outer loop
      vertex -1.300000000000e-03 2.600000000000e-04 -1.506000000000e-03
      vertex -1.040000000000e-03 2.600000000000e-04 -1.506000000000e-03
      vertex -1.040000000000e-03 5.200000000000e-04 -1.506000000000e-03
    endloop
  endfacet
  facet normal 0.0 0.0 1.0
    outer loop
      vertex -1.300000000000e-03 2.600000000000e-04 -1.506000000000e-03
      vertex -1.040000000000e-03 5.200000000000e-04 -1.506000000000e-03
      vertex -1.300000000000e-03 5.200000000000e-04 -1.506000000000e-03
    endloop
  endfacet
  facet normal 0.0 0.0 1.0
    outer loop
      vertex -1.300000000000e-03 5.200000000000e-04 -1.506000000000e-03
      vertex -1.040000000000e-03 5.200000000000e-04 -1.506000000000e-03
      vertex -1.040000000000e-03 7.800000000000e-04 -1.506000000000e-03
    endloop
  endfacet
  facet normal 0.0 0.0 1.0
    outer loop
      vertex -1.300000000000e-03 5.200000000000e-04 -1.506000000000e-03
      vertex -1.040000000000e-03 7.800000000000e-04 -1.506000000000e-03
      vertex -1.300000000000e-03 7.800000000000e-04 -1.506000000000e-03
    endloop
  endfacet
  facet normal 0.0 0.0 1.0
    outer loop
      vertex -1.300000000000e-03 7.800000000000e-04 -1.506000000000e-03
      vertex -1.040000000000e-03 7.800000000000e-04 -1.506000000000e-03
      vertex -1.040000000000e-03 1.040000000000e-03 -1.506000000000e-03
    endloop
  endfacet
  facet normal 0.0 0.0 1.0
    outer loop
      vertex -1.300000000000e-03 7.800000000000e-04 -1.506000000000e-03
      vertex -1.040000000000e-03 1.040000000000e-03 -1.506000000000e-03
      vertex -1.300000000000e-03 1.040000000000e-03 -1.506000000000e-03
    endloop
  endfacet
  facet normal 0.0 0.0 1.0
    outer loop
      vertex -1.300000000000e-03 1.040000000000e-03 -1.506000000000e-03
      vertex -1.040000000000e-03 1.040000000000e-03 -1.506000000000e-03
      vertex -1.040000000000e-03 1.300000000000e-03 -1.506000000000e-03
    endloop
  endfacet
  facet normal 0.0 0.0 1.0
    outer loop
      vertex -1.300000000000e-03 1.040000000000e-03 -1.506000000000e-03
      vertex -1.040000000000e-03 1.300000000000e-03 -1.506000000000e-03
      vertex -1.300000000000e-03 1.300000000000e-03 -1.506000000000e-03
    endloop
  endfacet
  facet normal 0.0 0.0 1.0
    outer loop
      vertex -1.300000000000e-03 1.300000000000e-03 -1.506000000000e-03
      vertex -1.040000000000e-03 1.300000000000e-03 -1.506000000000e-03
      vertex -1.040000000000e-03 1.560000000000e-03 -1.506000000000e-03
    endloop
  endfacet
  facet normal 0.0 0.0 1.0
    outer loop
      vertex -1.300000000000e-03 1.300000000000e-03 -1.506000000000e-03
      vertex -1.040000000000e-03 1.560000000000e-03 -1.506000000000e-03
      vertex -1.300000000000e-03 1.560000000000e-03 -1.506000000000e-03
    endloop
  endfacet
  facet normal 0.0 0.0 1.0
    outer loop
      vertex -1.040000000000e-03 -1.560000000000e-03 -1.506000000000e-03
      vertex -7.800000000000e-04 -1.560000000000e-03 -1.506000000000e-03
      vertex -7.800000000000e-04 -1.300000000000e-03 -1.506000000000e-03
    endloop
  endfacet
  facet normal 0.0 0.0 1.0
    outer loop
      vertex -1.040000000000e-03 -1.560000000000e-03 -1.506000000000e-03
      vertex -7.800000000000e-04 -1.300000000000e-03 -1.506000000000e-03
      vertex -1.040000000000e-03 -1.300000000000e-03 -1.506000000000e-03
    endloop
  endfacet
  facet normal 0.0 0.0 1.0
    outer loop
      vertex -1.040000000000e-03 -1.300000000000e-03 -1.506000000000e-03
      vertex -7.800000000000e-04 -1.300000000000e-03 -1.506000000000e-03
      vertex -7.800000000000e-04 -1.040000000000e-03 -1.506000000000e-03
    endloop
  endfacet
  facet normal 0.0 0.0 1.0
    outer loop
      vertex -1.040000000000e-03 -1.300000000000e-03 -1.506000000000e-03
      vertex -7.800000000000e-04 -1.040000000000e-03 -1.506000000000e-03
      vertex -1.040000000000e-03 -1.040000000000e-03 -1.506000000000e-03
    endloop
  endfacet
  facet normal 0.0 0.0 1.0
    outer loop
      vertex -1.040000000000e-03 -1.040000000000e-03 -1.506000000000e-03
      vertex -7.800000000000e-04 -1.040000000000e-03 -1.506000000000e-03
      vertex -7.800000000000e-04 -7.800000000000e-04 -1.506000000000e-03
    endloop
  endfacet
  facet normal 0.0 0.0 1.0
    outer loop
      vertex -1.040000000000e-03 -1.040000000000e-03 -1.506000000000e-03
      vertex -7.800000000000e-04 -7.800000000000e-04 -1.506000000000e-03
      vertex -1.040000000000e-03 -7.800000000000e-04 -1.506000000000e-03
    endloop
  endfacet
  facet normal 0.0 0.0 1.0
    outer loop
      vertex -1.040000000000e-03 -7.800000000000e-04 -1.506000000000e-03
      vertex -7.800000000000e-04 -7.800000000000e-04 -1.506000000000e-03
      vertex -7.800000000000e-04 -5.200000000000e-04 -1.506000000000e-03
    endloop
  endfacet
  facet normal 0.0 0.0 1.0
    outer loop
      vertex -1.040000000000e-03 -7.800000000000e-04 -1.506000000000e-03
      vertex -7.800000000000e-04 -5.200000000000e-04 -1.506000000000e-03
      vertex -1.040000000000e-03 -5.200000000000e-04 -1.506000000000e-03
    endloop
  endfacet
  facet normal 0.0 0.0 1.0
    outer loop
      vertex -1.040000000000e-03 -5.200000000000e-04 -1.506000000000e-03
      vertex -7.800000000000e-04 -5.200000000000e-04 -1.506000000000e-03
      vertex -7.800000000000e-04 -2.600000000000e-04 -1.506000000000e-03
    endloop
  endfacet
  facet normal 0.0 0.0 1.0
    outer loop
      vertex -1.040000000000e-03 -5.200000000000e-04 -1.506000000000e-03
      vertex -7.800000000000e-04 -2.600000000000e-04 -1.506000000000e-03
      vertex -1.040000000000e-03 -2.600000000000e-04 -1.506000000000e-03
    endloop
  endfacet
  facet normal 0.0 0.0 1.0
    outer loop
      vertex -1.040000000000e-03 -2.600000000000e-04 -1.506000000000e-03
      vertex -7.800000000000e-04 -2.600000000000e-04 -1.506000000000e-03
      vertex -7.800000000000e-04 -5.421010862428e-20 -1.506000000000e-03
    endloop
  endfacet
  facet normal 0.0 0.0 1.0
    outer loop
      vertex -1.040000000000e-03 -2.600000000000e-04 -1.506000000000e-03
      vertex -7.800000000000e-04 -5.421010862428e-20 -1.506000000000e-03
      vertex -1.040000000000e-03 -5.421010862428e-20 -1.506000000000e-03
    endloop
  endfacet
  facet normal 0.0 0.0 1.0
    outer loop
      vertex -1.040000000000e-03 -2.168404344971e-19 -1.506000000000e-03
      vertex -7.800000000000e-04 -2.168404344971e-19 -1.506000000000e-03
      vertex -7.800000000000e-04 2.600000000000e-04 -1.506000000000e-03
    endloop
  endfacet
  facet normal 0.0 0.0 1.0
    outer loop
      vertex -1.040000000000e-03 -2.168404344971e-19 -1.506000000000e-03
      vertex -7.800000000000e-04 2.600000000000e-04 -1.506000000000e-03
      vertex -1.040000000000e-03 2.600000000000e-04 -1.506000000000e-03
    endloop
  endfacet
  facet normal 0.0 0.0 1.0
    outer loop
      vertex -1.040000000000e-03 2.600000000000e-04 -1.506000000000e-03
      vertex -7.800000000000e-04 2.600000000000e-04 -1.506000000000e-03
      vertex -7.800000000000e-04 5.200000000000e-04 -1.506000000000e-03
    endloop
  endfacet
  facet normal 0.0 0.0 1.0
    outer loop
      vertex -1.040000000000e-03 2.600000000000e-04 -1.506000000000e-03
      vertex -7.800000000000e-04 5.200000000000e-04 -1.506000000000e-03
      vertex -1.040000000000e-03 5.200000000000e-04 -1.506000000000e-03
    endloop
  endfacet
  facet normal 0.0 0.0 1.0
    outer loop
      vertex -1.040000000000e-03 5.200000000000e-04 -1.506000000000e-03
      vertex -7.800000000000e-04 5.200000000000e-04 -1.506000000000e-03
      vertex -7.800000000000e-04 7.800000000000e-04 -1.506000000000e-03
    endloop
  endfacet
  facet normal 0.0 0.0 1.0
    outer loop
      vertex -1.040000000000e-03 5.200000000000e-04 -1.506000000000e-03
      vertex -7.800000000000e-04 7.800000000000e-04 -1.506000000000e-03
      vertex -1.040000000000e-03 7.800000000000e-04 -1.506000000000e-03
    endloop
  endfacet
  facet normal 0.0 0.0 1.0
    outer loop
      vertex -1.040000000000e-03 7.800000000000e-04 -1.506000000000e-03
      vertex -7.800000000000e-04 7.800000000000e-04 -1.506000000000e-03
      vertex -7.800000000000e-04 1.040000000000e-03 -1.506000000000e-03
    endloop
  endfacet
  facet normal 0.0 0.0 1.0
    outer loop
      vertex -1.040000000000e-03 7.800000000000e-04 -1.506000000000e-03
      vertex -7.800000000000e-04 1.040000000000e-03 -1.506000000000e-03
      vertex -1.040000000000e-03 1.040000000000e-03 -1.506000000000e-03
    endloop
  endfacet
  facet normal 0.0 0.0 1.0
    outer loop
      vertex -1.040000000000e-03 1.040000000000e-03 -1.506000000000e-03
      vertex -7.800000000000e-04 1.040000000000e-03 -1.506000000000e-03
      vertex -7.800000000000e-04 1.300000000000e-03 -1.506000000000e-03
    endloop
  endfacet
  facet normal 0.0 0.0 1.0
    outer loop
      vertex -1.040000000000e-03 1.040000000000e-03 -1.506000000000e-03
      vertex -7.800000000000e-04 1.300000000000e-03 -1.506000000000e-03
      vertex -1.040000000000e-03 1.300000000000e-03 -1.506000000000e-03
    endloop
  endfacet
  facet normal 0.0 0.0 1.0
    outer loop
      vertex -1.040000000000e-03 1.300000000000e-03 -1.506000000000e-03
      vertex -7.800000000000e-04 1.300000000000e-03 -1.506000000000e-03
      vertex -7.800000000000e-04 1.560000000000e-03 -1.506000000000e-03
    endloop
  endfacet
  facet normal 0.0 0.0 1.0
    outer loop
      vertex -1.040000000000e-03 1.300000000000e-03 -1.506000000000e-03
      vertex -7.800000000000e-04 1.560000000000e-03 -1.506000000000e-03
      vertex -1.040000000000e-03 1.560000000000e-03 -1.506000000000e-03
    endloop
  endfacet
  facet normal 0.0 0.0 1.0
    outer loop
      vertex -7.800000000000e-04 -1.560000000000e-03 -1.506000000000e-03
      vertex -5.200000000000e-04 -1.560000000000e-03 -1.506000000000e-03
      vertex -5.200000000000e-04 -1.300000000000e-03 -1.506000000000e-03
    endloop
  endfacet
  facet normal 0.0 0.0 1.0
    outer loop
      vertex -7.800000000000e-04 -1.560000000000e-03 -1.506000000000e-03
      vertex -5.200000000000e-04 -1.300000000000e-03 -1.506000000000e-03
      vertex -7.800000000000e-04 -1.300000000000e-03 -1.506000000000e-03
    endloop
  endfacet
  facet normal 0.0 0.0 1.0
    outer loop
      vertex -7.800000000000e-04 -1.300000000000e-03 -1.506000000000e-03
      vertex -5.200000000000e-04 -1.300000000000e-03 -1.506000000000e-03
      vertex -5.200000000000e-04 -1.040000000000e-03 -1.506000000000e-03
    endloop
  endfacet
  facet normal 0.0 0.0 1.0
    outer loop
      vertex -7.800000000000e-04 -1.300000000000e-03 -1.506000000000e-03
      vertex -5.200000000000e-04 -1.040000000000e-03 -1.506000000000e-03
      vertex -7.800000000000e-04 -1.040000000000e-03 -1.506000000000e-03
    endloop
  endfacet
  facet normal 0.0 0.0 1.0
    outer loop
      vertex -7.800000000000e-04 -1.040000000000e-03 -1.506000000000e-03
      vertex -5.200000000000e-04 -1.040000000000e-03 -1.506000000000e-03
      vertex -5.200000000000e-04 -7.800000000000e-04 -1.506000000000e-03
    endloop
  endfacet
  facet normal 0.0 0.0 1.0
    outer loop
      vertex -7.800000000000e-04 -1.040000000000e-03 -1.506000000000e-03
      vertex -5.200000000000e-04 -7.800000000000e-04 -1.506000000000e-03
      vertex -7.800000000000e-04 -7.800000000000e-04 -1.506000000000e-03
    endloop
  endfacet
  facet normal 0.0 0.0 1.0
    outer loop
      vertex -7.800000000000e-04 -7.800000000000e-04 -1.506000000000e-03
      vertex -5.200000000000e-04 -7.800000000000e-04 -1.506000000000e-03
      vertex -5.200000000000e-04 -5.200000000000e-04 -1.506000000000e-03
    endloop
  endfacet
  facet normal 0.0 0.0 1.0
    outer loop
      vertex -7.800000000000e-04 -7.800000000000e-04 -1.506000000000e-03
      vertex -5.200000000000e-04 -5.200000000000e-04 -1.506000000000e-03
      vertex -7.800000000000e-04 -5.200000000000e-04 -1.506000000000e-03
    endloop
  endfacet
  facet normal 0.0 0.0 1.0
    outer loop
      vertex -7.800000000000e-04 -5.200000000000e-04 -1.506000000000e-03
      vertex -5.200000000000e-04 -5.200000000000e-04 -1.506000000000e-03
      vertex -5.200000000000e-04 -2.600000000000e-04 -1.506000000000e-03
    endloop
  endfacet
  facet normal 0.0 0.0 1.0
    outer loop
      vertex -7.800000000000e-04 -5.200000000000e-04 -1.506000000000e-03
      vertex -5.200000000000e-04 -2.600000000000e-04 -1.506000000000e-03
      vertex -7.800000000000e-04 -2.600000000000e-04 -1.506000000000e-03
    endloop
  endfacet
  facet normal 0.0 0.0 1.0
    outer loop
      vertex -7.800000000000e-04 -2.600000000000e-04 -1.506000000000e-03
      vertex -5.200000000000e-04 -2.600000000000e-04 -1.506000000000e-03
      vertex -5.200000000000e-04 -5.421010862428e-20 -1.506000000000e-03
    endloop
  endfacet
  facet normal 0.0 0.0 1.0
    outer loop
      vertex -7.800000000000e-04 -2.600000000000e-04 -1.506000000000e-03
      vertex -5.200000000000e-04 -5.421010862428e-20 -1.506000000000e-03
      vertex -7.800000000000e-04 -5.421010862428e-20 -1.506000000000e-03
    endloop
  endfacet
  facet normal 0.0 0.0 1.0
    outer loop
      vertex -7.800000000000e-04 -2.168404344971e-19 -1.506000000000e-03
      vertex -5.200000000000e-04 -2.168404344971e-19 -1.506000000000e-03
      vertex -5.200000000000e-04 2.600000000000e-04 -1.506000000000e-03
    endloop
  endfacet
  facet normal 0.0 0.0 1.0
    outer loop
      vertex -7.800000000000e-04 -2.168404344971e-19 -1.506000000000e-03
      vertex -5.200000000000e-04 2.600000000000e-04 -1.506000000000e-03
      vertex -7.800000000000e-04 2.600000000000e-04 -1.506000000000e-03
    endloop
  endfacet
  facet normal 0.0 0.0 1.0
    outer loop
      vertex -7.800000000000e-04 2.600000000000e-04 -1.506000000000e-03
      vertex -5.200000000000e-04 2.600000000000e-04 -1.506000000000e-03
      vertex -5.200000000000e-04 5.200000000000e-04 -1.506000000000e-03
    endloop
  endfacet
  facet normal 0.0 0.0 1.0
    outer loop
      vertex -7.800000000000e-04 2.600000000000e-04 -1.506000000000e-03
      vertex -5.200000000000e-04 5.200000000000e-04 -1.506000000000e-03
      vertex -7.800000000000e-04 5.200000000000e-04 -1.506000000000e-03
    endloop
  endfacet
  facet normal 0.0 0.0 1.0
    outer loop
      vertex -7.800000000000e-04 5.200000000000e-04 -1.506000000000e-03
      vertex -5.200000000000e-04 5.200000000000e-04 -1.506000000000e-03
      vertex -5.200000000000e-04 7.800000000000e-04 -1.506000000000e-03
    endloop
  endfacet
  facet normal 0.0 0.0 1.0
    outer loop
      vertex -7.800000000000e-04 5.200000000000e-04 -1.506000000000e-03
      vertex -5.200000000000e-04 7.800000000000e-04 -1.506000000000e-03
      vertex -7.800000000000e-04 7.800000000000e-04 -1.506000000000e-03
    endloop
  endfacet
  facet normal 0.0 0.0 1.0
    outer loop
      vertex -7.800000000000e-04 7.800000000000e-04 -1.506000000000e-03
      vertex -5.200000000000e-04 7.800000000000e-04 -1.506000000000e-03
      vertex -5.200000000000e-04 1.040000000000e-03 -1.506000000000e-03
    endloop
  endfacet
  facet normal 0.0 0.0 1.0
    outer loop
      vertex -7.800000000000e-04 7.800000000000e-04 -1.506000000000e-03
      vertex -5.200000000000e-04 1.040000000000e-03 -1.506000000000e-03
      vertex -7.800000000000e-04 1.040000000000e-03 -1.506000000000e-03
    endloop
  endfacet
  facet normal 0.0 0.0 1.0
    outer loop
      vertex -7.800000000000e-04 1.040000000000e-03 -1.506000000000e-03
      vertex -5.200000000000e-04 1.040000000000e-03 -1.506000000000e-03
      vertex -5.200000000000e-04 1.300000000000e-03 -1.506000000000e-03
    endloop
  endfacet
  facet normal 0.0 0.0 1.0
    outer loop
      vertex -7.800000000000e-04 1.040000000000e-03 -1.506000000000e-03
      vertex -5.200000000000e-04 1.300000000000e-03 -1.506000000000e-03
      vertex -7.800000000000e-04 1.300000000000e-03 -1.506000000000e-03
    endloop
  endfacet
  facet normal 0.0 0.0 1.0
    outer loop
      vertex -7.800000000000e-04 1.300000000000e-03 -1.506000000000e-03
      vertex -5.200000000000e-04 1.300000000000e-03 -1.506000000000e-03
      vertex -5.200000000000e-04 1.560000000000e-03 -1.506000000000e-03
    endloop
  endfacet
  facet normal 0.0 0.0 1.0
    outer loop
      vertex -7.800000000000e-04 1.300000000000e-03 -1.506000000000e-03
      vertex -5.200000000000e-04 1.560000000000e-03 -1.506000000000e-03
      vertex -7.800000000000e-04 1.560000000000e-03 -1.506000000000e-03
    endloop
  endfacet
  facet normal 0.0 0.0 1.0
    outer loop
      vertex -5.200000000000e-04 -1.560000000000e-03 -1.506000000000e-03
      vertex -2.600000000000e-04 -1.560000000000e-03 -1.506000000000e-03
      vertex -2.600000000000e-04 -1.300000000000e-03 -1.506000000000e-03
    endloop
  endfacet
  facet normal 0.0 0.0 1.0
    outer loop
      vertex -5.200000000000e-04 -1.560000000000e-03 -1.506000000000e-03
      vertex -2.600000000000e-04 -1.300000000000e-03 -1.506000000000e-03
      vertex -5.200000000000e-04 -1.300000000000e-03 -1.506000000000e-03
    endloop
  endfacet
  facet normal 0.0 0.0 1.0
    outer loop
      vertex -5.200000000000e-04 -1.300000000000e-03 -1.506000000000e-03
      vertex -2.600000000000e-04 -1.300000000000e-03 -1.506000000000e-03
      vertex -2.600000000000e-04 -1.040000000000e-03 -1.506000000000e-03
    endloop
  endfacet
  facet normal 0.0 0.0 1.0
    outer loop
      vertex -5.200000000000e-04 -1.300000000000e-03 -1.506000000000e-03
      vertex -2.600000000000e-04 -1.040000000000e-03 -1.506000000000e-03
      vertex -5.200000000000e-04 -1.040000000000e-03 -1.506000000000e-03
    endloop
  endfacet
  facet normal 0.0 0.0 1.0
    outer loop
      vertex -5.200000000000e-04 -1.040000000000e-03 -1.506000000000e-03
      vertex -2.600000000000e-04 -1.040000000000e-03 -1.506000000000e-03
      vertex -2.600000000000e-04 -7.800000000000e-04 -1.506000000000e-03
    endloop
  endfacet
  facet normal 0.0 0.0 1.0
    outer loop
      vertex -5.200000000000e-04 -1.040000000000e-03 -1.506000000000e-03
      vertex -2.600000000000e-04 -7.800000000000e-04 -1.506000000000e-03
      vertex -5.200000000000e-04 -7.800000000000e-04 -1.506000000000e-03
    endloop
  endfacet
  facet normal 0.0 0.0 1.0
    outer loop
      vertex -5.200000000000e-04 -7.800000000000e-04 -1.506000000000e-03
      vertex -2.600000000000e-04 -7.800000000000e-04 -1.506000000000e-03
      vertex -2.600000000000e-04 -5.200000000000e-04 -1.506000000000e-03
    endloop
  endfacet
  facet normal 0.0 0.0 1.0
    outer loop
      vertex -5.200000000000e-04 -7.800000000000e-04 -1.506000000000e-03
      vertex -2.600000000000e-04 -5.200000000000e-04 -1.506000000000e-03
      vertex -5.200000000000e-04 -5.200000000000e-04 -1.506000000000e-03
    endloop
  endfacet
  facet normal 0.0 0.0 1.0
    outer loop
      vertex -5.200000000000e-04 -5.200000000000e-04 -1.506000000000e-03
      vertex -2.600000000000e-04 -5.200000000000e-04 -1.506000000000e-03
      vertex -2.600000000000e-04 -2.600000000000e-04 -1.506000000000e-03
    endloop
  endfacet
  facet normal 0.0 0.0 1.0
    outer loop
      vertex -5.200000000000e-04 -5.200000000000e-04 -1.506000000000e-03
      vertex -2.600000000000e-04 -2.600000000000e-04 -1.506000000000e-03
      vertex -5.200000000000e-04 -2.600000000000e-04 -1.506000000000e-03
    endloop
  endfacet
  facet normal 0.0 0.0 1.0
    outer loop
      vertex -5.200000000000e-04 -2.600000000000e-04 -1.506000000000e-03
      vertex -2.600000000000e-04 -2.600000000000e-04 -1.506000000000e-03
      vertex -2.600000000000e-04 -5.421010862428e-20 -1.506000000000e-03
    endloop
  endfacet
  facet normal 0.0 0.0 1.0
    outer loop
      vertex -5.200000000000e-04 -2.600000000000e-04 -1.506000000000e-03
      vertex -2.600000000000e-04 -5.421010862428e-20 -1.506000000000e-03
      vertex -5.200000000000e-04 -5.421010862428e-20 -1.506000000000e-03
    endloop
  endfacet
  facet normal 0.0 0.0 1.0
    outer loop
      vertex -5.200000000000e-04 -2.168404344971e-19 -1.506000000000e-03
      vertex -2.600000000000e-04 -2.168404344971e-19 -1.506000000000e-03
      vertex -2.600000000000e-04 2.600000000000e-04 -1.506000000000e-03
    endloop
  endfacet
  facet normal 0.0 0.0 1.0
    outer loop
      vertex -5.200000000000e-04 -2.168404344971e-19 -1.506000000000e-03
      vertex -2.600000000000e-04 2.600000000000e-04 -1.506000000000e-03
      vertex -5.200000000000e-04 2.600000000000e-04 -1.506000000000e-03
    endloop
  endfacet
  facet normal 0.0 0.0 1.0
    outer loop
      vertex -5.200000000000e-04 2.600000000000e-04 -1.506000000000e-03
      vertex -2.600000000000e-04 2.600000000000e-04 -1.506000000000e-03
      vertex -2.600000000000e-04 5.200000000000e-04 -1.506000000000e-03
    endloop
  endfacet
  facet normal 0.0 0.0 1.0
    outer loop
      vertex -5.200000000000e-04 2.600000000000e-04 -1.506000000000e-03
      vertex -2.600000000000e-04 5.200000000000e-04 -1.506000000000e-03
      vertex -5.200000000000e-04 5.200000000000e-04 -1.506000000000e-03
    endloop
  endfacet
  facet normal 0.0 0.0 1.0
    outer loop
      vertex -5.200000000000e-04 5.200000000000e-04 -1.506000000000e-03
      vertex -2.600000000000e-04 5.200000000000e-04 -1.506000000000e-03
      vertex -2.600000000000e-04 7.800000000000e-04 -1.506000000000e-03
    endloop
  endfacet
  facet normal 0.0 0.0 1.0
    outer loop
      vertex -5.200000000000e-04 5.200000000000e-04 -1.506000000000e-03
      vertex -2.600000000000e-04 7.800000000000e-04 -1.506000000000e-03
      vertex -5.200000000000e-04 7.800000000000e-04 -1.506000000000e-03
    endloop
  endfacet
  facet normal 0.0 0.0 1.0
    outer loop
      vertex -5.200000000000e-04 7.800000000000e-04 -1.506000000000e-03
      vertex -2.600000000000e-04 7.800000000000e-04 -1.506000000000e-03
      vertex -2.600000000000e-04 1.040000000000e-03 -1.506000000000e-03
    endloop
  endfacet
  facet normal 0.0 0.0 1.0
    outer loop
      vertex -5.200000000000e-04 7.800000000000e-04 -1.506000000000e-03
      vertex -2.600000000000e-04 1.040000000000e-03 -1.506000000000e-03
      vertex -5.200000000000e-04 1.040000000000e-03 -1.506000000000e-03
    endloop
  endfacet
  facet normal 0.0 0.0 1.0
    outer loop
      vertex -5.200000000000e-04 1.040000000000e-03 -1.506000000000e-03
      vertex -2.600000000000e-04 1.040000000000e-03 -1.506000000000e-03
      vertex -2.600000000000e-04 1.300000000000e-03 -1.506000000000e-03
    endloop
  endfacet
  facet normal 0.0 0.0 1.0
    outer loop
      vertex -5.200000000000e-04 1.040000000000e-03 -1.506000000000e-03
      vertex -2.600000000000e-04 1.300000000000e-03 -1.506000000000e-03
      vertex -5.200000000000e-04 1.300000000000e-03 -1.506000000000e-03
    endloop
  endfacet
  facet normal 0.0 0.0 1.0
    outer loop
      vertex -5.200000000000e-04 1.300000000000e-03 -1.506000000000e-03
      vertex -2.600000000000e-04 1.300000000000e-03 -1.506000000000e-03
      vertex -2.600000000000e-04 1.560000000000e-03 -1.506000000000e-03
    endloop
  endfacet
  facet normal 0.0 0.0 1.0
    outer loop
      vertex -5.200000000000e-04 1.300000000000e-03 -1.506000000000e-03
      vertex -2.600000000000e-04 1.560000000000e-03 -1.506000000000e-03
      vertex -5.200000000000e-04 1.560000000000e-03 -1.506000000000e-03
    endloop
  endfacet
  facet normal 0.0 0.0 1.0
    outer loop
      vertex -2.600000000000e-04 -1.560000000000e-03 -1.506000000000e-03
      vertex -5.421010862428e-20 -1.560000000000e-03 -1.506000000000e-03
      vertex -5.421010862428e-20 -1.300000000000e-03 -1.506000000000e-03
    endloop
  endfacet
  facet normal 0.0 0.0 1.0
    outer loop
      vertex -2.600000000000e-04 -1.560000000000e-03 -1.506000000000e-03
      vertex -5.421010862428e-20 -1.300000000000e-03 -1.506000000000e-03
      vertex -2.600000000000e-04 -1.300000000000e-03 -1.506000000000e-03
    endloop
  endfacet
  facet normal 0.0 0.0 1.0
    outer loop
      vertex -2.600000000000e-04 -1.300000000000e-03 -1.506000000000e-03
      vertex -5.421010862428e-20 -1.300000000000e-03 -1.506000000000e-03
      vertex -5.421010862428e-20 -1.040000000000e-03 -1.506000000000e-03
    endloop
  endfacet
  facet normal 0.0 0.0 1.0
    outer loop
      vertex -2.600000000000e-04 -1.300000000000e-03 -1.506000000000e-03
      vertex -5.421010862428e-20 -1.040000000000e-03 -1.506000000000e-03
      vertex -2.600000000000e-04 -1.040000000000e-03 -1.506000000000e-03
    endloop
  endfacet
  facet normal 0.0 0.0 1.0
    outer loop
      vertex -2.600000000000e-04 -1.040000000000e-03 -1.506000000000e-03
      vertex -5.421010862428e-20 -1.040000000000e-03 -1.506000000000e-03
      vertex -5.421010862428e-20 -7.800000000000e-04 -1.506000000000e-03
    endloop
  endfacet
  facet normal 0.0 0.0 1.0
    outer loop
      vertex -2.600000000000e-04 -1.040000000000e-03 -1.506000000000e-03
      vertex -5.421010862428e-20 -7.800000000000e-04 -1.506000000000e-03
      vertex -2.600000000000e-04 -7.800000000000e-04 -1.506000000000e-03
    endloop
  endfacet
  facet normal 0.0 0.0 1.0
    outer loop
      vertex -2.600000000000e-04 -7.800000000000e-04 -1.506000000000e-03
      vertex -5.421010862428e-20 -7.800000000000e-04 -1.506000000000e-03
      vertex -5.421010862428e-20 -5.200000000000e-04 -1.506000000000e-03
    endloop
  endfacet
  facet normal 0.0 0.0 1.0
    outer loop
      vertex -2.600000000000e-04 -7.800000000000e-04 -1.506000000000e-03
      vertex -5.421010862428e-20 -5.200000000000e-04 -1.506000000000e-03
      vertex -2.600000000000e-04 -5.200000000000e-04 -1.506000000000e-03
    endloop
  endfacet
  facet normal 0.0 0.0 1.0
    outer loop
      vertex -2.600000000000e-04 -5.200000000000e-04 -1.506000000000e-03
      vertex -5.421010862428e-20 -5.200000000000e-04 -1.506000000000e-03
      vertex -5.421010862428e-20 -2.600000000000e-04 -1.506000000000e-03
    endloop
  endfacet
  facet normal 0.0 0.0 1.0
    outer loop
      vertex -2.600000000000e-04 -5.200000000000e-04 -1.506000000000e-03
      vertex -5.421010862428e-20 -2.600000000000e-04 -1.506000000000e-03
      vertex -2.600000000000e-04 -2.600000000000e-04 -1.506000000000e-03
    endloop
  endfacet
  facet normal 0.0 0.0 1.0
    outer loop
      vertex -2.600000000000e-04 -2.600000000000e-04 -1.506000000000e-03
      vertex -5.421010862428e-20 -2.600000000000e-04 -1.506000000000e-03
      vertex -5.421010862428e-20 -5.421010862428e-20 -1.506000000000e-03
    endloop
  endfacet
  facet normal 0.0 0.0 1.0
    outer loop
      vertex -2.600000000000e-04 -2.600000000000e-04 -1.506000000000e-03
      vertex -5.421010862428e-20 -5.421010862428e-20 -1.506000000000e-03
      vertex -2.600000000000e-04 -5.421010862428e-20 -1.506000000000e-03
    endloop
  endfacet
  facet normal 0.0 0.0 1.0
    outer loop
      vertex -2.600000000000e-04 -2.168404344971e-19 -1.506000000000e-03
      vertex -5.421010862428e-20 -2.168404344971e-19 -1.506000000000e-03
      vertex -5.421010862428e-20 2.600000000000e-04 -1.506000000000e-03
    endloop
  endfacet
  facet normal 0.0 0.0 1.0
    outer loop
      vertex -2.600000000000e-04 -2.168404344971e-19 -1.506000000000e-03
      vertex -5.421010862428e-20 2.600000000000e-04 -1.506000000000e-03
      vertex -2.600000000000e-04 2.600000000000e-04 -1.506000000000e-03
    endloop
  endfacet
  facet normal 0.0 0.0 1.0
    outer loop
      vertex -2.600000000000e-04 2.600000000000e-04 -1.506000000000e-03
      vertex -5.421010862428e-20 2.600000000000e-04 -1.506000000000e-03
      vertex -5.421010862428e-20 5.200000000000e-04 -1.506000000000e-03
    endloop
  endfacet
  facet normal 0.0 0.0 1.0
    outer loop
      vertex -2.600000000000e-04 2.600000000000e-04 -1.506000000000e-03
      vertex -5.421010862428e-20 5.200000000000e-04 -1.506000000000e-03
      vertex -2.600000000000e-04 5.200000000000e-04 -1.506000000000e-03
    endloop
  endfacet
  facet normal 0.0 0.0 1.0
    outer loop
      vertex -2.600000000000e-04 5.200000000000e-04 -1.506000000000e-03
      vertex -5.421010862428e-20 5.200000000000e-04 -1.506000000000e-03
      vertex -5.421010862428e-20 7.800000000000e-04 -1.506000000000e-03
    endloop
  endfacet
  facet normal 0.0 0.0 1.0
    outer loop
      vertex -2.600000000000e-04 5.200000000000e-04 -1.506000000000e-03
      vertex -5.421010862428e-20 7.800000000000e-04 -1.506000000000e-03
      vertex -2.600000000000e-04 7.800000000000e-04 -1.506000000000e-03
    endloop
  endfacet
  facet normal 0.0 0.0 1.0
    outer loop
      vertex -2.600000000000e-04 7.800000000000e-04 -1.506000000000e-03
      vertex -5.421010862428e-20 7.800000000000e-04 -1.506000000000e-03
      vertex -5.421010862428e-20 1.040000000000e-03 -1.506000000000e-03
    endloop
  endfacet
  facet normal 0.0 0.0 1.0
    outer loop
      vertex -2.600000000000e-04 7.800000000000e-04 -1.506000000000e-03
      vertex -5.421010862428e-20 1.040000000000e-03 -1.506000000000e-03
      vertex -2.600000000000e-04 1.040000000000e-03 -1.506000000000e-03
    endloop
  endfacet
  facet normal 0.0 0.0 1.0
    outer loop
      vertex -2.600000000000e-04 1.040000000000e-03 -1.506000000000e-03
      vertex -5.421010862428e-20 1.040000000000e-03 -1.506000000000e-03
      vertex -5.421010862428e-20 1.300000000000e-03 -1.506000000000e-03
    endloop
  endfacet
  facet normal 0.0 0.0 1.0
    outer loop
      vertex -2.600000000000e-04 1.040000000000e-03 -1.506000000000e-03
      vertex -5.421010862428e-20 1.300000000000e-03 -1.506000000000e-03
      vertex -2.600000000000e-04 1.300000000000e-03 -1.506000000000e-03
    endloop
  endfacet
  facet normal 0.0 0.0 1.0
    outer loop
      vertex -2.600000000000e-04 1.300000000000e-03 -1.506000000000e-03
      vertex -5.421010862428e-20 1.300000000000e-03 -1.506000000000e-03
      vertex -5.421010862428e-20 1.560000000000e-03 -1.506000000000e-03
    endloop
  endfacet
  facet normal 0.0 0.0 1.0
    outer loop
      vertex -2.600000000000e-04 1.300000000000e-03 -1.506000000000e-03
      vertex -5.421010862428e-20 1.560000000000e-03 -1.506000000000e-03
      vertex -2.600000000000e-04 1.560000000000e-03 -1.506000000000e-03
    endloop
  endfacet
  facet normal 0.0 0.0 1.0
    outer loop
      vertex -2.168404344971e-19 -1.560000000000e-03 -1.506000000000e-03
      vertex 2.600000000000e-04 -1.560000000000e-03 -1.506000000000e-03
      vertex 2.600000000000e-04 -1.300000000000e-03 -1.506000000000e-03
    endloop
  endfacet
  facet normal 0.0 0.0 1.0
    outer loop
      vertex -2.168404344971e-19 -1.560000000000e-03 -1.506000000000e-03
      vertex 2.600000000000e-04 -1.300000000000e-03 -1.506000000000e-03
      vertex -2.168404344971e-19 -1.300000000000e-03 -1.506000000000e-03
    endloop
  endfacet
  facet normal 0.0 0.0 1.0
    outer loop
      vertex -2.168404344971e-19 -1.300000000000e-03 -1.506000000000e-03
      vertex 2.600000000000e-04 -1.300000000000e-03 -1.506000000000e-03
      vertex 2.600000000000e-04 -1.040000000000e-03 -1.506000000000e-03
    endloop
  endfacet
  facet normal 0.0 0.0 1.0
    outer loop
      vertex -2.168404344971e-19 -1.300000000000e-03 -1.506000000000e-03
      vertex 2.600000000000e-04 -1.040000000000e-03 -1.506000000000e-03
      vertex -2.168404344971e-19 -1.040000000000e-03 -1.506000000000e-03
    endloop
  endfacet
  facet normal 0.0 0.0 1.0
    outer loop
      vertex -2.168404344971e-19 -1.040000000000e-03 -1.506000000000e-03
      vertex 2.600000000000e-04 -1.040000000000e-03 -1.506000000000e-03
      vertex 2.600000000000e-04 -7.800000000000e-04 -1.506000000000e-03
    endloop
  endfacet
  facet normal 0.0 0.0 1.0
    outer loop
      vertex -2.168404344971e-19 -1.040000000000e-03 -1.506000000000e-03
      vertex 2.600000000000e-04 -7.800000000000e-04 -1.506000000000e-03
      vertex -2.168404344971e-19 -7.800000000000e-04 -1.506000000000e-03
    endloop
  endfacet
  facet normal 0.0 0.0 1.0
    outer loop
      vertex -2.168404344971e-19 -7.800000000000e-04 -1.506000000000e-03
      vertex 2.600000000000e-04 -7.800000000000e-04 -1.506000000000e-03
      vertex 2.600000000000e-04 -5.200000000000e-04 -1.506000000000e-03
    endloop
  endfacet
  facet normal 0.0 0.0 1.0
    outer loop
      vertex -2.168404344971e-19 -7.800000000000e-04 -1.506000000000e-03
      vertex 2.600000000000e-04 -5.200000000000e-04 -1.506000000000e-03
      vertex -2.168404344971e-19 -5.200000000000e-04 -1.506000000000e-03
    endloop
  endfacet
  facet normal 0.0 0.0 1.0
    outer loop
      vertex -2.168404344971e-19 -5.200000000000e-04 -1.506000000000e-03
      vertex 2.600000000000e-04 -5.200000000000e-04 -1.506000000000e-03
      vertex 2.600000000000e-04 -2.600000000000e-04 -1.506000000000e-03
    endloop
  endfacet
  facet normal 0.0 0.0 1.0
    outer loop
      vertex -2.168404344971e-19 -5.200000000000e-04 -1.506000000000e-03
      vertex 2.600000000000e-04 -2.600000000000e-04 -1.506000000000e-03
      vertex -2.168404344971e-19 -2.600000000000e-04 -1.506000000000e-03
    endloop
  endfacet
  facet normal 0.0 0.0 1.0
    outer loop
      vertex -2.168404344971e-19 -2.600000000000e-04 -1.506000000000e-03
      vertex 2.600000000000e-04 -2.600000000000e-04 -1.506000000000e-03
      vertex 2.600000000000e-04 -5.421010862428e-20 -1.506000000000e-03
    endloop
  endfacet
  facet normal 0.0 0.0 1.0
    outer loop
      vertex -2.168404344971e-19 -2.600000000000e-04 -1.506000000000e-03
      vertex 2.600000000000e-04 -5.421010862428e-20 -1.506000000000e-03
      vertex -2.168404344971e-19 -5.421010862428e-20 -1.506000000000e-03
    endloop
  endfacet
  facet normal 0.0 0.0 1.0
    outer loop
      vertex -2.168404344971e-19 -2.168404344971e-19 -1.506000000000e-03
      vertex 2.600000000000e-04 -2.168404344971e-19 -1.506000000000e-03
      vertex 2.600000000000e-04 2.600000000000e-04 -1.506000000000e-03
    endloop
  endfacet
  facet normal 0.0 0.0 1.0
    outer loop
      vertex -2.168404344971e-19 -2.168404344971e-19 -1.506000000000e-03
      vertex 2.600000000000e-04 2.600000000000e-04 -1.506000000000e-03
      vertex -2.168404344971e-19 2.600000000000e-04 -1.506000000000e-03
    endloop
  endfacet
  facet normal 0.0 0.0 1.0
    outer loop
      vertex -2.168404344971e-19 2.600000000000e-04 -1.506000000000e-03
      vertex 2.600000000000e-04 2.600000000000e-04 -1.506000000000e-03
      vertex 2.600000000000e-04 5.200000000000e-04 -1.506000000000e-03
    endloop
  endfacet
  facet normal 0.0 0.0 1.0
    outer loop
      vertex -2.168404344971e-19 2.600000000000e-04 -1.506000000000e-03
      vertex 2.600000000000e-04 5.200000000000e-04 -1.506000000000e-03
      vertex -2.168404344971e-19 5.200000000000e-04 -1.506000000000e-03
    endloop
  endfacet
  facet normal 0.0 0.0 1.0
    outer loop
      vertex -2.168404344971e-19 5.200000000000e-04 -1.506000000000e-03
      vertex 2.600000000000e-04 5.200000000000e-04 -1.506000000000e-03
      vertex 2.600000000000e-04 7.800000000000e-04 -1.506000000000e-03
    endloop
  endfacet
  facet normal 0.0 0.0 1.0
    outer loop
      vertex -2.168404344971e-19 5.200000000000e-04 -1.506000000000e-03
      vertex 2.600000000000e-04 7.800000000000e-04 -1.506000000000e-03
      vertex -2.168404344971e-19 7.800000000000e-04 -1.506000000000e-03
    endloop
  endfacet
  facet normal 0.0 0.0 1.0
    outer loop
      vertex -2.168404344971e-19 7.800000000000e-04 -1.506000000000e-03
      vertex 2.600000000000e-04 7.800000000000e-04 -1.506000000000e-03
      vertex 2.600000000000e-04 1.040000000000e-03 -1.506000000000e-03
    endloop
  endfacet
  facet normal 0.0 0.0 1.0
    outer loop
      vertex -2.168404344971e-19 7.800000000000e-04 -1.506000000000e-03
      vertex 2.600000000000e-04 1.040000000000e-03 -1.506000000000e-03
      vertex -2.168404344971e-19 1.040000000000e-03 -1.506000000000e-03
    endloop
  endfacet
  facet normal 0.0 0.0 1.0
    outer loop
      vertex -2.168404344971e-19 1.040000000000e-03 -1.506000000000e-03
      vertex 2.600000000000e-04 1.040000000000e-03 -1.506000000000e-03
      vertex 2.600000000000e-04 1.300000000000e-03 -1.506000000000e-03
    endloop
  endfacet
  facet normal 0.0 0.0 1.0
    outer loop
      vertex -2.168404344971e-19 1.040000000000e-03 -1.506000000000e-03
      vertex 2.600000000000e-04 1.300000000000e-03 -1.506000000000e-03
      vertex -2.168404344971e-19 1.300000000000e-03 -1.506000000000e-03
    endloop
  endfacet
  facet normal 0.0 0.0 1.0
    outer loop
      vertex -2.168404344971e-19 1.300000000000e-03 -1.506000000000e-03
      vertex 2.600000000000e-04 1.300000000000e-03 -1.506000000000e-03
      vertex 2.600000000000e-04 1.560000000000e-03 -1.506000000000e-03
    endloop
  endfacet
  facet normal 0.0 0.0 1.0
    outer loop
      vertex -2.168404344971e-19 1.300000000000e-03 -1.506000000000e-03
      vertex 2.600000000000e-04 1.560000000000e-03 -1.506000000000e-03
      vertex -2.168404344971e-19 1.560000000000e-03 -1.506000000000e-03
    endloop
  endfacet
  facet normal 0.0 0.0 1.0
    outer loop
      vertex 2.600000000000e-04 -1.560000000000e-03 -1.506000000000e-03
      vertex 5.200000000000e-04 -1.560000000000e-03 -1.506000000000e-03
      vertex 5.200000000000e-04 -1.300000000000e-03 -1.506000000000e-03
    endloop
  endfacet
  facet normal 0.0 0.0 1.0
    outer loop
      vertex 2.600000000000e-04 -1.560000000000e-03 -1.506000000000e-03
      vertex 5.200000000000e-04 -1.300000000000e-03 -1.506000000000e-03
      vertex 2.600000000000e-04 -1.300000000000e-03 -1.506000000000e-03
    endloop
  endfacet
  facet normal 0.0 0.0 1.0
    outer loop
      vertex 2.600000000000e-04 -1.300000000000e-03 -1.506000000000e-03
      vertex 5.200000000000e-04 -1.300000000000e-03 -1.506000000000e-03
      vertex 5.200000000000e-04 -1.040000000000e-03 -1.506000000000e-03
    endloop
  endfacet
  facet normal 0.0 0.0 1.0
    outer loop
      vertex 2.600000000000e-04 -1.300000000000e-03 -1.506000000000e-03
      vertex 5.200000000000e-04 -1.040000000000e-03 -1.506000000000e-03
      vertex 2.600000000000e-04 -1.040000000000e-03 -1.506000000000e-03
    endloop
  endfacet
  facet normal 0.0 0.0 1.0
    outer loop
      vertex 2.600000000000e-04 -1.040000000000e-03 -1.506000000000e-03
      vertex 5.200000000000e-04 -1.040000000000e-03 -1.506000000000e-03
      vertex 5.200000000000e-04 -7.800000000000e-04 -1.506000000000e-03
    endloop
  endfacet
  facet normal 0.0 0.0 1.0
    outer loop
      vertex 2.600000000000e-04 -1.040000000000e-03 -1.506000000000e-03
      vertex 5.200000000000e-04 -7.800000000000e-04 -1.506000000000e-03
      vertex 2.600000000000e-04 -7.800000000000e-04 -1.506000000000e-03
    endloop
  endfacet
  facet normal 0.0 0.0 1.0
    outer loop
      vertex 2.600000000000e-04 -7.800000000000e-04 -1.506000000000e-03
      vertex 5.200000000000e-04 -7.800000000000e-04 -1.506000000000e-03
      vertex 5.200000000000e-04 -5.200000000000e-04 -1.506000000000e-03
    endloop
  endfacet
  facet normal 0.0 0.0 1.0
    outer loop
      vertex 2.600000000000e-04 -7.800000000000e-04 -1.506000000000e-03
      vertex 5.200000000000e-04 -5.200000000000e-04 -1.506000000000e-03
      vertex 2.600000000000e-04 -5.200000000000e-04 -1.506000000000e-03
    endloop
  endfacet
  facet normal 0.0 0.0 1.0
    outer loop
      vertex 2.600000000000e-04 -5.200000000000e-04 -1.506000000000e-03
      vertex 5.200000000000e-04 -5.200000000000e-04 -1.506000000000e-03
      vertex 5.200000000000e-04 -2.600000000000e-04 -1.506000000000e-03
    endloop
  endfacet
  facet normal 0.0 0.0 1.0
    outer loop
      vertex 2.600000000000e-04 -5.200000000000e-04 -1.506000000000e-03
      vertex 5.200000000000e-04 -2.600000000000e-04 -1.506000000000e-03
      vertex 2.600000000000e-04 -2.600000000000e-04 -1.506000000000e-03
    endloop
  endfacet
  facet normal 0.0 0.0 1.0
    outer loop
      vertex 2.600000000000e-04 -2.600000000000e-04 -1.506000000000e-03
      vertex 5.200000000000e-04 -2.600000000000e-04 -1.506000000000e-03
      vertex 5.200000000000e-04 -5.421010862428e-20 -1.506000000000e-03
    endloop
  endfacet
  facet normal 0.0 0.0 1.0
    outer loop
      vertex 2.600000000000e-04 -2.600000000000e-04 -1.506000000000e-03
      vertex 5.200000000000e-04 -5.421010862428e-20 -1.506000000000e-03
      vertex 2.600000000000e-04 -5.421010862428e-20 -1.506000000000e-03
    endloop
  endfacet
  facet normal 0.0 0.0 1.0
    outer loop
      vertex 2.600000000000e-04 -2.168404344971e-19 -1.506000000000e-03
      vertex 5.200000000000e-04 -2.168404344971e-19 -1.506000000000e-03
      vertex 5.200000000000e-04 2.600000000000e-04 -1.506000000000e-03
    endloop
  endfacet
  facet normal 0.0 0.0 1.0
    outer loop
      vertex 2.600000000000e-04 -2.168404344971e-19 -1.506000000000e-03
      vertex 5.200000000000e-04 2.600000000000e-04 -1.506000000000e-03
      vertex 2.600000000000e-04 2.600000000000e-04 -1.506000000000e-03
    endloop
  endfacet
  facet normal 0.0 0.0 1.0
    outer loop
      vertex 2.600000000000e-04 2.600000000000e-04 -1.506000000000e-03
      vertex 5.200000000000e-04 2.600000000000e-04 -1.506000000000e-03
      vertex 5.200000000000e-04 5.200000000000e-04 -1.506000000000e-03
    endloop
  endfacet
  facet normal 0.0 0.0 1.0
    outer loop
      vertex 2.600000000000e-04 2.600000000000e-04 -1.506000000000e-03
      vertex 5.200000000000e-04 5.200000000000e-04 -1.506000000000e-03
      vertex 2.600000000000e-04 5.200000000000e-04 -1.506000000000e-03
    endloop
  endfacet
  facet normal 0.0 0.0 1.0
    outer loop
      vertex 2.600000000000e-04 5.200000000000e-04 -1.506000000000e-03
      vertex 5.200000000000e-04 5.200000000000e-04 -1.506000000000e-03
      vertex 5.200000000000e-04 7.800000000000e-04 -1.506000000000e-03
    endloop
  endfacet
  facet normal 0.0 0.0 1.0
    outer loop
      vertex 2.600000000000e-04 5.200000000000e-04 -1.506000000000e-03
      vertex 5.200000000000e-04 7.800000000000e-04 -1.506000000000e-03
      vertex 2.600000000000e-04 7.800000000000e-04 -1.506000000000e-03
    endloop
  endfacet
  facet normal 0.0 0.0 1.0
    outer loop
      vertex 2.600000000000e-04 7.800000000000e-04 -1.506000000000e-03
      vertex 5.200000000000e-04 7.800000000000e-04 -1.506000000000e-03
      vertex 5.200000000000e-04 1.040000000000e-03 -1.506000000000e-03
    endloop
  endfacet
  facet normal 0.0 0.0 1.0
    outer loop
      vertex 2.600000000000e-04 7.800000000000e-04 -1.506000000000e-03
      vertex 5.200000000000e-04 1.040000000000e-03 -1.506000000000e-03
      vertex 2.600000000000e-04 1.040000000000e-03 -1.506000000000e-03
    endloop
  endfacet
  facet normal 0.0 0.0 1.0
    outer loop
      vertex 2.600000000000e-04 1.040000000000e-03 -1.506000000000e-03
      vertex 5.200000000000e-04 1.040000000000e-03 -1.506000000000e-03
      vertex 5.200000000000e-04 1.300000000000e-03 -1.506000000000e-03
    endloop
  endfacet
  facet normal 0.0 0.0 1.0
    outer loop
      vertex 2.600000000000e-04 1.040000000000e-03 -1.506000000000e-03
      vertex 5.200000000000e-04 1.300000000000e-03 -1.506000000000e-03
      vertex 2.600000000000e-04 1.300000000000e-03 -1.506000000000e-03
    endloop
  endfacet
  facet normal 0.0 0.0 1.0
    outer loop
      vertex 2.600000000000e-04 1.300000000000e-03 -1.506000000000e-03
      vertex 5.200000000000e-04 1.300000000000e-03 -1.506000000000e-03
      vertex 5.200000000000e-04 1.560000000000e-03 -1.506000000000e-03
    endloop
  endfacet
  facet normal 0.0 0.0 1.0
    outer loop
      vertex 2.600000000000e-04 1.300000000000e-03 -1.506000000000e-03
      vertex 5.200000000000e-04 1.560000000000e-03 -1.506000000000e-03
      vertex 2.600000000000e-04 1.560000000000e-03 -1.506000000000e-03
    endloop
  endfacet
  facet normal 0.0 0.0 1.0
    outer loop
      vertex 5.200000000000e-04 -1.560000000000e-03 -1.506000000000e-03
      vertex 7.800000000000e-04 -1.560000000000e-03 -1.506000000000e-03
      vertex 7.800000000000e-04 -1.300000000000e-03 -1.506000000000e-03
    endloop
  endfacet
  facet normal 0.0 0.0 1.0
    outer loop
      vertex 5.200000000000e-04 -1.560000000000e-03 -1.506000000000e-03
      vertex 7.800000000000e-04 -1.300000000000e-03 -1.506000000000e-03
      vertex 5.200000000000e-04 -1.300000000000e-03 -1.506000000000e-03
    endloop
  endfacet
  facet normal 0.0 0.0 1.0
    outer loop
      vertex 5.200000000000e-04 -1.300000000000e-03 -1.506000000000e-03
      vertex 7.800000000000e-04 -1.300000000000e-03 -1.506000000000e-03
      vertex 7.800000000000e-04 -1.040000000000e-03 -1.506000000000e-03
    endloop
  endfacet
  facet normal 0.0 0.0 1.0
    outer loop
      vertex 5.200000000000e-04 -1.300000000000e-03 -1.506000000000e-03
      vertex 7.800000000000e-04 -1.040000000000e-03 -1.506000000000e-03
      vertex 5.200000000000e-04 -1.040000000000e-03 -1.506000000000e-03
    endloop
  endfacet
  facet normal 0.0 0.0 1.0
    outer loop
      vertex 5.200000000000e-04 -1.040000000000e-03 -1.506000000000e-03
      vertex 7.800000000000e-04 -1.040000000000e-03 -1.506000000000e-03
      vertex 7.800000000000e-04 -7.800000000000e-04 -1.506000000000e-03
    endloop
  endfacet
  facet normal 0.0 0.0 1.0
    outer loop
      vertex 5.200000000000e-04 -1.040000000000e-03 -1.506000000000e-03
      vertex 7.800000000000e-04 -7.800000000000e-04 -1.506000000000e-03
      vertex 5.200000000000e-04 -7.800000000000e-04 -1.506000000000e-03
    endloop
  endfacet
  facet normal 0.0 0.0 1.0
    outer loop
      vertex 5.200000000000e-04 -7.800000000000e-04 -1.506000000000e-03
      vertex 7.800000000000e-04 -7.800000000000e-04 -1.506000000000e-03
      vertex 7.800000000000e-04 -5.200000000000e-04 -1.506000000000e-03
    endloop
  endfacet
  facet normal 0.0 0.0 1.0
    outer loop
      vertex 5.200000000000e-04 -7.800000000000e-04 -1.506000000000e-03
      vertex 7.800000000000e-04 -5.200000000000e-04 -1.506000000000e-03
      vertex 5.200000000000e-04 -5.200000000000e-04 -1.506000000000e-03
    endloop
  endfacet
  facet normal 0.0 0.0 1.0
    outer loop
      vertex 5.200000000000e-04 -5.200000000000e-04 -1.506000000000e-03
      vertex 7.800000000000e-04 -5.200000000000e-04 -1.506000000000e-03
      vertex 7.800000000000e-04 -2.600000000000e-04 -1.506000000000e-03
    endloop
  endfacet
  facet normal 0.0 0.0 1.0
    outer loop
      vertex 5.200000000000e-04 -5.200000000000e-04 -1.506000000000e-03
      vertex 7.800000000000e-04 -2.600000000000e-04 -1.506000000000e-03
      vertex 5.200000000000e-04 -2.600000000000e-04 -1.506000000000e-03
    endloop
  endfacet
  facet normal 0.0 0.0 1.0
    outer loop
      vertex 5.200000000000e-04 -2.600000000000e-04 -1.506000000000e-03
      vertex 7.800000000000e-04 -2.600000000000e-04 -1.506000000000e-03
      vertex 7.800000000000e-04 -5.421010862428e-20 -1.506000000000e-03
    endloop
  endfacet
  facet normal 0.0 0.0 1.0
    outer loop
      vertex 5.200000000000e-04 -2.600000000000e-04 -1.506000000000e-03
      vertex 7.800000000000e-04 -5.421010862428e-20 -1.506000000000e-03
      vertex 5.200000000000e-04 -5.421010862428e-20 -1.506000000000e-03
    endloop
  endfacet
  facet normal 0.0 0.0 1.0
    outer loop
      vertex 5.200000000000e-04 -2.168404344971e-19 -1.506000000000e-03
      vertex 7.800000000000e-04 -2.168404344971e-19 -1.506000000000e-03
      vertex 7.800000000000e-04 2.600000000000e-04 -1.506000000000e-03
    endloop
  endfacet
  facet normal 0.0 0.0 1.0
    outer loop
      vertex 5.200000000000e-04 -2.168404344971e-19 -1.506000000000e-03
      vertex 7.800000000000e-04 2.600000000000e-04 -1.506000000000e-03
      vertex 5.200000000000e-04 2.600000000000e-04 -1.506000000000e-03
    endloop
  endfacet
  facet normal 0.0 0.0 1.0
    outer loop
      vertex 5.200000000000e-04 2.600000000000e-04 -1.506000000000e-03
      vertex 7.800000000000e-04 2.600000000000e-04 -1.506000000000e-03
      vertex 7.800000000000e-04 5.200000000000e-04 -1.506000000000e-03
    endloop
  endfacet
  facet normal 0.0 0.0 1.0
    outer loop
      vertex 5.200000000000e-04 2.600000000000e-04 -1.506000000000e-03
      vertex 7.800000000000e-04 5.200000000000e-04 -1.506000000000e-03
      vertex 5.200000000000e-04 5.200000000000e-04 -1.506000000000e-03
    endloop
  endfacet
  facet normal 0.0 0.0 1.0
    outer loop
      vertex 5.200000000000e-04 5.200000000000e-04 -1.506000000000e-03
      vertex 7.800000000000e-04 5.200000000000e-04 -1.506000000000e-03
      vertex 7.800000000000e-04 7.800000000000e-04 -1.506000000000e-03
    endloop
  endfacet
  facet normal 0.0 0.0 1.0
    outer loop
      vertex 5.200000000000e-04 5.200000000000e-04 -1.506000000000e-03
      vertex 7.800000000000e-04 7.800000000000e-04 -1.506000000000e-03
      vertex 5.200000000000e-04 7.800000000000e-04 -1.506000000000e-03
    endloop
  endfacet
  facet normal 0.0 0.0 1.0
    outer loop
      vertex 5.200000000000e-04 7.800000000000e-04 -1.506000000000e-03
      vertex 7.800000000000e-04 7.800000000000e-04 -1.506000000000e-03
      vertex 7.800000000000e-04 1.040000000000e-03 -1.506000000000e-03
    endloop
  endfacet
  facet normal 0.0 0.0 1.0
    outer loop
      vertex 5.200000000000e-04 7.800000000000e-04 -1.506000000000e-03
      vertex 7.800000000000e-04 1.040000000000e-03 -1.506000000000e-03
      vertex 5.200000000000e-04 1.040000000000e-03 -1.506000000000e-03
    endloop
  endfacet
  facet normal 0.0 0.0 1.0
    outer loop
      vertex 5.200000000000e-04 1.040000000000e-03 -1.506000000000e-03
      vertex 7.800000000000e-04 1.040000000000e-03 -1.506000000000e-03
      vertex 7.800000000000e-04 1.300000000000e-03 -1.506000000000e-03
    endloop
  endfacet
  facet normal 0.0 0.0 1.0
    outer loop
      vertex 5.200000000000e-04 1.040000000000e-03 -1.506000000000e-03
      vertex 7.800000000000e-04 1.300000000000e-03 -1.506000000000e-03
      vertex 5.200000000000e-04 1.300000000000e-03 -1.506000000000e-03
    endloop
  endfacet
  facet normal 0.0 0.0 1.0
    outer loop
      vertex 5.200000000000e-04 1.300000000000e-03 -1.506000000000e-03
      vertex 7.800000000000e-04 1.300000000000e-03 -1.506000000000e-03
      vertex 7.800000000000e-04 1.560000000000e-03 -1.506000000000e-03
    endloop
  endfacet
  facet normal 0.0 0.0 1.0
    outer loop
      vertex 5.200000000000e-04 1.300000000000e-03 -1.506000000000e-03
      vertex 7.800000000000e-04 1.560000000000e-03 -1.506000000000e-03
      vertex 5.200000000000e-04 1.560000000000e-03 -1.506000000000e-03
    endloop
  endfacet
  facet normal 0.0 0.0 1.0
    outer loop
      vertex 7.800000000000e-04 -1.560000000000e-03 -1.506000000000e-03
      vertex 1.040000000000e-03 -1.560000000000e-03 -1.506000000000e-03
      vertex 1.040000000000e-03 -1.300000000000e-03 -1.506000000000e-03
    endloop
  endfacet
  facet normal 0.0 0.0 1.0
    outer loop
      vertex 7.800000000000e-04 -1.560000000000e-03 -1.506000000000e-03
      vertex 1.040000000000e-03 -1.300000000000e-03 -1.506000000000e-03
      vertex 7.800000000000e-04 -1.300000000000e-03 -1.506000000000e-03
    endloop
  endfacet
  facet normal 0.0 0.0 1.0
    outer loop
      vertex 7.800000000000e-04 -1.300000000000e-03 -1.506000000000e-03
      vertex 1.040000000000e-03 -1.300000000000e-03 -1.506000000000e-03
      vertex 1.040000000000e-03 -1.040000000000e-03 -1.506000000000e-03
    endloop
  endfacet
  facet normal 0.0 0.0 1.0
    outer loop
      vertex 7.800000000000e-04 -1.300000000000e-03 -1.506000000000e-03
      vertex 1.040000000000e-03 -1.040000000000e-03 -1.506000000000e-03
      vertex 7.800000000000e-04 -1.040000000000e-03 -1.506000000000e-03
    endloop
  endfacet
  facet normal 0.0 0.0 1.0
    outer loop
      vertex 7.800000000000e-04 -1.040000000000e-03 -1.506000000000e-03
      vertex 1.040000000000e-03 -1.040000000000e-03 -1.506000000000e-03
      vertex 1.040000000000e-03 -7.800000000000e-04 -1.506000000000e-03
    endloop
  endfacet
  facet normal 0.0 0.0 1.0
    outer loop
      vertex 7.800000000000e-04 -1.040000000000e-03 -1.506000000000e-03
      vertex 1.040000000000e-03 -7.800000000000e-04 -1.506000000000e-03
      vertex 7.800000000000e-04 -7.800000000000e-04 -1.506000000000e-03
    endloop
  endfacet
  facet normal 0.0 0.0 1.0
    outer loop
      vertex 7.800000000000e-04 -7.800000000000e-04 -1.506000000000e-03
      vertex 1.040000000000e-03 -7.800000000000e-04 -1.506000000000e-03
      vertex 1.040000000000e-03 -5.200000000000e-04 -1.506000000000e-03
    endloop
  endfacet
  facet normal 0.0 0.0 1.0
    outer loop
      vertex 7.800000000000e-04 -7.800000000000e-04 -1.506000000000e-03
      vertex 1.040000000000e-03 -5.200000000000e-04 -1.506000000000e-03
      vertex 7.800000000000e-04 -5.200000000000e-04 -1.506000000000e-03
    endloop
  endfacet
  facet normal 0.0 0.0 1.0
    outer loop
      vertex 7.800000000000e-04 -5.200000000000e-04 -1.506000000000e-03
      vertex 1.040000000000e-03 -5.200000000000e-04 -1.506000000000e-03
      vertex 1.040000000000e-03 -2.600000000000e-04 -1.506000000000e-03
    endloop
  endfacet
  facet normal 0.0 0.0 1.0
    outer loop
      vertex 7.800000000000e-04 -5.200000000000e-04 -1.506000000000e-03
      vertex 1.040000000000e-03 -2.600000000000e-04 -1.506000000000e-03
      vertex 7.800000000000e-04 -2.600000000000e-04 -1.506000000000e-03
    endloop
  endfacet
  facet normal 0.0 0.0 1.0
    outer loop
      vertex 7.800000000000e-04 -2.600000000000e-04 -1.506000000000e-03
      vertex 1.040000000000e-03 -2.600000000000e-04 -1.506000000000e-03
      vertex 1.040000000000e-03 -5.421010862428e-20 -1.506000000000e-03
    endloop
  endfacet
  facet normal 0.0 0.0 1.0
    outer loop
      vertex 7.800000000000e-04 -2.600000000000e-04 -1.506000000000e-03
      vertex 1.040000000000e-03 -5.421010862428e-20 -1.506000000000e-03
      vertex 7.800000000000e-04 -5.421010862428e-20 -1.506000000000e-03
    endloop
  endfacet
  facet normal 0.0 0.0 1.0
    outer loop
      vertex 7.800000000000e-04 -2.168404344971e-19 -1.506000000000e-03
      vertex 1.040000000000e-03 -2.168404344971e-19 -1.506000000000e-03
      vertex 1.040000000000e-03 2.600000000000e-04 -1.506000000000e-03
    endloop
  endfacet
  facet normal 0.0 0.0 1.0
    outer loop
      vertex 7.800000000000e-04 -2.168404344971e-19 -1.506000000000e-03
      vertex 1.040000000000e-03 2.600000000000e-04 -1.506000000000e-03
      vertex 7.800000000000e-04 2.600000000000e-04 -1.506000000000e-03
    endloop
  endfacet
  facet normal 0.0 0.0 1.0
    outer loop
      vertex 7.800000000000e-04 2.600000000000e-04 -1.506000000000e-03
      vertex 1.040000000000e-03 2.600000000000e-04 -1.506000000000e-03
      vertex 1.040000000000e-03 5.200000000000e-04 -1.506000000000e-03
    endloop
  endfacet
  facet normal 0.0 0.0 1.0
    outer loop
      vertex 7.800000000000e-04 2.600000000000e-04 -1.506000000000e-03
      vertex 1.040000000000e-03 5.200000000000e-04 -1.506000000000e-03
      vertex 7.800000000000e-04 5.200000000000e-04 -1.506000000000e-03
    endloop
  endfacet
  facet normal 0.0 0.0 1.0
    outer loop
      vertex 7.800000000000e-04 5.200000000000e-04 -1.506000000000e-03
      vertex 1.040000000000e-03 5.200000000000e-04 -1.506000000000e-03
      vertex 1.040000000000e-03 7.800000000000e-04 -1.506000000000e-03
    endloop
  endfacet
  facet normal 0.0 0.0 1.0
    outer loop
      vertex 7.800000000000e-04 5.200000000000e-04 -1.506000000000e-03
      vertex 1.040000000000e-03 7.800000000000e-04 -1.506000000000e-03
      vertex 7.800000000000e-04 7.800000000000e-04 -1.506000000000e-03
    endloop
  endfacet
  facet normal 0.0 0.0 1.0
    outer loop
      vertex 7.800000000000e-04 7.800000000000e-04 -1.506000000000e-03
      vertex 1.040000000000e-03 7.800000000000e-04 -1.506000000000e-03
      vertex 1.040000000000e-03 1.040000000000e-03 -1.506000000000e-03
    endloop
  endfacet
  facet normal 0.0 0.0 1.0
    outer loop
      vertex 7.800000000000e-04 7.800000000000e-04 -1.506000000000e-03
      vertex 1.040000000000e-03 1.040000000000e-03 -1.506000000000e-03
      vertex 7.800000000000e-04 1.040000000000e-03 -1.506000000000e-03
    endloop
  endfacet
  facet normal 0.0 0.0 1.0
    outer loop
      vertex 7.800000000000e-04 1.040000000000e-03 -1.506000000000e-03
      vertex 1.040000000000e-03 1.040000000000e-03 -1.506000000000e-03
      vertex 1.040000000000e-03 1.300000000000e-03 -1.506000000000e-03
    endloop
  endfacet
  facet normal 0.0 0.0 1.0
    outer loop
      vertex 7.800000000000e-04 1.040000000000e-03 -1.506000000000e-03
      vertex 1.040000000000e-03 1.300000000000e-03 -1.506000000000e-03
      vertex 7.800000000000e-04 1.300000000000e-03 -1.506000000000e-03
    endloop
  endfacet
  facet normal 0.0 0.0 1.0
    outer loop
      vertex 7.800000000000e-04 1.300000000000e-03 -1.506000000000e-03
      vertex 1.040000000000e-03 1.300000000000e-03 -1.506000000000e-03
      vertex 1.040000000000e-03 1.560000000000e-03 -1.506000000000e-03
    endloop
  endfacet
  facet normal 0.0 0.0 1.0
    outer loop
      vertex 7.800000000000e-04 1.300000000000e-03 -1.506000000000e-03
      vertex 1.040000000000e-03 1.560000000000e-03 -1.506000000000e-03
      vertex 7.800000000000e-04 1.560000000000e-03 -1.506000000000e-03
    endloop
  endfacet
  facet normal 0.0 0.0 1.0
    outer loop
      vertex 1.040000000000e-03 -1.560000000000e-03 -1.506000000000e-03
      vertex 1.300000000000e-03 -1.560000000000e-03 -1.506000000000e-03
      vertex 1.300000000000e-03 -1.300000000000e-03 -1.506000000000e-03
    endloop
  endfacet
  facet normal 0.0 0.0 1.0
    outer loop
      vertex 1.040000000000e-03 -1.560000000000e-03 -1.506000000000e-03
      vertex 1.300000000000e-03 -1.300000000000e-03 -1.506000000000e-03
      vertex 1.040000000000e-03 -1.300000000000e-03 -1.506000000000e-03
    endloop
  endfacet
  facet normal 0.0 0.0 1.0
    outer loop
      vertex 1.040000000000e-03 -1.300000000000e-03 -1.506000000000e-03
      vertex 1.300000000000e-03 -1.300000000000e-03 -1.506000000000e-03
      vertex 1.300000000000e-03 -1.040000000000e-03 -1.506000000000e-03
    endloop
  endfacet
  facet normal 0.0 0.0 1.0
    outer loop
      vertex 1.040000000000e-03 -1.300000000000e-03 -1.506000000000e-03
      vertex 1.300000000000e-03 -1.040000000000e-03 -1.506000000000e-03
      vertex 1.040000000000e-03 -1.040000000000e-03 -1.506000000000e-03
    endloop
  endfacet
  facet normal 0.0 0.0 1.0
    outer loop
      vertex 1.040000000000e-03 -1.040000000000e-03 -1.506000000000e-03
      vertex 1.300000000000e-03 -1.040000000000e-03 -1.506000000000e-03
      vertex 1.300000000000e-03 -7.800000000000e-04 -1.506000000000e-03
    endloop
  endfacet
  facet normal 0.0 0.0 1.0
    outer loop
      vertex 1.040000000000e-03 -1.040000000000e-03 -1.506000000000e-03
      vertex 1.300000000000e-03 -7.800000000000e-04 -1.506000000000e-03
      vertex 1.040000000000e-03 -7.800000000000e-04 -1.506000000000e-03
    endloop
  endfacet
  facet normal 0.0 0.0 1.0
    outer loop
      vertex 1.040000000000e-03 -7.800000000000e-04 -1.506000000000e-03
      vertex 1.300000000000e-03 -7.800000000000e-04 -1.506000000000e-03
      vertex 1.300000000000e-03 -5.200000000000e-04 -1.506000000000e-03
    endloop
  endfacet
  facet normal 0.0 0.0 1.0
    outer loop
      vertex 1.040000000000e-03 -7.800000000000e-04 -1.506000000000e-03
      vertex 1.300000000000e-03 -5.200000000000e-04 -1.506000000000e-03
      vertex 1.040000000000e-03 -5.200000000000e-04 -1.506000000000e-03
    endloop
  endfacet
  facet normal 0.0 0.0 1.0
    outer loop
      vertex 1.040000000000e-03 -5.200000000000e-04 -1.506000000000e-03
      vertex 1.300000000000e-03 -5.200000000000e-04 -1.506000000000e-03
      vertex 1.300000000000e-03 -2.600000000000e-04 -1.506000000000e-03
    endloop
  endfacet
  facet normal 0.0 0.0 1.0
    outer loop
      vertex 1.040000000000e-03 -5.200000000000e-04 -1.506000000000e-03
      vertex 1.300000000000e-03 -2.600000000000e-04 -1.506000000000e-03
      vertex 1.040000000000e-03 -2.600000000000e-04 -1.506000000000e-03
    endloop
  endfacet
  facet normal 0.0 0.0 1.0
    outer loop
      vertex 1.040000000000e-03 -2.600000000000e-04 -1.506000000000e-03
      vertex 1.300000000000e-03 -2.600000000000e-04 -1.506000000000e-03
      vertex 1.300000000000e-03 -5.421010862428e-20 -1.506000000000e-03
    endloop
  endfacet
  facet normal 0.0 0.0 1.0
    outer loop
      vertex 1.040000000000e-03 -2.600000000000e-04 -1.506000000000e-03
      vertex 1.300000000000e-03 -5.421010862428e-20 -1.506000000000e-03
      vertex 1.040000000000e-03 -5.421010862428e-20 -1.506000000000e-03
    endloop
  endfacet
  facet normal 0.0 0.0 1.0
    outer loop
      vertex 1.040000000000e-03 -2.168404344971e-19 -1.506000000000e-03
      vertex 1.300000000000e-03 -2.168404344971e-19 -1.506000000000e-03
      vertex 1.300000000000e-03 2.600000000000e-04 -1.506000000000e-03
    endloop
  endfacet
  facet normal 0.0 0.0 1.0
    outer loop
      vertex 1.040000000000e-03 -2.168404344971e-19 -1.506000000000e-03
      vertex 1.300000000000e-03 2.600000000000e-04 -1.506000000000e-03
      vertex 1.040000000000e-03 2.600000000000e-04 -1.506000000000e-03
    endloop
  endfacet
  facet normal 0.0 0.0 1.0
    outer loop
      vertex 1.040000000000e-03 2.600000000000e-04 -1.506000000000e-03
      vertex 1.300000000000e-03 2.600000000000e-04 -1.506000000000e-03
      vertex 1.300000000000e-03 5.200000000000e-04 -1.506000000000e-03
    endloop
  endfacet
  facet normal 0.0 0.0 1.0
    outer loop
      vertex 1.040000000000e-03 2.600000000000e-04 -1.506000000000e-03
      vertex 1.300000000000e-03 5.200000000000e-04 -1.506000000000e-03
      vertex 1.040000000000e-03 5.200000000000e-04 -1.506000000000e-03
    endloop
  endfacet
  facet normal 0.0 0.0 1.0
    outer loop
      vertex 1.040000000000e-03 5.200000000000e-04 -1.506000000000e-03
      vertex 1.300000000000e-03 5.200000000000e-04 -1.506000000000e-03
      vertex 1.300000000000e-03 7.800000000000e-04 -1.506000000000e-03
    endloop
  endfacet
  facet normal 0.0 0.0 1.0
    outer loop
      vertex 1.040000000000e-03 5.200000000000e-04 -1.506000000000e-03
      vertex 1.300000000000e-03 7.800000000000e-04 -1.506000000000e-03
      vertex 1.040000000000e-03 7.800000000000e-04 -1.506000000000e-03
    endloop
  endfacet
  facet normal 0.0 0.0 1.0
    outer loop
      vertex 1.040000000000e-03 7.800000000000e-04 -1.506000000000e-03
      vertex 1.300000000000e-03 7.800000000000e-04 -1.506000000000e-03
      vertex 1.300000000000e-03 1.040000000000e-03 -1.506000000000e-03
    endloop
  endfacet
  facet normal 0.0 0.0 1.0
    outer loop
      vertex 1.040000000000e-03 7.800000000000e-04 -1.506000000000e-03
      vertex 1.300000000000e-03 1.040000000000e-03 -1.506000000000e-03
      vertex 1.040000000000e-03 1.040000000000e-03 -1.506000000000e-03
    endloop
  endfacet
  facet normal 0.0 0.0 1.0
    outer loop
      vertex 1.040000000000e-03 1.040000000000e-03 -1.506000000000e-03
      vertex 1.300000000000e-03 1.040000000000e-03 -1.506000000000e-03
      vertex 1.300000000000e-03 1.300000000000e-03 -1.506000000000e-03
    endloop
  endfacet
  facet normal 0.0 0.0 1.0
    outer loop
      vertex 1.040000000000e-03 1.040000000000e-03 -1.506000000000e-03
      vertex 1.300000000000e-03 1.300000000000e-03 -1.506000000000e-03
      vertex 1.040000000000e-03 1.300000000000e-03 -1.506000000000e-03
    endloop
  endfacet
  facet normal 0.0 0.0 1.0
    outer loop
      vertex 1.040000000000e-03 1.300000000000e-03 -1.506000000000e-03
      vertex 1.300000000000e-03 1.300000000000e-03 -1.506000000000e-03
      vertex 1.300000000000e-03 1.560000000000e-03 -1.506000000000e-03
    endloop
  endfacet
  facet normal 0.0 0.0 1.0
    outer loop
      vertex 1.040000000000e-03 1.300000000000e-03 -1.506000000000e-03
      vertex 1.300000000000e-03 1.560000000000e-03 -1.506000000000e-03
      vertex 1.040000000000e-03 1.560000000000e-03 -1.506000000000e-03
    endloop
  endfacet
  facet normal 0.0 0.0 1.0
    outer loop
      vertex 1.300000000000e-03 -1.560000000000e-03 -1.506000000000e-03
      vertex 1.560000000000e-03 -1.560000000000e-03 -1.506000000000e-03
      vertex 1.560000000000e-03 -1.300000000000e-03 -1.506000000000e-03
    endloop
  endfacet
  facet normal 0.0 0.0 1.0
    outer loop
      vertex 1.300000000000e-03 -1.560000000000e-03 -1.506000000000e-03
      vertex 1.560000000000e-03 -1.300000000000e-03 -1.506000000000e-03
      vertex 1.300000000000e-03 -1.300000000000e-03 -1.506000000000e-03
    endloop
  endfacet
  facet normal 0.0 0.0 1.0
    outer loop
      vertex 1.300000000000e-03 -1.300000000000e-03 -1.506000000000e-03
      vertex 1.560000000000e-03 -1.300000000000e-03 -1.506000000000e-03
      vertex 1.560000000000e-03 -1.040000000000e-03 -1.506000000000e-03
    endloop
  endfacet
  facet normal 0.0 0.0 1.0
    outer loop
      vertex 1.300000000000e-03 -1.300000000000e-03 -1.506000000000e-03
      vertex 1.560000000000e-03 -1.040000000000e-03 -1.506000000000e-03
      vertex 1.300000000000e-03 -1.040000000000e-03 -1.506000000000e-03
    endloop
  endfacet
  facet normal 0.0 0.0 1.0
    outer loop
      vertex 1.300000000000e-03 -1.040000000000e-03 -1.506000000000e-03
      vertex 1.560000000000e-03 -1.040000000000e-03 -1.506000000000e-03
      vertex 1.560000000000e-03 -7.800000000000e-04 -1.506000000000e-03
    endloop
  endfacet
  facet normal 0.0 0.0 1.0
    outer loop
      vertex 1.300000000000e-03 -1.040000000000e-03 -1.506000000000e-03
      vertex 1.560000000000e-03 -7.800000000000e-04 -1.506000000000e-03
      vertex 1.300000000000e-03 -7.800000000000e-04 -1.506000000000e-03
    endloop
  endfacet
  facet normal 0.0 0.0 1.0
    outer loop
      vertex 1.300000000000e-03 -7.800000000000e-04 -1.506000000000e-03
      vertex 1.560000000000e-03 -7.800000000000e-04 -1.506000000000e-03
      vertex 1.560000000000e-03 -5.200000000000e-04 -1.506000000000e-03
    endloop
  endfacet
  facet normal 0.0 0.0 1.0
    outer loop
      vertex 1.300000000000e-03 -7.800000000000e-04 -1.506000000000e-03
      vertex 1.560000000000e-03 -5.200000000000e-04 -1.506000000000e-03
      vertex 1.300000000000e-03 -5.200000000000e-04 -1.506000000000e-03
    endloop
  endfacet
  facet normal 0.0 0.0 1.0
    outer loop
      vertex 1.300000000000e-03 -5.200000000000e-04 -1.506000000000e-03
      vertex 1.560000000000e-03 -5.200000000000e-04 -1.506000000000e-03
      vertex 1.560000000000e-03 -2.600000000000e-04 -1.506000000000e-03
    endloop
  endfacet
  facet normal 0.0 0.0 1.0
    outer loop
      vertex 1.300000000000e-03 -5.200000000000e-04 -1.506000000000e-03
      vertex 1.560000000000e-03 -2.600000000000e-04 -1.506000000000e-03
      vertex 1.300000000000e-03 -2.600000000000e-04 -1.506000000000e-03
    endloop
  endfacet
  facet normal 0.0 0.0 1.0
    outer loop
      vertex 1.300000000000e-03 -2.600000000000e-04 -1.506000000000e-03
      vertex 1.560000000000e-03 -2.600000000000e-04 -1.506000000000e-03
      vertex 1.560000000000e-03 -5.421010862428e-20 -1.506000000000e-03
    endloop
  endfacet
  facet normal 0.0 0.0 1.0
    outer loop
      vertex 1.300000000000e-03 -2.600000000000e-04 -1.506000000000e-03
      vertex 1.560000000000e-03 -5.421010862428e-20 -1.506000000000e-03
      vertex 1.300000000000e-03 -5.421010862428e-20 -1.506000000000e-03
    endloop
  endfacet
  facet normal 0.0 0.0 1.0
    outer loop
      vertex 1.300000000000e-03 -2.168404344971e-19 -1.506000000000e-03
      vertex 1.560000000000e-03 -2.168404344971e-19 -1.506000000000e-03
      vertex 1.560000000000e-03 2.600000000000e-04 -1.506000000000e-03
    endloop
  endfacet
  facet normal 0.0 0.0 1.0
    outer loop
      vertex 1.300000000000e-03 -2.168404344971e-19 -1.506000000000e-03
      vertex 1.560000000000e-03 2.600000000000e-04 -1.506000000000e-03
      vertex 1.300000000000e-03 2.600000000000e-04 -1.506000000000e-03
    endloop
  endfacet
  facet normal 0.0 0.0 1.0
    outer loop
      vertex 1.300000000000e-03 2.600000000000e-04 -1.506000000000e-03
      vertex 1.560000000000e-03 2.600000000000e-04 -1.506000000000e-03
      vertex 1.560000000000e-03 5.200000000000e-04 -1.506000000000e-03
    endloop
  endfacet
  facet normal 0.0 0.0 1.0
    outer loop
      vertex 1.300000000000e-03 2.600000000000e-04 -1.506000000000e-03
      vertex 1.560000000000e-03 5.200000000000e-04 -1.506000000000e-03
      vertex 1.300000000000e-03 5.200000000000e-04 -1.506000000000e-03
    endloop
  endfacet
  facet normal 0.0 0.0 1.0
    outer loop
      vertex 1.300000000000e-03 5.200000000000e-04 -1.506000000000e-03
      vertex 1.560000000000e-03 5.200000000000e-04 -1.506000000000e-03
      vertex 1.560000000000e-03 7.800000000000e-04 -1.506000000000e-03
    endloop
  endfacet
  facet normal 0.0 0.0 1.0
    outer loop
      vertex 1.300000000000e-03 5.200000000000e-04 -1.506000000000e-03
      vertex 1.560000000000e-03 7.800000000000e-04 -1.506000000000e-03
      vertex 1.300000000000e-03 7.800000000000e-04 -1.506000000000e-03
    endloop
  endfacet
  facet normal 0.0 0.0 1.0
    outer loop
      vertex 1.300000000000e-03 7.800000000000e-04 -1.506000000000e-03
      vertex 1.560000000000e-03 7.800000000000e-04 -1.506000000000e-03
      vertex 1.560000000000e-03 1.040000000000e-03 -1.506000000000e-03
    endloop
  endfacet
  facet normal 0.0 0.0 1.0
    outer loop
      vertex 1.300000000000e-03 7.800000000000e-04 -1.506000000000e-03
      vertex 1.560000000000e-03 1.040000000000e-03 -1.506000000000e-03
      vertex 1.300000000000e-03 1.040000000000e-03 -1.506000000000e-03
    endloop
  endfacet
  facet normal 0.0 0.0 1.0
    outer loop
      vertex 1.300000000000e-03 1.040000000000e-03 -1.506000000000e-03
      vertex 1.560000000000e-03 1.040000000000e-03 -1.506000000000e-03
      vertex 1.560000000000e-03 1.300000000000e-03 -1.506000000000e-03
    endloop
  endfacet
  facet normal 0.0 0.0 1.0
    outer loop
      vertex 1.300000000000e-03 1.040000000000e-03 -1.506000000000e-03
      vertex 1.560000000000e-03 1.300000000000e-03 -1.506000000000e-03
      vertex 1.300000000000e-03 1.300000000000e-03 -1.506000000000e-03
    endloop
  endfacet
  facet normal 0.0 0.0 1.0
    outer loop
      vertex 1.300000000000e-03 1.300000000000e-03 -1.506000000000e-03
      vertex 1.560000000000e-03 1.300000000000e-03 -1.506000000000e-03
      vertex 1.560000000000e-03 1.560000000000e-03 -1.506000000000e-03
    endloop
  endfacet
  facet normal 0.0 0.0 1.0
    outer loop
      vertex 1.300000000000e-03 1.300000000000e-03 -1.506000000000e-03
      vertex 1.560000000000e-03 1.560000000000e-03 -1.506000000000e-03
      vertex 1.300000000000e-03 1.560000000000e-03 -1.506000000000e-03
    endloop
  endfacet
endsolid wall
