solid wall
  facet normal 1.0 0.0 0.0
    outer loop
      vertex -1.560000000000e-03 -1.560000000000e-03 -1.506000000000e-03
      vertex -1.560000000000e-03 -1.300000000000e-03 -1.506000000000e-03
      vertex -1.560000000000e-03 -1.300000000000e-03 -1.159666666667e-03
    endloop
  endfacet
  facet normal 1.0 0.0 0.0
    outer loop
      vertex -1.560000000000e-03 -1.560000000000e-03 -1.506000000000e-03
      vertex -1.560000000000e-03 -1.300000000000e-03 -1.159666666667e-03
      vertex -1.560000000000e-03 -1.560000000000e-03 -1.159666666667e-03
    endloop
  endfacet
  facet normal 1.0 0.0 0.0
    outer loop
      vertex -1.560000000000e-03 -1.560000000000e-03 -1.159666666667e-03
      vertex -1.560000000000e-03 -1.300000000000e-03 -1.159666666667e-03
      vertex -1.560000000000e-03 -1.300000000000e-03 -8.133333333333e-04
    endloop
  endfacet
  facet normal 1.0 0.0 0.0
    outer loop
      vertex -1.560000000000e-03 -1.560000000000e-03 -1.159666666667e-03
      vertex -1.560000000000e-03 -1.300000000000e-03 -8.133333333333e-04
      vertex -1.560000000000e-03 -1.560000000000e-03 -8.133333333333e-04
    endloop
  endfacet
  facet normal 1.0 0.0 0.0
    outer loop
      vertex -1.560000000000e-03 -1.560000000000e-03 -8.133333333333e-04
      vertex -1.560000000000e-03 -1.300000000000e-03 -8.133333333333e-04
      vertex -1.560000000000e-03 -1.300000000000e-03 -4.670000000000e-04
    endloop
  endfacet
  facet normal 1.0 0.0 0.0
    outer loop
      vertex -1.560000000000e-03 -1.560000000000e-03 -8.133333333333e-04
      vertex -1.560000000000e-03 -1.300000000000e-03 -4.670000000000e-04
      vertex -1.560000000000e-03 -1.560000000000e-03 -4.670000000000e-04
    endloop
  endfacet
  facet normal 1.0 0.0 0.0
    outer loop
      vertex -1.560000000000e-03 -1.560000000000e-03 -4.670000000000e-04
      vertex -1.560000000000e-03 -1.300000000000e-03 -4.670000000000e-04
      vertex -1.560000000000e-03 -1.300000000000e-03 -1.206666666667e-04
    endloop
  endfacet
  facet normal 1.0 0.0 0.0
    outer loop
      vertex -1.560000000000e-03 -1.560000000000e-03 -4.670000000000e-04
      vertex -1.560000000000e-03 -1.300000000000e-03 -1.206666666667e-04
      vertex -1.560000000000e-03 -1.560000000000e-03 -1.206666666667e-04
    endloop
  endfacet
  facet normal 1.0 0.0 0.0
    outer loop
      vertex -1.560000000000e-03 -1.560000000000e-03 -1.206666666667e-04
      vertex -1.560000000000e-03 -1.300000000000e-03 -1.206666666667e-04
      vertex -1.560000000000e-03 -1.300000000000e-03 2.256666666667e-04
    endloop
  endfacet
  facet normal 1.0 0.0 0.0
    outer loop
      vertex -1.560000000000e-03 -1.560000000000e-03 -1.206666666667e-04
      vertex -1.560000000000e-03 -1.300000000000e-03 2.256666666667e-04
      vertex -1.560000000000e-03 -1.560000000000e-03 2.256666666667e-04
    endloop
  endfacet
  facet normal 1.0 0.0 0.0
    outer loop
      vertex -1.560000000000e-03 -1.560000000000e-03 2.256666666667e-04
      vertex -1.560000000000e-03 -1.300000000000e-03 2.256666666667e-04
      vertex -1.560000000000e-03 -1.300000000000e-03 5.720000000000e-04
    endloop
  endfacet
  facet normal 1.0 0.0 0.0
    outer loop
      vertex -1.560000000000e-03 -1.560000000000e-03 2.256666666667e-04
      vertex -1.560000000000e-03 -1.300000000000e-03 5.720000000000e-04
      vertex -1.560000000000e-03 -1.560000000000e-03 5.720000000000e-04
    endloop
  endfacet
  facet normal 1.0 0.0 0.0
    outer loop
      vertex -1.560000000000e-03 -1.560000000000e-03 5.720000000000e-04
      vertex -1.560000000000e-03 -1.300000000000e-03 5.720000000000e-04
      vertex -1.560000000000e-03 -1.300000000000e-03 9.183333333333e-04
    endloop
  endfacet
  facet normal 1.0 0.0 0.0
    outer loop
      vertex -1.560000000000e-03 -1.560000000000e-03 5.720000000000e-04
      vertex -1.560000000000e-03 -1.300000000000e-03 9.183333333333e-04
      vertex -1.560000000000e-03 -1.560000000000e-03 9.183333333333e-04
    endloop
  endfacet
  facet normal 1.0 0.0 0.0
    outer loop
      vertex -1.560000000000e-03 -1.560000000000e-03 9.183333333333e-04
      vertex -1.560000000000e-03 -1.300000000000e-03 9.183333333333e-04
      vertex -1.560000000000e-03 -1.300000000000e-03 1.264666666667e-03
    endloop
  endfacet
  facet normal 1.0 0.0 0.0
    outer loop
      vertex -1.560000000000e-03 -1.560000000000e-03 9.183333333333e-04
      vertex -1.560000000000e-03 -1.300000000000e-03 1.264666666667e-03
      vertex -1.560000000000e-03 -1.560000000000e-03 1.264666666667e-03
    endloop
  endfacet
  facet normal 1.0 0.0 0.0
    outer loop
      vertex -1.560000000000e-03 -1.560000000000e-03 1.264666666667e-03
      vertex -1.560000000000e-03 -1.300000000000e-03 1.264666666667e-03
      vertex -1.560000000000e-03 -1.300000000000e-03 1.611000000000e-03
    endloop
  endfacet
  facet normal 1.0 0.0 0.0
    outer loop
      vertex -1.560000000000e-03 -1.560000000000e-03 1.264666666667e-03
      vertex -1.560000000000e-03 -1.300000000000e-03 1.611000000000e-03
      vertex -1.560000000000e-03 -1.560000000000e-03 1.611000000000e-03
    endloop
  endfacet
  facet normal 1.0 0.0 0.0
    outer loop
      vertex -1.560000000000e-03 -1.560000000000e-03 1.611000000000e-03
      vertex -1.560000000000e-03 -1.300000000000e-03 1.611000000000e-03
      vertex -1.560000000000e-03 -1.300000000000e-03 1.957333333333e-03
    endloop
  endfacet
  facet normal 1.0 0.0 0.0
    outer loop
      vertex -1.560000000000e-03 -1.560000000000e-03 1.611000000000e-03
      vertex -1.560000000000e-03 -1.300000000000e-03 1.957333333333e-03
      vertex -1.560000000000e-03 -1.560000000000e-03 1.957333333333e-03
    endloop
  endfacet
  facet normal 1.0 0.0 0.0
    outer loop
      vertex -1.560000000000e-03 -1.560000000000e-03 1.957333333333e-03
      vertex -1.560000000000e-03 -1.300000000000e-03 1.957333333333e-03
      vertex -1.560000000000e-03 -1.300000000000e-03 2.303666666667e-03
    endloop
  endfacet
  facet normal 1.0 0.0 0.0
    outer loop
      vertex -1.560000000000e-03 -1.560000000000e-03 1.957333333333e-03
      vertex -1.560000000000e-03 -1.300000000000e-03 2.303666666667e-03
      vertex -1.560000000000e-03 -1.560000000000e-03 2.303666666667e-03
    endloop
  endfacet
  facet normal 1.0 0.0 0.0
    outer loop
      vertex -1.560000000000e-03 -1.560000000000e-03 2.303666666667e-03
      vertex -1.560000000000e-03 -1.300000000000e-03 2.303666666667e-03
      vertex -1.560000000000e-03 -1.300000000000e-03 2.650000000000e-03
    endloop
  endfacet
  facet normal 1.0 0.0 0.0
    outer loop
      vertex -1.560000000000e-03 -1.560000000000e-03 2.303666666667e-03
      vertex -1.560000000000e-03 -1.300000000000e-03 2.650000000000e-03
      vertex -1.560000000000e-03 -1.560000000000e-03 2.650000000000e-03
    endloop
  endfacet
  facet normal 1.0 0.0 0.0
    outer loop
      vertex -1.560000000000e-03 -1.300000000000e-03 -1.506000000000e-03
      vertex -1.560000000000e-03 -1.040000000000e-03 -1.506000000000e-03
      vertex -1.560000000000e-03 -1.040000000000e-03 -1.159666666667e-03
    endloop
  endfacet
  facet normal 1.0 0.0 0.0
    outer loop
      vertex -1.560000000000e-03 -1.300000000000e-03 -1.506000000000e-03
      vertex -1.560000000000e-03 -1.040000000000e-03 -1.159666666667e-03
      vertex -1.560000000000e-03 -1.300000000000e-03 -1.159666666667e-03
    endloop
  endfacet
  facet normal 1.0 0.0 0.0
    outer loop
      vertex -1.560000000000e-03 -1.300000000000e-03 -1.159666666667e-03
      vertex -1.560000000000e-03 -1.040000000000e-03 -1.159666666667e-03
      vertex -1.560000000000e-03 -1.040000000000e-03 -8.133333333333e-04
    endloop
  endfacet
  facet normal 1.0 0.0 0.0
    outer loop
      vertex -1.560000000000e-03 -1.300000000000e-03 -1.159666666667e-03
      vertex -1.560000000000e-03 -1.040000000000e-03 -8.133333333333e-04
      vertex -1.560000000000e-03 -1.300000000000e-03 -8.133333333333e-04
    endloop
  endfacet
  facet normal 1.0 0.0 0.0
    outer loop
      vertex -1.560000000000e-03 -1.300000000000e-03 -8.133333333333e-04
      vertex -1.560000000000e-03 -1.040000000000e-03 -8.133333333333e-04
      vertex -1.560000000000e-03 -1.040000000000e-03 -4.670000000000e-04
    endloop
  endfacet
  facet normal 1.0 0.0 0.0
    outer loop
      vertex -1.560000000000e-03 -1.300000000000e-03 -8.133333333333e-04
      vertex -1.560000000000e-03 -1.040000000000e-03 -4.670000000000e-04
      vertex -1.560000000000e-03 -1.300000000000e-03 -4.670000000000e-04
    endloop
  endfacet
  facet normal 1.0 0.0 0.0
    outer loop
      vertex -1.560000000000e-03 -1.300000000000e-03 -4.670000000000e-04
      vertex -1.560000000000e-03 -1.040000000000e-03 -4.670000000000e-04
      vertex -1.560000000000e-03 -1.040000000000e-03 -1.206666666667e-04
    endloop
  endfacet
  facet normal 1.0 0.0 0.0
    outer loop
      vertex -1.560000000000e-03 -1.300000000000e-03 -4.670000000000e-04
      vertex -1.560000000000e-03 -1.040000000000e-03 -1.206666666667e-04
      vertex -1.560000000000e-03 -1.300000000000e-03 -1.206666666667e-04
    endloop
  endfacet
  facet normal 1.0 0.0 0.0
    outer loop
      vertex -1.560000000000e-03 -1.300000000000e-03 -1.206666666667e-04
      vertex -1.560000000000e-03 -1.040000000000e-03 -1.206666666667e-04
      vertex -1.560000000000e-03 -1.040000000000e-03 2.256666666667e-04
    endloop
  endfacet
  facet normal 1.0 0.0 0.0
    outer loop
      vertex -1.560000000000e-03 -1.300000000000e-03 -1.206666666667e-04
      vertex -1.560000000000e-03 -1.040000000000e-03 2.256666666667e-04
      vertex -1.560000000000e-03 -1.300000000000e-03 2.256666666667e-04
    endloop
  endfacet
  facet normal 1.0 0.0 0.0
    outer loop
      vertex -1.560000000000e-03 -1.300000000000e-03 2.256666666667e-04
      vertex -1.560000000000e-03 -1.040000000000e-03 2.256666666667e-04
      vertex -1.560000000000e-03 -1.040000000000e-03 5.720000000000e-04
    endloop
  endfacet
  facet normal 1.0 0.0 0.0
    outer loop
      vertex -1.560000000000e-03 -1.300000000000e-03 2.256666666667e-04
      vertex -1.560000000000e-03 -1.040000000000e-03 5.720000000000e-04
      vertex -1.560000000000e-03 -1.300000000000e-03 5.720000000000e-04
    endloop
  endfacet
  facet normal 1.0 0.0 0.0
    outer loop
      vertex -1.560000000000e-03 -1.300000000000e-03 5.720000000000e-04
      vertex -1.560000000000e-03 -1.040000000000e-03 5.720000000000e-04
      vertex -1.560000000000e-03 -1.040000000000e-03 9.183333333333e-04
    endloop
  endfacet
  facet normal 1.0 0.0 0.0
    outer loop
      vertex -1.560000000000e-03 -1.300000000000e-03 5.720000000000e-04
      vertex -1.560000000000e-03 -1.040000000000e-03 9.183333333333e-04
      vertex -1.560000000000e-03 -1.300000000000e-03 9.183333333333e-04
    endloop
  endfacet
  facet normal 1.0 0.0 0.0
    outer loop
      vertex -1.560000000000e-03 -1.300000000000e-03 9.183333333333e-04
      vertex -1.560000000000e-03 -1.040000000000e-03 9.183333333333e-04
      vertex -1.560000000000e-03 -1.040000000000e-03 1.264666666667e-03
    endloop
  endfacet
  facet normal 1.0 0.0 0.0
    outer loop
      vertex -1.560000000000e-03 -1.300000000000e-03 9.183333333333e-04
      vertex -1.560000000000e-03 -1.040000000000e-03 1.264666666667e-03
      vertex -1.560000000000e-03 -1.300000000000e-03 1.264666666667e-03
    endloop
  endfacet
  facet normal 1.0 0.0 0.0
    outer loop
      vertex -1.560000000000e-03 -1.300000000000e-03 1.264666666667e-03
      vertex -1.560000000000e-03 -1.040000000000e-03 1.264666666667e-03
      vertex -1.560000000000e-03 -1.040000000000e-03 1.611000000000e-03
    endloop
  endfacet
  facet normal 1.0 0.0 0.0
    outer loop
      vertex -1.560000000000e-03 -1.300000000000e-03 1.264666666667e-03
      vertex -1.560000000000e-03 -1.040000000000e-03 1.611000000000e-03
      vertex -1.560000000000e-03 -1.300000000000e-03 1.611000000000e-03
    endloop
  endfacet
  facet normal 1.0 0.0 0.0
    outer loop
      vertex -1.560000000000e-03 -1.300000000000e-03 1.611000000000e-03
      vertex -1.560000000000e-03 -1.040000000000e-03 1.611000000000e-03
      vertex -1.560000000000e-03 -1.040000000000e-03 1.957333333333e-03
    endloop
  endfacet
  facet normal 1.0 0.0 0.0
    outer loop
      vertex -1.560000000000e-03 -1.300000000000e-03 1.611000000000e-03
      vertex -1.560000000000e-03 -1.040000000000e-03 1.957333333333e-03
      vertex -1.560000000000e-03 -1.300000000000e-03 1.957333333333e-03
    endloop
  endfacet
  facet normal 1.0 0.0 0.0
    outer loop
      vertex -1.560000000000e-03 -1.300000000000e-03 1.957333333333e-03
      vertex -1.560000000000e-03 -1.040000000000e-03 1.957333333333e-03
      vertex -1.560000000000e-03 -1.040000000000e-03 2.303666666667e-03
    endloop
  endfacet
  facet normal 1.0 0.0 0.0
    outer loop
      vertex -1.560000000000e-03 -1.300000000000e-03 1.957333333333e-03
      vertex -1.560000000000e-03 -1.040000000000e-03 2.303666666667e-03
      vertex -1.560000000000e-03 -1.300000000000e-03 2.303666666667e-03
    endloop
  endfacet
  facet normal 1.0 0.0 0.0
    outer loop
      vertex -1.560000000000e-03 -1.300000000000e-03 2.303666666667e-03
      vertex -1.560000000000e-03 -1.040000000000e-03 2.303666666667e-03
      vertex -1.560000000000e-03 -1.040000000000e-03 2.650000000000e-03
    endloop
  endfacet
  facet normal 1.0 0.0 0.0
    outer loop
      vertex -1.560000000000e-03 -1.300000000000e-03 2.303666666667e-03
      vertex -1.560000000000e-03 -1.040000000000e-03 2.650000000000e-03
      vertex -1.560000000000e-03 -1.300000000000e-03 2.650000000000e-03
    endloop
  endfacet
  facet normal 1.0 0.0 0.0
    outer loop
      vertex -1.560000000000e-03 -1.040000000000e-03 -1.506000000000e-03
      vertex -1.560000000000e-03 -7.800000000000e-04 -1.506000000000e-03
      vertex -1.560000000000e-03 -7.800000000000e-04 -1.159666666667e-03
    endloop
  endfacet
  facet normal 1.0 0.0 0.0
    outer loop
      vertex -1.560000000000e-03 -1.040000000000e-03 -1.506000000000e-03
      vertex -1.560000000000e-03 -7.800000000000e-04 -1.159666666667e-03
      vertex -1.560000000000e-03 -1.040000000000e-03 -1.159666666667e-03
    endloop
  endfacet
  facet normal 1.0 0.0 0.0
    outer loop
      vertex -1.560000000000e-03 -1.040000000000e-03 -1.159666666667e-03
      vertex -1.560000000000e-03 -7.800000000000e-04 -1.159666666667e-03
      vertex -1.560000000000e-03 -7.800000000000e-04 -8.133333333333e-04
    endloop
  endfacet
  facet normal 1.0 0.0 0.0
    outer loop
      vertex -1.560000000000e-03 -1.040000000000e-03 -1.159666666667e-03
      vertex -1.560000000000e-03 -7.800000000000e-04 -8.133333333333e-04
      vertex -1.560000000000e-03 -1.040000000000e-03 -8.133333333333e-04
    endloop
  endfacet
  facet normal 1.0 0.0 0.0
    outer loop
      vertex -1.560000000000e-03 -1.040000000000e-03 -8.133333333333e-04
      vertex -1.560000000000e-03 -7.800000000000e-04 -8.133333333333e-04
      vertex -1.560000000000e-03 -7.800000000000e-04 -4.670000000000e-04
    endloop
  endfacet
  facet normal 1.0 0.0 0.0
    outer loop
      vertex -1.560000000000e-03 -1.040000000000e-03 -8.133333333333e-04
      vertex -1.560000000000e-03 -7.800000000000e-04 -4.670000000000e-04
      vertex -1.560000000000e-03 -1.040000000000e-03 -4.670000000000e-04
    endloop
  endfacet
  facet normal 1.0 0.0 0.0
    outer loop
      vertex -1.560000000000e-03 -1.040000000000e-03 -4.670000000000e-04
      vertex -1.560000000000e-03 -7.800000000000e-04 -4.670000000000e-04
      vertex -1.560000000000e-03 -7.800000000000e-04 -1.206666666667e-04
    endloop
  endfacet
  facet normal 1.0 0.0 0.0
    outer loop
      vertex -1.560000000000e-03 -1.040000000000e-03 -4.670000000000e-04
      vertex -1.560000000000e-03 -7.800000000000e-04 -1.206666666667e-04
      vertex -1.560000000000e-03 -1.040000000000e-03 -1.206666666667e-04
    endloop
  endfacet
  facet normal 1.0 0.0 0.0
    outer loop
      vertex -1.560000000000e-03 -1.040000000000e-03 -1.206666666667e-04
      vertex -1.560000000000e-03 -7.800000000000e-04 -1.206666666667e-04
      vertex -1.560000000000e-03 -7.800000000000e-04 2.256666666667e-04
    endloop
  endfacet
  facet normal 1.0 0.0 0.0
    outer loop
      vertex -1.560000000000e-03 -1.040000000000e-03 -1.206666666667e-04
      vertex -1.560000000000e-03 -7.800000000000e-04 2.256666666667e-04
      vertex -1.560000000000e-03 -1.040000000000e-03 2.256666666667e-04
    endloop
  endfacet
  facet normal 1.0 0.0 0.0
    outer loop
      vertex -1.560000000000e-03 -1.040000000000e-03 2.256666666667e-04
      vertex -1.560000000000e-03 -7.800000000000e-04 2.256666666667e-04
      vertex -1.560000000000e-03 -7.800000000000e-04 5.720000000000e-04
    endloop
  endfacet
  facet normal 1.0 0.0 0.0
    outer loop
      vertex -1.560000000000e-03 -1.040000000000e-03 2.256666666667e-04
      vertex -1.560000000000e-03 -7.800000000000e-04 5.720000000000e-04
      vertex -1.560000000000e-03 -1.040000000000e-03 5.720000000000e-04
    endloop
  endfacet
  facet normal 1.0 0.0 0.0
    outer loop
      vertex -1.560000000000e-03 -1.040000000000e-03 5.720000000000e-04
      vertex -1.560000000000e-03 -7.800000000000e-04 5.720000000000e-04
      vertex -1.560000000000e-03 -7.800000000000e-04 9.183333333333e-04
    endloop
  endfacet
  facet normal 1.0 0.0 0.0
    outer loop
      vertex -1.560000000000e-03 -1.040000000000e-03 5.720000000000e-04
      vertex -1.560000000000e-03 -7.800000000000e-04 9.183333333333e-04
      vertex -1.560000000000e-03 -1.040000000000e-03 9.183333333333e-04
    endloop
  endfacet
  facet normal 1.0 0.0 0.0
    outer loop
      vertex -1.560000000000e-03 -1.040000000000e-03 9.183333333333e-04
      vertex -1.560000000000e-03 -7.800000000000e-04 9.183333333333e-04
      vertex -1.560000000000e-03 -7.800000000000e-04 1.264666666667e-03
    endloop
  endfacet
  facet normal 1.0 0.0 0.0
    outer loop
      vertex -1.560000000000e-03 -1.040000000000e-03 9.183333333333e-04
      vertex -1.560000000000e-03 -7.800000000000e-04 1.264666666667e-03
      vertex -1.560000000000e-03 -1.040000000000e-03 1.264666666667e-03
    endloop
  endfacet
  facet normal 1.0 0.0 0.0
    outer loop
      vertex -1.560000000000e-03 -1.040000000000e-03 1.264666666667e-03
      vertex -1.560000000000e-03 -7.800000000000e-04 1.264666666667e-03
      vertex -1.560000000000e-03 -7.800000000000e-04 1.611000000000e-03
    endloop
  endfacet
  facet normal 1.0 0.0 0.0
    outer loop
      vertex -1.560000000000e-03 -1.040000000000e-03 1.264666666667e-03
      vertex -1.560000000000e-03 -7.800000000000e-04 1.611000000000e-03
      vertex -1.560000000000e-03 -1.040000000000e-03 1.611000000000e-03
    endloop
  endfacet
  facet normal 1.0 0.0 0.0
    outer loop
      vertex -1.560000000000e-03 -1.040000000000e-03 1.611000000000e-03
      vertex -1.560000000000e-03 -7.800000000000e-04 1.611000000000e-03
      vertex -1.560000000000e-03 -7.800000000000e-04 1.957333333333e-03
    endloop
  endfacet
  facet normal 1.0 0.0 0.0
    outer loop
      vertex -1.560000000000e-03 -1.040000000000e-03 1.611000000000e-03
      vertex -1.560000000000e-03 -7.800000000000e-04 1.957333333333e-03
      vertex -1.560000000000e-03 -1.040000000000e-03 1.957333333333e-03
    endloop
  endfacet
  facet normal 1.0 0.0 0.0
    outer loop
      vertex -1.560000000000e-03 -1.040000000000e-03 1.957333333333e-03
      vertex -1.560000000000e-03 -7.800000000000e-04 1.957333333333e-03
      vertex -1.560000000000e-03 -7.800000000000e-04 2.303666666667e-03
    endloop
  endfacet
  facet normal 1.0 0.0 0.0
    outer loop
      vertex -1.560000000000e-03 -1.040000000000e-03 1.957333333333e-03
      vertex -1.560000000000e-03 -7.800000000000e-04 2.303666666667e-03
      vertex -1.560000000000e-03 -1.040000000000e-03 2.303666666667e-03
    endloop
  endfacet
  facet normal 1.0 0.0 0.0
    outer loop
      vertex -1.560000000000e-03 -1.040000000000e-03 2.303666666667e-03
      vertex -1.560000000000e-03 -7.800000000000e-04 2.303666666667e-03
      vertex -1.560000000000e-03 -7.800000000000e-04 2.650000000000e-03
    endloop
  endfacet
  facet normal 1.0 0.0 0.0
    outer loop
      vertex -1.560000000000e-03 -1.040000000000e-03 2.303666666667e-03
      vertex -1.560000000000e-03 -7.800000000000e-04 2.650000000000e-03
      vertex -1.560000000000e-03 -1.040000000000e-03 2.650000000000e-03
    endloop
  endfacet
  facet normal 1.0 0.0 0.0
    outer loop
      vertex -1.560000000000e-03 -7.800000000000e-04 -1.506000000000e-03
      vertex -1.560000000000e-03 -5.200000000000e-04 -1.506000000000e-03
      vertex -1.560000000000e-03 -5.200000000000e-04 -1.159666666667e-03
    endloop
  endfacet
  facet normal 1.0 0.0 0.0
    outer loop
      vertex -1.560000000000e-03 -7.800000000000e-04 -1.506000000000e-03
      vertex -1.560000000000e-03 -5.200000000000e-04 -1.159666666667e-03
      vertex -1.560000000000e-03 -7.800000000000e-04 -1.159666666667e-03
    endloop
  endfacet
  facet normal 1.0 0.0 0.0
    outer loop
      vertex -1.560000000000e-03 -7.800000000000e-04 -1.159666666667e-03
      vertex -1.560000000000e-03 -5.200000000000e-04 -1.159666666667e-03
      vertex -1.560000000000e-03 -5.200000000000e-04 -8.133333333333e-04
    endloop
  endfacet
  facet normal 1.0 0.0 0.0
    outer loop
      vertex -1.560000000000e-03 -7.800000000000e-04 -1.159666666667e-03
      vertex -1.560000000000e-03 -5.200000000000e-04 -8.133333333333e-04
      vertex -1.560000000000e-03 -7.800000000000e-04 -8.133333333333e-04
    endloop
  endfacet
  facet normal 1.0 0.0 0.0
    outer loop
      vertex -1.560000000000e-03 -7.800000000000e-04 -8.133333333333e-04
      vertex -1.560000000000e-03 -5.200000000000e-04 -8.133333333333e-04
      vertex -1.560000000000e-03 -5.200000000000e-04 -4.670000000000e-04
    endloop
  endfacet
  facet normal 1.0 0.0 0.0
    outer loop
      vertex -1.560000000000e-03 -7.800000000000e-04 -8.133333333333e-04
      vertex -1.560000000000e-03 -5.200000000000e-04 -4.670000000000e-04
      vertex -1.560000000000e-03 -7.800000000000e-04 -4.670000000000e-04
    endloop
  endfacet
  facet normal 1.0 0.0 0.0
    outer loop
      vertex -1.560000000000e-03 -7.800000000000e-04 -4.670000000000e-04
      vertex -1.560000000000e-03 -5.200000000000e-04 -4.670000000000e-04
      vertex -1.560000000000e-03 -5.200000000000e-04 -1.206666666667e-04
    endloop
  endfacet
  facet normal 1.0 0.0 0.0
    outer loop
      vertex -1.560000000000e-03 -7.800000000000e-04 -4.670000000000e-04
      vertex -1.560000000000e-03 -5.200000000000e-04 -1.206666666667e-04
      vertex -1.560000000000e-03 -7.800000000000e-04 -1.206666666667e-04
    endloop
  endfacet
  facet normal 1.0 0.0 0.0
    outer loop
      vertex -1.560000000000e-03 -7.800000000000e-04 -1.206666666667e-04
      vertex -1.560000000000e-03 -5.200000000000e-04 -1.206666666667e-04
      vertex -1.560000000000e-03 -5.200000000000e-04 2.256666666667e-04
    endloop
  endfacet
  facet normal 1.0 0.0 0.0
    outer loop
      vertex -1.560000000000e-03 -7.800000000000e-04 -1.206666666667e-04
      vertex -1.560000000000e-03 -5.200000000000e-04 2.256666666667e-04
      vertex -1.560000000000e-03 -7.800000000000e-04 2.256666666667e-04
    endloop
  endfacet
  facet normal 1.0 0.0 0.0
    outer loop
      vertex -1.560000000000e-03 -7.800000000000e-04 2.256666666667e-04
      vertex -1.560000000000e-03 -5.200000000000e-04 2.256666666667e-04
      vertex -1.560000000000e-03 -5.200000000000e-04 5.720000000000e-04
    endloop
  endfacet
  facet normal 1.0 0.0 0.0
    outer loop
      vertex -1.560000000000e-03 -7.800000000000e-04 2.256666666667e-04
      vertex -1.560000000000e-03 -5.200000000000e-04 5.720000000000e-04
      vertex -1.560000000000e-03 -7.800000000000e-04 5.720000000000e-04
    endloop
  endfacet
  facet normal 1.0 0.0 0.0
    outer loop
      vertex -1.560000000000e-03 -7.800000000000e-04 5.720000000000e-04
      vertex -1.560000000000e-03 -5.200000000000e-04 5.720000000000e-04
      vertex -1.560000000000e-03 -5.200000000000e-04 9.183333333333e-04
    endloop
  endfacet
  facet normal 1.0 0.0 0.0
    outer loop
      vertex -1.560000000000e-03 -7.800000000000e-04 5.720000000000e-04
      vertex -1.560000000000e-03 -5.200000000000e-04 9.183333333333e-04
      vertex -1.560000000000e-03 -7.800000000000e-04 9.183333333333e-04
    endloop
  endfacet
  facet normal 1.0 0.0 0.0
    outer loop
      vertex -1.560000000000e-03 -7.800000000000e-04 9.183333333333e-04
      vertex -1.560000000000e-03 -5.200000000000e-04 9.183333333333e-04
      vertex -1.560000000000e-03 -5.200000000000e-04 1.264666666667e-03
    endloop
  endfacet
  facet normal 1.0 0.0 0.0
    outer loop
      vertex -1.560000000000e-03 -7.800000000000e-04 9.183333333333e-04
      vertex -1.560000000000e-03 -5.200000000000e-04 1.264666666667e-03
      vertex -1.560000000000e-03 -7.800000000000e-04 1.264666666667e-03
    endloop
  endfacet
  facet normal 1.0 0.0 0.0
    outer loop
      vertex -1.560000000000e-03 -7.800000000000e-04 1.264666666667e-03
      vertex -1.560000000000e-03 -5.200000000000e-04 1.264666666667e-03
      vertex -1.560000000000e-03 -5.200000000000e-04 1.611000000000e-03
    endloop
  endfacet
  facet normal 1.0 0.0 0.0
    outer loop
      vertex -1.560000000000e-03 -7.800000000000e-04 1.264666666667e-03
      vertex -1.560000000000e-03 -5.200000000000e-04 1.611000000000e-03
      vertex -1.560000000000e-03 -7.800000000000e-04 1.611000000000e-03
    endloop
  endfacet
  facet normal 1.0 0.0 0.0
    outer loop
      vertex -1.560000000000e-03 -7.800000000000e-04 1.611000000000e-03
      vertex -1.560000000000e-03 -5.200000000000e-04 1.611000000000e-03
      vertex -1.560000000000e-03 -5.200000000000e-04 1.957333333333e-03
    endloop
  endfacet
  facet normal 1.0 0.0 0.0
    outer loop
      vertex -1.560000000000e-03 -7.800000000000e-04 1.611000000000e-03
      vertex -1.560000000000e-03 -5.200000000000e-04 1.957333333333e-03
      vertex -1.560000000000e-03 -7.800000000000e-04 1.957333333333e-03
    endloop
  endfacet
  facet normal 1.0 0.0 0.0
    outer loop
      vertex -1.560000000000e-03 -7.800000000000e-04 1.957333333333e-03
      vertex -1.560000000000e-03 -5.200000000000e-04 1.957333333333e-03
      vertex -1.560000000000e-03 -5.200000000000e-04 2.303666666667e-03
    endloop
  endfacet
  facet normal 1.0 0.0 0.0
    outer loop
      vertex -1.560000000000e-03 -7.800000000000e-04 1.957333333333e-03
      vertex -1.560000000000e-03 -5.200000000000e-04 2.303666666667e-03
      vertex -1.560000000000e-03 -7.800000000000e-04 2.303666666667e-03
    endloop
  endfacet
  facet normal 1.0 0.0 0.0
    outer loop
      vertex -1.560000000000e-03 -7.800000000000e-04 2.303666666667e-03
      vertex -1.560000000000e-03 -5.200000000000e-04 2.303666666667e-03
      vertex -1.560000000000e-03 -5.200000000000e-04 2.650000000000e-03
    endloop
  endfacet
  facet normal 1.0 0.0 0.0
    outer loop
      vertex -1.560000000000e-03 -7.800000000000e-04 2.303666666667e-03
      vertex -1.560000000000e-03 -5.200000000000e-04 2.650000000000e-03
      vertex -1.560000000000e-03 -7.800000000000e-04 2.650000000000e-03
    endloop
  endfacet
  facet normal 1.0 0.0 0.0
    outer loop
      vertex -1.560000000000e-03 -5.200000000000e-04 -1.506000000000e-03
      vertex -1.560000000000e-03 -2.600000000000e-04 -1.506000000000e-03
      vertex -1.560000000000e-03 -2.600000000000e-04 -1.159666666667e-03
    endloop
  endfacet
  facet normal 1.0 0.0 0.0
    outer loop
      vertex -1.560000000000e-03 -5.200000000000e-04 -1.506000000000e-03
      vertex -1.560000000000e-03 -2.600000000000e-04 -1.159666666667e-03
      vertex -1.560000000000e-03 -5.200000000000e-04 -1.159666666667e-03
    endloop
  endfacet
  facet normal 1.0 0.0 0.0
    outer loop
      vertex -1.560000000000e-03 -5.200000000000e-04 -1.159666666667e-03
      vertex -1.560000000000e-03 -2.600000000000e-04 -1.159666666667e-03
      vertex -1.560000000000e-03 -2.600000000000e-04 -8.133333333333e-04
    endloop
  endfacet
  facet normal 1.0 0.0 0.0
    outer loop
      vertex -1.560000000000e-03 -5.200000000000e-04 -1.159666666667e-03
      vertex -1.560000000000e-03 -2.600000000000e-04 -8.133333333333e-04
      vertex -1.560000000000e-03 -5.200000000000e-04 -8.133333333333e-04
    endloop
  endfacet
  facet normal 1.0 0.0 0.0
    outer loop
      vertex -1.560000000000e-03 -5.200000000000e-04 -8.133333333333e-04
      vertex -1.560000000000e-03 -2.600000000000e-04 -8.133333333333e-04
      vertex -1.560000000000e-03 -2.600000000000e-04 -4.670000000000e-04
    endloop
  endfacet
  facet normal 1.0 0.0 0.0
    outer loop
      vertex -1.560000000000e-03 -5.200000000000e-04 -8.133333333333e-04
      vertex -1.560000000000e-03 -2.600000000000e-04 -4.670000000000e-04
      vertex -1.560000000000e-03 -5.200000000000e-04 -4.670000000000e-04
    endloop
  endfacet
  facet normal 1.0 0.0 0.0
    outer loop
      vertex -1.560000000000e-03 -5.200000000000e-04 -4.670000000000e-04
      vertex -1.560000000000e-03 -2.600000000000e-04 -4.670000000000e-04
      vertex -1.560000000000e-03 -2.600000000000e-04 -1.206666666667e-04
    endloop
  endfacet
  facet normal 1.0 0.0 0.0
    outer loop
      vertex -1.560000000000e-03 -5.200000000000e-04 -4.670000000000e-04
      vertex -1.560000000000e-03 -2.600000000000e-04 -1.206666666667e-04
      vertex -1.560000000000e-03 -5.200000000000e-04 -1.206666666667e-04
    endloop
  endfacet
  facet normal 1.0 0.0 0.0
    outer loop
      vertex -1.560000000000e-03 -5.200000000000e-04 -1.206666666667e-04
      vertex -1.560000000000e-03 -2.600000000000e-04 -1.206666666667e-04
      vertex -1.560000000000e-03 -2.600000000000e-04 2.256666666667e-04
    endloop
  endfacet
  facet normal 1.0 0.0 0.0
    outer loop
      vertex -1.560000000000e-03 -5.200000000000e-04 -1.206666666667e-04
      vertex -1.560000000000e-03 -2.600000000000e-04 2.256666666667e-04
      vertex -1.560000000000e-03 -5.200000000000e-04 2.256666666667e-04
    endloop
  endfacet
  facet normal 1.0 0.0 0.0
    outer loop
      vertex -1.560000000000e-03 -5.200000000000e-04 2.256666666667e-04
      vertex -1.560000000000e-03 -2.600000000000e-04 2.256666666667e-04
      vertex -1.560000000000e-03 -2.600000000000e-04 5.720000000000e-04
    endloop
  endfacet
  facet normal 1.0 0.0 0.0
    outer loop
      vertex -1.560000000000e-03 -5.200000000000e-04 2.256666666667e-04
      vertex -1.560000000000e-03 -2.600000000000e-04 5.720000000000e-04
      vertex -1.560000000000e-03 -5.200000000000e-04 5.720000000000e-04
    endloop
  endfacet
  facet normal 1.0 0.0 0.0
    outer loop
      vertex -1.560000000000e-03 -5.200000000000e-04 5.720000000000e-04
      vertex -1.560000000000e-03 -2.600000000000e-04 5.720000000000e-04
      vertex -1.560000000000e-03 -2.600000000000e-04 9.183333333333e-04
    endloop
  endfacet
  facet normal 1.0 0.0 0.0
    outer loop
      vertex -1.560000000000e-03 -5.200000000000e-04 5.720000000000e-04
      vertex -1.560000000000e-03 -2.600000000000e-04 9.183333333333e-04
      vertex -1.560000000000e-03 -5.200000000000e-04 9.183333333333e-04
    endloop
  endfacet
  facet normal 1.0 0.0 0.0
    outer loop
      vertex -1.560000000000e-03 -5.200000000000e-04 9.183333333333e-04
      vertex -1.560000000000e-03 -2.600000000000e-04 9.183333333333e-04
      vertex -1.560000000000e-03 -2.600000000000e-04 1.264666666667e-03
    endloop
  endfacet
  facet normal 1.0 0.0 0.0
    outer loop
      vertex -1.560000000000e-03 -5.200000000000e-04 9.183333333333e-04
      vertex -1.560000000000e-03 -2.600000000000e-04 1.264666666667e-03
      vertex -1.560000000000e-03 -5.200000000000e-04 1.264666666667e-03
    endloop
  endfacet
  facet normal 1.0 0.0 0.0
    outer loop
      vertex -1.560000000000e-03 -5.200000000000e-04 1.264666666667e-03
      vertex -1.560000000000e-03 -2.600000000000e-04 1.264666666667e-03
      vertex -1.560000000000e-03 -2.600000000000e-04 1.611000000000e-03
    endloop
  endfacet
  facet normal 1.0 0.0 0.0
    outer loop
      vertex -1.560000000000e-03 -5.200000000000e-04 1.264666666667e-03
      vertex -1.560000000000e-03 -2.600000000000e-04 1.611000000000e-03
      vertex -1.560000000000e-03 -5.200000000000e-04 1.611000000000e-03
    endloop
  endfacet
  facet normal 1.0 0.0 0.0
    outer loop
      vertex -1.560000000000e-03 -5.200000000000e-04 1.611000000000e-03
      vertex -1.560000000000e-03 -2.600000000000e-04 1.611000000000e-03
      vertex -1.560000000000e-03 -2.600000000000e-04 1.957333333333e-03
    endloop
  endfacet
  facet normal 1.0 0.0 0.0
    outer loop
      vertex -1.560000000000e-03 -5.200000000000e-04 1.611000000000e-03
      vertex -1.560000000000e-03 -2.600000000000e-04 1.957333333333e-03
      vertex -1.560000000000e-03 -5.200000000000e-04 1.957333333333e-03
    endloop
  endfacet
  facet normal 1.0 0.0 0.0
    outer loop
      vertex -1.560000000000e-03 -5.200000000000e-04 1.957333333333e-03
      vertex -1.560000000000e-03 -2.600000000000e-04 1.957333333333e-03
      vertex -1.560000000000e-03 -2.600000000000e-04 2.303666666667e-03
    endloop
  endfacet
  facet normal 1.0 0.0 0.0
    outer loop
      vertex -1.560000000000e-03 -5.200000000000e-04 1.957333333333e-03
      vertex -1.560000000000e-03 -2.600000000000e-04 2.303666666667e-03
      vertex -1.560000000000e-03 -5.200000000000e-04 2.303666666667e-03
    endloop
  endfacet
  facet normal 1.0 0.0 0.0
    outer loop
      vertex -1.560000000000e-03 -5.200000000000e-04 2.303666666667e-03
      vertex -1.560000000000e-03 -2.600000000000e-04 2.303666666667e-03
      vertex -1.560000000000e-03 -2.600000000000e-04 2.650000000000e-03
    endloop
  endfacet
  facet normal 1.0 0.0 0.0
    outer loop
      vertex -1.560000000000e-03 -5.200000000000e-04 2.303666666667e-03
      vertex -1.560000000000e-03 -2.600000000000e-04 2.650000000000e-03
      vertex -1.560000000000e-03 -5.200000000000e-04 2.650000000000e-03
    endloop
  endfacet
  facet normal 1.0 0.0 0.0
    outer loop
      vertex -1.560000000000e-03 -2.600000000000e-04 -1.506000000000e-03
      vertex -1.560000000000e-03 -5.421010862428e-20 -1.506000000000e-03
      vertex -1.560000000000e-03 -5.421010862428e-20 -1.159666666667e-03
    endloop
  endfacet
  facet normal 1.0 0.0 0.0
    outer loop
      vertex -1.560000000000e-03 -2.600000000000e-04 -1.506000000000e-03
      vertex -1.560000000000e-03 -5.421010862428e-20 -1.159666666667e-03
      vertex -1.560000000000e-03 -2.600000000000e-04 -1.159666666667e-03
    endloop
  endfacet
  facet normal 1.0 0.0 0.0
    outer loop
      vertex -1.560000000000e-03 -2.600000000000e-04 -1.159666666667e-03
      vertex -1.560000000000e-03 -5.421010862428e-20 -1.159666666667e-03
      vertex -1.560000000000e-03 -5.421010862428e-20 -8.133333333333e-04
    endloop
  endfacet
  facet normal 1.0 0.0 0.0
    outer loop
      vertex -1.560000000000e-03 -2.600000000000e-04 -1.159666666667e-03
      vertex -1.560000000000e-03 -5.421010862428e-20 -8.133333333333e-04
      vertex -1.560000000000e-03 -2.600000000000e-04 -8.133333333333e-04
    endloop
  endfacet
  facet normal 1.0 0.0 0.0
    outer loop
      vertex -1.560000000000e-03 -2.600000000000e-04 -8.133333333333e-04
      vertex -1.560000000000e-03 -5.421010862428e-20 -8.133333333333e-04
      vertex -1.560000000000e-03 -5.421010862428e-20 -4.670000000000e-04
    endloop
  endfacet
  facet normal 1.0 0.0 0.0
    outer loop
      vertex -1.560000000000e-03 -2.600000000000e-04 -8.133333333333e-04
      vertex -1.560000000000e-03 -5.421010862428e-20 -4.670000000000e-04
      vertex -1.560000000000e-03 -2.600000000000e-04 -4.670000000000e-04
    endloop
  endfacet
  facet normal 1.0 0.0 0.0
    outer loop
      vertex -1.560000000000e-03 -2.600000000000e-04 -4.670000000000e-04
      vertex -1.560000000000e-03 -5.421010862428e-20 -4.670000000000e-04
      vertex -1.560000000000e-03 -5.421010862428e-20 -1.206666666667e-04
    endloop
  endfacet
  facet normal 1.0 0.0 0.0
    outer loop
      vertex -1.560000000000e-03 -2.600000000000e-04 -4.670000000000e-04
      vertex -1.560000000000e-03 -5.421010862428e-20 -1.206666666667e-04
      vertex -1.560000000000e-03 -2.600000000000e-04 -1.206666666667e-04
    endloop
  endfacet
  facet normal 1.0 0.0 0.0
    outer loop
      vertex -1.560000000000e-03 -2.600000000000e-04 -1.206666666667e-04
      vertex -1.560000000000e-03 -5.421010862428e-20 -1.206666666667e-04
      vertex -1.560000000000e-03 -5.421010862428e-20 2.256666666667e-04
    endloop
  endfacet
  facet normal 1.0 0.0 0.0
    outer loop
      vertex -1.560000000000e-03 -2.600000000000e-04 -1.206666666667e-04
      vertex -1.560000000000e-03 -5.421010862428e-20 2.256666666667e-04
      vertex -1.560000000000e-03 -2.600000000000e-04 2.256666666667e-04
    endloop
  endfacet
  facet normal 1.0 0.0 0.0
    outer loop
      vertex -1.560000000000e-03 -2.600000000000e-04 2.256666666667e-04
      vertex -1.560000000000e-03 -5.421010862428e-20 2.256666666667e-04
      vertex -1.560000000000e-03 -5.421010862428e-20 5.720000000000e-04
    endloop
  endfacet
  facet normal 1.0 0.0 0.0
    outer loop
      vertex -1.560000000000e-03 -2.600000000000e-04 2.256666666667e-04
      vertex -1.560000000000e-03 -5.421010862428e-20 5.720000000000e-04
      vertex -1.560000000000e-03 -2.600000000000e-04 5.720000000000e-04
    endloop
  endfacet
  facet normal 1.0 0.0 0.0
    outer loop
      vertex -1.560000000000e-03 -2.600000000000e-04 5.720000000000e-04
      vertex -1.560000000000e-03 -5.421010862428e-20 5.720000000000e-04
      vertex -1.560000000000e-03 -5.421010862428e-20 9.183333333333e-04
    endloop
  endfacet
  facet normal 1.0 0.0 0.0
    outer loop
      vertex -1.560000000000e-03 -2.600000000000e-04 5.720000000000e-04
      vertex -1.560000000000e-03 -5.421010862428e-20 9.183333333333e-04
      vertex -1.560000000000e-03 -2.600000000000e-04 9.183333333333e-04
    endloop
  endfacet
  facet normal 1.0 0.0 0.0
    outer loop
      vertex -1.560000000000e-03 -2.600000000000e-04 9.183333333333e-04
      vertex -1.560000000000e-03 -5.421010862428e-20 9.183333333333e-04
      vertex -1.560000000000e-03 -5.421010862428e-20 1.264666666667e-03
    endloop
  endfacet
  facet normal 1.0 0.0 0.0
    outer loop
      vertex -1.560000000000e-03 -2.600000000000e-04 9.183333333333e-04
      vertex -1.560000000000e-03 -5.421010862428e-20 1.264666666667e-03
      vertex -1.560000000000e-03 -2.600000000000e-04 1.264666666667e-03
    endloop
  endfacet
  facet normal 1.0 0.0 0.0
    outer loop
      vertex -1.560000000000e-03 -2.600000000000e-04 1.264666666667e-03
      vertex -1.560000000000e-03 -5.421010862428e-20 1.264666666667e-03
      vertex -1.560000000000e-03 -5.421010862428e-20 1.611000000000e-03
    endloop
  endfacet
  facet normal 1.0 0.0 0.0
    outer loop
      vertex -1.560000000000e-03 -2.600000000000e-04 1.264666666667e-03
      vertex -1.560000000000e-03 -5.421010862428e-20 1.611000000000e-03
      vertex -1.560000000000e-03 -2.600000000000e-04 1.611000000000e-03
    endloop
  endfacet
  facet normal 1.0 0.0 0.0
    outer loop
      vertex -1.560000000000e-03 -2.600000000000e-04 1.611000000000e-03
      vertex -1.560000000000e-03 -5.421010862428e-20 1.611000000000e-03
      vertex -1.560000000000e-03 -5.421010862428e-20 1.957333333333e-03
    endloop
  endfacet
  facet normal 1.0 0.0 0.0
    outer loop
      vertex -1.560000000000e-03 -2.600000000000e-04 1.611000000000e-03
      vertex -1.560000000000e-03 -5.421010862428e-20 1.957333333333e-03
      vertex -1.560000000000e-03 -2.600000000000e-04 1.957333333333e-03
    endloop
  endfacet
  facet normal 1.0 0.0 0.0
    outer loop
      vertex -1.560000000000e-03 -2.600000000000e-04 1.957333333333e-03
      vertex -1.560000000000e-03 -5.421010862428e-20 1.957333333333e-03
      vertex -1.560000000000e-03 -5.421010862428e-20 2.303666666667e-03
    endloop
  endfacet
  facet normal 1.0 0.0 0.0
    outer loop
      vertex -1.560000000000e-03 -2.600000000000e-04 1.957333333333e-03
      vertex -1.560000000000e-03 -5.421010862428e-20 2.303666666667e-03
      vertex -1.560000000000e-03 -2.600000000000e-04 2.303666666667e-03
    endloop
  endfacet
  facet normal 1.0 0.0 0.0
    outer loop
      vertex -1.560000000000e-03 -2.600000000000e-04 2.303666666667e-03
      vertex -1.560000000000e-03 -5.421010862428e-20 2.303666666667e-03
      vertex -1.560000000000e-03 -5.421010862428e-20 2.650000000000e-03
    endloop
  endfacet
  facet normal 1.0 0.0 0.0
    outer loop
      vertex -1.560000000000e-03 -2.600000000000e-04 2.303666666667e-03
      vertex -1.560000000000e-03 -5.421010862428e-20 2.650000000000e-03
      vertex -1.560000000000e-03 -2.600000000000e-04 2.650000000000e-03
    endloop
  endfacet
  facet normal 1.0 0.0 0.0
    outer loop
      vertex -1.560000000000e-03 -2.168404344971e-19 -1.506000000000e-03
      vertex -1.560000000000e-03 2.600000000000e-04 -1.506000000000e-03
      vertex -1.560000000000e-03 2.600000000000e-04 -1.159666666667e-03
    endloop
  endfacet
  facet normal 1.0 0.0 0.0
    outer loop
      vertex -1.560000000000e-03 -2.168404344971e-19 -1.506000000000e-03
      vertex -1.560000000000e-03 2.600000000000e-04 -1.159666666667e-03
      vertex -1.560000000000e-03 -2.168404344971e-19 -1.159666666667e-03
    endloop
  endfacet
  facet normal 1.0 0.0 0.0
    outer loop
      vertex -1.560000000000e-03 -2.168404344971e-19 -1.159666666667e-03
      vertex -1.560000000000e-03 2.600000000000e-04 -1.159666666667e-03
      vertex -1.560000000000e-03 2.600000000000e-04 -8.133333333333e-04
    endloop
  endfacet
  facet normal 1.0 0.0 0.0
    outer loop
      vertex -1.560000000000e-03 -2.168404344971e-19 -1.159666666667e-03
      vertex -1.560000000000e-03 2.600000000000e-04 -8.133333333333e-04
      vertex -1.560000000000e-03 -2.168404344971e-19 -8.133333333333e-04
    endloop
  endfacet
  facet normal 1.0 0.0 0.0
    outer loop
      vertex -1.560000000000e-03 -2.168404344971e-19 -8.133333333333e-04
      vertex -1.560000000000e-03 2.600000000000e-04 -8.133333333333e-04
      vertex -1.560000000000e-03 2.600000000000e-04 -4.670000000000e-04
    endloop
  endfacet
  facet normal 1.0 0.0 0.0
    outer loop
      vertex -1.560000000000e-03 -2.168404344971e-19 -8.133333333333e-04
      vertex -1.560000000000e-03 2.600000000000e-04 -4.670000000000e-04
      vertex -1.560000000000e-03 -2.168404344971e-19 -4.670000000000e-04
    endloop
  endfacet
  facet normal 1.0 0.0 0.0
    outer loop
      vertex -1.560000000000e-03 -2.168404344971e-19 -4.670000000000e-04
      vertex -1.560000000000e-03 2.600000000000e-04 -4.670000000000e-04
      vertex -1.560000000000e-03 2.600000000000e-04 -1.206666666667e-04
    endloop
  endfacet
  facet normal 1.0 0.0 0.0
    outer loop
      vertex -1.560000000000e-03 -2.168404344971e-19 -4.670000000000e-04
      vertex -1.560000000000e-03 2.600000000000e-04 -1.206666666667e-04
      vertex -1.560000000000e-03 -2.168404344971e-19 -1.206666666667e-04
    endloop
  endfacet
  facet normal 1.0 0.0 0.0
    outer loop
      vertex -1.560000000000e-03 -2.168404344971e-19 -1.206666666667e-04
      vertex -1.560000000000e-03 2.600000000000e-04 -1.206666666667e-04
      vertex -1.560000000000e-03 2.600000000000e-04 2.256666666667e-04
    endloop
  endfacet
  facet normal 1.0 0.0 0.0
    outer loop
      vertex -1.560000000000e-03 -2.168404344971e-19 -1.206666666667e-04
      vertex -1.560000000000e-03 2.600000000000e-04 2.256666666667e-04
      vertex -1.560000000000e-03 -2.168404344971e-19 2.256666666667e-04
    endloop
  endfacet
  facet normal 1.0 0.0 0.0
    outer loop
      vertex -1.560000000000e-03 -2.168404344971e-19 2.256666666667e-04
      vertex -1.560000000000e-03 2.600000000000e-04 2.256666666667e-04
      vertex -1.560000000000e-03 2.600000000000e-04 5.720000000000e-04
    endloop
  endfacet
  facet normal 1.0 0.0 0.0
    outer loop
      vertex -1.560000000000e-03 -2.168404344971e-19 2.256666666667e-04
      vertex -1.560000000000e-03 2.600000000000e-04 5.720000000000e-04
      vertex -1.560000000000e-03 -2.168404344971e-19 5.720000000000e-04
    endloop
  endfacet
  facet normal 1.0 0.0 0.0
    outer loop
      vertex -1.560000000000e-03 -2.168404344971e-19 5.720000000000e-04
      vertex -1.560000000000e-03 2.600000000000e-04 5.720000000000e-04
      vertex -1.560000000000e-03 2.600000000000e-04 9.183333333333e-04
    endloop
  endfacet
  facet normal 1.0 0.0 0.0
    outer loop
      vertex -1.560000000000e-03 -2.168404344971e-19 5.720000000000e-04
      vertex -1.560000000000e-03 2.600000000000e-04 9.183333333333e-04
      vertex -1.560000000000e-03 -2.168404344971e-19 9.183333333333e-04
    endloop
  endfacet
  facet normal 1.0 0.0 0.0
    outer loop
      vertex -1.560000000000e-03 -2.168404344971e-19 9.183333333333e-04
      vertex -1.560000000000e-03 2.600000000000e-04 9.183333333333e-04
      vertex -1.560000000000e-03 2.600000000000e-04 1.264666666667e-03
    endloop
  endfacet
  facet normal 1.0 0.0 0.0
    outer loop
      vertex -1.560000000000e-03 -2.168404344971e-19 9.183333333333e-04
      vertex -1.560000000000e-03 2.600000000000e-04 1.264666666667e-03
      vertex -1.560000000000e-03 -2.168404344971e-19 1.264666666667e-03
    endloop
  endfacet
  facet normal 1.0 0.0 0.0
    outer loop
      vertex -1.560000000000e-03 -2.168404344971e-19 1.264666666667e-03
      vertex -1.560000000000e-03 2.600000000000e-04 1.264666666667e-03
      vertex -1.560000000000e-03 2.600000000000e-04 1.611000000000e-03
    endloop
  endfacet
  facet normal 1.0 0.0 0.0
    outer loop
      vertex -1.560000000000e-03 -2.168404344971e-19 1.264666666667e-03
      vertex -1.560000000000e-03 2.600000000000e-04 1.611000000000e-03
      vertex -1.560000000000e-03 -2.168404344971e-19 1.611000000000e-03
    endloop
  endfacet
  facet normal 1.0 0.0 0.0
    outer loop
      vertex -1.560000000000e-03 -2.168404344971e-19 1.611000000000e-03
      vertex -1.560000000000e-03 2.600000000000e-04 1.611000000000e-03
      vertex -1.560000000000e-03 2.600000000000e-04 1.957333333333e-03
    endloop
  endfacet
  facet normal 1.0 0.0 0.0
    outer loop
      vertex -1.560000000000e-03 -2.168404344971e-19 1.611000000000e-03
      vertex -1.560000000000e-03 2.600000000000e-04 1.957333333333e-03
      vertex -1.560000000000e-03 -2.168404344971e-19 1.957333333333e-03
    endloop
  endfacet
  facet normal 1.0 0.0 0.0
    outer loop
      vertex -1.560000000000e-03 -2.168404344971e-19 1.957333333333e-03
      vertex -1.560000000000e-03 2.600000000000e-04 1.957333333333e-03
      vertex -1.560000000000e-03 2.600000000000e-04 2.303666666667e-03
    endloop
  endfacet
  facet normal 1.0 0.0 0.0
    outer loop
      vertex -1.560000000000e-03 -2.168404344971e-19 1.957333333333e-03
      vertex -1.560000000000e-03 2.600000000000e-04 2.303666666667e-03
      vertex -1.560000000000e-03 -2.168404344971e-19 2.303666666667e-03
    endloop
  endfacet
  facet normal 1.0 0.0 0.0
    outer loop
      vertex -1.560000000000e-03 -2.168404344971e-19 2.303666666667e-03
      vertex -1.560000000000e-03 2.600000000000e-04 2.303666666667e-03
      vertex -1.560000000000e-03 2.600000000000e-04 2.650000000000e-03
    endloop
  endfacet
  facet normal 1.0 0.0 0.0
    outer loop
      vertex -1.560000000000e-03 -2.168404344971e-19 2.303666666667e-03
      vertex -1.560000000000e-03 2.600000000000e-04 2.650000000000e-03
      vertex -1.560000000000e-03 -2.168404344971e-19 2.650000000000e-03
    endloop
  endfacet
  facet normal 1.0 0.0 0.0
    outer loop
      vertex -1.560000000000e-03 2.600000000000e-04 -1.506000000000e-03
      vertex -1.560000000000e-03 5.200000000000e-04 -1.506000000000e-03
      vertex -1.560000000000e-03 5.200000000000e-04 -1.159666666667e-03
    endloop
  endfacet
  facet normal 1.0 0.0 0.0
    outer loop
      vertex -1.560000000000e-03 2.600000000000e-04 -1.506000000000e-03
      vertex -1.560000000000e-03 5.200000000000e-04 -1.159666666667e-03
      vertex -1.560000000000e-03 2.600000000000e-04 -1.159666666667e-03
    endloop
  endfacet
  facet normal 1.0 0.0 0.0
    outer loop
      vertex -1.560000000000e-03 2.600000000000e-04 -1.159666666667e-03
      vertex -1.560000000000e-03 5.200000000000e-04 -1.159666666667e-03
      vertex -1.560000000000e-03 5.200000000000e-04 -8.133333333333e-04
    endloop
  endfacet
  facet normal 1.0 0.0 0.0
    outer loop
      vertex -1.560000000000e-03 2.600000000000e-04 -1.159666666667e-03
      vertex -1.560000000000e-03 5.200000000000e-04 -8.133333333333e-04
      vertex -1.560000000000e-03 2.600000000000e-04 -8.133333333333e-04
    endloop
  endfacet
  facet normal 1.0 0.0 0.0
    outer loop
      vertex -1.560000000000e-03 2.600000000000e-04 -8.133333333333e-04
      vertex -1.560000000000e-03 5.200000000000e-04 -8.133333333333e-04
      vertex -1.560000000000e-03 5.200000000000e-04 -4.670000000000e-04
    endloop
  endfacet
  facet normal 1.0 0.0 0.0
    outer loop
      vertex -1.560000000000e-03 2.600000000000e-04 -8.133333333333e-04
      vertex -1.560000000000e-03 5.200000000000e-04 -4.670000000000e-04
      vertex -1.560000000000e-03 2.600000000000e-04 -4.670000000000e-04
    endloop
  endfacet
  facet normal 1.0 0.0 0.0
    outer loop
      vertex -1.560000000000e-03 2.600000000000e-04 -4.670000000000e-04
      vertex -1.560000000000e-03 5.200000000000e-04 -4.670000000000e-04
      vertex -1.560000000000e-03 5.200000000000e-04 -1.206666666667e-04
    endloop
  endfacet
  facet normal 1.0 0.0 0.0
    outer loop
      vertex -1.560000000000e-03 2.600000000000e-04 -4.670000000000e-04
      vertex -1.560000000000e-03 5.200000000000e-04 -1.206666666667e-04
      vertex -1.560000000000e-03 2.600000000000e-04 -1.206666666667e-04
    endloop
  endfacet
  facet normal 1.0 0.0 0.0
    outer loop
      vertex -1.560000000000e-03 2.600000000000e-04 -1.206666666667e-04
      vertex -1.560000000000e-03 5.200000000000e-04 -1.206666666667e-04
      vertex -1.560000000000e-03 5.200000000000e-04 2.256666666667e-04
    endloop
  endfacet
  facet normal 1.0 0.0 0.0
    outer loop
      vertex -1.560000000000e-03 2.600000000000e-04 -1.206666666667e-04
      vertex -1.560000000000e-03 5.200000000000e-04 2.256666666667e-04
      vertex -1.560000000000e-03 2.600000000000e-04 2.256666666667e-04
    endloop
  endfacet
  facet normal 1.0 0.0 0.0
    outer loop
      vertex -1.560000000000e-03 2.600000000000e-04 2.256666666667e-04
      vertex -1.560000000000e-03 5.200000000000e-04 2.256666666667e-04
      vertex -1.560000000000e-03 5.200000000000e-04 5.720000000000e-04
    endloop
  endfacet
  facet normal 1.0 0.0 0.0
    outer loop
      vertex -1.560000000000e-03 2.600000000000e-04 2.256666666667e-04
      vertex -1.560000000000e-03 5.200000000000e-04 5.720000000000e-04
      vertex -1.560000000000e-03 2.600000000000e-04 5.720000000000e-04
    endloop
  endfacet
  facet normal 1.0 0.0 0.0
    outer loop
      vertex -1.560000000000e-03 2.600000000000e-04 5.720000000000e-04
      vertex -1.560000000000e-03 5.200000000000e-04 5.720000000000e-04
      vertex -1.560000000000e-03 5.200000000000e-04 9.183333333333e-04
    endloop
  endfacet
  facet normal 1.0 0.0 0.0
    outer loop
      vertex -1.560000000000e-03 2.600000000000e-04 5.720000000000e-04
      vertex -1.560000000000e-03 5.200000000000e-04 9.183333333333e-04
      vertex -1.560000000000e-03 2.600000000000e-04 9.183333333333e-04
    endloop
  endfacet
  facet normal 1.0 0.0 0.0
    outer loop
      vertex -1.560000000000e-03 2.600000000000e-04 9.183333333333e-04
      vertex -1.560000000000e-03 5.200000000000e-04 9.183333333333e-04
      vertex -1.560000000000e-03 5.200000000000e-04 1.264666666667e-03
    endloop
  endfacet
  facet normal 1.0 0.0 0.0
    outer loop
      vertex -1.560000000000e-03 2.600000000000e-04 9.183333333333e-04
      vertex -1.560000000000e-03 5.200000000000e-04 1.264666666667e-03
      vertex -1.560000000000e-03 2.600000000000e-04 1.264666666667e-03
    endloop
  endfacet
  facet normal 1.0 0.0 0.0
    outer loop
      vertex -1.560000000000e-03 2.600000000000e-04 1.264666666667e-03
      vertex -1.560000000000e-03 5.200000000000e-04 1.264666666667e-03
      vertex -1.560000000000e-03 5.200000000000e-04 1.611000000000e-03
    endloop
  endfacet
  facet normal 1.0 0.0 0.0
    outer loop
      vertex -1.560000000000e-03 2.600000000000e-04 1.264666666667e-03
      vertex -1.560000000000e-03 5.200000000000e-04 1.611000000000e-03
      vertex -1.560000000000e-03 2.600000000000e-04 1.611000000000e-03
    endloop
  endfacet
  facet normal 1.0 0.0 0.0
    outer loop
      vertex -1.560000000000e-03 2.600000000000e-04 1.611000000000e-03
      vertex -1.560000000000e-03 5.200000000000e-04 1.611000000000e-03
      vertex -1.560000000000e-03 5.200000000000e-04 1.957333333333e-03
    endloop
  endfacet
  facet normal 1.0 0.0 0.0
    outer loop
      vertex -1.560000000000e-03 2.600000000000e-04 1.611000000000e-03
      vertex -1.560000000000e-03 5.200000000000e-04 1.957333333333e-03
      vertex -1.560000000000e-03 2.600000000000e-04 1.957333333333e-03
    endloop
  endfacet
  facet normal 1.0 0.0 0.0
    outer loop
      vertex -1.560000000000e-03 2.600000000000e-04 1.957333333333e-03
      vertex -1.560000000000e-03 5.200000000000e-04 1.957333333333e-03
      vertex -1.560000000000e-03 5.200000000000e-04 2.303666666667e-03
    endloop
  endfacet
  facet normal 1.0 0.0 0.0
    outer loop
      vertex -1.560000000000e-03 2.600000000000e-04 1.957333333333e-03
      vertex -1.560000000000e-03 5.200000000000e-04 2.303666666667e-03
      vertex -1.560000000000e-03 2.600000000000e-04 2.303666666667e-03
    endloop
  endfacet
  facet normal 1.0 0.0 0.0
    outer loop
      vertex -1.560000000000e-03 2.600000000000e-04 2.303666666667e-03
      vertex -1.560000000000e-03 5.200000000000e-04 2.303666666667e-03
      vertex -1.560000000000e-03 5.200000000000e-04 2.650000000000e-03
    endloop
  endfacet
  facet normal 1.0 0.0 0.0
    outer loop
      vertex -1.560000000000e-03 2.600000000000e-04 2.303666666667e-03
      vertex -1.560000000000e-03 5.200000000000e-04 2.650000000000e-03
      vertex -1.560000000000e-03 2.600000000000e-04 2.650000000000e-03
    endloop
  endfacet
  facet normal 1.0 0.0 0.0
    outer loop
      vertex -1.560000000000e-03 5.200000000000e-04 -1.506000000000e-03
      vertex -1.560000000000e-03 7.800000000000e-04 -1.506000000000e-03
      vertex -1.560000000000e-03 7.800000000000e-04 -1.159666666667e-03
    endloop
  endfacet
  facet normal 1.0 0.0 0.0
    outer loop
      vertex -1.560000000000e-03 5.200000000000e-04 -1.506000000000e-03
      vertex -1.560000000000e-03 7.800000000000e-04 -1.159666666667e-03
      vertex -1.560000000000e-03 5.200000000000e-04 -1.159666666667e-03
    endloop
  endfacet
  facet normal 1.0 0.0 0.0
    outer loop
      vertex -1.560000000000e-03 5.200000000000e-04 -1.159666666667e-03
      vertex -1.560000000000e-03 7.800000000000e-04 -1.159666666667e-03
      vertex -1.560000000000e-03 7.800000000000e-04 -8.133333333333e-04
    endloop
  endfacet
  facet normal 1.0 0.0 0.0
    outer loop
      vertex -1.560000000000e-03 5.200000000000e-04 -1.159666666667e-03
      vertex -1.560000000000e-03 7.800000000000e-04 -8.133333333333e-04
      vertex -1.560000000000e-03 5.200000000000e-04 -8.133333333333e-04
    endloop
  endfacet
  facet normal 1.0 0.0 0.0
    outer loop
      vertex -1.560000000000e-03 5.200000000000e-04 -8.133333333333e-04
      vertex -1.560000000000e-03 7.800000000000e-04 -8.133333333333e-04
      vertex -1.560000000000e-03 7.800000000000e-04 -4.670000000000e-04
    endloop
  endfacet
  facet normal 1.0 0.0 0.0
    outer loop
      vertex -1.560000000000e-03 5.200000000000e-04 -8.133333333333e-04
      vertex -1.560000000000e-03 7.800000000000e-04 -4.670000000000e-04
      vertex -1.560000000000e-03 5.200000000000e-04 -4.670000000000e-04
    endloop
  endfacet
  facet normal 1.0 0.0 0.0
    outer loop
      vertex -1.560000000000e-03 5.200000000000e-04 -4.670000000000e-04
      vertex -1.560000000000e-03 7.800000000000e-04 -4.670000000000e-04
      vertex -1.560000000000e-03 7.800000000000e-04 -1.206666666667e-04
    endloop
  endfacet
  facet normal 1.0 0.0 0.0
    outer loop
      vertex -1.560000000000e-03 5.200000000000e-04 -4.670000000000e-04
      vertex -1.560000000000e-03 7.800000000000e-04 -1.206666666667e-04
      vertex -1.560000000000e-03 5.200000000000e-04 -1.206666666667e-04
    endloop
  endfacet
  facet normal 1.0 0.0 0.0
    outer loop
      vertex -1.560000000000e-03 5.200000000000e-04 -1.206666666667e-04
      vertex -1.560000000000e-03 7.800000000000e-04 -1.206666666667e-04
      vertex -1.560000000000e-03 7.800000000000e-04 2.256666666667e-04
    endloop
  endfacet
  facet normal 1.0 0.0 0.0
    outer loop
      vertex -1.560000000000e-03 5.200000000000e-04 -1.206666666667e-04
      vertex -1.560000000000e-03 7.800000000000e-04 2.256666666667e-04
      vertex -1.560000000000e-03 5.200000000000e-04 2.256666666667e-04
    endloop
  endfacet
  facet normal 1.0 0.0 0.0
    outer loop
      vertex -1.560000000000e-03 5.200000000000e-04 2.256666666667e-04
      vertex -1.560000000000e-03 7.800000000000e-04 2.256666666667e-04
      vertex -1.560000000000e-03 7.800000000000e-04 5.720000000000e-04
    endloop
  endfacet
  facet normal 1.0 0.0 0.0
    outer loop
      vertex -1.560000000000e-03 5.200000000000e-04 2.256666666667e-04
      vertex -1.560000000000e-03 7.800000000000e-04 5.720000000000e-04
      vertex -1.560000000000e-03 5.200000000000e-04 5.720000000000e-04
    endloop
  endfacet
  facet normal 1.0 0.0 0.0
    outer loop
      vertex -1.560000000000e-03 5.200000000000e-04 5.720000000000e-04
      vertex -1.560000000000e-03 7.800000000000e-04 5.720000000000e-04
      vertex -1.560000000000e-03 7.800000000000e-04 9.183333333333e-04
    endloop
  endfacet
  facet normal 1.0 0.0 0.0
    outer loop
      vertex -1.560000000000e-03 5.200000000000e-04 5.720000000000e-04
      vertex -1.560000000000e-03 7.800000000000e-04 9.183333333333e-04
      vertex -1.560000000000e-03 5.200000000000e-04 9.183333333333e-04
    endloop
  endfacet
  facet normal 1.0 0.0 0.0
    outer loop
      vertex -1.560000000000e-03 5.200000000000e-04 9.183333333333e-04
      vertex -1.560000000000e-03 7.800000000000e-04 9.183333333333e-04
      vertex -1.560000000000e-03 7.800000000000e-04 1.264666666667e-03
    endloop
  endfacet
  facet normal 1.0 0.0 0.0
    outer loop
      vertex -1.560000000000e-03 5.200000000000e-04 9.183333333333e-04
      vertex -1.560000000000e-03 7.800000000000e-04 1.264666666667e-03
      vertex -1.560000000000e-03 5.200000000000e-04 1.264666666667e-03
    endloop
  endfacet
  facet normal 1.0 0.0 0.0
    outer loop
      vertex -1.560000000000e-03 5.200000000000e-04 1.264666666667e-03
      vertex -1.560000000000e-03 7.800000000000e-04 1.264666666667e-03
      vertex -1.560000000000e-03 7.800000000000e-04 1.611000000000e-03
    endloop
  endfacet
  facet normal 1.0 0.0 0.0
    outer loop
      vertex -1.560000000000e-03 5.200000000000e-04 1.264666666667e-03
      vertex -1.560000000000e-03 7.800000000000e-04 1.611000000000e-03
      vertex -1.560000000000e-03 5.200000000000e-04 1.611000000000e-03
    endloop
  endfacet
  facet normal 1.0 0.0 0.0
    outer loop
      vertex -1.560000000000e-03 5.200000000000e-04 1.611000000000e-03
      vertex -1.560000000000e-03 7.800000000000e-04 1.611000000000e-03
      vertex -1.560000000000e-03 7.800000000000e-04 1.957333333333e-03
    endloop
  endfacet
  facet normal 1.0 0.0 0.0
    outer loop
      vertex -1.560000000000e-03 5.200000000000e-04 1.611000000000e-03
      vertex -1.560000000000e-03 7.800000000000e-04 1.957333333333e-03
      vertex -1.560000000000e-03 5.200000000000e-04 1.957333333333e-03
    endloop
  endfacet
  facet normal 1.0 0.0 0.0
    outer loop
      vertex -1.560000000000e-03 5.200000000000e-04 1.957333333333e-03
      vertex -1.560000000000e-03 7.800000000000e-04 1.957333333333e-03
      vertex -1.560000000000e-03 7.800000000000e-04 2.303666666667e-03
    endloop
  endfacet
  facet normal 1.0 0.0 0.0
    outer loop
      vertex -1.560000000000e-03 5.200000000000e-04 1.957333333333e-03
      vertex -1.560000000000e-03 7.800000000000e-04 2.303666666667e-03
      vertex -1.560000000000e-03 5.200000000000e-04 2.303666666667e-03
    endloop
  endfacet
  facet normal 1.0 0.0 0.0
    outer loop
      vertex -1.560000000000e-03 5.200000000000e-04 2.303666666667e-03
      vertex -1.560000000000e-03 7.800000000000e-04 2.303666666667e-03
      vertex -1.560000000000e-03 7.800000000000e-04 2.650000000000e-03
    endloop
  endfacet
  facet normal 1.0 0.0 0.0
    outer loop
      vertex -1.560000000000e-03 5.200000000000e-04 2.303666666667e-03
      vertex -1.560000000000e-03 7.800000000000e-04 2.650000000000e-03
      vertex -1.560000000000e-03 5.200000000000e-04 2.650000000000e-03
    endloop
  endfacet
  facet normal 1.0 0.0 0.0
    outer loop
      vertex -1.560000000000e-03 7.800000000000e-04 -1.506000000000e-03
      vertex -1.560000000000e-03 1.040000000000e-03 -1.506000000000e-03
      vertex -1.560000000000e-03 1.040000000000e-03 -1.159666666667e-03
    endloop
  endfacet
  facet normal 1.0 0.0 0.0
    outer loop
      vertex -1.560000000000e-03 7.800000000000e-04 -1.506000000000e-03
      vertex -1.560000000000e-03 1.040000000000e-03 -1.159666666667e-03
      vertex -1.560000000000e-03 7.800000000000e-04 -1.159666666667e-03
    endloop
  endfacet
  facet normal 1.0 0.0 0.0
    outer loop
      vertex -1.560000000000e-03 7.800000000000e-04 -1.159666666667e-03
      vertex -1.560000000000e-03 1.040000000000e-03 -1.159666666667e-03
      vertex -1.560000000000e-03 1.040000000000e-03 -8.133333333333e-04
    endloop
  endfacet
  facet normal 1.0 0.0 0.0
    outer loop
      vertex -1.560000000000e-03 7.800000000000e-04 -1.159666666667e-03
      vertex -1.560000000000e-03 1.040000000000e-03 -8.133333333333e-04
      vertex -1.560000000000e-03 7.800000000000e-04 -8.133333333333e-04
    endloop
  endfacet
  facet normal 1.0 0.0 0.0
    outer loop
      vertex -1.560000000000e-03 7.800000000000e-04 -8.133333333333e-04
      vertex -1.560000000000e-03 1.040000000000e-03 -8.133333333333e-04
      vertex -1.560000000000e-03 1.040000000000e-03 -4.670000000000e-04
    endloop
  endfacet
  facet normal 1.0 0.0 0.0
    outer loop
      vertex -1.560000000000e-03 7.800000000000e-04 -8.133333333333e-04
      vertex -1.560000000000e-03 1.040000000000e-03 -4.670000000000e-04
      vertex -1.560000000000e-03 7.800000000000e-04 -4.670000000000e-04
    endloop
  endfacet
  facet normal 1.0 0.0 0.0
    outer loop
      vertex -1.560000000000e-03 7.800000000000e-04 -4.670000000000e-04
      vertex -1.560000000000e-03 1.040000000000e-03 -4.670000000000e-04
      vertex -1.560000000000e-03 1.040000000000e-03 -1.206666666667e-04
    endloop
  endfacet
  facet normal 1.0 0.0 0.0
    outer loop
      vertex -1.560000000000e-03 7.800000000000e-04 -4.670000000000e-04
      vertex -1.560000000000e-03 1.040000000000e-03 -1.206666666667e-04
      vertex -1.560000000000e-03 7.800000000000e-04 -1.206666666667e-04
    endloop
  endfacet
  facet normal 1.0 0.0 0.0
    outer loop
      vertex -1.560000000000e-03 7.800000000000e-04 -1.206666666667e-04
      vertex -1.560000000000e-03 1.040000000000e-03 -1.206666666667e-04
      vertex -1.560000000000e-03 1.040000000000e-03 2.256666666667e-04
    endloop
  endfacet
  facet normal 1.0 0.0 0.0
    outer loop
      vertex -1.560000000000e-03 7.800000000000e-04 -1.206666666667e-04
      vertex -1.560000000000e-03 1.040000000000e-03 2.256666666667e-04
      vertex -1.560000000000e-03 7.800000000000e-04 2.256666666667e-04
    endloop
  endfacet
  facet normal 1.0 0.0 0.0
    outer loop
      vertex -1.560000000000e-03 7.800000000000e-04 2.256666666667e-04
      vertex -1.560000000000e-03 1.040000000000e-03 2.256666666667e-04
      vertex -1.560000000000e-03 1.040000000000e-03 5.720000000000e-04
    endloop
  endfacet
  facet normal 1.0 0.0 0.0
    outer loop
      vertex -1.560000000000e-03 7.800000000000e-04 2.256666666667e-04
      vertex -1.560000000000e-03 1.040000000000e-03 5.720000000000e-04
      vertex -1.560000000000e-03 7.800000000000e-04 5.720000000000e-04
    endloop
  endfacet
  facet normal 1.0 0.0 0.0
    outer loop
      vertex -1.560000000000e-03 7.800000000000e-04 5.720000000000e-04
      vertex -1.560000000000e-03 1.040000000000e-03 5.720000000000e-04
      vertex -1.560000000000e-03 1.040000000000e-03 9.183333333333e-04
    endloop
  endfacet
  facet normal 1.0 0.0 0.0
    outer loop
      vertex -1.560000000000e-03 7.800000000000e-04 5.720000000000e-04
      vertex -1.560000000000e-03 1.040000000000e-03 9.183333333333e-04
      vertex -1.560000000000e-03 7.800000000000e-04 9.183333333333e-04
    endloop
  endfacet
  facet normal 1.0 0.0 0.0
    outer loop
      vertex -1.560000000000e-03 7.800000000000e-04 9.183333333333e-04
      vertex -1.560000000000e-03 1.040000000000e-03 9.183333333333e-04
      vertex -1.560000000000e-03 1.040000000000e-03 1.264666666667e-03
    endloop
  endfacet
  facet normal 1.0 0.0 0.0
    outer loop
      vertex -1.560000000000e-03 7.800000000000e-04 9.183333333333e-04
      vertex -1.560000000000e-03 1.040000000000e-03 1.264666666667e-03
      vertex -1.560000000000e-03 7.800000000000e-04 1.264666666667e-03
    endloop
  endfacet
  facet normal 1.0 0.0 0.0
    outer loop
      vertex -1.560000000000e-03 7.800000000000e-04 1.264666666667e-03
      vertex -1.560000000000e-03 1.040000000000e-03 1.264666666667e-03
      vertex -1.560000000000e-03 1.040000000000e-03 1.611000000000e-03
    endloop
  endfacet
  facet normal 1.0 0.0 0.0
    outer loop
      vertex -1.560000000000e-03 7.800000000000e-04 1.264666666667e-03
      vertex -1.560000000000e-03 1.040000000000e-03 1.611000000000e-03
      vertex -1.560000000000e-03 7.800000000000e-04 1.611000000000e-03
    endloop
  endfacet
  facet normal 1.0 0.0 0.0
    outer loop
      vertex -1.560000000000e-03 7.800000000000e-04 1.611000000000e-03
      vertex -1.560000000000e-03 1.040000000000e-03 1.611000000000e-03
      vertex -1.560000000000e-03 1.040000000000e-03 1.957333333333e-03
    endloop
  endfacet
  facet normal 1.0 0.0 0.0
    outer loop
      vertex -1.560000000000e-03 7.800000000000e-04 1.611000000000e-03
      vertex -1.560000000000e-03 1.040000000000e-03 1.957333333333e-03
      vertex -1.560000000000e-03 7.800000000000e-04 1.957333333333e-03
    endloop
  endfacet
  facet normal 1.0 0.0 0.0
    outer loop
      vertex -1.560000000000e-03 7.800000000000e-04 1.957333333333e-03
      vertex -1.560000000000e-03 1.040000000000e-03 1.957333333333e-03
      vertex -1.560000000000e-03 1.040000000000e-03 2.303666666667e-03
    endloop
  endfacet
  facet normal 1.0 0.0 0.0
    outer loop
      vertex -1.560000000000e-03 7.800000000000e-04 1.957333333333e-03
      vertex -1.560000000000e-03 1.040000000000e-03 2.303666666667e-03
      vertex -1.560000000000e-03 7.800000000000e-04 2.303666666667e-03
    endloop
  endfacet
  facet normal 1.0 0.0 0.0
    outer loop
      vertex -1.560000000000e-03 7.800000000000e-04 2.303666666667e-03
      vertex -1.560000000000e-03 1.040000000000e-03 2.303666666667e-03
      vertex -1.560000000000e-03 1.040000000000e-03 2.650000000000e-03
    endloop
  endfacet
  facet normal 1.0 0.0 0.0
    outer loop
      vertex -1.560000000000e-03 7.800000000000e-04 2.303666666667e-03
      vertex -1.560000000000e-03 1.040000000000e-03 2.650000000000e-03
      vertex -1.560000000000e-03 7.800000000000e-04 2.650000000000e-03
    endloop
  endfacet
  facet normal 1.0 0.0 0.0
    outer loop
      vertex -1.560000000000e-03 1.040000000000e-03 -1.506000000000e-03
      vertex -1.560000000000e-03 1.300000000000e-03 -1.506000000000e-03
      vertex -1.560000000000e-03 1.300000000000e-03 -1.159666666667e-03
    endloop
  endfacet
  facet normal 1.0 0.0 0.0
    outer loop
      vertex -1.560000000000e-03 1.040000000000e-03 -1.506000000000e-03
      vertex -1.560000000000e-03 1.300000000000e-03 -1.159666666667e-03
      vertex -1.560000000000e-03 1.040000000000e-03 -1.159666666667e-03
    endloop
  endfacet
  facet normal 1.0 0.0 0.0
    outer loop
      vertex -1.560000000000e-03 1.040000000000e-03 -1.159666666667e-03
      vertex -1.560000000000e-03 1.300000000000e-03 -1.159666666667e-03
      vertex -1.560000000000e-03 1.300000000000e-03 -8.133333333333e-04
    endloop
  endfacet
  facet normal 1.0 0.0 0.0
    outer loop
      vertex -1.560000000000e-03 1.040000000000e-03 -1.159666666667e-03
      vertex -1.560000000000e-03 1.300000000000e-03 -8.133333333333e-04
      vertex -1.560000000000e-03 1.040000000000e-03 -8.133333333333e-04
    endloop
  endfacet
  facet normal 1.0 0.0 0.0
    outer loop
      vertex -1.560000000000e-03 1.040000000000e-03 -8.133333333333e-04
      vertex -1.560000000000e-03 1.300000000000e-03 -8.133333333333e-04
      vertex -1.560000000000e-03 1.300000000000e-03 -4.670000000000e-04
    endloop
  endfacet
  facet normal 1.0 0.0 0.0
    outer loop
      vertex -1.560000000000e-03 1.040000000000e-03 -8.133333333333e-04
      vertex -1.560000000000e-03 1.300000000000e-03 -4.670000000000e-04
      vertex -1.560000000000e-03 1.040000000000e-03 -4.670000000000e-04
    endloop
  endfacet
  facet normal 1.0 0.0 0.0
    outer loop
      vertex -1.560000000000e-03 1.040000000000e-03 -4.670000000000e-04
      vertex -1.560000000000e-03 1.300000000000e-03 -4.670000000000e-04
      vertex -1.560000000000e-03 1.300000000000e-03 -1.206666666667e-04
    endloop
  endfacet
  facet normal 1.0 0.0 0.0
    outer loop
      vertex -1.560000000000e-03 1.040000000000e-03 -4.670000000000e-04
      vertex -1.560000000000e-03 1.300000000000e-03 -1.206666666667e-04
      vertex -1.560000000000e-03 1.040000000000e-03 -1.206666666667e-04
    endloop
  endfacet
  facet normal 1.0 0.0 0.0
    outer loop
      vertex -1.560000000000e-03 1.040000000000e-03 -1.206666666667e-04
      vertex -1.560000000000e-03 1.300000000000e-03 -1.206666666667e-04
      vertex -1.560000000000e-03 1.300000000000e-03 2.256666666667e-04
    endloop
  endfacet
  facet normal 1.0 0.0 0.0
    outer loop
      vertex -1.560000000000e-03 1.040000000000e-03 -1.206666666667e-04
      vertex -1.560000000000e-03 1.300000000000e-03 2.256666666667e-04
      vertex -1.560000000000e-03 1.040000000000e-03 2.256666666667e-04
    endloop
  endfacet
  facet normal 1.0 0.0 0.0
    outer loop
      vertex -1.560000000000e-03 1.040000000000e-03 2.256666666667e-04
      vertex -1.560000000000e-03 1.300000000000e-03 2.256666666667e-04
      vertex -1.560000000000e-03 1.300000000000e-03 5.720000000000e-04
    endloop
  endfacet
  facet normal 1.0 0.0 0.0
    outer loop
      vertex -1.560000000000e-03 1.040000000000e-03 2.256666666667e-04
      vertex -1.560000000000e-03 1.300000000000e-03 5.720000000000e-04
      vertex -1.560000000000e-03 1.040000000000e-03 5.720000000000e-04
    endloop
  endfacet
  facet normal 1.0 0.0 0.0
    outer loop
      vertex -1.560000000000e-03 1.040000000000e-03 5.720000000000e-04
      vertex -1.560000000000e-03 1.300000000000e-03 5.720000000000e-04
      vertex -1.560000000000e-03 1.300000000000e-03 9.183333333333e-04
    endloop
  endfacet
  facet normal 1.0 0.0 0.0
    outer loop
      vertex -1.560000000000e-03 1.040000000000e-03 5.720000000000e-04
      vertex -1.560000000000e-03 1.300000000000e-03 9.183333333333e-04
      vertex -1.560000000000e-03 1.040000000000e-03 9.183333333333e-04
    endloop
  endfacet
  facet normal 1.0 0.0 0.0
    outer loop
      vertex -1.560000000000e-03 1.040000000000e-03 9.183333333333e-04
      vertex -1.560000000000e-03 1.300000000000e-03 9.183333333333e-04
      vertex -1.560000000000e-03 1.300000000000e-03 1.264666666667e-03
    endloop
  endfacet
  facet normal 1.0 0.0 0.0
    outer loop
      vertex -1.560000000000e-03 1.040000000000e-03 9.183333333333e-04
      vertex -1.560000000000e-03 1.300000000000e-03 1.264666666667e-03
      vertex -1.560000000000e-03 1.040000000000e-03 1.264666666667e-03
    endloop
  endfacet
  facet normal 1.0 0.0 0.0
    outer loop
      vertex -1.560000000000e-03 1.040000000000e-03 1.264666666667e-03
      vertex -1.560000000000e-03 1.300000000000e-03 1.264666666667e-03
      vertex -1.560000000000e-03 1.300000000000e-03 1.611000000000e-03
    endloop
  endfacet
  facet normal 1.0 0.0 0.0
    outer loop
      vertex -1.560000000000e-03 1.040000000000e-03 1.264666666667e-03
      vertex -1.560000000000e-03 1.300000000000e-03 1.611000000000e-03
      vertex -1.560000000000e-03 1.040000000000e-03 1.611000000000e-03
    endloop
  endfacet
  facet normal 1.0 0.0 0.0
    outer loop
      vertex -1.560000000000e-03 1.040000000000e-03 1.611000000000e-03
      vertex -1.560000000000e-03 1.300000000000e-03 1.611000000000e-03
      vertex -1.560000000000e-03 1.300000000000e-03 1.957333333333e-03
    endloop
  endfacet
  facet normal 1.0 0.0 0.0
    outer loop
      vertex -1.560000000000e-03 1.040000000000e-03 1.611000000000e-03
      vertex -1.560000000000e-03 1.300000000000e-03 1.957333333333e-03
      vertex -1.560000000000e-03 1.040000000000e-03 1.957333333333e-03
    endloop
  endfacet
  facet normal 1.0 0.0 0.0
    outer loop
      vertex -1.560000000000e-03 1.040000000000e-03 1.957333333333e-03
      vertex -1.560000000000e-03 1.300000000000e-03 1.957333333333e-03
      vertex -1.560000000000e-03 1.300000000000e-03 2.303666666667e-03
    endloop
  endfacet
  facet normal 1.0 0.0 0.0
    outer loop
      vertex -1.560000000000e-03 1.040000000000e-03 1.957333333333e-03
      vertex -1.560000000000e-03 1.300000000000e-03 2.303666666667e-03
      vertex -1.560000000000e-03 1.040000000000e-03 2.303666666667e-03
    endloop
  endfacet
  facet normal 1.0 0.0 0.0
    outer loop
      vertex -1.560000000000e-03 1.040000000000e-03 2.303666666667e-03
      vertex -1.560000000000e-03 1.300000000000e-03 2.303666666667e-03
      vertex -1.560000000000e-03 1.300000000000e-03 2.650000000000e-03
    endloop
  endfacet
  facet normal 1.0 0.0 0.0
    outer loop
      vertex -1.560000000000e-03 1.040000000000e-03 2.303666666667e-03
      vertex -1.560000000000e-03 1.300000000000e-03 2.650000000000e-03
      vertex -1.560000000000e-03 1.040000000000e-03 2.650000000000e-03
    endloop
  endfacet
  facet normal 1.0 0.0 0.0
    outer loop
      vertex -1.560000000000e-03 1.300000000000e-03 -1.506000000000e-03
      vertex -1.560000000000e-03 1.560000000000e-03 -1.506000000000e-03
      vertex -1.560000000000e-03 1.560000000000e-03 -1.159666666667e-03
    endloop
  endfacet
  facet normal 1.0 0.0 0.0
    outer loop
      vertex -1.560000000000e-03 1.300000000000e-03 -1.506000000000e-03
      vertex -1.560000000000e-03 1.560000000000e-03 -1.159666666667e-03
      vertex -1.560000000000e-03 1.300000000000e-03 -1.159666666667e-03
    endloop
  endfacet
  facet normal 1.0 0.0 0.0
    outer loop
      vertex -1.560000000000e-03 1.300000000000e-03 -1.159666666667e-03
      vertex -1.560000000000e-03 1.560000000000e-03 -1.159666666667e-03
      vertex -1.560000000000e-03 1.560000000000e-03 -8.133333333333e-04
    endloop
  endfacet
  facet normal 1.0 0.0 0.0
    outer loop
      vertex -1.560000000000e-03 1.300000000000e-03 -1.159666666667e-03
      vertex -1.560000000000e-03 1.560000000000e-03 -8.133333333333e-04
      vertex -1.560000000000e-03 1.300000000000e-03 -8.133333333333e-04
    endloop
  endfacet
  facet normal 1.0 0.0 0.0
    outer loop
      vertex -1.560000000000e-03 1.300000000000e-03 -8.133333333333e-04
      vertex -1.560000000000e-03 1.560000000000e-03 -8.133333333333e-04
      vertex -1.560000000000e-03 1.560000000000e-03 -4.670000000000e-04
    endloop
  endfacet
  facet normal 1.0 0.0 0.0
    outer loop
      vertex -1.560000000000e-03 1.300000000000e-03 -8.133333333333e-04
      vertex -1.560000000000e-03 1.560000000000e-03 -4.670000000000e-04
      vertex -1.560000000000e-03 1.300000000000e-03 -4.670000000000e-04
    endloop
  endfacet
  facet normal 1.0 0.0 0.0
    outer loop
      vertex -1.560000000000e-03 1.300000000000e-03 -4.670000000000e-04
      vertex -1.560000000000e-03 1.560000000000e-03 -4.670000000000e-04
      vertex -1.560000000000e-03 1.560000000000e-03 -1.206666666667e-04
    endloop
  endfacet
  facet normal 1.0 0.0 0.0
    outer loop
      vertex -1.560000000000e-03 1.300000000000e-03 -4.670000000000e-04
      vertex -1.560000000000e-03 1.560000000000e-03 -1.206666666667e-04
      vertex -1.560000000000e-03 1.300000000000e-03 -1.206666666667e-04
    endloop
  endfacet
  facet normal 1.0 0.0 0.0
    outer loop
      vertex -1.560000000000e-03 1.300000000000e-03 -1.206666666667e-04
      vertex -1.560000000000e-03 1.560000000000e-03 -1.206666666667e-04
      vertex -1.560000000000e-03 1.560000000000e-03 2.256666666667e-04
    endloop
  endfacet
  facet normal 1.0 0.0 0.0
    outer loop
      vertex -1.560000000000e-03 1.300000000000e-03 -1.206666666667e-04
      vertex -1.560000000000e-03 1.560000000000e-03 2.256666666667e-04
      vertex -1.560000000000e-03 1.300000000000e-03 2.256666666667e-04
    endloop
  endfacet
  facet normal 1.0 0.0 0.0
    outer loop
      vertex -1.560000000000e-03 1.300000000000e-03 2.256666666667e-04
      vertex -1.560000000000e-03 1.560000000000e-03 2.256666666667e-04
      vertex -1.560000000000e-03 1.560000000000e-03 5.720000000000e-04
    endloop
  endfacet
  facet normal 1.0 0.0 0.0
    outer loop
      vertex -1.560000000000e-03 1.300000000000e-03 2.256666666667e-04
      vertex -1.560000000000e-03 1.560000000000e-03 5.720000000000e-04
      vertex -1.560000000000e-03 1.300000000000e-03 5.720000000000e-04
    endloop
  endfacet
  facet normal 1.0 0.0 0.0
    outer loop
      vertex -1.560000000000e-03 1.300000000000e-03 5.720000000000e-04
      vertex -1.560000000000e-03 1.560000000000e-03 5.720000000000e-04
      vertex -1.560000000000e-03 1.560000000000e-03 9.183333333333e-04
    endloop
  endfacet
  facet normal 1.0 0.0 0.0
    outer loop
      vertex -1.560000000000e-03 1.300000000000e-03 5.720000000000e-04
      vertex -1.560000000000e-03 1.560000000000e-03 9.183333333333e-04
      vertex -1.560000000000e-03 1.300000000000e-03 9.183333333333e-04
    endloop
  endfacet
  facet normal 1.0 0.0 0.0
    outer loop
      vertex -1.560000000000e-03 1.300000000000e-03 9.183333333333e-04
      vertex -1.560000000000e-03 1.560000000000e-03 9.183333333333e-04
      vertex -1.560000000000e-03 1.560000000000e-03 1.264666666667e-03
    endloop
  endfacet
  facet normal 1.0 0.0 0.0
    outer loop
      vertex -1.560000000000e-03 1.300000000000e-03 9.183333333333e-04
      vertex -1.560000000000e-03 1.560000000000e-03 1.264666666667e-03
      vertex -1.560000000000e-03 1.300000000000e-03 1.264666666667e-03
    endloop
  endfacet
  facet normal 1.0 0.0 0.0
    outer loop
      vertex -1.560000000000e-03 1.300000000000e-03 1.264666666667e-03
      vertex -1.560000000000e-03 1.560000000000e-03 1.264666666667e-03
      vertex -1.560000000000e-03 1.560000000000e-03 1.611000000000e-03
    endloop
  endfacet
  facet normal 1.0 0.0 0.0
    outer loop
      vertex -1.560000000000e-03 1.300000000000e-03 1.264666666667e-03
      vertex -1.560000000000e-03 1.560000000000e-03 1.611000000000e-03
      vertex -1.560000000000e-03 1.300000000000e-03 1.611000000000e-03
    endloop
  endfacet
  facet normal 1.0 0.0 0.0
    outer loop
      vertex -1.560000000000e-03 1.300000000000e-03 1.611000000000e-03
      vertex -1.560000000000e-03 1.560000000000e-03 1.611000000000e-03
      vertex -1.560000000000e-03 1.560000000000e-03 1.957333333333e-03
    endloop
  endfacet
  facet normal 1.0 0.0 0.0
    outer loop
      vertex -1.560000000000e-03 1.300000000000e-03 1.611000000000e-03
      vertex -1.560000000000e-03 1.560000000000e-03 1.957333333333e-03
      vertex -1.560000000000e-03 1.300000000000e-03 1.957333333333e-03
    endloop
  endfacet
  facet normal 1.0 0.0 0.0
    outer loop
      vertex -1.560000000000e-03 1.300000000000e-03 1.957333333333e-03
      vertex -1.560000000000e-03 1.560000000000e-03 1.957333333333e-03
      vertex -1.560000000000e-03 1.560000000000e-03 2.303666666667e-03
    endloop
  endfacet
  facet normal 1.0 0.0 0.0
    outer loop
      vertex -1.560000000000e-03 1.300000000000e-03 1.957333333333e-03
      vertex -1.560000000000e-03 1.560000000000e-03 2.303666666667e-03
      vertex -1.560000000000e-03 1.300000000000e-03 2.303666666667e-03
    endloop
  endfacet
  facet normal 1.0 0.0 0.0
    outer loop
      vertex -1.560000000000e-03 1.300000000000e-03 2.303666666667e-03
      vertex -1.560000000000e-03 1.560000000000e-03 2.303666666667e-03
      vertex -1.560000000000e-03 1.560000000000e-03 2.650000000000e-03
    endloop
  endfacet
  facet normal 1.0 0.0 0.0
    outer loop
      vertex -1.560000000000e-03 1.300000000000e-03 2.303666666667e-03
      vertex -1.560000000000e-03 1.560000000000e-03 2.650000000000e-03
      vertex -1.560000000000e-03 1.300000000000e-03 2.650000000000e-03
    endloop
  endfacet
endsolid wall
