solid wall
  facet normal -1.0 0.0 0.0
    outer loop
      vertex 1.100000000000e-03 -1.100000000000e-03 -1.600000000000e-03
      vertex 1.100000000000e-03 -8.250000000000e-04 -1.193750000000e-03
      vertex 1.100000000000e-03 -8.250000000000e-04 -1.600000000000e-03
    endloop
  endfacet
  facet normal -1.0 0.0 0.0
    outer loop
      vertex 1.100000000000e-03 -1.100000000000e-03 -1.600000000000e-03
      vertex 1.100000000000e-03 -1.100000000000e-03 -1.193750000000e-03
      vertex 1.100000000000e-03 -8.250000000000e-04 -1.193750000000e-03
    endloop
  endfacet
  facet normal -1.0 0.0 0.0
    outer loop
      vertex 1.100000000000e-03 -1.100000000000e-03 -1.193750000000e-03
      vertex 1.100000000000e-03 -8.250000000000e-04 -7.875000000000e-04
      vertex 1.100000000000e-03 -8.250000000000e-04 -1.193750000000e-03
    endloop
  endfacet
  facet normal -1.0 0.0 0.0
    outer loop
      vertex 1.100000000000e-03 -1.100000000000e-03 -1.193750000000e-03
      vertex 1.100000000000e-03 -1.100000000000e-03 -7.875000000000e-04
      vertex 1.100000000000e-03 -8.250000000000e-04 -7.875000000000e-04
    endloop
  endfacet
  facet normal -1.0 0.0 0.0
    outer loop
      vertex 1.100000000000e-03 -1.100000000000e-03 -7.875000000000e-04
      vertex 1.100000000000e-03 -8.250000000000e-04 -3.812500000000e-04
      vertex 1.100000000000e-03 -8.250000000000e-04 -7.875000000000e-04
    endloop
  endfacet
  facet normal -1.0 0.0 0.0
    outer loop
      vertex 1.100000000000e-03 -1.100000000000e-03 -7.875000000000e-04
      vertex 1.100000000000e-03 -1.100000000000e-03 -3.812500000000e-04
      vertex 1.100000000000e-03 -8.250000000000e-04 -3.812500000000e-04
    endloop
  endfacet
  facet normal -1.0 0.0 0.0
    outer loop
      vertex 1.100000000000e-03 -1.100000000000e-03 -3.812500000000e-04
      vertex 1.100000000000e-03 -8.250000000000e-04 2.500000000000e-05
      vertex 1.100000000000e-03 -8.250000000000e-04 -3.812500000000e-04
    endloop
  endfacet
  facet normal -1.0 0.0 0.0
    outer loop
      vertex 1.100000000000e-03 -1.100000000000e-03 -3.812500000000e-04
      vertex 1.100000000000e-03 -1.100000000000e-03 2.500000000000e-05
      vertex 1.100000000000e-03 -8.250000000000e-04 2.500000000000e-05
    endloop
  endfacet
  facet normal -1.0 0.0 0.0
    outer loop
      vertex 1.100000000000e-03 -1.100000000000e-03 2.500000000000e-05
      vertex 1.100000000000e-03 -8.250000000000e-04 4.312500000000e-04
      vertex 1.100000000000e-03 -8.250000000000e-04 2.500000000000e-05
    endloop
  endfacet
  facet normal -1.0 0.0 0.0
    outer loop
      vertex 1.100000000000e-03 -1.100000000000e-03 2.500000000000e-05
      vertex 1.100000000000e-03 -1.100000000000e-03 4.312500000000e-04
      vertex 1.100000000000e-03 -8.250000000000e-04 4.312500000000e-04
    endloop
  endfacet
  facet normal -1.0 0.0 0.0
    outer loop
      vertex 1.100000000000e-03 -1.100000000000e-03 4.312500000000e-04
      vertex 1.100000000000e-03 -8.250000000000e-04 8.375000000000e-04
      vertex 1.100000000000e-03 -8.250000000000e-04 4.312500000000e-04
    endloop
  endfacet
  facet normal -1.0 0.0 0.0
    outer loop
      vertex 1.100000000000e-03 -1.100000000000e-03 4.312500000000e-04
      vertex 1.100000000000e-03 -1.100000000000e-03 8.375000000000e-04
      vertex 1.100000000000e-03 -8.250000000000e-04 8.375000000000e-04
    endloop
  endfacet
  facet normal -1.0 0.0 0.0
    outer loop
      vertex 1.100000000000e-03 -1.100000000000e-03 8.375000000000e-04
      vertex 1.100000000000e-03 -8.250000000000e-04 1.243750000000e-03
      vertex 1.100000000000e-03 -8.250000000000e-04 8.375000000000e-04
    endloop
  endfacet
  facet normal -1.0 0.0 0.0
    outer loop
      vertex 1.100000000000e-03 -1.100000000000e-03 8.375000000000e-04
      vertex 1.100000000000e-03 -1.100000000000e-03 1.243750000000e-03
      vertex 1.100000000000e-03 -8.250000000000e-04 1.243750000000e-03
    endloop
  endfacet
  facet normal -1.0 0.0 0.0
    outer loop
      vertex 1.100000000000e-03 -1.100000000000e-03 1.243750000000e-03
      vertex 1.100000000000e-03 -8.250000000000e-04 1.650000000000e-03
      vertex 1.100000000000e-03 -8.250000000000e-04 1.243750000000e-03
    endloop
  endfacet
  facet normal -1.0 0.0 0.0
    outer loop
      vertex 1.100000000000e-03 -1.100000000000e-03 1.243750000000e-03
      vertex 1.100000000000e-03 -1.100000000000e-03 1.650000000000e-03
      vertex 1.100000000000e-03 -8.250000000000e-04 1.650000000000e-03
    endloop
  endfacet
  facet normal -1.0 0.0 0.0
    outer loop
      vertex 1.100000000000e-03 -8.250000000000e-04 -1.600000000000e-03
      vertex 1.100000000000e-03 -5.500000000000e-04 -1.193750000000e-03
      vertex 1.100000000000e-03 -5.500000000000e-04 -1.600000000000e-03
    endloop
  endfacet
  facet normal -1.0 0.0 0.0
    outer loop
      vertex 1.100000000000e-03 -8.250000000000e-04 -1.600000000000e-03
      vertex 1.100000000000e-03 -8.250000000000e-04 -1.193750000000e-03
      vertex 1.100000000000e-03 -5.500000000000e-04 -1.193750000000e-03
    endloop
  endfacet
  facet normal -1.0 0.0 0.0
    outer loop
      vertex 1.100000000000e-03 -8.250000000000e-04 -1.193750000000e-03
      vertex 1.100000000000e-03 -5.500000000000e-04 -7.875000000000e-04
      vertex 1.100000000000e-03 -5.500000000000e-04 -1.193750000000e-03
    endloop
  endfacet
  facet normal -1.0 0.0 0.0
    outer loop
      vertex 1.100000000000e-03 -8.250000000000e-04 -1.193750000000e-03
      vertex 1.100000000000e-03 -8.250000000000e-04 -7.875000000000e-04
      vertex 1.100000000000e-03 -5.500000000000e-04 -7.875000000000e-04
    endloop
  endfacet
  facet normal -1.0 0.0 0.0
    outer loop
      vertex 1.100000000000e-03 -8.250000000000e-04 -7.875000000000e-04
      vertex 1.100000000000e-03 -5.500000000000e-04 -3.812500000000e-04
      vertex 1.100000000000e-03 -5.500000000000e-04 -7.875000000000e-04
    endloop
  endfacet
  facet normal -1.0 0.0 0.0
    outer loop
      vertex 1.100000000000e-03 -8.250000000000e-04 -7.875000000000e-04
      vertex 1.100000000000e-03 -8.250000000000e-04 -3.812500000000e-04
      vertex 1.100000000000e-03 -5.500000000000e-04 -3.812500000000e-04
    endloop
  endfacet
  facet normal -1.0 0.0 0.0
    outer loop
      vertex 1.100000000000e-03 -8.250000000000e-04 -3.812500000000e-04
      vertex 1.100000000000e-03 -5.500000000000e-04 2.500000000000e-05
      vertex 1.100000000000e-03 -5.500000000000e-04 -3.812500000000e-04
    endloop
  endfacet
  facet normal -1.0 0.0 0.0
    outer loop
      vertex 1.100000000000e-03 -8.250000000000e-04 -3.812500000000e-04
      vertex 1.100000000000e-03 -8.250000000000e-04 2.500000000000e-05
      vertex 1.100000000000e-03 -5.500000000000e-04 2.500000000000e-05
    endloop
  endfacet
  facet normal -1.0 0.0 0.0
    outer loop
      vertex 1.100000000000e-03 -8.250000000000e-04 2.500000000000e-05
      vertex 1.100000000000e-03 -5.500000000000e-04 4.312500000000e-04
      vertex 1.100000000000e-03 -5.500000000000e-04 2.500000000000e-05
    endloop
  endfacet
  facet normal -1.0 0.0 0.0
    outer loop
      vertex 1.100000000000e-03 -8.250000000000e-04 2.500000000000e-05
      vertex 1.100000000000e-03 -8.250000000000e-04 4.312500000000e-04
      vertex 1.100000000000e-03 -5.500000000000e-04 4.312500000000e-04
    endloop
  endfacet
  facet normal -1.0 0.0 0.0
    outer loop
      vertex 1.100000000000e-03 -8.250000000000e-04 4.312500000000e-04
      vertex 1.100000000000e-03 -5.500000000000e-04 8.375000000000e-04
      vertex 1.100000000000e-03 -5.500000000000e-04 4.312500000000e-04
    endloop
  endfacet
  facet normal -1.0 0.0 0.0
    outer loop
      vertex 1.100000000000e-03 -8.250000000000e-04 4.312500000000e-04
      vertex 1.100000000000e-03 -8.250000000000e-04 8.375000000000e-04
      vertex 1.100000000000e-03 -5.500000000000e-04 8.375000000000e-04
    endloop
  endfacet
  facet normal -1.0 0.0 0.0
    outer loop
      vertex 1.100000000000e-03 -8.250000000000e-04 8.375000000000e-04
      vertex 1.100000000000e-03 -5.500000000000e-04 1.243750000000e-03
      vertex 1.100000000000e-03 -5.500000000000e-04 8.375000000000e-04
    endloop
  endfacet
  facet normal -1.0 0.0 0.0
    outer loop
      vertex 1.100000000000e-03 -8.250000000000e-04 8.375000000000e-04
      vertex 1.100000000000e-03 -8.250000000000e-04 1.243750000000e-03
      vertex 1.100000000000e-03 -5.500000000000e-04 1.243750000000e-03
    endloop
  endfacet
  facet normal -1.0 0.0 0.0
    outer loop
      vertex 1.100000000000e-03 -8.250000000000e-04 1.243750000000e-03
      vertex 1.100000000000e-03 -5.500000000000e-04 1.650000000000e-03
      vertex 1.100000000000e-03 -5.500000000000e-04 1.243750000000e-03
    endloop
  endfacet
  facet normal -1.0 0.0 0.0
    outer loop
      vertex 1.100000000000e-03 -8.250000000000e-04 1.243750000000e-03
      vertex 1.100000000000e-03 -8.250000000000e-04 1.650000000000e-03
      vertex 1.100000000000e-03 -5.500000000000e-04 1.650000000000e-03
    endloop
  endfacet
  facet normal -1.0 0.0 0.0
    outer loop
      vertex 1.100000000000e-03 -5.500000000000e-04 -1.600000000000e-03
      vertex 1.100000000000e-03 -2.750000000000e-04 -1.193750000000e-03
      vertex 1.100000000000e-03 -2.750000000000e-04 -1.600000000000e-03
    endloop
  endfacet
  facet normal -1.0 0.0 0.0
    outer loop
      vertex 1.100000000000e-03 -5.500000000000e-04 -1.600000000000e-03
      vertex 1.100000000000e-03 -5.500000000000e-04 -1.193750000000e-03
      vertex 1.100000000000e-03 -2.750000000000e-04 -1.193750000000e-03
    endloop
  endfacet
  facet normal -1.0 0.0 0.0
    outer loop
      vertex 1.100000000000e-03 -5.500000000000e-04 -1.193750000000e-03
      vertex 1.100000000000e-03 -2.750000000000e-04 -7.875000000000e-04
      vertex 1.100000000000e-03 -2.750000000000e-04 -1.193750000000e-03
    endloop
  endfacet
  facet normal -1.0 0.0 0.0
    outer loop
      vertex 1.100000000000e-03 -5.500000000000e-04 -1.193750000000e-03
      vertex 1.100000000000e-03 -5.500000000000e-04 -7.875000000000e-04
      vertex 1.100000000000e-03 -2.750000000000e-04 -7.875000000000e-04
    endloop
  endfacet
  facet normal -1.0 0.0 0.0
    outer loop
      vertex 1.100000000000e-03 -5.500000000000e-04 -7.875000000000e-04
      vertex 1.100000000000e-03 -2.750000000000e-04 -3.812500000000e-04
      vertex 1.100000000000e-03 -2.750000000000e-04 -7.875000000000e-04
    endloop
  endfacet
  facet normal -1.0 0.0 0.0
    outer loop
      vertex 1.100000000000e-03 -5.500000000000e-04 -7.875000000000e-04
      vertex 1.100000000000e-03 -5.500000000000e-04 -3.812500000000e-04
      vertex 1.100000000000e-03 -2.750000000000e-04 -3.812500000000e-04
    endloop
  endfacet
  facet normal -1.0 0.0 0.0
    outer loop
      vertex 1.100000000000e-03 -5.500000000000e-04 -3.812500000000e-04
      vertex 1.100000000000e-03 -2.750000000000e-04 2.500000000000e-05
      vertex 1.100000000000e-03 -2.750000000000e-04 -3.812500000000e-04
    endloop
  endfacet
  facet normal -1.0 0.0 0.0
    outer loop
      vertex 1.100000000000e-03 -5.500000000000e-04 -3.812500000000e-04
      vertex 1.100000000000e-03 -5.500000000000e-04 2.500000000000e-05
      vertex 1.100000000000e-03 -2.750000000000e-04 2.500000000000e-05
    endloop
  endfacet
  facet normal -1.0 0.0 0.0
    outer loop
      vertex 1.100000000000e-03 -5.500000000000e-04 2.500000000000e-05
      vertex 1.100000000000e-03 -2.750000000000e-04 4.312500000000e-04
      vertex 1.100000000000e-03 -2.750000000000e-04 2.500000000000e-05
    endloop
  endfacet
  facet normal -1.0 0.0 0.0
    outer loop
      vertex 1.100000000000e-03 -5.500000000000e-04 2.500000000000e-05
      vertex 1.100000000000e-03 -5.500000000000e-04 4.312500000000e-04
      vertex 1.100000000000e-03 -2.750000000000e-04 4.312500000000e-04
    endloop
  endfacet
  facet normal -1.0 0.0 0.0
    outer loop
      vertex 1.100000000000e-03 -5.500000000000e-04 4.312500000000e-04
      vertex 1.100000000000e-03 -2.750000000000e-04 8.375000000000e-04
      vertex 1.100000000000e-03 -2.750000000000e-04 4.312500000000e-04
    endloop
  endfacet
  facet normal -1.0 0.0 0.0
    outer loop
      vertex 1.100000000000e-03 -5.500000000000e-04 4.312500000000e-04
      vertex 1.100000000000e-03 -5.500000000000e-04 8.375000000000e-04
      vertex 1.100000000000e-03 -2.750000000000e-04 8.375000000000e-04
    endloop
  endfacet
  facet normal -1.0 0.0 0.0
    outer loop
      vertex 1.100000000000e-03 -5.500000000000e-04 8.375000000000e-04
      vertex 1.100000000000e-03 -2.750000000000e-04 1.243750000000e-03
      vertex 1.100000000000e-03 -2.750000000000e-04 8.375000000000e-04
    endloop
  endfacet
  facet normal -1.0 0.0 0.0
    outer loop
      vertex 1.100000000000e-03 -5.500000000000e-04 8.375000000000e-04
      vertex 1.100000000000e-03 -5.500000000000e-04 1.243750000000e-03
      vertex 1.100000000000e-03 -2.750000000000e-04 1.243750000000e-03
    endloop
  endfacet
  facet normal -1.0 0.0 0.0
    outer loop
      vertex 1.100000000000e-03 -5.500000000000e-04 1.243750000000e-03
      vertex 1.100000000000e-03 -2.750000000000e-04 1.650000000000e-03
      vertex 1.100000000000e-03 -2.750000000000e-04 1.243750000000e-03
    endloop
  endfacet
  facet normal -1.0 0.0 0.0
    outer loop
      vertex 1.100000000000e-03 -5.500000000000e-04 1.243750000000e-03
      vertex 1.100000000000e-03 -5.500000000000e-04 1.650000000000e-03
      vertex 1.100000000000e-03 -2.750000000000e-04 1.650000000000e-03
    endloop
  endfacet
  facet normal -1.0 0.0 0.0
    outer loop
      vertex 1.100000000000e-03 -2.750000000000e-04 -1.600000000000e-03
      vertex 1.100000000000e-03 -5.421010862428e-20 -1.193750000000e-03
      vertex 1.100000000000e-03 -5.421010862428e-20 -1.600000000000e-03
    endloop
  endfacet
  facet normal -1.0 0.0 0.0
    outer loop
      vertex 1.100000000000e-03 -2.750000000000e-04 -1.600000000000e-03
      vertex 1.100000000000e-03 -2.750000000000e-04 -1.193750000000e-03
      vertex 1.100000000000e-03 -5.421010862428e-20 -1.193750000000e-03
    endloop
  endfacet
  facet normal -1.0 0.0 0.0
    outer loop
      vertex 1.100000000000e-03 -2.750000000000e-04 -1.193750000000e-03
      vertex 1.100000000000e-03 -5.421010862428e-20 -7.875000000000e-04
      vertex 1.100000000000e-03 -5.421010862428e-20 -1.193750000000e-03
    endloop
  endfacet
  facet normal -1.0 0.0 0.0
    outer loop
      vertex 1.100000000000e-03 -2.750000000000e-04 -1.193750000000e-03
      vertex 1.100000000000e-03 -2.750000000000e-04 -7.875000000000e-04
      vertex 1.100000000000e-03 -5.421010862428e-20 -7.875000000000e-04
    endloop
  endfacet
  facet normal -1.0 0.0 0.0
    outer loop
      vertex 1.100000000000e-03 -2.750000000000e-04 -7.875000000000e-04
      vertex 1.100000000000e-03 -5.421010862428e-20 -3.812500000000e-04
      vertex 1.100000000000e-03 -5.421010862428e-20 -7.875000000000e-04
    endloop
  endfacet
  facet normal -1.0 0.0 0.0
    outer loop
      vertex 1.100000000000e-03 -2.750000000000e-04 -7.875000000000e-04
      vertex 1.100000000000e-03 -2.750000000000e-04 -3.812500000000e-04
      vertex 1.100000000000e-03 -5.421010862428e-20 -3.812500000000e-04
    endloop
  endfacet
  facet normal -1.0 0.0 0.0
    outer loop
      vertex 1.100000000000e-03 -2.750000000000e-04 -3.812500000000e-04
      vertex 1.100000000000e-03 -5.421010862428e-20 2.500000000000e-05
      vertex 1.100000000000e-03 -5.421010862428e-20 -3.812500000000e-04
    endloop
  endfacet
  facet normal -1.0 0.0 0.0
    outer loop
      vertex 1.100000000000e-03 -2.750000000000e-04 -3.812500000000e-04
      vertex 1.100000000000e-03 -2.750000000000e-04 2.500000000000e-05
      vertex 1.100000000000e-03 -5.421010862428e-20 2.500000000000e-05
    endloop
  endfacet
  facet normal -1.0 0.0 0.0
    outer loop
      vertex 1.100000000000e-03 -2.750000000000e-04 2.500000000000e-05
      vertex 1.100000000000e-03 -5.421010862428e-20 4.312500000000e-04
      vertex 1.100000000000e-03 -5.421010862428e-20 2.500000000000e-05
    endloop
  endfacet
  facet normal -1.0 0.0 0.0
    outer loop
      vertex 1.100000000000e-03 -2.750000000000e-04 2.500000000000e-05
      vertex 1.100000000000e-03 -2.750000000000e-04 4.312500000000e-04
      vertex 1.100000000000e-03 -5.421010862428e-20 4.312500000000e-04
    endloop
  endfacet
  facet normal -1.0 0.0 0.0
    outer loop
      vertex 1.100000000000e-03 -2.750000000000e-04 4.312500000000e-04
      vertex 1.100000000000e-03 -5.421010862428e-20 8.375000000000e-04
      vertex 1.100000000000e-03 -5.421010862428e-20 4.312500000000e-04
    endloop
  endfacet
  facet normal -1.0 0.0 0.0
    outer loop
      vertex 1.100000000000e-03 -2.750000000000e-04 4.312500000000e-04
      vertex 1.100000000000e-03 -2.750000000000e-04 8.375000000000e-04
      vertex 1.100000000000e-03 -5.421010862428e-20 8.375000000000e-04
    endloop
  endfacet
  facet normal -1.0 0.0 0.0
    outer loop
      vertex 1.100000000000e-03 -2.750000000000e-04 8.375000000000e-04
      vertex 1.100000000000e-03 -5.421010862428e-20 1.243750000000e-03
      vertex 1.100000000000e-03 -5.421010862428e-20 8.375000000000e-04
    endloop
  endfacet
  facet normal -1.0 0.0 0.0
    outer loop
      vertex 1.100000000000e-03 -2.750000000000e-04 8.375000000000e-04
      vertex 1.100000000000e-03 -2.750000000000e-04 1.243750000000e-03
      vertex 1.100000000000e-03 -5.421010862428e-20 1.243750000000e-03
    endloop
  endfacet
  facet normal -1.0 0.0 0.0
    outer loop
      vertex 1.100000000000e-03 -2.750000000000e-04 1.243750000000e-03
      vertex 1.100000000000e-03 -5.421010862428e-20 1.650000000000e-03
      vertex 1.100000000000e-03 -5.421010862428e-20 1.243750000000e-03
    endloop
  endfacet
  facet normal -1.0 0.0 0.0
    outer loop
      vertex 1.100000000000e-03 -2.750000000000e-04 1.243750000000e-03
      vertex 1.100000000000e-03 -2.750000000000e-04 1.650000000000e-03
      vertex 1.100000000000e-03 -5.421010862428e-20 1.650000000000e-03
    endloop
  endfacet
  facet normal -1.0 0.0 0.0
    outer loop
      vertex 1.100000000000e-03 0.000000000000e+00 -1.600000000000e-03
      vertex 1.100000000000e-03 2.750000000000e-04 -1.193750000000e-03
      vertex 1.100000000000e-03 2.750000000000e-04 -1.600000000000e-03
    endloop
  endfacet
  facet normal -1.0 0.0 0.0
    outer loop
      vertex 1.100000000000e-03 0.000000000000e+00 -1.600000000000e-03
      vertex 1.100000000000e-03 0.000000000000e+00 -1.193750000000e-03
      vertex 1.100000000000e-03 2.750000000000e-04 -1.193750000000e-03
    endloop
  endfacet
  facet normal -1.0 0.0 0.0
    outer loop
      vertex 1.100000000000e-03 0.000000000000e+00 -1.193750000000e-03
      vertex 1.100000000000e-03 2.750000000000e-04 -7.875000000000e-04
      vertex 1.100000000000e-03 2.750000000000e-04 -1.193750000000e-03
    endloop
  endfacet
  facet normal -1.0 0.0 0.0
    outer loop
      vertex 1.100000000000e-03 0.000000000000e+00 -1.193750000000e-03
      vertex 1.100000000000e-03 0.000000000000e+00 -7.875000000000e-04
      vertex 1.100000000000e-03 2.750000000000e-04 -7.875000000000e-04
    endloop
  endfacet
  facet normal -1.0 0.0 0.0
    outer loop
      vertex 1.100000000000e-03 0.000000000000e+00 -7.875000000000e-04
      vertex 1.100000000000e-03 2.750000000000e-04 -3.812500000000e-04
      vertex 1.100000000000e-03 2.750000000000e-04 -7.875000000000e-04
    endloop
  endfacet
  facet normal -1.0 0.0 0.0
    outer loop
      vertex 1.100000000000e-03 0.000000000000e+00 -7.875000000000e-04
      vertex 1.100000000000e-03 0.000000000000e+00 -3.812500000000e-04
      vertex 1.100000000000e-03 2.750000000000e-04 -3.812500000000e-04
    endloop
  endfacet
  facet normal -1.0 0.0 0.0
    outer loop
      vertex 1.100000000000e-03 0.000000000000e+00 -3.812500000000e-04
      vertex 1.100000000000e-03 2.750000000000e-04 2.500000000000e-05
      vertex 1.100000000000e-03 2.750000000000e-04 -3.812500000000e-04
    endloop
  endfacet
  facet normal -1.0 0.0 0.0
    outer loop
      vertex 1.100000000000e-03 0.000000000000e+00 -3.812500000000e-04
      vertex 1.100000000000e-03 0.000000000000e+00 2.500000000000e-05
      vertex 1.100000000000e-03 2.750000000000e-04 2.500000000000e-05
    endloop
  endfacet
  facet normal -1.0 0.0 0.0
    outer loop
      vertex 1.100000000000e-03 0.000000000000e+00 2.500000000000e-05
      vertex 1.100000000000e-03 2.750000000000e-04 4.312500000000e-04
      vertex 1.100000000000e-03 2.750000000000e-04 2.500000000000e-05
    endloop
  endfacet
  facet normal -1.0 0.0 0.0
    outer loop
      vertex 1.100000000000e-03 0.000000000000e+00 2.500000000000e-05
      vertex 1.100000000000e-03 0.000000000000e+00 4.312500000000e-04
      vertex 1.100000000000e-03 2.750000000000e-04 4.312500000000e-04
    endloop
  endfacet
  facet normal -1.0 0.0 0.0
    outer loop
      vertex 1.100000000000e-03 0.000000000000e+00 4.312500000000e-04
      vertex 1.100000000000e-03 2.750000000000e-04 8.375000000000e-04
      vertex 1.100000000000e-03 2.750000000000e-04 4.312500000000e-04
    endloop
  endfacet
  facet normal -1.0 0.0 0.0
    outer loop
      vertex 1.100000000000e-03 0.000000000000e+00 4.312500000000e-04
      vertex 1.100000000000e-03 0.000000000000e+00 8.375000000000e-04
      vertex 1.100000000000e-03 2.750000000000e-04 8.375000000000e-04
    endloop
  endfacet
  facet normal -1.0 0.0 0.0
    outer loop
      vertex 1.100000000000e-03 0.000000000000e+00 8.375000000000e-04
      vertex 1.100000000000e-03 2.750000000000e-04 1.243750000000e-03
      vertex 1.100000000000e-03 2.750000000000e-04 8.375000000000e-04
    endloop
  endfacet
  facet normal -1.0 0.0 0.0
    outer loop
      vertex 1.100000000000e-03 0.000000000000e+00 8.375000000000e-04
      vertex 1.100000000000e-03 0.000000000000e+00 1.243750000000e-03
      vertex 1.100000000000e-03 2.750000000000e-04 1.243750000000e-03
    endloop
  endfacet
  facet normal -1.0 0.0 0.0
    outer loop
      vertex 1.100000000000e-03 0.000000000000e+00 1.243750000000e-03
      vertex 1.100000000000e-03 2.750000000000e-04 1.650000000000e-03
      vertex 1.100000000000e-03 2.750000000000e-04 1.243750000000e-03
    endloop
  endfacet
  facet normal -1.0 0.0 0.0
    outer loop
      vertex 1.100000000000e-03 0.000000000000e+00 1.243750000000e-03
      vertex 1.100000000000e-03 0.000000000000e+00 1.650000000000e-03
      vertex 1.100000000000e-03 2.750000000000e-04 1.650000000000e-03
    endloop
  endfacet
  facet normal -1.0 0.0 0.0
    outer loop
      vertex 1.100000000000e-03 2.750000000000e-04 -1.600000000000e-03
      vertex 1.100000000000e-03 5.500000000000e-04 -1.193750000000e-03
      vertex 1.100000000000e-03 5.500000000000e-04 -1.600000000000e-03
    endloop
  endfacet
  facet normal -1.0 0.0 0.0
    outer loop
      vertex 1.100000000000e-03 2.750000000000e-04 -1.600000000000e-03
      vertex 1.100000000000e-03 2.750000000000e-04 -1.193750000000e-03
      vertex 1.100000000000e-03 5.500000000000e-04 -1.193750000000e-03
    endloop
  endfacet
  facet normal -1.0 0.0 0.0
    outer loop
      vertex 1.100000000000e-03 2.750000000000e-04 -1.193750000000e-03
      vertex 1.100000000000e-03 5.500000000000e-04 -7.875000000000e-04
      vertex 1.100000000000e-03 5.500000000000e-04 -1.193750000000e-03
    endloop
  endfacet
  facet normal -1.0 0.0 0.0
    outer loop
      vertex 1.100000000000e-03 2.750000000000e-04 -1.193750000000e-03
      vertex 1.100000000000e-03 2.750000000000e-04 -7.875000000000e-04
      vertex 1.100000000000e-03 5.500000000000e-04 -7.875000000000e-04
    endloop
  endfacet
  facet normal -1.0 0.0 0.0
    outer loop
      vertex 1.100000000000e-03 2.750000000000e-04 -7.875000000000e-04
      vertex 1.100000000000e-03 5.500000000000e-04 -3.812500000000e-04
      vertex 1.100000000000e-03 5.500000000000e-04 -7.875000000000e-04
    endloop
  endfacet
  facet normal -1.0 0.0 0.0
    outer loop
      vertex 1.100000000000e-03 2.750000000000e-04 -7.875000000000e-04
      vertex 1.100000000000e-03 2.750000000000e-04 -3.812500000000e-04
      vertex 1.100000000000e-03 5.500000000000e-04 -3.812500000000e-04
    endloop
  endfacet
  facet normal -1.0 0.0 0.0
    outer loop
      vertex 1.100000000000e-03 2.750000000000e-04 -3.812500000000e-04
      vertex 1.100000000000e-03 5.500000000000e-04 2.500000000000e-05
      vertex 1.100000000000e-03 5.500000000000e-04 -3.812500000000e-04
    endloop
  endfacet
  facet normal -1.0 0.0 0.0
    outer loop
      vertex 1.100000000000e-03 2.750000000000e-04 -3.812500000000e-04
      vertex 1.100000000000e-03 2.750000000000e-04 2.500000000000e-05
      vertex 1.100000000000e-03 5.500000000000e-04 2.500000000000e-05
    endloop
  endfacet
  facet normal -1.0 0.0 0.0
    outer loop
      vertex 1.100000000000e-03 2.750000000000e-04 2.500000000000e-05
      vertex 1.100000000000e-03 5.500000000000e-04 4.312500000000e-04
      vertex 1.100000000000e-03 5.500000000000e-04 2.500000000000e-05
    endloop
  endfacet
  facet normal -1.0 0.0 0.0
    outer loop
      vertex 1.100000000000e-03 2.750000000000e-04 2.500000000000e-05
      vertex 1.100000000000e-03 2.750000000000e-04 4.312500000000e-04
      vertex 1.100000000000e-03 5.500000000000e-04 4.312500000000e-04
    endloop
  endfacet
  facet normal -1.0 0.0 0.0
    outer loop
      vertex 1.100000000000e-03 2.750000000000e-04 4.312500000000e-04
      vertex 1.100000000000e-03 5.500000000000e-04 8.375000000000e-04
      vertex 1.100000000000e-03 5.500000000000e-04 4.312500000000e-04
    endloop
  endfacet
  facet normal -1.0 0.0 0.0
    outer loop
      vertex 1.100000000000e-03 2.750000000000e-04 4.312500000000e-04
      vertex 1.100000000000e-03 2.750000000000e-04 8.375000000000e-04
      vertex 1.100000000000e-03 5.500000000000e-04 8.375000000000e-04
    endloop
  endfacet
  facet normal -1.0 0.0 0.0
    outer loop
      vertex 1.100000000000e-03 2.750000000000e-04 8.375000000000e-04
      vertex 1.100000000000e-03 5.500000000000e-04 1.243750000000e-03
      vertex 1.100000000000e-03 5.500000000000e-04 8.375000000000e-04
    endloop
  endfacet
  facet normal -1.0 0.0 0.0
    outer loop
      vertex 1.100000000000e-03 2.750000000000e-04 8.375000000000e-04
      vertex 1.100000000000e-03 2.750000000000e-04 1.243750000000e-03
      vertex 1.100000000000e-03 5.500000000000e-04 1.243750000000e-03
    endloop
  endfacet
  facet normal -1.0 0.0 0.0
    outer loop
      vertex 1.100000000000e-03 2.750000000000e-04 1.243750000000e-03
      vertex 1.100000000000e-03 5.500000000000e-04 1.650000000000e-03
      vertex 1.100000000000e-03 5.500000000000e-04 1.243750000000e-03
    endloop
  endfacet
  facet normal -1.0 0.0 0.0
    outer loop
      vertex 1.100000000000e-03 2.750000000000e-04 1.243750000000e-03
      vertex 1.100000000000e-03 2.750000000000e-04 1.650000000000e-03
      vertex 1.100000000000e-03 5.500000000000e-04 1.650000000000e-03
    endloop
  endfacet
  facet normal -1.0 0.0 0.0
    outer loop
      vertex 1.100000000000e-03 5.500000000000e-04 -1.600000000000e-03
      vertex 1.100000000000e-03 8.250000000000e-04 -1.193750000000e-03
      vertex 1.100000000000e-03 8.250000000000e-04 -1.600000000000e-03
    endloop
  endfacet
  facet normal -1.0 0.0 0.0
    outer loop
      vertex 1.100000000000e-03 5.500000000000e-04 -1.600000000000e-03
      vertex 1.100000000000e-03 5.500000000000e-04 -1.193750000000e-03
      vertex 1.100000000000e-03 8.250000000000e-04 -1.193750000000e-03
    endloop
  endfacet
  facet normal -1.0 0.0 0.0
    outer loop
      vertex 1.100000000000e-03 5.500000000000e-04 -1.193750000000e-03
      vertex 1.100000000000e-03 8.250000000000e-04 -7.875000000000e-04
      vertex 1.100000000000e-03 8.250000000000e-04 -1.193750000000e-03
    endloop
  endfacet
  facet normal -1.0 0.0 0.0
    outer loop
      vertex 1.100000000000e-03 5.500000000000e-04 -1.193750000000e-03
      vertex 1.100000000000e-03 5.500000000000e-04 -7.875000000000e-04
      vertex 1.100000000000e-03 8.250000000000e-04 -7.875000000000e-04
    endloop
  endfacet
  facet normal -1.0 0.0 0.0
    outer loop
      vertex 1.100000000000e-03 5.500000000000e-04 -7.875000000000e-04
      vertex 1.100000000000e-03 8.250000000000e-04 -3.812500000000e-04
      vertex 1.100000000000e-03 8.250000000000e-04 -7.875000000000e-04
    endloop
  endfacet
  facet normal -1.0 0.0 0.0
    outer loop
      vertex 1.100000000000e-03 5.500000000000e-04 -7.875000000000e-04
      vertex 1.100000000000e-03 5.500000000000e-04 -3.812500000000e-04
      vertex 1.100000000000e-03 8.250000000000e-04 -3.812500000000e-04
    endloop
  endfacet
  facet normal -1.0 0.0 0.0
    outer loop
      vertex 1.100000000000e-03 5.500000000000e-04 -3.812500000000e-04
      vertex 1.100000000000e-03 8.250000000000e-04 2.500000000000e-05
      vertex 1.100000000000e-03 8.250000000000e-04 -3.812500000000e-04
    endloop
  endfacet
  facet normal -1.0 0.0 0.0
    outer loop
      vertex 1.100000000000e-03 5.500000000000e-04 -3.812500000000e-04
      vertex 1.100000000000e-03 5.500000000000e-04 2.500000000000e-05
      vertex 1.100000000000e-03 8.250000000000e-04 2.500000000000e-05
    endloop
  endfacet
  facet normal -1.0 0.0 0.0
    outer loop
      vertex 1.100000000000e-03 5.500000000000e-04 2.500000000000e-05
      vertex 1.100000000000e-03 8.250000000000e-04 4.312500000000e-04
      vertex 1.100000000000e-03 8.250000000000e-04 2.500000000000e-05
    endloop
  endfacet
  facet normal -1.0 0.0 0.0
    outer loop
      vertex 1.100000000000e-03 5.500000000000e-04 2.500000000000e-05
      vertex 1.100000000000e-03 5.500000000000e-04 4.312500000000e-04
      vertex 1.100000000000e-03 8.250000000000e-04 4.312500000000e-04
    endloop
  endfacet
  facet normal -1.0 0.0 0.0
    outer loop
      vertex 1.100000000000e-03 5.500000000000e-04 4.312500000000e-04
      vertex 1.100000000000e-03 8.250000000000e-04 8.375000000000e-04
      vertex 1.100000000000e-03 8.250000000000e-04 4.312500000000e-04
    endloop
  endfacet
  facet normal -1.0 0.0 0.0
    outer loop
      vertex 1.100000000000e-03 5.500000000000e-04 4.312500000000e-04
      vertex 1.100000000000e-03 5.500000000000e-04 8.375000000000e-04
      vertex 1.100000000000e-03 8.250000000000e-04 8.375000000000e-04
    endloop
  endfacet
  facet normal -1.0 0.0 0.0
    outer loop
      vertex 1.100000000000e-03 5.500000000000e-04 8.375000000000e-04
      vertex 1.100000000000e-03 8.250000000000e-04 1.243750000000e-03
      vertex 1.100000000000e-03 8.250000000000e-04 8.375000000000e-04
    endloop
  endfacet
  facet normal -1.0 0.0 0.0
    outer loop
      vertex 1.100000000000e-03 5.500000000000e-04 8.375000000000e-04
      vertex 1.100000000000e-03 5.500000000000e-04 1.243750000000e-03
      vertex 1.100000000000e-03 8.250000000000e-04 1.243750000000e-03
    endloop
  endfacet
  facet normal -1.0 0.0 0.0
    outer loop
      vertex 1.100000000000e-03 5.500000000000e-04 1.243750000000e-03
      vertex 1.100000000000e-03 8.250000000000e-04 1.650000000000e-03
      vertex 1.100000000000e-03 8.250000000000e-04 1.243750000000e-03
    endloop
  endfacet
  facet normal -1.0 0.0 0.0
    outer loop
      vertex 1.100000000000e-03 5.500000000000e-04 1.243750000000e-03
      vertex 1.100000000000e-03 5.500000000000e-04 1.650000000000e-03
      vertex 1.100000000000e-03 8.250000000000e-04 1.650000000000e-03
    endloop
  endfacet
  facet normal -1.0 0.0 0.0
    outer loop
      vertex 1.100000000000e-03 8.250000000000e-04 -1.600000000000e-03
      vertex 1.100000000000e-03 1.100000000000e-03 -1.193750000000e-03
      vertex 1.100000000000e-03 1.100000000000e-03 -1.600000000000e-03
    endloop
  endfacet
  facet normal -1.0 0.0 0.0
    outer loop
      vertex 1.100000000000e-03 8.250000000000e-04 -1.600000000000e-03
      vertex 1.100000000000e-03 8.250000000000e-04 -1.193750000000e-03
      vertex 1.100000000000e-03 1.100000000000e-03 -1.193750000000e-03
    endloop
  endfacet
  facet normal -1.0 0.0 0.0
    outer loop
      vertex 1.100000000000e-03 8.250000000000e-04 -1.193750000000e-03
      vertex 1.100000000000e-03 1.100000000000e-03 -7.875000000000e-04
      vertex 1.100000000000e-03 1.100000000000e-03 -1.193750000000e-03
    endloop
  endfacet
  facet normal -1.0 0.0 0.0
    outer loop
      vertex 1.100000000000e-03 8.250000000000e-04 -1.193750000000e-03
      vertex 1.100000000000e-03 8.250000000000e-04 -7.875000000000e-04
      vertex 1.100000000000e-03 1.100000000000e-03 -7.875000000000e-04
    endloop
  endfacet
  facet normal -1.0 0.0 0.0
    outer loop
      vertex 1.100000000000e-03 8.250000000000e-04 -7.875000000000e-04
      vertex 1.100000000000e-03 1.100000000000e-03 -3.812500000000e-04
      vertex 1.100000000000e-03 1.100000000000e-03 -7.875000000000e-04
    endloop
  endfacet
  facet normal -1.0 0.0 0.0
    outer loop
      vertex 1.100000000000e-03 8.250000000000e-04 -7.875000000000e-04
      vertex 1.100000000000e-03 8.250000000000e-04 -3.812500000000e-04
      vertex 1.100000000000e-03 1.100000000000e-03 -3.812500000000e-04
    endloop
  endfacet
  facet normal -1.0 0.0 0.0
    outer loop
      vertex 1.100000000000e-03 8.250000000000e-04 -3.812500000000e-04
      vertex 1.100000000000e-03 1.100000000000e-03 2.500000000000e-05
      vertex 1.100000000000e-03 1.100000000000e-03 -3.812500000000e-04
    endloop
  endfacet
  facet normal -1.0 0.0 0.0
    outer loop
      vertex 1.100000000000e-03 8.250000000000e-04 -3.812500000000e-04
      vertex 1.100000000000e-03 8.250000000000e-04 2.500000000000e-05
      vertex 1.100000000000e-03 1.100000000000e-03 2.500000000000e-05
    endloop
  endfacet
  facet normal -1.0 0.0 0.0
    outer loop
      vertex 1.100000000000e-03 8.250000000000e-04 2.500000000000e-05
      vertex 1.100000000000e-03 1.100000000000e-03 4.312500000000e-04
      vertex 1.100000000000e-03 1.100000000000e-03 2.500000000000e-05
    endloop
  endfacet
  facet normal -1.0 0.0 0.0
    outer loop
      vertex 1.100000000000e-03 8.250000000000e-04 2.500000000000e-05
      vertex 1.100000000000e-03 8.250000000000e-04 4.312500000000e-04
      vertex 1.100000000000e-03 1.100000000000e-03 4.312500000000e-04
    endloop
  endfacet
  facet normal -1.0 0.0 0.0
    outer loop
      vertex 1.100000000000e-03 8.250000000000e-04 4.312500000000e-04
      vertex 1.100000000000e-03 1.100000000000e-03 8.375000000000e-04
      vertex 1.100000000000e-03 1.100000000000e-03 4.312500000000e-04
    endloop
  endfacet
  facet normal -1.0 0.0 0.0
    outer loop
      vertex 1.100000000000e-03 8.250000000000e-04 4.312500000000e-04
      vertex 1.100000000000e-03 8.250000000000e-04 8.375000000000e-04
      vertex 1.100000000000e-03 1.100000000000e-03 8.375000000000e-04
    endloop
  endfacet
  facet normal -1.0 0.0 0.0
    outer loop
      vertex 1.100000000000e-03 8.250000000000e-04 8.375000000000e-04
      vertex 1.100000000000e-03 1.100000000000e-03 1.243750000000e-03
      vertex 1.100000000000e-03 1.100000000000e-03 8.375000000000e-04
    endloop
  endfacet
  facet normal -1.0 0.0 0.0
    outer loop
      vertex 1.100000000000e-03 8.250000000000e-04 8.375000000000e-04
      vertex 1.100000000000e-03 8.250000000000e-04 1.243750000000e-03
      vertex 1.100000000000e-03 1.100000000000e-03 1.243750000000e-03
    endloop
  endfacet
  facet normal -1.0 0.0 0.0
    outer loop
      vertex 1.100000000000e-03 8.250000000000e-04 1.243750000000e-03
      vertex 1.100000000000e-03 1.100000000000e-03 1.650000000000e-03
      vertex 1.100000000000e-03 1.100000000000e-03 1.243750000000e-03
    endloop
  endfacet
  facet normal -1.0 0.0 0.0
    outer loop
      vertex 1.100000000000e-03 8.250000000000e-04 1.243750000000e-03
      vertex 1.100000000000e-03 8.250000000000e-04 1.650000000000e-03
      vertex 1.100000000000e-03 1.100000000000e-03 1.650000000000e-03
    endloop
  endfacet
endsolid wall
