solid plate
  facet normal 0 0 1.0
    outer loop
      vertex -2.250000000000e-03 -2.250000000000e-03 -1.790000000000e-03
      vertex -1.875000000000e-03 -2.250000000000e-03 -1.790000000000e-03
      vertex -1.875000000000e-03 -1.875000000000e-03 -1.790000000000e-03
    endloop
  endfacet
  facet normal 0 0 1.0
    outer loop
      vertex -2.250000000000e-03 -2.250000000000e-03 -1.790000000000e-03
      vertex -1.875000000000e-03 -1.875000000000e-03 -1.790000000000e-03
      vertex -2.250000000000e-03 -1.875000000000e-03 -1.790000000000e-03
    endloop
  endfacet
  facet normal 0 0 1.0
    outer loop
      vertex -2.250000000000e-03 -1.875000000000e-03 -1.790000000000e-03
      vertex -1.875000000000e-03 -1.875000000000e-03 -1.790000000000e-03
      vertex -1.875000000000e-03 -1.500000000000e-03 -1.790000000000e-03
    endloop
  endfacet
  facet normal 0 0 1.0
    outer loop
      vertex -2.250000000000e-03 -1.875000000000e-03 -1.790000000000e-03
      vertex -1.875000000000e-03 -1.500000000000e-03 -1.790000000000e-03
      vertex -2.250000000000e-03 -1.500000000000e-03 -1.790000000000e-03
    endloop
  endfacet
  facet normal 0 0 1.0
    outer loop
      vertex -2.250000000000e-03 -1.500000000000e-03 -1.790000000000e-03
      vertex -1.875000000000e-03 -1.500000000000e-03 -1.790000000000e-03
      vertex -1.875000000000e-03 -1.125000000000e-03 -1.790000000000e-03
    endloop
  endfacet
  facet normal 0 0 1.0
    outer loop
      vertex -2.250000000000e-03 -1.500000000000e-03 -1.790000000000e-03
      vertex -1.875000000000e-03 -1.125000000000e-03 -1.790000000000e-03
      vertex -2.250000000000e-03 -1.125000000000e-03 -1.790000000000e-03
    endloop
  endfacet
  facet normal 0 0 1.0
    outer loop
      vertex -2.250000000000e-03 -1.125000000000e-03 -1.790000000000e-03
      vertex -1.875000000000e-03 -1.125000000000e-03 -1.790000000000e-03
      vertex -1.875000000000e-03 -7.500000000000e-04 -1.790000000000e-03
    endloop
  endfacet
  facet normal 0 0 1.0
    outer loop
      vertex -2.250000000000e-03 -1.125000000000e-03 -1.790000000000e-03
      vertex -1.875000000000e-03 -7.500000000000e-04 -1.790000000000e-03
      vertex -2.250000000000e-03 -7.500000000000e-04 -1.790000000000e-03
    endloop
  endfacet
  facet normal 0 0 1.0
    outer loop
      vertex -2.250000000000e-03 -7.500000000000e-04 -1.790000000000e-03
      vertex -1.875000000000e-03 -7.500000000000e-04 -1.790000000000e-03
      vertex -1.875000000000e-03 -3.750000000000e-04 -1.790000000000e-03
    endloop
  endfacet
  facet normal 0 0 1.0
    outer loop
      vertex -2.250000000000e-03 -7.500000000000e-04 -1.790000000000e-03
      vertex -1.875000000000e-03 -3.750000000000e-04 -1.790000000000e-03
      vertex -2.250000000000e-03 -3.750000000000e-04 -1.790000000000e-03
    endloop
  endfacet
  facet normal 0 0 1.0
    outer loop
      vertex -2.250000000000e-03 -3.750000000000e-04 -1.790000000000e-03
      vertex -1.875000000000e-03 -3.750000000000e-04 -1.790000000000e-03
      vertex -1.875000000000e-03 -1.626303258728e-19 -1.790000000000e-03
    endloop
  endfacet
  facet normal 0 0 1.0
    outer loop
      vertex -2.250000000000e-03 -3.750000000000e-04 -1.790000000000e-03
      vertex -1.875000000000e-03 -1.626303258728e-19 -1.790000000000e-03
      vertex -2.250000000000e-03 -1.626303258728e-19 -1.790000000000e-03
    endloop
  endfacet
  facet normal 0 0 1.0
    outer loop
      vertex -2.250000000000e-03 0.000000000000e+00 -1.790000000000e-03
      vertex -1.875000000000e-03 0.000000000000e+00 -1.790000000000e-03
      vertex -1.875000000000e-03 3.750000000000e-04 -1.790000000000e-03
    endloop
  endfacet
  facet normal 0 0 1.0
    outer loop
      vertex -2.250000000000e-03 0.000000000000e+00 -1.790000000000e-03
      vertex -1.875000000000e-03 3.750000000000e-04 -1.790000000000e-03
      vertex -2.250000000000e-03 3.750000000000e-04 -1.790000000000e-03
    endloop
  endfacet
  facet normal 0 0 1.0
    outer loop
      vertex -2.250000000000e-03 3.750000000000e-04 -1.790000000000e-03
      vertex -1.875000000000e-03 3.750000000000e-04 -1.790000000000e-03
      vertex -1.875000000000e-03 7.500000000000e-04 -1.790000000000e-03
    endloop
  endfacet
  facet normal 0 0 1.0
    outer loop
      vertex -2.250000000000e-03 3.750000000000e-04 -1.790000000000e-03
      vertex -1.875000000000e-03 7.500000000000e-04 -1.790000000000e-03
      vertex -2.250000000000e-03 7.500000000000e-04 -1.790000000000e-03
    endloop
  endfacet
  facet normal 0 0 1.0
    outer loop
      vertex -2.250000000000e-03 7.500000000000e-04 -1.790000000000e-03
      vertex -1.875000000000e-03 7.500000000000e-04 -1.790000000000e-03
      vertex -1.875000000000e-03 1.125000000000e-03 -1.790000000000e-03
    endloop
  endfacet
  facet normal 0 0 1.0
    outer loop
      vertex -2.250000000000e-03 7.500000000000e-04 -1.790000000000e-03
      vertex -1.875000000000e-03 1.125000000000e-03 -1.790000000000e-03
      vertex -2.250000000000e-03 1.125000000000e-03 -1.790000000000e-03
    endloop
  endfacet
  facet normal 0 0 1.0
    outer loop
      vertex -2.250000000000e-03 1.125000000000e-03 -1.790000000000e-03
      vertex -1.875000000000e-03 1.125000000000e-03 -1.790000000000e-03
      vertex -1.875000000000e-03 1.500000000000e-03 -1.790000000000e-03
    endloop
  endfacet
  facet normal 0 0 1.0
    outer loop
      vertex -2.250000000000e-03 1.125000000000e-03 -1.790000000000e-03
      vertex -1.875000000000e-03 1.500000000000e-03 -1.790000000000e-03
      vertex -2.250000000000e-03 1.500000000000e-03 -1.790000000000e-03
    endloop
  endfacet
  facet normal 0 0 1.0
    outer loop
      vertex -2.250000000000e-03 1.500000000000e-03 -1.790000000000e-03
      vertex -1.875000000000e-03 1.500000000000e-03 -1.790000000000e-03
      vertex -1.875000000000e-03 1.875000000000e-03 -1.790000000000e-03
    endloop
  endfacet
  facet normal 0 0 1.0
    outer loop
      vertex -2.250000000000e-03 1.500000000000e-03 -1.790000000000e-03
      vertex -1.875000000000e-03 1.875000000000e-03 -1.790000000000e-03
      vertex -2.250000000000e-03 1.875000000000e-03 -1.790000000000e-03
    endloop
  endfacet
  facet normal 0 0 1.0
    outer loop
      vertex -2.250000000000e-03 1.875000000000e-03 -1.790000000000e-03
      vertex -1.875000000000e-03 1.875000000000e-03 -1.790000000000e-03
      vertex -1.875000000000e-03 2.250000000000e-03 -1.790000000000e-03
    endloop
  endfacet
  facet normal 0 0 1.0
    outer loop
      vertex -2.250000000000e-03 1.875000000000e-03 -1.790000000000e-03
      vertex -1.875000000000e-03 2.250000000000e-03 -1.790000000000e-03
      vertex -2.250000000000e-03 2.250000000000e-03 -1.790000000000e-03
    endloop
  endfacet
  facet normal 0 0 1.0
    outer loop
      vertex -1.875000000000e-03 -2.250000000000e-03 -1.790000000000e-03
      vertex -1.500000000000e-03 -2.250000000000e-03 -1.790000000000e-03
      vertex -1.500000000000e-03 -1.875000000000e-03 -1.790000000000e-03
    endloop
  endfacet
  facet normal 0 0 1.0
    outer loop
      vertex -1.875000000000e-03 -2.250000000000e-03 -1.790000000000e-03
      vertex -1.500000000000e-03 -1.875000000000e-03 -1.790000000000e-03
      vertex -1.875000000000e-03 -1.875000000000e-03 -1.790000000000e-03
    endloop
  endfacet
  facet normal 0 0 1.0
    outer loop
      vertex -1.875000000000e-03 -1.875000000000e-03 -1.790000000000e-03
      vertex -1.500000000000e-03 -1.875000000000e-03 -1.790000000000e-03
      vertex -1.500000000000e-03 -1.500000000000e-03 -1.790000000000e-03
    endloop
  endfacet
  facet normal 0 0 1.0
    outer loop
      vertex -1.875000000000e-03 -1.875000000000e-03 -1.790000000000e-03
      vertex -1.500000000000e-03 -1.500000000000e-03 -1.790000000000e-03
      vertex -1.875000000000e-03 -1.500000000000e-03 -1.790000000000e-03
    endloop
  endfacet
  facet normal 0 0 1.0
    outer loop
      vertex -1.875000000000e-03 -1.500000000000e-03 -1.790000000000e-03
      vertex -1.500000000000e-03 -1.500000000000e-03 -1.790000000000e-03
      vertex -1.500000000000e-03 -1.125000000000e-03 -1.790000000000e-03
    endloop
  endfacet
  facet normal 0 0 1.0
    outer loop
      vertex -1.875000000000e-03 -1.500000000000e-03 -1.790000000000e-03
      vertex -1.500000000000e-03 -1.125000000000e-03 -1.790000000000e-03
      vertex -1.875000000000e-03 -1.125000000000e-03 -1.790000000000e-03
    endloop
  endfacet
  facet normal 0 0 1.0
    outer loop
      vertex -1.875000000000e-03 -1.125000000000e-03 -1.790000000000e-03
      vertex -1.500000000000e-03 -1.125000000000e-03 -1.790000000000e-03
      vertex -1.500000000000e-03 -7.500000000000e-04 -1.790000000000e-03
    endloop
  endfacet
  facet normal 0 0 1.0
    outer loop
      vertex -1.875000000000e-03 -1.125000000000e-03 -1.790000000000e-03
      vertex -1.500000000000e-03 -7.500000000000e-04 -1.790000000000e-03
      vertex -1.875000000000e-03 -7.500000000000e-04 -1.790000000000e-03
    endloop
  endfacet
  facet normal 0 0 1.0
    outer loop
      vertex -1.875000000000e-03 -7.500000000000e-04 -1.790000000000e-03
      vertex -1.500000000000e-03 -7.500000000000e-04 -1.790000000000e-03
      vertex -1.500000000000e-03 -3.750000000000e-04 -1.790000000000e-03
    endloop
  endfacet
  facet normal 0 0 1.0
    outer loop
      vertex -1.875000000000e-03 -7.500000000000e-04 -1.790000000000e-03
      vertex -1.500000000000e-03 -3.750000000000e-04 -1.790000000000e-03
      vertex -1.875000000000e-03 -3.750000000000e-04 -1.790000000000e-03
    endloop
  endfacet
  facet normal 0 0 1.0
    outer loop
      vertex -1.875000000000e-03 -3.750000000000e-04 -1.790000000000e-03
      vertex -1.500000000000e-03 -3.750000000000e-04 -1.790000000000e-03
      vertex -1.500000000000e-03 -1.626303258728e-19 -1.790000000000e-03
    endloop
  endfacet
  facet normal 0 0 1.0
    outer loop
      vertex -1.875000000000e-03 -3.750000000000e-04 -1.790000000000e-03
      vertex -1.500000000000e-03 -1.626303258728e-19 -1.790000000000e-03
      vertex -1.875000000000e-03 -1.626303258728e-19 -1.790000000000e-03
    endloop
  endfacet
  facet normal 0 0 1.0
    outer loop
      vertex -1.875000000000e-03 0.000000000000e+00 -1.790000000000e-03
      vertex -1.500000000000e-03 0.000000000000e+00 -1.790000000000e-03
      vertex -1.500000000000e-03 3.750000000000e-04 -1.790000000000e-03
    endloop
  endfacet
  facet normal 0 0 1.0
    outer loop
      vertex -1.875000000000e-03 0.000000000000e+00 -1.790000000000e-03
      vertex -1.500000000000e-03 3.750000000000e-04 -1.790000000000e-03
      vertex -1.875000000000e-03 3.750000000000e-04 -1.790000000000e-03
    endloop
  endfacet
  facet normal 0 0 1.0
    outer loop
      vertex -1.875000000000e-03 3.750000000000e-04 -1.790000000000e-03
      vertex -1.500000000000e-03 3.750000000000e-04 -1.790000000000e-03
      vertex -1.500000000000e-03 7.500000000000e-04 -1.790000000000e-03
    endloop
  endfacet
  facet normal 0 0 1.0
    outer loop
      vertex -1.875000000000e-03 3.750000000000e-04 -1.790000000000e-03
      vertex -1.500000000000e-03 7.500000000000e-04 -1.790000000000e-03
      vertex -1.875000000000e-03 7.500000000000e-04 -1.790000000000e-03
    endloop
  endfacet
  facet normal 0 0 1.0
    outer loop
      vertex -1.875000000000e-03 7.500000000000e-04 -1.790000000000e-03
      vertex -1.500000000000e-03 7.500000000000e-04 -1.790000000000e-03
      vertex -1.500000000000e-03 1.125000000000e-03 -1.790000000000e-03
    endloop
  endfacet
  facet normal 0 0 1.0
    outer loop
      vertex -1.875000000000e-03 7.500000000000e-04 -1.790000000000e-03
      vertex -1.500000000000e-03 1.125000000000e-03 -1.790000000000e-03
      vertex -1.875000000000e-03 1.125000000000e-03 -1.790000000000e-03
    endloop
  endfacet
  facet normal 0 0 1.0
    outer loop
      vertex -1.875000000000e-03 1.125000000000e-03 -1.790000000000e-03
      vertex -1.500000000000e-03 1.125000000000e-03 -1.790000000000e-03
      vertex -1.500000000000e-03 1.500000000000e-03 -1.790000000000e-03
    endloop
  endfacet
  facet normal 0 0 1.0
    outer loop
      vertex -1.875000000000e-03 1.125000000000e-03 -1.790000000000e-03
      vertex -1.500000000000e-03 1.500000000000e-03 -1.790000000000e-03
      vertex -1.875000000000e-03 1.500000000000e-03 -1.790000000000e-03
    endloop
  endfacet
  facet normal 0 0 1.0
    outer loop
      vertex -1.875000000000e-03 1.500000000000e-03 -1.790000000000e-03
      vertex -1.500000000000e-03 1.500000000000e-03 -1.790000000000e-03
      vertex -1.500000000000e-03 1.875000000000e-03 -1.790000000000e-03
    endloop
  endfacet
  facet normal 0 0 1.0
    outer loop
      vertex -1.875000000000e-03 1.500000000000e-03 -1.790000000000e-03
      vertex -1.500000000000e-03 1.875000000000e-03 -1.790000000000e-03
      vertex -1.875000000000e-03 1.875000000000e-03 -1.790000000000e-03
    endloop
  endfacet
  facet normal 0 0 1.0
    outer loop
      vertex -1.875000000000e-03 1.875000000000e-03 -1.790000000000e-03
      vertex -1.500000000000e-03 1.875000000000e-03 -1.790000000000e-03
      vertex -1.500000000000e-03 2.250000000000e-03 -1.790000000000e-03
    endloop
  endfacet
  facet normal 0 0 1.0
    outer loop
      vertex -1.875000000000e-03 1.875000000000e-03 -1.790000000000e-03
      vertex -1.500000000000e-03 2.250000000000e-03 -1.790000000000e-03
      vertex -1.875000000000e-03 2.250000000000e-03 -1.790000000000e-03
    endloop
  endfacet
  facet normal 0 0 1.0
    outer loop
      vertex -1.500000000000e-03 -2.250000000000e-03 -1.790000000000e-03
      vertex -1.125000000000e-03 -2.250000000000e-03 -1.790000000000e-03
      vertex -1.125000000000e-03 -1.875000000000e-03 -1.790000000000e-03
    endloop
  endfacet
  facet normal 0 0 1.0
    outer loop
      vertex -1.500000000000e-03 -2.250000000000e-03 -1.790000000000e-03
      vertex -1.125000000000e-03 -1.875000000000e-03 -1.790000000000e-03
      vertex -1.500000000000e-03 -1.875000000000e-03 -1.790000000000e-03
    endloop
  endfacet
  facet normal 0 0 1.0
    outer loop
      vertex -1.500000000000e-03 -1.875000000000e-03 -1.790000000000e-03
      vertex -1.125000000000e-03 -1.875000000000e-03 -1.790000000000e-03
      vertex -1.125000000000e-03 -1.500000000000e-03 -1.790000000000e-03
    endloop
  endfacet
  facet normal 0 0 1.0
    outer loop
      vertex -1.500000000000e-03 -1.875000000000e-03 -1.790000000000e-03
      vertex -1.125000000000e-03 -1.500000000000e-03 -1.790000000000e-03
      vertex -1.500000000000e-03 -1.500000000000e-03 -1.790000000000e-03
    endloop
  endfacet
  facet normal 0 0 1.0
    outer loop
      vertex -1.500000000000e-03 -1.500000000000e-03 -1.790000000000e-03
      vertex -1.125000000000e-03 -1.500000000000e-03 -1.790000000000e-03
      vertex -1.125000000000e-03 -1.125000000000e-03 -1.790000000000e-03
    endloop
  endfacet
  facet normal 0 0 1.0
    outer loop
      vertex -1.500000000000e-03 -1.500000000000e-03 -1.790000000000e-03
      vertex -1.125000000000e-03 -1.125000000000e-03 -1.790000000000e-03
      vertex -1.500000000000e-03 -1.125000000000e-03 -1.790000000000e-03
    endloop
  endfacet
  facet normal 0 0 1.0
    outer loop
      vertex -1.500000000000e-03 -1.125000000000e-03 -1.790000000000e-03
      vertex -1.125000000000e-03 -1.125000000000e-03 -1.790000000000e-03
      vertex -1.125000000000e-03 -7.500000000000e-04 -1.790000000000e-03
    endloop
  endfacet
  facet normal 0 0 1.0
    outer loop
      vertex -1.500000000000e-03 -1.125000000000e-03 -1.790000000000e-03
      vertex -1.125000000000e-03 -7.500000000000e-04 -1.790000000000e-03
      vertex -1.500000000000e-03 -7.500000000000e-04 -1.790000000000e-03
    endloop
  endfacet
  facet normal 0 0 1.0
    outer loop
      vertex -1.500000000000e-03 -7.500000000000e-04 -1.790000000000e-03
      vertex -1.125000000000e-03 -7.500000000000e-04 -1.790000000000e-03
      vertex -1.125000000000e-03 -3.750000000000e-04 -1.790000000000e-03
    endloop
  endfacet
  facet normal 0 0 1.0
    outer loop
      vertex -1.500000000000e-03 -7.500000000000e-04 -1.790000000000e-03
      vertex -1.125000000000e-03 -3.750000000000e-04 -1.790000000000e-03
      vertex -1.500000000000e-03 -3.750000000000e-04 -1.790000000000e-03
    endloop
  endfacet
  facet normal 0 0 1.0
    outer loop
      vertex -1.500000000000e-03 -3.750000000000e-04 -1.790000000000e-03
      vertex -1.125000000000e-03 -3.750000000000e-04 -1.790000000000e-03
      vertex -1.125000000000e-03 -1.626303258728e-19 -1.790000000000e-03
    endloop
  endfacet
  facet normal 0 0 1.0
    outer loop
      vertex -1.500000000000e-03 -3.750000000000e-04 -1.790000000000e-03
      vertex -1.125000000000e-03 -1.626303258728e-19 -1.790000000000e-03
      vertex -1.500000000000e-03 -1.626303258728e-19 -1.790000000000e-03
    endloop
  endfacet
  facet normal 0 0 1.0
    outer loop
      vertex -1.500000000000e-03 0.000000000000e+00 -1.790000000000e-03
      vertex -1.125000000000e-03 0.000000000000e+00 -1.790000000000e-03
      vertex -1.125000000000e-03 3.750000000000e-04 -1.790000000000e-03
    endloop
  endfacet
  facet normal 0 0 1.0
    outer loop
      vertex -1.500000000000e-03 0.000000000000e+00 -1.790000000000e-03
      vertex -1.125000000000e-03 3.750000000000e-04 -1.790000000000e-03
      vertex -1.500000000000e-03 3.750000000000e-04 -1.790000000000e-03
    endloop
  endfacet
  facet normal 0 0 1.0
    outer loop
      vertex -1.500000000000e-03 3.750000000000e-04 -1.790000000000e-03
      vertex -1.125000000000e-03 3.750000000000e-04 -1.790000000000e-03
      vertex -1.125000000000e-03 7.500000000000e-04 -1.790000000000e-03
    endloop
  endfacet
  facet normal 0 0 1.0
    outer loop
      vertex -1.500000000000e-03 3.750000000000e-04 -1.790000000000e-03
      vertex -1.125000000000e-03 7.500000000000e-04 -1.790000000000e-03
      vertex -1.500000000000e-03 7.500000000000e-04 -1.790000000000e-03
    endloop
  endfacet
  facet normal 0 0 1.0
    outer loop
      vertex -1.500000000000e-03 7.500000000000e-04 -1.790000000000e-03
      vertex -1.125000000000e-03 7.500000000000e-04 -1.790000000000e-03
      vertex -1.125000000000e-03 1.125000000000e-03 -1.790000000000e-03
    endloop
  endfacet
  facet normal 0 0 1.0
    outer loop
      vertex -1.500000000000e-03 7.500000000000e-04 -1.790000000000e-03
      vertex -1.125000000000e-03 1.125000000000e-03 -1.790000000000e-03
      vertex -1.500000000000e-03 1.125000000000e-03 -1.790000000000e-03
    endloop
  endfacet
  facet normal 0 0 1.0
    outer loop
      vertex -1.500000000000e-03 1.125000000000e-03 -1.790000000000e-03
      vertex -1.125000000000e-03 1.125000000000e-03 -1.790000000000e-03
      vertex -1.125000000000e-03 1.500000000000e-03 -1.790000000000e-03
    endloop
  endfacet
  facet normal 0 0 1.0
    outer loop
      vertex -1.500000000000e-03 1.125000000000e-03 -1.790000000000e-03
      vertex -1.125000000000e-03 1.500000000000e-03 -1.790000000000e-03
      vertex -1.500000000000e-03 1.500000000000e-03 -1.790000000000e-03
    endloop
  endfacet
  facet normal 0 0 1.0
    outer loop
      vertex -1.500000000000e-03 1.500000000000e-03 -1.790000000000e-03
      vertex -1.125000000000e-03 1.500000000000e-03 -1.790000000000e-03
      vertex -1.125000000000e-03 1.875000000000e-03 -1.790000000000e-03
    endloop
  endfacet
  facet normal 0 0 1.0
    outer loop
      vertex -1.500000000000e-03 1.500000000000e-03 -1.790000000000e-03
      vertex -1.125000000000e-03 1.875000000000e-03 -1.790000000000e-03
      vertex -1.500000000000e-03 1.875000000000e-03 -1.790000000000e-03
    endloop
  endfacet
  facet normal 0 0 1.0
    outer loop
      vertex -1.500000000000e-03 1.875000000000e-03 -1.790000000000e-03
      vertex -1.125000000000e-03 1.875000000000e-03 -1.790000000000e-03
      vertex -1.125000000000e-03 2.250000000000e-03 -1.790000000000e-03
    endloop
  endfacet
  facet normal 0 0 1.0
    outer loop
      vertex -1.500000000000e-03 1.875000000000e-03 -1.790000000000e-03
      vertex -1.125000000000e-03 2.250000000000e-03 -1.790000000000e-03
      vertex -1.500000000000e-03 2.250000000000e-03 -1.790000000000e-03
    endloop
  endfacet
  facet normal 0 0 1.0
    outer loop
      vertex -1.125000000000e-03 -2.250000000000e-03 -1.790000000000e-03
      vertex -7.500000000000e-04 -2.250000000000e-03 -1.790000000000e-03
      vertex -7.500000000000e-04 -1.875000000000e-03 -1.790000000000e-03
    endloop
  endfacet
  facet normal 0 0 1.0
    outer loop
      vertex -1.125000000000e-03 -2.250000000000e-03 -1.790000000000e-03
      vertex -7.500000000000e-04 -1.875000000000e-03 -1.790000000000e-03
      vertex -1.125000000000e-03 -1.875000000000e-03 -1.790000000000e-03
    endloop
  endfacet
  facet normal 0 0 1.0
    outer loop
      vertex -1.125000000000e-03 -1.875000000000e-03 -1.790000000000e-03
      vertex -7.500000000000e-04 -1.875000000000e-03 -1.790000000000e-03
      vertex -7.500000000000e-04 -1.500000000000e-03 -1.790000000000e-03
    endloop
  endfacet
  facet normal 0 0 1.0
    outer loop
      vertex -1.125000000000e-03 -1.875000000000e-03 -1.790000000000e-03
      vertex -7.500000000000e-04 -1.500000000000e-03 -1.790000000000e-03
      vertex -1.125000000000e-03 -1.500000000000e-03 -1.790000000000e-03
    endloop
  endfacet
  facet normal 0 0 1.0
    outer loop
      vertex -1.125000000000e-03 -1.500000000000e-03 -1.790000000000e-03
      vertex -7.500000000000e-04 -1.500000000000e-03 -1.790000000000e-03
      vertex -7.500000000000e-04 -1.125000000000e-03 -1.790000000000e-03
    endloop
  endfacet
  facet normal 0 0 1.0
    outer loop
      vertex -1.125000000000e-03 -1.500000000000e-03 -1.790000000000e-03
      vertex -7.500000000000e-04 -1.125000000000e-03 -1.790000000000e-03
      vertex -1.125000000000e-03 -1.125000000000e-03 -1.790000000000e-03
    endloop
  endfacet
  facet normal 0 0 1.0
    outer loop
      vertex -1.125000000000e-03 -1.125000000000e-03 -1.790000000000e-03
      vertex -7.500000000000e-04 -1.125000000000e-03 -1.790000000000e-03
      vertex -7.500000000000e-04 -7.500000000000e-04 -1.790000000000e-03
    endloop
  endfacet
  facet normal 0 0 1.0
    outer loop
      vertex -1.125000000000e-03 -1.125000000000e-03 -1.790000000000e-03
      vertex -7.500000000000e-04 -7.500000000000e-04 -1.790000000000e-03
      vertex -1.125000000000e-03 -7.500000000000e-04 -1.790000000000e-03
    endloop
  endfacet
  facet normal 0 0 1.0
    outer loop
      vertex -1.125000000000e-03 -7.500000000000e-04 -1.790000000000e-03
      vertex -7.500000000000e-04 -7.500000000000e-04 -1.790000000000e-03
      vertex -7.500000000000e-04 -3.750000000000e-04 -1.790000000000e-03
    endloop
  endfacet
  facet normal 0 0 1.0
    outer loop
      vertex -1.125000000000e-03 -7.500000000000e-04 -1.790000000000e-03
      vertex -7.500000000000e-04 -3.750000000000e-04 -1.790000000000e-03
      vertex -1.125000000000e-03 -3.750000000000e-04 -1.790000000000e-03
    endloop
  endfacet
  facet normal 0 0 1.0
    outer loop
      vertex -1.125000000000e-03 -3.750000000000e-04 -1.790000000000e-03
      vertex -7.500000000000e-04 -3.750000000000e-04 -1.790000000000e-03
      vertex -7.500000000000e-04 -1.626303258728e-19 -1.790000000000e-03
    endloop
  endfacet
  facet normal 0 0 1.0
    outer loop
      vertex -1.125000000000e-03 -3.750000000000e-04 -1.790000000000e-03
      vertex -7.500000000000e-04 -1.626303258728e-19 -1.790000000000e-03
      vertex -1.125000000000e-03 -1.626303258728e-19 -1.790000000000e-03
    endloop
  endfacet
  facet normal 0 0 1.0
    outer loop
      vertex -1.125000000000e-03 0.000000000000e+00 -1.790000000000e-03
      vertex -7.500000000000e-04 0.000000000000e+00 -1.790000000000e-03
      vertex -7.500000000000e-04 3.750000000000e-04 -1.790000000000e-03
    endloop
  endfacet
  facet normal 0 0 1.0
    outer loop
      vertex -1.125000000000e-03 0.000000000000e+00 -1.790000000000e-03
      vertex -7.500000000000e-04 3.750000000000e-04 -1.790000000000e-03
      vertex -1.125000000000e-03 3.750000000000e-04 -1.790000000000e-03
    endloop
  endfacet
  facet normal 0 0 1.0
    outer loop
      vertex -1.125000000000e-03 3.750000000000e-04 -1.790000000000e-03
      vertex -7.500000000000e-04 3.750000000000e-04 -1.790000000000e-03
      vertex -7.500000000000e-04 7.500000000000e-04 -1.790000000000e-03
    endloop
  endfacet
  facet normal 0 0 1.0
    outer loop
      vertex -1.125000000000e-03 3.750000000000e-04 -1.790000000000e-03
      vertex -7.500000000000e-04 7.500000000000e-04 -1.790000000000e-03
      vertex -1.125000000000e-03 7.500000000000e-04 -1.790000000000e-03
    endloop
  endfacet
  facet normal 0 0 1.0
    outer loop
      vertex -1.125000000000e-03 7.500000000000e-04 -1.790000000000e-03
      vertex -7.500000000000e-04 7.500000000000e-04 -1.790000000000e-03
      vertex -7.500000000000e-04 1.125000000000e-03 -1.790000000000e-03
    endloop
  endfacet
  facet normal 0 0 1.0
    outer loop
      vertex -1.125000000000e-03 7.500000000000e-04 -1.790000000000e-03
      vertex -7.500000000000e-04 1.125000000000e-03 -1.790000000000e-03
      vertex -1.125000000000e-03 1.125000000000e-03 -1.790000000000e-03
    endloop
  endfacet
  facet normal 0 0 1.0
    outer loop
      vertex -1.125000000000e-03 1.125000000000e-03 -1.790000000000e-03
      vertex -7.500000000000e-04 1.125000000000e-03 -1.790000000000e-03
      vertex -7.500000000000e-04 1.500000000000e-03 -1.790000000000e-03
    endloop
  endfacet
  facet normal 0 0 1.0
    outer loop
      vertex -1.125000000000e-03 1.125000000000e-03 -1.790000000000e-03
      vertex -7.500000000000e-04 1.500000000000e-03 -1.790000000000e-03
      vertex -1.125000000000e-03 1.500000000000e-03 -1.790000000000e-03
    endloop
  endfacet
  facet normal 0 0 1.0
    outer loop
      vertex -1.125000000000e-03 1.500000000000e-03 -1.790000000000e-03
      vertex -7.500000000000e-04 1.500000000000e-03 -1.790000000000e-03
      vertex -7.500000000000e-04 1.875000000000e-03 -1.790000000000e-03
    endloop
  endfacet
  facet normal 0 0 1.0
    outer loop
      vertex -1.125000000000e-03 1.500000000000e-03 -1.790000000000e-03
      vertex -7.500000000000e-04 1.875000000000e-03 -1.790000000000e-03
      vertex -1.125000000000e-03 1.875000000000e-03 -1.790000000000e-03
    endloop
  endfacet
  facet normal 0 0 1.0
    outer loop
      vertex -1.125000000000e-03 1.875000000000e-03 -1.790000000000e-03
      vertex -7.500000000000e-04 1.875000000000e-03 -1.790000000000e-03
      vertex -7.500000000000e-04 2.250000000000e-03 -1.790000000000e-03
    endloop
  endfacet
  facet normal 0 0 1.0
    outer loop
      vertex -1.125000000000e-03 1.875000000000e-03 -1.790000000000e-03
      vertex -7.500000000000e-04 2.250000000000e-03 -1.790000000000e-03
      vertex -1.125000000000e-03 2.250000000000e-03 -1.790000000000e-03
    endloop
  endfacet
  facet normal 0 0 1.0
    outer loop
      vertex -7.500000000000e-04 -2.250000000000e-03 -1.790000000000e-03
      vertex -3.750000000000e-04 -2.250000000000e-03 -1.790000000000e-03
      vertex -3.750000000000e-04 -1.875000000000e-03 -1.790000000000e-03
    endloop
  endfacet
  facet normal 0 0 1.0
    outer loop
      vertex -7.500000000000e-04 -2.250000000000e-03 -1.790000000000e-03
      vertex -3.750000000000e-04 -1.875000000000e-03 -1.790000000000e-03
      vertex -7.500000000000e-04 -1.875000000000e-03 -1.790000000000e-03
    endloop
  endfacet
  facet normal 0 0 1.0
    outer loop
      vertex -7.500000000000e-04 -1.875000000000e-03 -1.790000000000e-03
      vertex -3.750000000000e-04 -1.875000000000e-03 -1.790000000000e-03
      vertex -3.750000000000e-04 -1.500000000000e-03 -1.790000000000e-03
    endloop
  endfacet
  facet normal 0 0 1.0
    outer loop
      vertex -7.500000000000e-04 -1.875000000000e-03 -1.790000000000e-03
      vertex -3.750000000000e-04 -1.500000000000e-03 -1.790000000000e-03
      vertex -7.500000000000e-04 -1.500000000000e-03 -1.790000000000e-03
    endloop
  endfacet
  facet normal 0 0 1.0
    outer loop
      vertex -7.500000000000e-04 -1.500000000000e-03 -1.790000000000e-03
      vertex -3.750000000000e-04 -1.500000000000e-03 -1.790000000000e-03
      vertex -3.750000000000e-04 -1.125000000000e-03 -1.790000000000e-03
    endloop
  endfacet
  facet normal 0 0 1.0
    outer loop
      vertex -7.500000000000e-04 -1.500000000000e-03 -1.790000000000e-03
      vertex -3.750000000000e-04 -1.125000000000e-03 -1.790000000000e-03
      vertex -7.500000000000e-04 -1.125000000000e-03 -1.790000000000e-03
    endloop
  endfacet
  facet normal 0 0 1.0
    outer loop
      vertex -7.500000000000e-04 -1.125000000000e-03 -1.790000000000e-03
      vertex -3.750000000000e-04 -1.125000000000e-03 -1.790000000000e-03
      vertex -3.750000000000e-04 -7.500000000000e-04 -1.790000000000e-03
    endloop
  endfacet
  facet normal 0 0 1.0
    outer loop
      vertex -7.500000000000e-04 -1.125000000000e-03 -1.790000000000e-03
      vertex -3.750000000000e-04 -7.500000000000e-04 -1.790000000000e-03
      vertex -7.500000000000e-04 -7.500000000000e-04 -1.790000000000e-03
    endloop
  endfacet
  facet normal 0 0 1.0
    outer loop
      vertex -7.500000000000e-04 -7.500000000000e-04 -1.790000000000e-03
      vertex -3.750000000000e-04 -7.500000000000e-04 -1.790000000000e-03
      vertex -3.750000000000e-04 -3.750000000000e-04 -1.790000000000e-03
    endloop
  endfacet
  facet normal 0 0 1.0
    outer loop
      vertex -7.500000000000e-04 -7.500000000000e-04 -1.790000000000e-03
      vertex -3.750000000000e-04 -3.750000000000e-04 -1.790000000000e-03
      vertex -7.500000000000e-04 -3.750000000000e-04 -1.790000000000e-03
    endloop
  endfacet
  facet normal 0 0 1.0
    outer loop
      vertex -7.500000000000e-04 -3.750000000000e-04 -1.790000000000e-03
      vertex -3.750000000000e-04 -3.750000000000e-04 -1.790000000000e-03
      vertex -3.750000000000e-04 -1.626303258728e-19 -1.790000000000e-03
    endloop
  endfacet
  facet normal 0 0 1.0
    outer loop
      vertex -7.500000000000e-04 -3.750000000000e-04 -1.790000000000e-03
      vertex -3.750000000000e-04 -1.626303258728e-19 -1.790000000000e-03
      vertex -7.500000000000e-04 -1.626303258728e-19 -1.790000000000e-03
    endloop
  endfacet
  facet normal 0 0 1.0
    outer loop
      vertex -7.500000000000e-04 0.000000000000e+00 -1.790000000000e-03
      vertex -3.750000000000e-04 0.000000000000e+00 -1.790000000000e-03
      vertex -3.750000000000e-04 3.750000000000e-04 -1.790000000000e-03
    endloop
  endfacet
  facet normal 0 0 1.0
    outer loop
      vertex -7.500000000000e-04 0.000000000000e+00 -1.790000000000e-03
      vertex -3.750000000000e-04 3.750000000000e-04 -1.790000000000e-03
      vertex -7.500000000000e-04 3.750000000000e-04 -1.790000000000e-03
    endloop
  endfacet
  facet normal 0 0 1.0
    outer loop
      vertex -7.500000000000e-04 3.750000000000e-04 -1.790000000000e-03
      vertex -3.750000000000e-04 3.750000000000e-04 -1.790000000000e-03
      vertex -3.750000000000e-04 7.500000000000e-04 -1.790000000000e-03
    endloop
  endfacet
  facet normal 0 0 1.0
    outer loop
      vertex -7.500000000000e-04 3.750000000000e-04 -1.790000000000e-03
      vertex -3.750000000000e-04 7.500000000000e-04 -1.790000000000e-03
      vertex -7.500000000000e-04 7.500000000000e-04 -1.790000000000e-03
    endloop
  endfacet
  facet normal 0 0 1.0
    outer loop
      vertex -7.500000000000e-04 7.500000000000e-04 -1.790000000000e-03
      vertex -3.750000000000e-04 7.500000000000e-04 -1.790000000000e-03
      vertex -3.750000000000e-04 1.125000000000e-03 -1.790000000000e-03
    endloop
  endfacet
  facet normal 0 0 1.0
    outer loop
      vertex -7.500000000000e-04 7.500000000000e-04 -1.790000000000e-03
      vertex -3.750000000000e-04 1.125000000000e-03 -1.790000000000e-03
      vertex -7.500000000000e-04 1.125000000000e-03 -1.790000000000e-03
    endloop
  endfacet
  facet normal 0 0 1.0
    outer loop
      vertex -7.500000000000e-04 1.125000000000e-03 -1.790000000000e-03
      vertex -3.750000000000e-04 1.125000000000e-03 -1.790000000000e-03
      vertex -3.750000000000e-04 1.500000000000e-03 -1.790000000000e-03
    endloop
  endfacet
  facet normal 0 0 1.0
    outer loop
      vertex -7.500000000000e-04 1.125000000000e-03 -1.790000000000e-03
      vertex -3.750000000000e-04 1.500000000000e-03 -1.790000000000e-03
      vertex -7.500000000000e-04 1.500000000000e-03 -1.790000000000e-03
    endloop
  endfacet
  facet normal 0 0 1.0
    outer loop
      vertex -7.500000000000e-04 1.500000000000e-03 -1.790000000000e-03
      vertex -3.750000000000e-04 1.500000000000e-03 -1.790000000000e-03
      vertex -3.750000000000e-04 1.875000000000e-03 -1.790000000000e-03
    endloop
  endfacet
  facet normal 0 0 1.0
    outer loop
      vertex -7.500000000000e-04 1.500000000000e-03 -1.790000000000e-03
      vertex -3.750000000000e-04 1.875000000000e-03 -1.790000000000e-03
      vertex -7.500000000000e-04 1.875000000000e-03 -1.790000000000e-03
    endloop
  endfacet
  facet normal 0 0 1.0
    outer loop
      vertex -7.500000000000e-04 1.875000000000e-03 -1.790000000000e-03
      vertex -3.750000000000e-04 1.875000000000e-03 -1.790000000000e-03
      vertex -3.750000000000e-04 2.250000000000e-03 -1.790000000000e-03
    endloop
  endfacet
  facet normal 0 0 1.0
    outer loop
      vertex -7.500000000000e-04 1.875000000000e-03 -1.790000000000e-03
      vertex -3.750000000000e-04 2.250000000000e-03 -1.790000000000e-03
      vertex -7.500000000000e-04 2.250000000000e-03 -1.790000000000e-03
    endloop
  endfacet
  facet normal 0 0 1.0
    outer loop
      vertex -3.750000000000e-04 -2.250000000000e-03 -1.790000000000e-03
      vertex -1.626303258728e-19 -2.250000000000e-03 -1.790000000000e-03
      vertex -1.626303258728e-19 -1.875000000000e-03 -1.790000000000e-03
    endloop
  endfacet
  facet normal 0 0 1.0
    outer loop
      vertex -3.750000000000e-04 -2.250000000000e-03 -1.790000000000e-03
      vertex -1.626303258728e-19 -1.875000000000e-03 -1.790000000000e-03
      vertex -3.750000000000e-04 -1.875000000000e-03 -1.790000000000e-03
    endloop
  endfacet
  facet normal 0 0 1.0
    outer loop
      vertex -3.750000000000e-04 -1.875000000000e-03 -1.790000000000e-03
      vertex -1.626303258728e-19 -1.875000000000e-03 -1.790000000000e-03
      vertex -1.626303258728e-19 -1.500000000000e-03 -1.790000000000e-03
    endloop
  endfacet
  facet normal 0 0 1.0
    outer loop
      vertex -3.750000000000e-04 -1.875000000000e-03 -1.790000000000e-03
      vertex -1.626303258728e-19 -1.500000000000e-03 -1.790000000000e-03
      vertex -3.750000000000e-04 -1.500000000000e-03 -1.790000000000e-03
    endloop
  endfacet
  facet normal 0 0 1.0
    outer loop
      vertex -3.750000000000e-04 -1.500000000000e-03 -1.790000000000e-03
      vertex -1.626303258728e-19 -1.500000000000e-03 -1.790000000000e-03
      vertex -1.626303258728e-19 -1.125000000000e-03 -1.790000000000e-03
    endloop
  endfacet
  facet normal 0 0 1.0
    outer loop
      vertex -3.750000000000e-04 -1.500000000000e-03 -1.790000000000e-03
      vertex -1.626303258728e-19 -1.125000000000e-03 -1.790000000000e-03
      vertex -3.750000000000e-04 -1.125000000000e-03 -1.790000000000e-03
    endloop
  endfacet
  facet normal 0 0 1.0
    outer loop
      vertex -3.750000000000e-04 -1.125000000000e-03 -1.790000000000e-03
      vertex -1.626303258728e-19 -1.125000000000e-03 -1.790000000000e-03
      vertex -1.626303258728e-19 -7.500000000000e-04 -1.790000000000e-03
    endloop
  endfacet
  facet normal 0 0 1.0
    outer loop
      vertex -3.750000000000e-04 -1.125000000000e-03 -1.790000000000e-03
      vertex -1.626303258728e-19 -7.500000000000e-04 -1.790000000000e-03
      vertex -3.750000000000e-04 -7.500000000000e-04 -1.790000000000e-03
    endloop
  endfacet
  facet normal 0 0 1.0
    outer loop
      vertex -3.750000000000e-04 -7.500000000000e-04 -1.790000000000e-03
      vertex -1.626303258728e-19 -7.500000000000e-04 -1.790000000000e-03
      vertex -1.626303258728e-19 -3.750000000000e-04 -1.790000000000e-03
    endloop
  endfacet
  facet normal 0 0 1.0
    outer loop
      vertex -3.750000000000e-04 -7.500000000000e-04 -1.790000000000e-03
      vertex -1.626303258728e-19 -3.750000000000e-04 -1.790000000000e-03
      vertex -3.750000000000e-04 -3.750000000000e-04 -1.790000000000e-03
    endloop
  endfacet
  facet normal 0 0 1.0
    outer loop
      vertex -3.750000000000e-04 -3.750000000000e-04 -1.790000000000e-03
      vertex -1.626303258728e-19 -3.750000000000e-04 -1.790000000000e-03
      vertex -1.626303258728e-19 -1.626303258728e-19 -1.790000000000e-03
    endloop
  endfacet
  facet normal 0 0 1.0
    outer loop
      vertex -3.750000000000e-04 -3.750000000000e-04 -1.790000000000e-03
      vertex -1.626303258728e-19 -1.626303258728e-19 -1.790000000000e-03
      vertex -3.750000000000e-04 -1.626303258728e-19 -1.790000000000e-03
    endloop
  endfacet
  facet normal 0 0 1.0
    outer loop
      vertex -3.750000000000e-04 0.000000000000e+00 -1.790000000000e-03
      vertex -1.626303258728e-19 0.000000000000e+00 -1.790000000000e-03
      vertex -1.626303258728e-19 3.750000000000e-04 -1.790000000000e-03
    endloop
  endfacet
  facet normal 0 0 1.0
    outer loop
      vertex -3.750000000000e-04 0.000000000000e+00 -1.790000000000e-03
      vertex -1.626303258728e-19 3.750000000000e-04 -1.790000000000e-03
      vertex -3.750000000000e-04 3.750000000000e-04 -1.790000000000e-03
    endloop
  endfacet
  facet normal 0 0 1.0
    outer loop
      vertex -3.750000000000e-04 3.750000000000e-04 -1.790000000000e-03
      vertex -1.626303258728e-19 3.750000000000e-04 -1.790000000000e-03
      vertex -1.626303258728e-19 7.500000000000e-04 -1.790000000000e-03
    endloop
  endfacet
  facet normal 0 0 1.0
    outer loop
      vertex -3.750000000000e-04 3.750000000000e-04 -1.790000000000e-03
      vertex -1.626303258728e-19 7.500000000000e-04 -1.790000000000e-03
      vertex -3.750000000000e-04 7.500000000000e-04 -1.790000000000e-03
    endloop
  endfacet
  facet normal 0 0 1.0
    outer loop
      vertex -3.750000000000e-04 7.500000000000e-04 -1.790000000000e-03
      vertex -1.626303258728e-19 7.500000000000e-04 -1.790000000000e-03
      vertex -1.626303258728e-19 1.125000000000e-03 -1.790000000000e-03
    endloop
  endfacet
  facet normal 0 0 1.0
    outer loop
      vertex -3.750000000000e-04 7.500000000000e-04 -1.790000000000e-03
      vertex -1.626303258728e-19 1.125000000000e-03 -1.790000000000e-03
      vertex -3.750000000000e-04 1.125000000000e-03 -1.790000000000e-03
    endloop
  endfacet
  facet normal 0 0 1.0
    outer loop
      vertex -3.750000000000e-04 1.125000000000e-03 -1.790000000000e-03
      vertex -1.626303258728e-19 1.125000000000e-03 -1.790000000000e-03
      vertex -1.626303258728e-19 1.500000000000e-03 -1.790000000000e-03
    endloop
  endfacet
  facet normal 0 0 1.0
    outer loop
      vertex -3.750000000000e-04 1.125000000000e-03 -1.790000000000e-03
      vertex -1.626303258728e-19 1.500000000000e-03 -1.790000000000e-03
      vertex -3.750000000000e-04 1.500000000000e-03 -1.790000000000e-03
    endloop
  endfacet
  facet normal 0 0 1.0
    outer loop
      vertex -3.750000000000e-04 1.500000000000e-03 -1.790000000000e-03
      vertex -1.626303258728e-19 1.500000000000e-03 -1.790000000000e-03
      vertex -1.626303258728e-19 1.875000000000e-03 -1.790000000000e-03
    endloop
  endfacet
  facet normal 0 0 1.0
    outer loop
      vertex -3.750000000000e-04 1.500000000000e-03 -1.790000000000e-03
      vertex -1.626303258728e-19 1.875000000000e-03 -1.790000000000e-03
      vertex -3.750000000000e-04 1.875000000000e-03 -1.790000000000e-03
    endloop
  endfacet
  facet normal 0 0 1.0
    outer loop
      vertex -3.750000000000e-04 1.875000000000e-03 -1.790000000000e-03
      vertex -1.626303258728e-19 1.875000000000e-03 -1.790000000000e-03
      vertex -1.626303258728e-19 2.250000000000e-03 -1.790000000000e-03
    endloop
  endfacet
  facet normal 0 0 1.0
    outer loop
      vertex -3.750000000000e-04 1.875000000000e-03 -1.790000000000e-03
      vertex -1.626303258728e-19 2.250000000000e-03 -1.790000000000e-03
      vertex -3.750000000000e-04 2.250000000000e-03 -1.790000000000e-03
    endloop
  endfacet
  facet normal 0 0 1.0
    outer loop
      vertex 0.000000000000e+00 -2.250000000000e-03 -1.790000000000e-03
      vertex 3.750000000000e-04 -2.250000000000e-03 -1.790000000000e-03
      vertex 3.750000000000e-04 -1.875000000000e-03 -1.790000000000e-03
    endloop
  endfacet
  facet normal 0 0 1.0
    outer loop
      vertex 0.000000000000e+00 -2.250000000000e-03 -1.790000000000e-03
      vertex 3.750000000000e-04 -1.875000000000e-03 -1.790000000000e-03
      vertex 0.000000000000e+00 -1.875000000000e-03 -1.790000000000e-03
    endloop
  endfacet
  facet normal 0 0 1.0
    outer loop
      vertex 0.000000000000e+00 -1.875000000000e-03 -1.790000000000e-03
      vertex 3.750000000000e-04 -1.875000000000e-03 -1.790000000000e-03
      vertex 3.750000000000e-04 -1.500000000000e-03 -1.790000000000e-03
    endloop
  endfacet
  facet normal 0 0 1.0
    outer loop
      vertex 0.000000000000e+00 -1.875000000000e-03 -1.790000000000e-03
      vertex 3.750000000000e-04 -1.500000000000e-03 -1.790000000000e-03
      vertex 0.000000000000e+00 -1.500000000000e-03 -1.790000000000e-03
    endloop
  endfacet
  facet normal 0 0 1.0
    outer loop
      vertex 0.000000000000e+00 -1.500000000000e-03 -1.790000000000e-03
      vertex 3.750000000000e-04 -1.500000000000e-03 -1.790000000000e-03
      vertex 3.750000000000e-04 -1.125000000000e-03 -1.790000000000e-03
    endloop
  endfacet
  facet normal 0 0 1.0
    outer loop
      vertex 0.000000000000e+00 -1.500000000000e-03 -1.790000000000e-03
      vertex 3.750000000000e-04 -1.125000000000e-03 -1.790000000000e-03
      vertex 0.000000000000e+00 -1.125000000000e-03 -1.790000000000e-03
    endloop
  endfacet
  facet normal 0 0 1.0
    outer loop
      vertex 0.000000000000e+00 -1.125000000000e-03 -1.790000000000e-03
      vertex 3.750000000000e-04 -1.125000000000e-03 -1.790000000000e-03
      vertex 3.750000000000e-04 -7.500000000000e-04 -1.790000000000e-03
    endloop
  endfacet
  facet normal 0 0 1.0
    outer loop
      vertex 0.000000000000e+00 -1.125000000000e-03 -1.790000000000e-03
      vertex 3.750000000000e-04 -7.500000000000e-04 -1.790000000000e-03
      vertex 0.000000000000e+00 -7.500000000000e-04 -1.790000000000e-03
    endloop
  endfacet
  facet normal 0 0 1.0
    outer loop
      vertex 0.000000000000e+00 -7.500000000000e-04 -1.790000000000e-03
      vertex 3.750000000000e-04 -7.500000000000e-04 -1.790000000000e-03
      vertex 3.750000000000e-04 -3.750000000000e-04 -1.790000000000e-03
    endloop
  endfacet
  facet normal 0 0 1.0
    outer loop
      vertex 0.000000000000e+00 -7.500000000000e-04 -1.790000000000e-03
      vertex 3.750000000000e-04 -3.750000000000e-04 -1.790000000000e-03
      vertex 0.000000000000e+00 -3.750000000000e-04 -1.790000000000e-03
    endloop
  endfacet
  facet normal 0 0 1.0
    outer loop
      vertex 0.000000000000e+00 -3.750000000000e-04 -1.790000000000e-03
      vertex 3.750000000000e-04 -3.750000000000e-04 -1.790000000000e-03
      vertex 3.750000000000e-04 -1.626303258728e-19 -1.790000000000e-03
    endloop
  endfacet
  facet normal 0 0 1.0
    outer loop
      vertex 0.000000000000e+00 -3.750000000000e-04 -1.790000000000e-03
      vertex 3.750000000000e-04 -1.626303258728e-19 -1.790000000000e-03
      vertex 0.000000000000e+00 -1.626303258728e-19 -1.790000000000e-03
    endloop
  endfacet
  facet normal 0 0 1.0
    outer loop
      vertex 0.000000000000e+00 0.000000000000e+00 -1.790000000000e-03
      vertex 3.750000000000e-04 0.000000000000e+00 -1.790000000000e-03
      vertex 3.750000000000e-04 3.750000000000e-04 -1.790000000000e-03
    endloop
  endfacet
  facet normal 0 0 1.0
    outer loop
      vertex 0.000000000000e+00 0.000000000000e+00 -1.790000000000e-03
      vertex 3.750000000000e-04 3.750000000000e-04 -1.790000000000e-03
      vertex 0.000000000000e+00 3.750000000000e-04 -1.790000000000e-03
    endloop
  endfacet
  facet normal 0 0 1.0
    outer loop
      vertex 0.000000000000e+00 3.750000000000e-04 -1.790000000000e-03
      vertex 3.750000000000e-04 3.750000000000e-04 -1.790000000000e-03
      vertex 3.750000000000e-04 7.500000000000e-04 -1.790000000000e-03
    endloop
  endfacet
  facet normal 0 0 1.0
    outer loop
      vertex 0.000000000000e+00 3.750000000000e-04 -1.790000000000e-03
      vertex 3.750000000000e-04 7.500000000000e-04 -1.790000000000e-03
      vertex 0.000000000000e+00 7.500000000000e-04 -1.790000000000e-03
    endloop
  endfacet
  facet normal 0 0 1.0
    outer loop
      vertex 0.000000000000e+00 7.500000000000e-04 -1.790000000000e-03
      vertex 3.750000000000e-04 7.500000000000e-04 -1.790000000000e-03
      vertex 3.750000000000e-04 1.125000000000e-03 -1.790000000000e-03
    endloop
  endfacet
  facet normal 0 0 1.0
    outer loop
      vertex 0.000000000000e+00 7.500000000000e-04 -1.790000000000e-03
      vertex 3.750000000000e-04 1.125000000000e-03 -1.790000000000e-03
      vertex 0.000000000000e+00 1.125000000000e-03 -1.790000000000e-03
    endloop
  endfacet
  facet normal 0 0 1.0
    outer loop
      vertex 0.000000000000e+00 1.125000000000e-03 -1.790000000000e-03
      vertex 3.750000000000e-04 1.125000000000e-03 -1.790000000000e-03
      vertex 3.750000000000e-04 1.500000000000e-03 -1.790000000000e-03
    endloop
  endfacet
  facet normal 0 0 1.0
    outer loop
      vertex 0.000000000000e+00 1.125000000000e-03 -1.790000000000e-03
      vertex 3.750000000000e-04 1.500000000000e-03 -1.790000000000e-03
      vertex 0.000000000000e+00 1.500000000000e-03 -1.790000000000e-03
    endloop
  endfacet
  facet normal 0 0 1.0
    outer loop
      vertex 0.000000000000e+00 1.500000000000e-03 -1.790000000000e-03
      vertex 3.750000000000e-04 1.500000000000e-03 -1.790000000000e-03
      vertex 3.750000000000e-04 1.875000000000e-03 -1.790000000000e-03
    endloop
  endfacet
  facet normal 0 0 1.0
    outer loop
      vertex 0.000000000000e+00 1.500000000000e-03 -1.790000000000e-03
      vertex 3.750000000000e-04 1.875000000000e-03 -1.790000000000e-03
      vertex 0.000000000000e+00 1.875000000000e-03 -1.790000000000e-03
    endloop
  endfacet
  facet normal 0 0 1.0
    outer loop
      vertex 0.000000000000e+00 1.875000000000e-03 -1.790000000000e-03
      vertex 3.750000000000e-04 1.875000000000e-03 -1.790000000000e-03
      vertex 3.750000000000e-04 2.250000000000e-03 -1.790000000000e-03
    endloop
  endfacet
  facet normal 0 0 1.0
    outer loop
      vertex 0.000000000000e+00 1.875000000000e-03 -1.790000000000e-03
      vertex 3.750000000000e-04 2.250000000000e-03 -1.790000000000e-03
      vertex 0.000000000000e+00 2.250000000000e-03 -1.790000000000e-03
    endloop
  endfacet
  facet normal 0 0 1.0
    outer loop
      vertex 3.750000000000e-04 -2.250000000000e-03 -1.790000000000e-03
      vertex 7.500000000000e-04 -2.250000000000e-03 -1.790000000000e-03
      vertex 7.500000000000e-04 -1.875000000000e-03 -1.790000000000e-03
    endloop
  endfacet
  facet normal 0 0 1.0
    outer loop
      vertex 3.750000000000e-04 -2.250000000000e-03 -1.790000000000e-03
      vertex 7.500000000000e-04 -1.875000000000e-03 -1.790000000000e-03
      vertex 3.750000000000e-04 -1.875000000000e-03 -1.790000000000e-03
    endloop
  endfacet
  facet normal 0 0 1.0
    outer loop
      vertex 3.750000000000e-04 -1.875000000000e-03 -1.790000000000e-03
      vertex 7.500000000000e-04 -1.875000000000e-03 -1.790000000000e-03
      vertex 7.500000000000e-04 -1.500000000000e-03 -1.790000000000e-03
    endloop
  endfacet
  facet normal 0 0 1.0
    outer loop
      vertex 3.750000000000e-04 -1.875000000000e-03 -1.790000000000e-03
      vertex 7.500000000000e-04 -1.500000000000e-03 -1.790000000000e-03
      vertex 3.750000000000e-04 -1.500000000000e-03 -1.790000000000e-03
    endloop
  endfacet
  facet normal 0 0 1.0
    outer loop
      vertex 3.750000000000e-04 -1.500000000000e-03 -1.790000000000e-03
      vertex 7.500000000000e-04 -1.500000000000e-03 -1.790000000000e-03
      vertex 7.500000000000e-04 -1.125000000000e-03 -1.790000000000e-03
    endloop
  endfacet
  facet normal 0 0 1.0
    outer loop
      vertex 3.750000000000e-04 -1.500000000000e-03 -1.790000000000e-03
      vertex 7.500000000000e-04 -1.125000000000e-03 -1.790000000000e-03
      vertex 3.750000000000e-04 -1.125000000000e-03 -1.790000000000e-03
    endloop
  endfacet
  facet normal 0 0 1.0
    outer loop
      vertex 3.750000000000e-04 -1.125000000000e-03 -1.790000000000e-03
      vertex 7.500000000000e-04 -1.125000000000e-03 -1.790000000000e-03
      vertex 7.500000000000e-04 -7.500000000000e-04 -1.790000000000e-03
    endloop
  endfacet
  facet normal 0 0 1.0
    outer loop
      vertex 3.750000000000e-04 -1.125000000000e-03 -1.790000000000e-03
      vertex 7.500000000000e-04 -7.500000000000e-04 -1.790000000000e-03
      vertex 3.750000000000e-04 -7.500000000000e-04 -1.790000000000e-03
    endloop
  endfacet
  facet normal 0 0 1.0
    outer loop
      vertex 3.750000000000e-04 -7.500000000000e-04 -1.790000000000e-03
      vertex 7.500000000000e-04 -7.500000000000e-04 -1.790000000000e-03
      vertex 7.500000000000e-04 -3.750000000000e-04 -1.790000000000e-03
    endloop
  endfacet
  facet normal 0 0 1.0
    outer loop
      vertex 3.750000000000e-04 -7.500000000000e-04 -1.790000000000e-03
      vertex 7.500000000000e-04 -3.750000000000e-04 -1.790000000000e-03
      vertex 3.750000000000e-04 -3.750000000000e-04 -1.790000000000e-03
    endloop
  endfacet
  facet normal 0 0 1.0
    outer loop
      vertex 3.750000000000e-04 -3.750000000000e-04 -1.790000000000e-03
      vertex 7.500000000000e-04 -3.750000000000e-04 -1.790000000000e-03
      vertex 7.500000000000e-04 -1.626303258728e-19 -1.790000000000e-03
    endloop
  endfacet
  facet normal 0 0 1.0
    outer loop
      vertex 3.750000000000e-04 -3.750000000000e-04 -1.790000000000e-03
      vertex 7.500000000000e-04 -1.626303258728e-19 -1.790000000000e-03
      vertex 3.750000000000e-04 -1.626303258728e-19 -1.790000000000e-03
    endloop
  endfacet
  facet normal 0 0 1.0
    outer loop
      vertex 3.750000000000e-04 0.000000000000e+00 -1.790000000000e-03
      vertex 7.500000000000e-04 0.000000000000e+00 -1.790000000000e-03
      vertex 7.500000000000e-04 3.750000000000e-04 -1.790000000000e-03
    endloop
  endfacet
  facet normal 0 0 1.0
    outer loop
      vertex 3.750000000000e-04 0.000000000000e+00 -1.790000000000e-03
      vertex 7.500000000000e-04 3.750000000000e-04 -1.790000000000e-03
      vertex 3.750000000000e-04 3.750000000000e-04 -1.790000000000e-03
    endloop
  endfacet
  facet normal 0 0 1.0
    outer loop
      vertex 3.750000000000e-04 3.750000000000e-04 -1.790000000000e-03
      vertex 7.500000000000e-04 3.750000000000e-04 -1.790000000000e-03
      vertex 7.500000000000e-04 7.500000000000e-04 -1.790000000000e-03
    endloop
  endfacet
  facet normal 0 0 1.0
    outer loop
      vertex 3.750000000000e-04 3.750000000000e-04 -1.790000000000e-03
      vertex 7.500000000000e-04 7.500000000000e-04 -1.790000000000e-03
      vertex 3.750000000000e-04 7.500000000000e-04 -1.790000000000e-03
    endloop
  endfacet
  facet normal 0 0 1.0
    outer loop
      vertex 3.750000000000e-04 7.500000000000e-04 -1.790000000000e-03
      vertex 7.500000000000e-04 7.500000000000e-04 -1.790000000000e-03
      vertex 7.500000000000e-04 1.125000000000e-03 -1.790000000000e-03
    endloop
  endfacet
  facet normal 0 0 1.0
    outer loop
      vertex 3.750000000000e-04 7.500000000000e-04 -1.790000000000e-03
      vertex 7.500000000000e-04 1.125000000000e-03 -1.790000000000e-03
      vertex 3.750000000000e-04 1.125000000000e-03 -1.790000000000e-03
    endloop
  endfacet
  facet normal 0 0 1.0
    outer loop
      vertex 3.750000000000e-04 1.125000000000e-03 -1.790000000000e-03
      vertex 7.500000000000e-04 1.125000000000e-03 -1.790000000000e-03
      vertex 7.500000000000e-04 1.500000000000e-03 -1.790000000000e-03
    endloop
  endfacet
  facet normal 0 0 1.0
    outer loop
      vertex 3.750000000000e-04 1.125000000000e-03 -1.790000000000e-03
      vertex 7.500000000000e-04 1.500000000000e-03 -1.790000000000e-03
      vertex 3.750000000000e-04 1.500000000000e-03 -1.790000000000e-03
    endloop
  endfacet
  facet normal 0 0 1.0
    outer loop
      vertex 3.750000000000e-04 1.500000000000e-03 -1.790000000000e-03
      vertex 7.500000000000e-04 1.500000000000e-03 -1.790000000000e-03
      vertex 7.500000000000e-04 1.875000000000e-03 -1.790000000000e-03
    endloop
  endfacet
  facet normal 0 0 1.0
    outer loop
      vertex 3.750000000000e-04 1.500000000000e-03 -1.790000000000e-03
      vertex 7.500000000000e-04 1.875000000000e-03 -1.790000000000e-03
      vertex 3.750000000000e-04 1.875000000000e-03 -1.790000000000e-03
    endloop
  endfacet
  facet normal 0 0 1.0
    outer loop
      vertex 3.750000000000e-04 1.875000000000e-03 -1.790000000000e-03
      vertex 7.500000000000e-04 1.875000000000e-03 -1.790000000000e-03
      vertex 7.500000000000e-04 2.250000000000e-03 -1.790000000000e-03
    endloop
  endfacet
  facet normal 0 0 1.0
    outer loop
      vertex 3.750000000000e-04 1.875000000000e-03 -1.790000000000e-03
      vertex 7.500000000000e-04 2.250000000000e-03 -1.790000000000e-03
      vertex 3.750000000000e-04 2.250000000000e-03 -1.790000000000e-03
    endloop
  endfacet
  facet normal 0 0 1.0
    outer loop
      vertex 7.500000000000e-04 -2.250000000000e-03 -1.790000000000e-03
      vertex 1.125000000000e-03 -2.250000000000e-03 -1.790000000000e-03
      vertex 1.125000000000e-03 -1.875000000000e-03 -1.790000000000e-03
    endloop
  endfacet
  facet normal 0 0 1.0
    outer loop
      vertex 7.500000000000e-04 -2.250000000000e-03 -1.790000000000e-03
      vertex 1.125000000000e-03 -1.875000000000e-03 -1.790000000000e-03
      vertex 7.500000000000e-04 -1.875000000000e-03 -1.790000000000e-03
    endloop
  endfacet
  facet normal 0 0 1.0
    outer loop
      vertex 7.500000000000e-04 -1.875000000000e-03 -1.790000000000e-03
      vertex 1.125000000000e-03 -1.875000000000e-03 -1.790000000000e-03
      vertex 1.125000000000e-03 -1.500000000000e-03 -1.790000000000e-03
    endloop
  endfacet
  facet normal 0 0 1.0
    outer loop
      vertex 7.500000000000e-04 -1.875000000000e-03 -1.790000000000e-03
      vertex 1.125000000000e-03 -1.500000000000e-03 -1.790000000000e-03
      vertex 7.500000000000e-04 -1.500000000000e-03 -1.790000000000e-03
    endloop
  endfacet
  facet normal 0 0 1.0
    outer loop
      vertex 7.500000000000e-04 -1.500000000000e-03 -1.790000000000e-03
      vertex 1.125000000000e-03 -1.500000000000e-03 -1.790000000000e-03
      vertex 1.125000000000e-03 -1.125000000000e-03 -1.790000000000e-03
    endloop
  endfacet
  facet normal 0 0 1.0
    outer loop
      vertex 7.500000000000e-04 -1.500000000000e-03 -1.790000000000e-03
      vertex 1.125000000000e-03 -1.125000000000e-03 -1.790000000000e-03
      vertex 7.500000000000e-04 -1.125000000000e-03 -1.790000000000e-03
    endloop
  endfacet
  facet normal 0 0 1.0
    outer loop
      vertex 7.500000000000e-04 -1.125000000000e-03 -1.790000000000e-03
      vertex 1.125000000000e-03 -1.125000000000e-03 -1.790000000000e-03
      vertex 1.125000000000e-03 -7.500000000000e-04 -1.790000000000e-03
    endloop
  endfacet
  facet normal 0 0 1.0
    outer loop
      vertex 7.500000000000e-04 -1.125000000000e-03 -1.790000000000e-03
      vertex 1.125000000000e-03 -7.500000000000e-04 -1.790000000000e-03
      vertex 7.500000000000e-04 -7.500000000000e-04 -1.790000000000e-03
    endloop
  endfacet
  facet normal 0 0 1.0
    outer loop
      vertex 7.500000000000e-04 -7.500000000000e-04 -1.790000000000e-03
      vertex 1.125000000000e-03 -7.500000000000e-04 -1.790000000000e-03
      vertex 1.125000000000e-03 -3.750000000000e-04 -1.790000000000e-03
    endloop
  endfacet
  facet normal 0 0 1.0
    outer loop
      vertex 7.500000000000e-04 -7.500000000000e-04 -1.790000000000e-03
      vertex 1.125000000000e-03 -3.750000000000e-04 -1.790000000000e-03
      vertex 7.500000000000e-04 -3.750000000000e-04 -1.790000000000e-03
    endloop
  endfacet
  facet normal 0 0 1.0
    outer loop
      vertex 7.500000000000e-04 -3.750000000000e-04 -1.790000000000e-03
      vertex 1.125000000000e-03 -3.750000000000e-04 -1.790000000000e-03
      vertex 1.125000000000e-03 -1.626303258728e-19 -1.790000000000e-03
    endloop
  endfacet
  facet normal 0 0 1.0
    outer loop
      vertex 7.500000000000e-04 -3.750000000000e-04 -1.790000000000e-03
      vertex 1.125000000000e-03 -1.626303258728e-19 -1.790000000000e-03
      vertex 7.500000000000e-04 -1.626303258728e-19 -1.790000000000e-03
    endloop
  endfacet
  facet normal 0 0 1.0
    outer loop
      vertex 7.500000000000e-04 0.000000000000e+00 -1.790000000000e-03
      vertex 1.125000000000e-03 0.000000000000e+00 -1.790000000000e-03
      vertex 1.125000000000e-03 3.750000000000e-04 -1.790000000000e-03
    endloop
  endfacet
  facet normal 0 0 1.0
    outer loop
      vertex 7.500000000000e-04 0.000000000000e+00 -1.790000000000e-03
      vertex 1.125000000000e-03 3.750000000000e-04 -1.790000000000e-03
      vertex 7.500000000000e-04 3.750000000000e-04 -1.790000000000e-03
    endloop
  endfacet
  facet normal 0 0 1.0
    outer loop
      vertex 7.500000000000e-04 3.750000000000e-04 -1.790000000000e-03
      vertex 1.125000000000e-03 3.750000000000e-04 -1.790000000000e-03
      vertex 1.125000000000e-03 7.500000000000e-04 -1.790000000000e-03
    endloop
  endfacet
  facet normal 0 0 1.0
    outer loop
      vertex 7.500000000000e-04 3.750000000000e-04 -1.790000000000e-03
      vertex 1.125000000000e-03 7.500000000000e-04 -1.790000000000e-03
      vertex 7.500000000000e-04 7.500000000000e-04 -1.790000000000e-03
    endloop
  endfacet
  facet normal 0 0 1.0
    outer loop
      vertex 7.500000000000e-04 7.500000000000e-04 -1.790000000000e-03
      vertex 1.125000000000e-03 7.500000000000e-04 -1.790000000000e-03
      vertex 1.125000000000e-03 1.125000000000e-03 -1.790000000000e-03
    endloop
  endfacet
  facet normal 0 0 1.0
    outer loop
      vertex 7.500000000000e-04 7.500000000000e-04 -1.790000000000e-03
      vertex 1.125000000000e-03 1.125000000000e-03 -1.790000000000e-03
      vertex 7.500000000000e-04 1.125000000000e-03 -1.790000000000e-03
    endloop
  endfacet
  facet normal 0 0 1.0
    outer loop
      vertex 7.500000000000e-04 1.125000000000e-03 -1.790000000000e-03
      vertex 1.125000000000e-03 1.125000000000e-03 -1.790000000000e-03
      vertex 1.125000000000e-03 1.500000000000e-03 -1.790000000000e-03
    endloop
  endfacet
  facet normal 0 0 1.0
    outer loop
      vertex 7.500000000000e-04 1.125000000000e-03 -1.790000000000e-03
      vertex 1.125000000000e-03 1.500000000000e-03 -1.790000000000e-03
      vertex 7.500000000000e-04 1.500000000000e-03 -1.790000000000e-03
    endloop
  endfacet
  facet normal 0 0 1.0
    outer loop
      vertex 7.500000000000e-04 1.500000000000e-03 -1.790000000000e-03
      vertex 1.125000000000e-03 1.500000000000e-03 -1.790000000000e-03
      vertex 1.125000000000e-03 1.875000000000e-03 -1.790000000000e-03
    endloop
  endfacet
  facet normal 0 0 1.0
    outer loop
      vertex 7.500000000000e-04 1.500000000000e-03 -1.790000000000e-03
      vertex 1.125000000000e-03 1.875000000000e-03 -1.790000000000e-03
      vertex 7.500000000000e-04 1.875000000000e-03 -1.790000000000e-03
    endloop
  endfacet
  facet normal 0 0 1.0
    outer loop
      vertex 7.500000000000e-04 1.875000000000e-03 -1.790000000000e-03
      vertex 1.125000000000e-03 1.875000000000e-03 -1.790000000000e-03
      vertex 1.125000000000e-03 2.250000000000e-03 -1.790000000000e-03
    endloop
  endfacet
  facet normal 0 0 1.0
    outer loop
      vertex 7.500000000000e-04 1.875000000000e-03 -1.790000000000e-03
      vertex 1.125000000000e-03 2.250000000000e-03 -1.790000000000e-03
      vertex 7.500000000000e-04 2.250000000000e-03 -1.790000000000e-03
    endloop
  endfacet
  facet normal 0 0 1.0
    outer loop
      vertex 1.125000000000e-03 -2.250000000000e-03 -1.790000000000e-03
      vertex 1.500000000000e-03 -2.250000000000e-03 -1.790000000000e-03
      vertex 1.500000000000e-03 -1.875000000000e-03 -1.790000000000e-03
    endloop
  endfacet
  facet normal 0 0 1.0
    outer loop
      vertex 1.125000000000e-03 -2.250000000000e-03 -1.790000000000e-03
      vertex 1.500000000000e-03 -1.875000000000e-03 -1.790000000000e-03
      vertex 1.125000000000e-03 -1.875000000000e-03 -1.790000000000e-03
    endloop
  endfacet
  facet normal 0 0 1.0
    outer loop
      vertex 1.125000000000e-03 -1.875000000000e-03 -1.790000000000e-03
      vertex 1.500000000000e-03 -1.875000000000e-03 -1.790000000000e-03
      vertex 1.500000000000e-03 -1.500000000000e-03 -1.790000000000e-03
    endloop
  endfacet
  facet normal 0 0 1.0
    outer loop
      vertex 1.125000000000e-03 -1.875000000000e-03 -1.790000000000e-03
      vertex 1.500000000000e-03 -1.500000000000e-03 -1.790000000000e-03
      vertex 1.125000000000e-03 -1.500000000000e-03 -1.790000000000e-03
    endloop
  endfacet
  facet normal 0 0 1.0
    outer loop
      vertex 1.125000000000e-03 -1.500000000000e-03 -1.790000000000e-03
      vertex 1.500000000000e-03 -1.500000000000e-03 -1.790000000000e-03
      vertex 1.500000000000e-03 -1.125000000000e-03 -1.790000000000e-03
    endloop
  endfacet
  facet normal 0 0 1.0
    outer loop
      vertex 1.125000000000e-03 -1.500000000000e-03 -1.790000000000e-03
      vertex 1.500000000000e-03 -1.125000000000e-03 -1.790000000000e-03
      vertex 1.125000000000e-03 -1.125000000000e-03 -1.790000000000e-03
    endloop
  endfacet
  facet normal 0 0 1.0
    outer loop
      vertex 1.125000000000e-03 -1.125000000000e-03 -1.790000000000e-03
      vertex 1.500000000000e-03 -1.125000000000e-03 -1.790000000000e-03
      vertex 1.500000000000e-03 -7.500000000000e-04 -1.790000000000e-03
    endloop
  endfacet
  facet normal 0 0 1.0
    outer loop
      vertex 1.125000000000e-03 -1.125000000000e-03 -1.790000000000e-03
      vertex 1.500000000000e-03 -7.500000000000e-04 -1.790000000000e-03
      vertex 1.125000000000e-03 -7.500000000000e-04 -1.790000000000e-03
    endloop
  endfacet
  facet normal 0 0 1.0
    outer loop
      vertex 1.125000000000e-03 -7.500000000000e-04 -1.790000000000e-03
      vertex 1.500000000000e-03 -7.500000000000e-04 -1.790000000000e-03
      vertex 1.500000000000e-03 -3.750000000000e-04 -1.790000000000e-03
    endloop
  endfacet
  facet normal 0 0 1.0
    outer loop
      vertex 1.125000000000e-03 -7.500000000000e-04 -1.790000000000e-03
      vertex 1.500000000000e-03 -3.750000000000e-04 -1.790000000000e-03
      vertex 1.125000000000e-03 -3.750000000000e-04 -1.790000000000e-03
    endloop
  endfacet
  facet normal 0 0 1.0
    outer loop
      vertex 1.125000000000e-03 -3.750000000000e-04 -1.790000000000e-03
      vertex 1.500000000000e-03 -3.750000000000e-04 -1.790000000000e-03
      vertex 1.500000000000e-03 -1.626303258728e-19 -1.790000000000e-03
    endloop
  endfacet
  facet normal 0 0 1.0
    outer loop
      vertex 1.125000000000e-03 -3.750000000000e-04 -1.790000000000e-03
      vertex 1.500000000000e-03 -1.626303258728e-19 -1.790000000000e-03
      vertex 1.125000000000e-03 -1.626303258728e-19 -1.790000000000e-03
    endloop
  endfacet
  facet normal 0 0 1.0
    outer loop
      vertex 1.125000000000e-03 0.000000000000e+00 -1.790000000000e-03
      vertex 1.500000000000e-03 0.000000000000e+00 -1.790000000000e-03
      vertex 1.500000000000e-03 3.750000000000e-04 -1.790000000000e-03
    endloop
  endfacet
  facet normal 0 0 1.0
    outer loop
      vertex 1.125000000000e-03 0.000000000000e+00 -1.790000000000e-03
      vertex 1.500000000000e-03 3.750000000000e-04 -1.790000000000e-03
      vertex 1.125000000000e-03 3.750000000000e-04 -1.790000000000e-03
    endloop
  endfacet
  facet normal 0 0 1.0
    outer loop
      vertex 1.125000000000e-03 3.750000000000e-04 -1.790000000000e-03
      vertex 1.500000000000e-03 3.750000000000e-04 -1.790000000000e-03
      vertex 1.500000000000e-03 7.500000000000e-04 -1.790000000000e-03
    endloop
  endfacet
  facet normal 0 0 1.0
    outer loop
      vertex 1.125000000000e-03 3.750000000000e-04 -1.790000000000e-03
      vertex 1.500000000000e-03 7.500000000000e-04 -1.790000000000e-03
      vertex 1.125000000000e-03 7.500000000000e-04 -1.790000000000e-03
    endloop
  endfacet
  facet normal 0 0 1.0
    outer loop
      vertex 1.125000000000e-03 7.500000000000e-04 -1.790000000000e-03
      vertex 1.500000000000e-03 7.500000000000e-04 -1.790000000000e-03
      vertex 1.500000000000e-03 1.125000000000e-03 -1.790000000000e-03
    endloop
  endfacet
  facet normal 0 0 1.0
    outer loop
      vertex 1.125000000000e-03 7.500000000000e-04 -1.790000000000e-03
      vertex 1.500000000000e-03 1.125000000000e-03 -1.790000000000e-03
      vertex 1.125000000000e-03 1.125000000000e-03 -1.790000000000e-03
    endloop
  endfacet
  facet normal 0 0 1.0
    outer loop
      vertex 1.125000000000e-03 1.125000000000e-03 -1.790000000000e-03
      vertex 1.500000000000e-03 1.125000000000e-03 -1.790000000000e-03
      vertex 1.500000000000e-03 1.500000000000e-03 -1.790000000000e-03
    endloop
  endfacet
  facet normal 0 0 1.0
    outer loop
      vertex 1.125000000000e-03 1.125000000000e-03 -1.790000000000e-03
      vertex 1.500000000000e-03 1.500000000000e-03 -1.790000000000e-03
      vertex 1.125000000000e-03 1.500000000000e-03 -1.790000000000e-03
    endloop
  endfacet
  facet normal 0 0 1.0
    outer loop
      vertex 1.125000000000e-03 1.500000000000e-03 -1.790000000000e-03
      vertex 1.500000000000e-03 1.500000000000e-03 -1.790000000000e-03
      vertex 1.500000000000e-03 1.875000000000e-03 -1.790000000000e-03
    endloop
  endfacet
  facet normal 0 0 1.0
    outer loop
      vertex 1.125000000000e-03 1.500000000000e-03 -1.790000000000e-03
      vertex 1.500000000000e-03 1.875000000000e-03 -1.790000000000e-03
      vertex 1.125000000000e-03 1.875000000000e-03 -1.790000000000e-03
    endloop
  endfacet
  facet normal 0 0 1.0
    outer loop
      vertex 1.125000000000e-03 1.875000000000e-03 -1.790000000000e-03
      vertex 1.500000000000e-03 1.875000000000e-03 -1.790000000000e-03
      vertex 1.500000000000e-03 2.250000000000e-03 -1.790000000000e-03
    endloop
  endfacet
  facet normal 0 0 1.0
    outer loop
      vertex 1.125000000000e-03 1.875000000000e-03 -1.790000000000e-03
      vertex 1.500000000000e-03 2.250000000000e-03 -1.790000000000e-03
      vertex 1.125000000000e-03 2.250000000000e-03 -1.790000000000e-03
    endloop
  endfacet
  facet normal 0 0 1.0
    outer loop
      vertex 1.500000000000e-03 -2.250000000000e-03 -1.790000000000e-03
      vertex 1.875000000000e-03 -2.250000000000e-03 -1.790000000000e-03
      vertex 1.875000000000e-03 -1.875000000000e-03 -1.790000000000e-03
    endloop
  endfacet
  facet normal 0 0 1.0
    outer loop
      vertex 1.500000000000e-03 -2.250000000000e-03 -1.790000000000e-03
      vertex 1.875000000000e-03 -1.875000000000e-03 -1.790000000000e-03
      vertex 1.500000000000e-03 -1.875000000000e-03 -1.790000000000e-03
    endloop
  endfacet
  facet normal 0 0 1.0
    outer loop
      vertex 1.500000000000e-03 -1.875000000000e-03 -1.790000000000e-03
      vertex 1.875000000000e-03 -1.875000000000e-03 -1.790000000000e-03
      vertex 1.875000000000e-03 -1.500000000000e-03 -1.790000000000e-03
    endloop
  endfacet
  facet normal 0 0 1.0
    outer loop
      vertex 1.500000000000e-03 -1.875000000000e-03 -1.790000000000e-03
      vertex 1.875000000000e-03 -1.500000000000e-03 -1.790000000000e-03
      vertex 1.500000000000e-03 -1.500000000000e-03 -1.790000000000e-03
    endloop
  endfacet
  facet normal 0 0 1.0
    outer loop
      vertex 1.500000000000e-03 -1.500000000000e-03 -1.790000000000e-03
      vertex 1.875000000000e-03 -1.500000000000e-03 -1.790000000000e-03
      vertex 1.875000000000e-03 -1.125000000000e-03 -1.790000000000e-03
    endloop
  endfacet
  facet normal 0 0 1.0
    outer loop
      vertex 1.500000000000e-03 -1.500000000000e-03 -1.790000000000e-03
      vertex 1.875000000000e-03 -1.125000000000e-03 -1.790000000000e-03
      vertex 1.500000000000e-03 -1.125000000000e-03 -1.790000000000e-03
    endloop
  endfacet
  facet normal 0 0 1.0
    outer loop
      vertex 1.500000000000e-03 -1.125000000000e-03 -1.790000000000e-03
      vertex 1.875000000000e-03 -1.125000000000e-03 -1.790000000000e-03
      vertex 1.875000000000e-03 -7.500000000000e-04 -1.790000000000e-03
    endloop
  endfacet
  facet normal 0 0 1.0
    outer loop
      vertex 1.500000000000e-03 -1.125000000000e-03 -1.790000000000e-03
      vertex 1.875000000000e-03 -7.500000000000e-04 -1.790000000000e-03
      vertex 1.500000000000e-03 -7.500000000000e-04 -1.790000000000e-03
    endloop
  endfacet
  facet normal 0 0 1.0
    outer loop
      vertex 1.500000000000e-03 -7.500000000000e-04 -1.790000000000e-03
      vertex 1.875000000000e-03 -7.500000000000e-04 -1.790000000000e-03
      vertex 1.875000000000e-03 -3.750000000000e-04 -1.790000000000e-03
    endloop
  endfacet
  facet normal 0 0 1.0
    outer loop
      vertex 1.500000000000e-03 -7.500000000000e-04 -1.790000000000e-03
      vertex 1.875000000000e-03 -3.750000000000e-04 -1.790000000000e-03
      vertex 1.500000000000e-03 -3.750000000000e-04 -1.790000000000e-03
    endloop
  endfacet
  facet normal 0 0 1.0
    outer loop
      vertex 1.500000000000e-03 -3.750000000000e-04 -1.790000000000e-03
      vertex 1.875000000000e-03 -3.750000000000e-04 -1.790000000000e-03
      vertex 1.875000000000e-03 -1.626303258728e-19 -1.790000000000e-03
    endloop
  endfacet
  facet normal 0 0 1.0
    outer loop
      vertex 1.500000000000e-03 -3.750000000000e-04 -1.790000000000e-03
      vertex 1.875000000000e-03 -1.626303258728e-19 -1.790000000000e-03
      vertex 1.500000000000e-03 -1.626303258728e-19 -1.790000000000e-03
    endloop
  endfacet
  facet normal 0 0 1.0
    outer loop
      vertex 1.500000000000e-03 0.000000000000e+00 -1.790000000000e-03
      vertex 1.875000000000e-03 0.000000000000e+00 -1.790000000000e-03
      vertex 1.875000000000e-03 3.750000000000e-04 -1.790000000000e-03
    endloop
  endfacet
  facet normal 0 0 1.0
    outer loop
      vertex 1.500000000000e-03 0.000000000000e+00 -1.790000000000e-03
      vertex 1.875000000000e-03 3.750000000000e-04 -1.790000000000e-03
      vertex 1.500000000000e-03 3.750000000000e-04 -1.790000000000e-03
    endloop
  endfacet
  facet normal 0 0 1.0
    outer loop
      vertex 1.500000000000e-03 3.750000000000e-04 -1.790000000000e-03
      vertex 1.875000000000e-03 3.750000000000e-04 -1.790000000000e-03
      vertex 1.875000000000e-03 7.500000000000e-04 -1.790000000000e-03
    endloop
  endfacet
  facet normal 0 0 1.0
    outer loop
      vertex 1.500000000000e-03 3.750000000000e-04 -1.790000000000e-03
      vertex 1.875000000000e-03 7.500000000000e-04 -1.790000000000e-03
      vertex 1.500000000000e-03 7.500000000000e-04 -1.790000000000e-03
    endloop
  endfacet
  facet normal 0 0 1.0
    outer loop
      vertex 1.500000000000e-03 7.500000000000e-04 -1.790000000000e-03
      vertex 1.875000000000e-03 7.500000000000e-04 -1.790000000000e-03
      vertex 1.875000000000e-03 1.125000000000e-03 -1.790000000000e-03
    endloop
  endfacet
  facet normal 0 0 1.0
    outer loop
      vertex 1.500000000000e-03 7.500000000000e-04 -1.790000000000e-03
      vertex 1.875000000000e-03 1.125000000000e-03 -1.790000000000e-03
      vertex 1.500000000000e-03 1.125000000000e-03 -1.790000000000e-03
    endloop
  endfacet
  facet normal 0 0 1.0
    outer loop
      vertex 1.500000000000e-03 1.125000000000e-03 -1.790000000000e-03
      vertex 1.875000000000e-03 1.125000000000e-03 -1.790000000000e-03
      vertex 1.875000000000e-03 1.500000000000e-03 -1.790000000000e-03
    endloop
  endfacet
  facet normal 0 0 1.0
    outer loop
      vertex 1.500000000000e-03 1.125000000000e-03 -1.790000000000e-03
      vertex 1.875000000000e-03 1.500000000000e-03 -1.790000000000e-03
      vertex 1.500000000000e-03 1.500000000000e-03 -1.790000000000e-03
    endloop
  endfacet
  facet normal 0 0 1.0
    outer loop
      vertex 1.500000000000e-03 1.500000000000e-03 -1.790000000000e-03
      vertex 1.875000000000e-03 1.500000000000e-03 -1.790000000000e-03
      vertex 1.875000000000e-03 1.875000000000e-03 -1.790000000000e-03
    endloop
  endfacet
  facet normal 0 0 1.0
    outer loop
      vertex 1.500000000000e-03 1.500000000000e-03 -1.790000000000e-03
      vertex 1.875000000000e-03 1.875000000000e-03 -1.790000000000e-03
      vertex 1.500000000000e-03 1.875000000000e-03 -1.790000000000e-03
    endloop
  endfacet
  facet normal 0 0 1.0
    outer loop
      vertex 1.500000000000e-03 1.875000000000e-03 -1.790000000000e-03
      vertex 1.875000000000e-03 1.875000000000e-03 -1.790000000000e-03
      vertex 1.875000000000e-03 2.250000000000e-03 -1.790000000000e-03
    endloop
  endfacet
  facet normal 0 0 1.0
    outer loop
      vertex 1.500000000000e-03 1.875000000000e-03 -1.790000000000e-03
      vertex 1.875000000000e-03 2.250000000000e-03 -1.790000000000e-03
      vertex 1.500000000000e-03 2.250000000000e-03 -1.790000000000e-03
    endloop
  endfacet
  facet normal 0 0 1.0
    outer loop
      vertex 1.875000000000e-03 -2.250000000000e-03 -1.790000000000e-03
      vertex 2.250000000000e-03 -2.250000000000e-03 -1.790000000000e-03
      vertex 2.250000000000e-03 -1.875000000000e-03 -1.790000000000e-03
    endloop
  endfacet
  facet normal 0 0 1.0
    outer loop
      vertex 1.875000000000e-03 -2.250000000000e-03 -1.790000000000e-03
      vertex 2.250000000000e-03 -1.875000000000e-03 -1.790000000000e-03
      vertex 1.875000000000e-03 -1.875000000000e-03 -1.790000000000e-03
    endloop
  endfacet
  facet normal 0 0 1.0
    outer loop
      vertex 1.875000000000e-03 -1.875000000000e-03 -1.790000000000e-03
      vertex 2.250000000000e-03 -1.875000000000e-03 -1.790000000000e-03
      vertex 2.250000000000e-03 -1.500000000000e-03 -1.790000000000e-03
    endloop
  endfacet
  facet normal 0 0 1.0
    outer loop
      vertex 1.875000000000e-03 -1.875000000000e-03 -1.790000000000e-03
      vertex 2.250000000000e-03 -1.500000000000e-03 -1.790000000000e-03
      vertex 1.875000000000e-03 -1.500000000000e-03 -1.790000000000e-03
    endloop
  endfacet
  facet normal 0 0 1.0
    outer loop
      vertex 1.875000000000e-03 -1.500000000000e-03 -1.790000000000e-03
      vertex 2.250000000000e-03 -1.500000000000e-03 -1.790000000000e-03
      vertex 2.250000000000e-03 -1.125000000000e-03 -1.790000000000e-03
    endloop
  endfacet
  facet normal 0 0 1.0
    outer loop
      vertex 1.875000000000e-03 -1.500000000000e-03 -1.790000000000e-03
      vertex 2.250000000000e-03 -1.125000000000e-03 -1.790000000000e-03
      vertex 1.875000000000e-03 -1.125000000000e-03 -1.790000000000e-03
    endloop
  endfacet
  facet normal 0 0 1.0
    outer loop
      vertex 1.875000000000e-03 -1.125000000000e-03 -1.790000000000e-03
      vertex 2.250000000000e-03 -1.125000000000e-03 -1.790000000000e-03
      vertex 2.250000000000e-03 -7.500000000000e-04 -1.790000000000e-03
    endloop
  endfacet
  facet normal 0 0 1.0
    outer loop
      vertex 1.875000000000e-03 -1.125000000000e-03 -1.790000000000e-03
      vertex 2.250000000000e-03 -7.500000000000e-04 -1.790000000000e-03
      vertex 1.875000000000e-03 -7.500000000000e-04 -1.790000000000e-03
    endloop
  endfacet
  facet normal 0 0 1.0
    outer loop
      vertex 1.875000000000e-03 -7.500000000000e-04 -1.790000000000e-03
      vertex 2.250000000000e-03 -7.500000000000e-04 -1.790000000000e-03
      vertex 2.250000000000e-03 -3.750000000000e-04 -1.790000000000e-03
    endloop
  endfacet
  facet normal 0 0 1.0
    outer loop
      vertex 1.875000000000e-03 -7.500000000000e-04 -1.790000000000e-03
      vertex 2.250000000000e-03 -3.750000000000e-04 -1.790000000000e-03
      vertex 1.875000000000e-03 -3.750000000000e-04 -1.790000000000e-03
    endloop
  endfacet
  facet normal 0 0 1.0
    outer loop
      vertex 1.875000000000e-03 -3.750000000000e-04 -1.790000000000e-03
      vertex 2.250000000000e-03 -3.750000000000e-04 -1.790000000000e-03
      vertex 2.250000000000e-03 -1.626303258728e-19 -1.790000000000e-03
    endloop
  endfacet
  facet normal 0 0 1.0
    outer loop
      vertex 1.875000000000e-03 -3.750000000000e-04 -1.790000000000e-03
      vertex 2.250000000000e-03 -1.626303258728e-19 -1.790000000000e-03
      vertex 1.875000000000e-03 -1.626303258728e-19 -1.790000000000e-03
    endloop
  endfacet
  facet normal 0 0 1.0
    outer loop
      vertex 1.875000000000e-03 0.000000000000e+00 -1.790000000000e-03
      vertex 2.250000000000e-03 0.000000000000e+00 -1.790000000000e-03
      vertex 2.250000000000e-03 3.750000000000e-04 -1.790000000000e-03
    endloop
  endfacet
  facet normal 0 0 1.0
    outer loop
      vertex 1.875000000000e-03 0.000000000000e+00 -1.790000000000e-03
      vertex 2.250000000000e-03 3.750000000000e-04 -1.790000000000e-03
      vertex 1.875000000000e-03 3.750000000000e-04 -1.790000000000e-03
    endloop
  endfacet
  facet normal 0 0 1.0
    outer loop
      vertex 1.875000000000e-03 3.750000000000e-04 -1.790000000000e-03
      vertex 2.250000000000e-03 3.750000000000e-04 -1.790000000000e-03
      vertex 2.250000000000e-03 7.500000000000e-04 -1.790000000000e-03
    endloop
  endfacet
  facet normal 0 0 1.0
    outer loop
      vertex 1.875000000000e-03 3.750000000000e-04 -1.790000000000e-03
      vertex 2.250000000000e-03 7.500000000000e-04 -1.790000000000e-03
      vertex 1.875000000000e-03 7.500000000000e-04 -1.790000000000e-03
    endloop
  endfacet
  facet normal 0 0 1.0
    outer loop
      vertex 1.875000000000e-03 7.500000000000e-04 -1.790000000000e-03
      vertex 2.250000000000e-03 7.500000000000e-04 -1.790000000000e-03
      vertex 2.250000000000e-03 1.125000000000e-03 -1.790000000000e-03
    endloop
  endfacet
  facet normal 0 0 1.0
    outer loop
      vertex 1.875000000000e-03 7.500000000000e-04 -1.790000000000e-03
      vertex 2.250000000000e-03 1.125000000000e-03 -1.790000000000e-03
      vertex 1.875000000000e-03 1.125000000000e-03 -1.790000000000e-03
    endloop
  endfacet
  facet normal 0 0 1.0
    outer loop
      vertex 1.875000000000e-03 1.125000000000e-03 -1.790000000000e-03
      vertex 2.250000000000e-03 1.125000000000e-03 -1.790000000000e-03
      vertex 2.250000000000e-03 1.500000000000e-03 -1.790000000000e-03
    endloop
  endfacet
  facet normal 0 0 1.0
    outer loop
      vertex 1.875000000000e-03 1.125000000000e-03 -1.790000000000e-03
      vertex 2.250000000000e-03 1.500000000000e-03 -1.790000000000e-03
      vertex 1.875000000000e-03 1.500000000000e-03 -1.790000000000e-03
    endloop
  endfacet
  facet normal 0 0 1.0
    outer loop
      vertex 1.875000000000e-03 1.500000000000e-03 -1.790000000000e-03
      vertex 2.250000000000e-03 1.500000000000e-03 -1.790000000000e-03
      vertex 2.250000000000e-03 1.875000000000e-03 -1.790000000000e-03
    endloop
  endfacet
  facet normal 0 0 1.0
    outer loop
      vertex 1.875000000000e-03 1.500000000000e-03 -1.790000000000e-03
      vertex 2.250000000000e-03 1.875000000000e-03 -1.790000000000e-03
      vertex 1.875000000000e-03 1.875000000000e-03 -1.790000000000e-03
    endloop
  endfacet
  facet normal 0 0 1.0
    outer loop
      vertex 1.875000000000e-03 1.875000000000e-03 -1.790000000000e-03
      vertex 2.250000000000e-03 1.875000000000e-03 -1.790000000000e-03
      vertex 2.250000000000e-03 2.250000000000e-03 -1.790000000000e-03
    endloop
  endfacet
  facet normal 0 0 1.0
    outer loop
      vertex 1.875000000000e-03 1.875000000000e-03 -1.790000000000e-03
      vertex 2.250000000000e-03 2.250000000000e-03 -1.790000000000e-03
      vertex 1.875000000000e-03 2.250000000000e-03 -1.790000000000e-03
    endloop
  endfacet
endsolid plate
