solid wall
  facet normal 1.0 0.0 0.0
    outer loop
      vertex -1.900000000000e-03 -1.900000000000e-03 -1.900000000000e-03
      vertex -1.900000000000e-03 -1.425000000000e-03 -1.900000000000e-03
      vertex -1.900000000000e-03 -1.425000000000e-03 -1.425000000000e-03
    endloop
  endfacet
  facet normal 1.0 0.0 0.0
    outer loop
      vertex -1.900000000000e-03 -1.900000000000e-03 -1.900000000000e-03
      vertex -1.900000000000e-03 -1.425000000000e-03 -1.425000000000e-03
      vertex -1.900000000000e-03 -1.900000000000e-03 -1.425000000000e-03
    endloop
  endfacet
  facet normal 1.0 0.0 0.0
    outer loop
      vertex -1.900000000000e-03 -1.900000000000e-03 -1.425000000000e-03
      vertex -1.900000000000e-03 -1.425000000000e-03 -1.425000000000e-03
      vertex -1.900000000000e-03 -1.425000000000e-03 -9.500000000000e-04
    endloop
  endfacet
  facet normal 1.0 0.0 0.0
    outer loop
      vertex -1.900000000000e-03 -1.900000000000e-03 -1.425000000000e-03
      vertex -1.900000000000e-03 -1.425000000000e-03 -9.500000000000e-04
      vertex -1.900000000000e-03 -1.900000000000e-03 -9.500000000000e-04
    endloop
  endfacet
  facet normal 1.0 0.0 0.0
    outer loop
      vertex -1.900000000000e-03 -1.900000000000e-03 -9.500000000000e-04
      vertex -1.900000000000e-03 -1.425000000000e-03 -9.500000000000e-04
      vertex -1.900000000000e-03 -1.425000000000e-03 -4.750000000000e-04
    endloop
  endfacet
  facet normal 1.0 0.0 0.0
    outer loop
      vertex -1.900000000000e-03 -1.900000000000e-03 -9.500000000000e-04
      vertex -1.900000000000e-03 -1.425000000000e-03 -4.750000000000e-04
      vertex -1.900000000000e-03 -1.900000000000e-03 -4.750000000000e-04
    endloop
  endfacet
  facet normal 1.0 0.0 0.0
    outer loop
      vertex -1.900000000000e-03 -1.900000000000e-03 -4.750000000000e-04
      vertex -1.900000000000e-03 -1.425000000000e-03 -4.750000000000e-04
      vertex -1.900000000000e-03 -1.425000000000e-03 5.421010862428e-20
    endloop
  endfacet
  facet normal 1.0 0.0 0.0
    outer loop
      vertex -1.900000000000e-03 -1.900000000000e-03 -4.750000000000e-04
      vertex -1.900000000000e-03 -1.425000000000e-03 5.421010862428e-20
      vertex -1.900000000000e-03 -1.900000000000e-03 5.421010862428e-20
    endloop
  endfacet
  facet normal 1.0 0.0 0.0
    outer loop
      vertex -1.900000000000e-03 -1.900000000000e-03 0.000000000000e+00
      vertex -1.900000000000e-03 -1.425000000000e-03 0.000000000000e+00
      vertex -1.900000000000e-03 -1.425000000000e-03 4.750000000000e-04
    endloop
  endfacet
  facet normal 1.0 0.0 0.0
    outer loop
      vertex -1.900000000000e-03 -1.900000000000e-03 0.000000000000e+00
      vertex -1.900000000000e-03 -1.425000000000e-03 4.750000000000e-04
      vertex -1.900000000000e-03 -1.900000000000e-03 4.750000000000e-04
    endloop
  endfacet
  facet normal 1.0 0.0 0.0
    outer loop
      vertex -1.900000000000e-03 -1.900000000000e-03 4.750000000000e-04
      vertex -1.900000000000e-03 -1.425000000000e-03 4.750000000000e-04
      vertex -1.900000000000e-03 -1.425000000000e-03 9.500000000000e-04
    endloop
  endfacet
  facet normal 1.0 0.0 0.0
    outer loop
      vertex -1.900000000000e-03 -1.900000000000e-03 4.750000000000e-04
      vertex -1.900000000000e-03 -1.425000000000e-03 9.500000000000e-04
      vertex -1.900000000000e-03 -1.900000000000e-03 9.500000000000e-04
    endloop
  endfacet
  facet normal 1.0 0.0 0.0
    outer loop
      vertex -1.900000000000e-03 -1.900000000000e-03 9.500000000000e-04
      vertex -1.900000000000e-03 -1.425000000000e-03 9.500000000000e-04
      vertex -1.900000000000e-03 -1.425000000000e-03 1.425000000000e-03
    endloop
  endfacet
  facet normal 1.0 0.0 0.0
    outer loop
      vertex -1.900000000000e-03 -1.900000000000e-03 9.500000000000e-04
      vertex -1.900000000000e-03 -1.425000000000e-03 1.425000000000e-03
      vertex -1.900000000000e-03 -1.900000000000e-03 1.425000000000e-03
    endloop
  endfacet
  facet normal 1.0 0.0 0.0
    outer loop
      vertex -1.900000000000e-03 -1.900000000000e-03 1.425000000000e-03
      vertex -1.900000000000e-03 -1.425000000000e-03 1.425000000000e-03
      vertex -1.900000000000e-03 -1.425000000000e-03 1.900000000000e-03
    endloop
  endfacet
  facet normal 1.0 0.0 0.0
    outer loop
      vertex -1.900000000000e-03 -1.900000000000e-03 1.425000000000e-03
      vertex -1.900000000000e-03 -1.425000000000e-03 1.900000000000e-03
      vertex -1.900000000000e-03 -1.900000000000e-03 1.900000000000e-03
    endloop
  endfacet
  facet normal 1.0 0.0 0.0
    outer loop
      vertex -1.900000000000e-03 -1.425000000000e-03 -1.900000000000e-03
      vertex -1.900000000000e-03 -9.500000000000e-04 -1.900000000000e-03
      vertex -1.900000000000e-03 -9.500000000000e-04 -1.425000000000e-03
    endloop
  endfacet
  facet normal 1.0 0.0 0.0
    outer loop
      vertex -1.900000000000e-03 -1.425000000000e-03 -1.900000000000e-03
      vertex -1.900000000000e-03 -9.500000000000e-04 -1.425000000000e-03
      vertex -1.900000000000e-03 -1.425000000000e-03 -1.425000000000e-03
    endloop
  endfacet
  facet normal 1.0 0.0 0.0
    outer loop
      vertex -1.900000000000e-03 -1.425000000000e-03 -1.425000000000e-03
      vertex -1.900000000000e-03 -9.500000000000e-04 -1.425000000000e-03
      vertex -1.900000000000e-03 -9.500000000000e-04 -9.500000000000e-04
    endloop
  endfacet
  facet normal 1.0 0.0 0.0
    outer loop
      vertex -1.900000000000e-03 -1.425000000000e-03 -1.425000000000e-03
      vertex -1.900000000000e-03 -9.500000000000e-04 -9.500000000000e-04
      vertex -1.900000000000e-03 -1.425000000000e-03 -9.500000000000e-04
    endloop
  endfacet
  facet normal 1.0 0.0 0.0
    outer loop
      vertex -1.900000000000e-03 -1.425000000000e-03 -9.500000000000e-04
      vertex -1.900000000000e-03 -9.500000000000e-04 -9.500000000000e-04
      vertex -1.900000000000e-03 -9.500000000000e-04 -4.750000000000e-04
    endloop
  endfacet
  facet normal 1.0 0.0 0.0
    outer loop
      vertex -1.900000000000e-03 -1.425000000000e-03 -9.500000000000e-04
      vertex -1.900000000000e-03 -9.500000000000e-04 -4.750000000000e-04
      vertex -1.900000000000e-03 -1.425000000000e-03 -4.750000000000e-04
    endloop
  endfacet
  facet normal 1.0 0.0 0.0
    outer loop
      vertex -1.900000000000e-03 -1.425000000000e-03 -4.750000000000e-04
      vertex -1.900000000000e-03 -9.500000000000e-04 -4.750000000000e-04
      vertex -1.900000000000e-03 -9.500000000000e-04 5.421010862428e-20
    endloop
  endfacet
  facet normal 1.0 0.0 0.0
    outer loop
      vertex -1.900000000000e-03 -1.425000000000e-03 -4.750000000000e-04
      vertex -1.900000000000e-03 -9.500000000000e-04 5.421010862428e-20
      vertex -1.900000000000e-03 -1.425000000000e-03 5.421010862428e-20
    endloop
  endfacet
  facet normal 1.0 0.0 0.0
    outer loop
      vertex -1.900000000000e-03 -1.425000000000e-03 0.000000000000e+00
      vertex -1.900000000000e-03 -9.500000000000e-04 0.000000000000e+00
      vertex -1.900000000000e-03 -9.500000000000e-04 4.750000000000e-04
    endloop
  endfacet
  facet normal 1.0 0.0 0.0
    outer loop
      vertex -1.900000000000e-03 -1.425000000000e-03 0.000000000000e+00
      vertex -1.900000000000e-03 -9.500000000000e-04 4.750000000000e-04
      vertex -1.900000000000e-03 -1.425000000000e-03 4.750000000000e-04
    endloop
  endfacet
  facet normal 1.0 0.0 0.0
    outer loop
      vertex -1.900000000000e-03 -1.425000000000e-03 4.750000000000e-04
      vertex -1.900000000000e-03 -9.500000000000e-04 4.750000000000e-04
      vertex -1.900000000000e-03 -9.500000000000e-04 9.500000000000e-04
    endloop
  endfacet
  facet normal 1.0 0.0 0.0
    outer loop
      vertex -1.900000000000e-03 -1.425000000000e-03 4.750000000000e-04
      vertex -1.900000000000e-03 -9.500000000000e-04 9.500000000000e-04
      vertex -1.900000000000e-03 -1.425000000000e-03 9.500000000000e-04
    endloop
  endfacet
  facet normal 1.0 0.0 0.0
    outer loop
      vertex -1.900000000000e-03 -1.425000000000e-03 9.500000000000e-04
      vertex -1.900000000000e-03 -9.500000000000e-04 9.500000000000e-04
      vertex -1.900000000000e-03 -9.500000000000e-04 1.425000000000e-03
    endloop
  endfacet
  facet normal 1.0 0.0 0.0
    outer loop
      vertex -1.900000000000e-03 -1.425000000000e-03 9.500000000000e-04
      vertex -1.900000000000e-03 -9.500000000000e-04 1.425000000000e-03
      vertex -1.900000000000e-03 -1.425000000000e-03 1.425000000000e-03
    endloop
  endfacet
  facet normal 1.0 0.0 0.0
    outer loop
      vertex -1.900000000000e-03 -1.425000000000e-03 1.425000000000e-03
      vertex -1.900000000000e-03 -9.500000000000e-04 1.425000000000e-03
      vertex -1.900000000000e-03 -9.500000000000e-04 1.900000000000e-03
    endloop
  endfacet
  facet normal 1.0 0.0 0.0
    outer loop
      vertex -1.900000000000e-03 -1.425000000000e-03 1.425000000000e-03
      vertex -1.900000000000e-03 -9.500000000000e-04 1.900000000000e-03
      vertex -1.900000000000e-03 -1.425000000000e-03 1.900000000000e-03
    endloop
  endfacet
  facet normal 1.0 0.0 0.0
    outer loop
      vertex -1.900000000000e-03 -9.500000000000e-04 -1.900000000000e-03
      vertex -1.900000000000e-03 -4.750000000000e-04 -1.900000000000e-03
      vertex -1.900000000000e-03 -4.750000000000e-04 -1.425000000000e-03
    endloop
  endfacet
  facet normal 1.0 0.0 0.0
    outer loop
      vertex -1.900000000000e-03 -9.500000000000e-04 -1.900000000000e-03
      vertex -1.900000000000e-03 -4.750000000000e-04 -1.425000000000e-03
      vertex -1.900000000000e-03 -9.500000000000e-04 -1.425000000000e-03
    endloop
  endfacet
  facet normal 1.0 0.0 0.0
    outer loop
      vertex -1.900000000000e-03 -9.500000000000e-04 -1.425000000000e-03
      vertex -1.900000000000e-03 -4.750000000000e-04 -1.425000000000e-03
      vertex -1.900000000000e-03 -4.750000000000e-04 -9.500000000000e-04
    endloop
  endfacet
  facet normal 1.0 0.0 0.0
    outer loop
      vertex -1.900000000000e-03 -9.500000000000e-04 -1.425000000000e-03
      vertex -1.900000000000e-03 -4.750000000000e-04 -9.500000000000e-04
      vertex -1.900000000000e-03 -9.500000000000e-04 -9.500000000000e-04
    endloop
  endfacet
  facet normal 1.0 0.0 0.0
    outer loop
      vertex -1.900000000000e-03 -9.500000000000e-04 -9.500000000000e-04
      vertex -1.900000000000e-03 -4.750000000000e-04 -9.500000000000e-04
      vertex -1.900000000000e-03 -4.750000000000e-04 -4.750000000000e-04
    endloop
  endfacet
  facet normal 1.0 0.0 0.0
    outer loop
      vertex -1.900000000000e-03 -9.500000000000e-04 -9.500000000000e-04
      vertex -1.900000000000e-03 -4.750000000000e-04 -4.750000000000e-04
      vertex -1.900000000000e-03 -9.500000000000e-04 -4.750000000000e-04
    endloop
  endfacet
  facet normal 1.0 0.0 0.0
    outer loop
      vertex -1.900000000000e-03 -9.500000000000e-04 -4.750000000000e-04
      vertex -1.900000000000e-03 -4.750000000000e-04 -4.750000000000e-04
      vertex -1.900000000000e-03 -4.750000000000e-04 5.421010862428e-20
    endloop
  endfacet
  facet normal 1.0 0.0 0.0
    outer loop
      vertex -1.900000000000e-03 -9.500000000000e-04 -4.750000000000e-04
      vertex -1.900000000000e-03 -4.750000000000e-04 5.421010862428e-20
      vertex -1.900000000000e-03 -9.500000000000e-04 5.421010862428e-20
    endloop
  endfacet
  facet normal 1.0 0.0 0.0
    outer loop
      vertex -1.900000000000e-03 -9.500000000000e-04 0.000000000000e+00
      vertex -1.900000000000e-03 -4.750000000000e-04 0.000000000000e+00
      vertex -1.900000000000e-03 -4.750000000000e-04 4.750000000000e-04
    endloop
  endfacet
  facet normal 1.0 0.0 0.0
    outer loop
      vertex -1.900000000000e-03 -9.500000000000e-04 0.000000000000e+00
      vertex -1.900000000000e-03 -4.750000000000e-04 4.750000000000e-04
      vertex -1.900000000000e-03 -9.500000000000e-04 4.750000000000e-04
    endloop
  endfacet
  facet normal 1.0 0.0 0.0
    outer loop
      vertex -1.900000000000e-03 -9.500000000000e-04 4.750000000000e-04
      vertex -1.900000000000e-03 -4.750000000000e-04 4.750000000000e-04
      vertex -1.900000000000e-03 -4.750000000000e-04 9.500000000000e-04
    endloop
  endfacet
  facet normal 1.0 0.0 0.0
    outer loop
      vertex -1.900000000000e-03 -9.500000000000e-04 4.750000000000e-04
      vertex -1.900000000000e-03 -4.750000000000e-04 9.500000000000e-04
      vertex -1.900000000000e-03 -9.500000000000e-04 9.500000000000e-04
    endloop
  endfacet
  facet normal 1.0 0.0 0.0
    outer loop
      vertex -1.900000000000e-03 -9.500000000000e-04 9.500000000000e-04
      vertex -1.900000000000e-03 -4.750000000000e-04 9.500000000000e-04
      vertex -1.900000000000e-03 -4.750000000000e-04 1.425000000000e-03
    endloop
  endfacet
  facet normal 1.0 0.0 0.0
    outer loop
      vertex -1.900000000000e-03 -9.500000000000e-04 9.500000000000e-04
      vertex -1.900000000000e-03 -4.750000000000e-04 1.425000000000e-03
      vertex -1.900000000000e-03 -9.500000000000e-04 1.425000000000e-03
    endloop
  endfacet
  facet normal 1.0 0.0 0.0
    outer loop
      vertex -1.900000000000e-03 -9.500000000000e-04 1.425000000000e-03
      vertex -1.900000000000e-03 -4.750000000000e-04 1.425000000000e-03
      vertex -1.900000000000e-03 -4.750000000000e-04 1.900000000000e-03
    endloop
  endfacet
  facet normal 1.0 0.0 0.0
    outer loop
      vertex -1.900000000000e-03 -9.500000000000e-04 1.425000000000e-03
      vertex -1.900000000000e-03 -4.750000000000e-04 1.900000000000e-03
      vertex -1.900000000000e-03 -9.500000000000e-04 1.900000000000e-03
    endloop
  endfacet
  facet normal 1.0 0.0 0.0
    outer loop
      vertex -1.900000000000e-03 -4.750000000000e-04 -1.900000000000e-03
      vertex -1.900000000000e-03 5.421010862428e-20 -1.900000000000e-03
      vertex -1.900000000000e-03 5.421010862428e-20 -1.425000000000e-03
    endloop
  endfacet
  facet normal 1.0 0.0 0.0
    outer loop
      vertex -1.900000000000e-03 -4.750000000000e-04 -1.900000000000e-03
      vertex -1.900000000000e-03 5.421010862428e-20 -1.425000000000e-03
      vertex -1.900000000000e-03 -4.750000000000e-04 -1.425000000000e-03
    endloop
  endfacet
  facet normal 1.0 0.0 0.0
    outer loop
      vertex -1.900000000000e-03 -4.750000000000e-04 -1.425000000000e-03
      vertex -1.900000000000e-03 5.421010862428e-20 -1.425000000000e-03
      vertex -1.900000000000e-03 5.421010862428e-20 -9.500000000000e-04
    endloop
  endfacet
  facet normal 1.0 0.0 0.0
    outer loop
      vertex -1.900000000000e-03 -4.750000000000e-04 -1.425000000000e-03
      vertex -1.900000000000e-03 5.421010862428e-20 -9.500000000000e-04
      vertex -1.900000000000e-03 -4.750000000000e-04 -9.500000000000e-04
    endloop
  endfacet
  facet normal 1.0 0.0 0.0
    outer loop
      vertex -1.900000000000e-03 -4.750000000000e-04 -9.500000000000e-04
      vertex -1.900000000000e-03 5.421010862428e-20 -9.500000000000e-04
      vertex -1.900000000000e-03 5.421010862428e-20 -4.750000000000e-04
    endloop
  endfacet
  facet normal 1.0 0.0 0.0
    outer loop
      vertex -1.900000000000e-03 -4.750000000000e-04 -9.500000000000e-04
      vertex -1.900000000000e-03 5.421010862428e-20 -4.750000000000e-04
      vertex -1.900000000000e-03 -4.750000000000e-04 -4.750000000000e-04
    endloop
  endfacet
  facet normal 1.0 0.0 0.0
    outer loop
      vertex -1.900000000000e-03 -4.750000000000e-04 -4.750000000000e-04
      vertex -1.900000000000e-03 5.421010862428e-20 -4.750000000000e-04
      vertex -1.900000000000e-03 5.421010862428e-20 5.421010862428e-20
    endloop
  endfacet
  facet normal 1.0 0.0 0.0
    outer loop
      vertex -1.900000000000e-03 -4.750000000000e-04 -4.750000000000e-04
      vertex -1.900000000000e-03 5.421010862428e-20 5.421010862428e-20
      vertex -1.900000000000e-03 -4.750000000000e-04 5.421010862428e-20
    endloop
  endfacet
  facet normal 1.0 0.0 0.0
    outer loop
      vertex -1.900000000000e-03 -4.750000000000e-04 0.000000000000e+00
      vertex -1.900000000000e-03 5.421010862428e-20 0.000000000000e+00
      vertex -1.900000000000e-03 5.421010862428e-20 4.750000000000e-04
    endloop
  endfacet
  facet normal 1.0 0.0 0.0
    outer loop
      vertex -1.900000000000e-03 -4.750000000000e-04 0.000000000000e+00
      vertex -1.900000000000e-03 5.421010862428e-20 4.750000000000e-04
      vertex -1.900000000000e-03 -4.750000000000e-04 4.750000000000e-04
    endloop
  endfacet
  facet normal 1.0 0.0 0.0
    outer loop
      vertex -1.900000000000e-03 -4.750000000000e-04 4.750000000000e-04
      vertex -1.900000000000e-03 5.421010862428e-20 4.750000000000e-04
      vertex -1.900000000000e-03 5.421010862428e-20 9.500000000000e-04
    endloop
  endfacet
  facet normal 1.0 0.0 0.0
    outer loop
      vertex -1.900000000000e-03 -4.750000000000e-04 4.750000000000e-04
      vertex -1.900000000000e-03 5.421010862428e-20 9.500000000000e-04
      vertex -1.900000000000e-03 -4.750000000000e-04 9.500000000000e-04
    endloop
  endfacet
  facet normal 1.0 0.0 0.0
    outer loop
      vertex -1.900000000000e-03 -4.750000000000e-04 9.500000000000e-04
      vertex -1.900000000000e-03 5.421010862428e-20 9.500000000000e-04
      vertex -1.900000000000e-03 5.421010862428e-20 1.425000000000e-03
    endloop
  endfacet
  facet normal 1.0 0.0 0.0
    outer loop
      vertex -1.900000000000e-03 -4.750000000000e-04 9.500000000000e-04
      vertex -1.900000000000e-03 5.421010862428e-20 1.425000000000e-03
      vertex -1.900000000000e-03 -4.750000000000e-04 1.425000000000e-03
    endloop
  endfacet
  facet normal 1.0 0.0 0.0
    outer loop
      vertex -1.900000000000e-03 -4.750000000000e-04 1.425000000000e-03
      vertex -1.900000000000e-03 5.421010862428e-20 1.425000000000e-03
      vertex -1.900000000000e-03 5.421010862428e-20 1.900000000000e-03
    endloop
  endfacet
  facet normal 1.0 0.0 0.0
    outer loop
      vertex -1.900000000000e-03 -4.750000000000e-04 1.425000000000e-03
      vertex -1.900000000000e-03 5.421010862428e-20 1.900000000000e-03
      vertex -1.900000000000e-03 -4.750000000000e-04 1.900000000000e-03
    endloop
  endfacet
  facet normal 1.0 0.0 0.0
    outer loop
      vertex -1.900000000000e-03 0.000000000000e+00 -1.900000000000e-03
      vertex -1.900000000000e-03 4.750000000000e-04 -1.900000000000e-03
      vertex -1.900000000000e-03 4.750000000000e-04 -1.425000000000e-03
    endloop
  endfacet
  facet normal 1.0 0.0 0.0
    outer loop
      vertex -1.900000000000e-03 0.000000000000e+00 -1.900000000000e-03
      vertex -1.900000000000e-03 4.750000000000e-04 -1.425000000000e-03
      vertex -1.900000000000e-03 0.000000000000e+00 -1.425000000000e-03
    endloop
  endfacet
  facet normal 1.0 0.0 0.0
    outer loop
      vertex -1.900000000000e-03 0.000000000000e+00 -1.425000000000e-03
      vertex -1.900000000000e-03 4.750000000000e-04 -1.425000000000e-03
      vertex -1.900000000000e-03 4.750000000000e-04 -9.500000000000e-04
    endloop
  endfacet
  facet normal 1.0 0.0 0.0
    outer loop
      vertex -1.900000000000e-03 0.000000000000e+00 -1.425000000000e-03
      vertex -1.900000000000e-03 4.750000000000e-04 -9.500000000000e-04
      vertex -1.900000000000e-03 0.000000000000e+00 -9.500000000000e-04
    endloop
  endfacet
  facet normal 1.0 0.0 0.0
    outer loop
      vertex -1.900000000000e-03 0.000000000000e+00 -9.500000000000e-04
      vertex -1.900000000000e-03 4.750000000000e-04 -9.500000000000e-04
      vertex -1.900000000000e-03 4.750000000000e-04 -4.750000000000e-04
    endloop
  endfacet
  facet normal 1.0 0.0 0.0
    outer loop
      vertex -1.900000000000e-03 0.000000000000e+00 -9.500000000000e-04
      vertex -1.900000000000e-03 4.750000000000e-04 -4.750000000000e-04
      vertex -1.900000000000e-03 0.000000000000e+00 -4.750000000000e-04
    endloop
  endfacet
  facet normal 1.0 0.0 0.0
    outer loop
      vertex -1.900000000000e-03 0.000000000000e+00 -4.750000000000e-04
      vertex -1.900000000000e-03 4.750000000000e-04 -4.750000000000e-04
      vertex -1.900000000000e-03 4.750000000000e-04 5.421010862428e-20
    endloop
  endfacet
  facet normal 1.0 0.0 0.0
    outer loop
      vertex -1.900000000000e-03 0.000000000000e+00 -4.750000000000e-04
      vertex -1.900000000000e-03 4.750000000000e-04 5.421010862428e-20
      vertex -1.900000000000e-03 0.000000000000e+00 5.421010862428e-20
    endloop
  endfacet
  facet normal 1.0 0.0 0.0
    outer loop
      vertex -1.900000000000e-03 0.000000000000e+00 0.000000000000e+00
      vertex -1.900000000000e-03 4.750000000000e-04 0.000000000000e+00
      vertex -1.900000000000e-03 4.750000000000e-04 4.750000000000e-04
    endloop
  endfacet
  facet normal 1.0 0.0 0.0
    outer loop
      vertex -1.900000000000e-03 0.000000000000e+00 0.000000000000e+00
      vertex -1.900000000000e-03 4.750000000000e-04 4.750000000000e-04
      vertex -1.900000000000e-03 0.000000000000e+00 4.750000000000e-04
    endloop
  endfacet
  facet normal 1.0 0.0 0.0
    outer loop
      vertex -1.900000000000e-03 0.000000000000e+00 4.750000000000e-04
      vertex -1.900000000000e-03 4.750000000000e-04 4.750000000000e-04
      vertex -1.900000000000e-03 4.750000000000e-04 9.500000000000e-04
    endloop
  endfacet
  facet normal 1.0 0.0 0.0
    outer loop
      vertex -1.900000000000e-03 0.000000000000e+00 4.750000000000e-04
      vertex -1.900000000000e-03 4.750000000000e-04 9.500000000000e-04
      vertex -1.900000000000e-03 0.000000000000e+00 9.500000000000e-04
    endloop
  endfacet
  facet normal 1.0 0.0 0.0
    outer loop
      vertex -1.900000000000e-03 0.000000000000e+00 9.500000000000e-04
      vertex -1.900000000000e-03 4.750000000000e-04 9.500000000000e-04
      vertex -1.900000000000e-03 4.750000000000e-04 1.425000000000e-03
    endloop
  endfacet
  facet normal 1.0 0.0 0.0
    outer loop
      vertex -1.900000000000e-03 0.000000000000e+00 9.500000000000e-04
      vertex -1.900000000000e-03 4.750000000000e-04 1.425000000000e-03
      vertex -1.900000000000e-03 0.000000000000e+00 1.425000000000e-03
    endloop
  endfacet
  facet normal 1.0 0.0 0.0
    outer loop
      vertex -1.900000000000e-03 0.000000000000e+00 1.425000000000e-03
      vertex -1.900000000000e-03 4.750000000000e-04 1.425000000000e-03
      vertex -1.900000000000e-03 4.750000000000e-04 1.900000000000e-03
    endloop
  endfacet
  facet normal 1.0 0.0 0.0
    outer loop
      vertex -1.900000000000e-03 0.000000000000e+00 1.425000000000e-03
      vertex -1.900000000000e-03 4.750000000000e-04 1.900000000000e-03
      vertex -1.900000000000e-03 0.000000000000e+00 1.900000000000e-03
    endloop
  endfacet
  facet normal 1.0 0.0 0.0
    outer loop
      vertex -1.900000000000e-03 4.750000000000e-04 -1.900000000000e-03
      vertex -1.900000000000e-03 9.500000000000e-04 -1.900000000000e-03
      vertex -1.900000000000e-03 9.500000000000e-04 -1.425000000000e-03
    endloop
  endfacet
  facet normal 1.0 0.0 0.0
    outer loop
      vertex -1.900000000000e-03 4.750000000000e-04 -1.900000000000e-03
      vertex -1.900000000000e-03 9.500000000000e-04 -1.425000000000e-03
      vertex -1.900000000000e-03 4.750000000000e-04 -1.425000000000e-03
    endloop
  endfacet
  facet normal 1.0 0.0 0.0
    outer loop
      vertex -1.900000000000e-03 4.750000000000e-04 -1.425000000000e-03
      vertex -1.900000000000e-03 9.500000000000e-04 -1.425000000000e-03
      vertex -1.900000000000e-03 9.500000000000e-04 -9.500000000000e-04
    endloop
  endfacet
  facet normal 1.0 0.0 0.0
    outer loop
      vertex -1.900000000000e-03 4.750000000000e-04 -1.425000000000e-03
      vertex -1.900000000000e-03 9.500000000000e-04 -9.500000000000e-04
      vertex -1.900000000000e-03 4.750000000000e-04 -9.500000000000e-04
    endloop
  endfacet
  facet normal 1.0 0.0 0.0
    outer loop
      vertex -1.900000000000e-03 4.750000000000e-04 -9.500000000000e-04
      vertex -1.900000000000e-03 9.500000000000e-04 -9.500000000000e-04
      vertex -1.900000000000e-03 9.500000000000e-04 -4.750000000000e-04
    endloop
  endfacet
  facet normal 1.0 0.0 0.0
    outer loop
      vertex -1.900000000000e-03 4.750000000000e-04 -9.500000000000e-04
      vertex -1.900000000000e-03 9.500000000000e-04 -4.750000000000e-04
      vertex -1.900000000000e-03 4.750000000000e-04 -4.750000000000e-04
    endloop
  endfacet
  facet normal 1.0 0.0 0.0
    outer loop
      vertex -1.900000000000e-03 4.750000000000e-04 -4.750000000000e-04
      vertex -1.900000000000e-03 9.500000000000e-04 -4.750000000000e-04
      vertex -1.900000000000e-03 9.500000000000e-04 5.421010862428e-20
    endloop
  endfacet
  facet normal 1.0 0.0 0.0
    outer loop
      vertex -1.900000000000e-03 4.750000000000e-04 -4.750000000000e-04
      vertex -1.900000000000e-03 9.500000000000e-04 5.421010862428e-20
      vertex -1.900000000000e-03 4.750000000000e-04 5.421010862428e-20
    endloop
  endfacet
  facet normal 1.0 0.0 0.0
    outer loop
      vertex -1.900000000000e-03 4.750000000000e-04 0.000000000000e+00
      vertex -1.900000000000e-03 9.500000000000e-04 0.000000000000e+00
      vertex -1.900000000000e-03 9.500000000000e-04 4.750000000000e-04
    endloop
  endfacet
  facet normal 1.0 0.0 0.0
    outer loop
      vertex -1.900000000000e-03 4.750000000000e-04 0.000000000000e+00
      vertex -1.900000000000e-03 9.500000000000e-04 4.750000000000e-04
      vertex -1.900000000000e-03 4.750000000000e-04 4.750000000000e-04
    endloop
  endfacet
  facet normal 1.0 0.0 0.0
    outer loop
      vertex -1.900000000000e-03 4.750000000000e-04 4.750000000000e-04
      vertex -1.900000000000e-03 9.500000000000e-04 4.750000000000e-04
      vertex -1.900000000000e-03 9.500000000000e-04 9.500000000000e-04
    endloop
  endfacet
  facet normal 1.0 0.0 0.0
    outer loop
      vertex -1.900000000000e-03 4.750000000000e-04 4.750000000000e-04
      vertex -1.900000000000e-03 9.500000000000e-04 9.500000000000e-04
      vertex -1.900000000000e-03 4.750000000000e-04 9.500000000000e-04
    endloop
  endfacet
  facet normal 1.0 0.0 0.0
    outer loop
      vertex -1.900000000000e-03 4.750000000000e-04 9.500000000000e-04
      vertex -1.900000000000e-03 9.500000000000e-04 9.500000000000e-04
      vertex -1.900000000000e-03 9.500000000000e-04 1.425000000000e-03
    endloop
  endfacet
  facet normal 1.0 0.0 0.0
    outer loop
      vertex -1.900000000000e-03 4.750000000000e-04 9.500000000000e-04
      vertex -1.900000000000e-03 9.500000000000e-04 1.425000000000e-03
      vertex -1.900000000000e-03 4.750000000000e-04 1.425000000000e-03
    endloop
  endfacet
  facet normal 1.0 0.0 0.0
    outer loop
      vertex -1.900000000000e-03 4.750000000000e-04 1.425000000000e-03
      vertex -1.900000000000e-03 9.500000000000e-04 1.425000000000e-03
      vertex -1.900000000000e-03 9.500000000000e-04 1.900000000000e-03
    endloop
  endfacet
  facet normal 1.0 0.0 0.0
    outer loop
      vertex -1.900000000000e-03 4.750000000000e-04 1.425000000000e-03
      vertex -1.900000000000e-03 9.500000000000e-04 1.900000000000e-03
      vertex -1.900000000000e-03 4.750000000000e-04 1.900000000000e-03
    endloop
  endfacet
  facet normal 1.0 0.0 0.0
    outer loop
      vertex -1.900000000000e-03 9.500000000000e-04 -1.900000000000e-03
      vertex -1.900000000000e-03 1.425000000000e-03 -1.900000000000e-03
      vertex -1.900000000000e-03 1.425000000000e-03 -1.425000000000e-03
    endloop
  endfacet
  facet normal 1.0 0.0 0.0
    outer loop
      vertex -1.900000000000e-03 9.500000000000e-04 -1.900000000000e-03
      vertex -1.900000000000e-03 1.425000000000e-03 -1.425000000000e-03
      vertex -1.900000000000e-03 9.500000000000e-04 -1.425000000000e-03
    endloop
  endfacet
  facet normal 1.0 0.0 0.0
    outer loop
      vertex -1.900000000000e-03 9.500000000000e-04 -1.425000000000e-03
      vertex -1.900000000000e-03 1.425000000000e-03 -1.425000000000e-03
      vertex -1.900000000000e-03 1.425000000000e-03 -9.500000000000e-04
    endloop
  endfacet
  facet normal 1.0 0.0 0.0
    outer loop
      vertex -1.900000000000e-03 9.500000000000e-04 -1.425000000000e-03
      vertex -1.900000000000e-03 1.425000000000e-03 -9.500000000000e-04
      vertex -1.900000000000e-03 9.500000000000e-04 -9.500000000000e-04
    endloop
  endfacet
  facet normal 1.0 0.0 0.0
    outer loop
      vertex -1.900000000000e-03 9.500000000000e-04 -9.500000000000e-04
      vertex -1.900000000000e-03 1.425000000000e-03 -9.500000000000e-04
      vertex -1.900000000000e-03 1.425000000000e-03 -4.750000000000e-04
    endloop
  endfacet
  facet normal 1.0 0.0 0.0
    outer loop
      vertex -1.900000000000e-03 9.500000000000e-04 -9.500000000000e-04
      vertex -1.900000000000e-03 1.425000000000e-03 -4.750000000000e-04
      vertex -1.900000000000e-03 9.500000000000e-04 -4.750000000000e-04
    endloop
  endfacet
  facet normal 1.0 0.0 0.0
    outer loop
      vertex -1.900000000000e-03 9.500000000000e-04 -4.750000000000e-04
      vertex -1.900000000000e-03 1.425000000000e-03 -4.750000000000e-04
      vertex -1.900000000000e-03 1.425000000000e-03 5.421010862428e-20
    endloop
  endfacet
  facet normal 1.0 0.0 0.0
    outer loop
      vertex -1.900000000000e-03 9.500000000000e-04 -4.750000000000e-04
      vertex -1.900000000000e-03 1.425000000000e-03 5.421010862428e-20
      vertex -1.900000000000e-03 9.500000000000e-04 5.421010862428e-20
    endloop
  endfacet
  facet normal 1.0 0.0 0.0
    outer loop
      vertex -1.900000000000e-03 9.500000000000e-04 0.000000000000e+00
      vertex -1.900000000000e-03 1.425000000000e-03 0.000000000000e+00
      vertex -1.900000000000e-03 1.425000000000e-03 4.750000000000e-04
    endloop
  endfacet
  facet normal 1.0 0.0 0.0
    outer loop
      vertex -1.900000000000e-03 9.500000000000e-04 0.000000000000e+00
      vertex -1.900000000000e-03 1.425000000000e-03 4.750000000000e-04
      vertex -1.900000000000e-03 9.500000000000e-04 4.750000000000e-04
    endloop
  endfacet
  facet normal 1.0 0.0 0.0
    outer loop
      vertex -1.900000000000e-03 9.500000000000e-04 4.750000000000e-04
      vertex -1.900000000000e-03 1.425000000000e-03 4.750000000000e-04
      vertex -1.900000000000e-03 1.425000000000e-03 9.500000000000e-04
    endloop
  endfacet
  facet normal 1.0 0.0 0.0
    outer loop
      vertex -1.900000000000e-03 9.500000000000e-04 4.750000000000e-04
      vertex -1.900000000000e-03 1.425000000000e-03 9.500000000000e-04
      vertex -1.900000000000e-03 9.500000000000e-04 9.500000000000e-04
    endloop
  endfacet
  facet normal 1.0 0.0 0.0
    outer loop
      vertex -1.900000000000e-03 9.500000000000e-04 9.500000000000e-04
      vertex -1.900000000000e-03 1.425000000000e-03 9.500000000000e-04
      vertex -1.900000000000e-03 1.425000000000e-03 1.425000000000e-03
    endloop
  endfacet
  facet normal 1.0 0.0 0.0
    outer loop
      vertex -1.900000000000e-03 9.500000000000e-04 9.500000000000e-04
      vertex -1.900000000000e-03 1.425000000000e-03 1.425000000000e-03
      vertex -1.900000000000e-03 9.500000000000e-04 1.425000000000e-03
    endloop
  endfacet
  facet normal 1.0 0.0 0.0
    outer loop
      vertex -1.900000000000e-03 9.500000000000e-04 1.425000000000e-03
      vertex -1.900000000000e-03 1.425000000000e-03 1.425000000000e-03
      vertex -1.900000000000e-03 1.425000000000e-03 1.900000000000e-03
    endloop
  endfacet
  facet normal 1.0 0.0 0.0
    outer loop
      vertex -1.900000000000e-03 9.500000000000e-04 1.425000000000e-03
      vertex -1.900000000000e-03 1.425000000000e-03 1.900000000000e-03
      vertex -1.900000000000e-03 9.500000000000e-04 1.900000000000e-03
    endloop
  endfacet
  facet normal 1.0 0.0 0.0
    outer loop
      vertex -1.900000000000e-03 1.425000000000e-03 -1.900000000000e-03
      vertex -1.900000000000e-03 1.900000000000e-03 -1.900000000000e-03
      vertex -1.900000000000e-03 1.900000000000e-03 -1.425000000000e-03
    endloop
  endfacet
  facet normal 1.0 0.0 0.0
    outer loop
      vertex -1.900000000000e-03 1.425000000000e-03 -1.900000000000e-03
      vertex -1.900000000000e-03 1.900000000000e-03 -1.425000000000e-03
      vertex -1.900000000000e-03 1.425000000000e-03 -1.425000000000e-03
    endloop
  endfacet
  facet normal 1.0 0.0 0.0
    outer loop
      vertex -1.900000000000e-03 1.425000000000e-03 -1.425000000000e-03
      vertex -1.900000000000e-03 1.900000000000e-03 -1.425000000000e-03
      vertex -1.900000000000e-03 1.900000000000e-03 -9.500000000000e-04
    endloop
  endfacet
  facet normal 1.0 0.0 0.0
    outer loop
      vertex -1.900000000000e-03 1.425000000000e-03 -1.425000000000e-03
      vertex -1.900000000000e-03 1.900000000000e-03 -9.500000000000e-04
      vertex -1.900000000000e-03 1.425000000000e-03 -9.500000000000e-04
    endloop
  endfacet
  facet normal 1.0 0.0 0.0
    outer loop
      vertex -1.900000000000e-03 1.425000000000e-03 -9.500000000000e-04
      vertex -1.900000000000e-03 1.900000000000e-03 -9.500000000000e-04
      vertex -1.900000000000e-03 1.900000000000e-03 -4.750000000000e-04
    endloop
  endfacet
  facet normal 1.0 0.0 0.0
    outer loop
      vertex -1.900000000000e-03 1.425000000000e-03 -9.500000000000e-04
      vertex -1.900000000000e-03 1.900000000000e-03 -4.750000000000e-04
      vertex -1.900000000000e-03 1.425000000000e-03 -4.750000000000e-04
    endloop
  endfacet
  facet normal 1.0 0.0 0.0
    outer loop
      vertex -1.900000000000e-03 1.425000000000e-03 -4.750000000000e-04
      vertex -1.900000000000e-03 1.900000000000e-03 -4.750000000000e-04
      vertex -1.900000000000e-03 1.900000000000e-03 5.421010862428e-20
    endloop
  endfacet
  facet normal 1.0 0.0 0.0
    outer loop
      vertex -1.900000000000e-03 1.425000000000e-03 -4.750000000000e-04
      vertex -1.900000000000e-03 1.900000000000e-03 5.421010862428e-20
      vertex -1.900000000000e-03 1.425000000000e-03 5.421010862428e-20
    endloop
  endfacet
  facet normal 1.0 0.0 0.0
    outer loop
      vertex -1.900000000000e-03 1.425000000000e-03 0.000000000000e+00
      vertex -1.900000000000e-03 1.900000000000e-03 0.000000000000e+00
      vertex -1.900000000000e-03 1.900000000000e-03 4.750000000000e-04
    endloop
  endfacet
  facet normal 1.0 0.0 0.0
    outer loop
      vertex -1.900000000000e-03 1.425000000000e-03 0.000000000000e+00
      vertex -1.900000000000e-03 1.900000000000e-03 4.750000000000e-04
      vertex -1.900000000000e-03 1.425000000000e-03 4.750000000000e-04
    endloop
  endfacet
  facet normal 1.0 0.0 0.0
    outer loop
      vertex -1.900000000000e-03 1.425000000000e-03 4.750000000000e-04
      vertex -1.900000000000e-03 1.900000000000e-03 4.750000000000e-04
      vertex -1.900000000000e-03 1.900000000000e-03 9.500000000000e-04
    endloop
  endfacet
  facet normal 1.0 0.0 0.0
    outer loop
      vertex -1.900000000000e-03 1.425000000000e-03 4.750000000000e-04
      vertex -1.900000000000e-03 1.900000000000e-03 9.500000000000e-04
      vertex -1.900000000000e-03 1.425000000000e-03 9.500000000000e-04
    endloop
  endfacet
  facet normal 1.0 0.0 0.0
    outer loop
      vertex -1.900000000000e-03 1.425000000000e-03 9.500000000000e-04
      vertex -1.900000000000e-03 1.900000000000e-03 9.500000000000e-04
      vertex -1.900000000000e-03 1.900000000000e-03 1.425000000000e-03
    endloop
  endfacet
  facet normal 1.0 0.0 0.0
    outer loop
      vertex -1.900000000000e-03 1.425000000000e-03 9.500000000000e-04
      vertex -1.900000000000e-03 1.900000000000e-03 1.425000000000e-03
      vertex -1.900000000000e-03 1.425000000000e-03 1.425000000000e-03
    endloop
  endfacet
  facet normal 1.0 0.0 0.0
    outer loop
      vertex -1.900000000000e-03 1.425000000000e-03 1.425000000000e-03
      vertex -1.900000000000e-03 1.900000000000e-03 1.425000000000e-03
      vertex -1.900000000000e-03 1.900000000000e-03 1.900000000000e-03
    endloop
  endfacet
  facet normal 1.0 0.0 0.0
    outer loop
      vertex -1.900000000000e-03 1.425000000000e-03 1.425000000000e-03
      vertex -1.900000000000e-03 1.900000000000e-03 1.900000000000e-03
      vertex -1.900000000000e-03 1.425000000000e-03 1.900000000000e-03
    endloop
  endfacet
endsolid wall
