solid wall
  facet normal -1.0 0.0 0.0
    outer loop
      vertex 3.000000000000e-03 -3.000000000000e-03 0.000000000000e+00
      vertex 3.000000000000e-03 -2.500000000000e-03 3.109134666667e-04
      vertex 3.000000000000e-03 -2.500000000000e-03 0.000000000000e+00
    endloop
  endfacet
  facet normal -1.0 0.0 0.0
    outer loop
      vertex 3.000000000000e-03 -3.000000000000e-03 0.000000000000e+00
      vertex 3.000000000000e-03 -3.000000000000e-03 3.109134666667e-04
      vertex 3.000000000000e-03 -2.500000000000e-03 3.109134666667e-04
    endloop
  endfacet
  facet normal -1.0 0.0 0.0
    outer loop
      vertex 3.000000000000e-03 -3.000000000000e-03 3.109134666667e-04
      vertex 3.000000000000e-03 -2.500000000000e-03 6.218269333333e-04
      vertex 3.000000000000e-03 -2.500000000000e-03 3.109134666667e-04
    endloop
  endfacet
  facet normal -1.0 0.0 0.0
    outer loop
      vertex 3.000000000000e-03 -3.000000000000e-03 3.109134666667e-04
      vertex 3.000000000000e-03 -3.000000000000e-03 6.218269333333e-04
      vertex 3.000000000000e-03 -2.500000000000e-03 6.218269333333e-04
    endloop
  endfacet
  facet normal -1.0 0.0 0.0
    outer loop
      vertex 3.000000000000e-03 -3.000000000000e-03 6.218269333333e-04
      vertex 3.000000000000e-03 -2.500000000000e-03 9.327404000000e-04
      vertex 3.000000000000e-03 -2.500000000000e-03 6.218269333333e-04
    endloop
  endfacet
  facet normal -1.0 0.0 0.0
    outer loop
      vertex 3.000000000000e-03 -3.000000000000e-03 6.218269333333e-04
      vertex 3.000000000000e-03 -3.000000000000e-03 9.327404000000e-04
      vertex 3.000000000000e-03 -2.500000000000e-03 9.327404000000e-04
    endloop
  endfacet
  facet normal -1.0 0.0 0.0
    outer loop
      vertex 3.000000000000e-03 -3.000000000000e-03 9.327404000000e-04
      vertex 3.000000000000e-03 -2.500000000000e-03 1.243653866667e-03
      vertex 3.000000000000e-03 -2.500000000000e-03 9.327404000000e-04
    endloop
  endfacet
  facet normal -1.0 0.0 0.0
    outer loop
      vertex 3.000000000000e-03 -3.000000000000e-03 9.327404000000e-04
      vertex 3.000000000000e-03 -3.000000000000e-03 1.243653866667e-03
      vertex 3.000000000000e-03 -2.500000000000e-03 1.243653866667e-03
    endloop
  endfacet
  facet normal -1.0 0.0 0.0
    outer loop
      vertex 3.000000000000e-03 -3.000000000000e-03 1.243653866667e-03
      vertex 3.000000000000e-03 -2.500000000000e-03 1.554567333333e-03
      vertex 3.000000000000e-03 -2.500000000000e-03 1.243653866667e-03
    endloop
  endfacet
  facet normal -1.0 0.0 0.0
    outer loop
      vertex 3.000000000000e-03 -3.000000000000e-03 1.243653866667e-03
      vertex 3.000000000000e-03 -3.000000000000e-03 1.554567333333e-03
      vertex 3.000000000000e-03 -2.500000000000e-03 1.554567333333e-03
    endloop
  endfacet
  facet normal -1.0 0.0 0.0
    outer loop
      vertex 3.000000000000e-03 -3.000000000000e-03 1.554567333333e-03
      vertex 3.000000000000e-03 -2.500000000000e-03 1.865480800000e-03
      vertex 3.000000000000e-03 -2.500000000000e-03 1.554567333333e-03
    endloop
  endfacet
  facet normal -1.0 0.0 0.0
    outer loop
      vertex 3.000000000000e-03 -3.000000000000e-03 1.554567333333e-03
      vertex 3.000000000000e-03 -3.000000000000e-03 1.865480800000e-03
      vertex 3.000000000000e-03 -2.500000000000e-03 1.865480800000e-03
    endloop
  endfacet
  facet normal -1.0 0.0 0.0
    outer loop
      vertex 3.000000000000e-03 -3.000000000000e-03 1.865480800000e-03
      vertex 3.000000000000e-03 -2.500000000000e-03 2.176394266667e-03
      vertex 3.000000000000e-03 -2.500000000000e-03 1.865480800000e-03
    endloop
  endfacet
  facet normal -1.0 0.0 0.0
    outer loop
      vertex 3.000000000000e-03 -3.000000000000e-03 1.865480800000e-03
      vertex 3.000000000000e-03 -3.000000000000e-03 2.176394266667e-03
      vertex 3.000000000000e-03 -2.500000000000e-03 2.176394266667e-03
    endloop
  endfacet
  facet normal -1.0 0.0 0.0
    outer loop
      vertex 3.000000000000e-03 -3.000000000000e-03 2.176394266667e-03
      vertex 3.000000000000e-03 -2.500000000000e-03 2.487307733333e-03
      vertex 3.000000000000e-03 -2.500000000000e-03 2.176394266667e-03
    endloop
  endfacet
  facet normal -1.0 0.0 0.0
    outer loop
      vertex 3.000000000000e-03 -3.000000000000e-03 2.176394266667e-03
      vertex 3.000000000000e-03 -3.000000000000e-03 2.487307733333e-03
      vertex 3.000000000000e-03 -2.500000000000e-03 2.487307733333e-03
    endloop
  endfacet
  facet normal -1.0 0.0 0.0
    outer loop
      vertex 3.000000000000e-03 -3.000000000000e-03 2.487307733333e-03
      vertex 3.000000000000e-03 -2.500000000000e-03 2.798221200000e-03
      vertex 3.000000000000e-03 -2.500000000000e-03 2.487307733333e-03
    endloop
  endfacet
  facet normal -1.0 0.0 0.0
    outer loop
      vertex 3.000000000000e-03 -3.000000000000e-03 2.487307733333e-03
      vertex 3.000000000000e-03 -3.000000000000e-03 2.798221200000e-03
      vertex 3.000000000000e-03 -2.500000000000e-03 2.798221200000e-03
    endloop
  endfacet
  facet normal -1.0 0.0 0.0
    outer loop
      vertex 3.000000000000e-03 -3.000000000000e-03 2.798221200000e-03
      vertex 3.000000000000e-03 -2.500000000000e-03 3.109134666667e-03
      vertex 3.000000000000e-03 -2.500000000000e-03 2.798221200000e-03
    endloop
  endfacet
  facet normal -1.0 0.0 0.0
    outer loop
      vertex 3.000000000000e-03 -3.000000000000e-03 2.798221200000e-03
      vertex 3.000000000000e-03 -3.000000000000e-03 3.109134666667e-03
      vertex 3.000000000000e-03 -2.500000000000e-03 3.109134666667e-03
    endloop
  endfacet
  facet normal -1.0 0.0 0.0
    outer loop
      vertex 3.000000000000e-03 -3.000000000000e-03 3.109134666667e-03
      vertex 3.000000000000e-03 -2.500000000000e-03 3.420048133333e-03
      vertex 3.000000000000e-03 -2.500000000000e-03 3.109134666667e-03
    endloop
  endfacet
  facet normal -1.0 0.0 0.0
    outer loop
      vertex 3.000000000000e-03 -3.000000000000e-03 3.109134666667e-03
      vertex 3.000000000000e-03 -3.000000000000e-03 3.420048133333e-03
      vertex 3.000000000000e-03 -2.500000000000e-03 3.420048133333e-03
    endloop
  endfacet
  facet normal -1.0 0.0 0.0
    outer loop
      vertex 3.000000000000e-03 -3.000000000000e-03 3.420048133333e-03
      vertex 3.000000000000e-03 -2.500000000000e-03 3.730961600000e-03
      vertex 3.000000000000e-03 -2.500000000000e-03 3.420048133333e-03
    endloop
  endfacet
  facet normal -1.0 0.0 0.0
    outer loop
      vertex 3.000000000000e-03 -3.000000000000e-03 3.420048133333e-03
      vertex 3.000000000000e-03 -3.000000000000e-03 3.730961600000e-03
      vertex 3.000000000000e-03 -2.500000000000e-03 3.730961600000e-03
    endloop
  endfacet
  facet normal -1.0 0.0 0.0
    outer loop
      vertex 3.000000000000e-03 -2.500000000000e-03 0.000000000000e+00
      vertex 3.000000000000e-03 -2.000000000000e-03 3.109134666667e-04
      vertex 3.000000000000e-03 -2.000000000000e-03 0.000000000000e+00
    endloop
  endfacet
  facet normal -1.0 0.0 0.0
    outer loop
      vertex 3.000000000000e-03 -2.500000000000e-03 0.000000000000e+00
      vertex 3.000000000000e-03 -2.500000000000e-03 3.109134666667e-04
      vertex 3.000000000000e-03 -2.000000000000e-03 3.109134666667e-04
    endloop
  endfacet
  facet normal -1.0 0.0 0.0
    outer loop
      vertex 3.000000000000e-03 -2.500000000000e-03 3.109134666667e-04
      vertex 3.000000000000e-03 -2.000000000000e-03 6.218269333333e-04
      vertex 3.000000000000e-03 -2.000000000000e-03 3.109134666667e-04
    endloop
  endfacet
  facet normal -1.0 0.0 0.0
    outer loop
      vertex 3.000000000000e-03 -2.500000000000e-03 3.109134666667e-04
      vertex 3.000000000000e-03 -2.500000000000e-03 6.218269333333e-04
      vertex 3.000000000000e-03 -2.000000000000e-03 6.218269333333e-04
    endloop
  endfacet
  facet normal -1.0 0.0 0.0
    outer loop
      vertex 3.000000000000e-03 -2.500000000000e-03 6.218269333333e-04
      vertex 3.000000000000e-03 -2.000000000000e-03 9.327404000000e-04
      vertex 3.000000000000e-03 -2.000000000000e-03 6.218269333333e-04
    endloop
  endfacet
  facet normal -1.0 0.0 0.0
    outer loop
      vertex 3.000000000000e-03 -2.500000000000e-03 6.218269333333e-04
      vertex 3.000000000000e-03 -2.500000000000e-03 9.327404000000e-04
      vertex 3.000000000000e-03 -2.000000000000e-03 9.327404000000e-04
    endloop
  endfacet
  facet normal -1.0 0.0 0.0
    outer loop
      vertex 3.000000000000e-03 -2.500000000000e-03 9.327404000000e-04
      vertex 3.000000000000e-03 -2.000000000000e-03 1.243653866667e-03
      vertex 3.000000000000e-03 -2.000000000000e-03 9.327404000000e-04
    endloop
  endfacet
  facet normal -1.0 0.0 0.0
    outer loop
      vertex 3.000000000000e-03 -2.500000000000e-03 9.327404000000e-04
      vertex 3.000000000000e-03 -2.500000000000e-03 1.243653866667e-03
      vertex 3.000000000000e-03 -2.000000000000e-03 1.243653866667e-03
    endloop
  endfacet
  facet normal -1.0 0.0 0.0
    outer loop
      vertex 3.000000000000e-03 -2.500000000000e-03 1.243653866667e-03
      vertex 3.000000000000e-03 -2.000000000000e-03 1.554567333333e-03
      vertex 3.000000000000e-03 -2.000000000000e-03 1.243653866667e-03
    endloop
  endfacet
  facet normal -1.0 0.0 0.0
    outer loop
      vertex 3.000000000000e-03 -2.500000000000e-03 1.243653866667e-03
      vertex 3.000000000000e-03 -2.500000000000e-03 1.554567333333e-03
      vertex 3.000000000000e-03 -2.000000000000e-03 1.554567333333e-03
    endloop
  endfacet
  facet normal -1.0 0.0 0.0
    outer loop
      vertex 3.000000000000e-03 -2.500000000000e-03 1.554567333333e-03
      vertex 3.000000000000e-03 -2.000000000000e-03 1.865480800000e-03
      vertex 3.000000000000e-03 -2.000000000000e-03 1.554567333333e-03
    endloop
  endfacet
  facet normal -1.0 0.0 0.0
    outer loop
      vertex 3.000000000000e-03 -2.500000000000e-03 1.554567333333e-03
      vertex 3.000000000000e-03 -2.500000000000e-03 1.865480800000e-03
      vertex 3.000000000000e-03 -2.000000000000e-03 1.865480800000e-03
    endloop
  endfacet
  facet normal -1.0 0.0 0.0
    outer loop
      vertex 3.000000000000e-03 -2.500000000000e-03 1.865480800000e-03
      vertex 3.000000000000e-03 -2.000000000000e-03 2.176394266667e-03
      vertex 3.000000000000e-03 -2.000000000000e-03 1.865480800000e-03
    endloop
  endfacet
  facet normal -1.0 0.0 0.0
    outer loop
      vertex 3.000000000000e-03 -2.500000000000e-03 1.865480800000e-03
      vertex 3.000000000000e-03 -2.500000000000e-03 2.176394266667e-03
      vertex 3.000000000000e-03 -2.000000000000e-03 2.176394266667e-03
    endloop
  endfacet
  facet normal -1.0 0.0 0.0
    outer loop
      vertex 3.000000000000e-03 -2.500000000000e-03 2.176394266667e-03
      vertex 3.000000000000e-03 -2.000000000000e-03 2.487307733333e-03
      vertex 3.000000000000e-03 -2.000000000000e-03 2.176394266667e-03
    endloop
  endfacet
  facet normal -1.0 0.0 0.0
    outer loop
      vertex 3.000000000000e-03 -2.500000000000e-03 2.176394266667e-03
      vertex 3.000000000000e-03 -2.500000000000e-03 2.487307733333e-03
      vertex 3.000000000000e-03 -2.000000000000e-03 2.487307733333e-03
    endloop
  endfacet
  facet normal -1.0 0.0 0.0
    outer loop
      vertex 3.000000000000e-03 -2.500000000000e-03 2.487307733333e-03
      vertex 3.000000000000e-03 -2.000000000000e-03 2.798221200000e-03
      vertex 3.000000000000e-03 -2.000000000000e-03 2.487307733333e-03
    endloop
  endfacet
  facet normal -1.0 0.0 0.0
    outer loop
      vertex 3.000000000000e-03 -2.500000000000e-03 2.487307733333e-03
      vertex 3.000000000000e-03 -2.500000000000e-03 2.798221200000e-03
      vertex 3.000000000000e-03 -2.000000000000e-03 2.798221200000e-03
    endloop
  endfacet
  facet normal -1.0 0.0 0.0
    outer loop
      vertex 3.000000000000e-03 -2.500000000000e-03 2.798221200000e-03
      vertex 3.000000000000e-03 -2.000000000000e-03 3.109134666667e-03
      vertex 3.000000000000e-03 -2.000000000000e-03 2.798221200000e-03
    endloop
  endfacet
  facet normal -1.0 0.0 0.0
    outer loop
      vertex 3.000000000000e-03 -2.500000000000e-03 2.798221200000e-03
      vertex 3.000000000000e-03 -2.500000000000e-03 3.109134666667e-03
      vertex 3.000000000000e-03 -2.000000000000e-03 3.109134666667e-03
    endloop
  endfacet
  facet normal -1.0 0.0 0.0
    outer loop
      vertex 3.000000000000e-03 -2.500000000000e-03 3.109134666667e-03
      vertex 3.000000000000e-03 -2.000000000000e-03 3.420048133333e-03
      vertex 3.000000000000e-03 -2.000000000000e-03 3.109134666667e-03
    endloop
  endfacet
  facet normal -1.0 0.0 0.0
    outer loop
      vertex 3.000000000000e-03 -2.500000000000e-03 3.109134666667e-03
      vertex 3.000000000000e-03 -2.500000000000e-03 3.420048133333e-03
      vertex 3.000000000000e-03 -2.000000000000e-03 3.420048133333e-03
    endloop
  endfacet
  facet normal -1.0 0.0 0.0
    outer loop
      vertex 3.000000000000e-03 -2.500000000000e-03 3.420048133333e-03
      vertex 3.000000000000e-03 -2.000000000000e-03 3.730961600000e-03
      vertex 3.000000000000e-03 -2.000000000000e-03 3.420048133333e-03
    endloop
  endfacet
  facet normal -1.0 0.0 0.0
    outer loop
      vertex 3.000000000000e-03 -2.500000000000e-03 3.420048133333e-03
      vertex 3.000000000000e-03 -2.500000000000e-03 3.730961600000e-03
      vertex 3.000000000000e-03 -2.000000000000e-03 3.730961600000e-03
    endloop
  endfacet
  facet normal -1.0 0.0 0.0
    outer loop
      vertex 3.000000000000e-03 -2.000000000000e-03 0.000000000000e+00
      vertex 3.000000000000e-03 -1.500000000000e-03 3.109134666667e-04
      vertex 3.000000000000e-03 -1.500000000000e-03 0.000000000000e+00
    endloop
  endfacet
  facet normal -1.0 0.0 0.0
    outer loop
      vertex 3.000000000000e-03 -2.000000000000e-03 0.000000000000e+00
      vertex 3.000000000000e-03 -2.000000000000e-03 3.109134666667e-04
      vertex 3.000000000000e-03 -1.500000000000e-03 3.109134666667e-04
    endloop
  endfacet
  facet normal -1.0 0.0 0.0
    outer loop
      vertex 3.000000000000e-03 -2.000000000000e-03 3.109134666667e-04
      vertex 3.000000000000e-03 -1.500000000000e-03 6.218269333333e-04
      vertex 3.000000000000e-03 -1.500000000000e-03 3.109134666667e-04
    endloop
  endfacet
  facet normal -1.0 0.0 0.0
    outer loop
      vertex 3.000000000000e-03 -2.000000000000e-03 3.109134666667e-04
      vertex 3.000000000000e-03 -2.000000000000e-03 6.218269333333e-04
      vertex 3.000000000000e-03 -1.500000000000e-03 6.218269333333e-04
    endloop
  endfacet
  facet normal -1.0 0.0 0.0
    outer loop
      vertex 3.000000000000e-03 -2.000000000000e-03 6.218269333333e-04
      vertex 3.000000000000e-03 -1.500000000000e-03 9.327404000000e-04
      vertex 3.000000000000e-03 -1.500000000000e-03 6.218269333333e-04
    endloop
  endfacet
  facet normal -1.0 0.0 0.0
    outer loop
      vertex 3.000000000000e-03 -2.000000000000e-03 6.218269333333e-04
      vertex 3.000000000000e-03 -2.000000000000e-03 9.327404000000e-04
      vertex 3.000000000000e-03 -1.500000000000e-03 9.327404000000e-04
    endloop
  endfacet
  facet normal -1.0 0.0 0.0
    outer loop
      vertex 3.000000000000e-03 -2.000000000000e-03 9.327404000000e-04
      vertex 3.000000000000e-03 -1.500000000000e-03 1.243653866667e-03
      vertex 3.000000000000e-03 -1.500000000000e-03 9.327404000000e-04
    endloop
  endfacet
  facet normal -1.0 0.0 0.0
    outer loop
      vertex 3.000000000000e-03 -2.000000000000e-03 9.327404000000e-04
      vertex 3.000000000000e-03 -2.000000000000e-03 1.243653866667e-03
      vertex 3.000000000000e-03 -1.500000000000e-03 1.243653866667e-03
    endloop
  endfacet
  facet normal -1.0 0.0 0.0
    outer loop
      vertex 3.000000000000e-03 -2.000000000000e-03 1.243653866667e-03
      vertex 3.000000000000e-03 -1.500000000000e-03 1.554567333333e-03
      vertex 3.000000000000e-03 -1.500000000000e-03 1.243653866667e-03
    endloop
  endfacet
  facet normal -1.0 0.0 0.0
    outer loop
      vertex 3.000000000000e-03 -2.000000000000e-03 1.243653866667e-03
      vertex 3.000000000000e-03 -2.000000000000e-03 1.554567333333e-03
      vertex 3.000000000000e-03 -1.500000000000e-03 1.554567333333e-03
    endloop
  endfacet
  facet normal -1.0 0.0 0.0
    outer loop
      vertex 3.000000000000e-03 -2.000000000000e-03 1.554567333333e-03
      vertex 3.000000000000e-03 -1.500000000000e-03 1.865480800000e-03
      vertex 3.000000000000e-03 -1.500000000000e-03 1.554567333333e-03
    endloop
  endfacet
  facet normal -1.0 0.0 0.0
    outer loop
      vertex 3.000000000000e-03 -2.000000000000e-03 1.554567333333e-03
      vertex 3.000000000000e-03 -2.000000000000e-03 1.865480800000e-03
      vertex 3.000000000000e-03 -1.500000000000e-03 1.865480800000e-03
    endloop
  endfacet
  facet normal -1.0 0.0 0.0
    outer loop
      vertex 3.000000000000e-03 -2.000000000000e-03 1.865480800000e-03
      vertex 3.000000000000e-03 -1.500000000000e-03 2.176394266667e-03
      vertex 3.000000000000e-03 -1.500000000000e-03 1.865480800000e-03
    endloop
  endfacet
  facet normal -1.0 0.0 0.0
    outer loop
      vertex 3.000000000000e-03 -2.000000000000e-03 1.865480800000e-03
      vertex 3.000000000000e-03 -2.000000000000e-03 2.176394266667e-03
      vertex 3.000000000000e-03 -1.500000000000e-03 2.176394266667e-03
    endloop
  endfacet
  facet normal -1.0 0.0 0.0
    outer loop
      vertex 3.000000000000e-03 -2.000000000000e-03 2.176394266667e-03
      vertex 3.000000000000e-03 -1.500000000000e-03 2.487307733333e-03
      vertex 3.000000000000e-03 -1.500000000000e-03 2.176394266667e-03
    endloop
  endfacet
  facet normal -1.0 0.0 0.0
    outer loop
      vertex 3.000000000000e-03 -2.000000000000e-03 2.176394266667e-03
      vertex 3.000000000000e-03 -2.000000000000e-03 2.487307733333e-03
      vertex 3.000000000000e-03 -1.500000000000e-03 2.487307733333e-03
    endloop
  endfacet
  facet normal -1.0 0.0 0.0
    outer loop
      vertex 3.000000000000e-03 -2.000000000000e-03 2.487307733333e-03
      vertex 3.000000000000e-03 -1.500000000000e-03 2.798221200000e-03
      vertex 3.000000000000e-03 -1.500000000000e-03 2.487307733333e-03
    endloop
  endfacet
  facet normal -1.0 0.0 0.0
    outer loop
      vertex 3.000000000000e-03 -2.000000000000e-03 2.487307733333e-03
      vertex 3.000000000000e-03 -2.000000000000e-03 2.798221200000e-03
      vertex 3.000000000000e-03 -1.500000000000e-03 2.798221200000e-03
    endloop
  endfacet
  facet normal -1.0 0.0 0.0
    outer loop
      vertex 3.000000000000e-03 -2.000000000000e-03 2.798221200000e-03
      vertex 3.000000000000e-03 -1.500000000000e-03 3.109134666667e-03
      vertex 3.000000000000e-03 -1.500000000000e-03 2.798221200000e-03
    endloop
  endfacet
  facet normal -1.0 0.0 0.0
    outer loop
      vertex 3.000000000000e-03 -2.000000000000e-03 2.798221200000e-03
      vertex 3.000000000000e-03 -2.000000000000e-03 3.109134666667e-03
      vertex 3.000000000000e-03 -1.500000000000e-03 3.109134666667e-03
    endloop
  endfacet
  facet normal -1.0 0.0 0.0
    outer loop
      vertex 3.000000000000e-03 -2.000000000000e-03 3.109134666667e-03
      vertex 3.000000000000e-03 -1.500000000000e-03 3.420048133333e-03
      vertex 3.000000000000e-03 -1.500000000000e-03 3.109134666667e-03
    endloop
  endfacet
  facet normal -1.0 0.0 0.0
    outer loop
      vertex 3.000000000000e-03 -2.000000000000e-03 3.109134666667e-03
      vertex 3.000000000000e-03 -2.000000000000e-03 3.420048133333e-03
      vertex 3.000000000000e-03 -1.500000000000e-03 3.420048133333e-03
    endloop
  endfacet
  facet normal -1.0 0.0 0.0
    outer loop
      vertex 3.000000000000e-03 -2.000000000000e-03 3.420048133333e-03
      vertex 3.000000000000e-03 -1.500000000000e-03 3.730961600000e-03
      vertex 3.000000000000e-03 -1.500000000000e-03 3.420048133333e-03
    endloop
  endfacet
  facet normal -1.0 0.0 0.0
    outer loop
      vertex 3.000000000000e-03 -2.000000000000e-03 3.420048133333e-03
      vertex 3.000000000000e-03 -2.000000000000e-03 3.730961600000e-03
      vertex 3.000000000000e-03 -1.500000000000e-03 3.730961600000e-03
    endloop
  endfacet
  facet normal -1.0 0.0 0.0
    outer loop
      vertex 3.000000000000e-03 -1.500000000000e-03 0.000000000000e+00
      vertex 3.000000000000e-03 -1.000000000000e-03 3.109134666667e-04
      vertex 3.000000000000e-03 -1.000000000000e-03 0.000000000000e+00
    endloop
  endfacet
  facet normal -1.0 0.0 0.0
    outer loop
      vertex 3.000000000000e-03 -1.500000000000e-03 0.000000000000e+00
      vertex 3.000000000000e-03 -1.500000000000e-03 3.109134666667e-04
      vertex 3.000000000000e-03 -1.000000000000e-03 3.109134666667e-04
    endloop
  endfacet
  facet normal -1.0 0.0 0.0
    outer loop
      vertex 3.000000000000e-03 -1.500000000000e-03 3.109134666667e-04
      vertex 3.000000000000e-03 -1.000000000000e-03 6.218269333333e-04
      vertex 3.000000000000e-03 -1.000000000000e-03 3.109134666667e-04
    endloop
  endfacet
  facet normal -1.0 0.0 0.0
    outer loop
      vertex 3.000000000000e-03 -1.500000000000e-03 3.109134666667e-04
      vertex 3.000000000000e-03 -1.500000000000e-03 6.218269333333e-04
      vertex 3.000000000000e-03 -1.000000000000e-03 6.218269333333e-04
    endloop
  endfacet
  facet normal -1.0 0.0 0.0
    outer loop
      vertex 3.000000000000e-03 -1.500000000000e-03 6.218269333333e-04
      vertex 3.000000000000e-03 -1.000000000000e-03 9.327404000000e-04
      vertex 3.000000000000e-03 -1.000000000000e-03 6.218269333333e-04
    endloop
  endfacet
  facet normal -1.0 0.0 0.0
    outer loop
      vertex 3.000000000000e-03 -1.500000000000e-03 6.218269333333e-04
      vertex 3.000000000000e-03 -1.500000000000e-03 9.327404000000e-04
      vertex 3.000000000000e-03 -1.000000000000e-03 9.327404000000e-04
    endloop
  endfacet
  facet normal -1.0 0.0 0.0
    outer loop
      vertex 3.000000000000e-03 -1.500000000000e-03 9.327404000000e-04
      vertex 3.000000000000e-03 -1.000000000000e-03 1.243653866667e-03
      vertex 3.000000000000e-03 -1.000000000000e-03 9.327404000000e-04
    endloop
  endfacet
  facet normal -1.0 0.0 0.0
    outer loop
      vertex 3.000000000000e-03 -1.500000000000e-03 9.327404000000e-04
      vertex 3.000000000000e-03 -1.500000000000e-03 1.243653866667e-03
      vertex 3.000000000000e-03 -1.000000000000e-03 1.243653866667e-03
    endloop
  endfacet
  facet normal -1.0 0.0 0.0
    outer loop
      vertex 3.000000000000e-03 -1.500000000000e-03 1.243653866667e-03
      vertex 3.000000000000e-03 -1.000000000000e-03 1.554567333333e-03
      vertex 3.000000000000e-03 -1.000000000000e-03 1.243653866667e-03
    endloop
  endfacet
  facet normal -1.0 0.0 0.0
    outer loop
      vertex 3.000000000000e-03 -1.500000000000e-03 1.243653866667e-03
      vertex 3.000000000000e-03 -1.500000000000e-03 1.554567333333e-03
      vertex 3.000000000000e-03 -1.000000000000e-03 1.554567333333e-03
    endloop
  endfacet
  facet normal -1.0 0.0 0.0
    outer loop
      vertex 3.000000000000e-03 -1.500000000000e-03 1.554567333333e-03
      vertex 3.000000000000e-03 -1.000000000000e-03 1.865480800000e-03
      vertex 3.000000000000e-03 -1.000000000000e-03 1.554567333333e-03
    endloop
  endfacet
  facet normal -1.0 0.0 0.0
    outer loop
      vertex 3.000000000000e-03 -1.500000000000e-03 1.554567333333e-03
      vertex 3.000000000000e-03 -1.500000000000e-03 1.865480800000e-03
      vertex 3.000000000000e-03 -1.000000000000e-03 1.865480800000e-03
    endloop
  endfacet
  facet normal -1.0 0.0 0.0
    outer loop
      vertex 3.000000000000e-03 -1.500000000000e-03 1.865480800000e-03
      vertex 3.000000000000e-03 -1.000000000000e-03 2.176394266667e-03
      vertex 3.000000000000e-03 -1.000000000000e-03 1.865480800000e-03
    endloop
  endfacet
  facet normal -1.0 0.0 0.0
    outer loop
      vertex 3.000000000000e-03 -1.500000000000e-03 1.865480800000e-03
      vertex 3.000000000000e-03 -1.500000000000e-03 2.176394266667e-03
      vertex 3.000000000000e-03 -1.000000000000e-03 2.176394266667e-03
    endloop
  endfacet
  facet normal -1.0 0.0 0.0
    outer loop
      vertex 3.000000000000e-03 -1.500000000000e-03 2.176394266667e-03
      vertex 3.000000000000e-03 -1.000000000000e-03 2.487307733333e-03
      vertex 3.000000000000e-03 -1.000000000000e-03 2.176394266667e-03
    endloop
  endfacet
  facet normal -1.0 0.0 0.0
    outer loop
      vertex 3.000000000000e-03 -1.500000000000e-03 2.176394266667e-03
      vertex 3.000000000000e-03 -1.500000000000e-03 2.487307733333e-03
      vertex 3.000000000000e-03 -1.000000000000e-03 2.487307733333e-03
    endloop
  endfacet
  facet normal -1.0 0.0 0.0
    outer loop
      vertex 3.000000000000e-03 -1.500000000000e-03 2.487307733333e-03
      vertex 3.000000000000e-03 -1.000000000000e-03 2.798221200000e-03
      vertex 3.000000000000e-03 -1.000000000000e-03 2.487307733333e-03
    endloop
  endfacet
  facet normal -1.0 0.0 0.0
    outer loop
      vertex 3.000000000000e-03 -1.500000000000e-03 2.487307733333e-03
      vertex 3.000000000000e-03 -1.500000000000e-03 2.798221200000e-03
      vertex 3.000000000000e-03 -1.000000000000e-03 2.798221200000e-03
    endloop
  endfacet
  facet normal -1.0 0.0 0.0
    outer loop
      vertex 3.000000000000e-03 -1.500000000000e-03 2.798221200000e-03
      vertex 3.000000000000e-03 -1.000000000000e-03 3.109134666667e-03
      vertex 3.000000000000e-03 -1.000000000000e-03 2.798221200000e-03
    endloop
  endfacet
  facet normal -1.0 0.0 0.0
    outer loop
      vertex 3.000000000000e-03 -1.500000000000e-03 2.798221200000e-03
      vertex 3.000000000000e-03 -1.500000000000e-03 3.109134666667e-03
      vertex 3.000000000000e-03 -1.000000000000e-03 3.109134666667e-03
    endloop
  endfacet
  facet normal -1.0 0.0 0.0
    outer loop
      vertex 3.000000000000e-03 -1.500000000000e-03 3.109134666667e-03
      vertex 3.000000000000e-03 -1.000000000000e-03 3.420048133333e-03
      vertex 3.000000000000e-03 -1.000000000000e-03 3.109134666667e-03
    endloop
  endfacet
  facet normal -1.0 0.0 0.0
    outer loop
      vertex 3.000000000000e-03 -1.500000000000e-03 3.109134666667e-03
      vertex 3.000000000000e-03 -1.500000000000e-03 3.420048133333e-03
      vertex 3.000000000000e-03 -1.000000000000e-03 3.420048133333e-03
    endloop
  endfacet
  facet normal -1.0 0.0 0.0
    outer loop
      vertex 3.000000000000e-03 -1.500000000000e-03 3.420048133333e-03
      vertex 3.000000000000e-03 -1.000000000000e-03 3.730961600000e-03
      vertex 3.000000000000e-03 -1.000000000000e-03 3.420048133333e-03
    endloop
  endfacet
  facet normal -1.0 0.0 0.0
    outer loop
      vertex 3.000000000000e-03 -1.500000000000e-03 3.420048133333e-03
      vertex 3.000000000000e-03 -1.500000000000e-03 3.730961600000e-03
      vertex 3.000000000000e-03 -1.000000000000e-03 3.730961600000e-03
    endloop
  endfacet
  facet normal -1.0 0.0 0.0
    outer loop
      vertex 3.000000000000e-03 -1.000000000000e-03 0.000000000000e+00
      vertex 3.000000000000e-03 -5.000000000000e-04 3.109134666667e-04
      vertex 3.000000000000e-03 -5.000000000000e-04 0.000000000000e+00
    endloop
  endfacet
  facet normal -1.0 0.0 0.0
    outer loop
      vertex 3.000000000000e-03 -1.000000000000e-03 0.000000000000e+00
      vertex 3.000000000000e-03 -1.000000000000e-03 3.109134666667e-04
      vertex 3.000000000000e-03 -5.000000000000e-04 3.109134666667e-04
    endloop
  endfacet
  facet normal -1.0 0.0 0.0
    outer loop
      vertex 3.000000000000e-03 -1.000000000000e-03 3.109134666667e-04
      vertex 3.000000000000e-03 -5.000000000000e-04 6.218269333333e-04
      vertex 3.000000000000e-03 -5.000000000000e-04 3.109134666667e-04
    endloop
  endfacet
  facet normal -1.0 0.0 0.0
    outer loop
      vertex 3.000000000000e-03 -1.000000000000e-03 3.109134666667e-04
      vertex 3.000000000000e-03 -1.000000000000e-03 6.218269333333e-04
      vertex 3.000000000000e-03 -5.000000000000e-04 6.218269333333e-04
    endloop
  endfacet
  facet normal -1.0 0.0 0.0
    outer loop
      vertex 3.000000000000e-03 -1.000000000000e-03 6.218269333333e-04
      vertex 3.000000000000e-03 -5.000000000000e-04 9.327404000000e-04
      vertex 3.000000000000e-03 -5.000000000000e-04 6.218269333333e-04
    endloop
  endfacet
  facet normal -1.0 0.0 0.0
    outer loop
      vertex 3.000000000000e-03 -1.000000000000e-03 6.218269333333e-04
      vertex 3.000000000000e-03 -1.000000000000e-03 9.327404000000e-04
      vertex 3.000000000000e-03 -5.000000000000e-04 9.327404000000e-04
    endloop
  endfacet
  facet normal -1.0 0.0 0.0
    outer loop
      vertex 3.000000000000e-03 -1.000000000000e-03 9.327404000000e-04
      vertex 3.000000000000e-03 -5.000000000000e-04 1.243653866667e-03
      vertex 3.000000000000e-03 -5.000000000000e-04 9.327404000000e-04
    endloop
  endfacet
  facet normal -1.0 0.0 0.0
    outer loop
      vertex 3.000000000000e-03 -1.000000000000e-03 9.327404000000e-04
      vertex 3.000000000000e-03 -1.000000000000e-03 1.243653866667e-03
      vertex 3.000000000000e-03 -5.000000000000e-04 1.243653866667e-03
    endloop
  endfacet
  facet normal -1.0 0.0 0.0
    outer loop
      vertex 3.000000000000e-03 -1.000000000000e-03 1.243653866667e-03
      vertex 3.000000000000e-03 -5.000000000000e-04 1.554567333333e-03
      vertex 3.000000000000e-03 -5.000000000000e-04 1.243653866667e-03
    endloop
  endfacet
  facet normal -1.0 0.0 0.0
    outer loop
      vertex 3.000000000000e-03 -1.000000000000e-03 1.243653866667e-03
      vertex 3.000000000000e-03 -1.000000000000e-03 1.554567333333e-03
      vertex 3.000000000000e-03 -5.000000000000e-04 1.554567333333e-03
    endloop
  endfacet
  facet normal -1.0 0.0 0.0
    outer loop
      vertex 3.000000000000e-03 -1.000000000000e-03 1.554567333333e-03
      vertex 3.000000000000e-03 -5.000000000000e-04 1.865480800000e-03
      vertex 3.000000000000e-03 -5.000000000000e-04 1.554567333333e-03
    endloop
  endfacet
  facet normal -1.0 0.0 0.0
    outer loop
      vertex 3.000000000000e-03 -1.000000000000e-03 1.554567333333e-03
      vertex 3.000000000000e-03 -1.000000000000e-03 1.865480800000e-03
      vertex 3.000000000000e-03 -5.000000000000e-04 1.865480800000e-03
    endloop
  endfacet
  facet normal -1.0 0.0 0.0
    outer loop
      vertex 3.000000000000e-03 -1.000000000000e-03 1.865480800000e-03
      vertex 3.000000000000e-03 -5.000000000000e-04 2.176394266667e-03
      vertex 3.000000000000e-03 -5.000000000000e-04 1.865480800000e-03
    endloop
  endfacet
  facet normal -1.0 0.0 0.0
    outer loop
      vertex 3.000000000000e-03 -1.000000000000e-03 1.865480800000e-03
      vertex 3.000000000000e-03 -1.000000000000e-03 2.176394266667e-03
      vertex 3.000000000000e-03 -5.000000000000e-04 2.176394266667e-03
    endloop
  endfacet
  facet normal -1.0 0.0 0.0
    outer loop
      vertex 3.000000000000e-03 -1.000000000000e-03 2.176394266667e-03
      vertex 3.000000000000e-03 -5.000000000000e-04 2.487307733333e-03
      vertex 3.000000000000e-03 -5.000000000000e-04 2.176394266667e-03
    endloop
  endfacet
  facet normal -1.0 0.0 0.0
    outer loop
      vertex 3.000000000000e-03 -1.000000000000e-03 2.176394266667e-03
      vertex 3.000000000000e-03 -1.000000000000e-03 2.487307733333e-03
      vertex 3.000000000000e-03 -5.000000000000e-04 2.487307733333e-03
    endloop
  endfacet
  facet normal -1.0 0.0 0.0
    outer loop
      vertex 3.000000000000e-03 -1.000000000000e-03 2.487307733333e-03
      vertex 3.000000000000e-03 -5.000000000000e-04 2.798221200000e-03
      vertex 3.000000000000e-03 -5.000000000000e-04 2.487307733333e-03
    endloop
  endfacet
  facet normal -1.0 0.0 0.0
    outer loop
      vertex 3.000000000000e-03 -1.000000000000e-03 2.487307733333e-03
      vertex 3.000000000000e-03 -1.000000000000e-03 2.798221200000e-03
      vertex 3.000000000000e-03 -5.000000000000e-04 2.798221200000e-03
    endloop
  endfacet
  facet normal -1.0 0.0 0.0
    outer loop
      vertex 3.000000000000e-03 -1.000000000000e-03 2.798221200000e-03
      vertex 3.000000000000e-03 -5.000000000000e-04 3.109134666667e-03
      vertex 3.000000000000e-03 -5.000000000000e-04 2.798221200000e-03
    endloop
  endfacet
  facet normal -1.0 0.0 0.0
    outer loop
      vertex 3.000000000000e-03 -1.000000000000e-03 2.798221200000e-03
      vertex 3.000000000000e-03 -1.000000000000e-03 3.109134666667e-03
      vertex 3.000000000000e-03 -5.000000000000e-04 3.109134666667e-03
    endloop
  endfacet
  facet normal -1.0 0.0 0.0
    outer loop
      vertex 3.000000000000e-03 -1.000000000000e-03 3.109134666667e-03
      vertex 3.000000000000e-03 -5.000000000000e-04 3.420048133333e-03
      vertex 3.000000000000e-03 -5.000000000000e-04 3.109134666667e-03
    endloop
  endfacet
  facet normal -1.0 0.0 0.0
    outer loop
      vertex 3.000000000000e-03 -1.000000000000e-03 3.109134666667e-03
      vertex 3.000000000000e-03 -1.000000000000e-03 3.420048133333e-03
      vertex 3.000000000000e-03 -5.000000000000e-04 3.420048133333e-03
    endloop
  endfacet
  facet normal -1.0 0.0 0.0
    outer loop
      vertex 3.000000000000e-03 -1.000000000000e-03 3.420048133333e-03
      vertex 3.000000000000e-03 -5.000000000000e-04 3.730961600000e-03
      vertex 3.000000000000e-03 -5.000000000000e-04 3.420048133333e-03
    endloop
  endfacet
  facet normal -1.0 0.0 0.0
    outer loop
      vertex 3.000000000000e-03 -1.000000000000e-03 3.420048133333e-03
      vertex 3.000000000000e-03 -1.000000000000e-03 3.730961600000e-03
      vertex 3.000000000000e-03 -5.000000000000e-04 3.730961600000e-03
    endloop
  endfacet
  facet normal -1.0 0.0 0.0
    outer loop
      vertex 3.000000000000e-03 -5.000000000000e-04 0.000000000000e+00
      vertex 3.000000000000e-03 0.000000000000e+00 3.109134666667e-04
      vertex 3.000000000000e-03 0.000000000000e+00 0.000000000000e+00
    endloop
  endfacet
  facet normal -1.0 0.0 0.0
    outer loop
      vertex 3.000000000000e-03 -5.000000000000e-04 0.000000000000e+00
      vertex 3.000000000000e-03 -5.000000000000e-04 3.109134666667e-04
      vertex 3.000000000000e-03 0.000000000000e+00 3.109134666667e-04
    endloop
  endfacet
  facet normal -1.0 0.0 0.0
    outer loop
      vertex 3.000000000000e-03 -5.000000000000e-04 3.109134666667e-04
      vertex 3.000000000000e-03 0.000000000000e+00 6.218269333333e-04
      vertex 3.000000000000e-03 0.000000000000e+00 3.109134666667e-04
    endloop
  endfacet
  facet normal -1.0 0.0 0.0
    outer loop
      vertex 3.000000000000e-03 -5.000000000000e-04 3.109134666667e-04
      vertex 3.000000000000e-03 -5.000000000000e-04 6.218269333333e-04
      vertex 3.000000000000e-03 0.000000000000e+00 6.218269333333e-04
    endloop
  endfacet
  facet normal -1.0 0.0 0.0
    outer loop
      vertex 3.000000000000e-03 -5.000000000000e-04 6.218269333333e-04
      vertex 3.000000000000e-03 0.000000000000e+00 9.327404000000e-04
      vertex 3.000000000000e-03 0.000000000000e+00 6.218269333333e-04
    endloop
  endfacet
  facet normal -1.0 0.0 0.0
    outer loop
      vertex 3.000000000000e-03 -5.000000000000e-04 6.218269333333e-04
      vertex 3.000000000000e-03 -5.000000000000e-04 9.327404000000e-04
      vertex 3.000000000000e-03 0.000000000000e+00 9.327404000000e-04
    endloop
  endfacet
  facet normal -1.0 0.0 0.0
    outer loop
      vertex 3.000000000000e-03 -5.000000000000e-04 9.327404000000e-04
      vertex 3.000000000000e-03 0.000000000000e+00 1.243653866667e-03
      vertex 3.000000000000e-03 0.000000000000e+00 9.327404000000e-04
    endloop
  endfacet
  facet normal -1.0 0.0 0.0
    outer loop
      vertex 3.000000000000e-03 -5.000000000000e-04 9.327404000000e-04
      vertex 3.000000000000e-03 -5.000000000000e-04 1.243653866667e-03
      vertex 3.000000000000e-03 0.000000000000e+00 1.243653866667e-03
    endloop
  endfacet
  facet normal -1.0 0.0 0.0
    outer loop
      vertex 3.000000000000e-03 -5.000000000000e-04 1.243653866667e-03
      vertex 3.000000000000e-03 0.000000000000e+00 1.554567333333e-03
      vertex 3.000000000000e-03 0.000000000000e+00 1.243653866667e-03
    endloop
  endfacet
  facet normal -1.0 0.0 0.0
    outer loop
      vertex 3.000000000000e-03 -5.000000000000e-04 1.243653866667e-03
      vertex 3.000000000000e-03 -5.000000000000e-04 1.554567333333e-03
      vertex 3.000000000000e-03 0.000000000000e+00 1.554567333333e-03
    endloop
  endfacet
  facet normal -1.0 0.0 0.0
    outer loop
      vertex 3.000000000000e-03 -5.000000000000e-04 1.554567333333e-03
      vertex 3.000000000000e-03 0.000000000000e+00 1.865480800000e-03
      vertex 3.000000000000e-03 0.000000000000e+00 1.554567333333e-03
    endloop
  endfacet
  facet normal -1.0 0.0 0.0
    outer loop
      vertex 3.000000000000e-03 -5.000000000000e-04 1.554567333333e-03
      vertex 3.000000000000e-03 -5.000000000000e-04 1.865480800000e-03
      vertex 3.000000000000e-03 0.000000000000e+00 1.865480800000e-03
    endloop
  endfacet
  facet normal -1.0 0.0 0.0
    outer loop
      vertex 3.000000000000e-03 -5.000000000000e-04 1.865480800000e-03
      vertex 3.000000000000e-03 0.000000000000e+00 2.176394266667e-03
      vertex 3.000000000000e-03 0.000000000000e+00 1.865480800000e-03
    endloop
  endfacet
  facet normal -1.0 0.0 0.0
    outer loop
      vertex 3.000000000000e-03 -5.000000000000e-04 1.865480800000e-03
      vertex 3.000000000000e-03 -5.000000000000e-04 2.176394266667e-03
      vertex 3.000000000000e-03 0.000000000000e+00 2.176394266667e-03
    endloop
  endfacet
  facet normal -1.0 0.0 0.0
    outer loop
      vertex 3.000000000000e-03 -5.000000000000e-04 2.176394266667e-03
      vertex 3.000000000000e-03 0.000000000000e+00 2.487307733333e-03
      vertex 3.000000000000e-03 0.000000000000e+00 2.176394266667e-03
    endloop
  endfacet
  facet normal -1.0 0.0 0.0
    outer loop
      vertex 3.000000000000e-03 -5.000000000000e-04 2.176394266667e-03
      vertex 3.000000000000e-03 -5.000000000000e-04 2.487307733333e-03
      vertex 3.000000000000e-03 0.000000000000e+00 2.487307733333e-03
    endloop
  endfacet
  facet normal -1.0 0.0 0.0
    outer loop
      vertex 3.000000000000e-03 -5.000000000000e-04 2.487307733333e-03
      vertex 3.000000000000e-03 0.000000000000e+00 2.798221200000e-03
      vertex 3.000000000000e-03 0.000000000000e+00 2.487307733333e-03
    endloop
  endfacet
  facet normal -1.0 0.0 0.0
    outer loop
      vertex 3.000000000000e-03 -5.000000000000e-04 2.487307733333e-03
      vertex 3.000000000000e-03 -5.000000000000e-04 2.798221200000e-03
      vertex 3.000000000000e-03 0.000000000000e+00 2.798221200000e-03
    endloop
  endfacet
  facet normal -1.0 0.0 0.0
    outer loop
      vertex 3.000000000000e-03 -5.000000000000e-04 2.798221200000e-03
      vertex 3.000000000000e-03 0.000000000000e+00 3.109134666667e-03
      vertex 3.000000000000e-03 0.000000000000e+00 2.798221200000e-03
    endloop
  endfacet
  facet normal -1.0 0.0 0.0
    outer loop
      vertex 3.000000000000e-03 -5.000000000000e-04 2.798221200000e-03
      vertex 3.000000000000e-03 -5.000000000000e-04 3.109134666667e-03
      vertex 3.000000000000e-03 0.000000000000e+00 3.109134666667e-03
    endloop
  endfacet
  facet normal -1.0 0.0 0.0
    outer loop
      vertex 3.000000000000e-03 -5.000000000000e-04 3.109134666667e-03
      vertex 3.000000000000e-03 0.000000000000e+00 3.420048133333e-03
      vertex 3.000000000000e-03 0.000000000000e+00 3.109134666667e-03
    endloop
  endfacet
  facet normal -1.0 0.0 0.0
    outer loop
      vertex 3.000000000000e-03 -5.000000000000e-04 3.109134666667e-03
      vertex 3.000000000000e-03 -5.000000000000e-04 3.420048133333e-03
      vertex 3.000000000000e-03 0.000000000000e+00 3.420048133333e-03
    endloop
  endfacet
  facet normal -1.0 0.0 0.0
    outer loop
      vertex 3.000000000000e-03 -5.000000000000e-04 3.420048133333e-03
      vertex 3.000000000000e-03 0.000000000000e+00 3.730961600000e-03
      vertex 3.000000000000e-03 0.000000000000e+00 3.420048133333e-03
    endloop
  endfacet
  facet normal -1.0 0.0 0.0
    outer loop
      vertex 3.000000000000e-03 -5.000000000000e-04 3.420048133333e-03
      vertex 3.000000000000e-03 -5.000000000000e-04 3.730961600000e-03
      vertex 3.000000000000e-03 0.000000000000e+00 3.730961600000e-03
    endloop
  endfacet
  facet normal -1.0 0.0 0.0
    outer loop
      vertex 3.000000000000e-03 0.000000000000e+00 0.000000000000e+00
      vertex 3.000000000000e-03 5.000000000000e-04 3.109134666667e-04
      vertex 3.000000000000e-03 5.000000000000e-04 0.000000000000e+00
    endloop
  endfacet
  facet normal -1.0 0.0 0.0
    outer loop
      vertex 3.000000000000e-03 0.000000000000e+00 0.000000000000e+00
      vertex 3.000000000000e-03 0.000000000000e+00 3.109134666667e-04
      vertex 3.000000000000e-03 5.000000000000e-04 3.109134666667e-04
    endloop
  endfacet
  facet normal -1.0 0.0 0.0
    outer loop
      vertex 3.000000000000e-03 0.000000000000e+00 3.109134666667e-04
      vertex 3.000000000000e-03 5.000000000000e-04 6.218269333333e-04
      vertex 3.000000000000e-03 5.000000000000e-04 3.109134666667e-04
    endloop
  endfacet
  facet normal -1.0 0.0 0.0
    outer loop
      vertex 3.000000000000e-03 0.000000000000e+00 3.109134666667e-04
      vertex 3.000000000000e-03 0.000000000000e+00 6.218269333333e-04
      vertex 3.000000000000e-03 5.000000000000e-04 6.218269333333e-04
    endloop
  endfacet
  facet normal -1.0 0.0 0.0
    outer loop
      vertex 3.000000000000e-03 0.000000000000e+00 6.218269333333e-04
      vertex 3.000000000000e-03 5.000000000000e-04 9.327404000000e-04
      vertex 3.000000000000e-03 5.000000000000e-04 6.218269333333e-04
    endloop
  endfacet
  facet normal -1.0 0.0 0.0
    outer loop
      vertex 3.000000000000e-03 0.000000000000e+00 6.218269333333e-04
      vertex 3.000000000000e-03 0.000000000000e+00 9.327404000000e-04
      vertex 3.000000000000e-03 5.000000000000e-04 9.327404000000e-04
    endloop
  endfacet
  facet normal -1.0 0.0 0.0
    outer loop
      vertex 3.000000000000e-03 0.000000000000e+00 9.327404000000e-04
      vertex 3.000000000000e-03 5.000000000000e-04 1.243653866667e-03
      vertex 3.000000000000e-03 5.000000000000e-04 9.327404000000e-04
    endloop
  endfacet
  facet normal -1.0 0.0 0.0
    outer loop
      vertex 3.000000000000e-03 0.000000000000e+00 9.327404000000e-04
      vertex 3.000000000000e-03 0.000000000000e+00 1.243653866667e-03
      vertex 3.000000000000e-03 5.000000000000e-04 1.243653866667e-03
    endloop
  endfacet
  facet normal -1.0 0.0 0.0
    outer loop
      vertex 3.000000000000e-03 0.000000000000e+00 1.243653866667e-03
      vertex 3.000000000000e-03 5.000000000000e-04 1.554567333333e-03
      vertex 3.000000000000e-03 5.000000000000e-04 1.243653866667e-03
    endloop
  endfacet
  facet normal -1.0 0.0 0.0
    outer loop
      vertex 3.000000000000e-03 0.000000000000e+00 1.243653866667e-03
      vertex 3.000000000000e-03 0.000000000000e+00 1.554567333333e-03
      vertex 3.000000000000e-03 5.000000000000e-04 1.554567333333e-03
    endloop
  endfacet
  facet normal -1.0 0.0 0.0
    outer loop
      vertex 3.000000000000e-03 0.000000000000e+00 1.554567333333e-03
      vertex 3.000000000000e-03 5.000000000000e-04 1.865480800000e-03
      vertex 3.000000000000e-03 5.000000000000e-04 1.554567333333e-03
    endloop
  endfacet
  facet normal -1.0 0.0 0.0
    outer loop
      vertex 3.000000000000e-03 0.000000000000e+00 1.554567333333e-03
      vertex 3.000000000000e-03 0.000000000000e+00 1.865480800000e-03
      vertex 3.000000000000e-03 5.000000000000e-04 1.865480800000e-03
    endloop
  endfacet
  facet normal -1.0 0.0 0.0
    outer loop
      vertex 3.000000000000e-03 0.000000000000e+00 1.865480800000e-03
      vertex 3.000000000000e-03 5.000000000000e-04 2.176394266667e-03
      vertex 3.000000000000e-03 5.000000000000e-04 1.865480800000e-03
    endloop
  endfacet
  facet normal -1.0 0.0 0.0
    outer loop
      vertex 3.000000000000e-03 0.000000000000e+00 1.865480800000e-03
      vertex 3.000000000000e-03 0.000000000000e+00 2.176394266667e-03
      vertex 3.000000000000e-03 5.000000000000e-04 2.176394266667e-03
    endloop
  endfacet
  facet normal -1.0 0.0 0.0
    outer loop
      vertex 3.000000000000e-03 0.000000000000e+00 2.176394266667e-03
      vertex 3.000000000000e-03 5.000000000000e-04 2.487307733333e-03
      vertex 3.000000000000e-03 5.000000000000e-04 2.176394266667e-03
    endloop
  endfacet
  facet normal -1.0 0.0 0.0
    outer loop
      vertex 3.000000000000e-03 0.000000000000e+00 2.176394266667e-03
      vertex 3.000000000000e-03 0.000000000000e+00 2.487307733333e-03
      vertex 3.000000000000e-03 5.000000000000e-04 2.487307733333e-03
    endloop
  endfacet
  facet normal -1.0 0.0 0.0
    outer loop
      vertex 3.000000000000e-03 0.000000000000e+00 2.487307733333e-03
      vertex 3.000000000000e-03 5.000000000000e-04 2.798221200000e-03
      vertex 3.000000000000e-03 5.000000000000e-04 2.487307733333e-03
    endloop
  endfacet
  facet normal -1.0 0.0 0.0
    outer loop
      vertex 3.000000000000e-03 0.000000000000e+00 2.487307733333e-03
      vertex 3.000000000000e-03 0.000000000000e+00 2.798221200000e-03
      vertex 3.000000000000e-03 5.000000000000e-04 2.798221200000e-03
    endloop
  endfacet
  facet normal -1.0 0.0 0.0
    outer loop
      vertex 3.000000000000e-03 0.000000000000e+00 2.798221200000e-03
      vertex 3.000000000000e-03 5.000000000000e-04 3.109134666667e-03
      vertex 3.000000000000e-03 5.000000000000e-04 2.798221200000e-03
    endloop
  endfacet
  facet normal -1.0 0.0 0.0
    outer loop
      vertex 3.000000000000e-03 0.000000000000e+00 2.798221200000e-03
      vertex 3.000000000000e-03 0.000000000000e+00 3.109134666667e-03
      vertex 3.000000000000e-03 5.000000000000e-04 3.109134666667e-03
    endloop
  endfacet
  facet normal -1.0 0.0 0.0
    outer loop
      vertex 3.000000000000e-03 0.000000000000e+00 3.109134666667e-03
      vertex 3.000000000000e-03 5.000000000000e-04 3.420048133333e-03
      vertex 3.000000000000e-03 5.000000000000e-04 3.109134666667e-03
    endloop
  endfacet
  facet normal -1.0 0.0 0.0
    outer loop
      vertex 3.000000000000e-03 0.000000000000e+00 3.109134666667e-03
      vertex 3.000000000000e-03 0.000000000000e+00 3.420048133333e-03
      vertex 3.000000000000e-03 5.000000000000e-04 3.420048133333e-03
    endloop
  endfacet
  facet normal -1.0 0.0 0.0
    outer loop
      vertex 3.000000000000e-03 0.000000000000e+00 3.420048133333e-03
      vertex 3.000000000000e-03 5.000000000000e-04 3.730961600000e-03
      vertex 3.000000000000e-03 5.000000000000e-04 3.420048133333e-03
    endloop
  endfacet
  facet normal -1.0 0.0 0.0
    outer loop
      vertex 3.000000000000e-03 0.000000000000e+00 3.420048133333e-03
      vertex 3.000000000000e-03 0.000000000000e+00 3.730961600000e-03
      vertex 3.000000000000e-03 5.000000000000e-04 3.730961600000e-03
    endloop
  endfacet
  facet normal -1.0 0.0 0.0
    outer loop
      vertex 3.000000000000e-03 5.000000000000e-04 0.000000000000e+00
      vertex 3.000000000000e-03 1.000000000000e-03 3.109134666667e-04
      vertex 3.000000000000e-03 1.000000000000e-03 0.000000000000e+00
    endloop
  endfacet
  facet normal -1.0 0.0 0.0
    outer loop
      vertex 3.000000000000e-03 5.000000000000e-04 0.000000000000e+00
      vertex 3.000000000000e-03 5.000000000000e-04 3.109134666667e-04
      vertex 3.000000000000e-03 1.000000000000e-03 3.109134666667e-04
    endloop
  endfacet
  facet normal -1.0 0.0 0.0
    outer loop
      vertex 3.000000000000e-03 5.000000000000e-04 3.109134666667e-04
      vertex 3.000000000000e-03 1.000000000000e-03 6.218269333333e-04
      vertex 3.000000000000e-03 1.000000000000e-03 3.109134666667e-04
    endloop
  endfacet
  facet normal -1.0 0.0 0.0
    outer loop
      vertex 3.000000000000e-03 5.000000000000e-04 3.109134666667e-04
      vertex 3.000000000000e-03 5.000000000000e-04 6.218269333333e-04
      vertex 3.000000000000e-03 1.000000000000e-03 6.218269333333e-04
    endloop
  endfacet
  facet normal -1.0 0.0 0.0
    outer loop
      vertex 3.000000000000e-03 5.000000000000e-04 6.218269333333e-04
      vertex 3.000000000000e-03 1.000000000000e-03 9.327404000000e-04
      vertex 3.000000000000e-03 1.000000000000e-03 6.218269333333e-04
    endloop
  endfacet
  facet normal -1.0 0.0 0.0
    outer loop
      vertex 3.000000000000e-03 5.000000000000e-04 6.218269333333e-04
      vertex 3.000000000000e-03 5.000000000000e-04 9.327404000000e-04
      vertex 3.000000000000e-03 1.000000000000e-03 9.327404000000e-04
    endloop
  endfacet
  facet normal -1.0 0.0 0.0
    outer loop
      vertex 3.000000000000e-03 5.000000000000e-04 9.327404000000e-04
      vertex 3.000000000000e-03 1.000000000000e-03 1.243653866667e-03
      vertex 3.000000000000e-03 1.000000000000e-03 9.327404000000e-04
    endloop
  endfacet
  facet normal -1.0 0.0 0.0
    outer loop
      vertex 3.000000000000e-03 5.000000000000e-04 9.327404000000e-04
      vertex 3.000000000000e-03 5.000000000000e-04 1.243653866667e-03
      vertex 3.000000000000e-03 1.000000000000e-03 1.243653866667e-03
    endloop
  endfacet
  facet normal -1.0 0.0 0.0
    outer loop
      vertex 3.000000000000e-03 5.000000000000e-04 1.243653866667e-03
      vertex 3.000000000000e-03 1.000000000000e-03 1.554567333333e-03
      vertex 3.000000000000e-03 1.000000000000e-03 1.243653866667e-03
    endloop
  endfacet
  facet normal -1.0 0.0 0.0
    outer loop
      vertex 3.000000000000e-03 5.000000000000e-04 1.243653866667e-03
      vertex 3.000000000000e-03 5.000000000000e-04 1.554567333333e-03
      vertex 3.000000000000e-03 1.000000000000e-03 1.554567333333e-03
    endloop
  endfacet
  facet normal -1.0 0.0 0.0
    outer loop
      vertex 3.000000000000e-03 5.000000000000e-04 1.554567333333e-03
      vertex 3.000000000000e-03 1.000000000000e-03 1.865480800000e-03
      vertex 3.000000000000e-03 1.000000000000e-03 1.554567333333e-03
    endloop
  endfacet
  facet normal -1.0 0.0 0.0
    outer loop
      vertex 3.000000000000e-03 5.000000000000e-04 1.554567333333e-03
      vertex 3.000000000000e-03 5.000000000000e-04 1.865480800000e-03
      vertex 3.000000000000e-03 1.000000000000e-03 1.865480800000e-03
    endloop
  endfacet
  facet normal -1.0 0.0 0.0
    outer loop
      vertex 3.000000000000e-03 5.000000000000e-04 1.865480800000e-03
      vertex 3.000000000000e-03 1.000000000000e-03 2.176394266667e-03
      vertex 3.000000000000e-03 1.000000000000e-03 1.865480800000e-03
    endloop
  endfacet
  facet normal -1.0 0.0 0.0
    outer loop
      vertex 3.000000000000e-03 5.000000000000e-04 1.865480800000e-03
      vertex 3.000000000000e-03 5.000000000000e-04 2.176394266667e-03
      vertex 3.000000000000e-03 1.000000000000e-03 2.176394266667e-03
    endloop
  endfacet
  facet normal -1.0 0.0 0.0
    outer loop
      vertex 3.000000000000e-03 5.000000000000e-04 2.176394266667e-03
      vertex 3.000000000000e-03 1.000000000000e-03 2.487307733333e-03
      vertex 3.000000000000e-03 1.000000000000e-03 2.176394266667e-03
    endloop
  endfacet
  facet normal -1.0 0.0 0.0
    outer loop
      vertex 3.000000000000e-03 5.000000000000e-04 2.176394266667e-03
      vertex 3.000000000000e-03 5.000000000000e-04 2.487307733333e-03
      vertex 3.000000000000e-03 1.000000000000e-03 2.487307733333e-03
    endloop
  endfacet
  facet normal -1.0 0.0 0.0
    outer loop
      vertex 3.000000000000e-03 5.000000000000e-04 2.487307733333e-03
      vertex 3.000000000000e-03 1.000000000000e-03 2.798221200000e-03
      vertex 3.000000000000e-03 1.000000000000e-03 2.487307733333e-03
    endloop
  endfacet
  facet normal -1.0 0.0 0.0
    outer loop
      vertex 3.000000000000e-03 5.000000000000e-04 2.487307733333e-03
      vertex 3.000000000000e-03 5.000000000000e-04 2.798221200000e-03
      vertex 3.000000000000e-03 1.000000000000e-03 2.798221200000e-03
    endloop
  endfacet
  facet normal -1.0 0.0 0.0
    outer loop
      vertex 3.000000000000e-03 5.000000000000e-04 2.798221200000e-03
      vertex 3.000000000000e-03 1.000000000000e-03 3.109134666667e-03
      vertex 3.000000000000e-03 1.000000000000e-03 2.798221200000e-03
    endloop
  endfacet
  facet normal -1.0 0.0 0.0
    outer loop
      vertex 3.000000000000e-03 5.000000000000e-04 2.798221200000e-03
      vertex 3.000000000000e-03 5.000000000000e-04 3.109134666667e-03
      vertex 3.000000000000e-03 1.000000000000e-03 3.109134666667e-03
    endloop
  endfacet
  facet normal -1.0 0.0 0.0
    outer loop
      vertex 3.000000000000e-03 5.000000000000e-04 3.109134666667e-03
      vertex 3.000000000000e-03 1.000000000000e-03 3.420048133333e-03
      vertex 3.000000000000e-03 1.000000000000e-03 3.109134666667e-03
    endloop
  endfacet
  facet normal -1.0 0.0 0.0
    outer loop
      vertex 3.000000000000e-03 5.000000000000e-04 3.109134666667e-03
      vertex 3.000000000000e-03 5.000000000000e-04 3.420048133333e-03
      vertex 3.000000000000e-03 1.000000000000e-03 3.420048133333e-03
    endloop
  endfacet
  facet normal -1.0 0.0 0.0
    outer loop
      vertex 3.000000000000e-03 5.000000000000e-04 3.420048133333e-03
      vertex 3.000000000000e-03 1.000000000000e-03 3.730961600000e-03
      vertex 3.000000000000e-03 1.000000000000e-03 3.420048133333e-03
    endloop
  endfacet
  facet normal -1.0 0.0 0.0
    outer loop
      vertex 3.000000000000e-03 5.000000000000e-04 3.420048133333e-03
      vertex 3.000000000000e-03 5.000000000000e-04 3.730961600000e-03
      vertex 3.000000000000e-03 1.000000000000e-03 3.730961600000e-03
    endloop
  endfacet
  facet normal -1.0 0.0 0.0
    outer loop
      vertex 3.000000000000e-03 1.000000000000e-03 0.000000000000e+00
      vertex 3.000000000000e-03 1.500000000000e-03 3.109134666667e-04
      vertex 3.000000000000e-03 1.500000000000e-03 0.000000000000e+00
    endloop
  endfacet
  facet normal -1.0 0.0 0.0
    outer loop
      vertex 3.000000000000e-03 1.000000000000e-03 0.000000000000e+00
      vertex 3.000000000000e-03 1.000000000000e-03 3.109134666667e-04
      vertex 3.000000000000e-03 1.500000000000e-03 3.109134666667e-04
    endloop
  endfacet
  facet normal -1.0 0.0 0.0
    outer loop
      vertex 3.000000000000e-03 1.000000000000e-03 3.109134666667e-04
      vertex 3.000000000000e-03 1.500000000000e-03 6.218269333333e-04
      vertex 3.000000000000e-03 1.500000000000e-03 3.109134666667e-04
    endloop
  endfacet
  facet normal -1.0 0.0 0.0
    outer loop
      vertex 3.000000000000e-03 1.000000000000e-03 3.109134666667e-04
      vertex 3.000000000000e-03 1.000000000000e-03 6.218269333333e-04
      vertex 3.000000000000e-03 1.500000000000e-03 6.218269333333e-04
    endloop
  endfacet
  facet normal -1.0 0.0 0.0
    outer loop
      vertex 3.000000000000e-03 1.000000000000e-03 6.218269333333e-04
      vertex 3.000000000000e-03 1.500000000000e-03 9.327404000000e-04
      vertex 3.000000000000e-03 1.500000000000e-03 6.218269333333e-04
    endloop
  endfacet
  facet normal -1.0 0.0 0.0
    outer loop
      vertex 3.000000000000e-03 1.000000000000e-03 6.218269333333e-04
      vertex 3.000000000000e-03 1.000000000000e-03 9.327404000000e-04
      vertex 3.000000000000e-03 1.500000000000e-03 9.327404000000e-04
    endloop
  endfacet
  facet normal -1.0 0.0 0.0
    outer loop
      vertex 3.000000000000e-03 1.000000000000e-03 9.327404000000e-04
      vertex 3.000000000000e-03 1.500000000000e-03 1.243653866667e-03
      vertex 3.000000000000e-03 1.500000000000e-03 9.327404000000e-04
    endloop
  endfacet
  facet normal -1.0 0.0 0.0
    outer loop
      vertex 3.000000000000e-03 1.000000000000e-03 9.327404000000e-04
      vertex 3.000000000000e-03 1.000000000000e-03 1.243653866667e-03
      vertex 3.000000000000e-03 1.500000000000e-03 1.243653866667e-03
    endloop
  endfacet
  facet normal -1.0 0.0 0.0
    outer loop
      vertex 3.000000000000e-03 1.000000000000e-03 1.243653866667e-03
      vertex 3.000000000000e-03 1.500000000000e-03 1.554567333333e-03
      vertex 3.000000000000e-03 1.500000000000e-03 1.243653866667e-03
    endloop
  endfacet
  facet normal -1.0 0.0 0.0
    outer loop
      vertex 3.000000000000e-03 1.000000000000e-03 1.243653866667e-03
      vertex 3.000000000000e-03 1.000000000000e-03 1.554567333333e-03
      vertex 3.000000000000e-03 1.500000000000e-03 1.554567333333e-03
    endloop
  endfacet
  facet normal -1.0 0.0 0.0
    outer loop
      vertex 3.000000000000e-03 1.000000000000e-03 1.554567333333e-03
      vertex 3.000000000000e-03 1.500000000000e-03 1.865480800000e-03
      vertex 3.000000000000e-03 1.500000000000e-03 1.554567333333e-03
    endloop
  endfacet
  facet normal -1.0 0.0 0.0
    outer loop
      vertex 3.000000000000e-03 1.000000000000e-03 1.554567333333e-03
      vertex 3.000000000000e-03 1.000000000000e-03 1.865480800000e-03
      vertex 3.000000000000e-03 1.500000000000e-03 1.865480800000e-03
    endloop
  endfacet
  facet normal -1.0 0.0 0.0
    outer loop
      vertex 3.000000000000e-03 1.000000000000e-03 1.865480800000e-03
      vertex 3.000000000000e-03 1.500000000000e-03 2.176394266667e-03
      vertex 3.000000000000e-03 1.500000000000e-03 1.865480800000e-03
    endloop
  endfacet
  facet normal -1.0 0.0 0.0
    outer loop
      vertex 3.000000000000e-03 1.000000000000e-03 1.865480800000e-03
      vertex 3.000000000000e-03 1.000000000000e-03 2.176394266667e-03
      vertex 3.000000000000e-03 1.500000000000e-03 2.176394266667e-03
    endloop
  endfacet
  facet normal -1.0 0.0 0.0
    outer loop
      vertex 3.000000000000e-03 1.000000000000e-03 2.176394266667e-03
      vertex 3.000000000000e-03 1.500000000000e-03 2.487307733333e-03
      vertex 3.000000000000e-03 1.500000000000e-03 2.176394266667e-03
    endloop
  endfacet
  facet normal -1.0 0.0 0.0
    outer loop
      vertex 3.000000000000e-03 1.000000000000e-03 2.176394266667e-03
      vertex 3.000000000000e-03 1.000000000000e-03 2.487307733333e-03
      vertex 3.000000000000e-03 1.500000000000e-03 2.487307733333e-03
    endloop
  endfacet
  facet normal -1.0 0.0 0.0
    outer loop
      vertex 3.000000000000e-03 1.000000000000e-03 2.487307733333e-03
      vertex 3.000000000000e-03 1.500000000000e-03 2.798221200000e-03
      vertex 3.000000000000e-03 1.500000000000e-03 2.487307733333e-03
    endloop
  endfacet
  facet normal -1.0 0.0 0.0
    outer loop
      vertex 3.000000000000e-03 1.000000000000e-03 2.487307733333e-03
      vertex 3.000000000000e-03 1.000000000000e-03 2.798221200000e-03
      vertex 3.000000000000e-03 1.500000000000e-03 2.798221200000e-03
    endloop
  endfacet
  facet normal -1.0 0.0 0.0
    outer loop
      vertex 3.000000000000e-03 1.000000000000e-03 2.798221200000e-03
      vertex 3.000000000000e-03 1.500000000000e-03 3.109134666667e-03
      vertex 3.000000000000e-03 1.500000000000e-03 2.798221200000e-03
    endloop
  endfacet
  facet normal -1.0 0.0 0.0
    outer loop
      vertex 3.000000000000e-03 1.000000000000e-03 2.798221200000e-03
      vertex 3.000000000000e-03 1.000000000000e-03 3.109134666667e-03
      vertex 3.000000000000e-03 1.500000000000e-03 3.109134666667e-03
    endloop
  endfacet
  facet normal -1.0 0.0 0.0
    outer loop
      vertex 3.000000000000e-03 1.000000000000e-03 3.109134666667e-03
      vertex 3.000000000000e-03 1.500000000000e-03 3.420048133333e-03
      vertex 3.000000000000e-03 1.500000000000e-03 3.109134666667e-03
    endloop
  endfacet
  facet normal -1.0 0.0 0.0
    outer loop
      vertex 3.000000000000e-03 1.000000000000e-03 3.109134666667e-03
      vertex 3.000000000000e-03 1.000000000000e-03 3.420048133333e-03
      vertex 3.000000000000e-03 1.500000000000e-03 3.420048133333e-03
    endloop
  endfacet
  facet normal -1.0 0.0 0.0
    outer loop
      vertex 3.000000000000e-03 1.000000000000e-03 3.420048133333e-03
      vertex 3.000000000000e-03 1.500000000000e-03 3.730961600000e-03
      vertex 3.000000000000e-03 1.500000000000e-03 3.420048133333e-03
    endloop
  endfacet
  facet normal -1.0 0.0 0.0
    outer loop
      vertex 3.000000000000e-03 1.000000000000e-03 3.420048133333e-03
      vertex 3.000000000000e-03 1.000000000000e-03 3.730961600000e-03
      vertex 3.000000000000e-03 1.500000000000e-03 3.730961600000e-03
    endloop
  endfacet
  facet normal -1.0 0.0 0.0
    outer loop
      vertex 3.000000000000e-03 1.500000000000e-03 0.000000000000e+00
      vertex 3.000000000000e-03 2.000000000000e-03 3.109134666667e-04
      vertex 3.000000000000e-03 2.000000000000e-03 0.000000000000e+00
    endloop
  endfacet
  facet normal -1.0 0.0 0.0
    outer loop
      vertex 3.000000000000e-03 1.500000000000e-03 0.000000000000e+00
      vertex 3.000000000000e-03 1.500000000000e-03 3.109134666667e-04
      vertex 3.000000000000e-03 2.000000000000e-03 3.109134666667e-04
    endloop
  endfacet
  facet normal -1.0 0.0 0.0
    outer loop
      vertex 3.000000000000e-03 1.500000000000e-03 3.109134666667e-04
      vertex 3.000000000000e-03 2.000000000000e-03 6.218269333333e-04
      vertex 3.000000000000e-03 2.000000000000e-03 3.109134666667e-04
    endloop
  endfacet
  facet normal -1.0 0.0 0.0
    outer loop
      vertex 3.000000000000e-03 1.500000000000e-03 3.109134666667e-04
      vertex 3.000000000000e-03 1.500000000000e-03 6.218269333333e-04
      vertex 3.000000000000e-03 2.000000000000e-03 6.218269333333e-04
    endloop
  endfacet
  facet normal -1.0 0.0 0.0
    outer loop
      vertex 3.000000000000e-03 1.500000000000e-03 6.218269333333e-04
      vertex 3.000000000000e-03 2.000000000000e-03 9.327404000000e-04
      vertex 3.000000000000e-03 2.000000000000e-03 6.218269333333e-04
    endloop
  endfacet
  facet normal -1.0 0.0 0.0
    outer loop
      vertex 3.000000000000e-03 1.500000000000e-03 6.218269333333e-04
      vertex 3.000000000000e-03 1.500000000000e-03 9.327404000000e-04
      vertex 3.000000000000e-03 2.000000000000e-03 9.327404000000e-04
    endloop
  endfacet
  facet normal -1.0 0.0 0.0
    outer loop
      vertex 3.000000000000e-03 1.500000000000e-03 9.327404000000e-04
      vertex 3.000000000000e-03 2.000000000000e-03 1.243653866667e-03
      vertex 3.000000000000e-03 2.000000000000e-03 9.327404000000e-04
    endloop
  endfacet
  facet normal -1.0 0.0 0.0
    outer loop
      vertex 3.000000000000e-03 1.500000000000e-03 9.327404000000e-04
      vertex 3.000000000000e-03 1.500000000000e-03 1.243653866667e-03
      vertex 3.000000000000e-03 2.000000000000e-03 1.243653866667e-03
    endloop
  endfacet
  facet normal -1.0 0.0 0.0
    outer loop
      vertex 3.000000000000e-03 1.500000000000e-03 1.243653866667e-03
      vertex 3.000000000000e-03 2.000000000000e-03 1.554567333333e-03
      vertex 3.000000000000e-03 2.000000000000e-03 1.243653866667e-03
    endloop
  endfacet
  facet normal -1.0 0.0 0.0
    outer loop
      vertex 3.000000000000e-03 1.500000000000e-03 1.243653866667e-03
      vertex 3.000000000000e-03 1.500000000000e-03 1.554567333333e-03
      vertex 3.000000000000e-03 2.000000000000e-03 1.554567333333e-03
    endloop
  endfacet
  facet normal -1.0 0.0 0.0
    outer loop
      vertex 3.000000000000e-03 1.500000000000e-03 1.554567333333e-03
      vertex 3.000000000000e-03 2.000000000000e-03 1.865480800000e-03
      vertex 3.000000000000e-03 2.000000000000e-03 1.554567333333e-03
    endloop
  endfacet
  facet normal -1.0 0.0 0.0
    outer loop
      vertex 3.000000000000e-03 1.500000000000e-03 1.554567333333e-03
      vertex 3.000000000000e-03 1.500000000000e-03 1.865480800000e-03
      vertex 3.000000000000e-03 2.000000000000e-03 1.865480800000e-03
    endloop
  endfacet
  facet normal -1.0 0.0 0.0
    outer loop
      vertex 3.000000000000e-03 1.500000000000e-03 1.865480800000e-03
      vertex 3.000000000000e-03 2.000000000000e-03 2.176394266667e-03
      vertex 3.000000000000e-03 2.000000000000e-03 1.865480800000e-03
    endloop
  endfacet
  facet normal -1.0 0.0 0.0
    outer loop
      vertex 3.000000000000e-03 1.500000000000e-03 1.865480800000e-03
      vertex 3.000000000000e-03 1.500000000000e-03 2.176394266667e-03
      vertex 3.000000000000e-03 2.000000000000e-03 2.176394266667e-03
    endloop
  endfacet
  facet normal -1.0 0.0 0.0
    outer loop
      vertex 3.000000000000e-03 1.500000000000e-03 2.176394266667e-03
      vertex 3.000000000000e-03 2.000000000000e-03 2.487307733333e-03
      vertex 3.000000000000e-03 2.000000000000e-03 2.176394266667e-03
    endloop
  endfacet
  facet normal -1.0 0.0 0.0
    outer loop
      vertex 3.000000000000e-03 1.500000000000e-03 2.176394266667e-03
      vertex 3.000000000000e-03 1.500000000000e-03 2.487307733333e-03
      vertex 3.000000000000e-03 2.000000000000e-03 2.487307733333e-03
    endloop
  endfacet
  facet normal -1.0 0.0 0.0
    outer loop
      vertex 3.000000000000e-03 1.500000000000e-03 2.487307733333e-03
      vertex 3.000000000000e-03 2.000000000000e-03 2.798221200000e-03
      vertex 3.000000000000e-03 2.000000000000e-03 2.487307733333e-03
    endloop
  endfacet
  facet normal -1.0 0.0 0.0
    outer loop
      vertex 3.000000000000e-03 1.500000000000e-03 2.487307733333e-03
      vertex 3.000000000000e-03 1.500000000000e-03 2.798221200000e-03
      vertex 3.000000000000e-03 2.000000000000e-03 2.798221200000e-03
    endloop
  endfacet
  facet normal -1.0 0.0 0.0
    outer loop
      vertex 3.000000000000e-03 1.500000000000e-03 2.798221200000e-03
      vertex 3.000000000000e-03 2.000000000000e-03 3.109134666667e-03
      vertex 3.000000000000e-03 2.000000000000e-03 2.798221200000e-03
    endloop
  endfacet
  facet normal -1.0 0.0 0.0
    outer loop
      vertex 3.000000000000e-03 1.500000000000e-03 2.798221200000e-03
      vertex 3.000000000000e-03 1.500000000000e-03 3.109134666667e-03
      vertex 3.000000000000e-03 2.000000000000e-03 3.109134666667e-03
    endloop
  endfacet
  facet normal -1.0 0.0 0.0
    outer loop
      vertex 3.000000000000e-03 1.500000000000e-03 3.109134666667e-03
      vertex 3.000000000000e-03 2.000000000000e-03 3.420048133333e-03
      vertex 3.000000000000e-03 2.000000000000e-03 3.109134666667e-03
    endloop
  endfacet
  facet normal -1.0 0.0 0.0
    outer loop
      vertex 3.000000000000e-03 1.500000000000e-03 3.109134666667e-03
      vertex 3.000000000000e-03 1.500000000000e-03 3.420048133333e-03
      vertex 3.000000000000e-03 2.000000000000e-03 3.420048133333e-03
    endloop
  endfacet
  facet normal -1.0 0.0 0.0
    outer loop
      vertex 3.000000000000e-03 1.500000000000e-03 3.420048133333e-03
      vertex 3.000000000000e-03 2.000000000000e-03 3.730961600000e-03
      vertex 3.000000000000e-03 2.000000000000e-03 3.420048133333e-03
    endloop
  endfacet
  facet normal -1.0 0.0 0.0
    outer loop
      vertex 3.000000000000e-03 1.500000000000e-03 3.420048133333e-03
      vertex 3.000000000000e-03 1.500000000000e-03 3.730961600000e-03
      vertex 3.000000000000e-03 2.000000000000e-03 3.730961600000e-03
    endloop
  endfacet
  facet normal -1.0 0.0 0.0
    outer loop
      vertex 3.000000000000e-03 2.000000000000e-03 0.000000000000e+00
      vertex 3.000000000000e-03 2.500000000000e-03 3.109134666667e-04
      vertex 3.000000000000e-03 2.500000000000e-03 0.000000000000e+00
    endloop
  endfacet
  facet normal -1.0 0.0 0.0
    outer loop
      vertex 3.000000000000e-03 2.000000000000e-03 0.000000000000e+00
      vertex 3.000000000000e-03 2.000000000000e-03 3.109134666667e-04
      vertex 3.000000000000e-03 2.500000000000e-03 3.109134666667e-04
    endloop
  endfacet
  facet normal -1.0 0.0 0.0
    outer loop
      vertex 3.000000000000e-03 2.000000000000e-03 3.109134666667e-04
      vertex 3.000000000000e-03 2.500000000000e-03 6.218269333333e-04
      vertex 3.000000000000e-03 2.500000000000e-03 3.109134666667e-04
    endloop
  endfacet
  facet normal -1.0 0.0 0.0
    outer loop
      vertex 3.000000000000e-03 2.000000000000e-03 3.109134666667e-04
      vertex 3.000000000000e-03 2.000000000000e-03 6.218269333333e-04
      vertex 3.000000000000e-03 2.500000000000e-03 6.218269333333e-04
    endloop
  endfacet
  facet normal -1.0 0.0 0.0
    outer loop
      vertex 3.000000000000e-03 2.000000000000e-03 6.218269333333e-04
      vertex 3.000000000000e-03 2.500000000000e-03 9.327404000000e-04
      vertex 3.000000000000e-03 2.500000000000e-03 6.218269333333e-04
    endloop
  endfacet
  facet normal -1.0 0.0 0.0
    outer loop
      vertex 3.000000000000e-03 2.000000000000e-03 6.218269333333e-04
      vertex 3.000000000000e-03 2.000000000000e-03 9.327404000000e-04
      vertex 3.000000000000e-03 2.500000000000e-03 9.327404000000e-04
    endloop
  endfacet
  facet normal -1.0 0.0 0.0
    outer loop
      vertex 3.000000000000e-03 2.000000000000e-03 9.327404000000e-04
      vertex 3.000000000000e-03 2.500000000000e-03 1.243653866667e-03
      vertex 3.000000000000e-03 2.500000000000e-03 9.327404000000e-04
    endloop
  endfacet
  facet normal -1.0 0.0 0.0
    outer loop
      vertex 3.000000000000e-03 2.000000000000e-03 9.327404000000e-04
      vertex 3.000000000000e-03 2.000000000000e-03 1.243653866667e-03
      vertex 3.000000000000e-03 2.500000000000e-03 1.243653866667e-03
    endloop
  endfacet
  facet normal -1.0 0.0 0.0
    outer loop
      vertex 3.000000000000e-03 2.000000000000e-03 1.243653866667e-03
      vertex 3.000000000000e-03 2.500000000000e-03 1.554567333333e-03
      vertex 3.000000000000e-03 2.500000000000e-03 1.243653866667e-03
    endloop
  endfacet
  facet normal -1.0 0.0 0.0
    outer loop
      vertex 3.000000000000e-03 2.000000000000e-03 1.243653866667e-03
      vertex 3.000000000000e-03 2.000000000000e-03 1.554567333333e-03
      vertex 3.000000000000e-03 2.500000000000e-03 1.554567333333e-03
    endloop
  endfacet
  facet normal -1.0 0.0 0.0
    outer loop
      vertex 3.000000000000e-03 2.000000000000e-03 1.554567333333e-03
      vertex 3.000000000000e-03 2.500000000000e-03 1.865480800000e-03
      vertex 3.000000000000e-03 2.500000000000e-03 1.554567333333e-03
    endloop
  endfacet
  facet normal -1.0 0.0 0.0
    outer loop
      vertex 3.000000000000e-03 2.000000000000e-03 1.554567333333e-03
      vertex 3.000000000000e-03 2.000000000000e-03 1.865480800000e-03
      vertex 3.000000000000e-03 2.500000000000e-03 1.865480800000e-03
    endloop
  endfacet
  facet normal -1.0 0.0 0.0
    outer loop
      vertex 3.000000000000e-03 2.000000000000e-03 1.865480800000e-03
      vertex 3.000000000000e-03 2.500000000000e-03 2.176394266667e-03
      vertex 3.000000000000e-03 2.500000000000e-03 1.865480800000e-03
    endloop
  endfacet
  facet normal -1.0 0.0 0.0
    outer loop
      vertex 3.000000000000e-03 2.000000000000e-03 1.865480800000e-03
      vertex 3.000000000000e-03 2.000000000000e-03 2.176394266667e-03
      vertex 3.000000000000e-03 2.500000000000e-03 2.176394266667e-03
    endloop
  endfacet
  facet normal -1.0 0.0 0.0
    outer loop
      vertex 3.000000000000e-03 2.000000000000e-03 2.176394266667e-03
      vertex 3.000000000000e-03 2.500000000000e-03 2.487307733333e-03
      vertex 3.000000000000e-03 2.500000000000e-03 2.176394266667e-03
    endloop
  endfacet
  facet normal -1.0 0.0 0.0
    outer loop
      vertex 3.000000000000e-03 2.000000000000e-03 2.176394266667e-03
      vertex 3.000000000000e-03 2.000000000000e-03 2.487307733333e-03
      vertex 3.000000000000e-03 2.500000000000e-03 2.487307733333e-03
    endloop
  endfacet
  facet normal -1.0 0.0 0.0
    outer loop
      vertex 3.000000000000e-03 2.000000000000e-03 2.487307733333e-03
      vertex 3.000000000000e-03 2.500000000000e-03 2.798221200000e-03
      vertex 3.000000000000e-03 2.500000000000e-03 2.487307733333e-03
    endloop
  endfacet
  facet normal -1.0 0.0 0.0
    outer loop
      vertex 3.000000000000e-03 2.000000000000e-03 2.487307733333e-03
      vertex 3.000000000000e-03 2.000000000000e-03 2.798221200000e-03
      vertex 3.000000000000e-03 2.500000000000e-03 2.798221200000e-03
    endloop
  endfacet
  facet normal -1.0 0.0 0.0
    outer loop
      vertex 3.000000000000e-03 2.000000000000e-03 2.798221200000e-03
      vertex 3.000000000000e-03 2.500000000000e-03 3.109134666667e-03
      vertex 3.000000000000e-03 2.500000000000e-03 2.798221200000e-03
    endloop
  endfacet
  facet normal -1.0 0.0 0.0
    outer loop
      vertex 3.000000000000e-03 2.000000000000e-03 2.798221200000e-03
      vertex 3.000000000000e-03 2.000000000000e-03 3.109134666667e-03
      vertex 3.000000000000e-03 2.500000000000e-03 3.109134666667e-03
    endloop
  endfacet
  facet normal -1.0 0.0 0.0
    outer loop
      vertex 3.000000000000e-03 2.000000000000e-03 3.109134666667e-03
      vertex 3.000000000000e-03 2.500000000000e-03 3.420048133333e-03
      vertex 3.000000000000e-03 2.500000000000e-03 3.109134666667e-03
    endloop
  endfacet
  facet normal -1.0 0.0 0.0
    outer loop
      vertex 3.000000000000e-03 2.000000000000e-03 3.109134666667e-03
      vertex 3.000000000000e-03 2.000000000000e-03 3.420048133333e-03
      vertex 3.000000000000e-03 2.500000000000e-03 3.420048133333e-03
    endloop
  endfacet
  facet normal -1.0 0.0 0.0
    outer loop
      vertex 3.000000000000e-03 2.000000000000e-03 3.420048133333e-03
      vertex 3.000000000000e-03 2.500000000000e-03 3.730961600000e-03
      vertex 3.000000000000e-03 2.500000000000e-03 3.420048133333e-03
    endloop
  endfacet
  facet normal -1.0 0.0 0.0
    outer loop
      vertex 3.000000000000e-03 2.000000000000e-03 3.420048133333e-03
      vertex 3.000000000000e-03 2.000000000000e-03 3.730961600000e-03
      vertex 3.000000000000e-03 2.500000000000e-03 3.730961600000e-03
    endloop
  endfacet
  facet normal -1.0 0.0 0.0
    outer loop
      vertex 3.000000000000e-03 2.500000000000e-03 0.000000000000e+00
      vertex 3.000000000000e-03 3.000000000000e-03 3.109134666667e-04
      vertex 3.000000000000e-03 3.000000000000e-03 0.000000000000e+00
    endloop
  endfacet
  facet normal -1.0 0.0 0.0
    outer loop
      vertex 3.000000000000e-03 2.500000000000e-03 0.000000000000e+00
      vertex 3.000000000000e-03 2.500000000000e-03 3.109134666667e-04
      vertex 3.000000000000e-03 3.000000000000e-03 3.109134666667e-04
    endloop
  endfacet
  facet normal -1.0 0.0 0.0
    outer loop
      vertex 3.000000000000e-03 2.500000000000e-03 3.109134666667e-04
      vertex 3.000000000000e-03 3.000000000000e-03 6.218269333333e-04
      vertex 3.000000000000e-03 3.000000000000e-03 3.109134666667e-04
    endloop
  endfacet
  facet normal -1.0 0.0 0.0
    outer loop
      vertex 3.000000000000e-03 2.500000000000e-03 3.109134666667e-04
      vertex 3.000000000000e-03 2.500000000000e-03 6.218269333333e-04
      vertex 3.000000000000e-03 3.000000000000e-03 6.218269333333e-04
    endloop
  endfacet
  facet normal -1.0 0.0 0.0
    outer loop
      vertex 3.000000000000e-03 2.500000000000e-03 6.218269333333e-04
      vertex 3.000000000000e-03 3.000000000000e-03 9.327404000000e-04
      vertex 3.000000000000e-03 3.000000000000e-03 6.218269333333e-04
    endloop
  endfacet
  facet normal -1.0 0.0 0.0
    outer loop
      vertex 3.000000000000e-03 2.500000000000e-03 6.218269333333e-04
      vertex 3.000000000000e-03 2.500000000000e-03 9.327404000000e-04
      vertex 3.000000000000e-03 3.000000000000e-03 9.327404000000e-04
    endloop
  endfacet
  facet normal -1.0 0.0 0.0
    outer loop
      vertex 3.000000000000e-03 2.500000000000e-03 9.327404000000e-04
      vertex 3.000000000000e-03 3.000000000000e-03 1.243653866667e-03
      vertex 3.000000000000e-03 3.000000000000e-03 9.327404000000e-04
    endloop
  endfacet
  facet normal -1.0 0.0 0.0
    outer loop
      vertex 3.000000000000e-03 2.500000000000e-03 9.327404000000e-04
      vertex 3.000000000000e-03 2.500000000000e-03 1.243653866667e-03
      vertex 3.000000000000e-03 3.000000000000e-03 1.243653866667e-03
    endloop
  endfacet
  facet normal -1.0 0.0 0.0
    outer loop
      vertex 3.000000000000e-03 2.500000000000e-03 1.243653866667e-03
      vertex 3.000000000000e-03 3.000000000000e-03 1.554567333333e-03
      vertex 3.000000000000e-03 3.000000000000e-03 1.243653866667e-03
    endloop
  endfacet
  facet normal -1.0 0.0 0.0
    outer loop
      vertex 3.000000000000e-03 2.500000000000e-03 1.243653866667e-03
      vertex 3.000000000000e-03 2.500000000000e-03 1.554567333333e-03
      vertex 3.000000000000e-03 3.000000000000e-03 1.554567333333e-03
    endloop
  endfacet
  facet normal -1.0 0.0 0.0
    outer loop
      vertex 3.000000000000e-03 2.500000000000e-03 1.554567333333e-03
      vertex 3.000000000000e-03 3.000000000000e-03 1.865480800000e-03
      vertex 3.000000000000e-03 3.000000000000e-03 1.554567333333e-03
    endloop
  endfacet
  facet normal -1.0 0.0 0.0
    outer loop
      vertex 3.000000000000e-03 2.500000000000e-03 1.554567333333e-03
      vertex 3.000000000000e-03 2.500000000000e-03 1.865480800000e-03
      vertex 3.000000000000e-03 3.000000000000e-03 1.865480800000e-03
    endloop
  endfacet
  facet normal -1.0 0.0 0.0
    outer loop
      vertex 3.000000000000e-03 2.500000000000e-03 1.865480800000e-03
      vertex 3.000000000000e-03 3.000000000000e-03 2.176394266667e-03
      vertex 3.000000000000e-03 3.000000000000e-03 1.865480800000e-03
    endloop
  endfacet
  facet normal -1.0 0.0 0.0
    outer loop
      vertex 3.000000000000e-03 2.500000000000e-03 1.865480800000e-03
      vertex 3.000000000000e-03 2.500000000000e-03 2.176394266667e-03
      vertex 3.000000000000e-03 3.000000000000e-03 2.176394266667e-03
    endloop
  endfacet
  facet normal -1.0 0.0 0.0
    outer loop
      vertex 3.000000000000e-03 2.500000000000e-03 2.176394266667e-03
      vertex 3.000000000000e-03 3.000000000000e-03 2.487307733333e-03
      vertex 3.000000000000e-03 3.000000000000e-03 2.176394266667e-03
    endloop
  endfacet
  facet normal -1.0 0.0 0.0
    outer loop
      vertex 3.000000000000e-03 2.500000000000e-03 2.176394266667e-03
      vertex 3.000000000000e-03 2.500000000000e-03 2.487307733333e-03
      vertex 3.000000000000e-03 3.000000000000e-03 2.487307733333e-03
    endloop
  endfacet
  facet normal -1.0 0.0 0.0
    outer loop
      vertex 3.000000000000e-03 2.500000000000e-03 2.487307733333e-03
      vertex 3.000000000000e-03 3.000000000000e-03 2.798221200000e-03
      vertex 3.000000000000e-03 3.000000000000e-03 2.487307733333e-03
    endloop
  endfacet
  facet normal -1.0 0.0 0.0
    outer loop
      vertex 3.000000000000e-03 2.500000000000e-03 2.487307733333e-03
      vertex 3.000000000000e-03 2.500000000000e-03 2.798221200000e-03
      vertex 3.000000000000e-03 3.000000000000e-03 2.798221200000e-03
    endloop
  endfacet
  facet normal -1.0 0.0 0.0
    outer loop
      vertex 3.000000000000e-03 2.500000000000e-03 2.798221200000e-03
      vertex 3.000000000000e-03 3.000000000000e-03 3.109134666667e-03
      vertex 3.000000000000e-03 3.000000000000e-03 2.798221200000e-03
    endloop
  endfacet
  facet normal -1.0 0.0 0.0
    outer loop
      vertex 3.000000000000e-03 2.500000000000e-03 2.798221200000e-03
      vertex 3.000000000000e-03 2.500000000000e-03 3.109134666667e-03
      vertex 3.000000000000e-03 3.000000000000e-03 3.109134666667e-03
    endloop
  endfacet
  facet normal -1.0 0.0 0.0
    outer loop
      vertex 3.000000000000e-03 2.500000000000e-03 3.109134666667e-03
      vertex 3.000000000000e-03 3.000000000000e-03 3.420048133333e-03
      vertex 3.000000000000e-03 3.000000000000e-03 3.109134666667e-03
    endloop
  endfacet
  facet normal -1.0 0.0 0.0
    outer loop
      vertex 3.000000000000e-03 2.500000000000e-03 3.109134666667e-03
      vertex 3.000000000000e-03 2.500000000000e-03 3.420048133333e-03
      vertex 3.000000000000e-03 3.000000000000e-03 3.420048133333e-03
    endloop
  endfacet
  facet normal -1.0 0.0 0.0
    outer loop
      vertex 3.000000000000e-03 2.500000000000e-03 3.420048133333e-03
      vertex 3.000000000000e-03 3.000000000000e-03 3.730961600000e-03
      vertex 3.000000000000e-03 3.000000000000e-03 3.420048133333e-03
    endloop
  endfacet
  facet normal -1.0 0.0 0.0
    outer loop
      vertex 3.000000000000e-03 2.500000000000e-03 3.420048133333e-03
      vertex 3.000000000000e-03 2.500000000000e-03 3.730961600000e-03
      vertex 3.000000000000e-03 3.000000000000e-03 3.730961600000e-03
    endloop
  endfacet
endsolid wall
