solid wall
  facet normal -1.0 0.0 0.0
    outer loop
      vertex 1.900000000000e-03 -1.900000000000e-03 -1.900000000000e-03
      vertex 1.900000000000e-03 -1.583333333333e-03 -1.583333333333e-03
      vertex 1.900000000000e-03 -1.583333333333e-03 -1.900000000000e-03
    endloop
  endfacet
  facet normal -1.0 0.0 0.0
    outer loop
      vertex 1.900000000000e-03 -1.900000000000e-03 -1.900000000000e-03
      vertex 1.900000000000e-03 -1.900000000000e-03 -1.583333333333e-03
      vertex 1.900000000000e-03 -1.583333333333e-03 -1.583333333333e-03
    endloop
  endfacet
  facet normal -1.0 0.0 0.0
    outer loop
      vertex 1.900000000000e-03 -1.900000000000e-03 -1.583333333333e-03
      vertex 1.900000000000e-03 -1.583333333333e-03 -1.266666666667e-03
      vertex 1.900000000000e-03 -1.583333333333e-03 -1.583333333333e-03
    endloop
  endfacet
  facet normal -1.0 0.0 0.0
    outer loop
      vertex 1.900000000000e-03 -1.900000000000e-03 -1.583333333333e-03
      vertex 1.900000000000e-03 -1.900000000000e-03 -1.266666666667e-03
      vertex 1.900000000000e-03 -1.583333333333e-03 -1.266666666667e-03
    endloop
  endfacet
  facet normal -1.0 0.0 0.0
    outer loop
      vertex 1.900000000000e-03 -1.900000000000e-03 -1.266666666667e-03
      vertex 1.900000000000e-03 -1.583333333333e-03 -9.500000000000e-04
      vertex 1.900000000000e-03 -1.583333333333e-03 -1.266666666667e-03
    endloop
  endfacet
  facet normal -1.0 0.0 0.0
    outer loop
      vertex 1.900000000000e-03 -1.900000000000e-03 -1.266666666667e-03
      vertex 1.900000000000e-03 -1.900000000000e-03 -9.500000000000e-04
      vertex 1.900000000000e-03 -1.583333333333e-03 -9.500000000000e-04
    endloop
  endfacet
  facet normal -1.0 0.0 0.0
    outer loop
      vertex 1.900000000000e-03 -1.900000000000e-03 -9.500000000000e-04
      vertex 1.900000000000e-03 -1.583333333333e-03 -6.333333333333e-04
      vertex 1.900000000000e-03 -1.583333333333e-03 -9.500000000000e-04
    endloop
  endfacet
  facet normal -1.0 0.0 0.0
    outer loop
      vertex 1.900000000000e-03 -1.900000000000e-03 -9.500000000000e-04
      vertex 1.900000000000e-03 -1.900000000000e-03 -6.333333333333e-04
      vertex 1.900000000000e-03 -1.583333333333e-03 -6.333333333333e-04
    endloop
  endfacet
  facet normal -1.0 0.0 0.0
    outer loop
      vertex 1.900000000000e-03 -1.900000000000e-03 -6.333333333333e-04
      vertex 1.900000000000e-03 -1.583333333333e-03 -3.166666666667e-04
      vertex 1.900000000000e-03 -1.583333333333e-03 -6.333333333333e-04
    endloop
  endfacet
  facet normal -1.0 0.0 0.0
    outer loop
      vertex 1.900000000000e-03 -1.900000000000e-03 -6.333333333333e-04
      vertex 1.900000000000e-03 -1.900000000000e-03 -3.166666666667e-04
      vertex 1.900000000000e-03 -1.583333333333e-03 -3.166666666667e-04
    endloop
  endfacet
  facet normal -1.0 0.0 0.0
    outer loop
      vertex 1.900000000000e-03 -1.900000000000e-03 -3.166666666667e-04
      vertex 1.900000000000e-03 -1.583333333333e-03 -5.421010862428e-20
      vertex 1.900000000000e-03 -1.583333333333e-03 -3.166666666667e-04
    endloop
  endfacet
  facet normal -1.0 0.0 0.0
    outer loop
      vertex 1.900000000000e-03 -1.900000000000e-03 -3.166666666667e-04
      vertex 1.900000000000e-03 -1.900000000000e-03 -5.421010862428e-20
      vertex 1.900000000000e-03 -1.583333333333e-03 -5.421010862428e-20
    endloop
  endfacet
  facet normal -1.0 0.0 0.0
    outer loop
      vertex 1.900000000000e-03 -1.900000000000e-03 -2.168404344971e-19
      vertex 1.900000000000e-03 -1.583333333333e-03 3.166666666667e-04
      vertex 1.900000000000e-03 -1.583333333333e-03 -2.168404344971e-19
    endloop
  endfacet
  facet normal -1.0 0.0 0.0
    outer loop
      vertex 1.900000000000e-03 -1.900000000000e-03 -2.168404344971e-19
      vertex 1.900000000000e-03 -1.900000000000e-03 3.166666666667e-04
      vertex 1.900000000000e-03 -1.583333333333e-03 3.166666666667e-04
    endloop
  endfacet
  facet normal -1.0 0.0 0.0
    outer loop
      vertex 1.900000000000e-03 -1.900000000000e-03 3.166666666667e-04
      vertex 1.900000000000e-03 -1.583333333333e-03 6.333333333333e-04
      vertex 1.900000000000e-03 -1.583333333333e-03 3.166666666667e-04
    endloop
  endfacet
  facet normal -1.0 0.0 0.0
    outer loop
      vertex 1.900000000000e-03 -1.900000000000e-03 3.166666666667e-04
      vertex 1.900000000000e-03 -1.900000000000e-03 6.333333333333e-04
      vertex 1.900000000000e-03 -1.583333333333e-03 6.333333333333e-04
    endloop
  endfacet
  facet normal -1.0 0.0 0.0
    outer loop
      vertex 1.900000000000e-03 -1.900000000000e-03 6.333333333333e-04
      vertex 1.900000000000e-03 -1.583333333333e-03 9.500000000000e-04
      vertex 1.900000000000e-03 -1.583333333333e-03 6.333333333333e-04
    endloop
  endfacet
  facet normal -1.0 0.0 0.0
    outer loop
      vertex 1.900000000000e-03 -1.900000000000e-03 6.333333333333e-04
      vertex 1.900000000000e-03 -1.900000000000e-03 9.500000000000e-04
      vertex 1.900000000000e-03 -1.583333333333e-03 9.500000000000e-04
    endloop
  endfacet
  facet normal -1.0 0.0 0.0
    outer loop
      vertex 1.900000000000e-03 -1.900000000000e-03 9.500000000000e-04
      vertex 1.900000000000e-03 -1.583333333333e-03 1.266666666667e-03
      vertex 1.900000000000e-03 -1.583333333333e-03 9.500000000000e-04
    endloop
  endfacet
  facet normal -1.0 0.0 0.0
    outer loop
      vertex 1.900000000000e-03 -1.900000000000e-03 9.500000000000e-04
      vertex 1.900000000000e-03 -1.900000000000e-03 1.266666666667e-03
      vertex 1.900000000000e-03 -1.583333333333e-03 1.266666666667e-03
    endloop
  endfacet
  facet normal -1.0 0.0 0.0
    outer loop
      vertex 1.900000000000e-03 -1.900000000000e-03 1.266666666667e-03
      vertex 1.900000000000e-03 -1.583333333333e-03 1.583333333333e-03
      vertex 1.900000000000e-03 -1.583333333333e-03 1.266666666667e-03
    endloop
  endfacet
  facet normal -1.0 0.0 0.0
    outer loop
      vertex 1.900000000000e-03 -1.900000000000e-03 1.266666666667e-03
      vertex 1.900000000000e-03 -1.900000000000e-03 1.583333333333e-03
      vertex 1.900000000000e-03 -1.583333333333e-03 1.583333333333e-03
    endloop
  endfacet
  facet normal -1.0 0.0 0.0
    outer loop
      vertex 1.900000000000e-03 -1.900000000000e-03 1.583333333333e-03
      vertex 1.900000000000e-03 -1.583333333333e-03 1.900000000000e-03
      vertex 1.900000000000e-03 -1.583333333333e-03 1.583333333333e-03
    endloop
  endfacet
  facet normal -1.0 0.0 0.0
    outer loop
      vertex 1.900000000000e-03 -1.900000000000e-03 1.583333333333e-03
      vertex 1.900000000000e-03 -1.900000000000e-03 1.900000000000e-03
      vertex 1.900000000000e-03 -1.583333333333e-03 1.900000000000e-03
    endloop
  endfacet
  facet normal -1.0 0.0 0.0
    outer loop
      vertex 1.900000000000e-03 -1.583333333333e-03 -1.900000000000e-03
      vertex 1.900000000000e-03 -1.266666666667e-03 -1.583333333333e-03
      vertex 1.900000000000e-03 -1.266666666667e-03 -1.900000000000e-03
    endloop
  endfacet
  facet normal -1.0 0.0 0.0
    outer loop
      vertex 1.900000000000e-03 -1.583333333333e-03 -1.900000000000e-03
      vertex 1.900000000000e-03 -1.583333333333e-03 -1.583333333333e-03
      vertex 1.900000000000e-03 -1.266666666667e-03 -1.583333333333e-03
    endloop
  endfacet
  facet normal -1.0 0.0 0.0
    outer loop
      vertex 1.900000000000e-03 -1.583333333333e-03 -1.583333333333e-03
      vertex 1.900000000000e-03 -1.266666666667e-03 -1.266666666667e-03
      vertex 1.900000000000e-03 -1.266666666667e-03 -1.583333333333e-03
    endloop
  endfacet
  facet normal -1.0 0.0 0.0
    outer loop
      vertex 1.900000000000e-03 -1.583333333333e-03 -1.583333333333e-03
      vertex 1.900000000000e-03 -1.583333333333e-03 -1.266666666667e-03
      vertex 1.900000000000e-03 -1.266666666667e-03 -1.266666666667e-03
    endloop
  endfacet
  facet normal -1.0 0.0 0.0
    outer loop
      vertex 1.900000000000e-03 -1.583333333333e-03 -1.266666666667e-03
      vertex 1.900000000000e-03 -1.266666666667e-03 -9.500000000000e-04
      vertex 1.900000000000e-03 -1.266666666667e-03 -1.266666666667e-03
    endloop
  endfacet
  facet normal -1.0 0.0 0.0
    outer loop
      vertex 1.900000000000e-03 -1.583333333333e-03 -1.266666666667e-03
      vertex 1.900000000000e-03 -1.583333333333e-03 -9.500000000000e-04
      vertex 1.900000000000e-03 -1.266666666667e-03 -9.500000000000e-04
    endloop
  endfacet
  facet normal -1.0 0.0 0.0
    outer loop
      vertex 1.900000000000e-03 -1.583333333333e-03 -9.500000000000e-04
      vertex 1.900000000000e-03 -1.266666666667e-03 -6.333333333333e-04
      vertex 1.900000000000e-03 -1.266666666667e-03 -9.500000000000e-04
    endloop
  endfacet
  facet normal -1.0 0.0 0.0
    outer loop
      vertex 1.900000000000e-03 -1.583333333333e-03 -9.500000000000e-04
      vertex 1.900000000000e-03 -1.583333333333e-03 -6.333333333333e-04
      vertex 1.900000000000e-03 -1.266666666667e-03 -6.333333333333e-04
    endloop
  endfacet
  facet normal -1.0 0.0 0.0
    outer loop
      vertex 1.900000000000e-03 -1.583333333333e-03 -6.333333333333e-04
      vertex 1.900000000000e-03 -1.266666666667e-03 -3.166666666667e-04
      vertex 1.900000000000e-03 -1.266666666667e-03 -6.333333333333e-04
    endloop
  endfacet
  facet normal -1.0 0.0 0.0
    outer loop
      vertex 1.900000000000e-03 -1.583333333333e-03 -6.333333333333e-04
      vertex 1.900000000000e-03 -1.583333333333e-03 -3.166666666667e-04
      vertex 1.900000000000e-03 -1.266666666667e-03 -3.166666666667e-04
    endloop
  endfacet
  facet normal -1.0 0.0 0.0
    outer loop
      vertex 1.900000000000e-03 -1.583333333333e-03 -3.166666666667e-04
      vertex 1.900000000000e-03 -1.266666666667e-03 -5.421010862428e-20
      vertex 1.900000000000e-03 -1.266666666667e-03 -3.166666666667e-04
    endloop
  endfacet
  facet normal -1.0 0.0 0.0
    outer loop
      vertex 1.900000000000e-03 -1.583333333333e-03 -3.166666666667e-04
      vertex 1.900000000000e-03 -1.583333333333e-03 -5.421010862428e-20
      vertex 1.900000000000e-03 -1.266666666667e-03 -5.421010862428e-20
    endloop
  endfacet
  facet normal -1.0 0.0 0.0
    outer loop
      vertex 1.900000000000e-03 -1.583333333333e-03 -2.168404344971e-19
      vertex 1.900000000000e-03 -1.266666666667e-03 3.166666666667e-04
      vertex 1.900000000000e-03 -1.266666666667e-03 -2.168404344971e-19
    endloop
  endfacet
  facet normal -1.0 0.0 0.0
    outer loop
      vertex 1.900000000000e-03 -1.583333333333e-03 -2.168404344971e-19
      vertex 1.900000000000e-03 -1.583333333333e-03 3.166666666667e-04
      vertex 1.900000000000e-03 -1.266666666667e-03 3.166666666667e-04
    endloop
  endfacet
  facet normal -1.0 0.0 0.0
    outer loop
      vertex 1.900000000000e-03 -1.583333333333e-03 3.166666666667e-04
      vertex 1.900000000000e-03 -1.266666666667e-03 6.333333333333e-04
      vertex 1.900000000000e-03 -1.266666666667e-03 3.166666666667e-04
    endloop
  endfacet
  facet normal -1.0 0.0 0.0
    outer loop
      vertex 1.900000000000e-03 -1.583333333333e-03 3.166666666667e-04
      vertex 1.900000000000e-03 -1.583333333333e-03 6.333333333333e-04
      vertex 1.900000000000e-03 -1.266666666667e-03 6.333333333333e-04
    endloop
  endfacet
  facet normal -1.0 0.0 0.0
    outer loop
      vertex 1.900000000000e-03 -1.583333333333e-03 6.333333333333e-04
      vertex 1.900000000000e-03 -1.266666666667e-03 9.500000000000e-04
      vertex 1.900000000000e-03 -1.266666666667e-03 6.333333333333e-04
    endloop
  endfacet
  facet normal -1.0 0.0 0.0
    outer loop
      vertex 1.900000000000e-03 -1.583333333333e-03 6.333333333333e-04
      vertex 1.900000000000e-03 -1.583333333333e-03 9.500000000000e-04
      vertex 1.900000000000e-03 -1.266666666667e-03 9.500000000000e-04
    endloop
  endfacet
  facet normal -1.0 0.0 0.0
    outer loop
      vertex 1.900000000000e-03 -1.583333333333e-03 9.500000000000e-04
      vertex 1.900000000000e-03 -1.266666666667e-03 1.266666666667e-03
      vertex 1.900000000000e-03 -1.266666666667e-03 9.500000000000e-04
    endloop
  endfacet
  facet normal -1.0 0.0 0.0
    outer loop
      vertex 1.900000000000e-03 -1.583333333333e-03 9.500000000000e-04
      vertex 1.900000000000e-03 -1.583333333333e-03 1.266666666667e-03
      vertex 1.900000000000e-03 -1.266666666667e-03 1.266666666667e-03
    endloop
  endfacet
  facet normal -1.0 0.0 0.0
    outer loop
      vertex 1.900000000000e-03 -1.583333333333e-03 1.266666666667e-03
      vertex 1.900000000000e-03 -1.266666666667e-03 1.583333333333e-03
      vertex 1.900000000000e-03 -1.266666666667e-03 1.266666666667e-03
    endloop
  endfacet
  facet normal -1.0 0.0 0.0
    outer loop
      vertex 1.900000000000e-03 -1.583333333333e-03 1.266666666667e-03
      vertex 1.900000000000e-03 -1.583333333333e-03 1.583333333333e-03
      vertex 1.900000000000e-03 -1.266666666667e-03 1.583333333333e-03
    endloop
  endfacet
  facet normal -1.0 0.0 0.0
    outer loop
      vertex 1.900000000000e-03 -1.583333333333e-03 1.583333333333e-03
      vertex 1.900000000000e-03 -1.266666666667e-03 1.900000000000e-03
      vertex 1.900000000000e-03 -1.266666666667e-03 1.583333333333e-03
    endloop
  endfacet
  facet normal -1.0 0.0 0.0
    outer loop
      vertex 1.900000000000e-03 -1.583333333333e-03 1.583333333333e-03
      vertex 1.900000000000e-03 -1.583333333333e-03 1.900000000000e-03
      vertex 1.900000000000e-03 -1.266666666667e-03 1.900000000000e-03
    endloop
  endfacet
  facet normal -1.0 0.0 0.0
    outer loop
      vertex 1.900000000000e-03 -1.266666666667e-03 -1.900000000000e-03
      vertex 1.900000000000e-03 -9.500000000000e-04 -1.583333333333e-03
      vertex 1.900000000000e-03 -9.500000000000e-04 -1.900000000000e-03
    endloop
  endfacet
  facet normal -1.0 0.0 0.0
    outer loop
      vertex 1.900000000000e-03 -1.266666666667e-03 -1.900000000000e-03
      vertex 1.900000000000e-03 -1.266666666667e-03 -1.583333333333e-03
      vertex 1.900000000000e-03 -9.500000000000e-04 -1.583333333333e-03
    endloop
  endfacet
  facet normal -1.0 0.0 0.0
    outer loop
      vertex 1.900000000000e-03 -1.266666666667e-03 -1.583333333333e-03
      vertex 1.900000000000e-03 -9.500000000000e-04 -1.266666666667e-03
      vertex 1.900000000000e-03 -9.500000000000e-04 -1.583333333333e-03
    endloop
  endfacet
  facet normal -1.0 0.0 0.0
    outer loop
      vertex 1.900000000000e-03 -1.266666666667e-03 -1.583333333333e-03
      vertex 1.900000000000e-03 -1.266666666667e-03 -1.266666666667e-03
      vertex 1.900000000000e-03 -9.500000000000e-04 -1.266666666667e-03
    endloop
  endfacet
  facet normal -1.0 0.0 0.0
    outer loop
      vertex 1.900000000000e-03 -1.266666666667e-03 -1.266666666667e-03
      vertex 1.900000000000e-03 -9.500000000000e-04 -9.500000000000e-04
      vertex 1.900000000000e-03 -9.500000000000e-04 -1.266666666667e-03
    endloop
  endfacet
  facet normal -1.0 0.0 0.0
    outer loop
      vertex 1.900000000000e-03 -1.266666666667e-03 -1.266666666667e-03
      vertex 1.900000000000e-03 -1.266666666667e-03 -9.500000000000e-04
      vertex 1.900000000000e-03 -9.500000000000e-04 -9.500000000000e-04
    endloop
  endfacet
  facet normal -1.0 0.0 0.0
    outer loop
      vertex 1.900000000000e-03 -1.266666666667e-03 -9.500000000000e-04
      vertex 1.900000000000e-03 -9.500000000000e-04 -6.333333333333e-04
      vertex 1.900000000000e-03 -9.500000000000e-04 -9.500000000000e-04
    endloop
  endfacet
  facet normal -1.0 0.0 0.0
    outer loop
      vertex 1.900000000000e-03 -1.266666666667e-03 -9.500000000000e-04
      vertex 1.900000000000e-03 -1.266666666667e-03 -6.333333333333e-04
      vertex 1.900000000000e-03 -9.500000000000e-04 -6.333333333333e-04
    endloop
  endfacet
  facet normal -1.0 0.0 0.0
    outer loop
      vertex 1.900000000000e-03 -1.266666666667e-03 -6.333333333333e-04
      vertex 1.900000000000e-03 -9.500000000000e-04 -3.166666666667e-04
      vertex 1.900000000000e-03 -9.500000000000e-04 -6.333333333333e-04
    endloop
  endfacet
  facet normal -1.0 0.0 0.0
    outer loop
      vertex 1.900000000000e-03 -1.266666666667e-03 -6.333333333333e-04
      vertex 1.900000000000e-03 -1.266666666667e-03 -3.166666666667e-04
      vertex 1.900000000000e-03 -9.500000000000e-04 -3.166666666667e-04
    endloop
  endfacet
  facet normal -1.0 0.0 0.0
    outer loop
      vertex 1.900000000000e-03 -1.266666666667e-03 -3.166666666667e-04
      vertex 1.900000000000e-03 -9.500000000000e-04 -5.421010862428e-20
      vertex 1.900000000000e-03 -9.500000000000e-04 -3.166666666667e-04
    endloop
  endfacet
  facet normal -1.0 0.0 0.0
    outer loop
      vertex 1.900000000000e-03 -1.266666666667e-03 -3.166666666667e-04
      vertex 1.900000000000e-03 -1.266666666667e-03 -5.421010862428e-20
      vertex 1.900000000000e-03 -9.500000000000e-04 -5.421010862428e-20
    endloop
  endfacet
  facet normal -1.0 0.0 0.0
    outer loop
      vertex 1.900000000000e-03 -1.266666666667e-03 -2.168404344971e-19
      vertex 1.900000000000e-03 -9.500000000000e-04 3.166666666667e-04
      vertex 1.900000000000e-03 -9.500000000000e-04 -2.168404344971e-19
    endloop
  endfacet
  facet normal -1.0 0.0 0.0
    outer loop
      vertex 1.900000000000e-03 -1.266666666667e-03 -2.168404344971e-19
      vertex 1.900000000000e-03 -1.266666666667e-03 3.166666666667e-04
      vertex 1.900000000000e-03 -9.500000000000e-04 3.166666666667e-04
    endloop
  endfacet
  facet normal -1.0 0.0 0.0
    outer loop
      vertex 1.900000000000e-03 -1.266666666667e-03 3.166666666667e-04
      vertex 1.900000000000e-03 -9.500000000000e-04 6.333333333333e-04
      vertex 1.900000000000e-03 -9.500000000000e-04 3.166666666667e-04
    endloop
  endfacet
  facet normal -1.0 0.0 0.0
    outer loop
      vertex 1.900000000000e-03 -1.266666666667e-03 3.166666666667e-04
      vertex 1.900000000000e-03 -1.266666666667e-03 6.333333333333e-04
      vertex 1.900000000000e-03 -9.500000000000e-04 6.333333333333e-04
    endloop
  endfacet
  facet normal -1.0 0.0 0.0
    outer loop
      vertex 1.900000000000e-03 -1.266666666667e-03 6.333333333333e-04
      vertex 1.900000000000e-03 -9.500000000000e-04 9.500000000000e-04
      vertex 1.900000000000e-03 -9.500000000000e-04 6.333333333333e-04
    endloop
  endfacet
  facet normal -1.0 0.0 0.0
    outer loop
      vertex 1.900000000000e-03 -1.266666666667e-03 6.333333333333e-04
      vertex 1.900000000000e-03 -1.266666666667e-03 9.500000000000e-04
      vertex 1.900000000000e-03 -9.500000000000e-04 9.500000000000e-04
    endloop
  endfacet
  facet normal -1.0 0.0 0.0
    outer loop
      vertex 1.900000000000e-03 -1.266666666667e-03 9.500000000000e-04
      vertex 1.900000000000e-03 -9.500000000000e-04 1.266666666667e-03
      vertex 1.900000000000e-03 -9.500000000000e-04 9.500000000000e-04
    endloop
  endfacet
  facet normal -1.0 0.0 0.0
    outer loop
      vertex 1.900000000000e-03 -1.266666666667e-03 9.500000000000e-04
      vertex 1.900000000000e-03 -1.266666666667e-03 1.266666666667e-03
      vertex 1.900000000000e-03 -9.500000000000e-04 1.266666666667e-03
    endloop
  endfacet
  facet normal -1.0 0.0 0.0
    outer loop
      vertex 1.900000000000e-03 -1.266666666667e-03 1.266666666667e-03
      vertex 1.900000000000e-03 -9.500000000000e-04 1.583333333333e-03
      vertex 1.900000000000e-03 -9.500000000000e-04 1.266666666667e-03
    endloop
  endfacet
  facet normal -1.0 0.0 0.0
    outer loop
      vertex 1.900000000000e-03 -1.266666666667e-03 1.266666666667e-03
      vertex 1.900000000000e-03 -1.266666666667e-03 1.583333333333e-03
      vertex 1.900000000000e-03 -9.500000000000e-04 1.583333333333e-03
    endloop
  endfacet
  facet normal -1.0 0.0 0.0
    outer loop
      vertex 1.900000000000e-03 -1.266666666667e-03 1.583333333333e-03
      vertex 1.900000000000e-03 -9.500000000000e-04 1.900000000000e-03
      vertex 1.900000000000e-03 -9.500000000000e-04 1.583333333333e-03
    endloop
  endfacet
  facet normal -1.0 0.0 0.0
    outer loop
      vertex 1.900000000000e-03 -1.266666666667e-03 1.583333333333e-03
      vertex 1.900000000000e-03 -1.266666666667e-03 1.900000000000e-03
      vertex 1.900000000000e-03 -9.500000000000e-04 1.900000000000e-03
    endloop
  endfacet
  facet normal -1.0 0.0 0.0
    outer loop
      vertex 1.900000000000e-03 -9.500000000000e-04 -1.900000000000e-03
      vertex 1.900000000000e-03 -6.333333333333e-04 -1.583333333333e-03
      vertex 1.900000000000e-03 -6.333333333333e-04 -1.900000000000e-03
    endloop
  endfacet
  facet normal -1.0 0.0 0.0
    outer loop
      vertex 1.900000000000e-03 -9.500000000000e-04 -1.900000000000e-03
      vertex 1.900000000000e-03 -9.500000000000e-04 -1.583333333333e-03
      vertex 1.900000000000e-03 -6.333333333333e-04 -1.583333333333e-03
    endloop
  endfacet
  facet normal -1.0 0.0 0.0
    outer loop
      vertex 1.900000000000e-03 -9.500000000000e-04 -1.583333333333e-03
      vertex 1.900000000000e-03 -6.333333333333e-04 -1.266666666667e-03
      vertex 1.900000000000e-03 -6.333333333333e-04 -1.583333333333e-03
    endloop
  endfacet
  facet normal -1.0 0.0 0.0
    outer loop
      vertex 1.900000000000e-03 -9.500000000000e-04 -1.583333333333e-03
      vertex 1.900000000000e-03 -9.500000000000e-04 -1.266666666667e-03
      vertex 1.900000000000e-03 -6.333333333333e-04 -1.266666666667e-03
    endloop
  endfacet
  facet normal -1.0 0.0 0.0
    outer loop
      vertex 1.900000000000e-03 -9.500000000000e-04 -1.266666666667e-03
      vertex 1.900000000000e-03 -6.333333333333e-04 -9.500000000000e-04
      vertex 1.900000000000e-03 -6.333333333333e-04 -1.266666666667e-03
    endloop
  endfacet
  facet normal -1.0 0.0 0.0
    outer loop
      vertex 1.900000000000e-03 -9.500000000000e-04 -1.266666666667e-03
      vertex 1.900000000000e-03 -9.500000000000e-04 -9.500000000000e-04
      vertex 1.900000000000e-03 -6.333333333333e-04 -9.500000000000e-04
    endloop
  endfacet
  facet normal -1.0 0.0 0.0
    outer loop
      vertex 1.900000000000e-03 -9.500000000000e-04 -9.500000000000e-04
      vertex 1.900000000000e-03 -6.333333333333e-04 -6.333333333333e-04
      vertex 1.900000000000e-03 -6.333333333333e-04 -9.500000000000e-04
    endloop
  endfacet
  facet normal -1.0 0.0 0.0
    outer loop
      vertex 1.900000000000e-03 -9.500000000000e-04 -9.500000000000e-04
      vertex 1.900000000000e-03 -9.500000000000e-04 -6.333333333333e-04
      vertex 1.900000000000e-03 -6.333333333333e-04 -6.333333333333e-04
    endloop
  endfacet
  facet normal -1.0 0.0 0.0
    outer loop
      vertex 1.900000000000e-03 -9.500000000000e-04 -6.333333333333e-04
      vertex 1.900000000000e-03 -6.333333333333e-04 -3.166666666667e-04
      vertex 1.900000000000e-03 -6.333333333333e-04 -6.333333333333e-04
    endloop
  endfacet
  facet normal -1.0 0.0 0.0
    outer loop
      vertex 1.900000000000e-03 -9.500000000000e-04 -6.333333333333e-04
      vertex 1.900000000000e-03 -9.500000000000e-04 -3.166666666667e-04
      vertex 1.900000000000e-03 -6.333333333333e-04 -3.166666666667e-04
    endloop
  endfacet
  facet normal -1.0 0.0 0.0
    outer loop
      vertex 1.900000000000e-03 -9.500000000000e-04 -3.166666666667e-04
      vertex 1.900000000000e-03 -6.333333333333e-04 -5.421010862428e-20
      vertex 1.900000000000e-03 -6.333333333333e-04 -3.166666666667e-04
    endloop
  endfacet
  facet normal -1.0 0.0 0.0
    outer loop
      vertex 1.900000000000e-03 -9.500000000000e-04 -3.166666666667e-04
      vertex 1.900000000000e-03 -9.500000000000e-04 -5.421010862428e-20
      vertex 1.900000000000e-03 -6.333333333333e-04 -5.421010862428e-20
    endloop
  endfacet
  facet normal -1.0 0.0 0.0
    outer loop
      vertex 1.900000000000e-03 -9.500000000000e-04 -2.168404344971e-19
      vertex 1.900000000000e-03 -6.333333333333e-04 3.166666666667e-04
      vertex 1.900000000000e-03 -6.333333333333e-04 -2.168404344971e-19
    endloop
  endfacet
  facet normal -1.0 0.0 0.0
    outer loop
      vertex 1.900000000000e-03 -9.500000000000e-04 -2.168404344971e-19
      vertex 1.900000000000e-03 -9.500000000000e-04 3.166666666667e-04
      vertex 1.900000000000e-03 -6.333333333333e-04 3.166666666667e-04
    endloop
  endfacet
  facet normal -1.0 0.0 0.0
    outer loop
      vertex 1.900000000000e-03 -9.500000000000e-04 3.166666666667e-04
      vertex 1.900000000000e-03 -6.333333333333e-04 6.333333333333e-04
      vertex 1.900000000000e-03 -6.333333333333e-04 3.166666666667e-04
    endloop
  endfacet
  facet normal -1.0 0.0 0.0
    outer loop
      vertex 1.900000000000e-03 -9.500000000000e-04 3.166666666667e-04
      vertex 1.900000000000e-03 -9.500000000000e-04 6.333333333333e-04
      vertex 1.900000000000e-03 -6.333333333333e-04 6.333333333333e-04
    endloop
  endfacet
  facet normal -1.0 0.0 0.0
    outer loop
      vertex 1.900000000000e-03 -9.500000000000e-04 6.333333333333e-04
      vertex 1.900000000000e-03 -6.333333333333e-04 9.500000000000e-04
      vertex 1.900000000000e-03 -6.333333333333e-04 6.333333333333e-04
    endloop
  endfacet
  facet normal -1.0 0.0 0.0
    outer loop
      vertex 1.900000000000e-03 -9.500000000000e-04 6.333333333333e-04
      vertex 1.900000000000e-03 -9.500000000000e-04 9.500000000000e-04
      vertex 1.900000000000e-03 -6.333333333333e-04 9.500000000000e-04
    endloop
  endfacet
  facet normal -1.0 0.0 0.0
    outer loop
      vertex 1.900000000000e-03 -9.500000000000e-04 9.500000000000e-04
      vertex 1.900000000000e-03 -6.333333333333e-04 1.266666666667e-03
      vertex 1.900000000000e-03 -6.333333333333e-04 9.500000000000e-04
    endloop
  endfacet
  facet normal -1.0 0.0 0.0
    outer loop
      vertex 1.900000000000e-03 -9.500000000000e-04 9.500000000000e-04
      vertex 1.900000000000e-03 -9.500000000000e-04 1.266666666667e-03
      vertex 1.900000000000e-03 -6.333333333333e-04 1.266666666667e-03
    endloop
  endfacet
  facet normal -1.0 0.0 0.0
    outer loop
      vertex 1.900000000000e-03 -9.500000000000e-04 1.266666666667e-03
      vertex 1.900000000000e-03 -6.333333333333e-04 1.583333333333e-03
      vertex 1.900000000000e-03 -6.333333333333e-04 1.266666666667e-03
    endloop
  endfacet
  facet normal -1.0 0.0 0.0
    outer loop
      vertex 1.900000000000e-03 -9.500000000000e-04 1.266666666667e-03
      vertex 1.900000000000e-03 -9.500000000000e-04 1.583333333333e-03
      vertex 1.900000000000e-03 -6.333333333333e-04 1.583333333333e-03
    endloop
  endfacet
  facet normal -1.0 0.0 0.0
    outer loop
      vertex 1.900000000000e-03 -9.500000000000e-04 1.583333333333e-03
      vertex 1.900000000000e-03 -6.333333333333e-04 1.900000000000e-03
      vertex 1.900000000000e-03 -6.333333333333e-04 1.583333333333e-03
    endloop
  endfacet
  facet normal -1.0 0.0 0.0
    outer loop
      vertex 1.900000000000e-03 -9.500000000000e-04 1.583333333333e-03
      vertex 1.900000000000e-03 -9.500000000000e-04 1.900000000000e-03
      vertex 1.900000000000e-03 -6.333333333333e-04 1.900000000000e-03
    endloop
  endfacet
  facet normal -1.0 0.0 0.0
    outer loop
      vertex 1.900000000000e-03 -6.333333333333e-04 -1.900000000000e-03
      vertex 1.900000000000e-03 -3.166666666667e-04 -1.583333333333e-03
      vertex 1.900000000000e-03 -3.166666666667e-04 -1.900000000000e-03
    endloop
  endfacet
  facet normal -1.0 0.0 0.0
    outer loop
      vertex 1.900000000000e-03 -6.333333333333e-04 -1.900000000000e-03
      vertex 1.900000000000e-03 -6.333333333333e-04 -1.583333333333e-03
      vertex 1.900000000000e-03 -3.166666666667e-04 -1.583333333333e-03
    endloop
  endfacet
  facet normal -1.0 0.0 0.0
    outer loop
      vertex 1.900000000000e-03 -6.333333333333e-04 -1.583333333333e-03
      vertex 1.900000000000e-03 -3.166666666667e-04 -1.266666666667e-03
      vertex 1.900000000000e-03 -3.166666666667e-04 -1.583333333333e-03
    endloop
  endfacet
  facet normal -1.0 0.0 0.0
    outer loop
      vertex 1.900000000000e-03 -6.333333333333e-04 -1.583333333333e-03
      vertex 1.900000000000e-03 -6.333333333333e-04 -1.266666666667e-03
      vertex 1.900000000000e-03 -3.166666666667e-04 -1.266666666667e-03
    endloop
  endfacet
  facet normal -1.0 0.0 0.0
    outer loop
      vertex 1.900000000000e-03 -6.333333333333e-04 -1.266666666667e-03
      vertex 1.900000000000e-03 -3.166666666667e-04 -9.500000000000e-04
      vertex 1.900000000000e-03 -3.166666666667e-04 -1.266666666667e-03
    endloop
  endfacet
  facet normal -1.0 0.0 0.0
    outer loop
      vertex 1.900000000000e-03 -6.333333333333e-04 -1.266666666667e-03
      vertex 1.900000000000e-03 -6.333333333333e-04 -9.500000000000e-04
      vertex 1.900000000000e-03 -3.166666666667e-04 -9.500000000000e-04
    endloop
  endfacet
  facet normal -1.0 0.0 0.0
    outer loop
      vertex 1.900000000000e-03 -6.333333333333e-04 -9.500000000000e-04
      vertex 1.900000000000e-03 -3.166666666667e-04 -6.333333333333e-04
      vertex 1.900000000000e-03 -3.166666666667e-04 -9.500000000000e-04
    endloop
  endfacet
  facet normal -1.0 0.0 0.0
    outer loop
      vertex 1.900000000000e-03 -6.333333333333e-04 -9.500000000000e-04
      vertex 1.900000000000e-03 -6.333333333333e-04 -6.333333333333e-04
      vertex 1.900000000000e-03 -3.166666666667e-04 -6.333333333333e-04
    endloop
  endfacet
  facet normal -1.0 0.0 0.0
    outer loop
      vertex 1.900000000000e-03 -6.333333333333e-04 -6.333333333333e-04
      vertex 1.900000000000e-03 -3.166666666667e-04 -3.166666666667e-04
      vertex 1.900000000000e-03 -3.166666666667e-04 -6.333333333333e-04
    endloop
  endfacet
  facet normal -1.0 0.0 0.0
    outer loop
      vertex 1.900000000000e-03 -6.333333333333e-04 -6.333333333333e-04
      vertex 1.900000000000e-03 -6.333333333333e-04 -3.166666666667e-04
      vertex 1.900000000000e-03 -3.166666666667e-04 -3.166666666667e-04
    endloop
  endfacet
  facet normal -1.0 0.0 0.0
    outer loop
      vertex 1.900000000000e-03 -6.333333333333e-04 -3.166666666667e-04
      vertex 1.900000000000e-03 -3.166666666667e-04 -5.421010862428e-20
      vertex 1.900000000000e-03 -3.166666666667e-04 -3.166666666667e-04
    endloop
  endfacet
  facet normal -1.0 0.0 0.0
    outer loop
      vertex 1.900000000000e-03 -6.333333333333e-04 -3.166666666667e-04
      vertex 1.900000000000e-03 -6.333333333333e-04 -5.421010862428e-20
      vertex 1.900000000000e-03 -3.166666666667e-04 -5.421010862428e-20
    endloop
  endfacet
  facet normal -1.0 0.0 0.0
    outer loop
      vertex 1.900000000000e-03 -6.333333333333e-04 -2.168404344971e-19
      vertex 1.900000000000e-03 -3.166666666667e-04 3.166666666667e-04
      vertex 1.900000000000e-03 -3.166666666667e-04 -2.168404344971e-19
    endloop
  endfacet
  facet normal -1.0 0.0 0.0
    outer loop
      vertex 1.900000000000e-03 -6.333333333333e-04 -2.168404344971e-19
      vertex 1.900000000000e-03 -6.333333333333e-04 3.166666666667e-04
      vertex 1.900000000000e-03 -3.166666666667e-04 3.166666666667e-04
    endloop
  endfacet
  facet normal -1.0 0.0 0.0
    outer loop
      vertex 1.900000000000e-03 -6.333333333333e-04 3.166666666667e-04
      vertex 1.900000000000e-03 -3.166666666667e-04 6.333333333333e-04
      vertex 1.900000000000e-03 -3.166666666667e-04 3.166666666667e-04
    endloop
  endfacet
  facet normal -1.0 0.0 0.0
    outer loop
      vertex 1.900000000000e-03 -6.333333333333e-04 3.166666666667e-04
      vertex 1.900000000000e-03 -6.333333333333e-04 6.333333333333e-04
      vertex 1.900000000000e-03 -3.166666666667e-04 6.333333333333e-04
    endloop
  endfacet
  facet normal -1.0 0.0 0.0
    outer loop
      vertex 1.900000000000e-03 -6.333333333333e-04 6.333333333333e-04
      vertex 1.900000000000e-03 -3.166666666667e-04 9.500000000000e-04
      vertex 1.900000000000e-03 -3.166666666667e-04 6.333333333333e-04
    endloop
  endfacet
  facet normal -1.0 0.0 0.0
    outer loop
      vertex 1.900000000000e-03 -6.333333333333e-04 6.333333333333e-04
      vertex 1.900000000000e-03 -6.333333333333e-04 9.500000000000e-04
      vertex 1.900000000000e-03 -3.166666666667e-04 9.500000000000e-04
    endloop
  endfacet
  facet normal -1.0 0.0 0.0
    outer loop
      vertex 1.900000000000e-03 -6.333333333333e-04 9.500000000000e-04
      vertex 1.900000000000e-03 -3.166666666667e-04 1.266666666667e-03
      vertex 1.900000000000e-03 -3.166666666667e-04 9.500000000000e-04
    endloop
  endfacet
  facet normal -1.0 0.0 0.0
    outer loop
      vertex 1.900000000000e-03 -6.333333333333e-04 9.500000000000e-04
      vertex 1.900000000000e-03 -6.333333333333e-04 1.266666666667e-03
      vertex 1.900000000000e-03 -3.166666666667e-04 1.266666666667e-03
    endloop
  endfacet
  facet normal -1.0 0.0 0.0
    outer loop
      vertex 1.900000000000e-03 -6.333333333333e-04 1.266666666667e-03
      vertex 1.900000000000e-03 -3.166666666667e-04 1.583333333333e-03
      vertex 1.900000000000e-03 -3.166666666667e-04 1.266666666667e-03
    endloop
  endfacet
  facet normal -1.0 0.0 0.0
    outer loop
      vertex 1.900000000000e-03 -6.333333333333e-04 1.266666666667e-03
      vertex 1.900000000000e-03 -6.333333333333e-04 1.583333333333e-03
      vertex 1.900000000000e-03 -3.166666666667e-04 1.583333333333e-03
    endloop
  endfacet
  facet normal -1.0 0.0 0.0
    outer loop
      vertex 1.900000000000e-03 -6.333333333333e-04 1.583333333333e-03
      vertex 1.900000000000e-03 -3.166666666667e-04 1.900000000000e-03
      vertex 1.900000000000e-03 -3.166666666667e-04 1.583333333333e-03
    endloop
  endfacet
  facet normal -1.0 0.0 0.0
    outer loop
      vertex 1.900000000000e-03 -6.333333333333e-04 1.583333333333e-03
      vertex 1.900000000000e-03 -6.333333333333e-04 1.900000000000e-03
      vertex 1.900000000000e-03 -3.166666666667e-04 1.900000000000e-03
    endloop
  endfacet
  facet normal -1.0 0.0 0.0
    outer loop
      vertex 1.900000000000e-03 -3.166666666667e-04 -1.900000000000e-03
      vertex 1.900000000000e-03 -5.421010862428e-20 -1.583333333333e-03
      vertex 1.900000000000e-03 -5.421010862428e-20 -1.900000000000e-03
    endloop
  endfacet
  facet normal -1.0 0.0 0.0
    outer loop
      vertex 1.900000000000e-03 -3.166666666667e-04 -1.900000000000e-03
      vertex 1.900000000000e-03 -3.166666666667e-04 -1.583333333333e-03
      vertex 1.900000000000e-03 -5.421010862428e-20 -1.583333333333e-03
    endloop
  endfacet
  facet normal -1.0 0.0 0.0
    outer loop
      vertex 1.900000000000e-03 -3.166666666667e-04 -1.583333333333e-03
      vertex 1.900000000000e-03 -5.421010862428e-20 -1.266666666667e-03
      vertex 1.900000000000e-03 -5.421010862428e-20 -1.583333333333e-03
    endloop
  endfacet
  facet normal -1.0 0.0 0.0
    outer loop
      vertex 1.900000000000e-03 -3.166666666667e-04 -1.583333333333e-03
      vertex 1.900000000000e-03 -3.166666666667e-04 -1.266666666667e-03
      vertex 1.900000000000e-03 -5.421010862428e-20 -1.266666666667e-03
    endloop
  endfacet
  facet normal -1.0 0.0 0.0
    outer loop
      vertex 1.900000000000e-03 -3.166666666667e-04 -1.266666666667e-03
      vertex 1.900000000000e-03 -5.421010862428e-20 -9.500000000000e-04
      vertex 1.900000000000e-03 -5.421010862428e-20 -1.266666666667e-03
    endloop
  endfacet
  facet normal -1.0 0.0 0.0
    outer loop
      vertex 1.900000000000e-03 -3.166666666667e-04 -1.266666666667e-03
      vertex 1.900000000000e-03 -3.166666666667e-04 -9.500000000000e-04
      vertex 1.900000000000e-03 -5.421010862428e-20 -9.500000000000e-04
    endloop
  endfacet
  facet normal -1.0 0.0 0.0
    outer loop
      vertex 1.900000000000e-03 -3.166666666667e-04 -9.500000000000e-04
      vertex 1.900000000000e-03 -5.421010862428e-20 -6.333333333333e-04
      vertex 1.900000000000e-03 -5.421010862428e-20 -9.500000000000e-04
    endloop
  endfacet
  facet normal -1.0 0.0 0.0
    outer loop
      vertex 1.900000000000e-03 -3.166666666667e-04 -9.500000000000e-04
      vertex 1.900000000000e-03 -3.166666666667e-04 -6.333333333333e-04
      vertex 1.900000000000e-03 -5.421010862428e-20 -6.333333333333e-04
    endloop
  endfacet
  facet normal -1.0 0.0 0.0
    outer loop
      vertex 1.900000000000e-03 -3.166666666667e-04 -6.333333333333e-04
      vertex 1.900000000000e-03 -5.421010862428e-20 -3.166666666667e-04
      vertex 1.900000000000e-03 -5.421010862428e-20 -6.333333333333e-04
    endloop
  endfacet
  facet normal -1.0 0.0 0.0
    outer loop
      vertex 1.900000000000e-03 -3.166666666667e-04 -6.333333333333e-04
      vertex 1.900000000000e-03 -3.166666666667e-04 -3.166666666667e-04
      vertex 1.900000000000e-03 -5.421010862428e-20 -3.166666666667e-04
    endloop
  endfacet
  facet normal -1.0 0.0 0.0
    outer loop
      vertex 1.900000000000e-03 -3.166666666667e-04 -3.166666666667e-04
      vertex 1.900000000000e-03 -5.421010862428e-20 -5.421010862428e-20
      vertex 1.900000000000e-03 -5.421010862428e-20 -3.166666666667e-04
    endloop
  endfacet
  facet normal -1.0 0.0 0.0
    outer loop
      vertex 1.900000000000e-03 -3.166666666667e-04 -3.166666666667e-04
      vertex 1.900000000000e-03 -3.166666666667e-04 -5.421010862428e-20
      vertex 1.900000000000e-03 -5.421010862428e-20 -5.421010862428e-20
    endloop
  endfacet
  facet normal -1.0 0.0 0.0
    outer loop
      vertex 1.900000000000e-03 -3.166666666667e-04 -2.168404344971e-19
      vertex 1.900000000000e-03 -5.421010862428e-20 3.166666666667e-04
      vertex 1.900000000000e-03 -5.421010862428e-20 -2.168404344971e-19
    endloop
  endfacet
  facet normal -1.0 0.0 0.0
    outer loop
      vertex 1.900000000000e-03 -3.166666666667e-04 -2.168404344971e-19
      vertex 1.900000000000e-03 -3.166666666667e-04 3.166666666667e-04
      vertex 1.900000000000e-03 -5.421010862428e-20 3.166666666667e-04
    endloop
  endfacet
  facet normal -1.0 0.0 0.0
    outer loop
      vertex 1.900000000000e-03 -3.166666666667e-04 3.166666666667e-04
      vertex 1.900000000000e-03 -5.421010862428e-20 6.333333333333e-04
      vertex 1.900000000000e-03 -5.421010862428e-20 3.166666666667e-04
    endloop
  endfacet
  facet normal -1.0 0.0 0.0
    outer loop
      vertex 1.900000000000e-03 -3.166666666667e-04 3.166666666667e-04
      vertex 1.900000000000e-03 -3.166666666667e-04 6.333333333333e-04
      vertex 1.900000000000e-03 -5.421010862428e-20 6.333333333333e-04
    endloop
  endfacet
  facet normal -1.0 0.0 0.0
    outer loop
      vertex 1.900000000000e-03 -3.166666666667e-04 6.333333333333e-04
      vertex 1.900000000000e-03 -5.421010862428e-20 9.500000000000e-04
      vertex 1.900000000000e-03 -5.421010862428e-20 6.333333333333e-04
    endloop
  endfacet
  facet normal -1.0 0.0 0.0
    outer loop
      vertex 1.900000000000e-03 -3.166666666667e-04 6.333333333333e-04
      vertex 1.900000000000e-03 -3.166666666667e-04 9.500000000000e-04
      vertex 1.900000000000e-03 -5.421010862428e-20 9.500000000000e-04
    endloop
  endfacet
  facet normal -1.0 0.0 0.0
    outer loop
      vertex 1.900000000000e-03 -3.166666666667e-04 9.500000000000e-04
      vertex 1.900000000000e-03 -5.421010862428e-20 1.266666666667e-03
      vertex 1.900000000000e-03 -5.421010862428e-20 9.500000000000e-04
    endloop
  endfacet
  facet normal -1.0 0.0 0.0
    outer loop
      vertex 1.900000000000e-03 -3.166666666667e-04 9.500000000000e-04
      vertex 1.900000000000e-03 -3.166666666667e-04 1.266666666667e-03
      vertex 1.900000000000e-03 -5.421010862428e-20 1.266666666667e-03
    endloop
  endfacet
  facet normal -1.0 0.0 0.0
    outer loop
      vertex 1.900000000000e-03 -3.166666666667e-04 1.266666666667e-03
      vertex 1.900000000000e-03 -5.421010862428e-20 1.583333333333e-03
      vertex 1.900000000000e-03 -5.421010862428e-20 1.266666666667e-03
    endloop
  endfacet
  facet normal -1.0 0.0 0.0
    outer loop
      vertex 1.900000000000e-03 -3.166666666667e-04 1.266666666667e-03
      vertex 1.900000000000e-03 -3.166666666667e-04 1.583333333333e-03
      vertex 1.900000000000e-03 -5.421010862428e-20 1.583333333333e-03
    endloop
  endfacet
  facet normal -1.0 0.0 0.0
    outer loop
      vertex 1.900000000000e-03 -3.166666666667e-04 1.583333333333e-03
      vertex 1.900000000000e-03 -5.421010862428e-20 1.900000000000e-03
      vertex 1.900000000000e-03 -5.421010862428e-20 1.583333333333e-03
    endloop
  endfacet
  facet normal -1.0 0.0 0.0
    outer loop
      vertex 1.900000000000e-03 -3.166666666667e-04 1.583333333333e-03
      vertex 1.900000000000e-03 -3.166666666667e-04 1.900000000000e-03
      vertex 1.900000000000e-03 -5.421010862428e-20 1.900000000000e-03
    endloop
  endfacet
  facet normal -1.0 0.0 0.0
    outer loop
      vertex 1.900000000000e-03 -2.168404344971e-19 -1.900000000000e-03
      vertex 1.900000000000e-03 3.166666666667e-04 -1.583333333333e-03
      vertex 1.900000000000e-03 3.166666666667e-04 -1.900000000000e-03
    endloop
  endfacet
  facet normal -1.0 0.0 0.0
    outer loop
      vertex 1.900000000000e-03 -2.168404344971e-19 -1.900000000000e-03
      vertex 1.900000000000e-03 -2.168404344971e-19 -1.583333333333e-03
      vertex 1.900000000000e-03 3.166666666667e-04 -1.583333333333e-03
    endloop
  endfacet
  facet normal -1.0 0.0 0.0
    outer loop
      vertex 1.900000000000e-03 -2.168404344971e-19 -1.583333333333e-03
      vertex 1.900000000000e-03 3.166666666667e-04 -1.266666666667e-03
      vertex 1.900000000000e-03 3.166666666667e-04 -1.583333333333e-03
    endloop
  endfacet
  facet normal -1.0 0.0 0.0
    outer loop
      vertex 1.900000000000e-03 -2.168404344971e-19 -1.583333333333e-03
      vertex 1.900000000000e-03 -2.168404344971e-19 -1.266666666667e-03
      vertex 1.900000000000e-03 3.166666666667e-04 -1.266666666667e-03
    endloop
  endfacet
  facet normal -1.0 0.0 0.0
    outer loop
      vertex 1.900000000000e-03 -2.168404344971e-19 -1.266666666667e-03
      vertex 1.900000000000e-03 3.166666666667e-04 -9.500000000000e-04
      vertex 1.900000000000e-03 3.166666666667e-04 -1.266666666667e-03
    endloop
  endfacet
  facet normal -1.0 0.0 0.0
    outer loop
      vertex 1.900000000000e-03 -2.168404344971e-19 -1.266666666667e-03
      vertex 1.900000000000e-03 -2.168404344971e-19 -9.500000000000e-04
      vertex 1.900000000000e-03 3.166666666667e-04 -9.500000000000e-04
    endloop
  endfacet
  facet normal -1.0 0.0 0.0
    outer loop
      vertex 1.900000000000e-03 -2.168404344971e-19 -9.500000000000e-04
      vertex 1.900000000000e-03 3.166666666667e-04 -6.333333333333e-04
      vertex 1.900000000000e-03 3.166666666667e-04 -9.500000000000e-04
    endloop
  endfacet
  facet normal -1.0 0.0 0.0
    outer loop
      vertex 1.900000000000e-03 -2.168404344971e-19 -9.500000000000e-04
      vertex 1.900000000000e-03 -2.168404344971e-19 -6.333333333333e-04
      vertex 1.900000000000e-03 3.166666666667e-04 -6.333333333333e-04
    endloop
  endfacet
  facet normal -1.0 0.0 0.0
    outer loop
      vertex 1.900000000000e-03 -2.168404344971e-19 -6.333333333333e-04
      vertex 1.900000000000e-03 3.166666666667e-04 -3.166666666667e-04
      vertex 1.900000000000e-03 3.166666666667e-04 -6.333333333333e-04
    endloop
  endfacet
  facet normal -1.0 0.0 0.0
    outer loop
      vertex 1.900000000000e-03 -2.168404344971e-19 -6.333333333333e-04
      vertex 1.900000000000e-03 -2.168404344971e-19 -3.166666666667e-04
      vertex 1.900000000000e-03 3.166666666667e-04 -3.166666666667e-04
    endloop
  endfacet
  facet normal -1.0 0.0 0.0
    outer loop
      vertex 1.900000000000e-03 -2.168404344971e-19 -3.166666666667e-04
      vertex 1.900000000000e-03 3.166666666667e-04 -5.421010862428e-20
      vertex 1.900000000000e-03 3.166666666667e-04 -3.166666666667e-04
    endloop
  endfacet
  facet normal -1.0 0.0 0.0
    outer loop
      vertex 1.900000000000e-03 -2.168404344971e-19 -3.166666666667e-04
      vertex 1.900000000000e-03 -2.168404344971e-19 -5.421010862428e-20
      vertex 1.900000000000e-03 3.166666666667e-04 -5.421010862428e-20
    endloop
  endfacet
  facet normal -1.0 0.0 0.0
    outer loop
      vertex 1.900000000000e-03 -2.168404344971e-19 -2.168404344971e-19
      vertex 1.900000000000e-03 3.166666666667e-04 3.166666666667e-04
      vertex 1.900000000000e-03 3.166666666667e-04 -2.168404344971e-19
    endloop
  endfacet
  facet normal -1.0 0.0 0.0
    outer loop
      vertex 1.900000000000e-03 -2.168404344971e-19 -2.168404344971e-19
      vertex 1.900000000000e-03 -2.168404344971e-19 3.166666666667e-04
      vertex 1.900000000000e-03 3.166666666667e-04 3.166666666667e-04
    endloop
  endfacet
  facet normal -1.0 0.0 0.0
    outer loop
      vertex 1.900000000000e-03 -2.168404344971e-19 3.166666666667e-04
      vertex 1.900000000000e-03 3.166666666667e-04 6.333333333333e-04
      vertex 1.900000000000e-03 3.166666666667e-04 3.166666666667e-04
    endloop
  endfacet
  facet normal -1.0 0.0 0.0
    outer loop
      vertex 1.900000000000e-03 -2.168404344971e-19 3.166666666667e-04
      vertex 1.900000000000e-03 -2.168404344971e-19 6.333333333333e-04
      vertex 1.900000000000e-03 3.166666666667e-04 6.333333333333e-04
    endloop
  endfacet
  facet normal -1.0 0.0 0.0
    outer loop
      vertex 1.900000000000e-03 -2.168404344971e-19 6.333333333333e-04
      vertex 1.900000000000e-03 3.166666666667e-04 9.500000000000e-04
      vertex 1.900000000000e-03 3.166666666667e-04 6.333333333333e-04
    endloop
  endfacet
  facet normal -1.0 0.0 0.0
    outer loop
      vertex 1.900000000000e-03 -2.168404344971e-19 6.333333333333e-04
      vertex 1.900000000000e-03 -2.168404344971e-19 9.500000000000e-04
      vertex 1.900000000000e-03 3.166666666667e-04 9.500000000000e-04
    endloop
  endfacet
  facet normal -1.0 0.0 0.0
    outer loop
      vertex 1.900000000000e-03 -2.168404344971e-19 9.500000000000e-04
      vertex 1.900000000000e-03 3.166666666667e-04 1.266666666667e-03
      vertex 1.900000000000e-03 3.166666666667e-04 9.500000000000e-04
    endloop
  endfacet
  facet normal -1.0 0.0 0.0
    outer loop
      vertex 1.900000000000e-03 -2.168404344971e-19 9.500000000000e-04
      vertex 1.900000000000e-03 -2.168404344971e-19 1.266666666667e-03
      vertex 1.900000000000e-03 3.166666666667e-04 1.266666666667e-03
    endloop
  endfacet
  facet normal -1.0 0.0 0.0
    outer loop
      vertex 1.900000000000e-03 -2.168404344971e-19 1.266666666667e-03
      vertex 1.900000000000e-03 3.166666666667e-04 1.583333333333e-03
      vertex 1.900000000000e-03 3.166666666667e-04 1.266666666667e-03
    endloop
  endfacet
  facet normal -1.0 0.0 0.0
    outer loop
      vertex 1.900000000000e-03 -2.168404344971e-19 1.266666666667e-03
      vertex 1.900000000000e-03 -2.168404344971e-19 1.583333333333e-03
      vertex 1.900000000000e-03 3.166666666667e-04 1.583333333333e-03
    endloop
  endfacet
  facet normal -1.0 0.0 0.0
    outer loop
      vertex 1.900000000000e-03 -2.168404344971e-19 1.583333333333e-03
      vertex 1.900000000000e-03 3.166666666667e-04 1.900000000000e-03
      vertex 1.900000000000e-03 3.166666666667e-04 1.583333333333e-03
    endloop
  endfacet
  facet normal -1.0 0.0 0.0
    outer loop
      vertex 1.900000000000e-03 -2.168404344971e-19 1.583333333333e-03
      vertex 1.900000000000e-03 -2.168404344971e-19 1.900000000000e-03
      vertex 1.900000000000e-03 3.166666666667e-04 1.900000000000e-03
    endloop
  endfacet
  facet normal -1.0 0.0 0.0
    outer loop
      vertex 1.900000000000e-03 3.166666666667e-04 -1.900000000000e-03
      vertex 1.900000000000e-03 6.333333333333e-04 -1.583333333333e-03
      vertex 1.900000000000e-03 6.333333333333e-04 -1.900000000000e-03
    endloop
  endfacet
  facet normal -1.0 0.0 0.0
    outer loop
      vertex 1.900000000000e-03 3.166666666667e-04 -1.900000000000e-03
      vertex 1.900000000000e-03 3.166666666667e-04 -1.583333333333e-03
      vertex 1.900000000000e-03 6.333333333333e-04 -1.583333333333e-03
    endloop
  endfacet
  facet normal -1.0 0.0 0.0
    outer loop
      vertex 1.900000000000e-03 3.166666666667e-04 -1.583333333333e-03
      vertex 1.900000000000e-03 6.333333333333e-04 -1.266666666667e-03
      vertex 1.900000000000e-03 6.333333333333e-04 -1.583333333333e-03
    endloop
  endfacet
  facet normal -1.0 0.0 0.0
    outer loop
      vertex 1.900000000000e-03 3.166666666667e-04 -1.583333333333e-03
      vertex 1.900000000000e-03 3.166666666667e-04 -1.266666666667e-03
      vertex 1.900000000000e-03 6.333333333333e-04 -1.266666666667e-03
    endloop
  endfacet
  facet normal -1.0 0.0 0.0
    outer loop
      vertex 1.900000000000e-03 3.166666666667e-04 -1.266666666667e-03
      vertex 1.900000000000e-03 6.333333333333e-04 -9.500000000000e-04
      vertex 1.900000000000e-03 6.333333333333e-04 -1.266666666667e-03
    endloop
  endfacet
  facet normal -1.0 0.0 0.0
    outer loop
      vertex 1.900000000000e-03 3.166666666667e-04 -1.266666666667e-03
      vertex 1.900000000000e-03 3.166666666667e-04 -9.500000000000e-04
      vertex 1.900000000000e-03 6.333333333333e-04 -9.500000000000e-04
    endloop
  endfacet
  facet normal -1.0 0.0 0.0
    outer loop
      vertex 1.900000000000e-03 3.166666666667e-04 -9.500000000000e-04
      vertex 1.900000000000e-03 6.333333333333e-04 -6.333333333333e-04
      vertex 1.900000000000e-03 6.333333333333e-04 -9.500000000000e-04
    endloop
  endfacet
  facet normal -1.0 0.0 0.0
    outer loop
      vertex 1.900000000000e-03 3.166666666667e-04 -9.500000000000e-04
      vertex 1.900000000000e-03 3.166666666667e-04 -6.333333333333e-04
      vertex 1.900000000000e-03 6.333333333333e-04 -6.333333333333e-04
    endloop
  endfacet
  facet normal -1.0 0.0 0.0
    outer loop
      vertex 1.900000000000e-03 3.166666666667e-04 -6.333333333333e-04
      vertex 1.900000000000e-03 6.333333333333e-04 -3.166666666667e-04
      vertex 1.900000000000e-03 6.333333333333e-04 -6.333333333333e-04
    endloop
  endfacet
  facet normal -1.0 0.0 0.0
    outer loop
      vertex 1.900000000000e-03 3.166666666667e-04 -6.333333333333e-04
      vertex 1.900000000000e-03 3.166666666667e-04 -3.166666666667e-04
      vertex 1.900000000000e-03 6.333333333333e-04 -3.166666666667e-04
    endloop
  endfacet
  facet normal -1.0 0.0 0.0
    outer loop
      vertex 1.900000000000e-03 3.166666666667e-04 -3.166666666667e-04
      vertex 1.900000000000e-03 6.333333333333e-04 -5.421010862428e-20
      vertex 1.900000000000e-03 6.333333333333e-04 -3.166666666667e-04
    endloop
  endfacet
  facet normal -1.0 0.0 0.0
    outer loop
      vertex 1.900000000000e-03 3.166666666667e-04 -3.166666666667e-04
      vertex 1.900000000000e-03 3.166666666667e-04 -5.421010862428e-20
      vertex 1.900000000000e-03 6.333333333333e-04 -5.421010862428e-20
    endloop
  endfacet
  facet normal -1.0 0.0 0.0
    outer loop
      vertex 1.900000000000e-03 3.166666666667e-04 -2.168404344971e-19
      vertex 1.900000000000e-03 6.333333333333e-04 3.166666666667e-04
      vertex 1.900000000000e-03 6.333333333333e-04 -2.168404344971e-19
    endloop
  endfacet
  facet normal -1.0 0.0 0.0
    outer loop
      vertex 1.900000000000e-03 3.166666666667e-04 -2.168404344971e-19
      vertex 1.900000000000e-03 3.166666666667e-04 3.166666666667e-04
      vertex 1.900000000000e-03 6.333333333333e-04 3.166666666667e-04
    endloop
  endfacet
  facet normal -1.0 0.0 0.0
    outer loop
      vertex 1.900000000000e-03 3.166666666667e-04 3.166666666667e-04
      vertex 1.900000000000e-03 6.333333333333e-04 6.333333333333e-04
      vertex 1.900000000000e-03 6.333333333333e-04 3.166666666667e-04
    endloop
  endfacet
  facet normal -1.0 0.0 0.0
    outer loop
      vertex 1.900000000000e-03 3.166666666667e-04 3.166666666667e-04
      vertex 1.900000000000e-03 3.166666666667e-04 6.333333333333e-04
      vertex 1.900000000000e-03 6.333333333333e-04 6.333333333333e-04
    endloop
  endfacet
  facet normal -1.0 0.0 0.0
    outer loop
      vertex 1.900000000000e-03 3.166666666667e-04 6.333333333333e-04
      vertex 1.900000000000e-03 6.333333333333e-04 9.500000000000e-04
      vertex 1.900000000000e-03 6.333333333333e-04 6.333333333333e-04
    endloop
  endfacet
  facet normal -1.0 0.0 0.0
    outer loop
      vertex 1.900000000000e-03 3.166666666667e-04 6.333333333333e-04
      vertex 1.900000000000e-03 3.166666666667e-04 9.500000000000e-04
      vertex 1.900000000000e-03 6.333333333333e-04 9.500000000000e-04
    endloop
  endfacet
  facet normal -1.0 0.0 0.0
    outer loop
      vertex 1.900000000000e-03 3.166666666667e-04 9.500000000000e-04
      vertex 1.900000000000e-03 6.333333333333e-04 1.266666666667e-03
      vertex 1.900000000000e-03 6.333333333333e-04 9.500000000000e-04
    endloop
  endfacet
  facet normal -1.0 0.0 0.0
    outer loop
      vertex 1.900000000000e-03 3.166666666667e-04 9.500000000000e-04
      vertex 1.900000000000e-03 3.166666666667e-04 1.266666666667e-03
      vertex 1.900000000000e-03 6.333333333333e-04 1.266666666667e-03
    endloop
  endfacet
  facet normal -1.0 0.0 0.0
    outer loop
      vertex 1.900000000000e-03 3.166666666667e-04 1.266666666667e-03
      vertex 1.900000000000e-03 6.333333333333e-04 1.583333333333e-03
      vertex 1.900000000000e-03 6.333333333333e-04 1.266666666667e-03
    endloop
  endfacet
  facet normal -1.0 0.0 0.0
    outer loop
      vertex 1.900000000000e-03 3.166666666667e-04 1.266666666667e-03
      vertex 1.900000000000e-03 3.166666666667e-04 1.583333333333e-03
      vertex 1.900000000000e-03 6.333333333333e-04 1.583333333333e-03
    endloop
  endfacet
  facet normal -1.0 0.0 0.0
    outer loop
      vertex 1.900000000000e-03 3.166666666667e-04 1.583333333333e-03
      vertex 1.900000000000e-03 6.333333333333e-04 1.900000000000e-03
      vertex 1.900000000000e-03 6.333333333333e-04 1.583333333333e-03
    endloop
  endfacet
  facet normal -1.0 0.0 0.0
    outer loop
      vertex 1.900000000000e-03 3.166666666667e-04 1.583333333333e-03
      vertex 1.900000000000e-03 3.166666666667e-04 1.900000000000e-03
      vertex 1.900000000000e-03 6.333333333333e-04 1.900000000000e-03
    endloop
  endfacet
  facet normal -1.0 0.0 0.0
    outer loop
      vertex 1.900000000000e-03 6.333333333333e-04 -1.900000000000e-03
      vertex 1.900000000000e-03 9.500000000000e-04 -1.583333333333e-03
      vertex 1.900000000000e-03 9.500000000000e-04 -1.900000000000e-03
    endloop
  endfacet
  facet normal -1.0 0.0 0.0
    outer loop
      vertex 1.900000000000e-03 6.333333333333e-04 -1.900000000000e-03
      vertex 1.900000000000e-03 6.333333333333e-04 -1.583333333333e-03
      vertex 1.900000000000e-03 9.500000000000e-04 -1.583333333333e-03
    endloop
  endfacet
  facet normal -1.0 0.0 0.0
    outer loop
      vertex 1.900000000000e-03 6.333333333333e-04 -1.583333333333e-03
      vertex 1.900000000000e-03 9.500000000000e-04 -1.266666666667e-03
      vertex 1.900000000000e-03 9.500000000000e-04 -1.583333333333e-03
    endloop
  endfacet
  facet normal -1.0 0.0 0.0
    outer loop
      vertex 1.900000000000e-03 6.333333333333e-04 -1.583333333333e-03
      vertex 1.900000000000e-03 6.333333333333e-04 -1.266666666667e-03
      vertex 1.900000000000e-03 9.500000000000e-04 -1.266666666667e-03
    endloop
  endfacet
  facet normal -1.0 0.0 0.0
    outer loop
      vertex 1.900000000000e-03 6.333333333333e-04 -1.266666666667e-03
      vertex 1.900000000000e-03 9.500000000000e-04 -9.500000000000e-04
      vertex 1.900000000000e-03 9.500000000000e-04 -1.266666666667e-03
    endloop
  endfacet
  facet normal -1.0 0.0 0.0
    outer loop
      vertex 1.900000000000e-03 6.333333333333e-04 -1.266666666667e-03
      vertex 1.900000000000e-03 6.333333333333e-04 -9.500000000000e-04
      vertex 1.900000000000e-03 9.500000000000e-04 -9.500000000000e-04
    endloop
  endfacet
  facet normal -1.0 0.0 0.0
    outer loop
      vertex 1.900000000000e-03 6.333333333333e-04 -9.500000000000e-04
      vertex 1.900000000000e-03 9.500000000000e-04 -6.333333333333e-04
      vertex 1.900000000000e-03 9.500000000000e-04 -9.500000000000e-04
    endloop
  endfacet
  facet normal -1.0 0.0 0.0
    outer loop
      vertex 1.900000000000e-03 6.333333333333e-04 -9.500000000000e-04
      vertex 1.900000000000e-03 6.333333333333e-04 -6.333333333333e-04
      vertex 1.900000000000e-03 9.500000000000e-04 -6.333333333333e-04
    endloop
  endfacet
  facet normal -1.0 0.0 0.0
    outer loop
      vertex 1.900000000000e-03 6.333333333333e-04 -6.333333333333e-04
      vertex 1.900000000000e-03 9.500000000000e-04 -3.166666666667e-04
      vertex 1.900000000000e-03 9.500000000000e-04 -6.333333333333e-04
    endloop
  endfacet
  facet normal -1.0 0.0 0.0
    outer loop
      vertex 1.900000000000e-03 6.333333333333e-04 -6.333333333333e-04
      vertex 1.900000000000e-03 6.333333333333e-04 -3.166666666667e-04
      vertex 1.900000000000e-03 9.500000000000e-04 -3.166666666667e-04
    endloop
  endfacet
  facet normal -1.0 0.0 0.0
    outer loop
      vertex 1.900000000000e-03 6.333333333333e-04 -3.166666666667e-04
      vertex 1.900000000000e-03 9.500000000000e-04 -5.421010862428e-20
      vertex 1.900000000000e-03 9.500000000000e-04 -3.166666666667e-04
    endloop
  endfacet
  facet normal -1.0 0.0 0.0
    outer loop
      vertex 1.900000000000e-03 6.333333333333e-04 -3.166666666667e-04
      vertex 1.900000000000e-03 6.333333333333e-04 -5.421010862428e-20
      vertex 1.900000000000e-03 9.500000000000e-04 -5.421010862428e-20
    endloop
  endfacet
  facet normal -1.0 0.0 0.0
    outer loop
      vertex 1.900000000000e-03 6.333333333333e-04 -2.168404344971e-19
      vertex 1.900000000000e-03 9.500000000000e-04 3.166666666667e-04
      vertex 1.900000000000e-03 9.500000000000e-04 -2.168404344971e-19
    endloop
  endfacet
  facet normal -1.0 0.0 0.0
    outer loop
      vertex 1.900000000000e-03 6.333333333333e-04 -2.168404344971e-19
      vertex 1.900000000000e-03 6.333333333333e-04 3.166666666667e-04
      vertex 1.900000000000e-03 9.500000000000e-04 3.166666666667e-04
    endloop
  endfacet
  facet normal -1.0 0.0 0.0
    outer loop
      vertex 1.900000000000e-03 6.333333333333e-04 3.166666666667e-04
      vertex 1.900000000000e-03 9.500000000000e-04 6.333333333333e-04
      vertex 1.900000000000e-03 9.500000000000e-04 3.166666666667e-04
    endloop
  endfacet
  facet normal -1.0 0.0 0.0
    outer loop
      vertex 1.900000000000e-03 6.333333333333e-04 3.166666666667e-04
      vertex 1.900000000000e-03 6.333333333333e-04 6.333333333333e-04
      vertex 1.900000000000e-03 9.500000000000e-04 6.333333333333e-04
    endloop
  endfacet
  facet normal -1.0 0.0 0.0
    outer loop
      vertex 1.900000000000e-03 6.333333333333e-04 6.333333333333e-04
      vertex 1.900000000000e-03 9.500000000000e-04 9.500000000000e-04
      vertex 1.900000000000e-03 9.500000000000e-04 6.333333333333e-04
    endloop
  endfacet
  facet normal -1.0 0.0 0.0
    outer loop
      vertex 1.900000000000e-03 6.333333333333e-04 6.333333333333e-04
      vertex 1.900000000000e-03 6.333333333333e-04 9.500000000000e-04
      vertex 1.900000000000e-03 9.500000000000e-04 9.500000000000e-04
    endloop
  endfacet
  facet normal -1.0 0.0 0.0
    outer loop
      vertex 1.900000000000e-03 6.333333333333e-04 9.500000000000e-04
      vertex 1.900000000000e-03 9.500000000000e-04 1.266666666667e-03
      vertex 1.900000000000e-03 9.500000000000e-04 9.500000000000e-04
    endloop
  endfacet
  facet normal -1.0 0.0 0.0
    outer loop
      vertex 1.900000000000e-03 6.333333333333e-04 9.500000000000e-04
      vertex 1.900000000000e-03 6.333333333333e-04 1.266666666667e-03
      vertex 1.900000000000e-03 9.500000000000e-04 1.266666666667e-03
    endloop
  endfacet
  facet normal -1.0 0.0 0.0
    outer loop
      vertex 1.900000000000e-03 6.333333333333e-04 1.266666666667e-03
      vertex 1.900000000000e-03 9.500000000000e-04 1.583333333333e-03
      vertex 1.900000000000e-03 9.500000000000e-04 1.266666666667e-03
    endloop
  endfacet
  facet normal -1.0 0.0 0.0
    outer loop
      vertex 1.900000000000e-03 6.333333333333e-04 1.266666666667e-03
      vertex 1.900000000000e-03 6.333333333333e-04 1.583333333333e-03
      vertex 1.900000000000e-03 9.500000000000e-04 1.583333333333e-03
    endloop
  endfacet
  facet normal -1.0 0.0 0.0
    outer loop
      vertex 1.900000000000e-03 6.333333333333e-04 1.583333333333e-03
      vertex 1.900000000000e-03 9.500000000000e-04 1.900000000000e-03
      vertex 1.900000000000e-03 9.500000000000e-04 1.583333333333e-03
    endloop
  endfacet
  facet normal -1.0 0.0 0.0
    outer loop
      vertex 1.900000000000e-03 6.333333333333e-04 1.583333333333e-03
      vertex 1.900000000000e-03 6.333333333333e-04 1.900000000000e-03
      vertex 1.900000000000e-03 9.500000000000e-04 1.900000000000e-03
    endloop
  endfacet
  facet normal -1.0 0.0 0.0
    outer loop
      vertex 1.900000000000e-03 9.500000000000e-04 -1.900000000000e-03
      vertex 1.900000000000e-03 1.266666666667e-03 -1.583333333333e-03
      vertex 1.900000000000e-03 1.266666666667e-03 -1.900000000000e-03
    endloop
  endfacet
  facet normal -1.0 0.0 0.0
    outer loop
      vertex 1.900000000000e-03 9.500000000000e-04 -1.900000000000e-03
      vertex 1.900000000000e-03 9.500000000000e-04 -1.583333333333e-03
      vertex 1.900000000000e-03 1.266666666667e-03 -1.583333333333e-03
    endloop
  endfacet
  facet normal -1.0 0.0 0.0
    outer loop
      vertex 1.900000000000e-03 9.500000000000e-04 -1.583333333333e-03
      vertex 1.900000000000e-03 1.266666666667e-03 -1.266666666667e-03
      vertex 1.900000000000e-03 1.266666666667e-03 -1.583333333333e-03
    endloop
  endfacet
  facet normal -1.0 0.0 0.0
    outer loop
      vertex 1.900000000000e-03 9.500000000000e-04 -1.583333333333e-03
      vertex 1.900000000000e-03 9.500000000000e-04 -1.266666666667e-03
      vertex 1.900000000000e-03 1.266666666667e-03 -1.266666666667e-03
    endloop
  endfacet
  facet normal -1.0 0.0 0.0
    outer loop
      vertex 1.900000000000e-03 9.500000000000e-04 -1.266666666667e-03
      vertex 1.900000000000e-03 1.266666666667e-03 -9.500000000000e-04
      vertex 1.900000000000e-03 1.266666666667e-03 -1.266666666667e-03
    endloop
  endfacet
  facet normal -1.0 0.0 0.0
    outer loop
      vertex 1.900000000000e-03 9.500000000000e-04 -1.266666666667e-03
      vertex 1.900000000000e-03 9.500000000000e-04 -9.500000000000e-04
      vertex 1.900000000000e-03 1.266666666667e-03 -9.500000000000e-04
    endloop
  endfacet
  facet normal -1.0 0.0 0.0
    outer loop
      vertex 1.900000000000e-03 9.500000000000e-04 -9.500000000000e-04
      vertex 1.900000000000e-03 1.266666666667e-03 -6.333333333333e-04
      vertex 1.900000000000e-03 1.266666666667e-03 -9.500000000000e-04
    endloop
  endfacet
  facet normal -1.0 0.0 0.0
    outer loop
      vertex 1.900000000000e-03 9.500000000000e-04 -9.500000000000e-04
      vertex 1.900000000000e-03 9.500000000000e-04 -6.333333333333e-04
      vertex 1.900000000000e-03 1.266666666667e-03 -6.333333333333e-04
    endloop
  endfacet
  facet normal -1.0 0.0 0.0
    outer loop
      vertex 1.900000000000e-03 9.500000000000e-04 -6.333333333333e-04
      vertex 1.900000000000e-03 1.266666666667e-03 -3.166666666667e-04
      vertex 1.900000000000e-03 1.266666666667e-03 -6.333333333333e-04
    endloop
  endfacet
  facet normal -1.0 0.0 0.0
    outer loop
      vertex 1.900000000000e-03 9.500000000000e-04 -6.333333333333e-04
      vertex 1.900000000000e-03 9.500000000000e-04 -3.166666666667e-04
      vertex 1.900000000000e-03 1.266666666667e-03 -3.166666666667e-04
    endloop
  endfacet
  facet normal -1.0 0.0 0.0
    outer loop
      vertex 1.900000000000e-03 9.500000000000e-04 -3.166666666667e-04
      vertex 1.900000000000e-03 1.266666666667e-03 -5.421010862428e-20
      vertex 1.900000000000e-03 1.266666666667e-03 -3.166666666667e-04
    endloop
  endfacet
  facet normal -1.0 0.0 0.0
    outer loop
      vertex 1.900000000000e-03 9.500000000000e-04 -3.166666666667e-04
      vertex 1.900000000000e-03 9.500000000000e-04 -5.421010862428e-20
      vertex 1.900000000000e-03 1.266666666667e-03 -5.421010862428e-20
    endloop
  endfacet
  facet normal -1.0 0.0 0.0
    outer loop
      vertex 1.900000000000e-03 9.500000000000e-04 -2.168404344971e-19
      vertex 1.900000000000e-03 1.266666666667e-03 3.166666666667e-04
      vertex 1.900000000000e-03 1.266666666667e-03 -2.168404344971e-19
    endloop
  endfacet
  facet normal -1.0 0.0 0.0
    outer loop
      vertex 1.900000000000e-03 9.500000000000e-04 -2.168404344971e-19
      vertex 1.900000000000e-03 9.500000000000e-04 3.166666666667e-04
      vertex 1.900000000000e-03 1.266666666667e-03 3.166666666667e-04
    endloop
  endfacet
  facet normal -1.0 0.0 0.0
    outer loop
      vertex 1.900000000000e-03 9.500000000000e-04 3.166666666667e-04
      vertex 1.900000000000e-03 1.266666666667e-03 6.333333333333e-04
      vertex 1.900000000000e-03 1.266666666667e-03 3.166666666667e-04
    endloop
  endfacet
  facet normal -1.0 0.0 0.0
    outer loop
      vertex 1.900000000000e-03 9.500000000000e-04 3.166666666667e-04
      vertex 1.900000000000e-03 9.500000000000e-04 6.333333333333e-04
      vertex 1.900000000000e-03 1.266666666667e-03 6.333333333333e-04
    endloop
  endfacet
  facet normal -1.0 0.0 0.0
    outer loop
      vertex 1.900000000000e-03 9.500000000000e-04 6.333333333333e-04
      vertex 1.900000000000e-03 1.266666666667e-03 9.500000000000e-04
      vertex 1.900000000000e-03 1.266666666667e-03 6.333333333333e-04
    endloop
  endfacet
  facet normal -1.0 0.0 0.0
    outer loop
      vertex 1.900000000000e-03 9.500000000000e-04 6.333333333333e-04
      vertex 1.900000000000e-03 9.500000000000e-04 9.500000000000e-04
      vertex 1.900000000000e-03 1.266666666667e-03 9.500000000000e-04
    endloop
  endfacet
  facet normal -1.0 0.0 0.0
    outer loop
      vertex 1.900000000000e-03 9.500000000000e-04 9.500000000000e-04
      vertex 1.900000000000e-03 1.266666666667e-03 1.266666666667e-03
      vertex 1.900000000000e-03 1.266666666667e-03 9.500000000000e-04
    endloop
  endfacet
  facet normal -1.0 0.0 0.0
    outer loop
      vertex 1.900000000000e-03 9.500000000000e-04 9.500000000000e-04
      vertex 1.900000000000e-03 9.500000000000e-04 1.266666666667e-03
      vertex 1.900000000000e-03 1.266666666667e-03 1.266666666667e-03
    endloop
  endfacet
  facet normal -1.0 0.0 0.0
    outer loop
      vertex 1.900000000000e-03 9.500000000000e-04 1.266666666667e-03
      vertex 1.900000000000e-03 1.266666666667e-03 1.583333333333e-03
      vertex 1.900000000000e-03 1.266666666667e-03 1.266666666667e-03
    endloop
  endfacet
  facet normal -1.0 0.0 0.0
    outer loop
      vertex 1.900000000000e-03 9.500000000000e-04 1.266666666667e-03
      vertex 1.900000000000e-03 9.500000000000e-04 1.583333333333e-03
      vertex 1.900000000000e-03 1.266666666667e-03 1.583333333333e-03
    endloop
  endfacet
  facet normal -1.0 0.0 0.0
    outer loop
      vertex 1.900000000000e-03 9.500000000000e-04 1.583333333333e-03
      vertex 1.900000000000e-03 1.266666666667e-03 1.900000000000e-03
      vertex 1.900000000000e-03 1.266666666667e-03 1.583333333333e-03
    endloop
  endfacet
  facet normal -1.0 0.0 0.0
    outer loop
      vertex 1.900000000000e-03 9.500000000000e-04 1.583333333333e-03
      vertex 1.900000000000e-03 9.500000000000e-04 1.900000000000e-03
      vertex 1.900000000000e-03 1.266666666667e-03 1.900000000000e-03
    endloop
  endfacet
  facet normal -1.0 0.0 0.0
    outer loop
      vertex 1.900000000000e-03 1.266666666667e-03 -1.900000000000e-03
      vertex 1.900000000000e-03 1.583333333333e-03 -1.583333333333e-03
      vertex 1.900000000000e-03 1.583333333333e-03 -1.900000000000e-03
    endloop
  endfacet
  facet normal -1.0 0.0 0.0
    outer loop
      vertex 1.900000000000e-03 1.266666666667e-03 -1.900000000000e-03
      vertex 1.900000000000e-03 1.266666666667e-03 -1.583333333333e-03
      vertex 1.900000000000e-03 1.583333333333e-03 -1.583333333333e-03
    endloop
  endfacet
  facet normal -1.0 0.0 0.0
    outer loop
      vertex 1.900000000000e-03 1.266666666667e-03 -1.583333333333e-03
      vertex 1.900000000000e-03 1.583333333333e-03 -1.266666666667e-03
      vertex 1.900000000000e-03 1.583333333333e-03 -1.583333333333e-03
    endloop
  endfacet
  facet normal -1.0 0.0 0.0
    outer loop
      vertex 1.900000000000e-03 1.266666666667e-03 -1.583333333333e-03
      vertex 1.900000000000e-03 1.266666666667e-03 -1.266666666667e-03
      vertex 1.900000000000e-03 1.583333333333e-03 -1.266666666667e-03
    endloop
  endfacet
  facet normal -1.0 0.0 0.0
    outer loop
      vertex 1.900000000000e-03 1.266666666667e-03 -1.266666666667e-03
      vertex 1.900000000000e-03 1.583333333333e-03 -9.500000000000e-04
      vertex 1.900000000000e-03 1.583333333333e-03 -1.266666666667e-03
    endloop
  endfacet
  facet normal -1.0 0.0 0.0
    outer loop
      vertex 1.900000000000e-03 1.266666666667e-03 -1.266666666667e-03
      vertex 1.900000000000e-03 1.266666666667e-03 -9.500000000000e-04
      vertex 1.900000000000e-03 1.583333333333e-03 -9.500000000000e-04
    endloop
  endfacet
  facet normal -1.0 0.0 0.0
    outer loop
      vertex 1.900000000000e-03 1.266666666667e-03 -9.500000000000e-04
      vertex 1.900000000000e-03 1.583333333333e-03 -6.333333333333e-04
      vertex 1.900000000000e-03 1.583333333333e-03 -9.500000000000e-04
    endloop
  endfacet
  facet normal -1.0 0.0 0.0
    outer loop
      vertex 1.900000000000e-03 1.266666666667e-03 -9.500000000000e-04
      vertex 1.900000000000e-03 1.266666666667e-03 -6.333333333333e-04
      vertex 1.900000000000e-03 1.583333333333e-03 -6.333333333333e-04
    endloop
  endfacet
  facet normal -1.0 0.0 0.0
    outer loop
      vertex 1.900000000000e-03 1.266666666667e-03 -6.333333333333e-04
      vertex 1.900000000000e-03 1.583333333333e-03 -3.166666666667e-04
      vertex 1.900000000000e-03 1.583333333333e-03 -6.333333333333e-04
    endloop
  endfacet
  facet normal -1.0 0.0 0.0
    outer loop
      vertex 1.900000000000e-03 1.266666666667e-03 -6.333333333333e-04
      vertex 1.900000000000e-03 1.266666666667e-03 -3.166666666667e-04
      vertex 1.900000000000e-03 1.583333333333e-03 -3.166666666667e-04
    endloop
  endfacet
  facet normal -1.0 0.0 0.0
    outer loop
      vertex 1.900000000000e-03 1.266666666667e-03 -3.166666666667e-04
      vertex 1.900000000000e-03 1.583333333333e-03 -5.421010862428e-20
      vertex 1.900000000000e-03 1.583333333333e-03 -3.166666666667e-04
    endloop
  endfacet
  facet normal -1.0 0.0 0.0
    outer loop
      vertex 1.900000000000e-03 1.266666666667e-03 -3.166666666667e-04
      vertex 1.900000000000e-03 1.266666666667e-03 -5.421010862428e-20
      vertex 1.900000000000e-03 1.583333333333e-03 -5.421010862428e-20
    endloop
  endfacet
  facet normal -1.0 0.0 0.0
    outer loop
      vertex 1.900000000000e-03 1.266666666667e-03 -2.168404344971e-19
      vertex 1.900000000000e-03 1.583333333333e-03 3.166666666667e-04
      vertex 1.900000000000e-03 1.583333333333e-03 -2.168404344971e-19
    endloop
  endfacet
  facet normal -1.0 0.0 0.0
    outer loop
      vertex 1.900000000000e-03 1.266666666667e-03 -2.168404344971e-19
      vertex 1.900000000000e-03 1.266666666667e-03 3.166666666667e-04
      vertex 1.900000000000e-03 1.583333333333e-03 3.166666666667e-04
    endloop
  endfacet
  facet normal -1.0 0.0 0.0
    outer loop
      vertex 1.900000000000e-03 1.266666666667e-03 3.166666666667e-04
      vertex 1.900000000000e-03 1.583333333333e-03 6.333333333333e-04
      vertex 1.900000000000e-03 1.583333333333e-03 3.166666666667e-04
    endloop
  endfacet
  facet normal -1.0 0.0 0.0
    outer loop
      vertex 1.900000000000e-03 1.266666666667e-03 3.166666666667e-04
      vertex 1.900000000000e-03 1.266666666667e-03 6.333333333333e-04
      vertex 1.900000000000e-03 1.583333333333e-03 6.333333333333e-04
    endloop
  endfacet
  facet normal -1.0 0.0 0.0
    outer loop
      vertex 1.900000000000e-03 1.266666666667e-03 6.333333333333e-04
      vertex 1.900000000000e-03 1.583333333333e-03 9.500000000000e-04
      vertex 1.900000000000e-03 1.583333333333e-03 6.333333333333e-04
    endloop
  endfacet
  facet normal -1.0 0.0 0.0
    outer loop
      vertex 1.900000000000e-03 1.266666666667e-03 6.333333333333e-04
      vertex 1.900000000000e-03 1.266666666667e-03 9.500000000000e-04
      vertex 1.900000000000e-03 1.583333333333e-03 9.500000000000e-04
    endloop
  endfacet
  facet normal -1.0 0.0 0.0
    outer loop
      vertex 1.900000000000e-03 1.266666666667e-03 9.500000000000e-04
      vertex 1.900000000000e-03 1.583333333333e-03 1.266666666667e-03
      vertex 1.900000000000e-03 1.583333333333e-03 9.500000000000e-04
    endloop
  endfacet
  facet normal -1.0 0.0 0.0
    outer loop
      vertex 1.900000000000e-03 1.266666666667e-03 9.500000000000e-04
      vertex 1.900000000000e-03 1.266666666667e-03 1.266666666667e-03
      vertex 1.900000000000e-03 1.583333333333e-03 1.266666666667e-03
    endloop
  endfacet
  facet normal -1.0 0.0 0.0
    outer loop
      vertex 1.900000000000e-03 1.266666666667e-03 1.266666666667e-03
      vertex 1.900000000000e-03 1.583333333333e-03 1.583333333333e-03
      vertex 1.900000000000e-03 1.583333333333e-03 1.266666666667e-03
    endloop
  endfacet
  facet normal -1.0 0.0 0.0
    outer loop
      vertex 1.900000000000e-03 1.266666666667e-03 1.266666666667e-03
      vertex 1.900000000000e-03 1.266666666667e-03 1.583333333333e-03
      vertex 1.900000000000e-03 1.583333333333e-03 1.583333333333e-03
    endloop
  endfacet
  facet normal -1.0 0.0 0.0
    outer loop
      vertex 1.900000000000e-03 1.266666666667e-03 1.583333333333e-03
      vertex 1.900000000000e-03 1.583333333333e-03 1.900000000000e-03
      vertex 1.900000000000e-03 1.583333333333e-03 1.583333333333e-03
    endloop
  endfacet
  facet normal -1.0 0.0 0.0
    outer loop
      vertex 1.900000000000e-03 1.266666666667e-03 1.583333333333e-03
      vertex 1.900000000000e-03 1.266666666667e-03 1.900000000000e-03
      vertex 1.900000000000e-03 1.583333333333e-03 1.900000000000e-03
    endloop
  endfacet
  facet normal -1.0 0.0 0.0
    outer loop
      vertex 1.900000000000e-03 1.583333333333e-03 -1.900000000000e-03
      vertex 1.900000000000e-03 1.900000000000e-03 -1.583333333333e-03
      vertex 1.900000000000e-03 1.900000000000e-03 -1.900000000000e-03
    endloop
  endfacet
  facet normal -1.0 0.0 0.0
    outer loop
      vertex 1.900000000000e-03 1.583333333333e-03 -1.900000000000e-03
      vertex 1.900000000000e-03 1.583333333333e-03 -1.583333333333e-03
      vertex 1.900000000000e-03 1.900000000000e-03 -1.583333333333e-03
    endloop
  endfacet
  facet normal -1.0 0.0 0.0
    outer loop
      vertex 1.900000000000e-03 1.583333333333e-03 -1.583333333333e-03
      vertex 1.900000000000e-03 1.900000000000e-03 -1.266666666667e-03
      vertex 1.900000000000e-03 1.900000000000e-03 -1.583333333333e-03
    endloop
  endfacet
  facet normal -1.0 0.0 0.0
    outer loop
      vertex 1.900000000000e-03 1.583333333333e-03 -1.583333333333e-03
      vertex 1.900000000000e-03 1.583333333333e-03 -1.266666666667e-03
      vertex 1.900000000000e-03 1.900000000000e-03 -1.266666666667e-03
    endloop
  endfacet
  facet normal -1.0 0.0 0.0
    outer loop
      vertex 1.900000000000e-03 1.583333333333e-03 -1.266666666667e-03
      vertex 1.900000000000e-03 1.900000000000e-03 -9.500000000000e-04
      vertex 1.900000000000e-03 1.900000000000e-03 -1.266666666667e-03
    endloop
  endfacet
  facet normal -1.0 0.0 0.0
    outer loop
      vertex 1.900000000000e-03 1.583333333333e-03 -1.266666666667e-03
      vertex 1.900000000000e-03 1.583333333333e-03 -9.500000000000e-04
      vertex 1.900000000000e-03 1.900000000000e-03 -9.500000000000e-04
    endloop
  endfacet
  facet normal -1.0 0.0 0.0
    outer loop
      vertex 1.900000000000e-03 1.583333333333e-03 -9.500000000000e-04
      vertex 1.900000000000e-03 1.900000000000e-03 -6.333333333333e-04
      vertex 1.900000000000e-03 1.900000000000e-03 -9.500000000000e-04
    endloop
  endfacet
  facet normal -1.0 0.0 0.0
    outer loop
      vertex 1.900000000000e-03 1.583333333333e-03 -9.500000000000e-04
      vertex 1.900000000000e-03 1.583333333333e-03 -6.333333333333e-04
      vertex 1.900000000000e-03 1.900000000000e-03 -6.333333333333e-04
    endloop
  endfacet
  facet normal -1.0 0.0 0.0
    outer loop
      vertex 1.900000000000e-03 1.583333333333e-03 -6.333333333333e-04
      vertex 1.900000000000e-03 1.900000000000e-03 -3.166666666667e-04
      vertex 1.900000000000e-03 1.900000000000e-03 -6.333333333333e-04
    endloop
  endfacet
  facet normal -1.0 0.0 0.0
    outer loop
      vertex 1.900000000000e-03 1.583333333333e-03 -6.333333333333e-04
      vertex 1.900000000000e-03 1.583333333333e-03 -3.166666666667e-04
      vertex 1.900000000000e-03 1.900000000000e-03 -3.166666666667e-04
    endloop
  endfacet
  facet normal -1.0 0.0 0.0
    outer loop
      vertex 1.900000000000e-03 1.583333333333e-03 -3.166666666667e-04
      vertex 1.900000000000e-03 1.900000000000e-03 -5.421010862428e-20
      vertex 1.900000000000e-03 1.900000000000e-03 -3.166666666667e-04
    endloop
  endfacet
  facet normal -1.0 0.0 0.0
    outer loop
      vertex 1.900000000000e-03 1.583333333333e-03 -3.166666666667e-04
      vertex 1.900000000000e-03 1.583333333333e-03 -5.421010862428e-20
      vertex 1.900000000000e-03 1.900000000000e-03 -5.421010862428e-20
    endloop
  endfacet
  facet normal -1.0 0.0 0.0
    outer loop
      vertex 1.900000000000e-03 1.583333333333e-03 -2.168404344971e-19
      vertex 1.900000000000e-03 1.900000000000e-03 3.166666666667e-04
      vertex 1.900000000000e-03 1.900000000000e-03 -2.168404344971e-19
    endloop
  endfacet
  facet normal -1.0 0.0 0.0
    outer loop
      vertex 1.900000000000e-03 1.583333333333e-03 -2.168404344971e-19
      vertex 1.900000000000e-03 1.583333333333e-03 3.166666666667e-04
      vertex 1.900000000000e-03 1.900000000000e-03 3.166666666667e-04
    endloop
  endfacet
  facet normal -1.0 0.0 0.0
    outer loop
      vertex 1.900000000000e-03 1.583333333333e-03 3.166666666667e-04
      vertex 1.900000000000e-03 1.900000000000e-03 6.333333333333e-04
      vertex 1.900000000000e-03 1.900000000000e-03 3.166666666667e-04
    endloop
  endfacet
  facet normal -1.0 0.0 0.0
    outer loop
      vertex 1.900000000000e-03 1.583333333333e-03 3.166666666667e-04
      vertex 1.900000000000e-03 1.583333333333e-03 6.333333333333e-04
      vertex 1.900000000000e-03 1.900000000000e-03 6.333333333333e-04
    endloop
  endfacet
  facet normal -1.0 0.0 0.0
    outer loop
      vertex 1.900000000000e-03 1.583333333333e-03 6.333333333333e-04
      vertex 1.900000000000e-03 1.900000000000e-03 9.500000000000e-04
      vertex 1.900000000000e-03 1.900000000000e-03 6.333333333333e-04
    endloop
  endfacet
  facet normal -1.0 0.0 0.0
    outer loop
      vertex 1.900000000000e-03 1.583333333333e-03 6.333333333333e-04
      vertex 1.900000000000e-03 1.583333333333e-03 9.500000000000e-04
      vertex 1.900000000000e-03 1.900000000000e-03 9.500000000000e-04
    endloop
  endfacet
  facet normal -1.0 0.0 0.0
    outer loop
      vertex 1.900000000000e-03 1.583333333333e-03 9.500000000000e-04
      vertex 1.900000000000e-03 1.900000000000e-03 1.266666666667e-03
      vertex 1.900000000000e-03 1.900000000000e-03 9.500000000000e-04
    endloop
  endfacet
  facet normal -1.0 0.0 0.0
    outer loop
      vertex 1.900000000000e-03 1.583333333333e-03 9.500000000000e-04
      vertex 1.900000000000e-03 1.583333333333e-03 1.266666666667e-03
      vertex 1.900000000000e-03 1.900000000000e-03 1.266666666667e-03
    endloop
  endfacet
  facet normal -1.0 0.0 0.0
    outer loop
      vertex 1.900000000000e-03 1.583333333333e-03 1.266666666667e-03
      vertex 1.900000000000e-03 1.900000000000e-03 1.583333333333e-03
      vertex 1.900000000000e-03 1.900000000000e-03 1.266666666667e-03
    endloop
  endfacet
  facet normal -1.0 0.0 0.0
    outer loop
      vertex 1.900000000000e-03 1.583333333333e-03 1.266666666667e-03
      vertex 1.900000000000e-03 1.583333333333e-03 1.583333333333e-03
      vertex 1.900000000000e-03 1.900000000000e-03 1.583333333333e-03
    endloop
  endfacet
  facet normal -1.0 0.0 0.0
    outer loop
      vertex 1.900000000000e-03 1.583333333333e-03 1.583333333333e-03
      vertex 1.900000000000e-03 1.900000000000e-03 1.900000000000e-03
      vertex 1.900000000000e-03 1.900000000000e-03 1.583333333333e-03
    endloop
  endfacet
  facet normal -1.0 0.0 0.0
    outer loop
      vertex 1.900000000000e-03 1.583333333333e-03 1.583333333333e-03
      vertex 1.900000000000e-03 1.583333333333e-03 1.900000000000e-03
      vertex 1.900000000000e-03 1.900000000000e-03 1.900000000000e-03
    endloop
  endfacet
endsolid wall
