solid wall
  facet normal 0.0 0.0 -1.0
    outer loop
      vertex -3.000000000000e-03 -3.000000000000e-03 3.730961600000e-03
      vertex -2.500000000000e-03 -2.500000000000e-03 3.730961600000e-03
      vertex -2.500000000000e-03 -3.000000000000e-03 3.730961600000e-03
    endloop
  endfacet
  facet normal 0.0 0.0 -1.0
    outer loop
      vertex -3.000000000000e-03 -3.000000000000e-03 3.730961600000e-03
      vertex -3.000000000000e-03 -2.500000000000e-03 3.730961600000e-03
      vertex -2.500000000000e-03 -2.500000000000e-03 3.730961600000e-03
    endloop
  endfacet
  facet normal 0.0 0.0 -1.0
    outer loop
      vertex -3.000000000000e-03 -2.500000000000e-03 3.730961600000e-03
      vertex -2.500000000000e-03 -2.000000000000e-03 3.730961600000e-03
      vertex -2.500000000000e-03 -2.500000000000e-03 3.730961600000e-03
    endloop
  endfacet
  facet normal 0.0 0.0 -1.0
    outer loop
      vertex -3.000000000000e-03 -2.500000000000e-03 3.730961600000e-03
      vertex -3.000000000000e-03 -2.000000000000e-03 3.730961600000e-03
      vertex -2.500000000000e-03 -2.000000000000e-03 3.730961600000e-03
    endloop
  endfacet
  facet normal 0.0 0.0 -1.0
    outer loop
      vertex -3.000000000000e-03 -2.000000000000e-03 3.730961600000e-03
      vertex -2.500000000000e-03 -1.500000000000e-03 3.730961600000e-03
      vertex -2.500000000000e-03 -2.000000000000e-03 3.730961600000e-03
    endloop
  endfacet
  facet normal 0.0 0.0 -1.0
    outer loop
      vertex -3.000000000000e-03 -2.000000000000e-03 3.730961600000e-03
      vertex -3.000000000000e-03 -1.500000000000e-03 3.730961600000e-03
      vertex -2.500000000000e-03 -1.500000000000e-03 3.730961600000e-03
    endloop
  endfacet
  facet normal 0.0 0.0 -1.0
    outer loop
      vertex -3.000000000000e-03 -1.500000000000e-03 3.730961600000e-03
      vertex -2.500000000000e-03 -1.000000000000e-03 3.730961600000e-03
      vertex -2.500000000000e-03 -1.500000000000e-03 3.730961600000e-03
    endloop
  endfacet
  facet normal 0.0 0.0 -1.0
    outer loop
      vertex -3.000000000000e-03 -1.500000000000e-03 3.730961600000e-03
      vertex -3.000000000000e-03 -1.000000000000e-03 3.730961600000e-03
      vertex -2.500000000000e-03 -1.000000000000e-03 3.730961600000e-03
    endloop
  endfacet
  facet normal 0.0 0.0 -1.0
    outer loop
      vertex -3.000000000000e-03 -1.000000000000e-03 3.730961600000e-03
      vertex -2.500000000000e-03 -5.000000000000e-04 3.730961600000e-03
      vertex -2.500000000000e-03 -1.000000000000e-03 3.730961600000e-03
    endloop
  endfacet
  facet normal 0.0 0.0 -1.0
    outer loop
      vertex -3.000000000000e-03 -1.000000000000e-03 3.730961600000e-03
      vertex -3.000000000000e-03 -5.000000000000e-04 3.730961600000e-03
      vertex -2.500000000000e-03 -5.000000000000e-04 3.730961600000e-03
    endloop
  endfacet
  facet normal 0.0 0.0 -1.0
    outer loop
      vertex -3.000000000000e-03 -5.000000000000e-04 3.730961600000e-03
      vertex -2.500000000000e-03 0.000000000000e+00 3.730961600000e-03
      vertex -2.500000000000e-03 -5.000000000000e-04 3.730961600000e-03
    endloop
  endfacet
  facet normal 0.0 0.0 -1.0
    outer loop
      vertex -3.000000000000e-03 -5.000000000000e-04 3.730961600000e-03
      vertex -3.000000000000e-03 0.000000000000e+00 3.730961600000e-03
      vertex -2.500000000000e-03 0.000000000000e+00 3.730961600000e-03
    endloop
  endfacet
  facet normal 0.0 0.0 -1.0
    outer loop
      vertex -3.000000000000e-03 0.000000000000e+00 3.730961600000e-03
      vertex -2.500000000000e-03 5.000000000000e-04 3.730961600000e-03
      vertex -2.500000000000e-03 0.000000000000e+00 3.730961600000e-03
    endloop
  endfacet
  facet normal 0.0 0.0 -1.0
    outer loop
      vertex -3.000000000000e-03 0.000000000000e+00 3.730961600000e-03
      vertex -3.000000000000e-03 5.000000000000e-04 3.730961600000e-03
      vertex -2.500000000000e-03 5.000000000000e-04 3.730961600000e-03
    endloop
  endfacet
  facet normal 0.0 0.0 -1.0
    outer loop
      vertex -3.000000000000e-03 5.000000000000e-04 3.730961600000e-03
      vertex -2.500000000000e-03 1.000000000000e-03 3.730961600000e-03
      vertex -2.500000000000e-03 5.000000000000e-04 3.730961600000e-03
    endloop
  endfacet
  facet normal 0.0 0.0 -1.0
    outer loop
      vertex -3.000000000000e-03 5.000000000000e-04 3.730961600000e-03
      vertex -3.000000000000e-03 1.000000000000e-03 3.730961600000e-03
      vertex -2.500000000000e-03 1.000000000000e-03 3.730961600000e-03
    endloop
  endfacet
  facet normal 0.0 0.0 -1.0
    outer loop
      vertex -3.000000000000e-03 1.000000000000e-03 3.730961600000e-03
      vertex -2.500000000000e-03 1.500000000000e-03 3.730961600000e-03
      vertex -2.500000000000e-03 1.000000000000e-03 3.730961600000e-03
    endloop
  endfacet
  facet normal 0.0 0.0 -1.0
    outer loop
      vertex -3.000000000000e-03 1.000000000000e-03 3.730961600000e-03
      vertex -3.000000000000e-03 1.500000000000e-03 3.730961600000e-03
      vertex -2.500000000000e-03 1.500000000000e-03 3.730961600000e-03
    endloop
  endfacet
  facet normal 0.0 0.0 -1.0
    outer loop
      vertex -3.000000000000e-03 1.500000000000e-03 3.730961600000e-03
      vertex -2.500000000000e-03 2.000000000000e-03 3.730961600000e-03
      vertex -2.500000000000e-03 1.500000000000e-03 3.730961600000e-03
    endloop
  endfacet
  facet normal 0.0 0.0 -1.0
    outer loop
      vertex -3.000000000000e-03 1.500000000000e-03 3.730961600000e-03
      vertex -3.000000000000e-03 2.000000000000e-03 3.730961600000e-03
      vertex -2.500000000000e-03 2.000000000000e-03 3.730961600000e-03
    endloop
  endfacet
  facet normal 0.0 0.0 -1.0
    outer loop
      vertex -3.000000000000e-03 2.000000000000e-03 3.730961600000e-03
      vertex -2.500000000000e-03 2.500000000000e-03 3.730961600000e-03
      vertex -2.500000000000e-03 2.000000000000e-03 3.730961600000e-03
    endloop
  endfacet
  facet normal 0.0 0.0 -1.0
    outer loop
      vertex -3.000000000000e-03 2.000000000000e-03 3.730961600000e-03
      vertex -3.000000000000e-03 2.500000000000e-03 3.730961600000e-03
      vertex -2.500000000000e-03 2.500000000000e-03 3.730961600000e-03
    endloop
  endfacet
  facet normal 0.0 0.0 -1.0
    outer loop
      vertex -3.000000000000e-03 2.500000000000e-03 3.730961600000e-03
      vertex -2.500000000000e-03 3.000000000000e-03 3.730961600000e-03
      vertex -2.500000000000e-03 2.500000000000e-03 3.730961600000e-03
    endloop
  endfacet
  facet normal 0.0 0.0 -1.0
    outer loop
      vertex -3.000000000000e-03 2.500000000000e-03 3.730961600000e-03
      vertex -3.000000000000e-03 3.000000000000e-03 3.730961600000e-03
      vertex -2.500000000000e-03 3.000000000000e-03 3.730961600000e-03
    endloop
  endfacet
  facet normal 0.0 0.0 -1.0
    outer loop
      vertex -2.500000000000e-03 -3.000000000000e-03 3.730961600000e-03
      vertex -2.000000000000e-03 -2.500000000000e-03 3.730961600000e-03
      vertex -2.000000000000e-03 -3.000000000000e-03 3.730961600000e-03
    endloop
  endfacet
  facet normal 0.0 0.0 -1.0
    outer loop
      vertex -2.500000000000e-03 -3.000000000000e-03 3.730961600000e-03
      vertex -2.500000000000e-03 -2.500000000000e-03 3.730961600000e-03
      vertex -2.000000000000e-03 -2.500000000000e-03 3.730961600000e-03
    endloop
  endfacet
  facet normal 0.0 0.0 -1.0
    outer loop
      vertex -2.500000000000e-03 -2.500000000000e-03 3.730961600000e-03
      vertex -2.000000000000e-03 -2.000000000000e-03 3.730961600000e-03
      vertex -2.000000000000e-03 -2.500000000000e-03 3.730961600000e-03
    endloop
  endfacet
  facet normal 0.0 0.0 -1.0
    outer loop
      vertex -2.500000000000e-03 -2.500000000000e-03 3.730961600000e-03
      vertex -2.500000000000e-03 -2.000000000000e-03 3.730961600000e-03
      vertex -2.000000000000e-03 -2.000000000000e-03 3.730961600000e-03
    endloop
  endfacet
  facet normal 0.0 0.0 -1.0
    outer loop
      vertex -2.500000000000e-03 -2.000000000000e-03 3.730961600000e-03
      vertex -2.000000000000e-03 -1.500000000000e-03 3.730961600000e-03
      vertex -2.000000000000e-03 -2.000000000000e-03 3.730961600000e-03
    endloop
  endfacet
  facet normal 0.0 0.0 -1.0
    outer loop
      vertex -2.500000000000e-03 -2.000000000000e-03 3.730961600000e-03
      vertex -2.500000000000e-03 -1.500000000000e-03 3.730961600000e-03
      vertex -2.000000000000e-03 -1.500000000000e-03 3.730961600000e-03
    endloop
  endfacet
  facet normal 0.0 0.0 -1.0
    outer loop
      vertex -2.500000000000e-03 -1.500000000000e-03 3.730961600000e-03
      vertex -2.000000000000e-03 -1.000000000000e-03 3.730961600000e-03
      vertex -2.000000000000e-03 -1.500000000000e-03 3.730961600000e-03
    endloop
  endfacet
  facet normal 0.0 0.0 -1.0
    outer loop
      vertex -2.500000000000e-03 -1.500000000000e-03 3.730961600000e-03
      vertex -2.500000000000e-03 -1.000000000000e-03 3.730961600000e-03
      vertex -2.000000000000e-03 -1.000000000000e-03 3.730961600000e-03
    endloop
  endfacet
  facet normal 0.0 0.0 -1.0
    outer loop
      vertex -2.500000000000e-03 -1.000000000000e-03 3.730961600000e-03
      vertex -2.000000000000e-03 -5.000000000000e-04 3.730961600000e-03
      vertex -2.000000000000e-03 -1.000000000000e-03 3.730961600000e-03
    endloop
  endfacet
  facet normal 0.0 0.0 -1.0
    outer loop
      vertex -2.500000000000e-03 -1.000000000000e-03 3.730961600000e-03
      vertex -2.500000000000e-03 -5.000000000000e-04 3.730961600000e-03
      vertex -2.000000000000e-03 -5.000000000000e-04 3.730961600000e-03
    endloop
  endfacet
  facet normal 0.0 0.0 -1.0
    outer loop
      vertex -2.500000000000e-03 -5.000000000000e-04 3.730961600000e-03
      vertex -2.000000000000e-03 0.000000000000e+00 3.730961600000e-03
      vertex -2.000000000000e-03 -5.000000000000e-04 3.730961600000e-03
    endloop
  endfacet
  facet normal 0.0 0.0 -1.0
    outer loop
      vertex -2.500000000000e-03 -5.000000000000e-04 3.730961600000e-03
      vertex -2.500000000000e-03 0.000000000000e+00 3.730961600000e-03
      vertex -2.000000000000e-03 0.000000000000e+00 3.730961600000e-03
    endloop
  endfacet
  facet normal 0.0 0.0 -1.0
    outer loop
      vertex -2.500000000000e-03 0.000000000000e+00 3.730961600000e-03
      vertex -2.000000000000e-03 5.000000000000e-04 3.730961600000e-03
      vertex -2.000000000000e-03 0.000000000000e+00 3.730961600000e-03
    endloop
  endfacet
  facet normal 0.0 0.0 -1.0
    outer loop
      vertex -2.500000000000e-03 0.000000000000e+00 3.730961600000e-03
      vertex -2.500000000000e-03 5.000000000000e-04 3.730961600000e-03
      vertex -2.000000000000e-03 5.000000000000e-04 3.730961600000e-03
    endloop
  endfacet
  facet normal 0.0 0.0 -1.0
    outer loop
      vertex -2.500000000000e-03 5.000000000000e-04 3.730961600000e-03
      vertex -2.000000000000e-03 1.000000000000e-03 3.730961600000e-03
      vertex -2.000000000000e-03 5.000000000000e-04 3.730961600000e-03
    endloop
  endfacet
  facet normal 0.0 0.0 -1.0
    outer loop
      vertex -2.500000000000e-03 5.000000000000e-04 3.730961600000e-03
      vertex -2.500000000000e-03 1.000000000000e-03 3.730961600000e-03
      vertex -2.000000000000e-03 1.000000000000e-03 3.730961600000e-03
    endloop
  endfacet
  facet normal 0.0 0.0 -1.0
    outer loop
      vertex -2.500000000000e-03 1.000000000000e-03 3.730961600000e-03
      vertex -2.000000000000e-03 1.500000000000e-03 3.730961600000e-03
      vertex -2.000000000000e-03 1.000000000000e-03 3.730961600000e-03
    endloop
  endfacet
  facet normal 0.0 0.0 -1.0
    outer loop
      vertex -2.500000000000e-03 1.000000000000e-03 3.730961600000e-03
      vertex -2.500000000000e-03 1.500000000000e-03 3.730961600000e-03
      vertex -2.000000000000e-03 1.500000000000e-03 3.730961600000e-03
    endloop
  endfacet
  facet normal 0.0 0.0 -1.0
    outer loop
      vertex -2.500000000000e-03 1.500000000000e-03 3.730961600000e-03
      vertex -2.000000000000e-03 2.000000000000e-03 3.730961600000e-03
      vertex -2.000000000000e-03 1.500000000000e-03 3.730961600000e-03
    endloop
  endfacet
  facet normal 0.0 0.0 -1.0
    outer loop
      vertex -2.500000000000e-03 1.500000000000e-03 3.730961600000e-03
      vertex -2.500000000000e-03 2.000000000000e-03 3.730961600000e-03
      vertex -2.000000000000e-03 2.000000000000e-03 3.730961600000e-03
    endloop
  endfacet
  facet normal 0.0 0.0 -1.0
    outer loop
      vertex -2.500000000000e-03 2.000000000000e-03 3.730961600000e-03
      vertex -2.000000000000e-03 2.500000000000e-03 3.730961600000e-03
      vertex -2.000000000000e-03 2.000000000000e-03 3.730961600000e-03
    endloop
  endfacet
  facet normal 0.0 0.0 -1.0
    outer loop
      vertex -2.500000000000e-03 2.000000000000e-03 3.730961600000e-03
      vertex -2.500000000000e-03 2.500000000000e-03 3.730961600000e-03
      vertex -2.000000000000e-03 2.500000000000e-03 3.730961600000e-03
    endloop
  endfacet
  facet normal 0.0 0.0 -1.0
    outer loop
      vertex -2.500000000000e-03 2.500000000000e-03 3.730961600000e-03
      vertex -2.000000000000e-03 3.000000000000e-03 3.730961600000e-03
      vertex -2.000000000000e-03 2.500000000000e-03 3.730961600000e-03
    endloop
  endfacet
  facet normal 0.0 0.0 -1.0
    outer loop
      vertex -2.500000000000e-03 2.500000000000e-03 3.730961600000e-03
      vertex -2.500000000000e-03 3.000000000000e-03 3.730961600000e-03
      vertex -2.000000000000e-03 3.000000000000e-03 3.730961600000e-03
    endloop
  endfacet
  facet normal 0.0 0.0 -1.0
    outer loop
      vertex -2.000000000000e-03 -3.000000000000e-03 3.730961600000e-03
      vertex -1.500000000000e-03 -2.500000000000e-03 3.730961600000e-03
      vertex -1.500000000000e-03 -3.000000000000e-03 3.730961600000e-03
    endloop
  endfacet
  facet normal 0.0 0.0 -1.0
    outer loop
      vertex -2.000000000000e-03 -3.000000000000e-03 3.730961600000e-03
      vertex -2.000000000000e-03 -2.500000000000e-03 3.730961600000e-03
      vertex -1.500000000000e-03 -2.500000000000e-03 3.730961600000e-03
    endloop
  endfacet
  facet normal 0.0 0.0 -1.0
    outer loop
      vertex -2.000000000000e-03 -2.500000000000e-03 3.730961600000e-03
      vertex -1.500000000000e-03 -2.000000000000e-03 3.730961600000e-03
      vertex -1.500000000000e-03 -2.500000000000e-03 3.730961600000e-03
    endloop
  endfacet
  facet normal 0.0 0.0 -1.0
    outer loop
      vertex -2.000000000000e-03 -2.500000000000e-03 3.730961600000e-03
      vertex -2.000000000000e-03 -2.000000000000e-03 3.730961600000e-03
      vertex -1.500000000000e-03 -2.000000000000e-03 3.730961600000e-03
    endloop
  endfacet
  facet normal 0.0 0.0 -1.0
    outer loop
      vertex -2.000000000000e-03 -2.000000000000e-03 3.730961600000e-03
      vertex -1.500000000000e-03 -1.500000000000e-03 3.730961600000e-03
      vertex -1.500000000000e-03 -2.000000000000e-03 3.730961600000e-03
    endloop
  endfacet
  facet normal 0.0 0.0 -1.0
    outer loop
      vertex -2.000000000000e-03 -2.000000000000e-03 3.730961600000e-03
      vertex -2.000000000000e-03 -1.500000000000e-03 3.730961600000e-03
      vertex -1.500000000000e-03 -1.500000000000e-03 3.730961600000e-03
    endloop
  endfacet
  facet normal 0.0 0.0 -1.0
    outer loop
      vertex -2.000000000000e-03 -1.500000000000e-03 3.730961600000e-03
      vertex -1.500000000000e-03 -1.000000000000e-03 3.730961600000e-03
      vertex -1.500000000000e-03 -1.500000000000e-03 3.730961600000e-03
    endloop
  endfacet
  facet normal 0.0 0.0 -1.0
    outer loop
      vertex -2.000000000000e-03 -1.500000000000e-03 3.730961600000e-03
      vertex -2.000000000000e-03 -1.000000000000e-03 3.730961600000e-03
      vertex -1.500000000000e-03 -1.000000000000e-03 3.730961600000e-03
    endloop
  endfacet
  facet normal 0.0 0.0 -1.0
    outer loop
      vertex -2.000000000000e-03 -1.000000000000e-03 3.730961600000e-03
      vertex -1.500000000000e-03 -5.000000000000e-04 3.730961600000e-03
      vertex -1.500000000000e-03 -1.000000000000e-03 3.730961600000e-03
    endloop
  endfacet
  facet normal 0.0 0.0 -1.0
    outer loop
      vertex -2.000000000000e-03 -1.000000000000e-03 3.730961600000e-03
      vertex -2.000000000000e-03 -5.000000000000e-04 3.730961600000e-03
      vertex -1.500000000000e-03 -5.000000000000e-04 3.730961600000e-03
    endloop
  endfacet
  facet normal 0.0 0.0 -1.0
    outer loop
      vertex -2.000000000000e-03 -5.000000000000e-04 3.730961600000e-03
      vertex -1.500000000000e-03 0.000000000000e+00 3.730961600000e-03
      vertex -1.500000000000e-03 -5.000000000000e-04 3.730961600000e-03
    endloop
  endfacet
  facet normal 0.0 0.0 -1.0
    outer loop
      vertex -2.000000000000e-03 -5.000000000000e-04 3.730961600000e-03
      vertex -2.000000000000e-03 0.000000000000e+00 3.730961600000e-03
      vertex -1.500000000000e-03 0.000000000000e+00 3.730961600000e-03
    endloop
  endfacet
  facet normal 0.0 0.0 -1.0
    outer loop
      vertex -2.000000000000e-03 0.000000000000e+00 3.730961600000e-03
      vertex -1.500000000000e-03 5.000000000000e-04 3.730961600000e-03
      vertex -1.500000000000e-03 0.000000000000e+00 3.730961600000e-03
    endloop
  endfacet
  facet normal 0.0 0.0 -1.0
    outer loop
      vertex -2.000000000000e-03 0.000000000000e+00 3.730961600000e-03
      vertex -2.000000000000e-03 5.000000000000e-04 3.730961600000e-03
      vertex -1.500000000000e-03 5.000000000000e-04 3.730961600000e-03
    endloop
  endfacet
  facet normal 0.0 0.0 -1.0
    outer loop
      vertex -2.000000000000e-03 5.000000000000e-04 3.730961600000e-03
      vertex -1.500000000000e-03 1.000000000000e-03 3.730961600000e-03
      vertex -1.500000000000e-03 5.000000000000e-04 3.730961600000e-03
    endloop
  endfacet
  facet normal 0.0 0.0 -1.0
    outer loop
      vertex -2.000000000000e-03 5.000000000000e-04 3.730961600000e-03
      vertex -2.000000000000e-03 1.000000000000e-03 3.730961600000e-03
      vertex -1.500000000000e-03 1.000000000000e-03 3.730961600000e-03
    endloop
  endfacet
  facet normal 0.0 0.0 -1.0
    outer loop
      vertex -2.000000000000e-03 1.000000000000e-03 3.730961600000e-03
      vertex -1.500000000000e-03 1.500000000000e-03 3.730961600000e-03
      vertex -1.500000000000e-03 1.000000000000e-03 3.730961600000e-03
    endloop
  endfacet
  facet normal 0.0 0.0 -1.0
    outer loop
      vertex -2.000000000000e-03 1.000000000000e-03 3.730961600000e-03
      vertex -2.000000000000e-03 1.500000000000e-03 3.730961600000e-03
      vertex -1.500000000000e-03 1.500000000000e-03 3.730961600000e-03
    endloop
  endfacet
  facet normal 0.0 0.0 -1.0
    outer loop
      vertex -2.000000000000e-03 1.500000000000e-03 3.730961600000e-03
      vertex -1.500000000000e-03 2.000000000000e-03 3.730961600000e-03
      vertex -1.500000000000e-03 1.500000000000e-03 3.730961600000e-03
    endloop
  endfacet
  facet normal 0.0 0.0 -1.0
    outer loop
      vertex -2.000000000000e-03 1.500000000000e-03 3.730961600000e-03
      vertex -2.000000000000e-03 2.000000000000e-03 3.730961600000e-03
      vertex -1.500000000000e-03 2.000000000000e-03 3.730961600000e-03
    endloop
  endfacet
  facet normal 0.0 0.0 -1.0
    outer loop
      vertex -2.000000000000e-03 2.000000000000e-03 3.730961600000e-03
      vertex -1.500000000000e-03 2.500000000000e-03 3.730961600000e-03
      vertex -1.500000000000e-03 2.000000000000e-03 3.730961600000e-03
    endloop
  endfacet
  facet normal 0.0 0.0 -1.0
    outer loop
      vertex -2.000000000000e-03 2.000000000000e-03 3.730961600000e-03
      vertex -2.000000000000e-03 2.500000000000e-03 3.730961600000e-03
      vertex -1.500000000000e-03 2.500000000000e-03 3.730961600000e-03
    endloop
  endfacet
  facet normal 0.0 0.0 -1.0
    outer loop
      vertex -2.000000000000e-03 2.500000000000e-03 3.730961600000e-03
      vertex -1.500000000000e-03 3.000000000000e-03 3.730961600000e-03
      vertex -1.500000000000e-03 2.500000000000e-03 3.730961600000e-03
    endloop
  endfacet
  facet normal 0.0 0.0 -1.0
    outer loop
      vertex -2.000000000000e-03 2.500000000000e-03 3.730961600000e-03
      vertex -2.000000000000e-03 3.000000000000e-03 3.730961600000e-03
      vertex -1.500000000000e-03 3.000000000000e-03 3.730961600000e-03
    endloop
  endfacet
  facet normal 0.0 0.0 -1.0
    outer loop
      vertex -1.500000000000e-03 -3.000000000000e-03 3.730961600000e-03
      vertex -1.000000000000e-03 -2.500000000000e-03 3.730961600000e-03
      vertex -1.000000000000e-03 -3.000000000000e-03 3.730961600000e-03
    endloop
  endfacet
  facet normal 0.0 0.0 -1.0
    outer loop
      vertex -1.500000000000e-03 -3.000000000000e-03 3.730961600000e-03
      vertex -1.500000000000e-03 -2.500000000000e-03 3.730961600000e-03
      vertex -1.000000000000e-03 -2.500000000000e-03 3.730961600000e-03
    endloop
  endfacet
  facet normal 0.0 0.0 -1.0
    outer loop
      vertex -1.500000000000e-03 -2.500000000000e-03 3.730961600000e-03
      vertex -1.000000000000e-03 -2.000000000000e-03 3.730961600000e-03
      vertex -1.000000000000e-03 -2.500000000000e-03 3.730961600000e-03
    endloop
  endfacet
  facet normal 0.0 0.0 -1.0
    outer loop
      vertex -1.500000000000e-03 -2.500000000000e-03 3.730961600000e-03
      vertex -1.500000000000e-03 -2.000000000000e-03 3.730961600000e-03
      vertex -1.000000000000e-03 -2.000000000000e-03 3.730961600000e-03
    endloop
  endfacet
  facet normal 0.0 0.0 -1.0
    outer loop
      vertex -1.500000000000e-03 -2.000000000000e-03 3.730961600000e-03
      vertex -1.000000000000e-03 -1.500000000000e-03 3.730961600000e-03
      vertex -1.000000000000e-03 -2.000000000000e-03 3.730961600000e-03
    endloop
  endfacet
  facet normal 0.0 0.0 -1.0
    outer loop
      vertex -1.500000000000e-03 -2.000000000000e-03 3.730961600000e-03
      vertex -1.500000000000e-03 -1.500000000000e-03 3.730961600000e-03
      vertex -1.000000000000e-03 -1.500000000000e-03 3.730961600000e-03
    endloop
  endfacet
  facet normal 0.0 0.0 -1.0
    outer loop
      vertex -1.500000000000e-03 -1.500000000000e-03 3.730961600000e-03
      vertex -1.000000000000e-03 -1.000000000000e-03 3.730961600000e-03
      vertex -1.000000000000e-03 -1.500000000000e-03 3.730961600000e-03
    endloop
  endfacet
  facet normal 0.0 0.0 -1.0
    outer loop
      vertex -1.500000000000e-03 -1.500000000000e-03 3.730961600000e-03
      vertex -1.500000000000e-03 -1.000000000000e-03 3.730961600000e-03
      vertex -1.000000000000e-03 -1.000000000000e-03 3.730961600000e-03
    endloop
  endfacet
  facet normal 0.0 0.0 -1.0
    outer loop
      vertex -1.500000000000e-03 -1.000000000000e-03 3.730961600000e-03
      vertex -1.000000000000e-03 -5.000000000000e-04 3.730961600000e-03
      vertex -1.000000000000e-03 -1.000000000000e-03 3.730961600000e-03
    endloop
  endfacet
  facet normal 0.0 0.0 -1.0
    outer loop
      vertex -1.500000000000e-03 -1.000000000000e-03 3.730961600000e-03
      vertex -1.500000000000e-03 -5.000000000000e-04 3.730961600000e-03
      vertex -1.000000000000e-03 -5.000000000000e-04 3.730961600000e-03
    endloop
  endfacet
  facet normal 0.0 0.0 -1.0
    outer loop
      vertex -1.500000000000e-03 -5.000000000000e-04 3.730961600000e-03
      vertex -1.000000000000e-03 0.000000000000e+00 3.730961600000e-03
      vertex -1.000000000000e-03 -5.000000000000e-04 3.730961600000e-03
    endloop
  endfacet
  facet normal 0.0 0.0 -1.0
    outer loop
      vertex -1.500000000000e-03 -5.000000000000e-04 3.730961600000e-03
      vertex -1.500000000000e-03 0.000000000000e+00 3.730961600000e-03
      vertex -1.000000000000e-03 0.000000000000e+00 3.730961600000e-03
    endloop
  endfacet
  facet normal 0.0 0.0 -1.0
    outer loop
      vertex -1.500000000000e-03 0.000000000000e+00 3.730961600000e-03
      vertex -1.000000000000e-03 5.000000000000e-04 3.730961600000e-03
      vertex -1.000000000000e-03 0.000000000000e+00 3.730961600000e-03
    endloop
  endfacet
  facet normal 0.0 0.0 -1.0
    outer loop
      vertex -1.500000000000e-03 0.000000000000e+00 3.730961600000e-03
      vertex -1.500000000000e-03 5.000000000000e-04 3.730961600000e-03
      vertex -1.000000000000e-03 5.000000000000e-04 3.730961600000e-03
    endloop
  endfacet
  facet normal 0.0 0.0 -1.0
    outer loop
      vertex -1.500000000000e-03 5.000000000000e-04 3.730961600000e-03
      vertex -1.000000000000e-03 1.000000000000e-03 3.730961600000e-03
      vertex -1.000000000000e-03 5.000000000000e-04 3.730961600000e-03
    endloop
  endfacet
  facet normal 0.0 0.0 -1.0
    outer loop
      vertex -1.500000000000e-03 5.000000000000e-04 3.730961600000e-03
      vertex -1.500000000000e-03 1.000000000000e-03 3.730961600000e-03
      vertex -1.000000000000e-03 1.000000000000e-03 3.730961600000e-03
    endloop
  endfacet
  facet normal 0.0 0.0 -1.0
    outer loop
      vertex -1.500000000000e-03 1.000000000000e-03 3.730961600000e-03
      vertex -1.000000000000e-03 1.500000000000e-03 3.730961600000e-03
      vertex -1.000000000000e-03 1.000000000000e-03 3.730961600000e-03
    endloop
  endfacet
  facet normal 0.0 0.0 -1.0
    outer loop
      vertex -1.500000000000e-03 1.000000000000e-03 3.730961600000e-03
      vertex -1.500000000000e-03 1.500000000000e-03 3.730961600000e-03
      vertex -1.000000000000e-03 1.500000000000e-03 3.730961600000e-03
    endloop
  endfacet
  facet normal 0.0 0.0 -1.0
    outer loop
      vertex -1.500000000000e-03 1.500000000000e-03 3.730961600000e-03
      vertex -1.000000000000e-03 2.000000000000e-03 3.730961600000e-03
      vertex -1.000000000000e-03 1.500000000000e-03 3.730961600000e-03
    endloop
  endfacet
  facet normal 0.0 0.0 -1.0
    outer loop
      vertex -1.500000000000e-03 1.500000000000e-03 3.730961600000e-03
      vertex -1.500000000000e-03 2.000000000000e-03 3.730961600000e-03
      vertex -1.000000000000e-03 2.000000000000e-03 3.730961600000e-03
    endloop
  endfacet
  facet normal 0.0 0.0 -1.0
    outer loop
      vertex -1.500000000000e-03 2.000000000000e-03 3.730961600000e-03
      vertex -1.000000000000e-03 2.500000000000e-03 3.730961600000e-03
      vertex -1.000000000000e-03 2.000000000000e-03 3.730961600000e-03
    endloop
  endfacet
  facet normal 0.0 0.0 -1.0
    outer loop
      vertex -1.500000000000e-03 2.000000000000e-03 3.730961600000e-03
      vertex -1.500000000000e-03 2.500000000000e-03 3.730961600000e-03
      vertex -1.000000000000e-03 2.500000000000e-03 3.730961600000e-03
    endloop
  endfacet
  facet normal 0.0 0.0 -1.0
    outer loop
      vertex -1.500000000000e-03 2.500000000000e-03 3.730961600000e-03
      vertex -1.000000000000e-03 3.000000000000e-03 3.730961600000e-03
      vertex -1.000000000000e-03 2.500000000000e-03 3.730961600000e-03
    endloop
  endfacet
  facet normal 0.0 0.0 -1.0
    outer loop
      vertex -1.500000000000e-03 2.500000000000e-03 3.730961600000e-03
      vertex -1.500000000000e-03 3.000000000000e-03 3.730961600000e-03
      vertex -1.000000000000e-03 3.000000000000e-03 3.730961600000e-03
    endloop
  endfacet
  facet normal 0.0 0.0 -1.0
    outer loop
      vertex -1.000000000000e-03 -3.000000000000e-03 3.730961600000e-03
      vertex -5.000000000000e-04 -2.500000000000e-03 3.730961600000e-03
      vertex -5.000000000000e-04 -3.000000000000e-03 3.730961600000e-03
    endloop
  endfacet
  facet normal 0.0 0.0 -1.0
    outer loop
      vertex -1.000000000000e-03 -3.000000000000e-03 3.730961600000e-03
      vertex -1.000000000000e-03 -2.500000000000e-03 3.730961600000e-03
      vertex -5.000000000000e-04 -2.500000000000e-03 3.730961600000e-03
    endloop
  endfacet
  facet normal 0.0 0.0 -1.0
    outer loop
      vertex -1.000000000000e-03 -2.500000000000e-03 3.730961600000e-03
      vertex -5.000000000000e-04 -2.000000000000e-03 3.730961600000e-03
      vertex -5.000000000000e-04 -2.500000000000e-03 3.730961600000e-03
    endloop
  endfacet
  facet normal 0.0 0.0 -1.0
    outer loop
      vertex -1.000000000000e-03 -2.500000000000e-03 3.730961600000e-03
      vertex -1.000000000000e-03 -2.000000000000e-03 3.730961600000e-03
      vertex -5.000000000000e-04 -2.000000000000e-03 3.730961600000e-03
    endloop
  endfacet
  facet normal 0.0 0.0 -1.0
    outer loop
      vertex -1.000000000000e-03 -2.000000000000e-03 3.730961600000e-03
      vertex -5.000000000000e-04 -1.500000000000e-03 3.730961600000e-03
      vertex -5.000000000000e-04 -2.000000000000e-03 3.730961600000e-03
    endloop
  endfacet
  facet normal 0.0 0.0 -1.0
    outer loop
      vertex -1.000000000000e-03 -2.000000000000e-03 3.730961600000e-03
      vertex -1.000000000000e-03 -1.500000000000e-03 3.730961600000e-03
      vertex -5.000000000000e-04 -1.500000000000e-03 3.730961600000e-03
    endloop
  endfacet
  facet normal 0.0 0.0 -1.0
    outer loop
      vertex -1.000000000000e-03 -1.500000000000e-03 3.730961600000e-03
      vertex -5.000000000000e-04 -1.000000000000e-03 3.730961600000e-03
      vertex -5.000000000000e-04 -1.500000000000e-03 3.730961600000e-03
    endloop
  endfacet
  facet normal 0.0 0.0 -1.0
    outer loop
      vertex -1.000000000000e-03 -1.500000000000e-03 3.730961600000e-03
      vertex -1.000000000000e-03 -1.000000000000e-03 3.730961600000e-03
      vertex -5.000000000000e-04 -1.000000000000e-03 3.730961600000e-03
    endloop
  endfacet
  facet normal 0.0 0.0 -1.0
    outer loop
      vertex -1.000000000000e-03 -1.000000000000e-03 3.730961600000e-03
      vertex -5.000000000000e-04 -5.000000000000e-04 3.730961600000e-03
      vertex -5.000000000000e-04 -1.000000000000e-03 3.730961600000e-03
    endloop
  endfacet
  facet normal 0.0 0.0 -1.0
    outer loop
      vertex -1.000000000000e-03 -1.000000000000e-03 3.730961600000e-03
      vertex -1.000000000000e-03 -5.000000000000e-04 3.730961600000e-03
      vertex -5.000000000000e-04 -5.000000000000e-04 3.730961600000e-03
    endloop
  endfacet
  facet normal 0.0 0.0 -1.0
    outer loop
      vertex -1.000000000000e-03 -5.000000000000e-04 3.730961600000e-03
      vertex -5.000000000000e-04 0.000000000000e+00 3.730961600000e-03
      vertex -5.000000000000e-04 -5.000000000000e-04 3.730961600000e-03
    endloop
  endfacet
  facet normal 0.0 0.0 -1.0
    outer loop
      vertex -1.000000000000e-03 -5.000000000000e-04 3.730961600000e-03
      vertex -1.000000000000e-03 0.000000000000e+00 3.730961600000e-03
      vertex -5.000000000000e-04 0.000000000000e+00 3.730961600000e-03
    endloop
  endfacet
  facet normal 0.0 0.0 -1.0
    outer loop
      vertex -1.000000000000e-03 0.000000000000e+00 3.730961600000e-03
      vertex -5.000000000000e-04 5.000000000000e-04 3.730961600000e-03
      vertex -5.000000000000e-04 0.000000000000e+00 3.730961600000e-03
    endloop
  endfacet
  facet normal 0.0 0.0 -1.0
    outer loop
      vertex -1.000000000000e-03 0.000000000000e+00 3.730961600000e-03
      vertex -1.000000000000e-03 5.000000000000e-04 3.730961600000e-03
      vertex -5.000000000000e-04 5.000000000000e-04 3.730961600000e-03
    endloop
  endfacet
  facet normal 0.0 0.0 -1.0
    outer loop
      vertex -1.000000000000e-03 5.000000000000e-04 3.730961600000e-03
      vertex -5.000000000000e-04 1.000000000000e-03 3.730961600000e-03
      vertex -5.000000000000e-04 5.000000000000e-04 3.730961600000e-03
    endloop
  endfacet
  facet normal 0.0 0.0 -1.0
    outer loop
      vertex -1.000000000000e-03 5.000000000000e-04 3.730961600000e-03
      vertex -1.000000000000e-03 1.000000000000e-03 3.730961600000e-03
      vertex -5.000000000000e-04 1.000000000000e-03 3.730961600000e-03
    endloop
  endfacet
  facet normal 0.0 0.0 -1.0
    outer loop
      vertex -1.000000000000e-03 1.000000000000e-03 3.730961600000e-03
      vertex -5.000000000000e-04 1.500000000000e-03 3.730961600000e-03
      vertex -5.000000000000e-04 1.000000000000e-03 3.730961600000e-03
    endloop
  endfacet
  facet normal 0.0 0.0 -1.0
    outer loop
      vertex -1.000000000000e-03 1.000000000000e-03 3.730961600000e-03
      vertex -1.000000000000e-03 1.500000000000e-03 3.730961600000e-03
      vertex -5.000000000000e-04 1.500000000000e-03 3.730961600000e-03
    endloop
  endfacet
  facet normal 0.0 0.0 -1.0
    outer loop
      vertex -1.000000000000e-03 1.500000000000e-03 3.730961600000e-03
      vertex -5.000000000000e-04 2.000000000000e-03 3.730961600000e-03
      vertex -5.000000000000e-04 1.500000000000e-03 3.730961600000e-03
    endloop
  endfacet
  facet normal 0.0 0.0 -1.0
    outer loop
      vertex -1.000000000000e-03 1.500000000000e-03 3.730961600000e-03
      vertex -1.000000000000e-03 2.000000000000e-03 3.730961600000e-03
      vertex -5.000000000000e-04 2.000000000000e-03 3.730961600000e-03
    endloop
  endfacet
  facet normal 0.0 0.0 -1.0
    outer loop
      vertex -1.000000000000e-03 2.000000000000e-03 3.730961600000e-03
      vertex -5.000000000000e-04 2.500000000000e-03 3.730961600000e-03
      vertex -5.000000000000e-04 2.000000000000e-03 3.730961600000e-03
    endloop
  endfacet
  facet normal 0.0 0.0 -1.0
    outer loop
      vertex -1.000000000000e-03 2.000000000000e-03 3.730961600000e-03
      vertex -1.000000000000e-03 2.500000000000e-03 3.730961600000e-03
      vertex -5.000000000000e-04 2.500000000000e-03 3.730961600000e-03
    endloop
  endfacet
  facet normal 0.0 0.0 -1.0
    outer loop
      vertex -1.000000000000e-03 2.500000000000e-03 3.730961600000e-03
      vertex -5.000000000000e-04 3.000000000000e-03 3.730961600000e-03
      vertex -5.000000000000e-04 2.500000000000e-03 3.730961600000e-03
    endloop
  endfacet
  facet normal 0.0 0.0 -1.0
    outer loop
      vertex -1.000000000000e-03 2.500000000000e-03 3.730961600000e-03
      vertex -1.000000000000e-03 3.000000000000e-03 3.730961600000e-03
      vertex -5.000000000000e-04 3.000000000000e-03 3.730961600000e-03
    endloop
  endfacet
  facet normal 0.0 0.0 -1.0
    outer loop
      vertex -5.000000000000e-04 -3.000000000000e-03 3.730961600000e-03
      vertex 0.000000000000e+00 -2.500000000000e-03 3.730961600000e-03
      vertex 0.000000000000e+00 -3.000000000000e-03 3.730961600000e-03
    endloop
  endfacet
  facet normal 0.0 0.0 -1.0
    outer loop
      vertex -5.000000000000e-04 -3.000000000000e-03 3.730961600000e-03
      vertex -5.000000000000e-04 -2.500000000000e-03 3.730961600000e-03
      vertex 0.000000000000e+00 -2.500000000000e-03 3.730961600000e-03
    endloop
  endfacet
  facet normal 0.0 0.0 -1.0
    outer loop
      vertex -5.000000000000e-04 -2.500000000000e-03 3.730961600000e-03
      vertex 0.000000000000e+00 -2.000000000000e-03 3.730961600000e-03
      vertex 0.000000000000e+00 -2.500000000000e-03 3.730961600000e-03
    endloop
  endfacet
  facet normal 0.0 0.0 -1.0
    outer loop
      vertex -5.000000000000e-04 -2.500000000000e-03 3.730961600000e-03
      vertex -5.000000000000e-04 -2.000000000000e-03 3.730961600000e-03
      vertex 0.000000000000e+00 -2.000000000000e-03 3.730961600000e-03
    endloop
  endfacet
  facet normal 0.0 0.0 -1.0
    outer loop
      vertex -5.000000000000e-04 -2.000000000000e-03 3.730961600000e-03
      vertex 0.000000000000e+00 -1.500000000000e-03 3.730961600000e-03
      vertex 0.000000000000e+00 -2.000000000000e-03 3.730961600000e-03
    endloop
  endfacet
  facet normal 0.0 0.0 -1.0
    outer loop
      vertex -5.000000000000e-04 -2.000000000000e-03 3.730961600000e-03
      vertex -5.000000000000e-04 -1.500000000000e-03 3.730961600000e-03
      vertex 0.000000000000e+00 -1.500000000000e-03 3.730961600000e-03
    endloop
  endfacet
  facet normal 0.0 0.0 -1.0
    outer loop
      vertex -5.000000000000e-04 -1.500000000000e-03 3.730961600000e-03
      vertex 0.000000000000e+00 -1.000000000000e-03 3.730961600000e-03
      vertex 0.000000000000e+00 -1.500000000000e-03 3.730961600000e-03
    endloop
  endfacet
  facet normal 0.0 0.0 -1.0
    outer loop
      vertex -5.000000000000e-04 -1.500000000000e-03 3.730961600000e-03
      vertex -5.000000000000e-04 -1.000000000000e-03 3.730961600000e-03
      vertex 0.000000000000e+00 -1.000000000000e-03 3.730961600000e-03
    endloop
  endfacet
  facet normal 0.0 0.0 -1.0
    outer loop
      vertex -5.000000000000e-04 -1.000000000000e-03 3.730961600000e-03
      vertex 0.000000000000e+00 -5.000000000000e-04 3.730961600000e-03
      vertex 0.000000000000e+00 -1.000000000000e-03 3.730961600000e-03
    endloop
  endfacet
  facet normal 0.0 0.0 -1.0
    outer loop
      vertex -5.000000000000e-04 -1.000000000000e-03 3.730961600000e-03
      vertex -5.000000000000e-04 -5.000000000000e-04 3.730961600000e-03
      vertex 0.000000000000e+00 -5.000000000000e-04 3.730961600000e-03
    endloop
  endfacet
  facet normal 0.0 0.0 -1.0
    outer loop
      vertex -5.000000000000e-04 -5.000000000000e-04 3.730961600000e-03
      vertex 0.000000000000e+00 0.000000000000e+00 3.730961600000e-03
      vertex 0.000000000000e+00 -5.000000000000e-04 3.730961600000e-03
    endloop
  endfacet
  facet normal 0.0 0.0 -1.0
    outer loop
      vertex -5.000000000000e-04 -5.000000000000e-04 3.730961600000e-03
      vertex -5.000000000000e-04 0.000000000000e+00 3.730961600000e-03
      vertex 0.000000000000e+00 0.000000000000e+00 3.730961600000e-03
    endloop
  endfacet
  facet normal 0.0 0.0 -1.0
    outer loop
      vertex -5.000000000000e-04 0.000000000000e+00 3.730961600000e-03
      vertex 0.000000000000e+00 5.000000000000e-04 3.730961600000e-03
      vertex 0.000000000000e+00 0.000000000000e+00 3.730961600000e-03
    endloop
  endfacet
  facet normal 0.0 0.0 -1.0
    outer loop
      vertex -5.000000000000e-04 0.000000000000e+00 3.730961600000e-03
      vertex -5.000000000000e-04 5.000000000000e-04 3.730961600000e-03
      vertex 0.000000000000e+00 5.000000000000e-04 3.730961600000e-03
    endloop
  endfacet
  facet normal 0.0 0.0 -1.0
    outer loop
      vertex -5.000000000000e-04 5.000000000000e-04 3.730961600000e-03
      vertex 0.000000000000e+00 1.000000000000e-03 3.730961600000e-03
      vertex 0.000000000000e+00 5.000000000000e-04 3.730961600000e-03
    endloop
  endfacet
  facet normal 0.0 0.0 -1.0
    outer loop
      vertex -5.000000000000e-04 5.000000000000e-04 3.730961600000e-03
      vertex -5.000000000000e-04 1.000000000000e-03 3.730961600000e-03
      vertex 0.000000000000e+00 1.000000000000e-03 3.730961600000e-03
    endloop
  endfacet
  facet normal 0.0 0.0 -1.0
    outer loop
      vertex -5.000000000000e-04 1.000000000000e-03 3.730961600000e-03
      vertex 0.000000000000e+00 1.500000000000e-03 3.730961600000e-03
      vertex 0.000000000000e+00 1.000000000000e-03 3.730961600000e-03
    endloop
  endfacet
  facet normal 0.0 0.0 -1.0
    outer loop
      vertex -5.000000000000e-04 1.000000000000e-03 3.730961600000e-03
      vertex -5.000000000000e-04 1.500000000000e-03 3.730961600000e-03
      vertex 0.000000000000e+00 1.500000000000e-03 3.730961600000e-03
    endloop
  endfacet
  facet normal 0.0 0.0 -1.0
    outer loop
      vertex -5.000000000000e-04 1.500000000000e-03 3.730961600000e-03
      vertex 0.000000000000e+00 2.000000000000e-03 3.730961600000e-03
      vertex 0.000000000000e+00 1.500000000000e-03 3.730961600000e-03
    endloop
  endfacet
  facet normal 0.0 0.0 -1.0
    outer loop
      vertex -5.000000000000e-04 1.500000000000e-03 3.730961600000e-03
      vertex -5.000000000000e-04 2.000000000000e-03 3.730961600000e-03
      vertex 0.000000000000e+00 2.000000000000e-03 3.730961600000e-03
    endloop
  endfacet
  facet normal 0.0 0.0 -1.0
    outer loop
      vertex -5.000000000000e-04 2.000000000000e-03 3.730961600000e-03
      vertex 0.000000000000e+00 2.500000000000e-03 3.730961600000e-03
      vertex 0.000000000000e+00 2.000000000000e-03 3.730961600000e-03
    endloop
  endfacet
  facet normal 0.0 0.0 -1.0
    outer loop
      vertex -5.000000000000e-04 2.000000000000e-03 3.730961600000e-03
      vertex -5.000000000000e-04 2.500000000000e-03 3.730961600000e-03
      vertex 0.000000000000e+00 2.500000000000e-03 3.730961600000e-03
    endloop
  endfacet
  facet normal 0.0 0.0 -1.0
    outer loop
      vertex -5.000000000000e-04 2.500000000000e-03 3.730961600000e-03
      vertex 0.000000000000e+00 3.000000000000e-03 3.730961600000e-03
      vertex 0.000000000000e+00 2.500000000000e-03 3.730961600000e-03
    endloop
  endfacet
  facet normal 0.0 0.0 -1.0
    outer loop
      vertex -5.000000000000e-04 2.500000000000e-03 3.730961600000e-03
      vertex -5.000000000000e-04 3.000000000000e-03 3.730961600000e-03
      vertex 0.000000000000e+00 3.000000000000e-03 3.730961600000e-03
    endloop
  endfacet
  facet normal 0.0 0.0 -1.0
    outer loop
      vertex 0.000000000000e+00 -3.000000000000e-03 3.730961600000e-03
      vertex 5.000000000000e-04 -2.500000000000e-03 3.730961600000e-03
      vertex 5.000000000000e-04 -3.000000000000e-03 3.730961600000e-03
    endloop
  endfacet
  facet normal 0.0 0.0 -1.0
    outer loop
      vertex 0.000000000000e+00 -3.000000000000e-03 3.730961600000e-03
      vertex 0.000000000000e+00 -2.500000000000e-03 3.730961600000e-03
      vertex 5.000000000000e-04 -2.500000000000e-03 3.730961600000e-03
    endloop
  endfacet
  facet normal 0.0 0.0 -1.0
    outer loop
      vertex 0.000000000000e+00 -2.500000000000e-03 3.730961600000e-03
      vertex 5.000000000000e-04 -2.000000000000e-03 3.730961600000e-03
      vertex 5.000000000000e-04 -2.500000000000e-03 3.730961600000e-03
    endloop
  endfacet
  facet normal 0.0 0.0 -1.0
    outer loop
      vertex 0.000000000000e+00 -2.500000000000e-03 3.730961600000e-03
      vertex 0.000000000000e+00 -2.000000000000e-03 3.730961600000e-03
      vertex 5.000000000000e-04 -2.000000000000e-03 3.730961600000e-03
    endloop
  endfacet
  facet normal 0.0 0.0 -1.0
    outer loop
      vertex 0.000000000000e+00 -2.000000000000e-03 3.730961600000e-03
      vertex 5.000000000000e-04 -1.500000000000e-03 3.730961600000e-03
      vertex 5.000000000000e-04 -2.000000000000e-03 3.730961600000e-03
    endloop
  endfacet
  facet normal 0.0 0.0 -1.0
    outer loop
      vertex 0.000000000000e+00 -2.000000000000e-03 3.730961600000e-03
      vertex 0.000000000000e+00 -1.500000000000e-03 3.730961600000e-03
      vertex 5.000000000000e-04 -1.500000000000e-03 3.730961600000e-03
    endloop
  endfacet
  facet normal 0.0 0.0 -1.0
    outer loop
      vertex 0.000000000000e+00 -1.500000000000e-03 3.730961600000e-03
      vertex 5.000000000000e-04 -1.000000000000e-03 3.730961600000e-03
      vertex 5.000000000000e-04 -1.500000000000e-03 3.730961600000e-03
    endloop
  endfacet
  facet normal 0.0 0.0 -1.0
    outer loop
      vertex 0.000000000000e+00 -1.500000000000e-03 3.730961600000e-03
      vertex 0.000000000000e+00 -1.000000000000e-03 3.730961600000e-03
      vertex 5.000000000000e-04 -1.000000000000e-03 3.730961600000e-03
    endloop
  endfacet
  facet normal 0.0 0.0 -1.0
    outer loop
      vertex 0.000000000000e+00 -1.000000000000e-03 3.730961600000e-03
      vertex 5.000000000000e-04 -5.000000000000e-04 3.730961600000e-03
      vertex 5.000000000000e-04 -1.000000000000e-03 3.730961600000e-03
    endloop
  endfacet
  facet normal 0.0 0.0 -1.0
    outer loop
      vertex 0.000000000000e+00 -1.000000000000e-03 3.730961600000e-03
      vertex 0.000000000000e+00 -5.000000000000e-04 3.730961600000e-03
      vertex 5.000000000000e-04 -5.000000000000e-04 3.730961600000e-03
    endloop
  endfacet
  facet normal 0.0 0.0 -1.0
    outer loop
      vertex 0.000000000000e+00 -5.000000000000e-04 3.730961600000e-03
      vertex 5.000000000000e-04 0.000000000000e+00 3.730961600000e-03
      vertex 5.000000000000e-04 -5.000000000000e-04 3.730961600000e-03
    endloop
  endfacet
  facet normal 0.0 0.0 -1.0
    outer loop
      vertex 0.000000000000e+00 -5.000000000000e-04 3.730961600000e-03
      vertex 0.000000000000e+00 0.000000000000e+00 3.730961600000e-03
      vertex 5.000000000000e-04 0.000000000000e+00 3.730961600000e-03
    endloop
  endfacet
  facet normal 0.0 0.0 -1.0
    outer loop
      vertex 0.000000000000e+00 0.000000000000e+00 3.730961600000e-03
      vertex 5.000000000000e-04 5.000000000000e-04 3.730961600000e-03
      vertex 5.000000000000e-04 0.000000000000e+00 3.730961600000e-03
    endloop
  endfacet
  facet normal 0.0 0.0 -1.0
    outer loop
      vertex 0.000000000000e+00 0.000000000000e+00 3.730961600000e-03
      vertex 0.000000000000e+00 5.000000000000e-04 3.730961600000e-03
      vertex 5.000000000000e-04 5.000000000000e-04 3.730961600000e-03
    endloop
  endfacet
  facet normal 0.0 0.0 -1.0
    outer loop
      vertex 0.000000000000e+00 5.000000000000e-04 3.730961600000e-03
      vertex 5.000000000000e-04 1.000000000000e-03 3.730961600000e-03
      vertex 5.000000000000e-04 5.000000000000e-04 3.730961600000e-03
    endloop
  endfacet
  facet normal 0.0 0.0 -1.0
    outer loop
      vertex 0.000000000000e+00 5.000000000000e-04 3.730961600000e-03
      vertex 0.000000000000e+00 1.000000000000e-03 3.730961600000e-03
      vertex 5.000000000000e-04 1.000000000000e-03 3.730961600000e-03
    endloop
  endfacet
  facet normal 0.0 0.0 -1.0
    outer loop
      vertex 0.000000000000e+00 1.000000000000e-03 3.730961600000e-03
      vertex 5.000000000000e-04 1.500000000000e-03 3.730961600000e-03
      vertex 5.000000000000e-04 1.000000000000e-03 3.730961600000e-03
    endloop
  endfacet
  facet normal 0.0 0.0 -1.0
    outer loop
      vertex 0.000000000000e+00 1.000000000000e-03 3.730961600000e-03
      vertex 0.000000000000e+00 1.500000000000e-03 3.730961600000e-03
      vertex 5.000000000000e-04 1.500000000000e-03 3.730961600000e-03
    endloop
  endfacet
  facet normal 0.0 0.0 -1.0
    outer loop
      vertex 0.000000000000e+00 1.500000000000e-03 3.730961600000e-03
      vertex 5.000000000000e-04 2.000000000000e-03 3.730961600000e-03
      vertex 5.000000000000e-04 1.500000000000e-03 3.730961600000e-03
    endloop
  endfacet
  facet normal 0.0 0.0 -1.0
    outer loop
      vertex 0.000000000000e+00 1.500000000000e-03 3.730961600000e-03
      vertex 0.000000000000e+00 2.000000000000e-03 3.730961600000e-03
      vertex 5.000000000000e-04 2.000000000000e-03 3.730961600000e-03
    endloop
  endfacet
  facet normal 0.0 0.0 -1.0
    outer loop
      vertex 0.000000000000e+00 2.000000000000e-03 3.730961600000e-03
      vertex 5.000000000000e-04 2.500000000000e-03 3.730961600000e-03
      vertex 5.000000000000e-04 2.000000000000e-03 3.730961600000e-03
    endloop
  endfacet
  facet normal 0.0 0.0 -1.0
    outer loop
      vertex 0.000000000000e+00 2.000000000000e-03 3.730961600000e-03
      vertex 0.000000000000e+00 2.500000000000e-03 3.730961600000e-03
      vertex 5.000000000000e-04 2.500000000000e-03 3.730961600000e-03
    endloop
  endfacet
  facet normal 0.0 0.0 -1.0
    outer loop
      vertex 0.000000000000e+00 2.500000000000e-03 3.730961600000e-03
      vertex 5.000000000000e-04 3.000000000000e-03 3.730961600000e-03
      vertex 5.000000000000e-04 2.500000000000e-03 3.730961600000e-03
    endloop
  endfacet
  facet normal 0.0 0.0 -1.0
    outer loop
      vertex 0.000000000000e+00 2.500000000000e-03 3.730961600000e-03
      vertex 0.000000000000e+00 3.000000000000e-03 3.730961600000e-03
      vertex 5.000000000000e-04 3.000000000000e-03 3.730961600000e-03
    endloop
  endfacet
  facet normal 0.0 0.0 -1.0
    outer loop
      vertex 5.000000000000e-04 -3.000000000000e-03 3.730961600000e-03
      vertex 1.000000000000e-03 -2.500000000000e-03 3.730961600000e-03
      vertex 1.000000000000e-03 -3.000000000000e-03 3.730961600000e-03
    endloop
  endfacet
  facet normal 0.0 0.0 -1.0
    outer loop
      vertex 5.000000000000e-04 -3.000000000000e-03 3.730961600000e-03
      vertex 5.000000000000e-04 -2.500000000000e-03 3.730961600000e-03
      vertex 1.000000000000e-03 -2.500000000000e-03 3.730961600000e-03
    endloop
  endfacet
  facet normal 0.0 0.0 -1.0
    outer loop
      vertex 5.000000000000e-04 -2.500000000000e-03 3.730961600000e-03
      vertex 1.000000000000e-03 -2.000000000000e-03 3.730961600000e-03
      vertex 1.000000000000e-03 -2.500000000000e-03 3.730961600000e-03
    endloop
  endfacet
  facet normal 0.0 0.0 -1.0
    outer loop
      vertex 5.000000000000e-04 -2.500000000000e-03 3.730961600000e-03
      vertex 5.000000000000e-04 -2.000000000000e-03 3.730961600000e-03
      vertex 1.000000000000e-03 -2.000000000000e-03 3.730961600000e-03
    endloop
  endfacet
  facet normal 0.0 0.0 -1.0
    outer loop
      vertex 5.000000000000e-04 -2.000000000000e-03 3.730961600000e-03
      vertex 1.000000000000e-03 -1.500000000000e-03 3.730961600000e-03
      vertex 1.000000000000e-03 -2.000000000000e-03 3.730961600000e-03
    endloop
  endfacet
  facet normal 0.0 0.0 -1.0
    outer loop
      vertex 5.000000000000e-04 -2.000000000000e-03 3.730961600000e-03
      vertex 5.000000000000e-04 -1.500000000000e-03 3.730961600000e-03
      vertex 1.000000000000e-03 -1.500000000000e-03 3.730961600000e-03
    endloop
  endfacet
  facet normal 0.0 0.0 -1.0
    outer loop
      vertex 5.000000000000e-04 -1.500000000000e-03 3.730961600000e-03
      vertex 1.000000000000e-03 -1.000000000000e-03 3.730961600000e-03
      vertex 1.000000000000e-03 -1.500000000000e-03 3.730961600000e-03
    endloop
  endfacet
  facet normal 0.0 0.0 -1.0
    outer loop
      vertex 5.000000000000e-04 -1.500000000000e-03 3.730961600000e-03
      vertex 5.000000000000e-04 -1.000000000000e-03 3.730961600000e-03
      vertex 1.000000000000e-03 -1.000000000000e-03 3.730961600000e-03
    endloop
  endfacet
  facet normal 0.0 0.0 -1.0
    outer loop
      vertex 5.000000000000e-04 -1.000000000000e-03 3.730961600000e-03
      vertex 1.000000000000e-03 -5.000000000000e-04 3.730961600000e-03
      vertex 1.000000000000e-03 -1.000000000000e-03 3.730961600000e-03
    endloop
  endfacet
  facet normal 0.0 0.0 -1.0
    outer loop
      vertex 5.000000000000e-04 -1.000000000000e-03 3.730961600000e-03
      vertex 5.000000000000e-04 -5.000000000000e-04 3.730961600000e-03
      vertex 1.000000000000e-03 -5.000000000000e-04 3.730961600000e-03
    endloop
  endfacet
  facet normal 0.0 0.0 -1.0
    outer loop
      vertex 5.000000000000e-04 -5.000000000000e-04 3.730961600000e-03
      vertex 1.000000000000e-03 0.000000000000e+00 3.730961600000e-03
      vertex 1.000000000000e-03 -5.000000000000e-04 3.730961600000e-03
    endloop
  endfacet
  facet normal 0.0 0.0 -1.0
    outer loop
      vertex 5.000000000000e-04 -5.000000000000e-04 3.730961600000e-03
      vertex 5.000000000000e-04 0.000000000000e+00 3.730961600000e-03
      vertex 1.000000000000e-03 0.000000000000e+00 3.730961600000e-03
    endloop
  endfacet
  facet normal 0.0 0.0 -1.0
    outer loop
      vertex 5.000000000000e-04 0.000000000000e+00 3.730961600000e-03
      vertex 1.000000000000e-03 5.000000000000e-04 3.730961600000e-03
      vertex 1.000000000000e-03 0.000000000000e+00 3.730961600000e-03
    endloop
  endfacet
  facet normal 0.0 0.0 -1.0
    outer loop
      vertex 5.000000000000e-04 0.000000000000e+00 3.730961600000e-03
      vertex 5.000000000000e-04 5.000000000000e-04 3.730961600000e-03
      vertex 1.000000000000e-03 5.000000000000e-04 3.730961600000e-03
    endloop
  endfacet
  facet normal 0.0 0.0 -1.0
    outer loop
      vertex 5.000000000000e-04 5.000000000000e-04 3.730961600000e-03
      vertex 1.000000000000e-03 1.000000000000e-03 3.730961600000e-03
      vertex 1.000000000000e-03 5.000000000000e-04 3.730961600000e-03
    endloop
  endfacet
  facet normal 0.0 0.0 -1.0
    outer loop
      vertex 5.000000000000e-04 5.000000000000e-04 3.730961600000e-03
      vertex 5.000000000000e-04 1.000000000000e-03 3.730961600000e-03
      vertex 1.000000000000e-03 1.000000000000e-03 3.730961600000e-03
    endloop
  endfacet
  facet normal 0.0 0.0 -1.0
    outer loop
      vertex 5.000000000000e-04 1.000000000000e-03 3.730961600000e-03
      vertex 1.000000000000e-03 1.500000000000e-03 3.730961600000e-03
      vertex 1.000000000000e-03 1.000000000000e-03 3.730961600000e-03
    endloop
  endfacet
  facet normal 0.0 0.0 -1.0
    outer loop
      vertex 5.000000000000e-04 1.000000000000e-03 3.730961600000e-03
      vertex 5.000000000000e-04 1.500000000000e-03 3.730961600000e-03
      vertex 1.000000000000e-03 1.500000000000e-03 3.730961600000e-03
    endloop
  endfacet
  facet normal 0.0 0.0 -1.0
    outer loop
      vertex 5.000000000000e-04 1.500000000000e-03 3.730961600000e-03
      vertex 1.000000000000e-03 2.000000000000e-03 3.730961600000e-03
      vertex 1.000000000000e-03 1.500000000000e-03 3.730961600000e-03
    endloop
  endfacet
  facet normal 0.0 0.0 -1.0
    outer loop
      vertex 5.000000000000e-04 1.500000000000e-03 3.730961600000e-03
      vertex 5.000000000000e-04 2.000000000000e-03 3.730961600000e-03
      vertex 1.000000000000e-03 2.000000000000e-03 3.730961600000e-03
    endloop
  endfacet
  facet normal 0.0 0.0 -1.0
    outer loop
      vertex 5.000000000000e-04 2.000000000000e-03 3.730961600000e-03
      vertex 1.000000000000e-03 2.500000000000e-03 3.730961600000e-03
      vertex 1.000000000000e-03 2.000000000000e-03 3.730961600000e-03
    endloop
  endfacet
  facet normal 0.0 0.0 -1.0
    outer loop
      vertex 5.000000000000e-04 2.000000000000e-03 3.730961600000e-03
      vertex 5.000000000000e-04 2.500000000000e-03 3.730961600000e-03
      vertex 1.000000000000e-03 2.500000000000e-03 3.730961600000e-03
    endloop
  endfacet
  facet normal 0.0 0.0 -1.0
    outer loop
      vertex 5.000000000000e-04 2.500000000000e-03 3.730961600000e-03
      vertex 1.000000000000e-03 3.000000000000e-03 3.730961600000e-03
      vertex 1.000000000000e-03 2.500000000000e-03 3.730961600000e-03
    endloop
  endfacet
  facet normal 0.0 0.0 -1.0
    outer loop
      vertex 5.000000000000e-04 2.500000000000e-03 3.730961600000e-03
      vertex 5.000000000000e-04 3.000000000000e-03 3.730961600000e-03
      vertex 1.000000000000e-03 3.000000000000e-03 3.730961600000e-03
    endloop
  endfacet
  facet normal 0.0 0.0 -1.0
    outer loop
      vertex 1.000000000000e-03 -3.000000000000e-03 3.730961600000e-03
      vertex 1.500000000000e-03 -2.500000000000e-03 3.730961600000e-03
      vertex 1.500000000000e-03 -3.000000000000e-03 3.730961600000e-03
    endloop
  endfacet
  facet normal 0.0 0.0 -1.0
    outer loop
      vertex 1.000000000000e-03 -3.000000000000e-03 3.730961600000e-03
      vertex 1.000000000000e-03 -2.500000000000e-03 3.730961600000e-03
      vertex 1.500000000000e-03 -2.500000000000e-03 3.730961600000e-03
    endloop
  endfacet
  facet normal 0.0 0.0 -1.0
    outer loop
      vertex 1.000000000000e-03 -2.500000000000e-03 3.730961600000e-03
      vertex 1.500000000000e-03 -2.000000000000e-03 3.730961600000e-03
      vertex 1.500000000000e-03 -2.500000000000e-03 3.730961600000e-03
    endloop
  endfacet
  facet normal 0.0 0.0 -1.0
    outer loop
      vertex 1.000000000000e-03 -2.500000000000e-03 3.730961600000e-03
      vertex 1.000000000000e-03 -2.000000000000e-03 3.730961600000e-03
      vertex 1.500000000000e-03 -2.000000000000e-03 3.730961600000e-03
    endloop
  endfacet
  facet normal 0.0 0.0 -1.0
    outer loop
      vertex 1.000000000000e-03 -2.000000000000e-03 3.730961600000e-03
      vertex 1.500000000000e-03 -1.500000000000e-03 3.730961600000e-03
      vertex 1.500000000000e-03 -2.000000000000e-03 3.730961600000e-03
    endloop
  endfacet
  facet normal 0.0 0.0 -1.0
    outer loop
      vertex 1.000000000000e-03 -2.000000000000e-03 3.730961600000e-03
      vertex 1.000000000000e-03 -1.500000000000e-03 3.730961600000e-03
      vertex 1.500000000000e-03 -1.500000000000e-03 3.730961600000e-03
    endloop
  endfacet
  facet normal 0.0 0.0 -1.0
    outer loop
      vertex 1.000000000000e-03 -1.500000000000e-03 3.730961600000e-03
      vertex 1.500000000000e-03 -1.000000000000e-03 3.730961600000e-03
      vertex 1.500000000000e-03 -1.500000000000e-03 3.730961600000e-03
    endloop
  endfacet
  facet normal 0.0 0.0 -1.0
    outer loop
      vertex 1.000000000000e-03 -1.500000000000e-03 3.730961600000e-03
      vertex 1.000000000000e-03 -1.000000000000e-03 3.730961600000e-03
      vertex 1.500000000000e-03 -1.000000000000e-03 3.730961600000e-03
    endloop
  endfacet
  facet normal 0.0 0.0 -1.0
    outer loop
      vertex 1.000000000000e-03 -1.000000000000e-03 3.730961600000e-03
      vertex 1.500000000000e-03 -5.000000000000e-04 3.730961600000e-03
      vertex 1.500000000000e-03 -1.000000000000e-03 3.730961600000e-03
    endloop
  endfacet
  facet normal 0.0 0.0 -1.0
    outer loop
      vertex 1.000000000000e-03 -1.000000000000e-03 3.730961600000e-03
      vertex 1.000000000000e-03 -5.000000000000e-04 3.730961600000e-03
      vertex 1.500000000000e-03 -5.000000000000e-04 3.730961600000e-03
    endloop
  endfacet
  facet normal 0.0 0.0 -1.0
    outer loop
      vertex 1.000000000000e-03 -5.000000000000e-04 3.730961600000e-03
      vertex 1.500000000000e-03 0.000000000000e+00 3.730961600000e-03
      vertex 1.500000000000e-03 -5.000000000000e-04 3.730961600000e-03
    endloop
  endfacet
  facet normal 0.0 0.0 -1.0
    outer loop
      vertex 1.000000000000e-03 -5.000000000000e-04 3.730961600000e-03
      vertex 1.000000000000e-03 0.000000000000e+00 3.730961600000e-03
      vertex 1.500000000000e-03 0.000000000000e+00 3.730961600000e-03
    endloop
  endfacet
  facet normal 0.0 0.0 -1.0
    outer loop
      vertex 1.000000000000e-03 0.000000000000e+00 3.730961600000e-03
      vertex 1.500000000000e-03 5.000000000000e-04 3.730961600000e-03
      vertex 1.500000000000e-03 0.000000000000e+00 3.730961600000e-03
    endloop
  endfacet
  facet normal 0.0 0.0 -1.0
    outer loop
      vertex 1.000000000000e-03 0.000000000000e+00 3.730961600000e-03
      vertex 1.000000000000e-03 5.000000000000e-04 3.730961600000e-03
      vertex 1.500000000000e-03 5.000000000000e-04 3.730961600000e-03
    endloop
  endfacet
  facet normal 0.0 0.0 -1.0
    outer loop
      vertex 1.000000000000e-03 5.000000000000e-04 3.730961600000e-03
      vertex 1.500000000000e-03 1.000000000000e-03 3.730961600000e-03
      vertex 1.500000000000e-03 5.000000000000e-04 3.730961600000e-03
    endloop
  endfacet
  facet normal 0.0 0.0 -1.0
    outer loop
      vertex 1.000000000000e-03 5.000000000000e-04 3.730961600000e-03
      vertex 1.000000000000e-03 1.000000000000e-03 3.730961600000e-03
      vertex 1.500000000000e-03 1.000000000000e-03 3.730961600000e-03
    endloop
  endfacet
  facet normal 0.0 0.0 -1.0
    outer loop
      vertex 1.000000000000e-03 1.000000000000e-03 3.730961600000e-03
      vertex 1.500000000000e-03 1.500000000000e-03 3.730961600000e-03
      vertex 1.500000000000e-03 1.000000000000e-03 3.730961600000e-03
    endloop
  endfacet
  facet normal 0.0 0.0 -1.0
    outer loop
      vertex 1.000000000000e-03 1.000000000000e-03 3.730961600000e-03
      vertex 1.000000000000e-03 1.500000000000e-03 3.730961600000e-03
      vertex 1.500000000000e-03 1.500000000000e-03 3.730961600000e-03
    endloop
  endfacet
  facet normal 0.0 0.0 -1.0
    outer loop
      vertex 1.000000000000e-03 1.500000000000e-03 3.730961600000e-03
      vertex 1.500000000000e-03 2.000000000000e-03 3.730961600000e-03
      vertex 1.500000000000e-03 1.500000000000e-03 3.730961600000e-03
    endloop
  endfacet
  facet normal 0.0 0.0 -1.0
    outer loop
      vertex 1.000000000000e-03 1.500000000000e-03 3.730961600000e-03
      vertex 1.000000000000e-03 2.000000000000e-03 3.730961600000e-03
      vertex 1.500000000000e-03 2.000000000000e-03 3.730961600000e-03
    endloop
  endfacet
  facet normal 0.0 0.0 -1.0
    outer loop
      vertex 1.000000000000e-03 2.000000000000e-03 3.730961600000e-03
      vertex 1.500000000000e-03 2.500000000000e-03 3.730961600000e-03
      vertex 1.500000000000e-03 2.000000000000e-03 3.730961600000e-03
    endloop
  endfacet
  facet normal 0.0 0.0 -1.0
    outer loop
      vertex 1.000000000000e-03 2.000000000000e-03 3.730961600000e-03
      vertex 1.000000000000e-03 2.500000000000e-03 3.730961600000e-03
      vertex 1.500000000000e-03 2.500000000000e-03 3.730961600000e-03
    endloop
  endfacet
  facet normal 0.0 0.0 -1.0
    outer loop
      vertex 1.000000000000e-03 2.500000000000e-03 3.730961600000e-03
      vertex 1.500000000000e-03 3.000000000000e-03 3.730961600000e-03
      vertex 1.500000000000e-03 2.500000000000e-03 3.730961600000e-03
    endloop
  endfacet
  facet normal 0.0 0.0 -1.0
    outer loop
      vertex 1.000000000000e-03 2.500000000000e-03 3.730961600000e-03
      vertex 1.000000000000e-03 3.000000000000e-03 3.730961600000e-03
      vertex 1.500000000000e-03 3.000000000000e-03 3.730961600000e-03
    endloop
  endfacet
  facet normal 0.0 0.0 -1.0
    outer loop
      vertex 1.500000000000e-03 -3.000000000000e-03 3.730961600000e-03
      vertex 2.000000000000e-03 -2.500000000000e-03 3.730961600000e-03
      vertex 2.000000000000e-03 -3.000000000000e-03 3.730961600000e-03
    endloop
  endfacet
  facet normal 0.0 0.0 -1.0
    outer loop
      vertex 1.500000000000e-03 -3.000000000000e-03 3.730961600000e-03
      vertex 1.500000000000e-03 -2.500000000000e-03 3.730961600000e-03
      vertex 2.000000000000e-03 -2.500000000000e-03 3.730961600000e-03
    endloop
  endfacet
  facet normal 0.0 0.0 -1.0
    outer loop
      vertex 1.500000000000e-03 -2.500000000000e-03 3.730961600000e-03
      vertex 2.000000000000e-03 -2.000000000000e-03 3.730961600000e-03
      vertex 2.000000000000e-03 -2.500000000000e-03 3.730961600000e-03
    endloop
  endfacet
  facet normal 0.0 0.0 -1.0
    outer loop
      vertex 1.500000000000e-03 -2.500000000000e-03 3.730961600000e-03
      vertex 1.500000000000e-03 -2.000000000000e-03 3.730961600000e-03
      vertex 2.000000000000e-03 -2.000000000000e-03 3.730961600000e-03
    endloop
  endfacet
  facet normal 0.0 0.0 -1.0
    outer loop
      vertex 1.500000000000e-03 -2.000000000000e-03 3.730961600000e-03
      vertex 2.000000000000e-03 -1.500000000000e-03 3.730961600000e-03
      vertex 2.000000000000e-03 -2.000000000000e-03 3.730961600000e-03
    endloop
  endfacet
  facet normal 0.0 0.0 -1.0
    outer loop
      vertex 1.500000000000e-03 -2.000000000000e-03 3.730961600000e-03
      vertex 1.500000000000e-03 -1.500000000000e-03 3.730961600000e-03
      vertex 2.000000000000e-03 -1.500000000000e-03 3.730961600000e-03
    endloop
  endfacet
  facet normal 0.0 0.0 -1.0
    outer loop
      vertex 1.500000000000e-03 -1.500000000000e-03 3.730961600000e-03
      vertex 2.000000000000e-03 -1.000000000000e-03 3.730961600000e-03
      vertex 2.000000000000e-03 -1.500000000000e-03 3.730961600000e-03
    endloop
  endfacet
  facet normal 0.0 0.0 -1.0
    outer loop
      vertex 1.500000000000e-03 -1.500000000000e-03 3.730961600000e-03
      vertex 1.500000000000e-03 -1.000000000000e-03 3.730961600000e-03
      vertex 2.000000000000e-03 -1.000000000000e-03 3.730961600000e-03
    endloop
  endfacet
  facet normal 0.0 0.0 -1.0
    outer loop
      vertex 1.500000000000e-03 -1.000000000000e-03 3.730961600000e-03
      vertex 2.000000000000e-03 -5.000000000000e-04 3.730961600000e-03
      vertex 2.000000000000e-03 -1.000000000000e-03 3.730961600000e-03
    endloop
  endfacet
  facet normal 0.0 0.0 -1.0
    outer loop
      vertex 1.500000000000e-03 -1.000000000000e-03 3.730961600000e-03
      vertex 1.500000000000e-03 -5.000000000000e-04 3.730961600000e-03
      vertex 2.000000000000e-03 -5.000000000000e-04 3.730961600000e-03
    endloop
  endfacet
  facet normal 0.0 0.0 -1.0
    outer loop
      vertex 1.500000000000e-03 -5.000000000000e-04 3.730961600000e-03
      vertex 2.000000000000e-03 0.000000000000e+00 3.730961600000e-03
      vertex 2.000000000000e-03 -5.000000000000e-04 3.730961600000e-03
    endloop
  endfacet
  facet normal 0.0 0.0 -1.0
    outer loop
      vertex 1.500000000000e-03 -5.000000000000e-04 3.730961600000e-03
      vertex 1.500000000000e-03 0.000000000000e+00 3.730961600000e-03
      vertex 2.000000000000e-03 0.000000000000e+00 3.730961600000e-03
    endloop
  endfacet
  facet normal 0.0 0.0 -1.0
    outer loop
      vertex 1.500000000000e-03 0.000000000000e+00 3.730961600000e-03
      vertex 2.000000000000e-03 5.000000000000e-04 3.730961600000e-03
      vertex 2.000000000000e-03 0.000000000000e+00 3.730961600000e-03
    endloop
  endfacet
  facet normal 0.0 0.0 -1.0
    outer loop
      vertex 1.500000000000e-03 0.000000000000e+00 3.730961600000e-03
      vertex 1.500000000000e-03 5.000000000000e-04 3.730961600000e-03
      vertex 2.000000000000e-03 5.000000000000e-04 3.730961600000e-03
    endloop
  endfacet
  facet normal 0.0 0.0 -1.0
    outer loop
      vertex 1.500000000000e-03 5.000000000000e-04 3.730961600000e-03
      vertex 2.000000000000e-03 1.000000000000e-03 3.730961600000e-03
      vertex 2.000000000000e-03 5.000000000000e-04 3.730961600000e-03
    endloop
  endfacet
  facet normal 0.0 0.0 -1.0
    outer loop
      vertex 1.500000000000e-03 5.000000000000e-04 3.730961600000e-03
      vertex 1.500000000000e-03 1.000000000000e-03 3.730961600000e-03
      vertex 2.000000000000e-03 1.000000000000e-03 3.730961600000e-03
    endloop
  endfacet
  facet normal 0.0 0.0 -1.0
    outer loop
      vertex 1.500000000000e-03 1.000000000000e-03 3.730961600000e-03
      vertex 2.000000000000e-03 1.500000000000e-03 3.730961600000e-03
      vertex 2.000000000000e-03 1.000000000000e-03 3.730961600000e-03
    endloop
  endfacet
  facet normal 0.0 0.0 -1.0
    outer loop
      vertex 1.500000000000e-03 1.000000000000e-03 3.730961600000e-03
      vertex 1.500000000000e-03 1.500000000000e-03 3.730961600000e-03
      vertex 2.000000000000e-03 1.500000000000e-03 3.730961600000e-03
    endloop
  endfacet
  facet normal 0.0 0.0 -1.0
    outer loop
      vertex 1.500000000000e-03 1.500000000000e-03 3.730961600000e-03
      vertex 2.000000000000e-03 2.000000000000e-03 3.730961600000e-03
      vertex 2.000000000000e-03 1.500000000000e-03 3.730961600000e-03
    endloop
  endfacet
  facet normal 0.0 0.0 -1.0
    outer loop
      vertex 1.500000000000e-03 1.500000000000e-03 3.730961600000e-03
      vertex 1.500000000000e-03 2.000000000000e-03 3.730961600000e-03
      vertex 2.000000000000e-03 2.000000000000e-03 3.730961600000e-03
    endloop
  endfacet
  facet normal 0.0 0.0 -1.0
    outer loop
      vertex 1.500000000000e-03 2.000000000000e-03 3.730961600000e-03
      vertex 2.000000000000e-03 2.500000000000e-03 3.730961600000e-03
      vertex 2.000000000000e-03 2.000000000000e-03 3.730961600000e-03
    endloop
  endfacet
  facet normal 0.0 0.0 -1.0
    outer loop
      vertex 1.500000000000e-03 2.000000000000e-03 3.730961600000e-03
      vertex 1.500000000000e-03 2.500000000000e-03 3.730961600000e-03
      vertex 2.000000000000e-03 2.500000000000e-03 3.730961600000e-03
    endloop
  endfacet
  facet normal 0.0 0.0 -1.0
    outer loop
      vertex 1.500000000000e-03 2.500000000000e-03 3.730961600000e-03
      vertex 2.000000000000e-03 3.000000000000e-03 3.730961600000e-03
      vertex 2.000000000000e-03 2.500000000000e-03 3.730961600000e-03
    endloop
  endfacet
  facet normal 0.0 0.0 -1.0
    outer loop
      vertex 1.500000000000e-03 2.500000000000e-03 3.730961600000e-03
      vertex 1.500000000000e-03 3.000000000000e-03 3.730961600000e-03
      vertex 2.000000000000e-03 3.000000000000e-03 3.730961600000e-03
    endloop
  endfacet
  facet normal 0.0 0.0 -1.0
    outer loop
      vertex 2.000000000000e-03 -3.000000000000e-03 3.730961600000e-03
      vertex 2.500000000000e-03 -2.500000000000e-03 3.730961600000e-03
      vertex 2.500000000000e-03 -3.000000000000e-03 3.730961600000e-03
    endloop
  endfacet
  facet normal 0.0 0.0 -1.0
    outer loop
      vertex 2.000000000000e-03 -3.000000000000e-03 3.730961600000e-03
      vertex 2.000000000000e-03 -2.500000000000e-03 3.730961600000e-03
      vertex 2.500000000000e-03 -2.500000000000e-03 3.730961600000e-03
    endloop
  endfacet
  facet normal 0.0 0.0 -1.0
    outer loop
      vertex 2.000000000000e-03 -2.500000000000e-03 3.730961600000e-03
      vertex 2.500000000000e-03 -2.000000000000e-03 3.730961600000e-03
      vertex 2.500000000000e-03 -2.500000000000e-03 3.730961600000e-03
    endloop
  endfacet
  facet normal 0.0 0.0 -1.0
    outer loop
      vertex 2.000000000000e-03 -2.500000000000e-03 3.730961600000e-03
      vertex 2.000000000000e-03 -2.000000000000e-03 3.730961600000e-03
      vertex 2.500000000000e-03 -2.000000000000e-03 3.730961600000e-03
    endloop
  endfacet
  facet normal 0.0 0.0 -1.0
    outer loop
      vertex 2.000000000000e-03 -2.000000000000e-03 3.730961600000e-03
      vertex 2.500000000000e-03 -1.500000000000e-03 3.730961600000e-03
      vertex 2.500000000000e-03 -2.000000000000e-03 3.730961600000e-03
    endloop
  endfacet
  facet normal 0.0 0.0 -1.0
    outer loop
      vertex 2.000000000000e-03 -2.000000000000e-03 3.730961600000e-03
      vertex 2.000000000000e-03 -1.500000000000e-03 3.730961600000e-03
      vertex 2.500000000000e-03 -1.500000000000e-03 3.730961600000e-03
    endloop
  endfacet
  facet normal 0.0 0.0 -1.0
    outer loop
      vertex 2.000000000000e-03 -1.500000000000e-03 3.730961600000e-03
      vertex 2.500000000000e-03 -1.000000000000e-03 3.730961600000e-03
      vertex 2.500000000000e-03 -1.500000000000e-03 3.730961600000e-03
    endloop
  endfacet
  facet normal 0.0 0.0 -1.0
    outer loop
      vertex 2.000000000000e-03 -1.500000000000e-03 3.730961600000e-03
      vertex 2.000000000000e-03 -1.000000000000e-03 3.730961600000e-03
      vertex 2.500000000000e-03 -1.000000000000e-03 3.730961600000e-03
    endloop
  endfacet
  facet normal 0.0 0.0 -1.0
    outer loop
      vertex 2.000000000000e-03 -1.000000000000e-03 3.730961600000e-03
      vertex 2.500000000000e-03 -5.000000000000e-04 3.730961600000e-03
      vertex 2.500000000000e-03 -1.000000000000e-03 3.730961600000e-03
    endloop
  endfacet
  facet normal 0.0 0.0 -1.0
    outer loop
      vertex 2.000000000000e-03 -1.000000000000e-03 3.730961600000e-03
      vertex 2.000000000000e-03 -5.000000000000e-04 3.730961600000e-03
      vertex 2.500000000000e-03 -5.000000000000e-04 3.730961600000e-03
    endloop
  endfacet
  facet normal 0.0 0.0 -1.0
    outer loop
      vertex 2.000000000000e-03 -5.000000000000e-04 3.730961600000e-03
      vertex 2.500000000000e-03 0.000000000000e+00 3.730961600000e-03
      vertex 2.500000000000e-03 -5.000000000000e-04 3.730961600000e-03
    endloop
  endfacet
  facet normal 0.0 0.0 -1.0
    outer loop
      vertex 2.000000000000e-03 -5.000000000000e-04 3.730961600000e-03
      vertex 2.000000000000e-03 0.000000000000e+00 3.730961600000e-03
      vertex 2.500000000000e-03 0.000000000000e+00 3.730961600000e-03
    endloop
  endfacet
  facet normal 0.0 0.0 -1.0
    outer loop
      vertex 2.000000000000e-03 0.000000000000e+00 3.730961600000e-03
      vertex 2.500000000000e-03 5.000000000000e-04 3.730961600000e-03
      vertex 2.500000000000e-03 0.000000000000e+00 3.730961600000e-03
    endloop
  endfacet
  facet normal 0.0 0.0 -1.0
    outer loop
      vertex 2.000000000000e-03 0.000000000000e+00 3.730961600000e-03
      vertex 2.000000000000e-03 5.000000000000e-04 3.730961600000e-03
      vertex 2.500000000000e-03 5.000000000000e-04 3.730961600000e-03
    endloop
  endfacet
  facet normal 0.0 0.0 -1.0
    outer loop
      vertex 2.000000000000e-03 5.000000000000e-04 3.730961600000e-03
      vertex 2.500000000000e-03 1.000000000000e-03 3.730961600000e-03
      vertex 2.500000000000e-03 5.000000000000e-04 3.730961600000e-03
    endloop
  endfacet
  facet normal 0.0 0.0 -1.0
    outer loop
      vertex 2.000000000000e-03 5.000000000000e-04 3.730961600000e-03
      vertex 2.000000000000e-03 1.000000000000e-03 3.730961600000e-03
      vertex 2.500000000000e-03 1.000000000000e-03 3.730961600000e-03
    endloop
  endfacet
  facet normal 0.0 0.0 -1.0
    outer loop
      vertex 2.000000000000e-03 1.000000000000e-03 3.730961600000e-03
      vertex 2.500000000000e-03 1.500000000000e-03 3.730961600000e-03
      vertex 2.500000000000e-03 1.000000000000e-03 3.730961600000e-03
    endloop
  endfacet
  facet normal 0.0 0.0 -1.0
    outer loop
      vertex 2.000000000000e-03 1.000000000000e-03 3.730961600000e-03
      vertex 2.000000000000e-03 1.500000000000e-03 3.730961600000e-03
      vertex 2.500000000000e-03 1.500000000000e-03 3.730961600000e-03
    endloop
  endfacet
  facet normal 0.0 0.0 -1.0
    outer loop
      vertex 2.000000000000e-03 1.500000000000e-03 3.730961600000e-03
      vertex 2.500000000000e-03 2.000000000000e-03 3.730961600000e-03
      vertex 2.500000000000e-03 1.500000000000e-03 3.730961600000e-03
    endloop
  endfacet
  facet normal 0.0 0.0 -1.0
    outer loop
      vertex 2.000000000000e-03 1.500000000000e-03 3.730961600000e-03
      vertex 2.000000000000e-03 2.000000000000e-03 3.730961600000e-03
      vertex 2.500000000000e-03 2.000000000000e-03 3.730961600000e-03
    endloop
  endfacet
  facet normal 0.0 0.0 -1.0
    outer loop
      vertex 2.000000000000e-03 2.000000000000e-03 3.730961600000e-03
      vertex 2.500000000000e-03 2.500000000000e-03 3.730961600000e-03
      vertex 2.500000000000e-03 2.000000000000e-03 3.730961600000e-03
    endloop
  endfacet
  facet normal 0.0 0.0 -1.0
    outer loop
      vertex 2.000000000000e-03 2.000000000000e-03 3.730961600000e-03
      vertex 2.000000000000e-03 2.500000000000e-03 3.730961600000e-03
      vertex 2.500000000000e-03 2.500000000000e-03 3.730961600000e-03
    endloop
  endfacet
  facet normal 0.0 0.0 -1.0
    outer loop
      vertex 2.000000000000e-03 2.500000000000e-03 3.730961600000e-03
      vertex 2.500000000000e-03 3.000000000000e-03 3.730961600000e-03
      vertex 2.500000000000e-03 2.500000000000e-03 3.730961600000e-03
    endloop
  endfacet
  facet normal 0.0 0.0 -1.0
    outer loop
      vertex 2.000000000000e-03 2.500000000000e-03 3.730961600000e-03
      vertex 2.000000000000e-03 3.000000000000e-03 3.730961600000e-03
      vertex 2.500000000000e-03 3.000000000000e-03 3.730961600000e-03
    endloop
  endfacet
  facet normal 0.0 0.0 -1.0
    outer loop
      vertex 2.500000000000e-03 -3.000000000000e-03 3.730961600000e-03
      vertex 3.000000000000e-03 -2.500000000000e-03 3.730961600000e-03
      vertex 3.000000000000e-03 -3.000000000000e-03 3.730961600000e-03
    endloop
  endfacet
  facet normal 0.0 0.0 -1.0
    outer loop
      vertex 2.500000000000e-03 -3.000000000000e-03 3.730961600000e-03
      vertex 2.500000000000e-03 -2.500000000000e-03 3.730961600000e-03
      vertex 3.000000000000e-03 -2.500000000000e-03 3.730961600000e-03
    endloop
  endfacet
  facet normal 0.0 0.0 -1.0
    outer loop
      vertex 2.500000000000e-03 -2.500000000000e-03 3.730961600000e-03
      vertex 3.000000000000e-03 -2.000000000000e-03 3.730961600000e-03
      vertex 3.000000000000e-03 -2.500000000000e-03 3.730961600000e-03
    endloop
  endfacet
  facet normal 0.0 0.0 -1.0
    outer loop
      vertex 2.500000000000e-03 -2.500000000000e-03 3.730961600000e-03
      vertex 2.500000000000e-03 -2.000000000000e-03 3.730961600000e-03
      vertex 3.000000000000e-03 -2.000000000000e-03 3.730961600000e-03
    endloop
  endfacet
  facet normal 0.0 0.0 -1.0
    outer loop
      vertex 2.500000000000e-03 -2.000000000000e-03 3.730961600000e-03
      vertex 3.000000000000e-03 -1.500000000000e-03 3.730961600000e-03
      vertex 3.000000000000e-03 -2.000000000000e-03 3.730961600000e-03
    endloop
  endfacet
  facet normal 0.0 0.0 -1.0
    outer loop
      vertex 2.500000000000e-03 -2.000000000000e-03 3.730961600000e-03
      vertex 2.500000000000e-03 -1.500000000000e-03 3.730961600000e-03
      vertex 3.000000000000e-03 -1.500000000000e-03 3.730961600000e-03
    endloop
  endfacet
  facet normal 0.0 0.0 -1.0
    outer loop
      vertex 2.500000000000e-03 -1.500000000000e-03 3.730961600000e-03
      vertex 3.000000000000e-03 -1.000000000000e-03 3.730961600000e-03
      vertex 3.000000000000e-03 -1.500000000000e-03 3.730961600000e-03
    endloop
  endfacet
  facet normal 0.0 0.0 -1.0
    outer loop
      vertex 2.500000000000e-03 -1.500000000000e-03 3.730961600000e-03
      vertex 2.500000000000e-03 -1.000000000000e-03 3.730961600000e-03
      vertex 3.000000000000e-03 -1.000000000000e-03 3.730961600000e-03
    endloop
  endfacet
  facet normal 0.0 0.0 -1.0
    outer loop
      vertex 2.500000000000e-03 -1.000000000000e-03 3.730961600000e-03
      vertex 3.000000000000e-03 -5.000000000000e-04 3.730961600000e-03
      vertex 3.000000000000e-03 -1.000000000000e-03 3.730961600000e-03
    endloop
  endfacet
  facet normal 0.0 0.0 -1.0
    outer loop
      vertex 2.500000000000e-03 -1.000000000000e-03 3.730961600000e-03
      vertex 2.500000000000e-03 -5.000000000000e-04 3.730961600000e-03
      vertex 3.000000000000e-03 -5.000000000000e-04 3.730961600000e-03
    endloop
  endfacet
  facet normal 0.0 0.0 -1.0
    outer loop
      vertex 2.500000000000e-03 -5.000000000000e-04 3.730961600000e-03
      vertex 3.000000000000e-03 0.000000000000e+00 3.730961600000e-03
      vertex 3.000000000000e-03 -5.000000000000e-04 3.730961600000e-03
    endloop
  endfacet
  facet normal 0.0 0.0 -1.0
    outer loop
      vertex 2.500000000000e-03 -5.000000000000e-04 3.730961600000e-03
      vertex 2.500000000000e-03 0.000000000000e+00 3.730961600000e-03
      vertex 3.000000000000e-03 0.000000000000e+00 3.730961600000e-03
    endloop
  endfacet
  facet normal 0.0 0.0 -1.0
    outer loop
      vertex 2.500000000000e-03 0.000000000000e+00 3.730961600000e-03
      vertex 3.000000000000e-03 5.000000000000e-04 3.730961600000e-03
      vertex 3.000000000000e-03 0.000000000000e+00 3.730961600000e-03
    endloop
  endfacet
  facet normal 0.0 0.0 -1.0
    outer loop
      vertex 2.500000000000e-03 0.000000000000e+00 3.730961600000e-03
      vertex 2.500000000000e-03 5.000000000000e-04 3.730961600000e-03
      vertex 3.000000000000e-03 5.000000000000e-04 3.730961600000e-03
    endloop
  endfacet
  facet normal 0.0 0.0 -1.0
    outer loop
      vertex 2.500000000000e-03 5.000000000000e-04 3.730961600000e-03
      vertex 3.000000000000e-03 1.000000000000e-03 3.730961600000e-03
      vertex 3.000000000000e-03 5.000000000000e-04 3.730961600000e-03
    endloop
  endfacet
  facet normal 0.0 0.0 -1.0
    outer loop
      vertex 2.500000000000e-03 5.000000000000e-04 3.730961600000e-03
      vertex 2.500000000000e-03 1.000000000000e-03 3.730961600000e-03
      vertex 3.000000000000e-03 1.000000000000e-03 3.730961600000e-03
    endloop
  endfacet
  facet normal 0.0 0.0 -1.0
    outer loop
      vertex 2.500000000000e-03 1.000000000000e-03 3.730961600000e-03
      vertex 3.000000000000e-03 1.500000000000e-03 3.730961600000e-03
      vertex 3.000000000000e-03 1.000000000000e-03 3.730961600000e-03
    endloop
  endfacet
  facet normal 0.0 0.0 -1.0
    outer loop
      vertex 2.500000000000e-03 1.000000000000e-03 3.730961600000e-03
      vertex 2.500000000000e-03 1.500000000000e-03 3.730961600000e-03
      vertex 3.000000000000e-03 1.500000000000e-03 3.730961600000e-03
    endloop
  endfacet
  facet normal 0.0 0.0 -1.0
    outer loop
      vertex 2.500000000000e-03 1.500000000000e-03 3.730961600000e-03
      vertex 3.000000000000e-03 2.000000000000e-03 3.730961600000e-03
      vertex 3.000000000000e-03 1.500000000000e-03 3.730961600000e-03
    endloop
  endfacet
  facet normal 0.0 0.0 -1.0
    outer loop
      vertex 2.500000000000e-03 1.500000000000e-03 3.730961600000e-03
      vertex 2.500000000000e-03 2.000000000000e-03 3.730961600000e-03
      vertex 3.000000000000e-03 2.000000000000e-03 3.730961600000e-03
    endloop
  endfacet
  facet normal 0.0 0.0 -1.0
    outer loop
      vertex 2.500000000000e-03 2.000000000000e-03 3.730961600000e-03
      vertex 3.000000000000e-03 2.500000000000e-03 3.730961600000e-03
      vertex 3.000000000000e-03 2.000000000000e-03 3.730961600000e-03
    endloop
  endfacet
  facet normal 0.0 0.0 -1.0
    outer loop
      vertex 2.500000000000e-03 2.000000000000e-03 3.730961600000e-03
      vertex 2.500000000000e-03 2.500000000000e-03 3.730961600000e-03
      vertex 3.000000000000e-03 2.500000000000e-03 3.730961600000e-03
    endloop
  endfacet
  facet normal 0.0 0.0 -1.0
    outer loop
      vertex 2.500000000000e-03 2.500000000000e-03 3.730961600000e-03
      vertex 3.000000000000e-03 3.000000000000e-03 3.730961600000e-03
      vertex 3.000000000000e-03 2.500000000000e-03 3.730961600000e-03
    endloop
  endfacet
  facet normal 0.0 0.0 -1.0
    outer loop
      vertex 2.500000000000e-03 2.500000000000e-03 3.730961600000e-03
      vertex 2.500000000000e-03 3.000000000000e-03 3.730961600000e-03
      vertex 3.000000000000e-03 3.000000000000e-03 3.730961600000e-03
    endloop
  endfacet
endsolid wall
