solid wall
  facet normal 1.0 0.0 0.0
    outer loop
      vertex -3.000000000000e-03 -3.000000000000e-03 0.000000000000e+00
      vertex -3.000000000000e-03 -2.500000000000e-03 0.000000000000e+00
      vertex -3.000000000000e-03 -2.500000000000e-03 2.889418000000e-04
    endloop
  endfacet
  facet normal 1.0 0.0 0.0
    outer loop
      vertex -3.000000000000e-03 -3.000000000000e-03 0.000000000000e+00
      vertex -3.000000000000e-03 -2.500000000000e-03 2.889418000000e-04
      vertex -3.000000000000e-03 -3.000000000000e-03 2.889418000000e-04
    endloop
  endfacet
  facet normal 1.0 0.0 0.0
    outer loop
      vertex -3.000000000000e-03 -3.000000000000e-03 2.889418000000e-04
      vertex -3.000000000000e-03 -2.500000000000e-03 2.889418000000e-04
      vertex -3.000000000000e-03 -2.500000000000e-03 5.778836000000e-04
    endloop
  endfacet
  facet normal 1.0 0.0 0.0
    outer loop
      vertex -3.000000000000e-03 -3.000000000000e-03 2.889418000000e-04
      vertex -3.000000000000e-03 -2.500000000000e-03 5.778836000000e-04
      vertex -3.000000000000e-03 -3.000000000000e-03 5.778836000000e-04
    endloop
  endfacet
  facet normal 1.0 0.0 0.0
    outer loop
      vertex -3.000000000000e-03 -3.000000000000e-03 5.778836000000e-04
      vertex -3.000000000000e-03 -2.500000000000e-03 5.778836000000e-04
      vertex -3.000000000000e-03 -2.500000000000e-03 8.668254000000e-04
    endloop
  endfacet
  facet normal 1.0 0.0 0.0
    outer loop
      vertex -3.000000000000e-03 -3.000000000000e-03 5.778836000000e-04
      vertex -3.000000000000e-03 -2.500000000000e-03 8.668254000000e-04
      vertex -3.000000000000e-03 -3.000000000000e-03 8.668254000000e-04
    endloop
  endfacet
  facet normal 1.0 0.0 0.0
    outer loop
      vertex -3.000000000000e-03 -3.000000000000e-03 8.668254000000e-04
      vertex -3.000000000000e-03 -2.500000000000e-03 8.668254000000e-04
      vertex -3.000000000000e-03 -2.500000000000e-03 1.155767200000e-03
    endloop
  endfacet
  facet normal 1.0 0.0 0.0
    outer loop
      vertex -3.000000000000e-03 -3.000000000000e-03 8.668254000000e-04
      vertex -3.000000000000e-03 -2.500000000000e-03 1.155767200000e-03
      vertex -3.000000000000e-03 -3.000000000000e-03 1.155767200000e-03
    endloop
  endfacet
  facet normal 1.0 0.0 0.0
    outer loop
      vertex -3.000000000000e-03 -3.000000000000e-03 1.155767200000e-03
      vertex -3.000000000000e-03 -2.500000000000e-03 1.155767200000e-03
      vertex -3.000000000000e-03 -2.500000000000e-03 1.444709000000e-03
    endloop
  endfacet
  facet normal 1.0 0.0 0.0
    outer loop
      vertex -3.000000000000e-03 -3.000000000000e-03 1.155767200000e-03
      vertex -3.000000000000e-03 -2.500000000000e-03 1.444709000000e-03
      vertex -3.000000000000e-03 -3.000000000000e-03 1.444709000000e-03
    endloop
  endfacet
  facet normal 1.0 0.0 0.0
    outer loop
      vertex -3.000000000000e-03 -3.000000000000e-03 1.444709000000e-03
      vertex -3.000000000000e-03 -2.500000000000e-03 1.444709000000e-03
      vertex -3.000000000000e-03 -2.500000000000e-03 1.733650800000e-03
    endloop
  endfacet
  facet normal 1.0 0.0 0.0
    outer loop
      vertex -3.000000000000e-03 -3.000000000000e-03 1.444709000000e-03
      vertex -3.000000000000e-03 -2.500000000000e-03 1.733650800000e-03
      vertex -3.000000000000e-03 -3.000000000000e-03 1.733650800000e-03
    endloop
  endfacet
  facet normal 1.0 0.0 0.0
    outer loop
      vertex -3.000000000000e-03 -3.000000000000e-03 1.733650800000e-03
      vertex -3.000000000000e-03 -2.500000000000e-03 1.733650800000e-03
      vertex -3.000000000000e-03 -2.500000000000e-03 2.022592600000e-03
    endloop
  endfacet
  facet normal 1.0 0.0 0.0
    outer loop
      vertex -3.000000000000e-03 -3.000000000000e-03 1.733650800000e-03
      vertex -3.000000000000e-03 -2.500000000000e-03 2.022592600000e-03
      vertex -3.000000000000e-03 -3.000000000000e-03 2.022592600000e-03
    endloop
  endfacet
  facet normal 1.0 0.0 0.0
    outer loop
      vertex -3.000000000000e-03 -3.000000000000e-03 2.022592600000e-03
      vertex -3.000000000000e-03 -2.500000000000e-03 2.022592600000e-03
      vertex -3.000000000000e-03 -2.500000000000e-03 2.311534400000e-03
    endloop
  endfacet
  facet normal 1.0 0.0 0.0
    outer loop
      vertex -3.000000000000e-03 -3.000000000000e-03 2.022592600000e-03
      vertex -3.000000000000e-03 -2.500000000000e-03 2.311534400000e-03
      vertex -3.000000000000e-03 -3.000000000000e-03 2.311534400000e-03
    endloop
  endfacet
  facet normal 1.0 0.0 0.0
    outer loop
      vertex -3.000000000000e-03 -3.000000000000e-03 2.311534400000e-03
      vertex -3.000000000000e-03 -2.500000000000e-03 2.311534400000e-03
      vertex -3.000000000000e-03 -2.500000000000e-03 2.600476200000e-03
    endloop
  endfacet
  facet normal 1.0 0.0 0.0
    outer loop
      vertex -3.000000000000e-03 -3.000000000000e-03 2.311534400000e-03
      vertex -3.000000000000e-03 -2.500000000000e-03 2.600476200000e-03
      vertex -3.000000000000e-03 -3.000000000000e-03 2.600476200000e-03
    endloop
  endfacet
  facet normal 1.0 0.0 0.0
    outer loop
      vertex -3.000000000000e-03 -3.000000000000e-03 2.600476200000e-03
      vertex -3.000000000000e-03 -2.500000000000e-03 2.600476200000e-03
      vertex -3.000000000000e-03 -2.500000000000e-03 2.889418000000e-03
    endloop
  endfacet
  facet normal 1.0 0.0 0.0
    outer loop
      vertex -3.000000000000e-03 -3.000000000000e-03 2.600476200000e-03
      vertex -3.000000000000e-03 -2.500000000000e-03 2.889418000000e-03
      vertex -3.000000000000e-03 -3.000000000000e-03 2.889418000000e-03
    endloop
  endfacet
  facet normal 1.0 0.0 0.0
    outer loop
      vertex -3.000000000000e-03 -3.000000000000e-03 2.889418000000e-03
      vertex -3.000000000000e-03 -2.500000000000e-03 2.889418000000e-03
      vertex -3.000000000000e-03 -2.500000000000e-03 3.178359800000e-03
    endloop
  endfacet
  facet normal 1.0 0.0 0.0
    outer loop
      vertex -3.000000000000e-03 -3.000000000000e-03 2.889418000000e-03
      vertex -3.000000000000e-03 -2.500000000000e-03 3.178359800000e-03
      vertex -3.000000000000e-03 -3.000000000000e-03 3.178359800000e-03
    endloop
  endfacet
  facet normal 1.0 0.0 0.0
    outer loop
      vertex -3.000000000000e-03 -3.000000000000e-03 3.178359800000e-03
      vertex -3.000000000000e-03 -2.500000000000e-03 3.178359800000e-03
      vertex -3.000000000000e-03 -2.500000000000e-03 3.467301600000e-03
    endloop
  endfacet
  facet normal 1.0 0.0 0.0
    outer loop
      vertex -3.000000000000e-03 -3.000000000000e-03 3.178359800000e-03
      vertex -3.000000000000e-03 -2.500000000000e-03 3.467301600000e-03
      vertex -3.000000000000e-03 -3.000000000000e-03 3.467301600000e-03
    endloop
  endfacet
  facet normal 1.0 0.0 0.0
    outer loop
      vertex -3.000000000000e-03 -2.500000000000e-03 0.000000000000e+00
      vertex -3.000000000000e-03 -2.000000000000e-03 0.000000000000e+00
      vertex -3.000000000000e-03 -2.000000000000e-03 2.889418000000e-04
    endloop
  endfacet
  facet normal 1.0 0.0 0.0
    outer loop
      vertex -3.000000000000e-03 -2.500000000000e-03 0.000000000000e+00
      vertex -3.000000000000e-03 -2.000000000000e-03 2.889418000000e-04
      vertex -3.000000000000e-03 -2.500000000000e-03 2.889418000000e-04
    endloop
  endfacet
  facet normal 1.0 0.0 0.0
    outer loop
      vertex -3.000000000000e-03 -2.500000000000e-03 2.889418000000e-04
      vertex -3.000000000000e-03 -2.000000000000e-03 2.889418000000e-04
      vertex -3.000000000000e-03 -2.000000000000e-03 5.778836000000e-04
    endloop
  endfacet
  facet normal 1.0 0.0 0.0
    outer loop
      vertex -3.000000000000e-03 -2.500000000000e-03 2.889418000000e-04
      vertex -3.000000000000e-03 -2.000000000000e-03 5.778836000000e-04
      vertex -3.000000000000e-03 -2.500000000000e-03 5.778836000000e-04
    endloop
  endfacet
  facet normal 1.0 0.0 0.0
    outer loop
      vertex -3.000000000000e-03 -2.500000000000e-03 5.778836000000e-04
      vertex -3.000000000000e-03 -2.000000000000e-03 5.778836000000e-04
      vertex -3.000000000000e-03 -2.000000000000e-03 8.668254000000e-04
    endloop
  endfacet
  facet normal 1.0 0.0 0.0
    outer loop
      vertex -3.000000000000e-03 -2.500000000000e-03 5.778836000000e-04
      vertex -3.000000000000e-03 -2.000000000000e-03 8.668254000000e-04
      vertex -3.000000000000e-03 -2.500000000000e-03 8.668254000000e-04
    endloop
  endfacet
  facet normal 1.0 0.0 0.0
    outer loop
      vertex -3.000000000000e-03 -2.500000000000e-03 8.668254000000e-04
      vertex -3.000000000000e-03 -2.000000000000e-03 8.668254000000e-04
      vertex -3.000000000000e-03 -2.000000000000e-03 1.155767200000e-03
    endloop
  endfacet
  facet normal 1.0 0.0 0.0
    outer loop
      vertex -3.000000000000e-03 -2.500000000000e-03 8.668254000000e-04
      vertex -3.000000000000e-03 -2.000000000000e-03 1.155767200000e-03
      vertex -3.000000000000e-03 -2.500000000000e-03 1.155767200000e-03
    endloop
  endfacet
  facet normal 1.0 0.0 0.0
    outer loop
      vertex -3.000000000000e-03 -2.500000000000e-03 1.155767200000e-03
      vertex -3.000000000000e-03 -2.000000000000e-03 1.155767200000e-03
      vertex -3.000000000000e-03 -2.000000000000e-03 1.444709000000e-03
    endloop
  endfacet
  facet normal 1.0 0.0 0.0
    outer loop
      vertex -3.000000000000e-03 -2.500000000000e-03 1.155767200000e-03
      vertex -3.000000000000e-03 -2.000000000000e-03 1.444709000000e-03
      vertex -3.000000000000e-03 -2.500000000000e-03 1.444709000000e-03
    endloop
  endfacet
  facet normal 1.0 0.0 0.0
    outer loop
      vertex -3.000000000000e-03 -2.500000000000e-03 1.444709000000e-03
      vertex -3.000000000000e-03 -2.000000000000e-03 1.444709000000e-03
      vertex -3.000000000000e-03 -2.000000000000e-03 1.733650800000e-03
    endloop
  endfacet
  facet normal 1.0 0.0 0.0
    outer loop
      vertex -3.000000000000e-03 -2.500000000000e-03 1.444709000000e-03
      vertex -3.000000000000e-03 -2.000000000000e-03 1.733650800000e-03
      vertex -3.000000000000e-03 -2.500000000000e-03 1.733650800000e-03
    endloop
  endfacet
  facet normal 1.0 0.0 0.0
    outer loop
      vertex -3.000000000000e-03 -2.500000000000e-03 1.733650800000e-03
      vertex -3.000000000000e-03 -2.000000000000e-03 1.733650800000e-03
      vertex -3.000000000000e-03 -2.000000000000e-03 2.022592600000e-03
    endloop
  endfacet
  facet normal 1.0 0.0 0.0
    outer loop
      vertex -3.000000000000e-03 -2.500000000000e-03 1.733650800000e-03
      vertex -3.000000000000e-03 -2.000000000000e-03 2.022592600000e-03
      vertex -3.000000000000e-03 -2.500000000000e-03 2.022592600000e-03
    endloop
  endfacet
  facet normal 1.0 0.0 0.0
    outer loop
      vertex -3.000000000000e-03 -2.500000000000e-03 2.022592600000e-03
      vertex -3.000000000000e-03 -2.000000000000e-03 2.022592600000e-03
      vertex -3.000000000000e-03 -2.000000000000e-03 2.311534400000e-03
    endloop
  endfacet
  facet normal 1.0 0.0 0.0
    outer loop
      vertex -3.000000000000e-03 -2.500000000000e-03 2.022592600000e-03
      vertex -3.000000000000e-03 -2.000000000000e-03 2.311534400000e-03
      vertex -3.000000000000e-03 -2.500000000000e-03 2.311534400000e-03
    endloop
  endfacet
  facet normal 1.0 0.0 0.0
    outer loop
      vertex -3.000000000000e-03 -2.500000000000e-03 2.311534400000e-03
      vertex -3.000000000000e-03 -2.000000000000e-03 2.311534400000e-03
      vertex -3.000000000000e-03 -2.000000000000e-03 2.600476200000e-03
    endloop
  endfacet
  facet normal 1.0 0.0 0.0
    outer loop
      vertex -3.000000000000e-03 -2.500000000000e-03 2.311534400000e-03
      vertex -3.000000000000e-03 -2.000000000000e-03 2.600476200000e-03
      vertex -3.000000000000e-03 -2.500000000000e-03 2.600476200000e-03
    endloop
  endfacet
  facet normal 1.0 0.0 0.0
    outer loop
      vertex -3.000000000000e-03 -2.500000000000e-03 2.600476200000e-03
      vertex -3.000000000000e-03 -2.000000000000e-03 2.600476200000e-03
      vertex -3.000000000000e-03 -2.000000000000e-03 2.889418000000e-03
    endloop
  endfacet
  facet normal 1.0 0.0 0.0
    outer loop
      vertex -3.000000000000e-03 -2.500000000000e-03 2.600476200000e-03
      vertex -3.000000000000e-03 -2.000000000000e-03 2.889418000000e-03
      vertex -3.000000000000e-03 -2.500000000000e-03 2.889418000000e-03
    endloop
  endfacet
  facet normal 1.0 0.0 0.0
    outer loop
      vertex -3.000000000000e-03 -2.500000000000e-03 2.889418000000e-03
      vertex -3.000000000000e-03 -2.000000000000e-03 2.889418000000e-03
      vertex -3.000000000000e-03 -2.000000000000e-03 3.178359800000e-03
    endloop
  endfacet
  facet normal 1.0 0.0 0.0
    outer loop
      vertex -3.000000000000e-03 -2.500000000000e-03 2.889418000000e-03
      vertex -3.000000000000e-03 -2.000000000000e-03 3.178359800000e-03
      vertex -3.000000000000e-03 -2.500000000000e-03 3.178359800000e-03
    endloop
  endfacet
  facet normal 1.0 0.0 0.0
    outer loop
      vertex -3.000000000000e-03 -2.500000000000e-03 3.178359800000e-03
      vertex -3.000000000000e-03 -2.000000000000e-03 3.178359800000e-03
      vertex -3.000000000000e-03 -2.000000000000e-03 3.467301600000e-03
    endloop
  endfacet
  facet normal 1.0 0.0 0.0
    outer loop
      vertex -3.000000000000e-03 -2.500000000000e-03 3.178359800000e-03
      vertex -3.000000000000e-03 -2.000000000000e-03 3.467301600000e-03
      vertex -3.000000000000e-03 -2.500000000000e-03 3.467301600000e-03
    endloop
  endfacet
  facet normal 1.0 0.0 0.0
    outer loop
      vertex -3.000000000000e-03 -2.000000000000e-03 0.000000000000e+00
      vertex -3.000000000000e-03 -1.500000000000e-03 0.000000000000e+00
      vertex -3.000000000000e-03 -1.500000000000e-03 2.889418000000e-04
    endloop
  endfacet
  facet normal 1.0 0.0 0.0
    outer loop
      vertex -3.000000000000e-03 -2.000000000000e-03 0.000000000000e+00
      vertex -3.000000000000e-03 -1.500000000000e-03 2.889418000000e-04
      vertex -3.000000000000e-03 -2.000000000000e-03 2.889418000000e-04
    endloop
  endfacet
  facet normal 1.0 0.0 0.0
    outer loop
      vertex -3.000000000000e-03 -2.000000000000e-03 2.889418000000e-04
      vertex -3.000000000000e-03 -1.500000000000e-03 2.889418000000e-04
      vertex -3.000000000000e-03 -1.500000000000e-03 5.778836000000e-04
    endloop
  endfacet
  facet normal 1.0 0.0 0.0
    outer loop
      vertex -3.000000000000e-03 -2.000000000000e-03 2.889418000000e-04
      vertex -3.000000000000e-03 -1.500000000000e-03 5.778836000000e-04
      vertex -3.000000000000e-03 -2.000000000000e-03 5.778836000000e-04
    endloop
  endfacet
  facet normal 1.0 0.0 0.0
    outer loop
      vertex -3.000000000000e-03 -2.000000000000e-03 5.778836000000e-04
      vertex -3.000000000000e-03 -1.500000000000e-03 5.778836000000e-04
      vertex -3.000000000000e-03 -1.500000000000e-03 8.668254000000e-04
    endloop
  endfacet
  facet normal 1.0 0.0 0.0
    outer loop
      vertex -3.000000000000e-03 -2.000000000000e-03 5.778836000000e-04
      vertex -3.000000000000e-03 -1.500000000000e-03 8.668254000000e-04
      vertex -3.000000000000e-03 -2.000000000000e-03 8.668254000000e-04
    endloop
  endfacet
  facet normal 1.0 0.0 0.0
    outer loop
      vertex -3.000000000000e-03 -2.000000000000e-03 8.668254000000e-04
      vertex -3.000000000000e-03 -1.500000000000e-03 8.668254000000e-04
      vertex -3.000000000000e-03 -1.500000000000e-03 1.155767200000e-03
    endloop
  endfacet
  facet normal 1.0 0.0 0.0
    outer loop
      vertex -3.000000000000e-03 -2.000000000000e-03 8.668254000000e-04
      vertex -3.000000000000e-03 -1.500000000000e-03 1.155767200000e-03
      vertex -3.000000000000e-03 -2.000000000000e-03 1.155767200000e-03
    endloop
  endfacet
  facet normal 1.0 0.0 0.0
    outer loop
      vertex -3.000000000000e-03 -2.000000000000e-03 1.155767200000e-03
      vertex -3.000000000000e-03 -1.500000000000e-03 1.155767200000e-03
      vertex -3.000000000000e-03 -1.500000000000e-03 1.444709000000e-03
    endloop
  endfacet
  facet normal 1.0 0.0 0.0
    outer loop
      vertex -3.000000000000e-03 -2.000000000000e-03 1.155767200000e-03
      vertex -3.000000000000e-03 -1.500000000000e-03 1.444709000000e-03
      vertex -3.000000000000e-03 -2.000000000000e-03 1.444709000000e-03
    endloop
  endfacet
  facet normal 1.0 0.0 0.0
    outer loop
      vertex -3.000000000000e-03 -2.000000000000e-03 1.444709000000e-03
      vertex -3.000000000000e-03 -1.500000000000e-03 1.444709000000e-03
      vertex -3.000000000000e-03 -1.500000000000e-03 1.733650800000e-03
    endloop
  endfacet
  facet normal 1.0 0.0 0.0
    outer loop
      vertex -3.000000000000e-03 -2.000000000000e-03 1.444709000000e-03
      vertex -3.000000000000e-03 -1.500000000000e-03 1.733650800000e-03
      vertex -3.000000000000e-03 -2.000000000000e-03 1.733650800000e-03
    endloop
  endfacet
  facet normal 1.0 0.0 0.0
    outer loop
      vertex -3.000000000000e-03 -2.000000000000e-03 1.733650800000e-03
      vertex -3.000000000000e-03 -1.500000000000e-03 1.733650800000e-03
      vertex -3.000000000000e-03 -1.500000000000e-03 2.022592600000e-03
    endloop
  endfacet
  facet normal 1.0 0.0 0.0
    outer loop
      vertex -3.000000000000e-03 -2.000000000000e-03 1.733650800000e-03
      vertex -3.000000000000e-03 -1.500000000000e-03 2.022592600000e-03
      vertex -3.000000000000e-03 -2.000000000000e-03 2.022592600000e-03
    endloop
  endfacet
  facet normal 1.0 0.0 0.0
    outer loop
      vertex -3.000000000000e-03 -2.000000000000e-03 2.022592600000e-03
      vertex -3.000000000000e-03 -1.500000000000e-03 2.022592600000e-03
      vertex -3.000000000000e-03 -1.500000000000e-03 2.311534400000e-03
    endloop
  endfacet
  facet normal 1.0 0.0 0.0
    outer loop
      vertex -3.000000000000e-03 -2.000000000000e-03 2.022592600000e-03
      vertex -3.000000000000e-03 -1.500000000000e-03 2.311534400000e-03
      vertex -3.000000000000e-03 -2.000000000000e-03 2.311534400000e-03
    endloop
  endfacet
  facet normal 1.0 0.0 0.0
    outer loop
      vertex -3.000000000000e-03 -2.000000000000e-03 2.311534400000e-03
      vertex -3.000000000000e-03 -1.500000000000e-03 2.311534400000e-03
      vertex -3.000000000000e-03 -1.500000000000e-03 2.600476200000e-03
    endloop
  endfacet
  facet normal 1.0 0.0 0.0
    outer loop
      vertex -3.000000000000e-03 -2.000000000000e-03 2.311534400000e-03
      vertex -3.000000000000e-03 -1.500000000000e-03 2.600476200000e-03
      vertex -3.000000000000e-03 -2.000000000000e-03 2.600476200000e-03
    endloop
  endfacet
  facet normal 1.0 0.0 0.0
    outer loop
      vertex -3.000000000000e-03 -2.000000000000e-03 2.600476200000e-03
      vertex -3.000000000000e-03 -1.500000000000e-03 2.600476200000e-03
      vertex -3.000000000000e-03 -1.500000000000e-03 2.889418000000e-03
    endloop
  endfacet
  facet normal 1.0 0.0 0.0
    outer loop
      vertex -3.000000000000e-03 -2.000000000000e-03 2.600476200000e-03
      vertex -3.000000000000e-03 -1.500000000000e-03 2.889418000000e-03
      vertex -3.000000000000e-03 -2.000000000000e-03 2.889418000000e-03
    endloop
  endfacet
  facet normal 1.0 0.0 0.0
    outer loop
      vertex -3.000000000000e-03 -2.000000000000e-03 2.889418000000e-03
      vertex -3.000000000000e-03 -1.500000000000e-03 2.889418000000e-03
      vertex -3.000000000000e-03 -1.500000000000e-03 3.178359800000e-03
    endloop
  endfacet
  facet normal 1.0 0.0 0.0
    outer loop
      vertex -3.000000000000e-03 -2.000000000000e-03 2.889418000000e-03
      vertex -3.000000000000e-03 -1.500000000000e-03 3.178359800000e-03
      vertex -3.000000000000e-03 -2.000000000000e-03 3.178359800000e-03
    endloop
  endfacet
  facet normal 1.0 0.0 0.0
    outer loop
      vertex -3.000000000000e-03 -2.000000000000e-03 3.178359800000e-03
      vertex -3.000000000000e-03 -1.500000000000e-03 3.178359800000e-03
      vertex -3.000000000000e-03 -1.500000000000e-03 3.467301600000e-03
    endloop
  endfacet
  facet normal 1.0 0.0 0.0
    outer loop
      vertex -3.000000000000e-03 -2.000000000000e-03 3.178359800000e-03
      vertex -3.000000000000e-03 -1.500000000000e-03 3.467301600000e-03
      vertex -3.000000000000e-03 -2.000000000000e-03 3.467301600000e-03
    endloop
  endfacet
  facet normal 1.0 0.0 0.0
    outer loop
      vertex -3.000000000000e-03 -1.500000000000e-03 0.000000000000e+00
      vertex -3.000000000000e-03 -1.000000000000e-03 0.000000000000e+00
      vertex -3.000000000000e-03 -1.000000000000e-03 2.889418000000e-04
    endloop
  endfacet
  facet normal 1.0 0.0 0.0
    outer loop
      vertex -3.000000000000e-03 -1.500000000000e-03 0.000000000000e+00
      vertex -3.000000000000e-03 -1.000000000000e-03 2.889418000000e-04
      vertex -3.000000000000e-03 -1.500000000000e-03 2.889418000000e-04
    endloop
  endfacet
  facet normal 1.0 0.0 0.0
    outer loop
      vertex -3.000000000000e-03 -1.500000000000e-03 2.889418000000e-04
      vertex -3.000000000000e-03 -1.000000000000e-03 2.889418000000e-04
      vertex -3.000000000000e-03 -1.000000000000e-03 5.778836000000e-04
    endloop
  endfacet
  facet normal 1.0 0.0 0.0
    outer loop
      vertex -3.000000000000e-03 -1.500000000000e-03 2.889418000000e-04
      vertex -3.000000000000e-03 -1.000000000000e-03 5.778836000000e-04
      vertex -3.000000000000e-03 -1.500000000000e-03 5.778836000000e-04
    endloop
  endfacet
  facet normal 1.0 0.0 0.0
    outer loop
      vertex -3.000000000000e-03 -1.500000000000e-03 5.778836000000e-04
      vertex -3.000000000000e-03 -1.000000000000e-03 5.778836000000e-04
      vertex -3.000000000000e-03 -1.000000000000e-03 8.668254000000e-04
    endloop
  endfacet
  facet normal 1.0 0.0 0.0
    outer loop
      vertex -3.000000000000e-03 -1.500000000000e-03 5.778836000000e-04
      vertex -3.000000000000e-03 -1.000000000000e-03 8.668254000000e-04
      vertex -3.000000000000e-03 -1.500000000000e-03 8.668254000000e-04
    endloop
  endfacet
  facet normal 1.0 0.0 0.0
    outer loop
      vertex -3.000000000000e-03 -1.500000000000e-03 8.668254000000e-04
      vertex -3.000000000000e-03 -1.000000000000e-03 8.668254000000e-04
      vertex -3.000000000000e-03 -1.000000000000e-03 1.155767200000e-03
    endloop
  endfacet
  facet normal 1.0 0.0 0.0
    outer loop
      vertex -3.000000000000e-03 -1.500000000000e-03 8.668254000000e-04
      vertex -3.000000000000e-03 -1.000000000000e-03 1.155767200000e-03
      vertex -3.000000000000e-03 -1.500000000000e-03 1.155767200000e-03
    endloop
  endfacet
  facet normal 1.0 0.0 0.0
    outer loop
      vertex -3.000000000000e-03 -1.500000000000e-03 1.155767200000e-03
      vertex -3.000000000000e-03 -1.000000000000e-03 1.155767200000e-03
      vertex -3.000000000000e-03 -1.000000000000e-03 1.444709000000e-03
    endloop
  endfacet
  facet normal 1.0 0.0 0.0
    outer loop
      vertex -3.000000000000e-03 -1.500000000000e-03 1.155767200000e-03
      vertex -3.000000000000e-03 -1.000000000000e-03 1.444709000000e-03
      vertex -3.000000000000e-03 -1.500000000000e-03 1.444709000000e-03
    endloop
  endfacet
  facet normal 1.0 0.0 0.0
    outer loop
      vertex -3.000000000000e-03 -1.500000000000e-03 1.444709000000e-03
      vertex -3.000000000000e-03 -1.000000000000e-03 1.444709000000e-03
      vertex -3.000000000000e-03 -1.000000000000e-03 1.733650800000e-03
    endloop
  endfacet
  facet normal 1.0 0.0 0.0
    outer loop
      vertex -3.000000000000e-03 -1.500000000000e-03 1.444709000000e-03
      vertex -3.000000000000e-03 -1.000000000000e-03 1.733650800000e-03
      vertex -3.000000000000e-03 -1.500000000000e-03 1.733650800000e-03
    endloop
  endfacet
  facet normal 1.0 0.0 0.0
    outer loop
      vertex -3.000000000000e-03 -1.500000000000e-03 1.733650800000e-03
      vertex -3.000000000000e-03 -1.000000000000e-03 1.733650800000e-03
      vertex -3.000000000000e-03 -1.000000000000e-03 2.022592600000e-03
    endloop
  endfacet
  facet normal 1.0 0.0 0.0
    outer loop
      vertex -3.000000000000e-03 -1.500000000000e-03 1.733650800000e-03
      vertex -3.000000000000e-03 -1.000000000000e-03 2.022592600000e-03
      vertex -3.000000000000e-03 -1.500000000000e-03 2.022592600000e-03
    endloop
  endfacet
  facet normal 1.0 0.0 0.0
    outer loop
      vertex -3.000000000000e-03 -1.500000000000e-03 2.022592600000e-03
      vertex -3.000000000000e-03 -1.000000000000e-03 2.022592600000e-03
      vertex -3.000000000000e-03 -1.000000000000e-03 2.311534400000e-03
    endloop
  endfacet
  facet normal 1.0 0.0 0.0
    outer loop
      vertex -3.000000000000e-03 -1.500000000000e-03 2.022592600000e-03
      vertex -3.000000000000e-03 -1.000000000000e-03 2.311534400000e-03
      vertex -3.000000000000e-03 -1.500000000000e-03 2.311534400000e-03
    endloop
  endfacet
  facet normal 1.0 0.0 0.0
    outer loop
      vertex -3.000000000000e-03 -1.500000000000e-03 2.311534400000e-03
      vertex -3.000000000000e-03 -1.000000000000e-03 2.311534400000e-03
      vertex -3.000000000000e-03 -1.000000000000e-03 2.600476200000e-03
    endloop
  endfacet
  facet normal 1.0 0.0 0.0
    outer loop
      vertex -3.000000000000e-03 -1.500000000000e-03 2.311534400000e-03
      vertex -3.000000000000e-03 -1.000000000000e-03 2.600476200000e-03
      vertex -3.000000000000e-03 -1.500000000000e-03 2.600476200000e-03
    endloop
  endfacet
  facet normal 1.0 0.0 0.0
    outer loop
      vertex -3.000000000000e-03 -1.500000000000e-03 2.600476200000e-03
      vertex -3.000000000000e-03 -1.000000000000e-03 2.600476200000e-03
      vertex -3.000000000000e-03 -1.000000000000e-03 2.889418000000e-03
    endloop
  endfacet
  facet normal 1.0 0.0 0.0
    outer loop
      vertex -3.000000000000e-03 -1.500000000000e-03 2.600476200000e-03
      vertex -3.000000000000e-03 -1.000000000000e-03 2.889418000000e-03
      vertex -3.000000000000e-03 -1.500000000000e-03 2.889418000000e-03
    endloop
  endfacet
  facet normal 1.0 0.0 0.0
    outer loop
      vertex -3.000000000000e-03 -1.500000000000e-03 2.889418000000e-03
      vertex -3.000000000000e-03 -1.000000000000e-03 2.889418000000e-03
      vertex -3.000000000000e-03 -1.000000000000e-03 3.178359800000e-03
    endloop
  endfacet
  facet normal 1.0 0.0 0.0
    outer loop
      vertex -3.000000000000e-03 -1.500000000000e-03 2.889418000000e-03
      vertex -3.000000000000e-03 -1.000000000000e-03 3.178359800000e-03
      vertex -3.000000000000e-03 -1.500000000000e-03 3.178359800000e-03
    endloop
  endfacet
  facet normal 1.0 0.0 0.0
    outer loop
      vertex -3.000000000000e-03 -1.500000000000e-03 3.178359800000e-03
      vertex -3.000000000000e-03 -1.000000000000e-03 3.178359800000e-03
      vertex -3.000000000000e-03 -1.000000000000e-03 3.467301600000e-03
    endloop
  endfacet
  facet normal 1.0 0.0 0.0
    outer loop
      vertex -3.000000000000e-03 -1.500000000000e-03 3.178359800000e-03
      vertex -3.000000000000e-03 -1.000000000000e-03 3.467301600000e-03
      vertex -3.000000000000e-03 -1.500000000000e-03 3.467301600000e-03
    endloop
  endfacet
  facet normal 1.0 0.0 0.0
    outer loop
      vertex -3.000000000000e-03 -1.000000000000e-03 0.000000000000e+00
      vertex -3.000000000000e-03 -5.000000000000e-04 0.000000000000e+00
      vertex -3.000000000000e-03 -5.000000000000e-04 2.889418000000e-04
    endloop
  endfacet
  facet normal 1.0 0.0 0.0
    outer loop
      vertex -3.000000000000e-03 -1.000000000000e-03 0.000000000000e+00
      vertex -3.000000000000e-03 -5.000000000000e-04 2.889418000000e-04
      vertex -3.000000000000e-03 -1.000000000000e-03 2.889418000000e-04
    endloop
  endfacet
  facet normal 1.0 0.0 0.0
    outer loop
      vertex -3.000000000000e-03 -1.000000000000e-03 2.889418000000e-04
      vertex -3.000000000000e-03 -5.000000000000e-04 2.889418000000e-04
      vertex -3.000000000000e-03 -5.000000000000e-04 5.778836000000e-04
    endloop
  endfacet
  facet normal 1.0 0.0 0.0
    outer loop
      vertex -3.000000000000e-03 -1.000000000000e-03 2.889418000000e-04
      vertex -3.000000000000e-03 -5.000000000000e-04 5.778836000000e-04
      vertex -3.000000000000e-03 -1.000000000000e-03 5.778836000000e-04
    endloop
  endfacet
  facet normal 1.0 0.0 0.0
    outer loop
      vertex -3.000000000000e-03 -1.000000000000e-03 5.778836000000e-04
      vertex -3.000000000000e-03 -5.000000000000e-04 5.778836000000e-04
      vertex -3.000000000000e-03 -5.000000000000e-04 8.668254000000e-04
    endloop
  endfacet
  facet normal 1.0 0.0 0.0
    outer loop
      vertex -3.000000000000e-03 -1.000000000000e-03 5.778836000000e-04
      vertex -3.000000000000e-03 -5.000000000000e-04 8.668254000000e-04
      vertex -3.000000000000e-03 -1.000000000000e-03 8.668254000000e-04
    endloop
  endfacet
  facet normal 1.0 0.0 0.0
    outer loop
      vertex -3.000000000000e-03 -1.000000000000e-03 8.668254000000e-04
      vertex -3.000000000000e-03 -5.000000000000e-04 8.668254000000e-04
      vertex -3.000000000000e-03 -5.000000000000e-04 1.155767200000e-03
    endloop
  endfacet
  facet normal 1.0 0.0 0.0
    outer loop
      vertex -3.000000000000e-03 -1.000000000000e-03 8.668254000000e-04
      vertex -3.000000000000e-03 -5.000000000000e-04 1.155767200000e-03
      vertex -3.000000000000e-03 -1.000000000000e-03 1.155767200000e-03
    endloop
  endfacet
  facet normal 1.0 0.0 0.0
    outer loop
      vertex -3.000000000000e-03 -1.000000000000e-03 1.155767200000e-03
      vertex -3.000000000000e-03 -5.000000000000e-04 1.155767200000e-03
      vertex -3.000000000000e-03 -5.000000000000e-04 1.444709000000e-03
    endloop
  endfacet
  facet normal 1.0 0.0 0.0
    outer loop
      vertex -3.000000000000e-03 -1.000000000000e-03 1.155767200000e-03
      vertex -3.000000000000e-03 -5.000000000000e-04 1.444709000000e-03
      vertex -3.000000000000e-03 -1.000000000000e-03 1.444709000000e-03
    endloop
  endfacet
  facet normal 1.0 0.0 0.0
    outer loop
      vertex -3.000000000000e-03 -1.000000000000e-03 1.444709000000e-03
      vertex -3.000000000000e-03 -5.000000000000e-04 1.444709000000e-03
      vertex -3.000000000000e-03 -5.000000000000e-04 1.733650800000e-03
    endloop
  endfacet
  facet normal 1.0 0.0 0.0
    outer loop
      vertex -3.000000000000e-03 -1.000000000000e-03 1.444709000000e-03
      vertex -3.000000000000e-03 -5.000000000000e-04 1.733650800000e-03
      vertex -3.000000000000e-03 -1.000000000000e-03 1.733650800000e-03
    endloop
  endfacet
  facet normal 1.0 0.0 0.0
    outer loop
      vertex -3.000000000000e-03 -1.000000000000e-03 1.733650800000e-03
      vertex -3.000000000000e-03 -5.000000000000e-04 1.733650800000e-03
      vertex -3.000000000000e-03 -5.000000000000e-04 2.022592600000e-03
    endloop
  endfacet
  facet normal 1.0 0.0 0.0
    outer loop
      vertex -3.000000000000e-03 -1.000000000000e-03 1.733650800000e-03
      vertex -3.000000000000e-03 -5.000000000000e-04 2.022592600000e-03
      vertex -3.000000000000e-03 -1.000000000000e-03 2.022592600000e-03
    endloop
  endfacet
  facet normal 1.0 0.0 0.0
    outer loop
      vertex -3.000000000000e-03 -1.000000000000e-03 2.022592600000e-03
      vertex -3.000000000000e-03 -5.000000000000e-04 2.022592600000e-03
      vertex -3.000000000000e-03 -5.000000000000e-04 2.311534400000e-03
    endloop
  endfacet
  facet normal 1.0 0.0 0.0
    outer loop
      vertex -3.000000000000e-03 -1.000000000000e-03 2.022592600000e-03
      vertex -3.000000000000e-03 -5.000000000000e-04 2.311534400000e-03
      vertex -3.000000000000e-03 -1.000000000000e-03 2.311534400000e-03
    endloop
  endfacet
  facet normal 1.0 0.0 0.0
    outer loop
      vertex -3.000000000000e-03 -1.000000000000e-03 2.311534400000e-03
      vertex -3.000000000000e-03 -5.000000000000e-04 2.311534400000e-03
      vertex -3.000000000000e-03 -5.000000000000e-04 2.600476200000e-03
    endloop
  endfacet
  facet normal 1.0 0.0 0.0
    outer loop
      vertex -3.000000000000e-03 -1.000000000000e-03 2.311534400000e-03
      vertex -3.000000000000e-03 -5.000000000000e-04 2.600476200000e-03
      vertex -3.000000000000e-03 -1.000000000000e-03 2.600476200000e-03
    endloop
  endfacet
  facet normal 1.0 0.0 0.0
    outer loop
      vertex -3.000000000000e-03 -1.000000000000e-03 2.600476200000e-03
      vertex -3.000000000000e-03 -5.000000000000e-04 2.600476200000e-03
      vertex -3.000000000000e-03 -5.000000000000e-04 2.889418000000e-03
    endloop
  endfacet
  facet normal 1.0 0.0 0.0
    outer loop
      vertex -3.000000000000e-03 -1.000000000000e-03 2.600476200000e-03
      vertex -3.000000000000e-03 -5.000000000000e-04 2.889418000000e-03
      vertex -3.000000000000e-03 -1.000000000000e-03 2.889418000000e-03
    endloop
  endfacet
  facet normal 1.0 0.0 0.0
    outer loop
      vertex -3.000000000000e-03 -1.000000000000e-03 2.889418000000e-03
      vertex -3.000000000000e-03 -5.000000000000e-04 2.889418000000e-03
      vertex -3.000000000000e-03 -5.000000000000e-04 3.178359800000e-03
    endloop
  endfacet
  facet normal 1.0 0.0 0.0
    outer loop
      vertex -3.000000000000e-03 -1.000000000000e-03 2.889418000000e-03
      vertex -3.000000000000e-03 -5.000000000000e-04 3.178359800000e-03
      vertex -3.000000000000e-03 -1.000000000000e-03 3.178359800000e-03
    endloop
  endfacet
  facet normal 1.0 0.0 0.0
    outer loop
      vertex -3.000000000000e-03 -1.000000000000e-03 3.178359800000e-03
      vertex -3.000000000000e-03 -5.000000000000e-04 3.178359800000e-03
      vertex -3.000000000000e-03 -5.000000000000e-04 3.467301600000e-03
    endloop
  endfacet
  facet normal 1.0 0.0 0.0
    outer loop
      vertex -3.000000000000e-03 -1.000000000000e-03 3.178359800000e-03
      vertex -3.000000000000e-03 -5.000000000000e-04 3.467301600000e-03
      vertex -3.000000000000e-03 -1.000000000000e-03 3.467301600000e-03
    endloop
  endfacet
  facet normal 1.0 0.0 0.0
    outer loop
      vertex -3.000000000000e-03 -5.000000000000e-04 0.000000000000e+00
      vertex -3.000000000000e-03 0.000000000000e+00 0.000000000000e+00
      vertex -3.000000000000e-03 0.000000000000e+00 2.889418000000e-04
    endloop
  endfacet
  facet normal 1.0 0.0 0.0
    outer loop
      vertex -3.000000000000e-03 -5.000000000000e-04 0.000000000000e+00
      vertex -3.000000000000e-03 0.000000000000e+00 2.889418000000e-04
      vertex -3.000000000000e-03 -5.000000000000e-04 2.889418000000e-04
    endloop
  endfacet
  facet normal 1.0 0.0 0.0
    outer loop
      vertex -3.000000000000e-03 -5.000000000000e-04 2.889418000000e-04
      vertex -3.000000000000e-03 0.000000000000e+00 2.889418000000e-04
      vertex -3.000000000000e-03 0.000000000000e+00 5.778836000000e-04
    endloop
  endfacet
  facet normal 1.0 0.0 0.0
    outer loop
      vertex -3.000000000000e-03 -5.000000000000e-04 2.889418000000e-04
      vertex -3.000000000000e-03 0.000000000000e+00 5.778836000000e-04
      vertex -3.000000000000e-03 -5.000000000000e-04 5.778836000000e-04
    endloop
  endfacet
  facet normal 1.0 0.0 0.0
    outer loop
      vertex -3.000000000000e-03 -5.000000000000e-04 5.778836000000e-04
      vertex -3.000000000000e-03 0.000000000000e+00 5.778836000000e-04
      vertex -3.000000000000e-03 0.000000000000e+00 8.668254000000e-04
    endloop
  endfacet
  facet normal 1.0 0.0 0.0
    outer loop
      vertex -3.000000000000e-03 -5.000000000000e-04 5.778836000000e-04
      vertex -3.000000000000e-03 0.000000000000e+00 8.668254000000e-04
      vertex -3.000000000000e-03 -5.000000000000e-04 8.668254000000e-04
    endloop
  endfacet
  facet normal 1.0 0.0 0.0
    outer loop
      vertex -3.000000000000e-03 -5.000000000000e-04 8.668254000000e-04
      vertex -3.000000000000e-03 0.000000000000e+00 8.668254000000e-04
      vertex -3.000000000000e-03 0.000000000000e+00 1.155767200000e-03
    endloop
  endfacet
  facet normal 1.0 0.0 0.0
    outer loop
      vertex -3.000000000000e-03 -5.000000000000e-04 8.668254000000e-04
      vertex -3.000000000000e-03 0.000000000000e+00 1.155767200000e-03
      vertex -3.000000000000e-03 -5.000000000000e-04 1.155767200000e-03
    endloop
  endfacet
  facet normal 1.0 0.0 0.0
    outer loop
      vertex -3.000000000000e-03 -5.000000000000e-04 1.155767200000e-03
      vertex -3.000000000000e-03 0.000000000000e+00 1.155767200000e-03
      vertex -3.000000000000e-03 0.000000000000e+00 1.444709000000e-03
    endloop
  endfacet
  facet normal 1.0 0.0 0.0
    outer loop
      vertex -3.000000000000e-03 -5.000000000000e-04 1.155767200000e-03
      vertex -3.000000000000e-03 0.000000000000e+00 1.444709000000e-03
      vertex -3.000000000000e-03 -5.000000000000e-04 1.444709000000e-03
    endloop
  endfacet
  facet normal 1.0 0.0 0.0
    outer loop
      vertex -3.000000000000e-03 -5.000000000000e-04 1.444709000000e-03
      vertex -3.000000000000e-03 0.000000000000e+00 1.444709000000e-03
      vertex -3.000000000000e-03 0.000000000000e+00 1.733650800000e-03
    endloop
  endfacet
  facet normal 1.0 0.0 0.0
    outer loop
      vertex -3.000000000000e-03 -5.000000000000e-04 1.444709000000e-03
      vertex -3.000000000000e-03 0.000000000000e+00 1.733650800000e-03
      vertex -3.000000000000e-03 -5.000000000000e-04 1.733650800000e-03
    endloop
  endfacet
  facet normal 1.0 0.0 0.0
    outer loop
      vertex -3.000000000000e-03 -5.000000000000e-04 1.733650800000e-03
      vertex -3.000000000000e-03 0.000000000000e+00 1.733650800000e-03
      vertex -3.000000000000e-03 0.000000000000e+00 2.022592600000e-03
    endloop
  endfacet
  facet normal 1.0 0.0 0.0
    outer loop
      vertex -3.000000000000e-03 -5.000000000000e-04 1.733650800000e-03
      vertex -3.000000000000e-03 0.000000000000e+00 2.022592600000e-03
      vertex -3.000000000000e-03 -5.000000000000e-04 2.022592600000e-03
    endloop
  endfacet
  facet normal 1.0 0.0 0.0
    outer loop
      vertex -3.000000000000e-03 -5.000000000000e-04 2.022592600000e-03
      vertex -3.000000000000e-03 0.000000000000e+00 2.022592600000e-03
      vertex -3.000000000000e-03 0.000000000000e+00 2.311534400000e-03
    endloop
  endfacet
  facet normal 1.0 0.0 0.0
    outer loop
      vertex -3.000000000000e-03 -5.000000000000e-04 2.022592600000e-03
      vertex -3.000000000000e-03 0.000000000000e+00 2.311534400000e-03
      vertex -3.000000000000e-03 -5.000000000000e-04 2.311534400000e-03
    endloop
  endfacet
  facet normal 1.0 0.0 0.0
    outer loop
      vertex -3.000000000000e-03 -5.000000000000e-04 2.311534400000e-03
      vertex -3.000000000000e-03 0.000000000000e+00 2.311534400000e-03
      vertex -3.000000000000e-03 0.000000000000e+00 2.600476200000e-03
    endloop
  endfacet
  facet normal 1.0 0.0 0.0
    outer loop
      vertex -3.000000000000e-03 -5.000000000000e-04 2.311534400000e-03
      vertex -3.000000000000e-03 0.000000000000e+00 2.600476200000e-03
      vertex -3.000000000000e-03 -5.000000000000e-04 2.600476200000e-03
    endloop
  endfacet
  facet normal 1.0 0.0 0.0
    outer loop
      vertex -3.000000000000e-03 -5.000000000000e-04 2.600476200000e-03
      vertex -3.000000000000e-03 0.000000000000e+00 2.600476200000e-03
      vertex -3.000000000000e-03 0.000000000000e+00 2.889418000000e-03
    endloop
  endfacet
  facet normal 1.0 0.0 0.0
    outer loop
      vertex -3.000000000000e-03 -5.000000000000e-04 2.600476200000e-03
      vertex -3.000000000000e-03 0.000000000000e+00 2.889418000000e-03
      vertex -3.000000000000e-03 -5.000000000000e-04 2.889418000000e-03
    endloop
  endfacet
  facet normal 1.0 0.0 0.0
    outer loop
      vertex -3.000000000000e-03 -5.000000000000e-04 2.889418000000e-03
      vertex -3.000000000000e-03 0.000000000000e+00 2.889418000000e-03
      vertex -3.000000000000e-03 0.000000000000e+00 3.178359800000e-03
    endloop
  endfacet
  facet normal 1.0 0.0 0.0
    outer loop
      vertex -3.000000000000e-03 -5.000000000000e-04 2.889418000000e-03
      vertex -3.000000000000e-03 0.000000000000e+00 3.178359800000e-03
      vertex -3.000000000000e-03 -5.000000000000e-04 3.178359800000e-03
    endloop
  endfacet
  facet normal 1.0 0.0 0.0
    outer loop
      vertex -3.000000000000e-03 -5.000000000000e-04 3.178359800000e-03
      vertex -3.000000000000e-03 0.000000000000e+00 3.178359800000e-03
      vertex -3.000000000000e-03 0.000000000000e+00 3.467301600000e-03
    endloop
  endfacet
  facet normal 1.0 0.0 0.0
    outer loop
      vertex -3.000000000000e-03 -5.000000000000e-04 3.178359800000e-03
      vertex -3.000000000000e-03 0.000000000000e+00 3.467301600000e-03
      vertex -3.000000000000e-03 -5.000000000000e-04 3.467301600000e-03
    endloop
  endfacet
  facet normal 1.0 0.0 0.0
    outer loop
      vertex -3.000000000000e-03 0.000000000000e+00 0.000000000000e+00
      vertex -3.000000000000e-03 5.000000000000e-04 0.000000000000e+00
      vertex -3.000000000000e-03 5.000000000000e-04 2.889418000000e-04
    endloop
  endfacet
  facet normal 1.0 0.0 0.0
    outer loop
      vertex -3.000000000000e-03 0.000000000000e+00 0.000000000000e+00
      vertex -3.000000000000e-03 5.000000000000e-04 2.889418000000e-04
      vertex -3.000000000000e-03 0.000000000000e+00 2.889418000000e-04
    endloop
  endfacet
  facet normal 1.0 0.0 0.0
    outer loop
      vertex -3.000000000000e-03 0.000000000000e+00 2.889418000000e-04
      vertex -3.000000000000e-03 5.000000000000e-04 2.889418000000e-04
      vertex -3.000000000000e-03 5.000000000000e-04 5.778836000000e-04
    endloop
  endfacet
  facet normal 1.0 0.0 0.0
    outer loop
      vertex -3.000000000000e-03 0.000000000000e+00 2.889418000000e-04
      vertex -3.000000000000e-03 5.000000000000e-04 5.778836000000e-04
      vertex -3.000000000000e-03 0.000000000000e+00 5.778836000000e-04
    endloop
  endfacet
  facet normal 1.0 0.0 0.0
    outer loop
      vertex -3.000000000000e-03 0.000000000000e+00 5.778836000000e-04
      vertex -3.000000000000e-03 5.000000000000e-04 5.778836000000e-04
      vertex -3.000000000000e-03 5.000000000000e-04 8.668254000000e-04
    endloop
  endfacet
  facet normal 1.0 0.0 0.0
    outer loop
      vertex -3.000000000000e-03 0.000000000000e+00 5.778836000000e-04
      vertex -3.000000000000e-03 5.000000000000e-04 8.668254000000e-04
      vertex -3.000000000000e-03 0.000000000000e+00 8.668254000000e-04
    endloop
  endfacet
  facet normal 1.0 0.0 0.0
    outer loop
      vertex -3.000000000000e-03 0.000000000000e+00 8.668254000000e-04
      vertex -3.000000000000e-03 5.000000000000e-04 8.668254000000e-04
      vertex -3.000000000000e-03 5.000000000000e-04 1.155767200000e-03
    endloop
  endfacet
  facet normal 1.0 0.0 0.0
    outer loop
      vertex -3.000000000000e-03 0.000000000000e+00 8.668254000000e-04
      vertex -3.000000000000e-03 5.000000000000e-04 1.155767200000e-03
      vertex -3.000000000000e-03 0.000000000000e+00 1.155767200000e-03
    endloop
  endfacet
  facet normal 1.0 0.0 0.0
    outer loop
      vertex -3.000000000000e-03 0.000000000000e+00 1.155767200000e-03
      vertex -3.000000000000e-03 5.000000000000e-04 1.155767200000e-03
      vertex -3.000000000000e-03 5.000000000000e-04 1.444709000000e-03
    endloop
  endfacet
  facet normal 1.0 0.0 0.0
    outer loop
      vertex -3.000000000000e-03 0.000000000000e+00 1.155767200000e-03
      vertex -3.000000000000e-03 5.000000000000e-04 1.444709000000e-03
      vertex -3.000000000000e-03 0.000000000000e+00 1.444709000000e-03
    endloop
  endfacet
  facet normal 1.0 0.0 0.0
    outer loop
      vertex -3.000000000000e-03 0.000000000000e+00 1.444709000000e-03
      vertex -3.000000000000e-03 5.000000000000e-04 1.444709000000e-03
      vertex -3.000000000000e-03 5.000000000000e-04 1.733650800000e-03
    endloop
  endfacet
  facet normal 1.0 0.0 0.0
    outer loop
      vertex -3.000000000000e-03 0.000000000000e+00 1.444709000000e-03
      vertex -3.000000000000e-03 5.000000000000e-04 1.733650800000e-03
      vertex -3.000000000000e-03 0.000000000000e+00 1.733650800000e-03
    endloop
  endfacet
  facet normal 1.0 0.0 0.0
    outer loop
      vertex -3.000000000000e-03 0.000000000000e+00 1.733650800000e-03
      vertex -3.000000000000e-03 5.000000000000e-04 1.733650800000e-03
      vertex -3.000000000000e-03 5.000000000000e-04 2.022592600000e-03
    endloop
  endfacet
  facet normal 1.0 0.0 0.0
    outer loop
      vertex -3.000000000000e-03 0.000000000000e+00 1.733650800000e-03
      vertex -3.000000000000e-03 5.000000000000e-04 2.022592600000e-03
      vertex -3.000000000000e-03 0.000000000000e+00 2.022592600000e-03
    endloop
  endfacet
  facet normal 1.0 0.0 0.0
    outer loop
      vertex -3.000000000000e-03 0.000000000000e+00 2.022592600000e-03
      vertex -3.000000000000e-03 5.000000000000e-04 2.022592600000e-03
      vertex -3.000000000000e-03 5.000000000000e-04 2.311534400000e-03
    endloop
  endfacet
  facet normal 1.0 0.0 0.0
    outer loop
      vertex -3.000000000000e-03 0.000000000000e+00 2.022592600000e-03
      vertex -3.000000000000e-03 5.000000000000e-04 2.311534400000e-03
      vertex -3.000000000000e-03 0.000000000000e+00 2.311534400000e-03
    endloop
  endfacet
  facet normal 1.0 0.0 0.0
    outer loop
      vertex -3.000000000000e-03 0.000000000000e+00 2.311534400000e-03
      vertex -3.000000000000e-03 5.000000000000e-04 2.311534400000e-03
      vertex -3.000000000000e-03 5.000000000000e-04 2.600476200000e-03
    endloop
  endfacet
  facet normal 1.0 0.0 0.0
    outer loop
      vertex -3.000000000000e-03 0.000000000000e+00 2.311534400000e-03
      vertex -3.000000000000e-03 5.000000000000e-04 2.600476200000e-03
      vertex -3.000000000000e-03 0.000000000000e+00 2.600476200000e-03
    endloop
  endfacet
  facet normal 1.0 0.0 0.0
    outer loop
      vertex -3.000000000000e-03 0.000000000000e+00 2.600476200000e-03
      vertex -3.000000000000e-03 5.000000000000e-04 2.600476200000e-03
      vertex -3.000000000000e-03 5.000000000000e-04 2.889418000000e-03
    endloop
  endfacet
  facet normal 1.0 0.0 0.0
    outer loop
      vertex -3.000000000000e-03 0.000000000000e+00 2.600476200000e-03
      vertex -3.000000000000e-03 5.000000000000e-04 2.889418000000e-03
      vertex -3.000000000000e-03 0.000000000000e+00 2.889418000000e-03
    endloop
  endfacet
  facet normal 1.0 0.0 0.0
    outer loop
      vertex -3.000000000000e-03 0.000000000000e+00 2.889418000000e-03
      vertex -3.000000000000e-03 5.000000000000e-04 2.889418000000e-03
      vertex -3.000000000000e-03 5.000000000000e-04 3.178359800000e-03
    endloop
  endfacet
  facet normal 1.0 0.0 0.0
    outer loop
      vertex -3.000000000000e-03 0.000000000000e+00 2.889418000000e-03
      vertex -3.000000000000e-03 5.000000000000e-04 3.178359800000e-03
      vertex -3.000000000000e-03 0.000000000000e+00 3.178359800000e-03
    endloop
  endfacet
  facet normal 1.0 0.0 0.0
    outer loop
      vertex -3.000000000000e-03 0.000000000000e+00 3.178359800000e-03
      vertex -3.000000000000e-03 5.000000000000e-04 3.178359800000e-03
      vertex -3.000000000000e-03 5.000000000000e-04 3.467301600000e-03
    endloop
  endfacet
  facet normal 1.0 0.0 0.0
    outer loop
      vertex -3.000000000000e-03 0.000000000000e+00 3.178359800000e-03
      vertex -3.000000000000e-03 5.000000000000e-04 3.467301600000e-03
      vertex -3.000000000000e-03 0.000000000000e+00 3.467301600000e-03
    endloop
  endfacet
  facet normal 1.0 0.0 0.0
    outer loop
      vertex -3.000000000000e-03 5.000000000000e-04 0.000000000000e+00
      vertex -3.000000000000e-03 1.000000000000e-03 0.000000000000e+00
      vertex -3.000000000000e-03 1.000000000000e-03 2.889418000000e-04
    endloop
  endfacet
  facet normal 1.0 0.0 0.0
    outer loop
      vertex -3.000000000000e-03 5.000000000000e-04 0.000000000000e+00
      vertex -3.000000000000e-03 1.000000000000e-03 2.889418000000e-04
      vertex -3.000000000000e-03 5.000000000000e-04 2.889418000000e-04
    endloop
  endfacet
  facet normal 1.0 0.0 0.0
    outer loop
      vertex -3.000000000000e-03 5.000000000000e-04 2.889418000000e-04
      vertex -3.000000000000e-03 1.000000000000e-03 2.889418000000e-04
      vertex -3.000000000000e-03 1.000000000000e-03 5.778836000000e-04
    endloop
  endfacet
  facet normal 1.0 0.0 0.0
    outer loop
      vertex -3.000000000000e-03 5.000000000000e-04 2.889418000000e-04
      vertex -3.000000000000e-03 1.000000000000e-03 5.778836000000e-04
      vertex -3.000000000000e-03 5.000000000000e-04 5.778836000000e-04
    endloop
  endfacet
  facet normal 1.0 0.0 0.0
    outer loop
      vertex -3.000000000000e-03 5.000000000000e-04 5.778836000000e-04
      vertex -3.000000000000e-03 1.000000000000e-03 5.778836000000e-04
      vertex -3.000000000000e-03 1.000000000000e-03 8.668254000000e-04
    endloop
  endfacet
  facet normal 1.0 0.0 0.0
    outer loop
      vertex -3.000000000000e-03 5.000000000000e-04 5.778836000000e-04
      vertex -3.000000000000e-03 1.000000000000e-03 8.668254000000e-04
      vertex -3.000000000000e-03 5.000000000000e-04 8.668254000000e-04
    endloop
  endfacet
  facet normal 1.0 0.0 0.0
    outer loop
      vertex -3.000000000000e-03 5.000000000000e-04 8.668254000000e-04
      vertex -3.000000000000e-03 1.000000000000e-03 8.668254000000e-04
      vertex -3.000000000000e-03 1.000000000000e-03 1.155767200000e-03
    endloop
  endfacet
  facet normal 1.0 0.0 0.0
    outer loop
      vertex -3.000000000000e-03 5.000000000000e-04 8.668254000000e-04
      vertex -3.000000000000e-03 1.000000000000e-03 1.155767200000e-03
      vertex -3.000000000000e-03 5.000000000000e-04 1.155767200000e-03
    endloop
  endfacet
  facet normal 1.0 0.0 0.0
    outer loop
      vertex -3.000000000000e-03 5.000000000000e-04 1.155767200000e-03
      vertex -3.000000000000e-03 1.000000000000e-03 1.155767200000e-03
      vertex -3.000000000000e-03 1.000000000000e-03 1.444709000000e-03
    endloop
  endfacet
  facet normal 1.0 0.0 0.0
    outer loop
      vertex -3.000000000000e-03 5.000000000000e-04 1.155767200000e-03
      vertex -3.000000000000e-03 1.000000000000e-03 1.444709000000e-03
      vertex -3.000000000000e-03 5.000000000000e-04 1.444709000000e-03
    endloop
  endfacet
  facet normal 1.0 0.0 0.0
    outer loop
      vertex -3.000000000000e-03 5.000000000000e-04 1.444709000000e-03
      vertex -3.000000000000e-03 1.000000000000e-03 1.444709000000e-03
      vertex -3.000000000000e-03 1.000000000000e-03 1.733650800000e-03
    endloop
  endfacet
  facet normal 1.0 0.0 0.0
    outer loop
      vertex -3.000000000000e-03 5.000000000000e-04 1.444709000000e-03
      vertex -3.000000000000e-03 1.000000000000e-03 1.733650800000e-03
      vertex -3.000000000000e-03 5.000000000000e-04 1.733650800000e-03
    endloop
  endfacet
  facet normal 1.0 0.0 0.0
    outer loop
      vertex -3.000000000000e-03 5.000000000000e-04 1.733650800000e-03
      vertex -3.000000000000e-03 1.000000000000e-03 1.733650800000e-03
      vertex -3.000000000000e-03 1.000000000000e-03 2.022592600000e-03
    endloop
  endfacet
  facet normal 1.0 0.0 0.0
    outer loop
      vertex -3.000000000000e-03 5.000000000000e-04 1.733650800000e-03
      vertex -3.000000000000e-03 1.000000000000e-03 2.022592600000e-03
      vertex -3.000000000000e-03 5.000000000000e-04 2.022592600000e-03
    endloop
  endfacet
  facet normal 1.0 0.0 0.0
    outer loop
      vertex -3.000000000000e-03 5.000000000000e-04 2.022592600000e-03
      vertex -3.000000000000e-03 1.000000000000e-03 2.022592600000e-03
      vertex -3.000000000000e-03 1.000000000000e-03 2.311534400000e-03
    endloop
  endfacet
  facet normal 1.0 0.0 0.0
    outer loop
      vertex -3.000000000000e-03 5.000000000000e-04 2.022592600000e-03
      vertex -3.000000000000e-03 1.000000000000e-03 2.311534400000e-03
      vertex -3.000000000000e-03 5.000000000000e-04 2.311534400000e-03
    endloop
  endfacet
  facet normal 1.0 0.0 0.0
    outer loop
      vertex -3.000000000000e-03 5.000000000000e-04 2.311534400000e-03
      vertex -3.000000000000e-03 1.000000000000e-03 2.311534400000e-03
      vertex -3.000000000000e-03 1.000000000000e-03 2.600476200000e-03
    endloop
  endfacet
  facet normal 1.0 0.0 0.0
    outer loop
      vertex -3.000000000000e-03 5.000000000000e-04 2.311534400000e-03
      vertex -3.000000000000e-03 1.000000000000e-03 2.600476200000e-03
      vertex -3.000000000000e-03 5.000000000000e-04 2.600476200000e-03
    endloop
  endfacet
  facet normal 1.0 0.0 0.0
    outer loop
      vertex -3.000000000000e-03 5.000000000000e-04 2.600476200000e-03
      vertex -3.000000000000e-03 1.000000000000e-03 2.600476200000e-03
      vertex -3.000000000000e-03 1.000000000000e-03 2.889418000000e-03
    endloop
  endfacet
  facet normal 1.0 0.0 0.0
    outer loop
      vertex -3.000000000000e-03 5.000000000000e-04 2.600476200000e-03
      vertex -3.000000000000e-03 1.000000000000e-03 2.889418000000e-03
      vertex -3.000000000000e-03 5.000000000000e-04 2.889418000000e-03
    endloop
  endfacet
  facet normal 1.0 0.0 0.0
    outer loop
      vertex -3.000000000000e-03 5.000000000000e-04 2.889418000000e-03
      vertex -3.000000000000e-03 1.000000000000e-03 2.889418000000e-03
      vertex -3.000000000000e-03 1.000000000000e-03 3.178359800000e-03
    endloop
  endfacet
  facet normal 1.0 0.0 0.0
    outer loop
      vertex -3.000000000000e-03 5.000000000000e-04 2.889418000000e-03
      vertex -3.000000000000e-03 1.000000000000e-03 3.178359800000e-03
      vertex -3.000000000000e-03 5.000000000000e-04 3.178359800000e-03
    endloop
  endfacet
  facet normal 1.0 0.0 0.0
    outer loop
      vertex -3.000000000000e-03 5.000000000000e-04 3.178359800000e-03
      vertex -3.000000000000e-03 1.000000000000e-03 3.178359800000e-03
      vertex -3.000000000000e-03 1.000000000000e-03 3.467301600000e-03
    endloop
  endfacet
  facet normal 1.0 0.0 0.0
    outer loop
      vertex -3.000000000000e-03 5.000000000000e-04 3.178359800000e-03
      vertex -3.000000000000e-03 1.000000000000e-03 3.467301600000e-03
      vertex -3.000000000000e-03 5.000000000000e-04 3.467301600000e-03
    endloop
  endfacet
  facet normal 1.0 0.0 0.0
    outer loop
      vertex -3.000000000000e-03 1.000000000000e-03 0.000000000000e+00
      vertex -3.000000000000e-03 1.500000000000e-03 0.000000000000e+00
      vertex -3.000000000000e-03 1.500000000000e-03 2.889418000000e-04
    endloop
  endfacet
  facet normal 1.0 0.0 0.0
    outer loop
      vertex -3.000000000000e-03 1.000000000000e-03 0.000000000000e+00
      vertex -3.000000000000e-03 1.500000000000e-03 2.889418000000e-04
      vertex -3.000000000000e-03 1.000000000000e-03 2.889418000000e-04
    endloop
  endfacet
  facet normal 1.0 0.0 0.0
    outer loop
      vertex -3.000000000000e-03 1.000000000000e-03 2.889418000000e-04
      vertex -3.000000000000e-03 1.500000000000e-03 2.889418000000e-04
      vertex -3.000000000000e-03 1.500000000000e-03 5.778836000000e-04
    endloop
  endfacet
  facet normal 1.0 0.0 0.0
    outer loop
      vertex -3.000000000000e-03 1.000000000000e-03 2.889418000000e-04
      vertex -3.000000000000e-03 1.500000000000e-03 5.778836000000e-04
      vertex -3.000000000000e-03 1.000000000000e-03 5.778836000000e-04
    endloop
  endfacet
  facet normal 1.0 0.0 0.0
    outer loop
      vertex -3.000000000000e-03 1.000000000000e-03 5.778836000000e-04
      vertex -3.000000000000e-03 1.500000000000e-03 5.778836000000e-04
      vertex -3.000000000000e-03 1.500000000000e-03 8.668254000000e-04
    endloop
  endfacet
  facet normal 1.0 0.0 0.0
    outer loop
      vertex -3.000000000000e-03 1.000000000000e-03 5.778836000000e-04
      vertex -3.000000000000e-03 1.500000000000e-03 8.668254000000e-04
      vertex -3.000000000000e-03 1.000000000000e-03 8.668254000000e-04
    endloop
  endfacet
  facet normal 1.0 0.0 0.0
    outer loop
      vertex -3.000000000000e-03 1.000000000000e-03 8.668254000000e-04
      vertex -3.000000000000e-03 1.500000000000e-03 8.668254000000e-04
      vertex -3.000000000000e-03 1.500000000000e-03 1.155767200000e-03
    endloop
  endfacet
  facet normal 1.0 0.0 0.0
    outer loop
      vertex -3.000000000000e-03 1.000000000000e-03 8.668254000000e-04
      vertex -3.000000000000e-03 1.500000000000e-03 1.155767200000e-03
      vertex -3.000000000000e-03 1.000000000000e-03 1.155767200000e-03
    endloop
  endfacet
  facet normal 1.0 0.0 0.0
    outer loop
      vertex -3.000000000000e-03 1.000000000000e-03 1.155767200000e-03
      vertex -3.000000000000e-03 1.500000000000e-03 1.155767200000e-03
      vertex -3.000000000000e-03 1.500000000000e-03 1.444709000000e-03
    endloop
  endfacet
  facet normal 1.0 0.0 0.0
    outer loop
      vertex -3.000000000000e-03 1.000000000000e-03 1.155767200000e-03
      vertex -3.000000000000e-03 1.500000000000e-03 1.444709000000e-03
      vertex -3.000000000000e-03 1.000000000000e-03 1.444709000000e-03
    endloop
  endfacet
  facet normal 1.0 0.0 0.0
    outer loop
      vertex -3.000000000000e-03 1.000000000000e-03 1.444709000000e-03
      vertex -3.000000000000e-03 1.500000000000e-03 1.444709000000e-03
      vertex -3.000000000000e-03 1.500000000000e-03 1.733650800000e-03
    endloop
  endfacet
  facet normal 1.0 0.0 0.0
    outer loop
      vertex -3.000000000000e-03 1.000000000000e-03 1.444709000000e-03
      vertex -3.000000000000e-03 1.500000000000e-03 1.733650800000e-03
      vertex -3.000000000000e-03 1.000000000000e-03 1.733650800000e-03
    endloop
  endfacet
  facet normal 1.0 0.0 0.0
    outer loop
      vertex -3.000000000000e-03 1.000000000000e-03 1.733650800000e-03
      vertex -3.000000000000e-03 1.500000000000e-03 1.733650800000e-03
      vertex -3.000000000000e-03 1.500000000000e-03 2.022592600000e-03
    endloop
  endfacet
  facet normal 1.0 0.0 0.0
    outer loop
      vertex -3.000000000000e-03 1.000000000000e-03 1.733650800000e-03
      vertex -3.000000000000e-03 1.500000000000e-03 2.022592600000e-03
      vertex -3.000000000000e-03 1.000000000000e-03 2.022592600000e-03
    endloop
  endfacet
  facet normal 1.0 0.0 0.0
    outer loop
      vertex -3.000000000000e-03 1.000000000000e-03 2.022592600000e-03
      vertex -3.000000000000e-03 1.500000000000e-03 2.022592600000e-03
      vertex -3.000000000000e-03 1.500000000000e-03 2.311534400000e-03
    endloop
  endfacet
  facet normal 1.0 0.0 0.0
    outer loop
      vertex -3.000000000000e-03 1.000000000000e-03 2.022592600000e-03
      vertex -3.000000000000e-03 1.500000000000e-03 2.311534400000e-03
      vertex -3.000000000000e-03 1.000000000000e-03 2.311534400000e-03
    endloop
  endfacet
  facet normal 1.0 0.0 0.0
    outer loop
      vertex -3.000000000000e-03 1.000000000000e-03 2.311534400000e-03
      vertex -3.000000000000e-03 1.500000000000e-03 2.311534400000e-03
      vertex -3.000000000000e-03 1.500000000000e-03 2.600476200000e-03
    endloop
  endfacet
  facet normal 1.0 0.0 0.0
    outer loop
      vertex -3.000000000000e-03 1.000000000000e-03 2.311534400000e-03
      vertex -3.000000000000e-03 1.500000000000e-03 2.600476200000e-03
      vertex -3.000000000000e-03 1.000000000000e-03 2.600476200000e-03
    endloop
  endfacet
  facet normal 1.0 0.0 0.0
    outer loop
      vertex -3.000000000000e-03 1.000000000000e-03 2.600476200000e-03
      vertex -3.000000000000e-03 1.500000000000e-03 2.600476200000e-03
      vertex -3.000000000000e-03 1.500000000000e-03 2.889418000000e-03
    endloop
  endfacet
  facet normal 1.0 0.0 0.0
    outer loop
      vertex -3.000000000000e-03 1.000000000000e-03 2.600476200000e-03
      vertex -3.000000000000e-03 1.500000000000e-03 2.889418000000e-03
      vertex -3.000000000000e-03 1.000000000000e-03 2.889418000000e-03
    endloop
  endfacet
  facet normal 1.0 0.0 0.0
    outer loop
      vertex -3.000000000000e-03 1.000000000000e-03 2.889418000000e-03
      vertex -3.000000000000e-03 1.500000000000e-03 2.889418000000e-03
      vertex -3.000000000000e-03 1.500000000000e-03 3.178359800000e-03
    endloop
  endfacet
  facet normal 1.0 0.0 0.0
    outer loop
      vertex -3.000000000000e-03 1.000000000000e-03 2.889418000000e-03
      vertex -3.000000000000e-03 1.500000000000e-03 3.178359800000e-03
      vertex -3.000000000000e-03 1.000000000000e-03 3.178359800000e-03
    endloop
  endfacet
  facet normal 1.0 0.0 0.0
    outer loop
      vertex -3.000000000000e-03 1.000000000000e-03 3.178359800000e-03
      vertex -3.000000000000e-03 1.500000000000e-03 3.178359800000e-03
      vertex -3.000000000000e-03 1.500000000000e-03 3.467301600000e-03
    endloop
  endfacet
  facet normal 1.0 0.0 0.0
    outer loop
      vertex -3.000000000000e-03 1.000000000000e-03 3.178359800000e-03
      vertex -3.000000000000e-03 1.500000000000e-03 3.467301600000e-03
      vertex -3.000000000000e-03 1.000000000000e-03 3.467301600000e-03
    endloop
  endfacet
  facet normal 1.0 0.0 0.0
    outer loop
      vertex -3.000000000000e-03 1.500000000000e-03 0.000000000000e+00
      vertex -3.000000000000e-03 2.000000000000e-03 0.000000000000e+00
      vertex -3.000000000000e-03 2.000000000000e-03 2.889418000000e-04
    endloop
  endfacet
  facet normal 1.0 0.0 0.0
    outer loop
      vertex -3.000000000000e-03 1.500000000000e-03 0.000000000000e+00
      vertex -3.000000000000e-03 2.000000000000e-03 2.889418000000e-04
      vertex -3.000000000000e-03 1.500000000000e-03 2.889418000000e-04
    endloop
  endfacet
  facet normal 1.0 0.0 0.0
    outer loop
      vertex -3.000000000000e-03 1.500000000000e-03 2.889418000000e-04
      vertex -3.000000000000e-03 2.000000000000e-03 2.889418000000e-04
      vertex -3.000000000000e-03 2.000000000000e-03 5.778836000000e-04
    endloop
  endfacet
  facet normal 1.0 0.0 0.0
    outer loop
      vertex -3.000000000000e-03 1.500000000000e-03 2.889418000000e-04
      vertex -3.000000000000e-03 2.000000000000e-03 5.778836000000e-04
      vertex -3.000000000000e-03 1.500000000000e-03 5.778836000000e-04
    endloop
  endfacet
  facet normal 1.0 0.0 0.0
    outer loop
      vertex -3.000000000000e-03 1.500000000000e-03 5.778836000000e-04
      vertex -3.000000000000e-03 2.000000000000e-03 5.778836000000e-04
      vertex -3.000000000000e-03 2.000000000000e-03 8.668254000000e-04
    endloop
  endfacet
  facet normal 1.0 0.0 0.0
    outer loop
      vertex -3.000000000000e-03 1.500000000000e-03 5.778836000000e-04
      vertex -3.000000000000e-03 2.000000000000e-03 8.668254000000e-04
      vertex -3.000000000000e-03 1.500000000000e-03 8.668254000000e-04
    endloop
  endfacet
  facet normal 1.0 0.0 0.0
    outer loop
      vertex -3.000000000000e-03 1.500000000000e-03 8.668254000000e-04
      vertex -3.000000000000e-03 2.000000000000e-03 8.668254000000e-04
      vertex -3.000000000000e-03 2.000000000000e-03 1.155767200000e-03
    endloop
  endfacet
  facet normal 1.0 0.0 0.0
    outer loop
      vertex -3.000000000000e-03 1.500000000000e-03 8.668254000000e-04
      vertex -3.000000000000e-03 2.000000000000e-03 1.155767200000e-03
      vertex -3.000000000000e-03 1.500000000000e-03 1.155767200000e-03
    endloop
  endfacet
  facet normal 1.0 0.0 0.0
    outer loop
      vertex -3.000000000000e-03 1.500000000000e-03 1.155767200000e-03
      vertex -3.000000000000e-03 2.000000000000e-03 1.155767200000e-03
      vertex -3.000000000000e-03 2.000000000000e-03 1.444709000000e-03
    endloop
  endfacet
  facet normal 1.0 0.0 0.0
    outer loop
      vertex -3.000000000000e-03 1.500000000000e-03 1.155767200000e-03
      vertex -3.000000000000e-03 2.000000000000e-03 1.444709000000e-03
      vertex -3.000000000000e-03 1.500000000000e-03 1.444709000000e-03
    endloop
  endfacet
  facet normal 1.0 0.0 0.0
    outer loop
      vertex -3.000000000000e-03 1.500000000000e-03 1.444709000000e-03
      vertex -3.000000000000e-03 2.000000000000e-03 1.444709000000e-03
      vertex -3.000000000000e-03 2.000000000000e-03 1.733650800000e-03
    endloop
  endfacet
  facet normal 1.0 0.0 0.0
    outer loop
      vertex -3.000000000000e-03 1.500000000000e-03 1.444709000000e-03
      vertex -3.000000000000e-03 2.000000000000e-03 1.733650800000e-03
      vertex -3.000000000000e-03 1.500000000000e-03 1.733650800000e-03
    endloop
  endfacet
  facet normal 1.0 0.0 0.0
    outer loop
      vertex -3.000000000000e-03 1.500000000000e-03 1.733650800000e-03
      vertex -3.000000000000e-03 2.000000000000e-03 1.733650800000e-03
      vertex -3.000000000000e-03 2.000000000000e-03 2.022592600000e-03
    endloop
  endfacet
  facet normal 1.0 0.0 0.0
    outer loop
      vertex -3.000000000000e-03 1.500000000000e-03 1.733650800000e-03
      vertex -3.000000000000e-03 2.000000000000e-03 2.022592600000e-03
      vertex -3.000000000000e-03 1.500000000000e-03 2.022592600000e-03
    endloop
  endfacet
  facet normal 1.0 0.0 0.0
    outer loop
      vertex -3.000000000000e-03 1.500000000000e-03 2.022592600000e-03
      vertex -3.000000000000e-03 2.000000000000e-03 2.022592600000e-03
      vertex -3.000000000000e-03 2.000000000000e-03 2.311534400000e-03
    endloop
  endfacet
  facet normal 1.0 0.0 0.0
    outer loop
      vertex -3.000000000000e-03 1.500000000000e-03 2.022592600000e-03
      vertex -3.000000000000e-03 2.000000000000e-03 2.311534400000e-03
      vertex -3.000000000000e-03 1.500000000000e-03 2.311534400000e-03
    endloop
  endfacet
  facet normal 1.0 0.0 0.0
    outer loop
      vertex -3.000000000000e-03 1.500000000000e-03 2.311534400000e-03
      vertex -3.000000000000e-03 2.000000000000e-03 2.311534400000e-03
      vertex -3.000000000000e-03 2.000000000000e-03 2.600476200000e-03
    endloop
  endfacet
  facet normal 1.0 0.0 0.0
    outer loop
      vertex -3.000000000000e-03 1.500000000000e-03 2.311534400000e-03
      vertex -3.000000000000e-03 2.000000000000e-03 2.600476200000e-03
      vertex -3.000000000000e-03 1.500000000000e-03 2.600476200000e-03
    endloop
  endfacet
  facet normal 1.0 0.0 0.0
    outer loop
      vertex -3.000000000000e-03 1.500000000000e-03 2.600476200000e-03
      vertex -3.000000000000e-03 2.000000000000e-03 2.600476200000e-03
      vertex -3.000000000000e-03 2.000000000000e-03 2.889418000000e-03
    endloop
  endfacet
  facet normal 1.0 0.0 0.0
    outer loop
      vertex -3.000000000000e-03 1.500000000000e-03 2.600476200000e-03
      vertex -3.000000000000e-03 2.000000000000e-03 2.889418000000e-03
      vertex -3.000000000000e-03 1.500000000000e-03 2.889418000000e-03
    endloop
  endfacet
  facet normal 1.0 0.0 0.0
    outer loop
      vertex -3.000000000000e-03 1.500000000000e-03 2.889418000000e-03
      vertex -3.000000000000e-03 2.000000000000e-03 2.889418000000e-03
      vertex -3.000000000000e-03 2.000000000000e-03 3.178359800000e-03
    endloop
  endfacet
  facet normal 1.0 0.0 0.0
    outer loop
      vertex -3.000000000000e-03 1.500000000000e-03 2.889418000000e-03
      vertex -3.000000000000e-03 2.000000000000e-03 3.178359800000e-03
      vertex -3.000000000000e-03 1.500000000000e-03 3.178359800000e-03
    endloop
  endfacet
  facet normal 1.0 0.0 0.0
    outer loop
      vertex -3.000000000000e-03 1.500000000000e-03 3.178359800000e-03
      vertex -3.000000000000e-03 2.000000000000e-03 3.178359800000e-03
      vertex -3.000000000000e-03 2.000000000000e-03 3.467301600000e-03
    endloop
  endfacet
  facet normal 1.0 0.0 0.0
    outer loop
      vertex -3.000000000000e-03 1.500000000000e-03 3.178359800000e-03
      vertex -3.000000000000e-03 2.000000000000e-03 3.467301600000e-03
      vertex -3.000000000000e-03 1.500000000000e-03 3.467301600000e-03
    endloop
  endfacet
  facet normal 1.0 0.0 0.0
    outer loop
      vertex -3.000000000000e-03 2.000000000000e-03 0.000000000000e+00
      vertex -3.000000000000e-03 2.500000000000e-03 0.000000000000e+00
      vertex -3.000000000000e-03 2.500000000000e-03 2.889418000000e-04
    endloop
  endfacet
  facet normal 1.0 0.0 0.0
    outer loop
      vertex -3.000000000000e-03 2.000000000000e-03 0.000000000000e+00
      vertex -3.000000000000e-03 2.500000000000e-03 2.889418000000e-04
      vertex -3.000000000000e-03 2.000000000000e-03 2.889418000000e-04
    endloop
  endfacet
  facet normal 1.0 0.0 0.0
    outer loop
      vertex -3.000000000000e-03 2.000000000000e-03 2.889418000000e-04
      vertex -3.000000000000e-03 2.500000000000e-03 2.889418000000e-04
      vertex -3.000000000000e-03 2.500000000000e-03 5.778836000000e-04
    endloop
  endfacet
  facet normal 1.0 0.0 0.0
    outer loop
      vertex -3.000000000000e-03 2.000000000000e-03 2.889418000000e-04
      vertex -3.000000000000e-03 2.500000000000e-03 5.778836000000e-04
      vertex -3.000000000000e-03 2.000000000000e-03 5.778836000000e-04
    endloop
  endfacet
  facet normal 1.0 0.0 0.0
    outer loop
      vertex -3.000000000000e-03 2.000000000000e-03 5.778836000000e-04
      vertex -3.000000000000e-03 2.500000000000e-03 5.778836000000e-04
      vertex -3.000000000000e-03 2.500000000000e-03 8.668254000000e-04
    endloop
  endfacet
  facet normal 1.0 0.0 0.0
    outer loop
      vertex -3.000000000000e-03 2.000000000000e-03 5.778836000000e-04
      vertex -3.000000000000e-03 2.500000000000e-03 8.668254000000e-04
      vertex -3.000000000000e-03 2.000000000000e-03 8.668254000000e-04
    endloop
  endfacet
  facet normal 1.0 0.0 0.0
    outer loop
      vertex -3.000000000000e-03 2.000000000000e-03 8.668254000000e-04
      vertex -3.000000000000e-03 2.500000000000e-03 8.668254000000e-04
      vertex -3.000000000000e-03 2.500000000000e-03 1.155767200000e-03
    endloop
  endfacet
  facet normal 1.0 0.0 0.0
    outer loop
      vertex -3.000000000000e-03 2.000000000000e-03 8.668254000000e-04
      vertex -3.000000000000e-03 2.500000000000e-03 1.155767200000e-03
      vertex -3.000000000000e-03 2.000000000000e-03 1.155767200000e-03
    endloop
  endfacet
  facet normal 1.0 0.0 0.0
    outer loop
      vertex -3.000000000000e-03 2.000000000000e-03 1.155767200000e-03
      vertex -3.000000000000e-03 2.500000000000e-03 1.155767200000e-03
      vertex -3.000000000000e-03 2.500000000000e-03 1.444709000000e-03
    endloop
  endfacet
  facet normal 1.0 0.0 0.0
    outer loop
      vertex -3.000000000000e-03 2.000000000000e-03 1.155767200000e-03
      vertex -3.000000000000e-03 2.500000000000e-03 1.444709000000e-03
      vertex -3.000000000000e-03 2.000000000000e-03 1.444709000000e-03
    endloop
  endfacet
  facet normal 1.0 0.0 0.0
    outer loop
      vertex -3.000000000000e-03 2.000000000000e-03 1.444709000000e-03
      vertex -3.000000000000e-03 2.500000000000e-03 1.444709000000e-03
      vertex -3.000000000000e-03 2.500000000000e-03 1.733650800000e-03
    endloop
  endfacet
  facet normal 1.0 0.0 0.0
    outer loop
      vertex -3.000000000000e-03 2.000000000000e-03 1.444709000000e-03
      vertex -3.000000000000e-03 2.500000000000e-03 1.733650800000e-03
      vertex -3.000000000000e-03 2.000000000000e-03 1.733650800000e-03
    endloop
  endfacet
  facet normal 1.0 0.0 0.0
    outer loop
      vertex -3.000000000000e-03 2.000000000000e-03 1.733650800000e-03
      vertex -3.000000000000e-03 2.500000000000e-03 1.733650800000e-03
      vertex -3.000000000000e-03 2.500000000000e-03 2.022592600000e-03
    endloop
  endfacet
  facet normal 1.0 0.0 0.0
    outer loop
      vertex -3.000000000000e-03 2.000000000000e-03 1.733650800000e-03
      vertex -3.000000000000e-03 2.500000000000e-03 2.022592600000e-03
      vertex -3.000000000000e-03 2.000000000000e-03 2.022592600000e-03
    endloop
  endfacet
  facet normal 1.0 0.0 0.0
    outer loop
      vertex -3.000000000000e-03 2.000000000000e-03 2.022592600000e-03
      vertex -3.000000000000e-03 2.500000000000e-03 2.022592600000e-03
      vertex -3.000000000000e-03 2.500000000000e-03 2.311534400000e-03
    endloop
  endfacet
  facet normal 1.0 0.0 0.0
    outer loop
      vertex -3.000000000000e-03 2.000000000000e-03 2.022592600000e-03
      vertex -3.000000000000e-03 2.500000000000e-03 2.311534400000e-03
      vertex -3.000000000000e-03 2.000000000000e-03 2.311534400000e-03
    endloop
  endfacet
  facet normal 1.0 0.0 0.0
    outer loop
      vertex -3.000000000000e-03 2.000000000000e-03 2.311534400000e-03
      vertex -3.000000000000e-03 2.500000000000e-03 2.311534400000e-03
      vertex -3.000000000000e-03 2.500000000000e-03 2.600476200000e-03
    endloop
  endfacet
  facet normal 1.0 0.0 0.0
    outer loop
      vertex -3.000000000000e-03 2.000000000000e-03 2.311534400000e-03
      vertex -3.000000000000e-03 2.500000000000e-03 2.600476200000e-03
      vertex -3.000000000000e-03 2.000000000000e-03 2.600476200000e-03
    endloop
  endfacet
  facet normal 1.0 0.0 0.0
    outer loop
      vertex -3.000000000000e-03 2.000000000000e-03 2.600476200000e-03
      vertex -3.000000000000e-03 2.500000000000e-03 2.600476200000e-03
      vertex -3.000000000000e-03 2.500000000000e-03 2.889418000000e-03
    endloop
  endfacet
  facet normal 1.0 0.0 0.0
    outer loop
      vertex -3.000000000000e-03 2.000000000000e-03 2.600476200000e-03
      vertex -3.000000000000e-03 2.500000000000e-03 2.889418000000e-03
      vertex -3.000000000000e-03 2.000000000000e-03 2.889418000000e-03
    endloop
  endfacet
  facet normal 1.0 0.0 0.0
    outer loop
      vertex -3.000000000000e-03 2.000000000000e-03 2.889418000000e-03
      vertex -3.000000000000e-03 2.500000000000e-03 2.889418000000e-03
      vertex -3.000000000000e-03 2.500000000000e-03 3.178359800000e-03
    endloop
  endfacet
  facet normal 1.0 0.0 0.0
    outer loop
      vertex -3.000000000000e-03 2.000000000000e-03 2.889418000000e-03
      vertex -3.000000000000e-03 2.500000000000e-03 3.178359800000e-03
      vertex -3.000000000000e-03 2.000000000000e-03 3.178359800000e-03
    endloop
  endfacet
  facet normal 1.0 0.0 0.0
    outer loop
      vertex -3.000000000000e-03 2.000000000000e-03 3.178359800000e-03
      vertex -3.000000000000e-03 2.500000000000e-03 3.178359800000e-03
      vertex -3.000000000000e-03 2.500000000000e-03 3.467301600000e-03
    endloop
  endfacet
  facet normal 1.0 0.0 0.0
    outer loop
      vertex -3.000000000000e-03 2.000000000000e-03 3.178359800000e-03
      vertex -3.000000000000e-03 2.500000000000e-03 3.467301600000e-03
      vertex -3.000000000000e-03 2.000000000000e-03 3.467301600000e-03
    endloop
  endfacet
  facet normal 1.0 0.0 0.0
    outer loop
      vertex -3.000000000000e-03 2.500000000000e-03 0.000000000000e+00
      vertex -3.000000000000e-03 3.000000000000e-03 0.000000000000e+00
      vertex -3.000000000000e-03 3.000000000000e-03 2.889418000000e-04
    endloop
  endfacet
  facet normal 1.0 0.0 0.0
    outer loop
      vertex -3.000000000000e-03 2.500000000000e-03 0.000000000000e+00
      vertex -3.000000000000e-03 3.000000000000e-03 2.889418000000e-04
      vertex -3.000000000000e-03 2.500000000000e-03 2.889418000000e-04
    endloop
  endfacet
  facet normal 1.0 0.0 0.0
    outer loop
      vertex -3.000000000000e-03 2.500000000000e-03 2.889418000000e-04
      vertex -3.000000000000e-03 3.000000000000e-03 2.889418000000e-04
      vertex -3.000000000000e-03 3.000000000000e-03 5.778836000000e-04
    endloop
  endfacet
  facet normal 1.0 0.0 0.0
    outer loop
      vertex -3.000000000000e-03 2.500000000000e-03 2.889418000000e-04
      vertex -3.000000000000e-03 3.000000000000e-03 5.778836000000e-04
      vertex -3.000000000000e-03 2.500000000000e-03 5.778836000000e-04
    endloop
  endfacet
  facet normal 1.0 0.0 0.0
    outer loop
      vertex -3.000000000000e-03 2.500000000000e-03 5.778836000000e-04
      vertex -3.000000000000e-03 3.000000000000e-03 5.778836000000e-04
      vertex -3.000000000000e-03 3.000000000000e-03 8.668254000000e-04
    endloop
  endfacet
  facet normal 1.0 0.0 0.0
    outer loop
      vertex -3.000000000000e-03 2.500000000000e-03 5.778836000000e-04
      vertex -3.000000000000e-03 3.000000000000e-03 8.668254000000e-04
      vertex -3.000000000000e-03 2.500000000000e-03 8.668254000000e-04
    endloop
  endfacet
  facet normal 1.0 0.0 0.0
    outer loop
      vertex -3.000000000000e-03 2.500000000000e-03 8.668254000000e-04
      vertex -3.000000000000e-03 3.000000000000e-03 8.668254000000e-04
      vertex -3.000000000000e-03 3.000000000000e-03 1.155767200000e-03
    endloop
  endfacet
  facet normal 1.0 0.0 0.0
    outer loop
      vertex -3.000000000000e-03 2.500000000000e-03 8.668254000000e-04
      vertex -3.000000000000e-03 3.000000000000e-03 1.155767200000e-03
      vertex -3.000000000000e-03 2.500000000000e-03 1.155767200000e-03
    endloop
  endfacet
  facet normal 1.0 0.0 0.0
    outer loop
      vertex -3.000000000000e-03 2.500000000000e-03 1.155767200000e-03
      vertex -3.000000000000e-03 3.000000000000e-03 1.155767200000e-03
      vertex -3.000000000000e-03 3.000000000000e-03 1.444709000000e-03
    endloop
  endfacet
  facet normal 1.0 0.0 0.0
    outer loop
      vertex -3.000000000000e-03 2.500000000000e-03 1.155767200000e-03
      vertex -3.000000000000e-03 3.000000000000e-03 1.444709000000e-03
      vertex -3.000000000000e-03 2.500000000000e-03 1.444709000000e-03
    endloop
  endfacet
  facet normal 1.0 0.0 0.0
    outer loop
      vertex -3.000000000000e-03 2.500000000000e-03 1.444709000000e-03
      vertex -3.000000000000e-03 3.000000000000e-03 1.444709000000e-03
      vertex -3.000000000000e-03 3.000000000000e-03 1.733650800000e-03
    endloop
  endfacet
  facet normal 1.0 0.0 0.0
    outer loop
      vertex -3.000000000000e-03 2.500000000000e-03 1.444709000000e-03
      vertex -3.000000000000e-03 3.000000000000e-03 1.733650800000e-03
      vertex -3.000000000000e-03 2.500000000000e-03 1.733650800000e-03
    endloop
  endfacet
  facet normal 1.0 0.0 0.0
    outer loop
      vertex -3.000000000000e-03 2.500000000000e-03 1.733650800000e-03
      vertex -3.000000000000e-03 3.000000000000e-03 1.733650800000e-03
      vertex -3.000000000000e-03 3.000000000000e-03 2.022592600000e-03
    endloop
  endfacet
  facet normal 1.0 0.0 0.0
    outer loop
      vertex -3.000000000000e-03 2.500000000000e-03 1.733650800000e-03
      vertex -3.000000000000e-03 3.000000000000e-03 2.022592600000e-03
      vertex -3.000000000000e-03 2.500000000000e-03 2.022592600000e-03
    endloop
  endfacet
  facet normal 1.0 0.0 0.0
    outer loop
      vertex -3.000000000000e-03 2.500000000000e-03 2.022592600000e-03
      vertex -3.000000000000e-03 3.000000000000e-03 2.022592600000e-03
      vertex -3.000000000000e-03 3.000000000000e-03 2.311534400000e-03
    endloop
  endfacet
  facet normal 1.0 0.0 0.0
    outer loop
      vertex -3.000000000000e-03 2.500000000000e-03 2.022592600000e-03
      vertex -3.000000000000e-03 3.000000000000e-03 2.311534400000e-03
      vertex -3.000000000000e-03 2.500000000000e-03 2.311534400000e-03
    endloop
  endfacet
  facet normal 1.0 0.0 0.0
    outer loop
      vertex -3.000000000000e-03 2.500000000000e-03 2.311534400000e-03
      vertex -3.000000000000e-03 3.000000000000e-03 2.311534400000e-03
      vertex -3.000000000000e-03 3.000000000000e-03 2.600476200000e-03
    endloop
  endfacet
  facet normal 1.0 0.0 0.0
    outer loop
      vertex -3.000000000000e-03 2.500000000000e-03 2.311534400000e-03
      vertex -3.000000000000e-03 3.000000000000e-03 2.600476200000e-03
      vertex -3.000000000000e-03 2.500000000000e-03 2.600476200000e-03
    endloop
  endfacet
  facet normal 1.0 0.0 0.0
    outer loop
      vertex -3.000000000000e-03 2.500000000000e-03 2.600476200000e-03
      vertex -3.000000000000e-03 3.000000000000e-03 2.600476200000e-03
      vertex -3.000000000000e-03 3.000000000000e-03 2.889418000000e-03
    endloop
  endfacet
  facet normal 1.0 0.0 0.0
    outer loop
      vertex -3.000000000000e-03 2.500000000000e-03 2.600476200000e-03
      vertex -3.000000000000e-03 3.000000000000e-03 2.889418000000e-03
      vertex -3.000000000000e-03 2.500000000000e-03 2.889418000000e-03
    endloop
  endfacet
  facet normal 1.0 0.0 0.0
    outer loop
      vertex -3.000000000000e-03 2.500000000000e-03 2.889418000000e-03
      vertex -3.000000000000e-03 3.000000000000e-03 2.889418000000e-03
      vertex -3.000000000000e-03 3.000000000000e-03 3.178359800000e-03
    endloop
  endfacet
  facet normal 1.0 0.0 0.0
    outer loop
      vertex -3.000000000000e-03 2.500000000000e-03 2.889418000000e-03
      vertex -3.000000000000e-03 3.000000000000e-03 3.178359800000e-03
      vertex -3.000000000000e-03 2.500000000000e-03 3.178359800000e-03
    endloop
  endfacet
  facet normal 1.0 0.0 0.0
    outer loop
      vertex -3.000000000000e-03 2.500000000000e-03 3.178359800000e-03
      vertex -3.000000000000e-03 3.000000000000e-03 3.178359800000e-03
      vertex -3.000000000000e-03 3.000000000000e-03 3.467301600000e-03
    endloop
  endfacet
  facet normal 1.0 0.0 0.0
    outer loop
      vertex -3.000000000000e-03 2.500000000000e-03 3.178359800000e-03
      vertex -3.000000000000e-03 3.000000000000e-03 3.467301600000e-03
      vertex -3.000000000000e-03 2.500000000000e-03 3.467301600000e-03
    endloop
  endfacet
endsolid wall
