solid wall
  facet normal -1.0 0.0 0.0
    outer loop
      vertex 3.000000000000e-03 -3.000000000000e-03 0.000000000000e+00
      vertex 3.000000000000e-03 -2.500000000000e-03 2.915109666667e-04
      vertex 3.000000000000e-03 -2.500000000000e-03 0.000000000000e+00
    endloop
  endfacet
  facet normal -1.0 0.0 0.0
    outer loop
      vertex 3.000000000000e-03 -3.000000000000e-03 0.000000000000e+00
      vertex 3.000000000000e-03 -3.000000000000e-03 2.915109666667e-04
      vertex 3.000000000000e-03 -2.500000000000e-03 2.915109666667e-04
    endloop
  endfacet
  facet normal -1.0 0.0 0.0
    outer loop
      vertex 3.000000000000e-03 -3.000000000000e-03 2.915109666667e-04
      vertex 3.000000000000e-03 -2.500000000000e-03 5.830219333333e-04
      vertex 3.000000000000e-03 -2.500000000000e-03 2.915109666667e-04
    endloop
  endfacet
  facet normal -1.0 0.0 0.0
    outer loop
      vertex 3.000000000000e-03 -3.000000000000e-03 2.915109666667e-04
      vertex 3.000000000000e-03 -3.000000000000e-03 5.830219333333e-04
      vertex 3.000000000000e-03 -2.500000000000e-03 5.830219333333e-04
    endloop
  endfacet
  facet normal -1.0 0.0 0.0
    outer loop
      vertex 3.000000000000e-03 -3.000000000000e-03 5.830219333333e-04
      vertex 3.000000000000e-03 -2.500000000000e-03 8.745329000000e-04
      vertex 3.000000000000e-03 -2.500000000000e-03 5.830219333333e-04
    endloop
  endfacet
  facet normal -1.0 0.0 0.0
    outer loop
      vertex 3.000000000000e-03 -3.000000000000e-03 5.830219333333e-04
      vertex 3.000000000000e-03 -3.000000000000e-03 8.745329000000e-04
      vertex 3.000000000000e-03 -2.500000000000e-03 8.745329000000e-04
    endloop
  endfacet
  facet normal -1.0 0.0 0.0
    outer loop
      vertex 3.000000000000e-03 -3.000000000000e-03 8.745329000000e-04
      vertex 3.000000000000e-03 -2.500000000000e-03 1.166043866667e-03
      vertex 3.000000000000e-03 -2.500000000000e-03 8.745329000000e-04
    endloop
  endfacet
  facet normal -1.0 0.0 0.0
    outer loop
      vertex 3.000000000000e-03 -3.000000000000e-03 8.745329000000e-04
      vertex 3.000000000000e-03 -3.000000000000e-03 1.166043866667e-03
      vertex 3.000000000000e-03 -2.500000000000e-03 1.166043866667e-03
    endloop
  endfacet
  facet normal -1.0 0.0 0.0
    outer loop
      vertex 3.000000000000e-03 -3.000000000000e-03 1.166043866667e-03
      vertex 3.000000000000e-03 -2.500000000000e-03 1.457554833333e-03
      vertex 3.000000000000e-03 -2.500000000000e-03 1.166043866667e-03
    endloop
  endfacet
  facet normal -1.0 0.0 0.0
    outer loop
      vertex 3.000000000000e-03 -3.000000000000e-03 1.166043866667e-03
      vertex 3.000000000000e-03 -3.000000000000e-03 1.457554833333e-03
      vertex 3.000000000000e-03 -2.500000000000e-03 1.457554833333e-03
    endloop
  endfacet
  facet normal -1.0 0.0 0.0
    outer loop
      vertex 3.000000000000e-03 -3.000000000000e-03 1.457554833333e-03
      vertex 3.000000000000e-03 -2.500000000000e-03 1.749065800000e-03
      vertex 3.000000000000e-03 -2.500000000000e-03 1.457554833333e-03
    endloop
  endfacet
  facet normal -1.0 0.0 0.0
    outer loop
      vertex 3.000000000000e-03 -3.000000000000e-03 1.457554833333e-03
      vertex 3.000000000000e-03 -3.000000000000e-03 1.749065800000e-03
      vertex 3.000000000000e-03 -2.500000000000e-03 1.749065800000e-03
    endloop
  endfacet
  facet normal -1.0 0.0 0.0
    outer loop
      vertex 3.000000000000e-03 -3.000000000000e-03 1.749065800000e-03
      vertex 3.000000000000e-03 -2.500000000000e-03 2.040576766667e-03
      vertex 3.000000000000e-03 -2.500000000000e-03 1.749065800000e-03
    endloop
  endfacet
  facet normal -1.0 0.0 0.0
    outer loop
      vertex 3.000000000000e-03 -3.000000000000e-03 1.749065800000e-03
      vertex 3.000000000000e-03 -3.000000000000e-03 2.040576766667e-03
      vertex 3.000000000000e-03 -2.500000000000e-03 2.040576766667e-03
    endloop
  endfacet
  facet normal -1.0 0.0 0.0
    outer loop
      vertex 3.000000000000e-03 -3.000000000000e-03 2.040576766667e-03
      vertex 3.000000000000e-03 -2.500000000000e-03 2.332087733333e-03
      vertex 3.000000000000e-03 -2.500000000000e-03 2.040576766667e-03
    endloop
  endfacet
  facet normal -1.0 0.0 0.0
    outer loop
      vertex 3.000000000000e-03 -3.000000000000e-03 2.040576766667e-03
      vertex 3.000000000000e-03 -3.000000000000e-03 2.332087733333e-03
      vertex 3.000000000000e-03 -2.500000000000e-03 2.332087733333e-03
    endloop
  endfacet
  facet normal -1.0 0.0 0.0
    outer loop
      vertex 3.000000000000e-03 -3.000000000000e-03 2.332087733333e-03
      vertex 3.000000000000e-03 -2.500000000000e-03 2.623598700000e-03
      vertex 3.000000000000e-03 -2.500000000000e-03 2.332087733333e-03
    endloop
  endfacet
  facet normal -1.0 0.0 0.0
    outer loop
      vertex 3.000000000000e-03 -3.000000000000e-03 2.332087733333e-03
      vertex 3.000000000000e-03 -3.000000000000e-03 2.623598700000e-03
      vertex 3.000000000000e-03 -2.500000000000e-03 2.623598700000e-03
    endloop
  endfacet
  facet normal -1.0 0.0 0.0
    outer loop
      vertex 3.000000000000e-03 -3.000000000000e-03 2.623598700000e-03
      vertex 3.000000000000e-03 -2.500000000000e-03 2.915109666667e-03
      vertex 3.000000000000e-03 -2.500000000000e-03 2.623598700000e-03
    endloop
  endfacet
  facet normal -1.0 0.0 0.0
    outer loop
      vertex 3.000000000000e-03 -3.000000000000e-03 2.623598700000e-03
      vertex 3.000000000000e-03 -3.000000000000e-03 2.915109666667e-03
      vertex 3.000000000000e-03 -2.500000000000e-03 2.915109666667e-03
    endloop
  endfacet
  facet normal -1.0 0.0 0.0
    outer loop
      vertex 3.000000000000e-03 -3.000000000000e-03 2.915109666667e-03
      vertex 3.000000000000e-03 -2.500000000000e-03 3.206620633333e-03
      vertex 3.000000000000e-03 -2.500000000000e-03 2.915109666667e-03
    endloop
  endfacet
  facet normal -1.0 0.0 0.0
    outer loop
      vertex 3.000000000000e-03 -3.000000000000e-03 2.915109666667e-03
      vertex 3.000000000000e-03 -3.000000000000e-03 3.206620633333e-03
      vertex 3.000000000000e-03 -2.500000000000e-03 3.206620633333e-03
    endloop
  endfacet
  facet normal -1.0 0.0 0.0
    outer loop
      vertex 3.000000000000e-03 -3.000000000000e-03 3.206620633333e-03
      vertex 3.000000000000e-03 -2.500000000000e-03 3.498131600000e-03
      vertex 3.000000000000e-03 -2.500000000000e-03 3.206620633333e-03
    endloop
  endfacet
  facet normal -1.0 0.0 0.0
    outer loop
      vertex 3.000000000000e-03 -3.000000000000e-03 3.206620633333e-03
      vertex 3.000000000000e-03 -3.000000000000e-03 3.498131600000e-03
      vertex 3.000000000000e-03 -2.500000000000e-03 3.498131600000e-03
    endloop
  endfacet
  facet normal -1.0 0.0 0.0
    outer loop
      vertex 3.000000000000e-03 -2.500000000000e-03 0.000000000000e+00
      vertex 3.000000000000e-03 -2.000000000000e-03 2.915109666667e-04
      vertex 3.000000000000e-03 -2.000000000000e-03 0.000000000000e+00
    endloop
  endfacet
  facet normal -1.0 0.0 0.0
    outer loop
      vertex 3.000000000000e-03 -2.500000000000e-03 0.000000000000e+00
      vertex 3.000000000000e-03 -2.500000000000e-03 2.915109666667e-04
      vertex 3.000000000000e-03 -2.000000000000e-03 2.915109666667e-04
    endloop
  endfacet
  facet normal -1.0 0.0 0.0
    outer loop
      vertex 3.000000000000e-03 -2.500000000000e-03 2.915109666667e-04
      vertex 3.000000000000e-03 -2.000000000000e-03 5.830219333333e-04
      vertex 3.000000000000e-03 -2.000000000000e-03 2.915109666667e-04
    endloop
  endfacet
  facet normal -1.0 0.0 0.0
    outer loop
      vertex 3.000000000000e-03 -2.500000000000e-03 2.915109666667e-04
      vertex 3.000000000000e-03 -2.500000000000e-03 5.830219333333e-04
      vertex 3.000000000000e-03 -2.000000000000e-03 5.830219333333e-04
    endloop
  endfacet
  facet normal -1.0 0.0 0.0
    outer loop
      vertex 3.000000000000e-03 -2.500000000000e-03 5.830219333333e-04
      vertex 3.000000000000e-03 -2.000000000000e-03 8.745329000000e-04
      vertex 3.000000000000e-03 -2.000000000000e-03 5.830219333333e-04
    endloop
  endfacet
  facet normal -1.0 0.0 0.0
    outer loop
      vertex 3.000000000000e-03 -2.500000000000e-03 5.830219333333e-04
      vertex 3.000000000000e-03 -2.500000000000e-03 8.745329000000e-04
      vertex 3.000000000000e-03 -2.000000000000e-03 8.745329000000e-04
    endloop
  endfacet
  facet normal -1.0 0.0 0.0
    outer loop
      vertex 3.000000000000e-03 -2.500000000000e-03 8.745329000000e-04
      vertex 3.000000000000e-03 -2.000000000000e-03 1.166043866667e-03
      vertex 3.000000000000e-03 -2.000000000000e-03 8.745329000000e-04
    endloop
  endfacet
  facet normal -1.0 0.0 0.0
    outer loop
      vertex 3.000000000000e-03 -2.500000000000e-03 8.745329000000e-04
      vertex 3.000000000000e-03 -2.500000000000e-03 1.166043866667e-03
      vertex 3.000000000000e-03 -2.000000000000e-03 1.166043866667e-03
    endloop
  endfacet
  facet normal -1.0 0.0 0.0
    outer loop
      vertex 3.000000000000e-03 -2.500000000000e-03 1.166043866667e-03
      vertex 3.000000000000e-03 -2.000000000000e-03 1.457554833333e-03
      vertex 3.000000000000e-03 -2.000000000000e-03 1.166043866667e-03
    endloop
  endfacet
  facet normal -1.0 0.0 0.0
    outer loop
      vertex 3.000000000000e-03 -2.500000000000e-03 1.166043866667e-03
      vertex 3.000000000000e-03 -2.500000000000e-03 1.457554833333e-03
      vertex 3.000000000000e-03 -2.000000000000e-03 1.457554833333e-03
    endloop
  endfacet
  facet normal -1.0 0.0 0.0
    outer loop
      vertex 3.000000000000e-03 -2.500000000000e-03 1.457554833333e-03
      vertex 3.000000000000e-03 -2.000000000000e-03 1.749065800000e-03
      vertex 3.000000000000e-03 -2.000000000000e-03 1.457554833333e-03
    endloop
  endfacet
  facet normal -1.0 0.0 0.0
    outer loop
      vertex 3.000000000000e-03 -2.500000000000e-03 1.457554833333e-03
      vertex 3.000000000000e-03 -2.500000000000e-03 1.749065800000e-03
      vertex 3.000000000000e-03 -2.000000000000e-03 1.749065800000e-03
    endloop
  endfacet
  facet normal -1.0 0.0 0.0
    outer loop
      vertex 3.000000000000e-03 -2.500000000000e-03 1.749065800000e-03
      vertex 3.000000000000e-03 -2.000000000000e-03 2.040576766667e-03
      vertex 3.000000000000e-03 -2.000000000000e-03 1.749065800000e-03
    endloop
  endfacet
  facet normal -1.0 0.0 0.0
    outer loop
      vertex 3.000000000000e-03 -2.500000000000e-03 1.749065800000e-03
      vertex 3.000000000000e-03 -2.500000000000e-03 2.040576766667e-03
      vertex 3.000000000000e-03 -2.000000000000e-03 2.040576766667e-03
    endloop
  endfacet
  facet normal -1.0 0.0 0.0
    outer loop
      vertex 3.000000000000e-03 -2.500000000000e-03 2.040576766667e-03
      vertex 3.000000000000e-03 -2.000000000000e-03 2.332087733333e-03
      vertex 3.000000000000e-03 -2.000000000000e-03 2.040576766667e-03
    endloop
  endfacet
  facet normal -1.0 0.0 0.0
    outer loop
      vertex 3.000000000000e-03 -2.500000000000e-03 2.040576766667e-03
      vertex 3.000000000000e-03 -2.500000000000e-03 2.332087733333e-03
      vertex 3.000000000000e-03 -2.000000000000e-03 2.332087733333e-03
    endloop
  endfacet
  facet normal -1.0 0.0 0.0
    outer loop
      vertex 3.000000000000e-03 -2.500000000000e-03 2.332087733333e-03
      vertex 3.000000000000e-03 -2.000000000000e-03 2.623598700000e-03
      vertex 3.000000000000e-03 -2.000000000000e-03 2.332087733333e-03
    endloop
  endfacet
  facet normal -1.0 0.0 0.0
    outer loop
      vertex 3.000000000000e-03 -2.500000000000e-03 2.332087733333e-03
      vertex 3.000000000000e-03 -2.500000000000e-03 2.623598700000e-03
      vertex 3.000000000000e-03 -2.000000000000e-03 2.623598700000e-03
    endloop
  endfacet
  facet normal -1.0 0.0 0.0
    outer loop
      vertex 3.000000000000e-03 -2.500000000000e-03 2.623598700000e-03
      vertex 3.000000000000e-03 -2.000000000000e-03 2.915109666667e-03
      vertex 3.000000000000e-03 -2.000000000000e-03 2.623598700000e-03
    endloop
  endfacet
  facet normal -1.0 0.0 0.0
    outer loop
      vertex 3.000000000000e-03 -2.500000000000e-03 2.623598700000e-03
      vertex 3.000000000000e-03 -2.500000000000e-03 2.915109666667e-03
      vertex 3.000000000000e-03 -2.000000000000e-03 2.915109666667e-03
    endloop
  endfacet
  facet normal -1.0 0.0 0.0
    outer loop
      vertex 3.000000000000e-03 -2.500000000000e-03 2.915109666667e-03
      vertex 3.000000000000e-03 -2.000000000000e-03 3.206620633333e-03
      vertex 3.000000000000e-03 -2.000000000000e-03 2.915109666667e-03
    endloop
  endfacet
  facet normal -1.0 0.0 0.0
    outer loop
      vertex 3.000000000000e-03 -2.500000000000e-03 2.915109666667e-03
      vertex 3.000000000000e-03 -2.500000000000e-03 3.206620633333e-03
      vertex 3.000000000000e-03 -2.000000000000e-03 3.206620633333e-03
    endloop
  endfacet
  facet normal -1.0 0.0 0.0
    outer loop
      vertex 3.000000000000e-03 -2.500000000000e-03 3.206620633333e-03
      vertex 3.000000000000e-03 -2.000000000000e-03 3.498131600000e-03
      vertex 3.000000000000e-03 -2.000000000000e-03 3.206620633333e-03
    endloop
  endfacet
  facet normal -1.0 0.0 0.0
    outer loop
      vertex 3.000000000000e-03 -2.500000000000e-03 3.206620633333e-03
      vertex 3.000000000000e-03 -2.500000000000e-03 3.498131600000e-03
      vertex 3.000000000000e-03 -2.000000000000e-03 3.498131600000e-03
    endloop
  endfacet
  facet normal -1.0 0.0 0.0
    outer loop
      vertex 3.000000000000e-03 -2.000000000000e-03 0.000000000000e+00
      vertex 3.000000000000e-03 -1.500000000000e-03 2.915109666667e-04
      vertex 3.000000000000e-03 -1.500000000000e-03 0.000000000000e+00
    endloop
  endfacet
  facet normal -1.0 0.0 0.0
    outer loop
      vertex 3.000000000000e-03 -2.000000000000e-03 0.000000000000e+00
      vertex 3.000000000000e-03 -2.000000000000e-03 2.915109666667e-04
      vertex 3.000000000000e-03 -1.500000000000e-03 2.915109666667e-04
    endloop
  endfacet
  facet normal -1.0 0.0 0.0
    outer loop
      vertex 3.000000000000e-03 -2.000000000000e-03 2.915109666667e-04
      vertex 3.000000000000e-03 -1.500000000000e-03 5.830219333333e-04
      vertex 3.000000000000e-03 -1.500000000000e-03 2.915109666667e-04
    endloop
  endfacet
  facet normal -1.0 0.0 0.0
    outer loop
      vertex 3.000000000000e-03 -2.000000000000e-03 2.915109666667e-04
      vertex 3.000000000000e-03 -2.000000000000e-03 5.830219333333e-04
      vertex 3.000000000000e-03 -1.500000000000e-03 5.830219333333e-04
    endloop
  endfacet
  facet normal -1.0 0.0 0.0
    outer loop
      vertex 3.000000000000e-03 -2.000000000000e-03 5.830219333333e-04
      vertex 3.000000000000e-03 -1.500000000000e-03 8.745329000000e-04
      vertex 3.000000000000e-03 -1.500000000000e-03 5.830219333333e-04
    endloop
  endfacet
  facet normal -1.0 0.0 0.0
    outer loop
      vertex 3.000000000000e-03 -2.000000000000e-03 5.830219333333e-04
      vertex 3.000000000000e-03 -2.000000000000e-03 8.745329000000e-04
      vertex 3.000000000000e-03 -1.500000000000e-03 8.745329000000e-04
    endloop
  endfacet
  facet normal -1.0 0.0 0.0
    outer loop
      vertex 3.000000000000e-03 -2.000000000000e-03 8.745329000000e-04
      vertex 3.000000000000e-03 -1.500000000000e-03 1.166043866667e-03
      vertex 3.000000000000e-03 -1.500000000000e-03 8.745329000000e-04
    endloop
  endfacet
  facet normal -1.0 0.0 0.0
    outer loop
      vertex 3.000000000000e-03 -2.000000000000e-03 8.745329000000e-04
      vertex 3.000000000000e-03 -2.000000000000e-03 1.166043866667e-03
      vertex 3.000000000000e-03 -1.500000000000e-03 1.166043866667e-03
    endloop
  endfacet
  facet normal -1.0 0.0 0.0
    outer loop
      vertex 3.000000000000e-03 -2.000000000000e-03 1.166043866667e-03
      vertex 3.000000000000e-03 -1.500000000000e-03 1.457554833333e-03
      vertex 3.000000000000e-03 -1.500000000000e-03 1.166043866667e-03
    endloop
  endfacet
  facet normal -1.0 0.0 0.0
    outer loop
      vertex 3.000000000000e-03 -2.000000000000e-03 1.166043866667e-03
      vertex 3.000000000000e-03 -2.000000000000e-03 1.457554833333e-03
      vertex 3.000000000000e-03 -1.500000000000e-03 1.457554833333e-03
    endloop
  endfacet
  facet normal -1.0 0.0 0.0
    outer loop
      vertex 3.000000000000e-03 -2.000000000000e-03 1.457554833333e-03
      vertex 3.000000000000e-03 -1.500000000000e-03 1.749065800000e-03
      vertex 3.000000000000e-03 -1.500000000000e-03 1.457554833333e-03
    endloop
  endfacet
  facet normal -1.0 0.0 0.0
    outer loop
      vertex 3.000000000000e-03 -2.000000000000e-03 1.457554833333e-03
      vertex 3.000000000000e-03 -2.000000000000e-03 1.749065800000e-03
      vertex 3.000000000000e-03 -1.500000000000e-03 1.749065800000e-03
    endloop
  endfacet
  facet normal -1.0 0.0 0.0
    outer loop
      vertex 3.000000000000e-03 -2.000000000000e-03 1.749065800000e-03
      vertex 3.000000000000e-03 -1.500000000000e-03 2.040576766667e-03
      vertex 3.000000000000e-03 -1.500000000000e-03 1.749065800000e-03
    endloop
  endfacet
  facet normal -1.0 0.0 0.0
    outer loop
      vertex 3.000000000000e-03 -2.000000000000e-03 1.749065800000e-03
      vertex 3.000000000000e-03 -2.000000000000e-03 2.040576766667e-03
      vertex 3.000000000000e-03 -1.500000000000e-03 2.040576766667e-03
    endloop
  endfacet
  facet normal -1.0 0.0 0.0
    outer loop
      vertex 3.000000000000e-03 -2.000000000000e-03 2.040576766667e-03
      vertex 3.000000000000e-03 -1.500000000000e-03 2.332087733333e-03
      vertex 3.000000000000e-03 -1.500000000000e-03 2.040576766667e-03
    endloop
  endfacet
  facet normal -1.0 0.0 0.0
    outer loop
      vertex 3.000000000000e-03 -2.000000000000e-03 2.040576766667e-03
      vertex 3.000000000000e-03 -2.000000000000e-03 2.332087733333e-03
      vertex 3.000000000000e-03 -1.500000000000e-03 2.332087733333e-03
    endloop
  endfacet
  facet normal -1.0 0.0 0.0
    outer loop
      vertex 3.000000000000e-03 -2.000000000000e-03 2.332087733333e-03
      vertex 3.000000000000e-03 -1.500000000000e-03 2.623598700000e-03
      vertex 3.000000000000e-03 -1.500000000000e-03 2.332087733333e-03
    endloop
  endfacet
  facet normal -1.0 0.0 0.0
    outer loop
      vertex 3.000000000000e-03 -2.000000000000e-03 2.332087733333e-03
      vertex 3.000000000000e-03 -2.000000000000e-03 2.623598700000e-03
      vertex 3.000000000000e-03 -1.500000000000e-03 2.623598700000e-03
    endloop
  endfacet
  facet normal -1.0 0.0 0.0
    outer loop
      vertex 3.000000000000e-03 -2.000000000000e-03 2.623598700000e-03
      vertex 3.000000000000e-03 -1.500000000000e-03 2.915109666667e-03
      vertex 3.000000000000e-03 -1.500000000000e-03 2.623598700000e-03
    endloop
  endfacet
  facet normal -1.0 0.0 0.0
    outer loop
      vertex 3.000000000000e-03 -2.000000000000e-03 2.623598700000e-03
      vertex 3.000000000000e-03 -2.000000000000e-03 2.915109666667e-03
      vertex 3.000000000000e-03 -1.500000000000e-03 2.915109666667e-03
    endloop
  endfacet
  facet normal -1.0 0.0 0.0
    outer loop
      vertex 3.000000000000e-03 -2.000000000000e-03 2.915109666667e-03
      vertex 3.000000000000e-03 -1.500000000000e-03 3.206620633333e-03
      vertex 3.000000000000e-03 -1.500000000000e-03 2.915109666667e-03
    endloop
  endfacet
  facet normal -1.0 0.0 0.0
    outer loop
      vertex 3.000000000000e-03 -2.000000000000e-03 2.915109666667e-03
      vertex 3.000000000000e-03 -2.000000000000e-03 3.206620633333e-03
      vertex 3.000000000000e-03 -1.500000000000e-03 3.206620633333e-03
    endloop
  endfacet
  facet normal -1.0 0.0 0.0
    outer loop
      vertex 3.000000000000e-03 -2.000000000000e-03 3.206620633333e-03
      vertex 3.000000000000e-03 -1.500000000000e-03 3.498131600000e-03
      vertex 3.000000000000e-03 -1.500000000000e-03 3.206620633333e-03
    endloop
  endfacet
  facet normal -1.0 0.0 0.0
    outer loop
      vertex 3.000000000000e-03 -2.000000000000e-03 3.206620633333e-03
      vertex 3.000000000000e-03 -2.000000000000e-03 3.498131600000e-03
      vertex 3.000000000000e-03 -1.500000000000e-03 3.498131600000e-03
    endloop
  endfacet
  facet normal -1.0 0.0 0.0
    outer loop
      vertex 3.000000000000e-03 -1.500000000000e-03 0.000000000000e+00
      vertex 3.000000000000e-03 -1.000000000000e-03 2.915109666667e-04
      vertex 3.000000000000e-03 -1.000000000000e-03 0.000000000000e+00
    endloop
  endfacet
  facet normal -1.0 0.0 0.0
    outer loop
      vertex 3.000000000000e-03 -1.500000000000e-03 0.000000000000e+00
      vertex 3.000000000000e-03 -1.500000000000e-03 2.915109666667e-04
      vertex 3.000000000000e-03 -1.000000000000e-03 2.915109666667e-04
    endloop
  endfacet
  facet normal -1.0 0.0 0.0
    outer loop
      vertex 3.000000000000e-03 -1.500000000000e-03 2.915109666667e-04
      vertex 3.000000000000e-03 -1.000000000000e-03 5.830219333333e-04
      vertex 3.000000000000e-03 -1.000000000000e-03 2.915109666667e-04
    endloop
  endfacet
  facet normal -1.0 0.0 0.0
    outer loop
      vertex 3.000000000000e-03 -1.500000000000e-03 2.915109666667e-04
      vertex 3.000000000000e-03 -1.500000000000e-03 5.830219333333e-04
      vertex 3.000000000000e-03 -1.000000000000e-03 5.830219333333e-04
    endloop
  endfacet
  facet normal -1.0 0.0 0.0
    outer loop
      vertex 3.000000000000e-03 -1.500000000000e-03 5.830219333333e-04
      vertex 3.000000000000e-03 -1.000000000000e-03 8.745329000000e-04
      vertex 3.000000000000e-03 -1.000000000000e-03 5.830219333333e-04
    endloop
  endfacet
  facet normal -1.0 0.0 0.0
    outer loop
      vertex 3.000000000000e-03 -1.500000000000e-03 5.830219333333e-04
      vertex 3.000000000000e-03 -1.500000000000e-03 8.745329000000e-04
      vertex 3.000000000000e-03 -1.000000000000e-03 8.745329000000e-04
    endloop
  endfacet
  facet normal -1.0 0.0 0.0
    outer loop
      vertex 3.000000000000e-03 -1.500000000000e-03 8.745329000000e-04
      vertex 3.000000000000e-03 -1.000000000000e-03 1.166043866667e-03
      vertex 3.000000000000e-03 -1.000000000000e-03 8.745329000000e-04
    endloop
  endfacet
  facet normal -1.0 0.0 0.0
    outer loop
      vertex 3.000000000000e-03 -1.500000000000e-03 8.745329000000e-04
      vertex 3.000000000000e-03 -1.500000000000e-03 1.166043866667e-03
      vertex 3.000000000000e-03 -1.000000000000e-03 1.166043866667e-03
    endloop
  endfacet
  facet normal -1.0 0.0 0.0
    outer loop
      vertex 3.000000000000e-03 -1.500000000000e-03 1.166043866667e-03
      vertex 3.000000000000e-03 -1.000000000000e-03 1.457554833333e-03
      vertex 3.000000000000e-03 -1.000000000000e-03 1.166043866667e-03
    endloop
  endfacet
  facet normal -1.0 0.0 0.0
    outer loop
      vertex 3.000000000000e-03 -1.500000000000e-03 1.166043866667e-03
      vertex 3.000000000000e-03 -1.500000000000e-03 1.457554833333e-03
      vertex 3.000000000000e-03 -1.000000000000e-03 1.457554833333e-03
    endloop
  endfacet
  facet normal -1.0 0.0 0.0
    outer loop
      vertex 3.000000000000e-03 -1.500000000000e-03 1.457554833333e-03
      vertex 3.000000000000e-03 -1.000000000000e-03 1.749065800000e-03
      vertex 3.000000000000e-03 -1.000000000000e-03 1.457554833333e-03
    endloop
  endfacet
  facet normal -1.0 0.0 0.0
    outer loop
      vertex 3.000000000000e-03 -1.500000000000e-03 1.457554833333e-03
      vertex 3.000000000000e-03 -1.500000000000e-03 1.749065800000e-03
      vertex 3.000000000000e-03 -1.000000000000e-03 1.749065800000e-03
    endloop
  endfacet
  facet normal -1.0 0.0 0.0
    outer loop
      vertex 3.000000000000e-03 -1.500000000000e-03 1.749065800000e-03
      vertex 3.000000000000e-03 -1.000000000000e-03 2.040576766667e-03
      vertex 3.000000000000e-03 -1.000000000000e-03 1.749065800000e-03
    endloop
  endfacet
  facet normal -1.0 0.0 0.0
    outer loop
      vertex 3.000000000000e-03 -1.500000000000e-03 1.749065800000e-03
      vertex 3.000000000000e-03 -1.500000000000e-03 2.040576766667e-03
      vertex 3.000000000000e-03 -1.000000000000e-03 2.040576766667e-03
    endloop
  endfacet
  facet normal -1.0 0.0 0.0
    outer loop
      vertex 3.000000000000e-03 -1.500000000000e-03 2.040576766667e-03
      vertex 3.000000000000e-03 -1.000000000000e-03 2.332087733333e-03
      vertex 3.000000000000e-03 -1.000000000000e-03 2.040576766667e-03
    endloop
  endfacet
  facet normal -1.0 0.0 0.0
    outer loop
      vertex 3.000000000000e-03 -1.500000000000e-03 2.040576766667e-03
      vertex 3.000000000000e-03 -1.500000000000e-03 2.332087733333e-03
      vertex 3.000000000000e-03 -1.000000000000e-03 2.332087733333e-03
    endloop
  endfacet
  facet normal -1.0 0.0 0.0
    outer loop
      vertex 3.000000000000e-03 -1.500000000000e-03 2.332087733333e-03
      vertex 3.000000000000e-03 -1.000000000000e-03 2.623598700000e-03
      vertex 3.000000000000e-03 -1.000000000000e-03 2.332087733333e-03
    endloop
  endfacet
  facet normal -1.0 0.0 0.0
    outer loop
      vertex 3.000000000000e-03 -1.500000000000e-03 2.332087733333e-03
      vertex 3.000000000000e-03 -1.500000000000e-03 2.623598700000e-03
      vertex 3.000000000000e-03 -1.000000000000e-03 2.623598700000e-03
    endloop
  endfacet
  facet normal -1.0 0.0 0.0
    outer loop
      vertex 3.000000000000e-03 -1.500000000000e-03 2.623598700000e-03
      vertex 3.000000000000e-03 -1.000000000000e-03 2.915109666667e-03
      vertex 3.000000000000e-03 -1.000000000000e-03 2.623598700000e-03
    endloop
  endfacet
  facet normal -1.0 0.0 0.0
    outer loop
      vertex 3.000000000000e-03 -1.500000000000e-03 2.623598700000e-03
      vertex 3.000000000000e-03 -1.500000000000e-03 2.915109666667e-03
      vertex 3.000000000000e-03 -1.000000000000e-03 2.915109666667e-03
    endloop
  endfacet
  facet normal -1.0 0.0 0.0
    outer loop
      vertex 3.000000000000e-03 -1.500000000000e-03 2.915109666667e-03
      vertex 3.000000000000e-03 -1.000000000000e-03 3.206620633333e-03
      vertex 3.000000000000e-03 -1.000000000000e-03 2.915109666667e-03
    endloop
  endfacet
  facet normal -1.0 0.0 0.0
    outer loop
      vertex 3.000000000000e-03 -1.500000000000e-03 2.915109666667e-03
      vertex 3.000000000000e-03 -1.500000000000e-03 3.206620633333e-03
      vertex 3.000000000000e-03 -1.000000000000e-03 3.206620633333e-03
    endloop
  endfacet
  facet normal -1.0 0.0 0.0
    outer loop
      vertex 3.000000000000e-03 -1.500000000000e-03 3.206620633333e-03
      vertex 3.000000000000e-03 -1.000000000000e-03 3.498131600000e-03
      vertex 3.000000000000e-03 -1.000000000000e-03 3.206620633333e-03
    endloop
  endfacet
  facet normal -1.0 0.0 0.0
    outer loop
      vertex 3.000000000000e-03 -1.500000000000e-03 3.206620633333e-03
      vertex 3.000000000000e-03 -1.500000000000e-03 3.498131600000e-03
      vertex 3.000000000000e-03 -1.000000000000e-03 3.498131600000e-03
    endloop
  endfacet
  facet normal -1.0 0.0 0.0
    outer loop
      vertex 3.000000000000e-03 -1.000000000000e-03 0.000000000000e+00
      vertex 3.000000000000e-03 -5.000000000000e-04 2.915109666667e-04
      vertex 3.000000000000e-03 -5.000000000000e-04 0.000000000000e+00
    endloop
  endfacet
  facet normal -1.0 0.0 0.0
    outer loop
      vertex 3.000000000000e-03 -1.000000000000e-03 0.000000000000e+00
      vertex 3.000000000000e-03 -1.000000000000e-03 2.915109666667e-04
      vertex 3.000000000000e-03 -5.000000000000e-04 2.915109666667e-04
    endloop
  endfacet
  facet normal -1.0 0.0 0.0
    outer loop
      vertex 3.000000000000e-03 -1.000000000000e-03 2.915109666667e-04
      vertex 3.000000000000e-03 -5.000000000000e-04 5.830219333333e-04
      vertex 3.000000000000e-03 -5.000000000000e-04 2.915109666667e-04
    endloop
  endfacet
  facet normal -1.0 0.0 0.0
    outer loop
      vertex 3.000000000000e-03 -1.000000000000e-03 2.915109666667e-04
      vertex 3.000000000000e-03 -1.000000000000e-03 5.830219333333e-04
      vertex 3.000000000000e-03 -5.000000000000e-04 5.830219333333e-04
    endloop
  endfacet
  facet normal -1.0 0.0 0.0
    outer loop
      vertex 3.000000000000e-03 -1.000000000000e-03 5.830219333333e-04
      vertex 3.000000000000e-03 -5.000000000000e-04 8.745329000000e-04
      vertex 3.000000000000e-03 -5.000000000000e-04 5.830219333333e-04
    endloop
  endfacet
  facet normal -1.0 0.0 0.0
    outer loop
      vertex 3.000000000000e-03 -1.000000000000e-03 5.830219333333e-04
      vertex 3.000000000000e-03 -1.000000000000e-03 8.745329000000e-04
      vertex 3.000000000000e-03 -5.000000000000e-04 8.745329000000e-04
    endloop
  endfacet
  facet normal -1.0 0.0 0.0
    outer loop
      vertex 3.000000000000e-03 -1.000000000000e-03 8.745329000000e-04
      vertex 3.000000000000e-03 -5.000000000000e-04 1.166043866667e-03
      vertex 3.000000000000e-03 -5.000000000000e-04 8.745329000000e-04
    endloop
  endfacet
  facet normal -1.0 0.0 0.0
    outer loop
      vertex 3.000000000000e-03 -1.000000000000e-03 8.745329000000e-04
      vertex 3.000000000000e-03 -1.000000000000e-03 1.166043866667e-03
      vertex 3.000000000000e-03 -5.000000000000e-04 1.166043866667e-03
    endloop
  endfacet
  facet normal -1.0 0.0 0.0
    outer loop
      vertex 3.000000000000e-03 -1.000000000000e-03 1.166043866667e-03
      vertex 3.000000000000e-03 -5.000000000000e-04 1.457554833333e-03
      vertex 3.000000000000e-03 -5.000000000000e-04 1.166043866667e-03
    endloop
  endfacet
  facet normal -1.0 0.0 0.0
    outer loop
      vertex 3.000000000000e-03 -1.000000000000e-03 1.166043866667e-03
      vertex 3.000000000000e-03 -1.000000000000e-03 1.457554833333e-03
      vertex 3.000000000000e-03 -5.000000000000e-04 1.457554833333e-03
    endloop
  endfacet
  facet normal -1.0 0.0 0.0
    outer loop
      vertex 3.000000000000e-03 -1.000000000000e-03 1.457554833333e-03
      vertex 3.000000000000e-03 -5.000000000000e-04 1.749065800000e-03
      vertex 3.000000000000e-03 -5.000000000000e-04 1.457554833333e-03
    endloop
  endfacet
  facet normal -1.0 0.0 0.0
    outer loop
      vertex 3.000000000000e-03 -1.000000000000e-03 1.457554833333e-03
      vertex 3.000000000000e-03 -1.000000000000e-03 1.749065800000e-03
      vertex 3.000000000000e-03 -5.000000000000e-04 1.749065800000e-03
    endloop
  endfacet
  facet normal -1.0 0.0 0.0
    outer loop
      vertex 3.000000000000e-03 -1.000000000000e-03 1.749065800000e-03
      vertex 3.000000000000e-03 -5.000000000000e-04 2.040576766667e-03
      vertex 3.000000000000e-03 -5.000000000000e-04 1.749065800000e-03
    endloop
  endfacet
  facet normal -1.0 0.0 0.0
    outer loop
      vertex 3.000000000000e-03 -1.000000000000e-03 1.749065800000e-03
      vertex 3.000000000000e-03 -1.000000000000e-03 2.040576766667e-03
      vertex 3.000000000000e-03 -5.000000000000e-04 2.040576766667e-03
    endloop
  endfacet
  facet normal -1.0 0.0 0.0
    outer loop
      vertex 3.000000000000e-03 -1.000000000000e-03 2.040576766667e-03
      vertex 3.000000000000e-03 -5.000000000000e-04 2.332087733333e-03
      vertex 3.000000000000e-03 -5.000000000000e-04 2.040576766667e-03
    endloop
  endfacet
  facet normal -1.0 0.0 0.0
    outer loop
      vertex 3.000000000000e-03 -1.000000000000e-03 2.040576766667e-03
      vertex 3.000000000000e-03 -1.000000000000e-03 2.332087733333e-03
      vertex 3.000000000000e-03 -5.000000000000e-04 2.332087733333e-03
    endloop
  endfacet
  facet normal -1.0 0.0 0.0
    outer loop
      vertex 3.000000000000e-03 -1.000000000000e-03 2.332087733333e-03
      vertex 3.000000000000e-03 -5.000000000000e-04 2.623598700000e-03
      vertex 3.000000000000e-03 -5.000000000000e-04 2.332087733333e-03
    endloop
  endfacet
  facet normal -1.0 0.0 0.0
    outer loop
      vertex 3.000000000000e-03 -1.000000000000e-03 2.332087733333e-03
      vertex 3.000000000000e-03 -1.000000000000e-03 2.623598700000e-03
      vertex 3.000000000000e-03 -5.000000000000e-04 2.623598700000e-03
    endloop
  endfacet
  facet normal -1.0 0.0 0.0
    outer loop
      vertex 3.000000000000e-03 -1.000000000000e-03 2.623598700000e-03
      vertex 3.000000000000e-03 -5.000000000000e-04 2.915109666667e-03
      vertex 3.000000000000e-03 -5.000000000000e-04 2.623598700000e-03
    endloop
  endfacet
  facet normal -1.0 0.0 0.0
    outer loop
      vertex 3.000000000000e-03 -1.000000000000e-03 2.623598700000e-03
      vertex 3.000000000000e-03 -1.000000000000e-03 2.915109666667e-03
      vertex 3.000000000000e-03 -5.000000000000e-04 2.915109666667e-03
    endloop
  endfacet
  facet normal -1.0 0.0 0.0
    outer loop
      vertex 3.000000000000e-03 -1.000000000000e-03 2.915109666667e-03
      vertex 3.000000000000e-03 -5.000000000000e-04 3.206620633333e-03
      vertex 3.000000000000e-03 -5.000000000000e-04 2.915109666667e-03
    endloop
  endfacet
  facet normal -1.0 0.0 0.0
    outer loop
      vertex 3.000000000000e-03 -1.000000000000e-03 2.915109666667e-03
      vertex 3.000000000000e-03 -1.000000000000e-03 3.206620633333e-03
      vertex 3.000000000000e-03 -5.000000000000e-04 3.206620633333e-03
    endloop
  endfacet
  facet normal -1.0 0.0 0.0
    outer loop
      vertex 3.000000000000e-03 -1.000000000000e-03 3.206620633333e-03
      vertex 3.000000000000e-03 -5.000000000000e-04 3.498131600000e-03
      vertex 3.000000000000e-03 -5.000000000000e-04 3.206620633333e-03
    endloop
  endfacet
  facet normal -1.0 0.0 0.0
    outer loop
      vertex 3.000000000000e-03 -1.000000000000e-03 3.206620633333e-03
      vertex 3.000000000000e-03 -1.000000000000e-03 3.498131600000e-03
      vertex 3.000000000000e-03 -5.000000000000e-04 3.498131600000e-03
    endloop
  endfacet
  facet normal -1.0 0.0 0.0
    outer loop
      vertex 3.000000000000e-03 -5.000000000000e-04 0.000000000000e+00
      vertex 3.000000000000e-03 0.000000000000e+00 2.915109666667e-04
      vertex 3.000000000000e-03 0.000000000000e+00 0.000000000000e+00
    endloop
  endfacet
  facet normal -1.0 0.0 0.0
    outer loop
      vertex 3.000000000000e-03 -5.000000000000e-04 0.000000000000e+00
      vertex 3.000000000000e-03 -5.000000000000e-04 2.915109666667e-04
      vertex 3.000000000000e-03 0.000000000000e+00 2.915109666667e-04
    endloop
  endfacet
  facet normal -1.0 0.0 0.0
    outer loop
      vertex 3.000000000000e-03 -5.000000000000e-04 2.915109666667e-04
      vertex 3.000000000000e-03 0.000000000000e+00 5.830219333333e-04
      vertex 3.000000000000e-03 0.000000000000e+00 2.915109666667e-04
    endloop
  endfacet
  facet normal -1.0 0.0 0.0
    outer loop
      vertex 3.000000000000e-03 -5.000000000000e-04 2.915109666667e-04
      vertex 3.000000000000e-03 -5.000000000000e-04 5.830219333333e-04
      vertex 3.000000000000e-03 0.000000000000e+00 5.830219333333e-04
    endloop
  endfacet
  facet normal -1.0 0.0 0.0
    outer loop
      vertex 3.000000000000e-03 -5.000000000000e-04 5.830219333333e-04
      vertex 3.000000000000e-03 0.000000000000e+00 8.745329000000e-04
      vertex 3.000000000000e-03 0.000000000000e+00 5.830219333333e-04
    endloop
  endfacet
  facet normal -1.0 0.0 0.0
    outer loop
      vertex 3.000000000000e-03 -5.000000000000e-04 5.830219333333e-04
      vertex 3.000000000000e-03 -5.000000000000e-04 8.745329000000e-04
      vertex 3.000000000000e-03 0.000000000000e+00 8.745329000000e-04
    endloop
  endfacet
  facet normal -1.0 0.0 0.0
    outer loop
      vertex 3.000000000000e-03 -5.000000000000e-04 8.745329000000e-04
      vertex 3.000000000000e-03 0.000000000000e+00 1.166043866667e-03
      vertex 3.000000000000e-03 0.000000000000e+00 8.745329000000e-04
    endloop
  endfacet
  facet normal -1.0 0.0 0.0
    outer loop
      vertex 3.000000000000e-03 -5.000000000000e-04 8.745329000000e-04
      vertex 3.000000000000e-03 -5.000000000000e-04 1.166043866667e-03
      vertex 3.000000000000e-03 0.000000000000e+00 1.166043866667e-03
    endloop
  endfacet
  facet normal -1.0 0.0 0.0
    outer loop
      vertex 3.000000000000e-03 -5.000000000000e-04 1.166043866667e-03
      vertex 3.000000000000e-03 0.000000000000e+00 1.457554833333e-03
      vertex 3.000000000000e-03 0.000000000000e+00 1.166043866667e-03
    endloop
  endfacet
  facet normal -1.0 0.0 0.0
    outer loop
      vertex 3.000000000000e-03 -5.000000000000e-04 1.166043866667e-03
      vertex 3.000000000000e-03 -5.000000000000e-04 1.457554833333e-03
      vertex 3.000000000000e-03 0.000000000000e+00 1.457554833333e-03
    endloop
  endfacet
  facet normal -1.0 0.0 0.0
    outer loop
      vertex 3.000000000000e-03 -5.000000000000e-04 1.457554833333e-03
      vertex 3.000000000000e-03 0.000000000000e+00 1.749065800000e-03
      vertex 3.000000000000e-03 0.000000000000e+00 1.457554833333e-03
    endloop
  endfacet
  facet normal -1.0 0.0 0.0
    outer loop
      vertex 3.000000000000e-03 -5.000000000000e-04 1.457554833333e-03
      vertex 3.000000000000e-03 -5.000000000000e-04 1.749065800000e-03
      vertex 3.000000000000e-03 0.000000000000e+00 1.749065800000e-03
    endloop
  endfacet
  facet normal -1.0 0.0 0.0
    outer loop
      vertex 3.000000000000e-03 -5.000000000000e-04 1.749065800000e-03
      vertex 3.000000000000e-03 0.000000000000e+00 2.040576766667e-03
      vertex 3.000000000000e-03 0.000000000000e+00 1.749065800000e-03
    endloop
  endfacet
  facet normal -1.0 0.0 0.0
    outer loop
      vertex 3.000000000000e-03 -5.000000000000e-04 1.749065800000e-03
      vertex 3.000000000000e-03 -5.000000000000e-04 2.040576766667e-03
      vertex 3.000000000000e-03 0.000000000000e+00 2.040576766667e-03
    endloop
  endfacet
  facet normal -1.0 0.0 0.0
    outer loop
      vertex 3.000000000000e-03 -5.000000000000e-04 2.040576766667e-03
      vertex 3.000000000000e-03 0.000000000000e+00 2.332087733333e-03
      vertex 3.000000000000e-03 0.000000000000e+00 2.040576766667e-03
    endloop
  endfacet
  facet normal -1.0 0.0 0.0
    outer loop
      vertex 3.000000000000e-03 -5.000000000000e-04 2.040576766667e-03
      vertex 3.000000000000e-03 -5.000000000000e-04 2.332087733333e-03
      vertex 3.000000000000e-03 0.000000000000e+00 2.332087733333e-03
    endloop
  endfacet
  facet normal -1.0 0.0 0.0
    outer loop
      vertex 3.000000000000e-03 -5.000000000000e-04 2.332087733333e-03
      vertex 3.000000000000e-03 0.000000000000e+00 2.623598700000e-03
      vertex 3.000000000000e-03 0.000000000000e+00 2.332087733333e-03
    endloop
  endfacet
  facet normal -1.0 0.0 0.0
    outer loop
      vertex 3.000000000000e-03 -5.000000000000e-04 2.332087733333e-03
      vertex 3.000000000000e-03 -5.000000000000e-04 2.623598700000e-03
      vertex 3.000000000000e-03 0.000000000000e+00 2.623598700000e-03
    endloop
  endfacet
  facet normal -1.0 0.0 0.0
    outer loop
      vertex 3.000000000000e-03 -5.000000000000e-04 2.623598700000e-03
      vertex 3.000000000000e-03 0.000000000000e+00 2.915109666667e-03
      vertex 3.000000000000e-03 0.000000000000e+00 2.623598700000e-03
    endloop
  endfacet
  facet normal -1.0 0.0 0.0
    outer loop
      vertex 3.000000000000e-03 -5.000000000000e-04 2.623598700000e-03
      vertex 3.000000000000e-03 -5.000000000000e-04 2.915109666667e-03
      vertex 3.000000000000e-03 0.000000000000e+00 2.915109666667e-03
    endloop
  endfacet
  facet normal -1.0 0.0 0.0
    outer loop
      vertex 3.000000000000e-03 -5.000000000000e-04 2.915109666667e-03
      vertex 3.000000000000e-03 0.000000000000e+00 3.206620633333e-03
      vertex 3.000000000000e-03 0.000000000000e+00 2.915109666667e-03
    endloop
  endfacet
  facet normal -1.0 0.0 0.0
    outer loop
      vertex 3.000000000000e-03 -5.000000000000e-04 2.915109666667e-03
      vertex 3.000000000000e-03 -5.000000000000e-04 3.206620633333e-03
      vertex 3.000000000000e-03 0.000000000000e+00 3.206620633333e-03
    endloop
  endfacet
  facet normal -1.0 0.0 0.0
    outer loop
      vertex 3.000000000000e-03 -5.000000000000e-04 3.206620633333e-03
      vertex 3.000000000000e-03 0.000000000000e+00 3.498131600000e-03
      vertex 3.000000000000e-03 0.000000000000e+00 3.206620633333e-03
    endloop
  endfacet
  facet normal -1.0 0.0 0.0
    outer loop
      vertex 3.000000000000e-03 -5.000000000000e-04 3.206620633333e-03
      vertex 3.000000000000e-03 -5.000000000000e-04 3.498131600000e-03
      vertex 3.000000000000e-03 0.000000000000e+00 3.498131600000e-03
    endloop
  endfacet
  facet normal -1.0 0.0 0.0
    outer loop
      vertex 3.000000000000e-03 0.000000000000e+00 0.000000000000e+00
      vertex 3.000000000000e-03 5.000000000000e-04 2.915109666667e-04
      vertex 3.000000000000e-03 5.000000000000e-04 0.000000000000e+00
    endloop
  endfacet
  facet normal -1.0 0.0 0.0
    outer loop
      vertex 3.000000000000e-03 0.000000000000e+00 0.000000000000e+00
      vertex 3.000000000000e-03 0.000000000000e+00 2.915109666667e-04
      vertex 3.000000000000e-03 5.000000000000e-04 2.915109666667e-04
    endloop
  endfacet
  facet normal -1.0 0.0 0.0
    outer loop
      vertex 3.000000000000e-03 0.000000000000e+00 2.915109666667e-04
      vertex 3.000000000000e-03 5.000000000000e-04 5.830219333333e-04
      vertex 3.000000000000e-03 5.000000000000e-04 2.915109666667e-04
    endloop
  endfacet
  facet normal -1.0 0.0 0.0
    outer loop
      vertex 3.000000000000e-03 0.000000000000e+00 2.915109666667e-04
      vertex 3.000000000000e-03 0.000000000000e+00 5.830219333333e-04
      vertex 3.000000000000e-03 5.000000000000e-04 5.830219333333e-04
    endloop
  endfacet
  facet normal -1.0 0.0 0.0
    outer loop
      vertex 3.000000000000e-03 0.000000000000e+00 5.830219333333e-04
      vertex 3.000000000000e-03 5.000000000000e-04 8.745329000000e-04
      vertex 3.000000000000e-03 5.000000000000e-04 5.830219333333e-04
    endloop
  endfacet
  facet normal -1.0 0.0 0.0
    outer loop
      vertex 3.000000000000e-03 0.000000000000e+00 5.830219333333e-04
      vertex 3.000000000000e-03 0.000000000000e+00 8.745329000000e-04
      vertex 3.000000000000e-03 5.000000000000e-04 8.745329000000e-04
    endloop
  endfacet
  facet normal -1.0 0.0 0.0
    outer loop
      vertex 3.000000000000e-03 0.000000000000e+00 8.745329000000e-04
      vertex 3.000000000000e-03 5.000000000000e-04 1.166043866667e-03
      vertex 3.000000000000e-03 5.000000000000e-04 8.745329000000e-04
    endloop
  endfacet
  facet normal -1.0 0.0 0.0
    outer loop
      vertex 3.000000000000e-03 0.000000000000e+00 8.745329000000e-04
      vertex 3.000000000000e-03 0.000000000000e+00 1.166043866667e-03
      vertex 3.000000000000e-03 5.000000000000e-04 1.166043866667e-03
    endloop
  endfacet
  facet normal -1.0 0.0 0.0
    outer loop
      vertex 3.000000000000e-03 0.000000000000e+00 1.166043866667e-03
      vertex 3.000000000000e-03 5.000000000000e-04 1.457554833333e-03
      vertex 3.000000000000e-03 5.000000000000e-04 1.166043866667e-03
    endloop
  endfacet
  facet normal -1.0 0.0 0.0
    outer loop
      vertex 3.000000000000e-03 0.000000000000e+00 1.166043866667e-03
      vertex 3.000000000000e-03 0.000000000000e+00 1.457554833333e-03
      vertex 3.000000000000e-03 5.000000000000e-04 1.457554833333e-03
    endloop
  endfacet
  facet normal -1.0 0.0 0.0
    outer loop
      vertex 3.000000000000e-03 0.000000000000e+00 1.457554833333e-03
      vertex 3.000000000000e-03 5.000000000000e-04 1.749065800000e-03
      vertex 3.000000000000e-03 5.000000000000e-04 1.457554833333e-03
    endloop
  endfacet
  facet normal -1.0 0.0 0.0
    outer loop
      vertex 3.000000000000e-03 0.000000000000e+00 1.457554833333e-03
      vertex 3.000000000000e-03 0.000000000000e+00 1.749065800000e-03
      vertex 3.000000000000e-03 5.000000000000e-04 1.749065800000e-03
    endloop
  endfacet
  facet normal -1.0 0.0 0.0
    outer loop
      vertex 3.000000000000e-03 0.000000000000e+00 1.749065800000e-03
      vertex 3.000000000000e-03 5.000000000000e-04 2.040576766667e-03
      vertex 3.000000000000e-03 5.000000000000e-04 1.749065800000e-03
    endloop
  endfacet
  facet normal -1.0 0.0 0.0
    outer loop
      vertex 3.000000000000e-03 0.000000000000e+00 1.749065800000e-03
      vertex 3.000000000000e-03 0.000000000000e+00 2.040576766667e-03
      vertex 3.000000000000e-03 5.000000000000e-04 2.040576766667e-03
    endloop
  endfacet
  facet normal -1.0 0.0 0.0
    outer loop
      vertex 3.000000000000e-03 0.000000000000e+00 2.040576766667e-03
      vertex 3.000000000000e-03 5.000000000000e-04 2.332087733333e-03
      vertex 3.000000000000e-03 5.000000000000e-04 2.040576766667e-03
    endloop
  endfacet
  facet normal -1.0 0.0 0.0
    outer loop
      vertex 3.000000000000e-03 0.000000000000e+00 2.040576766667e-03
      vertex 3.000000000000e-03 0.000000000000e+00 2.332087733333e-03
      vertex 3.000000000000e-03 5.000000000000e-04 2.332087733333e-03
    endloop
  endfacet
  facet normal -1.0 0.0 0.0
    outer loop
      vertex 3.000000000000e-03 0.000000000000e+00 2.332087733333e-03
      vertex 3.000000000000e-03 5.000000000000e-04 2.623598700000e-03
      vertex 3.000000000000e-03 5.000000000000e-04 2.332087733333e-03
    endloop
  endfacet
  facet normal -1.0 0.0 0.0
    outer loop
      vertex 3.000000000000e-03 0.000000000000e+00 2.332087733333e-03
      vertex 3.000000000000e-03 0.000000000000e+00 2.623598700000e-03
      vertex 3.000000000000e-03 5.000000000000e-04 2.623598700000e-03
    endloop
  endfacet
  facet normal -1.0 0.0 0.0
    outer loop
      vertex 3.000000000000e-03 0.000000000000e+00 2.623598700000e-03
      vertex 3.000000000000e-03 5.000000000000e-04 2.915109666667e-03
      vertex 3.000000000000e-03 5.000000000000e-04 2.623598700000e-03
    endloop
  endfacet
  facet normal -1.0 0.0 0.0
    outer loop
      vertex 3.000000000000e-03 0.000000000000e+00 2.623598700000e-03
      vertex 3.000000000000e-03 0.000000000000e+00 2.915109666667e-03
      vertex 3.000000000000e-03 5.000000000000e-04 2.915109666667e-03
    endloop
  endfacet
  facet normal -1.0 0.0 0.0
    outer loop
      vertex 3.000000000000e-03 0.000000000000e+00 2.915109666667e-03
      vertex 3.000000000000e-03 5.000000000000e-04 3.206620633333e-03
      vertex 3.000000000000e-03 5.000000000000e-04 2.915109666667e-03
    endloop
  endfacet
  facet normal -1.0 0.0 0.0
    outer loop
      vertex 3.000000000000e-03 0.000000000000e+00 2.915109666667e-03
      vertex 3.000000000000e-03 0.000000000000e+00 3.206620633333e-03
      vertex 3.000000000000e-03 5.000000000000e-04 3.206620633333e-03
    endloop
  endfacet
  facet normal -1.0 0.0 0.0
    outer loop
      vertex 3.000000000000e-03 0.000000000000e+00 3.206620633333e-03
      vertex 3.000000000000e-03 5.000000000000e-04 3.498131600000e-03
      vertex 3.000000000000e-03 5.000000000000e-04 3.206620633333e-03
    endloop
  endfacet
  facet normal -1.0 0.0 0.0
    outer loop
      vertex 3.000000000000e-03 0.000000000000e+00 3.206620633333e-03
      vertex 3.000000000000e-03 0.000000000000e+00 3.498131600000e-03
      vertex 3.000000000000e-03 5.000000000000e-04 3.498131600000e-03
    endloop
  endfacet
  facet normal -1.0 0.0 0.0
    outer loop
      vertex 3.000000000000e-03 5.000000000000e-04 0.000000000000e+00
      vertex 3.000000000000e-03 1.000000000000e-03 2.915109666667e-04
      vertex 3.000000000000e-03 1.000000000000e-03 0.000000000000e+00
    endloop
  endfacet
  facet normal -1.0 0.0 0.0
    outer loop
      vertex 3.000000000000e-03 5.000000000000e-04 0.000000000000e+00
      vertex 3.000000000000e-03 5.000000000000e-04 2.915109666667e-04
      vertex 3.000000000000e-03 1.000000000000e-03 2.915109666667e-04
    endloop
  endfacet
  facet normal -1.0 0.0 0.0
    outer loop
      vertex 3.000000000000e-03 5.000000000000e-04 2.915109666667e-04
      vertex 3.000000000000e-03 1.000000000000e-03 5.830219333333e-04
      vertex 3.000000000000e-03 1.000000000000e-03 2.915109666667e-04
    endloop
  endfacet
  facet normal -1.0 0.0 0.0
    outer loop
      vertex 3.000000000000e-03 5.000000000000e-04 2.915109666667e-04
      vertex 3.000000000000e-03 5.000000000000e-04 5.830219333333e-04
      vertex 3.000000000000e-03 1.000000000000e-03 5.830219333333e-04
    endloop
  endfacet
  facet normal -1.0 0.0 0.0
    outer loop
      vertex 3.000000000000e-03 5.000000000000e-04 5.830219333333e-04
      vertex 3.000000000000e-03 1.000000000000e-03 8.745329000000e-04
      vertex 3.000000000000e-03 1.000000000000e-03 5.830219333333e-04
    endloop
  endfacet
  facet normal -1.0 0.0 0.0
    outer loop
      vertex 3.000000000000e-03 5.000000000000e-04 5.830219333333e-04
      vertex 3.000000000000e-03 5.000000000000e-04 8.745329000000e-04
      vertex 3.000000000000e-03 1.000000000000e-03 8.745329000000e-04
    endloop
  endfacet
  facet normal -1.0 0.0 0.0
    outer loop
      vertex 3.000000000000e-03 5.000000000000e-04 8.745329000000e-04
      vertex 3.000000000000e-03 1.000000000000e-03 1.166043866667e-03
      vertex 3.000000000000e-03 1.000000000000e-03 8.745329000000e-04
    endloop
  endfacet
  facet normal -1.0 0.0 0.0
    outer loop
      vertex 3.000000000000e-03 5.000000000000e-04 8.745329000000e-04
      vertex 3.000000000000e-03 5.000000000000e-04 1.166043866667e-03
      vertex 3.000000000000e-03 1.000000000000e-03 1.166043866667e-03
    endloop
  endfacet
  facet normal -1.0 0.0 0.0
    outer loop
      vertex 3.000000000000e-03 5.000000000000e-04 1.166043866667e-03
      vertex 3.000000000000e-03 1.000000000000e-03 1.457554833333e-03
      vertex 3.000000000000e-03 1.000000000000e-03 1.166043866667e-03
    endloop
  endfacet
  facet normal -1.0 0.0 0.0
    outer loop
      vertex 3.000000000000e-03 5.000000000000e-04 1.166043866667e-03
      vertex 3.000000000000e-03 5.000000000000e-04 1.457554833333e-03
      vertex 3.000000000000e-03 1.000000000000e-03 1.457554833333e-03
    endloop
  endfacet
  facet normal -1.0 0.0 0.0
    outer loop
      vertex 3.000000000000e-03 5.000000000000e-04 1.457554833333e-03
      vertex 3.000000000000e-03 1.000000000000e-03 1.749065800000e-03
      vertex 3.000000000000e-03 1.000000000000e-03 1.457554833333e-03
    endloop
  endfacet
  facet normal -1.0 0.0 0.0
    outer loop
      vertex 3.000000000000e-03 5.000000000000e-04 1.457554833333e-03
      vertex 3.000000000000e-03 5.000000000000e-04 1.749065800000e-03
      vertex 3.000000000000e-03 1.000000000000e-03 1.749065800000e-03
    endloop
  endfacet
  facet normal -1.0 0.0 0.0
    outer loop
      vertex 3.000000000000e-03 5.000000000000e-04 1.749065800000e-03
      vertex 3.000000000000e-03 1.000000000000e-03 2.040576766667e-03
      vertex 3.000000000000e-03 1.000000000000e-03 1.749065800000e-03
    endloop
  endfacet
  facet normal -1.0 0.0 0.0
    outer loop
      vertex 3.000000000000e-03 5.000000000000e-04 1.749065800000e-03
      vertex 3.000000000000e-03 5.000000000000e-04 2.040576766667e-03
      vertex 3.000000000000e-03 1.000000000000e-03 2.040576766667e-03
    endloop
  endfacet
  facet normal -1.0 0.0 0.0
    outer loop
      vertex 3.000000000000e-03 5.000000000000e-04 2.040576766667e-03
      vertex 3.000000000000e-03 1.000000000000e-03 2.332087733333e-03
      vertex 3.000000000000e-03 1.000000000000e-03 2.040576766667e-03
    endloop
  endfacet
  facet normal -1.0 0.0 0.0
    outer loop
      vertex 3.000000000000e-03 5.000000000000e-04 2.040576766667e-03
      vertex 3.000000000000e-03 5.000000000000e-04 2.332087733333e-03
      vertex 3.000000000000e-03 1.000000000000e-03 2.332087733333e-03
    endloop
  endfacet
  facet normal -1.0 0.0 0.0
    outer loop
      vertex 3.000000000000e-03 5.000000000000e-04 2.332087733333e-03
      vertex 3.000000000000e-03 1.000000000000e-03 2.623598700000e-03
      vertex 3.000000000000e-03 1.000000000000e-03 2.332087733333e-03
    endloop
  endfacet
  facet normal -1.0 0.0 0.0
    outer loop
      vertex 3.000000000000e-03 5.000000000000e-04 2.332087733333e-03
      vertex 3.000000000000e-03 5.000000000000e-04 2.623598700000e-03
      vertex 3.000000000000e-03 1.000000000000e-03 2.623598700000e-03
    endloop
  endfacet
  facet normal -1.0 0.0 0.0
    outer loop
      vertex 3.000000000000e-03 5.000000000000e-04 2.623598700000e-03
      vertex 3.000000000000e-03 1.000000000000e-03 2.915109666667e-03
      vertex 3.000000000000e-03 1.000000000000e-03 2.623598700000e-03
    endloop
  endfacet
  facet normal -1.0 0.0 0.0
    outer loop
      vertex 3.000000000000e-03 5.000000000000e-04 2.623598700000e-03
      vertex 3.000000000000e-03 5.000000000000e-04 2.915109666667e-03
      vertex 3.000000000000e-03 1.000000000000e-03 2.915109666667e-03
    endloop
  endfacet
  facet normal -1.0 0.0 0.0
    outer loop
      vertex 3.000000000000e-03 5.000000000000e-04 2.915109666667e-03
      vertex 3.000000000000e-03 1.000000000000e-03 3.206620633333e-03
      vertex 3.000000000000e-03 1.000000000000e-03 2.915109666667e-03
    endloop
  endfacet
  facet normal -1.0 0.0 0.0
    outer loop
      vertex 3.000000000000e-03 5.000000000000e-04 2.915109666667e-03
      vertex 3.000000000000e-03 5.000000000000e-04 3.206620633333e-03
      vertex 3.000000000000e-03 1.000000000000e-03 3.206620633333e-03
    endloop
  endfacet
  facet normal -1.0 0.0 0.0
    outer loop
      vertex 3.000000000000e-03 5.000000000000e-04 3.206620633333e-03
      vertex 3.000000000000e-03 1.000000000000e-03 3.498131600000e-03
      vertex 3.000000000000e-03 1.000000000000e-03 3.206620633333e-03
    endloop
  endfacet
  facet normal -1.0 0.0 0.0
    outer loop
      vertex 3.000000000000e-03 5.000000000000e-04 3.206620633333e-03
      vertex 3.000000000000e-03 5.000000000000e-04 3.498131600000e-03
      vertex 3.000000000000e-03 1.000000000000e-03 3.498131600000e-03
    endloop
  endfacet
  facet normal -1.0 0.0 0.0
    outer loop
      vertex 3.000000000000e-03 1.000000000000e-03 0.000000000000e+00
      vertex 3.000000000000e-03 1.500000000000e-03 2.915109666667e-04
      vertex 3.000000000000e-03 1.500000000000e-03 0.000000000000e+00
    endloop
  endfacet
  facet normal -1.0 0.0 0.0
    outer loop
      vertex 3.000000000000e-03 1.000000000000e-03 0.000000000000e+00
      vertex 3.000000000000e-03 1.000000000000e-03 2.915109666667e-04
      vertex 3.000000000000e-03 1.500000000000e-03 2.915109666667e-04
    endloop
  endfacet
  facet normal -1.0 0.0 0.0
    outer loop
      vertex 3.000000000000e-03 1.000000000000e-03 2.915109666667e-04
      vertex 3.000000000000e-03 1.500000000000e-03 5.830219333333e-04
      vertex 3.000000000000e-03 1.500000000000e-03 2.915109666667e-04
    endloop
  endfacet
  facet normal -1.0 0.0 0.0
    outer loop
      vertex 3.000000000000e-03 1.000000000000e-03 2.915109666667e-04
      vertex 3.000000000000e-03 1.000000000000e-03 5.830219333333e-04
      vertex 3.000000000000e-03 1.500000000000e-03 5.830219333333e-04
    endloop
  endfacet
  facet normal -1.0 0.0 0.0
    outer loop
      vertex 3.000000000000e-03 1.000000000000e-03 5.830219333333e-04
      vertex 3.000000000000e-03 1.500000000000e-03 8.745329000000e-04
      vertex 3.000000000000e-03 1.500000000000e-03 5.830219333333e-04
    endloop
  endfacet
  facet normal -1.0 0.0 0.0
    outer loop
      vertex 3.000000000000e-03 1.000000000000e-03 5.830219333333e-04
      vertex 3.000000000000e-03 1.000000000000e-03 8.745329000000e-04
      vertex 3.000000000000e-03 1.500000000000e-03 8.745329000000e-04
    endloop
  endfacet
  facet normal -1.0 0.0 0.0
    outer loop
      vertex 3.000000000000e-03 1.000000000000e-03 8.745329000000e-04
      vertex 3.000000000000e-03 1.500000000000e-03 1.166043866667e-03
      vertex 3.000000000000e-03 1.500000000000e-03 8.745329000000e-04
    endloop
  endfacet
  facet normal -1.0 0.0 0.0
    outer loop
      vertex 3.000000000000e-03 1.000000000000e-03 8.745329000000e-04
      vertex 3.000000000000e-03 1.000000000000e-03 1.166043866667e-03
      vertex 3.000000000000e-03 1.500000000000e-03 1.166043866667e-03
    endloop
  endfacet
  facet normal -1.0 0.0 0.0
    outer loop
      vertex 3.000000000000e-03 1.000000000000e-03 1.166043866667e-03
      vertex 3.000000000000e-03 1.500000000000e-03 1.457554833333e-03
      vertex 3.000000000000e-03 1.500000000000e-03 1.166043866667e-03
    endloop
  endfacet
  facet normal -1.0 0.0 0.0
    outer loop
      vertex 3.000000000000e-03 1.000000000000e-03 1.166043866667e-03
      vertex 3.000000000000e-03 1.000000000000e-03 1.457554833333e-03
      vertex 3.000000000000e-03 1.500000000000e-03 1.457554833333e-03
    endloop
  endfacet
  facet normal -1.0 0.0 0.0
    outer loop
      vertex 3.000000000000e-03 1.000000000000e-03 1.457554833333e-03
      vertex 3.000000000000e-03 1.500000000000e-03 1.749065800000e-03
      vertex 3.000000000000e-03 1.500000000000e-03 1.457554833333e-03
    endloop
  endfacet
  facet normal -1.0 0.0 0.0
    outer loop
      vertex 3.000000000000e-03 1.000000000000e-03 1.457554833333e-03
      vertex 3.000000000000e-03 1.000000000000e-03 1.749065800000e-03
      vertex 3.000000000000e-03 1.500000000000e-03 1.749065800000e-03
    endloop
  endfacet
  facet normal -1.0 0.0 0.0
    outer loop
      vertex 3.000000000000e-03 1.000000000000e-03 1.749065800000e-03
      vertex 3.000000000000e-03 1.500000000000e-03 2.040576766667e-03
      vertex 3.000000000000e-03 1.500000000000e-03 1.749065800000e-03
    endloop
  endfacet
  facet normal -1.0 0.0 0.0
    outer loop
      vertex 3.000000000000e-03 1.000000000000e-03 1.749065800000e-03
      vertex 3.000000000000e-03 1.000000000000e-03 2.040576766667e-03
      vertex 3.000000000000e-03 1.500000000000e-03 2.040576766667e-03
    endloop
  endfacet
  facet normal -1.0 0.0 0.0
    outer loop
      vertex 3.000000000000e-03 1.000000000000e-03 2.040576766667e-03
      vertex 3.000000000000e-03 1.500000000000e-03 2.332087733333e-03
      vertex 3.000000000000e-03 1.500000000000e-03 2.040576766667e-03
    endloop
  endfacet
  facet normal -1.0 0.0 0.0
    outer loop
      vertex 3.000000000000e-03 1.000000000000e-03 2.040576766667e-03
      vertex 3.000000000000e-03 1.000000000000e-03 2.332087733333e-03
      vertex 3.000000000000e-03 1.500000000000e-03 2.332087733333e-03
    endloop
  endfacet
  facet normal -1.0 0.0 0.0
    outer loop
      vertex 3.000000000000e-03 1.000000000000e-03 2.332087733333e-03
      vertex 3.000000000000e-03 1.500000000000e-03 2.623598700000e-03
      vertex 3.000000000000e-03 1.500000000000e-03 2.332087733333e-03
    endloop
  endfacet
  facet normal -1.0 0.0 0.0
    outer loop
      vertex 3.000000000000e-03 1.000000000000e-03 2.332087733333e-03
      vertex 3.000000000000e-03 1.000000000000e-03 2.623598700000e-03
      vertex 3.000000000000e-03 1.500000000000e-03 2.623598700000e-03
    endloop
  endfacet
  facet normal -1.0 0.0 0.0
    outer loop
      vertex 3.000000000000e-03 1.000000000000e-03 2.623598700000e-03
      vertex 3.000000000000e-03 1.500000000000e-03 2.915109666667e-03
      vertex 3.000000000000e-03 1.500000000000e-03 2.623598700000e-03
    endloop
  endfacet
  facet normal -1.0 0.0 0.0
    outer loop
      vertex 3.000000000000e-03 1.000000000000e-03 2.623598700000e-03
      vertex 3.000000000000e-03 1.000000000000e-03 2.915109666667e-03
      vertex 3.000000000000e-03 1.500000000000e-03 2.915109666667e-03
    endloop
  endfacet
  facet normal -1.0 0.0 0.0
    outer loop
      vertex 3.000000000000e-03 1.000000000000e-03 2.915109666667e-03
      vertex 3.000000000000e-03 1.500000000000e-03 3.206620633333e-03
      vertex 3.000000000000e-03 1.500000000000e-03 2.915109666667e-03
    endloop
  endfacet
  facet normal -1.0 0.0 0.0
    outer loop
      vertex 3.000000000000e-03 1.000000000000e-03 2.915109666667e-03
      vertex 3.000000000000e-03 1.000000000000e-03 3.206620633333e-03
      vertex 3.000000000000e-03 1.500000000000e-03 3.206620633333e-03
    endloop
  endfacet
  facet normal -1.0 0.0 0.0
    outer loop
      vertex 3.000000000000e-03 1.000000000000e-03 3.206620633333e-03
      vertex 3.000000000000e-03 1.500000000000e-03 3.498131600000e-03
      vertex 3.000000000000e-03 1.500000000000e-03 3.206620633333e-03
    endloop
  endfacet
  facet normal -1.0 0.0 0.0
    outer loop
      vertex 3.000000000000e-03 1.000000000000e-03 3.206620633333e-03
      vertex 3.000000000000e-03 1.000000000000e-03 3.498131600000e-03
      vertex 3.000000000000e-03 1.500000000000e-03 3.498131600000e-03
    endloop
  endfacet
  facet normal -1.0 0.0 0.0
    outer loop
      vertex 3.000000000000e-03 1.500000000000e-03 0.000000000000e+00
      vertex 3.000000000000e-03 2.000000000000e-03 2.915109666667e-04
      vertex 3.000000000000e-03 2.000000000000e-03 0.000000000000e+00
    endloop
  endfacet
  facet normal -1.0 0.0 0.0
    outer loop
      vertex 3.000000000000e-03 1.500000000000e-03 0.000000000000e+00
      vertex 3.000000000000e-03 1.500000000000e-03 2.915109666667e-04
      vertex 3.000000000000e-03 2.000000000000e-03 2.915109666667e-04
    endloop
  endfacet
  facet normal -1.0 0.0 0.0
    outer loop
      vertex 3.000000000000e-03 1.500000000000e-03 2.915109666667e-04
      vertex 3.000000000000e-03 2.000000000000e-03 5.830219333333e-04
      vertex 3.000000000000e-03 2.000000000000e-03 2.915109666667e-04
    endloop
  endfacet
  facet normal -1.0 0.0 0.0
    outer loop
      vertex 3.000000000000e-03 1.500000000000e-03 2.915109666667e-04
      vertex 3.000000000000e-03 1.500000000000e-03 5.830219333333e-04
      vertex 3.000000000000e-03 2.000000000000e-03 5.830219333333e-04
    endloop
  endfacet
  facet normal -1.0 0.0 0.0
    outer loop
      vertex 3.000000000000e-03 1.500000000000e-03 5.830219333333e-04
      vertex 3.000000000000e-03 2.000000000000e-03 8.745329000000e-04
      vertex 3.000000000000e-03 2.000000000000e-03 5.830219333333e-04
    endloop
  endfacet
  facet normal -1.0 0.0 0.0
    outer loop
      vertex 3.000000000000e-03 1.500000000000e-03 5.830219333333e-04
      vertex 3.000000000000e-03 1.500000000000e-03 8.745329000000e-04
      vertex 3.000000000000e-03 2.000000000000e-03 8.745329000000e-04
    endloop
  endfacet
  facet normal -1.0 0.0 0.0
    outer loop
      vertex 3.000000000000e-03 1.500000000000e-03 8.745329000000e-04
      vertex 3.000000000000e-03 2.000000000000e-03 1.166043866667e-03
      vertex 3.000000000000e-03 2.000000000000e-03 8.745329000000e-04
    endloop
  endfacet
  facet normal -1.0 0.0 0.0
    outer loop
      vertex 3.000000000000e-03 1.500000000000e-03 8.745329000000e-04
      vertex 3.000000000000e-03 1.500000000000e-03 1.166043866667e-03
      vertex 3.000000000000e-03 2.000000000000e-03 1.166043866667e-03
    endloop
  endfacet
  facet normal -1.0 0.0 0.0
    outer loop
      vertex 3.000000000000e-03 1.500000000000e-03 1.166043866667e-03
      vertex 3.000000000000e-03 2.000000000000e-03 1.457554833333e-03
      vertex 3.000000000000e-03 2.000000000000e-03 1.166043866667e-03
    endloop
  endfacet
  facet normal -1.0 0.0 0.0
    outer loop
      vertex 3.000000000000e-03 1.500000000000e-03 1.166043866667e-03
      vertex 3.000000000000e-03 1.500000000000e-03 1.457554833333e-03
      vertex 3.000000000000e-03 2.000000000000e-03 1.457554833333e-03
    endloop
  endfacet
  facet normal -1.0 0.0 0.0
    outer loop
      vertex 3.000000000000e-03 1.500000000000e-03 1.457554833333e-03
      vertex 3.000000000000e-03 2.000000000000e-03 1.749065800000e-03
      vertex 3.000000000000e-03 2.000000000000e-03 1.457554833333e-03
    endloop
  endfacet
  facet normal -1.0 0.0 0.0
    outer loop
      vertex 3.000000000000e-03 1.500000000000e-03 1.457554833333e-03
      vertex 3.000000000000e-03 1.500000000000e-03 1.749065800000e-03
      vertex 3.000000000000e-03 2.000000000000e-03 1.749065800000e-03
    endloop
  endfacet
  facet normal -1.0 0.0 0.0
    outer loop
      vertex 3.000000000000e-03 1.500000000000e-03 1.749065800000e-03
      vertex 3.000000000000e-03 2.000000000000e-03 2.040576766667e-03
      vertex 3.000000000000e-03 2.000000000000e-03 1.749065800000e-03
    endloop
  endfacet
  facet normal -1.0 0.0 0.0
    outer loop
      vertex 3.000000000000e-03 1.500000000000e-03 1.749065800000e-03
      vertex 3.000000000000e-03 1.500000000000e-03 2.040576766667e-03
      vertex 3.000000000000e-03 2.000000000000e-03 2.040576766667e-03
    endloop
  endfacet
  facet normal -1.0 0.0 0.0
    outer loop
      vertex 3.000000000000e-03 1.500000000000e-03 2.040576766667e-03
      vertex 3.000000000000e-03 2.000000000000e-03 2.332087733333e-03
      vertex 3.000000000000e-03 2.000000000000e-03 2.040576766667e-03
    endloop
  endfacet
  facet normal -1.0 0.0 0.0
    outer loop
      vertex 3.000000000000e-03 1.500000000000e-03 2.040576766667e-03
      vertex 3.000000000000e-03 1.500000000000e-03 2.332087733333e-03
      vertex 3.000000000000e-03 2.000000000000e-03 2.332087733333e-03
    endloop
  endfacet
  facet normal -1.0 0.0 0.0
    outer loop
      vertex 3.000000000000e-03 1.500000000000e-03 2.332087733333e-03
      vertex 3.000000000000e-03 2.000000000000e-03 2.623598700000e-03
      vertex 3.000000000000e-03 2.000000000000e-03 2.332087733333e-03
    endloop
  endfacet
  facet normal -1.0 0.0 0.0
    outer loop
      vertex 3.000000000000e-03 1.500000000000e-03 2.332087733333e-03
      vertex 3.000000000000e-03 1.500000000000e-03 2.623598700000e-03
      vertex 3.000000000000e-03 2.000000000000e-03 2.623598700000e-03
    endloop
  endfacet
  facet normal -1.0 0.0 0.0
    outer loop
      vertex 3.000000000000e-03 1.500000000000e-03 2.623598700000e-03
      vertex 3.000000000000e-03 2.000000000000e-03 2.915109666667e-03
      vertex 3.000000000000e-03 2.000000000000e-03 2.623598700000e-03
    endloop
  endfacet
  facet normal -1.0 0.0 0.0
    outer loop
      vertex 3.000000000000e-03 1.500000000000e-03 2.623598700000e-03
      vertex 3.000000000000e-03 1.500000000000e-03 2.915109666667e-03
      vertex 3.000000000000e-03 2.000000000000e-03 2.915109666667e-03
    endloop
  endfacet
  facet normal -1.0 0.0 0.0
    outer loop
      vertex 3.000000000000e-03 1.500000000000e-03 2.915109666667e-03
      vertex 3.000000000000e-03 2.000000000000e-03 3.206620633333e-03
      vertex 3.000000000000e-03 2.000000000000e-03 2.915109666667e-03
    endloop
  endfacet
  facet normal -1.0 0.0 0.0
    outer loop
      vertex 3.000000000000e-03 1.500000000000e-03 2.915109666667e-03
      vertex 3.000000000000e-03 1.500000000000e-03 3.206620633333e-03
      vertex 3.000000000000e-03 2.000000000000e-03 3.206620633333e-03
    endloop
  endfacet
  facet normal -1.0 0.0 0.0
    outer loop
      vertex 3.000000000000e-03 1.500000000000e-03 3.206620633333e-03
      vertex 3.000000000000e-03 2.000000000000e-03 3.498131600000e-03
      vertex 3.000000000000e-03 2.000000000000e-03 3.206620633333e-03
    endloop
  endfacet
  facet normal -1.0 0.0 0.0
    outer loop
      vertex 3.000000000000e-03 1.500000000000e-03 3.206620633333e-03
      vertex 3.000000000000e-03 1.500000000000e-03 3.498131600000e-03
      vertex 3.000000000000e-03 2.000000000000e-03 3.498131600000e-03
    endloop
  endfacet
  facet normal -1.0 0.0 0.0
    outer loop
      vertex 3.000000000000e-03 2.000000000000e-03 0.000000000000e+00
      vertex 3.000000000000e-03 2.500000000000e-03 2.915109666667e-04
      vertex 3.000000000000e-03 2.500000000000e-03 0.000000000000e+00
    endloop
  endfacet
  facet normal -1.0 0.0 0.0
    outer loop
      vertex 3.000000000000e-03 2.000000000000e-03 0.000000000000e+00
      vertex 3.000000000000e-03 2.000000000000e-03 2.915109666667e-04
      vertex 3.000000000000e-03 2.500000000000e-03 2.915109666667e-04
    endloop
  endfacet
  facet normal -1.0 0.0 0.0
    outer loop
      vertex 3.000000000000e-03 2.000000000000e-03 2.915109666667e-04
      vertex 3.000000000000e-03 2.500000000000e-03 5.830219333333e-04
      vertex 3.000000000000e-03 2.500000000000e-03 2.915109666667e-04
    endloop
  endfacet
  facet normal -1.0 0.0 0.0
    outer loop
      vertex 3.000000000000e-03 2.000000000000e-03 2.915109666667e-04
      vertex 3.000000000000e-03 2.000000000000e-03 5.830219333333e-04
      vertex 3.000000000000e-03 2.500000000000e-03 5.830219333333e-04
    endloop
  endfacet
  facet normal -1.0 0.0 0.0
    outer loop
      vertex 3.000000000000e-03 2.000000000000e-03 5.830219333333e-04
      vertex 3.000000000000e-03 2.500000000000e-03 8.745329000000e-04
      vertex 3.000000000000e-03 2.500000000000e-03 5.830219333333e-04
    endloop
  endfacet
  facet normal -1.0 0.0 0.0
    outer loop
      vertex 3.000000000000e-03 2.000000000000e-03 5.830219333333e-04
      vertex 3.000000000000e-03 2.000000000000e-03 8.745329000000e-04
      vertex 3.000000000000e-03 2.500000000000e-03 8.745329000000e-04
    endloop
  endfacet
  facet normal -1.0 0.0 0.0
    outer loop
      vertex 3.000000000000e-03 2.000000000000e-03 8.745329000000e-04
      vertex 3.000000000000e-03 2.500000000000e-03 1.166043866667e-03
      vertex 3.000000000000e-03 2.500000000000e-03 8.745329000000e-04
    endloop
  endfacet
  facet normal -1.0 0.0 0.0
    outer loop
      vertex 3.000000000000e-03 2.000000000000e-03 8.745329000000e-04
      vertex 3.000000000000e-03 2.000000000000e-03 1.166043866667e-03
      vertex 3.000000000000e-03 2.500000000000e-03 1.166043866667e-03
    endloop
  endfacet
  facet normal -1.0 0.0 0.0
    outer loop
      vertex 3.000000000000e-03 2.000000000000e-03 1.166043866667e-03
      vertex 3.000000000000e-03 2.500000000000e-03 1.457554833333e-03
      vertex 3.000000000000e-03 2.500000000000e-03 1.166043866667e-03
    endloop
  endfacet
  facet normal -1.0 0.0 0.0
    outer loop
      vertex 3.000000000000e-03 2.000000000000e-03 1.166043866667e-03
      vertex 3.000000000000e-03 2.000000000000e-03 1.457554833333e-03
      vertex 3.000000000000e-03 2.500000000000e-03 1.457554833333e-03
    endloop
  endfacet
  facet normal -1.0 0.0 0.0
    outer loop
      vertex 3.000000000000e-03 2.000000000000e-03 1.457554833333e-03
      vertex 3.000000000000e-03 2.500000000000e-03 1.749065800000e-03
      vertex 3.000000000000e-03 2.500000000000e-03 1.457554833333e-03
    endloop
  endfacet
  facet normal -1.0 0.0 0.0
    outer loop
      vertex 3.000000000000e-03 2.000000000000e-03 1.457554833333e-03
      vertex 3.000000000000e-03 2.000000000000e-03 1.749065800000e-03
      vertex 3.000000000000e-03 2.500000000000e-03 1.749065800000e-03
    endloop
  endfacet
  facet normal -1.0 0.0 0.0
    outer loop
      vertex 3.000000000000e-03 2.000000000000e-03 1.749065800000e-03
      vertex 3.000000000000e-03 2.500000000000e-03 2.040576766667e-03
      vertex 3.000000000000e-03 2.500000000000e-03 1.749065800000e-03
    endloop
  endfacet
  facet normal -1.0 0.0 0.0
    outer loop
      vertex 3.000000000000e-03 2.000000000000e-03 1.749065800000e-03
      vertex 3.000000000000e-03 2.000000000000e-03 2.040576766667e-03
      vertex 3.000000000000e-03 2.500000000000e-03 2.040576766667e-03
    endloop
  endfacet
  facet normal -1.0 0.0 0.0
    outer loop
      vertex 3.000000000000e-03 2.000000000000e-03 2.040576766667e-03
      vertex 3.000000000000e-03 2.500000000000e-03 2.332087733333e-03
      vertex 3.000000000000e-03 2.500000000000e-03 2.040576766667e-03
    endloop
  endfacet
  facet normal -1.0 0.0 0.0
    outer loop
      vertex 3.000000000000e-03 2.000000000000e-03 2.040576766667e-03
      vertex 3.000000000000e-03 2.000000000000e-03 2.332087733333e-03
      vertex 3.000000000000e-03 2.500000000000e-03 2.332087733333e-03
    endloop
  endfacet
  facet normal -1.0 0.0 0.0
    outer loop
      vertex 3.000000000000e-03 2.000000000000e-03 2.332087733333e-03
      vertex 3.000000000000e-03 2.500000000000e-03 2.623598700000e-03
      vertex 3.000000000000e-03 2.500000000000e-03 2.332087733333e-03
    endloop
  endfacet
  facet normal -1.0 0.0 0.0
    outer loop
      vertex 3.000000000000e-03 2.000000000000e-03 2.332087733333e-03
      vertex 3.000000000000e-03 2.000000000000e-03 2.623598700000e-03
      vertex 3.000000000000e-03 2.500000000000e-03 2.623598700000e-03
    endloop
  endfacet
  facet normal -1.0 0.0 0.0
    outer loop
      vertex 3.000000000000e-03 2.000000000000e-03 2.623598700000e-03
      vertex 3.000000000000e-03 2.500000000000e-03 2.915109666667e-03
      vertex 3.000000000000e-03 2.500000000000e-03 2.623598700000e-03
    endloop
  endfacet
  facet normal -1.0 0.0 0.0
    outer loop
      vertex 3.000000000000e-03 2.000000000000e-03 2.623598700000e-03
      vertex 3.000000000000e-03 2.000000000000e-03 2.915109666667e-03
      vertex 3.000000000000e-03 2.500000000000e-03 2.915109666667e-03
    endloop
  endfacet
  facet normal -1.0 0.0 0.0
    outer loop
      vertex 3.000000000000e-03 2.000000000000e-03 2.915109666667e-03
      vertex 3.000000000000e-03 2.500000000000e-03 3.206620633333e-03
      vertex 3.000000000000e-03 2.500000000000e-03 2.915109666667e-03
    endloop
  endfacet
  facet normal -1.0 0.0 0.0
    outer loop
      vertex 3.000000000000e-03 2.000000000000e-03 2.915109666667e-03
      vertex 3.000000000000e-03 2.000000000000e-03 3.206620633333e-03
      vertex 3.000000000000e-03 2.500000000000e-03 3.206620633333e-03
    endloop
  endfacet
  facet normal -1.0 0.0 0.0
    outer loop
      vertex 3.000000000000e-03 2.000000000000e-03 3.206620633333e-03
      vertex 3.000000000000e-03 2.500000000000e-03 3.498131600000e-03
      vertex 3.000000000000e-03 2.500000000000e-03 3.206620633333e-03
    endloop
  endfacet
  facet normal -1.0 0.0 0.0
    outer loop
      vertex 3.000000000000e-03 2.000000000000e-03 3.206620633333e-03
      vertex 3.000000000000e-03 2.000000000000e-03 3.498131600000e-03
      vertex 3.000000000000e-03 2.500000000000e-03 3.498131600000e-03
    endloop
  endfacet
  facet normal -1.0 0.0 0.0
    outer loop
      vertex 3.000000000000e-03 2.500000000000e-03 0.000000000000e+00
      vertex 3.000000000000e-03 3.000000000000e-03 2.915109666667e-04
      vertex 3.000000000000e-03 3.000000000000e-03 0.000000000000e+00
    endloop
  endfacet
  facet normal -1.0 0.0 0.0
    outer loop
      vertex 3.000000000000e-03 2.500000000000e-03 0.000000000000e+00
      vertex 3.000000000000e-03 2.500000000000e-03 2.915109666667e-04
      vertex 3.000000000000e-03 3.000000000000e-03 2.915109666667e-04
    endloop
  endfacet
  facet normal -1.0 0.0 0.0
    outer loop
      vertex 3.000000000000e-03 2.500000000000e-03 2.915109666667e-04
      vertex 3.000000000000e-03 3.000000000000e-03 5.830219333333e-04
      vertex 3.000000000000e-03 3.000000000000e-03 2.915109666667e-04
    endloop
  endfacet
  facet normal -1.0 0.0 0.0
    outer loop
      vertex 3.000000000000e-03 2.500000000000e-03 2.915109666667e-04
      vertex 3.000000000000e-03 2.500000000000e-03 5.830219333333e-04
      vertex 3.000000000000e-03 3.000000000000e-03 5.830219333333e-04
    endloop
  endfacet
  facet normal -1.0 0.0 0.0
    outer loop
      vertex 3.000000000000e-03 2.500000000000e-03 5.830219333333e-04
      vertex 3.000000000000e-03 3.000000000000e-03 8.745329000000e-04
      vertex 3.000000000000e-03 3.000000000000e-03 5.830219333333e-04
    endloop
  endfacet
  facet normal -1.0 0.0 0.0
    outer loop
      vertex 3.000000000000e-03 2.500000000000e-03 5.830219333333e-04
      vertex 3.000000000000e-03 2.500000000000e-03 8.745329000000e-04
      vertex 3.000000000000e-03 3.000000000000e-03 8.745329000000e-04
    endloop
  endfacet
  facet normal -1.0 0.0 0.0
    outer loop
      vertex 3.000000000000e-03 2.500000000000e-03 8.745329000000e-04
      vertex 3.000000000000e-03 3.000000000000e-03 1.166043866667e-03
      vertex 3.000000000000e-03 3.000000000000e-03 8.745329000000e-04
    endloop
  endfacet
  facet normal -1.0 0.0 0.0
    outer loop
      vertex 3.000000000000e-03 2.500000000000e-03 8.745329000000e-04
      vertex 3.000000000000e-03 2.500000000000e-03 1.166043866667e-03
      vertex 3.000000000000e-03 3.000000000000e-03 1.166043866667e-03
    endloop
  endfacet
  facet normal -1.0 0.0 0.0
    outer loop
      vertex 3.000000000000e-03 2.500000000000e-03 1.166043866667e-03
      vertex 3.000000000000e-03 3.000000000000e-03 1.457554833333e-03
      vertex 3.000000000000e-03 3.000000000000e-03 1.166043866667e-03
    endloop
  endfacet
  facet normal -1.0 0.0 0.0
    outer loop
      vertex 3.000000000000e-03 2.500000000000e-03 1.166043866667e-03
      vertex 3.000000000000e-03 2.500000000000e-03 1.457554833333e-03
      vertex 3.000000000000e-03 3.000000000000e-03 1.457554833333e-03
    endloop
  endfacet
  facet normal -1.0 0.0 0.0
    outer loop
      vertex 3.000000000000e-03 2.500000000000e-03 1.457554833333e-03
      vertex 3.000000000000e-03 3.000000000000e-03 1.749065800000e-03
      vertex 3.000000000000e-03 3.000000000000e-03 1.457554833333e-03
    endloop
  endfacet
  facet normal -1.0 0.0 0.0
    outer loop
      vertex 3.000000000000e-03 2.500000000000e-03 1.457554833333e-03
      vertex 3.000000000000e-03 2.500000000000e-03 1.749065800000e-03
      vertex 3.000000000000e-03 3.000000000000e-03 1.749065800000e-03
    endloop
  endfacet
  facet normal -1.0 0.0 0.0
    outer loop
      vertex 3.000000000000e-03 2.500000000000e-03 1.749065800000e-03
      vertex 3.000000000000e-03 3.000000000000e-03 2.040576766667e-03
      vertex 3.000000000000e-03 3.000000000000e-03 1.749065800000e-03
    endloop
  endfacet
  facet normal -1.0 0.0 0.0
    outer loop
      vertex 3.000000000000e-03 2.500000000000e-03 1.749065800000e-03
      vertex 3.000000000000e-03 2.500000000000e-03 2.040576766667e-03
      vertex 3.000000000000e-03 3.000000000000e-03 2.040576766667e-03
    endloop
  endfacet
  facet normal -1.0 0.0 0.0
    outer loop
      vertex 3.000000000000e-03 2.500000000000e-03 2.040576766667e-03
      vertex 3.000000000000e-03 3.000000000000e-03 2.332087733333e-03
      vertex 3.000000000000e-03 3.000000000000e-03 2.040576766667e-03
    endloop
  endfacet
  facet normal -1.0 0.0 0.0
    outer loop
      vertex 3.000000000000e-03 2.500000000000e-03 2.040576766667e-03
      vertex 3.000000000000e-03 2.500000000000e-03 2.332087733333e-03
      vertex 3.000000000000e-03 3.000000000000e-03 2.332087733333e-03
    endloop
  endfacet
  facet normal -1.0 0.0 0.0
    outer loop
      vertex 3.000000000000e-03 2.500000000000e-03 2.332087733333e-03
      vertex 3.000000000000e-03 3.000000000000e-03 2.623598700000e-03
      vertex 3.000000000000e-03 3.000000000000e-03 2.332087733333e-03
    endloop
  endfacet
  facet normal -1.0 0.0 0.0
    outer loop
      vertex 3.000000000000e-03 2.500000000000e-03 2.332087733333e-03
      vertex 3.000000000000e-03 2.500000000000e-03 2.623598700000e-03
      vertex 3.000000000000e-03 3.000000000000e-03 2.623598700000e-03
    endloop
  endfacet
  facet normal -1.0 0.0 0.0
    outer loop
      vertex 3.000000000000e-03 2.500000000000e-03 2.623598700000e-03
      vertex 3.000000000000e-03 3.000000000000e-03 2.915109666667e-03
      vertex 3.000000000000e-03 3.000000000000e-03 2.623598700000e-03
    endloop
  endfacet
  facet normal -1.0 0.0 0.0
    outer loop
      vertex 3.000000000000e-03 2.500000000000e-03 2.623598700000e-03
      vertex 3.000000000000e-03 2.500000000000e-03 2.915109666667e-03
      vertex 3.000000000000e-03 3.000000000000e-03 2.915109666667e-03
    endloop
  endfacet
  facet normal -1.0 0.0 0.0
    outer loop
      vertex 3.000000000000e-03 2.500000000000e-03 2.915109666667e-03
      vertex 3.000000000000e-03 3.000000000000e-03 3.206620633333e-03
      vertex 3.000000000000e-03 3.000000000000e-03 2.915109666667e-03
    endloop
  endfacet
  facet normal -1.0 0.0 0.0
    outer loop
      vertex 3.000000000000e-03 2.500000000000e-03 2.915109666667e-03
      vertex 3.000000000000e-03 2.500000000000e-03 3.206620633333e-03
      vertex 3.000000000000e-03 3.000000000000e-03 3.206620633333e-03
    endloop
  endfacet
  facet normal -1.0 0.0 0.0
    outer loop
      vertex 3.000000000000e-03 2.500000000000e-03 3.206620633333e-03
      vertex 3.000000000000e-03 3.000000000000e-03 3.498131600000e-03
      vertex 3.000000000000e-03 3.000000000000e-03 3.206620633333e-03
    endloop
  endfacet
  facet normal -1.0 0.0 0.0
    outer loop
      vertex 3.000000000000e-03 2.500000000000e-03 3.206620633333e-03
      vertex 3.000000000000e-03 2.500000000000e-03 3.498131600000e-03
      vertex 3.000000000000e-03 3.000000000000e-03 3.498131600000e-03
    endloop
  endfacet
endsolid wall
