solid plate
  facet normal 0 0 -1.0
    outer loop
      vertex -1.000000000000e-03 -1.000000000000e-03 5.998244574283e-04
      vertex -8.333333333333e-04 -8.333333333333e-04 5.998244574283e-04
      vertex -8.333333333333e-04 -1.000000000000e-03 5.998244574283e-04
    endloop
  endfacet
  facet normal 0 0 -1.0
    outer loop
      vertex -1.000000000000e-03 -1.000000000000e-03 5.998244574283e-04
      vertex -1.000000000000e-03 -8.333333333333e-04 5.998244574283e-04
      vertex -8.333333333333e-04 -8.333333333333e-04 5.998244574283e-04
    endloop
  endfacet
  facet normal 0 0 -1.0
    outer loop
      vertex -1.000000000000e-03 -8.333333333333e-04 5.998244574283e-04
      vertex -8.333333333333e-04 -6.666666666667e-04 5.998244574283e-04
      vertex -8.333333333333e-04 -8.333333333333e-04 5.998244574283e-04
    endloop
  endfacet
  facet normal 0 0 -1.0
    outer loop
      vertex -1.000000000000e-03 -8.333333333333e-04 5.998244574283e-04
      vertex -1.000000000000e-03 -6.666666666667e-04 5.998244574283e-04
      vertex -8.333333333333e-04 -6.666666666667e-04 5.998244574283e-04
    endloop
  endfacet
  facet normal 0 0 -1.0
    outer loop
      vertex -1.000000000000e-03 -6.666666666667e-04 5.998244574283e-04
      vertex -8.333333333333e-04 -5.000000000000e-04 5.998244574283e-04
      vertex -8.333333333333e-04 -6.666666666667e-04 5.998244574283e-04
    endloop
  endfacet
  facet normal 0 0 -1.0
    outer loop
      vertex -1.000000000000e-03 -6.666666666667e-04 5.998244574283e-04
      vertex -1.000000000000e-03 -5.000000000000e-04 5.998244574283e-04
      vertex -8.333333333333e-04 -5.000000000000e-04 5.998244574283e-04
    endloop
  endfacet
  facet normal 0 0 -1.0
    outer loop
      vertex -1.000000000000e-03 -5.000000000000e-04 5.998244574283e-04
      vertex -8.333333333333e-04 -3.333333333333e-04 5.998244574283e-04
      vertex -8.333333333333e-04 -5.000000000000e-04 5.998244574283e-04
    endloop
  endfacet
  facet normal 0 0 -1.0
    outer loop
      vertex -1.000000000000e-03 -5.000000000000e-04 5.998244574283e-04
      vertex -1.000000000000e-03 -3.333333333333e-04 5.998244574283e-04
      vertex -8.333333333333e-04 -3.333333333333e-04 5.998244574283e-04
    endloop
  endfacet
  facet normal 0 0 -1.0
    outer loop
      vertex -1.000000000000e-03 -3.333333333333e-04 5.998244574283e-04
      vertex -8.333333333333e-04 -1.666666666667e-04 5.998244574283e-04
      vertex -8.333333333333e-04 -3.333333333333e-04 5.998244574283e-04
    endloop
  endfacet
  facet normal 0 0 -1.0
    outer loop
      vertex -1.000000000000e-03 -3.333333333333e-04 5.998244574283e-04
      vertex -1.000000000000e-03 -1.666666666667e-04 5.998244574283e-04
      vertex -8.333333333333e-04 -1.666666666667e-04 5.998244574283e-04
    endloop
  endfacet
  facet normal 0 0 -1.0
    outer loop
      vertex -1.000000000000e-03 -1.666666666667e-04 5.998244574283e-04
      vertex -8.333333333333e-04 -8.131516293641e-20 5.998244574283e-04
      vertex -8.333333333333e-04 -1.666666666667e-04 5.998244574283e-04
    endloop
  endfacet
  facet normal 0 0 -1.0
    outer loop
      vertex -1.000000000000e-03 -1.666666666667e-04 5.998244574283e-04
      vertex -1.000000000000e-03 -8.131516293641e-20 5.998244574283e-04
      vertex -8.333333333333e-04 -8.131516293641e-20 5.998244574283e-04
    endloop
  endfacet
  facet normal 0 0 -1.0
    outer loop
      vertex -1.000000000000e-03 0.000000000000e+00 5.998244574283e-04
      vertex -8.333333333333e-04 1.666666666667e-04 5.998244574283e-04
      vertex -8.333333333333e-04 0.000000000000e+00 5.998244574283e-04
    endloop
  endfacet
  facet normal 0 0 -1.0
    outer loop
      vertex -1.000000000000e-03 0.000000000000e+00 5.998244574283e-04
      vertex -1.000000000000e-03 1.666666666667e-04 5.998244574283e-04
      vertex -8.333333333333e-04 1.666666666667e-04 5.998244574283e-04
    endloop
  endfacet
  facet normal 0 0 -1.0
    outer loop
      vertex -1.000000000000e-03 1.666666666667e-04 5.998244574283e-04
      vertex -8.333333333333e-04 3.333333333333e-04 5.998244574283e-04
      vertex -8.333333333333e-04 1.666666666667e-04 5.998244574283e-04
    endloop
  endfacet
  facet normal 0 0 -1.0
    outer loop
      vertex -1.000000000000e-03 1.666666666667e-04 5.998244574283e-04
      vertex -1.000000000000e-03 3.333333333333e-04 5.998244574283e-04
      vertex -8.333333333333e-04 3.333333333333e-04 5.998244574283e-04
    endloop
  endfacet
  facet normal 0 0 -1.0
    outer loop
      vertex -1.000000000000e-03 3.333333333333e-04 5.998244574283e-04
      vertex -8.333333333333e-04 5.000000000000e-04 5.998244574283e-04
      vertex -8.333333333333e-04 3.333333333333e-04 5.998244574283e-04
    endloop
  endfacet
  facet normal 0 0 -1.0
    outer loop
      vertex -1.000000000000e-03 3.333333333333e-04 5.998244574283e-04
      vertex -1.000000000000e-03 5.000000000000e-04 5.998244574283e-04
      vertex -8.333333333333e-04 5.000000000000e-04 5.998244574283e-04
    endloop
  endfacet
  facet normal 0 0 -1.0
    outer loop
      vertex -1.000000000000e-03 5.000000000000e-04 5.998244574283e-04
      vertex -8.333333333333e-04 6.666666666667e-04 5.998244574283e-04
      vertex -8.333333333333e-04 5.000000000000e-04 5.998244574283e-04
    endloop
  endfacet
  facet normal 0 0 -1.0
    outer loop
      vertex -1.000000000000e-03 5.000000000000e-04 5.998244574283e-04
      vertex -1.000000000000e-03 6.666666666667e-04 5.998244574283e-04
      vertex -8.333333333333e-04 6.666666666667e-04 5.998244574283e-04
    endloop
  endfacet
  facet normal 0 0 -1.0
    outer loop
      vertex -1.000000000000e-03 6.666666666667e-04 5.998244574283e-04
      vertex -8.333333333333e-04 8.333333333333e-04 5.998244574283e-04
      vertex -8.333333333333e-04 6.666666666667e-04 5.998244574283e-04
    endloop
  endfacet
  facet normal 0 0 -1.0
    outer loop
      vertex -1.000000000000e-03 6.666666666667e-04 5.998244574283e-04
      vertex -1.000000000000e-03 8.333333333333e-04 5.998244574283e-04
      vertex -8.333333333333e-04 8.333333333333e-04 5.998244574283e-04
    endloop
  endfacet
  facet normal 0 0 -1.0
    outer loop
      vertex -1.000000000000e-03 8.333333333333e-04 5.998244574283e-04
      vertex -8.333333333333e-04 1.000000000000e-03 5.998244574283e-04
      vertex -8.333333333333e-04 8.333333333333e-04 5.998244574283e-04
    endloop
  endfacet
  facet normal 0 0 -1.0
    outer loop
      vertex -1.000000000000e-03 8.333333333333e-04 5.998244574283e-04
      vertex -1.000000000000e-03 1.000000000000e-03 5.998244574283e-04
      vertex -8.333333333333e-04 1.000000000000e-03 5.998244574283e-04
    endloop
  endfacet
  facet normal 0 0 -1.0
    outer loop
      vertex -8.333333333333e-04 -1.000000000000e-03 5.998244574283e-04
      vertex -6.666666666667e-04 -8.333333333333e-04 5.998244574283e-04
      vertex -6.666666666667e-04 -1.000000000000e-03 5.998244574283e-04
    endloop
  endfacet
  facet normal 0 0 -1.0
    outer loop
      vertex -8.333333333333e-04 -1.000000000000e-03 5.998244574283e-04
      vertex -8.333333333333e-04 -8.333333333333e-04 5.998244574283e-04
      vertex -6.666666666667e-04 -8.333333333333e-04 5.998244574283e-04
    endloop
  endfacet
  facet normal 0 0 -1.0
    outer loop
      vertex -8.333333333333e-04 -8.333333333333e-04 5.998244574283e-04
      vertex -6.666666666667e-04 -6.666666666667e-04 5.998244574283e-04
      vertex -6.666666666667e-04 -8.333333333333e-04 5.998244574283e-04
    endloop
  endfacet
  facet normal 0 0 -1.0
    outer loop
      vertex -8.333333333333e-04 -8.333333333333e-04 5.998244574283e-04
      vertex -8.333333333333e-04 -6.666666666667e-04 5.998244574283e-04
      vertex -6.666666666667e-04 -6.666666666667e-04 5.998244574283e-04
    endloop
  endfacet
  facet normal 0 0 -1.0
    outer loop
      vertex -8.333333333333e-04 -6.666666666667e-04 5.998244574283e-04
      vertex -6.666666666667e-04 -5.000000000000e-04 5.998244574283e-04
      vertex -6.666666666667e-04 -6.666666666667e-04 5.998244574283e-04
    endloop
  endfacet
  facet normal 0 0 -1.0
    outer loop
      vertex -8.333333333333e-04 -6.666666666667e-04 5.998244574283e-04
      vertex -8.333333333333e-04 -5.000000000000e-04 5.998244574283e-04
      vertex -6.666666666667e-04 -5.000000000000e-04 5.998244574283e-04
    endloop
  endfacet
  facet normal 0 0 -1.0
    outer loop
      vertex -8.333333333333e-04 -5.000000000000e-04 5.998244574283e-04
      vertex -6.666666666667e-04 -3.333333333333e-04 5.998244574283e-04
      vertex -6.666666666667e-04 -5.000000000000e-04 5.998244574283e-04
    endloop
  endfacet
  facet normal 0 0 -1.0
    outer loop
      vertex -8.333333333333e-04 -5.000000000000e-04 5.998244574283e-04
      vertex -8.333333333333e-04 -3.333333333333e-04 5.998244574283e-04
      vertex -6.666666666667e-04 -3.333333333333e-04 5.998244574283e-04
    endloop
  endfacet
  facet normal 0 0 -1.0
    outer loop
      vertex -8.333333333333e-04 -3.333333333333e-04 5.998244574283e-04
      vertex -6.666666666667e-04 -1.666666666667e-04 5.998244574283e-04
      vertex -6.666666666667e-04 -3.333333333333e-04 5.998244574283e-04
    endloop
  endfacet
  facet normal 0 0 -1.0
    outer loop
      vertex -8.333333333333e-04 -3.333333333333e-04 5.998244574283e-04
      vertex -8.333333333333e-04 -1.666666666667e-04 5.998244574283e-04
      vertex -6.666666666667e-04 -1.666666666667e-04 5.998244574283e-04
    endloop
  endfacet
  facet normal 0 0 -1.0
    outer loop
      vertex -8.333333333333e-04 -1.666666666667e-04 5.998244574283e-04
      vertex -6.666666666667e-04 -8.131516293641e-20 5.998244574283e-04
      vertex -6.666666666667e-04 -1.666666666667e-04 5.998244574283e-04
    endloop
  endfacet
  facet normal 0 0 -1.0
    outer loop
      vertex -8.333333333333e-04 -1.666666666667e-04 5.998244574283e-04
      vertex -8.333333333333e-04 -8.131516293641e-20 5.998244574283e-04
      vertex -6.666666666667e-04 -8.131516293641e-20 5.998244574283e-04
    endloop
  endfacet
  facet normal 0 0 -1.0
    outer loop
      vertex -8.333333333333e-04 0.000000000000e+00 5.998244574283e-04
      vertex -6.666666666667e-04 1.666666666667e-04 5.998244574283e-04
      vertex -6.666666666667e-04 0.000000000000e+00 5.998244574283e-04
    endloop
  endfacet
  facet normal 0 0 -1.0
    outer loop
      vertex -8.333333333333e-04 0.000000000000e+00 5.998244574283e-04
      vertex -8.333333333333e-04 1.666666666667e-04 5.998244574283e-04
      vertex -6.666666666667e-04 1.666666666667e-04 5.998244574283e-04
    endloop
  endfacet
  facet normal 0 0 -1.0
    outer loop
      vertex -8.333333333333e-04 1.666666666667e-04 5.998244574283e-04
      vertex -6.666666666667e-04 3.333333333333e-04 5.998244574283e-04
      vertex -6.666666666667e-04 1.666666666667e-04 5.998244574283e-04
    endloop
  endfacet
  facet normal 0 0 -1.0
    outer loop
      vertex -8.333333333333e-04 1.666666666667e-04 5.998244574283e-04
      vertex -8.333333333333e-04 3.333333333333e-04 5.998244574283e-04
      vertex -6.666666666667e-04 3.333333333333e-04 5.998244574283e-04
    endloop
  endfacet
  facet normal 0 0 -1.0
    outer loop
      vertex -8.333333333333e-04 3.333333333333e-04 5.998244574283e-04
      vertex -6.666666666667e-04 5.000000000000e-04 5.998244574283e-04
      vertex -6.666666666667e-04 3.333333333333e-04 5.998244574283e-04
    endloop
  endfacet
  facet normal 0 0 -1.0
    outer loop
      vertex -8.333333333333e-04 3.333333333333e-04 5.998244574283e-04
      vertex -8.333333333333e-04 5.000000000000e-04 5.998244574283e-04
      vertex -6.666666666667e-04 5.000000000000e-04 5.998244574283e-04
    endloop
  endfacet
  facet normal 0 0 -1.0
    outer loop
      vertex -8.333333333333e-04 5.000000000000e-04 5.998244574283e-04
      vertex -6.666666666667e-04 6.666666666667e-04 5.998244574283e-04
      vertex -6.666666666667e-04 5.000000000000e-04 5.998244574283e-04
    endloop
  endfacet
  facet normal 0 0 -1.0
    outer loop
      vertex -8.333333333333e-04 5.000000000000e-04 5.998244574283e-04
      vertex -8.333333333333e-04 6.666666666667e-04 5.998244574283e-04
      vertex -6.666666666667e-04 6.666666666667e-04 5.998244574283e-04
    endloop
  endfacet
  facet normal 0 0 -1.0
    outer loop
      vertex -8.333333333333e-04 6.666666666667e-04 5.998244574283e-04
      vertex -6.666666666667e-04 8.333333333333e-04 5.998244574283e-04
      vertex -6.666666666667e-04 6.666666666667e-04 5.998244574283e-04
    endloop
  endfacet
  facet normal 0 0 -1.0
    outer loop
      vertex -8.333333333333e-04 6.666666666667e-04 5.998244574283e-04
      vertex -8.333333333333e-04 8.333333333333e-04 5.998244574283e-04
      vertex -6.666666666667e-04 8.333333333333e-04 5.998244574283e-04
    endloop
  endfacet
  facet normal 0 0 -1.0
    outer loop
      vertex -8.333333333333e-04 8.333333333333e-04 5.998244574283e-04
      vertex -6.666666666667e-04 1.000000000000e-03 5.998244574283e-04
      vertex -6.666666666667e-04 8.333333333333e-04 5.998244574283e-04
    endloop
  endfacet
  facet normal 0 0 -1.0
    outer loop
      vertex -8.333333333333e-04 8.333333333333e-04 5.998244574283e-04
      vertex -8.333333333333e-04 1.000000000000e-03 5.998244574283e-04
      vertex -6.666666666667e-04 1.000000000000e-03 5.998244574283e-04
    endloop
  endfacet
  facet normal 0 0 -1.0
    outer loop
      vertex -6.666666666667e-04 -1.000000000000e-03 5.998244574283e-04
      vertex -5.000000000000e-04 -8.333333333333e-04 5.998244574283e-04
      vertex -5.000000000000e-04 -1.000000000000e-03 5.998244574283e-04
    endloop
  endfacet
  facet normal 0 0 -1.0
    outer loop
      vertex -6.666666666667e-04 -1.000000000000e-03 5.998244574283e-04
      vertex -6.666666666667e-04 -8.333333333333e-04 5.998244574283e-04
      vertex -5.000000000000e-04 -8.333333333333e-04 5.998244574283e-04
    endloop
  endfacet
  facet normal 0 0 -1.0
    outer loop
      vertex -6.666666666667e-04 -8.333333333333e-04 5.998244574283e-04
      vertex -5.000000000000e-04 -6.666666666667e-04 5.998244574283e-04
      vertex -5.000000000000e-04 -8.333333333333e-04 5.998244574283e-04
    endloop
  endfacet
  facet normal 0 0 -1.0
    outer loop
      vertex -6.666666666667e-04 -8.333333333333e-04 5.998244574283e-04
      vertex -6.666666666667e-04 -6.666666666667e-04 5.998244574283e-04
      vertex -5.000000000000e-04 -6.666666666667e-04 5.998244574283e-04
    endloop
  endfacet
  facet normal 0 0 -1.0
    outer loop
      vertex -6.666666666667e-04 -6.666666666667e-04 5.998244574283e-04
      vertex -5.000000000000e-04 -5.000000000000e-04 5.998244574283e-04
      vertex -5.000000000000e-04 -6.666666666667e-04 5.998244574283e-04
    endloop
  endfacet
  facet normal 0 0 -1.0
    outer loop
      vertex -6.666666666667e-04 -6.666666666667e-04 5.998244574283e-04
      vertex -6.666666666667e-04 -5.000000000000e-04 5.998244574283e-04
      vertex -5.000000000000e-04 -5.000000000000e-04 5.998244574283e-04
    endloop
  endfacet
  facet normal 0 0 -1.0
    outer loop
      vertex -6.666666666667e-04 -5.000000000000e-04 5.998244574283e-04
      vertex -5.000000000000e-04 -3.333333333333e-04 5.998244574283e-04
      vertex -5.000000000000e-04 -5.000000000000e-04 5.998244574283e-04
    endloop
  endfacet
  facet normal 0 0 -1.0
    outer loop
      vertex -6.666666666667e-04 -5.000000000000e-04 5.998244574283e-04
      vertex -6.666666666667e-04 -3.333333333333e-04 5.998244574283e-04
      vertex -5.000000000000e-04 -3.333333333333e-04 5.998244574283e-04
    endloop
  endfacet
  facet normal 0 0 -1.0
    outer loop
      vertex -6.666666666667e-04 -3.333333333333e-04 5.998244574283e-04
      vertex -5.000000000000e-04 -1.666666666667e-04 5.998244574283e-04
      vertex -5.000000000000e-04 -3.333333333333e-04 5.998244574283e-04
    endloop
  endfacet
  facet normal 0 0 -1.0
    outer loop
      vertex -6.666666666667e-04 -3.333333333333e-04 5.998244574283e-04
      vertex -6.666666666667e-04 -1.666666666667e-04 5.998244574283e-04
      vertex -5.000000000000e-04 -1.666666666667e-04 5.998244574283e-04
    endloop
  endfacet
  facet normal 0 0 -1.0
    outer loop
      vertex -6.666666666667e-04 -1.666666666667e-04 5.998244574283e-04
      vertex -5.000000000000e-04 -8.131516293641e-20 5.998244574283e-04
      vertex -5.000000000000e-04 -1.666666666667e-04 5.998244574283e-04
    endloop
  endfacet
  facet normal 0 0 -1.0
    outer loop
      vertex -6.666666666667e-04 -1.666666666667e-04 5.998244574283e-04
      vertex -6.666666666667e-04 -8.131516293641e-20 5.998244574283e-04
      vertex -5.000000000000e-04 -8.131516293641e-20 5.998244574283e-04
    endloop
  endfacet
  facet normal 0 0 -1.0
    outer loop
      vertex -6.666666666667e-04 0.000000000000e+00 5.998244574283e-04
      vertex -5.000000000000e-04 1.666666666667e-04 5.998244574283e-04
      vertex -5.000000000000e-04 0.000000000000e+00 5.998244574283e-04
    endloop
  endfacet
  facet normal 0 0 -1.0
    outer loop
      vertex -6.666666666667e-04 0.000000000000e+00 5.998244574283e-04
      vertex -6.666666666667e-04 1.666666666667e-04 5.998244574283e-04
      vertex -5.000000000000e-04 1.666666666667e-04 5.998244574283e-04
    endloop
  endfacet
  facet normal 0 0 -1.0
    outer loop
      vertex -6.666666666667e-04 1.666666666667e-04 5.998244574283e-04
      vertex -5.000000000000e-04 3.333333333333e-04 5.998244574283e-04
      vertex -5.000000000000e-04 1.666666666667e-04 5.998244574283e-04
    endloop
  endfacet
  facet normal 0 0 -1.0
    outer loop
      vertex -6.666666666667e-04 1.666666666667e-04 5.998244574283e-04
      vertex -6.666666666667e-04 3.333333333333e-04 5.998244574283e-04
      vertex -5.000000000000e-04 3.333333333333e-04 5.998244574283e-04
    endloop
  endfacet
  facet normal 0 0 -1.0
    outer loop
      vertex -6.666666666667e-04 3.333333333333e-04 5.998244574283e-04
      vertex -5.000000000000e-04 5.000000000000e-04 5.998244574283e-04
      vertex -5.000000000000e-04 3.333333333333e-04 5.998244574283e-04
    endloop
  endfacet
  facet normal 0 0 -1.0
    outer loop
      vertex -6.666666666667e-04 3.333333333333e-04 5.998244574283e-04
      vertex -6.666666666667e-04 5.000000000000e-04 5.998244574283e-04
      vertex -5.000000000000e-04 5.000000000000e-04 5.998244574283e-04
    endloop
  endfacet
  facet normal 0 0 -1.0
    outer loop
      vertex -6.666666666667e-04 5.000000000000e-04 5.998244574283e-04
      vertex -5.000000000000e-04 6.666666666667e-04 5.998244574283e-04
      vertex -5.000000000000e-04 5.000000000000e-04 5.998244574283e-04
    endloop
  endfacet
  facet normal 0 0 -1.0
    outer loop
      vertex -6.666666666667e-04 5.000000000000e-04 5.998244574283e-04
      vertex -6.666666666667e-04 6.666666666667e-04 5.998244574283e-04
      vertex -5.000000000000e-04 6.666666666667e-04 5.998244574283e-04
    endloop
  endfacet
  facet normal 0 0 -1.0
    outer loop
      vertex -6.666666666667e-04 6.666666666667e-04 5.998244574283e-04
      vertex -5.000000000000e-04 8.333333333333e-04 5.998244574283e-04
      vertex -5.000000000000e-04 6.666666666667e-04 5.998244574283e-04
    endloop
  endfacet
  facet normal 0 0 -1.0
    outer loop
      vertex -6.666666666667e-04 6.666666666667e-04 5.998244574283e-04
      vertex -6.666666666667e-04 8.333333333333e-04 5.998244574283e-04
      vertex -5.000000000000e-04 8.333333333333e-04 5.998244574283e-04
    endloop
  endfacet
  facet normal 0 0 -1.0
    outer loop
      vertex -6.666666666667e-04 8.333333333333e-04 5.998244574283e-04
      vertex -5.000000000000e-04 1.000000000000e-03 5.998244574283e-04
      vertex -5.000000000000e-04 8.333333333333e-04 5.998244574283e-04
    endloop
  endfacet
  facet normal 0 0 -1.0
    outer loop
      vertex -6.666666666667e-04 8.333333333333e-04 5.998244574283e-04
      vertex -6.666666666667e-04 1.000000000000e-03 5.998244574283e-04
      vertex -5.000000000000e-04 1.000000000000e-03 5.998244574283e-04
    endloop
  endfacet
  facet normal 0 0 -1.0
    outer loop
      vertex -5.000000000000e-04 -1.000000000000e-03 5.998244574283e-04
      vertex -3.333333333333e-04 -8.333333333333e-04 5.998244574283e-04
      vertex -3.333333333333e-04 -1.000000000000e-03 5.998244574283e-04
    endloop
  endfacet
  facet normal 0 0 -1.0
    outer loop
      vertex -5.000000000000e-04 -1.000000000000e-03 5.998244574283e-04
      vertex -5.000000000000e-04 -8.333333333333e-04 5.998244574283e-04
      vertex -3.333333333333e-04 -8.333333333333e-04 5.998244574283e-04
    endloop
  endfacet
  facet normal 0 0 -1.0
    outer loop
      vertex -5.000000000000e-04 -8.333333333333e-04 5.998244574283e-04
      vertex -3.333333333333e-04 -6.666666666667e-04 5.998244574283e-04
      vertex -3.333333333333e-04 -8.333333333333e-04 5.998244574283e-04
    endloop
  endfacet
  facet normal 0 0 -1.0
    outer loop
      vertex -5.000000000000e-04 -8.333333333333e-04 5.998244574283e-04
      vertex -5.000000000000e-04 -6.666666666667e-04 5.998244574283e-04
      vertex -3.333333333333e-04 -6.666666666667e-04 5.998244574283e-04
    endloop
  endfacet
  facet normal 0 0 -1.0
    outer loop
      vertex -5.000000000000e-04 -6.666666666667e-04 5.998244574283e-04
      vertex -3.333333333333e-04 -5.000000000000e-04 5.998244574283e-04
      vertex -3.333333333333e-04 -6.666666666667e-04 5.998244574283e-04
    endloop
  endfacet
  facet normal 0 0 -1.0
    outer loop
      vertex -5.000000000000e-04 -6.666666666667e-04 5.998244574283e-04
      vertex -5.000000000000e-04 -5.000000000000e-04 5.998244574283e-04
      vertex -3.333333333333e-04 -5.000000000000e-04 5.998244574283e-04
    endloop
  endfacet
  facet normal 0 0 -1.0
    outer loop
      vertex -5.000000000000e-04 -5.000000000000e-04 5.998244574283e-04
      vertex -3.333333333333e-04 -3.333333333333e-04 5.998244574283e-04
      vertex -3.333333333333e-04 -5.000000000000e-04 5.998244574283e-04
    endloop
  endfacet
  facet normal 0 0 -1.0
    outer loop
      vertex -5.000000000000e-04 -5.000000000000e-04 5.998244574283e-04
      vertex -5.000000000000e-04 -3.333333333333e-04 5.998244574283e-04
      vertex -3.333333333333e-04 -3.333333333333e-04 5.998244574283e-04
    endloop
  endfacet
  facet normal 0 0 -1.0
    outer loop
      vertex -5.000000000000e-04 -3.333333333333e-04 5.998244574283e-04
      vertex -3.333333333333e-04 -1.666666666667e-04 5.998244574283e-04
      vertex -3.333333333333e-04 -3.333333333333e-04 5.998244574283e-04
    endloop
  endfacet
  facet normal 0 0 -1.0
    outer loop
      vertex -5.000000000000e-04 -3.333333333333e-04 5.998244574283e-04
      vertex -5.000000000000e-04 -1.666666666667e-04 5.998244574283e-04
      vertex -3.333333333333e-04 -1.666666666667e-04 5.998244574283e-04
    endloop
  endfacet
  facet normal 0 0 -1.0
    outer loop
      vertex -5.000000000000e-04 -1.666666666667e-04 5.998244574283e-04
      vertex -3.333333333333e-04 -8.131516293641e-20 5.998244574283e-04
      vertex -3.333333333333e-04 -1.666666666667e-04 5.998244574283e-04
    endloop
  endfacet
  facet normal 0 0 -1.0
    outer loop
      vertex -5.000000000000e-04 -1.666666666667e-04 5.998244574283e-04
      vertex -5.000000000000e-04 -8.131516293641e-20 5.998244574283e-04
      vertex -3.333333333333e-04 -8.131516293641e-20 5.998244574283e-04
    endloop
  endfacet
  facet normal 0 0 -1.0
    outer loop
      vertex -5.000000000000e-04 0.000000000000e+00 5.998244574283e-04
      vertex -3.333333333333e-04 1.666666666667e-04 5.998244574283e-04
      vertex -3.333333333333e-04 0.000000000000e+00 5.998244574283e-04
    endloop
  endfacet
  facet normal 0 0 -1.0
    outer loop
      vertex -5.000000000000e-04 0.000000000000e+00 5.998244574283e-04
      vertex -5.000000000000e-04 1.666666666667e-04 5.998244574283e-04
      vertex -3.333333333333e-04 1.666666666667e-04 5.998244574283e-04
    endloop
  endfacet
  facet normal 0 0 -1.0
    outer loop
      vertex -5.000000000000e-04 1.666666666667e-04 5.998244574283e-04
      vertex -3.333333333333e-04 3.333333333333e-04 5.998244574283e-04
      vertex -3.333333333333e-04 1.666666666667e-04 5.998244574283e-04
    endloop
  endfacet
  facet normal 0 0 -1.0
    outer loop
      vertex -5.000000000000e-04 1.666666666667e-04 5.998244574283e-04
      vertex -5.000000000000e-04 3.333333333333e-04 5.998244574283e-04
      vertex -3.333333333333e-04 3.333333333333e-04 5.998244574283e-04
    endloop
  endfacet
  facet normal 0 0 -1.0
    outer loop
      vertex -5.000000000000e-04 3.333333333333e-04 5.998244574283e-04
      vertex -3.333333333333e-04 5.000000000000e-04 5.998244574283e-04
      vertex -3.333333333333e-04 3.333333333333e-04 5.998244574283e-04
    endloop
  endfacet
  facet normal 0 0 -1.0
    outer loop
      vertex -5.000000000000e-04 3.333333333333e-04 5.998244574283e-04
      vertex -5.000000000000e-04 5.000000000000e-04 5.998244574283e-04
      vertex -3.333333333333e-04 5.000000000000e-04 5.998244574283e-04
    endloop
  endfacet
  facet normal 0 0 -1.0
    outer loop
      vertex -5.000000000000e-04 5.000000000000e-04 5.998244574283e-04
      vertex -3.333333333333e-04 6.666666666667e-04 5.998244574283e-04
      vertex -3.333333333333e-04 5.000000000000e-04 5.998244574283e-04
    endloop
  endfacet
  facet normal 0 0 -1.0
    outer loop
      vertex -5.000000000000e-04 5.000000000000e-04 5.998244574283e-04
      vertex -5.000000000000e-04 6.666666666667e-04 5.998244574283e-04
      vertex -3.333333333333e-04 6.666666666667e-04 5.998244574283e-04
    endloop
  endfacet
  facet normal 0 0 -1.0
    outer loop
      vertex -5.000000000000e-04 6.666666666667e-04 5.998244574283e-04
      vertex -3.333333333333e-04 8.333333333333e-04 5.998244574283e-04
      vertex -3.333333333333e-04 6.666666666667e-04 5.998244574283e-04
    endloop
  endfacet
  facet normal 0 0 -1.0
    outer loop
      vertex -5.000000000000e-04 6.666666666667e-04 5.998244574283e-04
      vertex -5.000000000000e-04 8.333333333333e-04 5.998244574283e-04
      vertex -3.333333333333e-04 8.333333333333e-04 5.998244574283e-04
    endloop
  endfacet
  facet normal 0 0 -1.0
    outer loop
      vertex -5.000000000000e-04 8.333333333333e-04 5.998244574283e-04
      vertex -3.333333333333e-04 1.000000000000e-03 5.998244574283e-04
      vertex -3.333333333333e-04 8.333333333333e-04 5.998244574283e-04
    endloop
  endfacet
  facet normal 0 0 -1.0
    outer loop
      vertex -5.000000000000e-04 8.333333333333e-04 5.998244574283e-04
      vertex -5.000000000000e-04 1.000000000000e-03 5.998244574283e-04
      vertex -3.333333333333e-04 1.000000000000e-03 5.998244574283e-04
    endloop
  endfacet
  facet normal 0 0 -1.0
    outer loop
      vertex -3.333333333333e-04 -1.000000000000e-03 5.998244574283e-04
      vertex -1.666666666667e-04 -8.333333333333e-04 5.998244574283e-04
      vertex -1.666666666667e-04 -1.000000000000e-03 5.998244574283e-04
    endloop
  endfacet
  facet normal 0 0 -1.0
    outer loop
      vertex -3.333333333333e-04 -1.000000000000e-03 5.998244574283e-04
      vertex -3.333333333333e-04 -8.333333333333e-04 5.998244574283e-04
      vertex -1.666666666667e-04 -8.333333333333e-04 5.998244574283e-04
    endloop
  endfacet
  facet normal 0 0 -1.0
    outer loop
      vertex -3.333333333333e-04 -8.333333333333e-04 5.998244574283e-04
      vertex -1.666666666667e-04 -6.666666666667e-04 5.998244574283e-04
      vertex -1.666666666667e-04 -8.333333333333e-04 5.998244574283e-04
    endloop
  endfacet
  facet normal 0 0 -1.0
    outer loop
      vertex -3.333333333333e-04 -8.333333333333e-04 5.998244574283e-04
      vertex -3.333333333333e-04 -6.666666666667e-04 5.998244574283e-04
      vertex -1.666666666667e-04 -6.666666666667e-04 5.998244574283e-04
    endloop
  endfacet
  facet normal 0 0 -1.0
    outer loop
      vertex -3.333333333333e-04 -6.666666666667e-04 5.998244574283e-04
      vertex -1.666666666667e-04 -5.000000000000e-04 5.998244574283e-04
      vertex -1.666666666667e-04 -6.666666666667e-04 5.998244574283e-04
    endloop
  endfacet
  facet normal 0 0 -1.0
    outer loop
      vertex -3.333333333333e-04 -6.666666666667e-04 5.998244574283e-04
      vertex -3.333333333333e-04 -5.000000000000e-04 5.998244574283e-04
      vertex -1.666666666667e-04 -5.000000000000e-04 5.998244574283e-04
    endloop
  endfacet
  facet normal 0 0 -1.0
    outer loop
      vertex -3.333333333333e-04 -5.000000000000e-04 5.998244574283e-04
      vertex -1.666666666667e-04 -3.333333333333e-04 5.998244574283e-04
      vertex -1.666666666667e-04 -5.000000000000e-04 5.998244574283e-04
    endloop
  endfacet
  facet normal 0 0 -1.0
    outer loop
      vertex -3.333333333333e-04 -5.000000000000e-04 5.998244574283e-04
      vertex -3.333333333333e-04 -3.333333333333e-04 5.998244574283e-04
      vertex -1.666666666667e-04 -3.333333333333e-04 5.998244574283e-04
    endloop
  endfacet
  facet normal 0 0 -1.0
    outer loop
      vertex -3.333333333333e-04 -3.333333333333e-04 5.998244574283e-04
      vertex -1.666666666667e-04 -1.666666666667e-04 5.998244574283e-04
      vertex -1.666666666667e-04 -3.333333333333e-04 5.998244574283e-04
    endloop
  endfacet
  facet normal 0 0 -1.0
    outer loop
      vertex -3.333333333333e-04 -3.333333333333e-04 5.998244574283e-04
      vertex -3.333333333333e-04 -1.666666666667e-04 5.998244574283e-04
      vertex -1.666666666667e-04 -1.666666666667e-04 5.998244574283e-04
    endloop
  endfacet
  facet normal 0 0 -1.0
    outer loop
      vertex -3.333333333333e-04 -1.666666666667e-04 5.998244574283e-04
      vertex -1.666666666667e-04 -8.131516293641e-20 5.998244574283e-04
      vertex -1.666666666667e-04 -1.666666666667e-04 5.998244574283e-04
    endloop
  endfacet
  facet normal 0 0 -1.0
    outer loop
      vertex -3.333333333333e-04 -1.666666666667e-04 5.998244574283e-04
      vertex -3.333333333333e-04 -8.131516293641e-20 5.998244574283e-04
      vertex -1.666666666667e-04 -8.131516293641e-20 5.998244574283e-04
    endloop
  endfacet
  facet normal 0 0 -1.0
    outer loop
      vertex -3.333333333333e-04 0.000000000000e+00 5.998244574283e-04
      vertex -1.666666666667e-04 1.666666666667e-04 5.998244574283e-04
      vertex -1.666666666667e-04 0.000000000000e+00 5.998244574283e-04
    endloop
  endfacet
  facet normal 0 0 -1.0
    outer loop
      vertex -3.333333333333e-04 0.000000000000e+00 5.998244574283e-04
      vertex -3.333333333333e-04 1.666666666667e-04 5.998244574283e-04
      vertex -1.666666666667e-04 1.666666666667e-04 5.998244574283e-04
    endloop
  endfacet
  facet normal 0 0 -1.0
    outer loop
      vertex -3.333333333333e-04 1.666666666667e-04 5.998244574283e-04
      vertex -1.666666666667e-04 3.333333333333e-04 5.998244574283e-04
      vertex -1.666666666667e-04 1.666666666667e-04 5.998244574283e-04
    endloop
  endfacet
  facet normal 0 0 -1.0
    outer loop
      vertex -3.333333333333e-04 1.666666666667e-04 5.998244574283e-04
      vertex -3.333333333333e-04 3.333333333333e-04 5.998244574283e-04
      vertex -1.666666666667e-04 3.333333333333e-04 5.998244574283e-04
    endloop
  endfacet
  facet normal 0 0 -1.0
    outer loop
      vertex -3.333333333333e-04 3.333333333333e-04 5.998244574283e-04
      vertex -1.666666666667e-04 5.000000000000e-04 5.998244574283e-04
      vertex -1.666666666667e-04 3.333333333333e-04 5.998244574283e-04
    endloop
  endfacet
  facet normal 0 0 -1.0
    outer loop
      vertex -3.333333333333e-04 3.333333333333e-04 5.998244574283e-04
      vertex -3.333333333333e-04 5.000000000000e-04 5.998244574283e-04
      vertex -1.666666666667e-04 5.000000000000e-04 5.998244574283e-04
    endloop
  endfacet
  facet normal 0 0 -1.0
    outer loop
      vertex -3.333333333333e-04 5.000000000000e-04 5.998244574283e-04
      vertex -1.666666666667e-04 6.666666666667e-04 5.998244574283e-04
      vertex -1.666666666667e-04 5.000000000000e-04 5.998244574283e-04
    endloop
  endfacet
  facet normal 0 0 -1.0
    outer loop
      vertex -3.333333333333e-04 5.000000000000e-04 5.998244574283e-04
      vertex -3.333333333333e-04 6.666666666667e-04 5.998244574283e-04
      vertex -1.666666666667e-04 6.666666666667e-04 5.998244574283e-04
    endloop
  endfacet
  facet normal 0 0 -1.0
    outer loop
      vertex -3.333333333333e-04 6.666666666667e-04 5.998244574283e-04
      vertex -1.666666666667e-04 8.333333333333e-04 5.998244574283e-04
      vertex -1.666666666667e-04 6.666666666667e-04 5.998244574283e-04
    endloop
  endfacet
  facet normal 0 0 -1.0
    outer loop
      vertex -3.333333333333e-04 6.666666666667e-04 5.998244574283e-04
      vertex -3.333333333333e-04 8.333333333333e-04 5.998244574283e-04
      vertex -1.666666666667e-04 8.333333333333e-04 5.998244574283e-04
    endloop
  endfacet
  facet normal 0 0 -1.0
    outer loop
      vertex -3.333333333333e-04 8.333333333333e-04 5.998244574283e-04
      vertex -1.666666666667e-04 1.000000000000e-03 5.998244574283e-04
      vertex -1.666666666667e-04 8.333333333333e-04 5.998244574283e-04
    endloop
  endfacet
  facet normal 0 0 -1.0
    outer loop
      vertex -3.333333333333e-04 8.333333333333e-04 5.998244574283e-04
      vertex -3.333333333333e-04 1.000000000000e-03 5.998244574283e-04
      vertex -1.666666666667e-04 1.000000000000e-03 5.998244574283e-04
    endloop
  endfacet
  facet normal 0 0 -1.0
    outer loop
      vertex -1.666666666667e-04 -1.000000000000e-03 5.998244574283e-04
      vertex -8.131516293641e-20 -8.333333333333e-04 5.998244574283e-04
      vertex -8.131516293641e-20 -1.000000000000e-03 5.998244574283e-04
    endloop
  endfacet
  facet normal 0 0 -1.0
    outer loop
      vertex -1.666666666667e-04 -1.000000000000e-03 5.998244574283e-04
      vertex -1.666666666667e-04 -8.333333333333e-04 5.998244574283e-04
      vertex -8.131516293641e-20 -8.333333333333e-04 5.998244574283e-04
    endloop
  endfacet
  facet normal 0 0 -1.0
    outer loop
      vertex -1.666666666667e-04 -8.333333333333e-04 5.998244574283e-04
      vertex -8.131516293641e-20 -6.666666666667e-04 5.998244574283e-04
      vertex -8.131516293641e-20 -8.333333333333e-04 5.998244574283e-04
    endloop
  endfacet
  facet normal 0 0 -1.0
    outer loop
      vertex -1.666666666667e-04 -8.333333333333e-04 5.998244574283e-04
      vertex -1.666666666667e-04 -6.666666666667e-04 5.998244574283e-04
      vertex -8.131516293641e-20 -6.666666666667e-04 5.998244574283e-04
    endloop
  endfacet
  facet normal 0 0 -1.0
    outer loop
      vertex -1.666666666667e-04 -6.666666666667e-04 5.998244574283e-04
      vertex -8.131516293641e-20 -5.000000000000e-04 5.998244574283e-04
      vertex -8.131516293641e-20 -6.666666666667e-04 5.998244574283e-04
    endloop
  endfacet
  facet normal 0 0 -1.0
    outer loop
      vertex -1.666666666667e-04 -6.666666666667e-04 5.998244574283e-04
      vertex -1.666666666667e-04 -5.000000000000e-04 5.998244574283e-04
      vertex -8.131516293641e-20 -5.000000000000e-04 5.998244574283e-04
    endloop
  endfacet
  facet normal 0 0 -1.0
    outer loop
      vertex -1.666666666667e-04 -5.000000000000e-04 5.998244574283e-04
      vertex -8.131516293641e-20 -3.333333333333e-04 5.998244574283e-04
      vertex -8.131516293641e-20 -5.000000000000e-04 5.998244574283e-04
    endloop
  endfacet
  facet normal 0 0 -1.0
    outer loop
      vertex -1.666666666667e-04 -5.000000000000e-04 5.998244574283e-04
      vertex -1.666666666667e-04 -3.333333333333e-04 5.998244574283e-04
      vertex -8.131516293641e-20 -3.333333333333e-04 5.998244574283e-04
    endloop
  endfacet
  facet normal 0 0 -1.0
    outer loop
      vertex -1.666666666667e-04 -3.333333333333e-04 5.998244574283e-04
      vertex -8.131516293641e-20 -1.666666666667e-04 5.998244574283e-04
      vertex -8.131516293641e-20 -3.333333333333e-04 5.998244574283e-04
    endloop
  endfacet
  facet normal 0 0 -1.0
    outer loop
      vertex -1.666666666667e-04 -3.333333333333e-04 5.998244574283e-04
      vertex -1.666666666667e-04 -1.666666666667e-04 5.998244574283e-04
      vertex -8.131516293641e-20 -1.666666666667e-04 5.998244574283e-04
    endloop
  endfacet
  facet normal 0 0 -1.0
    outer loop
      vertex -1.666666666667e-04 -1.666666666667e-04 5.998244574283e-04
      vertex -8.131516293641e-20 -8.131516293641e-20 5.998244574283e-04
      vertex -8.131516293641e-20 -1.666666666667e-04 5.998244574283e-04
    endloop
  endfacet
  facet normal 0 0 -1.0
    outer loop
      vertex -1.666666666667e-04 -1.666666666667e-04 5.998244574283e-04
      vertex -1.666666666667e-04 -8.131516293641e-20 5.998244574283e-04
      vertex -8.131516293641e-20 -8.131516293641e-20 5.998244574283e-04
    endloop
  endfacet
  facet normal 0 0 -1.0
    outer loop
      vertex -1.666666666667e-04 0.000000000000e+00 5.998244574283e-04
      vertex -8.131516293641e-20 1.666666666667e-04 5.998244574283e-04
      vertex -8.131516293641e-20 0.000000000000e+00 5.998244574283e-04
    endloop
  endfacet
  facet normal 0 0 -1.0
    outer loop
      vertex -1.666666666667e-04 0.000000000000e+00 5.998244574283e-04
      vertex -1.666666666667e-04 1.666666666667e-04 5.998244574283e-04
      vertex -8.131516293641e-20 1.666666666667e-04 5.998244574283e-04
    endloop
  endfacet
  facet normal 0 0 -1.0
    outer loop
      vertex -1.666666666667e-04 1.666666666667e-04 5.998244574283e-04
      vertex -8.131516293641e-20 3.333333333333e-04 5.998244574283e-04
      vertex -8.131516293641e-20 1.666666666667e-04 5.998244574283e-04
    endloop
  endfacet
  facet normal 0 0 -1.0
    outer loop
      vertex -1.666666666667e-04 1.666666666667e-04 5.998244574283e-04
      vertex -1.666666666667e-04 3.333333333333e-04 5.998244574283e-04
      vertex -8.131516293641e-20 3.333333333333e-04 5.998244574283e-04
    endloop
  endfacet
  facet normal 0 0 -1.0
    outer loop
      vertex -1.666666666667e-04 3.333333333333e-04 5.998244574283e-04
      vertex -8.131516293641e-20 5.000000000000e-04 5.998244574283e-04
      vertex -8.131516293641e-20 3.333333333333e-04 5.998244574283e-04
    endloop
  endfacet
  facet normal 0 0 -1.0
    outer loop
      vertex -1.666666666667e-04 3.333333333333e-04 5.998244574283e-04
      vertex -1.666666666667e-04 5.000000000000e-04 5.998244574283e-04
      vertex -8.131516293641e-20 5.000000000000e-04 5.998244574283e-04
    endloop
  endfacet
  facet normal 0 0 -1.0
    outer loop
      vertex -1.666666666667e-04 5.000000000000e-04 5.998244574283e-04
      vertex -8.131516293641e-20 6.666666666667e-04 5.998244574283e-04
      vertex -8.131516293641e-20 5.000000000000e-04 5.998244574283e-04
    endloop
  endfacet
  facet normal 0 0 -1.0
    outer loop
      vertex -1.666666666667e-04 5.000000000000e-04 5.998244574283e-04
      vertex -1.666666666667e-04 6.666666666667e-04 5.998244574283e-04
      vertex -8.131516293641e-20 6.666666666667e-04 5.998244574283e-04
    endloop
  endfacet
  facet normal 0 0 -1.0
    outer loop
      vertex -1.666666666667e-04 6.666666666667e-04 5.998244574283e-04
      vertex -8.131516293641e-20 8.333333333333e-04 5.998244574283e-04
      vertex -8.131516293641e-20 6.666666666667e-04 5.998244574283e-04
    endloop
  endfacet
  facet normal 0 0 -1.0
    outer loop
      vertex -1.666666666667e-04 6.666666666667e-04 5.998244574283e-04
      vertex -1.666666666667e-04 8.333333333333e-04 5.998244574283e-04
      vertex -8.131516293641e-20 8.333333333333e-04 5.998244574283e-04
    endloop
  endfacet
  facet normal 0 0 -1.0
    outer loop
      vertex -1.666666666667e-04 8.333333333333e-04 5.998244574283e-04
      vertex -8.131516293641e-20 1.000000000000e-03 5.998244574283e-04
      vertex -8.131516293641e-20 8.333333333333e-04 5.998244574283e-04
    endloop
  endfacet
  facet normal 0 0 -1.0
    outer loop
      vertex -1.666666666667e-04 8.333333333333e-04 5.998244574283e-04
      vertex -1.666666666667e-04 1.000000000000e-03 5.998244574283e-04
      vertex -8.131516293641e-20 1.000000000000e-03 5.998244574283e-04
    endloop
  endfacet
  facet normal 0 0 -1.0
    outer loop
      vertex 0.000000000000e+00 -1.000000000000e-03 5.998244574283e-04
      vertex 1.666666666667e-04 -8.333333333333e-04 5.998244574283e-04
      vertex 1.666666666667e-04 -1.000000000000e-03 5.998244574283e-04
    endloop
  endfacet
  facet normal 0 0 -1.0
    outer loop
      vertex 0.000000000000e+00 -1.000000000000e-03 5.998244574283e-04
      vertex 0.000000000000e+00 -8.333333333333e-04 5.998244574283e-04
      vertex 1.666666666667e-04 -8.333333333333e-04 5.998244574283e-04
    endloop
  endfacet
  facet normal 0 0 -1.0
    outer loop
      vertex 0.000000000000e+00 -8.333333333333e-04 5.998244574283e-04
      vertex 1.666666666667e-04 -6.666666666667e-04 5.998244574283e-04
      vertex 1.666666666667e-04 -8.333333333333e-04 5.998244574283e-04
    endloop
  endfacet
  facet normal 0 0 -1.0
    outer loop
      vertex 0.000000000000e+00 -8.333333333333e-04 5.998244574283e-04
      vertex 0.000000000000e+00 -6.666666666667e-04 5.998244574283e-04
      vertex 1.666666666667e-04 -6.666666666667e-04 5.998244574283e-04
    endloop
  endfacet
  facet normal 0 0 -1.0
    outer loop
      vertex 0.000000000000e+00 -6.666666666667e-04 5.998244574283e-04
      vertex 1.666666666667e-04 -5.000000000000e-04 5.998244574283e-04
      vertex 1.666666666667e-04 -6.666666666667e-04 5.998244574283e-04
    endloop
  endfacet
  facet normal 0 0 -1.0
    outer loop
      vertex 0.000000000000e+00 -6.666666666667e-04 5.998244574283e-04
      vertex 0.000000000000e+00 -5.000000000000e-04 5.998244574283e-04
      vertex 1.666666666667e-04 -5.000000000000e-04 5.998244574283e-04
    endloop
  endfacet
  facet normal 0 0 -1.0
    outer loop
      vertex 0.000000000000e+00 -5.000000000000e-04 5.998244574283e-04
      vertex 1.666666666667e-04 -3.333333333333e-04 5.998244574283e-04
      vertex 1.666666666667e-04 -5.000000000000e-04 5.998244574283e-04
    endloop
  endfacet
  facet normal 0 0 -1.0
    outer loop
      vertex 0.000000000000e+00 -5.000000000000e-04 5.998244574283e-04
      vertex 0.000000000000e+00 -3.333333333333e-04 5.998244574283e-04
      vertex 1.666666666667e-04 -3.333333333333e-04 5.998244574283e-04
    endloop
  endfacet
  facet normal 0 0 -1.0
    outer loop
      vertex 0.000000000000e+00 -3.333333333333e-04 5.998244574283e-04
      vertex 1.666666666667e-04 -1.666666666667e-04 5.998244574283e-04
      vertex 1.666666666667e-04 -3.333333333333e-04 5.998244574283e-04
    endloop
  endfacet
  facet normal 0 0 -1.0
    outer loop
      vertex 0.000000000000e+00 -3.333333333333e-04 5.998244574283e-04
      vertex 0.000000000000e+00 -1.666666666667e-04 5.998244574283e-04
      vertex 1.666666666667e-04 -1.666666666667e-04 5.998244574283e-04
    endloop
  endfacet
  facet normal 0 0 -1.0
    outer loop
      vertex 0.000000000000e+00 -1.666666666667e-04 5.998244574283e-04
      vertex 1.666666666667e-04 -8.131516293641e-20 5.998244574283e-04
      vertex 1.666666666667e-04 -1.666666666667e-04 5.998244574283e-04
    endloop
  endfacet
  facet normal 0 0 -1.0
    outer loop
      vertex 0.000000000000e+00 -1.666666666667e-04 5.998244574283e-04
      vertex 0.000000000000e+00 -8.131516293641e-20 5.998244574283e-04
      vertex 1.666666666667e-04 -8.131516293641e-20 5.998244574283e-04
    endloop
  endfacet
  facet normal 0 0 -1.0
    outer loop
      vertex 0.000000000000e+00 0.000000000000e+00 5.998244574283e-04
      vertex 1.666666666667e-04 1.666666666667e-04 5.998244574283e-04
      vertex 1.666666666667e-04 0.000000000000e+00 5.998244574283e-04
    endloop
  endfacet
  facet normal 0 0 -1.0
    outer loop
      vertex 0.000000000000e+00 0.000000000000e+00 5.998244574283e-04
      vertex 0.000000000000e+00 1.666666666667e-04 5.998244574283e-04
      vertex 1.666666666667e-04 1.666666666667e-04 5.998244574283e-04
    endloop
  endfacet
  facet normal 0 0 -1.0
    outer loop
      vertex 0.000000000000e+00 1.666666666667e-04 5.998244574283e-04
      vertex 1.666666666667e-04 3.333333333333e-04 5.998244574283e-04
      vertex 1.666666666667e-04 1.666666666667e-04 5.998244574283e-04
    endloop
  endfacet
  facet normal 0 0 -1.0
    outer loop
      vertex 0.000000000000e+00 1.666666666667e-04 5.998244574283e-04
      vertex 0.000000000000e+00 3.333333333333e-04 5.998244574283e-04
      vertex 1.666666666667e-04 3.333333333333e-04 5.998244574283e-04
    endloop
  endfacet
  facet normal 0 0 -1.0
    outer loop
      vertex 0.000000000000e+00 3.333333333333e-04 5.998244574283e-04
      vertex 1.666666666667e-04 5.000000000000e-04 5.998244574283e-04
      vertex 1.666666666667e-04 3.333333333333e-04 5.998244574283e-04
    endloop
  endfacet
  facet normal 0 0 -1.0
    outer loop
      vertex 0.000000000000e+00 3.333333333333e-04 5.998244574283e-04
      vertex 0.000000000000e+00 5.000000000000e-04 5.998244574283e-04
      vertex 1.666666666667e-04 5.000000000000e-04 5.998244574283e-04
    endloop
  endfacet
  facet normal 0 0 -1.0
    outer loop
      vertex 0.000000000000e+00 5.000000000000e-04 5.998244574283e-04
      vertex 1.666666666667e-04 6.666666666667e-04 5.998244574283e-04
      vertex 1.666666666667e-04 5.000000000000e-04 5.998244574283e-04
    endloop
  endfacet
  facet normal 0 0 -1.0
    outer loop
      vertex 0.000000000000e+00 5.000000000000e-04 5.998244574283e-04
      vertex 0.000000000000e+00 6.666666666667e-04 5.998244574283e-04
      vertex 1.666666666667e-04 6.666666666667e-04 5.998244574283e-04
    endloop
  endfacet
  facet normal 0 0 -1.0
    outer loop
      vertex 0.000000000000e+00 6.666666666667e-04 5.998244574283e-04
      vertex 1.666666666667e-04 8.333333333333e-04 5.998244574283e-04
      vertex 1.666666666667e-04 6.666666666667e-04 5.998244574283e-04
    endloop
  endfacet
  facet normal 0 0 -1.0
    outer loop
      vertex 0.000000000000e+00 6.666666666667e-04 5.998244574283e-04
      vertex 0.000000000000e+00 8.333333333333e-04 5.998244574283e-04
      vertex 1.666666666667e-04 8.333333333333e-04 5.998244574283e-04
    endloop
  endfacet
  facet normal 0 0 -1.0
    outer loop
      vertex 0.000000000000e+00 8.333333333333e-04 5.998244574283e-04
      vertex 1.666666666667e-04 1.000000000000e-03 5.998244574283e-04
      vertex 1.666666666667e-04 8.333333333333e-04 5.998244574283e-04
    endloop
  endfacet
  facet normal 0 0 -1.0
    outer loop
      vertex 0.000000000000e+00 8.333333333333e-04 5.998244574283e-04
      vertex 0.000000000000e+00 1.000000000000e-03 5.998244574283e-04
      vertex 1.666666666667e-04 1.000000000000e-03 5.998244574283e-04
    endloop
  endfacet
  facet normal 0 0 -1.0
    outer loop
      vertex 1.666666666667e-04 -1.000000000000e-03 5.998244574283e-04
      vertex 3.333333333333e-04 -8.333333333333e-04 5.998244574283e-04
      vertex 3.333333333333e-04 -1.000000000000e-03 5.998244574283e-04
    endloop
  endfacet
  facet normal 0 0 -1.0
    outer loop
      vertex 1.666666666667e-04 -1.000000000000e-03 5.998244574283e-04
      vertex 1.666666666667e-04 -8.333333333333e-04 5.998244574283e-04
      vertex 3.333333333333e-04 -8.333333333333e-04 5.998244574283e-04
    endloop
  endfacet
  facet normal 0 0 -1.0
    outer loop
      vertex 1.666666666667e-04 -8.333333333333e-04 5.998244574283e-04
      vertex 3.333333333333e-04 -6.666666666667e-04 5.998244574283e-04
      vertex 3.333333333333e-04 -8.333333333333e-04 5.998244574283e-04
    endloop
  endfacet
  facet normal 0 0 -1.0
    outer loop
      vertex 1.666666666667e-04 -8.333333333333e-04 5.998244574283e-04
      vertex 1.666666666667e-04 -6.666666666667e-04 5.998244574283e-04
      vertex 3.333333333333e-04 -6.666666666667e-04 5.998244574283e-04
    endloop
  endfacet
  facet normal 0 0 -1.0
    outer loop
      vertex 1.666666666667e-04 -6.666666666667e-04 5.998244574283e-04
      vertex 3.333333333333e-04 -5.000000000000e-04 5.998244574283e-04
      vertex 3.333333333333e-04 -6.666666666667e-04 5.998244574283e-04
    endloop
  endfacet
  facet normal 0 0 -1.0
    outer loop
      vertex 1.666666666667e-04 -6.666666666667e-04 5.998244574283e-04
      vertex 1.666666666667e-04 -5.000000000000e-04 5.998244574283e-04
      vertex 3.333333333333e-04 -5.000000000000e-04 5.998244574283e-04
    endloop
  endfacet
  facet normal 0 0 -1.0
    outer loop
      vertex 1.666666666667e-04 -5.000000000000e-04 5.998244574283e-04
      vertex 3.333333333333e-04 -3.333333333333e-04 5.998244574283e-04
      vertex 3.333333333333e-04 -5.000000000000e-04 5.998244574283e-04
    endloop
  endfacet
  facet normal 0 0 -1.0
    outer loop
      vertex 1.666666666667e-04 -5.000000000000e-04 5.998244574283e-04
      vertex 1.666666666667e-04 -3.333333333333e-04 5.998244574283e-04
      vertex 3.333333333333e-04 -3.333333333333e-04 5.998244574283e-04
    endloop
  endfacet
  facet normal 0 0 -1.0
    outer loop
      vertex 1.666666666667e-04 -3.333333333333e-04 5.998244574283e-04
      vertex 3.333333333333e-04 -1.666666666667e-04 5.998244574283e-04
      vertex 3.333333333333e-04 -3.333333333333e-04 5.998244574283e-04
    endloop
  endfacet
  facet normal 0 0 -1.0
    outer loop
      vertex 1.666666666667e-04 -3.333333333333e-04 5.998244574283e-04
      vertex 1.666666666667e-04 -1.666666666667e-04 5.998244574283e-04
      vertex 3.333333333333e-04 -1.666666666667e-04 5.998244574283e-04
    endloop
  endfacet
  facet normal 0 0 -1.0
    outer loop
      vertex 1.666666666667e-04 -1.666666666667e-04 5.998244574283e-04
      vertex 3.333333333333e-04 -8.131516293641e-20 5.998244574283e-04
      vertex 3.333333333333e-04 -1.666666666667e-04 5.998244574283e-04
    endloop
  endfacet
  facet normal 0 0 -1.0
    outer loop
      vertex 1.666666666667e-04 -1.666666666667e-04 5.998244574283e-04
      vertex 1.666666666667e-04 -8.131516293641e-20 5.998244574283e-04
      vertex 3.333333333333e-04 -8.131516293641e-20 5.998244574283e-04
    endloop
  endfacet
  facet normal 0 0 -1.0
    outer loop
      vertex 1.666666666667e-04 0.000000000000e+00 5.998244574283e-04
      vertex 3.333333333333e-04 1.666666666667e-04 5.998244574283e-04
      vertex 3.333333333333e-04 0.000000000000e+00 5.998244574283e-04
    endloop
  endfacet
  facet normal 0 0 -1.0
    outer loop
      vertex 1.666666666667e-04 0.000000000000e+00 5.998244574283e-04
      vertex 1.666666666667e-04 1.666666666667e-04 5.998244574283e-04
      vertex 3.333333333333e-04 1.666666666667e-04 5.998244574283e-04
    endloop
  endfacet
  facet normal 0 0 -1.0
    outer loop
      vertex 1.666666666667e-04 1.666666666667e-04 5.998244574283e-04
      vertex 3.333333333333e-04 3.333333333333e-04 5.998244574283e-04
      vertex 3.333333333333e-04 1.666666666667e-04 5.998244574283e-04
    endloop
  endfacet
  facet normal 0 0 -1.0
    outer loop
      vertex 1.666666666667e-04 1.666666666667e-04 5.998244574283e-04
      vertex 1.666666666667e-04 3.333333333333e-04 5.998244574283e-04
      vertex 3.333333333333e-04 3.333333333333e-04 5.998244574283e-04
    endloop
  endfacet
  facet normal 0 0 -1.0
    outer loop
      vertex 1.666666666667e-04 3.333333333333e-04 5.998244574283e-04
      vertex 3.333333333333e-04 5.000000000000e-04 5.998244574283e-04
      vertex 3.333333333333e-04 3.333333333333e-04 5.998244574283e-04
    endloop
  endfacet
  facet normal 0 0 -1.0
    outer loop
      vertex 1.666666666667e-04 3.333333333333e-04 5.998244574283e-04
      vertex 1.666666666667e-04 5.000000000000e-04 5.998244574283e-04
      vertex 3.333333333333e-04 5.000000000000e-04 5.998244574283e-04
    endloop
  endfacet
  facet normal 0 0 -1.0
    outer loop
      vertex 1.666666666667e-04 5.000000000000e-04 5.998244574283e-04
      vertex 3.333333333333e-04 6.666666666667e-04 5.998244574283e-04
      vertex 3.333333333333e-04 5.000000000000e-04 5.998244574283e-04
    endloop
  endfacet
  facet normal 0 0 -1.0
    outer loop
      vertex 1.666666666667e-04 5.000000000000e-04 5.998244574283e-04
      vertex 1.666666666667e-04 6.666666666667e-04 5.998244574283e-04
      vertex 3.333333333333e-04 6.666666666667e-04 5.998244574283e-04
    endloop
  endfacet
  facet normal 0 0 -1.0
    outer loop
      vertex 1.666666666667e-04 6.666666666667e-04 5.998244574283e-04
      vertex 3.333333333333e-04 8.333333333333e-04 5.998244574283e-04
      vertex 3.333333333333e-04 6.666666666667e-04 5.998244574283e-04
    endloop
  endfacet
  facet normal 0 0 -1.0
    outer loop
      vertex 1.666666666667e-04 6.666666666667e-04 5.998244574283e-04
      vertex 1.666666666667e-04 8.333333333333e-04 5.998244574283e-04
      vertex 3.333333333333e-04 8.333333333333e-04 5.998244574283e-04
    endloop
  endfacet
  facet normal 0 0 -1.0
    outer loop
      vertex 1.666666666667e-04 8.333333333333e-04 5.998244574283e-04
      vertex 3.333333333333e-04 1.000000000000e-03 5.998244574283e-04
      vertex 3.333333333333e-04 8.333333333333e-04 5.998244574283e-04
    endloop
  endfacet
  facet normal 0 0 -1.0
    outer loop
      vertex 1.666666666667e-04 8.333333333333e-04 5.998244574283e-04
      vertex 1.666666666667e-04 1.000000000000e-03 5.998244574283e-04
      vertex 3.333333333333e-04 1.000000000000e-03 5.998244574283e-04
    endloop
  endfacet
  facet normal 0 0 -1.0
    outer loop
      vertex 3.333333333333e-04 -1.000000000000e-03 5.998244574283e-04
      vertex 5.000000000000e-04 -8.333333333333e-04 5.998244574283e-04
      vertex 5.000000000000e-04 -1.000000000000e-03 5.998244574283e-04
    endloop
  endfacet
  facet normal 0 0 -1.0
    outer loop
      vertex 3.333333333333e-04 -1.000000000000e-03 5.998244574283e-04
      vertex 3.333333333333e-04 -8.333333333333e-04 5.998244574283e-04
      vertex 5.000000000000e-04 -8.333333333333e-04 5.998244574283e-04
    endloop
  endfacet
  facet normal 0 0 -1.0
    outer loop
      vertex 3.333333333333e-04 -8.333333333333e-04 5.998244574283e-04
      vertex 5.000000000000e-04 -6.666666666667e-04 5.998244574283e-04
      vertex 5.000000000000e-04 -8.333333333333e-04 5.998244574283e-04
    endloop
  endfacet
  facet normal 0 0 -1.0
    outer loop
      vertex 3.333333333333e-04 -8.333333333333e-04 5.998244574283e-04
      vertex 3.333333333333e-04 -6.666666666667e-04 5.998244574283e-04
      vertex 5.000000000000e-04 -6.666666666667e-04 5.998244574283e-04
    endloop
  endfacet
  facet normal 0 0 -1.0
    outer loop
      vertex 3.333333333333e-04 -6.666666666667e-04 5.998244574283e-04
      vertex 5.000000000000e-04 -5.000000000000e-04 5.998244574283e-04
      vertex 5.000000000000e-04 -6.666666666667e-04 5.998244574283e-04
    endloop
  endfacet
  facet normal 0 0 -1.0
    outer loop
      vertex 3.333333333333e-04 -6.666666666667e-04 5.998244574283e-04
      vertex 3.333333333333e-04 -5.000000000000e-04 5.998244574283e-04
      vertex 5.000000000000e-04 -5.000000000000e-04 5.998244574283e-04
    endloop
  endfacet
  facet normal 0 0 -1.0
    outer loop
      vertex 3.333333333333e-04 -5.000000000000e-04 5.998244574283e-04
      vertex 5.000000000000e-04 -3.333333333333e-04 5.998244574283e-04
      vertex 5.000000000000e-04 -5.000000000000e-04 5.998244574283e-04
    endloop
  endfacet
  facet normal 0 0 -1.0
    outer loop
      vertex 3.333333333333e-04 -5.000000000000e-04 5.998244574283e-04
      vertex 3.333333333333e-04 -3.333333333333e-04 5.998244574283e-04
      vertex 5.000000000000e-04 -3.333333333333e-04 5.998244574283e-04
    endloop
  endfacet
  facet normal 0 0 -1.0
    outer loop
      vertex 3.333333333333e-04 -3.333333333333e-04 5.998244574283e-04
      vertex 5.000000000000e-04 -1.666666666667e-04 5.998244574283e-04
      vertex 5.000000000000e-04 -3.333333333333e-04 5.998244574283e-04
    endloop
  endfacet
  facet normal 0 0 -1.0
    outer loop
      vertex 3.333333333333e-04 -3.333333333333e-04 5.998244574283e-04
      vertex 3.333333333333e-04 -1.666666666667e-04 5.998244574283e-04
      vertex 5.000000000000e-04 -1.666666666667e-04 5.998244574283e-04
    endloop
  endfacet
  facet normal 0 0 -1.0
    outer loop
      vertex 3.333333333333e-04 -1.666666666667e-04 5.998244574283e-04
      vertex 5.000000000000e-04 -8.131516293641e-20 5.998244574283e-04
      vertex 5.000000000000e-04 -1.666666666667e-04 5.998244574283e-04
    endloop
  endfacet
  facet normal 0 0 -1.0
    outer loop
      vertex 3.333333333333e-04 -1.666666666667e-04 5.998244574283e-04
      vertex 3.333333333333e-04 -8.131516293641e-20 5.998244574283e-04
      vertex 5.000000000000e-04 -8.131516293641e-20 5.998244574283e-04
    endloop
  endfacet
  facet normal 0 0 -1.0
    outer loop
      vertex 3.333333333333e-04 0.000000000000e+00 5.998244574283e-04
      vertex 5.000000000000e-04 1.666666666667e-04 5.998244574283e-04
      vertex 5.000000000000e-04 0.000000000000e+00 5.998244574283e-04
    endloop
  endfacet
  facet normal 0 0 -1.0
    outer loop
      vertex 3.333333333333e-04 0.000000000000e+00 5.998244574283e-04
      vertex 3.333333333333e-04 1.666666666667e-04 5.998244574283e-04
      vertex 5.000000000000e-04 1.666666666667e-04 5.998244574283e-04
    endloop
  endfacet
  facet normal 0 0 -1.0
    outer loop
      vertex 3.333333333333e-04 1.666666666667e-04 5.998244574283e-04
      vertex 5.000000000000e-04 3.333333333333e-04 5.998244574283e-04
      vertex 5.000000000000e-04 1.666666666667e-04 5.998244574283e-04
    endloop
  endfacet
  facet normal 0 0 -1.0
    outer loop
      vertex 3.333333333333e-04 1.666666666667e-04 5.998244574283e-04
      vertex 3.333333333333e-04 3.333333333333e-04 5.998244574283e-04
      vertex 5.000000000000e-04 3.333333333333e-04 5.998244574283e-04
    endloop
  endfacet
  facet normal 0 0 -1.0
    outer loop
      vertex 3.333333333333e-04 3.333333333333e-04 5.998244574283e-04
      vertex 5.000000000000e-04 5.000000000000e-04 5.998244574283e-04
      vertex 5.000000000000e-04 3.333333333333e-04 5.998244574283e-04
    endloop
  endfacet
  facet normal 0 0 -1.0
    outer loop
      vertex 3.333333333333e-04 3.333333333333e-04 5.998244574283e-04
      vertex 3.333333333333e-04 5.000000000000e-04 5.998244574283e-04
      vertex 5.000000000000e-04 5.000000000000e-04 5.998244574283e-04
    endloop
  endfacet
  facet normal 0 0 -1.0
    outer loop
      vertex 3.333333333333e-04 5.000000000000e-04 5.998244574283e-04
      vertex 5.000000000000e-04 6.666666666667e-04 5.998244574283e-04
      vertex 5.000000000000e-04 5.000000000000e-04 5.998244574283e-04
    endloop
  endfacet
  facet normal 0 0 -1.0
    outer loop
      vertex 3.333333333333e-04 5.000000000000e-04 5.998244574283e-04
      vertex 3.333333333333e-04 6.666666666667e-04 5.998244574283e-04
      vertex 5.000000000000e-04 6.666666666667e-04 5.998244574283e-04
    endloop
  endfacet
  facet normal 0 0 -1.0
    outer loop
      vertex 3.333333333333e-04 6.666666666667e-04 5.998244574283e-04
      vertex 5.000000000000e-04 8.333333333333e-04 5.998244574283e-04
      vertex 5.000000000000e-04 6.666666666667e-04 5.998244574283e-04
    endloop
  endfacet
  facet normal 0 0 -1.0
    outer loop
      vertex 3.333333333333e-04 6.666666666667e-04 5.998244574283e-04
      vertex 3.333333333333e-04 8.333333333333e-04 5.998244574283e-04
      vertex 5.000000000000e-04 8.333333333333e-04 5.998244574283e-04
    endloop
  endfacet
  facet normal 0 0 -1.0
    outer loop
      vertex 3.333333333333e-04 8.333333333333e-04 5.998244574283e-04
      vertex 5.000000000000e-04 1.000000000000e-03 5.998244574283e-04
      vertex 5.000000000000e-04 8.333333333333e-04 5.998244574283e-04
    endloop
  endfacet
  facet normal 0 0 -1.0
    outer loop
      vertex 3.333333333333e-04 8.333333333333e-04 5.998244574283e-04
      vertex 3.333333333333e-04 1.000000000000e-03 5.998244574283e-04
      vertex 5.000000000000e-04 1.000000000000e-03 5.998244574283e-04
    endloop
  endfacet
  facet normal 0 0 -1.0
    outer loop
      vertex 5.000000000000e-04 -1.000000000000e-03 5.998244574283e-04
      vertex 6.666666666667e-04 -8.333333333333e-04 5.998244574283e-04
      vertex 6.666666666667e-04 -1.000000000000e-03 5.998244574283e-04
    endloop
  endfacet
  facet normal 0 0 -1.0
    outer loop
      vertex 5.000000000000e-04 -1.000000000000e-03 5.998244574283e-04
      vertex 5.000000000000e-04 -8.333333333333e-04 5.998244574283e-04
      vertex 6.666666666667e-04 -8.333333333333e-04 5.998244574283e-04
    endloop
  endfacet
  facet normal 0 0 -1.0
    outer loop
      vertex 5.000000000000e-04 -8.333333333333e-04 5.998244574283e-04
      vertex 6.666666666667e-04 -6.666666666667e-04 5.998244574283e-04
      vertex 6.666666666667e-04 -8.333333333333e-04 5.998244574283e-04
    endloop
  endfacet
  facet normal 0 0 -1.0
    outer loop
      vertex 5.000000000000e-04 -8.333333333333e-04 5.998244574283e-04
      vertex 5.000000000000e-04 -6.666666666667e-04 5.998244574283e-04
      vertex 6.666666666667e-04 -6.666666666667e-04 5.998244574283e-04
    endloop
  endfacet
  facet normal 0 0 -1.0
    outer loop
      vertex 5.000000000000e-04 -6.666666666667e-04 5.998244574283e-04
      vertex 6.666666666667e-04 -5.000000000000e-04 5.998244574283e-04
      vertex 6.666666666667e-04 -6.666666666667e-04 5.998244574283e-04
    endloop
  endfacet
  facet normal 0 0 -1.0
    outer loop
      vertex 5.000000000000e-04 -6.666666666667e-04 5.998244574283e-04
      vertex 5.000000000000e-04 -5.000000000000e-04 5.998244574283e-04
      vertex 6.666666666667e-04 -5.000000000000e-04 5.998244574283e-04
    endloop
  endfacet
  facet normal 0 0 -1.0
    outer loop
      vertex 5.000000000000e-04 -5.000000000000e-04 5.998244574283e-04
      vertex 6.666666666667e-04 -3.333333333333e-04 5.998244574283e-04
      vertex 6.666666666667e-04 -5.000000000000e-04 5.998244574283e-04
    endloop
  endfacet
  facet normal 0 0 -1.0
    outer loop
      vertex 5.000000000000e-04 -5.000000000000e-04 5.998244574283e-04
      vertex 5.000000000000e-04 -3.333333333333e-04 5.998244574283e-04
      vertex 6.666666666667e-04 -3.333333333333e-04 5.998244574283e-04
    endloop
  endfacet
  facet normal 0 0 -1.0
    outer loop
      vertex 5.000000000000e-04 -3.333333333333e-04 5.998244574283e-04
      vertex 6.666666666667e-04 -1.666666666667e-04 5.998244574283e-04
      vertex 6.666666666667e-04 -3.333333333333e-04 5.998244574283e-04
    endloop
  endfacet
  facet normal 0 0 -1.0
    outer loop
      vertex 5.000000000000e-04 -3.333333333333e-04 5.998244574283e-04
      vertex 5.000000000000e-04 -1.666666666667e-04 5.998244574283e-04
      vertex 6.666666666667e-04 -1.666666666667e-04 5.998244574283e-04
    endloop
  endfacet
  facet normal 0 0 -1.0
    outer loop
      vertex 5.000000000000e-04 -1.666666666667e-04 5.998244574283e-04
      vertex 6.666666666667e-04 -8.131516293641e-20 5.998244574283e-04
      vertex 6.666666666667e-04 -1.666666666667e-04 5.998244574283e-04
    endloop
  endfacet
  facet normal 0 0 -1.0
    outer loop
      vertex 5.000000000000e-04 -1.666666666667e-04 5.998244574283e-04
      vertex 5.000000000000e-04 -8.131516293641e-20 5.998244574283e-04
      vertex 6.666666666667e-04 -8.131516293641e-20 5.998244574283e-04
    endloop
  endfacet
  facet normal 0 0 -1.0
    outer loop
      vertex 5.000000000000e-04 0.000000000000e+00 5.998244574283e-04
      vertex 6.666666666667e-04 1.666666666667e-04 5.998244574283e-04
      vertex 6.666666666667e-04 0.000000000000e+00 5.998244574283e-04
    endloop
  endfacet
  facet normal 0 0 -1.0
    outer loop
      vertex 5.000000000000e-04 0.000000000000e+00 5.998244574283e-04
      vertex 5.000000000000e-04 1.666666666667e-04 5.998244574283e-04
      vertex 6.666666666667e-04 1.666666666667e-04 5.998244574283e-04
    endloop
  endfacet
  facet normal 0 0 -1.0
    outer loop
      vertex 5.000000000000e-04 1.666666666667e-04 5.998244574283e-04
      vertex 6.666666666667e-04 3.333333333333e-04 5.998244574283e-04
      vertex 6.666666666667e-04 1.666666666667e-04 5.998244574283e-04
    endloop
  endfacet
  facet normal 0 0 -1.0
    outer loop
      vertex 5.000000000000e-04 1.666666666667e-04 5.998244574283e-04
      vertex 5.000000000000e-04 3.333333333333e-04 5.998244574283e-04
      vertex 6.666666666667e-04 3.333333333333e-04 5.998244574283e-04
    endloop
  endfacet
  facet normal 0 0 -1.0
    outer loop
      vertex 5.000000000000e-04 3.333333333333e-04 5.998244574283e-04
      vertex 6.666666666667e-04 5.000000000000e-04 5.998244574283e-04
      vertex 6.666666666667e-04 3.333333333333e-04 5.998244574283e-04
    endloop
  endfacet
  facet normal 0 0 -1.0
    outer loop
      vertex 5.000000000000e-04 3.333333333333e-04 5.998244574283e-04
      vertex 5.000000000000e-04 5.000000000000e-04 5.998244574283e-04
      vertex 6.666666666667e-04 5.000000000000e-04 5.998244574283e-04
    endloop
  endfacet
  facet normal 0 0 -1.0
    outer loop
      vertex 5.000000000000e-04 5.000000000000e-04 5.998244574283e-04
      vertex 6.666666666667e-04 6.666666666667e-04 5.998244574283e-04
      vertex 6.666666666667e-04 5.000000000000e-04 5.998244574283e-04
    endloop
  endfacet
  facet normal 0 0 -1.0
    outer loop
      vertex 5.000000000000e-04 5.000000000000e-04 5.998244574283e-04
      vertex 5.000000000000e-04 6.666666666667e-04 5.998244574283e-04
      vertex 6.666666666667e-04 6.666666666667e-04 5.998244574283e-04
    endloop
  endfacet
  facet normal 0 0 -1.0
    outer loop
      vertex 5.000000000000e-04 6.666666666667e-04 5.998244574283e-04
      vertex 6.666666666667e-04 8.333333333333e-04 5.998244574283e-04
      vertex 6.666666666667e-04 6.666666666667e-04 5.998244574283e-04
    endloop
  endfacet
  facet normal 0 0 -1.0
    outer loop
      vertex 5.000000000000e-04 6.666666666667e-04 5.998244574283e-04
      vertex 5.000000000000e-04 8.333333333333e-04 5.998244574283e-04
      vertex 6.666666666667e-04 8.333333333333e-04 5.998244574283e-04
    endloop
  endfacet
  facet normal 0 0 -1.0
    outer loop
      vertex 5.000000000000e-04 8.333333333333e-04 5.998244574283e-04
      vertex 6.666666666667e-04 1.000000000000e-03 5.998244574283e-04
      vertex 6.666666666667e-04 8.333333333333e-04 5.998244574283e-04
    endloop
  endfacet
  facet normal 0 0 -1.0
    outer loop
      vertex 5.000000000000e-04 8.333333333333e-04 5.998244574283e-04
      vertex 5.000000000000e-04 1.000000000000e-03 5.998244574283e-04
      vertex 6.666666666667e-04 1.000000000000e-03 5.998244574283e-04
    endloop
  endfacet
  facet normal 0 0 -1.0
    outer loop
      vertex 6.666666666667e-04 -1.000000000000e-03 5.998244574283e-04
      vertex 8.333333333333e-04 -8.333333333333e-04 5.998244574283e-04
      vertex 8.333333333333e-04 -1.000000000000e-03 5.998244574283e-04
    endloop
  endfacet
  facet normal 0 0 -1.0
    outer loop
      vertex 6.666666666667e-04 -1.000000000000e-03 5.998244574283e-04
      vertex 6.666666666667e-04 -8.333333333333e-04 5.998244574283e-04
      vertex 8.333333333333e-04 -8.333333333333e-04 5.998244574283e-04
    endloop
  endfacet
  facet normal 0 0 -1.0
    outer loop
      vertex 6.666666666667e-04 -8.333333333333e-04 5.998244574283e-04
      vertex 8.333333333333e-04 -6.666666666667e-04 5.998244574283e-04
      vertex 8.333333333333e-04 -8.333333333333e-04 5.998244574283e-04
    endloop
  endfacet
  facet normal 0 0 -1.0
    outer loop
      vertex 6.666666666667e-04 -8.333333333333e-04 5.998244574283e-04
      vertex 6.666666666667e-04 -6.666666666667e-04 5.998244574283e-04
      vertex 8.333333333333e-04 -6.666666666667e-04 5.998244574283e-04
    endloop
  endfacet
  facet normal 0 0 -1.0
    outer loop
      vertex 6.666666666667e-04 -6.666666666667e-04 5.998244574283e-04
      vertex 8.333333333333e-04 -5.000000000000e-04 5.998244574283e-04
      vertex 8.333333333333e-04 -6.666666666667e-04 5.998244574283e-04
    endloop
  endfacet
  facet normal 0 0 -1.0
    outer loop
      vertex 6.666666666667e-04 -6.666666666667e-04 5.998244574283e-04
      vertex 6.666666666667e-04 -5.000000000000e-04 5.998244574283e-04
      vertex 8.333333333333e-04 -5.000000000000e-04 5.998244574283e-04
    endloop
  endfacet
  facet normal 0 0 -1.0
    outer loop
      vertex 6.666666666667e-04 -5.000000000000e-04 5.998244574283e-04
      vertex 8.333333333333e-04 -3.333333333333e-04 5.998244574283e-04
      vertex 8.333333333333e-04 -5.000000000000e-04 5.998244574283e-04
    endloop
  endfacet
  facet normal 0 0 -1.0
    outer loop
      vertex 6.666666666667e-04 -5.000000000000e-04 5.998244574283e-04
      vertex 6.666666666667e-04 -3.333333333333e-04 5.998244574283e-04
      vertex 8.333333333333e-04 -3.333333333333e-04 5.998244574283e-04
    endloop
  endfacet
  facet normal 0 0 -1.0
    outer loop
      vertex 6.666666666667e-04 -3.333333333333e-04 5.998244574283e-04
      vertex 8.333333333333e-04 -1.666666666667e-04 5.998244574283e-04
      vertex 8.333333333333e-04 -3.333333333333e-04 5.998244574283e-04
    endloop
  endfacet
  facet normal 0 0 -1.0
    outer loop
      vertex 6.666666666667e-04 -3.333333333333e-04 5.998244574283e-04
      vertex 6.666666666667e-04 -1.666666666667e-04 5.998244574283e-04
      vertex 8.333333333333e-04 -1.666666666667e-04 5.998244574283e-04
    endloop
  endfacet
  facet normal 0 0 -1.0
    outer loop
      vertex 6.666666666667e-04 -1.666666666667e-04 5.998244574283e-04
      vertex 8.333333333333e-04 -8.131516293641e-20 5.998244574283e-04
      vertex 8.333333333333e-04 -1.666666666667e-04 5.998244574283e-04
    endloop
  endfacet
  facet normal 0 0 -1.0
    outer loop
      vertex 6.666666666667e-04 -1.666666666667e-04 5.998244574283e-04
      vertex 6.666666666667e-04 -8.131516293641e-20 5.998244574283e-04
      vertex 8.333333333333e-04 -8.131516293641e-20 5.998244574283e-04
    endloop
  endfacet
  facet normal 0 0 -1.0
    outer loop
      vertex 6.666666666667e-04 0.000000000000e+00 5.998244574283e-04
      vertex 8.333333333333e-04 1.666666666667e-04 5.998244574283e-04
      vertex 8.333333333333e-04 0.000000000000e+00 5.998244574283e-04
    endloop
  endfacet
  facet normal 0 0 -1.0
    outer loop
      vertex 6.666666666667e-04 0.000000000000e+00 5.998244574283e-04
      vertex 6.666666666667e-04 1.666666666667e-04 5.998244574283e-04
      vertex 8.333333333333e-04 1.666666666667e-04 5.998244574283e-04
    endloop
  endfacet
  facet normal 0 0 -1.0
    outer loop
      vertex 6.666666666667e-04 1.666666666667e-04 5.998244574283e-04
      vertex 8.333333333333e-04 3.333333333333e-04 5.998244574283e-04
      vertex 8.333333333333e-04 1.666666666667e-04 5.998244574283e-04
    endloop
  endfacet
  facet normal 0 0 -1.0
    outer loop
      vertex 6.666666666667e-04 1.666666666667e-04 5.998244574283e-04
      vertex 6.666666666667e-04 3.333333333333e-04 5.998244574283e-04
      vertex 8.333333333333e-04 3.333333333333e-04 5.998244574283e-04
    endloop
  endfacet
  facet normal 0 0 -1.0
    outer loop
      vertex 6.666666666667e-04 3.333333333333e-04 5.998244574283e-04
      vertex 8.333333333333e-04 5.000000000000e-04 5.998244574283e-04
      vertex 8.333333333333e-04 3.333333333333e-04 5.998244574283e-04
    endloop
  endfacet
  facet normal 0 0 -1.0
    outer loop
      vertex 6.666666666667e-04 3.333333333333e-04 5.998244574283e-04
      vertex 6.666666666667e-04 5.000000000000e-04 5.998244574283e-04
      vertex 8.333333333333e-04 5.000000000000e-04 5.998244574283e-04
    endloop
  endfacet
  facet normal 0 0 -1.0
    outer loop
      vertex 6.666666666667e-04 5.000000000000e-04 5.998244574283e-04
      vertex 8.333333333333e-04 6.666666666667e-04 5.998244574283e-04
      vertex 8.333333333333e-04 5.000000000000e-04 5.998244574283e-04
    endloop
  endfacet
  facet normal 0 0 -1.0
    outer loop
      vertex 6.666666666667e-04 5.000000000000e-04 5.998244574283e-04
      vertex 6.666666666667e-04 6.666666666667e-04 5.998244574283e-04
      vertex 8.333333333333e-04 6.666666666667e-04 5.998244574283e-04
    endloop
  endfacet
  facet normal 0 0 -1.0
    outer loop
      vertex 6.666666666667e-04 6.666666666667e-04 5.998244574283e-04
      vertex 8.333333333333e-04 8.333333333333e-04 5.998244574283e-04
      vertex 8.333333333333e-04 6.666666666667e-04 5.998244574283e-04
    endloop
  endfacet
  facet normal 0 0 -1.0
    outer loop
      vertex 6.666666666667e-04 6.666666666667e-04 5.998244574283e-04
      vertex 6.666666666667e-04 8.333333333333e-04 5.998244574283e-04
      vertex 8.333333333333e-04 8.333333333333e-04 5.998244574283e-04
    endloop
  endfacet
  facet normal 0 0 -1.0
    outer loop
      vertex 6.666666666667e-04 8.333333333333e-04 5.998244574283e-04
      vertex 8.333333333333e-04 1.000000000000e-03 5.998244574283e-04
      vertex 8.333333333333e-04 8.333333333333e-04 5.998244574283e-04
    endloop
  endfacet
  facet normal 0 0 -1.0
    outer loop
      vertex 6.666666666667e-04 8.333333333333e-04 5.998244574283e-04
      vertex 6.666666666667e-04 1.000000000000e-03 5.998244574283e-04
      vertex 8.333333333333e-04 1.000000000000e-03 5.998244574283e-04
    endloop
  endfacet
  facet normal 0 0 -1.0
    outer loop
      vertex 8.333333333333e-04 -1.000000000000e-03 5.998244574283e-04
      vertex 1.000000000000e-03 -8.333333333333e-04 5.998244574283e-04
      vertex 1.000000000000e-03 -1.000000000000e-03 5.998244574283e-04
    endloop
  endfacet
  facet normal 0 0 -1.0
    outer loop
      vertex 8.333333333333e-04 -1.000000000000e-03 5.998244574283e-04
      vertex 8.333333333333e-04 -8.333333333333e-04 5.998244574283e-04
      vertex 1.000000000000e-03 -8.333333333333e-04 5.998244574283e-04
    endloop
  endfacet
  facet normal 0 0 -1.0
    outer loop
      vertex 8.333333333333e-04 -8.333333333333e-04 5.998244574283e-04
      vertex 1.000000000000e-03 -6.666666666667e-04 5.998244574283e-04
      vertex 1.000000000000e-03 -8.333333333333e-04 5.998244574283e-04
    endloop
  endfacet
  facet normal 0 0 -1.0
    outer loop
      vertex 8.333333333333e-04 -8.333333333333e-04 5.998244574283e-04
      vertex 8.333333333333e-04 -6.666666666667e-04 5.998244574283e-04
      vertex 1.000000000000e-03 -6.666666666667e-04 5.998244574283e-04
    endloop
  endfacet
  facet normal 0 0 -1.0
    outer loop
      vertex 8.333333333333e-04 -6.666666666667e-04 5.998244574283e-04
      vertex 1.000000000000e-03 -5.000000000000e-04 5.998244574283e-04
      vertex 1.000000000000e-03 -6.666666666667e-04 5.998244574283e-04
    endloop
  endfacet
  facet normal 0 0 -1.0
    outer loop
      vertex 8.333333333333e-04 -6.666666666667e-04 5.998244574283e-04
      vertex 8.333333333333e-04 -5.000000000000e-04 5.998244574283e-04
      vertex 1.000000000000e-03 -5.000000000000e-04 5.998244574283e-04
    endloop
  endfacet
  facet normal 0 0 -1.0
    outer loop
      vertex 8.333333333333e-04 -5.000000000000e-04 5.998244574283e-04
      vertex 1.000000000000e-03 -3.333333333333e-04 5.998244574283e-04
      vertex 1.000000000000e-03 -5.000000000000e-04 5.998244574283e-04
    endloop
  endfacet
  facet normal 0 0 -1.0
    outer loop
      vertex 8.333333333333e-04 -5.000000000000e-04 5.998244574283e-04
      vertex 8.333333333333e-04 -3.333333333333e-04 5.998244574283e-04
      vertex 1.000000000000e-03 -3.333333333333e-04 5.998244574283e-04
    endloop
  endfacet
  facet normal 0 0 -1.0
    outer loop
      vertex 8.333333333333e-04 -3.333333333333e-04 5.998244574283e-04
      vertex 1.000000000000e-03 -1.666666666667e-04 5.998244574283e-04
      vertex 1.000000000000e-03 -3.333333333333e-04 5.998244574283e-04
    endloop
  endfacet
  facet normal 0 0 -1.0
    outer loop
      vertex 8.333333333333e-04 -3.333333333333e-04 5.998244574283e-04
      vertex 8.333333333333e-04 -1.666666666667e-04 5.998244574283e-04
      vertex 1.000000000000e-03 -1.666666666667e-04 5.998244574283e-04
    endloop
  endfacet
  facet normal 0 0 -1.0
    outer loop
      vertex 8.333333333333e-04 -1.666666666667e-04 5.998244574283e-04
      vertex 1.000000000000e-03 -8.131516293641e-20 5.998244574283e-04
      vertex 1.000000000000e-03 -1.666666666667e-04 5.998244574283e-04
    endloop
  endfacet
  facet normal 0 0 -1.0
    outer loop
      vertex 8.333333333333e-04 -1.666666666667e-04 5.998244574283e-04
      vertex 8.333333333333e-04 -8.131516293641e-20 5.998244574283e-04
      vertex 1.000000000000e-03 -8.131516293641e-20 5.998244574283e-04
    endloop
  endfacet
  facet normal 0 0 -1.0
    outer loop
      vertex 8.333333333333e-04 0.000000000000e+00 5.998244574283e-04
      vertex 1.000000000000e-03 1.666666666667e-04 5.998244574283e-04
      vertex 1.000000000000e-03 0.000000000000e+00 5.998244574283e-04
    endloop
  endfacet
  facet normal 0 0 -1.0
    outer loop
      vertex 8.333333333333e-04 0.000000000000e+00 5.998244574283e-04
      vertex 8.333333333333e-04 1.666666666667e-04 5.998244574283e-04
      vertex 1.000000000000e-03 1.666666666667e-04 5.998244574283e-04
    endloop
  endfacet
  facet normal 0 0 -1.0
    outer loop
      vertex 8.333333333333e-04 1.666666666667e-04 5.998244574283e-04
      vertex 1.000000000000e-03 3.333333333333e-04 5.998244574283e-04
      vertex 1.000000000000e-03 1.666666666667e-04 5.998244574283e-04
    endloop
  endfacet
  facet normal 0 0 -1.0
    outer loop
      vertex 8.333333333333e-04 1.666666666667e-04 5.998244574283e-04
      vertex 8.333333333333e-04 3.333333333333e-04 5.998244574283e-04
      vertex 1.000000000000e-03 3.333333333333e-04 5.998244574283e-04
    endloop
  endfacet
  facet normal 0 0 -1.0
    outer loop
      vertex 8.333333333333e-04 3.333333333333e-04 5.998244574283e-04
      vertex 1.000000000000e-03 5.000000000000e-04 5.998244574283e-04
      vertex 1.000000000000e-03 3.333333333333e-04 5.998244574283e-04
    endloop
  endfacet
  facet normal 0 0 -1.0
    outer loop
      vertex 8.333333333333e-04 3.333333333333e-04 5.998244574283e-04
      vertex 8.333333333333e-04 5.000000000000e-04 5.998244574283e-04
      vertex 1.000000000000e-03 5.000000000000e-04 5.998244574283e-04
    endloop
  endfacet
  facet normal 0 0 -1.0
    outer loop
      vertex 8.333333333333e-04 5.000000000000e-04 5.998244574283e-04
      vertex 1.000000000000e-03 6.666666666667e-04 5.998244574283e-04
      vertex 1.000000000000e-03 5.000000000000e-04 5.998244574283e-04
    endloop
  endfacet
  facet normal 0 0 -1.0
    outer loop
      vertex 8.333333333333e-04 5.000000000000e-04 5.998244574283e-04
      vertex 8.333333333333e-04 6.666666666667e-04 5.998244574283e-04
      vertex 1.000000000000e-03 6.666666666667e-04 5.998244574283e-04
    endloop
  endfacet
  facet normal 0 0 -1.0
    outer loop
      vertex 8.333333333333e-04 6.666666666667e-04 5.998244574283e-04
      vertex 1.000000000000e-03 8.333333333333e-04 5.998244574283e-04
      vertex 1.000000000000e-03 6.666666666667e-04 5.998244574283e-04
    endloop
  endfacet
  facet normal 0 0 -1.0
    outer loop
      vertex 8.333333333333e-04 6.666666666667e-04 5.998244574283e-04
      vertex 8.333333333333e-04 8.333333333333e-04 5.998244574283e-04
      vertex 1.000000000000e-03 8.333333333333e-04 5.998244574283e-04
    endloop
  endfacet
  facet normal 0 0 -1.0
    outer loop
      vertex 8.333333333333e-04 8.333333333333e-04 5.998244574283e-04
      vertex 1.000000000000e-03 1.000000000000e-03 5.998244574283e-04
      vertex 1.000000000000e-03 8.333333333333e-04 5.998244574283e-04
    endloop
  endfacet
  facet normal 0 0 -1.0
    outer loop
      vertex 8.333333333333e-04 8.333333333333e-04 5.998244574283e-04
      vertex 8.333333333333e-04 1.000000000000e-03 5.998244574283e-04
      vertex 1.000000000000e-03 1.000000000000e-03 5.998244574283e-04
    endloop
  endfacet
endsolid plate
