<?xml version="1.0" encoding="utf-8" standalone="no"?>
<!DOCTYPE svg PUBLIC "-//W3C//DTD SVG 1.1//EN"
  "http://www.w3.org/Graphics/SVG/1.1/DTD/svg11.dtd">
<svg xmlns:xlink="http://www.w3.org/1999/xlink" width="403.29pt" height="88.477734pt" viewBox="0 0 403.29 88.477734" xmlns="http://www.w3.org/2000/svg" version="1.1">
 <metadata>
  <rdf:RDF xmlns:dc="http://purl.org/dc/elements/1.1/" xmlns:cc="http://creativecommons.org/ns#" xmlns:rdf="http://www.w3.org/1999/02/22-rdf-syntax-ns#">
   <cc:Work>
    <dc:type rdf:resource="http://purl.org/dc/dcmitype/StillImage"/>
    <dc:date>2026-06-25T16:12:39.179398</dc:date>
    <dc:format>image/svg+xml</dc:format>
    <dc:creator>
     <cc:Agent>
      <dc:title>Matplotlib v3.9.4, https://matplotlib.org/</dc:title>
     </cc:Agent>
    </dc:creator>
   </cc:Work>
  </rdf:RDF>
 </metadata>
 <defs>
  <style type="text/css">*{stroke-linejoin: round; stroke-linecap: butt}</style>
 </defs>
 <g id="figure_1">
  <g id="patch_1">
   <path d="M 0 88.477734 
L 403.29 88.477734 
L 403.29 0 
L 0 0 
z
" style="fill: #fbfaf7"/>
  </g>
  <g id="axes_1">
   <g id="patch_2">
    <path d="M 31.771055 52.654641 
C 36.317496 52.654641 40.678338 50.84832 43.893157 47.633501 
C 47.107977 44.418682 48.914297 40.057839 48.914297 35.511398 
C 48.914297 30.964957 47.107977 26.604115 43.893157 23.389296 
C 40.678338 20.174476 36.317496 18.368156 31.771055 18.368156 
C 27.224614 18.368156 22.863771 20.174476 19.648952 23.389296 
C 16.434133 26.604115 14.627813 30.964957 14.627813 35.511398 
C 14.627813 40.057839 16.434133 44.418682 19.648952 47.633501 
C 22.863771 50.84832 27.224614 52.654641 31.771055 52.654641 
z
" clip-path="url(#p1f4acb3ea7)" style="fill: #fbfaf7; stroke: #222831; stroke-width: 1.05; stroke-linejoin: miter"/>
   </g>
   <g id="line2d_1">
    <path d="M 21.796805 32.394445 
L 24.913758 40.498523 
" clip-path="url(#p1f4acb3ea7)" style="fill: none; stroke: #c8c8c8; stroke-width: 0.48; stroke-linecap: square"/>
   </g>
   <g id="line2d_2">
    <path d="M 21.796805 32.394445 
L 29.277492 26.78393 
" clip-path="url(#p1f4acb3ea7)" style="fill: none; stroke: #c8c8c8; stroke-width: 0.48; stroke-linecap: square"/>
   </g>
   <g id="line2d_3">
    <path d="M 24.913758 40.498523 
L 32.394445 34.888008 
" clip-path="url(#p1f4acb3ea7)" style="fill: none; stroke: #c8c8c8; stroke-width: 0.48; stroke-linecap: square"/>
   </g>
   <g id="line2d_4">
    <path d="M 24.913758 40.498523 
L 20.238328 44.862258 
" clip-path="url(#p1f4acb3ea7)" style="fill: none; stroke: #c8c8c8; stroke-width: 0.48; stroke-linecap: square"/>
   </g>
   <g id="line2d_5">
    <path d="M 24.913758 40.498523 
L 30.524273 46.109039 
" clip-path="url(#p1f4acb3ea7)" style="fill: none; stroke: #c8c8c8; stroke-width: 0.48; stroke-linecap: square"/>
   </g>
   <g id="line2d_6">
    <path d="M 29.277492 26.78393 
L 32.394445 34.888008 
" clip-path="url(#p1f4acb3ea7)" style="fill: none; stroke: #c8c8c8; stroke-width: 0.48; stroke-linecap: square"/>
   </g>
   <g id="line2d_7">
    <path d="M 29.277492 26.78393 
L 36.134789 25.537148 
" clip-path="url(#p1f4acb3ea7)" style="fill: none; stroke: #c8c8c8; stroke-width: 0.48; stroke-linecap: square"/>
   </g>
   <g id="line2d_8">
    <path d="M 29.277492 26.78393 
L 31.771055 19.926633 
" clip-path="url(#p1f4acb3ea7)" style="fill: none; stroke: #c8c8c8; stroke-width: 0.48; stroke-linecap: square"/>
   </g>
   <g id="line2d_9">
    <path d="M 32.394445 34.888008 
L 36.134789 25.537148 
" clip-path="url(#p1f4acb3ea7)" style="fill: none; stroke: #c8c8c8; stroke-width: 0.48; stroke-linecap: square"/>
   </g>
   <g id="line2d_10">
    <path d="M 32.394445 34.888008 
L 40.498523 33.641227 
" clip-path="url(#p1f4acb3ea7)" style="fill: none; stroke: #c8c8c8; stroke-width: 0.48; stroke-linecap: square"/>
   </g>
   <g id="line2d_11">
    <path d="M 36.134789 25.537148 
L 40.498523 33.641227 
" clip-path="url(#p1f4acb3ea7)" style="fill: none; stroke: #c8c8c8; stroke-width: 0.48; stroke-linecap: square"/>
   </g>
   <g id="line2d_12">
    <path d="M 36.134789 25.537148 
L 31.771055 19.926633 
" clip-path="url(#p1f4acb3ea7)" style="fill: none; stroke: #c8c8c8; stroke-width: 0.48; stroke-linecap: square"/>
   </g>
   <g id="line2d_13">
    <path d="M 40.498523 33.641227 
L 42.992086 42.368695 
" clip-path="url(#p1f4acb3ea7)" style="fill: none; stroke: #c8c8c8; stroke-width: 0.48; stroke-linecap: square"/>
   </g>
   <g id="line2d_14">
    <path d="M 42.992086 42.368695 
L 38.004961 47.35582 
" clip-path="url(#p1f4acb3ea7)" style="fill: none; stroke: #c8c8c8; stroke-width: 0.48; stroke-linecap: square"/>
   </g>
   <g id="line2d_15">
    <path d="M 20.238328 44.862258 
L 30.524273 46.109039 
" clip-path="url(#p1f4acb3ea7)" style="fill: none; stroke: #c8c8c8; stroke-width: 0.48; stroke-linecap: square"/>
   </g>
   <g id="line2d_16">
    <path d="M 30.524273 46.109039 
L 38.004961 47.35582 
" clip-path="url(#p1f4acb3ea7)" style="fill: none; stroke: #c8c8c8; stroke-width: 0.48; stroke-linecap: square"/>
   </g>
   <g id="patch_3">
    <path d="M 97.538766 54.213117 
L 128.084906 54.213117 
L 128.084906 22.420195 
L 97.538766 22.420195 
L 97.538766 54.213117 
z
" clip-path="url(#p1f4acb3ea7)" style="fill: none; stroke: #222831; stroke-width: 0.95; stroke-linejoin: miter"/>
   </g>
   <g id="patch_4">
    <path d="M 177.02107 54.213117 
L 207.567211 54.213117 
L 207.567211 22.420195 
L 177.02107 22.420195 
L 177.02107 54.213117 
z
" clip-path="url(#p1f4acb3ea7)" style="fill: none; stroke: #222831; stroke-width: 0.95; stroke-linejoin: miter"/>
   </g>
   <g id="patch_5">
    <path d="M 256.503375 54.213117 
L 287.049516 54.213117 
L 287.049516 22.420195 
L 256.503375 22.420195 
L 256.503375 54.213117 
z
" clip-path="url(#p1f4acb3ea7)" style="fill: none; stroke: #222831; stroke-width: 0.95; stroke-linejoin: miter"/>
   </g>
   <g id="patch_6">
    <path d="M 255.568289 23.043586 
L 287.984602 23.043586 
L 287.984602 20.394176 
L 255.568289 20.394176 
z
" clip-path="url(#p1f4acb3ea7)" style="fill: #3a3a3a"/>
   </g>
   <g id="patch_7">
    <path d="M 103.149281 51.875402 
C 103.934576 51.875402 104.687812 51.563402 105.243099 51.008115 
C 105.798386 50.452828 106.110387 49.699591 106.110387 48.914297 
C 106.110387 48.129003 105.798386 47.375766 105.243099 46.820479 
C 104.687812 46.265192 103.934576 45.953191 103.149281 45.953191 
C 102.363987 45.953191 101.61075 46.265192 101.055463 46.820479 
C 100.500177 47.375766 100.188176 48.129003 100.188176 48.914297 
C 100.188176 49.699591 100.500177 50.452828 101.055463 51.008115 
C 101.61075 51.563402 102.363987 51.875402 103.149281 51.875402 
z
" clip-path="url(#p1f4acb3ea7)" style="fill: #e8eef4; stroke: #607080; stroke-width: 0.62; stroke-linejoin: miter"/>
   </g>
   <g id="patch_8">
    <path d="M 110.006578 52.187098 
C 110.791872 52.187098 111.545109 51.875097 112.100396 51.31981 
C 112.655683 50.764523 112.967684 50.011287 112.967684 49.225992 
C 112.967684 48.440698 112.655683 47.687461 112.100396 47.132174 
C 111.545109 46.576887 110.791872 46.264887 110.006578 46.264887 
C 109.221284 46.264887 108.468047 46.576887 107.91276 47.132174 
C 107.357473 47.687461 107.045473 48.440698 107.045473 49.225992 
C 107.045473 50.011287 107.357473 50.764523 107.91276 51.31981 
C 108.468047 51.875097 109.221284 52.187098 110.006578 52.187098 
z
" clip-path="url(#p1f4acb3ea7)" style="fill: #e8eef4; stroke: #607080; stroke-width: 0.62; stroke-linejoin: miter"/>
   </g>
   <g id="patch_9">
    <path d="M 117.17557 51.875402 
C 117.960865 51.875402 118.714101 51.563402 119.269388 51.008115 
C 119.824675 50.452828 120.136676 49.699591 120.136676 48.914297 
C 120.136676 48.129003 119.824675 47.375766 119.269388 46.820479 
C 118.714101 46.265192 117.960865 45.953191 117.17557 45.953191 
C 116.390276 45.953191 115.63704 46.265192 115.081753 46.820479 
C 114.526466 47.375766 114.214465 48.129003 114.214465 48.914297 
C 114.214465 49.699591 114.526466 50.452828 115.081753 51.008115 
C 115.63704 51.563402 116.390276 51.875402 117.17557 51.875402 
z
" clip-path="url(#p1f4acb3ea7)" style="fill: #e8eef4; stroke: #607080; stroke-width: 0.62; stroke-linejoin: miter"/>
   </g>
   <g id="patch_10">
    <path d="M 123.409477 52.187098 
C 124.194771 52.187098 124.948007 51.875097 125.503294 51.31981 
C 126.058581 50.764523 126.370582 50.011287 126.370582 49.225992 
C 126.370582 48.440698 126.058581 47.687461 125.503294 47.132174 
C 124.948007 46.576887 124.194771 46.264887 123.409477 46.264887 
C 122.624182 46.264887 121.870946 46.576887 121.315659 47.132174 
C 120.760372 47.687461 120.448371 48.440698 120.448371 49.225992 
C 120.448371 50.011287 120.760372 50.764523 121.315659 51.31981 
C 121.870946 51.875097 122.624182 52.187098 123.409477 52.187098 
z
" clip-path="url(#p1f4acb3ea7)" style="fill: #e8eef4; stroke: #607080; stroke-width: 0.62; stroke-linejoin: miter"/>
   </g>
   <g id="patch_11">
    <path d="M 105.954539 44.394715 
C 106.739833 44.394715 107.49307 44.082714 108.048357 43.527427 
C 108.603644 42.97214 108.915645 42.218904 108.915645 41.433609 
C 108.915645 40.648315 108.603644 39.895079 108.048357 39.339792 
C 107.49307 38.784505 106.739833 38.472504 105.954539 38.472504 
C 105.169245 38.472504 104.416008 38.784505 103.860721 39.339792 
C 103.305434 39.895079 102.993434 40.648315 102.993434 41.433609 
C 102.993434 42.218904 103.305434 42.97214 103.860721 43.527427 
C 104.416008 44.082714 105.169245 44.394715 105.954539 44.394715 
z
" clip-path="url(#p1f4acb3ea7)" style="fill: #e8eef4; stroke: #607080; stroke-width: 0.62; stroke-linejoin: miter"/>
   </g>
   <g id="patch_12">
    <path d="M 113.123531 44.70641 
C 113.908826 44.70641 114.662062 44.394409 115.217349 43.839122 
C 115.772636 43.283835 116.084637 42.530599 116.084637 41.745305 
C 116.084637 40.96001 115.772636 40.206774 115.217349 39.651487 
C 114.662062 39.0962 113.908826 38.784199 113.123531 38.784199 
C 112.338237 38.784199 111.585 39.0962 111.029713 39.651487 
C 110.474427 40.206774 110.162426 40.96001 110.162426 41.745305 
C 110.162426 42.530599 110.474427 43.283835 111.029713 43.839122 
C 111.585 44.394409 112.338237 44.70641 113.123531 44.70641 
z
" clip-path="url(#p1f4acb3ea7)" style="fill: #e8eef4; stroke: #607080; stroke-width: 0.62; stroke-linejoin: miter"/>
   </g>
   <g id="patch_13">
    <path d="M 120.604219 44.394715 
C 121.389513 44.394715 122.14275 44.082714 122.698037 43.527427 
C 123.253323 42.97214 123.565324 42.218904 123.565324 41.433609 
C 123.565324 40.648315 123.253323 39.895079 122.698037 39.339792 
C 122.14275 38.784505 121.389513 38.472504 120.604219 38.472504 
C 119.818924 38.472504 119.065688 38.784505 118.510401 39.339792 
C 117.955114 39.895079 117.643113 40.648315 117.643113 41.433609 
C 117.643113 42.218904 117.955114 42.97214 118.510401 43.527427 
C 119.065688 44.082714 119.818924 44.394715 120.604219 44.394715 
z
" clip-path="url(#p1f4acb3ea7)" style="fill: #e8eef4; stroke: #607080; stroke-width: 0.62; stroke-linejoin: miter"/>
   </g>
   <g id="patch_14">
    <path d="M 103.149281 36.914027 
C 103.934576 36.914027 104.687812 36.602027 105.243099 36.04674 
C 105.798386 35.491453 106.110387 34.738216 106.110387 33.952922 
C 106.110387 33.167628 105.798386 32.414391 105.243099 31.859104 
C 104.687812 31.303817 103.934576 30.991816 103.149281 30.991816 
C 102.363987 30.991816 101.61075 31.303817 101.055463 31.859104 
C 100.500177 32.414391 100.188176 33.167628 100.188176 33.952922 
C 100.188176 34.738216 100.500177 35.491453 101.055463 36.04674 
C 101.61075 36.602027 102.363987 36.914027 103.149281 36.914027 
z
" clip-path="url(#p1f4acb3ea7)" style="fill: #e8eef4; stroke: #607080; stroke-width: 0.62; stroke-linejoin: miter"/>
   </g>
   <g id="patch_15">
    <path d="M 110.006578 36.914027 
C 110.791872 36.914027 111.545109 36.602027 112.100396 36.04674 
C 112.655683 35.491453 112.967684 34.738216 112.967684 33.952922 
C 112.967684 33.167628 112.655683 32.414391 112.100396 31.859104 
C 111.545109 31.303817 110.791872 30.991816 110.006578 30.991816 
C 109.221284 30.991816 108.468047 31.303817 107.91276 31.859104 
C 107.357473 32.414391 107.045473 33.167628 107.045473 33.952922 
C 107.045473 34.738216 107.357473 35.491453 107.91276 36.04674 
C 108.468047 36.602027 109.221284 36.914027 110.006578 36.914027 
z
" clip-path="url(#p1f4acb3ea7)" style="fill: #e8eef4; stroke: #607080; stroke-width: 0.62; stroke-linejoin: miter"/>
   </g>
   <g id="patch_16">
    <path d="M 117.17557 36.914027 
C 117.960865 36.914027 118.714101 36.602027 119.269388 36.04674 
C 119.824675 35.491453 120.136676 34.738216 120.136676 33.952922 
C 120.136676 33.167628 119.824675 32.414391 119.269388 31.859104 
C 118.714101 31.303817 117.960865 30.991816 117.17557 30.991816 
C 116.390276 30.991816 115.63704 31.303817 115.081753 31.859104 
C 114.526466 32.414391 114.214465 33.167628 114.214465 33.952922 
C 114.214465 34.738216 114.526466 35.491453 115.081753 36.04674 
C 115.63704 36.602027 116.390276 36.914027 117.17557 36.914027 
z
" clip-path="url(#p1f4acb3ea7)" style="fill: #e8eef4; stroke: #607080; stroke-width: 0.62; stroke-linejoin: miter"/>
   </g>
   <g id="patch_17">
    <path d="M 123.721172 36.914027 
C 124.506466 36.914027 125.259703 36.602027 125.81499 36.04674 
C 126.370277 35.491453 126.682277 34.738216 126.682277 33.952922 
C 126.682277 33.167628 126.370277 32.414391 125.81499 31.859104 
C 125.259703 31.303817 124.506466 30.991816 123.721172 30.991816 
C 122.935878 30.991816 122.182641 31.303817 121.627354 31.859104 
C 121.072067 32.414391 120.760066 33.167628 120.760066 33.952922 
C 120.760066 34.738216 121.072067 35.491453 121.627354 36.04674 
C 122.182641 36.602027 122.935878 36.914027 123.721172 36.914027 
z
" clip-path="url(#p1f4acb3ea7)" style="fill: #e8eef4; stroke: #607080; stroke-width: 0.62; stroke-linejoin: miter"/>
   </g>
   <g id="patch_18">
    <path d="M 183.254977 50.846808 
C 184.015472 50.846808 184.744922 50.54466 185.282674 50.006908 
C 185.820425 49.469157 186.122573 48.739707 186.122573 47.979211 
C 186.122573 47.218715 185.820425 46.489265 185.282674 45.951514 
C 184.744922 45.413762 184.015472 45.111614 183.254977 45.111614 
C 182.494481 45.111614 181.765031 45.413762 181.227279 45.951514 
C 180.689528 46.489265 180.38738 47.218715 180.38738 47.979211 
C 180.38738 48.739707 180.689528 49.469157 181.227279 50.006908 
C 181.765031 50.54466 182.494481 50.846808 183.254977 50.846808 
z
" clip-path="url(#p1f4acb3ea7)" style="fill: #e9f4f1; stroke: #222831; stroke-width: 0.6; stroke-linejoin: miter"/>
   </g>
   <g id="line2d_17">
    <path d="M 181.6965 47.979211 
L 184.813453 47.979211 
" clip-path="url(#p1f4acb3ea7)" style="fill: none; stroke: #b83b52; stroke-width: 0.48; stroke-linecap: square"/>
   </g>
   <g id="line2d_18">
    <path d="M 183.254977 49.537687 
L 183.254977 46.420734 
" clip-path="url(#p1f4acb3ea7)" style="fill: none; stroke: #2f6f9f; stroke-width: 0.48; stroke-linecap: square"/>
   </g>
   <g id="patch_19">
    <path d="M 190.112273 50.846808 
C 190.872769 50.846808 191.602219 50.54466 192.139971 50.006908 
C 192.677722 49.469157 192.97987 48.739707 192.97987 47.979211 
C 192.97987 47.218715 192.677722 46.489265 192.139971 45.951514 
C 191.602219 45.413762 190.872769 45.111614 190.112273 45.111614 
C 189.351778 45.111614 188.622328 45.413762 188.084576 45.951514 
C 187.546825 46.489265 187.244677 47.218715 187.244677 47.979211 
C 187.244677 48.739707 187.546825 49.469157 188.084576 50.006908 
C 188.622328 50.54466 189.351778 50.846808 190.112273 50.846808 
z
" clip-path="url(#p1f4acb3ea7)" style="fill: #e9f4f1; stroke: #222831; stroke-width: 0.6; stroke-linejoin: miter"/>
   </g>
   <g id="line2d_19">
    <path d="M 188.553797 47.979211 
L 191.67075 47.979211 
" clip-path="url(#p1f4acb3ea7)" style="fill: none; stroke: #b83b52; stroke-width: 0.48; stroke-linecap: square"/>
   </g>
   <g id="line2d_20">
    <path d="M 190.112273 49.537687 
L 190.112273 46.420734 
" clip-path="url(#p1f4acb3ea7)" style="fill: none; stroke: #2f6f9f; stroke-width: 0.48; stroke-linecap: square"/>
   </g>
   <g id="patch_20">
    <path d="M 196.96957 50.846808 
C 197.730066 50.846808 198.459516 50.54466 198.997268 50.006908 
C 199.535019 49.469157 199.837167 48.739707 199.837167 47.979211 
C 199.837167 47.218715 199.535019 46.489265 198.997268 45.951514 
C 198.459516 45.413762 197.730066 45.111614 196.96957 45.111614 
C 196.209075 45.111614 195.479625 45.413762 194.941873 45.951514 
C 194.404122 46.489265 194.101973 47.218715 194.101973 47.979211 
C 194.101973 48.739707 194.404122 49.469157 194.941873 50.006908 
C 195.479625 50.54466 196.209075 50.846808 196.96957 50.846808 
z
" clip-path="url(#p1f4acb3ea7)" style="fill: #e9f4f1; stroke: #222831; stroke-width: 0.6; stroke-linejoin: miter"/>
   </g>
   <g id="line2d_21">
    <path d="M 195.411094 47.979211 
L 198.528047 47.979211 
" clip-path="url(#p1f4acb3ea7)" style="fill: none; stroke: #b83b52; stroke-width: 0.48; stroke-linecap: square"/>
   </g>
   <g id="line2d_22">
    <path d="M 196.96957 49.537687 
L 196.96957 46.420734 
" clip-path="url(#p1f4acb3ea7)" style="fill: none; stroke: #2f6f9f; stroke-width: 0.48; stroke-linecap: square"/>
   </g>
   <g id="patch_21">
    <path d="M 186.683625 43.054425 
C 187.444121 43.054425 188.173571 42.752277 188.711322 42.214525 
C 189.249074 41.676774 189.551222 40.947324 189.551222 40.186828 
C 189.551222 39.426333 189.249074 38.696883 188.711322 38.159131 
C 188.173571 37.621379 187.444121 37.319231 186.683625 37.319231 
C 185.923129 37.319231 185.193679 37.621379 184.655928 38.159131 
C 184.118176 38.696883 183.816028 39.426333 183.816028 40.186828 
C 183.816028 40.947324 184.118176 41.676774 184.655928 42.214525 
C 185.193679 42.752277 185.923129 43.054425 186.683625 43.054425 
z
" clip-path="url(#p1f4acb3ea7)" style="fill: #e9f4f1; stroke: #222831; stroke-width: 0.6; stroke-linejoin: miter"/>
   </g>
   <g id="line2d_23">
    <path d="M 185.125148 40.186828 
L 188.242102 40.186828 
" clip-path="url(#p1f4acb3ea7)" style="fill: none; stroke: #b83b52; stroke-width: 0.48; stroke-linecap: square"/>
   </g>
   <g id="line2d_24">
    <path d="M 186.683625 41.745305 
L 186.683625 38.628352 
" clip-path="url(#p1f4acb3ea7)" style="fill: none; stroke: #2f6f9f; stroke-width: 0.48; stroke-linecap: square"/>
   </g>
   <g id="patch_22">
    <path d="M 193.852617 43.054425 
C 194.613113 43.054425 195.342563 42.752277 195.880314 42.214525 
C 196.418066 41.676774 196.720214 40.947324 196.720214 40.186828 
C 196.720214 39.426333 196.418066 38.696883 195.880314 38.159131 
C 195.342563 37.621379 194.613113 37.319231 193.852617 37.319231 
C 193.092122 37.319231 192.362672 37.621379 191.82492 38.159131 
C 191.287168 38.696883 190.98502 39.426333 190.98502 40.186828 
C 190.98502 40.947324 191.287168 41.676774 191.82492 42.214525 
C 192.362672 42.752277 193.092122 43.054425 193.852617 43.054425 
z
" clip-path="url(#p1f4acb3ea7)" style="fill: #e9f4f1; stroke: #222831; stroke-width: 0.6; stroke-linejoin: miter"/>
   </g>
   <g id="line2d_25">
    <path d="M 192.294141 40.186828 
L 195.411094 40.186828 
" clip-path="url(#p1f4acb3ea7)" style="fill: none; stroke: #b83b52; stroke-width: 0.48; stroke-linecap: square"/>
   </g>
   <g id="line2d_26">
    <path d="M 193.852617 41.745305 
L 193.852617 38.628352 
" clip-path="url(#p1f4acb3ea7)" style="fill: none; stroke: #2f6f9f; stroke-width: 0.48; stroke-linecap: square"/>
   </g>
   <g id="patch_23">
    <path d="M 201.021609 43.054425 
C 201.782105 43.054425 202.511555 42.752277 203.049307 42.214525 
C 203.587058 41.676774 203.889206 40.947324 203.889206 40.186828 
C 203.889206 39.426333 203.587058 38.696883 203.049307 38.159131 
C 202.511555 37.621379 201.782105 37.319231 201.021609 37.319231 
C 200.261114 37.319231 199.531664 37.621379 198.993912 38.159131 
C 198.456161 38.696883 198.154013 39.426333 198.154013 40.186828 
C 198.154013 40.947324 198.456161 41.676774 198.993912 42.214525 
C 199.531664 42.752277 200.261114 43.054425 201.021609 43.054425 
z
" clip-path="url(#p1f4acb3ea7)" style="fill: #e9f4f1; stroke: #222831; stroke-width: 0.6; stroke-linejoin: miter"/>
   </g>
   <g id="line2d_27">
    <path d="M 199.463133 40.186828 
L 202.580086 40.186828 
" clip-path="url(#p1f4acb3ea7)" style="fill: none; stroke: #b83b52; stroke-width: 0.48; stroke-linecap: square"/>
   </g>
   <g id="line2d_28">
    <path d="M 201.021609 41.745305 
L 201.021609 38.628352 
" clip-path="url(#p1f4acb3ea7)" style="fill: none; stroke: #2f6f9f; stroke-width: 0.48; stroke-linecap: square"/>
   </g>
   <g id="patch_24">
    <path d="M 183.254977 34.950347 
C 184.015472 34.950347 184.744922 34.648199 185.282674 34.110447 
C 185.820425 33.572696 186.122573 32.843246 186.122573 32.08275 
C 186.122573 31.322254 185.820425 30.592804 185.282674 30.055053 
C 184.744922 29.517301 184.015472 29.215153 183.254977 29.215153 
C 182.494481 29.215153 181.765031 29.517301 181.227279 30.055053 
C 180.689528 30.592804 180.38738 31.322254 180.38738 32.08275 
C 180.38738 32.843246 180.689528 33.572696 181.227279 34.110447 
C 181.765031 34.648199 182.494481 34.950347 183.254977 34.950347 
z
" clip-path="url(#p1f4acb3ea7)" style="fill: #e9f4f1; stroke: #222831; stroke-width: 0.6; stroke-linejoin: miter"/>
   </g>
   <g id="line2d_29">
    <path d="M 181.6965 32.08275 
L 184.813453 32.08275 
" clip-path="url(#p1f4acb3ea7)" style="fill: none; stroke: #b83b52; stroke-width: 0.48; stroke-linecap: square"/>
   </g>
   <g id="line2d_30">
    <path d="M 183.254977 33.641227 
L 183.254977 30.524273 
" clip-path="url(#p1f4acb3ea7)" style="fill: none; stroke: #2f6f9f; stroke-width: 0.48; stroke-linecap: square"/>
   </g>
   <g id="patch_25">
    <path d="M 190.112273 34.950347 
C 190.872769 34.950347 191.602219 34.648199 192.139971 34.110447 
C 192.677722 33.572696 192.97987 32.843246 192.97987 32.08275 
C 192.97987 31.322254 192.677722 30.592804 192.139971 30.055053 
C 191.602219 29.517301 190.872769 29.215153 190.112273 29.215153 
C 189.351778 29.215153 188.622328 29.517301 188.084576 30.055053 
C 187.546825 30.592804 187.244677 31.322254 187.244677 32.08275 
C 187.244677 32.843246 187.546825 33.572696 188.084576 34.110447 
C 188.622328 34.648199 189.351778 34.950347 190.112273 34.950347 
z
" clip-path="url(#p1f4acb3ea7)" style="fill: #e9f4f1; stroke: #222831; stroke-width: 0.6; stroke-linejoin: miter"/>
   </g>
   <g id="line2d_31">
    <path d="M 188.553797 32.08275 
L 191.67075 32.08275 
" clip-path="url(#p1f4acb3ea7)" style="fill: none; stroke: #b83b52; stroke-width: 0.48; stroke-linecap: square"/>
   </g>
   <g id="line2d_32">
    <path d="M 190.112273 33.641227 
L 190.112273 30.524273 
" clip-path="url(#p1f4acb3ea7)" style="fill: none; stroke: #2f6f9f; stroke-width: 0.48; stroke-linecap: square"/>
   </g>
   <g id="patch_26">
    <path d="M 197.281266 34.950347 
C 198.041761 34.950347 198.771211 34.648199 199.308963 34.110447 
C 199.846714 33.572696 200.148863 32.843246 200.148863 32.08275 
C 200.148863 31.322254 199.846714 30.592804 199.308963 30.055053 
C 198.771211 29.517301 198.041761 29.215153 197.281266 29.215153 
C 196.52077 29.215153 195.79132 29.517301 195.253568 30.055053 
C 194.715817 30.592804 194.413669 31.322254 194.413669 32.08275 
C 194.413669 32.843246 194.715817 33.572696 195.253568 34.110447 
C 195.79132 34.648199 196.52077 34.950347 197.281266 34.950347 
z
" clip-path="url(#p1f4acb3ea7)" style="fill: #e9f4f1; stroke: #222831; stroke-width: 0.6; stroke-linejoin: miter"/>
   </g>
   <g id="line2d_33">
    <path d="M 195.722789 32.08275 
L 198.839742 32.08275 
" clip-path="url(#p1f4acb3ea7)" style="fill: none; stroke: #b83b52; stroke-width: 0.48; stroke-linecap: square"/>
   </g>
   <g id="line2d_34">
    <path d="M 197.281266 33.641227 
L 197.281266 30.524273 
" clip-path="url(#p1f4acb3ea7)" style="fill: none; stroke: #2f6f9f; stroke-width: 0.48; stroke-linecap: square"/>
   </g>
   <g id="patch_27">
    <path d="M 262.737281 50.846808 
C 263.497777 50.846808 264.227227 50.54466 264.764978 50.006908 
C 265.30273 49.469157 265.604878 48.739707 265.604878 47.979211 
C 265.604878 47.218715 265.30273 46.489265 264.764978 45.951514 
C 264.227227 45.413762 263.497777 45.111614 262.737281 45.111614 
C 261.976786 45.111614 261.247336 45.413762 260.709584 45.951514 
C 260.171832 46.489265 259.869684 47.218715 259.869684 47.979211 
C 259.869684 48.739707 260.171832 49.469157 260.709584 50.006908 
C 261.247336 50.54466 261.976786 50.846808 262.737281 50.846808 
z
" clip-path="url(#p1f4acb3ea7)" style="fill: #fbfaf7; stroke: #222831; stroke-width: 0.62; stroke-linejoin: miter"/>
   </g>
   <g id="patch_28">
    <path d="M 269.594578 50.846808 
C 270.355074 50.846808 271.084524 50.54466 271.622275 50.006908 
C 272.160027 49.469157 272.462175 48.739707 272.462175 47.979211 
C 272.462175 47.218715 272.160027 46.489265 271.622275 45.951514 
C 271.084524 45.413762 270.355074 45.111614 269.594578 45.111614 
C 268.834083 45.111614 268.104633 45.413762 267.566881 45.951514 
C 267.029129 46.489265 266.726981 47.218715 266.726981 47.979211 
C 266.726981 48.739707 267.029129 49.469157 267.566881 50.006908 
C 268.104633 50.54466 268.834083 50.846808 269.594578 50.846808 
z
" clip-path="url(#p1f4acb3ea7)" style="fill: #fbfaf7; stroke: #222831; stroke-width: 0.62; stroke-linejoin: miter"/>
   </g>
   <g id="patch_29">
    <path d="M 276.451875 50.846808 
C 277.212371 50.846808 277.941821 50.54466 278.479572 50.006908 
C 279.017324 49.469157 279.319472 48.739707 279.319472 47.979211 
C 279.319472 47.218715 279.017324 46.489265 278.479572 45.951514 
C 277.941821 45.413762 277.212371 45.111614 276.451875 45.111614 
C 275.691379 45.111614 274.961929 45.413762 274.424178 45.951514 
C 273.886426 46.489265 273.584278 47.218715 273.584278 47.979211 
C 273.584278 48.739707 273.886426 49.469157 274.424178 50.006908 
C 274.961929 50.54466 275.691379 50.846808 276.451875 50.846808 
z
" clip-path="url(#p1f4acb3ea7)" style="fill: #fbfaf7; stroke: #222831; stroke-width: 0.62; stroke-linejoin: miter"/>
   </g>
   <g id="patch_30">
    <path d="M 266.16593 43.054425 
C 266.926425 43.054425 267.655875 42.752277 268.193627 42.214525 
C 268.731378 41.676774 269.033527 40.947324 269.033527 40.186828 
C 269.033527 39.426333 268.731378 38.696883 268.193627 38.159131 
C 267.655875 37.621379 266.926425 37.319231 266.16593 37.319231 
C 265.405434 37.319231 264.675984 37.621379 264.138232 38.159131 
C 263.600481 38.696883 263.298333 39.426333 263.298333 40.186828 
C 263.298333 40.947324 263.600481 41.676774 264.138232 42.214525 
C 264.675984 42.752277 265.405434 43.054425 266.16593 43.054425 
z
" clip-path="url(#p1f4acb3ea7)" style="fill: #fbfaf7; stroke: #222831; stroke-width: 0.62; stroke-linejoin: miter"/>
   </g>
   <g id="patch_31">
    <path d="M 273.334922 43.054425 
C 274.095417 43.054425 274.824867 42.752277 275.362619 42.214525 
C 275.900371 41.676774 276.202519 40.947324 276.202519 40.186828 
C 276.202519 39.426333 275.900371 38.696883 275.362619 38.159131 
C 274.824867 37.621379 274.095417 37.319231 273.334922 37.319231 
C 272.574426 37.319231 271.844976 37.621379 271.307225 38.159131 
C 270.769473 38.696883 270.467325 39.426333 270.467325 40.186828 
C 270.467325 40.947324 270.769473 41.676774 271.307225 42.214525 
C 271.844976 42.752277 272.574426 43.054425 273.334922 43.054425 
z
" clip-path="url(#p1f4acb3ea7)" style="fill: #fbfaf7; stroke: #222831; stroke-width: 0.62; stroke-linejoin: miter"/>
   </g>
   <g id="patch_32">
    <path d="M 280.503914 43.054425 
C 281.26441 43.054425 281.99386 42.752277 282.531611 42.214525 
C 283.069363 41.676774 283.371511 40.947324 283.371511 40.186828 
C 283.371511 39.426333 283.069363 38.696883 282.531611 38.159131 
C 281.99386 37.621379 281.26441 37.319231 280.503914 37.319231 
C 279.743418 37.319231 279.013968 37.621379 278.476217 38.159131 
C 277.938465 38.696883 277.636317 39.426333 277.636317 40.186828 
C 277.636317 40.947324 277.938465 41.676774 278.476217 42.214525 
C 279.013968 42.752277 279.743418 43.054425 280.503914 43.054425 
z
" clip-path="url(#p1f4acb3ea7)" style="fill: #fbfaf7; stroke: #222831; stroke-width: 0.62; stroke-linejoin: miter"/>
   </g>
   <g id="patch_33">
    <path d="M 262.737281 34.950347 
C 263.497777 34.950347 264.227227 34.648199 264.764978 34.110447 
C 265.30273 33.572696 265.604878 32.843246 265.604878 32.08275 
C 265.604878 31.322254 265.30273 30.592804 264.764978 30.055053 
C 264.227227 29.517301 263.497777 29.215153 262.737281 29.215153 
C 261.976786 29.215153 261.247336 29.517301 260.709584 30.055053 
C 260.171832 30.592804 259.869684 31.322254 259.869684 32.08275 
C 259.869684 32.843246 260.171832 33.572696 260.709584 34.110447 
C 261.247336 34.648199 261.976786 34.950347 262.737281 34.950347 
z
" clip-path="url(#p1f4acb3ea7)" style="fill: #fbfaf7; stroke: #222831; stroke-width: 0.62; stroke-linejoin: miter"/>
   </g>
   <g id="patch_34">
    <path d="M 269.594578 34.950347 
C 270.355074 34.950347 271.084524 34.648199 271.622275 34.110447 
C 272.160027 33.572696 272.462175 32.843246 272.462175 32.08275 
C 272.462175 31.322254 272.160027 30.592804 271.622275 30.055053 
C 271.084524 29.517301 270.355074 29.215153 269.594578 29.215153 
C 268.834083 29.215153 268.104633 29.517301 267.566881 30.055053 
C 267.029129 30.592804 266.726981 31.322254 266.726981 32.08275 
C 266.726981 32.843246 267.029129 33.572696 267.566881 34.110447 
C 268.104633 34.648199 268.834083 34.950347 269.594578 34.950347 
z
" clip-path="url(#p1f4acb3ea7)" style="fill: #f7e8ec; stroke: #b83b52; stroke-width: 1.25; stroke-linejoin: miter"/>
   </g>
   <g id="line2d_35">
    <path d="M 268.036102 30.524273 
L 271.153055 33.641227 
" clip-path="url(#p1f4acb3ea7)" style="fill: none; stroke: #b83b52; stroke-width: 0.9; stroke-linecap: square"/>
   </g>
   <g id="line2d_36">
    <path d="M 268.036102 33.641227 
L 271.153055 30.524273 
" clip-path="url(#p1f4acb3ea7)" style="fill: none; stroke: #b83b52; stroke-width: 0.9; stroke-linecap: square"/>
   </g>
   <g id="patch_35">
    <path d="M 276.76357 34.950347 
C 277.524066 34.950347 278.253516 34.648199 278.791268 34.110447 
C 279.329019 33.572696 279.631167 32.843246 279.631167 32.08275 
C 279.631167 31.322254 279.329019 30.592804 278.791268 30.055053 
C 278.253516 29.517301 277.524066 29.215153 276.76357 29.215153 
C 276.003075 29.215153 275.273625 29.517301 274.735873 30.055053 
C 274.198122 30.592804 273.895973 31.322254 273.895973 32.08275 
C 273.895973 32.843246 274.198122 33.572696 274.735873 34.110447 
C 275.273625 34.648199 276.003075 34.950347 276.76357 34.950347 
z
" clip-path="url(#p1f4acb3ea7)" style="fill: #f7e8ec; stroke: #b83b52; stroke-width: 1.25; stroke-linejoin: miter"/>
   </g>
   <g id="line2d_37">
    <path d="M 275.205094 30.524273 
L 278.322047 33.641227 
" clip-path="url(#p1f4acb3ea7)" style="fill: none; stroke: #b83b52; stroke-width: 0.9; stroke-linecap: square"/>
   </g>
   <g id="line2d_38">
    <path d="M 275.205094 33.641227 
L 278.322047 30.524273 
" clip-path="url(#p1f4acb3ea7)" style="fill: none; stroke: #b83b52; stroke-width: 0.9; stroke-linecap: square"/>
   </g>
   <g id="line2d_39">
    <path d="M 336.920766 55.459898 
L 366.53182 55.459898 
" clip-path="url(#p1f4acb3ea7)" style="fill: none; stroke: #222831; stroke-width: 0.85; stroke-linecap: square"/>
   </g>
   <g id="line2d_40">
    <path d="M 336.920766 55.459898 
L 336.920766 22.731891 
" clip-path="url(#p1f4acb3ea7)" style="fill: none; stroke: #222831; stroke-width: 0.85; stroke-linecap: square"/>
   </g>
   <g id="line2d_41">
    <path d="M 341.2845 55.459898 
L 341.2845 57.174223 
" clip-path="url(#p1f4acb3ea7)" style="fill: none; stroke: #222831; stroke-width: 0.45; stroke-linecap: square"/>
   </g>
   <g id="line2d_42">
    <path d="M 354.064008 55.459898 
L 354.064008 57.174223 
" clip-path="url(#p1f4acb3ea7)" style="fill: none; stroke: #222831; stroke-width: 0.45; stroke-linecap: square"/>
   </g>
   <g id="line2d_43">
    <path d="M 363.726562 55.459898 
L 363.726562 57.174223 
" clip-path="url(#p1f4acb3ea7)" style="fill: none; stroke: #222831; stroke-width: 0.45; stroke-linecap: square"/>
   </g>
   <g id="line2d_44">
    <path d="M 336.920766 41.745305 
L 335.206441 41.745305 
" clip-path="url(#p1f4acb3ea7)" style="fill: none; stroke: #222831; stroke-width: 0.45; stroke-linecap: square"/>
   </g>
   <g id="line2d_45">
    <path d="M 336.920766 29.900883 
L 335.206441 29.900883 
" clip-path="url(#p1f4acb3ea7)" style="fill: none; stroke: #222831; stroke-width: 0.45; stroke-linecap: square"/>
   </g>
   <g id="text_1">
    <text style="fill: #222831; font: 700 10.5px 'Arial', 'Helvetica', 'DejaVu Sans', sans-serif; text-anchor: start" x="9.328992" y="13.416047" transform="rotate(-0 9.328992 13.416047)">a</text>
   </g>
   <g id="patch_36">
    <path d="M 21.796805 34.326956 
C 22.309313 34.326956 22.800898 34.123335 23.163296 33.760937 
C 23.525694 33.398539 23.729316 32.906953 23.729316 32.394445 
C 23.729316 31.881937 23.525694 31.390352 23.163296 31.027954 
C 22.800898 30.665556 22.309313 30.461934 21.796805 30.461934 
C 21.284297 30.461934 20.792711 30.665556 20.430313 31.027954 
C 20.067915 31.390352 19.864294 31.881937 19.864294 32.394445 
C 19.864294 32.906953 20.067915 33.398539 20.430313 33.760937 
C 20.792711 34.123335 21.284297 34.326956 21.796805 34.326956 
z
" clip-path="url(#p1f4acb3ea7)" style="fill: #2f6f9f; stroke: #ffffff; stroke-width: 0.35; stroke-linejoin: miter"/>
   </g>
   <g id="patch_37">
    <path d="M 24.913758 42.431034 
C 25.426266 42.431034 25.917852 42.227413 26.280249 41.865015 
C 26.642647 41.502617 26.846269 41.011031 26.846269 40.498523 
C 26.846269 39.986016 26.642647 39.49443 26.280249 39.132032 
C 25.917852 38.769634 25.426266 38.566012 24.913758 38.566012 
C 24.40125 38.566012 23.909664 38.769634 23.547266 39.132032 
C 23.184868 39.49443 22.981247 39.986016 22.981247 40.498523 
C 22.981247 41.011031 23.184868 41.502617 23.547266 41.865015 
C 23.909664 42.227413 24.40125 42.431034 24.913758 42.431034 
z
" clip-path="url(#p1f4acb3ea7)" style="fill: #2f6f9f; stroke: #ffffff; stroke-width: 0.35; stroke-linejoin: miter"/>
   </g>
   <g id="patch_38">
    <path d="M 29.277492 28.716441 
C 29.79 28.716441 30.281586 28.512819 30.643984 28.150421 
C 31.006382 27.788023 31.210003 27.296438 31.210003 26.78393 
C 31.210003 26.271422 31.006382 25.779836 30.643984 25.417438 
C 30.281586 25.05504 29.79 24.851419 29.277492 24.851419 
C 28.764984 24.851419 28.273398 25.05504 27.911001 25.417438 
C 27.548603 25.779836 27.344981 26.271422 27.344981 26.78393 
C 27.344981 27.296438 27.548603 27.788023 27.911001 28.150421 
C 28.273398 28.512819 28.764984 28.716441 29.277492 28.716441 
z
" clip-path="url(#p1f4acb3ea7)" style="fill: #2f6f9f; stroke: #ffffff; stroke-width: 0.35; stroke-linejoin: miter"/>
   </g>
   <g id="patch_39">
    <path d="M 32.394445 36.820519 
C 32.906953 36.820519 33.398539 36.616897 33.760937 36.254499 
C 34.123335 35.892102 34.326956 35.400516 34.326956 34.888008 
C 34.326956 34.3755 34.123335 33.883914 33.760937 33.521516 
C 33.398539 33.159118 32.906953 32.955497 32.394445 32.955497 
C 31.881937 32.955497 31.390352 33.159118 31.027954 33.521516 
C 30.665556 33.883914 30.461934 34.3755 30.461934 34.888008 
C 30.461934 35.400516 30.665556 35.892102 31.027954 36.254499 
C 31.390352 36.616897 31.881937 36.820519 32.394445 36.820519 
z
" clip-path="url(#p1f4acb3ea7)" style="fill: #d27a3f; stroke: #ffffff; stroke-width: 0.35; stroke-linejoin: miter"/>
   </g>
   <g id="patch_40">
    <path d="M 36.134789 27.469659 
C 36.647297 27.469659 37.138883 27.266038 37.501281 26.90364 
C 37.863678 26.541242 38.0673 26.049656 38.0673 25.537148 
C 38.0673 25.024641 37.863678 24.533055 37.501281 24.170657 
C 37.138883 23.808259 36.647297 23.604638 36.134789 23.604638 
C 35.622281 23.604638 35.130695 23.808259 34.768297 24.170657 
C 34.4059 24.533055 34.202278 25.024641 34.202278 25.537148 
C 34.202278 26.049656 34.4059 26.541242 34.768297 26.90364 
C 35.130695 27.266038 35.622281 27.469659 36.134789 27.469659 
z
" clip-path="url(#p1f4acb3ea7)" style="fill: #d27a3f; stroke: #ffffff; stroke-width: 0.35; stroke-linejoin: miter"/>
   </g>
   <g id="patch_41">
    <path d="M 40.498523 35.573738 
C 41.011031 35.573738 41.502617 35.370116 41.865015 35.007718 
C 42.227413 34.64532 42.431034 34.153734 42.431034 33.641227 
C 42.431034 33.128719 42.227413 32.637133 41.865015 32.274735 
C 41.502617 31.912337 41.011031 31.708716 40.498523 31.708716 
C 39.986016 31.708716 39.49443 31.912337 39.132032 32.274735 
C 38.769634 32.637133 38.566013 33.128719 38.566013 33.641227 
C 38.566013 34.153734 38.769634 34.64532 39.132032 35.007718 
C 39.49443 35.370116 39.986016 35.573738 40.498523 35.573738 
z
" clip-path="url(#p1f4acb3ea7)" style="fill: #d27a3f; stroke: #ffffff; stroke-width: 0.35; stroke-linejoin: miter"/>
   </g>
   <g id="patch_42">
    <path d="M 42.992086 44.301206 
C 43.504594 44.301206 43.99618 44.097585 44.358578 43.735187 
C 44.720975 43.372789 44.924597 42.881203 44.924597 42.368695 
C 44.924597 41.856187 44.720975 41.364602 44.358578 41.002204 
C 43.99618 40.639806 43.504594 40.436184 42.992086 40.436184 
C 42.479578 40.436184 41.987992 40.639806 41.625594 41.002204 
C 41.263197 41.364602 41.059575 41.856187 41.059575 42.368695 
C 41.059575 42.881203 41.263197 43.372789 41.625594 43.735187 
C 41.987992 44.097585 42.479578 44.301206 42.992086 44.301206 
z
" clip-path="url(#p1f4acb3ea7)" style="fill: #d27a3f; stroke: #ffffff; stroke-width: 0.35; stroke-linejoin: miter"/>
   </g>
   <g id="patch_43">
    <path d="M 20.238328 46.794769 
C 20.750836 46.794769 21.242422 46.591147 21.60482 46.228749 
C 21.967218 45.866352 22.170839 45.374766 22.170839 44.862258 
C 22.170839 44.34975 21.967218 43.858164 21.60482 43.495766 
C 21.242422 43.133368 20.750836 42.929747 20.238328 42.929747 
C 19.72582 42.929747 19.234234 43.133368 18.871837 43.495766 
C 18.509439 43.858164 18.305817 44.34975 18.305817 44.862258 
C 18.305817 45.374766 18.509439 45.866352 18.871837 46.228749 
C 19.234234 46.591147 19.72582 46.794769 20.238328 46.794769 
z
" clip-path="url(#p1f4acb3ea7)" style="fill: #2f6f9f; stroke: #ffffff; stroke-width: 0.35; stroke-linejoin: miter"/>
   </g>
   <g id="patch_44">
    <path d="M 30.524273 48.04155 
C 31.036781 48.04155 31.528367 47.837928 31.890765 47.475531 
C 32.253163 47.113133 32.456784 46.621547 32.456784 46.109039 
C 32.456784 45.596531 32.253163 45.104945 31.890765 44.742547 
C 31.528367 44.38015 31.036781 44.176528 30.524273 44.176528 
C 30.011766 44.176528 29.52018 44.38015 29.157782 44.742547 
C 28.795384 45.104945 28.591763 45.596531 28.591763 46.109039 
C 28.591763 46.621547 28.795384 47.113133 29.157782 47.475531 
C 29.52018 47.837928 30.011766 48.04155 30.524273 48.04155 
z
" clip-path="url(#p1f4acb3ea7)" style="fill: #2f6f9f; stroke: #ffffff; stroke-width: 0.35; stroke-linejoin: miter"/>
   </g>
   <g id="patch_45">
    <path d="M 38.004961 49.288331 
C 38.517469 49.288331 39.009055 49.08471 39.371453 48.722312 
C 39.73385 48.359914 39.937472 47.868328 39.937472 47.35582 
C 39.937472 46.843312 39.73385 46.351727 39.371453 45.989329 
C 39.009055 45.626931 38.517469 45.423309 38.004961 45.423309 
C 37.492453 45.423309 37.000867 45.626931 36.638469 45.989329 
C 36.276072 46.351727 36.07245 46.843312 36.07245 47.35582 
C 36.07245 47.868328 36.276072 48.359914 36.638469 48.722312 
C 37.000867 49.08471 37.492453 49.288331 38.004961 49.288331 
z
" clip-path="url(#p1f4acb3ea7)" style="fill: #d27a3f; stroke: #ffffff; stroke-width: 0.35; stroke-linejoin: miter"/>
   </g>
   <g id="patch_46">
    <path d="M 31.771055 21.859144 
C 32.283563 21.859144 32.775148 21.655522 33.137546 21.293124 
C 33.499944 20.930727 33.703566 20.439141 33.703566 19.926633 
C 33.703566 19.414125 33.499944 18.922539 33.137546 18.560141 
C 32.775148 18.197743 32.283563 17.994122 31.771055 17.994122 
C 31.258547 17.994122 30.766961 18.197743 30.404563 18.560141 
C 30.042165 18.922539 29.838544 19.414125 29.838544 19.926633 
C 29.838544 20.439141 30.042165 20.930727 30.404563 21.293124 
C 30.766961 21.655522 31.258547 21.859144 31.771055 21.859144 
z
" clip-path="url(#p1f4acb3ea7)" style="fill: #d27a3f; stroke: #ffffff; stroke-width: 0.35; stroke-linejoin: miter"/>
   </g>
   <g id="text_2">
    <text style="fill: #b83b52; font: 5.5px 'Arial', 'Helvetica', 'DejaVu Sans', sans-serif" transform="translate(40.936289 21.556781)">weak</text>
    <text style="fill: #b83b52; font: 5.5px 'Arial', 'Helvetica', 'DejaVu Sans', sans-serif" transform="translate(40.627773 27.374063)">plane</text>
   </g>
   <g id="text_3">
    <text style="fill: #222831; font: 6.8px 'Arial', 'Helvetica', 'DejaVu Sans', sans-serif" transform="translate(13.810023 70.453214)">500 bonded</text>
    <text style="fill: #222831; font: 6.8px 'Arial', 'Helvetica', 'DejaVu Sans', sans-serif" transform="translate(13.62993 77.645489)">subparticles</text>
   </g>
   <g id="text_4">
    <text style="fill: #222831; font: 700 10.5px 'Arial', 'Helvetica', 'DejaVu Sans', sans-serif; text-anchor: start" x="90.369773" y="13.416047" transform="rotate(-0 90.369773 13.416047)">b</text>
   </g>
   <g id="text_5">
    <text style="fill: #222831; font: 6.8px 'Arial', 'Helvetica', 'DejaVu Sans', sans-serif" transform="translate(91.649492 70.373527)">gravity-settled</text>
    <text style="fill: #222831; font: 6.8px 'Arial', 'Helvetica', 'DejaVu Sans', sans-serif" transform="translate(92.40493 77.645489)">proxy centres</text>
   </g>
   <g id="text_6">
    <text style="fill: #222831; font: 700 10.5px 'Arial', 'Helvetica', 'DejaVu Sans', sans-serif; text-anchor: start" x="169.852078" y="13.416047" transform="rotate(-0 169.852078 13.416047)">c</text>
   </g>
   <g id="text_7">
    <text style="fill: #222831; font: 6.8px 'Arial', 'Helvetica', 'DejaVu Sans', sans-serif" transform="translate(164.515078 70.453214)">intact replacement</text>
    <text style="fill: #222831; font: 6.8px 'Arial', 'Helvetica', 'DejaVu Sans', sans-serif" transform="translate(169.797828 77.645489)">493,500 bonds</text>
   </g>
   <g id="text_8">
    <text style="fill: #222831; font: 700 10.5px 'Arial', 'Helvetica', 'DejaVu Sans', sans-serif; text-anchor: start" x="249.334383" y="13.416047" transform="rotate(-0 249.334383 13.416047)">d</text>
   </g>
   <g id="text_9">
    <text style="fill: #222831; font: 6.8px 'Arial', 'Helvetica', 'DejaVu Sans', sans-serif" transform="translate(250.041414 70.373527)">bond loss only</text>
    <text style="fill: #222831; font: 6.8px 'Arial', 'Helvetica', 'DejaVu Sans', sans-serif" transform="translate(250.417008 77.645489)">during loading</text>
   </g>
   <g id="text_10">
    <text style="fill: #222831; font: 700 10.5px 'Arial', 'Helvetica', 'DejaVu Sans', sans-serif; text-anchor: start" x="328.816688" y="13.416047" transform="rotate(-0 328.816688 13.416047)">e</text>
   </g>
   <g id="PathCollection_1">
    <path d="M 341.2845 54.008307 
C 342.222135 54.008307 343.121492 53.635781 343.7845 52.972773 
C 344.447508 52.309766 344.820034 51.410408 344.820034 50.472773 
C 344.820034 49.535139 344.447508 48.635781 343.7845 47.972773 
C 343.121492 47.309766 342.222135 46.93724 341.2845 46.93724 
C 340.346865 46.93724 339.447508 47.309766 338.7845 47.972773 
C 338.121492 48.635781 337.748966 49.535139 337.748966 50.472773 
C 337.748966 51.410408 338.121492 52.309766 338.7845 52.972773 
C 339.447508 53.635781 340.346865 54.008307 341.2845 54.008307 
z
" clip-path="url(#p1f4acb3ea7)" style="fill: #b83b52; fill-opacity: 0.8; stroke: #b83b52; stroke-opacity: 0.8; stroke-width: 0.8"/>
    <path d="M 347.518406 46.017307 
C 348.651354 46.017307 349.738052 45.567181 350.539168 44.766066 
C 351.340283 43.964951 351.790408 42.878253 351.790408 41.745305 
C 351.790408 40.612357 351.340283 39.525659 350.539168 38.724543 
C 349.738052 37.923428 348.651354 37.473303 347.518406 37.473303 
C 346.385458 37.473303 345.29876 37.923428 344.497645 38.724543 
C 343.696529 39.525659 343.246404 40.612357 343.246404 41.745305 
C 343.246404 42.878253 343.696529 43.964951 344.497645 44.766066 
C 345.29876 45.567181 346.385458 46.017307 347.518406 46.017307 
z
" clip-path="url(#p1f4acb3ea7)" style="fill: #b83b52; fill-opacity: 0.8; stroke: #b83b52; stroke-opacity: 0.8; stroke-width: 0.8"/>
    <path d="M 354.064008 42.370009 
C 355.056307 42.370009 356.008098 41.975764 356.709759 41.274103 
C 357.411421 40.572441 357.805665 39.620651 357.805665 38.628352 
C 357.805665 37.636052 357.411421 36.684262 356.709759 35.9826 
C 356.008098 35.280939 355.056307 34.886694 354.064008 34.886694 
C 353.071709 34.886694 352.119918 35.280939 351.418257 35.9826 
C 350.716595 36.684262 350.32235 37.636052 350.32235 38.628352 
C 350.32235 39.620651 350.716595 40.572441 351.418257 41.274103 
C 352.119918 41.975764 353.071709 42.370009 354.064008 42.370009 
z
" clip-path="url(#p1f4acb3ea7)" style="fill: #b83b52; fill-opacity: 0.8; stroke: #b83b52; stroke-opacity: 0.8; stroke-width: 0.8"/>
    <path d="M 360.297914 35.192385 
C 361.701237 35.192385 363.047272 34.634839 364.039571 33.64254 
C 365.031871 32.650241 365.589417 31.304206 365.589417 29.900883 
C 365.589417 28.49756 365.031871 27.151525 364.039571 26.159225 
C 363.047272 25.166926 361.701237 24.60938 360.297914 24.60938 
C 358.894591 24.60938 357.548556 25.166926 356.556257 26.159225 
C 355.563958 27.151525 355.006411 28.49756 355.006411 29.900883 
C 355.006411 31.304206 355.563958 32.650241 356.556257 33.64254 
C 357.548556 34.634839 358.894591 35.192385 360.297914 35.192385 
z
" clip-path="url(#p1f4acb3ea7)" style="fill: #b83b52; fill-opacity: 0.8; stroke: #b83b52; stroke-opacity: 0.8; stroke-width: 0.8"/>
    <path d="M 363.726562 32.097736 
C 364.970475 32.097736 366.163608 31.603524 367.043187 30.723945 
C 367.922766 29.844366 368.416978 28.651233 368.416978 27.40732 
C 368.416978 26.163408 367.922766 24.970275 367.043187 24.090696 
C 366.163608 23.211116 364.970475 22.716905 363.726562 22.716905 
C 362.48265 22.716905 361.289517 23.211116 360.409938 24.090696 
C 359.530359 24.970275 359.036147 26.163408 359.036147 27.40732 
C 359.036147 28.651233 359.530359 29.844366 360.409938 30.723945 
C 361.289517 31.603524 362.48265 32.097736 363.726562 32.097736 
z
" clip-path="url(#p1f4acb3ea7)" style="fill: #b83b52; fill-opacity: 0.8; stroke: #b83b52; stroke-opacity: 0.8; stroke-width: 0.8"/>
   </g>
   <g id="text_11">
    <text style="fill: #69737f; font: 6px 'Arial', 'Helvetica', 'DejaVu Sans', sans-serif; text-anchor: middle" x="353.752312" y="19.607555" transform="rotate(-0 353.752312 19.607555)">step -&gt; displacement</text>
   </g>
   <g id="text_12">
    <text style="fill: #69737f; font: 6.6px 'Arial', 'Helvetica', 'DejaVu Sans', sans-serif" transform="translate(327.617241 50.241) rotate(-90)">damage</text>
    <text style="fill: #69737f; font: 6.6px 'Arial', 'Helvetica', 'DejaVu Sans', sans-serif" transform="translate(334.675322 44.735672) rotate(-90)">rank</text>
   </g>
   <g id="text_13">
    <text style="fill: #222831; font: 6.8px 'Arial', 'Helvetica', 'DejaVu Sans', sans-serif" transform="translate(326.690031 70.373527)">assign events to</text>
    <text style="fill: #222831; font: 6.8px 'Arial', 'Helvetica', 'DejaVu Sans', sans-serif" transform="translate(323.570531 77.645489)">particle id + height</text>
   </g>
   <g id="line2d_46">
    <path d="M 31.771055 52.654641 
L 31.771055 18.368156 
" clip-path="url(#p1f4acb3ea7)" style="fill: none; stroke-dasharray: 3.3,2.2; stroke-dashoffset: 0; stroke: #b83b52; stroke-width: 1.1"/>
   </g>
   <g id="patch_47">
    <path d="M 56.083289 40.498523 
Q 72.758988 40.498523 88.316654 40.498523 
" style="fill: none; stroke: #818a93; stroke-linecap: round"/>
    <path d="M 83.516654 38.098523 
L 88.316654 40.498523 
L 83.516654 42.898523 
z
" style="fill: #818a93; stroke: #818a93; stroke-linecap: round"/>
   </g>
   <g id="patch_48">
    <path d="M 137.12407 40.498523 
Q 153.020531 40.498523 167.798958 40.498523 
" style="fill: none; stroke: #818a93; stroke-linecap: round"/>
    <path d="M 162.998958 38.098523 
L 167.798958 40.498523 
L 162.998958 42.898523 
z
" style="fill: #818a93; stroke: #818a93; stroke-linecap: round"/>
   </g>
   <g id="patch_49">
    <path d="M 216.606375 40.498523 
Q 232.502836 40.498523 247.281263 40.498523 
" style="fill: none; stroke: #818a93; stroke-linecap: round"/>
    <path d="M 242.481263 38.098523 
L 247.281263 40.498523 
L 242.481263 42.898523 
z
" style="fill: #818a93; stroke: #818a93; stroke-linecap: round"/>
   </g>
   <g id="patch_50">
    <path d="M 296.08868 40.498523 
Q 311.985141 40.498523 326.763568 40.498523 
" style="fill: none; stroke: #818a93; stroke-linecap: round"/>
    <path d="M 321.963568 38.098523 
L 326.763568 40.498523 
L 321.963568 42.898523 
z
" style="fill: #818a93; stroke: #818a93; stroke-linecap: round"/>
   </g>
  </g>
 </g>
 <defs>
  <clipPath id="p1f4acb3ea7">
   <rect x="2.16" y="2.16" width="398.97" height="84.157734"/>
  </clipPath>
 </defs>
</svg>
