<?xml version="1.0" encoding="utf-8" standalone="no"?>
<!DOCTYPE svg PUBLIC "-//W3C//DTD SVG 1.1//EN"
  "http://www.w3.org/Graphics/SVG/1.1/DTD/svg11.dtd">
<svg xmlns:xlink="http://www.w3.org/1999/xlink" width="414.45pt" height="90.018806pt" viewBox="0 0 414.45 90.018806" xmlns="http://www.w3.org/2000/svg" version="1.1">
 <metadata>
  <rdf:RDF xmlns:dc="http://purl.org/dc/elements/1.1/" xmlns:cc="http://creativecommons.org/ns#" xmlns:rdf="http://www.w3.org/1999/02/22-rdf-syntax-ns#">
   <cc:Work>
    <dc:type rdf:resource="http://purl.org/dc/dcmitype/StillImage"/>
    <dc:date>2026-06-13T00:45:30.379628</dc:date>
    <dc:format>image/svg+xml</dc:format>
    <dc:creator>
     <cc:Agent>
      <dc:title>Matplotlib v3.9.4, https://matplotlib.org/</dc:title>
     </cc:Agent>
    </dc:creator>
   </cc:Work>
  </rdf:RDF>
 </metadata>
 <defs>
  <style type="text/css">*{stroke-linejoin: round; stroke-linecap: butt}</style>
 </defs>
 <g id="figure_1">
  <g id="patch_1">
   <path d="M 0 90.018806 
L 414.45 90.018806 
L 414.45 -0 
L 0 -0 
z
" style="fill: #fbfaf7"/>
  </g>
  <g id="axes_1">
   <g id="patch_2">
    <path d="M 7.883456 83.206585 
L 54.589305 83.206585 
Q 55.66054 83.206585 55.66054 82.13535 
L 55.66054 10.331993 
Q 55.66054 9.260758 54.589305 9.260758 
L 7.883456 9.260758 
Q 6.812221 9.260758 6.812221 10.331993 
L 6.812221 82.13535 
Q 6.812221 83.206585 7.883456 83.206585 
z
" clip-path="url(#p0c8eba0014)" style="fill: #ffffff; stroke: #d8dee4; stroke-width: 0.45; stroke-linejoin: miter"/>
   </g>
   <g id="patch_3">
    <path d="M 93.582262 83.206585 
L 140.288111 83.206585 
Q 141.359346 83.206585 141.359346 82.13535 
L 141.359346 10.331993 
Q 141.359346 9.260758 140.288111 9.260758 
L 93.582262 9.260758 
Q 92.511027 9.260758 92.511027 10.331993 
L 92.511027 82.13535 
Q 92.511027 83.206585 93.582262 83.206585 
z
" clip-path="url(#p0c8eba0014)" style="fill: #ffffff; stroke: #d8dee4; stroke-width: 0.45; stroke-linejoin: miter"/>
   </g>
   <g id="patch_4">
    <path d="M 177.750732 83.206585 
L 224.456581 83.206585 
Q 225.527816 83.206585 225.527816 82.13535 
L 225.527816 10.331993 
Q 225.527816 9.260758 224.456581 9.260758 
L 177.750732 9.260758 
Q 176.679497 9.260758 176.679497 10.331993 
L 176.679497 82.13535 
Q 176.679497 83.206585 177.750732 83.206585 
z
" clip-path="url(#p0c8eba0014)" style="fill: #ffffff; stroke: #d8dee4; stroke-width: 0.45; stroke-linejoin: miter"/>
   </g>
   <g id="patch_5">
    <path d="M 261.919202 83.206585 
L 308.625051 83.206585 
Q 309.696287 83.206585 309.696287 82.13535 
L 309.696287 10.331993 
Q 309.696287 9.260758 308.625051 9.260758 
L 261.919202 9.260758 
Q 260.847967 9.260758 260.847967 10.331993 
L 260.847967 82.13535 
Q 260.847967 83.206585 261.919202 83.206585 
z
" clip-path="url(#p0c8eba0014)" style="fill: #ffffff; stroke: #d8dee4; stroke-width: 0.45; stroke-linejoin: miter"/>
   </g>
   <g id="patch_6">
    <path d="M 346.087672 83.206585 
L 392.793522 83.206585 
Q 393.864757 83.206585 393.864757 82.13535 
L 393.864757 10.331993 
Q 393.864757 9.260758 392.793522 9.260758 
L 346.087672 9.260758 
Q 345.016437 9.260758 345.016437 10.331993 
L 345.016437 82.13535 
Q 345.016437 83.206585 346.087672 83.206585 
z
" clip-path="url(#p0c8eba0014)" style="fill: #ffffff; stroke: #d8dee4; stroke-width: 0.45; stroke-linejoin: miter"/>
   </g>
   <g id="line2d_1">
    <path d="M 10.423813 15.320888 
L 52.048948 15.320888 
" clip-path="url(#p0c8eba0014)" style="fill: none; stroke: #3e75a8; stroke-width: 1.1; stroke-linecap: round"/>
   </g>
   <g id="patch_7">
    <path d="M 31.236381 50.824679 
C 35.944238 50.824679 40.459908 48.954227 43.788866 45.625269 
C 47.117824 42.296311 48.988276 37.780641 48.988276 33.072784 
C 48.988276 28.364926 47.117824 23.849256 43.788866 20.520298 
C 40.459908 17.19134 35.944238 15.320888 31.236381 15.320888 
C 26.528523 15.320888 22.012853 17.19134 18.683895 20.520298 
C 15.354937 23.849256 13.484485 28.364926 13.484485 33.072784 
C 13.484485 37.780641 15.354937 42.296311 18.683895 45.625269 
C 22.012853 48.954227 26.528523 50.824679 31.236381 50.824679 
z
" clip-path="url(#p0c8eba0014)" style="fill: #f5f2ea; stroke: #222222; stroke-width: 0.9; stroke-linejoin: miter"/>
   </g>
   <g id="line2d_2">
    <path d="M 21.442231 29.399978 
L 25.115037 36.133455 
" clip-path="url(#p0c8eba0014)" style="fill: none; stroke: #c8c8c8; stroke-width: 0.45; stroke-linecap: square"/>
   </g>
   <g id="line2d_3">
    <path d="M 21.442231 29.399978 
L 28.175709 25.115037 
" clip-path="url(#p0c8eba0014)" style="fill: none; stroke: #c8c8c8; stroke-width: 0.45; stroke-linecap: square"/>
   </g>
   <g id="line2d_4">
    <path d="M 25.115037 36.133455 
L 31.848515 32.460649 
" clip-path="url(#p0c8eba0014)" style="fill: none; stroke: #c8c8c8; stroke-width: 0.45; stroke-linecap: square"/>
   </g>
   <g id="line2d_5">
    <path d="M 25.115037 36.133455 
L 20.217963 39.806261 
" clip-path="url(#p0c8eba0014)" style="fill: none; stroke: #c8c8c8; stroke-width: 0.45; stroke-linecap: square"/>
   </g>
   <g id="line2d_6">
    <path d="M 25.115037 36.133455 
L 29.706045 41.642664 
" clip-path="url(#p0c8eba0014)" style="fill: none; stroke: #c8c8c8; stroke-width: 0.45; stroke-linecap: square"/>
   </g>
   <g id="line2d_7">
    <path d="M 28.175709 25.115037 
L 31.848515 32.460649 
" clip-path="url(#p0c8eba0014)" style="fill: none; stroke: #c8c8c8; stroke-width: 0.45; stroke-linecap: square"/>
   </g>
   <g id="line2d_8">
    <path d="M 28.175709 25.115037 
L 35.521321 23.890769 
" clip-path="url(#p0c8eba0014)" style="fill: none; stroke: #c8c8c8; stroke-width: 0.45; stroke-linecap: square"/>
   </g>
   <g id="line2d_9">
    <path d="M 28.175709 25.115037 
L 31.236381 18.38156 
" clip-path="url(#p0c8eba0014)" style="fill: none; stroke: #c8c8c8; stroke-width: 0.45; stroke-linecap: square"/>
   </g>
   <g id="line2d_10">
    <path d="M 31.848515 32.460649 
L 35.521321 23.890769 
" clip-path="url(#p0c8eba0014)" style="fill: none; stroke: #c8c8c8; stroke-width: 0.45; stroke-linecap: square"/>
   </g>
   <g id="line2d_11">
    <path d="M 31.848515 32.460649 
L 38.581993 31.542448 
" clip-path="url(#p0c8eba0014)" style="fill: none; stroke: #c8c8c8; stroke-width: 0.45; stroke-linecap: square"/>
   </g>
   <g id="line2d_12">
    <path d="M 31.848515 32.460649 
L 29.706045 41.642664 
" clip-path="url(#p0c8eba0014)" style="fill: none; stroke: #c8c8c8; stroke-width: 0.45; stroke-linecap: square"/>
   </g>
   <g id="line2d_13">
    <path d="M 35.521321 23.890769 
L 38.581993 31.542448 
" clip-path="url(#p0c8eba0014)" style="fill: none; stroke: #c8c8c8; stroke-width: 0.45; stroke-linecap: square"/>
   </g>
   <g id="line2d_14">
    <path d="M 35.521321 23.890769 
L 31.236381 18.38156 
" clip-path="url(#p0c8eba0014)" style="fill: none; stroke: #c8c8c8; stroke-width: 0.45; stroke-linecap: square"/>
   </g>
   <g id="line2d_15">
    <path d="M 38.581993 31.542448 
L 41.642664 37.663791 
" clip-path="url(#p0c8eba0014)" style="fill: none; stroke: #c8c8c8; stroke-width: 0.45; stroke-linecap: square"/>
   </g>
   <g id="line2d_16">
    <path d="M 41.642664 37.663791 
L 36.74559 43.479067 
" clip-path="url(#p0c8eba0014)" style="fill: none; stroke: #c8c8c8; stroke-width: 0.45; stroke-linecap: square"/>
   </g>
   <g id="line2d_17">
    <path d="M 20.217963 39.806261 
L 29.706045 41.642664 
" clip-path="url(#p0c8eba0014)" style="fill: none; stroke: #c8c8c8; stroke-width: 0.45; stroke-linecap: square"/>
   </g>
   <g id="line2d_18">
    <path d="M 29.706045 41.642664 
L 36.74559 43.479067 
" clip-path="url(#p0c8eba0014)" style="fill: none; stroke: #c8c8c8; stroke-width: 0.45; stroke-linecap: square"/>
   </g>
   <g id="line2d_19">
    <path d="M 96.122619 15.320888 
L 137.747754 15.320888 
" clip-path="url(#p0c8eba0014)" style="fill: none; stroke: #66717e; stroke-width: 1.1; stroke-linecap: round"/>
   </g>
   <g id="patch_8">
    <path d="M 100.101493 58.782425 
L 133.768881 58.782425 
L 133.768881 21.442231 
L 100.101493 21.442231 
L 100.101493 58.782425 
z
" clip-path="url(#p0c8eba0014)" style="fill: none; stroke: #222222; stroke-width: 0.85; stroke-linejoin: miter"/>
   </g>
   <g id="line2d_20">
    <path d="M 180.29109 15.320888 
L 221.916224 15.320888 
" clip-path="url(#p0c8eba0014)" style="fill: none; stroke: #2d7f7a; stroke-width: 1.1; stroke-linecap: round"/>
   </g>
   <g id="patch_9">
    <path d="M 184.269963 58.782425 
L 217.937351 58.782425 
L 217.937351 21.442231 
L 184.269963 21.442231 
L 184.269963 58.782425 
z
" clip-path="url(#p0c8eba0014)" style="fill: none; stroke: #222222; stroke-width: 0.85; stroke-linejoin: miter"/>
   </g>
   <g id="line2d_21">
    <path d="M 264.45956 15.320888 
L 306.084694 15.320888 
" clip-path="url(#p0c8eba0014)" style="fill: none; stroke: #a8364b; stroke-width: 1.1; stroke-linecap: round"/>
   </g>
   <g id="patch_10">
    <path d="M 268.438433 58.782425 
L 302.105821 58.782425 
L 302.105821 24.502903 
L 268.438433 24.502903 
L 268.438433 58.782425 
z
" clip-path="url(#p0c8eba0014)" style="fill: none; stroke: #222222; stroke-width: 0.85; stroke-linejoin: miter"/>
   </g>
   <g id="patch_11">
    <path d="M 267.826299 24.502903 
L 302.717955 24.502903 
L 302.717955 22.054366 
L 267.826299 22.054366 
z
" clip-path="url(#p0c8eba0014)" style="fill: #3c3c3c"/>
   </g>
   <g id="line2d_22">
    <path d="M 348.62803 15.320888 
L 390.253164 15.320888 
" clip-path="url(#p0c8eba0014)" style="fill: none; stroke: #a8364b; stroke-width: 1.1; stroke-linecap: round"/>
   </g>
   <g id="PathCollection_1">
    <path d="M 358.728246 55.131155 
C 359.545657 55.131155 360.329699 54.806394 360.907696 54.228397 
C 361.485692 53.6504 361.810453 52.866359 361.810453 52.048948 
C 361.810453 51.231537 361.485692 50.447495 360.907696 49.869498 
C 360.329699 49.291502 359.545657 48.966741 358.728246 48.966741 
C 357.910835 48.966741 357.126794 49.291502 356.548797 49.869498 
C 355.9708 50.447495 355.646039 51.231537 355.646039 52.048948 
C 355.646039 52.866359 355.9708 53.6504 356.548797 54.228397 
C 357.126794 54.806394 357.910835 55.131155 358.728246 55.131155 
z
" clip-path="url(#p0c8eba0014)" style="fill: #a8364b; fill-opacity: 0.78; stroke: #a8364b; stroke-opacity: 0.78; stroke-width: 0.7"/>
    <path d="M 365.767791 46.674819 
C 366.777654 46.674819 367.746292 46.273596 368.460373 45.559515 
C 369.174455 44.845434 369.575678 43.876796 369.575678 42.866933 
C 369.575678 41.85707 369.174455 40.888432 368.460373 40.17435 
C 367.746292 39.460269 366.777654 39.059046 365.767791 39.059046 
C 364.757928 39.059046 363.78929 39.460269 363.075209 40.17435 
C 362.361127 40.888432 361.959904 41.85707 361.959904 42.866933 
C 361.959904 43.876796 362.361127 44.845434 363.075209 45.559515 
C 363.78929 46.273596 364.757928 46.674819 365.767791 46.674819 
z
" clip-path="url(#p0c8eba0014)" style="fill: #a8364b; fill-opacity: 0.78; stroke: #a8364b; stroke-opacity: 0.78; stroke-width: 0.7"/>
    <path d="M 372.501269 43.234088 
C 373.410339 43.234088 374.282299 42.872911 374.925109 42.230101 
C 375.567918 41.587291 375.929096 40.715332 375.929096 39.806261 
C 375.929096 38.897191 375.567918 38.025231 374.925109 37.382421 
C 374.282299 36.739611 373.410339 36.378434 372.501269 36.378434 
C 371.592198 36.378434 370.720239 36.739611 370.077429 37.382421 
C 369.434619 38.025231 369.073441 38.897191 369.073441 39.806261 
C 369.073441 40.715332 369.434619 41.587291 370.077429 42.230101 
C 370.720239 42.872911 371.592198 43.234088 372.501269 43.234088 
z
" clip-path="url(#p0c8eba0014)" style="fill: #a8364b; fill-opacity: 0.78; stroke: #a8364b; stroke-opacity: 0.78; stroke-width: 0.7"/>
    <path d="M 379.234746 33.889742 
C 380.506616 33.889742 381.726564 33.384423 382.625911 32.485075 
C 383.525259 31.585728 384.030578 30.36578 384.030578 29.09391 
C 384.030578 27.822041 383.525259 26.602093 382.625911 25.702745 
C 381.726564 24.803398 380.506616 24.298079 379.234746 24.298079 
C 377.962877 24.298079 376.742929 24.803398 375.843581 25.702745 
C 374.944234 26.602093 374.438915 27.822041 374.438915 29.09391 
C 374.438915 30.36578 374.944234 31.585728 375.843581 32.485075 
C 376.742929 33.384423 377.962877 33.889742 379.234746 33.889742 
z
" clip-path="url(#p0c8eba0014)" style="fill: #a8364b; fill-opacity: 0.78; stroke: #a8364b; stroke-opacity: 0.78; stroke-width: 0.7"/>
    <path d="M 383.825754 31.380613 
C 384.919214 31.380613 385.968036 30.946177 386.74123 30.172983 
C 387.514423 29.39979 387.948859 28.350968 387.948859 27.257507 
C 387.948859 26.164047 387.514423 25.115225 386.74123 24.342032 
C 385.968036 23.568838 384.919214 23.134402 383.825754 23.134402 
C 382.732293 23.134402 381.683471 23.568838 380.910278 24.342032 
C 380.137085 25.115225 379.702648 26.164047 379.702648 27.257507 
C 379.702648 28.350968 380.137085 29.39979 380.910278 30.172983 
C 381.683471 30.946177 382.732293 31.380613 383.825754 31.380613 
z
" clip-path="url(#p0c8eba0014)" style="fill: #a8364b; fill-opacity: 0.78; stroke: #a8364b; stroke-opacity: 0.78; stroke-width: 0.7"/>
   </g>
   <g id="patch_12">
    <path d="M 106.528903 57.405123 
C 107.381188 57.405123 108.19868 57.066507 108.801336 56.463851 
C 109.403992 55.861194 109.742608 55.043702 109.742608 54.191418 
C 109.742608 53.339133 109.403992 52.521641 108.801336 51.918985 
C 108.19868 51.316329 107.381188 50.977713 106.528903 50.977713 
C 105.676618 50.977713 104.859126 51.316329 104.25647 51.918985 
C 103.653814 52.521641 103.315198 53.339133 103.315198 54.191418 
C 103.315198 55.043702 103.653814 55.861194 104.25647 56.463851 
C 104.859126 57.066507 105.676618 57.405123 106.528903 57.405123 
z
" clip-path="url(#p0c8eba0014)" style="fill: #dce3ea; stroke: #5e6975; stroke-width: 0.55; stroke-linejoin: miter"/>
   </g>
   <g id="patch_13">
    <path d="M 113.568448 57.71119 
C 114.420732 57.71119 115.238224 57.372574 115.840881 56.769918 
C 116.443537 56.167262 116.782153 55.34977 116.782153 54.497485 
C 116.782153 53.6452 116.443537 52.827709 115.840881 52.225052 
C 115.238224 51.622396 114.420732 51.28378 113.568448 51.28378 
C 112.716163 51.28378 111.898671 51.622396 111.296015 52.225052 
C 110.693359 52.827709 110.354743 53.6452 110.354743 54.497485 
C 110.354743 55.34977 110.693359 56.167262 111.296015 56.769918 
C 111.898671 57.372574 112.716163 57.71119 113.568448 57.71119 
z
" clip-path="url(#p0c8eba0014)" style="fill: #dce3ea; stroke: #5e6975; stroke-width: 0.55; stroke-linejoin: miter"/>
   </g>
   <g id="patch_14">
    <path d="M 120.91406 57.405123 
C 121.766344 57.405123 122.583836 57.066507 123.186492 56.463851 
C 123.789149 55.861194 124.127765 55.043702 124.127765 54.191418 
C 124.127765 53.339133 123.789149 52.521641 123.186492 51.918985 
C 122.583836 51.316329 121.766344 50.977713 120.91406 50.977713 
C 120.061775 50.977713 119.244283 51.316329 118.641627 51.918985 
C 118.038971 52.521641 117.700354 53.339133 117.700354 54.191418 
C 117.700354 55.043702 118.038971 55.861194 118.641627 56.463851 
C 119.244283 57.066507 120.061775 57.405123 120.91406 57.405123 
z
" clip-path="url(#p0c8eba0014)" style="fill: #dce3ea; stroke: #5e6975; stroke-width: 0.55; stroke-linejoin: miter"/>
   </g>
   <g id="patch_15">
    <path d="M 127.953604 57.71119 
C 128.805889 57.71119 129.623381 57.372574 130.226037 56.769918 
C 130.828693 56.167262 131.16731 55.34977 131.16731 54.497485 
C 131.16731 53.6452 130.828693 52.827709 130.226037 52.225052 
C 129.623381 51.622396 128.805889 51.28378 127.953604 51.28378 
C 127.10132 51.28378 126.283828 51.622396 125.681172 52.225052 
C 125.078516 52.827709 124.739899 53.6452 124.739899 54.497485 
C 124.739899 55.34977 125.078516 56.167262 125.681172 56.769918 
C 126.283828 57.372574 127.10132 57.71119 127.953604 57.71119 
z
" clip-path="url(#p0c8eba0014)" style="fill: #dce3ea; stroke: #5e6975; stroke-width: 0.55; stroke-linejoin: miter"/>
   </g>
   <g id="patch_16">
    <path d="M 109.589575 49.753444 
C 110.441859 49.753444 111.259351 49.414828 111.862007 48.812172 
C 112.464664 48.209515 112.80328 47.392023 112.80328 46.539739 
C 112.80328 45.687454 112.464664 44.869962 111.862007 44.267306 
C 111.259351 43.66465 110.441859 43.326034 109.589575 43.326034 
C 108.73729 43.326034 107.919798 43.66465 107.317142 44.267306 
C 106.714486 44.869962 106.375869 45.687454 106.375869 46.539739 
C 106.375869 47.392023 106.714486 48.209515 107.317142 48.812172 
C 107.919798 49.414828 108.73729 49.753444 109.589575 49.753444 
z
" clip-path="url(#p0c8eba0014)" style="fill: #dce3ea; stroke: #5e6975; stroke-width: 0.55; stroke-linejoin: miter"/>
   </g>
   <g id="patch_17">
    <path d="M 116.935187 49.753444 
C 117.787471 49.753444 118.604963 49.414828 119.207619 48.812172 
C 119.810276 48.209515 120.148892 47.392023 120.148892 46.539739 
C 120.148892 45.687454 119.810276 44.869962 119.207619 44.267306 
C 118.604963 43.66465 117.787471 43.326034 116.935187 43.326034 
C 116.082902 43.326034 115.26541 43.66465 114.662754 44.267306 
C 114.060098 44.869962 113.721481 45.687454 113.721481 46.539739 
C 113.721481 47.392023 114.060098 48.209515 114.662754 48.812172 
C 115.26541 49.414828 116.082902 49.753444 116.935187 49.753444 
z
" clip-path="url(#p0c8eba0014)" style="fill: #dce3ea; stroke: #5e6975; stroke-width: 0.55; stroke-linejoin: miter"/>
   </g>
   <g id="patch_18">
    <path d="M 124.586866 49.447377 
C 125.43915 49.447377 126.256642 49.108761 126.859298 48.506104 
C 127.461955 47.903448 127.800571 47.085956 127.800571 46.233672 
C 127.800571 45.381387 127.461955 44.563895 126.859298 43.961239 
C 126.256642 43.358583 125.43915 43.019966 124.586866 43.019966 
C 123.734581 43.019966 122.917089 43.358583 122.314433 43.961239 
C 121.711777 44.563895 121.37316 45.381387 121.37316 46.233672 
C 121.37316 47.085956 121.711777 47.903448 122.314433 48.506104 
C 122.917089 49.108761 123.734581 49.447377 124.586866 49.447377 
z
" clip-path="url(#p0c8eba0014)" style="fill: #dce3ea; stroke: #5e6975; stroke-width: 0.55; stroke-linejoin: miter"/>
   </g>
   <g id="patch_19">
    <path d="M 106.528903 41.183563 
C 107.381188 41.183563 108.19868 40.844947 108.801336 40.242291 
C 109.403992 39.639635 109.742608 38.822143 109.742608 37.969858 
C 109.742608 37.117574 109.403992 36.300082 108.801336 35.697425 
C 108.19868 35.094769 107.381188 34.756153 106.528903 34.756153 
C 105.676618 34.756153 104.859126 35.094769 104.25647 35.697425 
C 103.653814 36.300082 103.315198 37.117574 103.315198 37.969858 
C 103.315198 38.822143 103.653814 39.639635 104.25647 40.242291 
C 104.859126 40.844947 105.676618 41.183563 106.528903 41.183563 
z
" clip-path="url(#p0c8eba0014)" style="fill: #dce3ea; stroke: #5e6975; stroke-width: 0.55; stroke-linejoin: miter"/>
   </g>
   <g id="patch_20">
    <path d="M 113.874515 41.183563 
C 114.7268 41.183563 115.544291 40.844947 116.146948 40.242291 
C 116.749604 39.639635 117.08822 38.822143 117.08822 37.969858 
C 117.08822 37.117574 116.749604 36.300082 116.146948 35.697425 
C 115.544291 35.094769 114.7268 34.756153 113.874515 34.756153 
C 113.02223 34.756153 112.204738 35.094769 111.602082 35.697425 
C 110.999426 36.300082 110.66081 37.117574 110.66081 37.969858 
C 110.66081 38.822143 110.999426 39.639635 111.602082 40.242291 
C 112.204738 40.844947 113.02223 41.183563 113.874515 41.183563 
z
" clip-path="url(#p0c8eba0014)" style="fill: #dce3ea; stroke: #5e6975; stroke-width: 0.55; stroke-linejoin: miter"/>
   </g>
   <g id="patch_21">
    <path d="M 121.220127 40.877496 
C 122.072411 40.877496 122.889903 40.53888 123.49256 39.936224 
C 124.095216 39.333568 124.433832 38.516076 124.433832 37.663791 
C 124.433832 36.811506 124.095216 35.994014 123.49256 35.391358 
C 122.889903 34.788702 122.072411 34.450086 121.220127 34.450086 
C 120.367842 34.450086 119.55035 34.788702 118.947694 35.391358 
C 118.345038 35.994014 118.006422 36.811506 118.006422 37.663791 
C 118.006422 38.516076 118.345038 39.333568 118.947694 39.936224 
C 119.55035 40.53888 120.367842 40.877496 121.220127 40.877496 
z
" clip-path="url(#p0c8eba0014)" style="fill: #dce3ea; stroke: #5e6975; stroke-width: 0.55; stroke-linejoin: miter"/>
   </g>
   <g id="patch_22">
    <path d="M 128.259672 41.183563 
C 129.111956 41.183563 129.929448 40.844947 130.532104 40.242291 
C 131.134761 39.639635 131.473377 38.822143 131.473377 37.969858 
C 131.473377 37.117574 131.134761 36.300082 130.532104 35.697425 
C 129.929448 35.094769 129.111956 34.756153 128.259672 34.756153 
C 127.407387 34.756153 126.589895 35.094769 125.987239 35.697425 
C 125.384583 36.300082 125.045966 37.117574 125.045966 37.969858 
C 125.045966 38.822143 125.384583 39.639635 125.987239 40.242291 
C 126.589895 40.844947 127.407387 41.183563 128.259672 41.183563 
z
" clip-path="url(#p0c8eba0014)" style="fill: #dce3ea; stroke: #5e6975; stroke-width: 0.55; stroke-linejoin: miter"/>
   </g>
   <g id="patch_23">
    <path d="M 191.309507 56.578742 
C 192.186143 56.578742 193.026992 56.230451 193.646867 55.610576 
C 194.266742 54.990701 194.615033 54.149852 194.615033 53.273216 
C 194.615033 52.396581 194.266742 51.555732 193.646867 50.935857 
C 193.026992 50.315982 192.186143 49.967691 191.309507 49.967691 
C 190.432872 49.967691 189.592023 50.315982 188.972148 50.935857 
C 188.352273 51.555732 188.003982 52.396581 188.003982 53.273216 
C 188.003982 54.149852 188.352273 54.990701 188.972148 55.610576 
C 189.592023 56.230451 190.432872 56.578742 191.309507 56.578742 
z
" clip-path="url(#p0c8eba0014)" style="fill: #f5f2ea; stroke: #222222; stroke-width: 0.55; stroke-linejoin: miter"/>
   </g>
   <g id="line2d_23">
    <path d="M 189.626138 53.273216 
L 192.992877 53.273216 
" clip-path="url(#p0c8eba0014)" style="fill: none; stroke: #a8364b; stroke-width: 0.45; stroke-linecap: square"/>
   </g>
   <g id="line2d_24">
    <path d="M 191.309507 54.956586 
L 191.309507 51.589847 
" clip-path="url(#p0c8eba0014)" style="fill: none; stroke: #3e75a8; stroke-width: 0.45; stroke-linecap: square"/>
   </g>
   <g id="patch_24">
    <path d="M 198.655119 56.578742 
C 199.531755 56.578742 200.372604 56.230451 200.992479 55.610576 
C 201.612354 54.990701 201.960645 54.149852 201.960645 53.273216 
C 201.960645 52.396581 201.612354 51.555732 200.992479 50.935857 
C 200.372604 50.315982 199.531755 49.967691 198.655119 49.967691 
C 197.778484 49.967691 196.937635 50.315982 196.31776 50.935857 
C 195.697885 51.555732 195.349594 52.396581 195.349594 53.273216 
C 195.349594 54.149852 195.697885 54.990701 196.31776 55.610576 
C 196.937635 56.230451 197.778484 56.578742 198.655119 56.578742 
z
" clip-path="url(#p0c8eba0014)" style="fill: #f5f2ea; stroke: #222222; stroke-width: 0.55; stroke-linejoin: miter"/>
   </g>
   <g id="line2d_25">
    <path d="M 196.97175 53.273216 
L 200.338489 53.273216 
" clip-path="url(#p0c8eba0014)" style="fill: none; stroke: #a8364b; stroke-width: 0.45; stroke-linecap: square"/>
   </g>
   <g id="line2d_26">
    <path d="M 198.655119 54.956586 
L 198.655119 51.589847 
" clip-path="url(#p0c8eba0014)" style="fill: none; stroke: #3e75a8; stroke-width: 0.45; stroke-linecap: square"/>
   </g>
   <g id="patch_25">
    <path d="M 206.000731 56.272675 
C 206.877367 56.272675 207.718216 55.924384 208.338091 55.304509 
C 208.957966 54.684634 209.306257 53.843785 209.306257 52.967149 
C 209.306257 52.090514 208.957966 51.249665 208.338091 50.62979 
C 207.718216 50.009915 206.877367 49.661624 206.000731 49.661624 
C 205.124096 49.661624 204.283247 50.009915 203.663372 50.62979 
C 203.043497 51.249665 202.695206 52.090514 202.695206 52.967149 
C 202.695206 53.843785 203.043497 54.684634 203.663372 55.304509 
C 204.283247 55.924384 205.124096 56.272675 206.000731 56.272675 
z
" clip-path="url(#p0c8eba0014)" style="fill: #f5f2ea; stroke: #222222; stroke-width: 0.55; stroke-linejoin: miter"/>
   </g>
   <g id="line2d_27">
    <path d="M 204.317362 52.967149 
L 207.684101 52.967149 
" clip-path="url(#p0c8eba0014)" style="fill: none; stroke: #a8364b; stroke-width: 0.45; stroke-linecap: square"/>
   </g>
   <g id="line2d_28">
    <path d="M 206.000731 54.650519 
L 206.000731 51.28378 
" clip-path="url(#p0c8eba0014)" style="fill: none; stroke: #3e75a8; stroke-width: 0.45; stroke-linecap: square"/>
   </g>
   <g id="patch_26">
    <path d="M 194.064112 48.314928 
C 194.940748 48.314928 195.781596 47.966637 196.401471 47.346762 
C 197.021346 46.726887 197.369637 45.886039 197.369637 45.009403 
C 197.369637 44.132767 197.021346 43.291919 196.401471 42.672044 
C 195.781596 42.052169 194.940748 41.703878 194.064112 41.703878 
C 193.187476 41.703878 192.346627 42.052169 191.726753 42.672044 
C 191.106878 43.291919 190.758587 44.132767 190.758587 45.009403 
C 190.758587 45.886039 191.106878 46.726887 191.726753 47.346762 
C 192.346627 47.966637 193.187476 48.314928 194.064112 48.314928 
z
" clip-path="url(#p0c8eba0014)" style="fill: #f5f2ea; stroke: #222222; stroke-width: 0.55; stroke-linejoin: miter"/>
   </g>
   <g id="line2d_29">
    <path d="M 192.380743 45.009403 
L 195.747481 45.009403 
" clip-path="url(#p0c8eba0014)" style="fill: none; stroke: #a8364b; stroke-width: 0.45; stroke-linecap: square"/>
   </g>
   <g id="line2d_30">
    <path d="M 194.064112 46.692772 
L 194.064112 43.326034 
" clip-path="url(#p0c8eba0014)" style="fill: none; stroke: #3e75a8; stroke-width: 0.45; stroke-linecap: square"/>
   </g>
   <g id="patch_27">
    <path d="M 201.715791 48.314928 
C 202.592427 48.314928 203.433275 47.966637 204.05315 47.346762 
C 204.673025 46.726887 205.021316 45.886039 205.021316 45.009403 
C 205.021316 44.132767 204.673025 43.291919 204.05315 42.672044 
C 203.433275 42.052169 202.592427 41.703878 201.715791 41.703878 
C 200.839155 41.703878 199.998307 42.052169 199.378432 42.672044 
C 198.758557 43.291919 198.410266 44.132767 198.410266 45.009403 
C 198.410266 45.886039 198.758557 46.726887 199.378432 47.346762 
C 199.998307 47.966637 200.839155 48.314928 201.715791 48.314928 
z
" clip-path="url(#p0c8eba0014)" style="fill: #f5f2ea; stroke: #222222; stroke-width: 0.55; stroke-linejoin: miter"/>
   </g>
   <g id="line2d_31">
    <path d="M 200.032422 45.009403 
L 203.39916 45.009403 
" clip-path="url(#p0c8eba0014)" style="fill: none; stroke: #a8364b; stroke-width: 0.45; stroke-linecap: square"/>
   </g>
   <g id="line2d_32">
    <path d="M 201.715791 46.692772 
L 201.715791 43.326034 
" clip-path="url(#p0c8eba0014)" style="fill: none; stroke: #3e75a8; stroke-width: 0.45; stroke-linecap: square"/>
   </g>
   <g id="patch_28">
    <path d="M 209.673537 48.314928 
C 210.550173 48.314928 211.391022 47.966637 212.010897 47.346762 
C 212.630772 46.726887 212.979063 45.886039 212.979063 45.009403 
C 212.979063 44.132767 212.630772 43.291919 212.010897 42.672044 
C 211.391022 42.052169 210.550173 41.703878 209.673537 41.703878 
C 208.796902 41.703878 207.956053 42.052169 207.336178 42.672044 
C 206.716303 43.291919 206.368012 44.132767 206.368012 45.009403 
C 206.368012 45.886039 206.716303 46.726887 207.336178 47.346762 
C 207.956053 47.966637 208.796902 48.314928 209.673537 48.314928 
z
" clip-path="url(#p0c8eba0014)" style="fill: #f5f2ea; stroke: #222222; stroke-width: 0.55; stroke-linejoin: miter"/>
   </g>
   <g id="line2d_33">
    <path d="M 207.990168 45.009403 
L 211.356907 45.009403 
" clip-path="url(#p0c8eba0014)" style="fill: none; stroke: #a8364b; stroke-width: 0.45; stroke-linecap: square"/>
   </g>
   <g id="line2d_34">
    <path d="M 209.673537 46.692772 
L 209.673537 43.326034 
" clip-path="url(#p0c8eba0014)" style="fill: none; stroke: #3e75a8; stroke-width: 0.45; stroke-linecap: square"/>
   </g>
   <g id="patch_29">
    <path d="M 191.309507 39.438981 
C 192.186143 39.438981 193.026992 39.09069 193.646867 38.470815 
C 194.266742 37.85094 194.615033 37.010091 194.615033 36.133455 
C 194.615033 35.25682 194.266742 34.415971 193.646867 33.796096 
C 193.026992 33.176221 192.186143 32.82793 191.309507 32.82793 
C 190.432872 32.82793 189.592023 33.176221 188.972148 33.796096 
C 188.352273 34.415971 188.003982 35.25682 188.003982 36.133455 
C 188.003982 37.010091 188.352273 37.85094 188.972148 38.470815 
C 189.592023 39.09069 190.432872 39.438981 191.309507 39.438981 
z
" clip-path="url(#p0c8eba0014)" style="fill: #f5f2ea; stroke: #222222; stroke-width: 0.55; stroke-linejoin: miter"/>
   </g>
   <g id="line2d_35">
    <path d="M 189.626138 36.133455 
L 192.992877 36.133455 
" clip-path="url(#p0c8eba0014)" style="fill: none; stroke: #a8364b; stroke-width: 0.45; stroke-linecap: square"/>
   </g>
   <g id="line2d_36">
    <path d="M 191.309507 37.816825 
L 191.309507 34.450086 
" clip-path="url(#p0c8eba0014)" style="fill: none; stroke: #3e75a8; stroke-width: 0.45; stroke-linecap: square"/>
   </g>
   <g id="patch_30">
    <path d="M 198.655119 39.132913 
C 199.531755 39.132913 200.372604 38.784622 200.992479 38.164747 
C 201.612354 37.544873 201.960645 36.704024 201.960645 35.827388 
C 201.960645 34.950752 201.612354 34.109904 200.992479 33.490029 
C 200.372604 32.870154 199.531755 32.521863 198.655119 32.521863 
C 197.778484 32.521863 196.937635 32.870154 196.31776 33.490029 
C 195.697885 34.109904 195.349594 34.950752 195.349594 35.827388 
C 195.349594 36.704024 195.697885 37.544873 196.31776 38.164747 
C 196.937635 38.784622 197.778484 39.132913 198.655119 39.132913 
z
" clip-path="url(#p0c8eba0014)" style="fill: #f5f2ea; stroke: #222222; stroke-width: 0.55; stroke-linejoin: miter"/>
   </g>
   <g id="line2d_37">
    <path d="M 196.97175 35.827388 
L 200.338489 35.827388 
" clip-path="url(#p0c8eba0014)" style="fill: none; stroke: #a8364b; stroke-width: 0.45; stroke-linecap: square"/>
   </g>
   <g id="line2d_38">
    <path d="M 198.655119 37.510757 
L 198.655119 34.144019 
" clip-path="url(#p0c8eba0014)" style="fill: none; stroke: #3e75a8; stroke-width: 0.45; stroke-linecap: square"/>
   </g>
   <g id="patch_31">
    <path d="M 206.612866 39.132913 
C 207.489501 39.132913 208.33035 38.784622 208.950225 38.164747 
C 209.5701 37.544873 209.918391 36.704024 209.918391 35.827388 
C 209.918391 34.950752 209.5701 34.109904 208.950225 33.490029 
C 208.33035 32.870154 207.489501 32.521863 206.612866 32.521863 
C 205.73623 32.521863 204.895381 32.870154 204.275506 33.490029 
C 203.655631 34.109904 203.30734 34.950752 203.30734 35.827388 
C 203.30734 36.704024 203.655631 37.544873 204.275506 38.164747 
C 204.895381 38.784622 205.73623 39.132913 206.612866 39.132913 
z
" clip-path="url(#p0c8eba0014)" style="fill: #f5f2ea; stroke: #222222; stroke-width: 0.55; stroke-linejoin: miter"/>
   </g>
   <g id="line2d_39">
    <path d="M 204.929496 35.827388 
L 208.296235 35.827388 
" clip-path="url(#p0c8eba0014)" style="fill: none; stroke: #a8364b; stroke-width: 0.45; stroke-linecap: square"/>
   </g>
   <g id="line2d_40">
    <path d="M 206.612866 37.510757 
L 206.612866 34.144019 
" clip-path="url(#p0c8eba0014)" style="fill: none; stroke: #3e75a8; stroke-width: 0.45; stroke-linecap: square"/>
   </g>
   <g id="patch_32">
    <path d="M 275.477978 56.578742 
C 276.354613 56.578742 277.195462 56.230451 277.815337 55.610576 
C 278.435212 54.990701 278.783503 54.149852 278.783503 53.273216 
C 278.783503 52.396581 278.435212 51.555732 277.815337 50.935857 
C 277.195462 50.315982 276.354613 49.967691 275.477978 49.967691 
C 274.601342 49.967691 273.760493 50.315982 273.140618 50.935857 
C 272.520743 51.555732 272.172452 52.396581 272.172452 53.273216 
C 272.172452 54.149852 272.520743 54.990701 273.140618 55.610576 
C 273.760493 56.230451 274.601342 56.578742 275.477978 56.578742 
z
" clip-path="url(#p0c8eba0014)" style="fill: #f5f2ea; stroke: #222222; stroke-width: 0.55; stroke-linejoin: miter"/>
   </g>
   <g id="patch_33">
    <path d="M 282.82359 56.578742 
C 283.700225 56.578742 284.541074 56.230451 285.160949 55.610576 
C 285.780824 54.990701 286.129115 54.149852 286.129115 53.273216 
C 286.129115 52.396581 285.780824 51.555732 285.160949 50.935857 
C 284.541074 50.315982 283.700225 49.967691 282.82359 49.967691 
C 281.946954 49.967691 281.106105 50.315982 280.48623 50.935857 
C 279.866355 51.555732 279.518064 52.396581 279.518064 53.273216 
C 279.518064 54.149852 279.866355 54.990701 280.48623 55.610576 
C 281.106105 56.230451 281.946954 56.578742 282.82359 56.578742 
z
" clip-path="url(#p0c8eba0014)" style="fill: #f5f2ea; stroke: #222222; stroke-width: 0.55; stroke-linejoin: miter"/>
   </g>
   <g id="patch_34">
    <path d="M 290.169201 56.272675 
C 291.045837 56.272675 291.886686 55.924384 292.506561 55.304509 
C 293.126436 54.684634 293.474727 53.843785 293.474727 52.967149 
C 293.474727 52.090514 293.126436 51.249665 292.506561 50.62979 
C 291.886686 50.009915 291.045837 49.661624 290.169201 49.661624 
C 289.292566 49.661624 288.451717 50.009915 287.831842 50.62979 
C 287.211967 51.249665 286.863676 52.090514 286.863676 52.967149 
C 286.863676 53.843785 287.211967 54.684634 287.831842 55.304509 
C 288.451717 55.924384 289.292566 56.272675 290.169201 56.272675 
z
" clip-path="url(#p0c8eba0014)" style="fill: #f5f2ea; stroke: #222222; stroke-width: 0.55; stroke-linejoin: miter"/>
   </g>
   <g id="patch_35">
    <path d="M 278.232582 48.314928 
C 279.109218 48.314928 279.950067 47.966637 280.569941 47.346762 
C 281.189816 46.726887 281.538107 45.886039 281.538107 45.009403 
C 281.538107 44.132767 281.189816 43.291919 280.569941 42.672044 
C 279.950067 42.052169 279.109218 41.703878 278.232582 41.703878 
C 277.355947 41.703878 276.515098 42.052169 275.895223 42.672044 
C 275.275348 43.291919 274.927057 44.132767 274.927057 45.009403 
C 274.927057 45.886039 275.275348 46.726887 275.895223 47.346762 
C 276.515098 47.966637 277.355947 48.314928 278.232582 48.314928 
z
" clip-path="url(#p0c8eba0014)" style="fill: #f5f2ea; stroke: #222222; stroke-width: 0.55; stroke-linejoin: miter"/>
   </g>
   <g id="patch_36">
    <path d="M 285.884261 48.314928 
C 286.760897 48.314928 287.601746 47.966637 288.221621 47.346762 
C 288.841496 46.726887 289.189787 45.886039 289.189787 45.009403 
C 289.189787 44.132767 288.841496 43.291919 288.221621 42.672044 
C 287.601746 42.052169 286.760897 41.703878 285.884261 41.703878 
C 285.007626 41.703878 284.166777 42.052169 283.546902 42.672044 
C 282.927027 43.291919 282.578736 44.132767 282.578736 45.009403 
C 282.578736 45.886039 282.927027 46.726887 283.546902 47.346762 
C 284.166777 47.966637 285.007626 48.314928 285.884261 48.314928 
z
" clip-path="url(#p0c8eba0014)" style="fill: #f5f2ea; stroke: #222222; stroke-width: 0.55; stroke-linejoin: miter"/>
   </g>
   <g id="patch_37">
    <path d="M 293.842007 48.314928 
C 294.718643 48.314928 295.559492 47.966637 296.179367 47.346762 
C 296.799242 46.726887 297.147533 45.886039 297.147533 45.009403 
C 297.147533 44.132767 296.799242 43.291919 296.179367 42.672044 
C 295.559492 42.052169 294.718643 41.703878 293.842007 41.703878 
C 292.965372 41.703878 292.124523 42.052169 291.504648 42.672044 
C 290.884773 43.291919 290.536482 44.132767 290.536482 45.009403 
C 290.536482 45.886039 290.884773 46.726887 291.504648 47.346762 
C 292.124523 47.966637 292.965372 48.314928 293.842007 48.314928 
z
" clip-path="url(#p0c8eba0014)" style="fill: #f5f2ea; stroke: #222222; stroke-width: 0.55; stroke-linejoin: miter"/>
   </g>
   <g id="patch_38">
    <path d="M 275.477978 39.438981 
C 276.354613 39.438981 277.195462 39.09069 277.815337 38.470815 
C 278.435212 37.85094 278.783503 37.010091 278.783503 36.133455 
C 278.783503 35.25682 278.435212 34.415971 277.815337 33.796096 
C 277.195462 33.176221 276.354613 32.82793 275.477978 32.82793 
C 274.601342 32.82793 273.760493 33.176221 273.140618 33.796096 
C 272.520743 34.415971 272.172452 35.25682 272.172452 36.133455 
C 272.172452 37.010091 272.520743 37.85094 273.140618 38.470815 
C 273.760493 39.09069 274.601342 39.438981 275.477978 39.438981 
z
" clip-path="url(#p0c8eba0014)" style="fill: #f5f2ea; stroke: #222222; stroke-width: 0.55; stroke-linejoin: miter"/>
   </g>
   <g id="patch_39">
    <path d="M 282.82359 39.132913 
C 283.700225 39.132913 284.541074 38.784622 285.160949 38.164747 
C 285.780824 37.544873 286.129115 36.704024 286.129115 35.827388 
C 286.129115 34.950752 285.780824 34.109904 285.160949 33.490029 
C 284.541074 32.870154 283.700225 32.521863 282.82359 32.521863 
C 281.946954 32.521863 281.106105 32.870154 280.48623 33.490029 
C 279.866355 34.109904 279.518064 34.950752 279.518064 35.827388 
C 279.518064 36.704024 279.866355 37.544873 280.48623 38.164747 
C 281.106105 38.784622 281.946954 39.132913 282.82359 39.132913 
z
" clip-path="url(#p0c8eba0014)" style="fill: #f5f2ea; stroke: #a8364b; stroke-width: 1.25; stroke-linejoin: miter"/>
   </g>
   <g id="line2d_41">
    <path d="M 281.14022 34.235839 
L 284.415139 37.418937 
" clip-path="url(#p0c8eba0014)" style="fill: none; stroke: #a8364b; stroke-width: 0.9; stroke-linecap: square"/>
   </g>
   <g id="line2d_42">
    <path d="M 281.446287 37.418937 
L 284.598779 34.358266 
" clip-path="url(#p0c8eba0014)" style="fill: none; stroke: #a8364b; stroke-width: 0.75; stroke-linecap: square"/>
   </g>
   <g id="patch_40">
    <path d="M 290.781336 39.132913 
C 291.657971 39.132913 292.49882 38.784622 293.118695 38.164747 
C 293.73857 37.544873 294.086861 36.704024 294.086861 35.827388 
C 294.086861 34.950752 293.73857 34.109904 293.118695 33.490029 
C 292.49882 32.870154 291.657971 32.521863 290.781336 32.521863 
C 289.9047 32.521863 289.063851 32.870154 288.443976 33.490029 
C 287.824101 34.109904 287.47581 34.950752 287.47581 35.827388 
C 287.47581 36.704024 287.824101 37.544873 288.443976 38.164747 
C 289.063851 38.784622 289.9047 39.132913 290.781336 39.132913 
z
" clip-path="url(#p0c8eba0014)" style="fill: #f5f2ea; stroke: #a8364b; stroke-width: 1.25; stroke-linejoin: miter"/>
   </g>
   <g id="line2d_43">
    <path d="M 289.097966 34.235839 
L 292.372885 37.418937 
" clip-path="url(#p0c8eba0014)" style="fill: none; stroke: #a8364b; stroke-width: 0.9; stroke-linecap: square"/>
   </g>
   <g id="line2d_44">
    <path d="M 289.404034 37.418937 
L 292.556525 34.358266 
" clip-path="url(#p0c8eba0014)" style="fill: none; stroke: #a8364b; stroke-width: 0.75; stroke-linecap: square"/>
   </g>
   <g id="line2d_45">
    <path d="M 354.137239 56.333888 
L 386.274291 56.333888 
" clip-path="url(#p0c8eba0014)" style="fill: none; stroke: #222222; stroke-width: 0.8; stroke-linecap: square"/>
   </g>
   <g id="line2d_46">
    <path d="M 354.137239 56.333888 
L 354.137239 23.584701 
" clip-path="url(#p0c8eba0014)" style="fill: none; stroke: #222222; stroke-width: 0.8; stroke-linecap: square"/>
   </g>
   <g id="line2d_47">
    <path d="M 358.728246 56.333888 
L 358.728246 57.864224 
" clip-path="url(#p0c8eba0014)" style="fill: none; stroke: #222222; stroke-width: 0.45; stroke-linecap: square"/>
   </g>
   <g id="line2d_48">
    <path d="M 365.767791 56.333888 
L 365.767791 57.864224 
" clip-path="url(#p0c8eba0014)" style="fill: none; stroke: #222222; stroke-width: 0.45; stroke-linecap: square"/>
   </g>
   <g id="line2d_49">
    <path d="M 372.501269 56.333888 
L 372.501269 57.864224 
" clip-path="url(#p0c8eba0014)" style="fill: none; stroke: #222222; stroke-width: 0.45; stroke-linecap: square"/>
   </g>
   <g id="line2d_50">
    <path d="M 379.234746 56.333888 
L 379.234746 57.864224 
" clip-path="url(#p0c8eba0014)" style="fill: none; stroke: #222222; stroke-width: 0.45; stroke-linecap: square"/>
   </g>
   <g id="line2d_51">
    <path d="M 383.825754 56.333888 
L 383.825754 57.864224 
" clip-path="url(#p0c8eba0014)" style="fill: none; stroke: #222222; stroke-width: 0.45; stroke-linecap: square"/>
   </g>
   <g id="line2d_52">
    <path d="M 354.137239 48.070075 
L 352.606903 48.070075 
" clip-path="url(#p0c8eba0014)" style="fill: none; stroke: #222222; stroke-width: 0.45; stroke-linecap: square"/>
   </g>
   <g id="line2d_53">
    <path d="M 354.137239 37.969858 
L 352.606903 37.969858 
" clip-path="url(#p0c8eba0014)" style="fill: none; stroke: #222222; stroke-width: 0.45; stroke-linecap: square"/>
   </g>
   <g id="line2d_54">
    <path d="M 354.137239 28.175709 
L 352.606903 28.175709 
" clip-path="url(#p0c8eba0014)" style="fill: none; stroke: #222222; stroke-width: 0.45; stroke-linecap: square"/>
   </g>
   <g id="text_1">
    <text style="fill: #222222; font: 700 8.8px 'Arial', 'Helvetica', 'DejaVu Sans', sans-serif; text-anchor: start" x="7.363142" y="10.601345" transform="rotate(-0 7.363142 10.601345)">a</text>
   </g>
   <g id="text_2">
    <text style="fill: #3e75a8; font: 700 6.4px 'Arial', 'Helvetica', 'DejaVu Sans', sans-serif; text-anchor: middle" x="31.236381" y="13.613149" transform="rotate(-0 31.236381 13.613149)">template</text>
   </g>
   <g id="patch_41">
    <path d="M 21.442231 31.328201 
C 21.953602 31.328201 22.444097 31.125031 22.805691 30.763437 
C 23.167285 30.401844 23.370454 29.911348 23.370454 29.399978 
C 23.370454 28.888607 23.167285 28.398112 22.805691 28.036518 
C 22.444097 27.674924 21.953602 27.471754 21.442231 27.471754 
C 20.930861 27.471754 20.440365 27.674924 20.078772 28.036518 
C 19.717178 28.398112 19.514008 28.888607 19.514008 29.399978 
C 19.514008 29.911348 19.717178 30.401844 20.078772 30.763437 
C 20.440365 31.125031 20.930861 31.328201 21.442231 31.328201 
z
" clip-path="url(#p0c8eba0014)" style="fill: #3e75a8; stroke: #ffffff; stroke-width: 0.35; stroke-linejoin: miter"/>
   </g>
   <g id="patch_42">
    <path d="M 25.115037 38.061678 
C 25.626408 38.061678 26.116903 37.858509 26.478497 37.496915 
C 26.840091 37.135321 27.04326 36.644826 27.04326 36.133455 
C 27.04326 35.622084 26.840091 35.131589 26.478497 34.769996 
C 26.116903 34.408402 25.626408 34.205232 25.115037 34.205232 
C 24.603667 34.205232 24.113171 34.408402 23.751578 34.769996 
C 23.389984 35.131589 23.186814 35.622084 23.186814 36.133455 
C 23.186814 36.644826 23.389984 37.135321 23.751578 37.496915 
C 24.113171 37.858509 24.603667 38.061678 25.115037 38.061678 
z
" clip-path="url(#p0c8eba0014)" style="fill: #3e75a8; stroke: #ffffff; stroke-width: 0.35; stroke-linejoin: miter"/>
   </g>
   <g id="patch_43">
    <path d="M 28.175709 27.04326 
C 28.68708 27.04326 29.177575 26.840091 29.539169 26.478497 
C 29.900762 26.116903 30.103932 25.626408 30.103932 25.115037 
C 30.103932 24.603667 29.900762 24.113171 29.539169 23.751578 
C 29.177575 23.389984 28.68708 23.186814 28.175709 23.186814 
C 27.664338 23.186814 27.173843 23.389984 26.812249 23.751578 
C 26.450656 24.113171 26.247486 24.603667 26.247486 25.115037 
C 26.247486 25.626408 26.450656 26.116903 26.812249 26.478497 
C 27.173843 26.840091 27.664338 27.04326 28.175709 27.04326 
z
" clip-path="url(#p0c8eba0014)" style="fill: #3e75a8; stroke: #ffffff; stroke-width: 0.35; stroke-linejoin: miter"/>
   </g>
   <g id="patch_44">
    <path d="M 31.848515 34.388872 
C 32.359886 34.388872 32.850381 34.185703 33.211975 33.824109 
C 33.573568 33.462515 33.776738 32.97202 33.776738 32.460649 
C 33.776738 31.949279 33.573568 31.458783 33.211975 31.09719 
C 32.850381 30.735596 32.359886 30.532426 31.848515 30.532426 
C 31.337144 30.532426 30.846649 30.735596 30.485055 31.09719 
C 30.123462 31.458783 29.920292 31.949279 29.920292 32.460649 
C 29.920292 32.97202 30.123462 33.462515 30.485055 33.824109 
C 30.846649 34.185703 31.337144 34.388872 31.848515 34.388872 
z
" clip-path="url(#p0c8eba0014)" style="fill: #d1743f; stroke: #ffffff; stroke-width: 0.35; stroke-linejoin: miter"/>
   </g>
   <g id="patch_45">
    <path d="M 35.521321 25.818992 
C 36.032692 25.818992 36.523187 25.615822 36.884781 25.254228 
C 37.246374 24.892635 37.449544 24.402139 37.449544 23.890769 
C 37.449544 23.379398 37.246374 22.888903 36.884781 22.527309 
C 36.523187 22.165715 36.032692 21.962546 35.521321 21.962546 
C 35.00995 21.962546 34.519455 22.165715 34.157861 22.527309 
C 33.796268 22.888903 33.593098 23.379398 33.593098 23.890769 
C 33.593098 24.402139 33.796268 24.892635 34.157861 25.254228 
C 34.519455 25.615822 35.00995 25.818992 35.521321 25.818992 
z
" clip-path="url(#p0c8eba0014)" style="fill: #d1743f; stroke: #ffffff; stroke-width: 0.35; stroke-linejoin: miter"/>
   </g>
   <g id="patch_46">
    <path d="M 38.581993 33.470671 
C 39.093363 33.470671 39.583858 33.267501 39.945452 32.905907 
C 40.307046 32.544314 40.510216 32.053819 40.510216 31.542448 
C 40.510216 31.031077 40.307046 30.540582 39.945452 30.178988 
C 39.583858 29.817394 39.093363 29.614225 38.581993 29.614225 
C 38.070622 29.614225 37.580127 29.817394 37.218533 30.178988 
C 36.856939 30.540582 36.653769 31.031077 36.653769 31.542448 
C 36.653769 32.053819 36.856939 32.544314 37.218533 32.905907 
C 37.580127 33.267501 38.070622 33.470671 38.581993 33.470671 
z
" clip-path="url(#p0c8eba0014)" style="fill: #d1743f; stroke: #ffffff; stroke-width: 0.35; stroke-linejoin: miter"/>
   </g>
   <g id="patch_47">
    <path d="M 41.642664 39.592014 
C 42.154035 39.592014 42.64453 39.388844 43.006124 39.027251 
C 43.367718 38.665657 43.570887 38.175162 43.570887 37.663791 
C 43.570887 37.15242 43.367718 36.661925 43.006124 36.300331 
C 42.64453 35.938738 42.154035 35.735568 41.642664 35.735568 
C 41.131293 35.735568 40.640798 35.938738 40.279205 36.300331 
C 39.917611 36.661925 39.714441 37.15242 39.714441 37.663791 
C 39.714441 38.175162 39.917611 38.665657 40.279205 39.027251 
C 40.640798 39.388844 41.131293 39.592014 41.642664 39.592014 
z
" clip-path="url(#p0c8eba0014)" style="fill: #d1743f; stroke: #ffffff; stroke-width: 0.35; stroke-linejoin: miter"/>
   </g>
   <g id="patch_48">
    <path d="M 20.217963 41.734484 
C 20.729333 41.734484 21.219829 41.531315 21.581422 41.169721 
C 21.943016 40.808127 22.146186 40.317632 22.146186 39.806261 
C 22.146186 39.29489 21.943016 38.804395 21.581422 38.442802 
C 21.219829 38.081208 20.729333 37.878038 20.217963 37.878038 
C 19.706592 37.878038 19.216097 38.081208 18.854503 38.442802 
C 18.492909 38.804395 18.28974 39.29489 18.28974 39.806261 
C 18.28974 40.317632 18.492909 40.808127 18.854503 41.169721 
C 19.216097 41.531315 19.706592 41.734484 20.217963 41.734484 
z
" clip-path="url(#p0c8eba0014)" style="fill: #3e75a8; stroke: #ffffff; stroke-width: 0.35; stroke-linejoin: miter"/>
   </g>
   <g id="patch_49">
    <path d="M 29.706045 43.570887 
C 30.217416 43.570887 30.707911 43.367718 31.069504 43.006124 
C 31.431098 42.64453 31.634268 42.154035 31.634268 41.642664 
C 31.634268 41.131293 31.431098 40.640798 31.069504 40.279205 
C 30.707911 39.917611 30.217416 39.714441 29.706045 39.714441 
C 29.194674 39.714441 28.704179 39.917611 28.342585 40.279205 
C 27.980991 40.640798 27.777822 41.131293 27.777822 41.642664 
C 27.777822 42.154035 27.980991 42.64453 28.342585 43.006124 
C 28.704179 43.367718 29.194674 43.570887 29.706045 43.570887 
z
" clip-path="url(#p0c8eba0014)" style="fill: #3e75a8; stroke: #ffffff; stroke-width: 0.35; stroke-linejoin: miter"/>
   </g>
   <g id="patch_50">
    <path d="M 36.74559 45.40729 
C 37.25696 45.40729 37.747455 45.204121 38.109049 44.842527 
C 38.470643 44.480933 38.673813 43.990438 38.673813 43.479067 
C 38.673813 42.967696 38.470643 42.477201 38.109049 42.115608 
C 37.747455 41.754014 37.25696 41.550844 36.74559 41.550844 
C 36.234219 41.550844 35.743724 41.754014 35.38213 42.115608 
C 35.020536 42.477201 34.817366 42.967696 34.817366 43.479067 
C 34.817366 43.990438 35.020536 44.480933 35.38213 44.842527 
C 35.743724 45.204121 36.234219 45.40729 36.74559 45.40729 
z
" clip-path="url(#p0c8eba0014)" style="fill: #d1743f; stroke: #ffffff; stroke-width: 0.35; stroke-linejoin: miter"/>
   </g>
   <g id="patch_51">
    <path d="M 31.236381 20.309783 
C 31.747751 20.309783 32.238247 20.106613 32.59984 19.745019 
C 32.961434 19.383426 33.164604 18.89293 33.164604 18.38156 
C 33.164604 17.870189 32.961434 17.379694 32.59984 17.0181 
C 32.238247 16.656506 31.747751 16.453337 31.236381 16.453337 
C 30.72501 16.453337 30.234515 16.656506 29.872921 17.0181 
C 29.511327 17.379694 29.308157 17.870189 29.308157 18.38156 
C 29.308157 18.89293 29.511327 19.383426 29.872921 19.745019 
C 30.234515 20.106613 30.72501 20.309783 31.236381 20.309783 
z
" clip-path="url(#p0c8eba0014)" style="fill: #d1743f; stroke: #ffffff; stroke-width: 0.35; stroke-linejoin: miter"/>
   </g>
   <g id="text_3">
    <text style="fill: #a8364b; font: 5.6px 'Arial', 'Helvetica', 'DejaVu Sans', sans-serif" transform="translate(39.391354 19.928394)">weak</text>
    <text style="fill: #a8364b; font: 5.6px 'Arial', 'Helvetica', 'DejaVu Sans', sans-serif" transform="translate(39.077229 25.851444)">plane</text>
   </g>
   <g id="text_4">
    <text style="fill: #222222; font: 6.1px 'Arial', 'Helvetica', 'DejaVu Sans', sans-serif" transform="translate(15.124279 70.600379)">500 bonded</text>
    <text style="fill: #222222; font: 6.1px 'Arial', 'Helvetica', 'DejaVu Sans', sans-serif" transform="translate(14.962724 77.052273)">subparticles</text>
   </g>
   <g id="text_5">
    <text style="fill: #222222; font: 700 8.8px 'Arial', 'Helvetica', 'DejaVu Sans', sans-serif; text-anchor: start" x="93.061948" y="10.601345" transform="rotate(-0 93.061948 10.601345)">b</text>
   </g>
   <g id="text_6">
    <text style="fill: #66717e; font: 700 6.4px 'Arial', 'Helvetica', 'DejaVu Sans', sans-serif; text-anchor: middle" x="116.935187" y="13.571149" transform="rotate(-0 116.935187 13.571149)">packing</text>
   </g>
   <g id="text_7">
    <text style="fill: #222222; font: 6.3px 'Arial', 'Helvetica', 'DejaVu Sans', sans-serif; text-anchor: start" x="127.035403" y="20.585428" transform="rotate(-0 127.035403 20.585428)">gravity</text>
   </g>
   <g id="text_8">
    <text style="fill: #222222; font: 6.1px 'Arial', 'Helvetica', 'DejaVu Sans', sans-serif" transform="translate(97.951319 70.528895)">gravity-settled</text>
    <text style="fill: #222222; font: 6.1px 'Arial', 'Helvetica', 'DejaVu Sans', sans-serif" transform="translate(98.628991 77.052273)">proxy centres</text>
   </g>
   <g id="text_9">
    <text style="fill: #222222; font: 700 8.8px 'Arial', 'Helvetica', 'DejaVu Sans', sans-serif; text-anchor: start" x="177.230418" y="10.601345" transform="rotate(-0 177.230418 10.601345)">c</text>
   </g>
   <g id="text_10">
    <text style="fill: #2d7f7a; font: 700 6.4px 'Arial', 'Helvetica', 'DejaVu Sans', sans-serif; text-anchor: middle" x="201.103657" y="13.610149" transform="rotate(-0 201.103657 13.610149)">transfer gate</text>
   </g>
   <g id="text_11">
    <text style="fill: #2d7f7a; font: 6.3px 'Arial', 'Helvetica', 'DejaVu Sans', sans-serif; text-anchor: middle" x="201.715791" y="20.622342" transform="rotate(-0 201.715791 20.622342)">locked insertion</text>
   </g>
   <g id="text_12">
    <text style="fill: #222222; font: 6.1px 'Arial', 'Helvetica', 'DejaVu Sans', sans-serif" transform="translate(176.184204 70.600379)">intact replacement</text>
    <text style="fill: #222222; font: 6.1px 'Arial', 'Helvetica', 'DejaVu Sans', sans-serif" transform="translate(180.923141 77.052273)">493,500 bonds</text>
   </g>
   <g id="text_13">
    <text style="fill: #222222; font: 700 8.8px 'Arial', 'Helvetica', 'DejaVu Sans', sans-serif; text-anchor: start" x="261.398888" y="10.601345" transform="rotate(-0 261.398888 10.601345)">d</text>
   </g>
   <g id="text_14">
    <text style="fill: #a8364b; font: 700 6.4px 'Arial', 'Helvetica', 'DejaVu Sans', sans-serif; text-anchor: middle" x="285.272127" y="13.571149" transform="rotate(-0 285.272127 13.571149)">load-path gate</text>
   </g>
   <g id="text_15">
    <text style="fill: #a8364b; font: 6.5px 'Arial', 'Helvetica', 'DejaVu Sans', sans-serif; text-anchor: middle" x="285.272127" y="20.674046" transform="rotate(-0 285.272127 20.674046)">compression</text>
   </g>
   <g id="text_16">
    <text style="fill: #222222; font: 6.1px 'Arial', 'Helvetica', 'DejaVu Sans', sans-serif" transform="translate(265.774525 70.528895)">bond loss only</text>
    <text style="fill: #222222; font: 6.1px 'Arial', 'Helvetica', 'DejaVu Sans', sans-serif" transform="translate(266.111455 77.052273)">during loading</text>
   </g>
   <g id="text_17">
    <text style="fill: #222222; font: 700 8.8px 'Arial', 'Helvetica', 'DejaVu Sans', sans-serif; text-anchor: start" x="345.567358" y="10.601345" transform="rotate(-0 345.567358 10.601345)">e</text>
   </g>
   <g id="text_18">
    <text style="fill: #a8364b; font: 700 6.4px 'Arial', 'Helvetica', 'DejaVu Sans', sans-serif; text-anchor: middle" x="369.440597" y="13.613149" transform="rotate(-0 369.440597 13.613149)">event database</text>
   </g>
   <g id="text_19">
    <text style="fill: #66717e; font: 6px 'Arial', 'Helvetica', 'DejaVu Sans', sans-serif; text-anchor: middle" x="370.052731" y="20.544788" transform="rotate(-0 370.052731 20.544788)">step -&gt; displacement</text>
   </g>
   <g id="text_20">
    <text style="fill: #66717e; font: 6.6px 'Arial', 'Helvetica', 'DejaVu Sans', sans-serif" transform="translate(343.744521 51.730605) rotate(-90)">damage</text>
    <text style="fill: #66717e; font: 6.6px 'Arial', 'Helvetica', 'DejaVu Sans', sans-serif" transform="translate(350.802602 46.225277) rotate(-90)">rank</text>
   </g>
   <g id="text_21">
    <text style="fill: #222222; font: 6.1px 'Arial', 'Helvetica', 'DejaVu Sans', sans-serif" transform="translate(347.401011 70.528895)">assign events to</text>
    <text style="fill: #222222; font: 6.1px 'Arial', 'Helvetica', 'DejaVu Sans', sans-serif" transform="translate(349.345863 77.052273)">id + bed height</text>
   </g>
   <g id="line2d_55">
    <path d="M 31.236381 49.60041 
L 31.236381 16.545157 
" clip-path="url(#p0c8eba0014)" style="fill: none; stroke-dasharray: 3.3,2.2; stroke-dashoffset: 0; stroke: #a8364b; stroke-width: 1.1"/>
   </g>
   <g id="patch_52">
    <path d="M 56.639955 39.806261 
Q 73.626683 39.806261 89.495376 39.806261 
" style="fill: none; stroke: #7a8188; stroke-linecap: round"/>
    <path d="M 85.495376 37.806261 
L 89.495376 39.806261 
L 85.495376 41.806261 
z
" style="fill: #7a8188; stroke: #7a8188; stroke-linecap: round"/>
   </g>
   <g id="patch_53">
    <path d="M 142.338761 39.806261 
Q 158.560321 39.806261 173.663847 39.806261 
" style="fill: none; stroke: #7a8188; stroke-linecap: round"/>
    <path d="M 169.663847 37.806261 
L 173.663847 39.806261 
L 169.663847 41.806261 
z
" style="fill: #7a8188; stroke: #7a8188; stroke-linecap: round"/>
   </g>
   <g id="patch_54">
    <path d="M 226.507231 39.806261 
Q 242.728791 39.806261 257.832317 39.806261 
" style="fill: none; stroke: #7a8188; stroke-linecap: round"/>
    <path d="M 253.832317 37.806261 
L 257.832317 39.806261 
L 253.832317 41.806261 
z
" style="fill: #7a8188; stroke: #7a8188; stroke-linecap: round"/>
   </g>
   <g id="patch_55">
    <path d="M 310.675701 39.806261 
Q 326.897261 39.806261 342.000787 39.806261 
" style="fill: none; stroke: #7a8188; stroke-linecap: round"/>
    <path d="M 338.000787 37.806261 
L 342.000787 39.806261 
L 338.000787 41.806261 
z
" style="fill: #7a8188; stroke: #7a8188; stroke-linecap: round"/>
   </g>
   <g id="patch_56">
    <path d="M 116.935187 9.199545 
Q 116.935187 13.790552 116.935187 17.263526 
" style="fill: none; stroke: #222222; stroke-linecap: round"/>
    <path d="M 118.935187 13.263526 
L 116.935187 17.263526 
L 114.935187 13.263526 
z
" style="fill: #222222; stroke: #222222; stroke-linecap: round"/>
   </g>
   <g id="patch_57">
    <path d="M 285.272127 9.199545 
Q 285.272127 14.708754 285.272127 19.099929 
" style="fill: none; stroke: #222222; stroke-linecap: round"/>
    <path d="M 287.272127 15.099929 
L 285.272127 19.099929 
L 283.272127 15.099929 
z
" style="fill: #222222; stroke: #222222; stroke-linecap: round"/>
   </g>
  </g>
 </g>
 <defs>
  <clipPath id="p0c8eba0014">
   <rect x="2.16" y="2.16" width="410.13" height="85.698806"/>
  </clipPath>
 </defs>
</svg>
