<?xml version="1.0" encoding="utf-8" standalone="no"?>
<!DOCTYPE svg PUBLIC "-//W3C//DTD SVG 1.1//EN"
  "http://www.w3.org/Graphics/SVG/1.1/DTD/svg11.dtd">
<svg xmlns:xlink="http://www.w3.org/1999/xlink" width="424.26pt" height="170.597322pt" viewBox="0 0 424.26 170.597322" xmlns="http://www.w3.org/2000/svg" version="1.1">
 <metadata>
  <rdf:RDF xmlns:dc="http://purl.org/dc/elements/1.1/" xmlns:cc="http://creativecommons.org/ns#" xmlns:rdf="http://www.w3.org/1999/02/22-rdf-syntax-ns#">
   <cc:Work>
    <dc:type rdf:resource="http://purl.org/dc/dcmitype/StillImage"/>
    <dc:date>2026-06-13T00:41:13.315963</dc:date>
    <dc:format>image/svg+xml</dc:format>
    <dc:creator>
     <cc:Agent>
      <dc:title>Matplotlib v3.9.4, https://matplotlib.org/</dc:title>
     </cc:Agent>
    </dc:creator>
   </cc:Work>
  </rdf:RDF>
 </metadata>
 <defs>
  <style type="text/css">*{stroke-linejoin: round; stroke-linecap: butt}</style>
 </defs>
 <g id="figure_1">
  <g id="patch_1">
   <path d="M 0 170.597322 
L 424.26 170.597322 
L 424.26 0 
L 0 0 
z
" style="fill: #fbfaf7"/>
  </g>
  <g id="axes_1">
   <g id="line2d_1">
    <path d="M 185.346 71.632872 
L 198.738 71.632872 
L 212.13 71.121784 
L 226.08 71.632872 
L 238.914 71.632872 
" clip-path="url(#pfa9d35ec4a)" style="fill: none; stroke: #2d7f7a; stroke-opacity: 0.9; stroke-width: 1.25; stroke-linecap: square"/>
   </g>
   <g id="line2d_2">
    <path d="M 192.042 84.921147 
L 205.434 85.432234 
L 219.384 84.921147 
L 233.334 84.921147 
" clip-path="url(#pfa9d35ec4a)" style="fill: none; stroke: #2d7f7a; stroke-opacity: 0.9; stroke-width: 1.25; stroke-linecap: square"/>
   </g>
   <g id="line2d_3">
    <path d="M 198.738 99.231597 
L 212.13 98.209422 
L 226.08 98.720509 
" clip-path="url(#pfa9d35ec4a)" style="fill: none; stroke: #2d7f7a; stroke-opacity: 0.9; stroke-width: 1.25; stroke-linecap: square"/>
   </g>
   <g id="patch_2">
    <path d="M 52.3746 32.943548 
L 92.8854 32.943548 
Q 95.9544 32.943548 95.9544 30.132567 
L 95.9544 26.248302 
Q 95.9544 23.437321 92.8854 23.437321 
L 52.3746 23.437321 
Q 49.3056 23.437321 49.3056 26.248302 
L 49.3056 30.132567 
Q 49.3056 32.943548 52.3746 32.943548 
z
" clip-path="url(#pfa9d35ec4a)" style="fill: #2d7f7a; opacity: 0.12"/>
   </g>
   <g id="patch_3">
    <path d="M 72.63 106.897909 
C 81.95295 106.897909 90.895311 103.505271 97.487632 97.467183 
C 104.079953 91.429096 107.784 83.238542 107.784 74.699397 
C 107.784 66.160252 104.079953 57.969698 97.487632 51.93161 
C 90.895311 45.893523 81.95295 42.500884 72.63 42.500884 
C 63.30705 42.500884 54.364689 45.893523 47.772368 51.93161 
C 41.180047 57.969698 37.476 66.160252 37.476 74.699397 
C 37.476 83.238542 41.180047 91.429096 47.772368 97.467183 
C 54.364689 103.505271 63.30705 106.897909 72.63 106.897909 
z
" clip-path="url(#pfa9d35ec4a)" style="fill: #f7f5ef; stroke: #222222; stroke-width: 1.15; stroke-linejoin: miter"/>
   </g>
   <g id="patch_4">
    <path d="M 53.658 74.188309 
C 54.693883 74.188309 55.687479 73.81135 56.419959 73.140451 
C 57.152439 72.469552 57.564 71.559491 57.564 70.610697 
C 57.564 69.661903 57.152439 68.751841 56.419959 68.080943 
C 55.687479 67.410044 54.693883 67.033084 53.658 67.033084 
C 52.622117 67.033084 51.628521 67.410044 50.896041 68.080943 
C 50.163561 68.751841 49.752 69.661903 49.752 70.610697 
C 49.752 71.559491 50.163561 72.469552 50.896041 73.140451 
C 51.628521 73.81135 52.622117 74.188309 53.658 74.188309 
z
" clip-path="url(#pfa9d35ec4a)" style="fill: #335c81; stroke: #ffffff; stroke-width: 0.45; stroke-linejoin: miter"/>
   </g>
   <g id="patch_5">
    <path d="M 59.238 89.520934 
C 60.273883 89.520934 61.267479 89.143975 61.999959 88.473076 
C 62.732439 87.802177 63.144 86.892116 63.144 85.943322 
C 63.144 84.994528 62.732439 84.084466 61.999959 83.413568 
C 61.267479 82.742669 60.273883 82.365709 59.238 82.365709 
C 58.202117 82.365709 57.208521 82.742669 56.476041 83.413568 
C 55.743561 84.084466 55.332 84.994528 55.332 85.943322 
C 55.332 86.892116 55.743561 87.802177 56.476041 88.473076 
C 57.208521 89.143975 58.202117 89.520934 59.238 89.520934 
z
" clip-path="url(#pfa9d35ec4a)" style="fill: #335c81; stroke: #ffffff; stroke-width: 0.45; stroke-linejoin: miter"/>
   </g>
   <g id="patch_6">
    <path d="M 63.702 62.944384 
C 64.737883 62.944384 65.731479 62.567425 66.463959 61.896526 
C 67.196439 61.225627 67.608 60.315566 67.608 59.366772 
C 67.608 58.417978 67.196439 57.507916 66.463959 56.837018 
C 65.731479 56.166119 64.737883 55.789159 63.702 55.789159 
C 62.666117 55.789159 61.672521 56.166119 60.940041 56.837018 
C 60.207561 57.507916 59.796 58.417978 59.796 59.366772 
C 59.796 60.315566 60.207561 61.225627 60.940041 61.896526 
C 61.672521 62.567425 62.666117 62.944384 63.702 62.944384 
z
" clip-path="url(#pfa9d35ec4a)" style="fill: #335c81; stroke: #ffffff; stroke-width: 0.45; stroke-linejoin: miter"/>
   </g>
   <g id="patch_7">
    <path d="M 70.398 79.299184 
C 71.433883 79.299184 72.427479 78.922225 73.159959 78.251326 
C 73.892439 77.580427 74.304 76.670366 74.304 75.721572 
C 74.304 74.772778 73.892439 73.862716 73.159959 73.191818 
C 72.427479 72.520919 71.433883 72.143959 70.398 72.143959 
C 69.362117 72.143959 68.368521 72.520919 67.636041 73.191818 
C 66.903561 73.862716 66.492 74.772778 66.492 75.721572 
C 66.492 76.670366 66.903561 77.580427 67.636041 78.251326 
C 68.368521 78.922225 69.362117 79.299184 70.398 79.299184 
z
" clip-path="url(#pfa9d35ec4a)" style="fill: #335c81; stroke: #ffffff; stroke-width: 0.45; stroke-linejoin: miter"/>
   </g>
   <g id="patch_8">
    <path d="M 77.094 66.010909 
C 78.129883 66.010909 79.123479 65.63395 79.855959 64.963051 
C 80.588439 64.292152 81 63.382091 81 62.433297 
C 81 61.484503 80.588439 60.574441 79.855959 59.903543 
C 79.123479 59.232644 78.129883 58.855684 77.094 58.855684 
C 76.058117 58.855684 75.064521 59.232644 74.332041 59.903543 
C 73.599561 60.574441 73.188 61.484503 73.188 62.433297 
C 73.188 63.382091 73.599561 64.292152 74.332041 64.963051 
C 75.064521 65.63395 76.058117 66.010909 77.094 66.010909 
z
" clip-path="url(#pfa9d35ec4a)" style="fill: #c76036; stroke: #ffffff; stroke-width: 0.45; stroke-linejoin: miter"/>
   </g>
   <g id="patch_9">
    <path d="M 83.79 80.321359 
C 84.825883 80.321359 85.819479 79.9444 86.551959 79.273501 
C 87.284439 78.602602 87.696 77.692541 87.696 76.743747 
C 87.696 75.794953 87.284439 74.884891 86.551959 74.213993 
C 85.819479 73.543094 84.825883 73.166134 83.79 73.166134 
C 82.754117 73.166134 81.760521 73.543094 81.028041 74.213993 
C 80.295561 74.884891 79.884 75.794953 79.884 76.743747 
C 79.884 77.692541 80.295561 78.602602 81.028041 79.273501 
C 81.760521 79.9444 82.754117 80.321359 83.79 80.321359 
z
" clip-path="url(#pfa9d35ec4a)" style="fill: #c76036; stroke: #ffffff; stroke-width: 0.45; stroke-linejoin: miter"/>
   </g>
   <g id="patch_10">
    <path d="M 91.044 70.099609 
C 92.079883 70.099609 93.073479 69.72265 93.805959 69.051751 
C 94.538439 68.380852 94.95 67.470791 94.95 66.521997 
C 94.95 65.573203 94.538439 64.663141 93.805959 63.992243 
C 93.073479 63.321344 92.079883 62.944384 91.044 62.944384 
C 90.008117 62.944384 89.014521 63.321344 88.282041 63.992243 
C 87.549561 64.663141 87.138 65.573203 87.138 66.521997 
C 87.138 67.470791 87.549561 68.380852 88.282041 69.051751 
C 89.014521 69.72265 90.008117 70.099609 91.044 70.099609 
z
" clip-path="url(#pfa9d35ec4a)" style="fill: #c76036; stroke: #ffffff; stroke-width: 0.45; stroke-linejoin: miter"/>
   </g>
   <g id="patch_11">
    <path d="M 88.254 92.076372 
C 89.289883 92.076372 90.283479 91.699412 91.015959 91.028513 
C 91.748439 90.357615 92.16 89.447553 92.16 88.498759 
C 92.16 87.549965 91.748439 86.639904 91.015959 85.969005 
C 90.283479 85.298107 89.289883 84.921147 88.254 84.921147 
C 87.218117 84.921147 86.224521 85.298107 85.492041 85.969005 
C 84.759561 86.639904 84.348 87.549965 84.348 88.498759 
C 84.348 89.447553 84.759561 90.357615 85.492041 91.028513 
C 86.224521 91.699412 87.218117 92.076372 88.254 92.076372 
z
" clip-path="url(#pfa9d35ec4a)" style="fill: #c76036; stroke: #ffffff; stroke-width: 0.45; stroke-linejoin: miter"/>
   </g>
   <g id="patch_12">
    <path d="M 71.514 95.142897 
C 72.549883 95.142897 73.543479 94.765937 74.275959 94.095038 
C 75.008439 93.42414 75.42 92.514078 75.42 91.565284 
C 75.42 90.61649 75.008439 89.706429 74.275959 89.03553 
C 73.543479 88.364632 72.549883 87.987672 71.514 87.987672 
C 70.478117 87.987672 69.484521 88.364632 68.752041 89.03553 
C 68.019561 89.706429 67.608 90.61649 67.608 91.565284 
C 67.608 92.514078 68.019561 93.42414 68.752041 94.095038 
C 69.484521 94.765937 70.478117 95.142897 71.514 95.142897 
z
" clip-path="url(#pfa9d35ec4a)" style="fill: #335c81; stroke: #ffffff; stroke-width: 0.45; stroke-linejoin: miter"/>
   </g>
   <g id="patch_13">
    <path d="M 72.63 54.255897 
C 73.665883 54.255897 74.659479 53.878937 75.391959 53.208038 
C 76.124439 52.53714 76.536 51.627078 76.536 50.678284 
C 76.536 49.72949 76.124439 48.819429 75.391959 48.14853 
C 74.659479 47.477632 73.665883 47.100672 72.63 47.100672 
C 71.594117 47.100672 70.600521 47.477632 69.868041 48.14853 
C 69.135561 48.819429 68.724 49.72949 68.724 50.678284 
C 68.724 51.627078 69.135561 52.53714 69.868041 53.208038 
C 70.600521 53.878937 71.594117 54.255897 72.63 54.255897 
z
" clip-path="url(#pfa9d35ec4a)" style="fill: #c76036; stroke: #ffffff; stroke-width: 0.45; stroke-linejoin: miter"/>
   </g>
   <g id="patch_14">
    <path d="M 50.31 82.365709 
C 51.345883 82.365709 52.339479 81.98875 53.071959 81.317851 
C 53.804439 80.646952 54.216 79.736891 54.216 78.788097 
C 54.216 77.839303 53.804439 76.929241 53.071959 76.258343 
C 52.339479 75.587444 51.345883 75.210484 50.31 75.210484 
C 49.274117 75.210484 48.280521 75.587444 47.548041 76.258343 
C 46.815561 76.929241 46.404 77.839303 46.404 78.788097 
C 46.404 79.736891 46.815561 80.646952 47.548041 81.317851 
C 48.280521 81.98875 49.274117 82.365709 50.31 82.365709 
z
" clip-path="url(#pfa9d35ec4a)" style="fill: #335c81; stroke: #ffffff; stroke-width: 0.45; stroke-linejoin: miter"/>
   </g>
   <g id="patch_15">
    <path d="M 96.066 82.365709 
C 97.101883 82.365709 98.095479 81.98875 98.827959 81.317851 
C 99.560439 80.646952 99.972 79.736891 99.972 78.788097 
C 99.972 77.839303 99.560439 76.929241 98.827959 76.258343 
C 98.095479 75.587444 97.101883 75.210484 96.066 75.210484 
C 95.030117 75.210484 94.036521 75.587444 93.304041 76.258343 
C 92.571561 76.929241 92.16 77.839303 92.16 78.788097 
C 92.16 79.736891 92.571561 80.646952 93.304041 81.317851 
C 94.036521 81.98875 95.030117 82.365709 96.066 82.365709 
z
" clip-path="url(#pfa9d35ec4a)" style="fill: #c76036; stroke: #ffffff; stroke-width: 0.45; stroke-linejoin: miter"/>
   </g>
   <g id="patch_16">
    <path d="M 185.7366 32.943548 
L 238.5234 32.943548 
Q 241.5924 32.943548 241.5924 30.132567 
L 241.5924 26.248302 
Q 241.5924 23.437321 238.5234 23.437321 
L 185.7366 23.437321 
Q 182.6676 23.437321 182.6676 26.248302 
L 182.6676 30.132567 
Q 182.6676 32.943548 185.7366 32.943548 
z
" clip-path="url(#pfa9d35ec4a)" style="fill: #2d7f7a; opacity: 0.12"/>
   </g>
   <g id="patch_17">
    <path d="M 173.07 114.053134 
L 251.19 114.053134 
L 251.19 45.567409 
L 173.07 45.567409 
L 173.07 114.053134 
z
" clip-path="url(#pfa9d35ec4a)" style="fill: none; stroke: #222222; stroke-width: 1.05; stroke-linejoin: miter"/>
   </g>
   <g id="patch_18">
    <path d="M 171.954 45.567409 
L 252.306 45.567409 
L 252.306 41.478709 
L 171.954 41.478709 
z
" clip-path="url(#pfa9d35ec4a)" style="fill: #3c3c3c"/>
   </g>
   <g id="patch_19">
    <path d="M 185.346 102.911427 
C 186.707447 102.911427 188.013315 102.415994 188.976003 101.534241 
C 189.938692 100.652489 190.4796 99.456408 190.4796 98.209422 
C 190.4796 96.962436 189.938692 95.766355 188.976003 94.884602 
C 188.013315 94.00285 186.707447 93.507417 185.346 93.507417 
C 183.984553 93.507417 182.678685 94.00285 181.715997 94.884602 
C 180.753308 95.766355 180.2124 96.962436 180.2124 98.209422 
C 180.2124 99.456408 180.753308 100.652489 181.715997 101.534241 
C 182.678685 102.415994 183.984553 102.911427 185.346 102.911427 
z
" clip-path="url(#pfa9d35ec4a)" style="fill: #e7edf2; stroke: #5d6872; stroke-width: 0.6; stroke-linejoin: miter"/>
   </g>
   <g id="patch_20">
    <path d="M 198.738 103.933602 
C 200.099447 103.933602 201.405315 103.438169 202.368003 102.556416 
C 203.330692 101.674664 203.8716 100.478583 203.8716 99.231597 
C 203.8716 97.984611 203.330692 96.78853 202.368003 95.906777 
C 201.405315 95.025025 200.099447 94.529592 198.738 94.529592 
C 197.376553 94.529592 196.070685 95.025025 195.107997 95.906777 
C 194.145308 96.78853 193.6044 97.984611 193.6044 99.231597 
C 193.6044 100.478583 194.145308 101.674664 195.107997 102.556416 
C 196.070685 103.438169 197.376553 103.933602 198.738 103.933602 
z
" clip-path="url(#pfa9d35ec4a)" style="fill: #e7edf2; stroke: #5d6872; stroke-width: 0.6; stroke-linejoin: miter"/>
   </g>
   <g id="patch_21">
    <path d="M 212.13 102.911427 
C 213.491447 102.911427 214.797315 102.415994 215.760003 101.534241 
C 216.722692 100.652489 217.2636 99.456408 217.2636 98.209422 
C 217.2636 96.962436 216.722692 95.766355 215.760003 94.884602 
C 214.797315 94.00285 213.491447 93.507417 212.13 93.507417 
C 210.768553 93.507417 209.462685 94.00285 208.499997 94.884602 
C 207.537308 95.766355 206.9964 96.962436 206.9964 98.209422 
C 206.9964 99.456408 207.537308 100.652489 208.499997 101.534241 
C 209.462685 102.415994 210.768553 102.911427 212.13 102.911427 
z
" clip-path="url(#pfa9d35ec4a)" style="fill: #e7edf2; stroke: #5d6872; stroke-width: 0.6; stroke-linejoin: miter"/>
   </g>
   <g id="patch_22">
    <path d="M 226.08 103.422514 
C 227.441447 103.422514 228.747315 102.927081 229.710003 102.045329 
C 230.672692 101.163577 231.2136 99.967496 231.2136 98.720509 
C 231.2136 97.473523 230.672692 96.277442 229.710003 95.39569 
C 228.747315 94.513937 227.441447 94.018504 226.08 94.018504 
C 224.718553 94.018504 223.412685 94.513937 222.449997 95.39569 
C 221.487308 96.277442 220.9464 97.473523 220.9464 98.720509 
C 220.9464 99.967496 221.487308 101.163577 222.449997 102.045329 
C 223.412685 102.927081 224.718553 103.422514 226.08 103.422514 
z
" clip-path="url(#pfa9d35ec4a)" style="fill: #e7edf2; stroke: #5d6872; stroke-width: 0.6; stroke-linejoin: miter"/>
   </g>
   <g id="patch_23">
    <path d="M 238.914 102.911427 
C 240.275447 102.911427 241.581315 102.415994 242.544003 101.534241 
C 243.506692 100.652489 244.0476 99.456408 244.0476 98.209422 
C 244.0476 96.962436 243.506692 95.766355 242.544003 94.884602 
C 241.581315 94.00285 240.275447 93.507417 238.914 93.507417 
C 237.552553 93.507417 236.246685 94.00285 235.283997 94.884602 
C 234.321308 95.766355 233.7804 96.962436 233.7804 98.209422 
C 233.7804 99.456408 234.321308 100.652489 235.283997 101.534241 
C 236.246685 102.415994 237.552553 102.911427 238.914 102.911427 
z
" clip-path="url(#pfa9d35ec4a)" style="fill: #e7edf2; stroke: #5d6872; stroke-width: 0.6; stroke-linejoin: miter"/>
   </g>
   <g id="patch_24">
    <path d="M 192.042 89.623152 
C 193.403447 89.623152 194.709315 89.127719 195.672003 88.245966 
C 196.634692 87.364214 197.1756 86.168133 197.1756 84.921147 
C 197.1756 83.674161 196.634692 82.47808 195.672003 81.596327 
C 194.709315 80.714575 193.403447 80.219142 192.042 80.219142 
C 190.680553 80.219142 189.374685 80.714575 188.411997 81.596327 
C 187.449308 82.47808 186.9084 83.674161 186.9084 84.921147 
C 186.9084 86.168133 187.449308 87.364214 188.411997 88.245966 
C 189.374685 89.127719 190.680553 89.623152 192.042 89.623152 
z
" clip-path="url(#pfa9d35ec4a)" style="fill: #e7edf2; stroke: #5d6872; stroke-width: 0.6; stroke-linejoin: miter"/>
   </g>
   <g id="patch_25">
    <path d="M 205.434 90.134239 
C 206.795447 90.134239 208.101315 89.638806 209.064003 88.757054 
C 210.026692 87.875302 210.5676 86.679221 210.5676 85.432234 
C 210.5676 84.185248 210.026692 82.989167 209.064003 82.107415 
C 208.101315 81.225662 206.795447 80.730229 205.434 80.730229 
C 204.072553 80.730229 202.766685 81.225662 201.803997 82.107415 
C 200.841308 82.989167 200.3004 84.185248 200.3004 85.432234 
C 200.3004 86.679221 200.841308 87.875302 201.803997 88.757054 
C 202.766685 89.638806 204.072553 90.134239 205.434 90.134239 
z
" clip-path="url(#pfa9d35ec4a)" style="fill: #e7edf2; stroke: #5d6872; stroke-width: 0.6; stroke-linejoin: miter"/>
   </g>
   <g id="patch_26">
    <path d="M 219.384 89.623152 
C 220.745447 89.623152 222.051315 89.127719 223.014003 88.245966 
C 223.976692 87.364214 224.5176 86.168133 224.5176 84.921147 
C 224.5176 83.674161 223.976692 82.47808 223.014003 81.596327 
C 222.051315 80.714575 220.745447 80.219142 219.384 80.219142 
C 218.022553 80.219142 216.716685 80.714575 215.753997 81.596327 
C 214.791308 82.47808 214.2504 83.674161 214.2504 84.921147 
C 214.2504 86.168133 214.791308 87.364214 215.753997 88.245966 
C 216.716685 89.127719 218.022553 89.623152 219.384 89.623152 
z
" clip-path="url(#pfa9d35ec4a)" style="fill: #e7edf2; stroke: #5d6872; stroke-width: 0.6; stroke-linejoin: miter"/>
   </g>
   <g id="patch_27">
    <path d="M 233.334 89.623152 
C 234.695447 89.623152 236.001315 89.127719 236.964003 88.245966 
C 237.926692 87.364214 238.4676 86.168133 238.4676 84.921147 
C 238.4676 83.674161 237.926692 82.47808 236.964003 81.596327 
C 236.001315 80.714575 234.695447 80.219142 233.334 80.219142 
C 231.972553 80.219142 230.666685 80.714575 229.703997 81.596327 
C 228.741308 82.47808 228.2004 83.674161 228.2004 84.921147 
C 228.2004 86.168133 228.741308 87.364214 229.703997 88.245966 
C 230.666685 89.127719 231.972553 89.623152 233.334 89.623152 
z
" clip-path="url(#pfa9d35ec4a)" style="fill: #e7edf2; stroke: #5d6872; stroke-width: 0.6; stroke-linejoin: miter"/>
   </g>
   <g id="patch_28">
    <path d="M 185.346 76.334877 
C 186.707447 76.334877 188.013315 75.839444 188.976003 74.957691 
C 189.938692 74.075939 190.4796 72.879858 190.4796 71.632872 
C 190.4796 70.385886 189.938692 69.189805 188.976003 68.308052 
C 188.013315 67.4263 186.707447 66.930867 185.346 66.930867 
C 183.984553 66.930867 182.678685 67.4263 181.715997 68.308052 
C 180.753308 69.189805 180.2124 70.385886 180.2124 71.632872 
C 180.2124 72.879858 180.753308 74.075939 181.715997 74.957691 
C 182.678685 75.839444 183.984553 76.334877 185.346 76.334877 
z
" clip-path="url(#pfa9d35ec4a)" style="fill: #e7edf2; stroke: #5d6872; stroke-width: 0.6; stroke-linejoin: miter"/>
   </g>
   <g id="patch_29">
    <path d="M 198.738 76.334877 
C 200.099447 76.334877 201.405315 75.839444 202.368003 74.957691 
C 203.330692 74.075939 203.8716 72.879858 203.8716 71.632872 
C 203.8716 70.385886 203.330692 69.189805 202.368003 68.308052 
C 201.405315 67.4263 200.099447 66.930867 198.738 66.930867 
C 197.376553 66.930867 196.070685 67.4263 195.107997 68.308052 
C 194.145308 69.189805 193.6044 70.385886 193.6044 71.632872 
C 193.6044 72.879858 194.145308 74.075939 195.107997 74.957691 
C 196.070685 75.839444 197.376553 76.334877 198.738 76.334877 
z
" clip-path="url(#pfa9d35ec4a)" style="fill: #e7edf2; stroke: #5d6872; stroke-width: 0.6; stroke-linejoin: miter"/>
   </g>
   <g id="patch_30">
    <path d="M 212.13 75.823789 
C 213.491447 75.823789 214.797315 75.328356 215.760003 74.446604 
C 216.722692 73.564852 217.2636 72.368771 217.2636 71.121784 
C 217.2636 69.874798 216.722692 68.678717 215.760003 67.796965 
C 214.797315 66.915212 213.491447 66.419779 212.13 66.419779 
C 210.768553 66.419779 209.462685 66.915212 208.499997 67.796965 
C 207.537308 68.678717 206.9964 69.874798 206.9964 71.121784 
C 206.9964 72.368771 207.537308 73.564852 208.499997 74.446604 
C 209.462685 75.328356 210.768553 75.823789 212.13 75.823789 
z
" clip-path="url(#pfa9d35ec4a)" style="fill: #e7edf2; stroke: #5d6872; stroke-width: 0.6; stroke-linejoin: miter"/>
   </g>
   <g id="patch_31">
    <path d="M 226.08 76.334877 
C 227.441447 76.334877 228.747315 75.839444 229.710003 74.957691 
C 230.672692 74.075939 231.2136 72.879858 231.2136 71.632872 
C 231.2136 70.385886 230.672692 69.189805 229.710003 68.308052 
C 228.747315 67.4263 227.441447 66.930867 226.08 66.930867 
C 224.718553 66.930867 223.412685 67.4263 222.449997 68.308052 
C 221.487308 69.189805 220.9464 70.385886 220.9464 71.632872 
C 220.9464 72.879858 221.487308 74.075939 222.449997 74.957691 
C 223.412685 75.839444 224.718553 76.334877 226.08 76.334877 
z
" clip-path="url(#pfa9d35ec4a)" style="fill: #e7edf2; stroke: #5d6872; stroke-width: 0.6; stroke-linejoin: miter"/>
   </g>
   <g id="patch_32">
    <path d="M 238.914 76.334877 
C 240.275447 76.334877 241.581315 75.839444 242.544003 74.957691 
C 243.506692 74.075939 244.0476 72.879858 244.0476 71.632872 
C 244.0476 70.385886 243.506692 69.189805 242.544003 68.308052 
C 241.581315 67.4263 240.275447 66.930867 238.914 66.930867 
C 237.552553 66.930867 236.246685 67.4263 235.283997 68.308052 
C 234.321308 69.189805 233.7804 70.385886 233.7804 71.632872 
C 233.7804 72.879858 234.321308 74.075939 235.283997 74.957691 
C 236.246685 75.839444 237.552553 76.334877 238.914 76.334877 
z
" clip-path="url(#pfa9d35ec4a)" style="fill: #e7edf2; stroke: #5d6872; stroke-width: 0.6; stroke-linejoin: miter"/>
   </g>
   <g id="patch_33">
    <path d="M 329.1426 32.943548 
L 374.1174 32.943548 
Q 377.1864 32.943548 377.1864 30.132567 
L 377.1864 26.248302 
Q 377.1864 23.437321 374.1174 23.437321 
L 329.1426 23.437321 
Q 326.0736 23.437321 326.0736 26.248302 
L 326.0736 30.132567 
Q 326.0736 32.943548 329.1426 32.943548 
z
" clip-path="url(#pfa9d35ec4a)" style="fill: #a63d52; opacity: 0.12"/>
   </g>
   <g id="patch_34">
    <path d="M 311.454 110.475522 
L 391.806 110.475522 
L 391.806 48.122847 
L 311.454 48.122847 
L 311.454 110.475522 
z
" clip-path="url(#pfa9d35ec4a)" style="fill: none; stroke: #222222; stroke-linejoin: miter"/>
   </g>
   <g id="patch_35">
    <path d="M 325.962 102.911427 
C 327.323447 102.911427 328.629315 102.415994 329.592003 101.534241 
C 330.554692 100.652489 331.0956 99.456408 331.0956 98.209422 
C 331.0956 96.962436 330.554692 95.766355 329.592003 94.884602 
C 328.629315 94.00285 327.323447 93.507417 325.962 93.507417 
C 324.600553 93.507417 323.294685 94.00285 322.331997 94.884602 
C 321.369308 95.766355 320.8284 96.962436 320.8284 98.209422 
C 320.8284 99.456408 321.369308 100.652489 322.331997 101.534241 
C 323.294685 102.415994 324.600553 102.911427 325.962 102.911427 
z
" clip-path="url(#pfa9d35ec4a)" style="fill: #f7f5ef; stroke: #5d6872; stroke-width: 0.6; stroke-linejoin: miter"/>
   </g>
   <g id="patch_36">
    <path d="M 340.47 103.422514 
C 341.831447 103.422514 343.137315 102.927081 344.100003 102.045329 
C 345.062692 101.163577 345.6036 99.967496 345.6036 98.720509 
C 345.6036 97.473523 345.062692 96.277442 344.100003 95.39569 
C 343.137315 94.513937 341.831447 94.018504 340.47 94.018504 
C 339.108553 94.018504 337.802685 94.513937 336.839997 95.39569 
C 335.877308 96.277442 335.3364 97.473523 335.3364 98.720509 
C 335.3364 99.967496 335.877308 101.163577 336.839997 102.045329 
C 337.802685 102.927081 339.108553 103.422514 340.47 103.422514 
z
" clip-path="url(#pfa9d35ec4a)" style="fill: #f7f5ef; stroke: #5d6872; stroke-width: 0.6; stroke-linejoin: miter"/>
   </g>
   <g id="patch_37">
    <path d="M 354.978 102.911427 
C 356.339447 102.911427 357.645315 102.415994 358.608003 101.534241 
C 359.570692 100.652489 360.1116 99.456408 360.1116 98.209422 
C 360.1116 96.962436 359.570692 95.766355 358.608003 94.884602 
C 357.645315 94.00285 356.339447 93.507417 354.978 93.507417 
C 353.616553 93.507417 352.310685 94.00285 351.347997 94.884602 
C 350.385308 95.766355 349.8444 96.962436 349.8444 98.209422 
C 349.8444 99.456408 350.385308 100.652489 351.347997 101.534241 
C 352.310685 102.415994 353.616553 102.911427 354.978 102.911427 
z
" clip-path="url(#pfa9d35ec4a)" style="fill: #f7f5ef; stroke: #5d6872; stroke-width: 0.6; stroke-linejoin: miter"/>
   </g>
   <g id="patch_38">
    <path d="M 369.486 103.422514 
C 370.847447 103.422514 372.153315 102.927081 373.116003 102.045329 
C 374.078692 101.163577 374.6196 99.967496 374.6196 98.720509 
C 374.6196 97.473523 374.078692 96.277442 373.116003 95.39569 
C 372.153315 94.513937 370.847447 94.018504 369.486 94.018504 
C 368.124553 94.018504 366.818685 94.513937 365.855997 95.39569 
C 364.893308 96.277442 364.3524 97.473523 364.3524 98.720509 
C 364.3524 99.967496 364.893308 101.163577 365.855997 102.045329 
C 366.818685 102.927081 368.124553 103.422514 369.486 103.422514 
z
" clip-path="url(#pfa9d35ec4a)" style="fill: #f7f5ef; stroke: #5d6872; stroke-width: 0.6; stroke-linejoin: miter"/>
   </g>
   <g id="patch_39">
    <path d="M 333.216 89.623152 
C 334.577447 89.623152 335.883315 89.127719 336.846003 88.245966 
C 337.808692 87.364214 338.3496 86.168133 338.3496 84.921147 
C 338.3496 83.674161 337.808692 82.47808 336.846003 81.596327 
C 335.883315 80.714575 334.577447 80.219142 333.216 80.219142 
C 331.854553 80.219142 330.548685 80.714575 329.585997 81.596327 
C 328.623308 82.47808 328.0824 83.674161 328.0824 84.921147 
C 328.0824 86.168133 328.623308 87.364214 329.585997 88.245966 
C 330.548685 89.127719 331.854553 89.623152 333.216 89.623152 
z
" clip-path="url(#pfa9d35ec4a)" style="fill: #f7f5ef; stroke: #5d6872; stroke-width: 0.6; stroke-linejoin: miter"/>
   </g>
   <g id="patch_40">
    <path d="M 347.724 89.623152 
C 349.085447 89.623152 350.391315 89.127719 351.354003 88.245966 
C 352.316692 87.364214 352.8576 86.168133 352.8576 84.921147 
C 352.8576 83.674161 352.316692 82.47808 351.354003 81.596327 
C 350.391315 80.714575 349.085447 80.219142 347.724 80.219142 
C 346.362553 80.219142 345.056685 80.714575 344.093997 81.596327 
C 343.131308 82.47808 342.5904 83.674161 342.5904 84.921147 
C 342.5904 86.168133 343.131308 87.364214 344.093997 88.245966 
C 345.056685 89.127719 346.362553 89.623152 347.724 89.623152 
z
" clip-path="url(#pfa9d35ec4a)" style="fill: #f7f5ef; stroke: #5d6872; stroke-width: 0.6; stroke-linejoin: miter"/>
   </g>
   <g id="patch_41">
    <path d="M 362.79 89.623152 
C 364.151447 89.623152 365.457315 89.127719 366.420003 88.245966 
C 367.382692 87.364214 367.9236 86.168133 367.9236 84.921147 
C 367.9236 83.674161 367.382692 82.47808 366.420003 81.596327 
C 365.457315 80.714575 364.151447 80.219142 362.79 80.219142 
C 361.428553 80.219142 360.122685 80.714575 359.159997 81.596327 
C 358.197308 82.47808 357.6564 83.674161 357.6564 84.921147 
C 357.6564 86.168133 358.197308 87.364214 359.159997 88.245966 
C 360.122685 89.127719 361.428553 89.623152 362.79 89.623152 
z
" clip-path="url(#pfa9d35ec4a)" style="fill: #f7f5ef; stroke: #5d6872; stroke-width: 0.6; stroke-linejoin: miter"/>
   </g>
   <g id="patch_42">
    <path d="M 377.298 89.623152 
C 378.659447 89.623152 379.965315 89.127719 380.928003 88.245966 
C 381.890692 87.364214 382.4316 86.168133 382.4316 84.921147 
C 382.4316 83.674161 381.890692 82.47808 380.928003 81.596327 
C 379.965315 80.714575 378.659447 80.219142 377.298 80.219142 
C 375.936553 80.219142 374.630685 80.714575 373.667997 81.596327 
C 372.705308 82.47808 372.1644 83.674161 372.1644 84.921147 
C 372.1644 86.168133 372.705308 87.364214 373.667997 88.245966 
C 374.630685 89.127719 375.936553 89.623152 377.298 89.623152 
z
" clip-path="url(#pfa9d35ec4a)" style="fill: #f7f5ef; stroke: #5d6872; stroke-width: 0.6; stroke-linejoin: miter"/>
   </g>
   <g id="patch_43">
    <path d="M 325.962 76.334877 
C 327.323447 76.334877 328.629315 75.839444 329.592003 74.957691 
C 330.554692 74.075939 331.0956 72.879858 331.0956 71.632872 
C 331.0956 70.385886 330.554692 69.189805 329.592003 68.308052 
C 328.629315 67.4263 327.323447 66.930867 325.962 66.930867 
C 324.600553 66.930867 323.294685 67.4263 322.331997 68.308052 
C 321.369308 69.189805 320.8284 70.385886 320.8284 71.632872 
C 320.8284 72.879858 321.369308 74.075939 322.331997 74.957691 
C 323.294685 75.839444 324.600553 76.334877 325.962 76.334877 
z
" clip-path="url(#pfa9d35ec4a)" style="fill: #f7f5ef; stroke: #5d6872; stroke-width: 0.6; stroke-linejoin: miter"/>
   </g>
   <g id="patch_44">
    <path d="M 340.47 76.334877 
C 341.831447 76.334877 343.137315 75.839444 344.100003 74.957691 
C 345.062692 74.075939 345.6036 72.879858 345.6036 71.632872 
C 345.6036 70.385886 345.062692 69.189805 344.100003 68.308052 
C 343.137315 67.4263 341.831447 66.930867 340.47 66.930867 
C 339.108553 66.930867 337.802685 67.4263 336.839997 68.308052 
C 335.877308 69.189805 335.3364 70.385886 335.3364 71.632872 
C 335.3364 72.879858 335.877308 74.075939 336.839997 74.957691 
C 337.802685 75.839444 339.108553 76.334877 340.47 76.334877 
z
" clip-path="url(#pfa9d35ec4a)" style="fill: #f7f5ef; stroke: #5d6872; stroke-width: 0.6; stroke-linejoin: miter"/>
   </g>
   <g id="patch_45">
    <path d="M 354.978 76.334877 
C 356.339447 76.334877 357.645315 75.839444 358.608003 74.957691 
C 359.570692 74.075939 360.1116 72.879858 360.1116 71.632872 
C 360.1116 70.385886 359.570692 69.189805 358.608003 68.308052 
C 357.645315 67.4263 356.339447 66.930867 354.978 66.930867 
C 353.616553 66.930867 352.310685 67.4263 351.347997 68.308052 
C 350.385308 69.189805 349.8444 70.385886 349.8444 71.632872 
C 349.8444 72.879858 350.385308 74.075939 351.347997 74.957691 
C 352.310685 75.839444 353.616553 76.334877 354.978 76.334877 
z
" clip-path="url(#pfa9d35ec4a)" style="fill: #f7f5ef; stroke: #a63d52; stroke-width: 1.7; stroke-linejoin: miter"/>
   </g>
   <g id="patch_46">
    <path d="M 369.486 76.334877 
C 370.847447 76.334877 372.153315 75.839444 373.116003 74.957691 
C 374.078692 74.075939 374.6196 72.879858 374.6196 71.632872 
C 374.6196 70.385886 374.078692 69.189805 373.116003 68.308052 
C 372.153315 67.4263 370.847447 66.930867 369.486 66.930867 
C 368.124553 66.930867 366.818685 67.4263 365.855997 68.308052 
C 364.893308 69.189805 364.3524 70.385886 364.3524 71.632872 
C 364.3524 72.879858 364.893308 74.075939 365.855997 74.957691 
C 366.818685 75.839444 368.124553 76.334877 369.486 76.334877 
z
" clip-path="url(#pfa9d35ec4a)" style="fill: #f7f5ef; stroke: #5d6872; stroke-width: 0.6; stroke-linejoin: miter"/>
   </g>
   <g id="patch_47">
    <path d="M 343.446 115.841941 
C 343.963942 115.841941 344.460739 115.653461 344.82698 115.318011 
C 345.19322 114.982562 345.399 114.527531 345.399 114.053134 
C 345.399 113.578737 345.19322 113.123707 344.82698 112.788257 
C 344.460739 112.452808 343.963942 112.264328 343.446 112.264328 
C 342.928058 112.264328 342.431261 112.452808 342.06502 112.788257 
C 341.69878 113.123707 341.493 113.578737 341.493 114.053134 
C 341.493 114.527531 341.69878 114.982562 342.06502 115.318011 
C 342.431261 115.653461 342.928058 115.841941 343.446 115.841941 
z
" clip-path="url(#pfa9d35ec4a)" style="fill: #a63d52; stroke: #a63d52; stroke-width: 0.8; stroke-linejoin: miter"/>
   </g>
   <g id="patch_48">
    <path d="M 355.35 115.841941 
C 355.867942 115.841941 356.364739 115.653461 356.73098 115.318011 
C 357.09722 114.982562 357.303 114.527531 357.303 114.053134 
C 357.303 113.578737 357.09722 113.123707 356.73098 112.788257 
C 356.364739 112.452808 355.867942 112.264328 355.35 112.264328 
C 354.832058 112.264328 354.335261 112.452808 353.96902 112.788257 
C 353.60278 113.123707 353.397 113.578737 353.397 114.053134 
C 353.397 114.527531 353.60278 114.982562 353.96902 115.318011 
C 354.335261 115.653461 354.832058 115.841941 355.35 115.841941 
z
" clip-path="url(#pfa9d35ec4a)" style="fill: #a63d52; stroke: #a63d52; stroke-width: 0.8; stroke-linejoin: miter"/>
   </g>
   <g id="patch_49">
    <path d="M 385.11 118.908466 
C 385.627942 118.908466 386.124739 118.719986 386.49098 118.384536 
C 386.85722 118.049087 387.063 117.594056 387.063 117.119659 
C 387.063 116.645262 386.85722 116.190232 386.49098 115.854782 
C 386.124739 115.519333 385.627942 115.330853 385.11 115.330853 
C 384.592058 115.330853 384.095261 115.519333 383.72902 115.854782 
C 383.36278 116.190232 383.157 116.645262 383.157 117.119659 
C 383.157 117.594056 383.36278 118.049087 383.72902 118.384536 
C 384.095261 118.719986 384.592058 118.908466 385.11 118.908466 
z
" clip-path="url(#pfa9d35ec4a)" style="fill: #a63d52; stroke: #a63d52; stroke-width: 0.8; stroke-linejoin: miter"/>
   </g>
   <g id="line2d_4">
    <path d="M 53.658 70.610697 
L 59.238 85.943322 
" clip-path="url(#pfa9d35ec4a)" style="fill: none; stroke: #c7c7c7; stroke-width: 0.55; stroke-linecap: square"/>
   </g>
   <g id="line2d_5">
    <path d="M 53.658 70.610697 
L 63.702 59.366772 
" clip-path="url(#pfa9d35ec4a)" style="fill: none; stroke: #c7c7c7; stroke-width: 0.55; stroke-linecap: square"/>
   </g>
   <g id="line2d_6">
    <path d="M 53.658 70.610697 
L 70.398 75.721572 
" clip-path="url(#pfa9d35ec4a)" style="fill: none; stroke: #c7c7c7; stroke-width: 0.55; stroke-linecap: square"/>
   </g>
   <g id="line2d_7">
    <path d="M 53.658 70.610697 
L 50.31 78.788097 
" clip-path="url(#pfa9d35ec4a)" style="fill: none; stroke: #c7c7c7; stroke-width: 0.55; stroke-linecap: square"/>
   </g>
   <g id="line2d_8">
    <path d="M 59.238 85.943322 
L 70.398 75.721572 
" clip-path="url(#pfa9d35ec4a)" style="fill: none; stroke: #c7c7c7; stroke-width: 0.55; stroke-linecap: square"/>
   </g>
   <g id="line2d_9">
    <path d="M 59.238 85.943322 
L 71.514 91.565284 
" clip-path="url(#pfa9d35ec4a)" style="fill: none; stroke: #c7c7c7; stroke-width: 0.55; stroke-linecap: square"/>
   </g>
   <g id="line2d_10">
    <path d="M 59.238 85.943322 
L 50.31 78.788097 
" clip-path="url(#pfa9d35ec4a)" style="fill: none; stroke: #c7c7c7; stroke-width: 0.55; stroke-linecap: square"/>
   </g>
   <g id="line2d_11">
    <path d="M 63.702 59.366772 
L 70.398 75.721572 
" clip-path="url(#pfa9d35ec4a)" style="fill: none; stroke: #c7c7c7; stroke-width: 0.55; stroke-linecap: square"/>
   </g>
   <g id="line2d_12">
    <path d="M 63.702 59.366772 
L 77.094 62.433297 
" clip-path="url(#pfa9d35ec4a)" style="fill: none; stroke: #c7c7c7; stroke-width: 0.55; stroke-linecap: square"/>
   </g>
   <g id="line2d_13">
    <path d="M 63.702 59.366772 
L 72.63 50.678284 
" clip-path="url(#pfa9d35ec4a)" style="fill: none; stroke: #c7c7c7; stroke-width: 0.55; stroke-linecap: square"/>
   </g>
   <g id="line2d_14">
    <path d="M 70.398 75.721572 
L 77.094 62.433297 
" clip-path="url(#pfa9d35ec4a)" style="fill: none; stroke: #c7c7c7; stroke-width: 0.55; stroke-linecap: square"/>
   </g>
   <g id="line2d_15">
    <path d="M 70.398 75.721572 
L 83.79 76.743747 
" clip-path="url(#pfa9d35ec4a)" style="fill: none; stroke: #c7c7c7; stroke-width: 0.55; stroke-linecap: square"/>
   </g>
   <g id="line2d_16">
    <path d="M 70.398 75.721572 
L 71.514 91.565284 
" clip-path="url(#pfa9d35ec4a)" style="fill: none; stroke: #c7c7c7; stroke-width: 0.55; stroke-linecap: square"/>
   </g>
   <g id="line2d_17">
    <path d="M 77.094 62.433297 
L 83.79 76.743747 
" clip-path="url(#pfa9d35ec4a)" style="fill: none; stroke: #c7c7c7; stroke-width: 0.55; stroke-linecap: square"/>
   </g>
   <g id="line2d_18">
    <path d="M 77.094 62.433297 
L 91.044 66.521997 
" clip-path="url(#pfa9d35ec4a)" style="fill: none; stroke: #c7c7c7; stroke-width: 0.55; stroke-linecap: square"/>
   </g>
   <g id="line2d_19">
    <path d="M 77.094 62.433297 
L 72.63 50.678284 
" clip-path="url(#pfa9d35ec4a)" style="fill: none; stroke: #c7c7c7; stroke-width: 0.55; stroke-linecap: square"/>
   </g>
   <g id="line2d_20">
    <path d="M 83.79 76.743747 
L 91.044 66.521997 
" clip-path="url(#pfa9d35ec4a)" style="fill: none; stroke: #c7c7c7; stroke-width: 0.55; stroke-linecap: square"/>
   </g>
   <g id="line2d_21">
    <path d="M 83.79 76.743747 
L 88.254 88.498759 
" clip-path="url(#pfa9d35ec4a)" style="fill: none; stroke: #c7c7c7; stroke-width: 0.55; stroke-linecap: square"/>
   </g>
   <g id="line2d_22">
    <path d="M 83.79 76.743747 
L 96.066 78.788097 
" clip-path="url(#pfa9d35ec4a)" style="fill: none; stroke: #c7c7c7; stroke-width: 0.55; stroke-linecap: square"/>
   </g>
   <g id="line2d_23">
    <path d="M 91.044 66.521997 
L 96.066 78.788097 
" clip-path="url(#pfa9d35ec4a)" style="fill: none; stroke: #c7c7c7; stroke-width: 0.55; stroke-linecap: square"/>
   </g>
   <g id="line2d_24">
    <path d="M 88.254 88.498759 
L 71.514 91.565284 
" clip-path="url(#pfa9d35ec4a)" style="fill: none; stroke: #c7c7c7; stroke-width: 0.55; stroke-linecap: square"/>
   </g>
   <g id="line2d_25">
    <path d="M 88.254 88.498759 
L 96.066 78.788097 
" clip-path="url(#pfa9d35ec4a)" style="fill: none; stroke: #c7c7c7; stroke-width: 0.55; stroke-linecap: square"/>
   </g>
   <g id="line2d_26">
    <path d="M 72.63 104.342472 
L 72.63 45.056322 
" clip-path="url(#pfa9d35ec4a)" style="fill: none; stroke-dasharray: 5,2.5; stroke-dashoffset: 0; stroke: #a63d52; stroke-width: 1.25"/>
   </g>
   <g id="line2d_27">
    <path d="M 351.909 74.443853 
L 358.047 68.821891 
" clip-path="url(#pfa9d35ec4a)" style="fill: none; stroke: #a63d52; stroke-width: 1.1; stroke-linecap: square"/>
   </g>
   <g id="line2d_28">
    <path d="M 351.909 68.821891 
L 358.047 74.443853 
" clip-path="url(#pfa9d35ec4a)" style="fill: none; stroke: #a63d52; stroke-width: 1.1; stroke-linecap: square"/>
   </g>
   <g id="line2d_29">
    <path d="M 313.686 129.385759 
L 385.11 129.385759 
" clip-path="url(#pfa9d35ec4a)" style="fill: none; stroke: #222222; stroke-width: 0.8; stroke-linecap: square"/>
   </g>
   <g id="line2d_30">
    <path d="M 343.446 129.385759 
L 343.446 114.053134 
" clip-path="url(#pfa9d35ec4a)" style="fill: none; stroke: #a63d52; stroke-width: 1.15; stroke-linecap: square"/>
   </g>
   <g id="line2d_31">
    <path d="M 355.35 129.385759 
L 355.35 114.053134 
" clip-path="url(#pfa9d35ec4a)" style="fill: none; stroke: #a63d52; stroke-width: 1.15; stroke-linecap: square"/>
   </g>
   <g id="line2d_32">
    <path d="M 385.11 129.385759 
L 385.11 117.119659 
" clip-path="url(#pfa9d35ec4a)" style="fill: none; stroke: #a63d52; stroke-width: 1.15; stroke-linecap: square"/>
   </g>
   <g id="line2d_33">
    <path d="M 22.41 152.384697 
L 401.85 152.384697 
" clip-path="url(#pfa9d35ec4a)" style="fill: none; stroke: #d8dde2; stroke-width: 0.7; stroke-linecap: square"/>
   </g>
   <g id="text_1">
    <text style="fill: #66717e; font: 7.1px 'Arial', 'Helvetica', 'DejaVu Sans', sans-serif; text-anchor: middle" x="212.13" y="8.053016" transform="rotate(-0 212.13 8.053016)">Acceptance-gated DEM for Li4SiO4 breeder-bed degradation</text>
   </g>
   <g id="text_2">
    <text style="fill: #222222; font: 700 8px 'Arial', 'Helvetica', 'DejaVu Sans', sans-serif; text-anchor: middle" x="72.63" y="15.442647" transform="rotate(-0 72.63 15.442647)">Intact bonded template</text>
   </g>
   <g id="text_3">
    <text style="fill: #2d7f7a; font: 700 5.8px 'Arial', 'Helvetica', 'DejaVu Sans', sans-serif; text-anchor: middle" x="72.63" y="29.655841" transform="rotate(-0 72.63 29.655841)">zero seating damage</text>
   </g>
   <g id="text_4">
    <text style="fill: #a63d52; font: 7px 'Arial', 'Helvetica', 'DejaVu Sans', sans-serif" transform="translate(101.646 46.23055)">weak</text>
    <text style="fill: #a63d52; font: 7px 'Arial', 'Helvetica', 'DejaVu Sans', sans-serif" transform="translate(101.646 53.634363)">plane</text>
   </g>
   <g id="text_5">
    <text style="fill: #222222; font: 7.2px 'Arial', 'Helvetica', 'DejaVu Sans', sans-serif" transform="translate(25.810312 124.406172)">1 mm Li4SiO4 mother pebble</text>
    <text style="fill: #222222; font: 7.2px 'Arial', 'Helvetica', 'DejaVu Sans', sans-serif" transform="translate(33.404062 132.047172)">500 bonded subparticles</text>
   </g>
   <g id="patch_50">
    <path d="M 120.06 74.699397 
Q 137.916 74.699397 154.206752 74.699397 
" style="fill: none; stroke: #66717e; stroke-width: 1.4; stroke-linecap: round"/>
    <path d="M 148.606752 71.899397 
L 154.206752 74.699397 
L 148.606752 77.499397 
z
" style="fill: #66717e; stroke: #66717e; stroke-width: 1.4; stroke-linecap: round"/>
   </g>
   <g id="text_6">
    <text style="fill: #222222; font: 700 8px 'Arial', 'Helvetica', 'DejaVu Sans', sans-serif; text-anchor: middle" x="212.13" y="15.442647" transform="rotate(-0 212.13 15.442647)">Accepted bed load path</text>
   </g>
   <g id="text_7">
    <text style="fill: #2d7f7a; font: 700 5.8px 'Arial', 'Helvetica', 'DejaVu Sans', sans-serif; text-anchor: middle" x="212.13" y="29.691184" transform="rotate(-0 212.13 29.691184)">native force graph verified</text>
   </g>
   <g id="patch_51">
    <path d="M 212.13 21.546297 
Q 212.13 30.234784 212.13 37.581631 
" style="fill: none; stroke: #222222; stroke-width: 1.2; stroke-linecap: round"/>
    <path d="M 214.93 31.981631 
L 212.13 37.581631 
L 209.33 31.981631 
z
" style="fill: #222222; stroke: #222222; stroke-width: 1.2; stroke-linecap: round"/>
   </g>
   <g id="text_8">
    <text style="fill: #222222; font: 7.25px 'Arial', 'Helvetica', 'DejaVu Sans', sans-serif" transform="translate(181.495352 123.710291)">spanning load path</text>
    <text style="fill: #222222; font: 7.25px 'Arial', 'Helvetica', 'DejaVu Sans', sans-serif" transform="translate(169.410508 131.569518)">force-balance gate passed</text>
   </g>
   <g id="text_9">
    <text style="fill: #2d7f7a; font: 700 6px 'Arial', 'Helvetica', 'DejaVu Sans', sans-serif" transform="translate(177.534 58.224953)">accepted</text>
    <text style="fill: #2d7f7a; font: 700 6px 'Arial', 'Helvetica', 'DejaVu Sans', sans-serif" transform="translate(177.534 64.562641)">gates</text>
   </g>
   <g id="patch_52">
    <path d="M 260.676 74.699397 
Q 279.09 74.699397 295.938752 74.699397 
" style="fill: none; stroke: #66717e; stroke-width: 1.4; stroke-linecap: round"/>
    <path d="M 290.338752 71.899397 
L 295.938752 74.699397 
L 290.338752 77.499397 
z
" style="fill: #66717e; stroke: #66717e; stroke-width: 1.4; stroke-linecap: round"/>
   </g>
   <g id="text_10">
    <text style="fill: #222222; font: 700 8px 'Arial', 'Helvetica', 'DejaVu Sans', sans-serif; text-anchor: middle" x="351.63" y="15.438897" transform="rotate(-0 351.63 15.438897)">Localized fracture chronology</text>
   </g>
   <g id="text_11">
    <text style="fill: #a63d52; font: 700 5.8px 'Arial', 'Helvetica', 'DejaVu Sans', sans-serif; text-anchor: middle" x="351.63" y="29.693903" transform="rotate(-0 351.63 29.693903)">one upper-bed pebble</text>
   </g>
   <g id="text_12">
    <text style="fill: #a63d52; font: 700 7.45px 'Arial', 'Helvetica', 'DejaVu Sans', sans-serif; text-anchor: middle" x="351.63" y="40.854452" transform="rotate(-0 351.63 40.854452)">5 of 493,500 bonds break</text>
   </g>
   <g id="text_13">
    <text style="fill: #66717e; font: 6.6px 'Arial', 'Helvetica', 'DejaVu Sans', sans-serif; text-anchor: middle" x="343.446" y="139.269363" transform="rotate(-0 343.446 139.269363)">25</text>
   </g>
   <g id="text_14">
    <text style="fill: #a63d52; font: 6.7px 'Arial', 'Helvetica', 'DejaVu Sans', sans-serif; text-anchor: middle" x="343.446" y="106.585614" transform="rotate(-0 343.446 106.585614)">+2</text>
   </g>
   <g id="text_15">
    <text style="fill: #66717e; font: 6.6px 'Arial', 'Helvetica', 'DejaVu Sans', sans-serif; text-anchor: middle" x="355.35" y="139.269363" transform="rotate(-0 355.35 139.269363)">35</text>
   </g>
   <g id="text_16">
    <text style="fill: #a63d52; font: 6.7px 'Arial', 'Helvetica', 'DejaVu Sans', sans-serif; text-anchor: middle" x="355.35" y="106.585614" transform="rotate(-0 355.35 106.585614)">+2</text>
   </g>
   <g id="text_17">
    <text style="fill: #66717e; font: 6.6px 'Arial', 'Helvetica', 'DejaVu Sans', sans-serif; text-anchor: middle" x="385.11" y="139.269363" transform="rotate(-0 385.11 139.269363)">60</text>
   </g>
   <g id="text_18">
    <text style="fill: #a63d52; font: 6.7px 'Arial', 'Helvetica', 'DejaVu Sans', sans-serif; text-anchor: middle" x="385.11" y="109.652139" transform="rotate(-0 385.11 109.652139)">+1</text>
   </g>
   <g id="text_19">
    <text style="fill: #66717e; font: 6.45px 'Arial', 'Helvetica', 'DejaVu Sans', sans-serif; text-anchor: middle" x="351.63" y="148.431672" transform="rotate(-0 351.63 148.431672)">top displacement (um)</text>
   </g>
   <g id="text_20">
    <text style="fill: #222222; font: 6.55px 'Arial', 'Helvetica', 'DejaVu Sans', sans-serif; text-anchor: middle" x="212.13" y="161.234734" transform="rotate(-0 212.13 161.234734)">A hidden ceramic-breeder damage event becomes an auditable bond-loss and force-network history.</text>
   </g>
  </g>
 </g>
 <defs>
  <clipPath id="pfa9d35ec4a">
   <rect x="2.88" y="4.169322" width="418.5" height="163.548"/>
  </clipPath>
 </defs>
</svg>
