solid wall
  facet normal 1.0 0.0 0.0
    outer loop
      vertex -3.000000000000e-03 -3.000000000000e-03 0.000000000000e+00
      vertex -3.000000000000e-03 -2.500000000000e-03 0.000000000000e+00
      vertex -3.000000000000e-03 -2.500000000000e-03 1.632439300000e-03
    endloop
  endfacet
  facet normal 1.0 0.0 0.0
    outer loop
      vertex -3.000000000000e-03 -3.000000000000e-03 0.000000000000e+00
      vertex -3.000000000000e-03 -2.500000000000e-03 1.632439300000e-03
      vertex -3.000000000000e-03 -3.000000000000e-03 1.632439300000e-03
    endloop
  endfacet
  facet normal 1.0 0.0 0.0
    outer loop
      vertex -3.000000000000e-03 -3.000000000000e-03 1.632439300000e-03
      vertex -3.000000000000e-03 -2.500000000000e-03 1.632439300000e-03
      vertex -3.000000000000e-03 -2.500000000000e-03 3.264878600000e-03
    endloop
  endfacet
  facet normal 1.0 0.0 0.0
    outer loop
      vertex -3.000000000000e-03 -3.000000000000e-03 1.632439300000e-03
      vertex -3.000000000000e-03 -2.500000000000e-03 3.264878600000e-03
      vertex -3.000000000000e-03 -3.000000000000e-03 3.264878600000e-03
    endloop
  endfacet
  facet normal 1.0 0.0 0.0
    outer loop
      vertex -3.000000000000e-03 -3.000000000000e-03 3.264878600000e-03
      vertex -3.000000000000e-03 -2.500000000000e-03 3.264878600000e-03
      vertex -3.000000000000e-03 -2.500000000000e-03 4.897317900000e-03
    endloop
  endfacet
  facet normal 1.0 0.0 0.0
    outer loop
      vertex -3.000000000000e-03 -3.000000000000e-03 3.264878600000e-03
      vertex -3.000000000000e-03 -2.500000000000e-03 4.897317900000e-03
      vertex -3.000000000000e-03 -3.000000000000e-03 4.897317900000e-03
    endloop
  endfacet
  facet normal 1.0 0.0 0.0
    outer loop
      vertex -3.000000000000e-03 -3.000000000000e-03 4.897317900000e-03
      vertex -3.000000000000e-03 -2.500000000000e-03 4.897317900000e-03
      vertex -3.000000000000e-03 -2.500000000000e-03 6.529757200000e-03
    endloop
  endfacet
  facet normal 1.0 0.0 0.0
    outer loop
      vertex -3.000000000000e-03 -3.000000000000e-03 4.897317900000e-03
      vertex -3.000000000000e-03 -2.500000000000e-03 6.529757200000e-03
      vertex -3.000000000000e-03 -3.000000000000e-03 6.529757200000e-03
    endloop
  endfacet
  facet normal 1.0 0.0 0.0
    outer loop
      vertex -3.000000000000e-03 -3.000000000000e-03 6.529757200000e-03
      vertex -3.000000000000e-03 -2.500000000000e-03 6.529757200000e-03
      vertex -3.000000000000e-03 -2.500000000000e-03 8.162196500000e-03
    endloop
  endfacet
  facet normal 1.0 0.0 0.0
    outer loop
      vertex -3.000000000000e-03 -3.000000000000e-03 6.529757200000e-03
      vertex -3.000000000000e-03 -2.500000000000e-03 8.162196500000e-03
      vertex -3.000000000000e-03 -3.000000000000e-03 8.162196500000e-03
    endloop
  endfacet
  facet normal 1.0 0.0 0.0
    outer loop
      vertex -3.000000000000e-03 -3.000000000000e-03 8.162196500000e-03
      vertex -3.000000000000e-03 -2.500000000000e-03 8.162196500000e-03
      vertex -3.000000000000e-03 -2.500000000000e-03 9.794635800000e-03
    endloop
  endfacet
  facet normal 1.0 0.0 0.0
    outer loop
      vertex -3.000000000000e-03 -3.000000000000e-03 8.162196500000e-03
      vertex -3.000000000000e-03 -2.500000000000e-03 9.794635800000e-03
      vertex -3.000000000000e-03 -3.000000000000e-03 9.794635800000e-03
    endloop
  endfacet
  facet normal 1.0 0.0 0.0
    outer loop
      vertex -3.000000000000e-03 -3.000000000000e-03 9.794635800000e-03
      vertex -3.000000000000e-03 -2.500000000000e-03 9.794635800000e-03
      vertex -3.000000000000e-03 -2.500000000000e-03 1.142707510000e-02
    endloop
  endfacet
  facet normal 1.0 0.0 0.0
    outer loop
      vertex -3.000000000000e-03 -3.000000000000e-03 9.794635800000e-03
      vertex -3.000000000000e-03 -2.500000000000e-03 1.142707510000e-02
      vertex -3.000000000000e-03 -3.000000000000e-03 1.142707510000e-02
    endloop
  endfacet
  facet normal 1.0 0.0 0.0
    outer loop
      vertex -3.000000000000e-03 -3.000000000000e-03 1.142707510000e-02
      vertex -3.000000000000e-03 -2.500000000000e-03 1.142707510000e-02
      vertex -3.000000000000e-03 -2.500000000000e-03 1.305951440000e-02
    endloop
  endfacet
  facet normal 1.0 0.0 0.0
    outer loop
      vertex -3.000000000000e-03 -3.000000000000e-03 1.142707510000e-02
      vertex -3.000000000000e-03 -2.500000000000e-03 1.305951440000e-02
      vertex -3.000000000000e-03 -3.000000000000e-03 1.305951440000e-02
    endloop
  endfacet
  facet normal 1.0 0.0 0.0
    outer loop
      vertex -3.000000000000e-03 -3.000000000000e-03 1.305951440000e-02
      vertex -3.000000000000e-03 -2.500000000000e-03 1.305951440000e-02
      vertex -3.000000000000e-03 -2.500000000000e-03 1.469195370000e-02
    endloop
  endfacet
  facet normal 1.0 0.0 0.0
    outer loop
      vertex -3.000000000000e-03 -3.000000000000e-03 1.305951440000e-02
      vertex -3.000000000000e-03 -2.500000000000e-03 1.469195370000e-02
      vertex -3.000000000000e-03 -3.000000000000e-03 1.469195370000e-02
    endloop
  endfacet
  facet normal 1.0 0.0 0.0
    outer loop
      vertex -3.000000000000e-03 -3.000000000000e-03 1.469195370000e-02
      vertex -3.000000000000e-03 -2.500000000000e-03 1.469195370000e-02
      vertex -3.000000000000e-03 -2.500000000000e-03 1.632439300000e-02
    endloop
  endfacet
  facet normal 1.0 0.0 0.0
    outer loop
      vertex -3.000000000000e-03 -3.000000000000e-03 1.469195370000e-02
      vertex -3.000000000000e-03 -2.500000000000e-03 1.632439300000e-02
      vertex -3.000000000000e-03 -3.000000000000e-03 1.632439300000e-02
    endloop
  endfacet
  facet normal 1.0 0.0 0.0
    outer loop
      vertex -3.000000000000e-03 -3.000000000000e-03 1.632439300000e-02
      vertex -3.000000000000e-03 -2.500000000000e-03 1.632439300000e-02
      vertex -3.000000000000e-03 -2.500000000000e-03 1.795683230000e-02
    endloop
  endfacet
  facet normal 1.0 0.0 0.0
    outer loop
      vertex -3.000000000000e-03 -3.000000000000e-03 1.632439300000e-02
      vertex -3.000000000000e-03 -2.500000000000e-03 1.795683230000e-02
      vertex -3.000000000000e-03 -3.000000000000e-03 1.795683230000e-02
    endloop
  endfacet
  facet normal 1.0 0.0 0.0
    outer loop
      vertex -3.000000000000e-03 -3.000000000000e-03 1.795683230000e-02
      vertex -3.000000000000e-03 -2.500000000000e-03 1.795683230000e-02
      vertex -3.000000000000e-03 -2.500000000000e-03 1.958927160000e-02
    endloop
  endfacet
  facet normal 1.0 0.0 0.0
    outer loop
      vertex -3.000000000000e-03 -3.000000000000e-03 1.795683230000e-02
      vertex -3.000000000000e-03 -2.500000000000e-03 1.958927160000e-02
      vertex -3.000000000000e-03 -3.000000000000e-03 1.958927160000e-02
    endloop
  endfacet
  facet normal 1.0 0.0 0.0
    outer loop
      vertex -3.000000000000e-03 -2.500000000000e-03 0.000000000000e+00
      vertex -3.000000000000e-03 -2.000000000000e-03 0.000000000000e+00
      vertex -3.000000000000e-03 -2.000000000000e-03 1.632439300000e-03
    endloop
  endfacet
  facet normal 1.0 0.0 0.0
    outer loop
      vertex -3.000000000000e-03 -2.500000000000e-03 0.000000000000e+00
      vertex -3.000000000000e-03 -2.000000000000e-03 1.632439300000e-03
      vertex -3.000000000000e-03 -2.500000000000e-03 1.632439300000e-03
    endloop
  endfacet
  facet normal 1.0 0.0 0.0
    outer loop
      vertex -3.000000000000e-03 -2.500000000000e-03 1.632439300000e-03
      vertex -3.000000000000e-03 -2.000000000000e-03 1.632439300000e-03
      vertex -3.000000000000e-03 -2.000000000000e-03 3.264878600000e-03
    endloop
  endfacet
  facet normal 1.0 0.0 0.0
    outer loop
      vertex -3.000000000000e-03 -2.500000000000e-03 1.632439300000e-03
      vertex -3.000000000000e-03 -2.000000000000e-03 3.264878600000e-03
      vertex -3.000000000000e-03 -2.500000000000e-03 3.264878600000e-03
    endloop
  endfacet
  facet normal 1.0 0.0 0.0
    outer loop
      vertex -3.000000000000e-03 -2.500000000000e-03 3.264878600000e-03
      vertex -3.000000000000e-03 -2.000000000000e-03 3.264878600000e-03
      vertex -3.000000000000e-03 -2.000000000000e-03 4.897317900000e-03
    endloop
  endfacet
  facet normal 1.0 0.0 0.0
    outer loop
      vertex -3.000000000000e-03 -2.500000000000e-03 3.264878600000e-03
      vertex -3.000000000000e-03 -2.000000000000e-03 4.897317900000e-03
      vertex -3.000000000000e-03 -2.500000000000e-03 4.897317900000e-03
    endloop
  endfacet
  facet normal 1.0 0.0 0.0
    outer loop
      vertex -3.000000000000e-03 -2.500000000000e-03 4.897317900000e-03
      vertex -3.000000000000e-03 -2.000000000000e-03 4.897317900000e-03
      vertex -3.000000000000e-03 -2.000000000000e-03 6.529757200000e-03
    endloop
  endfacet
  facet normal 1.0 0.0 0.0
    outer loop
      vertex -3.000000000000e-03 -2.500000000000e-03 4.897317900000e-03
      vertex -3.000000000000e-03 -2.000000000000e-03 6.529757200000e-03
      vertex -3.000000000000e-03 -2.500000000000e-03 6.529757200000e-03
    endloop
  endfacet
  facet normal 1.0 0.0 0.0
    outer loop
      vertex -3.000000000000e-03 -2.500000000000e-03 6.529757200000e-03
      vertex -3.000000000000e-03 -2.000000000000e-03 6.529757200000e-03
      vertex -3.000000000000e-03 -2.000000000000e-03 8.162196500000e-03
    endloop
  endfacet
  facet normal 1.0 0.0 0.0
    outer loop
      vertex -3.000000000000e-03 -2.500000000000e-03 6.529757200000e-03
      vertex -3.000000000000e-03 -2.000000000000e-03 8.162196500000e-03
      vertex -3.000000000000e-03 -2.500000000000e-03 8.162196500000e-03
    endloop
  endfacet
  facet normal 1.0 0.0 0.0
    outer loop
      vertex -3.000000000000e-03 -2.500000000000e-03 8.162196500000e-03
      vertex -3.000000000000e-03 -2.000000000000e-03 8.162196500000e-03
      vertex -3.000000000000e-03 -2.000000000000e-03 9.794635800000e-03
    endloop
  endfacet
  facet normal 1.0 0.0 0.0
    outer loop
      vertex -3.000000000000e-03 -2.500000000000e-03 8.162196500000e-03
      vertex -3.000000000000e-03 -2.000000000000e-03 9.794635800000e-03
      vertex -3.000000000000e-03 -2.500000000000e-03 9.794635800000e-03
    endloop
  endfacet
  facet normal 1.0 0.0 0.0
    outer loop
      vertex -3.000000000000e-03 -2.500000000000e-03 9.794635800000e-03
      vertex -3.000000000000e-03 -2.000000000000e-03 9.794635800000e-03
      vertex -3.000000000000e-03 -2.000000000000e-03 1.142707510000e-02
    endloop
  endfacet
  facet normal 1.0 0.0 0.0
    outer loop
      vertex -3.000000000000e-03 -2.500000000000e-03 9.794635800000e-03
      vertex -3.000000000000e-03 -2.000000000000e-03 1.142707510000e-02
      vertex -3.000000000000e-03 -2.500000000000e-03 1.142707510000e-02
    endloop
  endfacet
  facet normal 1.0 0.0 0.0
    outer loop
      vertex -3.000000000000e-03 -2.500000000000e-03 1.142707510000e-02
      vertex -3.000000000000e-03 -2.000000000000e-03 1.142707510000e-02
      vertex -3.000000000000e-03 -2.000000000000e-03 1.305951440000e-02
    endloop
  endfacet
  facet normal 1.0 0.0 0.0
    outer loop
      vertex -3.000000000000e-03 -2.500000000000e-03 1.142707510000e-02
      vertex -3.000000000000e-03 -2.000000000000e-03 1.305951440000e-02
      vertex -3.000000000000e-03 -2.500000000000e-03 1.305951440000e-02
    endloop
  endfacet
  facet normal 1.0 0.0 0.0
    outer loop
      vertex -3.000000000000e-03 -2.500000000000e-03 1.305951440000e-02
      vertex -3.000000000000e-03 -2.000000000000e-03 1.305951440000e-02
      vertex -3.000000000000e-03 -2.000000000000e-03 1.469195370000e-02
    endloop
  endfacet
  facet normal 1.0 0.0 0.0
    outer loop
      vertex -3.000000000000e-03 -2.500000000000e-03 1.305951440000e-02
      vertex -3.000000000000e-03 -2.000000000000e-03 1.469195370000e-02
      vertex -3.000000000000e-03 -2.500000000000e-03 1.469195370000e-02
    endloop
  endfacet
  facet normal 1.0 0.0 0.0
    outer loop
      vertex -3.000000000000e-03 -2.500000000000e-03 1.469195370000e-02
      vertex -3.000000000000e-03 -2.000000000000e-03 1.469195370000e-02
      vertex -3.000000000000e-03 -2.000000000000e-03 1.632439300000e-02
    endloop
  endfacet
  facet normal 1.0 0.0 0.0
    outer loop
      vertex -3.000000000000e-03 -2.500000000000e-03 1.469195370000e-02
      vertex -3.000000000000e-03 -2.000000000000e-03 1.632439300000e-02
      vertex -3.000000000000e-03 -2.500000000000e-03 1.632439300000e-02
    endloop
  endfacet
  facet normal 1.0 0.0 0.0
    outer loop
      vertex -3.000000000000e-03 -2.500000000000e-03 1.632439300000e-02
      vertex -3.000000000000e-03 -2.000000000000e-03 1.632439300000e-02
      vertex -3.000000000000e-03 -2.000000000000e-03 1.795683230000e-02
    endloop
  endfacet
  facet normal 1.0 0.0 0.0
    outer loop
      vertex -3.000000000000e-03 -2.500000000000e-03 1.632439300000e-02
      vertex -3.000000000000e-03 -2.000000000000e-03 1.795683230000e-02
      vertex -3.000000000000e-03 -2.500000000000e-03 1.795683230000e-02
    endloop
  endfacet
  facet normal 1.0 0.0 0.0
    outer loop
      vertex -3.000000000000e-03 -2.500000000000e-03 1.795683230000e-02
      vertex -3.000000000000e-03 -2.000000000000e-03 1.795683230000e-02
      vertex -3.000000000000e-03 -2.000000000000e-03 1.958927160000e-02
    endloop
  endfacet
  facet normal 1.0 0.0 0.0
    outer loop
      vertex -3.000000000000e-03 -2.500000000000e-03 1.795683230000e-02
      vertex -3.000000000000e-03 -2.000000000000e-03 1.958927160000e-02
      vertex -3.000000000000e-03 -2.500000000000e-03 1.958927160000e-02
    endloop
  endfacet
  facet normal 1.0 0.0 0.0
    outer loop
      vertex -3.000000000000e-03 -2.000000000000e-03 0.000000000000e+00
      vertex -3.000000000000e-03 -1.500000000000e-03 0.000000000000e+00
      vertex -3.000000000000e-03 -1.500000000000e-03 1.632439300000e-03
    endloop
  endfacet
  facet normal 1.0 0.0 0.0
    outer loop
      vertex -3.000000000000e-03 -2.000000000000e-03 0.000000000000e+00
      vertex -3.000000000000e-03 -1.500000000000e-03 1.632439300000e-03
      vertex -3.000000000000e-03 -2.000000000000e-03 1.632439300000e-03
    endloop
  endfacet
  facet normal 1.0 0.0 0.0
    outer loop
      vertex -3.000000000000e-03 -2.000000000000e-03 1.632439300000e-03
      vertex -3.000000000000e-03 -1.500000000000e-03 1.632439300000e-03
      vertex -3.000000000000e-03 -1.500000000000e-03 3.264878600000e-03
    endloop
  endfacet
  facet normal 1.0 0.0 0.0
    outer loop
      vertex -3.000000000000e-03 -2.000000000000e-03 1.632439300000e-03
      vertex -3.000000000000e-03 -1.500000000000e-03 3.264878600000e-03
      vertex -3.000000000000e-03 -2.000000000000e-03 3.264878600000e-03
    endloop
  endfacet
  facet normal 1.0 0.0 0.0
    outer loop
      vertex -3.000000000000e-03 -2.000000000000e-03 3.264878600000e-03
      vertex -3.000000000000e-03 -1.500000000000e-03 3.264878600000e-03
      vertex -3.000000000000e-03 -1.500000000000e-03 4.897317900000e-03
    endloop
  endfacet
  facet normal 1.0 0.0 0.0
    outer loop
      vertex -3.000000000000e-03 -2.000000000000e-03 3.264878600000e-03
      vertex -3.000000000000e-03 -1.500000000000e-03 4.897317900000e-03
      vertex -3.000000000000e-03 -2.000000000000e-03 4.897317900000e-03
    endloop
  endfacet
  facet normal 1.0 0.0 0.0
    outer loop
      vertex -3.000000000000e-03 -2.000000000000e-03 4.897317900000e-03
      vertex -3.000000000000e-03 -1.500000000000e-03 4.897317900000e-03
      vertex -3.000000000000e-03 -1.500000000000e-03 6.529757200000e-03
    endloop
  endfacet
  facet normal 1.0 0.0 0.0
    outer loop
      vertex -3.000000000000e-03 -2.000000000000e-03 4.897317900000e-03
      vertex -3.000000000000e-03 -1.500000000000e-03 6.529757200000e-03
      vertex -3.000000000000e-03 -2.000000000000e-03 6.529757200000e-03
    endloop
  endfacet
  facet normal 1.0 0.0 0.0
    outer loop
      vertex -3.000000000000e-03 -2.000000000000e-03 6.529757200000e-03
      vertex -3.000000000000e-03 -1.500000000000e-03 6.529757200000e-03
      vertex -3.000000000000e-03 -1.500000000000e-03 8.162196500000e-03
    endloop
  endfacet
  facet normal 1.0 0.0 0.0
    outer loop
      vertex -3.000000000000e-03 -2.000000000000e-03 6.529757200000e-03
      vertex -3.000000000000e-03 -1.500000000000e-03 8.162196500000e-03
      vertex -3.000000000000e-03 -2.000000000000e-03 8.162196500000e-03
    endloop
  endfacet
  facet normal 1.0 0.0 0.0
    outer loop
      vertex -3.000000000000e-03 -2.000000000000e-03 8.162196500000e-03
      vertex -3.000000000000e-03 -1.500000000000e-03 8.162196500000e-03
      vertex -3.000000000000e-03 -1.500000000000e-03 9.794635800000e-03
    endloop
  endfacet
  facet normal 1.0 0.0 0.0
    outer loop
      vertex -3.000000000000e-03 -2.000000000000e-03 8.162196500000e-03
      vertex -3.000000000000e-03 -1.500000000000e-03 9.794635800000e-03
      vertex -3.000000000000e-03 -2.000000000000e-03 9.794635800000e-03
    endloop
  endfacet
  facet normal 1.0 0.0 0.0
    outer loop
      vertex -3.000000000000e-03 -2.000000000000e-03 9.794635800000e-03
      vertex -3.000000000000e-03 -1.500000000000e-03 9.794635800000e-03
      vertex -3.000000000000e-03 -1.500000000000e-03 1.142707510000e-02
    endloop
  endfacet
  facet normal 1.0 0.0 0.0
    outer loop
      vertex -3.000000000000e-03 -2.000000000000e-03 9.794635800000e-03
      vertex -3.000000000000e-03 -1.500000000000e-03 1.142707510000e-02
      vertex -3.000000000000e-03 -2.000000000000e-03 1.142707510000e-02
    endloop
  endfacet
  facet normal 1.0 0.0 0.0
    outer loop
      vertex -3.000000000000e-03 -2.000000000000e-03 1.142707510000e-02
      vertex -3.000000000000e-03 -1.500000000000e-03 1.142707510000e-02
      vertex -3.000000000000e-03 -1.500000000000e-03 1.305951440000e-02
    endloop
  endfacet
  facet normal 1.0 0.0 0.0
    outer loop
      vertex -3.000000000000e-03 -2.000000000000e-03 1.142707510000e-02
      vertex -3.000000000000e-03 -1.500000000000e-03 1.305951440000e-02
      vertex -3.000000000000e-03 -2.000000000000e-03 1.305951440000e-02
    endloop
  endfacet
  facet normal 1.0 0.0 0.0
    outer loop
      vertex -3.000000000000e-03 -2.000000000000e-03 1.305951440000e-02
      vertex -3.000000000000e-03 -1.500000000000e-03 1.305951440000e-02
      vertex -3.000000000000e-03 -1.500000000000e-03 1.469195370000e-02
    endloop
  endfacet
  facet normal 1.0 0.0 0.0
    outer loop
      vertex -3.000000000000e-03 -2.000000000000e-03 1.305951440000e-02
      vertex -3.000000000000e-03 -1.500000000000e-03 1.469195370000e-02
      vertex -3.000000000000e-03 -2.000000000000e-03 1.469195370000e-02
    endloop
  endfacet
  facet normal 1.0 0.0 0.0
    outer loop
      vertex -3.000000000000e-03 -2.000000000000e-03 1.469195370000e-02
      vertex -3.000000000000e-03 -1.500000000000e-03 1.469195370000e-02
      vertex -3.000000000000e-03 -1.500000000000e-03 1.632439300000e-02
    endloop
  endfacet
  facet normal 1.0 0.0 0.0
    outer loop
      vertex -3.000000000000e-03 -2.000000000000e-03 1.469195370000e-02
      vertex -3.000000000000e-03 -1.500000000000e-03 1.632439300000e-02
      vertex -3.000000000000e-03 -2.000000000000e-03 1.632439300000e-02
    endloop
  endfacet
  facet normal 1.0 0.0 0.0
    outer loop
      vertex -3.000000000000e-03 -2.000000000000e-03 1.632439300000e-02
      vertex -3.000000000000e-03 -1.500000000000e-03 1.632439300000e-02
      vertex -3.000000000000e-03 -1.500000000000e-03 1.795683230000e-02
    endloop
  endfacet
  facet normal 1.0 0.0 0.0
    outer loop
      vertex -3.000000000000e-03 -2.000000000000e-03 1.632439300000e-02
      vertex -3.000000000000e-03 -1.500000000000e-03 1.795683230000e-02
      vertex -3.000000000000e-03 -2.000000000000e-03 1.795683230000e-02
    endloop
  endfacet
  facet normal 1.0 0.0 0.0
    outer loop
      vertex -3.000000000000e-03 -2.000000000000e-03 1.795683230000e-02
      vertex -3.000000000000e-03 -1.500000000000e-03 1.795683230000e-02
      vertex -3.000000000000e-03 -1.500000000000e-03 1.958927160000e-02
    endloop
  endfacet
  facet normal 1.0 0.0 0.0
    outer loop
      vertex -3.000000000000e-03 -2.000000000000e-03 1.795683230000e-02
      vertex -3.000000000000e-03 -1.500000000000e-03 1.958927160000e-02
      vertex -3.000000000000e-03 -2.000000000000e-03 1.958927160000e-02
    endloop
  endfacet
  facet normal 1.0 0.0 0.0
    outer loop
      vertex -3.000000000000e-03 -1.500000000000e-03 0.000000000000e+00
      vertex -3.000000000000e-03 -1.000000000000e-03 0.000000000000e+00
      vertex -3.000000000000e-03 -1.000000000000e-03 1.632439300000e-03
    endloop
  endfacet
  facet normal 1.0 0.0 0.0
    outer loop
      vertex -3.000000000000e-03 -1.500000000000e-03 0.000000000000e+00
      vertex -3.000000000000e-03 -1.000000000000e-03 1.632439300000e-03
      vertex -3.000000000000e-03 -1.500000000000e-03 1.632439300000e-03
    endloop
  endfacet
  facet normal 1.0 0.0 0.0
    outer loop
      vertex -3.000000000000e-03 -1.500000000000e-03 1.632439300000e-03
      vertex -3.000000000000e-03 -1.000000000000e-03 1.632439300000e-03
      vertex -3.000000000000e-03 -1.000000000000e-03 3.264878600000e-03
    endloop
  endfacet
  facet normal 1.0 0.0 0.0
    outer loop
      vertex -3.000000000000e-03 -1.500000000000e-03 1.632439300000e-03
      vertex -3.000000000000e-03 -1.000000000000e-03 3.264878600000e-03
      vertex -3.000000000000e-03 -1.500000000000e-03 3.264878600000e-03
    endloop
  endfacet
  facet normal 1.0 0.0 0.0
    outer loop
      vertex -3.000000000000e-03 -1.500000000000e-03 3.264878600000e-03
      vertex -3.000000000000e-03 -1.000000000000e-03 3.264878600000e-03
      vertex -3.000000000000e-03 -1.000000000000e-03 4.897317900000e-03
    endloop
  endfacet
  facet normal 1.0 0.0 0.0
    outer loop
      vertex -3.000000000000e-03 -1.500000000000e-03 3.264878600000e-03
      vertex -3.000000000000e-03 -1.000000000000e-03 4.897317900000e-03
      vertex -3.000000000000e-03 -1.500000000000e-03 4.897317900000e-03
    endloop
  endfacet
  facet normal 1.0 0.0 0.0
    outer loop
      vertex -3.000000000000e-03 -1.500000000000e-03 4.897317900000e-03
      vertex -3.000000000000e-03 -1.000000000000e-03 4.897317900000e-03
      vertex -3.000000000000e-03 -1.000000000000e-03 6.529757200000e-03
    endloop
  endfacet
  facet normal 1.0 0.0 0.0
    outer loop
      vertex -3.000000000000e-03 -1.500000000000e-03 4.897317900000e-03
      vertex -3.000000000000e-03 -1.000000000000e-03 6.529757200000e-03
      vertex -3.000000000000e-03 -1.500000000000e-03 6.529757200000e-03
    endloop
  endfacet
  facet normal 1.0 0.0 0.0
    outer loop
      vertex -3.000000000000e-03 -1.500000000000e-03 6.529757200000e-03
      vertex -3.000000000000e-03 -1.000000000000e-03 6.529757200000e-03
      vertex -3.000000000000e-03 -1.000000000000e-03 8.162196500000e-03
    endloop
  endfacet
  facet normal 1.0 0.0 0.0
    outer loop
      vertex -3.000000000000e-03 -1.500000000000e-03 6.529757200000e-03
      vertex -3.000000000000e-03 -1.000000000000e-03 8.162196500000e-03
      vertex -3.000000000000e-03 -1.500000000000e-03 8.162196500000e-03
    endloop
  endfacet
  facet normal 1.0 0.0 0.0
    outer loop
      vertex -3.000000000000e-03 -1.500000000000e-03 8.162196500000e-03
      vertex -3.000000000000e-03 -1.000000000000e-03 8.162196500000e-03
      vertex -3.000000000000e-03 -1.000000000000e-03 9.794635800000e-03
    endloop
  endfacet
  facet normal 1.0 0.0 0.0
    outer loop
      vertex -3.000000000000e-03 -1.500000000000e-03 8.162196500000e-03
      vertex -3.000000000000e-03 -1.000000000000e-03 9.794635800000e-03
      vertex -3.000000000000e-03 -1.500000000000e-03 9.794635800000e-03
    endloop
  endfacet
  facet normal 1.0 0.0 0.0
    outer loop
      vertex -3.000000000000e-03 -1.500000000000e-03 9.794635800000e-03
      vertex -3.000000000000e-03 -1.000000000000e-03 9.794635800000e-03
      vertex -3.000000000000e-03 -1.000000000000e-03 1.142707510000e-02
    endloop
  endfacet
  facet normal 1.0 0.0 0.0
    outer loop
      vertex -3.000000000000e-03 -1.500000000000e-03 9.794635800000e-03
      vertex -3.000000000000e-03 -1.000000000000e-03 1.142707510000e-02
      vertex -3.000000000000e-03 -1.500000000000e-03 1.142707510000e-02
    endloop
  endfacet
  facet normal 1.0 0.0 0.0
    outer loop
      vertex -3.000000000000e-03 -1.500000000000e-03 1.142707510000e-02
      vertex -3.000000000000e-03 -1.000000000000e-03 1.142707510000e-02
      vertex -3.000000000000e-03 -1.000000000000e-03 1.305951440000e-02
    endloop
  endfacet
  facet normal 1.0 0.0 0.0
    outer loop
      vertex -3.000000000000e-03 -1.500000000000e-03 1.142707510000e-02
      vertex -3.000000000000e-03 -1.000000000000e-03 1.305951440000e-02
      vertex -3.000000000000e-03 -1.500000000000e-03 1.305951440000e-02
    endloop
  endfacet
  facet normal 1.0 0.0 0.0
    outer loop
      vertex -3.000000000000e-03 -1.500000000000e-03 1.305951440000e-02
      vertex -3.000000000000e-03 -1.000000000000e-03 1.305951440000e-02
      vertex -3.000000000000e-03 -1.000000000000e-03 1.469195370000e-02
    endloop
  endfacet
  facet normal 1.0 0.0 0.0
    outer loop
      vertex -3.000000000000e-03 -1.500000000000e-03 1.305951440000e-02
      vertex -3.000000000000e-03 -1.000000000000e-03 1.469195370000e-02
      vertex -3.000000000000e-03 -1.500000000000e-03 1.469195370000e-02
    endloop
  endfacet
  facet normal 1.0 0.0 0.0
    outer loop
      vertex -3.000000000000e-03 -1.500000000000e-03 1.469195370000e-02
      vertex -3.000000000000e-03 -1.000000000000e-03 1.469195370000e-02
      vertex -3.000000000000e-03 -1.000000000000e-03 1.632439300000e-02
    endloop
  endfacet
  facet normal 1.0 0.0 0.0
    outer loop
      vertex -3.000000000000e-03 -1.500000000000e-03 1.469195370000e-02
      vertex -3.000000000000e-03 -1.000000000000e-03 1.632439300000e-02
      vertex -3.000000000000e-03 -1.500000000000e-03 1.632439300000e-02
    endloop
  endfacet
  facet normal 1.0 0.0 0.0
    outer loop
      vertex -3.000000000000e-03 -1.500000000000e-03 1.632439300000e-02
      vertex -3.000000000000e-03 -1.000000000000e-03 1.632439300000e-02
      vertex -3.000000000000e-03 -1.000000000000e-03 1.795683230000e-02
    endloop
  endfacet
  facet normal 1.0 0.0 0.0
    outer loop
      vertex -3.000000000000e-03 -1.500000000000e-03 1.632439300000e-02
      vertex -3.000000000000e-03 -1.000000000000e-03 1.795683230000e-02
      vertex -3.000000000000e-03 -1.500000000000e-03 1.795683230000e-02
    endloop
  endfacet
  facet normal 1.0 0.0 0.0
    outer loop
      vertex -3.000000000000e-03 -1.500000000000e-03 1.795683230000e-02
      vertex -3.000000000000e-03 -1.000000000000e-03 1.795683230000e-02
      vertex -3.000000000000e-03 -1.000000000000e-03 1.958927160000e-02
    endloop
  endfacet
  facet normal 1.0 0.0 0.0
    outer loop
      vertex -3.000000000000e-03 -1.500000000000e-03 1.795683230000e-02
      vertex -3.000000000000e-03 -1.000000000000e-03 1.958927160000e-02
      vertex -3.000000000000e-03 -1.500000000000e-03 1.958927160000e-02
    endloop
  endfacet
  facet normal 1.0 0.0 0.0
    outer loop
      vertex -3.000000000000e-03 -1.000000000000e-03 0.000000000000e+00
      vertex -3.000000000000e-03 -5.000000000000e-04 0.000000000000e+00
      vertex -3.000000000000e-03 -5.000000000000e-04 1.632439300000e-03
    endloop
  endfacet
  facet normal 1.0 0.0 0.0
    outer loop
      vertex -3.000000000000e-03 -1.000000000000e-03 0.000000000000e+00
      vertex -3.000000000000e-03 -5.000000000000e-04 1.632439300000e-03
      vertex -3.000000000000e-03 -1.000000000000e-03 1.632439300000e-03
    endloop
  endfacet
  facet normal 1.0 0.0 0.0
    outer loop
      vertex -3.000000000000e-03 -1.000000000000e-03 1.632439300000e-03
      vertex -3.000000000000e-03 -5.000000000000e-04 1.632439300000e-03
      vertex -3.000000000000e-03 -5.000000000000e-04 3.264878600000e-03
    endloop
  endfacet
  facet normal 1.0 0.0 0.0
    outer loop
      vertex -3.000000000000e-03 -1.000000000000e-03 1.632439300000e-03
      vertex -3.000000000000e-03 -5.000000000000e-04 3.264878600000e-03
      vertex -3.000000000000e-03 -1.000000000000e-03 3.264878600000e-03
    endloop
  endfacet
  facet normal 1.0 0.0 0.0
    outer loop
      vertex -3.000000000000e-03 -1.000000000000e-03 3.264878600000e-03
      vertex -3.000000000000e-03 -5.000000000000e-04 3.264878600000e-03
      vertex -3.000000000000e-03 -5.000000000000e-04 4.897317900000e-03
    endloop
  endfacet
  facet normal 1.0 0.0 0.0
    outer loop
      vertex -3.000000000000e-03 -1.000000000000e-03 3.264878600000e-03
      vertex -3.000000000000e-03 -5.000000000000e-04 4.897317900000e-03
      vertex -3.000000000000e-03 -1.000000000000e-03 4.897317900000e-03
    endloop
  endfacet
  facet normal 1.0 0.0 0.0
    outer loop
      vertex -3.000000000000e-03 -1.000000000000e-03 4.897317900000e-03
      vertex -3.000000000000e-03 -5.000000000000e-04 4.897317900000e-03
      vertex -3.000000000000e-03 -5.000000000000e-04 6.529757200000e-03
    endloop
  endfacet
  facet normal 1.0 0.0 0.0
    outer loop
      vertex -3.000000000000e-03 -1.000000000000e-03 4.897317900000e-03
      vertex -3.000000000000e-03 -5.000000000000e-04 6.529757200000e-03
      vertex -3.000000000000e-03 -1.000000000000e-03 6.529757200000e-03
    endloop
  endfacet
  facet normal 1.0 0.0 0.0
    outer loop
      vertex -3.000000000000e-03 -1.000000000000e-03 6.529757200000e-03
      vertex -3.000000000000e-03 -5.000000000000e-04 6.529757200000e-03
      vertex -3.000000000000e-03 -5.000000000000e-04 8.162196500000e-03
    endloop
  endfacet
  facet normal 1.0 0.0 0.0
    outer loop
      vertex -3.000000000000e-03 -1.000000000000e-03 6.529757200000e-03
      vertex -3.000000000000e-03 -5.000000000000e-04 8.162196500000e-03
      vertex -3.000000000000e-03 -1.000000000000e-03 8.162196500000e-03
    endloop
  endfacet
  facet normal 1.0 0.0 0.0
    outer loop
      vertex -3.000000000000e-03 -1.000000000000e-03 8.162196500000e-03
      vertex -3.000000000000e-03 -5.000000000000e-04 8.162196500000e-03
      vertex -3.000000000000e-03 -5.000000000000e-04 9.794635800000e-03
    endloop
  endfacet
  facet normal 1.0 0.0 0.0
    outer loop
      vertex -3.000000000000e-03 -1.000000000000e-03 8.162196500000e-03
      vertex -3.000000000000e-03 -5.000000000000e-04 9.794635800000e-03
      vertex -3.000000000000e-03 -1.000000000000e-03 9.794635800000e-03
    endloop
  endfacet
  facet normal 1.0 0.0 0.0
    outer loop
      vertex -3.000000000000e-03 -1.000000000000e-03 9.794635800000e-03
      vertex -3.000000000000e-03 -5.000000000000e-04 9.794635800000e-03
      vertex -3.000000000000e-03 -5.000000000000e-04 1.142707510000e-02
    endloop
  endfacet
  facet normal 1.0 0.0 0.0
    outer loop
      vertex -3.000000000000e-03 -1.000000000000e-03 9.794635800000e-03
      vertex -3.000000000000e-03 -5.000000000000e-04 1.142707510000e-02
      vertex -3.000000000000e-03 -1.000000000000e-03 1.142707510000e-02
    endloop
  endfacet
  facet normal 1.0 0.0 0.0
    outer loop
      vertex -3.000000000000e-03 -1.000000000000e-03 1.142707510000e-02
      vertex -3.000000000000e-03 -5.000000000000e-04 1.142707510000e-02
      vertex -3.000000000000e-03 -5.000000000000e-04 1.305951440000e-02
    endloop
  endfacet
  facet normal 1.0 0.0 0.0
    outer loop
      vertex -3.000000000000e-03 -1.000000000000e-03 1.142707510000e-02
      vertex -3.000000000000e-03 -5.000000000000e-04 1.305951440000e-02
      vertex -3.000000000000e-03 -1.000000000000e-03 1.305951440000e-02
    endloop
  endfacet
  facet normal 1.0 0.0 0.0
    outer loop
      vertex -3.000000000000e-03 -1.000000000000e-03 1.305951440000e-02
      vertex -3.000000000000e-03 -5.000000000000e-04 1.305951440000e-02
      vertex -3.000000000000e-03 -5.000000000000e-04 1.469195370000e-02
    endloop
  endfacet
  facet normal 1.0 0.0 0.0
    outer loop
      vertex -3.000000000000e-03 -1.000000000000e-03 1.305951440000e-02
      vertex -3.000000000000e-03 -5.000000000000e-04 1.469195370000e-02
      vertex -3.000000000000e-03 -1.000000000000e-03 1.469195370000e-02
    endloop
  endfacet
  facet normal 1.0 0.0 0.0
    outer loop
      vertex -3.000000000000e-03 -1.000000000000e-03 1.469195370000e-02
      vertex -3.000000000000e-03 -5.000000000000e-04 1.469195370000e-02
      vertex -3.000000000000e-03 -5.000000000000e-04 1.632439300000e-02
    endloop
  endfacet
  facet normal 1.0 0.0 0.0
    outer loop
      vertex -3.000000000000e-03 -1.000000000000e-03 1.469195370000e-02
      vertex -3.000000000000e-03 -5.000000000000e-04 1.632439300000e-02
      vertex -3.000000000000e-03 -1.000000000000e-03 1.632439300000e-02
    endloop
  endfacet
  facet normal 1.0 0.0 0.0
    outer loop
      vertex -3.000000000000e-03 -1.000000000000e-03 1.632439300000e-02
      vertex -3.000000000000e-03 -5.000000000000e-04 1.632439300000e-02
      vertex -3.000000000000e-03 -5.000000000000e-04 1.795683230000e-02
    endloop
  endfacet
  facet normal 1.0 0.0 0.0
    outer loop
      vertex -3.000000000000e-03 -1.000000000000e-03 1.632439300000e-02
      vertex -3.000000000000e-03 -5.000000000000e-04 1.795683230000e-02
      vertex -3.000000000000e-03 -1.000000000000e-03 1.795683230000e-02
    endloop
  endfacet
  facet normal 1.0 0.0 0.0
    outer loop
      vertex -3.000000000000e-03 -1.000000000000e-03 1.795683230000e-02
      vertex -3.000000000000e-03 -5.000000000000e-04 1.795683230000e-02
      vertex -3.000000000000e-03 -5.000000000000e-04 1.958927160000e-02
    endloop
  endfacet
  facet normal 1.0 0.0 0.0
    outer loop
      vertex -3.000000000000e-03 -1.000000000000e-03 1.795683230000e-02
      vertex -3.000000000000e-03 -5.000000000000e-04 1.958927160000e-02
      vertex -3.000000000000e-03 -1.000000000000e-03 1.958927160000e-02
    endloop
  endfacet
  facet normal 1.0 0.0 0.0
    outer loop
      vertex -3.000000000000e-03 -5.000000000000e-04 0.000000000000e+00
      vertex -3.000000000000e-03 0.000000000000e+00 0.000000000000e+00
      vertex -3.000000000000e-03 0.000000000000e+00 1.632439300000e-03
    endloop
  endfacet
  facet normal 1.0 0.0 0.0
    outer loop
      vertex -3.000000000000e-03 -5.000000000000e-04 0.000000000000e+00
      vertex -3.000000000000e-03 0.000000000000e+00 1.632439300000e-03
      vertex -3.000000000000e-03 -5.000000000000e-04 1.632439300000e-03
    endloop
  endfacet
  facet normal 1.0 0.0 0.0
    outer loop
      vertex -3.000000000000e-03 -5.000000000000e-04 1.632439300000e-03
      vertex -3.000000000000e-03 0.000000000000e+00 1.632439300000e-03
      vertex -3.000000000000e-03 0.000000000000e+00 3.264878600000e-03
    endloop
  endfacet
  facet normal 1.0 0.0 0.0
    outer loop
      vertex -3.000000000000e-03 -5.000000000000e-04 1.632439300000e-03
      vertex -3.000000000000e-03 0.000000000000e+00 3.264878600000e-03
      vertex -3.000000000000e-03 -5.000000000000e-04 3.264878600000e-03
    endloop
  endfacet
  facet normal 1.0 0.0 0.0
    outer loop
      vertex -3.000000000000e-03 -5.000000000000e-04 3.264878600000e-03
      vertex -3.000000000000e-03 0.000000000000e+00 3.264878600000e-03
      vertex -3.000000000000e-03 0.000000000000e+00 4.897317900000e-03
    endloop
  endfacet
  facet normal 1.0 0.0 0.0
    outer loop
      vertex -3.000000000000e-03 -5.000000000000e-04 3.264878600000e-03
      vertex -3.000000000000e-03 0.000000000000e+00 4.897317900000e-03
      vertex -3.000000000000e-03 -5.000000000000e-04 4.897317900000e-03
    endloop
  endfacet
  facet normal 1.0 0.0 0.0
    outer loop
      vertex -3.000000000000e-03 -5.000000000000e-04 4.897317900000e-03
      vertex -3.000000000000e-03 0.000000000000e+00 4.897317900000e-03
      vertex -3.000000000000e-03 0.000000000000e+00 6.529757200000e-03
    endloop
  endfacet
  facet normal 1.0 0.0 0.0
    outer loop
      vertex -3.000000000000e-03 -5.000000000000e-04 4.897317900000e-03
      vertex -3.000000000000e-03 0.000000000000e+00 6.529757200000e-03
      vertex -3.000000000000e-03 -5.000000000000e-04 6.529757200000e-03
    endloop
  endfacet
  facet normal 1.0 0.0 0.0
    outer loop
      vertex -3.000000000000e-03 -5.000000000000e-04 6.529757200000e-03
      vertex -3.000000000000e-03 0.000000000000e+00 6.529757200000e-03
      vertex -3.000000000000e-03 0.000000000000e+00 8.162196500000e-03
    endloop
  endfacet
  facet normal 1.0 0.0 0.0
    outer loop
      vertex -3.000000000000e-03 -5.000000000000e-04 6.529757200000e-03
      vertex -3.000000000000e-03 0.000000000000e+00 8.162196500000e-03
      vertex -3.000000000000e-03 -5.000000000000e-04 8.162196500000e-03
    endloop
  endfacet
  facet normal 1.0 0.0 0.0
    outer loop
      vertex -3.000000000000e-03 -5.000000000000e-04 8.162196500000e-03
      vertex -3.000000000000e-03 0.000000000000e+00 8.162196500000e-03
      vertex -3.000000000000e-03 0.000000000000e+00 9.794635800000e-03
    endloop
  endfacet
  facet normal 1.0 0.0 0.0
    outer loop
      vertex -3.000000000000e-03 -5.000000000000e-04 8.162196500000e-03
      vertex -3.000000000000e-03 0.000000000000e+00 9.794635800000e-03
      vertex -3.000000000000e-03 -5.000000000000e-04 9.794635800000e-03
    endloop
  endfacet
  facet normal 1.0 0.0 0.0
    outer loop
      vertex -3.000000000000e-03 -5.000000000000e-04 9.794635800000e-03
      vertex -3.000000000000e-03 0.000000000000e+00 9.794635800000e-03
      vertex -3.000000000000e-03 0.000000000000e+00 1.142707510000e-02
    endloop
  endfacet
  facet normal 1.0 0.0 0.0
    outer loop
      vertex -3.000000000000e-03 -5.000000000000e-04 9.794635800000e-03
      vertex -3.000000000000e-03 0.000000000000e+00 1.142707510000e-02
      vertex -3.000000000000e-03 -5.000000000000e-04 1.142707510000e-02
    endloop
  endfacet
  facet normal 1.0 0.0 0.0
    outer loop
      vertex -3.000000000000e-03 -5.000000000000e-04 1.142707510000e-02
      vertex -3.000000000000e-03 0.000000000000e+00 1.142707510000e-02
      vertex -3.000000000000e-03 0.000000000000e+00 1.305951440000e-02
    endloop
  endfacet
  facet normal 1.0 0.0 0.0
    outer loop
      vertex -3.000000000000e-03 -5.000000000000e-04 1.142707510000e-02
      vertex -3.000000000000e-03 0.000000000000e+00 1.305951440000e-02
      vertex -3.000000000000e-03 -5.000000000000e-04 1.305951440000e-02
    endloop
  endfacet
  facet normal 1.0 0.0 0.0
    outer loop
      vertex -3.000000000000e-03 -5.000000000000e-04 1.305951440000e-02
      vertex -3.000000000000e-03 0.000000000000e+00 1.305951440000e-02
      vertex -3.000000000000e-03 0.000000000000e+00 1.469195370000e-02
    endloop
  endfacet
  facet normal 1.0 0.0 0.0
    outer loop
      vertex -3.000000000000e-03 -5.000000000000e-04 1.305951440000e-02
      vertex -3.000000000000e-03 0.000000000000e+00 1.469195370000e-02
      vertex -3.000000000000e-03 -5.000000000000e-04 1.469195370000e-02
    endloop
  endfacet
  facet normal 1.0 0.0 0.0
    outer loop
      vertex -3.000000000000e-03 -5.000000000000e-04 1.469195370000e-02
      vertex -3.000000000000e-03 0.000000000000e+00 1.469195370000e-02
      vertex -3.000000000000e-03 0.000000000000e+00 1.632439300000e-02
    endloop
  endfacet
  facet normal 1.0 0.0 0.0
    outer loop
      vertex -3.000000000000e-03 -5.000000000000e-04 1.469195370000e-02
      vertex -3.000000000000e-03 0.000000000000e+00 1.632439300000e-02
      vertex -3.000000000000e-03 -5.000000000000e-04 1.632439300000e-02
    endloop
  endfacet
  facet normal 1.0 0.0 0.0
    outer loop
      vertex -3.000000000000e-03 -5.000000000000e-04 1.632439300000e-02
      vertex -3.000000000000e-03 0.000000000000e+00 1.632439300000e-02
      vertex -3.000000000000e-03 0.000000000000e+00 1.795683230000e-02
    endloop
  endfacet
  facet normal 1.0 0.0 0.0
    outer loop
      vertex -3.000000000000e-03 -5.000000000000e-04 1.632439300000e-02
      vertex -3.000000000000e-03 0.000000000000e+00 1.795683230000e-02
      vertex -3.000000000000e-03 -5.000000000000e-04 1.795683230000e-02
    endloop
  endfacet
  facet normal 1.0 0.0 0.0
    outer loop
      vertex -3.000000000000e-03 -5.000000000000e-04 1.795683230000e-02
      vertex -3.000000000000e-03 0.000000000000e+00 1.795683230000e-02
      vertex -3.000000000000e-03 0.000000000000e+00 1.958927160000e-02
    endloop
  endfacet
  facet normal 1.0 0.0 0.0
    outer loop
      vertex -3.000000000000e-03 -5.000000000000e-04 1.795683230000e-02
      vertex -3.000000000000e-03 0.000000000000e+00 1.958927160000e-02
      vertex -3.000000000000e-03 -5.000000000000e-04 1.958927160000e-02
    endloop
  endfacet
  facet normal 1.0 0.0 0.0
    outer loop
      vertex -3.000000000000e-03 0.000000000000e+00 0.000000000000e+00
      vertex -3.000000000000e-03 5.000000000000e-04 0.000000000000e+00
      vertex -3.000000000000e-03 5.000000000000e-04 1.632439300000e-03
    endloop
  endfacet
  facet normal 1.0 0.0 0.0
    outer loop
      vertex -3.000000000000e-03 0.000000000000e+00 0.000000000000e+00
      vertex -3.000000000000e-03 5.000000000000e-04 1.632439300000e-03
      vertex -3.000000000000e-03 0.000000000000e+00 1.632439300000e-03
    endloop
  endfacet
  facet normal 1.0 0.0 0.0
    outer loop
      vertex -3.000000000000e-03 0.000000000000e+00 1.632439300000e-03
      vertex -3.000000000000e-03 5.000000000000e-04 1.632439300000e-03
      vertex -3.000000000000e-03 5.000000000000e-04 3.264878600000e-03
    endloop
  endfacet
  facet normal 1.0 0.0 0.0
    outer loop
      vertex -3.000000000000e-03 0.000000000000e+00 1.632439300000e-03
      vertex -3.000000000000e-03 5.000000000000e-04 3.264878600000e-03
      vertex -3.000000000000e-03 0.000000000000e+00 3.264878600000e-03
    endloop
  endfacet
  facet normal 1.0 0.0 0.0
    outer loop
      vertex -3.000000000000e-03 0.000000000000e+00 3.264878600000e-03
      vertex -3.000000000000e-03 5.000000000000e-04 3.264878600000e-03
      vertex -3.000000000000e-03 5.000000000000e-04 4.897317900000e-03
    endloop
  endfacet
  facet normal 1.0 0.0 0.0
    outer loop
      vertex -3.000000000000e-03 0.000000000000e+00 3.264878600000e-03
      vertex -3.000000000000e-03 5.000000000000e-04 4.897317900000e-03
      vertex -3.000000000000e-03 0.000000000000e+00 4.897317900000e-03
    endloop
  endfacet
  facet normal 1.0 0.0 0.0
    outer loop
      vertex -3.000000000000e-03 0.000000000000e+00 4.897317900000e-03
      vertex -3.000000000000e-03 5.000000000000e-04 4.897317900000e-03
      vertex -3.000000000000e-03 5.000000000000e-04 6.529757200000e-03
    endloop
  endfacet
  facet normal 1.0 0.0 0.0
    outer loop
      vertex -3.000000000000e-03 0.000000000000e+00 4.897317900000e-03
      vertex -3.000000000000e-03 5.000000000000e-04 6.529757200000e-03
      vertex -3.000000000000e-03 0.000000000000e+00 6.529757200000e-03
    endloop
  endfacet
  facet normal 1.0 0.0 0.0
    outer loop
      vertex -3.000000000000e-03 0.000000000000e+00 6.529757200000e-03
      vertex -3.000000000000e-03 5.000000000000e-04 6.529757200000e-03
      vertex -3.000000000000e-03 5.000000000000e-04 8.162196500000e-03
    endloop
  endfacet
  facet normal 1.0 0.0 0.0
    outer loop
      vertex -3.000000000000e-03 0.000000000000e+00 6.529757200000e-03
      vertex -3.000000000000e-03 5.000000000000e-04 8.162196500000e-03
      vertex -3.000000000000e-03 0.000000000000e+00 8.162196500000e-03
    endloop
  endfacet
  facet normal 1.0 0.0 0.0
    outer loop
      vertex -3.000000000000e-03 0.000000000000e+00 8.162196500000e-03
      vertex -3.000000000000e-03 5.000000000000e-04 8.162196500000e-03
      vertex -3.000000000000e-03 5.000000000000e-04 9.794635800000e-03
    endloop
  endfacet
  facet normal 1.0 0.0 0.0
    outer loop
      vertex -3.000000000000e-03 0.000000000000e+00 8.162196500000e-03
      vertex -3.000000000000e-03 5.000000000000e-04 9.794635800000e-03
      vertex -3.000000000000e-03 0.000000000000e+00 9.794635800000e-03
    endloop
  endfacet
  facet normal 1.0 0.0 0.0
    outer loop
      vertex -3.000000000000e-03 0.000000000000e+00 9.794635800000e-03
      vertex -3.000000000000e-03 5.000000000000e-04 9.794635800000e-03
      vertex -3.000000000000e-03 5.000000000000e-04 1.142707510000e-02
    endloop
  endfacet
  facet normal 1.0 0.0 0.0
    outer loop
      vertex -3.000000000000e-03 0.000000000000e+00 9.794635800000e-03
      vertex -3.000000000000e-03 5.000000000000e-04 1.142707510000e-02
      vertex -3.000000000000e-03 0.000000000000e+00 1.142707510000e-02
    endloop
  endfacet
  facet normal 1.0 0.0 0.0
    outer loop
      vertex -3.000000000000e-03 0.000000000000e+00 1.142707510000e-02
      vertex -3.000000000000e-03 5.000000000000e-04 1.142707510000e-02
      vertex -3.000000000000e-03 5.000000000000e-04 1.305951440000e-02
    endloop
  endfacet
  facet normal 1.0 0.0 0.0
    outer loop
      vertex -3.000000000000e-03 0.000000000000e+00 1.142707510000e-02
      vertex -3.000000000000e-03 5.000000000000e-04 1.305951440000e-02
      vertex -3.000000000000e-03 0.000000000000e+00 1.305951440000e-02
    endloop
  endfacet
  facet normal 1.0 0.0 0.0
    outer loop
      vertex -3.000000000000e-03 0.000000000000e+00 1.305951440000e-02
      vertex -3.000000000000e-03 5.000000000000e-04 1.305951440000e-02
      vertex -3.000000000000e-03 5.000000000000e-04 1.469195370000e-02
    endloop
  endfacet
  facet normal 1.0 0.0 0.0
    outer loop
      vertex -3.000000000000e-03 0.000000000000e+00 1.305951440000e-02
      vertex -3.000000000000e-03 5.000000000000e-04 1.469195370000e-02
      vertex -3.000000000000e-03 0.000000000000e+00 1.469195370000e-02
    endloop
  endfacet
  facet normal 1.0 0.0 0.0
    outer loop
      vertex -3.000000000000e-03 0.000000000000e+00 1.469195370000e-02
      vertex -3.000000000000e-03 5.000000000000e-04 1.469195370000e-02
      vertex -3.000000000000e-03 5.000000000000e-04 1.632439300000e-02
    endloop
  endfacet
  facet normal 1.0 0.0 0.0
    outer loop
      vertex -3.000000000000e-03 0.000000000000e+00 1.469195370000e-02
      vertex -3.000000000000e-03 5.000000000000e-04 1.632439300000e-02
      vertex -3.000000000000e-03 0.000000000000e+00 1.632439300000e-02
    endloop
  endfacet
  facet normal 1.0 0.0 0.0
    outer loop
      vertex -3.000000000000e-03 0.000000000000e+00 1.632439300000e-02
      vertex -3.000000000000e-03 5.000000000000e-04 1.632439300000e-02
      vertex -3.000000000000e-03 5.000000000000e-04 1.795683230000e-02
    endloop
  endfacet
  facet normal 1.0 0.0 0.0
    outer loop
      vertex -3.000000000000e-03 0.000000000000e+00 1.632439300000e-02
      vertex -3.000000000000e-03 5.000000000000e-04 1.795683230000e-02
      vertex -3.000000000000e-03 0.000000000000e+00 1.795683230000e-02
    endloop
  endfacet
  facet normal 1.0 0.0 0.0
    outer loop
      vertex -3.000000000000e-03 0.000000000000e+00 1.795683230000e-02
      vertex -3.000000000000e-03 5.000000000000e-04 1.795683230000e-02
      vertex -3.000000000000e-03 5.000000000000e-04 1.958927160000e-02
    endloop
  endfacet
  facet normal 1.0 0.0 0.0
    outer loop
      vertex -3.000000000000e-03 0.000000000000e+00 1.795683230000e-02
      vertex -3.000000000000e-03 5.000000000000e-04 1.958927160000e-02
      vertex -3.000000000000e-03 0.000000000000e+00 1.958927160000e-02
    endloop
  endfacet
  facet normal 1.0 0.0 0.0
    outer loop
      vertex -3.000000000000e-03 5.000000000000e-04 0.000000000000e+00
      vertex -3.000000000000e-03 1.000000000000e-03 0.000000000000e+00
      vertex -3.000000000000e-03 1.000000000000e-03 1.632439300000e-03
    endloop
  endfacet
  facet normal 1.0 0.0 0.0
    outer loop
      vertex -3.000000000000e-03 5.000000000000e-04 0.000000000000e+00
      vertex -3.000000000000e-03 1.000000000000e-03 1.632439300000e-03
      vertex -3.000000000000e-03 5.000000000000e-04 1.632439300000e-03
    endloop
  endfacet
  facet normal 1.0 0.0 0.0
    outer loop
      vertex -3.000000000000e-03 5.000000000000e-04 1.632439300000e-03
      vertex -3.000000000000e-03 1.000000000000e-03 1.632439300000e-03
      vertex -3.000000000000e-03 1.000000000000e-03 3.264878600000e-03
    endloop
  endfacet
  facet normal 1.0 0.0 0.0
    outer loop
      vertex -3.000000000000e-03 5.000000000000e-04 1.632439300000e-03
      vertex -3.000000000000e-03 1.000000000000e-03 3.264878600000e-03
      vertex -3.000000000000e-03 5.000000000000e-04 3.264878600000e-03
    endloop
  endfacet
  facet normal 1.0 0.0 0.0
    outer loop
      vertex -3.000000000000e-03 5.000000000000e-04 3.264878600000e-03
      vertex -3.000000000000e-03 1.000000000000e-03 3.264878600000e-03
      vertex -3.000000000000e-03 1.000000000000e-03 4.897317900000e-03
    endloop
  endfacet
  facet normal 1.0 0.0 0.0
    outer loop
      vertex -3.000000000000e-03 5.000000000000e-04 3.264878600000e-03
      vertex -3.000000000000e-03 1.000000000000e-03 4.897317900000e-03
      vertex -3.000000000000e-03 5.000000000000e-04 4.897317900000e-03
    endloop
  endfacet
  facet normal 1.0 0.0 0.0
    outer loop
      vertex -3.000000000000e-03 5.000000000000e-04 4.897317900000e-03
      vertex -3.000000000000e-03 1.000000000000e-03 4.897317900000e-03
      vertex -3.000000000000e-03 1.000000000000e-03 6.529757200000e-03
    endloop
  endfacet
  facet normal 1.0 0.0 0.0
    outer loop
      vertex -3.000000000000e-03 5.000000000000e-04 4.897317900000e-03
      vertex -3.000000000000e-03 1.000000000000e-03 6.529757200000e-03
      vertex -3.000000000000e-03 5.000000000000e-04 6.529757200000e-03
    endloop
  endfacet
  facet normal 1.0 0.0 0.0
    outer loop
      vertex -3.000000000000e-03 5.000000000000e-04 6.529757200000e-03
      vertex -3.000000000000e-03 1.000000000000e-03 6.529757200000e-03
      vertex -3.000000000000e-03 1.000000000000e-03 8.162196500000e-03
    endloop
  endfacet
  facet normal 1.0 0.0 0.0
    outer loop
      vertex -3.000000000000e-03 5.000000000000e-04 6.529757200000e-03
      vertex -3.000000000000e-03 1.000000000000e-03 8.162196500000e-03
      vertex -3.000000000000e-03 5.000000000000e-04 8.162196500000e-03
    endloop
  endfacet
  facet normal 1.0 0.0 0.0
    outer loop
      vertex -3.000000000000e-03 5.000000000000e-04 8.162196500000e-03
      vertex -3.000000000000e-03 1.000000000000e-03 8.162196500000e-03
      vertex -3.000000000000e-03 1.000000000000e-03 9.794635800000e-03
    endloop
  endfacet
  facet normal 1.0 0.0 0.0
    outer loop
      vertex -3.000000000000e-03 5.000000000000e-04 8.162196500000e-03
      vertex -3.000000000000e-03 1.000000000000e-03 9.794635800000e-03
      vertex -3.000000000000e-03 5.000000000000e-04 9.794635800000e-03
    endloop
  endfacet
  facet normal 1.0 0.0 0.0
    outer loop
      vertex -3.000000000000e-03 5.000000000000e-04 9.794635800000e-03
      vertex -3.000000000000e-03 1.000000000000e-03 9.794635800000e-03
      vertex -3.000000000000e-03 1.000000000000e-03 1.142707510000e-02
    endloop
  endfacet
  facet normal 1.0 0.0 0.0
    outer loop
      vertex -3.000000000000e-03 5.000000000000e-04 9.794635800000e-03
      vertex -3.000000000000e-03 1.000000000000e-03 1.142707510000e-02
      vertex -3.000000000000e-03 5.000000000000e-04 1.142707510000e-02
    endloop
  endfacet
  facet normal 1.0 0.0 0.0
    outer loop
      vertex -3.000000000000e-03 5.000000000000e-04 1.142707510000e-02
      vertex -3.000000000000e-03 1.000000000000e-03 1.142707510000e-02
      vertex -3.000000000000e-03 1.000000000000e-03 1.305951440000e-02
    endloop
  endfacet
  facet normal 1.0 0.0 0.0
    outer loop
      vertex -3.000000000000e-03 5.000000000000e-04 1.142707510000e-02
      vertex -3.000000000000e-03 1.000000000000e-03 1.305951440000e-02
      vertex -3.000000000000e-03 5.000000000000e-04 1.305951440000e-02
    endloop
  endfacet
  facet normal 1.0 0.0 0.0
    outer loop
      vertex -3.000000000000e-03 5.000000000000e-04 1.305951440000e-02
      vertex -3.000000000000e-03 1.000000000000e-03 1.305951440000e-02
      vertex -3.000000000000e-03 1.000000000000e-03 1.469195370000e-02
    endloop
  endfacet
  facet normal 1.0 0.0 0.0
    outer loop
      vertex -3.000000000000e-03 5.000000000000e-04 1.305951440000e-02
      vertex -3.000000000000e-03 1.000000000000e-03 1.469195370000e-02
      vertex -3.000000000000e-03 5.000000000000e-04 1.469195370000e-02
    endloop
  endfacet
  facet normal 1.0 0.0 0.0
    outer loop
      vertex -3.000000000000e-03 5.000000000000e-04 1.469195370000e-02
      vertex -3.000000000000e-03 1.000000000000e-03 1.469195370000e-02
      vertex -3.000000000000e-03 1.000000000000e-03 1.632439300000e-02
    endloop
  endfacet
  facet normal 1.0 0.0 0.0
    outer loop
      vertex -3.000000000000e-03 5.000000000000e-04 1.469195370000e-02
      vertex -3.000000000000e-03 1.000000000000e-03 1.632439300000e-02
      vertex -3.000000000000e-03 5.000000000000e-04 1.632439300000e-02
    endloop
  endfacet
  facet normal 1.0 0.0 0.0
    outer loop
      vertex -3.000000000000e-03 5.000000000000e-04 1.632439300000e-02
      vertex -3.000000000000e-03 1.000000000000e-03 1.632439300000e-02
      vertex -3.000000000000e-03 1.000000000000e-03 1.795683230000e-02
    endloop
  endfacet
  facet normal 1.0 0.0 0.0
    outer loop
      vertex -3.000000000000e-03 5.000000000000e-04 1.632439300000e-02
      vertex -3.000000000000e-03 1.000000000000e-03 1.795683230000e-02
      vertex -3.000000000000e-03 5.000000000000e-04 1.795683230000e-02
    endloop
  endfacet
  facet normal 1.0 0.0 0.0
    outer loop
      vertex -3.000000000000e-03 5.000000000000e-04 1.795683230000e-02
      vertex -3.000000000000e-03 1.000000000000e-03 1.795683230000e-02
      vertex -3.000000000000e-03 1.000000000000e-03 1.958927160000e-02
    endloop
  endfacet
  facet normal 1.0 0.0 0.0
    outer loop
      vertex -3.000000000000e-03 5.000000000000e-04 1.795683230000e-02
      vertex -3.000000000000e-03 1.000000000000e-03 1.958927160000e-02
      vertex -3.000000000000e-03 5.000000000000e-04 1.958927160000e-02
    endloop
  endfacet
  facet normal 1.0 0.0 0.0
    outer loop
      vertex -3.000000000000e-03 1.000000000000e-03 0.000000000000e+00
      vertex -3.000000000000e-03 1.500000000000e-03 0.000000000000e+00
      vertex -3.000000000000e-03 1.500000000000e-03 1.632439300000e-03
    endloop
  endfacet
  facet normal 1.0 0.0 0.0
    outer loop
      vertex -3.000000000000e-03 1.000000000000e-03 0.000000000000e+00
      vertex -3.000000000000e-03 1.500000000000e-03 1.632439300000e-03
      vertex -3.000000000000e-03 1.000000000000e-03 1.632439300000e-03
    endloop
  endfacet
  facet normal 1.0 0.0 0.0
    outer loop
      vertex -3.000000000000e-03 1.000000000000e-03 1.632439300000e-03
      vertex -3.000000000000e-03 1.500000000000e-03 1.632439300000e-03
      vertex -3.000000000000e-03 1.500000000000e-03 3.264878600000e-03
    endloop
  endfacet
  facet normal 1.0 0.0 0.0
    outer loop
      vertex -3.000000000000e-03 1.000000000000e-03 1.632439300000e-03
      vertex -3.000000000000e-03 1.500000000000e-03 3.264878600000e-03
      vertex -3.000000000000e-03 1.000000000000e-03 3.264878600000e-03
    endloop
  endfacet
  facet normal 1.0 0.0 0.0
    outer loop
      vertex -3.000000000000e-03 1.000000000000e-03 3.264878600000e-03
      vertex -3.000000000000e-03 1.500000000000e-03 3.264878600000e-03
      vertex -3.000000000000e-03 1.500000000000e-03 4.897317900000e-03
    endloop
  endfacet
  facet normal 1.0 0.0 0.0
    outer loop
      vertex -3.000000000000e-03 1.000000000000e-03 3.264878600000e-03
      vertex -3.000000000000e-03 1.500000000000e-03 4.897317900000e-03
      vertex -3.000000000000e-03 1.000000000000e-03 4.897317900000e-03
    endloop
  endfacet
  facet normal 1.0 0.0 0.0
    outer loop
      vertex -3.000000000000e-03 1.000000000000e-03 4.897317900000e-03
      vertex -3.000000000000e-03 1.500000000000e-03 4.897317900000e-03
      vertex -3.000000000000e-03 1.500000000000e-03 6.529757200000e-03
    endloop
  endfacet
  facet normal 1.0 0.0 0.0
    outer loop
      vertex -3.000000000000e-03 1.000000000000e-03 4.897317900000e-03
      vertex -3.000000000000e-03 1.500000000000e-03 6.529757200000e-03
      vertex -3.000000000000e-03 1.000000000000e-03 6.529757200000e-03
    endloop
  endfacet
  facet normal 1.0 0.0 0.0
    outer loop
      vertex -3.000000000000e-03 1.000000000000e-03 6.529757200000e-03
      vertex -3.000000000000e-03 1.500000000000e-03 6.529757200000e-03
      vertex -3.000000000000e-03 1.500000000000e-03 8.162196500000e-03
    endloop
  endfacet
  facet normal 1.0 0.0 0.0
    outer loop
      vertex -3.000000000000e-03 1.000000000000e-03 6.529757200000e-03
      vertex -3.000000000000e-03 1.500000000000e-03 8.162196500000e-03
      vertex -3.000000000000e-03 1.000000000000e-03 8.162196500000e-03
    endloop
  endfacet
  facet normal 1.0 0.0 0.0
    outer loop
      vertex -3.000000000000e-03 1.000000000000e-03 8.162196500000e-03
      vertex -3.000000000000e-03 1.500000000000e-03 8.162196500000e-03
      vertex -3.000000000000e-03 1.500000000000e-03 9.794635800000e-03
    endloop
  endfacet
  facet normal 1.0 0.0 0.0
    outer loop
      vertex -3.000000000000e-03 1.000000000000e-03 8.162196500000e-03
      vertex -3.000000000000e-03 1.500000000000e-03 9.794635800000e-03
      vertex -3.000000000000e-03 1.000000000000e-03 9.794635800000e-03
    endloop
  endfacet
  facet normal 1.0 0.0 0.0
    outer loop
      vertex -3.000000000000e-03 1.000000000000e-03 9.794635800000e-03
      vertex -3.000000000000e-03 1.500000000000e-03 9.794635800000e-03
      vertex -3.000000000000e-03 1.500000000000e-03 1.142707510000e-02
    endloop
  endfacet
  facet normal 1.0 0.0 0.0
    outer loop
      vertex -3.000000000000e-03 1.000000000000e-03 9.794635800000e-03
      vertex -3.000000000000e-03 1.500000000000e-03 1.142707510000e-02
      vertex -3.000000000000e-03 1.000000000000e-03 1.142707510000e-02
    endloop
  endfacet
  facet normal 1.0 0.0 0.0
    outer loop
      vertex -3.000000000000e-03 1.000000000000e-03 1.142707510000e-02
      vertex -3.000000000000e-03 1.500000000000e-03 1.142707510000e-02
      vertex -3.000000000000e-03 1.500000000000e-03 1.305951440000e-02
    endloop
  endfacet
  facet normal 1.0 0.0 0.0
    outer loop
      vertex -3.000000000000e-03 1.000000000000e-03 1.142707510000e-02
      vertex -3.000000000000e-03 1.500000000000e-03 1.305951440000e-02
      vertex -3.000000000000e-03 1.000000000000e-03 1.305951440000e-02
    endloop
  endfacet
  facet normal 1.0 0.0 0.0
    outer loop
      vertex -3.000000000000e-03 1.000000000000e-03 1.305951440000e-02
      vertex -3.000000000000e-03 1.500000000000e-03 1.305951440000e-02
      vertex -3.000000000000e-03 1.500000000000e-03 1.469195370000e-02
    endloop
  endfacet
  facet normal 1.0 0.0 0.0
    outer loop
      vertex -3.000000000000e-03 1.000000000000e-03 1.305951440000e-02
      vertex -3.000000000000e-03 1.500000000000e-03 1.469195370000e-02
      vertex -3.000000000000e-03 1.000000000000e-03 1.469195370000e-02
    endloop
  endfacet
  facet normal 1.0 0.0 0.0
    outer loop
      vertex -3.000000000000e-03 1.000000000000e-03 1.469195370000e-02
      vertex -3.000000000000e-03 1.500000000000e-03 1.469195370000e-02
      vertex -3.000000000000e-03 1.500000000000e-03 1.632439300000e-02
    endloop
  endfacet
  facet normal 1.0 0.0 0.0
    outer loop
      vertex -3.000000000000e-03 1.000000000000e-03 1.469195370000e-02
      vertex -3.000000000000e-03 1.500000000000e-03 1.632439300000e-02
      vertex -3.000000000000e-03 1.000000000000e-03 1.632439300000e-02
    endloop
  endfacet
  facet normal 1.0 0.0 0.0
    outer loop
      vertex -3.000000000000e-03 1.000000000000e-03 1.632439300000e-02
      vertex -3.000000000000e-03 1.500000000000e-03 1.632439300000e-02
      vertex -3.000000000000e-03 1.500000000000e-03 1.795683230000e-02
    endloop
  endfacet
  facet normal 1.0 0.0 0.0
    outer loop
      vertex -3.000000000000e-03 1.000000000000e-03 1.632439300000e-02
      vertex -3.000000000000e-03 1.500000000000e-03 1.795683230000e-02
      vertex -3.000000000000e-03 1.000000000000e-03 1.795683230000e-02
    endloop
  endfacet
  facet normal 1.0 0.0 0.0
    outer loop
      vertex -3.000000000000e-03 1.000000000000e-03 1.795683230000e-02
      vertex -3.000000000000e-03 1.500000000000e-03 1.795683230000e-02
      vertex -3.000000000000e-03 1.500000000000e-03 1.958927160000e-02
    endloop
  endfacet
  facet normal 1.0 0.0 0.0
    outer loop
      vertex -3.000000000000e-03 1.000000000000e-03 1.795683230000e-02
      vertex -3.000000000000e-03 1.500000000000e-03 1.958927160000e-02
      vertex -3.000000000000e-03 1.000000000000e-03 1.958927160000e-02
    endloop
  endfacet
  facet normal 1.0 0.0 0.0
    outer loop
      vertex -3.000000000000e-03 1.500000000000e-03 0.000000000000e+00
      vertex -3.000000000000e-03 2.000000000000e-03 0.000000000000e+00
      vertex -3.000000000000e-03 2.000000000000e-03 1.632439300000e-03
    endloop
  endfacet
  facet normal 1.0 0.0 0.0
    outer loop
      vertex -3.000000000000e-03 1.500000000000e-03 0.000000000000e+00
      vertex -3.000000000000e-03 2.000000000000e-03 1.632439300000e-03
      vertex -3.000000000000e-03 1.500000000000e-03 1.632439300000e-03
    endloop
  endfacet
  facet normal 1.0 0.0 0.0
    outer loop
      vertex -3.000000000000e-03 1.500000000000e-03 1.632439300000e-03
      vertex -3.000000000000e-03 2.000000000000e-03 1.632439300000e-03
      vertex -3.000000000000e-03 2.000000000000e-03 3.264878600000e-03
    endloop
  endfacet
  facet normal 1.0 0.0 0.0
    outer loop
      vertex -3.000000000000e-03 1.500000000000e-03 1.632439300000e-03
      vertex -3.000000000000e-03 2.000000000000e-03 3.264878600000e-03
      vertex -3.000000000000e-03 1.500000000000e-03 3.264878600000e-03
    endloop
  endfacet
  facet normal 1.0 0.0 0.0
    outer loop
      vertex -3.000000000000e-03 1.500000000000e-03 3.264878600000e-03
      vertex -3.000000000000e-03 2.000000000000e-03 3.264878600000e-03
      vertex -3.000000000000e-03 2.000000000000e-03 4.897317900000e-03
    endloop
  endfacet
  facet normal 1.0 0.0 0.0
    outer loop
      vertex -3.000000000000e-03 1.500000000000e-03 3.264878600000e-03
      vertex -3.000000000000e-03 2.000000000000e-03 4.897317900000e-03
      vertex -3.000000000000e-03 1.500000000000e-03 4.897317900000e-03
    endloop
  endfacet
  facet normal 1.0 0.0 0.0
    outer loop
      vertex -3.000000000000e-03 1.500000000000e-03 4.897317900000e-03
      vertex -3.000000000000e-03 2.000000000000e-03 4.897317900000e-03
      vertex -3.000000000000e-03 2.000000000000e-03 6.529757200000e-03
    endloop
  endfacet
  facet normal 1.0 0.0 0.0
    outer loop
      vertex -3.000000000000e-03 1.500000000000e-03 4.897317900000e-03
      vertex -3.000000000000e-03 2.000000000000e-03 6.529757200000e-03
      vertex -3.000000000000e-03 1.500000000000e-03 6.529757200000e-03
    endloop
  endfacet
  facet normal 1.0 0.0 0.0
    outer loop
      vertex -3.000000000000e-03 1.500000000000e-03 6.529757200000e-03
      vertex -3.000000000000e-03 2.000000000000e-03 6.529757200000e-03
      vertex -3.000000000000e-03 2.000000000000e-03 8.162196500000e-03
    endloop
  endfacet
  facet normal 1.0 0.0 0.0
    outer loop
      vertex -3.000000000000e-03 1.500000000000e-03 6.529757200000e-03
      vertex -3.000000000000e-03 2.000000000000e-03 8.162196500000e-03
      vertex -3.000000000000e-03 1.500000000000e-03 8.162196500000e-03
    endloop
  endfacet
  facet normal 1.0 0.0 0.0
    outer loop
      vertex -3.000000000000e-03 1.500000000000e-03 8.162196500000e-03
      vertex -3.000000000000e-03 2.000000000000e-03 8.162196500000e-03
      vertex -3.000000000000e-03 2.000000000000e-03 9.794635800000e-03
    endloop
  endfacet
  facet normal 1.0 0.0 0.0
    outer loop
      vertex -3.000000000000e-03 1.500000000000e-03 8.162196500000e-03
      vertex -3.000000000000e-03 2.000000000000e-03 9.794635800000e-03
      vertex -3.000000000000e-03 1.500000000000e-03 9.794635800000e-03
    endloop
  endfacet
  facet normal 1.0 0.0 0.0
    outer loop
      vertex -3.000000000000e-03 1.500000000000e-03 9.794635800000e-03
      vertex -3.000000000000e-03 2.000000000000e-03 9.794635800000e-03
      vertex -3.000000000000e-03 2.000000000000e-03 1.142707510000e-02
    endloop
  endfacet
  facet normal 1.0 0.0 0.0
    outer loop
      vertex -3.000000000000e-03 1.500000000000e-03 9.794635800000e-03
      vertex -3.000000000000e-03 2.000000000000e-03 1.142707510000e-02
      vertex -3.000000000000e-03 1.500000000000e-03 1.142707510000e-02
    endloop
  endfacet
  facet normal 1.0 0.0 0.0
    outer loop
      vertex -3.000000000000e-03 1.500000000000e-03 1.142707510000e-02
      vertex -3.000000000000e-03 2.000000000000e-03 1.142707510000e-02
      vertex -3.000000000000e-03 2.000000000000e-03 1.305951440000e-02
    endloop
  endfacet
  facet normal 1.0 0.0 0.0
    outer loop
      vertex -3.000000000000e-03 1.500000000000e-03 1.142707510000e-02
      vertex -3.000000000000e-03 2.000000000000e-03 1.305951440000e-02
      vertex -3.000000000000e-03 1.500000000000e-03 1.305951440000e-02
    endloop
  endfacet
  facet normal 1.0 0.0 0.0
    outer loop
      vertex -3.000000000000e-03 1.500000000000e-03 1.305951440000e-02
      vertex -3.000000000000e-03 2.000000000000e-03 1.305951440000e-02
      vertex -3.000000000000e-03 2.000000000000e-03 1.469195370000e-02
    endloop
  endfacet
  facet normal 1.0 0.0 0.0
    outer loop
      vertex -3.000000000000e-03 1.500000000000e-03 1.305951440000e-02
      vertex -3.000000000000e-03 2.000000000000e-03 1.469195370000e-02
      vertex -3.000000000000e-03 1.500000000000e-03 1.469195370000e-02
    endloop
  endfacet
  facet normal 1.0 0.0 0.0
    outer loop
      vertex -3.000000000000e-03 1.500000000000e-03 1.469195370000e-02
      vertex -3.000000000000e-03 2.000000000000e-03 1.469195370000e-02
      vertex -3.000000000000e-03 2.000000000000e-03 1.632439300000e-02
    endloop
  endfacet
  facet normal 1.0 0.0 0.0
    outer loop
      vertex -3.000000000000e-03 1.500000000000e-03 1.469195370000e-02
      vertex -3.000000000000e-03 2.000000000000e-03 1.632439300000e-02
      vertex -3.000000000000e-03 1.500000000000e-03 1.632439300000e-02
    endloop
  endfacet
  facet normal 1.0 0.0 0.0
    outer loop
      vertex -3.000000000000e-03 1.500000000000e-03 1.632439300000e-02
      vertex -3.000000000000e-03 2.000000000000e-03 1.632439300000e-02
      vertex -3.000000000000e-03 2.000000000000e-03 1.795683230000e-02
    endloop
  endfacet
  facet normal 1.0 0.0 0.0
    outer loop
      vertex -3.000000000000e-03 1.500000000000e-03 1.632439300000e-02
      vertex -3.000000000000e-03 2.000000000000e-03 1.795683230000e-02
      vertex -3.000000000000e-03 1.500000000000e-03 1.795683230000e-02
    endloop
  endfacet
  facet normal 1.0 0.0 0.0
    outer loop
      vertex -3.000000000000e-03 1.500000000000e-03 1.795683230000e-02
      vertex -3.000000000000e-03 2.000000000000e-03 1.795683230000e-02
      vertex -3.000000000000e-03 2.000000000000e-03 1.958927160000e-02
    endloop
  endfacet
  facet normal 1.0 0.0 0.0
    outer loop
      vertex -3.000000000000e-03 1.500000000000e-03 1.795683230000e-02
      vertex -3.000000000000e-03 2.000000000000e-03 1.958927160000e-02
      vertex -3.000000000000e-03 1.500000000000e-03 1.958927160000e-02
    endloop
  endfacet
  facet normal 1.0 0.0 0.0
    outer loop
      vertex -3.000000000000e-03 2.000000000000e-03 0.000000000000e+00
      vertex -3.000000000000e-03 2.500000000000e-03 0.000000000000e+00
      vertex -3.000000000000e-03 2.500000000000e-03 1.632439300000e-03
    endloop
  endfacet
  facet normal 1.0 0.0 0.0
    outer loop
      vertex -3.000000000000e-03 2.000000000000e-03 0.000000000000e+00
      vertex -3.000000000000e-03 2.500000000000e-03 1.632439300000e-03
      vertex -3.000000000000e-03 2.000000000000e-03 1.632439300000e-03
    endloop
  endfacet
  facet normal 1.0 0.0 0.0
    outer loop
      vertex -3.000000000000e-03 2.000000000000e-03 1.632439300000e-03
      vertex -3.000000000000e-03 2.500000000000e-03 1.632439300000e-03
      vertex -3.000000000000e-03 2.500000000000e-03 3.264878600000e-03
    endloop
  endfacet
  facet normal 1.0 0.0 0.0
    outer loop
      vertex -3.000000000000e-03 2.000000000000e-03 1.632439300000e-03
      vertex -3.000000000000e-03 2.500000000000e-03 3.264878600000e-03
      vertex -3.000000000000e-03 2.000000000000e-03 3.264878600000e-03
    endloop
  endfacet
  facet normal 1.0 0.0 0.0
    outer loop
      vertex -3.000000000000e-03 2.000000000000e-03 3.264878600000e-03
      vertex -3.000000000000e-03 2.500000000000e-03 3.264878600000e-03
      vertex -3.000000000000e-03 2.500000000000e-03 4.897317900000e-03
    endloop
  endfacet
  facet normal 1.0 0.0 0.0
    outer loop
      vertex -3.000000000000e-03 2.000000000000e-03 3.264878600000e-03
      vertex -3.000000000000e-03 2.500000000000e-03 4.897317900000e-03
      vertex -3.000000000000e-03 2.000000000000e-03 4.897317900000e-03
    endloop
  endfacet
  facet normal 1.0 0.0 0.0
    outer loop
      vertex -3.000000000000e-03 2.000000000000e-03 4.897317900000e-03
      vertex -3.000000000000e-03 2.500000000000e-03 4.897317900000e-03
      vertex -3.000000000000e-03 2.500000000000e-03 6.529757200000e-03
    endloop
  endfacet
  facet normal 1.0 0.0 0.0
    outer loop
      vertex -3.000000000000e-03 2.000000000000e-03 4.897317900000e-03
      vertex -3.000000000000e-03 2.500000000000e-03 6.529757200000e-03
      vertex -3.000000000000e-03 2.000000000000e-03 6.529757200000e-03
    endloop
  endfacet
  facet normal 1.0 0.0 0.0
    outer loop
      vertex -3.000000000000e-03 2.000000000000e-03 6.529757200000e-03
      vertex -3.000000000000e-03 2.500000000000e-03 6.529757200000e-03
      vertex -3.000000000000e-03 2.500000000000e-03 8.162196500000e-03
    endloop
  endfacet
  facet normal 1.0 0.0 0.0
    outer loop
      vertex -3.000000000000e-03 2.000000000000e-03 6.529757200000e-03
      vertex -3.000000000000e-03 2.500000000000e-03 8.162196500000e-03
      vertex -3.000000000000e-03 2.000000000000e-03 8.162196500000e-03
    endloop
  endfacet
  facet normal 1.0 0.0 0.0
    outer loop
      vertex -3.000000000000e-03 2.000000000000e-03 8.162196500000e-03
      vertex -3.000000000000e-03 2.500000000000e-03 8.162196500000e-03
      vertex -3.000000000000e-03 2.500000000000e-03 9.794635800000e-03
    endloop
  endfacet
  facet normal 1.0 0.0 0.0
    outer loop
      vertex -3.000000000000e-03 2.000000000000e-03 8.162196500000e-03
      vertex -3.000000000000e-03 2.500000000000e-03 9.794635800000e-03
      vertex -3.000000000000e-03 2.000000000000e-03 9.794635800000e-03
    endloop
  endfacet
  facet normal 1.0 0.0 0.0
    outer loop
      vertex -3.000000000000e-03 2.000000000000e-03 9.794635800000e-03
      vertex -3.000000000000e-03 2.500000000000e-03 9.794635800000e-03
      vertex -3.000000000000e-03 2.500000000000e-03 1.142707510000e-02
    endloop
  endfacet
  facet normal 1.0 0.0 0.0
    outer loop
      vertex -3.000000000000e-03 2.000000000000e-03 9.794635800000e-03
      vertex -3.000000000000e-03 2.500000000000e-03 1.142707510000e-02
      vertex -3.000000000000e-03 2.000000000000e-03 1.142707510000e-02
    endloop
  endfacet
  facet normal 1.0 0.0 0.0
    outer loop
      vertex -3.000000000000e-03 2.000000000000e-03 1.142707510000e-02
      vertex -3.000000000000e-03 2.500000000000e-03 1.142707510000e-02
      vertex -3.000000000000e-03 2.500000000000e-03 1.305951440000e-02
    endloop
  endfacet
  facet normal 1.0 0.0 0.0
    outer loop
      vertex -3.000000000000e-03 2.000000000000e-03 1.142707510000e-02
      vertex -3.000000000000e-03 2.500000000000e-03 1.305951440000e-02
      vertex -3.000000000000e-03 2.000000000000e-03 1.305951440000e-02
    endloop
  endfacet
  facet normal 1.0 0.0 0.0
    outer loop
      vertex -3.000000000000e-03 2.000000000000e-03 1.305951440000e-02
      vertex -3.000000000000e-03 2.500000000000e-03 1.305951440000e-02
      vertex -3.000000000000e-03 2.500000000000e-03 1.469195370000e-02
    endloop
  endfacet
  facet normal 1.0 0.0 0.0
    outer loop
      vertex -3.000000000000e-03 2.000000000000e-03 1.305951440000e-02
      vertex -3.000000000000e-03 2.500000000000e-03 1.469195370000e-02
      vertex -3.000000000000e-03 2.000000000000e-03 1.469195370000e-02
    endloop
  endfacet
  facet normal 1.0 0.0 0.0
    outer loop
      vertex -3.000000000000e-03 2.000000000000e-03 1.469195370000e-02
      vertex -3.000000000000e-03 2.500000000000e-03 1.469195370000e-02
      vertex -3.000000000000e-03 2.500000000000e-03 1.632439300000e-02
    endloop
  endfacet
  facet normal 1.0 0.0 0.0
    outer loop
      vertex -3.000000000000e-03 2.000000000000e-03 1.469195370000e-02
      vertex -3.000000000000e-03 2.500000000000e-03 1.632439300000e-02
      vertex -3.000000000000e-03 2.000000000000e-03 1.632439300000e-02
    endloop
  endfacet
  facet normal 1.0 0.0 0.0
    outer loop
      vertex -3.000000000000e-03 2.000000000000e-03 1.632439300000e-02
      vertex -3.000000000000e-03 2.500000000000e-03 1.632439300000e-02
      vertex -3.000000000000e-03 2.500000000000e-03 1.795683230000e-02
    endloop
  endfacet
  facet normal 1.0 0.0 0.0
    outer loop
      vertex -3.000000000000e-03 2.000000000000e-03 1.632439300000e-02
      vertex -3.000000000000e-03 2.500000000000e-03 1.795683230000e-02
      vertex -3.000000000000e-03 2.000000000000e-03 1.795683230000e-02
    endloop
  endfacet
  facet normal 1.0 0.0 0.0
    outer loop
      vertex -3.000000000000e-03 2.000000000000e-03 1.795683230000e-02
      vertex -3.000000000000e-03 2.500000000000e-03 1.795683230000e-02
      vertex -3.000000000000e-03 2.500000000000e-03 1.958927160000e-02
    endloop
  endfacet
  facet normal 1.0 0.0 0.0
    outer loop
      vertex -3.000000000000e-03 2.000000000000e-03 1.795683230000e-02
      vertex -3.000000000000e-03 2.500000000000e-03 1.958927160000e-02
      vertex -3.000000000000e-03 2.000000000000e-03 1.958927160000e-02
    endloop
  endfacet
  facet normal 1.0 0.0 0.0
    outer loop
      vertex -3.000000000000e-03 2.500000000000e-03 0.000000000000e+00
      vertex -3.000000000000e-03 3.000000000000e-03 0.000000000000e+00
      vertex -3.000000000000e-03 3.000000000000e-03 1.632439300000e-03
    endloop
  endfacet
  facet normal 1.0 0.0 0.0
    outer loop
      vertex -3.000000000000e-03 2.500000000000e-03 0.000000000000e+00
      vertex -3.000000000000e-03 3.000000000000e-03 1.632439300000e-03
      vertex -3.000000000000e-03 2.500000000000e-03 1.632439300000e-03
    endloop
  endfacet
  facet normal 1.0 0.0 0.0
    outer loop
      vertex -3.000000000000e-03 2.500000000000e-03 1.632439300000e-03
      vertex -3.000000000000e-03 3.000000000000e-03 1.632439300000e-03
      vertex -3.000000000000e-03 3.000000000000e-03 3.264878600000e-03
    endloop
  endfacet
  facet normal 1.0 0.0 0.0
    outer loop
      vertex -3.000000000000e-03 2.500000000000e-03 1.632439300000e-03
      vertex -3.000000000000e-03 3.000000000000e-03 3.264878600000e-03
      vertex -3.000000000000e-03 2.500000000000e-03 3.264878600000e-03
    endloop
  endfacet
  facet normal 1.0 0.0 0.0
    outer loop
      vertex -3.000000000000e-03 2.500000000000e-03 3.264878600000e-03
      vertex -3.000000000000e-03 3.000000000000e-03 3.264878600000e-03
      vertex -3.000000000000e-03 3.000000000000e-03 4.897317900000e-03
    endloop
  endfacet
  facet normal 1.0 0.0 0.0
    outer loop
      vertex -3.000000000000e-03 2.500000000000e-03 3.264878600000e-03
      vertex -3.000000000000e-03 3.000000000000e-03 4.897317900000e-03
      vertex -3.000000000000e-03 2.500000000000e-03 4.897317900000e-03
    endloop
  endfacet
  facet normal 1.0 0.0 0.0
    outer loop
      vertex -3.000000000000e-03 2.500000000000e-03 4.897317900000e-03
      vertex -3.000000000000e-03 3.000000000000e-03 4.897317900000e-03
      vertex -3.000000000000e-03 3.000000000000e-03 6.529757200000e-03
    endloop
  endfacet
  facet normal 1.0 0.0 0.0
    outer loop
      vertex -3.000000000000e-03 2.500000000000e-03 4.897317900000e-03
      vertex -3.000000000000e-03 3.000000000000e-03 6.529757200000e-03
      vertex -3.000000000000e-03 2.500000000000e-03 6.529757200000e-03
    endloop
  endfacet
  facet normal 1.0 0.0 0.0
    outer loop
      vertex -3.000000000000e-03 2.500000000000e-03 6.529757200000e-03
      vertex -3.000000000000e-03 3.000000000000e-03 6.529757200000e-03
      vertex -3.000000000000e-03 3.000000000000e-03 8.162196500000e-03
    endloop
  endfacet
  facet normal 1.0 0.0 0.0
    outer loop
      vertex -3.000000000000e-03 2.500000000000e-03 6.529757200000e-03
      vertex -3.000000000000e-03 3.000000000000e-03 8.162196500000e-03
      vertex -3.000000000000e-03 2.500000000000e-03 8.162196500000e-03
    endloop
  endfacet
  facet normal 1.0 0.0 0.0
    outer loop
      vertex -3.000000000000e-03 2.500000000000e-03 8.162196500000e-03
      vertex -3.000000000000e-03 3.000000000000e-03 8.162196500000e-03
      vertex -3.000000000000e-03 3.000000000000e-03 9.794635800000e-03
    endloop
  endfacet
  facet normal 1.0 0.0 0.0
    outer loop
      vertex -3.000000000000e-03 2.500000000000e-03 8.162196500000e-03
      vertex -3.000000000000e-03 3.000000000000e-03 9.794635800000e-03
      vertex -3.000000000000e-03 2.500000000000e-03 9.794635800000e-03
    endloop
  endfacet
  facet normal 1.0 0.0 0.0
    outer loop
      vertex -3.000000000000e-03 2.500000000000e-03 9.794635800000e-03
      vertex -3.000000000000e-03 3.000000000000e-03 9.794635800000e-03
      vertex -3.000000000000e-03 3.000000000000e-03 1.142707510000e-02
    endloop
  endfacet
  facet normal 1.0 0.0 0.0
    outer loop
      vertex -3.000000000000e-03 2.500000000000e-03 9.794635800000e-03
      vertex -3.000000000000e-03 3.000000000000e-03 1.142707510000e-02
      vertex -3.000000000000e-03 2.500000000000e-03 1.142707510000e-02
    endloop
  endfacet
  facet normal 1.0 0.0 0.0
    outer loop
      vertex -3.000000000000e-03 2.500000000000e-03 1.142707510000e-02
      vertex -3.000000000000e-03 3.000000000000e-03 1.142707510000e-02
      vertex -3.000000000000e-03 3.000000000000e-03 1.305951440000e-02
    endloop
  endfacet
  facet normal 1.0 0.0 0.0
    outer loop
      vertex -3.000000000000e-03 2.500000000000e-03 1.142707510000e-02
      vertex -3.000000000000e-03 3.000000000000e-03 1.305951440000e-02
      vertex -3.000000000000e-03 2.500000000000e-03 1.305951440000e-02
    endloop
  endfacet
  facet normal 1.0 0.0 0.0
    outer loop
      vertex -3.000000000000e-03 2.500000000000e-03 1.305951440000e-02
      vertex -3.000000000000e-03 3.000000000000e-03 1.305951440000e-02
      vertex -3.000000000000e-03 3.000000000000e-03 1.469195370000e-02
    endloop
  endfacet
  facet normal 1.0 0.0 0.0
    outer loop
      vertex -3.000000000000e-03 2.500000000000e-03 1.305951440000e-02
      vertex -3.000000000000e-03 3.000000000000e-03 1.469195370000e-02
      vertex -3.000000000000e-03 2.500000000000e-03 1.469195370000e-02
    endloop
  endfacet
  facet normal 1.0 0.0 0.0
    outer loop
      vertex -3.000000000000e-03 2.500000000000e-03 1.469195370000e-02
      vertex -3.000000000000e-03 3.000000000000e-03 1.469195370000e-02
      vertex -3.000000000000e-03 3.000000000000e-03 1.632439300000e-02
    endloop
  endfacet
  facet normal 1.0 0.0 0.0
    outer loop
      vertex -3.000000000000e-03 2.500000000000e-03 1.469195370000e-02
      vertex -3.000000000000e-03 3.000000000000e-03 1.632439300000e-02
      vertex -3.000000000000e-03 2.500000000000e-03 1.632439300000e-02
    endloop
  endfacet
  facet normal 1.0 0.0 0.0
    outer loop
      vertex -3.000000000000e-03 2.500000000000e-03 1.632439300000e-02
      vertex -3.000000000000e-03 3.000000000000e-03 1.632439300000e-02
      vertex -3.000000000000e-03 3.000000000000e-03 1.795683230000e-02
    endloop
  endfacet
  facet normal 1.0 0.0 0.0
    outer loop
      vertex -3.000000000000e-03 2.500000000000e-03 1.632439300000e-02
      vertex -3.000000000000e-03 3.000000000000e-03 1.795683230000e-02
      vertex -3.000000000000e-03 2.500000000000e-03 1.795683230000e-02
    endloop
  endfacet
  facet normal 1.0 0.0 0.0
    outer loop
      vertex -3.000000000000e-03 2.500000000000e-03 1.795683230000e-02
      vertex -3.000000000000e-03 3.000000000000e-03 1.795683230000e-02
      vertex -3.000000000000e-03 3.000000000000e-03 1.958927160000e-02
    endloop
  endfacet
  facet normal 1.0 0.0 0.0
    outer loop
      vertex -3.000000000000e-03 2.500000000000e-03 1.795683230000e-02
      vertex -3.000000000000e-03 3.000000000000e-03 1.958927160000e-02
      vertex -3.000000000000e-03 2.500000000000e-03 1.958927160000e-02
    endloop
  endfacet
endsolid wall
